<svg xmlns="http://www.w3.org/2000/svg" xmlns:svg="http://www.w3.org/2000/svg" id="svg2" version="1.1" viewBox="0 0 16 16"><metadata id="metadata16"/><path color="#000" style="text-decoration-line:none;text-decoration-style:solid;text-decoration-color:#000;isolation:auto;mix-blend-mode:normal;solid-color:#000;solid-opacity:1" id="rect4167" fill="#424854" fill-opacity="1" fill-rule="nonzero" stroke="none" stroke-dasharray="none" stroke-dashoffset="0" stroke-linecap="butt" stroke-linejoin="miter" stroke-miterlimit="4" stroke-opacity="1" stroke-width="1" d="M 2 2 L 2 14 L 14 14 L 14 2 L 2 2 z M 3 3 L 13 3 L 13 4 L 13 5 L 13 6 L 13 7 L 13 13 L 3 13 L 3 7 L 3 6 L 3 5 L 3 4 L 3 3 z M 4.7070312 5 L 4 5.7070312 L 5.7929688 7.5 L 4 9.2929688 L 4.7070312 10 L 7 7.7070312 L 7.2070312 7.5 L 7 7.2929688 L 4.7070312 5 z M 9 10 L 9 11 L 12 11 L 12 10 L 9 10 z" clip-rule="nonzero" color-interpolation="sRGB" color-interpolation-filters="linearRGB" color-rendering="auto" display="inline" enable-background="accumulate" image-rendering="auto" opacity="1" overflow="visible" shape-rendering="auto" text-decoration="none" text-rendering="auto" visibility="visible"/></svg>