<svg xmlns="http://www.w3.org/2000/svg" xmlns:svg="http://www.w3.org/2000/svg" id="svg4359" width="16" height="16" version="1.1"><defs id="defs4361"><linearGradient id="linearGradient4103"><stop id="stop4105" offset="0" stop-color="#bdecfb" stop-opacity="1"/><stop id="stop4107" offset="1" stop-color="#f5feff" stop-opacity="1"/></linearGradient><linearGradient id="linearGradient4314"><stop id="stop4316" offset="0" stop-color="#ff4b00" stop-opacity="1"/><stop id="stop4318" offset="1" stop-color="#f50" stop-opacity="1"/></linearGradient><linearGradient id="linearGradient5020-1"><stop id="stop5022-6" offset="0" stop-color="#0da8db" stop-opacity="1"/><stop id="stop5024-0" offset="1" stop-color="#1fe1fb" stop-opacity="1"/></linearGradient></defs><metadata id="metadata4364"/><g id="layer1" transform="translate(-3,-29)"><path id="rect4156" fill="#424854" fill-opacity="1" stroke="none" stroke-dasharray="none" stroke-miterlimit="4" stroke-opacity="1" stroke-width="1" d="M 2 2 L 2 14 L 14 14 L 14 2 L 2 2 z M 4 3 L 5 3 L 5 4 L 4 4 L 4 5 L 5 5 L 11 5 L 12 5 L 12 4 L 12 3 L 13 3 L 13 13 L 3 13 L 3 4 L 4 4 L 4 3 z M 6 3 L 9 3 L 9 4 L 6 4 L 6 3 z M 10 3 L 11 3 L 11 4 L 10 4 L 10 3 z M 6 7 L 6 8 L 10 8 L 10 7 L 6 7 z M 6 9 L 6 10 L 8 10 L 8 9 L 6 9 z M 4 11 L 4 12 L 5 12 L 5 11 L 4 11 z M 11 11 L 11 12 L 12 12 L 12 11 L 11 11 z" opacity="1" transform="translate(3,29)"/></g></svg>