<svg xmlns="http://www.w3.org/2000/svg" xmlns:svg="http://www.w3.org/2000/svg" xmlns:xlink="http://www.w3.org/1999/xlink" id="svg5453" width="48" height="48" version="1.1"><defs id="defs5455"><linearGradient id="linearGradient4124"><stop id="stop4126" offset="0" stop-color="#c9ddef" stop-opacity="1"/><stop id="stop4128" offset="1" stop-color="#f7fafd" stop-opacity="1"/></linearGradient><linearGradient id="linearGradient4606"><stop id="stop4608" offset="0" stop-color="#306ca0" stop-opacity="1"/><stop id="stop4610" offset="1" stop-color="#5f9dd2" stop-opacity="1"/></linearGradient><linearGradient id="linearGradient4612" x1="408.722" x2="408.722" y1="-547.8" y2="-499.81" gradientUnits="userSpaceOnUse" xlink:href="#linearGradient4606"/><linearGradient id="linearGradient4122" x1="25.014" x2="25.014" y1="39" y2="9" gradientUnits="userSpaceOnUse" xlink:href="#linearGradient4124"/></defs><metadata id="metadata5458"/><g id="layer1" transform="translate(-384.57143,-499.798)"><rect id="rect2991-1-7" width="48" height="48" x="384.571" y="-547.798" fill="url(#linearGradient4612)" fill-opacity="1" stroke="none" ry="1.945" transform="scale(1,-1)"/><path id="rect846" fill="#000" fill-opacity="1" stroke="none" d="m 384.57143,544.79799 0,1.0625 c 0,1.0773 0.86022,1.9375 1.9375,1.9375 l 44.125,0 c 1.07728,0 1.9375,-0.8602 1.9375,-1.9375 l 0,-1.0625 c 0,1.0773 -0.86022,1.9375 -1.9375,1.9375 l -44.125,0 C 385.43165,546.73549 384.57143,545.87529 384.57143,544.79799 Z"/><path id="path7515" fill="#fff" fill-opacity=".537" stroke="none" d="m 387.10268,500.45429 c -0.91709,0 -1.67115,0.6395 -1.84375,1.5 0.33561,-0.2799 0.77451,-0.4375 1.25,-0.4375 l 44.125,0 c 0.47549,0 0.91439,0.1576 1.25,0.4375 -0.1726,-0.8605 -0.92666,-1.5 -1.84375,-1.5 L 387.10268,500.45429 Z"/><path id="rect4280" fill="#000" fill-opacity=".392" stroke="none" d="m 386.50893,499.79799 c -1.07728,0 -1.9375,0.8602 -1.9375,1.9375 l 0,43.0625 c 0,0.7934 0.48002,1.449 1.15625,1.75 -0.30934,-0.3333 -0.5,-0.7824 -0.5,-1.2812 l 0,-42.9375 c 0,-1.0482 0.8269,-1.875 1.875,-1.875 l 42.9375,0 c 1.0481,0 1.875,0.8268 1.875,1.875 l 0,42.9375 c 0,0.4988 -0.19066,0.9479 -0.5,1.2812 0.67623,-0.301 1.15625,-0.9566 1.15625,-1.75 l 0,-43.0625 c 0,-1.0773 -0.86022,-1.9375 -1.9375,-1.9375 L 386.50893,499.79799 Z"/><path id="path4136" fill="#000" fill-opacity=".059" stroke="none" d="m 412.57143,509.998 a 11.000001,11.000001 0 0 0 -10.66406,8.3418 11.000001,11.000001 0 0 0 -8.33594,10.6582 l 0,11 11,0 a 11.000001,11.000001 0 0 0 10.66406,-8.3418 11.000001,11.000001 0 0 0 8.33594,-10.6582 l 0,-11 -11,0 z m 0,1.57227 9.42773,0 0,9.42773 a 9.4285782,9.4285782 0 0 1 -6.4746,8.94141 11.000001,11.000001 0 0 0 0.0469,-0.94141 11.000001,11.000001 0 0 0 -11,-11 11.000001,11.000001 0 0 0 -0.94727,0.0469 9.4285782,9.4285782 0 0 1 8.94727,-6.47461 z m -8,8 a 9.4285782,9.4285782 0 0 1 9.42773,9.42773 9.4285782,9.4285782 0 0 1 -0.10546,1.32422 9.4285782,9.4285782 0 0 1 -1.32227,0.10351 9.4285782,9.4285782 0 0 1 -9.42773,-9.42773 9.4285782,9.4285782 0 0 1 0.10546,-1.32422 9.4285782,9.4285782 0 0 1 1.32227,-0.10351 z m -2.95312,0.48632 a 11.000001,11.000001 0 0 0 -0.0469,0.94141 11.000001,11.000001 0 0 0 11,11 11.000001,11.000001 0 0 0 0.94727,-0.0469 9.4285782,9.4285782 0 0 1 -8.94727,6.4746 l -9.42773,0 0,-9.42773 a 9.4285782,9.4285782 0 0 1 6.47461,-8.94141 z"/><path id="path4134" fill="#000" fill-opacity=".118" stroke="none" d="m 412.57143,509.598 a 11.000001,11.000001 0 0 0 -10.66406,8.3418 11.000001,11.000001 0 0 0 -8.33594,10.6582 l 0,11 11,0 a 11.000001,11.000001 0 0 0 10.66406,-8.3418 11.000001,11.000001 0 0 0 8.33594,-10.6582 l 0,-11 -11,0 z m 0,1.57227 9.42773,0 0,9.42773 a 9.4285782,9.4285782 0 0 1 -6.4746,8.94141 11.000001,11.000001 0 0 0 0.0469,-0.94141 11.000001,11.000001 0 0 0 -11,-11 11.000001,11.000001 0 0 0 -0.94727,0.0469 9.4285782,9.4285782 0 0 1 8.94727,-6.47461 z m -8,8 a 9.4285782,9.4285782 0 0 1 9.42773,9.42773 9.4285782,9.4285782 0 0 1 -0.10546,1.32422 9.4285782,9.4285782 0 0 1 -1.32227,0.10351 9.4285782,9.4285782 0 0 1 -9.42773,-9.42773 9.4285782,9.4285782 0 0 1 0.10546,-1.32422 9.4285782,9.4285782 0 0 1 1.32227,-0.10351 z m -2.95312,0.48632 a 11.000001,11.000001 0 0 0 -0.0469,0.94141 11.000001,11.000001 0 0 0 11,11 11.000001,11.000001 0 0 0 0.94727,-0.0469 9.4285782,9.4285782 0 0 1 -8.94727,6.4746 l -9.42773,0 0,-9.42773 a 9.4285782,9.4285782 0 0 1 6.47461,-8.94141 z"/><path id="path4130" fill="#000" fill-opacity=".235" stroke="none" d="m 412.57143,509.198 a 11.000001,11.000001 0 0 0 -10.66406,8.3418 11.000001,11.000001 0 0 0 -8.33594,10.6582 l 0,11 11,0 a 11.000001,11.000001 0 0 0 10.66406,-8.3418 11.000001,11.000001 0 0 0 8.33594,-10.6582 l 0,-11 -11,0 z m 0,1.57227 9.42773,0 0,9.42773 a 9.4285782,9.4285782 0 0 1 -6.4746,8.94141 11.000001,11.000001 0 0 0 0.0469,-0.94141 11.000001,11.000001 0 0 0 -11,-11 11.000001,11.000001 0 0 0 -0.94727,0.0469 9.4285782,9.4285782 0 0 1 8.94727,-6.47461 z m -8,8 a 9.4285782,9.4285782 0 0 1 9.42773,9.42773 9.4285782,9.4285782 0 0 1 -0.10546,1.32422 9.4285782,9.4285782 0 0 1 -1.32227,0.10351 9.4285782,9.4285782 0 0 1 -9.42773,-9.42773 9.4285782,9.4285782 0 0 1 0.10546,-1.32422 9.4285782,9.4285782 0 0 1 1.32227,-0.10351 z m -2.95312,0.48632 a 11.000001,11.000001 0 0 0 -0.0469,0.94141 11.000001,11.000001 0 0 0 11,11 11.000001,11.000001 0 0 0 0.94727,-0.0469 9.4285782,9.4285782 0 0 1 -8.94727,6.4746 l -9.42773,0 0,-9.42773 a 9.4285782,9.4285782 0 0 1 6.47461,-8.94141 z"/><path id="rect4108" fill="url(#linearGradient4122)" fill-opacity="1" stroke="none" d="M 28 9 A 11.000001 11.000001 0 0 0 17.335938 17.341797 A 11.000001 11.000001 0 0 0 9 28 L 9 39 L 20 39 A 11.000001 11.000001 0 0 0 30.664062 30.658203 A 11.000001 11.000001 0 0 0 39 20 L 39 9 L 28 9 z M 28 10.572266 L 37.427734 10.572266 L 37.427734 20 A 9.4285782 9.4285782 0 0 1 30.953125 28.941406 A 11.000001 11.000001 0 0 0 31 28 A 11.000001 11.000001 0 0 0 20 17 A 11.000001 11.000001 0 0 0 19.052734 17.046875 A 9.4285782 9.4285782 0 0 1 28 10.572266 z M 20 18.572266 A 9.4285782 9.4285782 0 0 1 29.427734 28 A 9.4285782 9.4285782 0 0 1 29.322266 29.324219 A 9.4285782 9.4285782 0 0 1 28 29.427734 A 9.4285782 9.4285782 0 0 1 18.572266 20 A 9.4285782 9.4285782 0 0 1 18.677734 18.675781 A 9.4285782 9.4285782 0 0 1 20 18.572266 z M 17.046875 19.058594 A 11.000001 11.000001 0 0 0 17 20 A 11.000001 11.000001 0 0 0 28 31 A 11.000001 11.000001 0 0 0 28.947266 30.953125 A 9.4285782 9.4285782 0 0 1 20 37.427734 L 10.572266 37.427734 L 10.572266 28 A 9.4285782 9.4285782 0 0 1 17.046875 19.058594 z" transform="translate(384.57143,499.798)"/><path id="path4138" fill="#326ea2" fill-opacity=".314" stroke="none" d="M 28 9.7714844 A 9.4285782 9.4285782 0 0 0 19.052734 16.246094 A 11.000001 11.000001 0 0 1 19.369141 16.230469 A 9.4285782 9.4285782 0 0 1 28 10.572266 L 37.427734 10.572266 L 37.427734 9.7714844 L 28 9.7714844 z M 20 17.771484 A 9.4285782 9.4285782 0 0 0 18.677734 17.875 A 9.4285782 9.4285782 0 0 0 18.572266 19.199219 A 9.4285782 9.4285782 0 0 0 18.589844 19.697266 A 9.4285782 9.4285782 0 0 1 18.677734 18.675781 A 9.4285782 9.4285782 0 0 1 20 18.572266 A 9.4285782 9.4285782 0 0 1 29.410156 27.501953 A 9.4285782 9.4285782 0 0 0 29.427734 27.199219 A 9.4285782 9.4285782 0 0 0 20 17.771484 z M 17.046875 18.257812 A 9.4285782 9.4285782 0 0 0 10.572266 27.199219 L 10.572266 28 A 9.4285782 9.4285782 0 0 1 17.005859 19.072266 A 11.000001 11.000001 0 0 1 17.046875 18.257812 z M 39 19.199219 A 11.000001 11.000001 0 0 1 30.664062 29.857422 A 11.000001 11.000001 0 0 1 20 38.199219 L 9 38.199219 L 9 39 L 20 39 A 11.000001 11.000001 0 0 0 30.664062 30.658203 A 11.000001 11.000001 0 0 0 39 20 L 39 19.199219 z M 17.019531 19.599609 A 11.000001 11.000001 0 0 0 17 20 A 11.000001 11.000001 0 0 0 28 31 A 11.000001 11.000001 0 0 0 28.632812 30.96875 A 9.4285782 9.4285782 0 0 0 28.947266 30.152344 A 11.000001 11.000001 0 0 1 28 30.199219 A 11.000001 11.000001 0 0 1 17.019531 19.599609 z M 30.980469 27.599609 A 11.000001 11.000001 0 0 1 30.953125 28.140625 A 9.4285782 9.4285782 0 0 0 30.994141 28.126953 A 11.000001 11.000001 0 0 0 31 28 A 11.000001 11.000001 0 0 0 30.980469 27.599609 z" transform="translate(384.57143,499.798)"/><path id="path4143" fill="#fff" fill-opacity=".235" stroke="none" d="M 28 9 A 11.000001 11.000001 0 0 0 17.335938 17.341797 A 11.000001 11.000001 0 0 0 9 28 L 9 28.400391 A 11.000001 11.000001 0 0 1 17.335938 17.742188 A 11.000001 11.000001 0 0 1 28 9.4003906 L 39 9.4003906 L 39 9 L 28 9 z M 20 17 A 11.000001 11.000001 0 0 0 19.210938 17.039062 A 9.4285782 9.4285782 0 0 0 19.052734 17.447266 A 11.000001 11.000001 0 0 1 20 17.400391 A 11.000001 11.000001 0 0 1 30.990234 28.201172 A 11.000001 11.000001 0 0 0 31 28 A 11.000001 11.000001 0 0 0 20 17 z M 17.046875 19.458984 A 9.4285782 9.4285782 0 0 0 17.027344 19.466797 A 11.000001 11.000001 0 0 0 17 20 A 11.000001 11.000001 0 0 0 17.009766 20.199219 A 11.000001 11.000001 0 0 1 17.046875 19.458984 z M 37.427734 20 A 9.4285782 9.4285782 0 0 1 30.972656 28.933594 A 11.000001 11.000001 0 0 1 30.953125 29.341797 A 9.4285782 9.4285782 0 0 0 37.427734 20.400391 L 37.427734 20 z M 18.580078 20.25 A 9.4285782 9.4285782 0 0 0 18.572266 20.400391 A 9.4285782 9.4285782 0 0 0 28 29.828125 A 9.4285782 9.4285782 0 0 0 29.322266 29.724609 A 9.4285782 9.4285782 0 0 0 29.427734 28.400391 A 9.4285782 9.4285782 0 0 0 29.419922 28.150391 A 9.4285782 9.4285782 0 0 1 29.322266 29.324219 A 9.4285782 9.4285782 0 0 1 28 29.427734 A 9.4285782 9.4285782 0 0 1 18.580078 20.25 z M 28.947266 31.353516 A 11.000001 11.000001 0 0 1 28.789062 31.361328 A 9.4285782 9.4285782 0 0 1 20 37.427734 L 10.572266 37.427734 L 10.572266 37.828125 L 20 37.828125 A 9.4285782 9.4285782 0 0 0 28.947266 31.353516 z" transform="translate(384.57143,499.798)"/></g></svg>