<svg xmlns="http://www.w3.org/2000/svg" xmlns:svg="http://www.w3.org/2000/svg" xmlns:xlink="http://www.w3.org/1999/xlink" id="svg5453" width="48" height="48" version="1.1"><defs id="defs5455"><linearGradient id="linearGradient5546"><stop id="stop5548" offset="0" stop-color="#c4dff4" stop-opacity="1"/><stop id="stop5550" offset="1" stop-color="#f7fafd" stop-opacity="1"/></linearGradient><linearGradient id="linearGradient5244"><stop id="stop5246" offset="0" stop-color="#164a71" stop-opacity="1"/><stop id="stop5248" offset="1" stop-color="#316e9d" stop-opacity="1"/></linearGradient><linearGradient id="linearGradient5250" x1="409.145" x2="409.145" y1="-547.793" y2="-499.793" gradientUnits="userSpaceOnUse" xlink:href="#linearGradient5244"/><filter id="filter3174" color-interpolation-filters="sRGB"><feGaussianBlur id="feGaussianBlur3176" stdDeviation="1.71"/></filter><linearGradient id="linearGradient5544" x1="351.644" x2="351.644" y1="542.01" y2="477.594" gradientTransform="matrix(0.48125,0,0,0.48125,249.21787,278.4558)" gradientUnits="userSpaceOnUse" xlink:href="#linearGradient5546"/></defs><metadata id="metadata5458"/><g id="layer1" transform="translate(-384.57143,-499.798)"><rect id="rect2991-1-7" width="48" height="48" x="384.571" y="-547.798" fill="url(#linearGradient5250)" fill-opacity="1" stroke="none" ry="1.945" transform="scale(1,-1)"/><path id="path5575" fill="#000" fill-opacity=".059" d="m 408.57144,509.59797 c -8.50122,0 -15.39414,6.89105 -15.4,15.39154 l 0,9.79607 0,2.12144 0,1.10067 c 0,1.32388 1.06545,2.39028 2.38933,2.39028 l 1.11008,0 7.71597,0 4.19213,0 c 8.50209,-0.004 15.39249,-6.89682 15.39249,-15.4 C 423.97144,516.49223 417.07658,509.59797 408.57144,509.59797 z m 4.64143,3.37438 c 0.61867,0 1.05814,0.0701 1.63079,0.21995 0.83518,0.219 1.5167,0.90301 1.51707,1.69942 3.8e-4,0.96277 -0.69821,1.66275 -1.74265,1.66275 -0.49759,0 -0.67761,-0.0959 -1.40615,-0.0959 -2.15023,0 -3.89338,1.74214 -3.897,3.89231 l 0,3.36875 0,10e-4 c 0,0.3043 0.24583,0.54987 0.54988,0.54987 l 0.002,0 2.55946,0 c 0.95377,0 1.72404,0.7638 1.72479,1.72009 0,0.95667 -0.7714,1.71822 -1.72479,1.71822 l -3.11121,0 0,3.92425 0,0.007 c 0,4.07797 -3.30632,7.38323 -7.38417,7.38323 -0.61881,0 -1.05814,-0.069 -1.6308,-0.219 -0.83518,-0.21887 -1.51763,-0.90325 -1.51801,-1.69941 0,-0.96254 0.69866,-1.66276 1.74359,-1.66276 0.4971,0 0.67703,0.0949 1.40522,0.0949 2.15023,0 3.89456,-1.74194 3.89793,-3.89135 l 0,-3.38661 c 0,-0.30367 -0.24676,-0.54987 -0.5508,-0.54987 l -0.002,0 -2.55852,0 c -0.95402,0 -1.72479,-0.76129 -1.72479,-1.71821 -2.6e-4,-0.96228 0.77851,-1.72009 1.74265,-1.72009 l 3.09239,0 0,-3.90828 0,-0.006 C 405.82774,516.27819 409.13439,512.97235 413.21287,512.97235 Z" display="inline"/><path id="path5573" fill="#000" fill-opacity=".118" d="m 408.57144,509.19797 c -8.50122,0 -15.39414,6.89105 -15.4,15.39154 l 0,9.79607 0,2.12144 0,1.10067 c 0,1.32388 1.06545,2.39028 2.38933,2.39028 l 1.11008,0 7.71597,0 4.19213,0 c 8.50209,-0.004 15.39249,-6.89682 15.39249,-15.4 C 423.97144,516.09223 417.07658,509.19797 408.57144,509.19797 z m 4.64143,3.37438 c 0.61867,0 1.05814,0.0701 1.63079,0.21995 0.83518,0.219 1.5167,0.90301 1.51707,1.69942 3.8e-4,0.96277 -0.69821,1.66275 -1.74265,1.66275 -0.49759,0 -0.67761,-0.0959 -1.40615,-0.0959 -2.15023,0 -3.89338,1.74214 -3.897,3.89231 l 0,3.36875 0,0.001 c 0,0.3043 0.24583,0.54987 0.54988,0.54987 l 0.002,0 2.55946,0 c 0.95377,0 1.72404,0.7638 1.72479,1.72009 0,0.95667 -0.7714,1.71822 -1.72479,1.71822 l -3.11121,0 0,3.92425 0,0.007 c 0,4.07797 -3.30632,7.38323 -7.38417,7.38323 -0.61881,0 -1.05814,-0.069 -1.6308,-0.219 -0.83518,-0.21887 -1.51763,-0.90325 -1.51801,-1.69941 0,-0.96254 0.69866,-1.66276 1.74359,-1.66276 0.4971,0 0.67703,0.0949 1.40522,0.0949 2.15023,0 3.89456,-1.74194 3.89793,-3.89135 l 0,-3.38661 c 0,-0.30367 -0.24676,-0.54987 -0.5508,-0.54987 l -0.002,0 -2.55852,0 c -0.95402,0 -1.72479,-0.76129 -1.72479,-1.71821 -2.6e-4,-0.96228 0.77851,-1.72009 1.74265,-1.72009 l 3.09239,0 0,-3.90828 0,-0.006 C 405.82774,515.87819 409.13439,512.57235 413.21287,512.57235 Z" display="inline"/><path id="path5571" fill="#000" fill-opacity=".235" d="m 408.57144,508.79797 c -8.50122,0 -15.39414,6.89105 -15.4,15.39154 l 0,9.79607 0,2.12144 0,1.10067 c 0,1.32388 1.06545,2.39028 2.38933,2.39028 l 1.11008,0 7.71597,0 4.19213,0 c 8.50209,-0.004 15.39249,-6.89682 15.39249,-15.4 C 423.97144,515.69223 417.07658,508.79797 408.57144,508.79797 z m 4.64143,3.37438 c 0.61867,0 1.05814,0.0701 1.63079,0.21995 0.83518,0.219 1.5167,0.90301 1.51707,1.69942 3.8e-4,0.96277 -0.69821,1.66275 -1.74265,1.66275 -0.49759,0 -0.67761,-0.0959 -1.40615,-0.0959 -2.15023,0 -3.89338,1.74214 -3.897,3.89231 l 0,3.36875 0,10e-4 c 0,0.3043 0.24583,0.54987 0.54988,0.54987 l 0.002,0 2.55946,0 c 0.95377,0 1.72404,0.7638 1.72479,1.72009 0,0.95667 -0.7714,1.71822 -1.72479,1.71822 l -3.11121,0 0,3.92425 0,0.007 c 0,4.07797 -3.30632,7.38323 -7.38417,7.38323 -0.61881,0 -1.05814,-0.069 -1.6308,-0.219 -0.83518,-0.21887 -1.51763,-0.90325 -1.51801,-1.69941 0,-0.96254 0.69866,-1.66276 1.74359,-1.66276 0.4971,0 0.67703,0.0949 1.40522,0.0949 2.15023,0 3.89456,-1.74194 3.89793,-3.89135 l 0,-3.38661 c 0,-0.30367 -0.24676,-0.54987 -0.5508,-0.54987 l -0.002,0 -2.55852,0 c -0.95402,0 -1.72479,-0.76129 -1.72479,-1.71821 -2.6e-4,-0.96228 0.77851,-1.72009 1.74265,-1.72009 l 3.09239,0 0,-3.90828 0,-0.006 C 405.82774,515.47819 409.13439,512.17235 413.21287,512.17235 Z" display="inline"/><path id="rect846" fill="#000" fill-opacity="1" stroke="none" d="m 384.57143,544.79799 0,1.0625 c 0,1.0773 0.86022,1.9375 1.9375,1.9375 l 44.125,0 c 1.07728,0 1.9375,-0.8602 1.9375,-1.9375 l 0,-1.0625 c 0,1.0773 -0.86022,1.9375 -1.9375,1.9375 l -44.125,0 C 385.43165,546.73549 384.57143,545.87529 384.57143,544.79799 Z"/><path id="path7515" fill="#fff" fill-opacity=".537" stroke="none" d="m 387.10268,500.45429 c -0.91709,0 -1.67115,0.6395 -1.84375,1.5 0.33561,-0.2799 0.77451,-0.4375 1.25,-0.4375 l 44.125,0 c 0.47549,0 0.91439,0.1576 1.25,0.4375 -0.1726,-0.8605 -0.92666,-1.5 -1.84375,-1.5 L 387.10268,500.45429 Z"/><path id="rect4280" fill="#000" fill-opacity=".392" stroke="none" d="m 386.50893,499.79799 c -1.07728,0 -1.9375,0.8602 -1.9375,1.9375 l 0,43.0625 c 0,0.7934 0.48002,1.449 1.15625,1.75 -0.30934,-0.3333 -0.5,-0.7824 -0.5,-1.2812 l 0,-42.9375 c 0,-1.0482 0.8269,-1.875 1.875,-1.875 l 42.9375,0 c 1.0481,0 1.875,0.8268 1.875,1.875 l 0,42.9375 c 0,0.4988 -0.19066,0.9479 -0.5,1.2812 0.67623,-0.301 1.15625,-0.9566 1.15625,-1.75 l 0,-43.0625 c 0,-1.0773 -0.86022,-1.9375 -1.9375,-1.9375 L 386.50893,499.79799 Z"/><rect id="rect4898" width="56.467" height="56.467" x="388.038" y="487.865" fill="#333" fill-opacity="1" fill-rule="nonzero" stroke="none" display="none"/><rect id="rect4126" width="56.467" height="56.467" x="388.038" y="487.865" fill="#efebe7" fill-opacity="1" fill-rule="nonzero" stroke="none" display="none"/><rect id="rect3745" width="86" height="85" x="222.893" y="468.802" fill="url(#ButtonShadow)" fill-opacity="1" fill-rule="nonzero" stroke="none" display="none" filter="url(#filter3174)" opacity=".9" rx="6" ry="6"/><path id="speech-bubble" fill="url(#linearGradient5544)" fill-opacity="1" d="m 408.57144,508.39797 c -8.50122,0 -15.39414,6.89105 -15.4,15.39154 l 0,9.79607 0,2.12144 0,1.10067 c 0,1.32388 1.06545,2.39028 2.38933,2.39028 l 1.11008,0 7.71597,0 4.19213,0 c 8.50209,-0.004 15.39249,-6.89682 15.39249,-15.4 C 423.97144,515.29223 417.07658,508.39797 408.57144,508.39797 z m 4.64143,3.37438 c 0.61867,0 1.05814,0.0701 1.63079,0.21995 0.83518,0.219 1.5167,0.90301 1.51707,1.69942 3.8e-4,0.96277 -0.69821,1.66275 -1.74265,1.66275 -0.49759,0 -0.67761,-0.0959 -1.40615,-0.0959 -2.15023,0 -3.89338,1.74214 -3.897,3.89231 l 0,3.36875 0,10e-4 c 0,0.3043 0.24583,0.54987 0.54988,0.54987 l 0.002,0 2.55946,0 c 0.95377,0 1.72404,0.7638 1.72479,1.72009 0,0.95667 -0.7714,1.71822 -1.72479,1.71822 l -3.11121,0 0,3.92425 0,0.007 c 0,4.07797 -3.30632,7.38323 -7.38417,7.38323 -0.61881,0 -1.05814,-0.069 -1.6308,-0.219 -0.83518,-0.21887 -1.51763,-0.90325 -1.51801,-1.69941 0,-0.96254 0.69866,-1.66276 1.74359,-1.66276 0.4971,0 0.67703,0.0949 1.40522,0.0949 2.15023,0 3.89456,-1.74194 3.89793,-3.89135 l 0,-3.38661 c 0,-0.30367 -0.24676,-0.54987 -0.5508,-0.54987 l -0.002,0 -2.55852,0 c -0.95402,0 -1.72479,-0.76129 -1.72479,-1.71821 -2.6e-4,-0.96228 0.77851,-1.72009 1.74265,-1.72009 l 3.09239,0 0,-3.90828 0,-0.006 C 405.82774,515.07819 409.13439,511.77235 413.21287,511.77235 Z" display="inline"/><path id="path3942" fill="#fff" fill-opacity="1" d="m 297.89325,510.30178 c -0.26651,17.43883 -14.46869,31.49267 -31.96875,31.5 l -8.71875,0 -16.03125,0 -2.3125,0 c -2.7509,0 -4.96875,-2.21786 -4.96875,-4.96875 l 0,1 c 0,2.75089 2.21785,4.96875 4.96875,4.96875 l 2.3125,0 16.03125,0 8.71875,0 c 17.66666,-0.007 31.96875,-14.33107 31.96875,-32 C 297.89325,510.6351 297.89575,510.46785 297.89325,510.30178 Z" display="inline" opacity=".1"/><path id="path5577" fill="#164a72" fill-opacity=".314" d="m 413.21206,510.97141 c -4.07849,0 -7.38478,3.30634 -7.38477,7.38476 l 0,0.006 0,0.79492 c -1e-5,-4.07842 3.30628,-7.38476 7.38477,-7.38476 0.61867,0 1.0582,0.0689 1.63085,0.21875 0.70171,0.184 1.29098,0.6987 1.4629,1.33008 0.0331,-0.13661 0.0547,-0.27841 0.0547,-0.42969 -3.7e-4,-0.79641 -0.6824,-1.48022 -1.51758,-1.69922 C 414.27026,511.04226 413.83073,510.97141 413.21206,510.97141 z m -3.89649,10.74804 0,0.79883 0,0.002 c 0,0.3043 0.24478,0.55079 0.54883,0.55079 l 0.002,0 2.56055,0 c 0.8159,0 1.49335,0.56006 1.67383,1.32031 0.0307,-0.12898 0.0508,-0.26145 0.0508,-0.40039 -7.5e-4,-0.95629 -0.77084,-1.72071 -1.72461,-1.72071 l -2.56055,0 -0.002,0 C 409.56035,522.27023 409.31557,522.02375 409.31557,521.71945 z m -6.58008,0.55078 c -0.96414,0 -1.74245,0.75843 -1.74218,1.72071 0,0.13835 0.0203,0.26997 0.0508,0.39844 0.18182,-0.76273 0.86663,-1.31836 1.6914,-1.31836 l 3.0918,0 0,-0.80079 L 402.73549,522.27023 z m 21.2168,1.12696 c -0.21425,8.31633 -7.0061,14.99606 -15.37305,15 l -4.19336,0 -7.71484,0 -1.10938,0 c -1.32388,0 -2.39062,-1.06675 -2.39062,-2.39063 l 0,0.80078 c 0,1.32388 1.06674,2.39063 2.39062,2.39063 l 1.10938,0 7.71484,0 4.19336,0 c 8.50209,-0.004 15.39258,-6.89721 15.39258,-15.40039 C 423.97182,523.66238 423.95575,523.53155 423.95229,523.39719 z m -18.12305,6.24804 c -0.003,2.14941 -1.7482,3.89063 -3.89843,3.89063 -0.72819,0 -0.9072,-0.0937 -1.4043,-0.0937 -1.04493,0 -1.74414,0.69957 -1.74414,1.66211 6e-5,0.12698 0.024,0.24928 0.0566,0.36914 0.17852,-0.73139 0.80771,-1.23242 1.6875,-1.23242 0.4971,0 0.67611,0.0957 1.4043,0.0957 2.15023,0 3.89506,-1.74121 3.89843,-3.89062 L 405.82924,529.64523 Z" display="inline"/><path id="path5582" fill="#fff" fill-opacity=".235" d="m 408.57143,508.39797 c -8.50122,0 -15.39453,6.89209 -15.40039,15.39258 l 0,0.39844 c 0.006,-8.50049 6.89917,-15.39063 15.40039,-15.39063 8.43722,0 15.28171,6.78727 15.39063,15.19922 8.5e-4,-0.067 0.01,-0.13197 0.01,-0.19922 C 423.97182,515.29262 417.07657,508.39797 408.57143,508.39797 z m 7.76953,5.51172 c -0.0981,0.84749 -0.75963,1.44531 -1.72265,1.44531 -0.49759,0 -0.67771,-0.0957 -1.40625,-0.0957 -2.15024,0 -3.89287,1.74241 -3.89649,3.89258 l 0,0.39843 c 0.004,-2.15017 1.74625,-3.89062 3.89649,-3.89062 0.72854,0 0.90866,0.0957 1.40625,0.0957 1.04444,0 1.74256,-0.70129 1.74218,-1.66406 C 416.36046,514.02919 416.34903,513.97029 416.34096,513.90969 z m -15.32812,11.08008 c -0.008,0.0669 -0.0195,0.13198 -0.0195,0.20117 0,0.95692 0.77058,1.71875 1.7246,1.71875 l 2.5586,0 0.002,0 c 0.30404,0 0.55078,0.24516 0.55078,0.54883 l 0,-0.39844 c 0,-0.30367 -0.24674,-0.55078 -0.55078,-0.55078 l -0.002,0 -2.5586,0 C 401.83183,526.5093 401.11203,525.85 401.01284,524.98977 z m 13.11914,0.002 c -0.10013,0.85912 -0.82024,1.51758 -1.70508,1.51758 l -3.11133,0 0,0.40039 3.11133,0 c 0.95339,0 1.72461,-0.76208 1.72461,-1.71875 C 414.15145,525.12246 414.13971,525.05801 414.13198,524.99172 z m -4.81641,5.44922 c 0,4.07797 -3.30691,7.38281 -7.38476,7.38281 -0.61881,0 -1.0582,-0.0688 -1.63086,-0.21875 -0.77045,-0.2019 -1.4031,-0.80107 -1.49805,-1.51758 -0.008,0.0719 -0.0195,0.14347 -0.0195,0.21875 3.8e-4,0.79616 0.6824,1.48035 1.51758,1.69922 0.57266,0.15 1.01205,0.21875 1.63086,0.21875 4.07785,0 7.38476,-3.30484 7.38476,-7.38281 l 0,-0.008 L 409.31557,530.44094 Z" display="inline"/></g></svg>