<svg xmlns="http://www.w3.org/2000/svg" xmlns:svg="http://www.w3.org/2000/svg" xmlns:xlink="http://www.w3.org/1999/xlink" id="svg5453" width="48" height="48" version="1.1"><defs id="defs5455"><linearGradient id="linearGradient4458"><stop id="stop4460" offset="0" stop-color="#f8c0e9" stop-opacity="1"/><stop id="stop4462" offset="1" stop-color="#fff5fb" stop-opacity="1"/></linearGradient><linearGradient id="linearGradient4618"><stop id="stop4620" offset="0" stop-color="#9c1076" stop-opacity="1"/><stop id="stop4622" offset="1" stop-color="#c2007e" stop-opacity="1"/></linearGradient><linearGradient id="linearGradient4587" x1="423.037" x2="423.037" y1="-547.943" y2="-499.933" gradientUnits="userSpaceOnUse" xlink:href="#linearGradient4618"/><linearGradient id="linearGradient4448" x1="8.765" x2="8.765" y1="21.529" y2="6.404" gradientTransform="matrix(2.0533334,0,0,2.0533334,392.14476,495.05133)" gradientUnits="userSpaceOnUse" xlink:href="#linearGradient4458"/></defs><metadata id="metadata5458"/><g id="layer1" transform="translate(-384.57143,-499.798)"><rect id="rect2991-1-7" width="48" height="48" x="384.571" y="-547.798" fill="url(#linearGradient4587)" fill-opacity="1" stroke="none" ry="1.945" transform="scale(1,-1)"/><path id="path4653" fill="#000" fill-opacity=".059" fill-rule="evenodd" stroke="none" d="m 405.38916,509.6088 c -6.61285,0.31213 -11.7896,6.31014 -11.52579,9.57227 0.25665,3.17362 8.29945,5.96126 8.2048,6.05592 -1.64552,1.38936 -2.73074,2.32778 -4.1024,3.58147 -3.30324,3.01909 -5.58511,5.25878 -4.42799,8.40015 1.33482,3.6238 4.25264,3.47361 7.68386,2.80005 8.84442,-1.74438 23.40192,-12.9324 22.66089,-17.06078 -0.59961,-3.34048 -8.73525,-9.94389 -13.54444,-12.3072 -1.50242,-0.73832 -3.21219,-1.12359 -4.94893,-1.04188 z m 1.36747,5.73034 c 0.82731,-0.0775 1.79092,0.13182 2.86517,0.65117 2.34612,1.13429 4.77631,4.14576 0,5.86058 -1.2988,0.46631 -5.46573,-1.12182 -5.33964,-3.321 0.11492,-2.03037 1.09562,-3.06159 2.47447,-3.19075 z" display="inline"/><path id="path4651" fill="#000" fill-opacity=".118" fill-rule="evenodd" stroke="none" d="m 405.38916,509.2088 c -6.61285,0.31213 -11.7896,6.31014 -11.52579,9.57227 0.25665,3.17362 8.29945,5.96126 8.2048,6.05592 -1.64552,1.38936 -2.73074,2.32778 -4.1024,3.58147 -3.30324,3.01909 -5.58511,5.25878 -4.42799,8.40015 1.33482,3.6238 4.25264,3.47361 7.68386,2.80005 8.84442,-1.74438 23.40192,-12.9324 22.66089,-17.06078 -0.59961,-3.34048 -8.73525,-9.94389 -13.54444,-12.3072 -1.50242,-0.73832 -3.21219,-1.12359 -4.94893,-1.04188 z m 1.36747,5.73034 c 0.82731,-0.0775 1.79092,0.13182 2.86517,0.65117 2.34612,1.13429 4.77631,4.14576 0,5.86058 -1.2988,0.46631 -5.46573,-1.12182 -5.33964,-3.321 0.11492,-2.03037 1.09562,-3.06159 2.47447,-3.19075 z" display="inline"/><path id="path4647" fill="#000" fill-opacity=".235" fill-rule="evenodd" stroke="none" d="m 405.38916,508.8088 c -6.61285,0.31213 -11.7896,6.31014 -11.52579,9.57227 0.25665,3.17362 8.29945,5.96126 8.2048,6.05592 -1.64552,1.38936 -2.73074,2.32778 -4.1024,3.58147 -3.30324,3.01909 -5.58511,5.25878 -4.42799,8.40015 1.33482,3.6238 4.25264,3.47361 7.68386,2.80005 8.84442,-1.74438 23.40192,-12.9324 22.66089,-17.06078 -0.59961,-3.34048 -8.73525,-9.94389 -13.54444,-12.3072 -1.50242,-0.73832 -3.21219,-1.12359 -4.94893,-1.04188 z m 1.36747,5.73034 c 0.82731,-0.0775 1.79092,0.13182 2.86517,0.65117 2.34612,1.13429 4.77631,4.14576 0,5.86058 -1.2988,0.46631 -5.46573,-1.12182 -5.33964,-3.321 0.11492,-2.03037 1.09562,-3.06159 2.47447,-3.19075 z" display="inline"/><path id="rect846" fill="#000" fill-opacity="1" stroke="none" d="m 384.57143,544.79799 0,1.0625 c 0,1.0773 0.86022,1.9375 1.9375,1.9375 l 44.125,0 c 1.07728,0 1.9375,-0.8602 1.9375,-1.9375 l 0,-1.0625 c 0,1.0773 -0.86022,1.9375 -1.9375,1.9375 l -44.125,0 C 385.43165,546.73549 384.57143,545.87529 384.57143,544.79799 Z"/><path id="path7515" fill="#fff" fill-opacity=".537" stroke="none" d="m 387.10268,500.45429 c -0.91709,0 -1.67115,0.6395 -1.84375,1.5 0.33561,-0.2799 0.77451,-0.4375 1.25,-0.4375 l 44.125,0 c 0.47549,0 0.91439,0.1576 1.25,0.4375 -0.1726,-0.8605 -0.92666,-1.5 -1.84375,-1.5 L 387.10268,500.45429 Z"/><path id="rect4280" fill="#000" fill-opacity=".392" stroke="none" d="m 386.50893,499.79799 c -1.07728,0 -1.9375,0.8602 -1.9375,1.9375 l 0,43.0625 c 0,0.7934 0.48002,1.449 1.15625,1.75 -0.30934,-0.3333 -0.5,-0.7824 -0.5,-1.2812 l 0,-42.9375 c 0,-1.0482 0.8269,-1.875 1.875,-1.875 l 42.9375,0 c 1.0481,0 1.875,0.8268 1.875,1.875 l 0,42.9375 c 0,0.4988 -0.19066,0.9479 -0.5,1.2812 0.67623,-0.301 1.15625,-0.9566 1.15625,-1.75 l 0,-43.0625 c 0,-1.0773 -0.86022,-1.9375 -1.9375,-1.9375 L 386.50893,499.79799 Z"/><path id="path2975" fill="url(#linearGradient4448)" fill-opacity="1" fill-rule="evenodd" stroke="none" d="m 405.38916,508.4088 c -6.61285,0.31213 -11.7896,6.31014 -11.52579,9.57227 0.25665,3.17362 8.29945,5.96126 8.2048,6.05592 -1.64552,1.38936 -2.73074,2.32778 -4.1024,3.58147 -3.30324,3.01909 -5.58511,5.25878 -4.42799,8.40015 1.33482,3.6238 4.25264,3.47361 7.68386,2.80005 8.84442,-1.74438 23.40192,-12.9324 22.66089,-17.06078 -0.59961,-3.34048 -8.73525,-9.94389 -13.54444,-12.3072 -1.50242,-0.73832 -3.21219,-1.12359 -4.94893,-1.04188 z m 1.36747,5.73034 c 0.82731,-0.0775 1.79092,0.13182 2.86517,0.65117 2.34612,1.13429 4.77631,4.14576 0,5.86058 -1.2988,0.46631 -5.46573,-1.12182 -5.33964,-3.321 0.11492,-2.03037 1.09562,-3.06159 2.47447,-3.19075 z" display="inline"/><path id="path4655" fill="#9d0f76" fill-opacity=".314" fill-rule="evenodd" stroke="none" d="M 22.830078 13.537109 C 22.606614 13.520269 22.392374 13.521641 22.185547 13.541016 C 20.806697 13.670176 19.825857 14.702052 19.710938 16.732422 C 19.702071 16.88706 19.718903 17.037453 19.75 17.185547 C 19.954698 15.391032 20.890033 14.463151 22.185547 14.341797 C 23.012857 14.264297 23.976531 14.472837 25.050781 14.992188 C 26.267054 15.580225 27.496515 16.673281 27.742188 17.828125 C 28.067306 16.401433 26.546519 14.914558 25.050781 14.191406 C 24.245094 13.801894 23.50047 13.58763 22.830078 13.537109 z M 9.3144531 17.486328 C 9.2840125 17.728532 9.2732309 17.963677 9.2910156 18.183594 C 9.5150303 20.953659 15.383817 23.316995 16.882812 23.964844 C 17.097044 23.782913 17.261547 23.637488 17.496094 23.439453 C 17.589707 23.34583 9.7351356 20.616541 9.3144531 17.486328 z M 39.291016 21.894531 C 38.47973 26.477627 25.014743 36.571007 16.650391 38.220703 C 13.219171 38.894263 10.301617 39.043722 8.9667969 35.419922 C 8.8153972 35.008899 8.7265669 34.614384 8.6875 34.230469 C 8.629205 34.861803 8.7079338 35.517937 8.9667969 36.220703 C 10.301617 39.844503 13.219171 39.695044 16.650391 39.021484 C 25.494811 37.277104 40.051577 26.087364 39.310547 21.958984 C 39.306894 21.938632 39.295226 21.915124 39.291016 21.894531 z" display="inline" transform="translate(384.57143,499.798)"/><path id="path4660" fill="#fff" fill-opacity=".235" fill-rule="evenodd" stroke="none" d="M 20.818359 8.6113281 C 14.205509 8.9234581 9.0272056 14.921464 9.2910156 18.183594 C 9.2919193 18.194768 9.2977321 18.205632 9.2988281 18.216797 C 9.414247 14.893089 14.441683 9.3127013 20.818359 9.0117188 C 22.555099 8.9300088 24.265158 9.3144144 25.767578 10.052734 C 30.576768 12.416044 38.710937 19.018895 39.310547 22.359375 C 39.31808 22.401341 39.313966 22.448779 39.318359 22.492188 C 39.336373 22.305376 39.340208 22.124233 39.310547 21.958984 C 38.710937 18.618504 30.576768 12.015654 25.767578 9.6523438 C 24.265158 8.9140238 22.555099 8.5296181 20.818359 8.6113281 z M 19.726562 17.791016 C 19.722699 17.839716 19.713762 17.881734 19.710938 17.931641 C 19.584847 20.130821 23.751981 21.718263 25.050781 21.251953 C 27.211655 20.476143 27.887499 19.436537 27.773438 18.423828 C 27.679681 19.305485 26.92755 20.179707 25.050781 20.853516 C 23.803879 21.301193 19.923907 19.853227 19.726562 17.791016 z M 17.189453 24.501953 C 15.731664 25.735984 14.668282 26.656111 13.394531 27.820312 C 10.616686 30.359203 8.5692911 32.348881 8.6738281 34.785156 C 8.7962686 32.527304 10.77005 30.619422 13.394531 28.220703 C 14.766191 26.967013 15.850574 26.028032 17.496094 24.638672 C 17.502112 24.632653 17.245132 24.529151 17.189453 24.501953 z" display="inline" transform="translate(384.57143,499.798)"/></g></svg>