<svg xmlns="http://www.w3.org/2000/svg" xmlns:svg="http://www.w3.org/2000/svg" xmlns:xlink="http://www.w3.org/1999/xlink" id="svg5453" width="48" height="48" version="1.1"><defs id="defs5455"><linearGradient id="linearGradient4368"><stop id="stop4370" offset="0" stop-color="#ccf9bf" stop-opacity="1"/><stop id="stop4372" offset="1" stop-color="#fafef6" stop-opacity="1"/></linearGradient><linearGradient id="linearGradient4612" x1="408.722" x2="408.722" y1="-547.8" y2="-499.81" gradientTransform="translate(-1.3822266e-5,0)" gradientUnits="userSpaceOnUse" xlink:href="#linearGradient853"/><style id="style2464" type="text/css"/><style id="style2464-7" type="text/css"/><linearGradient id="linearGradient853"><stop id="stop855" offset="0" stop-color="#36b512" stop-opacity="1"/><stop id="stop857" offset="1" stop-color="#93e62f" stop-opacity="1"/></linearGradient><linearGradient id="linearGradient4366" x1="410.284" x2="410.284" y1="539.146" y2="508.533" gradientTransform="translate(2e-6,0)" gradientUnits="userSpaceOnUse" xlink:href="#linearGradient4368"/></defs><metadata id="metadata5458"/><g id="layer1" transform="translate(-384.57143,-499.798)"><rect id="rect2991-1-7" width="48" height="48" x="384.571" y="-547.798" fill="url(#linearGradient4612)" fill-opacity="1" stroke="none" ry="1.945" transform="scale(1,-1)"/><path id="rect846" fill="#000" fill-opacity="1" stroke="none" d="m 384.57143,544.79799 0,1.0625 c 0,1.0773 0.86022,1.9375 1.9375,1.9375 l 44.125,0 c 1.07728,0 1.9375,-0.8602 1.9375,-1.9375 l 0,-1.0625 c 0,1.0773 -0.86022,1.9375 -1.9375,1.9375 l -44.125,0 C 385.43165,546.73549 384.57143,545.87529 384.57143,544.79799 Z"/><path id="path7515" fill="#fff" fill-opacity=".537" stroke="none" d="m 387.10268,500.45429 c -0.91709,0 -1.67115,0.6395 -1.84375,1.5 0.33561,-0.2799 0.77451,-0.4375 1.25,-0.4375 l 44.125,0 c 0.47549,0 0.91439,0.1576 1.25,0.4375 -0.1726,-0.8605 -0.92666,-1.5 -1.84375,-1.5 L 387.10268,500.45429 Z"/><path id="rect4280" fill="#000" fill-opacity=".392" stroke="none" d="m 386.50893,499.79799 c -1.07728,0 -1.9375,0.8602 -1.9375,1.9375 l 0,43.0625 c 0,0.7934 0.48002,1.449 1.15625,1.75 -0.30934,-0.3333 -0.5,-0.7824 -0.5,-1.2812 l 0,-42.9375 c 0,-1.0482 0.8269,-1.875 1.875,-1.875 l 42.9375,0 c 1.0481,0 1.875,0.8268 1.875,1.875 l 0,42.9375 c 0,0.4988 -0.19066,0.9479 -0.5,1.2812 0.67623,-0.301 1.15625,-0.9566 1.15625,-1.75 l 0,-43.0625 c 0,-1.0773 -0.86022,-1.9375 -1.9375,-1.9375 L 386.50893,499.79799 Z"/><path id="path4380" fill="#000" fill-opacity=".059" fill-rule="evenodd" stroke="none" d="m 397.02143,509.59798 0,9.14222 0.005,0 -0.005,3.71464 6.41667,0 0,-3.84936 8.98333,0 0,-8.98183 -15.4,0 m 16.68333,-0.0205 0,30.79487 6.41667,0 0,-30.79487 m -15.4,10.26496 0,20.52991 7.7,0 0,-20.52991 m -15.39487,3.84936 0,16.68055 6.41667,0 0,-16.68055 m -6.41667,0"/><path id="path4378" fill="#000" fill-opacity=".118" fill-rule="evenodd" stroke="none" d="m 397.02143,509.19798 0,9.14222 0.005,0 -0.005,3.71464 6.41667,0 0,-3.84936 8.98333,0 0,-8.98183 -15.4,0 m 16.68333,-0.0205 0,30.79487 6.41667,0 0,-30.79487 m -15.4,10.26496 0,20.52991 7.7,0 0,-20.52991 m -15.39487,3.84936 0,16.68055 6.41667,0 0,-16.68055 m -6.41667,0"/><path id="path4374" fill="#000" fill-opacity=".235" fill-rule="evenodd" stroke="none" d="m 397.02143,508.79798 0,9.14222 0.005,0 -0.005,3.71464 6.41667,0 0,-3.84936 8.98333,0 0,-8.98183 -15.4,0 m 16.68333,-0.0205 0,30.79487 6.41667,0 0,-30.79487 m -15.4,10.26496 0,20.52991 7.7,0 0,-20.52991 m -15.39487,3.84936 0,16.68055 6.41667,0 0,-16.68055 m -6.41667,0"/><path id="path4305-0" fill="url(#linearGradient4366)" fill-opacity="1" fill-rule="evenodd" stroke="none" d="m 397.02143,508.39798 0,9.14222 0.005,0 -0.005,3.71464 6.41667,0 0,-3.84936 8.98333,0 0,-8.98183 -15.4,0 m 16.68333,-0.0205 0,30.79487 6.41667,0 0,-30.79487 m -15.4,10.26496 0,20.52991 7.7,0 0,-20.52991 m -15.39487,3.84936 0,16.68055 6.41667,0 0,-16.68055 m -6.41667,0"/><path id="path4382" fill="#3eb914" fill-opacity=".314" fill-rule="evenodd" stroke="none" d="M 18.867188 16.806641 L 18.867188 17.607422 L 27.849609 17.607422 L 27.849609 16.806641 L 18.867188 16.806641 z M 12.449219 16.941406 L 12.449219 17.742188 L 12.453125 17.742188 L 12.455078 16.941406 L 12.449219 16.941406 z M 12.451172 20.65625 L 12.449219 21.457031 L 18.867188 21.457031 L 18.867188 20.65625 L 12.451172 20.65625 z M 12.455078 38.599609 L 12.455078 39.400391 L 18.871094 39.400391 L 18.871094 38.599609 L 12.455078 38.599609 z M 20.150391 38.599609 L 20.150391 39.400391 L 27.849609 39.400391 L 27.849609 38.599609 L 20.150391 38.599609 z M 29.132812 38.599609 L 29.132812 39.400391 L 35.550781 39.400391 L 35.550781 38.599609 L 29.132812 38.599609 z" transform="translate(384.57143,499.798)"/><path id="path4387" fill="#f9f9f9" fill-opacity=".235" fill-rule="evenodd" stroke="none" d="M 29.132812 8.6054688 L 29.132812 9.0058594 L 35.550781 9.0058594 L 35.550781 8.6054688 L 29.132812 8.6054688 z M 12.449219 8.625 L 12.449219 9.0253906 L 27.849609 9.0253906 L 27.849609 8.625 L 12.449219 8.625 z M 20.150391 18.869141 L 20.150391 19.269531 L 27.849609 19.269531 L 27.849609 18.869141 L 20.150391 18.869141 z M 12.455078 22.71875 L 12.455078 23.119141 L 18.871094 23.119141 L 18.871094 22.71875 L 12.455078 22.71875 z" transform="translate(384.57143,499.798)"/></g></svg>