<svg xmlns="http://www.w3.org/2000/svg" xmlns:svg="http://www.w3.org/2000/svg" xmlns:xlink="http://www.w3.org/1999/xlink" id="svg5453" width="48" height="48" version="1.1"><defs id="defs5455"><linearGradient id="linearGradient4711"><stop id="stop4713" offset="0" stop-color="#3585df" stop-opacity="1"/><stop id="stop4715" offset="1" stop-color="#a0dff0" stop-opacity="1"/></linearGradient><linearGradient id="linearGradient4717" x1="413.312" x2="413.312" y1="-547.806" y2="-499.796" gradientUnits="userSpaceOnUse" xlink:href="#linearGradient4711"/></defs><metadata id="metadata5458"/><g id="layer1" transform="translate(-384.57143,-499.798)"><rect id="rect2991-1-7" width="48" height="48" x="384.571" y="-547.798" fill="url(#linearGradient4717)" fill-opacity="1" stroke="none" ry="1.945" transform="scale(1,-1)"/><g id="g4102" fill="#000" fill-opacity=".059" transform="matrix(0.32083327,0,0,0.32083327,388.0381,207.89853)"><path id="path4104" fill="#000" fill-opacity=".059" stroke="none" d="m 64,940.36218 c -26.509667,0 -48,21.49034 -48,48 0,26.50972 21.490333,48.00002 48,48.00002 26.509664,0 48,-21.4903 48,-48.00002 C 112,961.85252 90.509664,940.36218 64,940.36218 z m 0,4 c 20.15479,0 37.14462,13.55176 42.355,32.04 -4.4877,9.25637 -10.873381,17.59038 -18.650002,24.32502 -3.735795,3.2352 -7.814534,6.1193 -12.32,8.15 -4.505465,2.0307 -9.461145,3.1829 -14.394998,2.9 -3.706902,-0.2126 -7.368725,-1.2452 -10.615,-3.045 8.603218,-4.6618 16.365742,-10.87737 22.720002,-18.32002 4.170803,-4.88521 7.819942,-10.43709 9.224998,-16.705 0.702528,-3.13395 0.821581,-6.4161 0.164998,-9.56 -0.656582,-3.1439 -2.110188,-6.1399 -4.309996,-8.48 -2.149082,-2.28613 -4.97033,-3.90553 -7.995002,-4.74 -3.024672,-0.83446 -6.24345,-0.89907 -9.33,-0.335 -6.173101,1.12814 -11.684554,4.71584 -16.105,9.17 -7.79168,7.8511 -12.608581,18.92915 -11.725,29.955 0.441789,5.51292 2.289248,10.93012 5.455,15.46502 0.706642,1.0122 1.483501,1.9764 2.315,2.89 -4.611828,1.614 -9.386995,2.7629 -14.23,3.41 C 22.40195,1004.7634 20,996.8442 20,988.36218 20,964.06165 39.69947,944.36218 64,944.36218 z m 0.28,8.89 c 3.093024,0.004 6.207066,0.94057 8.675002,2.805 2.223488,1.67977 3.871027,4.06951 4.804998,6.695 0.933971,2.62549 1.173658,5.47662 0.855002,8.245 -0.637319,5.53677 -3.430458,10.61442 -6.804999,15.05 -5.975053,7.85375 -13.917093,14.13972 -22.750003,18.54002 -0.904118,0.4504 -1.822565,0.8785 -2.745,1.29 -1.921973,-1.6819 -3.569314,-3.6768 -4.825,-5.90002 -2.623798,-4.64556 -3.489056,-10.16402 -2.98,-15.475 0.509056,-5.31097 2.331648,-10.42962 4.78,-15.17 2.838755,-5.49625 6.70822,-10.70239 12.125,-13.69 C 58.12339,954.14838 61.186973,953.24799 64.28,953.25218 z m 43.325,29.22 c 0.25778,1.9268 0.395,3.89265 0.395,5.89 0,24.30052 -19.699469,44.00002 -44,44.00002 -13.647425,0 -25.844438,-6.2128 -33.915,-15.965 4.98138,-1.1314 9.850072,-2.7565 14.52,-4.825 2.042194,1.5553 4.297558,2.8309 6.695,3.75 6.904163,2.6469 14.742694,2.2639 21.730003,-0.155 6.987303,-2.4189 13.183469,-6.7606 18.584999,-11.81 C 98.049619,997.34198 103.47485,990.25205 107.605,982.47218 Z"/></g><g id="g4098" fill="#000" fill-opacity=".118" transform="matrix(0.32083327,0,0,0.32083327,388.0381,207.49853)"><path id="path4100" fill="#000" fill-opacity=".118" stroke="none" d="m 64,940.36218 c -26.509667,0 -48,21.49034 -48,48 0,26.50972 21.490333,48.00002 48,48.00002 26.509664,0 48,-21.4903 48,-48.00002 C 112,961.85252 90.509664,940.36218 64,940.36218 z m 0,4 c 20.15479,0 37.14462,13.55176 42.355,32.04 -4.4877,9.25637 -10.873381,17.59038 -18.650002,24.32502 -3.735795,3.2352 -7.814534,6.1193 -12.32,8.15 -4.505465,2.0307 -9.461145,3.1829 -14.394998,2.9 -3.706902,-0.2126 -7.368725,-1.2452 -10.615,-3.045 8.603218,-4.6618 16.365742,-10.87737 22.720002,-18.32002 4.170803,-4.88521 7.819942,-10.43709 9.224998,-16.705 0.702528,-3.13395 0.821581,-6.4161 0.164998,-9.56 -0.656582,-3.1439 -2.110188,-6.1399 -4.309996,-8.48 -2.149082,-2.28613 -4.97033,-3.90553 -7.995002,-4.74 -3.024672,-0.83446 -6.24345,-0.89907 -9.33,-0.335 -6.173101,1.12814 -11.684554,4.71584 -16.105,9.17 -7.79168,7.8511 -12.608581,18.92915 -11.725,29.955 0.441789,5.51292 2.289248,10.93012 5.455,15.46502 0.706642,1.0122 1.483501,1.9764 2.315,2.89 -4.611828,1.614 -9.386995,2.7629 -14.23,3.41 C 22.40195,1004.7634 20,996.8442 20,988.36218 20,964.06165 39.69947,944.36218 64,944.36218 z m 0.28,8.89 c 3.093024,0.004 6.207066,0.94057 8.675002,2.805 2.223488,1.67977 3.871027,4.06951 4.804998,6.695 0.933971,2.62549 1.173658,5.47662 0.855002,8.245 -0.637319,5.53677 -3.430458,10.61442 -6.804999,15.05 -5.975053,7.85375 -13.917093,14.13972 -22.750003,18.54002 -0.904118,0.4504 -1.822565,0.8785 -2.745,1.29 -1.921973,-1.6819 -3.569314,-3.6768 -4.825,-5.90002 -2.623798,-4.64556 -3.489056,-10.16402 -2.98,-15.475 0.509056,-5.31097 2.331648,-10.42962 4.78,-15.17 2.838755,-5.49625 6.70822,-10.70239 12.125,-13.69 C 58.12339,954.14838 61.186973,953.24799 64.28,953.25218 z m 43.325,29.22 c 0.25778,1.9268 0.395,3.89265 0.395,5.89 0,24.30052 -19.699469,44.00002 -44,44.00002 -13.647425,0 -25.844438,-6.2128 -33.915,-15.965 4.98138,-1.1314 9.850072,-2.7565 14.52,-4.825 2.042194,1.5553 4.297558,2.8309 6.695,3.75 6.904163,2.6469 14.742694,2.2639 21.730003,-0.155 6.987303,-2.4189 13.183469,-6.7606 18.584999,-11.81 C 98.049619,997.34198 103.47485,990.25205 107.605,982.47218 Z"/></g><g id="g4094" fill="#000" fill-opacity=".235" transform="matrix(0.32083327,0,0,0.32083327,388.0381,207.09853)"><path id="path4096" fill="#000" fill-opacity=".235" stroke="none" d="m 64,940.36218 c -26.509667,0 -48,21.49034 -48,48 0,26.50972 21.490333,48.00002 48,48.00002 26.509664,0 48,-21.4903 48,-48.00002 C 112,961.85252 90.509664,940.36218 64,940.36218 z m 0,4 c 20.15479,0 37.14462,13.55176 42.355,32.04 -4.4877,9.25637 -10.873381,17.59038 -18.650002,24.32502 -3.735795,3.2352 -7.814534,6.1193 -12.32,8.15 -4.505465,2.0307 -9.461145,3.1829 -14.394998,2.9 -3.706902,-0.2126 -7.368725,-1.2452 -10.615,-3.045 8.603218,-4.6618 16.365742,-10.87737 22.720002,-18.32002 4.170803,-4.88521 7.819942,-10.43709 9.224998,-16.705 0.702528,-3.13395 0.821581,-6.4161 0.164998,-9.56 -0.656582,-3.1439 -2.110188,-6.1399 -4.309996,-8.48 -2.149082,-2.28613 -4.97033,-3.90553 -7.995002,-4.74 -3.024672,-0.83446 -6.24345,-0.89907 -9.33,-0.335 -6.173101,1.12814 -11.684554,4.71584 -16.105,9.17 -7.79168,7.8511 -12.608581,18.92915 -11.725,29.955 0.441789,5.51292 2.289248,10.93012 5.455,15.46502 0.706642,1.0122 1.483501,1.9764 2.315,2.89 -4.611828,1.614 -9.386995,2.7629 -14.23,3.41 C 22.40195,1004.7634 20,996.8442 20,988.36218 20,964.06165 39.69947,944.36218 64,944.36218 z m 0.28,8.89 c 3.093024,0.004 6.207066,0.94057 8.675002,2.805 2.223488,1.67977 3.871027,4.06951 4.804998,6.695 0.933971,2.62549 1.173658,5.47662 0.855002,8.245 -0.637319,5.53677 -3.430458,10.61442 -6.804999,15.05 -5.975053,7.85375 -13.917093,14.13972 -22.750003,18.54002 -0.904118,0.4504 -1.822565,0.8785 -2.745,1.29 -1.921973,-1.6819 -3.569314,-3.6768 -4.825,-5.90002 -2.623798,-4.64556 -3.489056,-10.16402 -2.98,-15.475 0.509056,-5.31097 2.331648,-10.42962 4.78,-15.17 2.838755,-5.49625 6.70822,-10.70239 12.125,-13.69 C 58.12339,954.14838 61.186973,953.24799 64.28,953.25218 z m 43.325,29.22 c 0.25778,1.9268 0.395,3.89265 0.395,5.89 0,24.30052 -19.699469,44.00002 -44,44.00002 -13.647425,0 -25.844438,-6.2128 -33.915,-15.965 4.98138,-1.1314 9.850072,-2.7565 14.52,-4.825 2.042194,1.5553 4.297558,2.8309 6.695,3.75 6.904163,2.6469 14.742694,2.2639 21.730003,-0.155 6.987303,-2.4189 13.183469,-6.7606 18.584999,-11.81 C 98.049619,997.34198 103.47485,990.25205 107.605,982.47218 Z"/></g><path id="rect846" fill="#000" fill-opacity="1" stroke="none" d="m 384.57143,544.79799 0,1.0625 c 0,1.0773 0.86022,1.9375 1.9375,1.9375 l 44.125,0 c 1.07728,0 1.9375,-0.8602 1.9375,-1.9375 l 0,-1.0625 c 0,1.0773 -0.86022,1.9375 -1.9375,1.9375 l -44.125,0 C 385.43165,546.73549 384.57143,545.87529 384.57143,544.79799 Z"/><path id="path7515" fill="#fff" fill-opacity=".537" stroke="none" d="m 387.10268,500.45429 c -0.91709,0 -1.67115,0.6395 -1.84375,1.5 0.33561,-0.2799 0.77451,-0.4375 1.25,-0.4375 l 44.125,0 c 0.47549,0 0.91439,0.1576 1.25,0.4375 -0.1726,-0.8605 -0.92666,-1.5 -1.84375,-1.5 L 387.10268,500.45429 Z"/><path id="rect4280" fill="#000" fill-opacity=".392" stroke="none" d="m 386.50893,499.79799 c -1.07728,0 -1.9375,0.8602 -1.9375,1.9375 l 0,43.0625 c 0,0.7934 0.48002,1.449 1.15625,1.75 -0.30934,-0.3333 -0.5,-0.7824 -0.5,-1.2812 l 0,-42.9375 c 0,-1.0482 0.8269,-1.875 1.875,-1.875 l 42.9375,0 c 1.0481,0 1.875,0.8268 1.875,1.875 l 0,42.9375 c 0,0.4988 -0.19066,0.9479 -0.5,1.2812 0.67623,-0.301 1.15625,-0.9566 1.15625,-1.75 l 0,-43.0625 c 0,-1.0773 -0.86022,-1.9375 -1.9375,-1.9375 L 386.50893,499.79799 Z"/><g id="g5317" fill="#fff" fill-opacity="1" transform="matrix(0.32083327,0,0,0.32083327,388.0381,206.69853)"><path id="path5319" fill="#fff" fill-opacity="1" stroke="none" d="m 64,940.36218 c -26.509667,0 -48,21.49034 -48,48 0,26.50972 21.490333,48.00002 48,48.00002 26.509664,0 48,-21.4903 48,-48.00002 C 112,961.85252 90.509664,940.36218 64,940.36218 z m 0,4 c 20.15479,0 37.14462,13.55176 42.355,32.04 -4.4877,9.25637 -10.873381,17.59038 -18.650002,24.32502 -3.735795,3.2352 -7.814534,6.1193 -12.32,8.15 -4.505465,2.0307 -9.461145,3.1829 -14.394998,2.9 -3.706902,-0.2126 -7.368725,-1.2452 -10.615,-3.045 8.603218,-4.6618 16.365742,-10.87737 22.720002,-18.32002 4.170803,-4.88521 7.819942,-10.43709 9.224998,-16.705 0.702528,-3.13395 0.821581,-6.4161 0.164998,-9.56 -0.656582,-3.1439 -2.110188,-6.1399 -4.309996,-8.48 -2.149082,-2.28613 -4.97033,-3.90553 -7.995002,-4.74 -3.024672,-0.83446 -6.24345,-0.89907 -9.33,-0.335 -6.173101,1.12814 -11.684554,4.71584 -16.105,9.17 -7.79168,7.8511 -12.608581,18.92915 -11.725,29.955 0.441789,5.51292 2.289248,10.93012 5.455,15.46502 0.706642,1.0122 1.483501,1.9764 2.315,2.89 -4.611828,1.614 -9.386995,2.7629 -14.23,3.41 C 22.40195,1004.7634 20,996.8442 20,988.36218 20,964.06165 39.69947,944.36218 64,944.36218 z m 0.28,8.89 c 3.093024,0.004 6.207066,0.94057 8.675002,2.805 2.223488,1.67977 3.871027,4.06951 4.804998,6.695 0.933971,2.62549 1.173658,5.47662 0.855002,8.245 -0.637319,5.53677 -3.430458,10.61442 -6.804999,15.05 -5.975053,7.85375 -13.917093,14.13972 -22.750003,18.54002 -0.904118,0.4504 -1.822565,0.8785 -2.745,1.29 -1.921973,-1.6819 -3.569314,-3.6768 -4.825,-5.90002 -2.623798,-4.64556 -3.489056,-10.16402 -2.98,-15.475 0.509056,-5.31097 2.331648,-10.42962 4.78,-15.17 2.838755,-5.49625 6.70822,-10.70239 12.125,-13.69 C 58.12339,954.14838 61.186973,953.24799 64.28,953.25218 z m 43.325,29.22 c 0.25778,1.9268 0.395,3.89265 0.395,5.89 0,24.30052 -19.699469,44.00002 -44,44.00002 -13.647425,0 -25.844438,-6.2128 -33.915,-15.965 4.98138,-1.1314 9.850072,-2.7565 14.52,-4.825 2.042194,1.5553 4.297558,2.8309 6.695,3.75 6.904163,2.6469 14.742694,2.2639 21.730003,-0.155 6.987303,-2.4189 13.183469,-6.7606 18.584999,-11.81 C 98.049619,997.34198 103.47485,990.25205 107.605,982.47218 Z"/></g><path id="path4085" fill="#3787df" fill-opacity=".314" stroke="none" d="M 24 9.0839844 C 16.20358 9.0839844 9.8828525 15.402799 9.8828125 23.199219 C 9.8828125 23.356173 9.8953034 23.510302 9.9003906 23.666016 C 10.079606 16.025436 16.31634 9.8828125 24 9.8828125 C 30.285551 9.8828125 35.601458 13.996198 37.429688 19.673828 C 37.482001 19.569785 37.53904 19.46807 37.589844 19.363281 C 35.918184 13.431641 30.46633 9.0839844 24 9.0839844 z M 24.089844 11.935547 C 23.097504 11.934207 22.115064 12.223855 21.246094 12.703125 C 19.508204 13.661645 18.266239 15.33037 17.355469 17.09375 C 16.569959 18.61462 15.985586 20.257007 15.822266 21.960938 C 15.775878 22.444907 15.775157 22.933154 15.802734 23.419922 C 15.80893 23.2003 15.801355 22.979886 15.822266 22.761719 C 15.985586 21.057789 16.569959 19.415401 17.355469 17.894531 C 18.266239 16.131151 19.508204 14.460473 21.246094 13.501953 C 22.115064 13.022683 23.097504 12.734988 24.089844 12.736328 C 25.082194 12.737328 26.081257 13.036596 26.873047 13.634766 C 27.586417 14.173696 28.114413 14.940863 28.414062 15.783203 C 28.585067 16.263927 28.676919 16.769804 28.710938 17.279297 C 28.758541 16.502428 28.674609 15.716816 28.414062 14.984375 C 28.114413 14.142035 27.586417 13.374868 26.873047 12.835938 C 26.081257 12.237768 25.082194 11.936547 24.089844 11.935547 z M 30.050781 17.207031 C 30.026917 17.640892 29.971968 18.074198 29.876953 18.498047 C 29.426173 20.508997 28.256099 22.290082 26.917969 23.857422 C 24.879309 26.245272 22.389096 28.240668 19.628906 29.736328 C 19.875262 29.872914 20.130924 29.990791 20.390625 30.099609 C 22.846491 28.659921 25.069344 26.823467 26.917969 24.658203 C 28.256099 23.090863 29.426173 21.309778 29.876953 19.298828 C 30.030451 18.614092 30.090404 17.906841 30.050781 17.207031 z M 37.990234 21.310547 C 36.665144 23.806587 34.923845 26.081809 32.859375 28.011719 C 31.126385 29.631739 29.138244 31.024721 26.896484 31.800781 C 24.654724 32.576821 22.140861 32.698829 19.925781 31.849609 C 19.156601 31.554729 18.432544 31.145474 17.777344 30.646484 C 16.279074 31.310124 14.717331 31.832323 13.119141 32.195312 C 13.306871 32.422159 13.515476 32.629168 13.716797 32.84375 C 15.106289 32.491754 16.466935 32.027695 17.777344 31.447266 C 18.432544 31.946256 19.156601 32.355511 19.925781 32.650391 C 22.140861 33.499611 24.654724 33.375649 26.896484 32.599609 C 29.138244 31.823549 31.126385 30.430567 32.859375 28.810547 C 34.923845 26.880637 36.665144 24.605415 37.990234 22.109375 C 38.052258 22.572999 38.083349 23.046739 38.099609 23.523438 C 38.102088 23.414561 38.117188 23.30869 38.117188 23.199219 C 38.117188 22.558399 38.072934 21.928727 37.990234 21.310547 z M 14.050781 23.001953 C 14.024395 23.478297 14.022215 23.957214 14.060547 24.435547 C 14.202297 26.204277 14.794867 27.941544 15.810547 29.396484 C 15.881616 29.498287 15.967625 29.58875 16.042969 29.6875 C 16.212723 29.632435 16.384293 29.582387 16.552734 29.523438 C 16.285964 29.230328 16.037257 28.920453 15.810547 28.595703 C 14.794867 27.140763 14.202297 25.403496 14.060547 23.634766 C 14.043638 23.423771 14.054862 23.212844 14.050781 23.001953 z M 8.6191406 23.599609 C 8.615678 23.733962 8.5996094 23.864813 8.5996094 24 C 8.5996094 32.5052 15.49482 39.400391 24 39.400391 C 32.50518 39.400391 39.400391 32.5052 39.400391 24 C 39.400391 23.864813 39.384322 23.733962 39.380859 23.599609 C 39.166734 31.918159 32.37016 38.599609 24 38.599609 C 15.62984 38.599609 8.8332663 31.918159 8.6191406 23.599609 z" transform="translate(384.57143,499.798)"/></g></svg>