<svg xmlns="http://www.w3.org/2000/svg" xmlns:svg="http://www.w3.org/2000/svg" xmlns:xlink="http://www.w3.org/1999/xlink" id="svg865" width="48" height="48" version="1.1"><defs id="defs867"><linearGradient id="linearGradient4292"><stop id="stop4294" offset="0" stop-color="#ffcab9" stop-opacity="1"/><stop id="stop4296" offset="1" stop-color="#fff9f5" stop-opacity="1"/></linearGradient><linearGradient id="linearGradient5020"><stop id="stop5022" offset="0" stop-color="#ff4b11" stop-opacity="1"/><stop id="stop5024" offset="1" stop-color="#f83" stop-opacity="1"/></linearGradient><linearGradient id="linearGradient4290" x1="28.084" x2="28.084" y1="1043.857" y2="1025.863" gradientTransform="matrix(1.0178941,0,0,1.000098,-0.42945914,0.3970395)" gradientUnits="userSpaceOnUse" xlink:href="#linearGradient4292"/><style id="style1115" type="text/css"><![CDATA[ .fil0 {fill:#1F1A17} ]]></style><style id="style1246" type="text/css"><![CDATA[ .fil0 {fill:#1F1A17} ]]></style><style id="style1115-8" type="text/css"><![CDATA[ .fil0 {fill:#1F1A17} ]]></style><style id="style1246-7" type="text/css"><![CDATA[ .fil0 {fill:#1F1A17} ]]></style><style id="style1115-5" type="text/css"><![CDATA[ .fil0 {fill:#1F1A17} ]]></style><style id="style1246-0" type="text/css"><![CDATA[ .fil0 {fill:#1F1A17} ]]></style><style id="style1115-2" type="text/css"><![CDATA[ .fil0 {fill:#1F1A17} ]]></style><style id="style1246-4" type="text/css"><![CDATA[ .fil0 {fill:#1F1A17} ]]></style><style id="style1115-8-2" type="text/css"><![CDATA[ .fil0 {fill:#1F1A17} ]]></style><style id="style1246-7-4" type="text/css"><![CDATA[ .fil0 {fill:#1F1A17} ]]></style><style id="style1115-5-0" type="text/css"><![CDATA[ .fil0 {fill:#1F1A17} ]]></style><style id="style1246-0-0" type="text/css"><![CDATA[ .fil0 {fill:#1F1A17} ]]></style><linearGradient id="linearGradient4121"><stop id="stop4123" offset="0" stop-color="#ffb885" stop-opacity="1"/><stop id="stop4125" offset="1" stop-color="#f83" stop-opacity="0"/></linearGradient><linearGradient id="linearGradient5070"><stop id="stop5072" offset="0" stop-color="#883775" stop-opacity="0"/><stop id="stop5074" offset="1" stop-color="#2f0d2b" stop-opacity="1"/></linearGradient><linearGradient id="linearGradient4333" x1="15.625" x2="15.625" y1="1052.362" y2="1015.362" gradientTransform="translate(4.2320459e-6,-1e-4)" gradientUnits="userSpaceOnUse" xlink:href="#linearGradient5020"/><linearGradient id="linearGradient5068" x1="16.617" x2="16.617" y1="11" y2="0" gradientUnits="userSpaceOnUse" xlink:href="#linearGradient5070"/><linearGradient id="linearGradient4127" x1="37.375" x2="37.375" y1="11" y2="12.992" gradientUnits="userSpaceOnUse" xlink:href="#linearGradient4121"/></defs><metadata id="metadata870"/><g id="layer1" transform="translate(0,-1004.3622)"><g id="g4162" transform="translate(2.3602295e-7,1004.3622)"><g id="layer1-3" transform="translate(-2.220459e-7,-1004.3623)"><path id="path4196" fill="#5c2451" fill-opacity="1" stroke="none" d="m 24.908197,1004.3625 c 4.447539,0 4.461192,3.4427 7.816406,4.3417 l 0.691407,0 12.646484,0 c 0.869187,0 1.58913,0.5635 1.837891,1.3457 0.02209,0.055 0.0402,0.1137 0.05469,0.1777 0.0081,0.038 0.0097,0.078 0.01563,0.1172 0.01012,0.072 0.0293,0.1338 0.0293,0.2168 l 0,0.08 0,3.498 0,36.2225 0,0.055 c 0,1.0773 -0.868032,1.945 -1.945312,1.9453 l -44.109375,0 c -1.07729103,-2e-4 -1.9453230279541,-0.8682 -1.9453230279541,-1.9455 l 0,-0.055 0,-1.0449 0,-40.6131 0,-2.3964 c 0,-0.5387 0.2166909979541,-1.0252 0.5683589979541,-1.3769 0.351669,-0.3517 0.83832003,-0.5684 1.37695303,-0.5684 l 22.96289,0 z"/><path id="rect5057" fill="url(#linearGradient5068)" fill-opacity="1" stroke="none" d="M 1.9453125,0 C 1.4066795,0 0.92002838,0.21665937 0.56835938,0.56835938 0.21669137,0.92005937 0,1.4066125 0,1.9453125 L 0,4.3417969 0,11 48,11 48,9.7773438 48,6.2792969 48,6.1992189 C 48,6.1162189 47.98082,6.054422 47.9707,5.982422 47.9648,5.943222 47.9632,5.903234 47.95507,5.8652345 47.940588,5.8012344 47.922481,5.7425 47.900391,5.6875 47.65163,4.9053 46.931687,4.3417969 46.0625,4.3417969 l -12.646484,0 -0.691407,0 C 29.369395,3.4427969 29.355742,0 24.908203,0 L 1.9453125,0 Z" transform="translate(2.220459e-7,1004.3623)"/><rect id="rect4851" width="35.5" height="39" x="6.25" y="-1049.112" fill="#0d2e44" fill-opacity=".059" stroke="none" ry="1.58" transform="scale(1,-1)"/><rect id="rect4849" width="35" height="38.519" x="6.5" y="-1048.871" fill="#0d2e44" fill-opacity=".118" stroke="none" ry="1.56" transform="scale(1,-1)"/><rect id="rect4845" width="34.5" height="38.037" x="6.75" y="-1048.63" fill="#0d2e44" fill-opacity=".235" stroke="none" ry="1.541" transform="scale(1,-1)"/><rect id="rect4821" width="34" height="37.556" x="7" y="-1048.389" fill="#fafafa" fill-opacity="1" stroke="none" ry="1.521" transform="scale(1,-1)"/><path id="rect4840" fill="#000" fill-opacity=".118" stroke="none" d="m 8.5800808,1010.8336 c -0.875288,0 -1.580078,0.6793 -1.580078,1.5216 l 0,0.7703 c 0,-0.8438 0.70479,-1.5216 1.580078,-1.5216 l 30.8398432,0 c 0.87529,0 1.58008,0.6778 1.58008,1.5216 l 0,-0.7703 c 0,-0.8423 -0.70479,-1.5216 -1.58008,-1.5216 l -30.8398432,0 z"/><rect id="rect4831" width="41.5" height="37.074" x="3.25" y="-1049.112" fill="#0d2e44" fill-opacity=".059" stroke="none" ry="1.502" transform="scale(1,-1)"/><rect id="rect4829" width="41" height="36.593" x="3.5" y="-1048.871" fill="#0d2e44" fill-opacity=".118" stroke="none" ry="1.482" transform="scale(1,-1)"/><rect id="rect4825" width="40.5" height="36.111" x="3.75" y="-1048.63" fill="#0d2e44" fill-opacity=".235" stroke="none" ry="1.463" transform="scale(1,-1)"/><rect id="rect4793" width="40" height="35.63" x="4" y="-1048.389" fill="#fafafa" fill-opacity="1" stroke="none" ry="1.443" transform="scale(1,-1)"/><path id="path4234" fill="#000" fill-opacity=".059" stroke="none" d="m 21.891907,1014.162 c -4.447538,0 -4.461192,3.4427 -7.816406,4.3418 l -0.691407,0 -11.4465935,0 c -0.8691869,0 -1.58912965,0.5635 -1.83789066,1.3457 -0.02208999,0.055 -0.0401975,0.1137 -0.0546875,0.1777 -0.00813,0.038 -0.009725,0.078 -0.01562499,0.1172 -0.01012,0.072 -0.0292968779541,0.1338 -0.0292968779541,0.2168 l 0,0.08 0,3.498 0,25.2227 0,0.055 c 0,1.0773 0.8680325579541,1.945 1.9453125279541,1.9453 l 44.109375,0 c 1.07728,0 1.945312,-0.868 1.945312,-1.9453 l 0,-0.055 0,-1.0449 0,-29.6133 0,-2.3965 c 0,-0.5387 -0.216691,-1.0252 -0.568359,-1.3769 -0.351669,-0.3517 -0.83832,-0.5684 -1.376953,-0.5684 l -24.162781,0 z"/><path id="path4232" fill="#000" fill-opacity=".118" stroke="none" d="m 22.291907,1014.562 c -4.447538,0 -4.461192,3.4427 -7.816406,4.3418 l -0.691407,0 -11.8465935,0 c -0.8691869,0 -1.58912965,0.5635 -1.83789066,1.3457 -0.02208999,0.055 -0.0401975,0.1137 -0.0546875,0.1777 -0.00813,0.038 -0.009725,0.078 -0.01562499,0.1172 -0.01012,0.072 -0.0292968779541,0.1338 -0.0292968779541,0.2168 l 0,0.08 0,3.498 0,25.2227 0,0.055 c 0,1.0773 0.8680325579541,1.945 1.9453125279541,1.9453 l 44.109375,0 c 1.07728,0 1.945312,-0.868 1.945312,-1.9453 l 0,-0.055 0,-1.0449 0,-29.6133 0,-2.3965 c 0,-0.5387 -0.216691,-1.0252 -0.568359,-1.3769 -0.351669,-0.3517 -0.83832,-0.5684 -1.376953,-0.5684 l -23.762781,0 z"/><path id="path4228-9" fill="#000" fill-opacity=".235" stroke="none" d="m 22.691907,1014.962 c -4.447538,0 -4.461192,3.4427 -7.816406,4.3418 l -0.691407,0 -12.2465935,0 c -0.8691869,0 -1.58912965,0.5635 -1.83789066,1.3457 -0.02208999,0.055 -0.0401975,0.1137 -0.0546875,0.1777 -0.00813,0.038 -0.009725,0.078 -0.01562499,0.1172 -0.01012,0.072 -0.0292968779541,0.1338 -0.0292968779541,0.2168 l 0,0.08 0,3.498 0,25.2227 0,0.055 c 0,1.0773 0.8680325579541,1.945 1.9453125279541,1.9453 l 44.109375,0 c 1.07728,0 1.945312,-0.868 1.945312,-1.9453 l 0,-0.055 0,-1.0449 0,-29.6133 0,-2.3965 c 0,-0.5387 -0.216691,-1.0252 -0.568359,-1.3769 -0.351669,-0.3517 -0.83832,-0.5684 -1.376953,-0.5684 l -23.362781,0 z"/><path id="path4325" fill="url(#linearGradient4333)" fill-opacity="1" stroke="none" d="m 23.091797,1015.3622 c -4.447538,0 -4.461192,3.4427 -7.816406,4.3418 l -0.691407,0 -12.6464835,0 c -0.8691869,0 -1.58912965,0.5635 -1.83789066,1.3457 -0.02208999,0.055 -0.0401975,0.1137 -0.0546875,0.1777 -0.00813,0.038 -0.009725,0.078 -0.01562499,0.1172 -0.01012,0.072 -0.0292968779541,0.1338 -0.0292968779541,0.2168 l 0,0.08 0,3.498 0,25.2227 0,0.055 c 0,1.0773 0.8680325579541,1.945 1.9453125279541,1.9453 l 44.109375,0 c 1.07728,0 1.945312,-0.868 1.945312,-1.9453 l 0,-0.055 0,-1.0449 0,-29.6133 0,-2.3965 c 0,-0.5387 -0.216691,-1.0252 -0.568359,-1.3769 -0.351669,-0.3517 -0.83832,-0.5684 -1.376953,-0.5684 l -22.962891,0 z"/><path id="path4962" fill="#fff" fill-opacity=".235" stroke="none" d="m 23.091797,11 c -4.447538,0 -4.461192,3.442697 -7.816406,4.341797 l -0.691407,0 -12.646484,0 c -0.8691869,0 -1.58912962,0.563503 -1.83789063,1.345703 -0.02208999,0.055 -0.0401975,0.113734 -0.0546875,0.177734 -0.00813,0.038 -0.009725,0.07799 -0.01562499,0.117188 C 0.01917688,17.054422 0,17.116219 0,17.199219 l 0,0.08008 0,0.71875 c 0,-0.083 0.01917688,-0.144797 0.02929688,-0.216797 0.0059,-0.0392 0.007495,-0.07919 0.01562499,-0.117188 0.01449,-0.064 0.03259751,-0.122734 0.0546875,-0.177734 C 0.34837038,16.704128 1.0683131,16.140625 1.9375,16.140625 l 12.646484,0 1.090813,0 c 3.355214,-0.8991 3.368868,-4.341797 7.816406,-4.341797 l 22.563485,0 c 0.538632,0 1.025284,0.216659 1.376953,0.56836 C 47.783309,12.718887 48,13.205441 48,13.744141 l 0,-0.798829 C 48,12.406613 47.783309,11.920059 47.431641,11.568359 47.079972,11.216659 46.59332,11 46.054688,11 Z" transform="translate(2.220459e-7,1004.3623)"/><path id="path4116" fill="url(#linearGradient4127)" fill-opacity="1" stroke="none" d="m 23.091797,11 c -2.826121,0 -3.864974,1.386621 -5.105469,2.630859 C 18.898435,13.254158 19.90469,13 21.091797,13 L 48,13 48,12.945312 C 48,12.406613 47.783309,11.920059 47.431641,11.568359 47.079972,11.216659 46.59332,11 46.054688,11 Z" transform="translate(2.220459e-7,1004.3623)"/><path id="rect4833" fill="#000" fill-opacity=".059" stroke="none" d="m 5.4980488,1012.7601 c -0.8304,0 -1.498046,0.6435 -1.498046,1.4425 l 0,0.7708 c 0,-0.7989 0.667646,-1.4445 1.498046,-1.4445 l 37.0039052,0 c 0.8304,0 1.49805,0.6456 1.49805,1.4445 l 0,-0.7708 c 0,-0.799 -0.66765,-1.4425 -1.49805,-1.4425 l -37.0039052,0 z"/><path id="rect846" fill="#000" fill-opacity="1" stroke="none" d="m -3.1479541e-6,1049.3621 0,1.0625 c 0,1.0773 0.8602199979541,1.9375 1.9374999479541,1.9375 l 44.1249972,0 c 1.07728,0 1.9375,-0.8602 1.9375,-1.9375 l 0,-1.0625 c 0,1.0773 -0.86022,1.9375 -1.9375,1.9375 l -44.1249972,0 c -1.07727995,0 -1.9374999479541,-0.8602 -1.9374999479541,-1.9375 z"/><path id="path4200" fill="#000" fill-opacity=".492" stroke="none" d="m 1.945313,1004.3622 c -0.538633,0 -1.02528416,0.2167 -1.37695315,0.5684 -0.35166801,0.3517 -0.5683593779541,0.8382 -0.5683593779541,1.3769 l 0,2.3965 0,40.6133 0,0.045 c 0,0.8158 0.4938466079541,1.5054 1.2011719279541,1.793 -0.34036144,-0.3419 -0.55078131,-0.8133 -0.55078131,-1.336 l 0,-0.053 0,-1.0176 0,-39.5117 0,-2.332 c 0,-0.5246 0.21058752,-0.9979 0.55273441,-1.3399 0.3421476,-0.342 0.8157941,-0.5527 1.3398438,-0.5527 l 22.3398427,0 0,0 c 4.327124,0 4.341097,3.3481 7.605469,4.2227 l 0.671875,0 12.304688,0 c 0.845653,0 1.547035,0.5492 1.789062,1.3106 0.02152,0.053 0.03863,0.1098 0.05273,0.1718 0.0078,0.036 0.0097,0.076 0.01563,0.1153 0.0097,0.069 0.02734,0.1283 0.02734,0.2089 l 0,0.078 0,3.4023 0,35.2422 0,0.053 c 0,0.5227 -0.210418,0.9942 -0.550781,1.336 C 47.506153,1050.8676 48,1050.178 48,1049.3622 l 0,-35.2227 0,-3.498 0,-0.08 c 0,-0.083 -0.01918,-0.1448 -0.0293,-0.2168 -0.0059,-0.039 -0.0075,-0.079 -0.01563,-0.1172 -0.01448,-0.064 -0.03259,-0.1227 -0.05468,-0.1777 -0.248761,-0.7822 -0.968704,-1.3457 -1.837891,-1.3457 l -12.646484,0 -0.691407,0 c -3.355214,-0.899 -3.368867,-4.3418 -7.816406,-4.3418 l -22.96289,0 z"/><path id="path4218" fill="#fff" fill-opacity=".537" stroke="none" d="m 2.5429693,1005.0126 c -0.524047,0 -0.997698,0.2108 -1.3398438,0.5527 -0.34214556,0.342 -0.55273441,0.8153 -0.55273441,1.3399 l 0,1.0351 c 0.005317,-0.5046 0.20862768,-0.9604 0.53906251,-1.291 0.334818,-0.3348 0.7996767,-0.541 1.3125,-0.541 l 22.3632804,0 c 3.95304,0 3.290625,3.0306 7.203553,4.0733 0.435978,0.1166 0.916197,0.059 1.378479,0.059 l 12.054687,0 c 0.827537,0 1.513161,0.5365 1.75,1.2813 0.03946,0.1519 0.08789,0.2893 0.08789,0.4394 l 0.0098,0 0,-0.8398 0,-0.078 c 0,-0.1063 -0.0447,-0.3368 -0.0957,-0.4961 -0.242062,-0.7611 -0.943449,-1.3105 -1.789099,-1.3105 l -12.304688,0 -0.671875,0 c -3.264359,-0.8742 -3.278364,-4.2227 -7.605469,-4.2227 l -22.3398427,0 z"/></g></g><path id="path4296" fill="#000" fill-opacity=".235" d="m 16.420467,1027.3774 0,5.8833 c 0,4.8913 0.174907,6.0635 0.369629,6.8639 0.732081,3.0122 2.70155,4.7393 5.875376,5.1558 1.718059,0.2265 5.187995,-0.032 7.916926,-0.5956 l 0.997135,-0.2007 0,-17.1067 -5.053016,-0.015 0,13.6524 -5.053026,0 0,-9.6186 -1.894885,0 2.526518,-4.0296 z"/><path id="path3865" fill="url(#linearGradient4290)" fill-opacity="1" d="m 16.420467,1026.3772 0,5.8833 c 0,4.8913 0.174907,6.0635 0.369629,6.8639 0.732081,3.0122 2.70155,4.7393 5.875376,5.1558 1.718059,0.2265 5.187995,-0.032 7.916926,-0.5956 l 0.997135,-0.2007 0,-17.1067 -5.053016,-0.015 0,13.6524 -5.053026,0 0,-9.6186 -1.894885,0 2.526518,-4.0296 z"/></g></svg>