<svg xmlns="http://www.w3.org/2000/svg" xmlns:svg="http://www.w3.org/2000/svg" xmlns:xlink="http://www.w3.org/1999/xlink" id="svg865" width="48" height="48" version="1.1"><defs id="defs867"><linearGradient id="linearGradient4103"><stop id="stop4105" offset="0" stop-color="#bdecfb" stop-opacity="1"/><stop id="stop4107" offset="1" stop-color="#f5feff" stop-opacity="1"/></linearGradient><linearGradient id="linearGradient4314"><stop id="stop4316" offset="0" stop-color="#ff4b00" stop-opacity="1"/><stop id="stop4318" offset="1" stop-color="#f50" stop-opacity="1"/></linearGradient><linearGradient id="linearGradient5020-1"><stop id="stop5022-6" offset="0" stop-color="#0da8db" stop-opacity="1"/><stop id="stop5024-0" offset="1" stop-color="#1fe1fb" stop-opacity="1"/></linearGradient><linearGradient id="linearGradient4101" x1="25.056" x2="25.056" y1="1036.973" y2="1032.751" gradientTransform="matrix(0.9473684,0,0,0.9473684,1.2631576,54.966481)" gradientUnits="userSpaceOnUse" xlink:href="#linearGradient4314"/><linearGradient id="linearGradient3886"><stop id="stop3888" offset="0" stop-color="#b9edff" stop-opacity="1"/><stop id="stop3890" offset="1" stop-color="#f6fdfe" stop-opacity="1"/></linearGradient><linearGradient id="linearGradient4306"><stop id="stop4308" offset="0" stop-color="#00a0c4" stop-opacity="1"/><stop id="stop4310" offset="1" stop-color="#00b7d4" stop-opacity="1"/></linearGradient><linearGradient id="linearGradient4298"><stop id="stop4300" offset="0" stop-color="#008cb6" stop-opacity="1"/><stop id="stop4302" offset="1" stop-color="#00bcd7" stop-opacity="1"/></linearGradient><linearGradient id="linearGradient4121"><stop id="stop4123" offset="0" stop-color="#94e4f0" stop-opacity="1"/><stop id="stop4125" offset="1" stop-color="#44cfe4" stop-opacity="0"/></linearGradient><linearGradient id="linearGradient5070"><stop id="stop5072" offset="0" stop-color="#ff4200" stop-opacity="0"/><stop id="stop5074" offset="1" stop-color="#5f1900" stop-opacity="1"/></linearGradient><linearGradient id="linearGradient5020"><stop id="stop5022" offset="0" stop-color="#00a9e4" stop-opacity="1"/><stop id="stop5024" offset="1" stop-color="#44cfe4" stop-opacity="1"/></linearGradient><linearGradient id="linearGradient5068" x1="16.617" x2="16.617" y1="11" y2="0" gradientTransform="translate(3.2220459e-6,1004.3623)" gradientUnits="userSpaceOnUse" xlink:href="#linearGradient5070"/><linearGradient id="linearGradient4127" x1="37.375" x2="37.375" y1="11" y2="12.992" gradientTransform="translate(3.2220459e-6,1004.3623)" gradientUnits="userSpaceOnUse" xlink:href="#linearGradient4121"/><linearGradient id="linearGradient4017" x1="15.625" x2="15.625" y1="1052.362" y2="1015.362" gradientTransform="translate(7.2220459e-6,-1e-4)" gradientUnits="userSpaceOnUse" xlink:href="#linearGradient5020"/><linearGradient id="linearGradient4296" x1="12.598" x2="12.598" y1="1222.975" y2="1207.361" gradientTransform="matrix(0.83643123,0,0,0.83647007,13.962825,20.3802)" gradientUnits="userSpaceOnUse" xlink:href="#linearGradient4298"/><linearGradient id="linearGradient4304" x1="19.87" x2="19.87" y1="1210.857" y2="1201.456" gradientTransform="matrix(0.83643123,0,0,0.83647007,13.962825,-983.9821)" gradientUnits="userSpaceOnUse" xlink:href="#linearGradient4306"/><linearGradient id="linearGradient4320" x1="27.625" x2="27.625" y1="1044.362" y2="1025.362" gradientTransform="matrix(0.9473684,0,0,0.9473684,1.2631574,-949.39582)" gradientUnits="userSpaceOnUse" xlink:href="#linearGradient4103"/></defs><metadata id="metadata870"/><g id="layer1" transform="translate(-2.220459e-7,-1004.3623)"><path id="path4196" fill="#ff4200" fill-opacity="1" stroke="none" d="m 24.9082,1004.3625 c 4.447539,0 4.461192,3.4427 7.816406,4.3417 l 0.691407,0 12.646484,0 c 0.869187,0 1.58913,0.5635 1.837891,1.3457 0.02209,0.055 0.0402,0.1137 0.05469,0.1777 0.0081,0.038 0.0097,0.078 0.01563,0.1172 0.01012,0.072 0.0293,0.1338 0.0293,0.2168 l 0,0.08 0,3.498 0,36.2225 0,0.055 c 0,1.0773 -0.868032,1.945 -1.945312,1.9453 l -44.1093748,0 c -1.07729098,-2e-4 -1.9453229779541,-0.8682 -1.9453229779541,-1.9455 l 0,-0.055 0,-1.0449 0,-40.6131 0,-2.3964 c 0,-0.5387 0.2166909979541,-1.0252 0.5683589979541,-1.3769 0.351669,-0.3517 0.83831998,-0.5684 1.37695298,-0.5684 l 22.9628898,0 z"/><path id="rect5057" fill="url(#linearGradient5068)" fill-opacity="1" stroke="none" d="m 1.9453152,1004.3623 c -0.538632,0 -1.02528398,0.2167 -1.37695298,0.5684 -0.351668,0.3517 -0.5683589979541,0.8382 -0.5683589979541,1.3769 l 0,2.3965 0,6.6582 47.9999997779541,0 0,-1.2227 0,-3.498 0,-0.08 c 0,-0.083 -0.01918,-0.1448 -0.0293,-0.2168 -0.0059,-0.039 -0.0075,-0.079 -0.01563,-0.1172 -0.01448,-0.064 -0.03259,-0.1227 -0.05468,-0.1777 -0.248761,-0.7822 -0.968704,-1.3457 -1.837891,-1.3457 l -12.646484,0 -0.691407,0 c -3.355214,-0.899 -3.368867,-4.3418 -7.816406,-4.3418 l -22.9628908,0 z"/><rect id="rect4851" width="35.5" height="39" x="6.25" y="-1049.112" fill="#0d2e44" fill-opacity=".059" stroke="none" ry="1.58" transform="scale(1,-1)"/><rect id="rect4849" width="35" height="38.519" x="6.5" y="-1048.871" fill="#0d2e44" fill-opacity=".118" stroke="none" ry="1.56" transform="scale(1,-1)"/><rect id="rect4845" width="34.5" height="38.037" x="6.75" y="-1048.63" fill="#0d2e44" fill-opacity=".235" stroke="none" ry="1.541" transform="scale(1,-1)"/><rect id="rect4821" width="34" height="37.556" x="7" y="-1048.389" fill="#fafafa" fill-opacity="1" stroke="none" ry="1.521" transform="scale(1,-1)"/><path id="rect4840" fill="#000" fill-opacity=".118" stroke="none" d="m 8.5800842,1010.8336 c -0.875288,0 -1.580078,0.6793 -1.580078,1.5216 l 0,0.7703 c 0,-0.8438 0.70479,-1.5216 1.580078,-1.5216 l 30.8398428,0 c 0.87529,0 1.58008,0.6778 1.58008,1.5216 l 0,-0.7703 c 0,-0.8423 -0.70479,-1.5216 -1.58008,-1.5216 l -30.8398428,0 z"/><rect id="rect4831" width="41.5" height="37.074" x="3.25" y="-1049.112" fill="#0d2e44" fill-opacity=".059" stroke="none" ry="1.502" transform="scale(1,-1)"/><rect id="rect4829" width="41" height="36.593" x="3.5" y="-1048.871" fill="#0d2e44" fill-opacity=".118" stroke="none" ry="1.482" transform="scale(1,-1)"/><rect id="rect4825" width="40.5" height="36.111" x="3.75" y="-1048.63" fill="#0d2e44" fill-opacity=".235" stroke="none" ry="1.463" transform="scale(1,-1)"/><rect id="rect4793" width="40" height="35.63" x="4" y="-1048.389" fill="#fafafa" fill-opacity="1" stroke="none" ry="1.443" transform="scale(1,-1)"/><path id="path4234" fill="#000" fill-opacity=".059" stroke="none" d="m 21.89191,1014.162 c -4.447538,0 -4.461192,3.4427 -7.816406,4.3418 l -0.691407,0 -11.4465938,0 c -0.869186,0 -1.58912898,0.5635 -1.83788998,1.3457 -0.02209,0.055 -0.0402,0.1137 -0.05469,0.1777 -0.0081,0.038 -0.0097,0.078 -0.01563,0.1172 -0.01012,0.072 -0.029299997954,0.1338 -0.029299997954,0.2168 l 0,0.08 0,3.498 0,25.2227 0,0.055 c 0,1.0773 0.8680329979541,1.945 1.9453129779541,1.9453 l 44.1093748,0 c 1.07728,0 1.945312,-0.868 1.945312,-1.9453 l 0,-0.055 0,-1.0449 0,-29.6133 0,-2.3965 c 0,-0.5387 -0.216691,-1.0252 -0.568359,-1.3769 -0.351669,-0.3517 -0.83832,-0.5684 -1.376953,-0.5684 l -24.162781,0 z"/><path id="path4232" fill="#000" fill-opacity=".118" stroke="none" d="m 22.29191,1014.562 c -4.447538,0 -4.461192,3.4427 -7.816406,4.3418 l -0.691407,0 -11.8465938,0 c -0.869186,0 -1.58912898,0.5635 -1.83788998,1.3457 -0.02209,0.055 -0.0402,0.1137 -0.05469,0.1777 -0.0081,0.038 -0.0097,0.078 -0.01563,0.1172 -0.01012,0.072 -0.029299997954,0.1338 -0.029299997954,0.2168 l 0,0.08 0,3.498 0,25.2227 0,0.055 c 0,1.0773 0.8680329979541,1.945 1.9453129779541,1.9453 l 44.1093748,0 c 1.07728,0 1.945312,-0.868 1.945312,-1.9453 l 0,-0.055 0,-1.0449 0,-29.6133 0,-2.3965 c 0,-0.5387 -0.216691,-1.0252 -0.568359,-1.3769 -0.351669,-0.3517 -0.83832,-0.5684 -1.376953,-0.5684 l -23.762781,0 z"/><path id="path4228" fill="#000" fill-opacity=".235" stroke="none" d="m 22.69191,1014.962 c -4.447538,0 -4.461192,3.4427 -7.816406,4.3418 l -0.691407,0 -12.2465938,0 c -0.869186,0 -1.58912898,0.5635 -1.83788998,1.3457 -0.02209,0.055 -0.0402,0.1137 -0.05469,0.1777 -0.0081,0.038 -0.0097,0.078 -0.01563,0.1172 -0.01012,0.072 -0.029299997954,0.1338 -0.029299997954,0.2168 l 0,0.08 0,3.498 0,25.2227 0,0.055 c 0,1.0773 0.8680329979541,1.945 1.9453129779541,1.9453 l 44.1093748,0 c 1.07728,0 1.945312,-0.868 1.945312,-1.9453 l 0,-0.055 0,-1.0449 0,-29.6133 0,-2.3965 c 0,-0.5387 -0.216691,-1.0252 -0.568359,-1.3769 -0.351669,-0.3517 -0.83832,-0.5684 -1.376953,-0.5684 l -23.362781,0 z"/><path id="path4325" fill="url(#linearGradient4017)" fill-opacity="1" stroke="none" d="m 23.0918,1015.3622 c -4.447538,0 -4.461192,3.4427 -7.816406,4.3418 l -0.691407,0 -12.6464838,0 c -0.869186,0 -1.58912898,0.5635 -1.83788998,1.3457 -0.02209,0.055 -0.0402,0.1137 -0.05469,0.1777 -0.0081,0.038 -0.0097,0.078 -0.01563,0.1172 -0.01012,0.072 -0.029299997954,0.1338 -0.029299997954,0.2168 l 0,0.08 0,3.498 0,25.2227 0,0.055 c 0,1.0773 0.8680329979541,1.945 1.9453129779541,1.9453 l 44.1093748,0 c 1.07728,0 1.945312,-0.868 1.945312,-1.9453 l 0,-0.055 0,-1.0449 0,-29.6133 0,-2.3965 c 0,-0.5387 -0.216691,-1.0252 -0.568359,-1.3769 -0.351669,-0.3517 -0.83832,-0.5684 -1.376953,-0.5684 l -22.962891,0 z"/><path id="path4962" fill="#fff" fill-opacity=".235" stroke="none" d="m 23.0918,1015.3623 c -4.447538,0 -4.461192,3.4427 -7.816406,4.3418 l -0.691407,0 -12.6464838,0 c -0.869187,0 -1.58912998,0.5635 -1.83789098,1.3457 -0.02209,0.055 -0.0402,0.1137 -0.05469,0.1777 -0.0081,0.038 -0.0097,0.078 -0.01563,0.1172 -0.01012,0.072 -0.029299997954,0.1338 -0.029299997954,0.2168 l 0,0.08 0,0.7187 c 0,-0.083 0.019179997954,-0.1447 0.029299997954,-0.2167 0.0059,-0.039 0.0075,-0.079 0.01563,-0.1172 0.01449,-0.064 0.0326,-0.1228 0.05469,-0.1778 0.248761,-0.7822 0.96870398,-1.3457 1.83789098,-1.3457 l 12.6464838,0 1.090813,0 c 3.355214,-0.8991 3.368868,-4.3418 7.816406,-4.3418 l 22.563485,0 c 0.538632,0 1.025284,0.2167 1.376953,0.5684 0.351668,0.3517 0.568359,0.8382 0.568359,1.3769 l 0,-0.7988 c 0,-0.5387 -0.216691,-1.0252 -0.568359,-1.3769 -0.351669,-0.3517 -0.838321,-0.5684 -1.376953,-0.5684 z"/><path id="path4116" fill="url(#linearGradient4127)" fill-opacity="1" stroke="none" d="m 23.0918,1015.3623 c -2.826121,0 -3.864974,1.3866 -5.105469,2.6309 0.912107,-0.3767 1.918362,-0.6309 3.105469,-0.6309 l 26.908203,0 0,-0.055 c 0,-0.5387 -0.216691,-1.0252 -0.568359,-1.3769 -0.351669,-0.3517 -0.838321,-0.5684 -1.376953,-0.5684 z"/><path id="rect4833" fill="#000" fill-opacity=".059" stroke="none" d="m 5.4980522,1012.7601 c -0.8304,0 -1.498046,0.6435 -1.498046,1.4425 l 0,0.7708 c 0,-0.7989 0.667646,-1.4445 1.498046,-1.4445 l 37.0039048,0 c 0.8304,0 1.49805,0.6456 1.49805,1.4445 l 0,-0.7708 c 0,-0.799 -0.66765,-1.4425 -1.49805,-1.4425 l -37.0039048,0 z"/><path id="rect846" fill="#000" fill-opacity="1" stroke="none" d="m 2.220459e-7,1049.3621 0,1.0625 c 0,1.0773 0.8602199979541,1.9375 1.9374999779541,1.9375 l 44.1249968,0 c 1.07728,0 1.9375,-0.8602 1.9375,-1.9375 l 0,-1.0625 c 0,1.0773 -0.86022,1.9375 -1.9375,1.9375 l -44.1249968,0 c -1.07727998,0 -1.9374999779541,-0.8602 -1.9374999779541,-1.9375 z"/><path id="path4200" fill="#000" fill-opacity=".492" stroke="none" d="m 1.9453162,1004.3622 c -0.538633,0 -1.02528398,0.2167 -1.37695298,0.5684 -0.351668,0.3517 -0.5683599979541,0.8382 -0.5683599979541,1.3769 l 0,2.3965 0,40.6133 0,0.045 c 0,0.8158 0.4938469979541,1.5054 1.2011719779541,1.793 -0.34036098,-0.3419 -0.55078098,-0.8133 -0.55078098,-1.336 l 0,-0.053 0,-1.0176 0,-39.5117 0,-2.332 c 0,-0.5246 0.210588,-0.9979 0.55273398,-1.3399 0.342148,-0.342 0.815795,-0.5527 1.339844,-0.5527 l 22.3398428,0 0,0 c 4.327124,0 4.341097,3.3481 7.605469,4.2227 l 0.671875,0 12.304688,0 c 0.845653,0 1.547035,0.5492 1.789062,1.3106 0.02152,0.053 0.03863,0.1098 0.05273,0.1718 0.0078,0.036 0.0097,0.076 0.01563,0.1153 0.0097,0.069 0.02734,0.1283 0.02734,0.2089 l 0,0.078 0,3.4023 0,35.2422 0,0.053 c 0,0.5227 -0.210418,0.9942 -0.550781,1.336 0.707328,-0.2856 1.201175,-0.9752 1.201175,-1.791 l 0,-35.2227 0,-3.498 0,-0.08 c 0,-0.083 -0.01918,-0.1448 -0.0293,-0.2168 -0.0059,-0.039 -0.0075,-0.079 -0.01563,-0.1172 -0.01448,-0.064 -0.03259,-0.1227 -0.05468,-0.1777 -0.248761,-0.7822 -0.968704,-1.3457 -1.837891,-1.3457 l -12.646484,0 -0.691407,0 c -3.355214,-0.899 -3.368867,-4.3418 -7.816406,-4.3418 l -22.9628898,0 z"/><path id="path4218" fill="#fff" fill-opacity=".537" stroke="none" d="m 2.5429722,1005.0126 c -0.524047,0 -0.997698,0.2108 -1.339844,0.5527 -0.34214498,0.342 -0.55273398,0.8153 -0.55273398,1.3399 l 0,1.0351 c 0.0053,-0.5046 0.208628,-0.9604 0.53906298,-1.291 0.334818,-0.3348 0.799676,-0.541 1.3125,-0.541 l 22.3632798,0 c 3.95304,0 3.290625,3.0306 7.203553,4.0733 0.435978,0.1166 0.916197,0.059 1.378479,0.059 l 12.054687,0 c 0.827537,0 1.513161,0.5365 1.75,1.2813 0.03946,0.1519 0.08789,0.2893 0.08789,0.4394 l 0.0098,0 0,-0.8398 0,-0.078 c 0,-0.1063 -0.0447,-0.3368 -0.0957,-0.4961 -0.242062,-0.7611 -0.943449,-1.3105 -1.789099,-1.3105 l -12.304688,0 -0.671875,0 c -3.264359,-0.8742 -3.278364,-4.2227 -7.605469,-4.2227 l -22.3398428,0 z"/><path id="path4179" fill="#000" fill-opacity=".235" d="m 32.5,1027.3623 -5.125,6.25 1.78125,1.6251 3.84375,-7.5313 -0.5,-0.3438 z m -14.125,4.9375 -3.375,2.9376 0,1.1249 3.375,-1.1249 2.25,9 2.781251,-1.6876 9.249999,2.8125 0.312501,0 0.03125,-0.25 -3.375,-7.6249 -1.125,-1.1251 -5.749999,4.5938 -3.250001,-7.9687 -1.125,-0.6876 z m 5.625,1.8125 -2.21875,1.1251 1.75,3.3749 3.84375,-3.3749 c 0,0 -2.250835,-1.1251 -3.375,-1.1251 z"/><path id="path4318" fill="url(#linearGradient4320)" fill-opacity="1" d="M 32.5 22 L 27.375 28.25 L 29.15625 29.875 L 33 22.34375 L 32.5 22 z M 18.375 26.9375 L 15 29.875 L 15 31 L 18.375 29.875 L 20.625 38.875 L 23.40625 37.1875 L 32.65625 40 L 32.96875 40 L 33 39.75 L 29.625 32.125 L 28.5 31 L 22.75 35.59375 L 19.5 27.625 L 18.375 26.9375 z" transform="translate(2.220459e-7,1004.3623)"/><path id="path4018-2" fill="url(#linearGradient4101)" fill-opacity="1" d="m 24,1033.1123 -2.21875,1.1251 1.75,3.3749 3.84375,-3.3749 c 0,0 -2.250835,-1.1251 -3.375,-1.1251 z"/></g></svg>