<svg xmlns="http://www.w3.org/2000/svg" xmlns:svg="http://www.w3.org/2000/svg" xmlns:xlink="http://www.w3.org/1999/xlink" id="svg865" width="48" height="48" version="1.1"><defs id="defs867"><linearGradient id="linearGradient4173"><stop id="stop4175" offset="0" stop-color="#fbd5bd" stop-opacity="1"/><stop id="stop4177" offset="1" stop-color="#fffaf5" stop-opacity="1"/></linearGradient><linearGradient id="linearGradient4171" x1="489.907" x2="489.907" y1="396.936" y2="383.064" gradientUnits="userSpaceOnUse" xlink:href="#linearGradient4173"/><linearGradient id="linearGradient4185" x1="489.907" x2="489.907" y1="396.936" y2="383.064" gradientUnits="userSpaceOnUse" xlink:href="#linearGradient4173"/><linearGradient id="linearGradient6589-4"><stop id="stop6591-4" offset="0" stop-color="#f27c05" stop-opacity="1"/><stop id="stop6593-8" offset="1" stop-color="#f9ad3e" stop-opacity="1"/></linearGradient><linearGradient id="linearGradient4121"><stop id="stop4123" offset="0" stop-color="#fbcc89" stop-opacity="1"/><stop id="stop4125" offset="1" stop-color="#f8a838" stop-opacity="0"/></linearGradient><linearGradient id="linearGradient5070"><stop id="stop5072" offset="0" stop-color="#e05d00" stop-opacity="0"/><stop id="stop5074" offset="1" stop-color="#491a00" stop-opacity="1"/></linearGradient><linearGradient id="linearGradient4333" x1="15.625" x2="15.625" y1="1052.362" y2="1015.362" gradientTransform="translate(6.5e-6,-2e-4)" gradientUnits="userSpaceOnUse" xlink:href="#linearGradient6589-4"/><linearGradient id="linearGradient5068" x1="16.617" x2="16.617" y1="11" y2="0" gradientTransform="translate(2.5e-6,1004.3622)" gradientUnits="userSpaceOnUse" xlink:href="#linearGradient5070"/><linearGradient id="linearGradient4127" x1="37.375" x2="37.375" y1="11" y2="12.992" gradientTransform="translate(2.5e-6,1004.3622)" gradientUnits="userSpaceOnUse" xlink:href="#linearGradient4121"/></defs><metadata id="metadata870"/><g id="layer1" transform="translate(0,-1004.3622)"><path id="path4196" fill="#762b00" fill-opacity="1" stroke="none" d="m 24.908199,1004.3624 c 4.447539,0 4.461192,3.4427 7.816406,4.3417 l 0.691407,0 12.646485,0 c 0.869186,0 1.589129,0.5635 1.83789,1.3457 0.02209,0.055 0.0402,0.1137 0.05469,0.1777 0.0081,0.038 0.0097,0.078 0.01563,0.1172 0.01012,0.072 0.0293,0.1338 0.0293,0.2168 l 0,0.08 0,3.498 0,36.2225 0,0.055 c 0,1.0773 -0.868032,1.945 -1.945313,1.9453 l -44.1093745,0 c -1.077291,-2e-4 -1.945323,-0.8682 -1.945323,-1.9455 l 0,-0.055 0,-1.0449 0,-40.6131 0,-2.3964 c 0,-0.5387 0.216691,-1.0252 0.568359,-1.3769 0.351669,-0.3517 0.83832,-0.5684 1.376953,-0.5684 l 22.9628905,0 z"/><path id="rect5057" fill="url(#linearGradient5068)" fill-opacity="1" stroke="none" d="m 1.9453155,1004.3622 c -0.538633,0 -1.025284,0.2167 -1.376953,0.5684 -0.351668,0.3517 -0.56836,0.8382 -0.56836,1.3769 l 0,2.3965 0,6.6582 47.9999995,0 0,-1.2227 0,-3.498 0,-0.08 c 0,-0.083 -0.01918,-0.1448 -0.0293,-0.2168 -0.0059,-0.039 -0.0075,-0.079 -0.01563,-0.1172 -0.01448,-0.064 -0.03259,-0.1227 -0.05468,-0.1777 -0.248762,-0.7822 -0.968705,-1.3457 -1.837891,-1.3457 l -12.646484,0 -0.691408,0 c -3.355214,-0.899 -3.368866,-4.3418 -7.816406,-4.3418 l -22.9628895,0 z"/><rect id="rect4851" width="35.5" height="39" x="6.25" y="-1049.112" fill="#0d2e44" fill-opacity=".059" stroke="none" ry="1.58" transform="scale(1,-1)"/><rect id="rect4849" width="35" height="38.519" x="6.5" y="-1048.871" fill="#0d2e44" fill-opacity=".118" stroke="none" ry="1.56" transform="scale(1,-1)"/><rect id="rect4845" width="34.5" height="38.037" x="6.75" y="-1048.63" fill="#0d2e44" fill-opacity=".235" stroke="none" ry="1.541" transform="scale(1,-1)"/><rect id="rect4821" width="34" height="37.556" x="7" y="-1048.389" fill="#fafafa" fill-opacity="1" stroke="none" ry="1.521" transform="scale(1,-1)"/><path id="rect4840" fill="#000" fill-opacity=".118" stroke="none" d="m 8.5800835,1010.8335 c -0.875288,0 -1.580078,0.6793 -1.580078,1.5216 l 0,0.7703 c 0,-0.8438 0.70479,-1.5216 1.580078,-1.5216 l 30.8398435,0 c 0.875289,0 1.580079,0.6778 1.580079,1.5216 l 0,-0.7703 c 0,-0.8423 -0.70479,-1.5216 -1.580079,-1.5216 l -30.8398435,0 z"/><rect id="rect4831" width="41.5" height="37.074" x="3.25" y="-1049.112" fill="#0d2e44" fill-opacity=".059" stroke="none" ry="1.502" transform="scale(1,-1)"/><rect id="rect4829" width="41" height="36.593" x="3.5" y="-1048.871" fill="#0d2e44" fill-opacity=".118" stroke="none" ry="1.482" transform="scale(1,-1)"/><rect id="rect4825" width="40.5" height="36.111" x="3.75" y="-1048.63" fill="#0d2e44" fill-opacity=".235" stroke="none" ry="1.463" transform="scale(1,-1)"/><rect id="rect4793" width="40" height="35.63" x="4" y="-1048.389" fill="#fafafa" fill-opacity="1" stroke="none" ry="1.443" transform="scale(1,-1)"/><path id="path4234" fill="#000" fill-opacity=".059" stroke="none" d="m 21.891909,1014.1619 c -4.447538,0 -4.461192,3.4427 -7.816406,4.3418 l -0.691407,0 -11.4465925,0 c -0.869187,0 -1.58913,0.5635 -1.837891,1.3457 -0.02209,0.055 -0.0402,0.1137 -0.05469,0.1777 -0.0081,0.038 -0.0097,0.078 -0.01563,0.1172 -0.01012,0.072 -0.0293,0.1338 -0.0293,0.2168 l 0,0.08 0,3.498 0,25.2227 0,0.055 c 0,1.0773 0.868033,1.945 1.945313,1.9453 l 44.1093745,0 c 1.07728,0 1.945312,-0.868 1.945312,-1.9453 l 0,-0.055 0,-1.0449 0,-29.6133 0,-2.3965 c 0,-0.5387 -0.216691,-1.0252 -0.568359,-1.3769 -0.351669,-0.3517 -0.83832,-0.5684 -1.376953,-0.5684 l -24.162781,0 z"/><path id="path4232" fill="#000" fill-opacity=".118" stroke="none" d="m 22.291909,1014.5619 c -4.447538,0 -4.461192,3.4427 -7.816406,4.3418 l -0.691407,0 -11.8465925,0 c -0.869187,0 -1.58913,0.5635 -1.837891,1.3457 -0.02209,0.055 -0.0402,0.1137 -0.05469,0.1777 -0.0081,0.038 -0.0097,0.078 -0.01563,0.1172 -0.01012,0.072 -0.0293,0.1338 -0.0293,0.2168 l 0,0.08 0,3.498 0,25.2227 0,0.055 c 0,1.0773 0.868033,1.945 1.945313,1.9453 l 44.1093745,0 c 1.07728,0 1.945312,-0.868 1.945312,-1.9453 l 0,-0.055 0,-1.0449 0,-29.6133 0,-2.3965 c 0,-0.5387 -0.216691,-1.0252 -0.568359,-1.3769 -0.351669,-0.3517 -0.83832,-0.5684 -1.376953,-0.5684 l -23.762781,0 z"/><path id="path4228-1" fill="#000" fill-opacity=".235" stroke="none" d="m 22.69191,1014.9619 c -4.447539,0 -4.461192,3.4427 -7.816406,4.3418 l -0.691407,0 -12.2465935,0 c -0.869187,0 -1.58913,0.5635 -1.837891,1.3457 -0.02209,0.055 -0.0402,0.1137 -0.05469,0.1777 -0.0081,0.038 -0.0097,0.078 -0.01563,0.1172 -0.01012,0.072 -0.0293,0.1338 -0.0293,0.2168 l 0,0.08 0,3.498 0,25.2227 0,0.055 c 0,1.0773 0.868033,1.945 1.945313,1.9453 l 44.1093755,0 c 1.07728,0 1.945312,-0.868 1.945312,-1.9453 l 0,-0.055 0,-1.0449 0,-29.6133 0,-2.3965 c 0,-0.5387 -0.216692,-1.0252 -0.568359,-1.3769 -0.351669,-0.3517 -0.83832,-0.5684 -1.376953,-0.5684 l -23.362781,0 z"/><path id="path4325" fill="url(#linearGradient4333)" fill-opacity="1" stroke="none" d="m 23.091799,1015.3621 c -4.447538,0 -4.461191,3.4427 -7.816405,4.3418 l -0.691407,0 -12.6464835,0 c -0.869187,0 -1.58913,0.5635 -1.837891,1.3457 -0.02209,0.055 -0.0402,0.1137 -0.05469,0.1777 -0.0081,0.038 -0.0097,0.078 -0.01563,0.1172 -0.01012,0.072 -0.0293,0.1338 -0.0293,0.2168 l 0,0.08 0,3.498 0,25.2227 0,0.055 c 0,1.0773 0.868033,1.945 1.945313,1.9453 l 44.1093755,0 c 1.07728,0 1.945312,-0.868 1.945312,-1.9453 l 0,-0.055 0,-1.0449 0,-29.6133 0,-2.3965 c 0,-0.5387 -0.216692,-1.0252 -0.568359,-1.3769 -0.351669,-0.3517 -0.83832,-0.5684 -1.376953,-0.5684 l -22.962891,0 z"/><path id="path4962" fill="#fff" fill-opacity=".235" stroke="none" d="m 23.091799,1015.3622 c -4.447538,0 -4.461191,3.4427 -7.816405,4.3418 l -0.691407,0 -12.6464845,0 c -0.869187,0 -1.589129,0.5635 -1.83789,1.3457 -0.02209,0.055 -0.0402,0.1137 -0.05469,0.1777 -0.0081,0.038 -0.0097,0.078 -0.01563,0.1172 -0.01012,0.072 -0.0293,0.1338 -0.0293,0.2168 l 0,0.08 0,0.7187 c 0,-0.083 0.01918,-0.1447 0.0293,-0.2167 0.0059,-0.039 0.0075,-0.079 0.01563,-0.1172 0.01449,-0.064 0.0326,-0.1228 0.05469,-0.1778 0.248761,-0.7822 0.968703,-1.3457 1.83789,-1.3457 l 12.6464845,0 1.090812,0 c 3.355214,-0.8991 3.368868,-4.3418 7.816406,-4.3418 l 22.563485,0 c 0.538632,0 1.025284,0.2167 1.376953,0.5684 0.351668,0.3517 0.568359,0.8382 0.568359,1.3769 l 0,-0.7988 c 0,-0.5387 -0.216691,-1.0252 -0.568359,-1.3769 -0.351669,-0.3517 -0.838321,-0.5684 -1.376953,-0.5684 z"/><path id="path4116" fill="url(#linearGradient4127)" fill-opacity="1" stroke="none" d="m 23.091799,1015.3622 c -2.826121,0 -3.864973,1.3866 -5.105469,2.6309 0.912107,-0.3767 1.918363,-0.6309 3.105469,-0.6309 l 26.908203,0 0,-0.055 c 0,-0.5387 -0.216691,-1.0252 -0.568359,-1.3769 -0.351668,-0.3517 -0.838321,-0.5684 -1.376953,-0.5684 z"/><path id="rect4833" fill="#000" fill-opacity=".059" stroke="none" d="m 5.4980515,1012.76 c -0.8304,0 -1.498046,0.6435 -1.498046,1.4425 l 0,0.7708 c 0,-0.7989 0.667646,-1.4445 1.498046,-1.4445 l 37.0039045,0 c 0.830401,0 1.49805,0.6456 1.49805,1.4445 l 0,-0.7708 c 0,-0.799 -0.66765,-1.4425 -1.49805,-1.4425 l -37.0039045,0 z"/><path id="rect846" fill="#000" fill-opacity="1" stroke="none" d="m -5e-7,1049.362 0,1.0625 c 0,1.0773 0.86022,1.9375 1.9375,1.9375 l 44.1249975,0 c 1.07728,0 1.9375,-0.8602 1.9375,-1.9375 l 0,-1.0625 c 0,1.0773 -0.86022,1.9375 -1.9375,1.9375 l -44.1249975,0 c -1.07728,0 -1.9375,-0.8602 -1.9375,-1.9375 z"/><path id="path4200" fill="#000" fill-opacity=".492" stroke="none" d="m 1.9453155,1004.3621 c -0.538633,0 -1.025284,0.2167 -1.376953,0.5684 -0.351668,0.3517 -0.56836,0.8382 -0.56836,1.3769 l 0,2.3965 0,40.6133 0,0.045 c 0,0.8158 0.493847,1.5054 1.201172,1.793 -0.340361,-0.3419 -0.550781,-0.8133 -0.550781,-1.336 l 0,-0.053 0,-1.0176 0,-39.5117 0,-2.332 c 0,-0.5246 0.210588,-0.9979 0.552735,-1.3399 0.342147,-0.342 0.815794,-0.5527 1.339843,-0.5527 l 22.3398425,0 0,0 c 4.327124,0 4.341097,3.3481 7.605469,4.2227 l 0.671875,0 12.304688,0 c 0.845653,0 1.547035,0.5492 1.789062,1.3106 0.02152,0.053 0.03863,0.1098 0.05273,0.1718 0.0078,0.036 0.0097,0.076 0.01563,0.1153 0.0097,0.069 0.02734,0.1283 0.02734,0.2089 l 0,0.078 0,3.4023 0,35.2422 0,0.053 c 0,0.5227 -0.210419,0.9942 -0.550781,1.336 0.707327,-0.2856 1.201174,-0.9752 1.201174,-1.791 l 0,-35.2227 0,-3.498 0,-0.08 c 0,-0.083 -0.01918,-0.1448 -0.0293,-0.2168 -0.0059,-0.039 -0.0075,-0.079 -0.01563,-0.1172 -0.01448,-0.064 -0.03259,-0.1227 -0.05468,-0.1777 -0.248761,-0.7822 -0.968704,-1.3457 -1.837891,-1.3457 l -12.646483,0 -0.691408,0 c -3.355214,-0.899 -3.368866,-4.3418 -7.816406,-4.3418 l -22.9628895,0 z"/><path id="path4218" fill="#fff" fill-opacity=".537" stroke="none" d="m 2.5429715,1005.0125 c -0.524047,0 -0.997698,0.2108 -1.339843,0.5527 -0.342146,0.342 -0.552735,0.8153 -0.552735,1.3399 l 0,1.0351 c 0.0053,-0.5046 0.208628,-0.9604 0.539063,-1.291 0.334818,-0.3348 0.799676,-0.541 1.3125,-0.541 l 22.3632795,0 c 3.95304,0 3.290625,3.0306 7.203553,4.0733 0.435978,0.1166 0.916197,0.059 1.378479,0.059 l 12.054687,0 c 0.827537,0 1.513161,0.5365 1.75,1.2813 0.03946,0.1519 0.08789,0.2893 0.08789,0.4394 l 0.0098,0 0,-0.8398 0,-0.078 c 0,-0.1063 -0.0447,-0.3368 -0.0957,-0.4961 -0.242062,-0.7611 -0.943449,-1.3105 -1.789099,-1.3105 l -12.304688,0 -0.671875,0 c -3.264359,-0.8742 -3.278364,-4.2227 -7.605469,-4.2227 l -22.3398425,0 z"/><g id="g4187" fill="#000" fill-opacity=".235" transform="matrix(1.2592737,0,0,1.296279,-593.0527,530.88927)"><path style="text-indent:0;text-transform:none;block-progression:tb" id="path4189" fill="#000" fill-opacity=".235" d="m 489.78,383 c -0.68105,0.18249 -1.2741,0.71498 -1.4247,1.4242 -0.30648,0.86195 -0.56168,1.7409 -0.85631,2.6068 -1.1191,0.0249 -2.2444,-0.053 -3.3594,0.0452 -1.1949,0.26614 -1.7666,2.035 -0.76631,2.8441 0.81417,0.69141 1.7114,1.2784 2.5632,1.9232 -0.31227,1.0963 -0.75361,2.1622 -0.97109,3.2815 -0.0799,1.293 1.6773,2.2929 2.6842,1.3948 0.78479,-0.56692 1.5656,-1.1394 2.3494,-1.7076 0.93364,0.64349 1.8023,1.3888 2.7857,1.9554 1.117,0.48964 2.5452,-0.64266 2.2154,-1.8519 -0.26263,-1.0374 -0.63012,-2.0468 -0.93853,-3.0724 0.89525,-0.68599 1.8536,-1.2946 2.7012,-2.0396 0.67556,-0.73357 0.4247,-1.9358 -0.36138,-2.479 -0.70531,-0.46374 -1.5755,-0.24489 -2.3685,-0.29375 l -1.565,0 c -0.36771,-1.0708 -0.6688,-2.1692 -1.079,-3.2224 -0.13,-0.48 -0.97,-0.81 -1.61,-0.81 z m 0.22,2.88 c 0.30127,0.8676 0.47462,1.7907 0.86619,2.62 0.53814,0.69134 1.4602,0.51675 2.2273,0.53621 l 1.4378,0 c -0.77045,0.57773 -1.5869,1.0951 -2.3241,1.7164 -0.08,0.054 -0.21492,0.61884 -0.14647,0.26298 -0.35031,0.59327 0.0737,1.2375 0.21554,1.8324 0.15797,0.50024 0.31594,1.0005 0.47391,1.5007 -0.75377,-0.51887 -1.4373,-1.1636 -2.2404,-1.5958 -0.57507,-0.17281 -1.2143,-0.036 -1.6423,0.38928 -0.5391,0.40218 -1.0782,0.80437 -1.6173,1.2066 0.25288,-0.89232 0.6169,-1.7621 0.79362,-2.6704 0.0209,-0.58903 -0.32099,-1.1259 -0.83802,-1.3905 -0.57897,-0.4172 -1.1579,-0.83439 -1.7369,-1.2516 0.94126,-0.0235 1.8904,0.0491 2.8266,-0.0406 0.56688,-0.13136 0.9272,-0.64141 1.0358,-1.1862 0.22291,-0.64317 0.44591,-1.2864 0.66877,-1.9295 z" color="#000" enable-background="new"/></g><g id="layer15" fill="url(#linearGradient4171)" fill-opacity="1" transform="matrix(1.2592737,0,0,1.296279,-593.0527,529.88927)"><path id="path5717-0-9-4" fill="url(#linearGradient4185)" fill-opacity="1" d="m 489.78,383 c -0.68105,0.18249 -1.2741,0.71498 -1.4247,1.4242 -0.30648,0.86195 -0.56168,1.7409 -0.85631,2.6068 -1.1191,0.0249 -2.2444,-0.053 -3.3594,0.0452 -1.1949,0.26614 -1.7666,2.035 -0.76631,2.8441 0.81417,0.69141 1.7114,1.2784 2.5632,1.9232 -0.31227,1.0963 -0.75361,2.1622 -0.97109,3.2815 -0.0799,1.293 1.6773,2.2929 2.6842,1.3948 0.78479,-0.56692 1.5656,-1.1394 2.3494,-1.7076 0.93364,0.64349 1.8023,1.3888 2.7857,1.9554 1.117,0.48964 2.5452,-0.64266 2.2154,-1.8519 -0.26263,-1.0374 -0.63012,-2.0468 -0.93853,-3.0724 0.89525,-0.68599 1.8536,-1.2946 2.7012,-2.0396 0.67556,-0.73357 0.4247,-1.9358 -0.36138,-2.479 -0.70531,-0.46374 -1.5755,-0.24489 -2.3685,-0.29375 l -1.565,0 c -0.36771,-1.0708 -0.6688,-2.1692 -1.079,-3.2224 -0.13,-0.48 -0.97,-0.81 -1.61,-0.81 z m 0.22,2.88 c 0.30127,0.8676 0.47462,1.7907 0.86619,2.62 0.53814,0.69134 1.4602,0.51675 2.2273,0.53621 l 1.4378,0 c -0.77045,0.57773 -1.5869,1.0951 -2.3241,1.7164 -0.08,0.054 -0.21492,0.61884 -0.14647,0.26298 -0.35031,0.59327 0.0737,1.2375 0.21554,1.8324 0.15797,0.50024 0.31594,1.0005 0.47391,1.5007 -0.75377,-0.51887 -1.4373,-1.1636 -2.2404,-1.5958 -0.57507,-0.17281 -1.2143,-0.036 -1.6423,0.38928 -0.5391,0.40218 -1.0782,0.80437 -1.6173,1.2066 0.25288,-0.89232 0.6169,-1.7621 0.79362,-2.6704 0.0209,-0.58903 -0.32099,-1.1259 -0.83802,-1.3905 -0.57897,-0.4172 -1.1579,-0.83439 -1.7369,-1.2516 0.94126,-0.0235 1.8904,0.0491 2.8266,-0.0406 0.56688,-0.13136 0.9272,-0.64141 1.0358,-1.1862 0.22291,-0.64317 0.44591,-1.2864 0.66877,-1.9295 z" color="#000" enable-background="new" style="text-indent:0;text-transform:none;block-progression:tb"/></g></g></svg>