<svg xmlns="http://www.w3.org/2000/svg" xmlns:svg="http://www.w3.org/2000/svg" xmlns:xlink="http://www.w3.org/1999/xlink" id="svg2" width="48" height="48" version="1.1"><defs id="defs4"><linearGradient id="linearGradient4266"><stop id="stop4268" offset="0" stop-color="#fbbdd7" stop-opacity="1"/><stop id="stop4270" offset="1" stop-color="#fff5f8" stop-opacity="1"/></linearGradient><linearGradient id="linearGradient4264" x1="24.086" x2="24.086" y1="1044.363" y2="1025.36" gradientTransform="matrix(0.9473684,0,0,0.9473684,1.2631428,54.96644)" gradientUnits="userSpaceOnUse" xlink:href="#linearGradient4266"/><linearGradient id="linearGradient4121"><stop id="stop4123" offset="0" stop-color="#f68eb0" stop-opacity="1"/><stop id="stop4125" offset="1" stop-color="#ef3975" stop-opacity="0"/></linearGradient><linearGradient id="linearGradient5070"><stop id="stop5072" offset="0" stop-color="#71092c" stop-opacity="0"/><stop id="stop5074" offset="1" stop-color="#26030f" stop-opacity="1"/></linearGradient><linearGradient id="linearGradient5020"><stop id="stop5022" offset="0" stop-color="#da1254" stop-opacity="1"/><stop id="stop5024" offset="1" stop-color="#ef3975" stop-opacity="1"/></linearGradient><linearGradient id="linearGradient4333" x1="15.625" x2="15.625" y1="1052.362" y2="1015.362" gradientTransform="translate(7e-6,-1.9572e-4)" gradientUnits="userSpaceOnUse" xlink:href="#linearGradient5020"/><linearGradient id="linearGradient5068" x1="16.617" x2="16.617" y1="11" y2="0" gradientTransform="translate(3e-6,1004.3622)" gradientUnits="userSpaceOnUse" xlink:href="#linearGradient5070"/><linearGradient id="linearGradient4127" x1="37.375" x2="37.375" y1="11" y2="12.992" gradientTransform="translate(3e-6,1004.3622)" gradientUnits="userSpaceOnUse" xlink:href="#linearGradient4121"/></defs><metadata id="metadata7"/><g id="layer1" transform="translate(0,-1004.3622)"><path id="path4196" fill="#71092c" fill-opacity="1" stroke="none" d="m 24.9082,1004.3624 c 4.447539,0 4.461192,3.4427 7.816406,4.3417 l 0.691407,0 12.646484,0 c 0.869187,0 1.58913,0.5635 1.837891,1.3457 0.02209,0.055 0.0402,0.1137 0.05469,0.1777 0.0081,0.038 0.0097,0.078 0.01563,0.1172 0.01012,0.072 0.0293,0.1338 0.0293,0.2168 l 0,0.08 0,3.498 0,36.2225 0,0.055 c 0,1.0773 -0.868032,1.945 -1.945312,1.9453 l -44.109375,0 C 0.86803,1052.3621 -2e-6,1051.4941 -2e-6,1050.4168 l 0,-0.055 0,-1.0449 0,-40.6131 0,-2.3964 c 0,-0.5387 0.216691,-1.0252 0.568359,-1.3769 0.351669,-0.3517 0.83832,-0.5684 1.376953,-0.5684 l 22.96289,0 z"/><path id="rect5057" fill="url(#linearGradient5068)" fill-opacity="1" stroke="none" d="m 1.945316,1004.3622 c -0.538633,0 -1.025285,0.2167 -1.376954,0.5684 -0.351668,0.3517 -0.568359,0.8382 -0.568359,1.3769 l 0,2.3965 0,6.6582 48,0 0,-1.2226 0,-3.4981 0,-0.08 c 0,-0.083 -0.01918,-0.1448 -0.0293,-0.2168 -0.0059,-0.039 -0.0075,-0.079 -0.01563,-0.1172 -0.01448,-0.064 -0.03259,-0.1227 -0.05468,-0.1777 -0.248761,-0.7822 -0.968704,-1.3457 -1.837891,-1.3457 l -12.646484,0 -0.691407,0 c -3.355214,-0.899 -3.368867,-4.3418 -7.816406,-4.3418 l -22.96289,0 z"/><rect id="rect4851" width="35.5" height="39" x="6.25" y="-1049.112" fill="#0d2e44" fill-opacity=".059" stroke="none" ry="1.58" transform="scale(1,-1)"/><rect id="rect4849" width="35" height="38.519" x="6.5" y="-1048.871" fill="#0d2e44" fill-opacity=".118" stroke="none" ry="1.56" transform="scale(1,-1)"/><rect id="rect4845" width="34.5" height="38.037" x="6.75" y="-1048.63" fill="#0d2e44" fill-opacity=".235" stroke="none" ry="1.541" transform="scale(1,-1)"/><rect id="rect4821" width="34" height="37.556" x="7" y="-1048.389" fill="#fafafa" fill-opacity="1" stroke="none" ry="1.521" transform="scale(1,-1)"/><path id="rect4840" fill="#000" fill-opacity=".118" stroke="none" d="m 8.580084,1010.8335 c -0.875288,0 -1.580078,0.6793 -1.580078,1.5216 l 0,0.7703 c 0,-0.8438 0.70479,-1.5216 1.580078,-1.5216 l 30.839843,0 c 0.87529,0 1.58008,0.6778 1.58008,1.5216 l 0,-0.7703 c 0,-0.8423 -0.70479,-1.5216 -1.58008,-1.5216 l -30.839843,0 z"/><rect id="rect4831" width="41.5" height="37.074" x="3.25" y="-1049.112" fill="#0d2e44" fill-opacity=".059" stroke="none" ry="1.502" transform="scale(1,-1)"/><rect id="rect4829" width="41" height="36.593" x="3.5" y="-1048.871" fill="#0d2e44" fill-opacity=".118" stroke="none" ry="1.482" transform="scale(1,-1)"/><rect id="rect4825" width="40.5" height="36.111" x="3.75" y="-1048.63" fill="#0d2e44" fill-opacity=".235" stroke="none" ry="1.463" transform="scale(1,-1)"/><rect id="rect4793" width="40" height="35.63" x="4" y="-1048.389" fill="#fafafa" fill-opacity="1" stroke="none" ry="1.443" transform="scale(1,-1)"/><path id="path4234" fill="#000" fill-opacity=".059" stroke="none" d="m 21.89191,1014.1619 c -4.447538,0 -4.461192,3.4427 -7.816406,4.3418 l -0.691407,0 -11.446593,0 c -0.869187,0 -1.58913,0.5635 -1.837891,1.3457 -0.02209,0.055 -0.0402,0.1137 -0.05469,0.1777 -0.0081,0.038 -0.0097,0.078 -0.01563,0.1172 -0.01012,0.072 -0.0293,0.1338 -0.0293,0.2168 l 0,0.08 0,3.498 0,25.2227 0,0.055 c 0,1.0773 0.868033,1.945 1.945313,1.9453 l 44.109375,0 c 1.07728,0 1.945312,-0.868 1.945312,-1.9453 l 0,-0.055 0,-1.0449 0,-29.6133 0,-2.3965 c 0,-0.5387 -0.216691,-1.0252 -0.568359,-1.3769 -0.351669,-0.3517 -0.83832,-0.5684 -1.376953,-0.5684 l -24.162781,0 z"/><path id="path4232" fill="#000" fill-opacity=".118" stroke="none" d="m 22.29191,1014.5619 c -4.447538,0 -4.461192,3.4427 -7.816406,4.3418 l -0.691407,0 -11.846593,0 c -0.869187,0 -1.58913,0.5635 -1.837891,1.3457 -0.02209,0.055 -0.0402,0.1137 -0.05469,0.1777 -0.0081,0.038 -0.0097,0.078 -0.01563,0.1172 -0.01012,0.072 -0.0293,0.1338 -0.0293,0.2168 l 0,0.08 0,3.498 0,25.2227 0,0.055 c 0,1.0773 0.868033,1.945 1.945313,1.9453 l 44.109375,0 c 1.07728,0 1.945312,-0.868 1.945312,-1.9453 l 0,-0.055 0,-1.0449 0,-29.6133 0,-2.3965 c 0,-0.5387 -0.216691,-1.0252 -0.568359,-1.3769 -0.351669,-0.3517 -0.83832,-0.5684 -1.376953,-0.5684 l -23.762781,0 z"/><path id="path4228" fill="#000" fill-opacity=".235" stroke="none" d="m 22.69191,1014.9619 c -4.447538,0 -4.461192,3.4427 -7.816406,4.3418 l -0.691407,0 -12.246593,0 c -0.869187,0 -1.58913,0.5635 -1.837891,1.3457 -0.02209,0.055 -0.0402,0.1137 -0.05469,0.1777 -0.0081,0.038 -0.0097,0.078 -0.01563,0.1172 -0.01012,0.072 -0.0293,0.1338 -0.0293,0.2168 l 0,0.08 0,3.498 0,25.2227 0,0.055 c 0,1.0773 0.868033,1.945 1.945313,1.9453 l 44.109375,0 c 1.07728,0 1.945312,-0.868 1.945312,-1.9453 l 0,-0.055 0,-1.0449 0,-29.6133 0,-2.3965 c 0,-0.5387 -0.216691,-1.0252 -0.568359,-1.3769 -0.351669,-0.3517 -0.83832,-0.5684 -1.376953,-0.5684 l -23.362781,0 z"/><path id="path4325" fill="url(#linearGradient4333)" fill-opacity="1" stroke="none" d="m 23.0918,1015.3621 c -4.447538,0 -4.461192,3.4427 -7.816406,4.3418 l -0.691407,0 -12.646483,0 c -0.869187,0 -1.58913,0.5635 -1.837891,1.3457 -0.02209,0.055 -0.0402,0.1137 -0.05469,0.1777 -0.0081,0.038 -0.0097,0.078 -0.01563,0.1172 -0.01012,0.072 -0.0293,0.1338 -0.0293,0.2168 l 0,0.08 0,3.498 0,25.2227 0,0.055 c 0,1.0773 0.868033,1.945 1.945313,1.9453 l 44.109375,0 c 1.07728,0 1.945312,-0.868 1.945312,-1.9453 l 0,-0.055 0,-1.0449 0,-29.6133 0,-2.3965 c 0,-0.5387 -0.216691,-1.0252 -0.568359,-1.3769 -0.351669,-0.3517 -0.83832,-0.5684 -1.376953,-0.5684 l -22.962891,0 z"/><path id="path4962" fill="#fff" fill-opacity=".235" stroke="none" d="m 23.0918,1015.3622 c -4.447538,0 -4.461192,3.4427 -7.816406,4.3418 l -0.691407,0 -12.646484,0 c -0.869187,0 -1.58913,0.5635 -1.837891,1.3457 -0.02209,0.055 -0.0402,0.1137 -0.05469,0.1777 -0.0081,0.038 -0.0097,0.078 -0.01563,0.1172 -0.01012,0.072 -0.0293,0.1338 -0.0293,0.2168 l 0,0.08 0,0.7188 c 0,-0.083 0.01918,-0.1448 0.0293,-0.2168 0.0059,-0.039 0.0075,-0.079 0.01563,-0.1172 0.01449,-0.064 0.0326,-0.1228 0.05469,-0.1778 0.248761,-0.7822 0.968704,-1.3457 1.837891,-1.3457 l 12.646484,0 1.090813,0 c 3.355214,-0.8991 3.368868,-4.3418 7.816406,-4.3418 l 22.563485,0 c 0.538632,0 1.025284,0.2167 1.376953,0.5684 0.351668,0.3517 0.568359,0.8383 0.568359,1.377 l 0,-0.7989 c 0,-0.5387 -0.216691,-1.0252 -0.568359,-1.3769 -0.351669,-0.3517 -0.838321,-0.5684 -1.376953,-0.5684 z"/><path id="path4116" fill="url(#linearGradient4127)" fill-opacity="1" stroke="none" d="m 23.0918,1015.3622 c -2.826121,0 -3.864974,1.3866 -5.105469,2.6309 0.912107,-0.3767 1.918362,-0.6309 3.105469,-0.6309 l 26.908203,0 0,-0.055 c 0,-0.5387 -0.216691,-1.0252 -0.568359,-1.3769 -0.351669,-0.3517 -0.838321,-0.5684 -1.376953,-0.5684 z"/><path id="rect4833" fill="#000" fill-opacity=".059" stroke="none" d="m 5.498052,1012.76 c -0.8304,0 -1.498046,0.6435 -1.498046,1.4425 l 0,0.7708 c 0,-0.7989 0.667646,-1.4445 1.498046,-1.4445 l 37.003905,0 c 0.8304,0 1.49805,0.6456 1.49805,1.4445 l 0,-0.7708 c 0,-0.799 -0.66765,-1.4425 -1.49805,-1.4425 l -37.003905,0 z"/><path id="rect846" fill="#000" fill-opacity="1" stroke="none" d="m 0,1049.362 0,1.0625 c 0,1.0773 0.86022,1.9375 1.9375,1.9375 l 44.124997,0 c 1.07728,0 1.9375,-0.8602 1.9375,-1.9375 l 0,-1.0625 c 0,1.0773 -0.86022,1.9375 -1.9375,1.9375 l -44.124997,0 C 0.86022,1051.2995 0,1050.4393 0,1049.362 Z"/><path id="path4200" fill="#000" fill-opacity=".492" stroke="none" d="m 1.945316,1004.3621 c -0.538633,0 -1.025284,0.2167 -1.376953,0.5684 -0.351668,0.3517 -0.56836,0.8382 -0.56836,1.3769 l 0,2.3965 0,40.6133 0,0.045 c 0,0.8158 0.493847,1.5054 1.201172,1.793 -0.340361,-0.3419 -0.550781,-0.8133 -0.550781,-1.336 l 0,-0.053 0,-1.0176 0,-39.5117 0,-2.332 c 0,-0.5246 0.210588,-0.9979 0.552735,-1.3399 0.342147,-0.342 0.815794,-0.5527 1.339843,-0.5527 l 22.339843,0 0,0 c 4.327124,0 4.341097,3.3481 7.605469,4.2227 l 0.671875,0 12.304688,0 c 0.845653,0 1.547035,0.5492 1.789062,1.3106 0.02152,0.053 0.03863,0.1098 0.05273,0.1718 0.0078,0.036 0.0097,0.076 0.01563,0.1153 0.0097,0.069 0.02734,0.1283 0.02734,0.2089 l 0,0.078 0,3.4023 0,35.2422 0,0.053 c 0,0.5227 -0.210418,0.9942 -0.550781,1.336 0.707328,-0.2856 1.201175,-0.9752 1.201175,-1.791 l 0,-35.2227 0,-3.498 0,-0.08 c 0,-0.083 -0.01918,-0.1448 -0.0293,-0.2168 -0.0059,-0.039 -0.0075,-0.079 -0.01563,-0.1172 -0.01448,-0.064 -0.03259,-0.1227 -0.05468,-0.1777 -0.248761,-0.7822 -0.968704,-1.3457 -1.837891,-1.3457 l -12.646484,0 -0.691407,0 c -3.355214,-0.899 -3.368867,-4.3418 -7.816406,-4.3418 l -22.96289,0 z"/><path id="path4218" fill="#fff" fill-opacity=".537" stroke="none" d="m 2.542972,1005.0125 c -0.524047,0 -0.997698,0.2108 -1.339843,0.5527 -0.342146,0.342 -0.552735,0.8153 -0.552735,1.3399 l 0,1.0351 c 0.0053,-0.5046 0.208628,-0.9604 0.539063,-1.291 0.334818,-0.3348 0.799676,-0.541 1.3125,-0.541 l 22.36328,0 c 3.95304,0 3.290625,3.0306 7.203553,4.0733 0.435978,0.1166 0.916197,0.059 1.378479,0.059 l 12.054687,0 c 0.827537,0 1.513161,0.5365 1.75,1.2813 0.03946,0.1519 0.08789,0.2893 0.08789,0.4394 l 0.0098,0 0,-0.8398 0,-0.078 c 0,-0.1063 -0.0447,-0.3368 -0.0957,-0.4961 -0.242062,-0.7611 -0.943449,-1.3105 -1.789099,-1.3105 l -12.304688,0 -0.671875,0 c -3.264359,-0.8742 -3.278364,-4.2227 -7.605469,-4.2227 l -22.339843,0 z"/><path id="path4178" fill="#000" fill-opacity=".235" fill-rule="nonzero" stroke="none" d="m 14.999976,1027.3622 0,8.0004 7.997834,0 c 4.9e-4,-2.8549 0.0015,-5.1466 0.0021,-8.0004 l -7.999781,0 z m 9.999729,0 c 0,2.8538 -0.0012,5.1455 0,8.0004 l 7.999785,0 c 0.0012,-2.8549 0,-5.1466 0,-8.0004 l -7.999785,0 z m -9.999729,9.9996 0,8.0004 7.999785,0 c 0,-2.8544 5.26e-4,-5.1447 0,-8.0004 l -7.999785,0 z m 9.999729,0 c -0.0012,2.8547 5.27e-4,5.1463 0,8.0004 l 7.999785,0 0,-8.0004 -7.999785,0 z"/><path id="path4069" fill="url(#linearGradient4264)" fill-opacity="1" fill-rule="nonzero" stroke="none" d="m 14.999976,1026.3624 0,8.0004 7.997834,0 c 4.9e-4,-2.8549 0.0015,-5.1466 0.0021,-8.0004 l -7.999781,0 z m 9.999729,0 c 0,2.8538 -0.0012,5.1455 0,8.0004 l 7.999785,0 c 0.0012,-2.8549 0,-5.1466 0,-8.0004 l -7.999785,0 z m -9.999729,9.9996 0,8.0004 7.999785,0 c 0,-2.8544 5.26e-4,-5.1447 0,-8.0004 l -7.999785,0 z m 9.999729,0 c -0.0012,2.8547 5.27e-4,5.1463 0,8.0004 l 7.999785,0 0,-8.0004 -7.999785,0 z"/></g></svg>