<svg xmlns="http://www.w3.org/2000/svg" xmlns:svg="http://www.w3.org/2000/svg" xmlns:xlink="http://www.w3.org/1999/xlink" id="svg2284" width="48" height="48" version="1.1"><defs id="defs2286"><linearGradient id="linearGradient4856"><stop id="stop4858" offset="0" stop-color="#fff" stop-opacity="1"/><stop id="stop4860" offset="1" stop-color="#fff" stop-opacity="0"/></linearGradient><linearGradient id="linearGradient4956" x1="24.154" x2="24.154" y1="4.045" y2="15.08" gradientTransform="matrix(1.0514789,0,0,1.0514789,-1.2354885,1003.1268)" gradientUnits="userSpaceOnUse" xlink:href="#linearGradient6262"/><linearGradient id="linearGradient6262"><stop id="stop6264" offset="0" stop-color="#000" stop-opacity="1"/><stop id="stop6266" offset="1" stop-color="#767676" stop-opacity="1"/></linearGradient><linearGradient id="linearGradient4662" x1="1.188" x2="46.813" y1="28.063" y2="28.063" gradientTransform="matrix(1.0514789,0,0,1.0514789,-1.2354885,-1.2353826)" gradientUnits="userSpaceOnUse" xlink:href="#linearGradient4635"/><linearGradient id="linearGradient4635"><stop id="stop4637" offset="0" stop-color="#3b3b3b" stop-opacity="1"/><stop id="stop5077" offset=".019" stop-color="#f9f9f9" stop-opacity="1"/><stop id="stop4643" offset=".038" stop-color="#8b8b8b" stop-opacity="1"/><stop id="stop4645" offset=".098" stop-color="#8c8c8c" stop-opacity="1"/><stop id="stop5075" offset=".12" stop-color="#6f6f6f" stop-opacity="1"/><stop id="stop4674" offset=".165" stop-color="#8d8d8d" stop-opacity="1"/><stop id="stop5069" offset=".234" stop-color="#b8b8b8" stop-opacity="1"/><stop id="stop5063" offset=".352" stop-color="#fff" stop-opacity="1"/><stop id="stop4676" offset=".361" stop-color="#fff" stop-opacity="1"/><stop id="stop5079" offset=".446" stop-color="#ccc" stop-opacity="1"/><stop id="stop5073" offset=".513" stop-color="#b0b0b0" stop-opacity="1"/><stop id="stop5071" offset=".614" stop-color="#656565" stop-opacity="1"/><stop id="stop5065" offset=".661" stop-color="#555" stop-opacity="1"/><stop id="stop5067" offset=".703" stop-color="#979797" stop-opacity="1"/><stop id="stop4647" offset=".816" stop-color="#dbdbdb" stop-opacity="1"/><stop id="stop4651" offset=".904" stop-color="#f2f2f2" stop-opacity="1"/><stop id="stop4649" offset=".957" stop-color="#707070" stop-opacity="1"/><stop id="stop4639" offset="1" stop-color="#3b3b3b" stop-opacity="1"/></linearGradient><linearGradient id="linearGradient4915" x1="24.421" x2="24.421" y1="46.498" y2="13.794" gradientTransform="matrix(1.0514789,0,0,1.0514789,-1.2354885,1003.1268)" gradientUnits="userSpaceOnUse" xlink:href="#linearGradient4909-8"/><linearGradient id="linearGradient4909-8"><stop id="stop4911-8" offset="0" stop-color="#000" stop-opacity="1"/><stop id="stop4913-5" offset="1" stop-color="#000" stop-opacity="0"/></linearGradient><linearGradient id="linearGradient4670" x1="22.08" x2="22.08" y1="13.565" y2=".708" gradientTransform="matrix(1.0517378,0,0,1.0514789,-1.2417061,-1.2354)" gradientUnits="userSpaceOnUse" xlink:href="#linearGradient4664"/><linearGradient id="linearGradient4664"><stop id="stop4666" offset="0" stop-color="#ccc" stop-opacity="1"/><stop id="stop4672" offset=".5" stop-color="gray" stop-opacity="1"/><stop id="stop4668" offset="1" stop-color="#666" stop-opacity="1"/></linearGradient><linearGradient id="linearGradient5089" x1="31.786" x2="29.302" y1="1036.353" y2="1036.353" gradientTransform="matrix(1.2786618,0,0,1.0514789,-8.3128275,-1057.3011)" gradientUnits="userSpaceOnUse" xlink:href="#linearGradient4909-8"/><linearGradient id="linearGradient5093" x1="31.786" x2="29.189" y1="1036.353" y2="1036.353" gradientTransform="matrix(0.57266462,0,0,1.0514789,-34.923671,-52.938877)" gradientUnits="userSpaceOnUse" xlink:href="#linearGradient5095"/><linearGradient id="linearGradient5095"><stop id="stop5097" offset="0" stop-color="#fff" stop-opacity="1"/><stop id="stop5099" offset="1" stop-color="#fff" stop-opacity="0"/></linearGradient><linearGradient id="linearGradient5103" x1="33.343" x2="29.302" y1="1036.353" y2="1036.353" gradientTransform="matrix(-1.2786618,0,0,1.0514789,46.340937,-1057.301)" gradientUnits="userSpaceOnUse" xlink:href="#linearGradient5105"/><linearGradient id="linearGradient5105"><stop id="stop5107" offset="0" stop-color="#000" stop-opacity="0"/><stop id="stop5111" offset=".5" stop-color="#000" stop-opacity="1"/><stop id="stop5109" offset="1" stop-color="#000" stop-opacity="0"/></linearGradient><linearGradient id="linearGradient5433" x1="33.343" x2="29.302" y1="1036.353" y2="1036.353" gradientTransform="matrix(-0.3486785,0,0,1.0514789,27.416735,-52.938877)" gradientUnits="userSpaceOnUse" xlink:href="#linearGradient5308"/><linearGradient id="linearGradient5308"><stop id="stop5310" offset="0" stop-color="#fff" stop-opacity="1"/><stop id="stop5312" offset="1" stop-color="#fff" stop-opacity="0"/></linearGradient><linearGradient id="linearGradient5475"><stop id="stop5477" offset="0" stop-color="#000" stop-opacity="1"/><stop id="stop5485" offset=".204" stop-color="#000" stop-opacity=".65"/><stop id="stop5483" offset=".5" stop-color="#060606" stop-opacity=".463"/><stop id="stop5487" offset=".888" stop-color="#000" stop-opacity=".861"/><stop id="stop5479" offset="1" stop-color="#000" stop-opacity="1"/></linearGradient><linearGradient id="linearGradient1302" x1="18.025" x2="30.693" y1="1035.947" y2="1035.947" gradientTransform="matrix(1.1387899,0,0,1.1387899,-3.3309592,-142.07824)" gradientUnits="userSpaceOnUse" xlink:href="#linearGradient5475"/><linearGradient id="linearGradient3761" x1="22.08" x2="22.08" y1="13.565" y2=".708" gradientTransform="matrix(1.0514789,0,0,1.0514789,-1.2354885,1003.1268)" gradientUnits="userSpaceOnUse" xlink:href="#linearGradient4664"/><radialGradient id="radialGradient4862" cx="24" cy="23.782" r="23.982" fx="24" fy="23.782" gradientTransform="matrix(1,0,0,0.19318636,0,9.5903672)" gradientUnits="userSpaceOnUse" xlink:href="#linearGradient4856"/></defs><metadata id="metadata2289"/><g id="layer1" transform="translate(0,-1004.3622)"><path id="rect6260" fill="#000" fill-opacity="1" fill-rule="nonzero" stroke="none" stroke-width="1" d="M 1.9453125 0 C 0.86803535 0 0 0.86803535 0 1.9453125 L 0 46.054688 C 0 47.131965 0.86803535 48 1.9453125 48 L 46.054688 48 C 47.131965 48 48 47.131965 48 46.054688 L 48 1.9453125 C 48 0.86803535 47.131965 0 46.054688 0 L 1.9453125 0 z" color="#000" display="inline" enable-background="accumulate" overflow="visible" transform="translate(0,1004.3622)" visibility="visible" style="marker:none"/><path id="rect4620" fill="url(#linearGradient3761)" fill-opacity="1" fill-rule="nonzero" stroke="none" stroke-width="1" d="m 13.054374,1004.3622 0,2.2136 22.460499,0 0,-2.2136 z" color="#000" display="inline" enable-background="accumulate" overflow="visible" visibility="visible" style="marker:none"/><path id="rect4945" fill="url(#linearGradient4956)" fill-opacity="1" fill-rule="nonzero" stroke="none" stroke-width="1" d="m 5.4392124,1006.6427 c -2.3794881,0 -2.2716335,1.925 -2.2716335,4.3045 0,2.3795 -0.1078546,4.3045 2.2716335,4.3045 l 37.1215836,0 c 2.379487,0 2.271634,-1.925 2.271634,-4.3045 0,-2.3795 0.107853,-4.3045 -2.271634,-4.3045 z" color="#000" display="inline" enable-background="accumulate" overflow="visible" visibility="visible" style="marker:none"/><path id="path4896" fill="url(#linearGradient4915)" fill-opacity="1" fill-rule="nonzero" stroke="none" stroke-width="1" d="m 0.01314247,1012.9187 0,34.3702 c 0,2.8102 2.25011783,5.0603 5.06024183,5.0603 l 0.3285878,0 c -2.7634611,0 -4.99452494,-2.2502 -4.99452494,-5.0603 l 0,-32.3987 c -0.25485647,-0.6091 -0.39430469,-1.2689 -0.39430469,-1.9715 z m 47.97372353,0 c 0,0.7026 -0.139448,1.3624 -0.394305,1.9715 l 0,32.3987 c 0,2.8101 -2.231065,5.0603 -4.994524,5.0603 l 0.328587,0 c 2.810123,0 5.060242,-2.2501 5.060242,-5.0603 l 0,-34.3702 z" color="#000" display="inline" enable-background="accumulate" overflow="visible" visibility="visible" style="marker:none"/><path id="rect4607" fill="url(#linearGradient4662)" fill-opacity="1" fill-rule="nonzero" stroke="none" stroke-width="1" d="m 0.01367188,8.5566406 0,37.6367184 C 0.08531571,47.204452 0.91536427,48 1.9453125,48 l 44.1093755,0 c 1.029948,0 1.859996,-0.795548 1.93164,-1.806641 l 0,-37.6367184 C 47.986328,11.366841 47.810127,12.35 45,12.35 l -42.126,0 c -2.8101241,0 -2.86032812,-0.983159 -2.86032812,-3.7933594 z" color="#000" display="inline" enable-background="accumulate" overflow="visible" transform="translate(0,1004.3622)" visibility="visible" style="marker:none"/><path id="rect5081" fill="url(#linearGradient5089)" fill-opacity="1" fill-rule="nonzero" stroke="none" stroke-width=".1" d="m 24.794922,11.908203 0,36.091797 8.220703,0 0,-36.091797 z" color="#000" display="inline" enable-background="accumulate" opacity=".273" overflow="visible" transform="translate(0,1004.3622)" visibility="visible" style="marker:none"/><rect id="rect5091" width="3.681" height="33.61" x="-20.096" y="1018.27" fill="url(#linearGradient5093)" fill-opacity="1" fill-rule="nonzero" stroke="none" stroke-width=".1" color="#000" display="inline" enable-background="accumulate" opacity=".4" overflow="visible" ry="0" transform="scale(-1,1)" visibility="visible" style="marker:none"/><path id="rect5101" fill="url(#linearGradient5103)" fill-opacity="1" fill-rule="nonzero" stroke="none" stroke-width=".1" d="m 5.0078125,11.912109 0,36.087891 8.2148435,0 0,-36.087891 z" color="#000" display="inline" enable-background="accumulate" opacity=".4" overflow="visible" transform="translate(0,1004.3622)" visibility="visible" style="marker:none"/><path id="path5431" fill="url(#linearGradient5433)" fill-opacity="1" fill-rule="nonzero" stroke="none" stroke-width=".1" d="m 16.145558,1018.2747 0,33.5159 c 0.0061,2e-4 0.0118,0 0.01792,0 l 2.222143,0 0,-33.5159 -2.240059,0 z" color="#000" display="inline" enable-background="accumulate" opacity=".4" overflow="visible" visibility="visible" style="marker:none"/><path id="path5435" fill="#999" fill-opacity="1" fill-rule="nonzero" stroke="none" stroke-width=".1" d="m 18.800781,11.912109 0,36.087891 12.197266,0 0,-36.087891 z" color="#000" display="inline" enable-background="accumulate" opacity=".4" overflow="visible" transform="translate(0,1004.3622)" visibility="visible" style="marker:none"/><path id="path4846" fill="url(#radialGradient4862)" fill-opacity="1" fill-rule="nonzero" stroke="none" stroke-width="1" d="M 0.017578125 9.7285156 C 0.040048886 12.156417 0.26370769 14.044922 2.8007812 14.044922 L 24 14.044922 L 45.199219 14.044922 C 47.736297 14.044922 47.959952 12.156417 47.982422 9.7285156 L 43.818359 9.7285156 C 43.027905 10.664192 41.861407 11.269531 40.535156 11.269531 L 24 11.269531 L 7.4648438 11.269531 C 6.1385924 11.269531 4.9720952 10.664192 4.1816406 9.7285156 L 0.017578125 9.7285156 z" color="#000" display="inline" enable-background="accumulate" overflow="visible" transform="translate(0,1004.3622)" visibility="visible" style="marker:none"/><path id="path4835" fill="url(#linearGradient4670)" fill-opacity="1" fill-rule="nonzero" stroke="none" stroke-width="1" d="M 1.9453125,0 C 0.86803535,0 0,0.86803535 0,1.9453125 l 0,6.6113281 c 0,2.8101004 -0.01003458,5.0878904 2.8007812,5.0878904 l 21.1992188,0 21.199219,0 C 48.01004,13.644531 48,11.366741 48,8.5566406 L 48,1.9453125 C 48,0.8680125 47.131965,0 46.054688,0 l -3.109376,0 -8.267578,0 0,2.2128906 7.857422,0 c 2.395156,0 2.31836,1.933625 2.31836,4.328125 0,2.3946 0.0768,4.3281254 -2.31836,4.3281254 l -18.535156,0 -18.5351562,0 c -2.3951564,0 -2.3183594,-1.9335254 -2.3183594,-4.3281254 0,-2.3945 -0.076797,-4.328125 2.3183594,-4.328125 l 7.8574222,0 0,-2.2128906 -8.2675785,0 z" color="#000" display="inline" enable-background="accumulate" overflow="visible" transform="translate(0,1004.3622)" visibility="visible" style="marker:none"/><path id="path3802-6" fill="url(#linearGradient1302)" fill-opacity="1" stroke="none" d="m 20.156582,1025.3622 -2.597865,4.6621 4.163701,2.3842 2.277579,-3.9501 0.782918,1.3878 -0.711743,1.2456 4.234875,0 2.313167,-3.9858 -1.032029,0.5695 -1.316726,-2.3133 -7.259785,0 -0.676157,0 -0.177935,0 z m 11.316724,7.2242 -4.1637,2.3844 2.277579,3.9502 -1.565836,0 -0.747331,-1.2456 -2.099644,3.6655 2.313168,4.0213 0,-1.1744 2.704627,0 3.594305,-6.2632 0.355871,-0.6051 0.07118,-0.1424 -2.740216,-4.5907 z m -17.366546,1.4235 0.99644,0.5694 -1.316725,2.3488 3.594306,6.2634 0.355872,0.6049 0.07118,0.1423 5.373665,-0.072 0,-4.8398 -4.590746,0 0.818506,-1.3524 1.459074,0 -2.135231,-3.6654 -4.626336,-10e-5 z"/><g id="g4827"><path id="rect846" fill="#000" fill-opacity="1" stroke="none" d="m -3e-6,1049.3622 0,1.0625 c 0,1.0773 0.86022,1.9375 1.9375,1.9375 l 44.124996,0 c 1.07729,0 1.93751,-0.8602 1.93751,-1.9375 l 0,-1.0625 c 0,1.0773 -0.86022,1.9375 -1.93751,1.9375 l -44.124996,0 c -1.07728,0 -1.9375,-0.8602 -1.9375,-1.9375 z"/><path id="path7515" fill="#fff" fill-opacity=".537" stroke="none" d="m 2.531247,1005.0185 c -0.91709,0 -1.67115,0.6395 -1.84375,1.5 0.33561,-0.2799 0.77451,-0.4375 1.25,-0.4375 l 44.124996,0 c 0.47549,0 0.9144,0.1576 1.25001,0.4375 -0.1726,-0.8605 -0.92667,-1.5 -1.84376,-1.5 l -42.937496,0 z"/><path id="rect4280" fill="#000" fill-opacity=".392" stroke="none" d="m 1.937497,1004.3622 c -1.07728,0 -1.9375,0.8602 -1.9375,1.9375 l 0,43.0625 c 0,0.7934 0.48002,1.449 1.15625,1.75 -0.30934,-0.3333 -0.5,-0.7824 -0.5,-1.2812 l 0,-42.9375 c 0,-1.0482 0.8269,-1.875 1.875,-1.875 l 42.937496,0 c 1.0481,0 1.87501,0.8268 1.87501,1.875 l 0,42.9375 c 0,0.4988 -0.19066,0.9479 -0.50001,1.2812 0.67624,-0.301 1.15626,-0.9566 1.15626,-1.75 l 0,-43.0625 c 0,-1.0773 -0.86022,-1.9375 -1.93751,-1.9375 l -44.124996,0 z"/></g></g></svg>