<svg xmlns="http://www.w3.org/2000/svg" xmlns:svg="http://www.w3.org/2000/svg" id="svg2" version="1.1" viewBox="0 0 16 16"><metadata id="metadata12"/><g id="layer1" fill="#bebebe" fill-opacity="1" transform="translate(-3,-29)"><path id="rect4128" fill="#bebebe" fill-opacity="1" stroke="none" d="m 2,2 0,1 0,1 0,1 0,6 0,1 0,1 0,1 12,0 0,-1 L 14,3 14,2 2,2 Z M 3,3 4,3 4,4 3,4 3,3 Z M 5,3 6,3 6,4 5,4 5,3 Z M 7,3 9,3 9,4 7,4 7,3 Z m 3,0 1,0 0,1 -1,0 0,-1 z m 2,0 1,0 0,1 -1,0 0,-1 z M 3,5 5,5 5,11 3,11 3,5 Z m 3,0 4,0 0,6 -4,0 0,-6 z m 5,0 2,0 0,6 -2,0 0,-6 z m -8,7 1,0 0,1 -1,0 0,-1 z m 2,0 1,0 0,1 -1,0 0,-1 z m 2,0 2,0 0,1 -2,0 0,-1 z m 3,0 1,0 0,1 -1,0 0,-1 z m 2,0 1,0 0,1 -1,0 0,-1 z" opacity="1" transform="translate(3,29)"/></g></svg>