<svg xmlns="http://www.w3.org/2000/svg" xmlns:svg="http://www.w3.org/2000/svg" id="svg2" width="16" height="16" version="1.1" viewBox="0 0 16 16"><metadata id="metadata34"/><defs id="defs4"><clipPath id="clipPath6"><rect id="rect8" width="1.876" height="4.874" x="26.999" y="221.5" fill="#bebebe" color="#bebebe"/></clipPath><clipPath id="clipPath10"><rect id="rect12" width="2.898" height="5.216" x="26.966" y="221.33" fill="#bebebe" color="#bebebe"/></clipPath><clipPath id="clipPath14"><rect id="rect16" width="3.825" height="6.375" x="26.85" y="220.75" fill="#bebebe" color="#bebebe"/></clipPath></defs><path color="#000" style="text-decoration-line:none;text-decoration-style:solid;text-decoration-color:#000;isolation:auto;mix-blend-mode:normal;solid-color:#000;solid-opacity:1" id="rect4218" fill="#bebebe" fill-opacity="1" fill-rule="nonzero" stroke="none" stroke-dasharray="none" stroke-dashoffset="0" stroke-linecap="butt" stroke-linejoin="miter" stroke-miterlimit="4" stroke-opacity="1" stroke-width="1" d="M 8 2 L 8 2.0019531 L 4.0019531 6 L 4 6 L 3 6 L 2 6 L 2 7 L 2 10 L 3 10 L 4.0019531 10 L 8 13.998047 L 8 14 L 8.0019531 14 L 9 14 L 9.4160156 14 L 10 14 L 10 13 L 10 2 L 9.4160156 2 L 9 2 L 8 2 z M 8.4160156 3 L 9 3 L 9 13 L 8.4160156 13 L 5 9.5839844 L 5 9 L 5 6.4160156 L 8.4160156 3 z M 12.246094 3.7539062 L 11.539062 4.4609375 C 12.442813 5.3646875 13 6.615 13 8 C 13 9.385 12.442813 10.635313 11.539062 11.539062 L 12.246094 12.246094 C 13.330594 11.161594 14 9.662 14 8 C 14 6.338 13.330594 4.8384063 12.246094 3.7539062 z M 10.830078 5.1699219 L 10.123047 5.8769531 C 10.665297 6.4192031 11 7.169 11 8 C 11 8.831 10.665297 9.5807968 10.123047 10.123047 L 10.830078 10.830078 C 11.553078 10.107078 12 9.108 12 8 C 12 6.892 11.553078 5.8929219 10.830078 5.1699219 z M 3 7 L 4 7 L 4 9 L 3 9 L 3 7 z" clip-rule="nonzero" color-interpolation="sRGB" color-interpolation-filters="linearRGB" color-rendering="auto" display="inline" enable-background="accumulate" image-rendering="auto" opacity="1" overflow="visible" shape-rendering="auto" text-decoration="none" text-rendering="auto" visibility="visible"/></svg>