<svg xmlns="http://www.w3.org/2000/svg" xmlns:svg="http://www.w3.org/2000/svg" id="svg2" width="16" height="16" version="1.1" viewBox="0 0 16 16"><metadata id="metadata14"/><path color="#000" style="text-decoration-line:none;text-decoration-style:solid;text-decoration-color:#000;isolation:auto;mix-blend-mode:normal;solid-color:#000;solid-opacity:1" id="rect4165" fill="#bebebe" fill-opacity="1" fill-rule="nonzero" stroke="none" stroke-dasharray="none" stroke-dashoffset="0" stroke-linecap="butt" stroke-linejoin="miter" stroke-miterlimit="4" stroke-opacity="1" stroke-width="1" d="M 5.5 2 C 3.561 2 2 3.561 2 5.5 C 2 7.2676269 3.3017088 8.7080541 5 8.9511719 L 5 9 L 5 10 L 5 12 L 6 12 L 6 13 L 7 13 L 7 14 L 9 14 L 9 13 L 11 13 L 11 11 L 11 9 L 14 9 L 14 5.5 L 14 2 L 10.5 2 L 10 2 L 5.5 2 z M 5.5 3 L 10 3 L 10.5 3 L 12.947266 3 L 13 3 L 13 3.0527344 L 13 5.5 L 13 7.9472656 L 13 8 L 12.947266 8 L 10.5 8 L 10 8 L 6 8 L 5.5 8 C 4.115 8 3 6.885 3 5.5 C 3 4.115 4.115 3 5.5 3 z M 10.5 4 C 9.669 4 9 4.669 9 5.5 C 9 6.331 9.669 7 10.5 7 C 11.331 7 12 6.331 12 5.5 C 12 4.669 11.331 4 10.5 4 z M 10.5 5 C 10.777 5 11 5.223 11 5.5 C 11 5.777 10.777 6 10.5 6 C 10.223 6 10 5.777 10 5.5 C 10 5.223 10.223 5 10.5 5 z M 6 9 L 10 9 L 10 11 L 6 11 L 6 10 L 6 9 z" clip-rule="nonzero" color-interpolation="sRGB" color-interpolation-filters="linearRGB" color-rendering="auto" display="inline" enable-background="accumulate" image-rendering="auto" opacity="1" overflow="visible" shape-rendering="auto" text-decoration="none" text-rendering="auto" visibility="visible"/></svg>