<svg xmlns="http://www.w3.org/2000/svg" xmlns:svg="http://www.w3.org/2000/svg" id="svg2" width="16" height="16" version="1.1" viewBox="0 0 16 16"><metadata id="metadata12"/><path color="#000" style="text-decoration-line:none;text-decoration-style:solid;text-decoration-color:#000;isolation:auto;mix-blend-mode:normal;solid-color:#000;solid-opacity:1" id="rect4169" fill="#bebebe" fill-opacity="1" fill-rule="nonzero" stroke="none" stroke-dasharray="none" stroke-dashoffset="0" stroke-linecap="butt" stroke-linejoin="miter" stroke-miterlimit="4" stroke-opacity="1" stroke-width="1" d="M 4 2 L 4 2.0019531 L 3 3.0019531 L 3 4 L 0 4 L 0 14 L 16 14 L 16 4 L 13 4 L 13 3.0019531 L 12 2 L 11.998047 2 L 4 2 z M 4.4160156 3 L 11.583984 3 L 12.583984 4 L 3.4160156 4 L 4.4160156 3 z M 1 5 L 8 5 L 15 5 L 15 6 L 10.625 6 C 9.9220504 5.3850168 9.0116562 5 8 5 C 6.9883438 5 6.0779496 5.3850168 5.375 6 L 1 6 L 1 5 z M 8 6 C 9.662 6 11 7.338 11 9 C 11 10.662 9.662 12 8 12 C 6.338 12 5 10.662 5 9 C 5 7.338 6.338 6 8 6 z M 1 7 L 4.5507812 7 C 4.2093019 7.5895523 4 8.2669714 4 9 C 4 9.7330286 4.2093018 10.410448 4.5507812 11 L 1 11 L 1 7 z M 8 7 C 6.892 7 6 7.892 6 9 C 6 10.108 6.892 11 8 11 C 9.108 11 10 10.108 10 9 C 10 7.892 9.108 7 8 7 z M 11.449219 7 L 15 7 L 15 11 L 11.449219 11 C 11.790698 10.410448 12 9.7330286 12 9 C 12 8.2669714 11.790698 7.5895523 11.449219 7 z M 8 8 C 8.554 8 9 8.446 9 9 C 9 9.554 8.554 10 8 10 C 7.446 10 7 9.554 7 9 C 7 8.446 7.446 8 8 8 z M 1 12 L 5.375 12 C 6.0779496 12.614983 6.9883438 13 8 13 C 9.0116562 13 9.9220504 12.614983 10.625 12 L 15 12 L 15 13 L 8 13 L 1 13 L 1 12 z" clip-rule="nonzero" color-interpolation="sRGB" color-interpolation-filters="linearRGB" color-rendering="auto" display="inline" enable-background="accumulate" image-rendering="auto" opacity="1" overflow="visible" shape-rendering="auto" text-decoration="none" text-rendering="auto" visibility="visible"/></svg>