<svg xmlns="http://www.w3.org/2000/svg" xmlns:svg="http://www.w3.org/2000/svg" id="svg2" version="1.1" viewBox="0 0 16 16"><metadata id="metadata10"/><defs id="defs8"><linearGradient id="linearGradient4103"><stop id="stop4105" offset="0" stop-color="#bdecfb" stop-opacity="1"/><stop id="stop4107" offset="1" stop-color="#f5feff" stop-opacity="1"/></linearGradient><linearGradient id="linearGradient4314"><stop id="stop4316" offset="0" stop-color="#ff4b00" stop-opacity="1"/><stop id="stop4318" offset="1" stop-color="#f50" stop-opacity="1"/></linearGradient><linearGradient id="linearGradient5020-1"><stop id="stop5022-6" offset="0" stop-color="#0da8db" stop-opacity="1"/><stop id="stop5024-0" offset="1" stop-color="#1fe1fb" stop-opacity="1"/></linearGradient></defs><g id="layer1" fill="#bebebe" fill-opacity="1" transform="translate(-3,-29)"><path id="rect4156" fill="#bebebe" fill-opacity="1" stroke="none" stroke-dasharray="none" stroke-miterlimit="4" stroke-opacity="1" stroke-width="1" d="M 2,2 2,14 14,14 14,2 2,2 Z m 2,1 1,0 0,1 -1,0 0,1 1,0 6,0 1,0 0,-1 0,-1 1,0 0,10 L 3,13 3,4 4,4 4,3 Z M 6,3 9,3 9,4 6,4 6,3 Z m 4,0 1,0 0,1 -1,0 0,-1 z M 6,7 6,8 10,8 10,7 6,7 Z m 0,2 0,1 2,0 0,-1 -2,0 z m -2,2 0,1 1,0 0,-1 -1,0 z m 7,0 0,1 1,0 0,-1 -1,0 z" opacity="1" transform="translate(3,29)"/></g></svg>