<svg xmlns="http://www.w3.org/2000/svg" xmlns:svg="http://www.w3.org/2000/svg" xmlns:xlink="http://www.w3.org/1999/xlink" id="svg2" width="100%" height="100%" version="1.1" viewBox="0 0 16 16"><metadata id="metadata10"/><defs id="defs8"><linearGradient id="linearGradient3880"><stop id="stop3882" offset="0" stop-color="#da0000" stop-opacity="1"/><stop id="stop3884" offset="1" stop-color="#ff4200" stop-opacity="1"/></linearGradient><linearGradient id="linearGradient3965" x1="272" x2="272" y1="284" y2="28" gradientTransform="translate(-0.25,-31.5)" gradientUnits="userSpaceOnUse" xlink:href="#linearGradient3880"/><linearGradient id="linearGradient3006" x2="0" y1="279.096" y2="268.33" gradientTransform="matrix(1.10525,0,0,1.10525,-134.27874,-295.76183)" gradientUnits="userSpaceOnUse" xlink:href="#linearGradient4460"/><linearGradient id="linearGradient4460"><stop id="stop7" offset="0" stop-color="#dadada" stop-opacity="1"/><stop id="stop9" offset="1" stop-color="#f7f7f7" stop-opacity="1"/></linearGradient></defs><path color="#000" style="text-decoration-line:none;text-decoration-style:solid;text-decoration-color:#000;isolation:auto;mix-blend-mode:normal;solid-color:#000;solid-opacity:1" id="rect4168" fill="#bebebe" fill-opacity="1" fill-rule="nonzero" stroke="none" stroke-dasharray="none" stroke-dashoffset="0" stroke-linecap="butt" stroke-linejoin="miter" stroke-miterlimit="4" stroke-opacity="1" stroke-width="1" d="M 3 2 L 3 9 L 2 9 L 2 14 L 14 14 L 14 9 L 13 9 L 13 2 L 3 2 z M 4 3 L 12 3 L 12 9 L 4 9 L 4 3 z M 5 4 L 5 6 L 7 6 L 7 4 L 5 4 z M 9 4 L 9 6 L 11 6 L 11 4 L 9 4 z M 3 10 L 13 10 L 13 13 L 3 13 L 3 10 z" clip-rule="nonzero" color-interpolation="sRGB" color-interpolation-filters="linearRGB" color-rendering="auto" display="inline" enable-background="accumulate" image-rendering="auto" opacity="1" overflow="visible" shape-rendering="auto" text-decoration="none" text-rendering="auto" visibility="visible"/></svg>