<svg xmlns="http://www.w3.org/2000/svg" xmlns:svg="http://www.w3.org/2000/svg" id="svg2" width="16" height="16" version="1.1" viewBox="0 0 16 16"><metadata id="metadata14"/><path color="#000" style="text-decoration-line:none;text-decoration-style:solid;text-decoration-color:#000;isolation:auto;mix-blend-mode:normal;solid-color:#000;solid-opacity:1" id="rect4170" fill="#bebebe" fill-opacity="1" fill-rule="nonzero" stroke="none" stroke-dasharray="none" stroke-dashoffset="0" stroke-linecap="butt" stroke-linejoin="miter" stroke-miterlimit="4" stroke-opacity="1" stroke-width="1" d="M 3.998047,3 2,10.853516 2,13 l 0,1 1.691406,0 0,-1 L 3,13 l 0,-0.714844 0,-0.185547 0,-0.09961 0,-1 -0.0039,0 L 3,10.984375 3,11 13,11 13,10.98437 13.0039,11 13,11 l 0,1 0,1 -1,0 0,1 2,0 0,-1 0,-2.146484 L 12.001953,3 12,3 5,3 Z m 0.724609,1 0.05274,0 6.449218,0 0.01758,0 1.505859,6 L 3.2461,10 Z M 4.144531,12 C 4.048421,12.130409 3.999804,12.265094 4,12.400391 c 0,0.828427 1.790861,1.5 4,1.5 2.209139,0 4,-0.671573 4,-1.5 C 11.9989,12.265027 11.94899,12.130341 11.851562,12 l -0.855468,0 c 0.002,0.01106 0.0033,0.02213 0.0039,0.0332 -0.0011,0.479025 -1.343899,0.867188 -3,0.867188 -1.656101,0 -2.998935,-0.388163 -3,-0.867188 0.0012,-0.01108 0.0032,-0.02215 0.0059,-0.0332 l -0.861328,0 z" clip-rule="nonzero" color-interpolation="sRGB" color-interpolation-filters="linearRGB" color-rendering="auto" display="inline" enable-background="accumulate" image-rendering="auto" opacity="1" overflow="visible" shape-rendering="auto" text-decoration="none" text-rendering="auto" visibility="visible"/></svg>