<svg xmlns="http://www.w3.org/2000/svg" xmlns:svg="http://www.w3.org/2000/svg" id="svg2" width="16" height="16" version="1.1" viewBox="0 0 16 16"><metadata id="metadata12"/><path color="#000" style="text-decoration-line:none;text-decoration-style:solid;text-decoration-color:#000;isolation:auto;mix-blend-mode:normal;solid-color:#000;solid-opacity:1" id="rect4173" fill="#bebebe" fill-opacity="1" fill-rule="nonzero" stroke="none" stroke-dasharray="none" stroke-dashoffset="0" stroke-linecap="butt" stroke-linejoin="miter" stroke-miterlimit="4" stroke-opacity="1" stroke-width="1" d="M 6 2 C 3.784 2 2 3.784 2 6 L 2 9 L 1 9 L 1 10 L 1 12 L 1 13 L 3 13 L 3 14 L 6 14 L 6 8 L 3 8 L 3 6 C 3 4.338 4.338 3 6 3 L 10 3 C 11.662 3 13 4.338 13 6 L 13 8 L 10 8 L 10 14 L 13 14 L 13 13 L 15 13 L 15 12 L 15 10 L 15 9 L 14 9 L 14 6 C 14 3.784 12.216 2 10 2 L 6 2 z M 4 9 L 5 9 L 5 13 L 4 13 L 4 9 z M 11 9 L 12 9 L 12 13 L 11 13 L 11 9 z M 2 10 L 3 10 L 3 12 L 2 12 L 2 10 z M 13 10 L 14 10 L 14 12 L 13 12 L 13 10 z" clip-rule="nonzero" color-interpolation="sRGB" color-interpolation-filters="linearRGB" color-rendering="auto" display="inline" enable-background="accumulate" image-rendering="auto" opacity="1" overflow="visible" shape-rendering="auto" text-decoration="none" text-rendering="auto" visibility="visible"/></svg>