<svg xmlns="http://www.w3.org/2000/svg" xmlns:svg="http://www.w3.org/2000/svg" id="svg2" width="16" height="16" version="1.1" viewBox="0 0 16 16"><metadata id="metadata12"/><path color="#000" style="text-decoration-line:none;text-decoration-style:solid;text-decoration-color:#000;isolation:auto;mix-blend-mode:normal;solid-color:#000;solid-opacity:1" id="rect4172" fill="#bebebe" fill-opacity="1" fill-rule="nonzero" stroke="none" stroke-dasharray="none" stroke-dashoffset="0" stroke-linecap="butt" stroke-linejoin="miter" stroke-miterlimit="4" stroke-opacity="1" stroke-width="1" d="M 8 2 C 5.784 2 4 3.784 4 6 L 4 10 C 4 12.216 5.784 14 8 14 C 10.216 14 12 12.216 12 10 L 12 6 C 12 3.784 10.216 2 8 2 z M 8 3 C 9.662 3 11 4.338 11 6 L 11 10 C 11 11.662 9.662 13 8 13 C 6.338 13 5 11.662 5 10 L 5 6 C 5 4.338 6.338 3 8 3 z M 7.5 5 L 7.5 7.4570312 L 8.5 7.4570312 L 8.5 5 L 7.5 5 z" clip-rule="nonzero" color-interpolation="sRGB" color-interpolation-filters="linearRGB" color-rendering="auto" display="inline" enable-background="accumulate" image-rendering="auto" opacity="1" overflow="visible" shape-rendering="auto" text-decoration="none" text-rendering="auto" visibility="visible"/></svg>