<svg xmlns="http://www.w3.org/2000/svg" xmlns:svg="http://www.w3.org/2000/svg" id="svg2" width="16" height="16" version="1.1" viewBox="0 0 16 16"><metadata id="metadata12"/><path color="#000" style="text-decoration-line:none;text-decoration-style:solid;text-decoration-color:#000;isolation:auto;mix-blend-mode:normal;solid-color:#000;solid-opacity:1" id="rect4197" fill="#bebebe" fill-opacity="1" fill-rule="nonzero" stroke="none" stroke-dasharray="none" stroke-dashoffset="0" stroke-linecap="butt" stroke-linejoin="miter" stroke-miterlimit="4" stroke-opacity="1" stroke-width="1" d="M 11 2 L 11 4 L 0 4 L 0 14 L 16 14 L 16 4 L 12 4 L 12 2 L 11 2 z M 1 5 L 6 5 L 6 6 L 10 6 L 10 5 L 15 5 L 15 13 L 11 13 L 11 12 L 5 12 L 5 13 L 1 13 L 1 5 z M 4 6 L 4 8 L 2 8 L 2 9 L 4 9 L 4 11 L 5 11 L 5 9 L 7 9 L 7 8 L 5 8 L 5 6 L 4 6 z M 10 8 C 9.446 8 9 8.446 9 9 C 9 9.554 9.446 10 10 10 C 10.554 10 11 9.554 11 9 C 11 8.446 10.554 8 10 8 z M 13 8 C 12.446 8 12 8.446 12 9 C 12 9.554 12.446 10 13 10 C 13.554 10 14 9.554 14 9 C 14 8.446 13.554 8 13 8 z M 7.5 10 C 7.223 10 7 10.223 7 10.5 C 7 10.777 7.223 11 7.5 11 L 8.5 11 C 8.777 11 9 10.777 9 10.5 C 9 10.223 8.777 10 8.5 10 L 7.5 10 z" clip-rule="nonzero" color-interpolation="sRGB" color-interpolation-filters="linearRGB" color-rendering="auto" display="inline" enable-background="accumulate" image-rendering="auto" opacity="1" overflow="visible" shape-rendering="auto" text-decoration="none" text-rendering="auto" visibility="visible"/></svg>