<svg xmlns="http://www.w3.org/2000/svg" xmlns:svg="http://www.w3.org/2000/svg" id="svg2" width="16" height="16" version="1.1" viewBox="0 0 16 16"><metadata id="metadata14"/><path color="#000" style="text-decoration-line:none;text-decoration-style:solid;text-decoration-color:#000;isolation:auto;mix-blend-mode:normal;solid-color:#000;solid-opacity:1" id="rect4163" fill="#bebebe" fill-opacity="1" fill-rule="nonzero" stroke="none" stroke-dasharray="none" stroke-dashoffset="0" stroke-linecap="butt" stroke-linejoin="miter" stroke-miterlimit="4" stroke-opacity="1" stroke-width="1" d="M 8 2 C 4.6759995 2 2 4.6760003 2 8 C 2 11.324 4.6759996 14 8 14 L 8 13 C 5.2299995 13 3 10.77 3 8 C 3 5.2300003 5.2299996 3 8 3 C 10.77 3 13 5.2300003 13 8 L 14 8 C 14 4.6760003 11.324 2 8 2 z M 8 6 C 6.8919995 6 6 6.892 6 8 C 6 9.108 6.8919995 10 8 10 L 8 9 C 7.446 9 7 8.554 7 8 C 7 7.446 7.446 7 8 7 C 8.5540001 7 9 7.446 9 8 L 10 8 C 10 6.892 9.1080001 6 8 6 z M 10 9 L 10 12 C 9.446 12 9 12.446 9 13 C 9 13.554 9.446 14 10 14 C 10.554 14 11 13.554 11 13 L 11 10 L 13 10 L 13 11.099609 C 12.446 11.099609 12 11.545609 12 12.099609 C 12 12.653609 12.446 13.099609 13 13.099609 C 13.554 13.099609 14 12.653609 14 12.099609 C 14 12.064148 13.984035 12.034488 13.980469 12 L 14 12 L 14 9.5 L 14 9 L 13.5 9 L 13 9 L 11 9 L 10 9 z" clip-rule="nonzero" color-interpolation="sRGB" color-interpolation-filters="linearRGB" color-rendering="auto" display="inline" enable-background="accumulate" image-rendering="auto" opacity="1" overflow="visible" shape-rendering="auto" text-decoration="none" text-rendering="auto" visibility="visible"/></svg>