<svg xmlns="http://www.w3.org/2000/svg" xmlns:svg="http://www.w3.org/2000/svg" id="svg2" width="16" height="16" version="1.1" viewBox="0 0 16 16"><metadata id="metadata14"/><path color="#000" style="text-decoration-line:none;text-decoration-style:solid;text-decoration-color:#000;isolation:auto;mix-blend-mode:normal;solid-color:#000;solid-opacity:1" id="rect4166" fill="#bebebe" fill-opacity="1" fill-rule="nonzero" stroke="none" stroke-dasharray="none" stroke-dashoffset="0" stroke-linecap="butt" stroke-linejoin="miter" stroke-miterlimit="4" stroke-opacity="1" stroke-width="1" d="M 4 2 L 4 14 L 12 14 L 12 2 L 4 2 z M 5 3 L 11 3 L 11 8 L 5 8 L 5 3 z M 8 9 C 9.108 9 10 9.892 10 11 C 10 12.108 9.108 13 8 13 C 6.892 13 6 12.108 6 11 C 6 9.892 6.892 9 8 9 z M 8 10 C 7.446 10 7 10.446 7 11 C 7 11.554 7.446 12 8 12 C 8.554 12 9 11.554 9 11 C 9 10.446 8.554 10 8 10 z" clip-rule="nonzero" color-interpolation="sRGB" color-interpolation-filters="linearRGB" color-rendering="auto" display="inline" enable-background="accumulate" image-rendering="auto" opacity="1" overflow="visible" shape-rendering="auto" text-decoration="none" text-rendering="auto" visibility="visible"/></svg>