<svg xmlns="http://www.w3.org/2000/svg" xmlns:svg="http://www.w3.org/2000/svg" id="svg2" width="16" height="16" version="1.1" viewBox="0 0 16 16"><metadata id="metadata12"/><path color="#000" style="text-decoration-line:none;text-decoration-style:solid;text-decoration-color:#000;isolation:auto;mix-blend-mode:normal;solid-color:#000;solid-opacity:1" id="rect4192" fill="#bebebe" fill-opacity="1" fill-rule="nonzero" stroke="none" stroke-dasharray="none" stroke-dashoffset="0" stroke-linecap="butt" stroke-linejoin="miter" stroke-miterlimit="4" stroke-opacity="1" stroke-width="1" d="M 4 2 L 4 3 L 4 6 L 3 6 L 2 6 L 2 7 L 2 11 L 2 12 L 5 12 L 5 13 L 5 14 L 11 14 L 11 13 L 11 12 L 14 12 L 14 11 L 14 6 L 13.626953 6 L 12 6 L 12 2 L 5 2 L 4 2 z M 5 3 L 11 3 L 11 6 L 5 6 L 5 3 z M 6 4 L 6 5 L 10.474609 5 L 10.474609 4 L 6 4 z M 3 7 L 4 7 L 4 8 L 6 8 L 6 7 L 13 7 L 13 11 L 10 11 L 10 9.390625 L 10 9 L 6 9 L 6 10 L 6 11 L 3 11 L 3 7 z M 7 10 L 9 10 L 9 11 L 7 11 L 7 10 z M 6 12 L 10 12 L 10 13 L 6 13 L 6 12 z" clip-rule="nonzero" color-interpolation="sRGB" color-interpolation-filters="linearRGB" color-rendering="auto" display="inline" enable-background="accumulate" image-rendering="auto" opacity="1" overflow="visible" shape-rendering="auto" text-decoration="none" text-rendering="auto" visibility="visible"/></svg>