<svg xmlns="http://www.w3.org/2000/svg" xmlns:svg="http://www.w3.org/2000/svg" id="svg2" width="16" height="16" version="1.1" viewBox="0 0 16 16"><metadata id="metadata16"/><path color="#000" style="text-decoration-line:none;text-decoration-style:solid;text-decoration-color:#000;isolation:auto;mix-blend-mode:normal;solid-color:#000;solid-opacity:1" id="rect4173" fill="#bebebe" fill-opacity="1" fill-rule="nonzero" stroke="none" stroke-dasharray="none" stroke-dashoffset="0" stroke-linecap="butt" stroke-linejoin="miter" stroke-miterlimit="4" stroke-opacity="1" stroke-width="1" d="M 3 2 L 3 14 L 13 14 L 13 7 L 13 6 L 13 2 L 3 2 z M 4 3 L 12 3 L 12 6 L 10 6 L 10 4 L 6 4 L 6 6 L 4 6 L 4 3 z M 4 7 L 5 7 L 5 8 L 5 9 L 11 9 L 11 8 L 11 7 L 12 7 L 12 10 L 4 10 L 4 7 z M 6 7 L 10 7 L 10 8 L 6 8 L 6 7 z M 4 11 L 10.5 11 L 12 11 L 12 13 L 4 13 L 4 11 z M 10.5 11 C 10.223 11 10 11.223 10 11.5 C 10 11.777 10.223 12 10.5 12 C 10.777 12 11 11.777 11 11.5 C 11 11.223 10.777 11 10.5 11 z" clip-rule="nonzero" color-interpolation="sRGB" color-interpolation-filters="linearRGB" color-rendering="auto" display="inline" enable-background="accumulate" image-rendering="auto" opacity="1" overflow="visible" shape-rendering="auto" text-decoration="none" text-rendering="auto" visibility="visible"/></svg>