<svg xmlns="http://www.w3.org/2000/svg" xmlns:svg="http://www.w3.org/2000/svg" xmlns:xlink="http://www.w3.org/1999/xlink" id="svg2" width="24" height="24" version="1.1"><defs id="defs4"><linearGradient id="linearGradient836" x1="-3.34" x2="-3.34" y1="1038.553" y2="1030.243" gradientTransform="matrix(2.1715905,0,0,2.1715905,19.342067,-1205.8388)" gradientUnits="userSpaceOnUse" xlink:href="#linearGradient830"/><linearGradient id="linearGradient830"><stop id="stop832" offset="0" stop-color="#80b22e" stop-opacity="1"/><stop id="stop834" offset="1" stop-color="#aee063" stop-opacity="1"/></linearGradient></defs><metadata id="metadata7"/><g id="layer1" transform="translate(0,-1028.3622)"><rect id="rect846" width="20" height="20" x="2" y="1030.362" fill="#000" fill-opacity=".094" stroke="none" ry="1.641"/><rect id="rect844" width="19.349" height="19.349" x="2.326" y="1030.688" fill="#000" fill-opacity=".176" stroke="none" ry="1.587"/><rect id="rect838" width="18.697" height="18.697" x="2.651" y="1031.014" fill="#000" fill-opacity=".353" stroke="none" ry="1.534"/><rect id="rect848" width="18.469" height="18.469" x="2.765" y="1031.128" fill="#000" fill-opacity=".427" stroke="none" ry="1.515"/><rect id="rect828" width="18.046" height="18.046" x="2.977" y="1031.339" fill="url(#linearGradient836)" fill-opacity="1" stroke="none" ry="1.481"/><g id="g956" fill="#000" fill-opacity=".067" transform="matrix(0.40625,0,0,0.40625,5.5,1035.3919)"><g id="g960" fill="#000" fill-opacity=".067"><g id="g962" fill="#000" fill-opacity=".067"><path id="path964" fill="#000" fill-opacity=".067" d="m 16,12 c 2.203,0 4,1.795 4,4 0,2.205 -1.797,4 -4,4 -2.203,0 -4,-1.795 -4,-4 0,-2.205 1.797,-4 4,-4 m 0,-4 c -4.418,0 -8,3.582 -8,8 0,4.418 3.582,8 8,8 4.418,0 8,-3.582 8,-8 0,-4.418 -3.582,-8 -8,-8 L 16,8 Z"/><circle id="circle966" cx="16" cy="2" r="2" fill="#000" fill-opacity=".067" d="M 18,2 C 18,3.1045695 17.104569,4 16,4 14.895431,4 14,3.1045695 14,2 14,0.8954305 14.895431,0 16,0 17.104569,0 18,0.8954305 18,2 Z"/><circle id="circle968" cx="6" cy="6" r="2" fill="#000" fill-opacity=".067" d="M 8,6 C 8,7.1045695 7.1045695,8 6,8 4.8954305,8 4,7.1045695 4,6 4,4.8954305 4.8954305,4 6,4 7.1045695,4 8,4.8954305 8,6 Z"/><path id="path970" fill="#000" fill-opacity=".067" d="m 2,13.998 c 1.105,0 2,0.895 2,2 0,1.107 -0.895,2 -2,2 -1.105,0 -2,-0.893 -2,-2 C 0,14.893 0.895,13.998 2,13.998 Z"/><circle id="circle972" cx="6" cy="26" r="2" fill="#000" fill-opacity=".067" d="M 8,26 C 8,27.104569 7.1045695,28 6,28 4.8954305,28 4,27.104569 4,26 4,24.895431 4.8954305,24 6,24 7.1045695,24 8,24.895431 8,26 Z"/><path id="path974" fill="#000" fill-opacity=".067" d="m 14,30 c 0,-1.109 0.895,-2 2,-2 1.109,0 2,0.891 2,2 0,1.102 -0.891,2 -2,2 C 14.895,32 14,31.102 14,30 Z"/><path id="path976" fill="#000" fill-opacity=".067" d="m 24.594,27.414 c -0.781,-0.781 -0.781,-2.047 0,-2.828 0.785,-0.781 2.047,-0.781 2.828,0 0.781,0.781 0.785,2.047 0,2.828 C 26.641,28.195 25.375,28.195 24.594,27.414 Z"/><path id="path978" fill="#000" fill-opacity=".067" d="M 29.996,17.998 C 28.895,17.998 28,17.104 28,16 c 0,-1.109 0.891,-2 2,-2 1.102,0 2,0.893 2,1.998 C 32,17.105 31.102,18 29.996,17.998 Z"/><path id="path980" fill="#000" fill-opacity=".067" d="m 27.422,7.416 c -0.781,0.779 -2.047,0.779 -2.828,0 -0.781,-0.785 -0.781,-2.047 0,-2.83 0.781,-0.779 2.047,-0.781 2.828,0.002 C 28.203,5.369 28.203,6.637 27.422,7.416 Z"/></g></g></g><g id="g982" fill="#000" fill-opacity=".137" transform="matrix(0.40625,0,0,0.40625,5.5,1034.8596)"><g id="g986" fill="#000" fill-opacity=".137"><g id="g988" fill="#000" fill-opacity=".137"><path id="path990" fill="#000" fill-opacity=".137" d="m 16,12 c 2.203,0 4,1.795 4,4 0,2.205 -1.797,4 -4,4 -2.203,0 -4,-1.795 -4,-4 0,-2.205 1.797,-4 4,-4 m 0,-4 c -4.418,0 -8,3.582 -8,8 0,4.418 3.582,8 8,8 4.418,0 8,-3.582 8,-8 0,-4.418 -3.582,-8 -8,-8 L 16,8 Z"/><circle id="circle992" cx="16" cy="2" r="2" fill="#000" fill-opacity=".137" d="M 18,2 C 18,3.1045695 17.104569,4 16,4 14.895431,4 14,3.1045695 14,2 14,0.8954305 14.895431,0 16,0 17.104569,0 18,0.8954305 18,2 Z"/><circle id="circle994" cx="6" cy="6" r="2" fill="#000" fill-opacity=".137" d="M 8,6 C 8,7.1045695 7.1045695,8 6,8 4.8954305,8 4,7.1045695 4,6 4,4.8954305 4.8954305,4 6,4 7.1045695,4 8,4.8954305 8,6 Z"/><path id="path996" fill="#000" fill-opacity=".137" d="m 2,13.998 c 1.105,0 2,0.895 2,2 0,1.107 -0.895,2 -2,2 -1.105,0 -2,-0.893 -2,-2 C 0,14.893 0.895,13.998 2,13.998 Z"/><circle id="circle998" cx="6" cy="26" r="2" fill="#000" fill-opacity=".137" d="M 8,26 C 8,27.104569 7.1045695,28 6,28 4.8954305,28 4,27.104569 4,26 4,24.895431 4.8954305,24 6,24 7.1045695,24 8,24.895431 8,26 Z"/><path id="path1000" fill="#000" fill-opacity=".137" d="m 14,30 c 0,-1.109 0.895,-2 2,-2 1.109,0 2,0.891 2,2 0,1.102 -0.891,2 -2,2 C 14.895,32 14,31.102 14,30 Z"/><path id="path1002" fill="#000" fill-opacity=".137" d="m 24.594,27.414 c -0.781,-0.781 -0.781,-2.047 0,-2.828 0.785,-0.781 2.047,-0.781 2.828,0 0.781,0.781 0.785,2.047 0,2.828 C 26.641,28.195 25.375,28.195 24.594,27.414 Z"/><path id="path1004" fill="#000" fill-opacity=".137" d="M 29.996,17.998 C 28.895,17.998 28,17.104 28,16 c 0,-1.109 0.891,-2 2,-2 1.102,0 2,0.893 2,1.998 C 32,17.105 31.102,18 29.996,17.998 Z"/><path id="path1006" fill="#000" fill-opacity=".137" d="m 27.422,7.416 c -0.781,0.779 -2.047,0.779 -2.828,0 -0.781,-0.785 -0.781,-2.047 0,-2.83 0.781,-0.779 2.047,-0.781 2.828,0.002 C 28.203,5.369 28.203,6.637 27.422,7.416 Z"/></g></g></g><g id="g1008" fill="#000" fill-opacity=".275" transform="matrix(0.40625,0,0,0.40625,5.5,1034.3272)"><g id="g1012" fill="#000" fill-opacity=".275"><g id="g1014" fill="#000" fill-opacity=".275"><path id="path1016" fill="#000" fill-opacity=".275" d="m 16,12 c 2.203,0 4,1.795 4,4 0,2.205 -1.797,4 -4,4 -2.203,0 -4,-1.795 -4,-4 0,-2.205 1.797,-4 4,-4 m 0,-4 c -4.418,0 -8,3.582 -8,8 0,4.418 3.582,8 8,8 4.418,0 8,-3.582 8,-8 0,-4.418 -3.582,-8 -8,-8 L 16,8 Z"/><circle id="circle1018" cx="16" cy="2" r="2" fill="#000" fill-opacity=".275" d="M 18,2 C 18,3.1045695 17.104569,4 16,4 14.895431,4 14,3.1045695 14,2 14,0.8954305 14.895431,0 16,0 17.104569,0 18,0.8954305 18,2 Z"/><circle id="circle1020" cx="6" cy="6" r="2" fill="#000" fill-opacity=".275" d="M 8,6 C 8,7.1045695 7.1045695,8 6,8 4.8954305,8 4,7.1045695 4,6 4,4.8954305 4.8954305,4 6,4 7.1045695,4 8,4.8954305 8,6 Z"/><path id="path1022" fill="#000" fill-opacity=".275" d="m 2,13.998 c 1.105,0 2,0.895 2,2 0,1.107 -0.895,2 -2,2 -1.105,0 -2,-0.893 -2,-2 C 0,14.893 0.895,13.998 2,13.998 Z"/><circle id="circle1024" cx="6" cy="26" r="2" fill="#000" fill-opacity=".275" d="M 8,26 C 8,27.104569 7.1045695,28 6,28 4.8954305,28 4,27.104569 4,26 4,24.895431 4.8954305,24 6,24 7.1045695,24 8,24.895431 8,26 Z"/><path id="path1026" fill="#000" fill-opacity=".275" d="m 14,30 c 0,-1.109 0.895,-2 2,-2 1.109,0 2,0.891 2,2 0,1.102 -0.891,2 -2,2 C 14.895,32 14,31.102 14,30 Z"/><path id="path1028" fill="#000" fill-opacity=".275" d="m 24.594,27.414 c -0.781,-0.781 -0.781,-2.047 0,-2.828 0.785,-0.781 2.047,-0.781 2.828,0 0.781,0.781 0.785,2.047 0,2.828 C 26.641,28.195 25.375,28.195 24.594,27.414 Z"/><path id="path1030" fill="#000" fill-opacity=".275" d="M 29.996,17.998 C 28.895,17.998 28,17.104 28,16 c 0,-1.109 0.891,-2 2,-2 1.102,0 2,0.893 2,1.998 C 32,17.105 31.102,18 29.996,17.998 Z"/><path id="path1032" fill="#000" fill-opacity=".275" d="m 27.422,7.416 c -0.781,0.779 -2.047,0.779 -2.828,0 -0.781,-0.785 -0.781,-2.047 0,-2.83 0.781,-0.779 2.047,-0.781 2.828,0.002 C 28.203,5.369 28.203,6.637 27.422,7.416 Z"/></g></g></g><g id="g841" fill="#fff" transform="matrix(0.40625,0,0,0.40625,5.5,1033.8622)"><g id="sun_x5F_stroke" fill="#fff"><g id="g815" fill="#fff"><path id="path817" fill="#fff" d="m 16,12 c 2.203,0 4,1.795 4,4 0,2.205 -1.797,4 -4,4 -2.203,0 -4,-1.795 -4,-4 0,-2.205 1.797,-4 4,-4 m 0,-4 c -4.418,0 -8,3.582 -8,8 0,4.418 3.582,8 8,8 4.418,0 8,-3.582 8,-8 0,-4.418 -3.582,-8 -8,-8 L 16,8 Z"/><circle id="circle819" cx="16" cy="2" r="2" fill="#fff" d="M 18,2 C 18,3.1045695 17.104569,4 16,4 14.895431,4 14,3.1045695 14,2 14,0.8954305 14.895431,0 16,0 17.104569,0 18,0.8954305 18,2 Z"/><circle id="circle821" cx="6" cy="6" r="2" fill="#fff" d="M 8,6 C 8,7.1045695 7.1045695,8 6,8 4.8954305,8 4,7.1045695 4,6 4,4.8954305 4.8954305,4 6,4 7.1045695,4 8,4.8954305 8,6 Z"/><path id="path823" fill="#fff" d="m 2,13.998 c 1.105,0 2,0.895 2,2 0,1.107 -0.895,2 -2,2 -1.105,0 -2,-0.893 -2,-2 C 0,14.893 0.895,13.998 2,13.998 Z"/><circle id="circle825" cx="6" cy="26" r="2" fill="#fff" d="M 8,26 C 8,27.104569 7.1045695,28 6,28 4.8954305,28 4,27.104569 4,26 4,24.895431 4.8954305,24 6,24 7.1045695,24 8,24.895431 8,26 Z"/><path id="path827" fill="#fff" d="m 14,30 c 0,-1.109 0.895,-2 2,-2 1.109,0 2,0.891 2,2 0,1.102 -0.891,2 -2,2 C 14.895,32 14,31.102 14,30 Z"/><path id="path829" fill="#fff" d="m 24.594,27.414 c -0.781,-0.781 -0.781,-2.047 0,-2.828 0.785,-0.781 2.047,-0.781 2.828,0 0.781,0.781 0.785,2.047 0,2.828 C 26.641,28.195 25.375,28.195 24.594,27.414 Z"/><path id="path831" fill="#fff" d="M 29.996,17.998 C 28.895,17.998 28,17.104 28,16 c 0,-1.109 0.891,-2 2,-2 1.102,0 2,0.893 2,1.998 C 32,17.105 31.102,18 29.996,17.998 Z"/><path id="path833" fill="#fff" d="m 27.422,7.416 c -0.781,0.779 -2.047,0.779 -2.828,0 -0.781,-0.785 -0.781,-2.047 0,-2.83 0.781,-0.779 2.047,-0.781 2.828,0.002 C 28.203,5.369 28.203,6.637 27.422,7.416 Z"/></g></g></g></g></svg>