<svg xmlns="http://www.w3.org/2000/svg" xmlns:svg="http://www.w3.org/2000/svg" xmlns:xlink="http://www.w3.org/1999/xlink" id="svg2" width="24" height="24" version="1.1"><defs id="defs4"><linearGradient id="linearGradient836" x1="-3.34" x2="-3.34" y1="1038.553" y2="1030.243" gradientTransform="matrix(2.1715905,0,0,2.1715905,19.342067,-1205.8388)" gradientUnits="userSpaceOnUse" xlink:href="#linearGradient830"/><linearGradient id="linearGradient830"><stop id="stop832" offset="0" stop-color="#80b22e" stop-opacity="1"/><stop id="stop834" offset="1" stop-color="#aee063" stop-opacity="1"/></linearGradient></defs><metadata id="metadata7"/><g id="layer1" transform="translate(0,-1028.3622)"><rect id="rect846" width="20" height="20" x="2" y="1030.362" fill="#000" fill-opacity=".094" stroke="none" ry="1.641"/><rect id="rect844" width="19.349" height="19.349" x="2.326" y="1030.688" fill="#000" fill-opacity=".176" stroke="none" ry="1.587"/><rect id="rect838" width="18.697" height="18.697" x="2.651" y="1031.014" fill="#000" fill-opacity=".353" stroke="none" ry="1.534"/><rect id="rect848" width="18.469" height="18.469" x="2.765" y="1031.128" fill="#000" fill-opacity=".427" stroke="none" ry="1.515"/><rect id="rect828" width="18.046" height="18.046" x="2.977" y="1031.339" fill="url(#linearGradient836)" fill-opacity="1" stroke="none" ry="1.481"/><g id="g1053" fill="#000" fill-opacity=".067" transform="matrix(0.40625,0,0,0.40625,6.312499,1035.3919)"><g id="g1057" fill="#000" fill-opacity=".067"><g id="g1059" fill="#000" fill-opacity=".067"><path id="path1061" fill="#000" fill-opacity=".067" d="m 23.883,6.086 -2.82,2.832 C 22.953,10.809 24,13.324 24,16 24,21.516 19.516,26 14,26 l 0,-2 -4,4 4,4 0,-2 C 21.719,30 28,23.719 28,16 28,12.254 26.539,8.734 23.883,6.086 Z"/><path id="path1063" fill="#000" fill-opacity=".067" d="M 18,4 14,0 14,2 C 6.281,2 0,8.281 0,16 c 0,3.746 1.461,7.266 4.117,9.914 l 2.82,-2.832 C 5.047,21.191 4,18.676 4,16 4,10.484 8.484,6 14,6 L 14,8 18,4 Z"/></g></g></g><g id="g1065" fill="#000" fill-opacity=".137" transform="matrix(0.40625,0,0,0.40625,6.312499,1034.8596)"><g id="g1069" fill="#000" fill-opacity=".137"><g id="g1071" fill="#000" fill-opacity=".137"><path id="path1073" fill="#000" fill-opacity=".137" d="m 23.883,6.086 -2.82,2.832 C 22.953,10.809 24,13.324 24,16 24,21.516 19.516,26 14,26 l 0,-2 -4,4 4,4 0,-2 C 21.719,30 28,23.719 28,16 28,12.254 26.539,8.734 23.883,6.086 Z"/><path id="path1075" fill="#000" fill-opacity=".137" d="M 18,4 14,0 14,2 C 6.281,2 0,8.281 0,16 c 0,3.746 1.461,7.266 4.117,9.914 l 2.82,-2.832 C 5.047,21.191 4,18.676 4,16 4,10.484 8.484,6 14,6 L 14,8 18,4 Z"/></g></g></g><g id="g1077" fill="#000" fill-opacity=".275" transform="matrix(0.40625,0,0,0.40625,6.312499,1034.3272)"><g id="g1081" fill="#000" fill-opacity=".275"><g id="g1083" fill="#000" fill-opacity=".275"><path id="path1085" fill="#000" fill-opacity=".275" d="m 23.883,6.086 -2.82,2.832 C 22.953,10.809 24,13.324 24,16 24,21.516 19.516,26 14,26 l 0,-2 -4,4 4,4 0,-2 C 21.719,30 28,23.719 28,16 28,12.254 26.539,8.734 23.883,6.086 Z"/><path id="path1087" fill="#000" fill-opacity=".275" d="M 18,4 14,0 14,2 C 6.281,2 0,8.281 0,16 c 0,3.746 1.461,7.266 4.117,9.914 l 2.82,-2.832 C 5.047,21.191 4,18.676 4,16 4,10.484 8.484,6 14,6 L 14,8 18,4 Z"/></g></g></g><g id="g1046" fill="#fff" transform="matrix(0.40625,0,0,0.40625,6.312499,1033.8622)"><g id="spin" fill="#fff"><g id="g1034" fill="#fff"><path id="path1036" fill="#fff" d="m 23.883,6.086 -2.82,2.832 C 22.953,10.809 24,13.324 24,16 24,21.516 19.516,26 14,26 l 0,-2 -4,4 4,4 0,-2 C 21.719,30 28,23.719 28,16 28,12.254 26.539,8.734 23.883,6.086 Z"/><path id="path1038" fill="#fff" d="M 18,4 14,0 14,2 C 6.281,2 0,8.281 0,16 c 0,3.746 1.461,7.266 4.117,9.914 l 2.82,-2.832 C 5.047,21.191 4,18.676 4,16 4,10.484 8.484,6 14,6 L 14,8 18,4 Z"/></g></g></g></g></svg>