<svg xmlns="http://www.w3.org/2000/svg" xmlns:svg="http://www.w3.org/2000/svg" xmlns:xlink="http://www.w3.org/1999/xlink" id="svg2" width="24" height="24" version="1.1"><defs id="defs4"><linearGradient id="linearGradient836" x1="-3.34" x2="-3.34" y1="1038.553" y2="1030.243" gradientTransform="matrix(2.1715905,0,0,2.1715905,19.342067,-1205.8388)" gradientUnits="userSpaceOnUse" xlink:href="#linearGradient830"/><linearGradient id="linearGradient830"><stop id="stop832" offset="0" stop-color="#de9506" stop-opacity="1"/><stop id="stop834" offset="1" stop-color="#f1ae0b" stop-opacity="1"/></linearGradient></defs><metadata id="metadata7"/><g id="layer1" transform="translate(0,-1028.3622)"><rect id="rect846" width="20" height="20" x="2" y="1030.362" fill="#000" fill-opacity=".094" stroke="none" ry="1.641"/><rect id="rect844" width="19.349" height="19.349" x="2.326" y="1030.688" fill="#000" fill-opacity=".176" stroke="none" ry="1.587"/><rect id="rect838" width="18.697" height="18.697" x="2.651" y="1031.014" fill="#000" fill-opacity=".353" stroke="none" ry="1.534"/><rect id="rect848" width="18.469" height="18.469" x="2.765" y="1031.128" fill="#000" fill-opacity=".427" stroke="none" ry="1.515"/><rect id="rect828-0" width="18.046" height="18.046" x="2.977" y="1031.339" fill="url(#linearGradient836)" fill-opacity="1" stroke="none" ry="1.481"/><g id="g928" fill="#000" fill-opacity=".067" transform="matrix(0.40625,0,0,0.40625,8.749999,1035.3919)"><g id="g932" fill="#000" fill-opacity=".067"><g id="g934" fill="#000" fill-opacity=".067"><path id="path936" fill="#000" fill-opacity=".067" d="m 2,16 c 1.105,0 2,0.895 2,2 l 0,8 c 0,1.105 -0.895,2 -2,2 l -2,0 0,4 16,0 0,-4 -1.992,0 c -1.102,0 -2,-0.895 -2,-2 L 12,12 0,12 0,16 2,16 Z"/><circle id="circle938" cx="8" cy="4" r="4" fill="#000" fill-opacity=".067" d="M 12,4 C 12,6.209139 10.209139,8 8,8 5.790861,8 4,6.209139 4,4 4,1.790861 5.790861,0 8,0 10.209139,0 12,1.790861 12,4 Z"/></g></g></g><g id="g940" fill="#000" fill-opacity=".137" transform="matrix(0.40625,0,0,0.40625,8.749999,1034.8596)"><g id="g944" fill="#000" fill-opacity=".137"><g id="g946" fill="#000" fill-opacity=".137"><path id="path948" fill="#000" fill-opacity=".137" d="m 2,16 c 1.105,0 2,0.895 2,2 l 0,8 c 0,1.105 -0.895,2 -2,2 l -2,0 0,4 16,0 0,-4 -1.992,0 c -1.102,0 -2,-0.895 -2,-2 L 12,12 0,12 0,16 2,16 Z"/><circle id="circle950" cx="8" cy="4" r="4" fill="#000" fill-opacity=".137" d="M 12,4 C 12,6.209139 10.209139,8 8,8 5.790861,8 4,6.209139 4,4 4,1.790861 5.790861,0 8,0 10.209139,0 12,1.790861 12,4 Z"/></g></g></g><g id="g952" fill="#000" fill-opacity=".275" transform="matrix(0.40625,0,0,0.40625,8.749999,1034.3272)"><g id="g956" fill="#000" fill-opacity=".275"><g id="g958" fill="#000" fill-opacity=".275"><path id="path960" fill="#000" fill-opacity=".275" d="m 2,16 c 1.105,0 2,0.895 2,2 l 0,8 c 0,1.105 -0.895,2 -2,2 l -2,0 0,4 16,0 0,-4 -1.992,0 c -1.102,0 -2,-0.895 -2,-2 L 12,12 0,12 0,16 2,16 Z"/><circle id="circle962" cx="8" cy="4" r="4" fill="#000" fill-opacity=".275" d="M 12,4 C 12,6.209139 10.209139,8 8,8 5.790861,8 4,6.209139 4,4 4,1.790861 5.790861,0 8,0 10.209139,0 12,1.790861 12,4 Z"/></g></g></g><g id="g920" fill="#fff" transform="matrix(0.40625,0,0,0.40625,8.749999,1033.8622)"><g id="info" fill="#fff"><g id="g908" fill="#fff"><path id="path910" fill="#fff" d="m 2,16 c 1.105,0 2,0.895 2,2 l 0,8 c 0,1.105 -0.895,2 -2,2 l -2,0 0,4 16,0 0,-4 -1.992,0 c -1.102,0 -2,-0.895 -2,-2 L 12,12 0,12 0,16 2,16 Z"/><circle id="circle912" cx="8" cy="4" r="4" fill="#fff" d="M 12,4 C 12,6.209139 10.209139,8 8,8 5.790861,8 4,6.209139 4,4 4,1.790861 5.790861,0 8,0 10.209139,0 12,1.790861 12,4 Z"/></g></g></g></g></svg>