<svg xmlns="http://www.w3.org/2000/svg" xmlns:svg="http://www.w3.org/2000/svg" xmlns:xlink="http://www.w3.org/1999/xlink" id="svg2" width="24" height="24" version="1.1"><defs id="defs4"><linearGradient id="linearGradient836" x1="-3.34" x2="-3.34" y1="1038.553" y2="1030.243" gradientTransform="matrix(2.1715905,0,0,2.1715905,19.342067,-1205.8388)" gradientUnits="userSpaceOnUse" xlink:href="#linearGradient830"/><linearGradient id="linearGradient830"><stop id="stop832" offset="0" stop-color="#007fc6" stop-opacity="1"/><stop id="stop834" offset="1" stop-color="#079af2" stop-opacity="1"/></linearGradient></defs><metadata id="metadata7"/><g id="layer1" transform="translate(0,-1028.3622)"><rect id="rect846" width="20" height="20" x="2" y="1030.362" fill="#000" fill-opacity=".094" stroke="none" ry="1.641"/><rect id="rect844" width="19.349" height="19.349" x="2.326" y="1030.688" fill="#000" fill-opacity=".176" stroke="none" ry="1.587"/><rect id="rect838" width="18.697" height="18.697" x="2.651" y="1031.014" fill="#000" fill-opacity=".353" stroke="none" ry="1.534"/><rect id="rect848" width="18.469" height="18.469" x="2.765" y="1031.128" fill="#000" fill-opacity=".427" stroke="none" ry="1.515"/><rect id="rect828" width="18.046" height="18.046" x="2.977" y="1031.339" fill="url(#linearGradient836)" fill-opacity="1" stroke="none" ry="1.481"/><g id="g4133" fill="#000" fill-opacity=".067" transform="matrix(0.43333333,0,0,0.43333333,1.6000001,596.26828)"><path id="path4135" fill="#000" fill-opacity=".067" stroke="none" d="M 9,22.371094 9,39 l 30,0 0,-16.628906 -7.5,5 -7.5,5 -7.5,-5 -7.5,-5 z" transform="translate(0,1004.3622)"/><path id="path4137" fill="#000" fill-opacity=".067" stroke="none" d="M 14,9 14,22.695312 24,29.369141 34,22.695312 34,9 14,9 Z m 2,2 16,0 0,3 -16,0 0,-3 z m 0,5 16,0 0,3 -16,0 0,-3 z" transform="translate(0,1004.3622)"/></g><g id="g4127" fill="#000" fill-opacity=".137" transform="matrix(0.43333333,0,0,0.43333333,1.6000001,595.73598)"><path id="path4129" fill="#000" fill-opacity=".137" stroke="none" d="M 9,22.371094 9,39 l 30,0 0,-16.628906 -7.5,5 -7.5,5 -7.5,-5 -7.5,-5 z" transform="translate(0,1004.3622)"/><path id="path4131" fill="#000" fill-opacity=".137" stroke="none" d="M 14,9 14,22.695312 24,29.369141 34,22.695312 34,9 14,9 Z m 2,2 16,0 0,3 -16,0 0,-3 z m 0,5 16,0 0,3 -16,0 0,-3 z" transform="translate(0,1004.3622)"/></g><g id="g3321" fill="#000" fill-opacity=".275" transform="matrix(0.43333333,0,0,0.43333333,1.6000001,595.20358)"><path id="path3323" fill="#000" fill-opacity=".275" stroke="none" d="M 9,22.371094 9,39 l 30,0 0,-16.628906 -7.5,5 -7.5,5 -7.5,-5 -7.5,-5 z" transform="translate(0,1004.3622)"/><path id="path3325" fill="#000" fill-opacity=".275" stroke="none" d="M 14,9 14,22.695312 24,29.369141 34,22.695312 34,9 14,9 Z m 2,2 16,0 0,3 -16,0 0,-3 z m 0,5 16,0 0,3 -16,0 0,-3 z" transform="translate(0,1004.3622)"/></g><g id="layer1-4" fill="#fff" transform="matrix(0.43333333,0,0,0.43333333,1.6000001,594.73858)"><path id="rect3241" fill="#fff" fill-opacity="1" stroke="none" d="M 9,22.371094 9,39 l 30,0 0,-16.628906 -7.5,5 -7.5,5 -7.5,-5 -7.5,-5 z" transform="translate(0,1004.3622)"/><path id="rect3243" fill="#fff" fill-opacity="1" stroke="none" d="M 14,9 14,22.695312 24,29.369141 34,22.695312 34,9 14,9 Z m 2,2 16,0 0,3 -16,0 0,-3 z m 0,5 16,0 0,3 -16,0 0,-3 z" transform="translate(0,1004.3622)"/></g></g></svg>