<svg xmlns="http://www.w3.org/2000/svg" xmlns:svg="http://www.w3.org/2000/svg" xmlns:xlink="http://www.w3.org/1999/xlink" id="svg2" width="24" height="24" version="1.1"><defs id="defs4"><linearGradient id="linearGradient836" x1="-3.34" x2="-3.34" y1="1038.553" y2="1030.243" gradientTransform="matrix(2.1715905,0,0,2.1715905,19.342067,-1205.8388)" gradientUnits="userSpaceOnUse" xlink:href="#linearGradient830"/><linearGradient id="linearGradient830"><stop id="stop832" offset="0" stop-color="#007fc6" stop-opacity="1"/><stop id="stop834" offset="1" stop-color="#079af2" stop-opacity="1"/></linearGradient></defs><metadata id="metadata7"/><g id="layer1" transform="translate(0,-1028.3622)"><rect id="rect846" width="20" height="20" x="2" y="1030.362" fill="#000" fill-opacity=".094" stroke="none" ry="1.641"/><rect id="rect844" width="19.349" height="19.349" x="2.326" y="1030.688" fill="#000" fill-opacity=".176" stroke="none" ry="1.587"/><rect id="rect838" width="18.697" height="18.697" x="2.651" y="1031.014" fill="#000" fill-opacity=".353" stroke="none" ry="1.534"/><rect id="rect848" width="18.469" height="18.469" x="2.765" y="1031.128" fill="#000" fill-opacity=".427" stroke="none" ry="1.515"/><rect id="rect828" width="18.046" height="18.046" x="2.977" y="1031.339" fill="url(#linearGradient836)" fill-opacity="1" stroke="none" ry="1.481"/><g id="g919" fill="#000" fill-opacity=".067" transform="matrix(0.40625,0,0,0.40625,5.499999,1035.3919)"><g id="g923" fill="#000" fill-opacity=".067"><g id="g925" fill="#000" fill-opacity=".067"><rect id="rect927" width="32" height="20" x="0" y="12" fill="#000" fill-opacity=".067"/><polygon id="polygon929" fill="#000" fill-opacity=".067" points="32 8 28 0 18 0 18 8"/><polygon id="polygon931" fill="#000" fill-opacity=".067" points="4 0 0 8 14 8 14 0"/></g></g></g><g id="g933" fill="#000" fill-opacity=".137" transform="matrix(0.40625,0,0,0.40625,5.499999,1034.8596)"><g id="g937" fill="#000" fill-opacity=".137"><g id="g939" fill="#000" fill-opacity=".137"><rect id="rect941" width="32" height="20" x="0" y="12" fill="#000" fill-opacity=".137"/><polygon id="polygon943" fill="#000" fill-opacity=".137" points="28 0 18 0 18 8 32 8"/><polygon id="polygon945" fill="#000" fill-opacity=".137" points="0 8 14 8 14 0 4 0"/></g></g></g><g id="g947" fill="#000" fill-opacity=".275" transform="matrix(0.40625,0,0,0.40625,5.499999,1034.3272)"><g id="g951" fill="#000" fill-opacity=".275"><g id="g953" fill="#000" fill-opacity=".275"><rect id="rect955" width="32" height="20" x="0" y="12" fill="#000" fill-opacity=".275"/><polygon id="polygon957" fill="#000" fill-opacity=".275" points="18 0 18 8 32 8 28 0"/><polygon id="polygon959" fill="#000" fill-opacity=".275" points="14 8 14 0 4 0 0 8"/></g></g></g><g id="g890" fill="#fff" transform="matrix(0.40625,0,0,0.40625,5.499999,1033.8622)"><g id="box" fill="#fff"><g id="g876" fill="#fff"><rect id="rect878" width="32" height="20" x="0" y="12" fill="#fff"/><polygon id="polygon880" fill="#fff" points="18 8 32 8 28 0 18 0"/><polygon id="polygon882" fill="#fff" points="14 0 4 0 0 8 14 8"/></g></g></g></g></svg>