<svg xmlns="http://www.w3.org/2000/svg" xmlns:svg="http://www.w3.org/2000/svg" xmlns:xlink="http://www.w3.org/1999/xlink" id="svg2" width="24" height="24" version="1.1"><defs id="defs4"><linearGradient id="linearGradient836" x1="-3.34" x2="-3.34" y1="1038.553" y2="1030.243" gradientTransform="matrix(2.1715905,0,0,2.1715905,19.342067,-1205.8388)" gradientUnits="userSpaceOnUse" xlink:href="#linearGradient830"/><linearGradient id="linearGradient830"><stop id="stop832" offset="0" stop-color="#af3031" stop-opacity="1"/><stop id="stop834" offset="1" stop-color="#ce4e50" stop-opacity="1"/></linearGradient></defs><metadata id="metadata7"/><g id="layer1" transform="translate(0,-1028.3622)"><g id="g828" fill="#000" fill-opacity=".059" transform="matrix(0.40625,0,0,0.40625,5.5,1035.3919)"><g id="g832" fill="#000" fill-opacity=".059"><path id="path834" fill="#000" fill-opacity=".059" d="M 16,0 C 7.164,0 0,7.164 0,16 0,24.836 7.164,32 16,32 24.836,32 32,24.836 32,16 32,7.164 24.836,0 16,0 z m 0,4 c 2.59,0 4.973,0.844 6.934,2.242 L 6.238,22.93 C 4.84,20.969 4,18.586 4,16 4,9.383 9.383,4 16,4 z m 0,24 C 13.41,28 11.027,27.156 9.066,25.758 L 25.762,9.07 C 27.16,11.031 28,13.414 28,16 28,22.617 22.617,28 16,28 Z"/></g></g><rect id="rect846" width="20" height="20" x="2" y="1030.362" fill="#000" fill-opacity=".094" stroke="none" ry="1.641"/><rect id="rect844" width="19.349" height="19.349" x="2.326" y="1030.688" fill="#000" fill-opacity=".176" stroke="none" ry="1.587"/><rect id="rect838" width="18.697" height="18.697" x="2.651" y="1031.014" fill="#000" fill-opacity=".353" stroke="none" ry="1.534"/><rect id="rect848" width="18.469" height="18.469" x="2.765" y="1031.128" fill="#000" fill-opacity=".427" stroke="none" ry="1.515"/><rect id="rect828" width="18.046" height="18.046" x="2.977" y="1031.339" fill="url(#linearGradient836)" fill-opacity="1" stroke="none" ry="1.481"/><g id="g877" fill="#000" fill-opacity=".137" transform="matrix(0.40625,0,0,0.40625,5.5,1034.8596)"><g id="g881" fill="#000" fill-opacity=".137"><path id="path883" fill="#000" fill-opacity=".137" d="M 16,0 C 7.164,0 0,7.164 0,16 0,24.836 7.164,32 16,32 24.836,32 32,24.836 32,16 32,7.164 24.836,0 16,0 z m 0,4 c 2.59,0 4.973,0.844 6.934,2.242 L 6.238,22.93 C 4.84,20.969 4,18.586 4,16 4,9.383 9.383,4 16,4 z m 0,24 C 13.41,28 11.027,27.156 9.066,25.758 L 25.762,9.07 C 27.16,11.031 28,13.414 28,16 28,22.617 22.617,28 16,28 Z"/></g></g><g id="g885" fill="#000" fill-opacity=".275" transform="matrix(0.40625,0,0,0.40625,5.5,1034.3272)"><g id="g889" fill="#000" fill-opacity=".275"><path id="path891" fill="#000" fill-opacity=".275" d="M 16,0 C 7.164,0 0,7.164 0,16 0,24.836 7.164,32 16,32 24.836,32 32,24.836 32,16 32,7.164 24.836,0 16,0 z m 0,4 c 2.59,0 4.973,0.844 6.934,2.242 L 6.238,22.93 C 4.84,20.969 4,18.586 4,16 4,9.383 9.383,4 16,4 z m 0,24 C 13.41,28 11.027,27.156 9.066,25.758 L 25.762,9.07 C 27.16,11.031 28,13.414 28,16 28,22.617 22.617,28 16,28 Z"/></g></g><g id="g823" fill="#fff" transform="matrix(0.40625,0,0,0.40625,5.5,1033.8622)"><g id="denied" fill="#fff"><path id="path815" fill="#fff" d="M 16,0 C 7.164,0 0,7.164 0,16 0,24.836 7.164,32 16,32 24.836,32 32,24.836 32,16 32,7.164 24.836,0 16,0 z m 0,4 c 2.59,0 4.973,0.844 6.934,2.242 L 6.238,22.93 C 4.84,20.969 4,18.586 4,16 4,9.383 9.383,4 16,4 z m 0,24 C 13.41,28 11.027,27.156 9.066,25.758 L 25.762,9.07 C 27.16,11.031 28,13.414 28,16 28,22.617 22.617,28 16,28 Z"/></g></g></g></svg>