<svg xmlns="http://www.w3.org/2000/svg" xmlns:svg="http://www.w3.org/2000/svg" xmlns:xlink="http://www.w3.org/1999/xlink" id="svg2" width="24" height="24" version="1.1"><defs id="defs4"><linearGradient id="linearGradient836" x1="-3.34" x2="-3.34" y1="1038.553" y2="1030.243" gradientTransform="matrix(2.1715905,0,0,2.1715905,19.342067,-1205.8388)" gradientUnits="userSpaceOnUse" xlink:href="#linearGradient830"/><linearGradient id="linearGradient830"><stop id="stop832" offset="0" stop-color="#007fc6" stop-opacity="1"/><stop id="stop834" offset="1" stop-color="#079af2" stop-opacity="1"/></linearGradient></defs><metadata id="metadata7"/><g id="layer1" transform="translate(0,-1028.3622)"><rect id="rect846" width="20" height="20" x="2" y="1030.362" fill="#000" fill-opacity=".094" stroke="none" ry="1.641"/><rect id="rect844" width="19.349" height="19.349" x="2.326" y="1030.688" fill="#000" fill-opacity=".176" stroke="none" ry="1.587"/><rect id="rect838" width="18.697" height="18.697" x="2.651" y="1031.014" fill="#000" fill-opacity=".353" stroke="none" ry="1.534"/><rect id="rect848" width="18.469" height="18.469" x="2.765" y="1031.128" fill="#000" fill-opacity=".427" stroke="none" ry="1.515"/><rect id="rect828" width="18.046" height="18.046" x="2.977" y="1031.339" fill="url(#linearGradient836)" fill-opacity="1" stroke="none" ry="1.481"/><path id="path4123" fill="#000" fill-opacity=".059" fill-rule="nonzero" stroke="none" d="m 16.274005,1041.3363 -7.6493494,-5.7461 c -0.676009,-0.444 -1.2286217,-0.1167 -1.2286217,0.7263 l 0,11.1535 c 0,0.8403 0.5526128,1.1676 1.2286217,0.7236 l 7.6493494,-5.7461 c 0,0 0.329959,-0.2314 0.329959,-0.5546 0,-0.3246 -0.329959,-0.5566 -0.329959,-0.5566"/><path id="path4125" fill="#000" fill-opacity=".137" fill-rule="nonzero" stroke="none" d="m 16.274005,1040.804 -7.6493494,-5.7461 c -0.676009,-0.444 -1.2286217,-0.1167 -1.2286217,0.7263 l 0,11.1535 c 0,0.8403 0.5526128,1.1676 1.2286217,0.7236 l 7.6493494,-5.7461 c 0,0 0.329959,-0.2314 0.329959,-0.5546 0,-0.3246 -0.329959,-0.5566 -0.329959,-0.5566"/><path id="path4127" fill="#000" fill-opacity=".275" fill-rule="nonzero" stroke="none" d="m 16.274005,1040.2716 -7.6493494,-5.7461 c -0.676009,-0.444 -1.2286217,-0.1167 -1.2286217,0.7263 l 0,11.1535 c 0,0.8403 0.5526128,1.1676 1.2286217,0.7236 l 7.6493494,-5.7461 c 0,0 0.329959,-0.2314 0.329959,-0.5546 0,-0.3246 -0.329959,-0.5566 -0.329959,-0.5566"/><path id="path500" fill="#fff" fill-opacity="1" fill-rule="nonzero" stroke="none" d="m 16.274005,1039.8066 -7.6493494,-5.7461 c -0.676009,-0.444 -1.2286217,-0.1167 -1.2286217,0.7263 l 0,11.1535 c 0,0.8403 0.5526128,1.1676 1.2286217,0.7236 l 7.6493494,-5.7461 c 0,0 0.329959,-0.2314 0.329959,-0.5546 0,-0.3246 -0.329959,-0.5566 -0.329959,-0.5566"/></g></svg>