<svg xmlns="http://www.w3.org/2000/svg" xmlns:svg="http://www.w3.org/2000/svg" xmlns:xlink="http://www.w3.org/1999/xlink" id="svg2" width="24" height="24" version="1.1"><defs id="defs4"><linearGradient id="linearGradient836" x1="-3.34" x2="-3.34" y1="1038.553" y2="1030.243" gradientTransform="matrix(2.1715905,0,0,2.1715905,19.342067,-1205.8388)" gradientUnits="userSpaceOnUse" xlink:href="#linearGradient830-5"/><linearGradient id="linearGradient830-5"><stop id="stop832-5" offset="0" stop-color="#1a1a1a" stop-opacity="1"/><stop id="stop834-8" offset="1" stop-color="#4d4d4d" stop-opacity="1"/></linearGradient></defs><metadata id="metadata7"/><g id="layer1" transform="translate(0,-1028.3622)"><rect id="rect846" width="20" height="20" x="2" y="1030.362" fill="#000" fill-opacity=".094" stroke="none" ry="1.641"/><rect id="rect844" width="19.349" height="19.349" x="2.326" y="1030.688" fill="#000" fill-opacity=".176" stroke="none" ry="1.587"/><rect id="rect838" width="18.697" height="18.697" x="2.651" y="1031.014" fill="#000" fill-opacity=".353" stroke="none" ry="1.534"/><rect id="rect848" width="18.469" height="18.469" x="2.765" y="1031.128" fill="#000" fill-opacity=".427" stroke="none" ry="1.515"/><rect id="rect828" width="18.046" height="18.046" x="2.977" y="1031.339" fill="url(#linearGradient836)" fill-opacity="1" stroke="none" ry="1.481"/><g id="g877" fill="#000" fill-opacity=".067" transform="matrix(0.10545013,-0.39354527,-0.39354527,-0.10545013,14.621165,1049.673)"><g id="g881" fill="#000" fill-opacity=".067"><path id="path883" fill="#000" fill-opacity=".067" d="M 28,14 C 28,6.27 21.73,0 14,0 6.27,0 0,6.27 0,14 0,8.477 4.477,4 10,4 15.523,4 20,8.477 20,14 l 0,2 -4,0 8,8 8,-8 -4,0 L 28,14 Z"/></g></g><g id="g885" fill="#000" fill-opacity=".138" transform="matrix(0.10545013,-0.39354527,-0.39354527,-0.10545013,14.621165,1049.1407)"><g id="g889" fill="#000" fill-opacity=".138"><path id="path891" fill="#000" fill-opacity=".138" d="M 28,14 C 28,6.27 21.73,0 14,0 6.27,0 0,6.27 0,14 0,8.477 4.477,4 10,4 15.523,4 20,8.477 20,14 l 0,2 -4,0 8,8 8,-8 -4,0 L 28,14 Z"/></g></g><g id="g869" fill="#000" fill-opacity=".275" transform="matrix(0.10545013,-0.39354527,-0.39354527,-0.10545013,14.621165,1048.6083)"><g id="g873" fill="#000" fill-opacity=".275"><path id="path875" fill="#000" fill-opacity=".275" d="M 28,14 C 28,6.27 21.73,0 14,0 6.27,0 0,6.27 0,14 0,8.477 4.477,4 10,4 15.523,4 20,8.477 20,14 l 0,2 -4,0 8,8 8,-8 -4,0 L 28,14 Z"/></g></g><g id="g864" fill="#fff" transform="matrix(0.10545013,-0.39354527,-0.39354527,-0.10545013,14.621165,1048.1429)"><g id="curved_x5F_arrow" fill="#fff"><path id="path856" fill="#fff" d="M 28,14 C 28,6.27 21.73,0 14,0 6.27,0 0,6.27 0,14 0,8.477 4.477,4 10,4 15.523,4 20,8.477 20,14 l 0,2 -4,0 8,8 8,-8 -4,0 L 28,14 Z"/></g></g></g></svg>