<svg xmlns="http://www.w3.org/2000/svg" xmlns:svg="http://www.w3.org/2000/svg" xmlns:xlink="http://www.w3.org/1999/xlink" id="svg2" width="24" height="24" version="1.1"><defs id="defs4"><linearGradient id="linearGradient836" x1="-3.34" x2="-3.34" y1="1038.553" y2="1030.243" gradientTransform="matrix(2.1715905,0,0,2.1715905,19.342067,-1205.8388)" gradientUnits="userSpaceOnUse" xlink:href="#linearGradient830"/><linearGradient id="linearGradient830"><stop id="stop832" offset="0" stop-color="#80b22e" stop-opacity="1"/><stop id="stop834" offset="1" stop-color="#aee063" stop-opacity="1"/></linearGradient></defs><metadata id="metadata7"/><g id="layer1" transform="translate(0,-1028.3622)"><path id="path4105" fill="#000" fill-opacity=".067" stroke-linejoin="round" stroke-width=".2" d="m 10.749999,1035.3919 c 2.99999,1 -0.499988,1.5 1.250017,3 l 3.499978,0 0,3.4999 c 1.499995,1.75 1.999983,-1.7499 2.99999,1.2501 -1.000007,2.9999 -1.499995,-0.5 -2.99999,1.25 l 0,4 -3.499978,0 c -1.750005,-1.5 1.749973,-2.0001 -1.250017,-3 -2.99999,0.9999 0.500019,1.5 -1.249985,3 l -3.999998,0 0,-4 c 1.499995,-1.75 2.000015,1.7499 2.99999,-1.25 -0.999975,-3 -1.499995,0.4999 -2.99999,-1.2501 l 0,-3.4999 3.999998,0 c 1.749973,-1.5 -1.750005,-2 1.249985,-3 z"/><rect id="rect846" width="20" height="20" x="2" y="1030.362" fill="#000" fill-opacity=".094" stroke="none" ry="1.641"/><rect id="rect844" width="19.349" height="19.349" x="2.326" y="1030.688" fill="#000" fill-opacity=".176" stroke="none" ry="1.587"/><rect id="rect838" width="18.697" height="18.697" x="2.651" y="1031.014" fill="#000" fill-opacity=".353" stroke="none" ry="1.534"/><rect id="rect848" width="18.469" height="18.469" x="2.765" y="1031.128" fill="#000" fill-opacity=".427" stroke="none" ry="1.515"/><rect id="rect828" width="18.046" height="18.046" x="2.977" y="1031.339" fill="url(#linearGradient836)" fill-opacity="1" stroke="none" ry="1.481"/><path id="path4103" fill="#000" fill-opacity=".137" stroke-linejoin="round" stroke-width=".2" d="m 10.749999,1034.8596 c 2.99999,1 -0.499988,1.5 1.250017,3 l 3.499978,0 0,3.4999 c 1.499995,1.75 1.999983,-1.7499 2.99999,1.2501 -1.000007,2.9999 -1.499995,-0.5 -2.99999,1.25 l 0,4 -3.499978,0 c -1.750005,-1.5 1.749973,-2.0001 -1.250017,-3 -2.99999,0.9999 0.500019,1.5 -1.249985,3 l -3.999998,0 0,-4 c 1.499995,-1.75 2.000015,1.7499 2.99999,-1.25 -0.999975,-3 -1.499995,0.4999 -2.99999,-1.2501 l 0,-3.4999 3.999998,0 c 1.749973,-1.5 -1.750005,-2 1.249985,-3 z"/><path id="path3301" fill="#000" fill-opacity=".275" stroke-linejoin="round" stroke-width=".2" d="m 10.749999,1034.3272 c 2.99999,1 -0.499988,1.5 1.250017,3 l 3.499978,0 0,3.4999 c 1.499995,1.75 1.999983,-1.7499 2.99999,1.2501 -1.000007,2.9999 -1.499995,-0.5 -2.99999,1.25 l 0,4 -3.499978,0 c -1.750005,-1.5 1.749973,-2.0001 -1.250017,-3 -2.99999,0.9999 0.500019,1.5 -1.249985,3 l -3.999998,0 0,-4 c 1.499995,-1.75 2.000015,1.7499 2.99999,-1.25 -0.999975,-3 -1.499995,0.4999 -2.99999,-1.2501 l 0,-3.4999 3.999998,0 c 1.749973,-1.5 -1.750005,-2 1.249985,-3 z"/><path id="path3292" fill="#fff" fill-opacity="1" stroke-linejoin="round" stroke-width=".2" d="m 10.749999,1033.8622 c 2.99999,1 -0.499988,1.5 1.250017,3 l 3.499978,0 0,3.4999 c 1.499995,1.75 1.999983,-1.7499 2.99999,1.2501 -1.000007,2.9999 -1.499995,-0.5 -2.99999,1.25 l 0,4 -3.499978,0 c -1.750005,-1.5 1.749973,-2.0001 -1.250017,-3 -2.99999,0.9999 0.500019,1.5 -1.249985,3 l -3.999998,0 0,-4 c 1.499995,-1.75 2.000015,1.7499 2.99999,-1.25 -0.999975,-3 -1.499995,0.4999 -2.99999,-1.2501 l 0,-3.4999 3.999998,0 c 1.749973,-1.5 -1.750005,-2 1.249985,-3 z"/></g></svg>