<svg xmlns="http://www.w3.org/2000/svg" xmlns:svg="http://www.w3.org/2000/svg" xmlns:xlink="http://www.w3.org/1999/xlink" id="svg2" width="24" height="24" version="1.1"><defs id="defs4"><linearGradient id="linearGradient836" x1="-3.34" x2="-3.34" y1="1038.553" y2="1030.243" gradientTransform="matrix(2.1715905,0,0,2.1715905,19.342067,-1205.8388)" gradientUnits="userSpaceOnUse" xlink:href="#linearGradient830"/><linearGradient id="linearGradient830"><stop id="stop832" offset="0" stop-color="#007fc6" stop-opacity="1"/><stop id="stop834" offset="1" stop-color="#079af2" stop-opacity="1"/></linearGradient></defs><metadata id="metadata7"/><g id="layer1" transform="translate(0,-1028.3622)"><rect id="rect846" width="20" height="20" x="2" y="1030.362" fill="#000" fill-opacity=".094" stroke="none" ry="1.641"/><rect id="rect844" width="19.349" height="19.349" x="2.326" y="1030.688" fill="#000" fill-opacity=".176" stroke="none" ry="1.587"/><rect id="rect838" width="18.697" height="18.697" x="2.651" y="1031.014" fill="#000" fill-opacity=".353" stroke="none" ry="1.534"/><rect id="rect848" width="18.469" height="18.469" x="2.765" y="1031.128" fill="#000" fill-opacity=".427" stroke="none" ry="1.515"/><rect id="rect828" width="18.046" height="18.046" x="2.977" y="1031.339" fill="url(#linearGradient836)" fill-opacity="1" stroke="none" ry="1.481"/><path id="path4100" fill="#000" fill-opacity=".067" fill-rule="nonzero" stroke="none" d="m 8.8647806,1035.3937 c -0.425154,0.013 -0.849446,0.1057 -1.247805,0.2721 l 2.101566,2.1015 c 0.193669,0.1937 0.193668,0.51 0,0.7037 l -1.172749,1.1727 c -0.193668,0.1937 -0.509981,0.1937 -0.703649,0 l -2.110949,-2.1109 c -0.537323,1.2766 -0.279892,2.8068 0.759942,3.8466 1.371144,1.3712 3.5825474,1.3712 4.9536924,0 1.371143,-1.3711 1.380525,-3.5919 0.0094,-4.9631 C 10.741047,1035.7031 9.8001196,1035.3638 8.8647806,1035.3937 z m 4.2406604,5.4885 c -0.395397,0 -0.785338,0.1567 -1.088312,0.4597 l -0.516008,0.516 c -0.605948,0.6059 -0.605948,1.58 0,2.186 l 3.884144,3.8935 c 0.605948,0.606 1.580057,0.606 2.186004,0 l 0.51601,-0.5254 c 0.605948,-0.6059 0.605948,-1.58 0,-2.186 l -3.884145,-3.8841 C 13.90016,1041.0389 13.500837,1040.8822 13.105441,1040.8822 z m 3.358753,4.6722 c 0.193774,0 0.387591,0.078 0.534774,0.2252 0.294364,0.2943 0.284982,0.7658 -0.0094,1.0601 -0.294365,0.2944 -0.765801,0.2944 -1.060165,0 -0.294365,-0.2943 -0.294365,-0.7658 0,-1.0601 C 16.076603,1045.6324 16.27042,1045.5544 16.464194,1045.5544 Z"/><path id="path4102" fill="#000" fill-opacity=".137" fill-rule="nonzero" stroke="none" d="m 8.8647806,1034.8614 c -0.425154,0.013 -0.849446,0.1057 -1.247805,0.2721 l 2.101566,2.1015 c 0.193669,0.1937 0.193668,0.51 0,0.7037 l -1.172749,1.1727 c -0.193668,0.1937 -0.509981,0.1937 -0.703649,0 l -2.110949,-2.1109 c -0.537323,1.2766 -0.279892,2.8068 0.759942,3.8466 1.371144,1.3712 3.5825474,1.3712 4.9536924,0 1.371143,-1.3711 1.380525,-3.5919 0.0094,-4.9631 C 10.741047,1035.1708 9.8001196,1034.8315 8.8647806,1034.8614 z m 4.2406604,5.4885 c -0.395397,0 -0.785338,0.1567 -1.088312,0.4597 l -0.516008,0.516 c -0.605948,0.6059 -0.605948,1.58 0,2.186 l 3.884144,3.8935 c 0.605948,0.606 1.580057,0.606 2.186004,0 l 0.51601,-0.5254 c 0.605948,-0.6059 0.605948,-1.58 0,-2.186 l -3.884145,-3.8841 C 13.90016,1040.5066 13.500837,1040.3499 13.105441,1040.3499 z m 3.358753,4.6722 c 0.193774,0 0.387591,0.078 0.534774,0.2252 0.294364,0.2943 0.284982,0.7658 -0.0094,1.0601 -0.294365,0.2944 -0.765801,0.2944 -1.060165,0 -0.294365,-0.2943 -0.294365,-0.7658 0,-1.0601 C 16.076603,1045.1001 16.27042,1045.0221 16.464194,1045.0221 Z"/><path id="path4104" fill="#000" fill-opacity=".275" fill-rule="nonzero" stroke="none" d="m 8.8647806,1034.329 c -0.425154,0.013 -0.849446,0.1057 -1.247805,0.2721 l 2.101566,2.1015 c 0.193669,0.1937 0.193668,0.51 0,0.7037 l -1.172749,1.1727 c -0.193668,0.1937 -0.509981,0.1937 -0.703649,0 l -2.110949,-2.1109 c -0.537323,1.2766 -0.279892,2.8068 0.759942,3.8466 1.371144,1.3712 3.5825474,1.3712 4.9536924,0 1.371143,-1.3711 1.380525,-3.5919 0.0094,-4.9631 C 10.741047,1034.6384 9.8001196,1034.2991 8.8647806,1034.329 z m 4.2406604,5.4885 c -0.395397,0 -0.785338,0.1567 -1.088312,0.4597 l -0.516008,0.516 c -0.605948,0.6059 -0.605948,1.58 0,2.186 l 3.884144,3.8935 c 0.605948,0.606 1.580057,0.606 2.186004,0 l 0.51601,-0.5254 c 0.605948,-0.6059 0.605948,-1.58 0,-2.186 l -3.884145,-3.8841 C 13.90016,1039.9742 13.500837,1039.8175 13.105441,1039.8175 z m 3.358753,4.6722 c 0.193774,0 0.387591,0.078 0.534774,0.2252 0.294364,0.2943 0.284982,0.7658 -0.0094,1.0601 -0.294365,0.2944 -0.765801,0.2944 -1.060165,0 -0.294365,-0.2943 -0.294365,-0.7658 0,-1.0601 C 16.076603,1044.5677 16.27042,1044.4897 16.464194,1044.4897 Z"/><path id="path4096" fill="#fff" fill-opacity="1" fill-rule="nonzero" stroke="none" d="m 8.8647806,1033.864 c -0.425154,0.013 -0.849446,0.1057 -1.247805,0.2721 l 2.101566,2.1015 c 0.193669,0.1937 0.193668,0.51 0,0.7037 l -1.172749,1.1727 c -0.193668,0.1937 -0.509981,0.1937 -0.703649,0 l -2.110949,-2.1109 c -0.537323,1.2766 -0.279892,2.8068 0.759942,3.8466 1.371144,1.3712 3.5825474,1.3712 4.9536924,0 1.371143,-1.3711 1.380525,-3.5919 0.0094,-4.9631 C 10.741047,1034.1734 9.8001196,1033.8341 8.8647806,1033.864 z m 4.2406604,5.4885 c -0.395397,0 -0.785338,0.1567 -1.088312,0.4597 l -0.516008,0.516 c -0.605948,0.6059 -0.605948,1.58 0,2.186 l 3.884144,3.8935 c 0.605948,0.606 1.580057,0.606 2.186004,0 l 0.51601,-0.5254 c 0.605948,-0.6059 0.605948,-1.58 0,-2.186 l -3.884145,-3.8841 C 13.90016,1039.5092 13.500837,1039.3525 13.105441,1039.3525 z m 3.358753,4.6722 c 0.193774,0 0.387591,0.078 0.534774,0.2252 0.294364,0.2943 0.284982,0.7658 -0.0094,1.0601 -0.294365,0.2944 -0.765801,0.2944 -1.060165,0 -0.294365,-0.2943 -0.294365,-0.7658 0,-1.0601 C 16.076603,1044.1027 16.27042,1044.0247 16.464194,1044.0247 Z"/></g></svg>