<svg xmlns="http://www.w3.org/2000/svg" xmlns:svg="http://www.w3.org/2000/svg" xmlns:xlink="http://www.w3.org/1999/xlink" id="svg2" width="24" height="24" version="1.1"><defs id="defs4"><linearGradient id="linearGradient836" x1="-3.34" x2="-3.34" y1="1038.553" y2="1030.243" gradientTransform="matrix(2.1715905,0,0,2.1715905,19.342067,-1205.8388)" gradientUnits="userSpaceOnUse" xlink:href="#linearGradient830"/><linearGradient id="linearGradient830"><stop id="stop832" offset="0" stop-color="#80b22e" stop-opacity="1"/><stop id="stop834" offset="1" stop-color="#aee063" stop-opacity="1"/></linearGradient></defs><metadata id="metadata7"/><g id="layer1" transform="translate(0,-1028.3622)"><rect id="rect846" width="20" height="20" x="2" y="1030.362" fill="#000" fill-opacity=".094" stroke="none" ry="1.641"/><rect id="rect844" width="19.349" height="19.349" x="2.326" y="1030.688" fill="#000" fill-opacity=".176" stroke="none" ry="1.587"/><rect id="rect838" width="18.697" height="18.697" x="2.651" y="1031.014" fill="#000" fill-opacity=".353" stroke="none" ry="1.534"/><rect id="rect848" width="18.469" height="18.469" x="2.765" y="1031.128" fill="#000" fill-opacity=".427" stroke="none" ry="1.515"/><rect id="rect828" width="18.046" height="18.046" x="2.977" y="1031.339" fill="url(#linearGradient836)" fill-opacity="1" stroke="none" ry="1.481"/><path id="path4065" fill="#000" fill-opacity=".067" fill-rule="nonzero" stroke="none" d="m 11.999914,1046.5347 c 2.051571,0 3.714383,-1.6628 3.714383,-3.7144 0,-2.0512 -1.662812,-3.7142 -3.714383,-3.7142 -2.0510563,0 -3.7142133,1.663 -3.7142133,3.7142 C 8.2857007,1044.8719 9.9488587,1046.5347 11.999914,1046.5347 z m 7.428767,-8.3571 0,9.2858 c 0,0.5127 -0.415789,0.9285 -0.928682,0.9285 l -13.0000003,0 c -0.512721,0 -0.928682,-0.4158 -0.928682,-0.9285 l 0,-9.2858 c 0,-0.5129 0.415961,-0.9287 0.928682,-0.9287 l 2.211862,0 0.671805,-1.3438 c 0.157363,-0.3147 0.478975,-0.5132 0.830545,-0.5132 l 5.5714063,0 c 0.351912,0 0.673354,0.1985 0.830717,0.5132 l 0.671978,1.3438 2.211687,0 c 0.512894,0 0.928682,0.4158 0.928682,0.9287"/><path id="path4067" fill="#000" fill-opacity=".137" fill-rule="nonzero" stroke="none" d="m 11.999914,1046.0024 c 2.051571,0 3.714383,-1.6628 3.714383,-3.7144 0,-2.0512 -1.662812,-3.7142 -3.714383,-3.7142 -2.0510563,0 -3.7142133,1.663 -3.7142133,3.7142 C 8.2857007,1044.3396 9.9488587,1046.0024 11.999914,1046.0024 z m 7.428767,-8.3571 0,9.2858 c 0,0.5127 -0.415789,0.9285 -0.928682,0.9285 l -13.0000003,0 c -0.512721,0 -0.928682,-0.4158 -0.928682,-0.9285 l 0,-9.2858 c 0,-0.5129 0.415961,-0.9287 0.928682,-0.9287 l 2.211862,0 0.671805,-1.3438 c 0.157363,-0.3147 0.478975,-0.5132 0.830545,-0.5132 l 5.5714063,0 c 0.351912,0 0.673354,0.1985 0.830717,0.5132 l 0.671978,1.3438 2.211687,0 c 0.512894,0 0.928682,0.4158 0.928682,0.9287"/><path id="path4069" fill="#000" fill-opacity=".275" fill-rule="nonzero" stroke="none" d="m 11.999914,1045.47 c 2.051571,0 3.714383,-1.6628 3.714383,-3.7144 0,-2.0512 -1.662812,-3.7142 -3.714383,-3.7142 -2.0510563,0 -3.7142133,1.663 -3.7142133,3.7142 C 8.2857007,1043.8072 9.9488587,1045.47 11.999914,1045.47 z m 7.428767,-8.3571 0,9.2858 c 0,0.5127 -0.415789,0.9285 -0.928682,0.9285 l -13.0000003,0 c -0.512721,0 -0.928682,-0.4158 -0.928682,-0.9285 l 0,-9.2858 c 0,-0.5129 0.415961,-0.9287 0.928682,-0.9287 l 2.211862,0 0.671805,-1.3438 c 0.157363,-0.3147 0.478975,-0.5132 0.830545,-0.5132 l 5.5714063,0 c 0.351912,0 0.673354,0.1985 0.830717,0.5132 l 0.671978,1.3438 2.211687,0 c 0.512894,0 0.928682,0.4158 0.928682,0.9287"/><path id="path282" fill="#fff" fill-opacity="1" fill-rule="nonzero" stroke="none" d="m 11.999914,1045.005 c 2.051571,0 3.714383,-1.6628 3.714383,-3.7144 0,-2.0512 -1.662812,-3.7142 -3.714383,-3.7142 -2.0510563,0 -3.7142133,1.663 -3.7142133,3.7142 C 8.2857007,1043.3422 9.9488587,1045.005 11.999914,1045.005 z m 7.428767,-8.3571 0,9.2858 c 0,0.5127 -0.415789,0.9285 -0.928682,0.9285 l -13.0000003,0 c -0.512721,0 -0.928682,-0.4158 -0.928682,-0.9285 l 0,-9.2858 c 0,-0.5129 0.415961,-0.9287 0.928682,-0.9287 l 2.211862,0 0.671805,-1.3438 c 0.157363,-0.3147 0.478975,-0.5132 0.830545,-0.5132 l 5.5714063,0 c 0.351912,0 0.673354,0.1985 0.830717,0.5132 l 0.671978,1.3438 2.211687,0 c 0.512894,0 0.928682,0.4158 0.928682,0.9287"/></g></svg>