<svg xmlns="http://www.w3.org/2000/svg" xmlns:svg="http://www.w3.org/2000/svg" xmlns:xlink="http://www.w3.org/1999/xlink" id="svg2" width="24" height="24" version="1.1"><defs id="defs4"><linearGradient id="linearGradient836" x1="-3.34" x2="-3.34" y1="1038.553" y2="1030.243" gradientTransform="matrix(2.1715905,0,0,2.1715905,19.342067,-1205.8388)" gradientUnits="userSpaceOnUse" xlink:href="#linearGradient830"/><linearGradient id="linearGradient830"><stop id="stop832" offset="0" stop-color="#007fc6" stop-opacity="1"/><stop id="stop834" offset="1" stop-color="#079af2" stop-opacity="1"/></linearGradient></defs><metadata id="metadata7"/><g id="layer1" transform="translate(0,-1028.3622)"><rect id="rect846" width="20" height="20" x="2" y="1030.362" fill="#000" fill-opacity=".094" stroke="none" ry="1.641"/><rect id="rect844" width="19.349" height="19.349" x="2.326" y="1030.688" fill="#000" fill-opacity=".176" stroke="none" ry="1.587"/><rect id="rect838" width="18.697" height="18.697" x="2.651" y="1031.014" fill="#000" fill-opacity=".353" stroke="none" ry="1.534"/><rect id="rect848" width="18.469" height="18.469" x="2.765" y="1031.128" fill="#000" fill-opacity=".427" stroke="none" ry="1.515"/><rect id="rect828" width="18.046" height="18.046" x="2.977" y="1031.339" fill="url(#linearGradient836)" fill-opacity="1" stroke="none" ry="1.481"/><path id="path4109" fill="#000" fill-opacity=".059" fill-rule="nonzero" stroke="none" d="m 11.005579,1039.7605 3.694488,2.3643 c 0.311161,0.1997 0.72523,0.1165 0.935329,-0.1858 l 3.800239,-5.4734 c 0.216161,-0.3115 0.137547,-0.7378 -0.174061,-0.9522 -0.313031,-0.2147 -0.74069,-0.138 -0.956851,0.1737 l -3.422173,4.9293 -3.715077,-2.3793 c -0.154416,-0.098 -0.341557,-0.1314 -0.520298,-0.092 -0.178251,0.039 -0.333596,0.1481 -0.432336,0.3008 l -5.665245,8.8937 c -0.204001,0.3209 -0.108562,0.7425 0.211949,0.9451 0.114639,0.072 0.241434,0.1072 0.367292,0.1072 0.227875,0 0.450125,-0.1133 0.580194,-0.3187 L 11.005579,1039.7605 z m 7.404887,3.3333 -3.373514,3.0366 -3.964919,-3.0683 c -0.07532,-0.059 -0.163291,-0.1015 -0.256879,-0.124 l -0.527315,-0.1315 -0.7757741,1.2184 0.8314531,0.2054 4.305085,3.3327 c 0.125396,0.095 0.273726,0.144 0.42158,0.144 0.166099,0 0.330796,-0.058 0.460865,-0.1768 l 3.800233,-3.4207 c 0.281207,-0.254 0.303664,-0.6863 0.05004,-0.9662 C 19.125883,1042.8626 18.691672,1042.8412 18.410466,1043.0938 z m -13.44679,-0.1964 1.029378,0.2554 0.777161,-1.2184 -1.475264,-0.3641 c -0.368702,-0.092 -0.740689,0.1311 -0.831452,0.4987 -0.09217,0.3655 0.131474,0.7376 0.500177,0.8284"/><path id="path4111" fill="#000" fill-opacity=".137" fill-rule="nonzero" stroke="none" d="m 11.005579,1039.2282 3.694488,2.3643 c 0.311161,0.1997 0.72523,0.1165 0.935329,-0.1858 l 3.800239,-5.4734 c 0.216161,-0.3115 0.137547,-0.7378 -0.174061,-0.9522 -0.313031,-0.2147 -0.74069,-0.138 -0.956851,0.1737 l -3.422173,4.9293 -3.715077,-2.3793 c -0.154416,-0.098 -0.341557,-0.1314 -0.520298,-0.092 -0.178251,0.039 -0.333596,0.1481 -0.432336,0.3008 l -5.665245,8.8937 c -0.204001,0.3209 -0.108562,0.7425 0.211949,0.9451 0.114639,0.072 0.241434,0.1072 0.367292,0.1072 0.227875,0 0.450125,-0.1133 0.580194,-0.3187 L 11.005579,1039.2282 z m 7.404887,3.3333 -3.373514,3.0366 -3.964919,-3.0683 c -0.07532,-0.059 -0.163291,-0.1015 -0.256879,-0.124 l -0.527315,-0.1315 -0.7757741,1.2184 0.8314531,0.2054 4.305085,3.3327 c 0.125396,0.095 0.273726,0.144 0.42158,0.144 0.166099,0 0.330796,-0.058 0.460865,-0.1768 l 3.800233,-3.4207 c 0.281207,-0.254 0.303664,-0.6863 0.05004,-0.9662 C 19.125883,1042.3303 18.691672,1042.3089 18.410466,1042.5615 z m -13.44679,-0.1964 1.029378,0.2554 0.777161,-1.2184 -1.475264,-0.3641 c -0.368702,-0.092 -0.740689,0.1311 -0.831452,0.4987 -0.09217,0.3655 0.131474,0.7376 0.500177,0.8284"/><path id="path4113" fill="#000" fill-opacity=".275" fill-rule="nonzero" stroke="none" d="m 11.005579,1038.6958 3.694488,2.3643 c 0.311161,0.1997 0.72523,0.1165 0.935329,-0.1858 l 3.800239,-5.4734 c 0.216161,-0.3115 0.137547,-0.7378 -0.174061,-0.9522 -0.313031,-0.2147 -0.74069,-0.138 -0.956851,0.1737 l -3.422173,4.9293 -3.715077,-2.3793 c -0.154416,-0.098 -0.341557,-0.1314 -0.520298,-0.092 -0.178251,0.039 -0.333596,0.1481 -0.432336,0.3008 l -5.665245,8.8937 c -0.204001,0.3209 -0.108562,0.7425 0.211949,0.9451 0.114639,0.072 0.241434,0.1072 0.367292,0.1072 0.227875,0 0.450125,-0.1133 0.580194,-0.3187 L 11.005579,1038.6958 z m 7.404887,3.3333 -3.373514,3.0366 -3.964919,-3.0683 c -0.07532,-0.059 -0.163291,-0.1015 -0.256879,-0.124 l -0.527315,-0.1315 -0.7757741,1.2184 0.8314531,0.2054 4.305085,3.3327 c 0.125396,0.095 0.273726,0.144 0.42158,0.144 0.166099,0 0.330796,-0.058 0.460865,-0.1768 l 3.800233,-3.4207 c 0.281207,-0.254 0.303664,-0.6863 0.05004,-0.9662 C 19.125883,1041.7979 18.691672,1041.7765 18.410466,1042.0291 z m -13.44679,-0.1964 1.029378,0.2554 0.777161,-1.2184 -1.475264,-0.3641 c -0.368702,-0.092 -0.740689,0.1311 -0.831452,0.4987 -0.09217,0.3655 0.131474,0.7376 0.500177,0.8284"/><path id="path572" fill="#f9f9f9" fill-opacity="1" fill-rule="nonzero" stroke="none" d="m 11.005579,1038.2309 3.694488,2.3643 c 0.311161,0.1997 0.72523,0.1165 0.935329,-0.1858 l 3.800239,-5.4734 c 0.216161,-0.3115 0.137547,-0.7378 -0.174061,-0.9522 -0.313031,-0.2147 -0.74069,-0.138 -0.956851,0.1737 l -3.422173,4.9293 -3.715077,-2.3793 c -0.154416,-0.098 -0.341557,-0.1314 -0.520298,-0.092 -0.178251,0.039 -0.333596,0.1481 -0.432336,0.3008 l -5.665245,8.8937 c -0.204001,0.3209 -0.108562,0.7425 0.211949,0.9451 0.114639,0.072 0.241434,0.1072 0.367292,0.1072 0.227875,0 0.450125,-0.1133 0.580194,-0.3187 L 11.005579,1038.2309 z m 7.404887,3.3333 -3.373514,3.0366 -3.964919,-3.0683 c -0.07532,-0.059 -0.163291,-0.1015 -0.256879,-0.124 l -0.527315,-0.1315 -0.7757741,1.2184 0.8314531,0.2054 4.305085,3.3327 c 0.125396,0.095 0.273726,0.144 0.42158,0.144 0.166099,0 0.330796,-0.058 0.460865,-0.1768 l 3.800233,-3.4207 c 0.281207,-0.254 0.303664,-0.6863 0.05004,-0.9662 C 19.125883,1041.333 18.691672,1041.3116 18.410466,1041.5642 z m -13.44679,-0.1964 1.029378,0.2554 0.777161,-1.2184 -1.475264,-0.3641 c -0.368702,-0.092 -0.740689,0.1311 -0.831452,0.4987 -0.09217,0.3655 0.131474,0.7376 0.500177,0.8284"/></g></svg>