<svg xmlns="http://www.w3.org/2000/svg" xmlns:svg="http://www.w3.org/2000/svg" xmlns:xlink="http://www.w3.org/1999/xlink" id="svg3409" width="24" height="24" version="1.1"><defs id="defs3411"><linearGradient id="linearGradient836" x1="-3.34" x2="-3.34" y1="1038.553" y2="1030.243" gradientTransform="matrix(2.1715905,0,0,2.1715905,19.342067,-2210.201)" gradientUnits="userSpaceOnUse" xlink:href="#linearGradient830"/><linearGradient id="linearGradient830"><stop id="stop832" offset="0" stop-color="#086dc2" stop-opacity="1"/><stop id="stop834" offset="1" stop-color="#0085f2" stop-opacity="1"/></linearGradient></defs><metadata id="metadata3414"/><g id="layer1" transform="translate(0,-24)"><rect id="rect846" width="20" height="20" x="2" y="26" fill="#000" fill-opacity=".094" stroke="none" ry="1.641"/><rect id="rect844" width="19.349" height="19.349" x="2.326" y="26.326" fill="#000" fill-opacity=".176" stroke="none" ry="1.587"/><rect id="rect838" width="18.697" height="18.697" x="2.651" y="26.651" fill="#000" fill-opacity=".353" stroke="none" ry="1.534"/><rect id="rect848" width="18.469" height="18.469" x="2.765" y="26.766" fill="#000" fill-opacity=".427" stroke="none" ry="1.515"/><rect id="rect828" width="18.046" height="18.046" x="2.977" y="26.977" fill="url(#linearGradient836)" fill-opacity="1" stroke="none" ry="1.481"/><path id="path894" fill="#000" fill-opacity=".067" fill-rule="nonzero" stroke="none" d="M 9.47975,40.543814 11.999977,38.451867 7.935858,35.912797 5.44929,37.908987 9.47975,40.543814 z m 2.520227,-2.091947 2.520448,2.091947 4.030107,-2.634827 -2.486568,-1.99619 L 11.999977,38.451868 z m 6.858618,-4.882418 -4.078849,-2.539247 -2.779769,2.24348 4.063987,2.639115 L 18.858595,33.569449 z m -4.392263,8.241822 c -0.07271,0 -0.144765,-0.02437 -0.203856,-0.07294 l -2.262499,-1.877698 -2.262454,1.877698 c -0.05891,0.04856 -0.131318,0.07294 -0.20368,0.07294 -0.06082,0 -0.121454,-0.01588 -0.174707,-0.05148 l -1.6757,-1.096063 0,0.64735 4.316541,2.719129 4.316585,-2.719129 0,-0.64735 -1.675876,1.096063 C 14.587611,41.795392 14.527148,41.811271 14.466332,41.811271 z m -5.246255,-10.781069 -4.078672,2.539247 2.794453,2.343349 4.064119,-2.639116 -2.7799,-2.24348"/><path id="path896" fill="#000" fill-opacity=".137" fill-rule="nonzero" stroke="none" d="M 9.47975,40.011514 11.999977,37.919567 7.935858,35.380497 5.44929,37.376687 9.47975,40.011514 z m 2.520227,-2.091947 2.520448,2.091947 4.030107,-2.634827 -2.486568,-1.99619 L 11.999977,37.919568 z m 6.858618,-4.882418 -4.078849,-2.539247 -2.779769,2.24348 4.063987,2.639115 L 18.858595,33.037149 z m -4.392263,8.241822 c -0.07271,0 -0.144765,-0.02437 -0.203856,-0.07294 l -2.262499,-1.877698 -2.262454,1.877698 c -0.05891,0.04856 -0.131318,0.07294 -0.20368,0.07294 -0.06082,0 -0.121454,-0.01588 -0.174707,-0.05148 l -1.6757,-1.096063 0,0.64735 4.316541,2.719129 4.316585,-2.719129 0,-0.64735 -1.675876,1.096063 C 14.587611,41.263092 14.527148,41.278971 14.466332,41.278971 z m -5.246255,-10.781069 -4.078672,2.539247 2.794453,2.343349 4.064119,-2.639116 -2.7799,-2.24348"/><path id="path898" fill="#000" fill-opacity=".275" fill-rule="nonzero" stroke="none" d="M 9.47975,39.479114 11.999977,37.387167 7.935858,34.848097 5.44929,36.844287 9.47975,39.479114 z m 2.520227,-2.091947 2.520448,2.091947 4.030107,-2.634827 -2.486568,-1.99619 L 11.999977,37.387168 z m 6.858618,-4.882418 -4.078849,-2.539247 -2.779769,2.24348 4.063987,2.639115 L 18.858595,32.504749 z m -4.392263,8.241822 c -0.07271,0 -0.144765,-0.02437 -0.203856,-0.07294 l -2.262499,-1.877698 -2.262454,1.877698 c -0.05891,0.04856 -0.131318,0.07294 -0.20368,0.07294 -0.06082,0 -0.121454,-0.01588 -0.174707,-0.05148 l -1.6757,-1.096063 0,0.64735 4.316541,2.719129 4.316585,-2.719129 0,-0.64735 -1.675876,1.096063 C 14.587611,40.730692 14.527148,40.746571 14.466332,40.746571 z m -5.246255,-10.781069 -4.078672,2.539247 2.794453,2.343349 4.064119,-2.639116 -2.7799,-2.24348"/><path id="path368" fill="#fff" fill-opacity="1" fill-rule="nonzero" stroke="none" d="M 9.47975,39.01361 11.999977,36.921663 7.935858,34.382593 5.44929,36.378783 9.47975,39.01361 z m 2.520227,-2.091947 2.520448,2.091947 4.030107,-2.634827 -2.486568,-1.99619 L 11.999977,36.921664 z m 6.858618,-4.882418 -4.078849,-2.539247 -2.779769,2.24348 4.063987,2.639115 L 18.858595,32.039245 z m -4.392263,8.241822 c -0.07271,0 -0.144765,-0.02437 -0.203856,-0.07294 l -2.262499,-1.877698 -2.262454,1.877698 c -0.05891,0.04856 -0.131318,0.07294 -0.20368,0.07294 -0.06082,0 -0.121454,-0.01588 -0.174707,-0.05148 l -1.6757,-1.096063 0,0.64735 4.316541,2.719129 4.316585,-2.719129 0,-0.64735 -1.675876,1.096063 C 14.587611,40.265188 14.527148,40.281067 14.466332,40.281067 z m -5.246255,-10.781069 -4.078672,2.539247 2.794453,2.343349 4.064119,-2.639116 -2.7799,-2.24348"/></g></svg>