<svg xmlns="http://www.w3.org/2000/svg" xmlns:svg="http://www.w3.org/2000/svg" xmlns:xlink="http://www.w3.org/1999/xlink" id="svg2" width="24" height="24" version="1.1"><defs id="defs4"><linearGradient id="linearGradient836" x1="-3.34" x2="-3.34" y1="1038.553" y2="1030.243" gradientTransform="matrix(2.1715905,0,0,2.1715905,19.342067,-1205.8388)" gradientUnits="userSpaceOnUse" xlink:href="#linearGradient830"/><linearGradient id="linearGradient830"><stop id="stop832" offset="0" stop-color="#af3031" stop-opacity="1"/><stop id="stop834" offset="1" stop-color="#ce4e50" stop-opacity="1"/></linearGradient></defs><metadata id="metadata7"/><g id="layer1" transform="translate(0,-1028.3622)"><rect id="rect846" width="20" height="20" x="2" y="1030.362" fill="#000" fill-opacity=".094" stroke="none" ry="1.641"/><rect id="rect844" width="19.349" height="19.349" x="2.326" y="1030.688" fill="#000" fill-opacity=".176" stroke="none" ry="1.587"/><rect id="rect838" width="18.697" height="18.697" x="2.651" y="1031.014" fill="#000" fill-opacity=".353" stroke="none" ry="1.534"/><rect id="rect848" width="18.469" height="18.469" x="2.765" y="1031.128" fill="#000" fill-opacity=".427" stroke="none" ry="1.515"/><rect id="rect828" width="18.046" height="18.046" x="2.977" y="1031.339" fill="url(#linearGradient836)" fill-opacity="1" stroke="none" ry="1.481"/><path id="path4170" fill="#000" fill-opacity=".067" stroke="none" stroke-dasharray="none" stroke-miterlimit="4" stroke-opacity="1" stroke-width="1" d="m 10,1035.3923 0,3 -1,0 0,6 2,0 0,4 2,0 0,-4 2,0 0,-6 -1,0 0,-3 -4,0 z m 1,1 2,0 0,1 -2,0 0,-1 z" opacity="1"/><path id="path4172" fill="#000" fill-opacity=".137" stroke="none" stroke-dasharray="none" stroke-miterlimit="4" stroke-opacity="1" stroke-width="1" d="m 10,1034.86 0,3 -1,0 0,6 2,0 0,4 2,0 0,-4 2,0 0,-6 -1,0 0,-3 -4,0 z m 1,1 2,0 0,1 -2,0 0,-1 z" opacity="1"/><path id="path4174" fill="#000" fill-opacity=".275" stroke="none" stroke-dasharray="none" stroke-miterlimit="4" stroke-opacity="1" stroke-width="1" d="m 10,1034.3276 0,3 -1,0 0,6 2,0 0,4 2,0 0,-4 2,0 0,-6 -1,0 0,-3 -4,0 z m 1,1 2,0 0,1 -2,0 0,-1 z" opacity="1"/><path id="rect4160" fill="#fff" fill-opacity="1" stroke="none" stroke-dasharray="none" stroke-miterlimit="4" stroke-opacity="1" stroke-width="1" d="m 10,1033.8622 0,3 -1,0 0,6 2,0 0,4 2,0 0,-4 2,0 0,-6 -1,0 0,-3 -4,0 z m 1,1 2,0 0,1 -2,0 0,-1 z" opacity="1"/></g></svg>