<svg xmlns="http://www.w3.org/2000/svg" xmlns:svg="http://www.w3.org/2000/svg" xmlns:xlink="http://www.w3.org/1999/xlink" id="svg2" width="24" height="24" version="1.1"><defs id="defs4"><linearGradient id="linearGradient836" x1="-3.34" x2="-3.34" y1="1038.553" y2="1030.243" gradientTransform="matrix(2.1715905,0,0,2.1715905,19.342067,-1205.8387)" gradientUnits="userSpaceOnUse" xlink:href="#linearGradient830"/><linearGradient id="linearGradient830"><stop id="stop832" offset="0" stop-color="#f1992c" stop-opacity="1"/><stop id="stop834" offset="1" stop-color="#f4c156" stop-opacity="1"/></linearGradient></defs><metadata id="metadata7"/><g id="layer1" transform="translate(0,-1028.3622)"><rect id="rect846" width="20" height="20" x="2" y="1030.362" fill="#000" fill-opacity=".094" stroke="none" ry="1.641"/><rect id="rect844" width="19.349" height="19.349" x="2.326" y="1030.688" fill="#000" fill-opacity=".176" stroke="none" ry="1.587"/><rect id="rect838" width="18.697" height="18.697" x="2.651" y="1031.014" fill="#000" fill-opacity=".353" stroke="none" ry="1.534"/><rect id="rect848" width="18.469" height="18.469" x="2.765" y="1031.128" fill="#000" fill-opacity=".427" stroke="none" ry="1.515"/><rect id="rect828" width="18.046" height="18.046" x="2.977" y="1031.339" fill="url(#linearGradient836)" fill-opacity="1" stroke="none" ry="1.481"/><g id="g890" fill="#000" fill-opacity=".067" transform="matrix(0.40625,0,0,0.40625,7.125,1035.3925)"><g id="g894" fill="#000" fill-opacity=".067"><path id="path896" fill="#000" fill-opacity=".067" d="M 14,0 C 8.492,0 4.004,4.484 4.004,10 l 0,2 L 0,12 0,26 c 0,3.309 2.691,6 6,6 l 12,0 c 3.309,0 6,-2.691 6,-6 L 24,10 C 24,4.484 19.512,0 14,0 Z M 11.996,24 C 10.895,24 10,23.105 10,22 c 0,-1.105 0.895,-2 1.996,-2 1.105,0 2,0.895 2,2 C 13.996,23.105 13.102,24 11.996,24 Z M 20,12 8.004,12 l 0,-2 c 0,-3.309 2.691,-6 5.996,-6 3.309,0 6,2.691 6,6 L 20,12 Z"/></g></g><g id="g882" fill="#000" fill-opacity=".137" transform="matrix(0.40625,0,0,0.40625,7.125,1034.8602)"><g id="g886" fill="#000" fill-opacity=".137"><path id="path888" fill="#000" fill-opacity=".137" d="M 14,0 C 8.492,0 4.004,4.484 4.004,10 l 0,2 L 0,12 0,26 c 0,3.309 2.691,6 6,6 l 12,0 c 3.309,0 6,-2.691 6,-6 L 24,10 C 24,4.484 19.512,0 14,0 Z M 11.996,24 C 10.895,24 10,23.105 10,22 c 0,-1.105 0.895,-2 1.996,-2 1.105,0 2,0.895 2,2 C 13.996,23.105 13.102,24 11.996,24 Z M 20,12 8.004,12 l 0,-2 c 0,-3.309 2.691,-6 5.996,-6 3.309,0 6,2.691 6,6 L 20,12 Z"/></g></g><g id="g874" fill="#000" fill-opacity=".275" transform="matrix(0.40625,0,0,0.40625,7.125,1034.3278)"><g id="g878" fill="#000" fill-opacity=".275"><path id="path880" fill="#000" fill-opacity=".275" d="M 14,0 C 8.492,0 4.004,4.484 4.004,10 l 0,2 L 0,12 0,26 c 0,3.309 2.691,6 6,6 l 12,0 c 3.309,0 6,-2.691 6,-6 L 24,10 C 24,4.484 19.512,0 14,0 Z M 11.996,24 C 10.895,24 10,23.105 10,22 c 0,-1.105 0.895,-2 1.996,-2 1.105,0 2,0.895 2,2 C 13.996,23.105 13.102,24 11.996,24 Z M 20,12 8.004,12 l 0,-2 c 0,-3.309 2.691,-6 5.996,-6 3.309,0 6,2.691 6,6 L 20,12 Z"/></g></g><g id="g858" fill="#fff" transform="matrix(0.40625,0,0,0.40625,7.125,1033.8622)"><g id="lock_x5F_fill" fill="#fff"><path id="path850" fill="#fff" d="M 14,0 C 8.492,0 4.004,4.484 4.004,10 l 0,2 L 0,12 0,26 c 0,3.309 2.691,6 6,6 l 12,0 c 3.309,0 6,-2.691 6,-6 L 24,10 C 24,4.484 19.512,0 14,0 Z M 11.996,24 C 10.895,24 10,23.105 10,22 c 0,-1.105 0.895,-2 1.996,-2 1.105,0 2,0.895 2,2 C 13.996,23.105 13.102,24 11.996,24 Z M 20,12 8.004,12 l 0,-2 c 0,-3.309 2.691,-6 5.996,-6 3.309,0 6,2.691 6,6 L 20,12 Z"/></g></g></g></svg>