<svg xmlns="http://www.w3.org/2000/svg" xmlns:svg="http://www.w3.org/2000/svg" xmlns:xlink="http://www.w3.org/1999/xlink" id="svg4356" width="65" height="49" version="1.1" viewBox="0 0 65 49"><defs id="defs4358"><linearGradient id="linearGradient5065" x1="683" x2="683" y1="38" y2="98" gradientTransform="matrix(0.993007,0,0,0.68333338,-120.72378,-146.46668)" gradientUnits="userSpaceOnUse" xlink:href="#linearGradient4292"/><linearGradient id="linearGradient4292"><stop id="stop4294" offset="0" stop-color="#494b4f" stop-opacity="1"/><stop id="stop4296" offset="1" stop-color="#393a3b" stop-opacity="1"/></linearGradient><linearGradient id="linearGradient4337-4" x1="683.502" x2="683.502" y1="40.231" y2="41.692" gradientTransform="matrix(0.99646641,0,0,0.68421053,-123.08657,-146.52632)" gradientUnits="userSpaceOnUse" xlink:href="#linearGradient4331"/><linearGradient id="linearGradient4331"><stop id="stop4333" offset="0" stop-color="#fff" stop-opacity="1"/><stop id="stop4335" offset="1" stop-color="#fff" stop-opacity="0"/></linearGradient><linearGradient id="linearGradient5067" x1="683.502" x2="683.502" y1="40.231" y2="41.692" gradientTransform="matrix(0,0.99646643,0.68421053,0,53.473691,-123.08657)" gradientUnits="userSpaceOnUse" xlink:href="#linearGradient4363"/><linearGradient id="linearGradient4363"><stop id="stop4365" offset="0" stop-color="#000" stop-opacity="1"/><stop id="stop4367" offset="1" stop-color="#000" stop-opacity="0"/></linearGradient></defs><metadata id="metadata4361"/><g id="layer1" transform="translate(-36,-258.36236)"><g id="g5140" transform="matrix(0,-1,1,0,-373,386.36167)"><path id="rect4179-7" fill="url(#linearGradient5065)" fill-opacity="1" stroke="#000" stroke-dasharray="none" stroke-dashoffset="0" stroke-linecap="butt" stroke-linejoin="miter" stroke-miterlimit="4" stroke-opacity="1" stroke-width="1" d="m 417.5,-120.50001 48.00016,0 c 1.108,0 2,0.892 2,2 l 0,39.00001 -52.00016,0 0,-39.00001 c 0,-1.108 0.892,-2 2,-2 z" opacity="1" transform="matrix(0,1,-1,0,0,0)"/><path id="rect4179-3-6" fill="none" fill-opacity="1" stroke="url(#linearGradient4337-4)" stroke-dasharray="none" stroke-dashoffset="0" stroke-linecap="butt" stroke-linejoin="round" stroke-miterlimit="4" stroke-opacity="1" stroke-width="1" d="m 417.5,-119.5 48.00016,0 c 0.554,0 1,0.446 1,1 l 0,37 c 0,0.554 -0.446,1 -1,1 l -48.00016,0 c -0.554,0 -1,-0.446 -1,-1 l 0,-37 c 0,-0.554 0.446,-1 1,-1 z" opacity=".15" transform="matrix(0,1,-1,0,0,0)"/><path id="rect4179-3-3-5" fill="none" fill-opacity="1" stroke="url(#linearGradient5067)" stroke-dasharray="none" stroke-dashoffset="0" stroke-linecap="butt" stroke-linejoin="miter" stroke-miterlimit="4" stroke-opacity="1" stroke-width="1" d="m 80.5,416.5 0,49.99839 38,0 c 0.554,0 1,-0.44442 1,-0.99647 l 0,-48.00545 c 0,-0.55205 -0.446,-0.99647 -1,-0.99647 z" opacity=".07"/><path id="rect4728-8" fill="#212425" fill-opacity="1" stroke="none" stroke-dasharray="none" stroke-dashoffset="0" stroke-linecap="butt" stroke-linejoin="round" stroke-miterlimit="4" stroke-opacity="0" stroke-width="1" d="m 84,466.99994 -4,0 L 80,416 l 4,0 z" opacity=".7"/><rect id="rect4731-0" width="50.998" height="1" x="416" y="-85" fill="#000" fill-opacity="1" stroke="none" stroke-dasharray="none" stroke-dashoffset="0" stroke-linecap="butt" stroke-linejoin="round" stroke-miterlimit="4" stroke-opacity="0" stroke-width="1" opacity=".7" rx="0" transform="matrix(0,1,-1,0,0,0)"/><rect id="rect4731-9-4" width="50.998" height="1" x="416" y="-84" fill="#fff" fill-opacity="1" stroke="none" stroke-dasharray="none" stroke-dashoffset="0" stroke-linecap="butt" stroke-linejoin="round" stroke-miterlimit="4" stroke-opacity="0" stroke-width="1" opacity=".08" transform="matrix(0,1,-1,0,0,0)"/></g><g id="g4305" opacity=".7" transform="matrix(-1,0,0,-1,346,452.22457)"><rect id="rect4179-2-0-9-2" width="54" height="65" x="250.5" y="122.862" fill="none" fill-opacity="1" stroke="#000" stroke-dasharray="none" stroke-dashoffset="0" stroke-linecap="butt" stroke-linejoin="round" stroke-miterlimit="4" stroke-opacity="1" stroke-width="1" opacity=".45" rx="4" ry="4"/><rect id="rect4179-2-0-9-4-6" width="56" height="67" x="249.5" y="121.862" fill="none" fill-opacity="1" stroke="#000" stroke-dasharray="none" stroke-dashoffset="0" stroke-linecap="butt" stroke-linejoin="round" stroke-miterlimit="4" stroke-opacity="1" stroke-width="1" opacity=".25" rx="5" ry="5"/><rect id="rect4179-2-0-9-4-4" width="58" height="69" x="248.5" y="120.862" fill="none" fill-opacity="1" stroke="#000" stroke-dasharray="none" stroke-dashoffset="0" stroke-linecap="butt" stroke-linejoin="round" stroke-miterlimit="4" stroke-opacity="1" stroke-width="1" opacity=".125" rx="6" ry="6"/><rect id="rect4179-2-0-9-4-4-3" width="60" height="71" x="247.5" y="119.862" fill="none" fill-opacity="1" stroke="#000" stroke-dasharray="none" stroke-dashoffset="0" stroke-linecap="butt" stroke-linejoin="round" stroke-miterlimit="4" stroke-opacity="1" stroke-width="1" opacity=".062" rx="7" ry="7"/><rect id="rect4179-2-0-9-4-4-3-8" width="62" height="73" x="246.5" y="118.862" fill="none" fill-opacity="1" stroke="#000" stroke-dasharray="none" stroke-dashoffset="0" stroke-linecap="butt" stroke-linejoin="round" stroke-miterlimit="4" stroke-opacity="1" stroke-width="1" opacity=".03" rx="8" ry="8"/><rect id="rect4179-2-0-9-2-3" width="52" height="63.5" x="251.5" y="123.362" fill="none" fill-opacity="1" stroke="#000" stroke-dasharray="none" stroke-dashoffset="0" stroke-linecap="butt" stroke-linejoin="round" stroke-miterlimit="4" stroke-opacity="1" stroke-width="1" opacity=".5" rx="3" ry="3"/></g></g></svg>