<svg xmlns="http://www.w3.org/2000/svg" xmlns:svg="http://www.w3.org/2000/svg" xmlns:xlink="http://www.w3.org/1999/xlink" id="svg5453" width="48" height="48" version="1.1"><defs id="defs5455"><linearGradient id="linearGradient4162"><stop id="stop4164" offset="0" stop-color="#e95353" stop-opacity="1"/><stop id="stop4166" offset="1" stop-color="#ea7373" stop-opacity="1"/></linearGradient><linearGradient id="linearGradient4141"><stop id="stop4143" offset="0" stop-color="#01bbff" stop-opacity="1"/><stop id="stop4145" offset="1" stop-color="#14ccff" stop-opacity="1"/></linearGradient><linearGradient id="linearGradient4108"><stop id="stop4110" offset="0" stop-color="#00a3df" stop-opacity="1"/><stop id="stop4112" offset="1" stop-color="#00baed" stop-opacity="1"/></linearGradient><linearGradient id="linearGradient56"><stop id="stop58" offset="0" stop-color="#b3b3b3" stop-opacity=".996"/><stop id="stop60" offset="1" stop-color="#f2f0eb" stop-opacity="1"/></linearGradient><linearGradient id="linearGradient44"><stop id="stop46" offset="0" stop-color="#fefefd" stop-opacity="1"/><stop id="stop48" offset="1" stop-color="#fefeff" stop-opacity="1"/></linearGradient><linearGradient id="linearGradient19"><stop id="stop21" offset="0" stop-color="#f2f0eb" stop-opacity="1"/><stop id="stop23" offset="1" stop-color="#fff" stop-opacity="1"/></linearGradient><linearGradient id="linearGradient25" x1="412.111" x2="412.111" y1="-547.798" y2="-499.812" gradientUnits="userSpaceOnUse" xlink:href="#linearGradient19"/><linearGradient id="linearGradient50" x1="410.071" x2="410.071" y1="-539.782" y2="-507.767" gradientTransform="matrix(1.2173938,0,0,1.2173938,-88.820974,114.78343)" gradientUnits="userSpaceOnUse" xlink:href="#linearGradient44"/><linearGradient id="linearGradient62" x1="415.794" x2="415.794" y1="-545.798" y2="-513.812" gradientTransform="matrix(1.3125,0,0,1.3125,-135.55366,171.56185)" gradientUnits="userSpaceOnUse" xlink:href="#linearGradient56"/><linearGradient id="linearGradient4114" x1="397.085" x2="397.085" y1="515.487" y2="514.415" gradientTransform="matrix(1.2173938,0,0,1.2173938,-88.820974,-114.78343)" gradientUnits="userSpaceOnUse" xlink:href="#linearGradient4141"/><linearGradient id="linearGradient4139" x1="397.085" x2="397.085" y1="515.487" y2="514.415" gradientTransform="matrix(1.1877093,0,0,0.93486589,-77.039616,30.705298)" gradientUnits="userSpaceOnUse" xlink:href="#linearGradient4108"/><linearGradient id="linearGradient4168" x1="9.463" x2="9.463" y1="8.494" y2="9.565" gradientUnits="userSpaceOnUse" xlink:href="#linearGradient4162"/></defs><metadata id="metadata5458"/><g id="layer1" transform="translate(-384.57143,-499.798)"><rect id="rect2991-1-7" width="48" height="48" x="384.571" y="-547.798" fill="url(#linearGradient25)" fill-opacity="1" stroke="none" ry="1.945" transform="scale(1,-1)"/><path id="rect846" fill="#000" fill-opacity="1" stroke="none" d="m 384.57143,544.79799 0,1.0625 c 0,1.0773 0.86022,1.9375 1.9375,1.9375 l 44.125,0 c 1.07728,0 1.9375,-0.8602 1.9375,-1.9375 l 0,-1.0625 c 0,1.0773 -0.86022,1.9375 -1.9375,1.9375 l -44.125,0 C 385.43165,546.73549 384.57143,545.87529 384.57143,544.79799 Z"/><path id="path7515" fill="#fff" fill-opacity=".537" stroke="none" d="m 387.10268,500.45429 c -0.91709,0 -1.67115,0.6395 -1.84375,1.5 0.33561,-0.2799 0.77451,-0.4375 1.25,-0.4375 l 44.125,0 c 0.47549,0 0.91439,0.1576 1.25,0.4375 -0.1726,-0.8605 -0.92666,-1.5 -1.84375,-1.5 L 387.10268,500.45429 Z"/><path id="rect4280" fill="#000" fill-opacity=".392" stroke="none" d="m 386.50893,499.79799 c -1.07728,0 -1.9375,0.8602 -1.9375,1.9375 l 0,43.0625 c 0,0.7934 0.48002,1.449 1.15625,1.75 -0.30934,-0.3333 -0.5,-0.7824 -0.5,-1.2812 l 0,-42.9375 c 0,-1.0482 0.8269,-1.875 1.875,-1.875 l 42.9375,0 c 1.0481,0 1.875,0.8268 1.875,1.875 l 0,42.9375 c 0,0.4988 -0.19066,0.9479 -0.5,1.2812 0.67623,-0.301 1.15625,-0.9566 1.15625,-1.75 l 0,-43.0625 c 0,-1.0773 -0.86022,-1.9375 -1.9375,-1.9375 L 386.50893,499.79799 Z"/><rect id="rect52" width="42" height="42" x="387.571" y="-544.798" fill="url(#linearGradient62)" fill-opacity="1" stroke="none" ry="1.701" transform="scale(1,-1)"/><rect id="rect4092" width="38.957" height="38.957" x="389.093" y="-544.189" fill="#000" fill-opacity=".059" stroke="none" ry="1.578" transform="scale(1,-1)"/><rect id="rect4090" width="38.957" height="38.957" x="389.093" y="-543.581" fill="#000" fill-opacity=".118" stroke="none" ry="1.578" transform="scale(1,-1)"/><rect id="rect4086" width="38.957" height="38.957" x="389.093" y="-542.972" fill="#000" fill-opacity=".235" stroke="none" ry="1.578" transform="scale(1,-1)"/><rect id="rect27" width="38.957" height="38.957" x="389.093" y="-542.363" fill="url(#linearGradient50)" fill-opacity="1" stroke="none" ry="1.578" transform="scale(1,-1)"/><path id="rect4094" fill="#000" fill-opacity=".118" stroke="none" d="m 389.0931,511.47201 0,29.33157 c 0,0.87429 0.68546,1.5598 1.55975,1.5598 l 8.94027,0 0,-30.89137 L 389.0931,511.47201 Z"/><path id="path4101" fill="#000" fill-opacity=".118" stroke="none" d="m 428.04973,504.96648 c 0,-0.87427 -0.68552,-1.55974 -1.55981,-1.55974 l -35.83701,0 c -0.87433,0 -1.5598,0.68547 -1.5598,1.55974 l 0,6.5055 L 428.04973,511.47198 Z"/><path id="path4132" fill="#000" fill-opacity=".235" stroke="none" d="m 399.36485,511.47201 0,30.89137 0.22827,0 0,-30.89137 L 399.36485,511.47201 Z"/><rect id="rect4106" width="10.491" height="1.291" x="389.097" y="511.472" fill="url(#linearGradient4114)" fill-opacity="1" stroke="none" ry="0"/><path id="rect4127" fill="#000" fill-opacity=".235" stroke="none" d="m 389.0931,511.22849 0,0.24352 38.95662,0 0,-0.24352 L 389.0931,511.22849 Z"/><rect id="rect4137" width="10.236" height=".992" x="389.225" y="511.622" fill="url(#linearGradient4139)" fill-opacity="1" stroke="none" ry="0"/><path id="path4147" fill="url(#linearGradient4168)" fill-opacity="1" stroke="none" d="M 9.9375,9.03125 C 9.9375,9.3246513 9.6996513,9.5625 9.40625,9.5625 9.1128487,9.5625 8.875,9.3246513 8.875,9.03125 8.875,8.7378487 9.1128487,8.5 9.40625,8.5 9.6996513,8.5 9.9375,8.7378487 9.9375,9.03125 Z" transform="matrix(1.2173938,0,0,1.2173938,379.35394,494.03344)"/></g></svg>