<svg xmlns="http://www.w3.org/2000/svg" xmlns:svg="http://www.w3.org/2000/svg" xmlns:xlink="http://www.w3.org/1999/xlink" id="svg2" width="48" height="48" version="1.1"><defs id="defs4"><linearGradient id="linearGradient4065"><stop id="stop4067" offset="0" stop-color="#ffae31" stop-opacity="1"/><stop id="stop4069" offset="1" stop-color="#ff0" stop-opacity="1"/></linearGradient><linearGradient id="linearGradient4059"><stop id="stop4061" offset="0" stop-color="#ffebb9" stop-opacity="1"/><stop id="stop4063" offset="1" stop-color="#fffff5" stop-opacity="1"/></linearGradient><linearGradient id="linearGradient1431" x1="82.731" x2="82.731" y1="-1052.716" y2="-1004.456" gradientTransform="translate(-56.568542,0.12498262)" gradientUnits="userSpaceOnUse" xlink:href="#linearGradient4065"/><linearGradient id="linearGradient3789" x1="1806.398" x2="1806.398" y1="605.036" y2="530.687" gradientUnits="userSpaceOnUse" xlink:href="#linearGradient4059"/></defs><metadata id="metadata7"/><g id="layer1" transform="translate(0,-1004.3622)"><rect id="rect2991-1-7" width="48" height="48" x="0" y="-1052.362" fill="url(#linearGradient1431)" fill-opacity="1" stroke="none" ry="1.945" transform="scale(1,-1)"/><polygon id="polygon4057" fill="#1a1a1a" fill-opacity=".059" points="1830.473 604.97 1806.303 590.468 1782.131 604.97 1788.449 577.5 1767.189 558.99 1795.27 556.516 1806.303 530.574 1817.336 556.516 1845.414 558.99 1824.154 577.5" transform="matrix(0.41400075,0,0,0.41400075,-723.81018,794.50417)"/><polygon id="polygon4055" fill="#1a1a1a" fill-opacity=".118" points="1806.303 530.574 1817.336 556.516 1845.414 558.99 1824.154 577.5 1830.473 604.97 1806.303 590.468 1782.131 604.97 1788.449 577.5 1767.189 558.99 1795.27 556.516" transform="matrix(0.41400075,0,0,0.41400075,-723.81018,794.10417)"/><rect id="rect3762" width="48" height="48" x="0" y="1004.367" fill="none" stroke="none"/><rect id="rect3345" width="28" height="28" x="10" y="1014.108" fill="none" stroke="none"/><path id="rect846" fill="#1a1a1a" fill-opacity="1" stroke="none" d="m 0,1049.3622 0,1.0625 c 0,1.0773 0.86022,1.9375 1.9375,1.9375 l 44.125,0 c 1.07728,0 1.9375,-0.8602 1.9375,-1.9375 l 0,-1.0625 c 0,1.0773 -0.86022,1.9375 -1.9375,1.9375 l -44.125,0 C 0.86022,1051.2997 0,1050.4395 0,1049.3622 Z"/><path id="path7515" fill="#fff" fill-opacity=".537" stroke="none" d="m 2.53125,1005.0185 c -0.91709,0 -1.67115,0.6395 -1.84375,1.5 0.33561,-0.2799 0.77451,-0.4375 1.25,-0.4375 l 44.125,0 c 0.47549,0 0.91439,0.1576 1.25,0.4375 -0.1726,-0.8605 -0.92666,-1.5 -1.84375,-1.5 L 2.53125,1005.0185 Z"/><polygon id="polygon4051" fill="#1a1a1a" fill-opacity=".235" points="1782.131 604.97 1788.449 577.5 1767.189 558.99 1795.27 556.516 1806.303 530.574 1817.336 556.516 1845.414 558.99 1824.154 577.5 1830.473 604.97 1806.303 590.468" transform="matrix(0.41400075,0,0,0.41400075,-723.81018,793.70417)"/><path id="rect4280" fill="#1a1a1a" fill-opacity=".392" stroke="none" d="m 1.9375,1004.3622 c -1.07728,0 -1.9375,0.8602 -1.9375,1.9375 l 0,43.0625 c 0,0.7934 0.48002,1.449 1.15625,1.75 -0.30934,-0.3333 -0.5,-0.7824 -0.5,-1.2812 l 0,-42.9375 c 0,-1.0482 0.8269,-1.875 1.875,-1.875 l 42.9375,0 c 1.0481,0 1.875,0.8268 1.875,1.875 l 0,42.9375 c 0,0.4988 -0.19066,0.9479 -0.5,1.2812 0.67623,-0.301 1.15625,-0.9566 1.15625,-1.75 l 0,-43.0625 c 0,-1.0773 -0.86022,-1.9375 -1.9375,-1.9375 L 1.9375,1004.3622 Z"/><polygon id="Star__x2014__Used_to_flag_a_data_item_as_important_or_as_favorite._Typical_applications_range_from_bookmarking_web_pages_in_a_browser_to_promoting_contacts_to_favorites._1_" fill="url(#linearGradient3789)" fill-opacity="1" points="1845.414 558.99 1824.154 577.5 1830.473 604.97 1806.303 590.468 1782.131 604.97 1788.449 577.5 1767.189 558.99 1795.27 556.516 1806.303 530.574 1817.336 556.516" transform="matrix(0.41400075,0,0,0.41400075,-723.81018,793.30417)"/><path id="polygon3780" fill="#fff" fill-opacity=".235" d="m 7.1875,1024.5028 9.09375,7.9375 0.03125,-0.125 -8.96875,-7.8125 -0.15625,0 z m 33.46875,0 -8.96875,7.8125 0.03125,0.125 9.09375,-7.9375 -0.15625,0 z M 24,1037.8778 l -10.375,6.2188 -0.03125,0.1875 10.40625,-6.25 10.40625,6.25 L 34.375,1044.0966 24,1037.8778 z"/><path id="path3785" fill="#fff" fill-opacity=".118" d="m 7.1875,1024.6747 9.09375,7.9375 0.03125,-0.125 -8.96875,-7.8125 -0.15625,0 z m 33.46875,0 -8.96875,7.8125 0.03125,0.125 9.09375,-7.9375 -0.15625,0 z M 24,1038.0497 l -10.375,6.2188 -0.03125,0.1875 10.40625,-6.25 10.40625,6.25 L 34.375,1044.2685 24,1038.0497 z"/><path id="path3787" fill="#fff" fill-opacity=".059" d="m 7.1875,1024.8349 9.09375,7.9375 0.03125,-0.125 -8.96875,-7.8125 -0.15625,0 z m 33.46875,0 -8.96875,7.8125 0.03125,0.125 9.09375,-7.9375 -0.15625,0 z M 24,1038.2099 l -10.375,6.2188 -0.03125,0.1875 10.40625,-6.25 10.40625,6.25 L 34.375,1044.4287 24,1038.2099 z"/><path id="polygon4071" fill="#ffb12f" fill-opacity=".314" d="m 8.640625,1024.6509 -0.8339844,0.074 8.6484374,7.5312 0.154297,-0.6679 -7.96875,-6.9375 z m 30.71875,0 -7.96875,6.9375 0.154297,0.6679 8.648437,-7.5312 -0.833984,-0.074 z M 24,1036.9575 l -9.792969,5.875 -0.21289,0.9297 L 24,1037.7583 l 10.007812,6.0039 -0.21289,-0.9297 L 24,1036.9575 Z"/><path id="polygon4076" fill="#fff" fill-opacity=".235" d="m 24,1012.9622 -4.566406,10.7402 -11.6269534,1.0235 0.4179688,0.3633 11.2089846,-0.9864 L 24,1013.3626 l 4.568359,10.7402 11.207032,0.9864 0.417968,-0.3633 -11.625,-1.0235 L 24,1012.9622 Z m -7.466797,19.7617 -2.539062,11.0391 0.107421,-0.064 2.507813,-10.9082 -0.07617,-0.066 z m 14.933594,0 -0.07617,0.066 2.509766,10.9082 0.107421,0.064 -2.541015,-11.0391 z"/></g></svg>