<svg xmlns="http://www.w3.org/2000/svg" xmlns:svg="http://www.w3.org/2000/svg" xmlns:xlink="http://www.w3.org/1999/xlink" id="svg2" width="48" height="48" version="1.1"><defs id="defs4"><linearGradient id="linearGradient10248"><stop id="stop10250" offset="0" stop-color="#e6e6e6" stop-opacity=".537"/><stop id="stop10252" offset="1" stop-color="#ccc" stop-opacity="0"/></linearGradient><linearGradient id="linearGradient4707"><stop id="stop4709" offset="0" stop-color="#000" stop-opacity=".537"/><stop id="stop4711" offset="1" stop-color="#000" stop-opacity="0"/></linearGradient><linearGradient id="linearGradient2493"><stop id="stop2495" offset="0" stop-color="#333" stop-opacity="1"/><stop id="stop2497" offset="1" stop-color="#000" stop-opacity="1"/></linearGradient><linearGradient id="linearGradient4081"><stop id="stop4083-4" offset="0" stop-color="#8c8c8c" stop-opacity="1"/><stop id="stop4085" offset="1" stop-color="#dcdcdc" stop-opacity="1"/></linearGradient><linearGradient id="linearGradient2499" x1="35.392" x2="35.392" y1="33.627" y2="9.263" gradientUnits="userSpaceOnUse" xlink:href="#linearGradient2493"/><linearGradient id="linearGradient4761" x1="35.392" x2="35.392" y1="33.627" y2="9.263" gradientUnits="userSpaceOnUse" xlink:href="#linearGradient4707"/><linearGradient id="linearGradient4215-2"><stop id="stop4217-5" offset="0" stop-color="#dcdcdc" stop-opacity="1"/><stop id="stop4219-5" offset="1" stop-color="#f0f0f0" stop-opacity="1"/></linearGradient><linearGradient id="linearGradient5318" x1="19.092" x2="25.942" y1="34.101" y2="34.101" gradientUnits="userSpaceOnUse" xlink:href="#linearGradient4215-2"/><linearGradient id="linearGradient861"><stop id="stop863" offset="0" stop-color="#333" stop-opacity="1"/><stop id="stop10258" offset=".342" stop-color="#3c3c3c" stop-opacity="1"/><stop id="stop865" offset="1" stop-color="#1a1a1a" stop-opacity="1"/></linearGradient><radialGradient id="radialGradient10134" cx="24" cy="-1028.362" r="24" fx="24" fy="-1028.362" gradientUnits="userSpaceOnUse" xlink:href="#linearGradient861"/><linearGradient id="linearGradient1243" x1=".177" x2="2.952" y1="-1033.842" y2="-1033.842" gradientTransform="matrix(-1,0,0,-1,48,-3.4000001e-6)" gradientUnits="userSpaceOnUse" xlink:href="#linearGradient10248"/><linearGradient id="linearGradient1232" x1=".177" x2="2.905" y1="-1033.842" y2="-1033.842" gradientTransform="matrix(1,0,0,-1,0,-3.4000001e-6)" gradientUnits="userSpaceOnUse" xlink:href="#linearGradient10248"/></defs><metadata id="metadata7"/><g id="layer1" transform="translate(0,-1004.3622)"><rect id="rect2991-1" width="48" height="48" x="0" y="-1052.362" fill="url(#radialGradient10134)" fill-opacity="1" stroke="none" ry="1.945" transform="scale(1,-1)"/><g id="g10254"><path id="rect1228" fill="url(#linearGradient1232)" fill-opacity="1" stroke="none" d="m 1.9375,1004.3622 c -1.0773,0 -1.9375,0.8602 -1.9375,1.9375 l 0,44.125 c 0,1.0772 0.8602,1.9375 1.9375,1.9375 l 6.375,0 0,-48 -6.375,0 z" opacity=".715"/><path id="path1241" fill="url(#linearGradient1243)" fill-opacity="1" stroke="none" d="m 46.0625,1004.3622 c 1.0773,0 1.9375,0.8602 1.9375,1.9375 l 0,44.125 c 0,1.0772 -0.8602,1.9375 -1.9375,1.9375 l -6.375,0 0,-48 6.375,0 z" opacity=".715"/></g><path id="path4759" fill="url(#linearGradient4761)" fill-opacity="1" fill-rule="nonzero" stroke="none" stroke-width="1.4" d="m 38.641509,21.433962 a 12.213477,12.213477 0 1 1 -24.426954,0 12.213477,12.213477 0 1 1 24.426954,0 z" color="#000" display="inline" enable-background="accumulate" overflow="visible" transform="matrix(1.3100282,0,0,1.3100282,-10.621467,1000.2831)" visibility="visible" style="marker:none"/><path id="rect846" fill="#000" fill-opacity="1" stroke="none" d="m 9.5385742e-7,1049.3622 0,1.0625 c 0,1.0773 0.86022199614258,1.9375 1.93750004614258,1.9375 l 44.124998,0 c 1.07728,0 1.9375,-0.8602 1.9375,-1.9375 l 0,-1.0625 c 0,1.0773 -0.86022,1.9375 -1.9375,1.9375 l -44.124998,0 C 0.86022295,1051.2997 9.5385742e-7,1050.4395 9.5385742e-7,1049.3622 Z"/><path id="path7515" fill="#fff" fill-opacity=".537" stroke="none" d="m 2.531251,1005.0185 c -0.917089,0 -1.67114705,0.6395 -1.84375005,1.5 0.33561205,-0.2799 0.77451205,-0.4375 1.25000005,-0.4375 l 44.124998,0 c 0.47549,0 0.91439,0.1576 1.25,0.4375 -0.1726,-0.8605 -0.92666,-1.5 -1.84375,-1.5 L 2.531251,1005.0185 Z"/><path id="rect4280" fill="#000" fill-opacity=".392" stroke="none" d="m 1.937501,1004.3622 c -1.07727705,0 -1.93750004614258,0.8602 -1.93750004614258,1.9375 l 0,43.0625 c 0,0.7934 0.48002299614258,1.449 1.15625004614258,1.75 -0.30934205,-0.3333 -0.50000005,-0.7824 -0.50000005,-1.2812 l 0,-42.9375 c 0,-1.0482 0.82689905,-1.875 1.87500005,-1.875 l 42.937498,0 c 1.0481,0 1.875,0.8268 1.875,1.875 l 0,42.9375 c 0,0.4988 -0.19066,0.9479 -0.5,1.2812 0.67623,-0.301 1.15625,-0.9566 1.15625,-1.75 l 0,-43.0625 c 0,-1.0773 -0.86022,-1.9375 -1.9375,-1.9375 L 1.937501,1004.3622 Z"/><path id="path1839" fill="url(#linearGradient2499)" fill-opacity="1" fill-rule="nonzero" stroke="none" stroke-width="1.4" d="m 38.641509,21.433962 a 12.213477,12.213477 0 1 1 -24.426954,0 12.213477,12.213477 0 1 1 24.426954,0 z" color="#000" display="inline" enable-background="accumulate" overflow="visible" transform="matrix(1.2609022,0,0,1.2609022,-9.3231636,1001.3361)" visibility="visible" style="marker:none"/><path id="path10140" fill="#fff" fill-opacity=".235" fill-rule="nonzero" stroke="none" stroke-width="1.4" d="M 24 8.5996094 C 15.494815 8.5996094 8.5996094 15.494815 8.5996094 24 C 8.5996094 24.067265 8.6085151 24.132158 8.609375 24.199219 C 8.7182856 15.787806 15.562737 9 24 9 C 32.437263 9 39.281714 15.787806 39.390625 24.199219 C 39.391485 24.132158 39.400391 24.067265 39.400391 24 C 39.400391 15.494815 32.505185 8.5996094 24 8.5996094 z" color="#000" display="inline" enable-background="accumulate" overflow="visible" transform="translate(0,1004.3622)" visibility="visible" style="marker:none"/><path id="path2036" fill="#a00" fill-opacity="1" stroke="none" d="m 23.489025,1029.8337 -7.693803,6.1068 6.831266,-7.021 z"/><path id="path2072" fill="#fbfbfb" fill-opacity=".294" stroke="none" d="m 22.625865,1028.9267 -6.84375,7 0.21875,-0.1875 6.90625,-6.5312 -0.28125,-0.2813 z"/><path id="path2477" fill="#a00" stroke="none" d="m 23.832424,1028.4047 8.694742,-19.7524 -8.039108,20.0102 z"/><path id="path2479" fill="#fff" fill-opacity=".494" stroke="none" d="m 24.48554,1028.6557 8.059346,-19.9965 -0.118274,0.2627 -8.315215,19.5988 z"/><path id="path2335" fill="#000" fill-opacity=".537" fill-rule="nonzero" stroke="none" stroke-width="1.4" d="m 121.84333,24.532894 a 2.032932,2.032932 0 1 1 -4.06586,0 2.032932,2.032932 0 1 1 4.06586,0 z" color="#000" display="inline" enable-background="accumulate" overflow="visible" transform="matrix(0.98380072,0,0,0.98380072,-93.869562,1004.2267)" visibility="visible" style="marker:none"/><g id="g9693" transform="matrix(1.106198,0,0,1.106198,-34.317154,-109.06559)"><path id="path5308" fill="#111" fill-opacity=".586" fill-rule="nonzero" stroke="none" stroke-width=".2" d="m 25.941982,34.100933 c 0,1.891602 -1.533446,3.425049 -3.425049,3.425049 -1.891602,0 -3.425048,-1.533447 -3.425048,-3.425049 0,-1.891602 1.533446,-3.425049 3.425048,-3.425049 1.891603,0 3.425049,1.533447 3.425049,3.425049 z" color="#000" display="inline" enable-background="accumulate" overflow="visible" transform="matrix(0.39590559,0,0,0.39590559,43.803969,1014.7309)" visibility="visible" style="marker:none"/><path id="path8119" fill="#828282" fill-opacity=".574" fill-rule="nonzero" stroke="none" stroke-width=".2" d="m 25.941982,34.100933 c 0,1.891602 -1.533446,3.425049 -3.425049,3.425049 -1.891602,0 -3.425048,-1.533447 -3.425048,-3.425049 0,-1.891602 1.533446,-3.425049 3.425048,-3.425049 1.891603,0 3.425049,1.533447 3.425049,3.425049 z" color="#000" display="inline" enable-background="accumulate" overflow="visible" transform="matrix(0.39590559,0,0,0.39590559,43.80397,1014.7309)" visibility="visible" style="marker:none"/><path id="path5310" fill="url(#linearGradient5318)" fill-opacity="1" fill-rule="nonzero" stroke="none" stroke-width=".2" d="m 25.941982,34.100933 c 0,1.891602 -1.533446,3.425049 -3.425049,3.425049 -1.891602,0 -3.425048,-1.533447 -3.425048,-3.425049 0,-1.891602 1.533446,-3.425049 3.425048,-3.425049 1.891603,0 3.425049,1.533447 3.425049,3.425049 z" color="#000" display="inline" enable-background="accumulate" overflow="visible" transform="matrix(0.37800725,0,0,0.37800725,44.207386,1015.3414)" visibility="visible" style="marker:none"/><path id="path5353" fill="#000" fill-opacity=".207" stroke="none" d="m 53.824593,1027.5688 -1.101256,0.6321 1.235322,0.383 c 0.03239,-0.1133 0.05746,-0.2306 0.05746,-0.3543 0,-0.245 -0.07326,-0.4654 -0.191523,-0.6608 z"/><path id="path5355" fill="#000" fill-opacity=".207" stroke="none" d="m 53.50858,1027.2145 -0.79841,1.0091 1.29637,-0.08 c -0.02564,-0.3792 -0.215487,-0.709 -0.49796,-0.9289 z"/><path id="path5357" fill="#000" fill-opacity=".024" stroke="none" d="m 53.355362,1027.1092 -0.645192,1.1156 1.267641,-0.2729 c -0.0803,-0.3613 -0.309851,-0.6647 -0.622449,-0.8427 z"/><path id="path5359" fill="#bbb" fill-opacity=".207" stroke="none" d="m 52.723337,1026.9368 c -0.323532,0 -0.615755,0.1294 -0.8427,0.3256 l 0.827139,0.96 0.159203,-1.2664 c -0.04831,-0.01 -0.09387,-0.019 -0.143642,-0.019 z"/><path id="path5361" fill="#fff" fill-opacity=".207" stroke="none" d="m 52.570119,1026.956 c -0.369782,0.043 -0.692853,0.2394 -0.900157,0.5267 l 1.041405,0.7385 z"/><path id="path5363" fill="#fff" fill-opacity=".509" stroke="none" d="m 51.602929,1027.588 c -0.111469,0.1913 -0.181946,0.4043 -0.181946,0.6416 0,0.1372 0.02748,0.2685 0.06703,0.3926 l 1.235321,-0.3543 -1.120408,-0.6799 z"/><path id="path5365" fill="#fff" fill-opacity=".509" stroke="none" d="m 51.516744,1027.7795 c -0.05403,0.1426 -0.09576,0.2886 -0.09576,0.4501 0,0.2096 0.05524,0.409 0.143642,0.5841 l 1.143151,-0.5901 z"/><path id="path5367" fill="#fff" fill-opacity=".509" stroke="none" d="m 52.702988,1028.2452 -1.272429,0.042 c 0.01691,0.3731 0.192116,0.7033 0.459654,0.9288 z"/><path id="path5369" fill="#3e3e3e" fill-opacity=".515" stroke="none" d="m 52.712564,1028.226 -1.02345,0.7888 c 0.214946,0.2821 0.545779,0.4655 0.91931,0.498 z"/><path id="path5371" fill="#eee" fill-opacity=".172" stroke="none" d="m 52.712564,1028.226 -0.94684,0.8846 c 0.236591,0.2568 0.580894,0.4118 0.957613,0.4118 l 0.0096,0 z"/><path id="path5373" fill="#979797" fill-opacity=".077" stroke="none" d="m 52.712564,1028.226 -0.793622,1.0187 c 0.22058,0.1744 0.501376,0.2777 0.804395,0.2777 0.07292,0 0.141044,-0.01 0.210675,-0.019 z"/><path id="path5375" fill="#7c7c7c" fill-opacity=".112" stroke="none" d="m 52.712564,1028.2164 -0.544643,1.1815 c 0.168115,0.08 0.356936,0.1245 0.555416,0.1245 0.175517,0 0.335752,-0.033 0.488383,-0.096 z"/><path id="path5377" fill="#3e3e3e" fill-opacity=".006" stroke="none" d="m 52.713761,1028.2272 0.363893,1.2473 c 0.352403,-0.1018 0.645072,-0.3466 0.804396,-0.6703 z"/><path id="path5379" fill="#fff" fill-opacity=".201" stroke="none" d="m 53.987387,1027.971 -1.273626,0.2299 1.053375,0.7948 c 0.156176,-0.2139 0.24898,-0.481 0.24898,-0.7661 0,-0.089 -0.01148,-0.1743 -0.02873,-0.2586 z"/><path id="path5381" fill="#fff" fill-opacity=".201" stroke="none" d="m 53.987387,1027.971 -1.274823,0.2514 1.054572,0.7733 c 0.156176,-0.2139 0.24898,-0.481 0.24898,-0.7661 0,-0.089 -0.01148,-0.1743 -0.02873,-0.2586 z"/><path id="path5434" fill="#fff" fill-opacity=".201" stroke="none" d="m 53.987387,1027.971 -1.273626,0.249 1.053375,0.7757 c 0.0026,0 0.007,-0.01 0.0096,-0.01 0.0011,0 -0.0016,-0.01 0,-0.01 0.005,-0.01 0.01431,-0.012 0.01915,-0.019 0.0289,-0.043 0.05289,-0.088 0.07661,-0.1341 0.01464,-0.028 0.02573,-0.056 0.0383,-0.086 0.0027,-0.01 0.007,-0.013 0.0096,-0.019 0.02534,-0.063 0.04209,-0.134 0.05746,-0.2011 0.0022,-0.01 0.0076,-0.019 0.0096,-0.029 0.0032,-0.016 0.0069,-0.032 0.0096,-0.048 0.01114,-0.069 0.01915,-0.1394 0.01915,-0.2107 0,-0.089 -0.01148,-0.1743 -0.02873,-0.2586 z"/><path id="path5436" fill="#d6d6d6" fill-opacity=".201" stroke="none" d="m 54.004415,1028.3415 -1.293858,-0.1195 0.792724,1.04 c 0.210311,-0.161 0.374875,-0.3909 0.455541,-0.6644 0.02529,-0.086 0.03829,-0.1704 0.04559,-0.2561 z"/><path id="path5438" fill="#fff" fill-opacity=".201" stroke="none" d="m 53.058502,1026.9943 -0.335165,1.2257 1.13956,-0.5841 c -0.165117,-0.3139 -0.455327,-0.5462 -0.804395,-0.6416 z"/><path id="path5440" fill="#fff" fill-opacity=".201" stroke="none" d="m 53.16384,1027.023 -0.440503,1.197 1.187441,-0.4788 c -0.137833,-0.3324 -0.407958,-0.5934 -0.746938,-0.7182 z"/><path id="path5442" fill="#626262" fill-opacity=".201" stroke="none" d="m 53.269177,1027.0709 -0.54584,1.1491 1.225746,-0.3734 c -0.108566,-0.3447 -0.357717,-0.6224 -0.679906,-0.7757 z"/><path id="path5444" fill="#fff" fill-opacity=".201" stroke="none" d="m 52.723337,1026.9368 c -0.350125,0 -0.667112,0.1477 -0.900157,0.3735 l 0.900157,0.9002 0.05746,-1.2641 c -0.01976,-9e-4 -0.03747,-0.01 -0.05746,-0.01 z"/><path id="path5446" fill="#fff" fill-opacity=".201" stroke="none" d="m 52.608424,1026.9464 c -0.364299,0.032 -0.685036,0.2178 -0.900157,0.4884 l 1.01507,0.7757 -0.114913,-1.2641 z"/><path id="path5448" fill="#c6c6c6" fill-opacity=".201" stroke="none" d="m 51.612505,1027.5688 c -0.11826,0.1954 -0.191522,0.4158 -0.191522,0.6608 0,0.089 0.01148,0.1743 0.02873,0.2586 0.0072,0.035 0.01869,0.071 0.02873,0.1053 l 1.235322,-0.383 -1.101256,-0.6417 z"/><path id="path5450" fill="#fff" fill-opacity=".201" stroke="none" d="m 51.440135,1028.0572 c -0.0078,0.058 -0.01915,0.1128 -0.01915,0.1724 0,0.1788 0.03982,0.3526 0.105337,0.5075 0.01568,0.034 0.02895,0.072 0.04788,0.1054 0.0081,0.014 0.02014,0.025 0.02873,0.038 0.03813,0.061 0.0784,0.1194 0.12449,0.1724 l 0.986342,-0.8427 -1.273626,-0.1533 z"/><path id="path5452" fill="#fff" fill-opacity=".201" stroke="none" d="m 53.258474,1029.3925 -0.552425,-1.1761 -0.495065,1.2104 c 0.245344,0.1 0.526916,0.1251 0.803573,0.056 0.08672,-0.022 0.166315,-0.053 0.243917,-0.09 z"/><path id="path5454" fill="#fff" fill-opacity=".568" stroke="none" d="m 53.258474,1029.3925 -0.552425,-1.1761 -0.495065,1.2104 c 0.245344,0.1 0.526916,0.1251 0.803573,0.056 0.08672,-0.022 0.166315,-0.053 0.243917,-0.09 z"/><path id="path5456" fill="#fff" fill-opacity=".568" stroke="none" d="m 53.330403,1029.3564 -0.624268,-1.1396 -0.419084,1.2388 c 0.251057,0.084 0.533663,0.092 0.805511,0.01 0.08521,-0.027 0.16269,-0.063 0.237841,-0.1054 z"/><path id="path5458" fill="#fff" fill-opacity=".568" stroke="none" d="m 53.475303,1029.2652 -0.768897,-1.0475 -0.252314,1.2832 c 0.25998,0.051 0.541167,0.021 0.799319,-0.1 0.08092,-0.038 0.152909,-0.084 0.221892,-0.1358 z"/><path id="path5460" fill="#b5b5b5" fill-opacity=".568" stroke="none" d="m 51.440135,1028.0955 c -0.0048,0.045 -0.01915,0.088 -0.01915,0.1341 0,0.1788 0.03982,0.3526 0.105337,0.5075 0.02599,0.062 0.06098,0.1162 0.09576,0.1724 0.0394,0.06 0.07738,0.1114 0.124489,0.1628 0.0016,0 -0.0016,0.01 0,0.01 l 0.96719,-0.8714 -1.273626,-0.115 z"/><path id="path5462" fill="#fff" fill-opacity=".568" stroke="none" d="m 53.041128,1029.4705 -0.335171,-1.2554 -0.701804,1.1034 c 0.223771,0.1417 0.496373,0.2167 0.780887,0.1978 0.08918,-0.01 0.173132,-0.023 0.256088,-0.046 z"/><path id="path5464" fill="#fff" fill-opacity=".568" stroke="none" d="m 53.196499,1029.4193 -0.4905,-1.2033 -0.557356,1.183 c 0.239822,0.1124 0.519688,0.1524 0.799564,0.098 0.08773,-0.017 0.168863,-0.045 0.248292,-0.078 z"/><g id="g5706" opacity=".286" transform="matrix(0.30643637,0,0,0.30643637,55.107795,1026.2473)"><g id="g5540"><g id="g5518"><path id="path5499" fill="#000" fill-opacity=".118" fill-rule="nonzero" stroke="none" stroke-width=".2" d="m -7.7811023,2.382183 c -2.2625387,0 -4.1082157,1.8167461 -4.1082157,4.0792845 0,2.2625384 1.845677,4.1082155 4.1082157,4.1082155 2.2625384,0 4.0792845,-1.8456771 4.0792845,-4.1082155 0,-2.2625384 -1.8167461,-4.0792845 -4.0792845,-4.0792845 z m 0,0.086793 c 2.2185252,0 3.9924912,1.773966 3.9924912,3.9924912 0,2.2185252 -1.773966,4.0214228 -3.9924912,4.0214228 -2.2185245,0 -4.0214227,-1.8028976 -4.0214227,-4.0214228 0,-2.2185249 1.8028992,-3.9924909 4.0214227,-3.9924909 z" color="#000" display="inline" enable-background="accumulate" overflow="visible" visibility="visible" style="marker:none"/><path d="m -7.7812817,2.4329642 c -2.2344733,0 -4.0572553,1.7942101 -4.0572553,4.0286827 0,2.2344725 1.822782,4.0572551 4.0572553,4.0572551 2.2344726,0 4.0286827,-1.8227826 4.0286827,-4.0572551 0,-2.2344726 -1.7942101,-4.0286827 -4.0286827,-4.0286827 z m 0,0.085716 c 2.1910054,0 3.942966,1.7519606 3.942966,3.942966 0,2.1910053 -1.7519606,3.9715378 -3.942966,3.9715378 -2.191005,0 -3.9715393,-1.7805325 -3.9715393,-3.9715378 0,-2.1910047 1.7805353,-3.9429653 3.9715393,-3.9429653 z" style="marker:none" id="path5508" fill="#fff" fill-opacity=".118" fill-rule="nonzero" stroke="none" stroke-width=".2" color="#000" display="inline" enable-background="accumulate" overflow="visible" visibility="visible"/><path d="m -7.7821512,2.679058 c -2.0984617,0 -3.8102918,1.6849973 -3.8102918,3.7834585 0,2.0984612 1.7118301,3.8102915 3.8102918,3.8102915 2.0984611,0 3.7834585,-1.7118303 3.7834585,-3.8102915 0,-2.0984612 -1.6849974,-3.7834585 -3.7834585,-3.7834585 z m 0,0.080499 c 2.0576397,0 3.7029593,1.6453196 3.7029593,3.7029594 0,2.0576397 -1.6453196,3.7297926 -3.7029593,3.7297926 -2.0576387,0 -3.7297928,-1.6721529 -3.7297928,-3.7297926 0,-2.0576397 1.6721541,-3.7029593 3.7297928,-3.7029593 z" style="marker:none" id="path5510" fill="#000" fill-opacity=".118" fill-rule="nonzero" stroke="none" stroke-width=".2" color="#000" display="inline" enable-background="accumulate" overflow="visible" visibility="visible"/><path id="path5512" fill="#fff" fill-opacity=".118" fill-rule="nonzero" stroke="none" stroke-width=".2" d="m -7.7823173,2.7261563 c -2.0724313,0 -3.7630277,1.6640956 -3.7630277,3.7365263 0,2.0724306 1.6905964,3.7630274 3.7630277,3.7630274 2.0724307,0 3.7365263,-1.6905968 3.7365263,-3.7630274 0,-2.0724307 -1.6640956,-3.7365263 -3.7365263,-3.7365263 z m 0,0.0795 c 2.0321157,0 3.6570257,1.62491 3.6570257,3.6570257 0,2.0321156 -1.62491,3.683526 -3.6570257,3.683526 -2.0321153,0 -3.6835277,-1.6514104 -3.6835277,-3.683526 0,-2.0321151 1.6514134,-3.6570251 3.6835277,-3.6570251 z" color="#000" display="inline" enable-background="accumulate" overflow="visible" visibility="visible" style="marker:none"/><path id="path5514" fill="#000" fill-opacity=".118" fill-rule="nonzero" stroke="none" stroke-width=".2" d="m -7.7831855,2.9718442 c -1.9366442,0 -3.5164715,1.5550629 -3.5164715,3.4917066 0,1.9366437 1.5798273,3.5164709 3.5164715,3.5164709 1.9366436,0 3.4917066,-1.5798272 3.4917066,-3.5164709 0,-1.9366437 -1.555063,-3.4917066 -3.4917066,-3.4917066 z m 0,0.074291 c 1.89897,0 3.417415,1.518445 3.417415,3.4174151 0,1.89897 -1.518445,3.4421794 -3.417415,3.4421794 -1.8989691,0 -3.4421805,-1.5432094 -3.4421805,-3.4421794 0,-1.8989696 1.5432114,-3.4174146 3.4421805,-3.4174146 z" color="#000" display="inline" enable-background="accumulate" overflow="visible" visibility="visible" style="marker:none"/><path d="m -7.7833391,3.0153109 c -1.912621,0 -3.4728509,1.535773 -3.4728509,3.4483935 0,1.9126204 1.5602299,3.4728507 3.4728509,3.4728507 1.9126204,0 3.4483935,-1.5602303 3.4483935,-3.4728507 0,-1.9126205 -1.5357731,-3.4483935 -3.4483935,-3.4483935 z m 0,0.07337 c 1.8754143,0 3.3750235,1.4996091 3.3750235,3.3750235 0,1.8754141 -1.4996092,3.3994797 -3.3750235,3.3994797 -1.8754139,0 -3.3994809,-1.5240656 -3.3994809,-3.3994797 0,-1.8754143 1.524068,-3.3750235 3.3994809,-3.3750235 z" style="marker:none" id="path5516" fill="#fff" fill-opacity=".118" fill-rule="nonzero" stroke="none" stroke-width=".2" color="#000" display="inline" enable-background="accumulate" overflow="visible" visibility="visible"/></g><g id="g5526" transform="matrix(0.79007633,0,0,0.79007633,-1.6364741,1.3594516)"><path d="m -7.7811023,2.382183 c -2.2625387,0 -4.1082157,1.8167461 -4.1082157,4.0792845 0,2.2625384 1.845677,4.1082155 4.1082157,4.1082155 2.2625384,0 4.0792845,-1.8456771 4.0792845,-4.1082155 0,-2.2625384 -1.8167461,-4.0792845 -4.0792845,-4.0792845 z m 0,0.086793 c 2.2185252,0 3.9924912,1.773966 3.9924912,3.9924912 0,2.2185252 -1.773966,4.0214228 -3.9924912,4.0214228 -2.2185245,0 -4.0214227,-1.8028976 -4.0214227,-4.0214228 0,-2.2185249 1.8028992,-3.9924909 4.0214227,-3.9924909 z" style="marker:none" id="path5528" fill="#000" fill-opacity=".118" fill-rule="nonzero" stroke="none" stroke-width=".2" color="#000" display="inline" enable-background="accumulate" overflow="visible" visibility="visible"/><path id="path5530" fill="#fff" fill-opacity=".118" fill-rule="nonzero" stroke="none" stroke-width=".2" d="m -7.7812817,2.4329642 c -2.2344733,0 -4.0572553,1.7942101 -4.0572553,4.0286827 0,2.2344725 1.822782,4.0572551 4.0572553,4.0572551 2.2344726,0 4.0286827,-1.8227826 4.0286827,-4.0572551 0,-2.2344726 -1.7942101,-4.0286827 -4.0286827,-4.0286827 z m 0,0.085716 c 2.1910054,0 3.942966,1.7519606 3.942966,3.942966 0,2.1910053 -1.7519606,3.9715378 -3.942966,3.9715378 -2.191005,0 -3.9715393,-1.7805325 -3.9715393,-3.9715378 0,-2.1910047 1.7805353,-3.9429653 3.9715393,-3.9429653 z" color="#000" display="inline" enable-background="accumulate" overflow="visible" visibility="visible" style="marker:none"/><path id="path5532" fill="#000" fill-opacity=".118" fill-rule="nonzero" stroke="none" stroke-width=".2" d="m -7.7821512,2.679058 c -2.0984617,0 -3.8102918,1.6849973 -3.8102918,3.7834585 0,2.0984612 1.7118301,3.8102915 3.8102918,3.8102915 2.0984611,0 3.7834585,-1.7118303 3.7834585,-3.8102915 0,-2.0984612 -1.6849974,-3.7834585 -3.7834585,-3.7834585 z m 0,0.080499 c 2.0576397,0 3.7029593,1.6453196 3.7029593,3.7029594 0,2.0576397 -1.6453196,3.7297926 -3.7029593,3.7297926 -2.0576387,0 -3.7297928,-1.6721529 -3.7297928,-3.7297926 0,-2.0576397 1.6721541,-3.7029593 3.7297928,-3.7029593 z" color="#000" display="inline" enable-background="accumulate" overflow="visible" visibility="visible" style="marker:none"/><path d="m -7.7823173,2.7261563 c -2.0724313,0 -3.7630277,1.6640956 -3.7630277,3.7365263 0,2.0724306 1.6905964,3.7630274 3.7630277,3.7630274 2.0724307,0 3.7365263,-1.6905968 3.7365263,-3.7630274 0,-2.0724307 -1.6640956,-3.7365263 -3.7365263,-3.7365263 z m 0,0.0795 c 2.0321157,0 3.6570257,1.62491 3.6570257,3.6570257 0,2.0321156 -1.62491,3.683526 -3.6570257,3.683526 -2.0321153,0 -3.6835277,-1.6514104 -3.6835277,-3.683526 0,-2.0321151 1.6514134,-3.6570251 3.6835277,-3.6570251 z" style="marker:none" id="path5534" fill="#fff" fill-opacity=".118" fill-rule="nonzero" stroke="none" stroke-width=".2" color="#000" display="inline" enable-background="accumulate" overflow="visible" visibility="visible"/><path d="m -7.7831855,2.9718442 c -1.9366442,0 -3.5164715,1.5550629 -3.5164715,3.4917066 0,1.9366437 1.5798273,3.5164709 3.5164715,3.5164709 1.9366436,0 3.4917066,-1.5798272 3.4917066,-3.5164709 0,-1.9366437 -1.555063,-3.4917066 -3.4917066,-3.4917066 z m 0,0.074291 c 1.89897,0 3.417415,1.518445 3.417415,3.4174151 0,1.89897 -1.518445,3.4421794 -3.417415,3.4421794 -1.8989691,0 -3.4421805,-1.5432094 -3.4421805,-3.4421794 0,-1.8989696 1.5432114,-3.4174146 3.4421805,-3.4174146 z" style="marker:none" id="path5536" fill="#000" fill-opacity=".118" fill-rule="nonzero" stroke="none" stroke-width=".2" color="#000" display="inline" enable-background="accumulate" overflow="visible" visibility="visible"/><path id="path5538" fill="#fff" fill-opacity=".118" fill-rule="nonzero" stroke="none" stroke-width=".2" d="m -7.7833391,3.0153109 c -1.912621,0 -3.4728509,1.535773 -3.4728509,3.4483935 0,1.9126204 1.5602299,3.4728507 3.4728509,3.4728507 1.9126204,0 3.4483935,-1.5602303 3.4483935,-3.4728507 0,-1.9126205 -1.5357731,-3.4483935 -3.4483935,-3.4483935 z m 0,0.07337 c 1.8754143,0 3.3750235,1.4996091 3.3750235,3.3750235 0,1.8754141 -1.4996092,3.3994797 -3.3750235,3.3994797 -1.8754139,0 -3.3994809,-1.5240656 -3.3994809,-3.3994797 0,-1.8754143 1.524068,-3.3750235 3.3994809,-3.3750235 z" color="#000" display="inline" enable-background="accumulate" overflow="visible" visibility="visible" style="marker:none"/></g></g><g id="g5556" transform="matrix(0.62755444,0,0,0.62755444,-2.9034246,2.4119325)"><g id="g5558"><path d="m -7.7811023,2.382183 c -2.2625387,0 -4.1082157,1.8167461 -4.1082157,4.0792845 0,2.2625384 1.845677,4.1082155 4.1082157,4.1082155 2.2625384,0 4.0792845,-1.8456771 4.0792845,-4.1082155 0,-2.2625384 -1.8167461,-4.0792845 -4.0792845,-4.0792845 z m 0,0.086793 c 2.2185252,0 3.9924912,1.773966 3.9924912,3.9924912 0,2.2185252 -1.773966,4.0214228 -3.9924912,4.0214228 -2.2185245,0 -4.0214227,-1.8028976 -4.0214227,-4.0214228 0,-2.2185249 1.8028992,-3.9924909 4.0214227,-3.9924909 z" style="marker:none" id="path5560" fill="#000" fill-opacity=".118" fill-rule="nonzero" stroke="none" stroke-width=".2" color="#000" display="inline" enable-background="accumulate" overflow="visible" visibility="visible"/><path id="path5562" fill="#fff" fill-opacity=".118" fill-rule="nonzero" stroke="none" stroke-width=".2" d="m -7.7812817,2.4329642 c -2.2344733,0 -4.0572553,1.7942101 -4.0572553,4.0286827 0,2.2344725 1.822782,4.0572551 4.0572553,4.0572551 2.2344726,0 4.0286827,-1.8227826 4.0286827,-4.0572551 0,-2.2344726 -1.7942101,-4.0286827 -4.0286827,-4.0286827 z m 0,0.085716 c 2.1910054,0 3.942966,1.7519606 3.942966,3.942966 0,2.1910053 -1.7519606,3.9715378 -3.942966,3.9715378 -2.191005,0 -3.9715393,-1.7805325 -3.9715393,-3.9715378 0,-2.1910047 1.7805353,-3.9429653 3.9715393,-3.9429653 z" color="#000" display="inline" enable-background="accumulate" overflow="visible" visibility="visible" style="marker:none"/><path id="path5564" fill="#000" fill-opacity=".118" fill-rule="nonzero" stroke="none" stroke-width=".2" d="m -7.7821512,2.679058 c -2.0984617,0 -3.8102918,1.6849973 -3.8102918,3.7834585 0,2.0984612 1.7118301,3.8102915 3.8102918,3.8102915 2.0984611,0 3.7834585,-1.7118303 3.7834585,-3.8102915 0,-2.0984612 -1.6849974,-3.7834585 -3.7834585,-3.7834585 z m 0,0.080499 c 2.0576397,0 3.7029593,1.6453196 3.7029593,3.7029594 0,2.0576397 -1.6453196,3.7297926 -3.7029593,3.7297926 -2.0576387,0 -3.7297928,-1.6721529 -3.7297928,-3.7297926 0,-2.0576397 1.6721541,-3.7029593 3.7297928,-3.7029593 z" color="#000" display="inline" enable-background="accumulate" overflow="visible" visibility="visible" style="marker:none"/><path d="m -7.7823173,2.7261563 c -2.0724313,0 -3.7630277,1.6640956 -3.7630277,3.7365263 0,2.0724306 1.6905964,3.7630274 3.7630277,3.7630274 2.0724307,0 3.7365263,-1.6905968 3.7365263,-3.7630274 0,-2.0724307 -1.6640956,-3.7365263 -3.7365263,-3.7365263 z m 0,0.0795 c 2.0321157,0 3.6570257,1.62491 3.6570257,3.6570257 0,2.0321156 -1.62491,3.683526 -3.6570257,3.683526 -2.0321153,0 -3.6835277,-1.6514104 -3.6835277,-3.683526 0,-2.0321151 1.6514134,-3.6570251 3.6835277,-3.6570251 z" style="marker:none" id="path5566" fill="#fff" fill-opacity=".118" fill-rule="nonzero" stroke="none" stroke-width=".2" color="#000" display="inline" enable-background="accumulate" overflow="visible" visibility="visible"/><path d="m -7.7831855,2.9718442 c -1.9366442,0 -3.5164715,1.5550629 -3.5164715,3.4917066 0,1.9366437 1.5798273,3.5164709 3.5164715,3.5164709 1.9366436,0 3.4917066,-1.5798272 3.4917066,-3.5164709 0,-1.9366437 -1.555063,-3.4917066 -3.4917066,-3.4917066 z m 0,0.074291 c 1.89897,0 3.417415,1.518445 3.417415,3.4174151 0,1.89897 -1.518445,3.4421794 -3.417415,3.4421794 -1.8989691,0 -3.4421805,-1.5432094 -3.4421805,-3.4421794 0,-1.8989696 1.5432114,-3.4174146 3.4421805,-3.4174146 z" style="marker:none" id="path5568" fill="#000" fill-opacity=".118" fill-rule="nonzero" stroke="none" stroke-width=".2" color="#000" display="inline" enable-background="accumulate" overflow="visible" visibility="visible"/><path id="path5570" fill="#fff" fill-opacity=".118" fill-rule="nonzero" stroke="none" stroke-width=".2" d="m -7.7833391,3.0153109 c -1.912621,0 -3.4728509,1.535773 -3.4728509,3.4483935 0,1.9126204 1.5602299,3.4728507 3.4728509,3.4728507 1.9126204,0 3.4483935,-1.5602303 3.4483935,-3.4728507 0,-1.9126205 -1.5357731,-3.4483935 -3.4483935,-3.4483935 z m 0,0.07337 c 1.8754143,0 3.3750235,1.4996091 3.3750235,3.3750235 0,1.8754141 -1.4996092,3.3994797 -3.3750235,3.3994797 -1.8754139,0 -3.3994809,-1.5240656 -3.3994809,-3.3994797 0,-1.8754143 1.524068,-3.3750235 3.3994809,-3.3750235 z" color="#000" display="inline" enable-background="accumulate" overflow="visible" visibility="visible" style="marker:none"/></g><g id="g5572" transform="matrix(0.79007633,0,0,0.79007633,-1.6364741,1.3594516)"><path id="path5574" fill="#000" fill-opacity=".118" fill-rule="nonzero" stroke="none" stroke-width=".2" d="m -7.7811023,2.382183 c -2.2625387,0 -4.1082157,1.8167461 -4.1082157,4.0792845 0,2.2625384 1.845677,4.1082155 4.1082157,4.1082155 2.2625384,0 4.0792845,-1.8456771 4.0792845,-4.1082155 0,-2.2625384 -1.8167461,-4.0792845 -4.0792845,-4.0792845 z m 0,0.086793 c 2.2185252,0 3.9924912,1.773966 3.9924912,3.9924912 0,2.2185252 -1.773966,4.0214228 -3.9924912,4.0214228 -2.2185245,0 -4.0214227,-1.8028976 -4.0214227,-4.0214228 0,-2.2185249 1.8028992,-3.9924909 4.0214227,-3.9924909 z" color="#000" display="inline" enable-background="accumulate" overflow="visible" visibility="visible" style="marker:none"/><path d="m -7.7812817,2.4329642 c -2.2344733,0 -4.0572553,1.7942101 -4.0572553,4.0286827 0,2.2344725 1.822782,4.0572551 4.0572553,4.0572551 2.2344726,0 4.0286827,-1.8227826 4.0286827,-4.0572551 0,-2.2344726 -1.7942101,-4.0286827 -4.0286827,-4.0286827 z m 0,0.085716 c 2.1910054,0 3.942966,1.7519606 3.942966,3.942966 0,2.1910053 -1.7519606,3.9715378 -3.942966,3.9715378 -2.191005,0 -3.9715393,-1.7805325 -3.9715393,-3.9715378 0,-2.1910047 1.7805353,-3.9429653 3.9715393,-3.9429653 z" style="marker:none" id="path5576" fill="#fff" fill-opacity=".118" fill-rule="nonzero" stroke="none" stroke-width=".2" color="#000" display="inline" enable-background="accumulate" overflow="visible" visibility="visible"/><path d="m -7.7821512,2.679058 c -2.0984617,0 -3.8102918,1.6849973 -3.8102918,3.7834585 0,2.0984612 1.7118301,3.8102915 3.8102918,3.8102915 2.0984611,0 3.7834585,-1.7118303 3.7834585,-3.8102915 0,-2.0984612 -1.6849974,-3.7834585 -3.7834585,-3.7834585 z m 0,0.080499 c 2.0576397,0 3.7029593,1.6453196 3.7029593,3.7029594 0,2.0576397 -1.6453196,3.7297926 -3.7029593,3.7297926 -2.0576387,0 -3.7297928,-1.6721529 -3.7297928,-3.7297926 0,-2.0576397 1.6721541,-3.7029593 3.7297928,-3.7029593 z" style="marker:none" id="path5578" fill="#000" fill-opacity=".118" fill-rule="nonzero" stroke="none" stroke-width=".2" color="#000" display="inline" enable-background="accumulate" overflow="visible" visibility="visible"/><path id="path5580" fill="#fff" fill-opacity=".118" fill-rule="nonzero" stroke="none" stroke-width=".2" d="m -7.7823173,2.7261563 c -2.0724313,0 -3.7630277,1.6640956 -3.7630277,3.7365263 0,2.0724306 1.6905964,3.7630274 3.7630277,3.7630274 2.0724307,0 3.7365263,-1.6905968 3.7365263,-3.7630274 0,-2.0724307 -1.6640956,-3.7365263 -3.7365263,-3.7365263 z m 0,0.0795 c 2.0321157,0 3.6570257,1.62491 3.6570257,3.6570257 0,2.0321156 -1.62491,3.683526 -3.6570257,3.683526 -2.0321153,0 -3.6835277,-1.6514104 -3.6835277,-3.683526 0,-2.0321151 1.6514134,-3.6570251 3.6835277,-3.6570251 z" color="#000" display="inline" enable-background="accumulate" overflow="visible" visibility="visible" style="marker:none"/><path id="path5582" fill="#000" fill-opacity=".118" fill-rule="nonzero" stroke="none" stroke-width=".2" d="m -7.7831855,2.9718442 c -1.9366442,0 -3.5164715,1.5550629 -3.5164715,3.4917066 0,1.9366437 1.5798273,3.5164709 3.5164715,3.5164709 1.9366436,0 3.4917066,-1.5798272 3.4917066,-3.5164709 0,-1.9366437 -1.555063,-3.4917066 -3.4917066,-3.4917066 z m 0,0.074291 c 1.89897,0 3.417415,1.518445 3.417415,3.4174151 0,1.89897 -1.518445,3.4421794 -3.417415,3.4421794 -1.8989691,0 -3.4421805,-1.5432094 -3.4421805,-3.4421794 0,-1.8989696 1.5432114,-3.4174146 3.4421805,-3.4174146 z" color="#000" display="inline" enable-background="accumulate" overflow="visible" visibility="visible" style="marker:none"/><path d="m -7.7833391,3.0153109 c -1.912621,0 -3.4728509,1.535773 -3.4728509,3.4483935 0,1.9126204 1.5602299,3.4728507 3.4728509,3.4728507 1.9126204,0 3.4483935,-1.5602303 3.4483935,-3.4728507 0,-1.9126205 -1.5357731,-3.4483935 -3.4483935,-3.4483935 z m 0,0.07337 c 1.8754143,0 3.3750235,1.4996091 3.3750235,3.3750235 0,1.8754141 -1.4996092,3.3994797 -3.3750235,3.3994797 -1.8754139,0 -3.3994809,-1.5240656 -3.3994809,-3.3994797 0,-1.8754143 1.524068,-3.3750235 3.3994809,-3.3750235 z" style="marker:none" id="path5584" fill="#fff" fill-opacity=".118" fill-rule="nonzero" stroke="none" stroke-width=".2" color="#000" display="inline" enable-background="accumulate" overflow="visible" visibility="visible"/></g></g><g id="g5586" transform="matrix(0.38870348,0,0,0.38870348,-4.7654034,3.9587153)"><g id="g5588"><path id="path5590" fill="#000" fill-opacity=".118" fill-rule="nonzero" stroke="none" stroke-width=".2" d="m -7.7811023,2.382183 c -2.2625387,0 -4.1082157,1.8167461 -4.1082157,4.0792845 0,2.2625384 1.845677,4.1082155 4.1082157,4.1082155 2.2625384,0 4.0792845,-1.8456771 4.0792845,-4.1082155 0,-2.2625384 -1.8167461,-4.0792845 -4.0792845,-4.0792845 z m 0,0.086793 c 2.2185252,0 3.9924912,1.773966 3.9924912,3.9924912 0,2.2185252 -1.773966,4.0214228 -3.9924912,4.0214228 -2.2185245,0 -4.0214227,-1.8028976 -4.0214227,-4.0214228 0,-2.2185249 1.8028992,-3.9924909 4.0214227,-3.9924909 z" color="#000" display="inline" enable-background="accumulate" overflow="visible" visibility="visible" style="marker:none"/><path d="m -7.7812817,2.4329642 c -2.2344733,0 -4.0572553,1.7942101 -4.0572553,4.0286827 0,2.2344725 1.822782,4.0572551 4.0572553,4.0572551 2.2344726,0 4.0286827,-1.8227826 4.0286827,-4.0572551 0,-2.2344726 -1.7942101,-4.0286827 -4.0286827,-4.0286827 z m 0,0.085716 c 2.1910054,0 3.942966,1.7519606 3.942966,3.942966 0,2.1910053 -1.7519606,3.9715378 -3.942966,3.9715378 -2.191005,0 -3.9715393,-1.7805325 -3.9715393,-3.9715378 0,-2.1910047 1.7805353,-3.9429653 3.9715393,-3.9429653 z" style="marker:none" id="path5592" fill="#fff" fill-opacity=".118" fill-rule="nonzero" stroke="none" stroke-width=".2" color="#000" display="inline" enable-background="accumulate" overflow="visible" visibility="visible"/><path d="m -7.7821512,2.679058 c -2.0984617,0 -3.8102918,1.6849973 -3.8102918,3.7834585 0,2.0984612 1.7118301,3.8102915 3.8102918,3.8102915 2.0984611,0 3.7834585,-1.7118303 3.7834585,-3.8102915 0,-2.0984612 -1.6849974,-3.7834585 -3.7834585,-3.7834585 z m 0,0.080499 c 2.0576397,0 3.7029593,1.6453196 3.7029593,3.7029594 0,2.0576397 -1.6453196,3.7297926 -3.7029593,3.7297926 -2.0576387,0 -3.7297928,-1.6721529 -3.7297928,-3.7297926 0,-2.0576397 1.6721541,-3.7029593 3.7297928,-3.7029593 z" style="marker:none" id="path5594" fill="#000" fill-opacity=".118" fill-rule="nonzero" stroke="none" stroke-width=".2" color="#000" display="inline" enable-background="accumulate" overflow="visible" visibility="visible"/><path id="path5596" fill="#fff" fill-opacity=".118" fill-rule="nonzero" stroke="none" stroke-width=".2" d="m -7.7823173,2.7261563 c -2.0724313,0 -3.7630277,1.6640956 -3.7630277,3.7365263 0,2.0724306 1.6905964,3.7630274 3.7630277,3.7630274 2.0724307,0 3.7365263,-1.6905968 3.7365263,-3.7630274 0,-2.0724307 -1.6640956,-3.7365263 -3.7365263,-3.7365263 z m 0,0.0795 c 2.0321157,0 3.6570257,1.62491 3.6570257,3.6570257 0,2.0321156 -1.62491,3.683526 -3.6570257,3.683526 -2.0321153,0 -3.6835277,-1.6514104 -3.6835277,-3.683526 0,-2.0321151 1.6514134,-3.6570251 3.6835277,-3.6570251 z" color="#000" display="inline" enable-background="accumulate" overflow="visible" visibility="visible" style="marker:none"/><path id="path5598" fill="#000" fill-opacity=".118" fill-rule="nonzero" stroke="none" stroke-width=".2" d="m -7.7831855,2.9718442 c -1.9366442,0 -3.5164715,1.5550629 -3.5164715,3.4917066 0,1.9366437 1.5798273,3.5164709 3.5164715,3.5164709 1.9366436,0 3.4917066,-1.5798272 3.4917066,-3.5164709 0,-1.9366437 -1.555063,-3.4917066 -3.4917066,-3.4917066 z m 0,0.074291 c 1.89897,0 3.417415,1.518445 3.417415,3.4174151 0,1.89897 -1.518445,3.4421794 -3.417415,3.4421794 -1.8989691,0 -3.4421805,-1.5432094 -3.4421805,-3.4421794 0,-1.8989696 1.5432114,-3.4174146 3.4421805,-3.4174146 z" color="#000" display="inline" enable-background="accumulate" overflow="visible" visibility="visible" style="marker:none"/><path d="m -7.7833391,3.0153109 c -1.912621,0 -3.4728509,1.535773 -3.4728509,3.4483935 0,1.9126204 1.5602299,3.4728507 3.4728509,3.4728507 1.9126204,0 3.4483935,-1.5602303 3.4483935,-3.4728507 0,-1.9126205 -1.5357731,-3.4483935 -3.4483935,-3.4483935 z m 0,0.07337 c 1.8754143,0 3.3750235,1.4996091 3.3750235,3.3750235 0,1.8754141 -1.4996092,3.3994797 -3.3750235,3.3994797 -1.8754139,0 -3.3994809,-1.5240656 -3.3994809,-3.3994797 0,-1.8754143 1.524068,-3.3750235 3.3994809,-3.3750235 z" style="marker:none" id="path5600" fill="#fff" fill-opacity=".118" fill-rule="nonzero" stroke="none" stroke-width=".2" color="#000" display="inline" enable-background="accumulate" overflow="visible" visibility="visible"/></g><g id="g5602" transform="matrix(0.79007633,0,0,0.79007633,-1.6364741,1.3594516)"><path d="m -7.7811023,2.382183 c -2.2625387,0 -4.1082157,1.8167461 -4.1082157,4.0792845 0,2.2625384 1.845677,4.1082155 4.1082157,4.1082155 2.2625384,0 4.0792845,-1.8456771 4.0792845,-4.1082155 0,-2.2625384 -1.8167461,-4.0792845 -4.0792845,-4.0792845 z m 0,0.086793 c 2.2185252,0 3.9924912,1.773966 3.9924912,3.9924912 0,2.2185252 -1.773966,4.0214228 -3.9924912,4.0214228 -2.2185245,0 -4.0214227,-1.8028976 -4.0214227,-4.0214228 0,-2.2185249 1.8028992,-3.9924909 4.0214227,-3.9924909 z" style="marker:none" id="path5604" fill="#000" fill-opacity=".118" fill-rule="nonzero" stroke="none" stroke-width=".2" color="#000" display="inline" enable-background="accumulate" overflow="visible" visibility="visible"/><path id="path5606" fill="#fff" fill-opacity=".118" fill-rule="nonzero" stroke="none" stroke-width=".2" d="m -7.7812817,2.4329642 c -2.2344733,0 -4.0572553,1.7942101 -4.0572553,4.0286827 0,2.2344725 1.822782,4.0572551 4.0572553,4.0572551 2.2344726,0 4.0286827,-1.8227826 4.0286827,-4.0572551 0,-2.2344726 -1.7942101,-4.0286827 -4.0286827,-4.0286827 z m 0,0.085716 c 2.1910054,0 3.942966,1.7519606 3.942966,3.942966 0,2.1910053 -1.7519606,3.9715378 -3.942966,3.9715378 -2.191005,0 -3.9715393,-1.7805325 -3.9715393,-3.9715378 0,-2.1910047 1.7805353,-3.9429653 3.9715393,-3.9429653 z" color="#000" display="inline" enable-background="accumulate" overflow="visible" visibility="visible" style="marker:none"/><path id="path5608" fill="#000" fill-opacity=".118" fill-rule="nonzero" stroke="none" stroke-width=".2" d="m -7.7821512,2.679058 c -2.0984617,0 -3.8102918,1.6849973 -3.8102918,3.7834585 0,2.0984612 1.7118301,3.8102915 3.8102918,3.8102915 2.0984611,0 3.7834585,-1.7118303 3.7834585,-3.8102915 0,-2.0984612 -1.6849974,-3.7834585 -3.7834585,-3.7834585 z m 0,0.080499 c 2.0576397,0 3.7029593,1.6453196 3.7029593,3.7029594 0,2.0576397 -1.6453196,3.7297926 -3.7029593,3.7297926 -2.0576387,0 -3.7297928,-1.6721529 -3.7297928,-3.7297926 0,-2.0576397 1.6721541,-3.7029593 3.7297928,-3.7029593 z" color="#000" display="inline" enable-background="accumulate" overflow="visible" visibility="visible" style="marker:none"/><path d="m -7.7823173,2.7261563 c -2.0724313,0 -3.7630277,1.6640956 -3.7630277,3.7365263 0,2.0724306 1.6905964,3.7630274 3.7630277,3.7630274 2.0724307,0 3.7365263,-1.6905968 3.7365263,-3.7630274 0,-2.0724307 -1.6640956,-3.7365263 -3.7365263,-3.7365263 z m 0,0.0795 c 2.0321157,0 3.6570257,1.62491 3.6570257,3.6570257 0,2.0321156 -1.62491,3.683526 -3.6570257,3.683526 -2.0321153,0 -3.6835277,-1.6514104 -3.6835277,-3.683526 0,-2.0321151 1.6514134,-3.6570251 3.6835277,-3.6570251 z" style="marker:none" id="path5610" fill="#fff" fill-opacity=".118" fill-rule="nonzero" stroke="none" stroke-width=".2" color="#000" display="inline" enable-background="accumulate" overflow="visible" visibility="visible"/><path d="m -7.7831855,2.9718442 c -1.9366442,0 -3.5164715,1.5550629 -3.5164715,3.4917066 0,1.9366437 1.5798273,3.5164709 3.5164715,3.5164709 1.9366436,0 3.4917066,-1.5798272 3.4917066,-3.5164709 0,-1.9366437 -1.555063,-3.4917066 -3.4917066,-3.4917066 z m 0,0.074291 c 1.89897,0 3.417415,1.518445 3.417415,3.4174151 0,1.89897 -1.518445,3.4421794 -3.417415,3.4421794 -1.8989691,0 -3.4421805,-1.5432094 -3.4421805,-3.4421794 0,-1.8989696 1.5432114,-3.4174146 3.4421805,-3.4174146 z" style="marker:none" id="path5612" fill="#000" fill-opacity=".118" fill-rule="nonzero" stroke="none" stroke-width=".2" color="#000" display="inline" enable-background="accumulate" overflow="visible" visibility="visible"/><path id="path5614" fill="#fff" fill-opacity=".118" fill-rule="nonzero" stroke="none" stroke-width=".2" d="m -7.7833391,3.0153109 c -1.912621,0 -3.4728509,1.535773 -3.4728509,3.4483935 0,1.9126204 1.5602299,3.4728507 3.4728509,3.4728507 1.9126204,0 3.4483935,-1.5602303 3.4483935,-3.4728507 0,-1.9126205 -1.5357731,-3.4483935 -3.4483935,-3.4483935 z m 0,0.07337 c 1.8754143,0 3.3750235,1.4996091 3.3750235,3.3750235 0,1.8754141 -1.4996092,3.3994797 -3.3750235,3.3994797 -1.8754139,0 -3.3994809,-1.5240656 -3.3994809,-3.3994797 0,-1.8754143 1.524068,-3.3750235 3.3994809,-3.3750235 z" color="#000" display="inline" enable-background="accumulate" overflow="visible" visibility="visible" style="marker:none"/></g></g><g id="g5616" transform="matrix(0.24293784,0,0,0.24293784,-5.9017294,4.9026838)"><g id="g5618"><path d="m -7.7811023,2.382183 c -2.2625387,0 -4.1082157,1.8167461 -4.1082157,4.0792845 0,2.2625384 1.845677,4.1082155 4.1082157,4.1082155 2.2625384,0 4.0792845,-1.8456771 4.0792845,-4.1082155 0,-2.2625384 -1.8167461,-4.0792845 -4.0792845,-4.0792845 z m 0,0.086793 c 2.2185252,0 3.9924912,1.773966 3.9924912,3.9924912 0,2.2185252 -1.773966,4.0214228 -3.9924912,4.0214228 -2.2185245,0 -4.0214227,-1.8028976 -4.0214227,-4.0214228 0,-2.2185249 1.8028992,-3.9924909 4.0214227,-3.9924909 z" style="marker:none" id="path5620" fill="#000" fill-opacity=".118" fill-rule="nonzero" stroke="none" stroke-width=".2" color="#000" display="inline" enable-background="accumulate" overflow="visible" visibility="visible"/><path id="path5622" fill="#fff" fill-opacity=".118" fill-rule="nonzero" stroke="none" stroke-width=".2" d="m -7.7812817,2.4329642 c -2.2344733,0 -4.0572553,1.7942101 -4.0572553,4.0286827 0,2.2344725 1.822782,4.0572551 4.0572553,4.0572551 2.2344726,0 4.0286827,-1.8227826 4.0286827,-4.0572551 0,-2.2344726 -1.7942101,-4.0286827 -4.0286827,-4.0286827 z m 0,0.085716 c 2.1910054,0 3.942966,1.7519606 3.942966,3.942966 0,2.1910053 -1.7519606,3.9715378 -3.942966,3.9715378 -2.191005,0 -3.9715393,-1.7805325 -3.9715393,-3.9715378 0,-2.1910047 1.7805353,-3.9429653 3.9715393,-3.9429653 z" color="#000" display="inline" enable-background="accumulate" overflow="visible" visibility="visible" style="marker:none"/><path id="path5624" fill="#000" fill-opacity=".118" fill-rule="nonzero" stroke="none" stroke-width=".2" d="m -7.7821512,2.679058 c -2.0984617,0 -3.8102918,1.6849973 -3.8102918,3.7834585 0,2.0984612 1.7118301,3.8102915 3.8102918,3.8102915 2.0984611,0 3.7834585,-1.7118303 3.7834585,-3.8102915 0,-2.0984612 -1.6849974,-3.7834585 -3.7834585,-3.7834585 z m 0,0.080499 c 2.0576397,0 3.7029593,1.6453196 3.7029593,3.7029594 0,2.0576397 -1.6453196,3.7297926 -3.7029593,3.7297926 -2.0576387,0 -3.7297928,-1.6721529 -3.7297928,-3.7297926 0,-2.0576397 1.6721541,-3.7029593 3.7297928,-3.7029593 z" color="#000" display="inline" enable-background="accumulate" overflow="visible" visibility="visible" style="marker:none"/><path d="m -7.7823173,2.7261563 c -2.0724313,0 -3.7630277,1.6640956 -3.7630277,3.7365263 0,2.0724306 1.6905964,3.7630274 3.7630277,3.7630274 2.0724307,0 3.7365263,-1.6905968 3.7365263,-3.7630274 0,-2.0724307 -1.6640956,-3.7365263 -3.7365263,-3.7365263 z m 0,0.0795 c 2.0321157,0 3.6570257,1.62491 3.6570257,3.6570257 0,2.0321156 -1.62491,3.683526 -3.6570257,3.683526 -2.0321153,0 -3.6835277,-1.6514104 -3.6835277,-3.683526 0,-2.0321151 1.6514134,-3.6570251 3.6835277,-3.6570251 z" style="marker:none" id="path5626" fill="#fff" fill-opacity=".118" fill-rule="nonzero" stroke="none" stroke-width=".2" color="#000" display="inline" enable-background="accumulate" overflow="visible" visibility="visible"/><path d="m -7.7831855,2.9718442 c -1.9366442,0 -3.5164715,1.5550629 -3.5164715,3.4917066 0,1.9366437 1.5798273,3.5164709 3.5164715,3.5164709 1.9366436,0 3.4917066,-1.5798272 3.4917066,-3.5164709 0,-1.9366437 -1.555063,-3.4917066 -3.4917066,-3.4917066 z m 0,0.074291 c 1.89897,0 3.417415,1.518445 3.417415,3.4174151 0,1.89897 -1.518445,3.4421794 -3.417415,3.4421794 -1.8989691,0 -3.4421805,-1.5432094 -3.4421805,-3.4421794 0,-1.8989696 1.5432114,-3.4174146 3.4421805,-3.4174146 z" style="marker:none" id="path5628" fill="#000" fill-opacity=".118" fill-rule="nonzero" stroke="none" stroke-width=".2" color="#000" display="inline" enable-background="accumulate" overflow="visible" visibility="visible"/><path id="path5630" fill="#fff" fill-opacity=".118" fill-rule="nonzero" stroke="none" stroke-width=".2" d="m -7.7833391,3.0153109 c -1.912621,0 -3.4728509,1.535773 -3.4728509,3.4483935 0,1.9126204 1.5602299,3.4728507 3.4728509,3.4728507 1.9126204,0 3.4483935,-1.5602303 3.4483935,-3.4728507 0,-1.9126205 -1.5357731,-3.4483935 -3.4483935,-3.4483935 z m 0,0.07337 c 1.8754143,0 3.3750235,1.4996091 3.3750235,3.3750235 0,1.8754141 -1.4996092,3.3994797 -3.3750235,3.3994797 -1.8754139,0 -3.3994809,-1.5240656 -3.3994809,-3.3994797 0,-1.8754143 1.524068,-3.3750235 3.3994809,-3.3750235 z" color="#000" display="inline" enable-background="accumulate" overflow="visible" visibility="visible" style="marker:none"/></g><g id="g5632" transform="matrix(0.79007633,0,0,0.79007633,-1.6364741,1.3594516)"><path id="path5634" fill="#000" fill-opacity=".118" fill-rule="nonzero" stroke="none" stroke-width=".2" d="m -7.7811023,2.382183 c -2.2625387,0 -4.1082157,1.8167461 -4.1082157,4.0792845 0,2.2625384 1.845677,4.1082155 4.1082157,4.1082155 2.2625384,0 4.0792845,-1.8456771 4.0792845,-4.1082155 0,-2.2625384 -1.8167461,-4.0792845 -4.0792845,-4.0792845 z m 0,0.086793 c 2.2185252,0 3.9924912,1.773966 3.9924912,3.9924912 0,2.2185252 -1.773966,4.0214228 -3.9924912,4.0214228 -2.2185245,0 -4.0214227,-1.8028976 -4.0214227,-4.0214228 0,-2.2185249 1.8028992,-3.9924909 4.0214227,-3.9924909 z" color="#000" display="inline" enable-background="accumulate" overflow="visible" visibility="visible" style="marker:none"/><path d="m -7.7812817,2.4329642 c -2.2344733,0 -4.0572553,1.7942101 -4.0572553,4.0286827 0,2.2344725 1.822782,4.0572551 4.0572553,4.0572551 2.2344726,0 4.0286827,-1.8227826 4.0286827,-4.0572551 0,-2.2344726 -1.7942101,-4.0286827 -4.0286827,-4.0286827 z m 0,0.085716 c 2.1910054,0 3.942966,1.7519606 3.942966,3.942966 0,2.1910053 -1.7519606,3.9715378 -3.942966,3.9715378 -2.191005,0 -3.9715393,-1.7805325 -3.9715393,-3.9715378 0,-2.1910047 1.7805353,-3.9429653 3.9715393,-3.9429653 z" style="marker:none" id="path5636" fill="#fff" fill-opacity=".118" fill-rule="nonzero" stroke="none" stroke-width=".2" color="#000" display="inline" enable-background="accumulate" overflow="visible" visibility="visible"/><path d="m -7.7821512,2.679058 c -2.0984617,0 -3.8102918,1.6849973 -3.8102918,3.7834585 0,2.0984612 1.7118301,3.8102915 3.8102918,3.8102915 2.0984611,0 3.7834585,-1.7118303 3.7834585,-3.8102915 0,-2.0984612 -1.6849974,-3.7834585 -3.7834585,-3.7834585 z m 0,0.080499 c 2.0576397,0 3.7029593,1.6453196 3.7029593,3.7029594 0,2.0576397 -1.6453196,3.7297926 -3.7029593,3.7297926 -2.0576387,0 -3.7297928,-1.6721529 -3.7297928,-3.7297926 0,-2.0576397 1.6721541,-3.7029593 3.7297928,-3.7029593 z" style="marker:none" id="path5638" fill="#000" fill-opacity=".118" fill-rule="nonzero" stroke="none" stroke-width=".2" color="#000" display="inline" enable-background="accumulate" overflow="visible" visibility="visible"/><path id="path5640" fill="#fff" fill-opacity=".118" fill-rule="nonzero" stroke="none" stroke-width=".2" d="m -7.7823173,2.7261563 c -2.0724313,0 -3.7630277,1.6640956 -3.7630277,3.7365263 0,2.0724306 1.6905964,3.7630274 3.7630277,3.7630274 2.0724307,0 3.7365263,-1.6905968 3.7365263,-3.7630274 0,-2.0724307 -1.6640956,-3.7365263 -3.7365263,-3.7365263 z m 0,0.0795 c 2.0321157,0 3.6570257,1.62491 3.6570257,3.6570257 0,2.0321156 -1.62491,3.683526 -3.6570257,3.683526 -2.0321153,0 -3.6835277,-1.6514104 -3.6835277,-3.683526 0,-2.0321151 1.6514134,-3.6570251 3.6835277,-3.6570251 z" color="#000" display="inline" enable-background="accumulate" overflow="visible" visibility="visible" style="marker:none"/><path id="path5642" fill="#000" fill-opacity=".118" fill-rule="nonzero" stroke="none" stroke-width=".2" d="m -7.7831855,2.9718442 c -1.9366442,0 -3.5164715,1.5550629 -3.5164715,3.4917066 0,1.9366437 1.5798273,3.5164709 3.5164715,3.5164709 1.9366436,0 3.4917066,-1.5798272 3.4917066,-3.5164709 0,-1.9366437 -1.555063,-3.4917066 -3.4917066,-3.4917066 z m 0,0.074291 c 1.89897,0 3.417415,1.518445 3.417415,3.4174151 0,1.89897 -1.518445,3.4421794 -3.417415,3.4421794 -1.8989691,0 -3.4421805,-1.5432094 -3.4421805,-3.4421794 0,-1.8989696 1.5432114,-3.4174146 3.4421805,-3.4174146 z" color="#000" display="inline" enable-background="accumulate" overflow="visible" visibility="visible" style="marker:none"/><path d="m -7.7833391,3.0153109 c -1.912621,0 -3.4728509,1.535773 -3.4728509,3.4483935 0,1.9126204 1.5602299,3.4728507 3.4728509,3.4728507 1.9126204,0 3.4483935,-1.5602303 3.4483935,-3.4728507 0,-1.9126205 -1.5357731,-3.4483935 -3.4483935,-3.4483935 z m 0,0.07337 c 1.8754143,0 3.3750235,1.4996091 3.3750235,3.3750235 0,1.8754141 -1.4996092,3.3994797 -3.3750235,3.3994797 -1.8754139,0 -3.3994809,-1.5240656 -3.3994809,-3.3994797 0,-1.8754143 1.524068,-3.3750235 3.3994809,-3.3750235 z" style="marker:none" id="path5644" fill="#fff" fill-opacity=".118" fill-rule="nonzero" stroke="none" stroke-width=".2" color="#000" display="inline" enable-background="accumulate" overflow="visible" visibility="visible"/></g></g><g id="g5646" transform="matrix(0.14990348,0,0,0.14990348,-6.6269851,5.5051681)"><g id="g5648"><path id="path5650" fill="#000" fill-opacity=".118" fill-rule="nonzero" stroke="none" stroke-width=".2" d="m -7.7811023,2.382183 c -2.2625387,0 -4.1082157,1.8167461 -4.1082157,4.0792845 0,2.2625384 1.845677,4.1082155 4.1082157,4.1082155 2.2625384,0 4.0792845,-1.8456771 4.0792845,-4.1082155 0,-2.2625384 -1.8167461,-4.0792845 -4.0792845,-4.0792845 z m 0,0.086793 c 2.2185252,0 3.9924912,1.773966 3.9924912,3.9924912 0,2.2185252 -1.773966,4.0214228 -3.9924912,4.0214228 -2.2185245,0 -4.0214227,-1.8028976 -4.0214227,-4.0214228 0,-2.2185249 1.8028992,-3.9924909 4.0214227,-3.9924909 z" color="#000" display="inline" enable-background="accumulate" overflow="visible" visibility="visible" style="marker:none"/><path d="m -7.7812817,2.4329642 c -2.2344733,0 -4.0572553,1.7942101 -4.0572553,4.0286827 0,2.2344725 1.822782,4.0572551 4.0572553,4.0572551 2.2344726,0 4.0286827,-1.8227826 4.0286827,-4.0572551 0,-2.2344726 -1.7942101,-4.0286827 -4.0286827,-4.0286827 z m 0,0.085716 c 2.1910054,0 3.942966,1.7519606 3.942966,3.942966 0,2.1910053 -1.7519606,3.9715378 -3.942966,3.9715378 -2.191005,0 -3.9715393,-1.7805325 -3.9715393,-3.9715378 0,-2.1910047 1.7805353,-3.9429653 3.9715393,-3.9429653 z" style="marker:none" id="path5652" fill="#fff" fill-opacity=".118" fill-rule="nonzero" stroke="none" stroke-width=".2" color="#000" display="inline" enable-background="accumulate" overflow="visible" visibility="visible"/><path d="m -7.7821512,2.679058 c -2.0984617,0 -3.8102918,1.6849973 -3.8102918,3.7834585 0,2.0984612 1.7118301,3.8102915 3.8102918,3.8102915 2.0984611,0 3.7834585,-1.7118303 3.7834585,-3.8102915 0,-2.0984612 -1.6849974,-3.7834585 -3.7834585,-3.7834585 z m 0,0.080499 c 2.0576397,0 3.7029593,1.6453196 3.7029593,3.7029594 0,2.0576397 -1.6453196,3.7297926 -3.7029593,3.7297926 -2.0576387,0 -3.7297928,-1.6721529 -3.7297928,-3.7297926 0,-2.0576397 1.6721541,-3.7029593 3.7297928,-3.7029593 z" style="marker:none" id="path5654" fill="#000" fill-opacity=".118" fill-rule="nonzero" stroke="none" stroke-width=".2" color="#000" display="inline" enable-background="accumulate" overflow="visible" visibility="visible"/><path id="path5656" fill="#fff" fill-opacity=".118" fill-rule="nonzero" stroke="none" stroke-width=".2" d="m -7.7823173,2.7261563 c -2.0724313,0 -3.7630277,1.6640956 -3.7630277,3.7365263 0,2.0724306 1.6905964,3.7630274 3.7630277,3.7630274 2.0724307,0 3.7365263,-1.6905968 3.7365263,-3.7630274 0,-2.0724307 -1.6640956,-3.7365263 -3.7365263,-3.7365263 z m 0,0.0795 c 2.0321157,0 3.6570257,1.62491 3.6570257,3.6570257 0,2.0321156 -1.62491,3.683526 -3.6570257,3.683526 -2.0321153,0 -3.6835277,-1.6514104 -3.6835277,-3.683526 0,-2.0321151 1.6514134,-3.6570251 3.6835277,-3.6570251 z" color="#000" display="inline" enable-background="accumulate" overflow="visible" visibility="visible" style="marker:none"/><path id="path5658" fill="#000" fill-opacity=".118" fill-rule="nonzero" stroke="none" stroke-width=".2" d="m -7.7831855,2.9718442 c -1.9366442,0 -3.5164715,1.5550629 -3.5164715,3.4917066 0,1.9366437 1.5798273,3.5164709 3.5164715,3.5164709 1.9366436,0 3.4917066,-1.5798272 3.4917066,-3.5164709 0,-1.9366437 -1.555063,-3.4917066 -3.4917066,-3.4917066 z m 0,0.074291 c 1.89897,0 3.417415,1.518445 3.417415,3.4174151 0,1.89897 -1.518445,3.4421794 -3.417415,3.4421794 -1.8989691,0 -3.4421805,-1.5432094 -3.4421805,-3.4421794 0,-1.8989696 1.5432114,-3.4174146 3.4421805,-3.4174146 z" color="#000" display="inline" enable-background="accumulate" overflow="visible" visibility="visible" style="marker:none"/><path d="m -7.7833391,3.0153109 c -1.912621,0 -3.4728509,1.535773 -3.4728509,3.4483935 0,1.9126204 1.5602299,3.4728507 3.4728509,3.4728507 1.9126204,0 3.4483935,-1.5602303 3.4483935,-3.4728507 0,-1.9126205 -1.5357731,-3.4483935 -3.4483935,-3.4483935 z m 0,0.07337 c 1.8754143,0 3.3750235,1.4996091 3.3750235,3.3750235 0,1.8754141 -1.4996092,3.3994797 -3.3750235,3.3994797 -1.8754139,0 -3.3994809,-1.5240656 -3.3994809,-3.3994797 0,-1.8754143 1.524068,-3.3750235 3.3994809,-3.3750235 z" style="marker:none" id="path5660" fill="#fff" fill-opacity=".118" fill-rule="nonzero" stroke="none" stroke-width=".2" color="#000" display="inline" enable-background="accumulate" overflow="visible" visibility="visible"/></g><g id="g5662" transform="matrix(0.79007633,0,0,0.79007633,-1.6364741,1.3594516)"><path d="m -7.7811023,2.382183 c -2.2625387,0 -4.1082157,1.8167461 -4.1082157,4.0792845 0,2.2625384 1.845677,4.1082155 4.1082157,4.1082155 2.2625384,0 4.0792845,-1.8456771 4.0792845,-4.1082155 0,-2.2625384 -1.8167461,-4.0792845 -4.0792845,-4.0792845 z m 0,0.086793 c 2.2185252,0 3.9924912,1.773966 3.9924912,3.9924912 0,2.2185252 -1.773966,4.0214228 -3.9924912,4.0214228 -2.2185245,0 -4.0214227,-1.8028976 -4.0214227,-4.0214228 0,-2.2185249 1.8028992,-3.9924909 4.0214227,-3.9924909 z" style="marker:none" id="path5664" fill="#000" fill-opacity=".118" fill-rule="nonzero" stroke="none" stroke-width=".2" color="#000" display="inline" enable-background="accumulate" overflow="visible" visibility="visible"/><path id="path5666" fill="#fff" fill-opacity=".118" fill-rule="nonzero" stroke="none" stroke-width=".2" d="m -7.7812817,2.4329642 c -2.2344733,0 -4.0572553,1.7942101 -4.0572553,4.0286827 0,2.2344725 1.822782,4.0572551 4.0572553,4.0572551 2.2344726,0 4.0286827,-1.8227826 4.0286827,-4.0572551 0,-2.2344726 -1.7942101,-4.0286827 -4.0286827,-4.0286827 z m 0,0.085716 c 2.1910054,0 3.942966,1.7519606 3.942966,3.942966 0,2.1910053 -1.7519606,3.9715378 -3.942966,3.9715378 -2.191005,0 -3.9715393,-1.7805325 -3.9715393,-3.9715378 0,-2.1910047 1.7805353,-3.9429653 3.9715393,-3.9429653 z" color="#000" display="inline" enable-background="accumulate" overflow="visible" visibility="visible" style="marker:none"/><path id="path5668" fill="#000" fill-opacity=".118" fill-rule="nonzero" stroke="none" stroke-width=".2" d="m -7.7821512,2.679058 c -2.0984617,0 -3.8102918,1.6849973 -3.8102918,3.7834585 0,2.0984612 1.7118301,3.8102915 3.8102918,3.8102915 2.0984611,0 3.7834585,-1.7118303 3.7834585,-3.8102915 0,-2.0984612 -1.6849974,-3.7834585 -3.7834585,-3.7834585 z m 0,0.080499 c 2.0576397,0 3.7029593,1.6453196 3.7029593,3.7029594 0,2.0576397 -1.6453196,3.7297926 -3.7029593,3.7297926 -2.0576387,0 -3.7297928,-1.6721529 -3.7297928,-3.7297926 0,-2.0576397 1.6721541,-3.7029593 3.7297928,-3.7029593 z" color="#000" display="inline" enable-background="accumulate" overflow="visible" visibility="visible" style="marker:none"/><path d="m -7.7823173,2.7261563 c -2.0724313,0 -3.7630277,1.6640956 -3.7630277,3.7365263 0,2.0724306 1.6905964,3.7630274 3.7630277,3.7630274 2.0724307,0 3.7365263,-1.6905968 3.7365263,-3.7630274 0,-2.0724307 -1.6640956,-3.7365263 -3.7365263,-3.7365263 z m 0,0.0795 c 2.0321157,0 3.6570257,1.62491 3.6570257,3.6570257 0,2.0321156 -1.62491,3.683526 -3.6570257,3.683526 -2.0321153,0 -3.6835277,-1.6514104 -3.6835277,-3.683526 0,-2.0321151 1.6514134,-3.6570251 3.6835277,-3.6570251 z" style="marker:none" id="path5670" fill="#fff" fill-opacity=".118" fill-rule="nonzero" stroke="none" stroke-width=".2" color="#000" display="inline" enable-background="accumulate" overflow="visible" visibility="visible"/><path d="m -7.7831855,2.9718442 c -1.9366442,0 -3.5164715,1.5550629 -3.5164715,3.4917066 0,1.9366437 1.5798273,3.5164709 3.5164715,3.5164709 1.9366436,0 3.4917066,-1.5798272 3.4917066,-3.5164709 0,-1.9366437 -1.555063,-3.4917066 -3.4917066,-3.4917066 z m 0,0.074291 c 1.89897,0 3.417415,1.518445 3.417415,3.4174151 0,1.89897 -1.518445,3.4421794 -3.417415,3.4421794 -1.8989691,0 -3.4421805,-1.5432094 -3.4421805,-3.4421794 0,-1.8989696 1.5432114,-3.4174146 3.4421805,-3.4174146 z" style="marker:none" id="path5672" fill="#000" fill-opacity=".118" fill-rule="nonzero" stroke="none" stroke-width=".2" color="#000" display="inline" enable-background="accumulate" overflow="visible" visibility="visible"/><path id="path5674" fill="#fff" fill-opacity=".118" fill-rule="nonzero" stroke="none" stroke-width=".2" d="m -7.7833391,3.0153109 c -1.912621,0 -3.4728509,1.535773 -3.4728509,3.4483935 0,1.9126204 1.5602299,3.4728507 3.4728509,3.4728507 1.9126204,0 3.4483935,-1.5602303 3.4483935,-3.4728507 0,-1.9126205 -1.5357731,-3.4483935 -3.4483935,-3.4483935 z m 0,0.07337 c 1.8754143,0 3.3750235,1.4996091 3.3750235,3.3750235 0,1.8754141 -1.4996092,3.3994797 -3.3750235,3.3994797 -1.8754139,0 -3.3994809,-1.5240656 -3.3994809,-3.3994797 0,-1.8754143 1.524068,-3.3750235 3.3994809,-3.3750235 z" color="#000" display="inline" enable-background="accumulate" overflow="visible" visibility="visible" style="marker:none"/></g></g><g id="g5676" transform="matrix(0.09169737,0,0,0.09169737,-7.0807347,5.8821069)"><g id="g5678"><path d="m -7.7811023,2.382183 c -2.2625387,0 -4.1082157,1.8167461 -4.1082157,4.0792845 0,2.2625384 1.845677,4.1082155 4.1082157,4.1082155 2.2625384,0 4.0792845,-1.8456771 4.0792845,-4.1082155 0,-2.2625384 -1.8167461,-4.0792845 -4.0792845,-4.0792845 z m 0,0.086793 c 2.2185252,0 3.9924912,1.773966 3.9924912,3.9924912 0,2.2185252 -1.773966,4.0214228 -3.9924912,4.0214228 -2.2185245,0 -4.0214227,-1.8028976 -4.0214227,-4.0214228 0,-2.2185249 1.8028992,-3.9924909 4.0214227,-3.9924909 z" style="marker:none" id="path5680" fill="#000" fill-opacity=".118" fill-rule="nonzero" stroke="none" stroke-width=".2" color="#000" display="inline" enable-background="accumulate" overflow="visible" visibility="visible"/><path id="path5682" fill="#fff" fill-opacity=".118" fill-rule="nonzero" stroke="none" stroke-width=".2" d="m -7.7812817,2.4329642 c -2.2344733,0 -4.0572553,1.7942101 -4.0572553,4.0286827 0,2.2344725 1.822782,4.0572551 4.0572553,4.0572551 2.2344726,0 4.0286827,-1.8227826 4.0286827,-4.0572551 0,-2.2344726 -1.7942101,-4.0286827 -4.0286827,-4.0286827 z m 0,0.085716 c 2.1910054,0 3.942966,1.7519606 3.942966,3.942966 0,2.1910053 -1.7519606,3.9715378 -3.942966,3.9715378 -2.191005,0 -3.9715393,-1.7805325 -3.9715393,-3.9715378 0,-2.1910047 1.7805353,-3.9429653 3.9715393,-3.9429653 z" color="#000" display="inline" enable-background="accumulate" overflow="visible" visibility="visible" style="marker:none"/><path id="path5684" fill="#000" fill-opacity=".118" fill-rule="nonzero" stroke="none" stroke-width=".2" d="m -7.7821512,2.679058 c -2.0984617,0 -3.8102918,1.6849973 -3.8102918,3.7834585 0,2.0984612 1.7118301,3.8102915 3.8102918,3.8102915 2.0984611,0 3.7834585,-1.7118303 3.7834585,-3.8102915 0,-2.0984612 -1.6849974,-3.7834585 -3.7834585,-3.7834585 z m 0,0.080499 c 2.0576397,0 3.7029593,1.6453196 3.7029593,3.7029594 0,2.0576397 -1.6453196,3.7297926 -3.7029593,3.7297926 -2.0576387,0 -3.7297928,-1.6721529 -3.7297928,-3.7297926 0,-2.0576397 1.6721541,-3.7029593 3.7297928,-3.7029593 z" color="#000" display="inline" enable-background="accumulate" overflow="visible" visibility="visible" style="marker:none"/><path d="m -7.7823173,2.7261563 c -2.0724313,0 -3.7630277,1.6640956 -3.7630277,3.7365263 0,2.0724306 1.6905964,3.7630274 3.7630277,3.7630274 2.0724307,0 3.7365263,-1.6905968 3.7365263,-3.7630274 0,-2.0724307 -1.6640956,-3.7365263 -3.7365263,-3.7365263 z m 0,0.0795 c 2.0321157,0 3.6570257,1.62491 3.6570257,3.6570257 0,2.0321156 -1.62491,3.683526 -3.6570257,3.683526 -2.0321153,0 -3.6835277,-1.6514104 -3.6835277,-3.683526 0,-2.0321151 1.6514134,-3.6570251 3.6835277,-3.6570251 z" style="marker:none" id="path5686" fill="#fff" fill-opacity=".118" fill-rule="nonzero" stroke="none" stroke-width=".2" color="#000" display="inline" enable-background="accumulate" overflow="visible" visibility="visible"/><path d="m -7.7831855,2.9718442 c -1.9366442,0 -3.5164715,1.5550629 -3.5164715,3.4917066 0,1.9366437 1.5798273,3.5164709 3.5164715,3.5164709 1.9366436,0 3.4917066,-1.5798272 3.4917066,-3.5164709 0,-1.9366437 -1.555063,-3.4917066 -3.4917066,-3.4917066 z m 0,0.074291 c 1.89897,0 3.417415,1.518445 3.417415,3.4174151 0,1.89897 -1.518445,3.4421794 -3.417415,3.4421794 -1.8989691,0 -3.4421805,-1.5432094 -3.4421805,-3.4421794 0,-1.8989696 1.5432114,-3.4174146 3.4421805,-3.4174146 z" style="marker:none" id="path5688" fill="#000" fill-opacity=".118" fill-rule="nonzero" stroke="none" stroke-width=".2" color="#000" display="inline" enable-background="accumulate" overflow="visible" visibility="visible"/><path id="path5690" fill="#fff" fill-opacity=".118" fill-rule="nonzero" stroke="none" stroke-width=".2" d="m -7.7833391,3.0153109 c -1.912621,0 -3.4728509,1.535773 -3.4728509,3.4483935 0,1.9126204 1.5602299,3.4728507 3.4728509,3.4728507 1.9126204,0 3.4483935,-1.5602303 3.4483935,-3.4728507 0,-1.9126205 -1.5357731,-3.4483935 -3.4483935,-3.4483935 z m 0,0.07337 c 1.8754143,0 3.3750235,1.4996091 3.3750235,3.3750235 0,1.8754141 -1.4996092,3.3994797 -3.3750235,3.3994797 -1.8754139,0 -3.3994809,-1.5240656 -3.3994809,-3.3994797 0,-1.8754143 1.524068,-3.3750235 3.3994809,-3.3750235 z" color="#000" display="inline" enable-background="accumulate" overflow="visible" visibility="visible" style="marker:none"/></g><g id="g5692" transform="matrix(0.79007633,0,0,0.79007633,-1.6364741,1.3594516)"><path id="path5694" fill="#000" fill-opacity=".118" fill-rule="nonzero" stroke="none" stroke-width=".2" d="m -7.7811023,2.382183 c -2.2625387,0 -4.1082157,1.8167461 -4.1082157,4.0792845 0,2.2625384 1.845677,4.1082155 4.1082157,4.1082155 2.2625384,0 4.0792845,-1.8456771 4.0792845,-4.1082155 0,-2.2625384 -1.8167461,-4.0792845 -4.0792845,-4.0792845 z m 0,0.086793 c 2.2185252,0 3.9924912,1.773966 3.9924912,3.9924912 0,2.2185252 -1.773966,4.0214228 -3.9924912,4.0214228 -2.2185245,0 -4.0214227,-1.8028976 -4.0214227,-4.0214228 0,-2.2185249 1.8028992,-3.9924909 4.0214227,-3.9924909 z" color="#000" display="inline" enable-background="accumulate" overflow="visible" visibility="visible" style="marker:none"/><path d="m -7.7812817,2.4329642 c -2.2344733,0 -4.0572553,1.7942101 -4.0572553,4.0286827 0,2.2344725 1.822782,4.0572551 4.0572553,4.0572551 2.2344726,0 4.0286827,-1.8227826 4.0286827,-4.0572551 0,-2.2344726 -1.7942101,-4.0286827 -4.0286827,-4.0286827 z m 0,0.085716 c 2.1910054,0 3.942966,1.7519606 3.942966,3.942966 0,2.1910053 -1.7519606,3.9715378 -3.942966,3.9715378 -2.191005,0 -3.9715393,-1.7805325 -3.9715393,-3.9715378 0,-2.1910047 1.7805353,-3.9429653 3.9715393,-3.9429653 z" style="marker:none" id="path5696" fill="#fff" fill-opacity=".118" fill-rule="nonzero" stroke="none" stroke-width=".2" color="#000" display="inline" enable-background="accumulate" overflow="visible" visibility="visible"/><path d="m -7.7821512,2.679058 c -2.0984617,0 -3.8102918,1.6849973 -3.8102918,3.7834585 0,2.0984612 1.7118301,3.8102915 3.8102918,3.8102915 2.0984611,0 3.7834585,-1.7118303 3.7834585,-3.8102915 0,-2.0984612 -1.6849974,-3.7834585 -3.7834585,-3.7834585 z m 0,0.080499 c 2.0576397,0 3.7029593,1.6453196 3.7029593,3.7029594 0,2.0576397 -1.6453196,3.7297926 -3.7029593,3.7297926 -2.0576387,0 -3.7297928,-1.6721529 -3.7297928,-3.7297926 0,-2.0576397 1.6721541,-3.7029593 3.7297928,-3.7029593 z" style="marker:none" id="path5698" fill="#000" fill-opacity=".118" fill-rule="nonzero" stroke="none" stroke-width=".2" color="#000" display="inline" enable-background="accumulate" overflow="visible" visibility="visible"/><path id="path5700" fill="#fff" fill-opacity=".118" fill-rule="nonzero" stroke="none" stroke-width=".2" d="m -7.7823173,2.7261563 c -2.0724313,0 -3.7630277,1.6640956 -3.7630277,3.7365263 0,2.0724306 1.6905964,3.7630274 3.7630277,3.7630274 2.0724307,0 3.7365263,-1.6905968 3.7365263,-3.7630274 0,-2.0724307 -1.6640956,-3.7365263 -3.7365263,-3.7365263 z m 0,0.0795 c 2.0321157,0 3.6570257,1.62491 3.6570257,3.6570257 0,2.0321156 -1.62491,3.683526 -3.6570257,3.683526 -2.0321153,0 -3.6835277,-1.6514104 -3.6835277,-3.683526 0,-2.0321151 1.6514134,-3.6570251 3.6835277,-3.6570251 z" color="#000" display="inline" enable-background="accumulate" overflow="visible" visibility="visible" style="marker:none"/><path id="path5702" fill="#000" fill-opacity=".118" fill-rule="nonzero" stroke="none" stroke-width=".2" d="m -7.7831855,2.9718442 c -1.9366442,0 -3.5164715,1.5550629 -3.5164715,3.4917066 0,1.9366437 1.5798273,3.5164709 3.5164715,3.5164709 1.9366436,0 3.4917066,-1.5798272 3.4917066,-3.5164709 0,-1.9366437 -1.555063,-3.4917066 -3.4917066,-3.4917066 z m 0,0.074291 c 1.89897,0 3.417415,1.518445 3.417415,3.4174151 0,1.89897 -1.518445,3.4421794 -3.417415,3.4421794 -1.8989691,0 -3.4421805,-1.5432094 -3.4421805,-3.4421794 0,-1.8989696 1.5432114,-3.4174146 3.4421805,-3.4174146 z" color="#000" display="inline" enable-background="accumulate" overflow="visible" visibility="visible" style="marker:none"/><path d="m -7.7833391,3.0153109 c -1.912621,0 -3.4728509,1.535773 -3.4728509,3.4483935 0,1.9126204 1.5602299,3.4728507 3.4728509,3.4728507 1.9126204,0 3.4483935,-1.5602303 3.4483935,-3.4728507 0,-1.9126205 -1.5357731,-3.4483935 -3.4483935,-3.4483935 z m 0,0.07337 c 1.8754143,0 3.3750235,1.4996091 3.3750235,3.3750235 0,1.8754141 -1.4996092,3.3994797 -3.3750235,3.3994797 -1.8754139,0 -3.3994809,-1.5240656 -3.3994809,-3.3994797 0,-1.8754143 1.524068,-3.3750235 3.3994809,-3.3750235 z" style="marker:none" id="path5704" fill="#fff" fill-opacity=".118" fill-rule="nonzero" stroke="none" stroke-width=".2" color="#000" display="inline" enable-background="accumulate" overflow="visible" visibility="visible"/></g></g></g></g><path id="path10145" fill="#000" fill-opacity=".314" fill-rule="nonzero" stroke="none" stroke-width="1.4" d="M 8.6191406 23.599609 C 8.615678 23.733962 8.5996094 23.864812 8.5996094 24 C 8.5996094 32.505185 15.494815 39.400391 24 39.400391 C 32.505185 39.400391 39.400391 32.505185 39.400391 24 C 39.400391 23.864812 39.384322 23.733962 39.380859 23.599609 C 39.166734 31.918146 32.370165 38.599609 24 38.599609 C 15.629835 38.599609 8.8332662 31.918146 8.6191406 23.599609 z" color="#000" display="inline" enable-background="accumulate" overflow="visible" transform="translate(0,1004.3622)" visibility="visible" style="marker:none"/></g></svg>