<svg xmlns="http://www.w3.org/2000/svg" xmlns:svg="http://www.w3.org/2000/svg" xmlns:xlink="http://www.w3.org/1999/xlink" id="svg2" width="48" height="48" version="1.1"><defs id="defs4"><linearGradient id="linearGradient4357"><stop id="stop4359" offset="0" stop-color="#f5c3c3" stop-opacity="1"/><stop id="stop4361" offset="1" stop-color="#fff" stop-opacity="1"/></linearGradient><linearGradient id="linearGradient943-2"><stop id="stop945-8" offset="0" stop-color="#db2425" stop-opacity="1"/><stop id="stop947-0" offset="1" stop-color="#e53b3c" stop-opacity="1"/></linearGradient><linearGradient id="linearGradient4788-0"><stop id="stop4790-6" offset="0" stop-color="#000" stop-opacity="1"/><stop id="stop4792-8" offset="1" stop-color="#000" stop-opacity="0"/></linearGradient><linearGradient id="linearGradient4433-8"><stop id="stop4435-5" offset="0" stop-color="#2b3141" stop-opacity="1"/><stop id="stop4437-0" offset="1" stop-color="#394056" stop-opacity="1"/></linearGradient><linearGradient id="linearGradient4117-8" x1="92.143" x2="92.143" y1="-1049.092" y2="-1001.09" gradientTransform="translate(416.82086,469.8687)" gradientUnits="userSpaceOnUse" xlink:href="#linearGradient943-2"/><linearGradient id="linearGradient4439-9" x1="42.957" x2="42.957" y1="48" y2="33.999" gradientTransform="translate(481.7143,531.21931)" gradientUnits="userSpaceOnUse" xlink:href="#linearGradient4433-8"/><linearGradient id="linearGradient4786-3" x1="458.571" x2="472.509" y1="871.361" y2="862.361" gradientTransform="matrix(-1,0,0,-1,974.28574,1441.5807)" gradientUnits="userSpaceOnUse" xlink:href="#linearGradient4788-0"/><linearGradient id="linearGradient4219-1" x1="465.571" x2="458.571" y1="869.362" y2="862.363" gradientTransform="translate(57.14286,-297.14288)" gradientUnits="userSpaceOnUse" xlink:href="#linearGradient4273"/><style id="style1115" type="text/css"><![CDATA[ .fil0 {fill:#1F1A17} ]]></style><style id="style1246" type="text/css"><![CDATA[ .fil0 {fill:#1F1A17} ]]></style><linearGradient id="linearGradient4273-7" x1="23.339" x2="23.339" y1="39" y2="9" gradientUnits="userSpaceOnUse" xlink:href="#linearGradient4357"/><linearGradient id="linearGradient4273"><stop id="stop4275" offset="0" stop-color="#e14b4b" stop-opacity="1"/><stop id="stop4277" offset="1" stop-color="#f19fa0" stop-opacity="1"/></linearGradient></defs><metadata id="metadata7"/><g id="layer1" transform="translate(0,-1004.3622)"><g id="layer1-0" transform="translate(-481.71429,473.1429)"><rect id="rect2991-1-7-3-5" width="48" height="48" x="481.714" y="-579.219" fill="url(#linearGradient4117-8)" fill-opacity="1" stroke="none" ry="1.945" transform="scale(1,-1)"/><path id="path4287" fill="#000" fill-opacity=".059" stroke="none" d="m 505.71429,541.4193 c -8.31,0 -15,6.69 -15,15 0,8.31 6.69,15 15,15 8.31,0 15,-6.69 15,-15 0,-8.31 -6.69,-15 -15,-15 z m 0,3 c 6.648,0 12,5.352 12,12 0,6.648 -5.352,12 -12,12 -6.648,0 -12,-5.352 -12,-12 0,-6.648 5.352,-12 12,-12 z m -3.5,3 0,9 -5,0 4.25,4.5 4.25,4.5 4.25,-4.5 4.25,-4.5 -5,0 0,-9 -7,0 z"/><path id="path4285" fill="#000" fill-opacity=".118" stroke="none" d="m 505.71429,541.0193 c -8.31,0 -15,6.69 -15,15 0,8.31 6.69,15 15,15 8.31,0 15,-6.69 15,-15 0,-8.31 -6.69,-15 -15,-15 z m 0,3 c 6.648,0 12,5.352 12,12 0,6.648 -5.352,12 -12,12 -6.648,0 -12,-5.352 -12,-12 0,-6.648 5.352,-12 12,-12 z m -3.5,3 0,9 -5,0 4.25,4.5 4.25,4.5 4.25,-4.5 4.25,-4.5 -5,0 0,-9 -7,0 z"/><path id="path4281" fill="#000" fill-opacity=".235" stroke="none" d="m 505.71429,540.6193 c -8.31,0 -15,6.69 -15,15 0,8.31 6.69,15 15,15 8.31,0 15,-6.69 15,-15 0,-8.31 -6.69,-15 -15,-15 z m 0,3 c 6.648,0 12,5.352 12,12 0,6.648 -5.352,12 -12,12 -6.648,0 -12,-5.352 -12,-12 0,-6.648 5.352,-12 12,-12 z m -3.5,3 0,9 -5,0 4.25,4.5 4.25,4.5 4.25,-4.5 4.25,-4.5 -5,0 0,-9 -7,0 z"/><path id="rect4243" fill="url(#linearGradient4273-7)" fill-opacity="1" stroke="none" d="M 24,9 C 15.69,9 9,15.69 9,24 9,32.31 15.69,39 24,39 32.31,39 39,32.31 39,24 39,15.69 32.31,9 24,9 Z m 0,3 c 6.648,0 12,5.352 12,12 0,6.648 -5.352,12 -12,12 -6.648,0 -12,-5.352 -12,-12 0,-6.648 5.352,-12 12,-12 z m -3.5,3 0,9 -5,0 4.25,4.5 4.25,4.5 4.25,-4.5 4.25,-4.5 -5,0 0,-9 -7,0 z" transform="translate(481.71429,531.2193)"/><path id="path7515-3-9" fill="#fff" fill-opacity=".537" stroke="none" d="m 484.24553,531.87561 c -0.91709,0 -1.67115,0.6395 -1.84375,1.5 0.33561,-0.2799 0.77451,-0.4375 1.25,-0.4375 l 44.125,0 c 0.47549,0 0.91439,0.1576 1.25,0.4375 -0.1726,-0.8605 -0.92666,-1.5 -1.84375,-1.5 l -42.9375,0 z"/><path id="path4100" fill="#de2627" fill-opacity=".314" stroke="none" d="m 24,11.199219 c -6.648,0 -12,5.352 -12,12 0,0.135188 0.01514,0.266308 0.01953,0.40039 C 12.23113,17.140078 17.487189,12 24,12 30.512811,12 35.76887,17.140078 35.980469,23.599609 35.984861,23.465527 36,23.334407 36,23.199219 c 0,-6.648 -5.352,-12 -12,-12 z M 9.0195312,23.599609 C 9.0160076,23.734003 9,23.864726 9,24 c 0,8.31 6.69,15 15,15 8.31,0 15,-6.69 15,-15 0,-0.135274 -0.01601,-0.265997 -0.01953,-0.400391 -0.212676,8.12176 -6.805572,14.59961 -14.980469,14.59961 -8.174897,0 -14.7677931,-6.47785 -14.9804688,-14.59961 z M 15.5,24 19.75,28.5 24,33 28.25,28.5 32.5,24 31.744141,24 28.25,27.699219 l -4.25,4.5 -4.25,-4.5 L 16.255859,24 15.5,24 Z" transform="translate(481.71429,531.2193)"/><path id="path4105" fill="#fff" fill-opacity=".235" stroke="none" d="M 24,9 C 15.69,9 9,15.69 9,24 9,24.06731 9.00889,24.132126 9.00977,24.199219 9.1178318,15.983684 15.75788,9.4003906 24,9.4003906 c 8.24212,0 14.882168,6.5832934 14.990234,14.7988284 C 38.991109,24.132126 39,24.067308 39,24 39,15.69 32.31,9 24,9 Z m -3.5,6 0,0.400391 7,0 0,-0.400391 -7,0 z m -5,9 0.378906,0.400391 4.621094,0 0,-0.400391 -5,0 z m 12,0 0,0.400391 4.621094,0 L 32.5,24 l -5,0 z M 12.009766,24.199219 C 12.008653,24.266867 12,24.332467 12,24.400391 c 0,6.648 5.352,12 12,12 6.648,0 12,-5.352 12,-12 0,-0.06792 -0.0087,-0.133524 -0.0098,-0.201172 C 35.883437,30.753581 30.580735,36 24,36 17.419265,36 12.116563,30.753581 12.009766,24.199219 Z" transform="translate(481.71429,531.2193)"/><path id="path4130-4" fill="url(#linearGradient4219-1)" fill-opacity="1" stroke="none" d="m 515.7143,565.21861 0,14.0007 14,-14 z"/><path id="path4303-9" fill="url(#linearGradient4439-9)" fill-opacity="1" stroke="none" d="m 529.7143,565.21931 -14,14 12.05469,0 c 1.07728,0 1.94531,-0.868 1.94531,-1.9453 l 0,-12.0547 z"/><path id="path4784-6" fill="url(#linearGradient4786-3)" fill-opacity="1" stroke="none" d="m 515.7143,579.21931 0,-14.0007 -14,14 z" opacity=".1"/><path id="rect846-0-3" fill="#000" fill-opacity="1" stroke="none" d="m 481.71428,576.21931 0,1.0625 c 0,1.0773 0.86022,1.9375 1.9375,1.9375 l 44.125,0 c 1.07728,0 1.9375,-0.8602 1.9375,-1.9375 l 0,-1.0625 c 0,1.0773 -0.86022,1.9375 -1.9375,1.9375 l -44.125,0 c -1.07728,0 -1.9375,-0.8602 -1.9375,-1.9375 z"/><path id="rect4280-1-7" fill="#000" fill-opacity=".392" stroke="none" d="m 483.65178,531.21931 c -1.07728,0 -1.9375,0.8602 -1.9375,1.9375 l 0,43.0625 c 0,0.7934 0.48002,1.449 1.15625,1.75 -0.30934,-0.3333 -0.5,-0.7824 -0.5,-1.2812 l 0,-42.9375 c 0,-1.0482 0.8269,-1.875 1.875,-1.875 l 42.9375,0 c 1.0481,0 1.875,0.8268 1.875,1.875 l 0,42.9375 c 0,0.4988 -0.19066,0.9479 -0.5,1.2812 0.67623,-0.301 1.15625,-0.9566 1.15625,-1.75 l 0,-43.0625 c 0,-1.0773 -0.86022,-1.9375 -1.9375,-1.9375 l -44.125,0 z"/></g></g></svg>