<svg xmlns="http://www.w3.org/2000/svg" xmlns:svg="http://www.w3.org/2000/svg" xmlns:xlink="http://www.w3.org/1999/xlink" id="svg2" width="48" height="48" version="1.1"><defs id="defs4"><linearGradient id="linearGradient4217"><stop id="stop4219" offset="0" stop-color="#d1f5c3" stop-opacity="1"/><stop id="stop4221" offset="1" stop-color="#fafff5" stop-opacity="1"/></linearGradient><linearGradient id="linearGradient6334"><stop id="stop6336" offset="0" stop-color="#75e04c" stop-opacity="1"/><stop id="stop6338" offset="1" stop-color="#c7fb95" stop-opacity="1"/></linearGradient><linearGradient id="linearGradient5770"><stop id="stop5772" offset="0" stop-color="#57d925" stop-opacity="1"/><stop id="stop5774" offset="1" stop-color="#aef965" stop-opacity="1"/></linearGradient><linearGradient id="linearGradient4788"><stop id="stop4790" offset="0" stop-color="#000" stop-opacity="1"/><stop id="stop4792" offset="1" stop-color="#000" stop-opacity="0"/></linearGradient><linearGradient id="linearGradient4433"><stop id="stop4435" offset="0" stop-color="#2b3141" stop-opacity="1"/><stop id="stop4437" offset="1" stop-color="#394056" stop-opacity="1"/></linearGradient><linearGradient id="linearGradient4117" x1="92.143" x2="92.143" y1="-1049.092" y2="-1001.09" gradientTransform="translate(-105.71416,-17.042179)" gradientUnits="userSpaceOnUse" xlink:href="#linearGradient5770"/><linearGradient id="linearGradient4439" x1="42.957" x2="42.957" y1="48" y2="33.999" gradientTransform="translate(-40.82072,1018.1302)" gradientUnits="userSpaceOnUse" xlink:href="#linearGradient4433"/><linearGradient id="linearGradient4786" x1="458.571" x2="472.509" y1="871.361" y2="862.361" gradientTransform="matrix(-1,0,0,-1,451.75072,1928.4916)" gradientUnits="userSpaceOnUse" xlink:href="#linearGradient4788"/><linearGradient id="linearGradient4219" x1="465.571" x2="458.571" y1="869.362" y2="862.363" gradientTransform="translate(-465.39216,189.768)" gradientUnits="userSpaceOnUse" xlink:href="#linearGradient6334"/><linearGradient id="linearGradient4164" x1="23.463" x2="23.463" y1="39.038" y2="8.976" gradientUnits="userSpaceOnUse" xlink:href="#linearGradient4217"/></defs><metadata id="metadata7"/><g id="layer1" transform="translate(0,-1004.3622)"><g id="layer1-0" transform="translate(40.820728,-13.76798)"><rect id="rect2991-1-7-3" width="48" height="48" x="-40.821" y="-1066.13" fill="url(#linearGradient4117)" fill-opacity="1" stroke="none" ry="1.945" transform="scale(1,-1)"/><path id="path4130" fill="url(#linearGradient4219)" fill-opacity="1" stroke="none" d="m -6.8207201,1052.1295 0,14.0007 14,-14 z"/><path id="path4303" fill="url(#linearGradient4439)" fill-opacity="1" stroke="none" d="m 7.1792799,1052.1302 -14,14 12.05469,0 c 1.07727,0 1.94531,-0.868 1.94531,-1.9453 l 0,-12.0547 z"/><path id="path4784" fill="url(#linearGradient4786)" fill-opacity="1" stroke="none" d="m -6.8207201,1066.1302 0,-14.0007 -13.9999999,14 z" opacity=".1"/><path id="rect846-0-2" fill="#000" fill-opacity="1" stroke="none" d="m -40.82074,1063.1302 0,1.0625 c 0,1.0773 0.86022,1.9375 1.9375,1.9375 l 44.1249999,0 c 1.07728,0 1.9375,-0.8602 1.9375,-1.9375 l 0,-1.0625 c 0,1.0773 -0.86022,1.9375 -1.9375,1.9375 l -44.1249999,0 c -1.07728,0 -1.9375,-0.8602 -1.9375,-1.9375 z"/><path id="rect4280-1" fill="#000" fill-opacity=".392" stroke="none" d="m -38.88324,1018.1302 c -1.07728,0 -1.9375,0.8602 -1.9375,1.9375 l 0,43.0625 c 0,0.7934 0.48002,1.449 1.15625,1.75 -0.30934,-0.3333 -0.5,-0.7824 -0.5,-1.2812 l 0,-42.9375 c 0,-1.0482 0.8269,-1.875 1.875,-1.875 l 42.9374999,0 c 1.0481,0 1.875,0.8268 1.875,1.875 l 0,42.9375 c 0,0.4988 -0.19066,0.9479 -0.5,1.2812 0.67623,-0.301 1.15625,-0.9566 1.15625,-1.75 l 0,-43.0625 c 0,-1.0773 -0.86022,-1.9375 -1.9375,-1.9375 l -44.1249999,0 z"/><path id="path7515-3" fill="#fff" fill-opacity=".537" stroke="none" d="m -38.28949,1018.7865 c -0.91709,0 -1.67115,0.6395 -1.84375,1.5 0.33561,-0.2799 0.77451,-0.4375 1.25,-0.4375 l 44.1249999,0 c 0.47549,0 0.91439,0.1576 1.25,0.4375 -0.1726,-0.8605 -0.92666,-1.5 -1.84375,-1.5 l -42.9374999,0 z"/></g><g id="g4176" fill="#000" fill-opacity=".059" transform="translate(0,1.2)"><path id="path4178" fill="#000" fill-opacity=".059" stroke="none" d="m 9.0097656,9 0,8.775391 L 9,17.785156 9,24 l 0.00977,0 0,0.01367 15,0 0,-4 -7.335938,0 1.669922,-1.669922 C 19.791465,16.896035 21.790861,16 24,16 c 4.418278,0 8,3.581722 8,8 0,2.209139 -0.896035,4.208535 -2.34375,5.65625 L 25.259766,34.052734 30.207031,39 l 0.0078,0 4.378906,-4.378906 C 37.531792,31.683065 39,27.848368 39,24.013672 39,20.178975 37.531779,16.344278 34.59375,13.40625 31.655721,10.468221 27.820615,9 23.986328,9 20.152042,9 16.316935,10.468221 13.378906,13.40625 l -0.36914,0.369141 0,-4.775391 -4.0000004,0 z" transform="translate(0,1004.3622)"/></g><g id="g4172" fill="#000" fill-opacity=".118" transform="translate(0,0.8)"><path id="path4174" fill="#000" fill-opacity=".118" stroke="none" d="m 9.0097656,9 0,8.775391 L 9,17.785156 9,24 l 0.00977,0 0,0.01367 15,0 0,-4 -7.335938,0 1.669922,-1.669922 C 19.791465,16.896035 21.790861,16 24,16 c 4.418278,0 8,3.581722 8,8 0,2.209139 -0.896035,4.208535 -2.34375,5.65625 L 25.259766,34.052734 30.207031,39 l 0.0078,0 4.378906,-4.378906 C 37.531792,31.683065 39,27.848368 39,24.013672 39,20.178975 37.531779,16.344278 34.59375,13.40625 31.655721,10.468221 27.820615,9 23.986328,9 20.152042,9 16.316935,10.468221 13.378906,13.40625 l -0.36914,0.369141 0,-4.775391 -4.0000004,0 z" transform="translate(0,1004.3622)"/></g><g id="g4166" fill="#000" fill-opacity=".235" transform="translate(0,0.4)"><path id="path4168" fill="#000" fill-opacity=".235" stroke="none" d="m 9.0097656,9 0,8.775391 L 9,17.785156 9,24 l 0.00977,0 0,0.01367 15,0 0,-4 -7.335938,0 1.669922,-1.669922 C 19.791465,16.896035 21.790861,16 24,16 c 4.418278,0 8,3.581722 8,8 0,2.209139 -0.896035,4.208535 -2.34375,5.65625 L 25.259766,34.052734 30.207031,39 l 0.0078,0 4.378906,-4.378906 C 37.531792,31.683065 39,27.848368 39,24.013672 39,20.178975 37.531779,16.344278 34.59375,13.40625 31.655721,10.468221 27.820615,9 23.986328,9 20.152042,9 16.316935,10.468221 13.378906,13.40625 l -0.36914,0.369141 0,-4.775391 -4.0000004,0 z" transform="translate(0,1004.3622)"/></g><g id="layer1-4" transform="translate(0,8.691406e-6)"><path id="rect3269" fill="url(#linearGradient4164)" fill-opacity="1" stroke="none" d="M 9.0097656 9 L 9.0097656 17.775391 L 9 17.785156 L 9 24 L 9.0097656 24 L 9.0097656 24.013672 L 24.009766 24.013672 L 24.009766 20.013672 L 16.673828 20.013672 L 18.34375 18.34375 C 19.791465 16.896035 21.790861 16 24 16 C 28.418278 16 32 19.581722 32 24 C 32 26.209139 31.103965 28.208535 29.65625 29.65625 L 25.259766 34.052734 L 30.207031 39 L 30.214844 39 L 34.59375 34.621094 C 37.531792 31.683065 39 27.848368 39 24.013672 C 39 20.178975 37.531779 16.344278 34.59375 13.40625 C 31.655721 10.468221 27.820615 9 23.986328 9 C 20.152042 9 16.316935 10.468221 13.378906 13.40625 L 13.009766 13.775391 L 13.009766 9 L 9.0097656 9 z" transform="translate(0,1004.3622)"/></g><path id="path4182" fill="#5cda2a" fill-opacity=".314" stroke="none" d="M 24 15.201172 C 21.790861 15.201172 19.791461 16.097222 18.34375 17.544922 L 16.673828 19.214844 L 17.472656 19.214844 L 18.34375 18.34375 C 19.791461 16.89605 21.790861 16 24 16 C 28.283182 16 31.77062 19.368491 31.980469 23.599609 C 31.987059 23.46649 32 23.335929 32 23.201172 C 32 18.782872 28.418278 15.201172 24 15.201172 z M 9 23.201172 L 9 24 L 9.0097656 24 L 9.0097656 24.013672 L 24.009766 24.013672 L 24.009766 23.214844 L 9.0097656 23.214844 L 9.0097656 23.201172 L 9 23.201172 z M 38.980469 23.613281 C 38.881785 27.313414 37.42951 30.98608 34.59375 33.822266 L 30.214844 38.201172 L 30.207031 38.201172 L 25.660156 33.652344 L 25.259766 34.052734 L 30.207031 39 L 30.214844 39 L 34.59375 34.621094 C 37.531809 31.682594 39 27.848372 39 24.013672 C 39 23.879972 38.984038 23.746943 38.980469 23.613281 z" transform="translate(0,1004.3622)"/><path id="path4193" fill="#fff" fill-opacity=".235" stroke="none" d="M 9.0097656 9 L 9.0097656 9.8007812 L 13.009766 9.8007812 L 13.009766 9 L 9.0097656 9 z M 23.986328 9 C 20.152042 9 16.316935 10.46815 13.378906 13.40625 L 13.009766 13.775391 L 13.009766 14.576172 L 13.378906 14.207031 C 16.316935 11.269031 20.152042 9.8007812 23.986328 9.8007812 C 27.820615 9.8007812 31.655721 11.269031 34.59375 14.207031 C 37.429481 17.042831 38.881784 20.713931 38.980469 24.414062 C 38.984038 24.2804 39 24.147372 39 24.013672 C 39 20.178972 37.531779 16.34425 34.59375 13.40625 C 31.655721 10.46815 27.820615 9 23.986328 9 z M 9.0097656 17.775391 L 9 17.785156 L 9 18.585938 L 9.0097656 18.576172 L 9.0097656 17.775391 z M 17.474609 20.013672 L 16.673828 20.814453 L 24.009766 20.814453 L 24.009766 20.013672 L 17.474609 20.013672 z M 31.980469 24.400391 C 31.878788 26.449117 31.015432 28.296988 29.65625 29.65625 L 25.259766 34.052734 L 25.660156 34.453125 L 29.65625 30.457031 C 31.103965 29.009231 32 27.009881 32 24.800781 C 32 24.665684 31.987088 24.533845 31.980469 24.400391 z" transform="translate(0,1004.3622)"/></g></svg>