<svg xmlns="http://www.w3.org/2000/svg" xmlns:svg="http://www.w3.org/2000/svg" xmlns:xlink="http://www.w3.org/1999/xlink" id="svg2" width="48" height="48" version="1.1"><defs id="defs4"><linearGradient id="linearGradient4788-0"><stop id="stop4790-6" offset="0" stop-color="#000" stop-opacity="1"/><stop id="stop4792-8" offset="1" stop-color="#000" stop-opacity="0"/></linearGradient><linearGradient id="linearGradient4433-8"><stop id="stop4435-5" offset="0" stop-color="#2b3141" stop-opacity="1"/><stop id="stop4437-0" offset="1" stop-color="#394056" stop-opacity="1"/></linearGradient><linearGradient id="linearGradient4117-8" x1="92.143" x2="92.143" y1="-1049.092" y2="-1001.09" gradientTransform="translate(-64.89343,-3.2742)" gradientUnits="userSpaceOnUse" xlink:href="#linearGradient5770"/><linearGradient id="linearGradient4439-9" x1="42.957" x2="42.957" y1="48" y2="33.999" gradientTransform="translate(10e-6,1004.3622)" gradientUnits="userSpaceOnUse" xlink:href="#linearGradient4433-8"/><linearGradient id="linearGradient4786-3" x1="458.571" x2="472.509" y1="871.361" y2="862.361" gradientTransform="matrix(-1,0,0,-1,492.57145,1914.7236)" gradientUnits="userSpaceOnUse" xlink:href="#linearGradient4788-0"/><linearGradient id="linearGradient4219-1" x1="465.571" x2="458.571" y1="869.362" y2="862.363" gradientTransform="translate(-424.57143,176.00002)" gradientUnits="userSpaceOnUse" xlink:href="#linearGradient6334"/><style id="style1115" type="text/css"><![CDATA[ .fil0 {fill:#1F1A17} ]]></style><style id="style1246" type="text/css"><![CDATA[ .fil0 {fill:#1F1A17} ]]></style><linearGradient id="linearGradient4273-7" x1="26.598" x2="26.598" y1="9" y2="39.001" gradientTransform="matrix(1,0,0,-1,0,1052.3622)" gradientUnits="userSpaceOnUse" xlink:href="#linearGradient4217"/><linearGradient id="linearGradient4217"><stop id="stop4219" offset="0" stop-color="#d1f5c3" stop-opacity="1"/><stop id="stop4221" offset="1" stop-color="#fafff5" stop-opacity="1"/></linearGradient><linearGradient id="linearGradient6334"><stop id="stop6336" offset="0" stop-color="#75e04c" stop-opacity="1"/><stop id="stop6338" offset="1" stop-color="#c7fb95" stop-opacity="1"/></linearGradient><linearGradient id="linearGradient5770"><stop id="stop5772" offset="0" stop-color="#57d925" stop-opacity="1"/><stop id="stop5774" offset="1" stop-color="#aef965" stop-opacity="1"/></linearGradient></defs><metadata id="metadata7"/><g id="layer1" transform="translate(0,-1004.3622)"><rect id="rect2991-1-7-3-5" width="48" height="48" x="0" y="-1052.362" fill="url(#linearGradient4117-8)" fill-opacity="1" stroke="none" ry="1.945" transform="scale(1,-1)"/><path id="path4257" fill="#000" fill-opacity=".059" stroke="none" d="m 24,1044.5622 c -8.31,0 -15,-6.69 -15,-15 0,-8.31 6.69,-15 15,-15 8.31,0 15,6.69 15,15 0,8.31 -6.69,15 -15,15 z m 0,-3 c 6.648,0 12,-5.352 12,-12 0,-6.648 -5.352,-12 -12,-12 -6.648,0 -12,5.352 -12,12 0,6.648 5.352,12 12,12 z m -3.5,-3 0,-9 -5,0 4.25,-4.5 4.25,-4.5 4.25,4.5 4.25,4.5 -5,0 0,9 -7,0 z"/><path id="path4255" fill="#000" fill-opacity=".118" stroke="none" d="m 24,1044.1622 c -8.31,0 -15,-6.69 -15,-15 0,-8.31 6.69,-15 15,-15 8.31,0 15,6.69 15,15 0,8.31 -6.69,15 -15,15 z m 0,-3 c 6.648,0 12,-5.352 12,-12 0,-6.648 -5.352,-12 -12,-12 -6.648,0 -12,5.352 -12,12 0,6.648 5.352,12 12,12 z m -3.5,-3 0,-9 -5,0 4.25,-4.5 4.25,-4.5 4.25,4.5 4.25,4.5 -5,0 0,9 -7,0 z"/><path id="path4251" fill="#000" fill-opacity=".235" stroke="none" d="m 24,1043.7622 c -8.31,0 -15,-6.69 -15,-15 0,-8.31 6.69,-15 15,-15 8.31,0 15,6.69 15,15 0,8.31 -6.69,15 -15,15 z m 0,-3 c 6.648,0 12,-5.352 12,-12 0,-6.648 -5.352,-12 -12,-12 -6.648,0 -12,5.352 -12,12 0,6.648 5.352,12 12,12 z m -3.5,-3 0,-9 -5,0 4.25,-4.5 4.25,-4.5 4.25,4.5 4.25,4.5 -5,0 0,9 -7,0 z"/><path id="rect4243" fill="url(#linearGradient4273-7)" fill-opacity="1" stroke="none" d="m 24,1043.3622 c -8.31,0 -15,-6.69 -15,-15 0,-8.31 6.69,-15 15,-15 8.31,0 15,6.69 15,15 0,8.31 -6.69,15 -15,15 z m 0,-3 c 6.648,0 12,-5.352 12,-12 0,-6.648 -5.352,-12 -12,-12 -6.648,0 -12,5.352 -12,12 0,6.648 5.352,12 12,12 z m -3.5,-3 0,-9 -5,0 4.25,-4.5 4.25,-4.5 4.25,4.5 4.25,4.5 -5,0 0,9 -7,0 z"/><path id="path4259" fill="#5cda2a" fill-opacity=".314" stroke="none" d="M 24 11.199219 C 17.352 11.199219 12 16.551219 12 23.199219 C 12 23.334407 12.015139 23.465527 12.019531 23.599609 C 12.23113 17.140078 17.487189 12 24 12 C 30.512811 12 35.76887 17.140078 35.980469 23.599609 C 35.984861 23.465527 36 23.334407 36 23.199219 C 36 16.551219 30.648 11.199219 24 11.199219 z M 16.255859 23.199219 L 15.5 24 L 20.5 24 L 20.5 23.199219 L 16.255859 23.199219 z M 27.5 23.199219 L 27.5 24 L 32.5 24 L 31.744141 23.199219 L 27.5 23.199219 z M 9.0195312 23.599609 C 9.0160076 23.734003 9 23.864726 9 24 C 9 32.31 15.69 39 24 39 C 32.31 39 39 32.31 39 24 C 39 23.864726 38.983992 23.734003 38.980469 23.599609 C 38.767793 31.721369 32.174897 38.199219 24 38.199219 C 15.825103 38.199219 9.2322069 31.721369 9.0195312 23.599609 z M 20.5 32.199219 L 20.5 33 L 27.5 33 L 27.5 32.199219 L 20.5 32.199219 z" transform="translate(0,1004.3622)"/><path id="path4264" fill="#fff" fill-opacity=".235" stroke="none" d="M 24 9 C 15.69 9 9 15.69 9 24 C 9 24.067308 9.0088905 24.132126 9.0097656 24.199219 C 9.1178318 15.983684 15.75788 9.4003906 24 9.4003906 C 32.24212 9.4003906 38.882168 15.983684 38.990234 24.199219 C 38.991109 24.132126 39 24.067308 39 24 C 39 15.69 32.31 9 24 9 z M 24 15 L 19.75 19.5 L 15.5 24 L 15.878906 24 L 19.75 19.900391 L 24 15.400391 L 28.25 19.900391 L 32.121094 24 L 32.5 24 L 28.25 19.5 L 24 15 z M 12.009766 24.199219 C 12.008653 24.266867 12 24.332467 12 24.400391 C 12 31.048391 17.352 36.400391 24 36.400391 C 30.648 36.400391 36 31.048391 36 24.400391 C 36 24.332467 35.991347 24.266867 35.990234 24.199219 C 35.883437 30.753581 30.580735 36 24 36 C 17.419265 36 12.116563 30.753581 12.009766 24.199219 z" transform="translate(0,1004.3622)"/><path id="path4130-4" fill="url(#linearGradient4219-1)" fill-opacity="1" stroke="none" d="m 34.00001,1038.3615 0,14.0007 14,-14 z"/><path id="path4303-9" fill="url(#linearGradient4439-9)" fill-opacity="1" stroke="none" d="m 48.00001,1038.3622 -14,14 12.05469,0 c 1.07728,0 1.94531,-0.868 1.94531,-1.9453 l 0,-12.0547 z"/><path id="path4784-6" fill="url(#linearGradient4786-3)" fill-opacity="1" stroke="none" d="m 34.00001,1052.3622 0,-14.0007 -14,14 z" opacity=".1"/><path id="rect846-0-3" fill="#000" fill-opacity="1" stroke="none" d="m -1e-5,1049.3622 0,1.0625 c 0,1.0773 0.86022,1.9375 1.9375,1.9375 l 44.125,0 c 1.07728,0 1.9375,-0.8602 1.9375,-1.9375 l 0,-1.0625 c 0,1.0773 -0.86022,1.9375 -1.9375,1.9375 l -44.125,0 c -1.07728,0 -1.9375,-0.8602 -1.9375,-1.9375 z"/><path id="rect4280-1-7" fill="#000" fill-opacity=".392" stroke="none" d="m 1.93749,1004.3622 c -1.07728,0 -1.9375,0.8602 -1.9375,1.9375 l 0,43.0625 c 0,0.7934 0.48002,1.449 1.15625,1.75 -0.30934,-0.3333 -0.5,-0.7824 -0.5,-1.2812 l 0,-42.9375 c 0,-1.0482 0.8269,-1.875 1.875,-1.875 l 42.9375,0 c 1.0481,0 1.875,0.8268 1.875,1.875 l 0,42.9375 c 0,0.4988 -0.19066,0.9479 -0.5,1.2812 0.67623,-0.301 1.15625,-0.9566 1.15625,-1.75 l 0,-43.0625 c 0,-1.0773 -0.86022,-1.9375 -1.9375,-1.9375 l -44.125,0 z"/><path id="path7515-3-9" fill="#fff" fill-opacity=".537" stroke="none" d="m 2.53124,1005.0185 c -0.91709,0 -1.67115,0.6395 -1.84375,1.5 0.33561,-0.2799 0.77451,-0.4375 1.25,-0.4375 l 44.125,0 c 0.47549,0 0.91439,0.1576 1.25,0.4375 -0.1726,-0.8605 -0.92666,-1.5 -1.84375,-1.5 l -42.9375,0 z"/></g></svg>