<svg xmlns="http://www.w3.org/2000/svg" xmlns:svg="http://www.w3.org/2000/svg" xmlns:xlink="http://www.w3.org/1999/xlink" id="svg2" width="48" height="48" version="1.1"><defs id="defs4"><linearGradient id="linearGradient4273"><stop id="stop4275" offset="0" stop-color="#e14b4b" stop-opacity="1"/><stop id="stop4277" offset="1" stop-color="#f19fa0" stop-opacity="1"/></linearGradient><linearGradient id="linearGradient4788"><stop id="stop4790" offset="0" stop-color="#000" stop-opacity="1"/><stop id="stop4792" offset="1" stop-color="#000" stop-opacity="0"/></linearGradient><linearGradient id="linearGradient4433"><stop id="stop4435" offset="0" stop-color="#2b3141" stop-opacity="1"/><stop id="stop4437" offset="1" stop-color="#394056" stop-opacity="1"/></linearGradient><linearGradient id="linearGradient943"><stop id="stop945" offset="0" stop-color="#db2425" stop-opacity="1"/><stop id="stop947" offset="1" stop-color="#e53b3c" stop-opacity="1"/></linearGradient><linearGradient id="linearGradient4117" x1="92.143" x2="92.143" y1="-1049.092" y2="-1001.09" gradientTransform="translate(-64.893431,-3.2741987)" gradientUnits="userSpaceOnUse" xlink:href="#linearGradient943"/><linearGradient id="linearGradient4439" x1="42.957" x2="42.957" y1="48" y2="33.999" gradientTransform="translate(9.1748047e-6,1004.3622)" gradientUnits="userSpaceOnUse" xlink:href="#linearGradient4433"/><linearGradient id="linearGradient4786" x1="458.571" x2="472.509" y1="871.361" y2="862.361" gradientTransform="matrix(-1,0,0,-1,492.57145,1914.7236)" gradientUnits="userSpaceOnUse" xlink:href="#linearGradient4788"/><linearGradient id="linearGradient4219" x1="465.571" x2="458.571" y1="869.362" y2="862.363" gradientTransform="translate(-424.57143,176.00002)" gradientUnits="userSpaceOnUse" xlink:href="#linearGradient4273"/></defs><metadata id="metadata7"/><g id="layer1" transform="translate(0,-1004.3622)"><rect id="rect2991-1-7-3" width="48" height="48" x="0" y="-1052.362" fill="url(#linearGradient4117)" fill-opacity="1" stroke="none" ry="1.945" transform="scale(1,-1)"/><path id="path4130" fill="url(#linearGradient4219)" fill-opacity="1" stroke="none" d="m 34.000009,1038.3615 0,14.0007 14,-14 z"/><path id="path4303" fill="url(#linearGradient4439)" fill-opacity="1" stroke="none" d="m 48.000009,1038.3622 -14,14 12.054688,0 c 1.077277,0 1.945312,-0.868 1.945312,-1.9453 l 0,-12.0547 z"/><path id="path4784" fill="url(#linearGradient4786)" fill-opacity="1" stroke="none" d="m 34.000009,1052.3622 0,-14.0007 -14,14 z" opacity=".1"/><path id="rect846-0" fill="#000" fill-opacity="1" stroke="none" d="m -1.0825195e-5,1049.3622 0,1.0625 c 0,1.0773 0.860219995195,1.9375 1.937500025195,1.9375 l 44.1249998,0 c 1.07728,0 1.9375,-0.8602 1.9375,-1.9375 l 0,-1.0625 c 0,1.0773 -0.86022,1.9375 -1.9375,1.9375 l -44.1249998,0 c -1.07728003,0 -1.937500025195,-0.8602 -1.937500025195,-1.9375 z"/><path id="path7515-3" fill="#fff" fill-opacity=".537" stroke="none" d="m 2.5312392,1005.0185 c -0.91709,0 -1.67115003,0.6395 -1.84375003,1.5 0.33561003,-0.2799 0.77451003,-0.4375 1.25000003,-0.4375 l 44.1249998,0 c 0.47549,0 0.91439,0.1576 1.25,0.4375 -0.1726,-0.8605 -0.92666,-1.5 -1.84375,-1.5 l -42.9374998,0 z"/><path id="rect4280-1" fill="#000" fill-opacity=".392" stroke="none" d="m 1.9374892,1004.3622 c -1.07728003,0 -1.937500025195,0.8602 -1.937500025195,1.9375 l 0,43.0625 c 0,0.7934 0.480019995195,1.449 1.156250025195,1.75 -0.30934003,-0.3333 -0.50000003,-0.7824 -0.50000003,-1.2812 l 0,-42.9375 c 0,-1.0482 0.82690003,-1.875 1.87500003,-1.875 l 42.9374998,0 c 1.0481,0 1.875,0.8268 1.875,1.875 l 0,42.9375 c 0,0.4988 -0.19066,0.9479 -0.5,1.2812 0.67623,-0.301 1.15625,-0.9566 1.15625,-1.75 l 0,-43.0625 c 0,-1.0773 -0.86022,-1.9375 -1.9375,-1.9375 l -44.1249998,0 z"/></g></svg>