<svg xmlns="http://www.w3.org/2000/svg" xmlns:svg="http://www.w3.org/2000/svg" xmlns:xlink="http://www.w3.org/1999/xlink" id="svg2" width="48" height="48" version="1.1"><defs id="defs4"><linearGradient id="linearGradient3789" x1="1806.398" x2="1806.398" y1="605.036" y2="530.687" gradientUnits="userSpaceOnUse" xlink:href="#linearGradient4821"/><linearGradient id="linearGradient4788"><stop id="stop4790" offset="0" stop-color="#000" stop-opacity="1"/><stop id="stop4792" offset="1" stop-color="#000" stop-opacity="0"/></linearGradient><linearGradient id="linearGradient4433"><stop id="stop4435" offset="0" stop-color="#2b3141" stop-opacity="1"/><stop id="stop4437" offset="1" stop-color="#394056" stop-opacity="1"/></linearGradient><linearGradient id="linearGradient4117-8" x1="92.143" x2="92.143" y1="-1049.092" y2="-1001.09" gradientTransform="translate(-64.89343,-3.2742)" gradientUnits="userSpaceOnUse" xlink:href="#linearGradient943"/><linearGradient id="linearGradient4439" x1="42.957" x2="42.957" y1="48" y2="33.999" gradientTransform="translate(1e-5,1004.3622)" gradientUnits="userSpaceOnUse" xlink:href="#linearGradient4433"/><linearGradient id="linearGradient4786" x1="458.571" x2="472.509" y1="871.361" y2="862.361" gradientTransform="matrix(-1,0,0,-1,492.57145,1914.7236)" gradientUnits="userSpaceOnUse" xlink:href="#linearGradient4788"/><linearGradient id="linearGradient4219" x1="465.571" x2="458.571" y1="869.362" y2="862.363" gradientTransform="translate(-424.57143,176.00002)" gradientUnits="userSpaceOnUse" xlink:href="#linearGradient4815"/><linearGradient id="linearGradient4821"><stop id="stop4823" offset="0" stop-color="#fff2b9" stop-opacity="1"/><stop id="stop4825" offset="1" stop-color="#fffdf5" stop-opacity="1"/></linearGradient><linearGradient id="linearGradient4815"><stop id="stop4817" offset="0" stop-color="#ffd72d" stop-opacity="1"/><stop id="stop4819" offset="1" stop-color="#ffed91" stop-opacity="1"/></linearGradient><linearGradient id="linearGradient943"><stop id="stop945" offset="0" stop-color="#ffd936" stop-opacity="1"/><stop id="stop947" offset="1" stop-color="#ffdf37" stop-opacity="1"/></linearGradient></defs><metadata id="metadata7"/><g id="layer1" transform="translate(0,-1004.3622)"><g id="layer1-2" transform="translate(0,8.6914065e-6)"><rect id="rect2991-1-7-3-6" width="48" height="48" x="0" y="-1052.362" fill="url(#linearGradient4117-8)" fill-opacity="1" stroke="none" ry="1.945" transform="scale(1,-1)"/><polygon id="polygon4057" fill="#1a1a1a" fill-opacity=".059" points="1830.473 604.97 1806.303 590.468 1782.131 604.97 1788.449 577.5 1767.189 558.99 1795.27 556.516 1806.303 530.574 1817.336 556.516 1845.414 558.99 1824.154 577.5" transform="matrix(0.41400075,0,0,0.41400075,-723.81018,794.50187)"/><polygon id="polygon4055" fill="#1a1a1a" fill-opacity=".118" points="1806.303 530.574 1817.336 556.516 1845.414 558.99 1824.154 577.5 1830.473 604.97 1806.303 590.468 1782.131 604.97 1788.449 577.5 1767.189 558.99 1795.27 556.516" transform="matrix(0.41400075,0,0,0.41400075,-723.81018,794.10187)"/><rect id="rect3345-9" width="28" height="28" x="10" y="1014.106" fill="none" stroke="none"/><polygon id="polygon4051" fill="#1a1a1a" fill-opacity=".235" points="1782.131 604.97 1788.449 577.5 1767.189 558.99 1795.27 556.516 1806.303 530.574 1817.336 556.516 1845.414 558.99 1824.154 577.5 1830.473 604.97 1806.303 590.468" transform="matrix(0.41400075,0,0,0.41400075,-723.81018,793.70187)"/><polygon id="Star__x2014__Used_to_flag_a_data_item_as_important_or_as_favorite._Typical_applications_range_from_bookmarking_web_pages_in_a_browser_to_promoting_contacts_to_favorites._1_-5" fill="url(#linearGradient3789)" fill-opacity="1" points="1845.414 558.99 1824.154 577.5 1830.473 604.97 1806.303 590.468 1782.131 604.97 1788.449 577.5 1767.189 558.99 1795.27 556.516 1806.303 530.574 1817.336 556.516" transform="matrix(0.41400075,0,0,0.41400075,-723.81018,793.30187)"/><path id="polygon3780" fill="#fff" fill-opacity=".235" d="m 7.1875,1024.5005 9.09375,7.9375 0.03125,-0.125 -8.96875,-7.8125 -0.15625,0 z m 33.46875,0 -8.96875,7.8125 0.03125,0.125 9.09375,-7.9375 -0.15625,0 z M 24,1037.8755 l -10.375,6.2188 -0.03125,0.1875 10.40625,-6.25 10.40625,6.25 L 34.375,1044.0943 24,1037.8755 Z"/><path id="path3785" fill="#fff" fill-opacity=".118" d="m 7.1875,1024.6724 9.09375,7.9375 0.03125,-0.125 -8.96875,-7.8125 -0.15625,0 z m 33.46875,0 -8.96875,7.8125 0.03125,0.125 9.09375,-7.9375 -0.15625,0 z M 24,1038.0474 l -10.375,6.2188 -0.03125,0.1875 10.40625,-6.25 10.40625,6.25 L 34.375,1044.2662 24,1038.0474 Z"/><path id="path3787" fill="#fff" fill-opacity=".059" d="m 7.1875,1024.8326 9.09375,7.9375 0.03125,-0.125 -8.96875,-7.8125 -0.15625,0 z m 33.46875,0 -8.96875,7.8125 0.03125,0.125 9.09375,-7.9375 -0.15625,0 z M 24,1038.2076 l -10.375,6.2188 -0.03125,0.1875 10.40625,-6.25 10.40625,6.25 L 34.375,1044.4264 24,1038.2076 Z"/><path id="polygon4071" fill="#ffd005" fill-opacity=".314" d="m 8.640625,1024.6486 -0.833984,0.074 8.648437,7.5312 0.154297,-0.6679 -7.96875,-6.9375 z m 30.71875,0 -7.96875,6.9375 0.154297,0.6679 8.648437,-7.5312 -0.833984,-0.074 z M 24,1036.9552 l -9.792969,5.875 -0.21289,0.9297 L 24,1037.756 l 10.007812,6.0039 -0.21289,-0.9297 L 24,1036.9552 Z"/><path id="polygon4076" fill="#fff" fill-opacity=".235" d="m 24,1012.9599 -4.566406,10.7402 -11.626953,1.0235 0.417968,0.3633 11.208985,-0.9864 L 24,1013.3603 l 4.568359,10.7402 11.207032,0.9864 0.417968,-0.3633 -11.625,-1.0235 L 24,1012.9599 Z m -7.466797,19.7617 -2.539062,11.0391 0.107421,-0.064 2.507813,-10.9082 -0.07617,-0.066 z m 14.933594,0 -0.07617,0.066 2.509766,10.9082 0.107421,0.064 -2.541015,-11.0391 z"/><path id="path4130" fill="url(#linearGradient4219)" fill-opacity="1" stroke="none" d="m 34.00001,1038.3615 0,14.0007 14,-14 z"/><path id="path4303" fill="url(#linearGradient4439)" fill-opacity="1" stroke="none" d="m 48.00001,1038.3622 -14,14 12.05469,0 c 1.07727,0 1.94531,-0.868 1.94531,-1.9453 l 0,-12.0547 z"/><path id="path4784" fill="url(#linearGradient4786)" fill-opacity="1" stroke="none" d="m 34.00001,1052.3622 0,-14.0007 -14,14 z" opacity=".1"/><path id="rect846-0-2" fill="#000" fill-opacity="1" stroke="none" d="m -1e-5,1049.3622 0,1.0625 c 0,1.0773 0.86022,1.9375 1.9375,1.9375 l 44.125,0 c 1.07728,0 1.9375,-0.8602 1.9375,-1.9375 l 0,-1.0625 c 0,1.0773 -0.86022,1.9375 -1.9375,1.9375 l -44.125,0 c -1.07728,0 -1.9375,-0.8602 -1.9375,-1.9375 z"/><path id="rect4280-1-0" fill="#000" fill-opacity=".392" stroke="none" d="m 1.93749,1004.3622 c -1.07728,0 -1.9375,0.8602 -1.9375,1.9375 l 0,43.0625 c 0,0.7934 0.48002,1.449 1.15625,1.75 -0.30934,-0.3333 -0.5,-0.7824 -0.5,-1.2812 l 0,-42.9375 c 0,-1.0482 0.8269,-1.875 1.875,-1.875 l 42.9375,0 c 1.0481,0 1.875,0.8268 1.875,1.875 l 0,42.9375 c 0,0.4988 -0.19066,0.9479 -0.5,1.2812 0.67623,-0.301 1.15625,-0.9566 1.15625,-1.75 l 0,-43.0625 c 0,-1.0773 -0.86022,-1.9375 -1.9375,-1.9375 l -44.125,0 z"/><path id="path7515-3-7" fill="#fff" fill-opacity=".537" stroke="none" d="m 2.53124,1005.0185 c -0.91709,0 -1.67115,0.6395 -1.84375,1.5 0.33561,-0.2799 0.77451,-0.4375 1.25,-0.4375 l 44.125,0 c 0.47549,0 0.91439,0.1576 1.25,0.4375 -0.1726,-0.8605 -0.92666,-1.5 -1.84375,-1.5 l -42.9375,0 z"/></g></g></svg>