<svg xmlns="http://www.w3.org/2000/svg" xmlns:svg="http://www.w3.org/2000/svg" xmlns:xlink="http://www.w3.org/1999/xlink" id="svg2" width="48" height="48" version="1.1"><defs id="defs4"><linearGradient id="linearGradient4788"><stop id="stop4790" offset="0" stop-color="#000" stop-opacity="1"/><stop id="stop4792" offset="1" stop-color="#000" stop-opacity="0"/></linearGradient><linearGradient id="linearGradient4433"><stop id="stop4435" offset="0" stop-color="#2b3141" stop-opacity="1"/><stop id="stop4437" offset="1" stop-color="#394056" stop-opacity="1"/></linearGradient><linearGradient id="linearGradient4117" x1="92.143" x2="92.143" y1="-1049.092" y2="-1001.09" gradientTransform="translate(-64.89343,-3.27419)" gradientUnits="userSpaceOnUse" xlink:href="#linearGradient943-6"/><linearGradient id="linearGradient4439" x1="42.957" x2="42.957" y1="48" y2="33.999" gradientTransform="translate(1e-5,1004.3622)" gradientUnits="userSpaceOnUse" xlink:href="#linearGradient4433"/><linearGradient id="linearGradient4786" x1="458.571" x2="472.509" y1="871.361" y2="862.361" gradientTransform="matrix(-1,0,0,-1,492.57145,1914.7236)" gradientUnits="userSpaceOnUse" xlink:href="#linearGradient4788"/><linearGradient id="linearGradient4219" x1="465.571" x2="458.571" y1="869.362" y2="862.363" gradientTransform="translate(-424.57143,176.00001)" gradientUnits="userSpaceOnUse" xlink:href="#linearGradient4278"/><linearGradient id="linearGradient4185" x1="-37.802" x2="-37.802" y1="37.45" y2="7.469" gradientUnits="userSpaceOnUse" xlink:href="#linearGradient4460"/><linearGradient id="linearGradient4460"><stop id="stop4462" offset="0" stop-color="#f8c5c0" stop-opacity="1"/><stop id="stop4464" offset="1" stop-color="#fff8f5" stop-opacity="1"/></linearGradient><linearGradient id="linearGradient4278"><stop id="stop4280" offset="0" stop-color="#e95143" stop-opacity="1"/><stop id="stop4282" offset="1" stop-color="#feb492" stop-opacity="1"/></linearGradient><linearGradient id="linearGradient943-6"><stop id="stop945-4" offset="0" stop-color="#e63c2d" stop-opacity="1"/><stop id="stop947-3" offset="1" stop-color="#fd7233" stop-opacity="1"/></linearGradient></defs><metadata id="metadata7"/><g id="layer1" transform="translate(0,-1004.3622)"><g id="layer1-1" transform="translate(0,8.6914063e-6)"><rect id="rect2991-1-7-3" width="48" height="48" x="0" y="-1052.362" fill="url(#linearGradient4117)" fill-opacity="1" stroke="none" ry="1.945" transform="scale(1,-1)"/><g id="g4210" fill="#000" fill-opacity=".059" transform="translate(-490.28601,428.62871)"><path id="path4212" fill="#000" fill-opacity=".059" stroke="none" d="m -49.710938,7.5097656 -4.949218,4.9492184 10.050781,10.050782 -10.050781,10.050781 4.949218,4.949219 10.050782,-10.050782 10.050781,10.050782 4.949219,-4.949219 L -34.710938,22.509766 -24.660156,12.458984 -29.609375,7.5097656 -39.660156,17.560547 -49.710938,7.5097656 Z" transform="translate(553.94617,578.42372)"/></g><g id="g4206" fill="#000" fill-opacity=".118" transform="translate(-490.28601,428.22871)"><path id="path4208" fill="#000" fill-opacity=".118" stroke="none" d="m -49.710938,7.5097656 -4.949218,4.9492184 10.050781,10.050782 -10.050781,10.050781 4.949218,4.949219 10.050782,-10.050782 10.050781,10.050782 4.949219,-4.949219 L -34.710938,22.509766 -24.660156,12.458984 -29.609375,7.5097656 -39.660156,17.560547 -49.710938,7.5097656 Z" transform="translate(553.94617,578.42372)"/></g><g id="g4200" fill="#000" fill-opacity=".235" transform="translate(-490.28601,427.82871)"><path id="path4202" fill="#000" fill-opacity=".235" stroke="none" d="m -49.710938,7.5097656 -4.949218,4.9492184 10.050781,10.050782 -10.050781,10.050781 4.949218,4.949219 10.050782,-10.050782 10.050781,10.050782 4.949219,-4.949219 L -34.710938,22.509766 -24.660156,12.458984 -29.609375,7.5097656 -39.660156,17.560547 -49.710938,7.5097656 Z" transform="translate(553.94617,578.42372)"/></g><g id="layer1-4" transform="translate(-490.28601,427.42871)"><path id="rect4131" fill="url(#linearGradient4185)" fill-opacity="1" stroke="none" d="m -49.710938,7.5097656 -4.949218,4.9492184 10.050781,10.050782 -10.050781,10.050781 4.949218,4.949219 10.050782,-10.050782 10.050781,10.050782 4.949219,-4.949219 L -34.710938,22.509766 -24.660156,12.458984 -29.609375,7.5097656 -39.660156,17.560547 -49.710938,7.5097656 Z" transform="translate(553.94617,578.42372)"/></g><path id="path4216" fill="#e74231" fill-opacity=".314" stroke="none" d="M 9.4003906,13.548828 9,13.949219 l 9.650391,9.65039 0.40039,-0.40039 -9.6503904,-9.650391 z m 29.1992184,0 -9.65039,9.650391 0.40039,0.40039 L 39,13.949219 38.599609,13.548828 Z M 24,28.148438 13.949219,38.199219 9.4003906,33.650391 9,34.050781 13.949219,39 24,28.949219 34.050781,39 39,34.050781 38.599609,33.650391 34.050781,38.199219 24,28.148438 Z" transform="translate(0,1004.3622)"/><path id="path4227" fill="#fff" fill-opacity=".235" stroke="none" d="M 13.949219,9 9,13.949219 9.1992188,14.148438 13.949219,9.4003906 24,19.451172 34.050781,9.4003906 l 4.75,4.7480474 L 39,13.949219 34.050781,9 24,19.050781 13.949219,9 Z M 18.851562,24.199219 9,34.050781 9.1992188,34.25 19.050781,24.400391 18.851562,24.199219 Z m 10.296876,0 -0.199219,0.201172 L 38.800781,34.25 39,34.050781 29.148438,24.199219 Z" transform="translate(0,1004.3622)"/><path id="path4130" fill="url(#linearGradient4219)" fill-opacity="1" stroke="none" d="m 34.00001,1038.3615 0,14.0007 14,-14 z"/><path id="path4303" fill="url(#linearGradient4439)" fill-opacity="1" stroke="none" d="m 48.00001,1038.3622 -14,14 12.05469,0 c 1.07727,0 1.94531,-0.868 1.94531,-1.9453 l 0,-12.0547 z"/><path id="path4784" fill="url(#linearGradient4786)" fill-opacity="1" stroke="none" d="m 34.00001,1052.3622 0,-14.0007 -14,14 z" opacity=".1"/><path id="rect846-0" fill="#000" fill-opacity="1" stroke="none" d="m -1e-5,1049.3622 0,1.0625 c 0,1.0773 0.86022,1.9375 1.9375,1.9375 l 44.125,0 c 1.07728,0 1.9375,-0.8602 1.9375,-1.9375 l 0,-1.0625 c 0,1.0773 -0.86022,1.9375 -1.9375,1.9375 l -44.125,0 c -1.07728,0 -1.9375,-0.8602 -1.9375,-1.9375 z"/><path id="rect4280-1" fill="#000" fill-opacity=".392" stroke="none" d="m 1.93749,1004.3622 c -1.07728,0 -1.9375,0.8602 -1.9375,1.9375 l 0,43.0625 c 0,0.7934 0.48002,1.449 1.15625,1.75 -0.30934,-0.3333 -0.5,-0.7824 -0.5,-1.2812 l 0,-42.9375 c 0,-1.0482 0.8269,-1.875 1.875,-1.875 l 42.9375,0 c 1.0481,0 1.875,0.8268 1.875,1.875 l 0,42.9375 c 0,0.4988 -0.19066,0.9479 -0.5,1.2812 0.67623,-0.301 1.15625,-0.9566 1.15625,-1.75 l 0,-43.0625 c 0,-1.0773 -0.86022,-1.9375 -1.9375,-1.9375 l -44.125,0 z"/><path id="path7515-3" fill="#fff" fill-opacity=".537" stroke="none" d="m 2.53124,1005.0185 c -0.91709,0 -1.67115,0.6395 -1.84375,1.5 0.33561,-0.2799 0.77451,-0.4375 1.25,-0.4375 l 44.125,0 c 0.47549,0 0.91439,0.1576 1.25,0.4375 -0.1726,-0.8605 -0.92666,-1.5 -1.84375,-1.5 l -42.9375,0 z"/></g></g></svg>