<svg xmlns="http://www.w3.org/2000/svg" xmlns:svg="http://www.w3.org/2000/svg" xmlns:xlink="http://www.w3.org/1999/xlink" id="svg2" width="48" height="48" version="1.1"><defs id="defs4"><linearGradient id="linearGradient4217"><stop id="stop4219" offset="0" stop-color="#d1f5c3" stop-opacity="1"/><stop id="stop4221" offset="1" stop-color="#fafff5" stop-opacity="1"/></linearGradient><linearGradient id="linearGradient6334"><stop id="stop6336" offset="0" stop-color="#75e04c" stop-opacity="1"/><stop id="stop6338" offset="1" stop-color="#c7fb95" stop-opacity="1"/></linearGradient><linearGradient id="linearGradient5770"><stop id="stop5772" offset="0" stop-color="#57d925" stop-opacity="1"/><stop id="stop5774" offset="1" stop-color="#aef965" stop-opacity="1"/></linearGradient><linearGradient id="linearGradient4788"><stop id="stop4790" offset="0" stop-color="#000" stop-opacity="1"/><stop id="stop4792" offset="1" stop-color="#000" stop-opacity="0"/></linearGradient><linearGradient id="linearGradient4433"><stop id="stop4435" offset="0" stop-color="#2b3141" stop-opacity="1"/><stop id="stop4437" offset="1" stop-color="#394056" stop-opacity="1"/></linearGradient><linearGradient id="linearGradient4117" x1="92.143" x2="92.143" y1="-1049.092" y2="-1001.09" gradientTransform="translate(-64.89343,-3.27419)" gradientUnits="userSpaceOnUse" xlink:href="#linearGradient5770"/><linearGradient id="linearGradient4439" x1="42.957" x2="42.957" y1="48" y2="33.999" gradientTransform="translate(1e-5,1004.3622)" gradientUnits="userSpaceOnUse" xlink:href="#linearGradient4433"/><linearGradient id="linearGradient4786" x1="458.571" x2="472.509" y1="871.361" y2="862.361" gradientTransform="matrix(-1,0,0,-1,492.57145,1914.7236)" gradientUnits="userSpaceOnUse" xlink:href="#linearGradient4788"/><linearGradient id="linearGradient4219" x1="465.571" x2="458.571" y1="869.362" y2="862.363" gradientTransform="translate(-424.57143,176.00001)" gradientUnits="userSpaceOnUse" xlink:href="#linearGradient6334"/><linearGradient id="linearGradient4215" x1="39" x2="39" y1="1043.362" y2="1013.362" gradientUnits="userSpaceOnUse" xlink:href="#linearGradient4217"/></defs><metadata id="metadata7"/><g id="layer1" transform="translate(0,-1004.3622)"><rect id="rect2991-1-7-3" width="48" height="48" x="0" y="-1052.362" fill="url(#linearGradient4117)" fill-opacity="1" stroke="none" ry="1.945" transform="scale(1,-1)"/><path id="path4130" fill="url(#linearGradient4219)" fill-opacity="1" stroke="none" d="m 34.00001,1038.3615 0,14.0007 14,-14 z"/><path id="path4303" fill="url(#linearGradient4439)" fill-opacity="1" stroke="none" d="m 48.00001,1038.3622 -14,14 12.05469,0 c 1.07727,0 1.94531,-0.868 1.94531,-1.9453 l 0,-12.0547 z"/><path id="path4784" fill="url(#linearGradient4786)" fill-opacity="1" stroke="none" d="m 34.00001,1052.3622 0,-14.0007 -14,14 z" opacity=".1"/><path id="rect846-0-2" fill="#000" fill-opacity="1" stroke="none" d="m -1e-5,1049.3622 0,1.0625 c 0,1.0773 0.86022,1.9375 1.9375,1.9375 l 44.125,0 c 1.07728,0 1.9375,-0.8602 1.9375,-1.9375 l 0,-1.0625 c 0,1.0773 -0.86022,1.9375 -1.9375,1.9375 l -44.125,0 c -1.07728,0 -1.9375,-0.8602 -1.9375,-1.9375 z"/><path id="path7515-3" fill="#fff" fill-opacity=".537" stroke="none" d="m 2.53124,1005.0185 c -0.91709,0 -1.67115,0.6395 -1.84375,1.5 0.33561,-0.2799 0.77451,-0.4375 1.25,-0.4375 l 44.125,0 c 0.47549,0 0.91439,0.1576 1.25,0.4375 -0.1726,-0.8605 -0.92666,-1.5 -1.84375,-1.5 l -42.9375,0 z"/><path id="rect4280-1" fill="#000" fill-opacity=".392" stroke="none" d="m 1.93749,1004.3622 c -1.07728,0 -1.9375,0.8602 -1.9375,1.9375 l 0,43.0625 c 0,0.7934 0.48002,1.449 1.15625,1.75 -0.30934,-0.3333 -0.5,-0.7824 -0.5,-1.2812 l 0,-42.9375 c 0,-1.0482 0.8269,-1.875 1.875,-1.875 l 42.9375,0 c 1.0481,0 1.875,0.8268 1.875,1.875 l 0,42.9375 c 0,0.4988 -0.19066,0.9479 -0.5,1.2812 0.67623,-0.301 1.15625,-0.9566 1.15625,-1.75 l 0,-43.0625 c 0,-1.0773 -0.86022,-1.9375 -1.9375,-1.9375 l -44.125,0 z"/><path id="path4233" fill="#000" fill-opacity=".059" stroke="none" d="m 32.9375,1014.5622 -11.800781,20.4395 -8.638672,-4.9864 0,0 L 9,1036.0778 l 14.695312,8.4844 0.002,0 0.002,0 15.300688,-26.5 -6.0625,-3.5 z"/><path id="path4231" fill="#000" fill-opacity=".118" stroke="none" d="m 32.9375,1014.1622 -11.800781,20.4395 -8.638672,-4.9864 0,0 L 9,1035.6778 l 14.695312,8.4844 0.002,0 0.002,0 15.300688,-26.5 -6.0625,-3.5 z"/><path id="path4227" fill="#000" fill-opacity=".235" stroke="none" d="m 32.9375,1013.7622 -11.800781,20.4395 -8.638672,-4.9864 0,0 L 9,1035.2778 l 14.695312,8.4844 0.002,0 0.002,0 15.300688,-26.5 -6.0625,-3.5 z"/><path id="rect4131" fill="url(#linearGradient4215)" fill-opacity="1" stroke="none" d="m 32.9375,1013.3622 -11.800781,20.4395 -8.638672,-4.9864 0,0 L 9,1034.8778 l 14.695312,8.4844 0.002,-0 0.002,0 15.300688,-26.5 -6.0625,-3.5 z"/><path id="path4235" fill="#5cda2a" fill-opacity=".314" stroke="none" d="M 38.652344 12.298828 L 23.699219 38.199219 L 23.697266 38.199219 L 23.695312 38.199219 L 9.3457031 29.914062 L 9 30.515625 L 23.695312 39 L 23.697266 39 L 23.699219 39 L 39 12.5 L 38.652344 12.298828 z" transform="translate(0,1004.3622)"/><path id="path4240" fill="#fff" fill-opacity=".235" stroke="none" d="M 32.9375 9 L 21.136719 29.439453 L 12.498047 24.453125 L 9 30.515625 L 9.1738281 30.615234 L 12.498047 24.853516 L 21.136719 29.839844 L 32.9375 9.4003906 L 38.826172 12.800781 L 39 12.5 L 32.9375 9 z" transform="translate(0,1004.3622)"/></g></svg>