<svg xmlns="http://www.w3.org/2000/svg" xmlns:svg="http://www.w3.org/2000/svg" id="svg2" width="16" height="16" version="1.1" viewBox="0 0 16 16"><metadata id="metadata10"/><path color="#000" style="text-decoration-line:none;text-decoration-style:solid;text-decoration-color:#000;isolation:auto;mix-blend-mode:normal;solid-color:#000;solid-opacity:1" id="rect4189" fill="#bebebe" fill-opacity="1" fill-rule="nonzero" stroke="none" stroke-dasharray="none" stroke-dashoffset="0" stroke-linecap="butt" stroke-linejoin="miter" stroke-miterlimit="4" stroke-opacity="1" stroke-width="1" d="M 8,2 C 4.676,2 2,4.676 2,8 c 0,3.324 2.676,6 6,6 3.324,0 6,-2.676 6,-6 C 14,4.676 11.324,2 8,2 Z m 0,1 c 2.77,0 5,2.23 5,5 0,2.77 -2.23,5 -5,5 C 5.23,13 3,10.77 3,8 3,5.23 5.23,3 8,3 Z M 7,4 7,9 7.4414062,9 8,9 11,9 11,8 8,8 8,4 Z" clip-rule="nonzero" color-interpolation="sRGB" color-interpolation-filters="linearRGB" color-rendering="auto" display="inline" enable-background="accumulate" image-rendering="auto" opacity="1" overflow="visible" shape-rendering="auto" text-decoration="none" text-rendering="auto" visibility="visible"/></svg>