<svg xmlns="http://www.w3.org/2000/svg" xmlns:svg="http://www.w3.org/2000/svg" id="svg2" width="16" height="16" version="1.1" viewBox="0 0 16 16"><metadata id="metadata16"/><path color="#000" style="text-decoration-line:none;text-decoration-style:solid;text-decoration-color:#000;isolation:auto;mix-blend-mode:normal;solid-color:#000;solid-opacity:1" id="rect4165" fill="#bebebe" fill-opacity="1" fill-rule="nonzero" stroke="none" stroke-dasharray="none" stroke-dashoffset="0" stroke-linecap="butt" stroke-linejoin="miter" stroke-miterlimit="4" stroke-opacity="1" stroke-width="1" d="M 6 2 L 6 3 L 6 7 L 7 7 L 7 3 L 9 3 L 9 7 L 10 7 L 10 3 L 10 2 L 6 2 z M 15 2 C 14.446 2 14 2.446 14 3 C 14 3.554 14.446 4 15 4 C 15.554 4 16 3.554 16 3 C 16 2.446 15.554 2 15 2 z M 15 5 C 14.446 5 14 5.446 14 6 C 14 6.554 14.446 7 15 7 C 15.554 7 16 6.554 16 6 C 16 5.446 15.554 5 15 5 z M 3.2929688 8 L 7.2929688 12 L 8 12.707031 L 8.7070312 12 L 12.707031 8 L 11.292969 8 L 8 11.292969 L 4.7070312 8 L 3.2929688 8 z M 15 8 C 14.446 8 14 8.446 14 9 C 14 9.554 14.446 10 15 10 C 15.554 10 16 9.554 16 9 C 16 8.446 15.554 8 15 8 z M 2 12 L 2 13 L 2 14 L 13 14 L 14 14 L 14 13 L 14 12 L 13 12 L 13 13 L 3 13 L 3 12 L 2 12 z" clip-rule="nonzero" color-interpolation="sRGB" color-interpolation-filters="linearRGB" color-rendering="auto" display="inline" enable-background="accumulate" image-rendering="auto" opacity="1" overflow="visible" shape-rendering="auto" text-decoration="none" text-rendering="auto" visibility="visible"/></svg>