<svg xmlns="http://www.w3.org/2000/svg" xmlns:svg="http://www.w3.org/2000/svg" id="svg2" width="16" height="16" version="1.1" viewBox="0 0 16 16"><metadata id="metadata16"/><path id="rect4199-0" fill="#bebebe" fill-opacity="1" fill-rule="nonzero" stroke="none" stroke-dasharray="none" stroke-dashoffset="0" stroke-linecap="butt" stroke-linejoin="miter" stroke-miterlimit="4" stroke-opacity="1" stroke-width="1" d="m 0,2 0,1 0,11 1,0 9,0 0,-1 L 1.414062,13 6.7070312,7.7070312 8,9 9.2929688,7.7070312 10,7 11,6 14,3 15,3 15,9 16,9 16,2 1,2 0,2 Z M 1,3 2,3 6,7 1,12 1,3 Z M 3.414062,3 12.585938,3 8,7.5859375 3.414062,3 Z M 13.5,9 12.792969,9.707031 14.085938,11 11,11 l 0,1 3.085938,0 -1.292969,1.292969 L 13.5,14 15.792969,11.707031 16,11.5 15.792969,11.292969 13.5,9 Z" clip-rule="nonzero" color="#000" color-interpolation="sRGB" color-interpolation-filters="linearRGB" color-rendering="auto" display="inline" enable-background="accumulate" image-rendering="auto" opacity="1" overflow="visible" shape-rendering="auto" text-decoration="none" text-rendering="auto" visibility="visible" style="text-decoration-line:none;text-decoration-style:solid;text-decoration-color:#000;isolation:auto;mix-blend-mode:normal;solid-color:#000;solid-opacity:1"/></svg>