<svg xmlns="http://www.w3.org/2000/svg" xmlns:svg="http://www.w3.org/2000/svg" id="svg2" width="16" height="16" version="1.1" viewBox="0 0 16 16"><metadata id="metadata16"/><path color="#000" style="text-decoration-line:none;text-decoration-style:solid;text-decoration-color:#000;isolation:auto;mix-blend-mode:normal;solid-color:#000;solid-opacity:1" id="rect4161" fill="#bebebe" fill-opacity="1" fill-rule="nonzero" stroke="none" stroke-dasharray="none" stroke-dashoffset="0" stroke-linecap="butt" stroke-linejoin="miter" stroke-miterlimit="4" stroke-opacity="1" stroke-width="1" d="M 5 2 L 5 4 L 3 4 L 3 5 L 3 8 L 4 8 L 4 5 L 5 5 L 5 6 L 11 6 L 11 5 L 12 5 L 12 13 L 8 13 L 8 14 L 13 14 L 13 13 L 13 5 L 13 4 L 11 4 L 11 2 L 5 2 z M 6 3 L 10 3 L 10 4 L 10 5 L 6 5 L 6 4 L 6 3 z M 3 9 L 3 14 L 7 14 L 7 9 L 3 9 z M 4 10 L 6 10 L 6 13 L 4 13 L 4 10 z" clip-rule="nonzero" color-interpolation="sRGB" color-interpolation-filters="linearRGB" color-rendering="auto" display="inline" enable-background="accumulate" image-rendering="auto" opacity="1" overflow="visible" shape-rendering="auto" text-decoration="none" text-rendering="auto" visibility="visible"/></svg>