<svg xmlns="http://www.w3.org/2000/svg" xmlns:svg="http://www.w3.org/2000/svg" id="svg2" version="1.1" viewBox="0 0 16 16"><metadata id="metadata12"/><path color="#000" style="text-decoration-line:none;text-decoration-style:solid;text-decoration-color:#000;isolation:auto;mix-blend-mode:normal;solid-color:#000;solid-opacity:1" id="rect4173" fill="#bebebe" fill-opacity="1" fill-rule="nonzero" stroke="none" stroke-dasharray="none" stroke-dashoffset="0" stroke-linecap="butt" stroke-linejoin="miter" stroke-miterlimit="4" stroke-opacity="1" stroke-width="1" d="M 2 2 L 2 6 L 3 6 L 3 3 L 6 3 L 6 2 L 2 2 z M 10 2 L 10 3 L 13 3 L 13 6 L 14 6 L 14 2 L 10 2 z M 4 4 L 4 7 L 7 7 L 7 4 L 4 4 z M 9 4 L 9 7 L 12 7 L 12 4 L 9 4 z M 5 5 L 6 5 L 6 6 L 5 6 L 5 5 z M 10 5 L 11 5 L 11 6 L 10 6 L 10 5 z M 4 9 L 4 12 L 7 12 L 7 9 L 4 9 z M 9 9 L 9 12 L 12 12 L 12 9 L 9 9 z M 2 10 L 2 14 L 6 14 L 6 13 L 3 13 L 3 10 L 2 10 z M 5 10 L 6 10 L 6 11 L 5 11 L 5 10 z M 10 10 L 11 10 L 11 11 L 10 11 L 10 10 z M 13 10 L 13 13 L 10 13 L 10 14 L 14 14 L 14 10 L 13 10 z" clip-rule="nonzero" color-interpolation="sRGB" color-interpolation-filters="linearRGB" color-rendering="auto" display="inline" enable-background="accumulate" image-rendering="auto" opacity="1" overflow="visible" shape-rendering="auto" text-decoration="none" text-rendering="auto" visibility="visible"/></svg>