<svg xmlns="http://www.w3.org/2000/svg" xmlns:svg="http://www.w3.org/2000/svg" id="svg2" version="1.1" viewBox="0 0 16 16"><metadata id="metadata12"/><defs id="defs10"><linearGradient id="linearGradient3257"><stop id="stop3259" offset="0" stop-color="#a50000" stop-opacity="1"/><stop id="stop3261" offset="1" stop-color="#e73800" stop-opacity="1"/></linearGradient></defs><path color="#000" style="text-decoration-line:none;text-decoration-style:solid;text-decoration-color:#000;isolation:auto;mix-blend-mode:normal;solid-color:#000;solid-opacity:1" id="rect4163" fill="#bebebe" fill-opacity="1" fill-rule="nonzero" stroke="none" stroke-dasharray="none" stroke-dashoffset="0" stroke-linecap="butt" stroke-linejoin="miter" stroke-miterlimit="4" stroke-opacity="1" stroke-width="1" d="M 8 2 C 4.676 2 2 4.676 2 8 C 2 11.324 4.676 14 8 14 C 11.324 14 14 11.324 14 8 C 14 4.676 11.324 2 8 2 z M 8 3 C 10.77 3 13 5.23 13 8 C 13 10.77 10.77 13 8 13 C 5.23 13 3 10.77 3 8 C 3 5.23 5.23 3 8 3 z M 5.7070312 5 L 5 5.7070312 L 7.2929688 8 L 5 10.292969 L 5.7070312 11 L 8 8.7070312 L 10.292969 11 L 11 10.292969 L 8.7070312 8 L 11 5.7070312 L 10.292969 5 L 8 7.2929688 L 5.7070312 5 z" clip-rule="nonzero" color-interpolation="sRGB" color-interpolation-filters="linearRGB" color-rendering="auto" display="inline" enable-background="accumulate" image-rendering="auto" opacity="1" overflow="visible" shape-rendering="auto" text-decoration="none" text-rendering="auto" visibility="visible"/></svg>