<svg xmlns="http://www.w3.org/2000/svg" xmlns:svg="http://www.w3.org/2000/svg" id="svg2" version="1.1" viewBox="0 0 16 16"><metadata id="metadata24"/><path color="#000" style="text-decoration-line:none;text-decoration-style:solid;text-decoration-color:#000;isolation:auto;mix-blend-mode:normal;solid-color:#000;solid-opacity:1" id="rect4159" fill="#bebebe" fill-opacity="1" fill-rule="nonzero" stroke="none" stroke-dasharray="none" stroke-dashoffset="0" stroke-linecap="butt" stroke-linejoin="miter" stroke-miterlimit="4" stroke-opacity="1" stroke-width="1" d="M 7 2 L 7 3 C 7 3.034625 7.0161294 3.0639575 7.0195312 3.0976562 C 5.0398073 3.4886443 3.4886443 5.0398073 3.0976562 7.0195312 C 3.0639575 7.0161294 3.034625 7 3 7 L 2 7 L 2 9 L 3 9 C 3.034625 9 3.0639575 8.9838706 3.0976562 8.9804688 C 3.4886443 10.960193 5.0398073 12.511356 7.0195312 12.902344 C 7.0161294 12.936042 7 12.965375 7 13 L 7 14 L 8 14 L 9 14 L 9 13 C 9 12.965375 8.9838706 12.936042 8.9804688 12.902344 C 10.960193 12.511356 12.511356 10.960193 12.902344 8.9804688 C 12.936042 8.9838706 12.965375 9 13 9 L 14 9 L 14 7 L 13 7 C 12.965375 7 12.936042 7.0161294 12.902344 7.0195312 C 12.511356 5.0398073 10.960193 3.4886443 8.9804688 3.0976562 C 8.9838706 3.0639575 9 3.034625 9 3 L 9 2 L 7 2 z M 8 4 C 10.216 4 12 5.784 12 8 C 12 10.216 10.216 12 8 12 C 5.784 12 4 10.216 4 8 C 4 5.784 5.784 4 8 4 z M 7 7 L 7 9 L 9 9 L 9 7 L 7 7 z" clip-rule="nonzero" color-interpolation="sRGB" color-interpolation-filters="linearRGB" color-rendering="auto" display="inline" enable-background="accumulate" image-rendering="auto" opacity="1" overflow="visible" shape-rendering="auto" text-decoration="none" text-rendering="auto" visibility="visible"/></svg>