<svg xmlns="http://www.w3.org/2000/svg" xmlns:svg="http://www.w3.org/2000/svg" id="svg2" version="1.1" viewBox="0 0 16 16"><metadata id="metadata12"/><path color="#000" style="text-decoration-line:none;text-decoration-style:solid;text-decoration-color:#000;isolation:auto;mix-blend-mode:normal;solid-color:#000;solid-opacity:1" id="rect4192" fill="#bebebe" fill-opacity="1" fill-rule="nonzero" stroke="none" stroke-dasharray="none" stroke-dashoffset="0" stroke-linecap="butt" stroke-linejoin="miter" stroke-miterlimit="4" stroke-opacity="1" stroke-width="1" d="M 7.9628906 2 L 6 3.9628906 L 6 3 L 3 3 L 3 4 L 3 6.9648438 L 2 7.9648438 L 2.0351562 8 L 3 8 L 3 13 L 3 14 L 7 14 L 7 13 L 7 11 L 9 11 L 9 14 L 13 14 L 13 13 L 13 8 L 13.964844 8 L 14 7.9648438 L 8.0371094 2 L 8 2 L 7.9628906 2 z M 8 3.3769531 L 12.621094 8 L 12 8 L 12 13 L 10 13 L 10 10 L 7 10 L 6 10 L 6 11 L 6 13 L 4 13 L 4 8 L 3.3789062 8 L 8 3.3769531 z M 4 4 L 5 4 L 5 4.9628906 L 4 5.9648438 L 4 4 z" clip-rule="nonzero" color-interpolation="sRGB" color-interpolation-filters="linearRGB" color-rendering="auto" display="inline" enable-background="accumulate" image-rendering="auto" opacity="1" overflow="visible" shape-rendering="auto" text-decoration="none" text-rendering="auto" visibility="visible"/></svg>