<svg xmlns="http://www.w3.org/2000/svg" xmlns:svg="http://www.w3.org/2000/svg" id="svg2" version="1.1" viewBox="0 0 16 16"><metadata id="metadata20"/><defs id="defs4"><clipPath id="clipPath6"><rect id="rect8" width="14" height="11" x="21" y="281" fill="none" stroke="#fff" stroke-linecap="round" stroke-linejoin="round" stroke-width="2" color="#bebebe"/></clipPath><clipPath id="clipPath10"><rect id="rect12" width="14" height="11" x="21" y="281" fill="none" stroke="#fff" stroke-linecap="round" stroke-linejoin="round" stroke-width="2" color="#bebebe"/></clipPath></defs><path color="#000" style="text-decoration-line:none;text-decoration-style:solid;text-decoration-color:#000;isolation:auto;mix-blend-mode:normal;solid-color:#000;solid-opacity:1" id="rect4171" fill="#bebebe" fill-opacity="1" fill-rule="nonzero" stroke="none" stroke-dasharray="none" stroke-dashoffset="0" stroke-linecap="butt" stroke-linejoin="miter" stroke-miterlimit="4" stroke-opacity="1" stroke-width="1" d="M 8 2 C 4.676 2 2 4.676 2 8 C 2 11.324 4.676 14 8 14 C 11.324 14 14 11.324 14 8 C 14 4.676 11.324 2 8 2 z M 8 3 C 10.77 3 13 5.23 13 8 C 13 10.77 10.77 13 8 13 C 5.23 13 3 10.77 3 8 C 3 5.23 5.23 3 8 3 z" clip-rule="nonzero" color-interpolation="sRGB" color-interpolation-filters="linearRGB" color-rendering="auto" display="inline" enable-background="accumulate" image-rendering="auto" opacity="1" overflow="visible" shape-rendering="auto" text-decoration="none" text-rendering="auto" visibility="visible"/><rect clip-rule="nonzero" style="text-decoration-line:none;text-decoration-style:solid;text-decoration-color:#000;isolation:auto;mix-blend-mode:normal;solid-color:#000;solid-opacity:1" id="rect4176" width="9.017" height="8.949" x="3.492" y="3.525" fill="#dc322f" fill-opacity="1" fill-rule="nonzero" stroke="none" stroke-dasharray="none" stroke-dashoffset="0" stroke-linecap="butt" stroke-linejoin="miter" stroke-miterlimit="4" stroke-opacity="1" stroke-width="1" color="#000" color-interpolation="sRGB" color-interpolation-filters="linearRGB" color-rendering="auto" display="inline" enable-background="accumulate" image-rendering="auto" opacity="1" overflow="visible" ry="4.475" shape-rendering="auto" text-decoration="none" text-rendering="auto" visibility="visible"/><path d="M 13.292969,2.0000003 2.0000001,13.292969 2.7070311,14 14,2.7070315 Z" style="line-height:125%" id="path4170" fill="#bebebe" fill-opacity="1" stroke="none" stroke-linecap="butt" stroke-linejoin="miter" stroke-opacity="1" stroke-width="1" font-family="sans-serif" font-size="medium" font-style="normal" font-weight="normal" letter-spacing="0" word-spacing="0"/></svg>