<svg xmlns="http://www.w3.org/2000/svg" xmlns:svg="http://www.w3.org/2000/svg" id="svg2" version="1.1" viewBox="0 0 16 16"><metadata id="metadata18"/><path color="#000" style="text-decoration-line:none;text-decoration-style:solid;text-decoration-color:#000;isolation:auto;mix-blend-mode:normal;solid-color:#000;solid-opacity:1" id="rect4172" fill="#bebebe" fill-opacity="1" fill-rule="nonzero" stroke="none" stroke-dasharray="none" stroke-dashoffset="0" stroke-linecap="butt" stroke-linejoin="miter" stroke-miterlimit="4" stroke-opacity="1" stroke-width="1" d="M 2 2 L 2 3 L 2 8 L 3 8 L 3 3 L 13 3 L 13 9.2929688 L 9.7070312 6 L 9.6992188 6.0078125 L 9.6933594 6 L 6.8476562 8.8476562 L 7.5546875 9.5546875 L 9.7011719 7.4082031 L 13 10.707031 L 13 13 L 8 13 L 8 14 L 14 14 L 14 13 L 14 11.707031 L 14 10.292969 L 14 2 L 3 2 L 2 2 z M 5.5 4 C 4.669 4 4 4.669 4 5.5 C 4 6.331 4.669 7 5.5 7 C 6.331 7 7 6.331 7 5.5 C 7 4.669 6.331 4 5.5 4 z M 5.5 5 C 5.777 5 6 5.223 6 5.5 C 6 5.777 5.777 6 5.5 6 C 5.223 6 5 5.777 5 5.5 C 5 5.223 5.223 5 5.5 5 z M 4 9 L 4 11 L 2 11 L 2 12 L 4 12 L 4 14 L 5 14 L 5 12 L 7 12 L 7 11 L 5 11 L 5 9 L 4 9 z" clip-rule="nonzero" color-interpolation="sRGB" color-interpolation-filters="linearRGB" color-rendering="auto" display="inline" enable-background="accumulate" image-rendering="auto" opacity="1" overflow="visible" shape-rendering="auto" text-decoration="none" text-rendering="auto" visibility="visible"/></svg>