<svg xmlns="http://www.w3.org/2000/svg" xmlns:svg="http://www.w3.org/2000/svg" id="svg2" version="1.1" viewBox="0 0 16 16"><metadata id="metadata10"/><path color="#000" style="text-decoration-line:none;text-decoration-style:solid;text-decoration-color:#000;isolation:auto;mix-blend-mode:normal;solid-color:#000;solid-opacity:1" id="rect4199" fill="#bebebe" fill-opacity="1" fill-rule="nonzero" stroke="none" stroke-dasharray="none" stroke-dashoffset="0" stroke-linecap="butt" stroke-linejoin="miter" stroke-miterlimit="4" stroke-opacity="1" stroke-width="1" d="M 0 2 L 0 9 L 1 9 L 1 3 L 2 3 L 5 6 L 6 7 L 6.7070312 7.7070312 L 8 9 L 9.2929688 7.7070312 L 14.585938 13 L 6 13 L 6 14 L 15 14 L 16 14 L 16 3 L 16 2 L 15 2 L 0 2 z M 3.4140625 3 L 12.585938 3 L 8 7.5859375 L 3.4140625 3 z M 14 3 L 15 3 L 15 12 L 10 7 L 14 3 z M 3 9 L 0 11.5 L 3 14 L 3 12 L 6 12 L 6 11 L 3 11 L 3 9 z" clip-rule="nonzero" color-interpolation="sRGB" color-interpolation-filters="linearRGB" color-rendering="auto" display="inline" enable-background="accumulate" image-rendering="auto" opacity="1" overflow="visible" shape-rendering="auto" text-decoration="none" text-rendering="auto" visibility="visible"/></svg>