<svg xmlns="http://www.w3.org/2000/svg" xmlns:svg="http://www.w3.org/2000/svg" id="svg2" version="1.1" viewBox="0 0 16 16"><metadata id="metadata12"/><path id="rect4186" fill="#bebebe" fill-opacity="1" fill-rule="nonzero" stroke="none" stroke-dasharray="none" stroke-dashoffset="0" stroke-linecap="butt" stroke-linejoin="miter" stroke-miterlimit="4" stroke-opacity="1" stroke-width="1" d="m 8.0000027,1.9921815 c -2.2160003,0 -4.0000003,1.7840001 -4.0000003,4.0000001 0,0.963982 0.3521249,1.834248 0.916016,2.523437 l -0.01563,-0.0078 3.0996093,5.5000004 3.0996093,-5.5000004 -0.01563,0.0078 c 0.563896,-0.689187 0.916021,-1.559453 0.916021,-2.523435 0,-2.216 -1.784,-4.0000001 -4.0000003,-4.0000001 z m 0,1 c 1.662,0 3.0000003,1.3380001 3.0000003,3 0,1.6620001 -1.3380003,3.0000001 -3.0000003,3.0000001 -1.6620004,0 -3.0000003,-1.338 -3.0000003,-3.0000001 0,-1.662 1.3379999,-3 3.0000003,-3 z m -0.041016,6.9960941 c 0.01401,1.43e-4 0.02697,0.0039 0.041016,0.0039 0.014045,0 0.027005,-0.0038 0.041016,-0.0039 l -0.041016,0.01953 -0.041016,-0.01953 z" clip-rule="nonzero" color="#000" color-interpolation="sRGB" color-interpolation-filters="linearRGB" color-rendering="auto" display="inline" enable-background="accumulate" image-rendering="auto" opacity="1" overflow="visible" shape-rendering="auto" text-decoration="none" text-rendering="auto" visibility="visible" style="text-decoration-line:none;text-decoration-style:solid;text-decoration-color:#000;isolation:auto;mix-blend-mode:normal;solid-color:#000;solid-opacity:1"/></svg>