<svg xmlns="http://www.w3.org/2000/svg" xmlns:svg="http://www.w3.org/2000/svg" id="svg2" version="1.1" viewBox="0 0 16 16"><metadata id="metadata16"/><path color="#000" style="text-decoration-line:none;text-decoration-style:solid;text-decoration-color:#000;isolation:auto;mix-blend-mode:normal;solid-color:#000;solid-opacity:1" id="rect4178" fill="#bebebe" fill-opacity="1" fill-rule="nonzero" stroke="none" stroke-dasharray="none" stroke-dashoffset="0" stroke-linecap="butt" stroke-linejoin="miter" stroke-miterlimit="4" stroke-opacity="1" stroke-width="1" d="M 13,3 13,3.3261719 13,12.673828 13,13 11.912109,13 9,10.087891 9,12.673828 9,13 7.9121094,13 4,9.0878906 l 0,4.3691404 -1,0 L 3,8.0878906 3,8 3,7.9121094 3,3 4,3 4,6.9121094 7.9121094,3 8,3 9,3 9,3.3261719 9,5.9121094 11.912109,3 12,3 13,3 Z m -1,1.3261719 -3,3 0,1.3476562 3,2.9999999 0,-7.3476561 z m -4,0 L 4.326172,8 8,11.673828 8,9.0878906 8,6.9121094 8,4.3261719 Z" clip-rule="nonzero" color-interpolation="sRGB" color-interpolation-filters="linearRGB" color-rendering="auto" display="inline" enable-background="accumulate" image-rendering="auto" opacity="1" overflow="visible" shape-rendering="auto" text-decoration="none" text-rendering="auto" visibility="visible"/></svg>