<svg xmlns="http://www.w3.org/2000/svg" xmlns:svg="http://www.w3.org/2000/svg" id="svg2" width="16" height="16" version="1.1" viewBox="0 0 16 16"><metadata id="metadata12"/><path id="rect4178" fill="#bebebe" fill-opacity="1" fill-rule="nonzero" stroke="none" stroke-dasharray="none" stroke-dashoffset="0" stroke-linecap="butt" stroke-linejoin="miter" stroke-miterlimit="4" stroke-opacity="1" stroke-width="1" d="m 3.0000002,2.9999998 0,0.3261719 0,9.3476563 0,0.326172 1.08789,0 2.9121096,-2.912109 0,2.585937 0,0.326172 1.0878907,0 L 13,8.0878902 l 0,-0.08789 0,-0.08789 -4.9121095,-4.9121094 -0.087891,0 -1,0 0,0.3261719 0,2.5859375 -2.9121093,-2.9121094 -0.08789,0 -1,0 z m 1,1.3261719 2.9999996,3 0,1.3476565 -2.9999996,2.9999998 0,-7.3476563 z m 3.9999996,0 3.6738282,3.6738285 -3.6738282,3.6738278 0,-2.5859378 0,-2.175781 0,-2.5859375 z" clip-rule="nonzero" color="#000" color-interpolation="sRGB" color-interpolation-filters="linearRGB" color-rendering="auto" display="inline" enable-background="accumulate" image-rendering="auto" opacity="1" overflow="visible" shape-rendering="auto" text-decoration="none" text-rendering="auto" visibility="visible" style="text-decoration-line:none;text-decoration-style:solid;text-decoration-color:#000;isolation:auto;mix-blend-mode:normal;solid-color:#000;solid-opacity:1"/></svg>