<svg xmlns="http://www.w3.org/2000/svg" xmlns:svg="http://www.w3.org/2000/svg" id="svg2" version="1.1" viewBox="0 0 16 16"><metadata id="metadata16"/><path color="#000" style="text-decoration-line:none;text-decoration-style:solid;text-decoration-color:#000;isolation:auto;mix-blend-mode:normal;solid-color:#000;solid-opacity:1" id="rect4178" fill="#bebebe" fill-opacity="1" fill-rule="nonzero" stroke="none" stroke-dasharray="none" stroke-dashoffset="0" stroke-linecap="butt" stroke-linejoin="miter" stroke-miterlimit="4" stroke-opacity="1" stroke-width="1" d="M 3 3 L 3 3.3261719 L 3 12.673828 L 3 13 L 4.0878906 13 L 7 10.087891 L 7 12.673828 L 7 13 L 8.0878906 13 L 12 9.0878906 L 12 13.457031 L 13 13.457031 L 13 8.0878906 L 13 8 L 13 7.9121094 L 13 3 L 12 3 L 12 6.9121094 L 8.0878906 3 L 8 3 L 7 3 L 7 3.3261719 L 7 5.9121094 L 4.0878906 3 L 4 3 L 3 3 z M 4 4.3261719 L 7 7.3261719 L 7 8.6738281 L 4 11.673828 L 4 4.3261719 z M 8 4.3261719 L 11.673828 8 L 8 11.673828 L 8 9.0878906 L 8 6.9121094 L 8 4.3261719 z" clip-rule="nonzero" color-interpolation="sRGB" color-interpolation-filters="linearRGB" color-rendering="auto" display="inline" enable-background="accumulate" image-rendering="auto" opacity="1" overflow="visible" shape-rendering="auto" text-decoration="none" text-rendering="auto" visibility="visible"/></svg>