<svg xmlns="http://www.w3.org/2000/svg" xmlns:svg="http://www.w3.org/2000/svg" id="svg2" width="16" height="16" version="1.1" viewBox="0 0 16 16"><metadata id="metadata14"/><path id="rect4178" fill="#bebebe" fill-opacity="1" fill-rule="nonzero" stroke="none" stroke-dasharray="none" stroke-dashoffset="0" stroke-linecap="butt" stroke-linejoin="miter" stroke-miterlimit="4" stroke-opacity="1" stroke-width="1" d="m 2.9999999,2.7714844 0,0.3261719 0,9.3476567 0,0.326172 1.087891,0 2.9121092,-2.9121095 0,2.5859375 0,0.326172 1.0878906,0 L 12,8.8593745 l 0,4.3691415 1,0 0,-5.3691415 0,-0.08789 0,-0.08789 0,-4.9121091 -1,0 0,3.9121091 -3.9121093,-3.9121091 -0.087891,0 -1,0 0,0.3261719 0,2.5859372 -2.9121088,-2.9121091 -0.08789,0 -1,0 z m 1,1.3261719 L 7,7.0976565 7,8.4453126 3.9999999,11.445313 l 0,-7.3476566 z m 4.0000002,0 3.6738279,3.6738282 -3.6738279,3.6738285 0,-2.5859384 0,-2.1757811 0,-2.5859372 z" clip-rule="nonzero" color="#000" color-interpolation="sRGB" color-interpolation-filters="linearRGB" color-rendering="auto" display="inline" enable-background="accumulate" image-rendering="auto" opacity="1" overflow="visible" shape-rendering="auto" text-decoration="none" text-rendering="auto" visibility="visible" style="text-decoration-line:none;text-decoration-style:solid;text-decoration-color:#000;isolation:auto;mix-blend-mode:normal;solid-color:#000;solid-opacity:1"/></svg>