<svg xmlns="http://www.w3.org/2000/svg" xmlns:svg="http://www.w3.org/2000/svg" id="svg2" version="1.1" viewBox="0 0 16 16"><metadata id="metadata10"/><path color="#000" style="text-decoration-line:none;text-decoration-style:solid;text-decoration-color:#000;isolation:auto;mix-blend-mode:normal;solid-color:#000;solid-opacity:1" id="rect4161" fill="#bebebe" fill-opacity="1" fill-rule="nonzero" stroke="none" stroke-dasharray="none" stroke-dashoffset="0" stroke-linecap="butt" stroke-linejoin="miter" stroke-miterlimit="4" stroke-opacity="1" stroke-width="1" d="M 3 2 L 3 4 L 2 4 L 2 5 L 3 5 L 3 14 L 4 14 L 4 5 L 5 5 L 5 4 L 4 4 L 4 2 L 3 2 z M 6 2 L 6 9 L 5 9 L 5 10 L 6 10 L 6 14 L 7 14 L 7 10 L 8 10 L 8 9 L 7 9 L 7 2 L 6 2 z M 9 2 L 9 5 L 8 5 L 8 6 L 9 6 L 9 14 L 10 14 L 10 6 L 11 6 L 11 5 L 10 5 L 10 2 L 9 2 z M 12 2 L 12 11 L 11 11 L 11 12 L 12 12 L 12 14 L 13 14 L 13 12 L 14 12 L 14 11 L 13 11 L 13 2 L 12 2 z" clip-rule="nonzero" color-interpolation="sRGB" color-interpolation-filters="linearRGB" color-rendering="auto" display="inline" enable-background="accumulate" image-rendering="auto" opacity="1" overflow="visible" shape-rendering="auto" text-decoration="none" text-rendering="auto" visibility="visible"/></svg>