<svg xmlns="http://www.w3.org/2000/svg" xmlns:svg="http://www.w3.org/2000/svg" id="svg2" version="1.1" viewBox="0 0 16 16"><metadata id="metadata18"/><path color="#000" style="text-decoration-line:none;text-decoration-style:solid;text-decoration-color:#000;isolation:auto;mix-blend-mode:normal;solid-color:#000;solid-opacity:1" id="rect4169" fill="#bebebe" fill-opacity="1" fill-rule="nonzero" stroke="none" stroke-dasharray="none" stroke-dashoffset="0" stroke-linecap="butt" stroke-linejoin="miter" stroke-miterlimit="4" stroke-opacity="1" stroke-width="1" d="m 14,12 -1,0 0,-1 1,0 z m 0,-7 -1,0 0,-1 1,0 z M 12,14 4,14 4,9 6,9 6,7 4,7 4,2 l 8,0 0,5 -2,0 0,2 2,0 z m -1,-1 0,-3 -6,0 0,3 z M 9,9 9,7 7,7 7,9 Z m -6,3 -1,0 0,-1 1,0 z M 3,5 2,5 2,4 3,4 Z" clip-rule="nonzero" color-interpolation="sRGB" color-interpolation-filters="linearRGB" color-rendering="auto" display="inline" enable-background="accumulate" image-rendering="auto" opacity="1" overflow="visible" shape-rendering="auto" text-decoration="none" text-rendering="auto" visibility="visible"/></svg>