<svg xmlns="http://www.w3.org/2000/svg" xmlns:svg="http://www.w3.org/2000/svg" id="svg2" version="1.1" viewBox="0 0 16 16"><metadata id="metadata14"/><defs id="defs12"><clipPath id="clipPath6"><rect id="rect8" width="14" height="11" x="21" y="281" fill="none" stroke="#fff" stroke-linecap="round" stroke-linejoin="round" stroke-width="2" color="#bebebe"/></clipPath><clipPath id="clipPath10"><rect id="rect12" width="14" height="11" x="21" y="281" fill="none" stroke="#fff" stroke-linecap="round" stroke-linejoin="round" stroke-width="2" color="#bebebe"/></clipPath></defs><path color="#000" style="text-decoration-line:none;text-decoration-style:solid;text-decoration-color:#000;isolation:auto;mix-blend-mode:normal;solid-color:#000;solid-opacity:1" id="rect4143" fill="#ef2929" fill-opacity="1" fill-rule="nonzero" stroke="none" stroke-dasharray="none" stroke-dashoffset="0" stroke-linecap="butt" stroke-linejoin="miter" stroke-miterlimit="4" stroke-opacity="1" stroke-width="1" d="M 8 2 C 4.676 2 2 4.676 2 8 C 2 11.324 4.676 14 8 14 C 11.324 14 14 11.324 14 8 C 14 4.676 11.324 2 8 2 z M 8 3 C 10.77 3 13 5.23 13 8 C 13 10.77 10.77 13 8 13 C 5.23 13 3 10.77 3 8 C 3 5.23 5.23 3 8 3 z M 5 7 L 5 9 L 11 9 L 11 7 L 5 7 z" clip-rule="nonzero" color-interpolation="sRGB" color-interpolation-filters="linearRGB" color-rendering="auto" display="inline" enable-background="accumulate" image-rendering="auto" opacity="1" overflow="visible" shape-rendering="auto" text-decoration="none" text-rendering="auto" visibility="visible"/></svg>