<svg xmlns="http://www.w3.org/2000/svg" xmlns:svg="http://www.w3.org/2000/svg" id="svg2" width="16" height="16.024" version="1.1" viewBox="0 0 16 16.024"><metadata id="metadata14"/><path color="#000" style="text-decoration-line:none;text-decoration-style:solid;text-decoration-color:#000;isolation:auto;mix-blend-mode:normal;solid-color:#000;solid-opacity:1" id="rect4143" fill="#bebebe" fill-opacity="1" fill-rule="nonzero" stroke="none" stroke-dasharray="none" stroke-dashoffset="0" stroke-linecap="butt" stroke-linejoin="miter" stroke-miterlimit="4" stroke-opacity="1" stroke-width="1" d="M 7 2.1132812 C 4.1562262 2.5874786 2 5.0409735 2 8.0234375 C 2 11.347437 4.676 14.023436 8 14.023438 C 11.324 14.023438 14 11.347437 14 8.0234375 C 14 5.0409735 11.843774 2.5874786 9 2.1132812 L 9 3.1230469 C 11.287361 3.5840411 13 5.596269 13 8.0234375 C 13 10.793437 10.77 13.023436 8 13.023438 C 5.23 13.023438 3 10.793437 3 8.0234375 C 3 5.596269 4.7126387 3.5840411 7 3.1230469 L 7 2.1132812 z M 7 4.0234375 L 7 10.023438 L 9 10.023438 L 9 4.0234375 L 7 4.0234375 z" clip-rule="nonzero" color-interpolation="sRGB" color-interpolation-filters="linearRGB" color-rendering="auto" display="inline" enable-background="accumulate" image-rendering="auto" opacity="1" overflow="visible" shape-rendering="auto" text-decoration="none" text-rendering="auto" visibility="visible"/></svg>