<svg xmlns="http://www.w3.org/2000/svg" xmlns:svg="http://www.w3.org/2000/svg" id="svg2" version="1.1" viewBox="0 0 16 16"><metadata id="metadata10"/><path color="#000" style="text-decoration-line:none;text-decoration-style:solid;text-decoration-color:#000;isolation:auto;mix-blend-mode:normal;solid-color:#000;solid-opacity:1" id="rect4161" fill="#bebebe" fill-opacity="1" fill-rule="nonzero" stroke="none" stroke-dasharray="none" stroke-dashoffset="0" stroke-linecap="butt" stroke-linejoin="miter" stroke-miterlimit="4" stroke-opacity="1" stroke-width="1" d="M 7,2 7,4 9,4 9,2 Z M 5,2.8046875 C 3.2055484,3.839559 2,5.7715083 2,8 c 0,3.324 2.676,6 6,6 3.324,0 6,-2.676 6,-6 0,-2.2284917 -1.205548,-4.160441 -3,-5.1953125 l 0,1.2128906 C 12.208918,4.9285676 13,6.362943 13,8 13,10.77 10.77,13 8,13 5.23,13 3,10.77 3,8 3,6.362943 3.7910816,4.9285676 5,4.0175781 Z" clip-rule="nonzero" color-interpolation="sRGB" color-interpolation-filters="linearRGB" color-rendering="auto" display="inline" enable-background="accumulate" image-rendering="auto" opacity="1" overflow="visible" shape-rendering="auto" text-decoration="none" text-rendering="auto" visibility="visible"/></svg>