<svg xmlns="http://www.w3.org/2000/svg" xmlns:svg="http://www.w3.org/2000/svg" id="svg2" version="1.1" viewBox="0 0 16 16"><metadata id="metadata20"/><path id="rect4161" fill="#bebebe" fill-opacity="1" fill-rule="nonzero" stroke="none" stroke-dasharray="none" stroke-dashoffset="0" stroke-linecap="butt" stroke-linejoin="miter" stroke-miterlimit="4" stroke-opacity="1" stroke-width="1" d="m 2.0000001,1.9999997 0,5.0000005 5,0 0,-5.0000005 z m 5.9999999,0 0,1 6,0 0,-1 z m -4.9999999,1 3,0 0,3 -3,0 z m 4.9999999,1 0,1 6,0 0,-1 z m 0,2 0,1.0000005 6,0 0,-1.0000005 z m -5.9999999,3.0000005 0,4.9999998 5,0 0,-4.9999998 z M 8,9.0000002 8,10 14,10 14,9.0000002 Z M 3.0000001,10 l 3,0 0,3 -3,0 z M 8,11 l 0,1 6,0 0,-1 z m 0,2 0,1 6,0 0,-1 z" clip-rule="nonzero" color="#000" color-interpolation="sRGB" color-interpolation-filters="linearRGB" color-rendering="auto" display="inline" enable-background="accumulate" image-rendering="auto" opacity="1" overflow="visible" shape-rendering="auto" text-decoration="none" text-rendering="auto" visibility="visible" style="text-decoration-line:none;text-decoration-style:solid;text-decoration-color:#000;isolation:auto;mix-blend-mode:normal;solid-color:#000;solid-opacity:1"/></svg>