<svg xmlns="http://www.w3.org/2000/svg" xmlns:svg="http://www.w3.org/2000/svg" id="svg2" version="1.1" viewBox="0 0 16 16"><metadata id="metadata20"/><path color="#000" style="text-decoration-line:none;text-decoration-style:solid;text-decoration-color:#000;isolation:auto;mix-blend-mode:normal;solid-color:#000;solid-opacity:1" id="rect4171" fill="#bebebe" fill-opacity="1" fill-rule="nonzero" stroke="none" stroke-dasharray="none" stroke-dashoffset="0" stroke-linecap="butt" stroke-linejoin="miter" stroke-miterlimit="4" stroke-opacity="1" stroke-width="1" d="M 2 2 L 2 3 L 2 10 L 2 12 L 3 12 L 6 12 L 8 14 L 10 12 L 13.390625 12 L 14 12 L 14 2 L 13 2 L 9 2 C 8.446 2 8 2.446 8 3 C 8 2.446 7.554 2 7 2 L 3 2 L 2 2 z M 3 3 L 4 3 L 6 3 C 6.554 3 7.0092321 3.4460769 7 4 L 7 10 L 7 11 L 3 11 L 3 4 L 3 3 z M 10 3 L 12 3 L 13 3 L 13 4 L 13 10 L 13 11 L 9 11 L 9 10 L 9 4 C 8.9907679 3.4460769 9.446 3 10 3 z" clip-rule="nonzero" color-interpolation="sRGB" color-interpolation-filters="linearRGB" color-rendering="auto" display="inline" enable-background="accumulate" image-rendering="auto" opacity="1" overflow="visible" shape-rendering="auto" text-decoration="none" text-rendering="auto" visibility="visible"/></svg>