<svg xmlns="http://www.w3.org/2000/svg" xmlns:svg="http://www.w3.org/2000/svg" id="svg2" width="16" height="16" version="1.1" viewBox="0 0 16 16"><metadata id="metadata20"/><path color="#000" style="text-decoration-line:none;text-decoration-style:solid;text-decoration-color:#000;isolation:auto;mix-blend-mode:normal;solid-color:#000;solid-opacity:1" id="rect4171" fill="#bebebe" fill-opacity="1" fill-rule="nonzero" stroke="none" stroke-dasharray="none" stroke-dashoffset="0" stroke-linecap="butt" stroke-linejoin="miter" stroke-miterlimit="4" stroke-opacity="1" stroke-width="1" d="M 5 2 L 5 4 L 2 4 L 2 5 L 2 13 L 2 14 L 3 14 L 7 14 L 7 13 L 14 13 L 14 2 L 5 2 z M 6 3 L 13 3 L 13 12 L 6 12 L 6 3 z M 3 5 L 5 5 L 5 13 L 3 13 L 3 5 z M 7 5 L 7 6 L 12 6 L 12 5 L 7 5 z M 7 9 L 7 10 L 12 10 L 12 9 L 7 9 z" clip-rule="nonzero" color-interpolation="sRGB" color-interpolation-filters="linearRGB" color-rendering="auto" display="inline" enable-background="accumulate" image-rendering="auto" opacity="1" overflow="visible" shape-rendering="auto" text-decoration="none" text-rendering="auto" visibility="visible"/></svg>