<svg xmlns="http://www.w3.org/2000/svg" xmlns:svg="http://www.w3.org/2000/svg" id="svg2" width="100%" height="100%" version="1.1" viewBox="0 0 16 16"><metadata id="metadata34"/><path color="#000" style="text-decoration-line:none;text-decoration-style:solid;text-decoration-color:#000;isolation:auto;mix-blend-mode:normal;solid-color:#000;solid-opacity:1" id="rect4167" fill="#bebebe" fill-opacity="1" fill-rule="nonzero" stroke="none" stroke-dasharray="none" stroke-dashoffset="0" stroke-linecap="butt" stroke-linejoin="miter" stroke-miterlimit="4" stroke-opacity="1" stroke-width="1" d="M 2 2 L 2 14 L 14 14 L 14 2 L 2 2 z M 3 3 L 13 3 L 13 5 L 3 5 L 3 3 z M 3 6 L 13 6 L 13 13 L 3 13 L 3 6 z M 5 7 L 5 8 L 5 9 L 6 9 L 6 8 L 7 8 L 7 7 L 6 7 L 5 7 z M 9 7 L 9 8 L 10 8 L 10 9 L 11 9 L 11 7 L 9 7 z M 5 10 L 5 12 L 6 12 L 7 12 L 7 11 L 6 11 L 6 10 L 5 10 z M 10 10 L 10 11 L 9 11 L 9 12 L 10 12 L 11 12 L 11 11 L 11 10 L 10 10 z" clip-rule="nonzero" color-interpolation="sRGB" color-interpolation-filters="linearRGB" color-rendering="auto" display="inline" enable-background="accumulate" image-rendering="auto" opacity="1" overflow="visible" shape-rendering="auto" text-decoration="none" text-rendering="auto" visibility="visible"/></svg>