<svg xmlns="http://www.w3.org/2000/svg" xmlns:svg="http://www.w3.org/2000/svg" id="svg2" version="1.1" viewBox="0 0 16 16"><metadata id="metadata10"/><path color="#000" style="text-decoration-line:none;text-decoration-style:solid;text-decoration-color:#000;isolation:auto;mix-blend-mode:normal;solid-color:#000;solid-opacity:1" id="rect4172" fill="#bebebe" fill-opacity="1" fill-rule="nonzero" stroke="none" stroke-dasharray="none" stroke-dashoffset="0" stroke-linecap="butt" stroke-linejoin="miter" stroke-miterlimit="4" stroke-opacity="1" stroke-width="1" d="M 2 2 L 2 3 L 2 8 L 3 8 L 3 5 L 4 5 L 4 8 L 5 8 L 5 5 L 11 5 L 11 11 L 8 11 L 8 12 L 9 12 L 9 13 L 8 13 L 8 14 L 14 14 L 14 13 L 14 3 L 14 2 L 3 2 L 2 2 z M 3 3 L 4 3 L 4 4 L 3 4 L 3 3 z M 5 3 L 6 3 L 6 4 L 5 4 L 5 3 z M 7 3 L 9 3 L 9 4 L 7 4 L 7 3 z M 10 3 L 11 3 L 11 4 L 10 4 L 10 3 z M 12 3 L 13 3 L 13 4 L 12 4 L 12 3 z M 12 5 L 13 5 L 13 11 L 12 11 L 12 5 z M 2 9 L 2 10 L 7 10 L 7 9 L 2 9 z M 2 11 L 2 12 L 7 12 L 7 11 L 2 11 z M 10 12 L 11 12 L 11 13 L 10 13 L 10 12 z M 12 12 L 13 12 L 13 13 L 12 13 L 12 12 z M 2 13 L 2 14 L 7 14 L 7 13 L 2 13 z" clip-rule="nonzero" color-interpolation="sRGB" color-interpolation-filters="linearRGB" color-rendering="auto" display="inline" enable-background="accumulate" image-rendering="auto" opacity="1" overflow="visible" shape-rendering="auto" text-decoration="none" text-rendering="auto" visibility="visible"/></svg>