<svg xmlns="http://www.w3.org/2000/svg" xmlns:svg="http://www.w3.org/2000/svg" id="svg2" version="1.1" viewBox="0 0 16 16"><metadata id="metadata10"/><path color="#000" style="text-decoration-line:none;text-decoration-style:solid;text-decoration-color:#000;isolation:auto;mix-blend-mode:normal;solid-color:#000;solid-opacity:1" id="rect4161" fill="#bebebe" fill-opacity="1" fill-rule="nonzero" stroke="none" stroke-dasharray="none" stroke-dashoffset="0" stroke-linecap="butt" stroke-linejoin="miter" stroke-miterlimit="4" stroke-opacity="1" stroke-width="1" d="M 14,2 14,7 9,7 9,2 14,2 Z M 8,2 8,14 7,14 7,2 8,2 Z M 6,2 6,3 2,3 2,2 6,2 Z m 7,1 -3,0 0,3 3,0 0,-3 z M 6,4 6,5 2,5 2,4 6,4 Z M 6,6 6,7 2,7 2,6 6,6 Z m 8,3 0,5 -5,0 0,-5 5,0 z M 6,9 6,10 2,10 2,9 6,9 Z m 7,1 -3,0 0,3 3,0 0,-3 z m -7,1 0,1 -4,0 0,-1 4,0 z m 0,2 0,1 -4,0 0,-1 4,0 z" clip-rule="nonzero" color-interpolation="sRGB" color-interpolation-filters="linearRGB" color-rendering="auto" display="inline" enable-background="accumulate" image-rendering="auto" opacity="1" overflow="visible" shape-rendering="auto" text-decoration="none" text-rendering="auto" visibility="visible"/></svg>