<svg xmlns="http://www.w3.org/2000/svg" xmlns:svg="http://www.w3.org/2000/svg" id="svg2" version="1.1" viewBox="0 0 16 16"><metadata id="metadata12"/><path id="rect4169" fill="#bebebe" fill-opacity="1" stroke="none" stroke-dasharray="none" stroke-miterlimit="4" stroke-opacity=".55" stroke-width="2.8" d="M 8,2 C 4.6760048,2 2,4.6760048 2,8 c 0,3.323995 2.6760048,6 6,6 3.323995,0 6,-2.676005 6,-6 C 14,4.6760048 11.323995,2 8,2 Z m 0,1 c 2.769996,0 5,2.230004 5,5 0,2.769996 -2.230004,5 -5,5 C 5.230004,13 3,10.769996 3,8 3,5.230004 5.230004,3 8,3 Z M 6.7070312,6 6,6.7070312 7.2929688,8 6,9.2929688 6.7070312,10 8,8.7070312 9.2929688,10 10,9.2929688 8.7070312,8 10,6.7070312 9.2929688,6 8,7.2929688 6.7070312,6 Z" opacity="1"/></svg>