<svg xmlns="http://www.w3.org/2000/svg" xmlns:svg="http://www.w3.org/2000/svg" id="svg2" width="16" height="16" version="1.1" viewBox="0 0 16 16"><metadata id="metadata12"/><path id="path4178" fill="#bebebe" fill-opacity="1" fill-rule="evenodd" stroke="none" stroke-linecap="butt" stroke-linejoin="miter" stroke-opacity="1" stroke-width="1" d="M 2,2 2,3 2,5 3,5 3,3 5,3 5,2 3,2 Z m 9,0 0,1 2,0 0,2 1,0 0,-2 0,-1 -1,0 z m -7,2 0,1 0,7 1,0 7,0 0,-1 0,-6 0,-1 -1,0 -6,0 z m 1,1 6,0 0,6 -6,0 z m -3,6 0,3 1,0 2,0 0,-1 -2,0 0,-2 z m 11,0 0,2 -2,0 0,1 3,0 0,-1 0,-2 z"/></svg>