<svg xmlns="http://www.w3.org/2000/svg" xmlns:svg="http://www.w3.org/2000/svg" id="svg4359" width="16" height="16" version="1.1"><metadata id="metadata4364"/><g id="layer1" transform="translate(-3,-29)"><path id="rect4129" fill="#bebebe" fill-opacity="1" stroke="none" d="M 10 2 C 8.892 2 8 2.892 8 4 C 8 5.108 8.892 6 10 6 C 11.108 6 12 5.108 12 4 C 12 2.892 11.108 2 10 2 z M 10 3 C 10.554 3 11 3.446 11 4 C 11 4.554 10.554 5 10 5 C 9.446 5 9 4.554 9 4 C 9 3.446 9.446 3 10 3 z M 6 4 C 4.892 4 4 4.892 4 6 C 4 7.108 4.892 8 6 8 C 7.108 8 8 7.108 8 6 C 8 4.892 7.108 4 6 4 z M 6 5 C 6.554 5 7 5.446 7 6 C 7 6.554 6.554 7 6 7 C 5.446 7 5 6.554 5 6 C 5 5.446 5.446 5 6 5 z M 10 7 C 8.9436551 7 7.9928644 7.413803 7.2792969 8.078125 C 7.6871963 8.149169 8.0718517 8.2767952 8.4335938 8.4492188 C 8.8900279 8.1691727 9.4230659 8 10 8 C 11.661998 8 13 9.338002 13 11 L 10.724609 11 C 10.837283 11.318627 10.910566 11.652478 10.949219 12 L 14 12 L 14 11 C 14 8.784003 12.215997 7 10 7 z M 6 9 C 3.7840029 9 2 10.784003 2 13 L 2 14 L 10 14 L 10 13 C 10 10.784003 8.2159971 9 6 9 z M 6 10 C 7.6619978 10 9 11.338002 9 13 L 3 13 C 3 11.338002 4.3380022 10 6 10 z" opacity="1" transform="translate(3,29)"/></g></svg>