<svg xmlns="http://www.w3.org/2000/svg" xmlns:svg="http://www.w3.org/2000/svg" id="svg4359" width="16" height="16" version="1.1"><metadata id="metadata4364"/><g id="layer1" transform="translate(-3,-29)"><path id="rect4207" fill="#bebebe" fill-opacity="1" stroke="none" d="M 3 2 L 3 9 L 3 10 L 4 10 L 7 10 L 7 11 L 7 12 L 6 12 L 6 11 L 2 11 L 2 14 L 6 14 L 6 13 L 10 13 L 10 14 L 14 14 L 14 11 L 10 11 L 10 12 L 9 12 L 9 11 L 9 10 L 12 10 L 13 10 L 13 9 L 13 4 L 13 3 L 8 3 L 7 2 L 3 2 z M 4 4 L 12 4 L 12 5 L 12 9 L 4 9 L 4 7 L 4 5 L 4 4 z M 3 12 L 5 12 L 5 13 L 3 13 L 3 12 z M 11 12 L 13 12 L 13 13 L 11 13 L 11 12 z" opacity="1" transform="translate(3,29)"/></g></svg>