<svg xmlns="http://www.w3.org/2000/svg" xmlns:svg="http://www.w3.org/2000/svg" id="svg4359" width="16" height="16" version="1.1"><metadata id="metadata4364"/><g id="layer1" transform="translate(-3,-29)"><path id="rect4207" fill="#bebebe" fill-opacity="1" stroke="none" d="M 3 2 L 3 5 L 3 6 L 3 7 L 13 7 L 13 6 L 13 5 L 13 2 L 3 2 z M 4 3 L 6 3 L 6 5 L 6 6 L 4 6 L 4 5 L 4 3 z M 7 3 L 12 3 L 12 5 L 12 6 L 7 6 L 7 5 L 7 3 z M 10 4 L 10 5 L 11 5 L 11 4 L 10 4 z M 3 9 L 3 12 L 3 13 L 3 14 L 13 14 L 13 13 L 13 12 L 13 9 L 3 9 z M 4 10 L 6 10 L 6 12 L 6 13 L 4 13 L 4 12 L 4 10 z M 7 10 L 12 10 L 12 12 L 12 13 L 7 13 L 7 12 L 7 10 z M 10 11 L 10 12 L 11 12 L 11 11 L 10 11 z" opacity="1" transform="translate(3,29)"/></g></svg>