<svg xmlns="http://www.w3.org/2000/svg" xmlns:svg="http://www.w3.org/2000/svg" id="svg4359" width="16" height="16" version="1.1"><metadata id="metadata4364"/><g id="layer1" transform="translate(-3,-29)"><path id="rect4121" fill="#bebebe" fill-opacity="1" stroke="none" d="M 8 2 C 6.6909174 2 5.593201 2.8353112 5.1816406 4 L 5 4 L 2 4 L 2 5 L 3 5 L 3 14 L 4 14 L 12 14 L 13 14 L 13 5 L 14 5 L 14 4 L 11 4 L 10.818359 4 C 10.406799 2.8353112 9.3090826 2 8 2 z M 8 3 C 8.7410699 3 9.3790485 3.4042011 9.7246094 4 L 6.2753906 4 C 6.6209515 3.4042011 7.2589301 3 8 3 z M 4 5 L 5 5 L 6 5 L 10 5 L 11 5 L 12 5 L 12 13 L 8 13 L 8 10 L 7 10 L 7 13 L 6 13 L 6 7 L 5 7 L 5 13 L 4 13 L 4 5 z" opacity="1" transform="translate(3,29)"/></g></svg>