<svg xmlns="http://www.w3.org/2000/svg" xmlns:svg="http://www.w3.org/2000/svg" id="svg4359" width="16" height="16" version="1.1"><metadata id="metadata4364"/><g id="layer1" transform="translate(-3,-29)"><path id="rect4279" fill="#424854" fill-opacity="1" stroke="none" d="M 4.5 2 C 3.669 2 3 2.669 3 3.5 C 3 4.1542402 3.4180774 4.7021974 4 4.9082031 L 4 11.091797 C 3.4180774 11.297803 3 11.84576 3 12.5 C 3 13.331 3.669 14 4.5 14 C 5.331 14 6 13.331 6 12.5 C 6 11.84576 5.5819226 11.297803 5 11.091797 L 5 4.9082031 C 5.5819226 4.7021974 6 4.1542402 6 3.5 C 6 2.669 5.331 2 4.5 2 z M 9 2 L 7 3.4003906 L 9 5 L 9 4 L 11 4 L 11 11.091797 C 10.418077 11.297803 10 11.84576 10 12.5 C 10 13.331 10.669 14 11.5 14 C 12.331 14 13 13.331 13 12.5 C 13 11.84576 12.581923 11.297803 12 11.091797 L 12 3.6074219 L 12 3.3925781 C 12 3.1750111 11.824989 3 11.607422 3 L 9 3 L 9 2 z M 4.5 3 C 4.777 3 5 3.223 5 3.5 C 5 3.777 4.777 4 4.5 4 C 4.223 4 4 3.777 4 3.5 C 4 3.223 4.223 3 4.5 3 z M 4.5 12 C 4.777 12 5 12.223 5 12.5 C 5 12.777 4.777 13 4.5 13 C 4.223 13 4 12.777 4 12.5 C 4 12.223 4.223 12 4.5 12 z M 11.5 12 C 11.777 12 12 12.223 12 12.5 C 12 12.777 11.777 13 11.5 13 C 11.223 13 11 12.777 11 12.5 C 11 12.223 11.223 12 11.5 12 z" opacity="1" transform="translate(3,29)"/></g></svg>