<svg xmlns="http://www.w3.org/2000/svg" xmlns:svg="http://www.w3.org/2000/svg" id="svg4359" width="16" height="16" version="1.1"><metadata id="metadata4364"/><g id="layer1" transform="translate(-3,-29)"><path id="rect4128" fill="#424854" fill-opacity="1" stroke="none" d="M 2 2 L 2 3 L 2 4 L 2 5 L 2 11 L 2 12 L 2 13 L 2 14 L 14 14 L 14 13 L 14 3 L 14 2 L 2 2 z M 3 3 L 4 3 L 4 4 L 3 4 L 3 3 z M 5 3 L 6 3 L 6 4 L 5 4 L 5 3 z M 7 3 L 9 3 L 9 4 L 7 4 L 7 3 z M 10 3 L 11 3 L 11 4 L 10 4 L 10 3 z M 12 3 L 13 3 L 13 4 L 12 4 L 12 3 z M 3 5 L 5 5 L 5 11 L 3 11 L 3 5 z M 6 5 L 10 5 L 10 11 L 6 11 L 6 5 z M 11 5 L 13 5 L 13 11 L 11 11 L 11 5 z M 3 12 L 4 12 L 4 13 L 3 13 L 3 12 z M 5 12 L 6 12 L 6 13 L 5 13 L 5 12 z M 7 12 L 9 12 L 9 13 L 7 13 L 7 12 z M 10 12 L 11 12 L 11 13 L 10 13 L 10 12 z M 12 12 L 13 12 L 13 13 L 12 13 L 12 12 z" opacity="1" transform="translate(3,29)"/></g></svg>