<svg xmlns="http://www.w3.org/2000/svg" xmlns:svg="http://www.w3.org/2000/svg" xmlns:xlink="http://www.w3.org/1999/xlink" id="svg2" width="48" height="48" version="1.1"><defs id="defs4"><linearGradient id="linearGradient4030"><stop id="stop4032" offset="0" stop-color="#000" stop-opacity="1"/><stop id="stop4038" offset=".248" stop-color="#363636" stop-opacity="1"/><stop id="stop4040" offset=".774" stop-color="#363636" stop-opacity="1"/><stop id="stop4034" offset="1" stop-color="#000" stop-opacity="1"/></linearGradient><linearGradient id="linearGradient4036" x1="20.594" x2="27.4" y1="17.506" y2="17.506" gradientTransform="translate(2.1e-7,1005.0539)" gradientUnits="userSpaceOnUse" xlink:href="#linearGradient4030"/><linearGradient id="linearGradient3658"><stop id="stop3660" offset="0" stop-color="#999" stop-opacity="1"/><stop id="stop3662" offset="1" stop-color="#fff" stop-opacity="1"/></linearGradient><linearGradient id="linearGradient4487" x1="62.795" x2="58.36" y1="3.819" y2="3.819" gradientTransform="matrix(0.77149154,0,0,0.77149154,-20.431843,1003.0222)" gradientUnits="userSpaceOnUse" xlink:href="#linearGradient3658"/><linearGradient id="linearGradient4491" x1="62.795" x2="58.36" y1="3.819" y2="3.819" gradientTransform="matrix(-0.77149154,0,0,0.77149154,68.688461,1004.1158)" gradientUnits="userSpaceOnUse" xlink:href="#linearGradient3658"/><linearGradient id="linearGradient4497" x1="62.795" x2="58.36" y1="3.819" y2="3.819" gradientTransform="matrix(-0.77149154,0,0,-0.77149154,68.688461,1011.3124)" gradientUnits="userSpaceOnUse" xlink:href="#linearGradient3658"/><linearGradient id="linearGradient4499" x1="62.795" x2="58.36" y1="3.819" y2="3.819" gradientTransform="matrix(0.77149154,0,0,-0.77149154,-20.431843,1010.2372)" gradientUnits="userSpaceOnUse" xlink:href="#linearGradient3658"/><linearGradient id="linearGradient4509" x1="62.795" x2="58.36" y1="3.819" y2="3.819" gradientTransform="matrix(0.77149154,0,0,0.77149154,-20.431843,1006.5066)" gradientUnits="userSpaceOnUse" xlink:href="#linearGradient3658"/><linearGradient id="linearGradient4511" x1="62.795" x2="58.36" y1="3.819" y2="3.819" gradientTransform="matrix(-0.77149154,0,0,0.77149154,68.688461,1007.5633)" gradientUnits="userSpaceOnUse" xlink:href="#linearGradient3658"/><linearGradient id="linearGradient4513" x1="62.795" x2="58.36" y1="3.819" y2="3.819" gradientTransform="matrix(-0.77149154,0,0,-0.77149154,68.688461,1014.7599)" gradientUnits="userSpaceOnUse" xlink:href="#linearGradient3658"/><linearGradient id="linearGradient4515" x1="62.795" x2="58.36" y1="3.819" y2="3.819" gradientTransform="matrix(0.77149154,0,0,-0.77149154,-20.431843,1013.7215)" gradientUnits="userSpaceOnUse" xlink:href="#linearGradient3658"/><linearGradient id="linearGradient4525" x1="62.795" x2="58.36" y1="3.819" y2="3.819" gradientTransform="matrix(0.77149154,0,0,0.77149154,-20.431843,1009.9909)" gradientUnits="userSpaceOnUse" xlink:href="#linearGradient3658"/><linearGradient id="linearGradient4527" x1="62.795" x2="58.36" y1="3.819" y2="3.819" gradientTransform="matrix(-0.77149154,0,0,0.77149154,68.688461,1011.0108)" gradientUnits="userSpaceOnUse" xlink:href="#linearGradient3658"/><linearGradient id="linearGradient4529" x1="62.795" x2="58.36" y1="3.819" y2="3.819" gradientTransform="matrix(-0.77149154,0,0,-0.77149154,68.688461,1018.2074)" gradientUnits="userSpaceOnUse" xlink:href="#linearGradient3658"/><linearGradient id="linearGradient4531" x1="62.795" x2="58.36" y1="3.819" y2="3.819" gradientTransform="matrix(0.77149154,0,0,-0.77149154,-20.431843,1017.2059)" gradientUnits="userSpaceOnUse" xlink:href="#linearGradient3658"/><linearGradient id="linearGradient4541" x1="62.795" x2="58.36" y1="3.819" y2="3.819" gradientTransform="matrix(0.77149154,0,0,0.77149154,-20.431843,1013.4752)" gradientUnits="userSpaceOnUse" xlink:href="#linearGradient3658"/><linearGradient id="linearGradient4543" x1="62.795" x2="58.36" y1="3.819" y2="3.819" gradientTransform="matrix(-0.77149154,0,0,0.77149154,68.688461,1014.4583)" gradientUnits="userSpaceOnUse" xlink:href="#linearGradient3658"/><linearGradient id="linearGradient4545" x1="62.795" x2="58.36" y1="3.819" y2="3.819" gradientTransform="matrix(-0.77149154,0,0,-0.77149154,68.688461,1021.6549)" gradientUnits="userSpaceOnUse" xlink:href="#linearGradient3658"/><linearGradient id="linearGradient4547" x1="62.795" x2="58.36" y1="3.819" y2="3.819" gradientTransform="matrix(0.77149154,0,0,-0.77149154,-20.431843,1020.6902)" gradientUnits="userSpaceOnUse" xlink:href="#linearGradient3658"/><linearGradient id="linearGradient4557" x1="62.795" x2="58.36" y1="3.819" y2="3.819" gradientTransform="matrix(0.77149154,0,0,0.77149154,-20.431843,1016.9596)" gradientUnits="userSpaceOnUse" xlink:href="#linearGradient3658"/><linearGradient id="linearGradient4559" x1="62.795" x2="58.36" y1="3.819" y2="3.819" gradientTransform="matrix(-0.77149154,0,0,0.77149154,68.688461,1017.9059)" gradientUnits="userSpaceOnUse" xlink:href="#linearGradient3658"/><linearGradient id="linearGradient4561" x1="62.795" x2="58.36" y1="3.819" y2="3.819" gradientTransform="matrix(-0.77149154,0,0,-0.77149154,68.688461,1028.5499)" gradientUnits="userSpaceOnUse" xlink:href="#linearGradient3658"/><linearGradient id="linearGradient4563" x1="62.795" x2="58.36" y1="3.819" y2="3.819" gradientTransform="matrix(0.77149154,0,0,-0.77149154,-20.431843,1027.6589)" gradientUnits="userSpaceOnUse" xlink:href="#linearGradient3658"/><linearGradient id="linearGradient4581" x1="62.795" x2="58.36" y1="3.819" y2="3.819" gradientTransform="matrix(0.77149154,0,0,-0.77149154,-20.431843,1025.9167)" gradientUnits="userSpaceOnUse" xlink:href="#linearGradient3658"/><linearGradient id="linearGradient4583" x1="62.795" x2="58.36" y1="3.819" y2="3.819" gradientTransform="matrix(0.77149154,0,0,0.77149154,-20.431843,1018.7018)" gradientUnits="userSpaceOnUse" xlink:href="#linearGradient3658"/><linearGradient id="linearGradient4585" x1="62.795" x2="58.36" y1="3.819" y2="3.819" gradientTransform="matrix(-0.77149154,0,0,-0.77149154,68.688461,1026.8262)" gradientUnits="userSpaceOnUse" xlink:href="#linearGradient3658"/><linearGradient id="linearGradient4587" x1="62.795" x2="58.36" y1="3.819" y2="3.819" gradientTransform="matrix(-0.77149154,0,0,0.77149154,68.688461,1019.6296)" gradientUnits="userSpaceOnUse" xlink:href="#linearGradient3658"/><linearGradient id="linearGradient4593" x1="62.795" x2="58.36" y1="3.819" y2="3.819" gradientTransform="matrix(-0.77149154,0,0,-0.77149154,68.688461,1030.2737)" gradientUnits="userSpaceOnUse" xlink:href="#linearGradient3658"/><linearGradient id="linearGradient4595" x1="62.795" x2="58.36" y1="3.819" y2="3.819" gradientTransform="matrix(0.77149154,0,0,-0.77149154,-20.431843,1029.4011)" gradientUnits="userSpaceOnUse" xlink:href="#linearGradient3658"/><linearGradient id="linearGradient4601" x1="62.795" x2="58.36" y1="3.819" y2="3.819" gradientTransform="matrix(-0.77149154,0,0,-0.77149154,68.688461,1031.9974)" gradientUnits="userSpaceOnUse" xlink:href="#linearGradient3658"/><linearGradient id="linearGradient4603" x1="62.795" x2="58.36" y1="3.819" y2="3.819" gradientTransform="matrix(0.77149154,0,0,-0.77149154,-20.431843,1031.1433)" gradientUnits="userSpaceOnUse" xlink:href="#linearGradient3658"/><linearGradient id="linearGradient4609" x1="62.795" x2="58.36" y1="3.819" y2="3.819" gradientTransform="matrix(-0.77149154,0,0,-0.77149154,68.688461,1033.7212)" gradientUnits="userSpaceOnUse" xlink:href="#linearGradient3658"/><linearGradient id="linearGradient4611" x1="62.795" x2="58.36" y1="3.819" y2="3.819" gradientTransform="matrix(0.77149154,0,0,-0.77149154,-20.431843,1032.8854)" gradientUnits="userSpaceOnUse" xlink:href="#linearGradient3658"/><linearGradient id="linearGradient4615" x1="62.795" x2="58.36" y1="3.819" y2="3.819" gradientTransform="matrix(0.77149154,0,0,-0.77149154,-20.431843,1034.6276)" gradientUnits="userSpaceOnUse" xlink:href="#linearGradient3658"/><linearGradient id="linearGradient3924" x1="108.039" x2="108.039" y1="145.47" y2="98.111" gradientUnits="userSpaceOnUse" xlink:href="#linearGradient3658"/><linearGradient id="linearGradient3926" x1="101.543" x2="101.543" y1="118.943" y2="147.581" gradientTransform="matrix(0.09567936,0,0,0.09567936,14.391121,1020.9129)" gradientUnits="userSpaceOnUse" xlink:href="#linearGradient3658"/><linearGradient id="linearGradient3928" x1="102.814" x2="102.814" y1="206.011" y2="154.155" gradientTransform="matrix(0.09567936,0,0,0.09567936,14.387214,1020.9129)" gradientUnits="userSpaceOnUse" xlink:href="#linearGradient3658"/><linearGradient id="linearGradient3930" x1="100.966" x2="100.966" y1="176.45" y2="89.613" gradientTransform="matrix(0.09567936,0,0,0.09567936,14.395499,1020.9129)" gradientUnits="userSpaceOnUse" xlink:href="#linearGradient3658"/><linearGradient id="linearGradient4915" x1="24.926" x2="24.926" y1="-1051.873" y2="-1004.674" gradientUnits="userSpaceOnUse" xlink:href="#linearGradient872"/><linearGradient id="linearGradient872"><stop id="stop874" offset="0" stop-color="#e3ebed" stop-opacity=".996"/><stop id="stop876" offset="1" stop-color="#f4f8f9" stop-opacity=".997"/></linearGradient></defs><metadata id="metadata7"/><g id="layer1" transform="translate(0,-1004.3622)"><rect id="rect2991-1" width="48" height="48" x="0" y="-1052.362" fill="url(#linearGradient4915)" fill-opacity="1" stroke="none" ry="1.945" transform="scale(1,-1)"/><path id="rect846" fill="#000" fill-opacity="1" stroke="none" d="m 4.1845703e-7,1049.3622 0,1.0625 c 0,1.0773 0.86022200154297,1.9375 1.93749898154297,1.9375 l 44.1249996,0 c 1.077277,0 1.937501,-0.8602 1.937501,-1.9375 l 0,-1.0625 c 0,1.0773 -0.860224,1.9375 -1.937501,1.9375 l -44.1249996,0 C 0.86022242,1051.2997 4.1845703e-7,1050.4395 4.1845703e-7,1049.3622 Z"/><g id="g5007" transform="matrix(0.90622321,0,0,0.90622321,2.250643,94.247453)"><path d="m 20.8125,1005.0187 0,27.1602 c 0,1.7628 1.424683,3.1875 3.1875,3.1875 1.762817,0 3.1875,-1.4247 3.1875,-3.1875 L 27.1875,1005.0187 Z" style="marker:none" id="rect3225" fill="url(#linearGradient4036)" fill-opacity="1" fill-rule="nonzero" stroke="none" stroke-width=".2" color="#000" display="inline" enable-background="accumulate" overflow="visible" visibility="visible"/><path d="m 20.8125,1031.6164 0,0.5625 c 0,1.7628 1.424683,3.1875 3.1875,3.1875 1.762817,0 3.1875,-1.4247 3.1875,-3.1875 l 0,-0.5625 c 0,1.7628 -1.424683,3.1875 -3.1875,3.1875 C 22.237183,1034.8039 20.8125,1033.3792 20.8125,1031.6164 Z" style="marker:none" id="path4042" fill="#000" fill-opacity=".665" fill-rule="nonzero" stroke="none" stroke-width=".2" color="#000" display="inline" enable-background="accumulate" overflow="visible" visibility="visible"/><g id="g4966" transform="translate(-0.128309,0)"><path id="rect4476" fill="url(#linearGradient4487)" fill-opacity="1" fill-rule="nonzero" stroke="#000" stroke-dasharray="none" stroke-dashoffset="0" stroke-linecap="butt" stroke-linejoin="miter" stroke-miterlimit="4" stroke-opacity="1" stroke-width=".154" d="m 24.820944,1005.0956 0,0.2651 -1.157237,0 0,0.7958 1.157237,0 0,0.2651 1.37422,0 0,-1.326 L 24.820944,1005.0956 Z" color="#000" display="inline" enable-background="accumulate" overflow="visible" visibility="visible" style="marker:none"/><path id="path4489" fill="url(#linearGradient4491)" fill-opacity="1" fill-rule="nonzero" stroke="#000" stroke-dasharray="none" stroke-dashoffset="0" stroke-linecap="butt" stroke-linejoin="miter" stroke-miterlimit="4" stroke-opacity="1" stroke-width=".154" d="m 23.435674,1006.1892 0,0.2651 1.157237,0 0,0.7958 -1.157237,0 0,0.2651 -1.37422,0 0,-1.326 L 23.435674,1006.1892 Z" color="#000" display="inline" enable-background="accumulate" overflow="visible" visibility="visible" style="marker:none"/><path id="path4493" fill="url(#linearGradient4497)" fill-opacity="1" fill-rule="nonzero" stroke="#000" stroke-dasharray="none" stroke-dashoffset="0" stroke-linecap="butt" stroke-linejoin="miter" stroke-miterlimit="4" stroke-opacity="1" stroke-width=".154" d="m 23.435674,1009.239 0,-0.2651 1.157237,0 0,-0.7958 -1.157237,0 0,-0.2651 -1.37422,0 0,1.326 L 23.435674,1009.239 Z" color="#000" display="inline" enable-background="accumulate" overflow="visible" visibility="visible" style="marker:none"/><path id="path4495" fill="url(#linearGradient4499)" fill-opacity="1" fill-rule="nonzero" stroke="#000" stroke-dasharray="none" stroke-dashoffset="0" stroke-linecap="butt" stroke-linejoin="miter" stroke-miterlimit="4" stroke-opacity="1" stroke-width=".154" d="m 24.820944,1008.1638 0,-0.2651 -1.157237,0 0,-0.7958 1.157237,0 0,-0.2651 1.37422,0 0,1.326 L 24.820944,1008.1638 Z" color="#000" display="inline" enable-background="accumulate" overflow="visible" visibility="visible" style="marker:none"/><path id="path4501" fill="url(#linearGradient4509)" fill-opacity="1" fill-rule="nonzero" stroke="#000" stroke-dasharray="none" stroke-dashoffset="0" stroke-linecap="butt" stroke-linejoin="miter" stroke-miterlimit="4" stroke-opacity="1" stroke-width=".154" d="m 24.820944,1008.58 0,0.2651 -1.157237,0 0,0.7958 1.157237,0 0,0.2651 1.37422,0 0,-1.326 L 24.820944,1008.58 Z" color="#000" display="inline" enable-background="accumulate" overflow="visible" visibility="visible" style="marker:none"/><path id="path4503" fill="url(#linearGradient4511)" fill-opacity="1" fill-rule="nonzero" stroke="#000" stroke-dasharray="none" stroke-dashoffset="0" stroke-linecap="butt" stroke-linejoin="miter" stroke-miterlimit="4" stroke-opacity="1" stroke-width=".154" d="m 23.435674,1009.6367 0,0.2651 1.157237,0 0,0.7958 -1.157237,0 0,0.2651 -1.37422,0 0,-1.326 L 23.435674,1009.6367 Z" color="#000" display="inline" enable-background="accumulate" overflow="visible" visibility="visible" style="marker:none"/><path id="path4505" fill="url(#linearGradient4513)" fill-opacity="1" fill-rule="nonzero" stroke="#000" stroke-dasharray="none" stroke-dashoffset="0" stroke-linecap="butt" stroke-linejoin="miter" stroke-miterlimit="4" stroke-opacity="1" stroke-width=".154" d="m 23.435674,1012.6865 0,-0.2651 1.157237,0 0,-0.7958 -1.157237,0 0,-0.2651 -1.37422,0 0,1.326 L 23.435674,1012.6865 Z" color="#000" display="inline" enable-background="accumulate" overflow="visible" visibility="visible" style="marker:none"/><path id="path4507" fill="url(#linearGradient4515)" fill-opacity="1" fill-rule="nonzero" stroke="#000" stroke-dasharray="none" stroke-dashoffset="0" stroke-linecap="butt" stroke-linejoin="miter" stroke-miterlimit="4" stroke-opacity="1" stroke-width=".154" d="m 24.820944,1011.6481 0,-0.2651 -1.157237,0 0,-0.7958 1.157237,0 0,-0.2651 1.37422,0 0,1.326 L 24.820944,1011.6481 Z" color="#000" display="inline" enable-background="accumulate" overflow="visible" visibility="visible" style="marker:none"/><path id="path4517" fill="url(#linearGradient4525)" fill-opacity="1" fill-rule="nonzero" stroke="#000" stroke-dasharray="none" stroke-dashoffset="0" stroke-linecap="butt" stroke-linejoin="miter" stroke-miterlimit="4" stroke-opacity="1" stroke-width=".154" d="m 24.820944,1012.0643 0,0.2651 -1.157237,0 0,0.7958 1.157237,0 0,0.2651 1.37422,0 0,-1.326 L 24.820944,1012.0643 Z" color="#000" display="inline" enable-background="accumulate" overflow="visible" visibility="visible" style="marker:none"/><path id="path4519" fill="url(#linearGradient4527)" fill-opacity="1" fill-rule="nonzero" stroke="#000" stroke-dasharray="none" stroke-dashoffset="0" stroke-linecap="butt" stroke-linejoin="miter" stroke-miterlimit="4" stroke-opacity="1" stroke-width=".154" d="m 23.435674,1013.0842 0,0.2651 1.157237,0 0,0.7958 -1.157237,0 0,0.2651 -1.37422,0 0,-1.326 L 23.435674,1013.0842 Z" color="#000" display="inline" enable-background="accumulate" overflow="visible" visibility="visible" style="marker:none"/><path id="path4521" fill="url(#linearGradient4529)" fill-opacity="1" fill-rule="nonzero" stroke="#000" stroke-dasharray="none" stroke-dashoffset="0" stroke-linecap="butt" stroke-linejoin="miter" stroke-miterlimit="4" stroke-opacity="1" stroke-width=".154" d="m 23.435674,1016.134 0,-0.2651 1.157237,0 0,-0.7958 -1.157237,0 0,-0.2651 -1.37422,0 0,1.326 L 23.435674,1016.134 Z" color="#000" display="inline" enable-background="accumulate" overflow="visible" visibility="visible" style="marker:none"/><path id="path4523" fill="url(#linearGradient4531)" fill-opacity="1" fill-rule="nonzero" stroke="#000" stroke-dasharray="none" stroke-dashoffset="0" stroke-linecap="butt" stroke-linejoin="miter" stroke-miterlimit="4" stroke-opacity="1" stroke-width=".154" d="m 24.820944,1015.1325 0,-0.2651 -1.157237,0 0,-0.7958 1.157237,0 0,-0.2651 1.37422,0 0,1.326 L 24.820944,1015.1325 Z" color="#000" display="inline" enable-background="accumulate" overflow="visible" visibility="visible" style="marker:none"/><path id="path4533" fill="url(#linearGradient4541)" fill-opacity="1" fill-rule="nonzero" stroke="#000" stroke-dasharray="none" stroke-dashoffset="0" stroke-linecap="butt" stroke-linejoin="miter" stroke-miterlimit="4" stroke-opacity="1" stroke-width=".154" d="m 24.820944,1015.5486 0,0.2651 -1.157237,0 0,0.7958 1.157237,0 0,0.2651 1.37422,0 0,-1.326 L 24.820944,1015.5486 Z" color="#000" display="inline" enable-background="accumulate" overflow="visible" visibility="visible" style="marker:none"/><path id="path4535" fill="url(#linearGradient4543)" fill-opacity="1" fill-rule="nonzero" stroke="#000" stroke-dasharray="none" stroke-dashoffset="0" stroke-linecap="butt" stroke-linejoin="miter" stroke-miterlimit="4" stroke-opacity="1" stroke-width=".154" d="m 23.435674,1016.5317 0,0.2651 1.157237,0 0,0.7958 -1.157237,0 0,0.2651 -1.37422,0 0,-1.326 L 23.435674,1016.5317 Z" color="#000" display="inline" enable-background="accumulate" overflow="visible" visibility="visible" style="marker:none"/><path id="path4537" fill="url(#linearGradient4545)" fill-opacity="1" fill-rule="nonzero" stroke="#000" stroke-dasharray="none" stroke-dashoffset="0" stroke-linecap="butt" stroke-linejoin="miter" stroke-miterlimit="4" stroke-opacity="1" stroke-width=".154" d="m 23.435674,1019.5815 0,-0.2651 1.157237,0 0,-0.7958 -1.157237,0 0,-0.2651 -1.37422,0 0,1.326 L 23.435674,1019.5815 Z" color="#000" display="inline" enable-background="accumulate" overflow="visible" visibility="visible" style="marker:none"/><path id="path4539" fill="url(#linearGradient4547)" fill-opacity="1" fill-rule="nonzero" stroke="#000" stroke-dasharray="none" stroke-dashoffset="0" stroke-linecap="butt" stroke-linejoin="miter" stroke-miterlimit="4" stroke-opacity="1" stroke-width=".154" d="m 24.820944,1018.6168 0,-0.2651 -1.157237,0 0,-0.7958 1.157237,0 0,-0.2651 1.37422,0 0,1.326 L 24.820944,1018.6168 Z" color="#000" display="inline" enable-background="accumulate" overflow="visible" visibility="visible" style="marker:none"/><path id="path4549" fill="url(#linearGradient4557)" fill-opacity="1" fill-rule="nonzero" stroke="#000" stroke-dasharray="none" stroke-dashoffset="0" stroke-linecap="butt" stroke-linejoin="miter" stroke-miterlimit="4" stroke-opacity="1" stroke-width=".154" d="m 24.820944,1019.033 0,0.2651 -1.157237,0 0,0.7958 1.157237,0 0,0.2651 1.37422,0 0,-1.326 L 24.820944,1019.033 Z" color="#000" display="inline" enable-background="accumulate" overflow="visible" visibility="visible" style="marker:none"/><path id="path4551" fill="url(#linearGradient4559)" fill-opacity="1" fill-rule="nonzero" stroke="#000" stroke-dasharray="none" stroke-dashoffset="0" stroke-linecap="butt" stroke-linejoin="miter" stroke-miterlimit="4" stroke-opacity="1" stroke-width=".154" d="m 23.435674,1019.9793 0,0.2651 1.157237,0 0,0.7958 -1.157237,0 0,0.2651 -1.37422,0 0,-1.326 L 23.435674,1019.9793 Z" color="#000" display="inline" enable-background="accumulate" overflow="visible" visibility="visible" style="marker:none"/><path id="path4553" fill="url(#linearGradient4585)" fill-opacity="1" fill-rule="nonzero" stroke="#000" stroke-dasharray="none" stroke-dashoffset="0" stroke-linecap="butt" stroke-linejoin="miter" stroke-miterlimit="4" stroke-opacity="1" stroke-width=".154" d="m 23.435674,1024.7528 0,-0.2651 1.157237,0 0,-0.7958 -1.157237,0 0,-0.2651 -1.37422,0 0,1.326 L 23.435674,1024.7528 Z" color="#000" display="inline" enable-background="accumulate" overflow="visible" visibility="visible" style="marker:none"/><path id="path4555" fill="url(#linearGradient4581)" fill-opacity="1" fill-rule="nonzero" stroke="#000" stroke-dasharray="none" stroke-dashoffset="0" stroke-linecap="butt" stroke-linejoin="miter" stroke-miterlimit="4" stroke-opacity="1" stroke-width=".154" d="m 24.820944,1023.8433 0,-0.2651 -1.157237,0 0,-0.7958 1.157237,0 0,-0.2651 1.37422,0 0,1.326 L 24.820944,1023.8433 Z" color="#000" display="inline" enable-background="accumulate" overflow="visible" visibility="visible" style="marker:none"/><path id="path4565" fill="url(#linearGradient4583)" fill-opacity="1" fill-rule="nonzero" stroke="#000" stroke-dasharray="none" stroke-dashoffset="0" stroke-linecap="butt" stroke-linejoin="miter" stroke-miterlimit="4" stroke-opacity="1" stroke-width=".154" d="m 24.820944,1020.7752 0,0.2651 -1.157237,0 0,0.7958 1.157237,0 0,0.2651 1.37422,0 0,-1.326 L 24.820944,1020.7752 Z" color="#000" display="inline" enable-background="accumulate" overflow="visible" visibility="visible" style="marker:none"/><path id="path4567" fill="url(#linearGradient4587)" fill-opacity="1" fill-rule="nonzero" stroke="#000" stroke-dasharray="none" stroke-dashoffset="0" stroke-linecap="butt" stroke-linejoin="miter" stroke-miterlimit="4" stroke-opacity="1" stroke-width=".154" d="m 23.435674,1021.703 0,0.2651 1.157237,0 0,0.7958 -1.157237,0 0,0.2651 -1.37422,0 0,-1.326 L 23.435674,1021.703 Z" color="#000" display="inline" enable-background="accumulate" overflow="visible" visibility="visible" style="marker:none"/><path id="path4569" fill="url(#linearGradient4561)" fill-opacity="1" fill-rule="nonzero" stroke="#000" stroke-dasharray="none" stroke-dashoffset="0" stroke-linecap="butt" stroke-linejoin="miter" stroke-miterlimit="4" stroke-opacity="1" stroke-width=".154" d="m 23.435674,1026.4765 0,-0.2651 1.157237,0 0,-0.7958 -1.157237,0 0,-0.2651 -1.37422,0 0,1.326 L 23.435674,1026.4765 Z" color="#000" display="inline" enable-background="accumulate" overflow="visible" visibility="visible" style="marker:none"/><path id="path4571" fill="url(#linearGradient4563)" fill-opacity="1" fill-rule="nonzero" stroke="#000" stroke-dasharray="none" stroke-dashoffset="0" stroke-linecap="butt" stroke-linejoin="miter" stroke-miterlimit="4" stroke-opacity="1" stroke-width=".154" d="m 24.820944,1025.5855 0,-0.2651 -1.157237,0 0,-0.7958 1.157237,0 0,-0.2651 1.37422,0 0,1.326 L 24.820944,1025.5855 Z" color="#000" display="inline" enable-background="accumulate" overflow="visible" visibility="visible" style="marker:none"/><path id="path4589" fill="url(#linearGradient4593)" fill-opacity="1" fill-rule="nonzero" stroke="#000" stroke-dasharray="none" stroke-dashoffset="0" stroke-linecap="butt" stroke-linejoin="miter" stroke-miterlimit="4" stroke-opacity="1" stroke-width=".154" d="m 23.435674,1028.2003 0,-0.2651 1.157237,0 0,-0.7958 -1.157237,0 0,-0.2651 -1.37422,0 0,1.326 L 23.435674,1028.2003 Z" color="#000" display="inline" enable-background="accumulate" overflow="visible" visibility="visible" style="marker:none"/><path id="path4591" fill="url(#linearGradient4595)" fill-opacity="1" fill-rule="nonzero" stroke="#000" stroke-dasharray="none" stroke-dashoffset="0" stroke-linecap="butt" stroke-linejoin="miter" stroke-miterlimit="4" stroke-opacity="1" stroke-width=".154" d="m 24.820944,1027.3277 0,-0.2651 -1.157237,0 0,-0.7958 1.157237,0 0,-0.2651 1.37422,0 0,1.326 L 24.820944,1027.3277 Z" color="#000" display="inline" enable-background="accumulate" overflow="visible" visibility="visible" style="marker:none"/><path id="path4597" fill="url(#linearGradient4601)" fill-opacity="1" fill-rule="nonzero" stroke="#000" stroke-dasharray="none" stroke-dashoffset="0" stroke-linecap="butt" stroke-linejoin="miter" stroke-miterlimit="4" stroke-opacity="1" stroke-width=".154" d="m 23.435674,1029.924 0,-0.2651 1.157237,0 0,-0.7958 -1.157237,0 0,-0.2651 -1.37422,0 0,1.326 L 23.435674,1029.924 Z" color="#000" display="inline" enable-background="accumulate" overflow="visible" visibility="visible" style="marker:none"/><path id="path4599" fill="url(#linearGradient4603)" fill-opacity="1" fill-rule="nonzero" stroke="#000" stroke-dasharray="none" stroke-dashoffset="0" stroke-linecap="butt" stroke-linejoin="miter" stroke-miterlimit="4" stroke-opacity="1" stroke-width=".154" d="m 24.820944,1029.0699 0,-0.2651 -1.157237,0 0,-0.7958 1.157237,0 0,-0.2651 1.37422,0 0,1.326 L 24.820944,1029.0699 Z" color="#000" display="inline" enable-background="accumulate" overflow="visible" visibility="visible" style="marker:none"/><path id="path4605" fill="url(#linearGradient4609)" fill-opacity="1" fill-rule="nonzero" stroke="#000" stroke-dasharray="none" stroke-dashoffset="0" stroke-linecap="butt" stroke-linejoin="miter" stroke-miterlimit="4" stroke-opacity="1" stroke-width=".154" d="m 23.435674,1031.6478 0,-0.2651 1.157237,0 0,-0.7958 -1.157237,0 0,-0.2651 -1.37422,0 0,1.326 L 23.435674,1031.6478 Z" color="#000" display="inline" enable-background="accumulate" overflow="visible" visibility="visible" style="marker:none"/><path id="path4607" fill="url(#linearGradient4611)" fill-opacity="1" fill-rule="nonzero" stroke="#000" stroke-dasharray="none" stroke-dashoffset="0" stroke-linecap="butt" stroke-linejoin="miter" stroke-miterlimit="4" stroke-opacity="1" stroke-width=".154" d="m 24.820944,1030.812 0,-0.2651 -1.157237,0 0,-0.7958 1.157237,0 0,-0.2651 1.37422,0 0,1.326 L 24.820944,1030.812 Z" color="#000" display="inline" enable-background="accumulate" overflow="visible" visibility="visible" style="marker:none"/><path id="path4613" fill="url(#linearGradient4615)" fill-opacity="1" fill-rule="nonzero" stroke="#000" stroke-dasharray="none" stroke-dashoffset="0" stroke-linecap="butt" stroke-linejoin="miter" stroke-miterlimit="4" stroke-opacity="1" stroke-width=".154" d="m 24.820944,1032.5542 0,-0.2651 -1.157237,0 0,-0.7958 1.157237,0 0,-0.2651 1.37422,0 0,1.326 L 24.820944,1032.5542 Z" color="#000" display="inline" enable-background="accumulate" overflow="visible" visibility="visible" style="marker:none"/></g><path id="path2796" fill="url(#linearGradient3924)" fill-opacity="1" fill-rule="evenodd" stroke="#000" stroke-linecap="butt" stroke-linejoin="miter" stroke-opacity="1" stroke-width="1" d="m 124.75198,111.00747 a 22.906883,15.788925 0 1 1 -0.001,-0.0343" transform="matrix(0.09567936,0,0,0.09567936,14.254913,1020.8386)"/><rect id="rect2794" width="2.774" height="2.155" x="22.613" y="1032.412" fill="url(#linearGradient3926)" fill-opacity="1" fill-rule="evenodd" stroke="#000" stroke-linecap="butt" stroke-linejoin="miter" stroke-opacity="1" stroke-width=".096" ry=".478"/><path id="rect1876" fill="url(#linearGradient3928)" fill-opacity="1" fill-rule="evenodd" stroke="#000" stroke-linecap="butt" stroke-linejoin="miter" stroke-opacity="1" stroke-width=".096" d="m 22.780088,1032.224 c -0.265032,0 -0.478397,0.2134 -0.478397,0.4784 l 0,7.1012 c 0,0.265 0.213365,0.4784 0.478397,0.4784 l 2.439824,0 c 0.265031,0 0.478396,-0.2134 0.478396,-0.4784 l 0,-7.1012 c 0,-0.265 -0.213365,-0.4784 -0.478396,-0.4784 L 22.780088,1032.224 z m 0.573116,0.2811 1.285691,0 c 0.265032,0 0.478397,0.2133 0.478397,0.4783 l 0,2.2306 c 0,0.265 -0.213365,0.4784 -0.478397,0.4784 l -1.285691,0 c -0.265031,0 -0.478396,-0.2134 -0.478396,-0.4784 l 0,-2.2306 C 22.874808,1032.7184 23.088173,1032.5051 23.353204,1032.5051 z m -0.04346,6.0517 c 0.01612,0 0.03128,0 0.04784,0 l 1.285692,0 c 0.265032,0 0.478397,0.2133 0.478397,0.4784 l 0,0.1973 c 0,0.265 -0.213365,0.4784 -0.478397,0.4784 l -1.285692,0 c -0.265032,0 -0.478397,-0.2134 -0.478397,-0.4784 l 0,-0.1973 C 22.879185,1038.7867 23.067922,1038.5812 23.309743,1038.5568 Z"/><rect id="rect2770" width="1.684" height="5.325" x="23.158" y="1029.564" fill="url(#linearGradient3930)" fill-opacity="1" fill-rule="evenodd" stroke="#000" stroke-linecap="butt" stroke-linejoin="miter" stroke-opacity="1" stroke-width=".096" ry=".478"/></g><path id="rect4280-5" fill="#000" fill-opacity=".392" stroke="none" d="m 1.9374994,1004.3622 c -1.07727598,0 -1.93749898154297,0.8602 -1.93749898154297,1.9375 l 0,43.0625 c 0,0.7934 0.48002300154297,1.449 1.15624898154297,1.75 -0.30934098,-0.3333 -0.49999898,-0.7824 -0.49999898,-1.2812 l 0,-42.9375 c 0,-1.0482 0.82689798,-1.875 1.87499898,-1.875 l 42.9374996,0 c 1.048101,0 1.875001,0.8268 1.875001,1.875 l 0,42.9375 c 0,0.4988 -0.190659,0.9479 -0.500001,1.2812 0.676227,-0.301 1.156251,-0.9566 1.156251,-1.75 l 0,-43.0625 c 0,-1.0773 -0.860224,-1.9375 -1.937501,-1.9375 L 1.9374994,1004.3622 Z"/><path id="path7515" fill="#fff" fill-opacity=".537" stroke="none" d="m 2.5312494,1005.0185 c -0.917088,0 -1.67114598,0.6395 -1.84374898,1.5 0.33561198,-0.2799 0.77451198,-0.4375 1.24999898,-0.4375 l 44.1249996,0 c 0.475488,0 0.914388,0.1576 1.250001,0.4375 -0.172604,-0.8605 -0.926663,-1.5 -1.843751,-1.5 L 2.5312494,1005.0185 Z"/></g></svg>