<svg xmlns="http://www.w3.org/2000/svg" xmlns:svg="http://www.w3.org/2000/svg" xmlns:xlink="http://www.w3.org/1999/xlink" id="svg2" width="48" height="48" version="1.1"><defs id="defs4"><linearGradient id="linearGradient4730"><stop id="stop4732" offset="0" stop-color="#ffe9b9" stop-opacity="1"/><stop id="stop4734" offset="1" stop-color="#fffef5" stop-opacity="1"/></linearGradient><linearGradient id="linearGradient837" x1="24.177" x2="24.177" y1="-1052.36" y2="-1004.364" gradientUnits="userSpaceOnUse" xlink:href="#linearGradient859"/><linearGradient id="linearGradient859"><stop id="stop861" offset="0" stop-color="#ffae00" stop-opacity="1"/><stop id="stop863" offset="1" stop-color="#fcdb00" stop-opacity="1"/></linearGradient><defs id="defs4922"><filter id="Adobe_OpacityMaskFilter" width="5.883" height="73.013" x="3.785" y="4.675" color-interpolation-filters="sRGB" filterUnits="userSpaceOnUse"><feColorMatrix id="feColorMatrix4925" type="matrix" values="1 0 0 0 0 0 1 0 0 0 0 0 1 0 0 0 0 0 1 0"/></filter></defs><mask id="SVGID_2_" width="5.883" height="73.013" x="3.785" y="4.675" maskUnits="userSpaceOnUse"><g id="g4928" filter="url(#Adobe_OpacityMaskFilter)"><linearGradient id="SVGID_3_" x1="3.785" x2="9.668" y1="41.181" y2="41.181" gradientUnits="userSpaceOnUse"><stop id="stop4931" offset="0" stop-color="#FFF"/><stop id="stop4933" offset=".003" stop-color="#FAFBFB"/><stop id="stop4935" offset=".076" stop-color="#BBBDBF"/><stop id="stop4937" offset=".144" stop-color="#898B8E"/><stop id="stop4939" offset=".205" stop-color="#646567"/><stop id="stop4941" offset=".259" stop-color="#444446"/><stop id="stop4943" offset=".303" stop-color="#1D1C1D"/><stop id="stop4945" offset=".331" stop-color="#000"/></linearGradient><rect id="rect4947" width="5.883" height="73.013" x="3.785" y="4.675" fill="url(#SVGID_3_)"/></g></mask><linearGradient id="linearGradient4728" x1="24.783" x2="24.783" y1="31.569" y2="16.439" gradientUnits="userSpaceOnUse" xlink:href="#linearGradient4730"/></defs><metadata id="metadata7"/><g id="layer1" transform="translate(0,-1004.3622)"><rect id="rect2991-1" width="48" height="48" x="0" y="-1052.362" fill="url(#linearGradient837)" fill-opacity="1" stroke="none" ry="1.945" transform="scale(1,-1)"/><path id="path4742" fill="#000" fill-opacity=".059" stroke="none" d="m 12.060547,1022.0622 0,15 2.738281,0 0,-6.3652 5.519531,0 0,-2.2481 -5.519531,0 0,-4.1387 5.919922,0 0,-2.248 -8.658203,0 z m 8.998047,4.1621 2.96875,10.8379 2.36914,0 1.277344,-4.4062 c 0.288423,-1.068 0.557559,-2.1373 0.763672,-3.4727 l 0.04102,0 c 0.226746,1.3134 0.451989,2.3376 0.761718,3.4727 l 1.195313,4.4062 2.349609,0 3.154297,-10.8379 -2.494141,0 -1.113281,4.8067 c -0.268237,1.2685 -0.495087,2.4474 -0.660156,3.6269 l -0.04102,0 c -0.226743,-1.1795 -0.493229,-2.3584 -0.802734,-3.6269 l -1.257813,-4.8067 -2.060546,0 -1.298828,4.9395 c -0.288648,1.1131 -0.618331,2.3146 -0.824219,3.4941 l -0.04102,0 c -0.185482,-1.1795 -0.41215,-2.3581 -0.638672,-3.5156 l -1.050781,-4.918 -2.597656,0 z"/><path id="path4740" fill="#000" fill-opacity=".118" stroke="none" d="m 12.060547,1021.6622 0,15 2.738281,0 0,-6.3652 5.519531,0 0,-2.2481 -5.519531,0 0,-4.1387 5.919922,0 0,-2.248 -8.658203,0 z m 8.998047,4.1621 2.96875,10.8379 2.36914,0 1.277344,-4.4062 c 0.288423,-1.068 0.557559,-2.1373 0.763672,-3.4727 l 0.04102,0 c 0.226746,1.3134 0.451989,2.3376 0.761718,3.4727 l 1.195313,4.4062 2.349609,0 3.154297,-10.8379 -2.494141,0 -1.113281,4.8067 c -0.268237,1.2685 -0.495087,2.4474 -0.660156,3.6269 l -0.04102,0 c -0.226743,-1.1795 -0.493229,-2.3584 -0.802734,-3.6269 l -1.257813,-4.8067 -2.060546,0 -1.298828,4.9395 c -0.288648,1.1131 -0.618331,2.3146 -0.824219,3.4941 l -0.04102,0 c -0.185482,-1.1795 -0.41215,-2.3581 -0.638672,-3.5156 l -1.050781,-4.918 -2.597656,0 z"/><path id="rect846" fill="#000" fill-opacity="1" stroke="none" d="m 4.7011719e-7,1049.3622 0,1.0625 c 0,1.0773 0.86022299988281,1.9375 1.93750002988281,1.9375 l 44.1249995,0 c 1.077278,0 1.937501,-0.8602 1.937501,-1.9375 l 0,-1.0625 c 0,1.0773 -0.860223,1.9375 -1.937501,1.9375 l -44.1249995,0 C 0.86022347,1051.2997 4.7011719e-7,1050.4395 4.7011719e-7,1049.3622 Z"/><path id="path7515" fill="#fff" fill-opacity=".537" stroke="none" d="m 2.5312505,1005.0185 c -0.917088,0 -1.67114603,0.6395 -1.84375003,1.5 0.33561203,-0.2799 0.77451303,-0.4375 1.25000003,-0.4375 l 44.1249995,0 c 0.475488,0 0.914388,0.1576 1.250001,0.4375 -0.172603,-0.8605 -0.926663,-1.5 -1.843751,-1.5 L 2.5312505,1005.0185 Z"/><path id="rect4280-4" fill="#000" fill-opacity=".392" stroke="none" d="m 1.9375005,1004.3622 c -1.07727703,0 -1.93750002988281,0.8602 -1.93750002988281,1.9375 l 0,43.0625 c 0,0.7934 0.48002399988281,1.449 1.15625002988281,1.75 -0.30934103,-0.3333 -0.50000003,-0.7824 -0.50000003,-1.2812 l 0,-42.9375 c 0,-1.0482 0.82689903,-1.875 1.87500003,-1.875 l 42.9374995,0 c 1.048101,0 1.875001,0.8268 1.875001,1.875 l 0,42.9375 c 0,0.4988 -0.190658,0.9479 -0.500001,1.2812 0.676227,-0.301 1.156251,-0.9566 1.156251,-1.75 l 0,-43.0625 c 0,-1.0773 -0.860223,-1.9375 -1.937501,-1.9375 L 1.9375005,1004.3622 Z"/><path id="path4736" fill="#000" fill-opacity=".235" stroke="none" d="m 12.060547,1021.2622 0,15 2.738281,0 0,-6.3652 5.519531,0 0,-2.2481 -5.519531,0 0,-4.1387 5.919922,0 0,-2.248 -8.658203,0 z m 8.998047,4.1621 2.96875,10.8379 2.36914,0 1.277344,-4.4062 c 0.288423,-1.068 0.557559,-2.1373 0.763672,-3.4727 l 0.04102,0 c 0.226746,1.3134 0.451989,2.3376 0.761718,3.4727 l 1.195313,4.4062 2.349609,0 3.154297,-10.8379 -2.494141,0 -1.113281,4.8067 c -0.268237,1.2685 -0.495087,2.4474 -0.660156,3.6269 l -0.04102,0 c -0.226743,-1.1795 -0.493229,-2.3584 -0.802734,-3.6269 l -1.257813,-4.8067 -2.060546,0 -1.298828,4.9395 c -0.288648,1.1131 -0.618331,2.3146 -0.824219,3.4941 l -0.04102,0 c -0.185482,-1.1795 -0.41215,-2.3581 -0.638672,-3.5156 l -1.050781,-4.918 -2.597656,0 z"/><path id="path1900-9" fill="url(#linearGradient4728)" fill-opacity="1" stroke="none" d="M 12.060547 16.5 L 12.060547 31.5 L 14.798828 31.5 L 14.798828 25.134766 L 20.318359 25.134766 L 20.318359 22.886719 L 14.798828 22.886719 L 14.798828 18.748047 L 20.71875 18.748047 L 20.71875 16.5 L 12.060547 16.5 z M 21.058594 20.662109 L 24.027344 31.5 L 26.396484 31.5 L 27.673828 27.09375 C 27.962251 26.02575 28.231387 24.956494 28.4375 23.621094 L 28.478516 23.621094 C 28.705262 24.934494 28.930505 25.95865 29.240234 27.09375 L 30.435547 31.5 L 32.785156 31.5 L 35.939453 20.662109 L 33.445312 20.662109 L 32.332031 25.46875 C 32.063794 26.73725 31.836944 27.916203 31.671875 29.095703 L 31.630859 29.095703 C 31.404116 27.916203 31.13763 26.73725 30.828125 25.46875 L 29.570312 20.662109 L 27.509766 20.662109 L 26.210938 25.601562 C 25.92229 26.714663 25.592607 27.916203 25.386719 29.095703 L 25.345703 29.095703 C 25.160221 27.916203 24.933553 26.737578 24.707031 25.580078 L 23.65625 20.662109 L 21.058594 20.662109 z" transform="translate(0,1004.3622)"/><path id="path4744" fill="#ffb200" fill-opacity=".314" stroke="none" d="M 14.798828 17.947266 L 14.798828 18.748047 L 20.71875 18.748047 L 20.71875 17.947266 L 14.798828 17.947266 z M 21.058594 20.662109 L 24.027344 31.5 L 26.396484 31.5 L 27.673828 27.09375 C 27.962251 26.02575 28.231387 24.956494 28.4375 23.621094 L 28.478516 23.621094 C 28.705262 24.934494 28.930505 25.95865 29.240234 27.09375 L 30.435547 31.5 L 32.785156 31.5 L 35.939453 20.662109 L 35.707031 20.662109 L 32.785156 30.699219 L 30.435547 30.699219 L 29.240234 26.292969 C 28.930505 25.157869 28.705262 24.133713 28.478516 22.820312 L 28.4375 22.820312 C 28.231387 24.155712 27.962251 25.224969 27.673828 26.292969 L 26.396484 30.699219 L 24.027344 30.699219 L 21.277344 20.662109 L 21.058594 20.662109 z M 14.798828 24.333984 L 14.798828 25.134766 L 20.318359 25.134766 L 20.318359 24.333984 L 14.798828 24.333984 z M 12.060547 30.699219 L 12.060547 31.5 L 14.798828 31.5 L 14.798828 30.699219 L 12.060547 30.699219 z" transform="translate(0,1004.3622)"/><path id="path4749" fill="#fff" fill-opacity=".235" stroke="none" d="M 12.060547 16.5 L 12.060547 16.900391 L 20.71875 16.900391 L 20.71875 16.5 L 12.060547 16.5 z M 21.058594 20.662109 L 21.167969 21.0625 L 23.65625 21.0625 L 24.707031 25.980469 C 24.933553 27.137969 25.160221 28.316594 25.345703 29.496094 L 25.386719 29.496094 C 25.592607 28.316594 25.92229 27.115053 26.210938 26.001953 L 27.509766 21.0625 L 29.570312 21.0625 L 30.828125 25.869141 C 31.13763 27.137641 31.404116 28.316594 31.630859 29.496094 L 31.671875 29.496094 C 31.836944 28.316594 32.063794 27.137641 32.332031 25.869141 L 33.445312 21.0625 L 35.822266 21.0625 L 35.939453 20.662109 L 33.445312 20.662109 L 32.332031 25.46875 C 32.063794 26.73725 31.836944 27.916203 31.671875 29.095703 L 31.630859 29.095703 C 31.404116 27.916203 31.13763 26.73725 30.828125 25.46875 L 29.570312 20.662109 L 27.509766 20.662109 L 26.210938 25.601562 C 25.92229 26.714664 25.592607 27.916203 25.386719 29.095703 L 25.345703 29.095703 C 25.160221 27.916203 24.933553 26.737578 24.707031 25.580078 L 23.65625 20.662109 L 21.058594 20.662109 z M 14.798828 22.886719 L 14.798828 23.287109 L 20.318359 23.287109 L 20.318359 22.886719 L 14.798828 22.886719 z" transform="translate(0,1004.3622)"/></g></svg>