<svg xmlns="http://www.w3.org/2000/svg" xmlns:svg="http://www.w3.org/2000/svg" xmlns:xlink="http://www.w3.org/1999/xlink" id="svg2" width="48" height="48" version="1.1"><defs id="defs4"><linearGradient id="linearGradient4843"><stop id="stop4845" offset="0" stop-color="#b9d9ff" stop-opacity="1"/><stop id="stop4847" offset="1" stop-color="#f6fbfe" stop-opacity="1"/></linearGradient><linearGradient id="linearGradient837" x1="24.177" x2="24.177" y1="-1052.36" y2="-1004.364" gradientUnits="userSpaceOnUse" xlink:href="#linearGradient943-6"/><defs id="defs4922"><filter id="Adobe_OpacityMaskFilter" width="5.883" height="73.013" x="3.785" y="4.675" color-interpolation-filters="sRGB" filterUnits="userSpaceOnUse"><feColorMatrix id="feColorMatrix4925" type="matrix" values="1 0 0 0 0 0 1 0 0 0 0 0 1 0 0 0 0 0 1 0"/></filter></defs><mask id="SVGID_2_" width="5.883" height="73.013" x="3.785" y="4.675" maskUnits="userSpaceOnUse"><g id="g4928" filter="url(#Adobe_OpacityMaskFilter)"><linearGradient id="SVGID_3_" x1="3.785" x2="9.668" y1="41.181" y2="41.181" gradientUnits="userSpaceOnUse"><stop id="stop4931" offset="0" stop-color="#FFF"/><stop id="stop4933" offset=".003" stop-color="#FAFBFB"/><stop id="stop4935" offset=".076" stop-color="#BBBDBF"/><stop id="stop4937" offset=".144" stop-color="#898B8E"/><stop id="stop4939" offset=".205" stop-color="#646567"/><stop id="stop4941" offset=".259" stop-color="#444446"/><stop id="stop4943" offset=".303" stop-color="#1D1C1D"/><stop id="stop4945" offset=".331" stop-color="#000"/></linearGradient><rect id="rect4947" width="5.883" height="73.013" x="3.785" y="4.675" fill="url(#SVGID_3_)"/></g></mask><linearGradient id="linearGradient943-6"><stop id="stop945-0" offset="0" stop-color="#0059c1" stop-opacity="1"/><stop id="stop947-5" offset="1" stop-color="#118de7" stop-opacity="1"/></linearGradient><linearGradient id="linearGradient4841" x1="24.962" x2="24.962" y1="1035.89" y2="1020.875" gradientUnits="userSpaceOnUse" xlink:href="#linearGradient4843"/></defs><metadata id="metadata7"/><g id="layer1" transform="translate(0,-1004.3622)"><rect id="rect2991-1" width="48" height="48" x="0" y="-1052.362" fill="url(#linearGradient837)" fill-opacity="1" stroke="none" ry="1.945" transform="scale(1,-1)"/><path id="path4855" fill="#000" fill-opacity=".059" stroke="none" d="m 28.509765,1022.0622 0,15 2.621094,0 0,-15 -2.621094,0 z m -7.669922,0.6563 c -1.75327,0 -3.040947,0.1261 -3.970703,0.2949 l 0,14.0488 2.578125,0 0,-5.3652 c 0.338307,0.063 0.781942,0.084 1.267578,0.084 1.838434,0 3.464856,-0.4864 4.5,-1.5215 0.802864,-0.7609 1.22461,-1.8803 1.22461,-3.2325 0,-1.3308 -0.549087,-2.4491 -1.394532,-3.1464 -0.908251,-0.7603 -2.30341,-1.1621 -4.205078,-1.1621 z m 0.107422,1.9863 c 1.796067,0 2.892578,0.8433 2.892578,2.4277 0,1.669 -1.181178,2.6211 -3.125,2.6211 -0.528004,0 -0.950349,-0.022 -1.267578,-0.1055 l 0,-4.8183 c 0.274862,-0.063 0.782086,-0.125 1.5,-0.125 z"/><path id="rect846" fill="#000" fill-opacity="1" stroke="none" d="m 4.7011719e-7,1049.3622 0,1.0625 c 0,1.0773 0.86022299988281,1.9375 1.93750002988281,1.9375 l 44.1249995,0 c 1.077278,0 1.937501,-0.8602 1.937501,-1.9375 l 0,-1.0625 c 0,1.0773 -0.860223,1.9375 -1.937501,1.9375 l -44.1249995,0 C 0.86022347,1051.2997 4.7011719e-7,1050.4395 4.7011719e-7,1049.3622 Z"/><path id="path7515" fill="#fff" fill-opacity=".537" stroke="none" d="m 2.5312505,1005.0185 c -0.917088,0 -1.67114603,0.6395 -1.84375003,1.5 0.33561203,-0.2799 0.77451303,-0.4375 1.25000003,-0.4375 l 44.1249995,0 c 0.475488,0 0.914388,0.1576 1.250001,0.4375 -0.172603,-0.8605 -0.926663,-1.5 -1.843751,-1.5 L 2.5312505,1005.0185 Z"/><path id="rect4280-4" fill="#000" fill-opacity=".392" stroke="none" d="m 1.9375005,1004.3622 c -1.07727703,0 -1.93750002988281,0.8602 -1.93750002988281,1.9375 l 0,43.0625 c 0,0.7934 0.48002399988281,1.449 1.15625002988281,1.75 -0.30934103,-0.3333 -0.50000003,-0.7824 -0.50000003,-1.2812 l 0,-42.9375 c 0,-1.0482 0.82689903,-1.875 1.87500003,-1.875 l 42.9374995,0 c 1.048101,0 1.875001,0.8268 1.875001,1.875 l 0,42.9375 c 0,0.4988 -0.190658,0.9479 -0.500001,1.2812 0.676227,-0.301 1.156251,-0.9566 1.156251,-1.75 l 0,-43.0625 c 0,-1.0773 -0.860223,-1.9375 -1.937501,-1.9375 L 1.9375005,1004.3622 Z"/><path id="path4853" fill="#000" fill-opacity=".118" stroke="none" d="m 28.509765,1021.6622 0,15 2.621094,0 0,-15 -2.621094,0 z m -7.669922,0.6563 c -1.75327,0 -3.040947,0.1261 -3.970703,0.2949 l 0,14.0488 2.578125,0 0,-5.3652 c 0.338307,0.063 0.781942,0.084 1.267578,0.084 1.838434,0 3.464856,-0.4864 4.5,-1.5215 0.802864,-0.7609 1.22461,-1.8803 1.22461,-3.2325 0,-1.3308 -0.549087,-2.4491 -1.394532,-3.1464 -0.908251,-0.7603 -2.30341,-1.1621 -4.205078,-1.1621 z m 0.107422,1.9863 c 1.796067,0 2.892578,0.8433 2.892578,2.4277 0,1.669 -1.181178,2.6211 -3.125,2.6211 -0.528004,0 -0.950349,-0.022 -1.267578,-0.1055 l 0,-4.8183 c 0.274862,-0.063 0.782086,-0.125 1.5,-0.125 z"/><path id="path4849" fill="#000" fill-opacity=".235" stroke="none" d="m 28.509765,1021.2622 0,15 2.621094,0 0,-15 -2.621094,0 z m -7.669922,0.6563 c -1.75327,0 -3.040947,0.1261 -3.970703,0.2949 l 0,14.0488 2.578125,0 0,-5.3652 c 0.338307,0.063 0.781942,0.084 1.267578,0.084 1.838434,0 3.464856,-0.4864 4.5,-1.5215 0.802864,-0.7609 1.22461,-1.8803 1.22461,-3.2325 0,-1.3308 -0.549087,-2.4491 -1.394532,-3.1464 -0.908251,-0.7603 -2.30341,-1.1621 -4.205078,-1.1621 z m 0.107422,1.9863 c 1.796067,0 2.892578,0.8433 2.892578,2.4277 0,1.669 -1.181178,2.6211 -3.125,2.6211 -0.528004,0 -0.950349,-0.022 -1.267578,-0.1055 l 0,-4.8183 c 0.274862,-0.063 0.782086,-0.125 1.5,-0.125 z"/><path id="path3078-6" fill="url(#linearGradient4841)" fill-opacity="1" stroke="none" d="m 28.509765,1020.8622 0,15 2.621094,0 0,-15 -2.621094,0 z m -7.669922,0.6563 c -1.75327,0 -3.040947,0.1261 -3.970703,0.2949 l 0,14.0488 2.578125,0 0,-5.3652 c 0.338307,0.063 0.781942,0.084 1.267578,0.084 1.838434,0 3.464856,-0.4864 4.5,-1.5215 0.802864,-0.7609 1.22461,-1.8803 1.22461,-3.2325 0,-1.3308 -0.549087,-2.4491 -1.394532,-3.1464 -0.908251,-0.7603 -2.30341,-1.1621 -4.205078,-1.1621 z m 0.107422,1.9863 c 1.796067,0 2.892578,0.8433 2.892578,2.4277 0,1.669 -1.181178,2.6211 -3.125,2.6211 -0.528004,0 -0.950349,-0.022 -1.267578,-0.1055 l 0,-4.8183 c 0.274862,-0.063 0.782086,-0.125 1.5,-0.125 z"/><path id="path4857" fill="#0361c7" fill-opacity=".314" stroke="none" d="M 20.947266 18.341797 C 20.229352 18.341797 19.722128 18.403797 19.447266 18.466797 L 19.447266 19.267578 C 19.722128 19.204578 20.229352 19.142578 20.947266 19.142578 C 22.580826 19.142578 23.62522 19.847706 23.802734 21.166016 C 23.81906 21.036425 23.839844 20.909318 23.839844 20.769531 C 23.839844 19.185131 22.743333 18.341797 20.947266 18.341797 z M 26.414062 20.978516 C 26.351414 22.185507 25.952555 23.197331 25.214844 23.896484 C 24.1797 24.931584 22.553278 25.417969 20.714844 25.417969 C 20.229208 25.417969 19.785573 25.396984 19.447266 25.333984 L 19.447266 26.134766 C 19.785573 26.197766 20.229208 26.21875 20.714844 26.21875 C 22.553278 26.21875 24.1797 25.732366 25.214844 24.697266 C 26.017708 23.936366 26.439453 22.817044 26.439453 21.464844 C 26.439453 21.299157 26.430597 21.137212 26.414062 20.978516 z M 16.869141 30.699219 L 16.869141 31.5 L 19.447266 31.5 L 19.447266 30.699219 L 16.869141 30.699219 z M 28.509766 30.699219 L 28.509766 31.5 L 31.130859 31.5 L 31.130859 30.699219 L 28.509766 30.699219 z" transform="translate(0,1004.3622)"/><path id="path4862" fill="#fff" fill-opacity=".235" stroke="none" d="M 28.509766 16.5 L 28.509766 16.900391 L 31.130859 16.900391 L 31.130859 16.5 L 28.509766 16.5 z M 20.839844 17.15625 C 19.086574 17.15625 17.798897 17.282372 16.869141 17.451172 L 16.869141 17.851562 C 17.798897 17.682762 19.086574 17.556641 20.839844 17.556641 C 22.741512 17.556641 24.136671 17.95845 25.044922 18.71875 C 25.837538 19.372478 26.364326 20.399112 26.427734 21.621094 C 26.429102 21.567359 26.439453 21.519343 26.439453 21.464844 C 26.439453 20.134044 25.890367 19.015659 25.044922 18.318359 C 24.136671 17.558059 22.741512 17.15625 20.839844 17.15625 z M 23.822266 21.767578 C 23.728659 23.309431 22.577698 24.191406 20.714844 24.191406 C 20.18684 24.191406 19.764495 24.169437 19.447266 24.085938 L 19.447266 24.486328 C 19.764495 24.569828 20.18684 24.591797 20.714844 24.591797 C 22.658666 24.591797 23.839844 23.639703 23.839844 21.970703 C 23.839844 21.898962 23.826725 21.836271 23.822266 21.767578 z" transform="translate(0,1004.3622)"/></g></svg>