<svg xmlns="http://www.w3.org/2000/svg" xmlns:svg="http://www.w3.org/2000/svg" xmlns:xlink="http://www.w3.org/1999/xlink" id="svg2" width="48" height="48" version="1.1"><defs id="defs4"><linearGradient id="linearGradient4536"><stop id="stop4538" offset="0" stop-color="#f8ddc0" stop-opacity="1"/><stop id="stop4540" offset="1" stop-color="#fefcf6" stop-opacity="1"/></linearGradient><linearGradient id="linearGradient837" x1="24.177" x2="24.177" y1="-1052.36" y2="-1004.364" gradientUnits="userSpaceOnUse" xlink:href="#linearGradient2881"/><linearGradient id="linearGradient2881"><stop id="stop2883" offset="0" stop-color="#e58721" stop-opacity="1"/><stop id="stop2885" offset="1" stop-color="#e6b32a" stop-opacity="1"/></linearGradient><defs id="defs4922"><filter id="Adobe_OpacityMaskFilter" width="5.883" height="73.013" x="3.785" y="4.675" color-interpolation-filters="sRGB" filterUnits="userSpaceOnUse"><feColorMatrix id="feColorMatrix4925" type="matrix" values="1 0 0 0 0 0 1 0 0 0 0 0 1 0 0 0 0 0 1 0"/></filter></defs><mask id="SVGID_2_" width="5.883" height="73.013" x="3.785" y="4.675" maskUnits="userSpaceOnUse"><g id="g4928" filter="url(#Adobe_OpacityMaskFilter)"><linearGradient id="SVGID_3_" x1="3.785" x2="9.668" y1="41.181" y2="41.181" gradientUnits="userSpaceOnUse"><stop id="stop4931" offset="0" stop-color="#FFF"/><stop id="stop4933" offset=".003" stop-color="#FAFBFB"/><stop id="stop4935" offset=".076" stop-color="#BBBDBF"/><stop id="stop4937" offset=".144" stop-color="#898B8E"/><stop id="stop4939" offset=".205" stop-color="#646567"/><stop id="stop4941" offset=".259" stop-color="#444446"/><stop id="stop4943" offset=".303" stop-color="#1D1C1D"/><stop id="stop4945" offset=".331" stop-color="#000"/></linearGradient><rect id="rect4947" width="5.883" height="73.013" x="3.785" y="4.675" fill="url(#SVGID_3_)"/></g></mask><linearGradient id="linearGradient4683" x1="30.16" x2="30.16" y1="31.622" y2="16.841" gradientTransform="translate(-3.893555,1004.2313)" gradientUnits="userSpaceOnUse" xlink:href="#linearGradient4536"/></defs><metadata id="metadata7"/><g id="layer1" transform="translate(0,-1004.3622)"><rect id="rect2991-1" width="48" height="48" x="0" y="-1052.362" fill="url(#linearGradient837)" fill-opacity="1" stroke="none" ry="1.945" transform="scale(1,-1)"/><path id="path4693" fill="#000" fill-opacity=".059" stroke="none" d="m 18.686523,1022.0622 c -1.508748,0 -3.061302,0.1318 -3.914062,0.3066 l 0,14.4981 c 0.678022,0.087 1.813848,0.1953 3.300781,0.1953 2.689612,0 4.417262,-0.4585 5.466797,-1.377 0.852761,-0.6994 1.421875,-1.7275 1.421875,-3.039 0,-2.0337 -1.422012,-3.2588 -2.97461,-3.6524 l 0,-0.043 c 1.596668,-0.5903 2.449219,-1.8378 2.449219,-3.1934 0,-1.2463 -0.61043,-2.2077 -1.529297,-2.7539 -1.005464,-0.6999 -2.230928,-0.9414 -4.220703,-0.9414 z m 0.285156,1.9902 c 1.705301,0 2.753907,0.6339 2.753907,2.0118 0,1.2461 -1.049537,2.121 -2.908203,2.121 l -1.376954,0 0,-4.0234 c 0.284694,-0.066 0.743933,-0.1094 1.53125,-0.1094 z m 13.621094,1.9668 c -1.137675,0 -2.383326,0.765 -2.908203,2.2735 l 0,0 -0.08594,0 -0.08789,-2.0332 -2.339844,0 c 0.06566,0.9618 0.08789,1.9886 0.08789,3.4317 l 0,7.2168 2.689453,0 0,-5.5098 c 0,-0.306 0.04253,-0.5912 0.08594,-0.832 0.240844,-1.2025 1.116312,-2.0332 2.40625,-2.0332 0.328324,0 0.568081,0.045 0.78711,0.088 l 0,-2.5371 c -0.219028,-0.043 -0.372547,-0.066 -0.634766,-0.066 z m -15.152344,4.1348 1.333985,0 c 1.858886,0 3.345703,0.6987 3.345703,2.4043 0,1.815 -1.530256,2.4707 -3.257813,2.4707 -0.611916,0 -1.071516,-4e-4 -1.421875,-0.066 l 0,-4.8086 z"/><path id="path4691" fill="#000" fill-opacity=".118" stroke="none" d="m 18.686523,1021.6622 c -1.508748,0 -3.061302,0.1318 -3.914062,0.3066 l 0,14.4981 c 0.678022,0.087 1.813848,0.1953 3.300781,0.1953 2.689612,0 4.417262,-0.4585 5.466797,-1.377 0.852761,-0.6994 1.421875,-1.7275 1.421875,-3.039 0,-2.0337 -1.422012,-3.2588 -2.97461,-3.6524 l 0,-0.043 c 1.596668,-0.5903 2.449219,-1.8378 2.449219,-3.1934 0,-1.2463 -0.61043,-2.2077 -1.529297,-2.7539 -1.005464,-0.6999 -2.230928,-0.9414 -4.220703,-0.9414 z m 0.285156,1.9902 c 1.705301,0 2.753907,0.6339 2.753907,2.0118 0,1.2461 -1.049537,2.121 -2.908203,2.121 l -1.376954,0 0,-4.0234 c 0.284694,-0.066 0.743933,-0.1094 1.53125,-0.1094 z m 13.621094,1.9668 c -1.137675,0 -2.383326,0.765 -2.908203,2.2735 l 0,0 -0.08594,0 -0.08789,-2.0332 -2.339844,0 c 0.06566,0.9618 0.08789,1.9886 0.08789,3.4317 l 0,7.2168 2.689453,0 0,-5.5098 c 0,-0.306 0.04253,-0.5912 0.08594,-0.832 0.240844,-1.2025 1.116312,-2.0332 2.40625,-2.0332 0.328324,0 0.568081,0.045 0.78711,0.088 l 0,-2.5371 c -0.219028,-0.043 -0.372547,-0.066 -0.634766,-0.066 z m -15.152344,4.1348 1.333985,0 c 1.858886,0 3.345703,0.6987 3.345703,2.4043 0,1.815 -1.530256,2.4707 -3.257813,2.4707 -0.611916,0 -1.071516,-4e-4 -1.421875,-0.066 l 0,-4.8086 z"/><path id="path4685" fill="#000" fill-opacity=".235" stroke="none" d="m 18.686523,1021.2622 c -1.508748,0 -3.061302,0.1318 -3.914062,0.3066 l 0,14.4981 c 0.678022,0.087 1.813848,0.1953 3.300781,0.1953 2.689612,0 4.417262,-0.4585 5.466797,-1.377 0.852761,-0.6994 1.421875,-1.7275 1.421875,-3.039 0,-2.0337 -1.422012,-3.2588 -2.97461,-3.6524 l 0,-0.043 c 1.596668,-0.5903 2.449219,-1.8378 2.449219,-3.1934 0,-1.2463 -0.61043,-2.2077 -1.529297,-2.7539 -1.005464,-0.6999 -2.230928,-0.9414 -4.220703,-0.9414 z m 0.285156,1.9902 c 1.705301,0 2.753907,0.6339 2.753907,2.0118 0,1.2461 -1.049537,2.121 -2.908203,2.121 l -1.376954,0 0,-4.0234 c 0.284694,-0.066 0.743933,-0.1094 1.53125,-0.1094 z m 13.621094,1.9668 c -1.137675,0 -2.383326,0.765 -2.908203,2.2735 l 0,0 -0.08594,0 -0.08789,-2.0332 -2.339844,0 c 0.06566,0.9618 0.08789,1.9886 0.08789,3.4317 l 0,7.2168 2.689453,0 0,-5.5098 c 0,-0.306 0.04253,-0.5912 0.08594,-0.832 0.240844,-1.2025 1.116312,-2.0332 2.40625,-2.0332 0.328324,0 0.568081,0.045 0.78711,0.088 l 0,-2.5371 c -0.219028,-0.043 -0.372547,-0.066 -0.634766,-0.066 z m -15.152344,4.1348 1.333985,0 c 1.858886,0 3.345703,0.6987 3.345703,2.4043 0,1.815 -1.530256,2.4707 -3.257813,2.4707 -0.611916,0 -1.071516,-4e-4 -1.421875,-0.066 l 0,-4.8086 z"/><path id="rect846" fill="#000" fill-opacity="1" stroke="none" d="m 4.7011719e-7,1049.3622 0,1.0625 c 0,1.0773 0.86022299988281,1.9375 1.93750002988281,1.9375 l 44.1249995,0 c 1.077278,0 1.937501,-0.8602 1.937501,-1.9375 l 0,-1.0625 c 0,1.0773 -0.860223,1.9375 -1.937501,1.9375 l -44.1249995,0 C 0.86022347,1051.2997 4.7011719e-7,1050.4395 4.7011719e-7,1049.3622 Z"/><path id="path7515" fill="#fff" fill-opacity=".537" stroke="none" d="m 2.5312505,1005.0185 c -0.917088,0 -1.67114603,0.6395 -1.84375003,1.5 0.33561203,-0.2799 0.77451303,-0.4375 1.25000003,-0.4375 l 44.1249995,0 c 0.475488,0 0.914388,0.1576 1.250001,0.4375 -0.172603,-0.8605 -0.926663,-1.5 -1.843751,-1.5 L 2.5312505,1005.0185 Z"/><path id="rect4280-4" fill="#000" fill-opacity=".392" stroke="none" d="m 1.9375005,1004.3622 c -1.07727703,0 -1.93750002988281,0.8602 -1.93750002988281,1.9375 l 0,43.0625 c 0,0.7934 0.48002399988281,1.449 1.15625002988281,1.75 -0.30934103,-0.3333 -0.50000003,-0.7824 -0.50000003,-1.2812 l 0,-42.9375 c 0,-1.0482 0.82689903,-1.875 1.87500003,-1.875 l 42.9374995,0 c 1.048101,0 1.875001,0.8268 1.875001,1.875 l 0,42.9375 c 0,0.4988 -0.190658,0.9479 -0.500001,1.2812 0.676227,-0.301 1.156251,-0.9566 1.156251,-1.75 l 0,-43.0625 c 0,-1.0773 -0.860223,-1.9375 -1.937501,-1.9375 L 1.9375005,1004.3622 Z"/><path id="path1684-0-1" fill="url(#linearGradient4683)" fill-opacity="1" stroke="none" d="m 18.686523,1020.8622 c -1.508748,0 -3.061302,0.1318 -3.914062,0.3066 l 0,14.4981 c 0.678022,0.087 1.813848,0.1953 3.300781,0.1953 2.689612,0 4.417262,-0.4585 5.466797,-1.377 0.852761,-0.6994 1.421875,-1.7275 1.421875,-3.039 0,-2.0337 -1.422012,-3.2588 -2.97461,-3.6524 l 0,-0.043 c 1.596668,-0.5903 2.449219,-1.8378 2.449219,-3.1934 0,-1.2463 -0.61043,-2.2077 -1.529297,-2.7539 -1.005464,-0.6999 -2.230928,-0.9414 -4.220703,-0.9414 z m 0.285156,1.9902 c 1.705301,0 2.753907,0.6339 2.753907,2.0118 0,1.2461 -1.049537,2.121 -2.908203,2.121 l -1.376954,0 0,-4.0234 c 0.284694,-0.066 0.743933,-0.1094 1.53125,-0.1094 z m 13.621094,1.9668 c -1.137675,0 -2.383326,0.765 -2.908203,2.2735 l 0,0 -0.08594,0 -0.08789,-2.0332 -2.339844,0 c 0.06566,0.9618 0.08789,1.9886 0.08789,3.4317 l 0,7.2168 2.689453,0 0,-5.5098 c 0,-0.306 0.04253,-0.5912 0.08594,-0.832 0.240844,-1.2025 1.116312,-2.0332 2.40625,-2.0332 0.328324,0 0.568081,0.045 0.78711,0.088 l 0,-2.5371 c -0.219028,-0.043 -0.372547,-0.066 -0.634766,-0.066 z m -15.152344,4.1348 1.333985,0 c 1.858886,0 3.345703,0.6987 3.345703,2.4043 0,1.815 -1.530256,2.4707 -3.257813,2.4707 -0.611916,0 -1.071516,-4e-4 -1.421875,-0.066 l 0,-4.8086 z"/><path id="path4695" fill="#e58921" fill-opacity=".314" stroke="none" d="M 18.970703 17.689453 C 18.183386 17.689453 17.724147 17.732828 17.439453 17.798828 L 17.439453 18.599609 C 17.724147 18.533609 18.183386 18.490234 18.970703 18.490234 C 20.493086 18.490234 21.488746 18.999148 21.685547 20.087891 C 21.70954 19.963056 21.726562 19.835225 21.726562 19.701172 C 21.726562 18.323272 20.676004 17.689453 18.970703 17.689453 z M 24.408203 19.744141 C 24.273424 20.960731 23.443982 22.048985 21.986328 22.587891 L 21.986328 22.630859 C 22.28093 22.705544 22.567374 22.820675 22.84375 22.955078 C 23.880918 22.290131 24.435547 21.280556 24.435547 20.195312 C 24.435547 20.040194 24.426533 19.890181 24.408203 19.744141 z M 27.169922 20.697266 C 27.235582 21.659066 27.257812 22.685806 27.257812 24.128906 L 27.257812 23.328125 C 27.257812 22.260938 27.239919 21.451197 27.207031 20.697266 L 27.169922 20.697266 z M 32.439453 22.169922 C 31.149515 22.169922 30.274047 23.000625 30.033203 24.203125 C 29.989793 24.443925 29.947266 24.729156 29.947266 25.035156 L 29.947266 25.835938 C 29.947266 25.529937 29.989793 25.244706 30.033203 25.003906 C 30.274047 23.801406 31.149515 22.970703 32.439453 22.970703 C 32.767777 22.970703 33.007534 23.015594 33.226562 23.058594 L 33.226562 22.259766 C 33.007534 22.216766 32.767777 22.169922 32.439453 22.169922 z M 17.439453 23.791016 L 17.439453 23.792969 L 17.439453 24.591797 L 18.773438 24.591797 C 20.477891 24.591797 21.854754 25.189112 22.074219 26.601562 C 22.093479 26.469838 22.119141 26.341895 22.119141 26.195312 C 22.119141 24.489712 20.632323 23.791016 18.773438 23.791016 L 17.439453 23.791016 z M 24.933594 26.771484 C 24.810849 27.85169 24.282909 28.712193 23.539062 29.322266 C 22.489528 30.240766 20.761878 30.699219 18.072266 30.699219 C 16.585333 30.699219 15.45146 30.590906 14.773438 30.503906 L 14.773438 31.304688 C 15.45146 31.391687 16.585333 31.5 18.072266 31.5 C 20.761878 31.5 22.489528 31.041547 23.539062 30.123047 C 24.391824 29.423647 24.960938 28.395484 24.960938 27.083984 C 24.960938 26.974339 24.941658 26.876425 24.933594 26.771484 z M 27.257812 30.544922 L 27.257812 31.345703 L 29.947266 31.345703 L 29.947266 30.544922 L 27.257812 30.544922 z" transform="translate(0,1004.3622)"/><path id="path4700" fill="#fff" fill-opacity=".235" stroke="none" d="M 18.685547 16.5 C 17.176799 16.5 15.626198 16.631841 14.773438 16.806641 L 14.773438 17.207031 C 15.626198 17.032231 17.176799 16.900391 18.685547 16.900391 C 20.675322 16.900391 21.900786 17.141897 22.90625 17.841797 C 23.767933 18.354005 24.351723 19.234128 24.421875 20.369141 C 24.425062 20.310905 24.435547 20.253997 24.435547 20.195312 C 24.435547 18.949012 23.825117 17.987606 22.90625 17.441406 C 21.900786 16.741506 20.675322 16.5 18.685547 16.5 z M 32.591797 20.455078 L 32.591797 20.457031 C 31.454122 20.457031 30.208471 21.221969 29.683594 22.730469 L 29.597656 22.730469 L 29.509766 20.697266 L 27.169922 20.697266 C 27.178484 20.82268 27.180368 20.969252 27.1875 21.097656 L 29.509766 21.097656 L 29.597656 23.130859 L 29.683594 23.130859 C 30.208471 21.622359 31.454122 20.857422 32.591797 20.857422 L 32.591797 20.855469 C 32.854016 20.855469 33.007534 20.878875 33.226562 20.921875 L 33.226562 20.521484 C 33.007534 20.478484 32.854016 20.455078 32.591797 20.455078 z M 21.705078 20.695312 C 21.598848 21.835165 20.576995 22.623047 18.818359 22.623047 L 17.439453 22.623047 L 17.439453 23.023438 L 18.818359 23.023438 C 20.677025 23.023438 21.726562 22.148444 21.726562 20.902344 C 21.726562 20.828409 21.711056 20.76498 21.705078 20.695312 z M 22.451172 23.582031 C 22.302747 23.656095 22.150631 23.728319 21.986328 23.789062 L 21.986328 23.832031 C 23.498111 24.215284 24.875336 25.393205 24.947266 27.332031 C 24.951968 27.249435 24.960938 27.168973 24.960938 27.083984 C 24.960938 25.2561 23.810999 24.086854 22.451172 23.582031 z M 22.097656 27.199219 C 21.980866 28.851465 20.518946 29.466797 18.861328 29.466797 C 18.249412 29.466797 17.789812 29.465991 17.439453 29.400391 L 17.439453 29.800781 C 17.789812 29.866381 18.249412 29.867188 18.861328 29.867188 C 20.588885 29.867188 22.119141 29.211484 22.119141 27.396484 C 22.119141 27.325674 22.102702 27.26658 22.097656 27.199219 z" transform="translate(0,1004.3622)"/></g></svg>