<svg xmlns="http://www.w3.org/2000/svg" xmlns:svg="http://www.w3.org/2000/svg" xmlns:xlink="http://www.w3.org/1999/xlink" id="svg2" width="48" height="48" version="1.1"><defs id="defs4"><linearGradient id="linearGradient4836"><stop id="stop4838" offset="0" stop-color="#f2c6f0" stop-opacity="1"/><stop id="stop4840" offset="1" stop-color="#fdf7fd" stop-opacity="1"/></linearGradient><linearGradient id="linearGradient837" x1="24.177" x2="24.177" y1="-1052.36" y2="-1004.364" gradientUnits="userSpaceOnUse" xlink:href="#linearGradient839"/><defs id="defs4922"><filter id="Adobe_OpacityMaskFilter" width="5.883" height="73.013" x="3.785" y="4.675" color-interpolation-filters="sRGB" filterUnits="userSpaceOnUse"><feColorMatrix id="feColorMatrix4925" type="matrix" values="1 0 0 0 0 0 1 0 0 0 0 0 1 0 0 0 0 0 1 0"/></filter></defs><mask id="SVGID_2_" width="5.883" height="73.013" x="3.785" y="4.675" maskUnits="userSpaceOnUse"><g id="g4928" filter="url(#Adobe_OpacityMaskFilter)"><linearGradient id="SVGID_3_" x1="3.785" x2="9.668" y1="41.181" y2="41.181" gradientUnits="userSpaceOnUse"><stop id="stop4931" offset="0" stop-color="#FFF"/><stop id="stop4933" offset=".003" stop-color="#FAFBFB"/><stop id="stop4935" offset=".076" stop-color="#BBBDBF"/><stop id="stop4937" offset=".144" stop-color="#898B8E"/><stop id="stop4939" offset=".205" stop-color="#646567"/><stop id="stop4941" offset=".259" stop-color="#444446"/><stop id="stop4943" offset=".303" stop-color="#1D1C1D"/><stop id="stop4945" offset=".331" stop-color="#000"/></linearGradient><rect id="rect4947" width="5.883" height="73.013" x="3.785" y="4.675" fill="url(#SVGID_3_)"/></g></mask><linearGradient id="linearGradient839"><stop id="stop841" offset="0" stop-color="#871e82" stop-opacity="1"/><stop id="stop843" offset="1" stop-color="#d535d9" stop-opacity="1"/></linearGradient><linearGradient id="linearGradient4834" x1="46.222" x2="46.222" y1="31.067" y2="15.894" gradientTransform="matrix(0.99967488,0,0,0.99986668,-21.859108,1004.8897)" gradientUnits="userSpaceOnUse" xlink:href="#linearGradient4836"/></defs><metadata id="metadata7"/><g id="layer1" transform="translate(0,-1004.3622)"><rect id="rect2991-1" width="48" height="48" x="0" y="-1052.362" fill="url(#linearGradient837)" fill-opacity="1" stroke="none" ry="1.945" transform="scale(1,-1)"/><path id="path4850" fill="#000" fill-opacity=".059" stroke="none" d="m 19.150992,1022.0622 c -1.832969,0 -3.179093,0.1339 -4.150993,0.3106 l 0,14.6894 2.694435,0 0,-5.6107 c 0.353419,0.067 0.817424,0.088 1.325741,0.088 1.921099,0 3.621706,-0.509 4.703548,-1.5916 0.839257,-0.7952 1.280833,-1.965 1.280833,-3.3784 0,-1.3915 -0.575185,-2.5637 -1.458509,-3.2925 -0.949422,-0.7951 -2.407858,-1.2147 -4.395055,-1.2147 z m 0.111292,2.0778 c 1.87681,0 3.026359,0.8822 3.026359,2.5388 0,1.745 -1.236759,2.7398 -3.268468,2.7398 -0.552383,0 -0.994133,-0.023 -1.325741,-0.1113 l 0,-5.0364 c 0.28732,-0.066 0.816726,-0.1309 1.56785,-0.1309 z m 13.095351,1.9217 c -1.148166,0 -2.406418,0.7725 -2.936546,2.2966 l -0.08786,0 -0.08786,-2.0545 -2.364466,0 c 0.0661,0.9719 0.08981,2.0105 0.08981,3.4683 l 0,7.2901 2.715914,0 0,-5.5677 c 0,-0.3096 0.04335,-0.5966 0.08786,-0.8396 0.24304,-1.2153 1.126058,-2.0526 2.428896,-2.0526 0.331387,0 0.57562,0.044 0.796616,0.088 l 0,-2.564 c -0.220996,-0.044 -0.377083,-0.064 -0.642369,-0.064 z"/><path id="path4848" fill="#000" fill-opacity=".118" stroke="none" d="m 19.150992,1021.6622 c -1.832969,0 -3.179093,0.1339 -4.150993,0.3106 l 0,14.6894 2.694435,0 0,-5.6107 c 0.353419,0.067 0.817424,0.088 1.325741,0.088 1.921099,0 3.621706,-0.509 4.703548,-1.5916 0.839257,-0.7952 1.280833,-1.965 1.280833,-3.3784 0,-1.3915 -0.575185,-2.5637 -1.458509,-3.2925 -0.949422,-0.7951 -2.407858,-1.2147 -4.395055,-1.2147 z m 0.111292,2.0778 c 1.87681,0 3.026359,0.8822 3.026359,2.5388 0,1.745 -1.236759,2.7398 -3.268468,2.7398 -0.552383,0 -0.994133,-0.023 -1.325741,-0.1113 l 0,-5.0364 c 0.28732,-0.066 0.816726,-0.1309 1.56785,-0.1309 z m 13.095351,1.9217 c -1.148166,0 -2.406418,0.7725 -2.936546,2.2966 l -0.08786,0 -0.08786,-2.0545 -2.364466,0 c 0.0661,0.9719 0.08981,2.0105 0.08981,3.4683 l 0,7.2901 2.715914,0 0,-5.5677 c 0,-0.3096 0.04335,-0.5966 0.08786,-0.8396 0.24304,-1.2153 1.126058,-2.0526 2.428896,-2.0526 0.331387,0 0.57562,0.044 0.796616,0.088 l 0,-2.564 c -0.220996,-0.044 -0.377083,-0.064 -0.642369,-0.064 z"/><path id="rect846" fill="#000" fill-opacity="1" stroke="none" d="m 4.7011719e-7,1049.3622 0,1.0625 c 0,1.0773 0.86022299988281,1.9375 1.93750002988281,1.9375 l 44.1249995,0 c 1.077278,0 1.937501,-0.8602 1.937501,-1.9375 l 0,-1.0625 c 0,1.0773 -0.860223,1.9375 -1.937501,1.9375 l -44.1249995,0 C 0.86022347,1051.2997 4.7011719e-7,1050.4395 4.7011719e-7,1049.3622 Z"/><path id="path7515" fill="#fff" fill-opacity=".537" stroke="none" d="m 2.5312505,1005.0185 c -0.917088,0 -1.67114603,0.6395 -1.84375003,1.5 0.33561203,-0.2799 0.77451303,-0.4375 1.25000003,-0.4375 l 44.1249995,0 c 0.475488,0 0.914388,0.1576 1.250001,0.4375 -0.172603,-0.8605 -0.926663,-1.5 -1.843751,-1.5 L 2.5312505,1005.0185 Z"/><path id="rect4280-4" fill="#000" fill-opacity=".392" stroke="none" d="m 1.9375005,1004.3622 c -1.07727703,0 -1.93750002988281,0.8602 -1.93750002988281,1.9375 l 0,43.0625 c 0,0.7934 0.48002399988281,1.449 1.15625002988281,1.75 -0.30934103,-0.3333 -0.50000003,-0.7824 -0.50000003,-1.2812 l 0,-42.9375 c 0,-1.0482 0.82689903,-1.875 1.87500003,-1.875 l 42.9374995,0 c 1.048101,0 1.875001,0.8268 1.875001,1.875 l 0,42.9375 c 0,0.4988 -0.190658,0.9479 -0.500001,1.2812 0.676227,-0.301 1.156251,-0.9566 1.156251,-1.75 l 0,-43.0625 c 0,-1.0773 -0.860223,-1.9375 -1.937501,-1.9375 L 1.9375005,1004.3622 Z"/><path id="path4844" fill="#000" fill-opacity=".235" stroke="none" d="m 19.150992,1021.2622 c -1.832969,0 -3.179093,0.1339 -4.150993,0.3106 l 0,14.6894 2.694435,0 0,-5.6107 c 0.353419,0.067 0.817424,0.088 1.325741,0.088 1.921099,0 3.621706,-0.509 4.703548,-1.5916 0.839257,-0.7952 1.280833,-1.965 1.280833,-3.3784 0,-1.3915 -0.575185,-2.5637 -1.458509,-3.2925 -0.949422,-0.7951 -2.407858,-1.2147 -4.395055,-1.2147 z m 0.111292,2.0778 c 1.87681,0 3.026359,0.8822 3.026359,2.5388 0,1.745 -1.236759,2.7398 -3.268468,2.7398 -0.552383,0 -0.994133,-0.023 -1.325741,-0.1113 l 0,-5.0364 c 0.28732,-0.066 0.816726,-0.1309 1.56785,-0.1309 z m 13.095351,1.9217 c -1.148166,0 -2.406418,0.7725 -2.936546,2.2966 l -0.08786,0 -0.08786,-2.0545 -2.364466,0 c 0.0661,0.9719 0.08981,2.0105 0.08981,3.4683 l 0,7.2901 2.715914,0 0,-5.5677 c 0,-0.3096 0.04335,-0.5966 0.08786,-0.8396 0.24304,-1.2153 1.126058,-2.0526 2.428896,-2.0526 0.331387,0 0.57562,0.044 0.796616,0.088 l 0,-2.564 c -0.220996,-0.044 -0.377083,-0.064 -0.642369,-0.064 z"/><path id="path754-7" fill="url(#linearGradient4834)" fill-opacity="1" stroke="none" d="m 19.150992,1020.8622 c -1.832969,0 -3.179093,0.1339 -4.150993,0.3106 l 0,14.6894 2.694435,0 0,-5.6107 c 0.353419,0.067 0.817424,0.088 1.325741,0.088 1.921099,0 3.621706,-0.509 4.703548,-1.5916 0.839257,-0.7952 1.280833,-1.965 1.280833,-3.3784 0,-1.3915 -0.575185,-2.5637 -1.458509,-3.2925 -0.949422,-0.7951 -2.407858,-1.2147 -4.395055,-1.2147 z m 0.111292,2.0778 c 1.87681,0 3.026359,0.8822 3.026359,2.5388 0,1.745 -1.236759,2.7398 -3.268468,2.7398 -0.552383,0 -0.994133,-0.023 -1.325741,-0.1113 l 0,-5.0364 c 0.28732,-0.066 0.816726,-0.1309 1.56785,-0.1309 z m 13.095351,1.9217 c -1.148166,0 -2.406418,0.7725 -2.936546,2.2966 l -0.08786,0 -0.08786,-2.0545 -2.364466,0 c 0.0661,0.9719 0.08981,2.0105 0.08981,3.4683 l 0,7.2901 2.715914,0 0,-5.5677 c 0,-0.3096 0.04335,-0.5966 0.08786,-0.8396 0.24304,-1.2153 1.126058,-2.0526 2.428896,-2.0526 0.331387,0 0.57562,0.044 0.796616,0.088 l 0,-2.564 c -0.220996,-0.044 -0.377083,-0.064 -0.642369,-0.064 z"/><path id="path4852" fill="#90218c" fill-opacity=".314" stroke="none" d="M 19.261719 17.777344 C 18.510595 17.777344 17.982633 17.842203 17.695312 17.908203 L 17.695312 18.708984 C 17.982633 18.642984 18.510595 18.578125 19.261719 18.578125 C 20.976628 18.578125 22.073604 19.322008 22.251953 20.712891 C 22.267582 20.582924 22.289062 20.456116 22.289062 20.316406 C 22.289062 18.659806 21.138529 17.777344 19.261719 17.777344 z M 24.978516 20.511719 C 24.91725 21.784073 24.500668 22.850619 23.724609 23.585938 C 22.642767 24.668537 20.94063 25.177734 19.019531 25.177734 C 18.511214 25.177734 18.048731 25.156844 17.695312 25.089844 L 17.695312 25.888672 C 18.048731 25.955672 18.511214 25.976562 19.019531 25.976562 C 20.94063 25.976562 22.642767 25.467366 23.724609 24.384766 C 24.563866 23.589566 25.003906 22.421213 25.003906 21.007812 C 25.003906 20.839173 24.994936 20.673517 24.978516 20.511719 z M 26.880859 20.742188 C 26.946959 21.714088 26.970703 22.751184 26.970703 24.208984 L 26.970703 23.410156 C 26.970703 22.328285 26.95172 21.506385 26.917969 20.742188 L 26.880859 20.742188 z M 32.203125 22.240234 C 30.900287 22.240234 30.018431 23.077669 29.775391 24.292969 C 29.730881 24.535969 29.6875 24.823212 29.6875 25.132812 L 29.6875 25.931641 C 29.6875 25.622041 29.730881 25.334797 29.775391 25.091797 C 30.018431 23.876497 30.900287 23.041016 32.203125 23.041016 C 32.534512 23.041016 32.779004 23.084906 33 23.128906 L 33 22.328125 C 32.779004 22.284125 32.534512 22.240234 32.203125 22.240234 z M 15 30.699219 L 15 31.5 L 17.695312 31.5 L 17.695312 30.699219 L 15 30.699219 z M 26.970703 30.699219 L 26.970703 31.5 L 29.6875 31.5 L 29.6875 30.699219 L 26.970703 30.699219 z" transform="translate(0,1004.3622)"/><path id="path4857" fill="#fff" fill-opacity=".235" stroke="none" d="M 19.150391 16.5 C 17.317422 16.5 15.9719 16.633847 15 16.810547 L 15 17.210938 C 15.9719 17.034238 17.317422 16.900391 19.150391 16.900391 C 21.137588 16.900391 22.597453 17.320134 23.546875 18.115234 C 24.376683 18.79988 24.927636 19.878695 24.992188 21.160156 C 24.993436 21.107664 25.003906 21.061002 25.003906 21.007812 C 25.003906 19.616313 24.430199 18.443644 23.546875 17.714844 C 22.597453 16.919744 21.137588 16.5 19.150391 16.5 z M 32.357422 20.5 C 31.209256 20.5 29.952003 21.272775 29.421875 22.796875 L 29.333984 22.796875 L 29.246094 20.742188 L 26.880859 20.742188 C 26.88935 20.867034 26.891306 21.01283 26.898438 21.140625 L 29.246094 21.140625 L 29.333984 23.195312 L 29.421875 23.195312 C 29.952003 21.671213 31.209256 20.900391 32.357422 20.900391 C 32.622708 20.900391 32.779004 20.920844 33 20.964844 L 33 20.564453 C 32.779004 20.520453 32.622708 20.5 32.357422 20.5 z M 22.271484 21.314453 C 22.177308 22.931842 20.970088 23.855469 19.019531 23.855469 C 18.467148 23.855469 18.026921 23.832441 17.695312 23.744141 L 17.695312 24.144531 C 18.026921 24.232831 18.467148 24.255859 19.019531 24.255859 C 21.05124 24.255859 22.289062 23.260625 22.289062 21.515625 C 22.289062 21.44431 22.275711 21.382889 22.271484 21.314453 z" transform="translate(0,1004.3622)"/></g></svg>