<svg xmlns="http://www.w3.org/2000/svg" xmlns:svg="http://www.w3.org/2000/svg" xmlns:xlink="http://www.w3.org/1999/xlink" id="svg2" width="48" height="48" version="1.1"><defs id="defs4"><linearGradient id="linearGradient4649"><stop id="stop4651" offset="0" stop-color="#c5f3e1" stop-opacity="1"/><stop id="stop4653" offset="1" stop-color="#f7fdfb" stop-opacity="1"/></linearGradient><linearGradient id="linearGradient4313"><stop id="stop4315" offset="0" stop-color="#5edfac" stop-opacity="1"/><stop id="stop4317" offset="1" stop-color="#86e7c1" stop-opacity="1"/></linearGradient><linearGradient id="linearGradient837" x1="24.177" x2="24.177" y1="-1052.36" y2="-1004.364" gradientUnits="userSpaceOnUse" xlink:href="#linearGradient4313"/><defs id="defs4922"><filter id="Adobe_OpacityMaskFilter" width="5.883" height="73.013" x="3.785" y="4.675" color-interpolation-filters="sRGB" filterUnits="userSpaceOnUse"><feColorMatrix id="feColorMatrix4925" type="matrix" values="1 0 0 0 0 0 1 0 0 0 0 0 1 0 0 0 0 0 1 0"/></filter></defs><mask id="SVGID_2_" width="5.883" height="73.013" x="3.785" y="4.675" maskUnits="userSpaceOnUse"><g id="g4928" filter="url(#Adobe_OpacityMaskFilter)"><linearGradient id="SVGID_3_" x1="3.785" x2="9.668" y1="41.181" y2="41.181" gradientUnits="userSpaceOnUse"><stop id="stop4931" offset="0" stop-color="#FFF"/><stop id="stop4933" offset=".003" stop-color="#FAFBFB"/><stop id="stop4935" offset=".076" stop-color="#BBBDBF"/><stop id="stop4937" offset=".144" stop-color="#898B8E"/><stop id="stop4939" offset=".205" stop-color="#646567"/><stop id="stop4941" offset=".259" stop-color="#444446"/><stop id="stop4943" offset=".303" stop-color="#1D1C1D"/><stop id="stop4945" offset=".331" stop-color="#000"/></linearGradient><rect id="rect4947" width="5.883" height="73.013" x="3.785" y="4.675" fill="url(#SVGID_3_)"/></g></mask><linearGradient id="linearGradient4647" x1="25.069" x2="25.069" y1="1035.838" y2="1020.796" gradientUnits="userSpaceOnUse" xlink:href="#linearGradient4649"/></defs><metadata id="metadata7"/><g id="layer1" transform="translate(0,-1004.3622)"><rect id="rect2991-1" width="48" height="48" x="0" y="-1052.362" fill="url(#linearGradient837)" fill-opacity="1" stroke="none" ry="1.945" transform="scale(1,-1)"/><path id="path4661" fill="#000" fill-opacity=".059" stroke="none" d="m 16.985352,1022.0622 -4.63086,14.7617 2.722657,0 1.24414,-4.1836 4.587891,0 1.308594,4.1836 2.828125,0 -4.69336,-14.7617 -3.367187,0 z m 1.566406,2.1465 0.04297,0 c 0.214526,0.854 0.449611,1.8618 0.728516,2.7598 l 1.134765,3.6347 -3.707031,0 1.115234,-3.6347 c 0.257084,-0.8757 0.471238,-1.9058 0.685547,-2.7598 z m 7.568359,2.1211 0,6.164 c 0,3.4264 1.746059,4.5684 3.664063,4.5684 1.875001,0 2.908704,-1.0775 3.361328,-1.832 l 0.04297,0 0.130859,1.5937 2.326172,0 c -0.04344,-0.862 -0.08594,-1.8959 -0.08594,-3.1465 l 0,-7.3476 -2.65039,0 0,6.3359 c 0,0.3019 -0.06417,0.5811 -0.150391,0.8184 -0.280175,0.6686 -0.971366,1.4219 -2.027344,1.4219 -1.401092,0 -1.960937,-1.1198 -1.960937,-2.8653 l 0,-5.7109 -2.650391,0 z"/><path id="path4659" fill="#000" fill-opacity=".118" stroke="none" d="m 16.985352,1021.6622 -4.63086,14.7617 2.722657,0 1.24414,-4.1836 4.587891,0 1.308594,4.1836 2.828125,0 -4.69336,-14.7617 -3.367187,0 z m 1.566406,2.1465 0.04297,0 c 0.214526,0.854 0.449611,1.8618 0.728516,2.7598 l 1.134765,3.6347 -3.707031,0 1.115234,-3.6347 c 0.257084,-0.8757 0.471238,-1.9058 0.685547,-2.7598 z m 7.568359,2.1211 0,6.164 c 0,3.4264 1.746059,4.5684 3.664063,4.5684 1.875001,0 2.908704,-1.0775 3.361328,-1.832 l 0.04297,0 0.130859,1.5937 2.326172,0 c -0.04344,-0.862 -0.08594,-1.8959 -0.08594,-3.1465 l 0,-7.3476 -2.65039,0 0,6.3359 c 0,0.3019 -0.06417,0.5811 -0.150391,0.8184 -0.280175,0.6686 -0.971366,1.4219 -2.027344,1.4219 -1.401092,0 -1.960937,-1.1198 -1.960937,-2.8653 l 0,-5.7109 -2.650391,0 z"/><path id="path4655" fill="#000" fill-opacity=".235" stroke="none" d="m 16.985352,1021.2622 -4.63086,14.7617 2.722657,0 1.24414,-4.1836 4.587891,0 1.308594,4.1836 2.828125,0 -4.69336,-14.7617 -3.367187,0 z m 1.566406,2.1465 0.04297,0 c 0.214526,0.854 0.449611,1.8618 0.728516,2.7598 l 1.134765,3.6347 -3.707031,0 1.115234,-3.6347 c 0.257084,-0.8757 0.471238,-1.9058 0.685547,-2.7598 z m 7.568359,2.1211 0,6.164 c 0,3.4264 1.746059,4.5684 3.664063,4.5684 1.875001,0 2.908704,-1.0775 3.361328,-1.832 l 0.04297,0 0.130859,1.5937 2.326172,0 c -0.04344,-0.862 -0.08594,-1.8959 -0.08594,-3.1465 l 0,-7.3476 -2.65039,0 0,6.3359 c 0,0.3019 -0.06417,0.5811 -0.150391,0.8184 -0.280175,0.6686 -0.971366,1.4219 -2.027344,1.4219 -1.401092,0 -1.960937,-1.1198 -1.960937,-2.8653 l 0,-5.7109 -2.650391,0 z"/><path id="rect846" fill="#000" fill-opacity="1" stroke="none" d="m 4.7011719e-7,1049.3622 0,1.0625 c 0,1.0773 0.86022299988281,1.9375 1.93750002988281,1.9375 l 44.1249995,0 c 1.077278,0 1.937501,-0.8602 1.937501,-1.9375 l 0,-1.0625 c 0,1.0773 -0.860223,1.9375 -1.937501,1.9375 l -44.1249995,0 C 0.86022347,1051.2997 4.7011719e-7,1050.4395 4.7011719e-7,1049.3622 Z"/><path id="path7515" fill="#fff" fill-opacity=".537" stroke="none" d="m 2.5312505,1005.0185 c -0.917088,0 -1.67114603,0.6395 -1.84375003,1.5 0.33561203,-0.2799 0.77451303,-0.4375 1.25000003,-0.4375 l 44.1249995,0 c 0.475488,0 0.914388,0.1576 1.250001,0.4375 -0.172603,-0.8605 -0.926663,-1.5 -1.843751,-1.5 L 2.5312505,1005.0185 Z"/><path id="rect4280-4" fill="#000" fill-opacity=".392" stroke="none" d="m 1.9375005,1004.3622 c -1.07727703,0 -1.93750002988281,0.8602 -1.93750002988281,1.9375 l 0,43.0625 c 0,0.7934 0.48002399988281,1.449 1.15625002988281,1.75 -0.30934103,-0.3333 -0.50000003,-0.7824 -0.50000003,-1.2812 l 0,-42.9375 c 0,-1.0482 0.82689903,-1.875 1.87500003,-1.875 l 42.9374995,0 c 1.048101,0 1.875001,0.8268 1.875001,1.875 l 0,42.9375 c 0,0.4988 -0.190658,0.9479 -0.500001,1.2812 0.676227,-0.301 1.156251,-0.9566 1.156251,-1.75 l 0,-43.0625 c 0,-1.0773 -0.860223,-1.9375 -1.937501,-1.9375 L 1.9375005,1004.3622 Z"/><path id="path2620-5" fill="url(#linearGradient4647)" fill-opacity="1" stroke="none" d="m 16.985352,1020.8622 -4.63086,14.7617 2.722657,0 1.24414,-4.1836 4.587891,0 1.308594,4.1836 2.828125,0 -4.69336,-14.7617 -3.367187,0 z m 1.566406,2.1465 0.04297,0 c 0.214526,0.854 0.449611,1.8618 0.728516,2.7598 l 1.134765,3.6347 -3.707031,0 1.115234,-3.6347 c 0.257084,-0.8757 0.471238,-1.9058 0.685547,-2.7598 z m 7.568359,2.1211 0,6.164 c 0,3.4264 1.746059,4.5684 3.664063,4.5684 1.875001,0 2.908704,-1.0775 3.361328,-1.832 l 0.04297,0 0.130859,1.5937 2.326172,0 c -0.04344,-0.862 -0.08594,-1.8959 -0.08594,-3.1465 l 0,-7.3476 -2.65039,0 0,6.3359 c 0,0.3019 -0.06417,0.5811 -0.150391,0.8184 -0.280175,0.6686 -0.971366,1.4219 -2.027344,1.4219 -1.401092,0 -1.960937,-1.1198 -1.960937,-2.8653 l 0,-5.7109 -2.650391,0 z"/><path id="path4663" fill="#67e1b1" fill-opacity=".314" stroke="none" d="M 18.552734 17.845703 C 18.338425 18.699703 18.124271 19.729769 17.867188 20.605469 L 16.751953 24.240234 L 16.998047 24.240234 L 17.867188 21.40625 C 18.124271 20.53055 18.338425 19.500484 18.552734 18.646484 L 18.595703 18.646484 C 18.810229 19.500484 19.045314 20.50825 19.324219 21.40625 L 20.208984 24.240234 L 20.458984 24.240234 L 19.324219 20.605469 C 19.045314 19.707469 18.810229 18.699703 18.595703 17.845703 L 18.552734 17.845703 z M 26.119141 26.130859 L 26.119141 26.931641 C 26.119141 30.358041 27.867152 31.5 29.785156 31.5 C 31.660157 31.5 32.69386 30.422469 33.146484 29.667969 L 33.189453 29.667969 L 33.320312 31.261719 L 35.646484 31.261719 C 35.634303 31.019991 35.624399 30.730689 35.613281 30.460938 L 33.320312 30.460938 L 33.189453 28.867188 L 33.146484 28.867188 C 32.69386 29.621688 31.660157 30.699219 29.785156 30.699219 C 27.867152 30.699219 26.119141 29.557259 26.119141 26.130859 z M 16.320312 26.277344 L 15.078125 30.460938 L 12.605469 30.460938 L 12.353516 31.261719 L 15.078125 31.261719 L 16.320312 27.078125 L 20.910156 27.078125 L 22.21875 31.261719 L 25.046875 31.261719 L 24.792969 30.460938 L 22.21875 30.460938 L 20.910156 26.277344 L 16.320312 26.277344 z" transform="translate(0,1004.3622)"/><path id="path4668" fill="#fff" fill-opacity=".235" stroke="none" d="M 16.986328 16.5 L 12.353516 31.261719 L 12.478516 31.261719 L 16.986328 16.900391 L 20.351562 16.900391 L 24.919922 31.261719 L 25.046875 31.261719 L 20.351562 16.5 L 16.986328 16.5 z M 26.119141 20.767578 L 26.119141 21.167969 L 28.769531 21.167969 L 28.769531 20.767578 L 26.119141 20.767578 z M 32.908203 20.767578 L 32.908203 21.167969 L 35.558594 21.167969 L 35.558594 20.767578 L 32.908203 20.767578 z M 16.875 25.041016 L 16.751953 25.441406 L 20.458984 25.441406 L 20.333984 25.041016 L 16.875 25.041016 z M 28.769531 26.478516 L 28.769531 26.878906 C 28.769531 28.624406 29.329377 29.744141 30.730469 29.744141 C 31.786447 29.744141 32.477638 28.990866 32.757812 28.322266 C 32.844034 28.084966 32.908203 27.805806 32.908203 27.503906 L 32.908203 27.103516 C 32.908203 27.405416 32.844034 27.684575 32.757812 27.921875 C 32.477638 28.590475 31.786447 29.34375 30.730469 29.34375 C 29.329377 29.34375 28.769531 28.224016 28.769531 26.478516 z M 35.558594 28.115234 L 35.558594 28.515625 C 35.558594 29.590856 35.592487 30.478388 35.628906 31.261719 L 35.646484 31.261719 C 35.603044 30.399719 35.558594 29.365834 35.558594 28.115234 z" transform="translate(0,1004.3622)"/></g></svg>