<svg xmlns="http://www.w3.org/2000/svg" xmlns:svg="http://www.w3.org/2000/svg" xmlns:xlink="http://www.w3.org/1999/xlink" id="svg2" width="48" height="48" version="1.1"><defs id="defs4"><linearGradient id="linearGradient4613"><stop id="stop4615" offset="0" stop-color="#ffb9b9" stop-opacity="1"/><stop id="stop4617" offset="1" stop-color="#fff5f5" stop-opacity="1"/></linearGradient><linearGradient id="linearGradient868-6"><stop id="stop870-0" offset="0" stop-color="#a00" stop-opacity="1"/><stop id="stop872-1" offset="1" stop-color="#ff3939" stop-opacity="1"/></linearGradient><linearGradient id="linearGradient837" x1="24.177" x2="24.177" y1="-1052.185" y2="-1005.204" gradientUnits="userSpaceOnUse" xlink:href="#linearGradient868-6"/><style id="style2464" type="text/css"/><style id="style2464-7" type="text/css"/><linearGradient id="linearGradient4611" x1="26.676" x2="26.676" y1="1043.741" y2="1013.008" gradientUnits="userSpaceOnUse" xlink:href="#linearGradient4613"/></defs><metadata id="metadata7"/><g id="layer1" transform="translate(0,-1004.3622)"><rect id="rect2991-1" width="48" height="48" x="0" y="-1052.362" fill="url(#linearGradient837)" fill-opacity="1" stroke="none" ry="1.945" transform="scale(1,-1)"/><path id="path4625" fill="#000" fill-opacity=".059" fill-rule="evenodd" stroke="none" d="m 6.052358,1014.1622 c 0.0134,-0.021 0.04512,30.7133 0.04512,30.758 0.04283,0.04 12.832687,-30.7734 12.795221,-30.758 l -12.840343,0 z m 22.615726,0 c 0,0 13.278466,30.8715 13.27046,30.7729 -2e-6,0.043 0.0091,-30.6913 0.0091,-30.7729 l -13.279483,0 z m -4.809489,11.7094 c 0.08288,-0.063 -5.511059,12.8588 -5.564449,12.8434 l 5.907339,0 c -0.02689,0.031 2.56867,6.1856 2.56867,6.2472 l 5.477223,0 c 0.008,0.017 -8.351193,-19.0521 -8.388783,-19.0906 z"/><path id="path4623" fill="#000" fill-opacity=".118" fill-rule="evenodd" stroke="none" d="m 6.052358,1013.7622 c 0.0134,-0.021 0.04512,30.7133 0.04512,30.758 0.04283,0.04 12.832687,-30.7734 12.795221,-30.758 l -12.840343,0 z m 22.615726,0 c 0,0 13.278466,30.8715 13.27046,30.7729 -2e-6,0.043 0.0091,-30.6913 0.0091,-30.7729 l -13.279483,0 z m -4.809489,11.7094 c 0.08288,-0.063 -5.511059,12.8588 -5.564449,12.8434 l 5.907339,0 c -0.02689,0.031 2.56867,6.1856 2.56867,6.2472 l 5.477223,0 c 0.008,0.017 -8.351193,-19.0521 -8.388783,-19.0906 z"/><path id="path4619" fill="#000" fill-opacity=".235" fill-rule="evenodd" stroke="none" d="m 6.052358,1013.3622 c 0.0134,-0.021 0.04512,30.7133 0.04512,30.758 0.04283,0.04 12.832687,-30.7734 12.795221,-30.758 l -12.840343,0 z m 22.615726,0 c 0,0 13.278466,30.8715 13.27046,30.7729 -2e-6,0.043 0.0091,-30.6913 0.0091,-30.7729 l -13.279483,0 z m -4.809489,11.7094 c 0.08288,-0.063 -5.511059,12.8588 -5.564449,12.8434 l 5.907339,0 c -0.02689,0.031 2.56867,6.1856 2.56867,6.2472 l 5.477223,0 c 0.008,0.017 -8.351193,-19.0521 -8.388783,-19.0906 z"/><path id="rect846" fill="#000" fill-opacity="1" stroke="none" d="m 4.7011719e-7,1049.3622 0,1.0625 c 0,1.0773 0.86022299988281,1.9375 1.93750002988281,1.9375 l 44.1249995,0 c 1.077278,0 1.937501,-0.8602 1.937501,-1.9375 l 0,-1.0625 c 0,1.0773 -0.860223,1.9375 -1.937501,1.9375 l -44.1249995,0 C 0.86022347,1051.2997 4.7011719e-7,1050.4395 4.7011719e-7,1049.3622 Z"/><path id="path7515" fill="#fff" fill-opacity=".537" stroke="none" d="m 2.5312505,1005.0185 c -0.917088,0 -1.67114603,0.6395 -1.84375003,1.5 0.33561203,-0.2799 0.77451303,-0.4375 1.25000003,-0.4375 l 44.1249995,0 c 0.475488,0 0.914388,0.1576 1.250001,0.4375 -0.172603,-0.8605 -0.926663,-1.5 -1.843751,-1.5 L 2.5312505,1005.0185 Z"/><path id="rect4280-4" fill="#000" fill-opacity=".392" stroke="none" d="m 1.9375005,1004.3622 c -1.07727703,0 -1.93750002988281,0.8602 -1.93750002988281,1.9375 l 0,43.0625 c 0,0.7934 0.48002399988281,1.449 1.15625002988281,1.75 -0.30934103,-0.3333 -0.50000003,-0.7824 -0.50000003,-1.2812 l 0,-42.9375 c 0,-1.0482 0.82689903,-1.875 1.87500003,-1.875 l 42.9374995,0 c 1.048101,0 1.875001,0.8268 1.875001,1.875 l 0,42.9375 c 0,0.4988 -0.190658,0.9479 -0.500001,1.2812 0.676227,-0.301 1.156251,-0.9566 1.156251,-1.75 l 0,-43.0625 c 0,-1.0773 -0.860223,-1.9375 -1.937501,-1.9375 L 1.9375005,1004.3622 Z"/><path id="path16-8" fill="url(#linearGradient4611)" fill-opacity="1" fill-rule="evenodd" stroke="none" d="m 6.052358,1012.9622 c 0.0134,-0.021 0.04512,30.7133 0.04512,30.758 0.04283,0.04 12.832687,-30.7734 12.795221,-30.758 l -12.840343,0 z m 22.615726,0 c 0,0 13.278466,30.8715 13.27046,30.7729 -2e-6,0.043 0.0091,-30.6913 0.0091,-30.7729 l -13.279483,0 z m -4.809489,11.7094 c 0.08288,-0.063 -5.511059,12.8588 -5.564449,12.8434 l 5.907339,0 c -0.02689,0.031 2.56867,6.1856 2.56867,6.2472 l 5.477223,0 c 0.008,0.017 -8.351193,-19.0521 -8.388783,-19.0906 z"/><path id="path4627" fill="#b00404" fill-opacity=".314" fill-rule="evenodd" stroke="none" d="M 6.0527344 8.5996094 C 6.0661344 8.5786094 6.0976562 39.312722 6.0976562 39.357422 C 6.1404863 39.397422 18.930044 8.5842094 18.892578 8.5996094 L 18.5625 8.5996094 C 17.967242 10.102799 6.1393747 38.597556 6.0976562 38.558594 C 6.0976562 38.515055 6.0686335 10.094823 6.0546875 8.5996094 L 6.0527344 8.5996094 z M 28.667969 8.5996094 C 28.667969 8.5996094 41.947459 39.471647 41.939453 39.373047 C 41.939453 39.374166 41.939441 38.611745 41.939453 38.572266 C 41.947251 38.668307 29.665583 10.119744 29.011719 8.5996094 L 28.667969 8.5996094 z M 18.646484 32.353516 C 18.603209 32.44594 18.298234 33.153299 18.294922 33.152344 L 24.201172 33.152344 C 24.174282 33.183344 26.769531 39.338791 26.769531 39.400391 L 32.248047 39.400391 C 32.248382 39.401104 31.92435 38.663222 31.896484 38.599609 L 26.769531 38.599609 C 26.769531 38.538009 24.174282 32.384516 24.201172 32.353516 L 18.646484 32.353516 z" transform="translate(0,1004.3622)"/><path id="path4632" fill="#fff" fill-opacity=".235" fill-rule="evenodd" stroke="none" d="M 6.0527344 8.5996094 C 6.0529088 8.599336 6.0525538 8.9899856 6.0527344 9 L 18.726562 9 C 18.730363 8.9898949 18.893066 8.599409 18.892578 8.5996094 L 6.0527344 8.5996094 z M 28.667969 8.5996094 C 28.667969 8.5996094 28.835413 8.989699 28.839844 9 L 41.947266 9 C 41.947269 8.9886956 41.947266 8.6006711 41.947266 8.5996094 L 28.667969 8.5996094 z M 23.859375 20.308594 C 23.942255 20.245594 18.348312 33.167744 18.294922 33.152344 L 18.470703 33.152344 C 18.845632 32.412343 23.939679 20.647942 23.859375 20.708984 C 23.896177 20.746677 31.743736 38.649791 32.072266 39.400391 L 32.248047 39.400391 C 32.256047 39.417391 23.896965 20.347094 23.859375 20.308594 z" transform="translate(0,1004.3622)"/></g></svg>