<svg xmlns="http://www.w3.org/2000/svg" xmlns:svg="http://www.w3.org/2000/svg" xmlns:xlink="http://www.w3.org/1999/xlink" id="svg2" width="48" height="48" version="1.1"><defs id="defs4"><linearGradient id="linearGradient4682"><stop id="stop4684" offset="0" stop-color="#d7d2e6" stop-opacity="1"/><stop id="stop4686" offset="1" stop-color="#faf9fb" stop-opacity="1"/></linearGradient><linearGradient id="linearGradient868-6"><stop id="stop870-0" offset="0" stop-color="#5d4b8b" stop-opacity="1"/><stop id="stop872-1" offset="1" stop-color="#6d589a" stop-opacity="1"/></linearGradient><linearGradient id="linearGradient837" x1="24.177" x2="24.177" y1="-1052.36" y2="-1004.364" gradientUnits="userSpaceOnUse" xlink:href="#linearGradient868-6"/><defs id="defs4922"><filter id="Adobe_OpacityMaskFilter" width="5.883" height="73.013" x="3.785" y="4.675" color-interpolation-filters="sRGB" filterUnits="userSpaceOnUse"><feColorMatrix id="feColorMatrix4925" type="matrix" values="1 0 0 0 0 0 1 0 0 0 0 0 1 0 0 0 0 0 1 0"/></filter></defs><mask id="SVGID_2_" width="5.883" height="73.013" x="3.785" y="4.675" maskUnits="userSpaceOnUse"><g id="g4928" filter="url(#Adobe_OpacityMaskFilter)"><linearGradient id="SVGID_3_" x1="3.785" x2="9.668" y1="41.181" y2="41.181" gradientUnits="userSpaceOnUse"><stop id="stop4931" offset="0" stop-color="#FFF"/><stop id="stop4933" offset=".003" stop-color="#FAFBFB"/><stop id="stop4935" offset=".076" stop-color="#BBBDBF"/><stop id="stop4937" offset=".144" stop-color="#898B8E"/><stop id="stop4939" offset=".205" stop-color="#646567"/><stop id="stop4941" offset=".259" stop-color="#444446"/><stop id="stop4943" offset=".303" stop-color="#1D1C1D"/><stop id="stop4945" offset=".331" stop-color="#000"/></linearGradient><rect id="rect4947" width="5.883" height="73.013" x="3.785" y="4.675" fill="url(#SVGID_3_)"/></g></mask><linearGradient id="linearGradient4680" x1="24.967" x2="24.967" y1="1035.984" y2="1020.804" gradientUnits="userSpaceOnUse" xlink:href="#linearGradient4682"/></defs><metadata id="metadata7"/><g id="layer1" transform="translate(0,-1004.3622)"><rect id="rect2991-1" width="48" height="48" x="0" y="-1052.362" fill="url(#linearGradient837)" fill-opacity="1" stroke="none" ry="1.945" transform="scale(1,-1)"/><path id="path4694" fill="#000" fill-opacity=".059" stroke="none" d="m 17.014647,1022.0622 -4.621094,14.7578 2.716797,0 1.240234,-4.1816 4.578126,0 1.304688,4.1816 2.824219,0 -4.685547,-14.7578 -3.357422,0 z m 1.560547,2.1445 0.04297,0 c 0.213867,0.8537 0.450183,1.8621 0.728515,2.7598 l 1.132813,3.6348 -3.701172,0 1.113281,-3.6348 c 0.256556,-0.8758 0.46951,-1.9061 0.683594,-2.7598 z m 12.537109,1.709 c -3.33739,0 -5.091797,2.7804 -5.091797,5.7363 0,3.2626 1.991232,5.4102 5.371094,5.4102 1.49816,0 2.738124,-0.3079 3.636719,-0.6797 l -0.384766,-1.8613 c -0.791659,0.3068 -1.669274,0.4805 -2.888672,0.4805 -1.668695,0 -3.144952,-0.8306 -3.208984,-2.7579 l 6.974609,0 c 0.0429,-0.2408 0.08594,-0.6352 0.08594,-1.1386 0,-2.3429 -1.092935,-5.1895 -4.494141,-5.1895 z m -0.148437,1.8399 c 1.75407,0 2.1815,1.6203 2.160156,2.6054 l -4.578125,0 c 0.106504,-1.0948 0.791961,-2.6054 2.417969,-2.6054 z"/><path id="path4692" fill="#000" fill-opacity=".118" stroke="none" d="m 17.014647,1021.6622 -4.621094,14.7578 2.716797,0 1.240234,-4.1816 4.578126,0 1.304688,4.1816 2.824219,0 -4.685547,-14.7578 -3.357422,0 z m 1.560547,2.1445 0.04297,0 c 0.213867,0.8537 0.450183,1.8621 0.728515,2.7598 l 1.132813,3.6348 -3.701172,0 1.113281,-3.6348 c 0.256556,-0.8758 0.46951,-1.9061 0.683594,-2.7598 z m 12.537109,1.709 c -3.33739,0 -5.091797,2.7804 -5.091797,5.7363 0,3.2626 1.991232,5.4102 5.371094,5.4102 1.49816,0 2.738124,-0.3079 3.636719,-0.6797 l -0.384766,-1.8613 c -0.791659,0.3068 -1.669274,0.4805 -2.888672,0.4805 -1.668695,0 -3.144952,-0.8306 -3.208984,-2.7579 l 6.974609,0 c 0.0429,-0.2408 0.08594,-0.6352 0.08594,-1.1386 0,-2.3429 -1.092935,-5.1895 -4.494141,-5.1895 z m -0.148437,1.8399 c 1.75407,0 2.1815,1.6203 2.160156,2.6054 l -4.578125,0 c 0.106504,-1.0948 0.791961,-2.6054 2.417969,-2.6054 z"/><path id="rect846" fill="#000" fill-opacity="1" stroke="none" d="m 4.7011719e-7,1049.3622 0,1.0625 c 0,1.0773 0.86022299988281,1.9375 1.93750002988281,1.9375 l 44.1249995,0 c 1.077278,0 1.937501,-0.8602 1.937501,-1.9375 l 0,-1.0625 c 0,1.0773 -0.860223,1.9375 -1.937501,1.9375 l -44.1249995,0 C 0.86022347,1051.2997 4.7011719e-7,1050.4395 4.7011719e-7,1049.3622 Z"/><path id="path7515" fill="#fff" fill-opacity=".537" stroke="none" d="m 2.5312505,1005.0185 c -0.917088,0 -1.67114603,0.6395 -1.84375003,1.5 0.33561203,-0.2799 0.77451303,-0.4375 1.25000003,-0.4375 l 44.1249995,0 c 0.475488,0 0.914388,0.1576 1.250001,0.4375 -0.172603,-0.8605 -0.926663,-1.5 -1.843751,-1.5 L 2.5312505,1005.0185 Z"/><path id="rect4280-4" fill="#000" fill-opacity=".392" stroke="none" d="m 1.9375005,1004.3622 c -1.07727703,0 -1.93750002988281,0.8602 -1.93750002988281,1.9375 l 0,43.0625 c 0,0.7934 0.48002399988281,1.449 1.15625002988281,1.75 -0.30934103,-0.3333 -0.50000003,-0.7824 -0.50000003,-1.2812 l 0,-42.9375 c 0,-1.0482 0.82689903,-1.875 1.87500003,-1.875 l 42.9374995,0 c 1.048101,0 1.875001,0.8268 1.875001,1.875 l 0,42.9375 c 0,0.4988 -0.190658,0.9479 -0.500001,1.2812 0.676227,-0.301 1.156251,-0.9566 1.156251,-1.75 l 0,-43.0625 c 0,-1.0773 -0.860223,-1.9375 -1.937501,-1.9375 L 1.9375005,1004.3622 Z"/><path id="path4688" fill="#000" fill-opacity=".235" stroke="none" d="m 17.014647,1021.2622 -4.621094,14.7578 2.716797,0 1.240234,-4.1816 4.578126,0 1.304688,4.1816 2.824219,0 -4.685547,-14.7578 -3.357422,0 z m 1.560547,2.1445 0.04297,0 c 0.213867,0.8537 0.450183,1.8621 0.728515,2.7598 l 1.132813,3.6348 -3.701172,0 1.113281,-3.6348 c 0.256556,-0.8758 0.46951,-1.9061 0.683594,-2.7598 z m 12.537109,1.709 c -3.33739,0 -5.091797,2.7804 -5.091797,5.7363 0,3.2626 1.991232,5.4102 5.371094,5.4102 1.49816,0 2.738124,-0.3079 3.636719,-0.6797 l -0.384766,-1.8613 c -0.791659,0.3068 -1.669274,0.4805 -2.888672,0.4805 -1.668695,0 -3.144952,-0.8306 -3.208984,-2.7579 l 6.974609,0 c 0.0429,-0.2408 0.08594,-0.6352 0.08594,-1.1386 0,-2.3429 -1.092935,-5.1895 -4.494141,-5.1895 z m -0.148437,1.8399 c 1.75407,0 2.1815,1.6203 2.160156,2.6054 l -4.578125,0 c 0.106504,-1.0948 0.791961,-2.6054 2.417969,-2.6054 z"/><path id="path588-4" fill="url(#linearGradient4680)" fill-opacity="1" stroke="none" d="m 17.014647,1020.8622 -4.621094,14.7578 2.716797,0 1.240234,-4.1816 4.578126,0 1.304688,4.1816 2.824219,0 -4.685547,-14.7578 -3.357422,0 z m 1.560547,2.1445 0.04297,0 c 0.213867,0.8537 0.450183,1.8621 0.728515,2.7598 l 1.132813,3.6348 -3.701172,0 1.113281,-3.6348 c 0.256556,-0.8758 0.46951,-1.9061 0.683594,-2.7598 z m 12.537109,1.709 c -3.33739,0 -5.091797,2.7804 -5.091797,5.7363 0,3.2626 1.991232,5.4102 5.371094,5.4102 1.49816,0 2.738124,-0.3079 3.636719,-0.6797 l -0.384766,-1.8613 c -0.791659,0.3068 -1.669274,0.4805 -2.888672,0.4805 -1.668695,0 -3.144952,-0.8306 -3.208984,-2.7579 l 6.974609,0 c 0.0429,-0.2408 0.08594,-0.6352 0.08594,-1.1386 0,-2.3429 -1.092935,-5.1895 -4.494141,-5.1895 z m -0.148437,1.8399 c 1.75407,0 2.1815,1.6203 2.160156,2.6054 l -4.578125,0 c 0.106504,-1.0948 0.791961,-2.6054 2.417969,-2.6054 z"/><path id="path4696" fill="#5f4c8c" fill-opacity=".314" stroke="none" d="M 18.574219 17.84375 C 18.360135 18.69745 18.147181 19.727716 17.890625 20.603516 L 16.777344 24.238281 L 17.023438 24.238281 L 17.890625 21.404297 C 18.147181 20.528497 18.360135 19.498231 18.574219 18.644531 L 18.617188 18.644531 C 18.831055 19.498231 19.067371 20.506597 19.345703 21.404297 L 20.228516 24.238281 L 20.478516 24.238281 L 19.345703 20.603516 C 19.067371 19.705816 18.831055 18.69745 18.617188 17.84375 L 18.574219 17.84375 z M 30.962891 21.392578 C 29.336883 21.392578 28.651426 22.903247 28.544922 23.998047 L 28.720703 23.998047 C 29.022963 23.087139 29.712052 22.193359 30.962891 22.193359 C 32.2895 22.193359 32.858162 23.120173 33.046875 23.998047 L 33.123047 23.998047 C 33.144391 23.012947 32.716961 21.392578 30.962891 21.392578 z M 35.587891 25.220703 C 35.571657 25.490004 35.547065 25.72631 35.519531 25.880859 L 28.544922 25.880859 C 28.55473 26.176071 28.607995 26.436935 28.679688 26.681641 L 35.519531 26.681641 C 35.562431 26.440841 35.607422 26.046369 35.607422 25.542969 C 35.607422 25.437694 35.592414 25.327708 35.587891 25.220703 z M 26.050781 25.675781 C 26.042969 25.814358 26.019531 25.950209 26.019531 26.089844 C 26.019531 29.352444 28.010763 31.5 31.390625 31.5 C 32.888785 31.5 34.128749 31.192112 35.027344 30.820312 L 34.873047 30.074219 C 33.987832 30.419593 32.810392 30.699219 31.390625 30.699219 C 28.150423 30.699219 26.207555 28.713538 26.050781 25.675781 z M 16.349609 26.275391 L 15.109375 30.457031 L 12.642578 30.457031 L 12.392578 31.257812 L 15.109375 31.257812 L 16.349609 27.076172 L 20.927734 27.076172 L 22.232422 31.257812 L 25.056641 31.257812 L 24.802734 30.457031 L 22.232422 30.457031 L 20.927734 26.275391 L 16.349609 26.275391 z" transform="translate(0,1004.3622)"/><path id="path4701" fill="#fff" fill-opacity=".235" stroke="none" d="M 17.013672 16.5 L 12.392578 31.257812 L 12.517578 31.257812 L 17.013672 16.900391 L 20.371094 16.900391 L 24.929688 31.257812 L 25.056641 31.257812 L 20.371094 16.5 L 17.013672 16.5 z M 31.111328 20.353516 C 27.773938 20.353516 26.019531 23.133944 26.019531 26.089844 C 26.019531 26.157251 26.033462 26.216757 26.035156 26.283203 C 26.115982 23.406634 27.852766 20.753906 31.111328 20.753906 C 34.436581 20.753906 35.549341 23.472262 35.597656 25.783203 C 35.600189 25.699989 35.607422 25.633491 35.607422 25.542969 C 35.607422 23.200069 34.512534 20.353516 31.111328 20.353516 z M 28.609375 24.798828 C 28.580267 24.935888 28.557442 25.070521 28.544922 25.199219 L 33.123047 25.199219 C 33.125751 25.074434 33.122858 24.939413 33.109375 24.798828 L 28.609375 24.798828 z M 16.900391 25.039062 L 16.777344 25.439453 L 20.478516 25.439453 L 20.353516 25.039062 L 16.900391 25.039062 z M 28.544922 27.082031 C 28.608954 29.009331 30.085211 29.839844 31.753906 29.839844 C 32.973304 29.839844 33.850919 29.666175 34.642578 29.359375 L 34.951172 30.847656 C 34.974873 30.838128 35.004098 30.829931 35.027344 30.820312 L 34.642578 28.958984 C 33.850919 29.265784 32.973304 29.439453 31.753906 29.439453 C 30.209529 29.439453 28.845397 28.715881 28.597656 27.082031 L 28.544922 27.082031 z" transform="translate(0,1004.3622)"/></g></svg>