<svg xmlns="http://www.w3.org/2000/svg" xmlns:svg="http://www.w3.org/2000/svg" xmlns:xlink="http://www.w3.org/1999/xlink" id="svg2" width="48" height="48" version="1.1"><defs id="defs4"><linearGradient id="linearGradient4635"><stop id="stop4637" offset="0" stop-color="#dcdcdc" stop-opacity="1"/><stop id="stop4639" offset="1" stop-color="#fafafa" stop-opacity="1"/></linearGradient><linearGradient id="linearGradient837" x1="24.177" x2="24.177" y1="-1052.36" y2="-1004.364" gradientUnits="userSpaceOnUse" xlink:href="#linearGradient3287"/><linearGradient id="linearGradient3287"><stop id="stop3289" offset="0" stop-color="silver" stop-opacity="1"/><stop id="stop3291" offset="1" stop-color="#cfcfcf" stop-opacity="1"/></linearGradient><defs id="defs4922"><filter id="Adobe_OpacityMaskFilter" width="5.883" height="73.013" x="3.785" y="4.675" color-interpolation-filters="sRGB" filterUnits="userSpaceOnUse"><feColorMatrix id="feColorMatrix4925" type="matrix" values="1 0 0 0 0 0 1 0 0 0 0 0 1 0 0 0 0 0 1 0"/></filter></defs><mask id="SVGID_2_" width="5.883" height="73.013" x="3.785" y="4.675" maskUnits="userSpaceOnUse"><g id="g4928" filter="url(#Adobe_OpacityMaskFilter)"><linearGradient id="SVGID_3_" x1="3.785" x2="9.668" y1="41.181" y2="41.181" gradientUnits="userSpaceOnUse"><stop id="stop4931" offset="0" stop-color="#FFF"/><stop id="stop4933" offset=".003" stop-color="#FAFBFB"/><stop id="stop4935" offset=".076" stop-color="#BBBDBF"/><stop id="stop4937" offset=".144" stop-color="#898B8E"/><stop id="stop4939" offset=".205" stop-color="#646567"/><stop id="stop4941" offset=".259" stop-color="#444446"/><stop id="stop4943" offset=".303" stop-color="#1D1C1D"/><stop id="stop4945" offset=".331" stop-color="#000"/></linearGradient><rect id="rect4947" width="5.883" height="73.013" x="3.785" y="4.675" fill="url(#SVGID_3_)"/></g></mask><linearGradient id="linearGradient4633" x1="24.671" x2="24.671" y1="1035.915" y2="1020.883" gradientUnits="userSpaceOnUse" xlink:href="#linearGradient4635"/></defs><metadata id="metadata7"/><g id="layer1" transform="translate(0,-1004.3622)"><rect id="rect2991-1" width="48" height="48" x="0" y="-1052.362" fill="url(#linearGradient837)" fill-opacity="1" stroke="none" ry="1.945" transform="scale(1,-1)"/><path id="path4656" fill="#000" fill-opacity=".059" stroke="none" d="m 24.225513,1022.0622 0,11.9199 c 0,1.0401 -0.03783,2.1649 -0.07617,2.8516 l 2.095704,0 0.09375,-1.6035 0.03906,0 c 0.55262,1.1234 1.674923,1.832 3.027344,1.832 2.208767,0 3.960937,-2.061 3.960937,-5.1816 0.0195,-3.3911 -1.923656,-5.4082 -4.152343,-5.4082 -1.275953,0 -2.188459,0.583 -2.607422,1.332 l -0.03906,0 0,-5.7422 -2.341797,0 z m -9.591797,0.6543 0,14.0215 2.558594,0 0,-5.9492 5.158203,0 0,-2.1016 -5.158203,0 0,-3.8691 5.533203,0 0,-2.1016 -8.091797,0 z m 14.009766,5.7324 c 1.504284,0 2.341797,1.4563 2.341797,3.3496 0,1.8515 -0.836617,3.2032 -2.322266,3.2032 -0.952306,0 -1.790772,-0.7062 -2.019531,-1.8086 -0.05698,-0.229 -0.07617,-0.4794 -0.07617,-0.75 l 0,-1.5176 c 0,-0.2082 0.01873,-0.4578 0.05664,-0.666 0.20991,-0.9984 0.952631,-1.8106 2.019531,-1.8106 z"/><path id="path4641" fill="#000" fill-opacity=".118" stroke="none" d="m 24.225513,1021.6622 0,11.9199 c 0,1.0401 -0.03783,2.1649 -0.07617,2.8516 l 2.095704,0 0.09375,-1.6035 0.03906,0 c 0.55262,1.1234 1.674923,1.832 3.027344,1.832 2.208767,0 3.960937,-2.061 3.960937,-5.1816 0.0195,-3.3911 -1.923656,-5.4082 -4.152343,-5.4082 -1.275953,0 -2.188459,0.583 -2.607422,1.332 l -0.03906,0 0,-5.7422 -2.341797,0 z m -9.591797,0.6543 0,14.0215 2.558594,0 0,-5.9492 5.158203,0 0,-2.1016 -5.158203,0 0,-3.8691 5.533203,0 0,-2.1016 -8.091797,0 z m 14.009766,5.7324 c 1.504284,0 2.341797,1.4563 2.341797,3.3496 0,1.8515 -0.836617,3.2032 -2.322266,3.2032 -0.952306,0 -1.790772,-0.7062 -2.019531,-1.8086 -0.05698,-0.229 -0.07617,-0.4794 -0.07617,-0.75 l 0,-1.5176 c 0,-0.2082 0.01873,-0.4578 0.05664,-0.666 0.20991,-0.9984 0.952631,-1.8106 2.019531,-1.8106 z"/><path id="path4645" fill="#000" fill-opacity=".235" stroke="none" d="m 24.225513,1021.2622 0,11.9199 c 0,1.0401 -0.03783,2.1649 -0.07617,2.8516 l 2.095704,0 0.09375,-1.6035 0.03906,0 c 0.55262,1.1234 1.674923,1.832 3.027344,1.832 2.208767,0 3.960937,-2.061 3.960937,-5.1816 0.0195,-3.3911 -1.923656,-5.4082 -4.152343,-5.4082 -1.275953,0 -2.188459,0.583 -2.607422,1.332 l -0.03906,0 0,-5.7422 -2.341797,0 z m -9.591797,0.6543 0,14.0215 2.558594,0 0,-5.9492 5.158203,0 0,-2.1016 -5.158203,0 0,-3.8691 5.533203,0 0,-2.1016 -8.091797,0 z m 14.009766,5.7324 c 1.504284,0 2.341797,1.4563 2.341797,3.3496 0,1.8515 -0.836617,3.2032 -2.322266,3.2032 -0.952306,0 -1.790772,-0.7062 -2.019531,-1.8086 -0.05698,-0.229 -0.07617,-0.4794 -0.07617,-0.75 l 0,-1.5176 c 0,-0.2082 0.01873,-0.4578 0.05664,-0.666 0.20991,-0.9984 0.952631,-1.8106 2.019531,-1.8106 z"/><path id="rect846" fill="#000" fill-opacity="1" stroke="none" d="m 4.7011719e-7,1049.3622 0,1.0625 c 0,1.0773 0.86022299988281,1.9375 1.93750002988281,1.9375 l 44.1249995,0 c 1.077278,0 1.937501,-0.8602 1.937501,-1.9375 l 0,-1.0625 c 0,1.0773 -0.860223,1.9375 -1.937501,1.9375 l -44.1249995,0 C 0.86022347,1051.2997 4.7011719e-7,1050.4395 4.7011719e-7,1049.3622 Z"/><path id="path7515" fill="#fff" fill-opacity=".537" stroke="none" d="m 2.5312505,1005.0185 c -0.917088,0 -1.67114603,0.6395 -1.84375003,1.5 0.33561203,-0.2799 0.77451303,-0.4375 1.25000003,-0.4375 l 44.1249995,0 c 0.475488,0 0.914388,0.1576 1.250001,0.4375 -0.172603,-0.8605 -0.926663,-1.5 -1.843751,-1.5 L 2.5312505,1005.0185 Z"/><path id="rect4280-4" fill="#000" fill-opacity=".392" stroke="none" d="m 1.9375005,1004.3622 c -1.07727703,0 -1.93750002988281,0.8602 -1.93750002988281,1.9375 l 0,43.0625 c 0,0.7934 0.48002399988281,1.449 1.15625002988281,1.75 -0.30934103,-0.3333 -0.50000003,-0.7824 -0.50000003,-1.2812 l 0,-42.9375 c 0,-1.0482 0.82689903,-1.875 1.87500003,-1.875 l 42.9374995,0 c 1.048101,0 1.875001,0.8268 1.875001,1.875 l 0,42.9375 c 0,0.4988 -0.190658,0.9479 -0.500001,1.2812 0.676227,-0.301 1.156251,-0.9566 1.156251,-1.75 l 0,-43.0625 c 0,-1.0773 -0.860223,-1.9375 -1.937501,-1.9375 L 1.9375005,1004.3622 Z"/><path id="path2240-3" fill="url(#linearGradient4633)" fill-opacity="1" stroke="none" d="m 24.225513,1020.8622 0,11.9199 c 0,1.0401 -0.03783,2.1649 -0.07617,2.8516 l 2.095704,0 0.09375,-1.6035 0.03906,0 c 0.55262,1.1234 1.674923,1.832 3.027344,1.832 2.208767,0 3.960937,-2.061 3.960937,-5.1816 0.0195,-3.3911 -1.923656,-5.4082 -4.152343,-5.4082 -1.275953,0 -2.188459,0.583 -2.607422,1.332 l -0.03906,0 0,-5.7422 -2.341797,0 z m -9.591797,0.6543 0,14.0215 2.558594,0 0,-5.9492 5.158203,0 0,-2.1016 -5.158203,0 0,-3.8691 5.533203,0 0,-2.1016 -8.091797,0 z m 14.009766,5.7324 c 1.504284,0 2.341797,1.4563 2.341797,3.3496 0,1.8515 -0.836617,3.2032 -2.322266,3.2032 -0.952306,0 -1.790772,-0.7062 -2.019531,-1.8086 -0.05698,-0.229 -0.07617,-0.4794 -0.07617,-0.75 l 0,-1.5176 c 0,-0.2082 0.01873,-0.4578 0.05664,-0.666 0.20991,-0.9984 0.952631,-1.8106 2.019531,-1.8106 z"/><path id="path4658" fill="#9d9d9d" fill-opacity=".314" stroke="none" d="M 17.191406 18.455078 L 17.191406 19.255859 L 22.724609 19.255859 L 22.724609 18.455078 L 17.191406 18.455078 z M 28.642578 22.085938 C 27.575678 22.085938 26.832957 22.898084 26.623047 23.896484 C 26.585137 24.104684 26.566406 24.3543 26.566406 24.5625 L 26.566406 25.363281 C 26.566406 25.155081 26.585137 24.905466 26.623047 24.697266 C 26.832957 23.698866 27.575678 22.886719 28.642578 22.886719 C 30.035757 22.886719 30.849175 24.141551 30.962891 25.830078 C 30.971882 25.699543 30.984375 25.571838 30.984375 25.435547 C 30.984375 23.542247 30.146862 22.085938 28.642578 22.085938 z M 17.191406 24.425781 L 17.191406 25.226562 L 22.349609 25.226562 L 22.349609 24.425781 L 17.191406 24.425781 z M 33.337891 25.908203 C 33.194024 28.802399 31.516694 30.699219 29.404297 30.699219 C 28.051876 30.699219 26.929573 29.990587 26.376953 28.867188 L 26.337891 28.867188 L 26.244141 30.470703 L 24.169922 30.470703 C 24.160062 30.721065 24.159204 31.078643 24.148438 31.271484 L 26.244141 31.271484 L 26.337891 29.667969 L 26.376953 29.667969 C 26.929573 30.791369 28.051876 31.5 29.404297 31.5 C 31.613064 31.5 33.365234 29.438959 33.365234 26.318359 C 33.366064 26.174084 33.344037 26.047454 33.337891 25.908203 z M 14.632812 30.375 L 14.632812 31.175781 L 17.191406 31.175781 L 17.191406 30.375 L 14.632812 30.375 z" transform="translate(0,1004.3622)"/><path id="path4663" fill="#fff" fill-opacity=".235" stroke="none" d="M 24.224609 16.5 L 24.224609 16.900391 L 26.566406 16.900391 L 26.566406 16.5 L 24.224609 16.5 z M 14.632812 17.154297 L 14.632812 17.554688 L 22.724609 17.554688 L 22.724609 17.154297 L 14.632812 17.154297 z M 29.212891 20.910156 C 27.936938 20.910156 27.024432 21.493187 26.605469 22.242188 L 26.566406 22.242188 L 26.566406 22.642578 L 26.605469 22.642578 C 27.024432 21.893578 27.936938 21.310547 29.212891 21.310547 C 31.394244 21.310547 33.289792 23.252 33.351562 26.513672 C 33.353217 26.446614 33.365234 26.386436 33.365234 26.318359 C 33.384734 22.927259 31.441578 20.910156 29.212891 20.910156 z M 17.191406 23.125 L 17.191406 23.525391 L 22.349609 23.525391 L 22.349609 23.125 L 17.191406 23.125 z M 30.972656 26.433594 C 30.913568 28.180371 30.093063 29.439453 28.662109 29.439453 C 27.709803 29.439453 26.871337 28.733259 26.642578 27.630859 C 26.585598 27.401859 26.566406 27.151459 26.566406 26.880859 L 26.566406 27.28125 C 26.566406 27.55185 26.585598 27.80225 26.642578 28.03125 C 26.871337 29.13365 27.709803 29.839844 28.662109 29.839844 C 30.147758 29.839844 30.984375 28.488219 30.984375 26.636719 C 30.984375 26.566782 30.974933 26.502287 30.972656 26.433594 z M 24.224609 28.419922 C 24.224609 29.460022 24.186778 30.584784 24.148438 31.271484 L 24.158203 31.271484 C 24.190405 30.584309 24.224609 29.71438 24.224609 28.820312 L 24.224609 28.419922 z" transform="translate(0,1004.3622)"/></g></svg>