<svg xmlns="http://www.w3.org/2000/svg" xmlns:svg="http://www.w3.org/2000/svg" xmlns:xlink="http://www.w3.org/1999/xlink" id="svg2" width="48" height="48" version="1.1"><defs id="defs4"><linearGradient id="linearGradient4843"><stop id="stop4845" offset="0" stop-color="#d3e1e5" stop-opacity="1"/><stop id="stop4847" offset="1" stop-color="#f8fbfc" stop-opacity="1"/></linearGradient><linearGradient id="linearGradient837" x1="24.177" x2="24.177" y1="-1052.36" y2="-1004.364" gradientUnits="userSpaceOnUse" xlink:href="#linearGradient4216"/><linearGradient id="linearGradient4216"><stop id="stop4218" offset="0" stop-color="#a6c2cb" stop-opacity="1"/><stop id="stop4220" offset="1" stop-color="#c4e2eb" stop-opacity="1"/></linearGradient><defs id="defs4922"><filter id="Adobe_OpacityMaskFilter" width="5.883" height="73.013" x="3.785" y="4.675" color-interpolation-filters="sRGB" filterUnits="userSpaceOnUse"><feColorMatrix id="feColorMatrix4925" type="matrix" values="1 0 0 0 0 0 1 0 0 0 0 0 1 0 0 0 0 0 1 0"/></filter></defs><mask id="SVGID_2_" width="5.883" height="73.013" x="3.785" y="4.675" maskUnits="userSpaceOnUse"><g id="g4928" filter="url(#Adobe_OpacityMaskFilter)"><linearGradient id="SVGID_3_" x1="3.785" x2="9.668" y1="41.181" y2="41.181" gradientUnits="userSpaceOnUse"><stop id="stop4931" offset="0" stop-color="#FFF"/><stop id="stop4933" offset=".003" stop-color="#FAFBFB"/><stop id="stop4935" offset=".076" stop-color="#BBBDBF"/><stop id="stop4937" offset=".144" stop-color="#898B8E"/><stop id="stop4939" offset=".205" stop-color="#646567"/><stop id="stop4941" offset=".259" stop-color="#444446"/><stop id="stop4943" offset=".303" stop-color="#1D1C1D"/><stop id="stop4945" offset=".331" stop-color="#000"/></linearGradient><rect id="rect4947" width="5.883" height="73.013" x="3.785" y="4.675" fill="url(#SVGID_3_)"/></g></mask><linearGradient id="linearGradient4841" x1="24.497" x2="24.497" y1="1035.756" y2="1020.784" gradientUnits="userSpaceOnUse" xlink:href="#linearGradient4843"/></defs><metadata id="metadata7"/><g id="layer1" transform="translate(0,-1004.3622)"><rect id="rect2991-1" width="48" height="48" x="0" y="-1052.362" fill="url(#linearGradient837)" fill-opacity="1" stroke="none" ry="1.945" transform="scale(1,-1)"/><path id="path4855" fill="#000" fill-opacity=".059" stroke="none" d="m 15.532229,1022.0622 0,15 8.90039,0 0,-2.293 -6.164062,0 0,-12.707 -2.736328,0 z m 16.291015,3.916 c -1.157505,0 -2.426705,0.7808 -2.960937,2.3164 l -0.08984,0 -0.08789,-2.0703 -2.380859,0 c 0.06706,0.9792 0.08984,2.0256 0.08984,3.4942 l 0,7.3437 2.736328,0 0,-5.6074 c 0,-0.3117 0.04544,-0.601 0.08984,-0.8457 0.244689,-1.2238 1.133888,-2.0703 2.447265,-2.0703 0.333503,0 0.578521,0.043 0.800781,0.088 l 0,-2.5801 c -0.22226,-0.044 -0.377863,-0.068 -0.644531,-0.068 z"/><path id="path4853" fill="#000" fill-opacity=".118" stroke="none" d="m 15.532229,1021.6622 0,15 8.90039,0 0,-2.293 -6.164062,0 0,-12.707 -2.736328,0 z m 16.291015,3.916 c -1.157505,0 -2.426705,0.7808 -2.960937,2.3164 l -0.08984,0 -0.08789,-2.0703 -2.380859,0 c 0.06706,0.9792 0.08984,2.0256 0.08984,3.4942 l 0,7.3437 2.736328,0 0,-5.6074 c 0,-0.3117 0.04544,-0.601 0.08984,-0.8457 0.244689,-1.2238 1.133888,-2.0703 2.447265,-2.0703 0.333503,0 0.578521,0.043 0.800781,0.088 l 0,-2.5801 c -0.22226,-0.044 -0.377863,-0.068 -0.644531,-0.068 z"/><path id="path4849" fill="#000" fill-opacity=".235" stroke="none" d="m 15.532229,1021.2622 0,15 8.90039,0 0,-2.293 -6.164062,0 0,-12.707 -2.736328,0 z m 16.291015,3.916 c -1.157505,0 -2.426705,0.7808 -2.960937,2.3164 l -0.08984,0 -0.08789,-2.0703 -2.380859,0 c 0.06706,0.9792 0.08984,2.0256 0.08984,3.4942 l 0,7.3437 2.736328,0 0,-5.6074 c 0,-0.3117 0.04544,-0.601 0.08984,-0.8457 0.244689,-1.2238 1.133888,-2.0703 2.447265,-2.0703 0.333503,0 0.578521,0.043 0.800781,0.088 l 0,-2.5801 c -0.22226,-0.044 -0.377863,-0.068 -0.644531,-0.068 z"/><path id="rect846" fill="#000" fill-opacity="1" stroke="none" d="m 4.7011719e-7,1049.3622 0,1.0625 c 0,1.0773 0.86022299988281,1.9375 1.93750002988281,1.9375 l 44.1249995,0 c 1.077278,0 1.937501,-0.8602 1.937501,-1.9375 l 0,-1.0625 c 0,1.0773 -0.860223,1.9375 -1.937501,1.9375 l -44.1249995,0 C 0.86022347,1051.2997 4.7011719e-7,1050.4395 4.7011719e-7,1049.3622 Z"/><path id="path7515" fill="#fff" fill-opacity=".537" stroke="none" d="m 2.5312505,1005.0185 c -0.917088,0 -1.67114603,0.6395 -1.84375003,1.5 0.33561203,-0.2799 0.77451303,-0.4375 1.25000003,-0.4375 l 44.1249995,0 c 0.475488,0 0.914388,0.1576 1.250001,0.4375 -0.172603,-0.8605 -0.926663,-1.5 -1.843751,-1.5 L 2.5312505,1005.0185 Z"/><path id="rect4280-4" fill="#000" fill-opacity=".392" stroke="none" d="m 1.9375005,1004.3622 c -1.07727703,0 -1.93750002988281,0.8602 -1.93750002988281,1.9375 l 0,43.0625 c 0,0.7934 0.48002399988281,1.449 1.15625002988281,1.75 -0.30934103,-0.3333 -0.50000003,-0.7824 -0.50000003,-1.2812 l 0,-42.9375 c 0,-1.0482 0.82689903,-1.875 1.87500003,-1.875 l 42.9374995,0 c 1.048101,0 1.875001,0.8268 1.875001,1.875 l 0,42.9375 c 0,0.4988 -0.190658,0.9479 -0.500001,1.2812 0.676227,-0.301 1.156251,-0.9566 1.156251,-1.75 l 0,-43.0625 c 0,-1.0773 -0.860223,-1.9375 -1.937501,-1.9375 L 1.9375005,1004.3622 Z"/><path id="path3488-7" fill="url(#linearGradient4841)" fill-opacity="1" stroke="none" d="m 15.532229,1020.8622 0,15 8.90039,0 0,-2.293 -6.164062,0 0,-12.707 -2.736328,0 z m 16.291015,3.916 c -1.157505,0 -2.426705,0.7808 -2.960937,2.3164 l -0.08984,0 -0.08789,-2.0703 -2.380859,0 c 0.06706,0.9792 0.08984,2.0256 0.08984,3.4942 l 0,7.3437 2.736328,0 0,-5.6074 c 0,-0.3117 0.04544,-0.601 0.08984,-0.8457 0.244689,-1.2238 1.133888,-2.0703 2.447265,-2.0703 0.333503,0 0.578521,0.043 0.800781,0.088 l 0,-2.5801 c -0.22226,-0.044 -0.377863,-0.068 -0.644531,-0.068 z"/><path id="path4857" fill="#aac6cf" fill-opacity=".314" stroke="none" d="M 26.304688 20.662109 C 26.371748 21.641309 26.394531 22.68765 26.394531 24.15625 L 26.394531 23.355469 C 26.394531 22.262731 26.373924 21.433596 26.339844 20.662109 L 26.304688 20.662109 z M 31.666016 22.175781 C 30.352639 22.175781 29.463439 23.022294 29.21875 24.246094 C 29.17435 24.490794 29.130859 24.780097 29.130859 25.091797 L 29.130859 25.892578 C 29.130859 25.580878 29.17435 25.291575 29.21875 25.046875 C 29.463439 23.823075 30.352639 22.976562 31.666016 22.976562 C 31.999519 22.976562 32.244537 23.019453 32.466797 23.064453 L 32.466797 22.263672 C 32.244537 22.218672 31.999519 22.175781 31.666016 22.175781 z M 15.533203 30.699219 L 15.533203 31.5 L 24.433594 31.5 L 24.433594 30.699219 L 15.533203 30.699219 z M 26.394531 30.699219 L 26.394531 31.5 L 29.130859 31.5 L 29.130859 30.699219 L 26.394531 30.699219 z" transform="translate(0,1004.3622)"/><path id="path4862" fill="#fff" fill-opacity=".235" stroke="none" d="M 15.533203 16.5 L 15.533203 16.900391 L 18.269531 16.900391 L 18.269531 16.5 L 15.533203 16.5 z M 31.822266 20.416016 C 30.665276 20.416877 29.397219 21.197669 28.863281 22.732422 L 28.773438 22.732422 L 28.685547 20.662109 L 26.304688 20.662109 C 26.313269 20.787414 26.315089 20.934251 26.322266 21.0625 L 28.685547 21.0625 L 28.773438 23.132812 L 28.863281 23.132812 C 29.397219 21.59806 30.665276 20.817267 31.822266 20.816406 L 31.824219 20.816406 C 32.089426 20.81655 32.245203 20.840897 32.466797 20.884766 L 32.466797 20.484375 C 32.245203 20.440507 32.089426 20.416159 31.824219 20.416016 L 31.822266 20.416016 z M 18.269531 29.207031 L 18.269531 29.607422 L 24.433594 29.607422 L 24.433594 29.207031 L 18.269531 29.207031 z" transform="translate(0,1004.3622)"/></g></svg>