<svg xmlns="http://www.w3.org/2000/svg" xmlns:svg="http://www.w3.org/2000/svg" xmlns:xlink="http://www.w3.org/1999/xlink" id="svg2" width="48" height="48" version="1.1"><defs id="defs4"><linearGradient id="linearGradient886" x1="23.688" x2="23.688" y1="-1052.518" y2="-1004.279" gradientUnits="userSpaceOnUse" xlink:href="#linearGradient893"/><linearGradient id="linearGradient893"><stop id="stop895" offset="0" stop-color="#dadada" stop-opacity="1"/><stop id="stop897" offset="1" stop-color="#e7e7e7" stop-opacity="1"/></linearGradient><linearGradient id="linearGradient5137-7" x1="360.541" x2="360.541" y1="503.957" y2="499.631" gradientTransform="matrix(0.96023546,0,0,0.94400646,-322.19924,552.78694)" gradientUnits="userSpaceOnUse" xlink:href="#linearGradient4871"/><linearGradient id="linearGradient5225" x1="10.885" x2="10.885" y1="1038.04" y2="1024.611" gradientTransform="matrix(2.2345235,0,0,2.1967253,-2.4657818,-1237.423)" gradientUnits="userSpaceOnUse" xlink:href="#linearGradient4853"/><linearGradient id="linearGradient5253" x1="388.571" x2="388.571" y1="536.798" y2="529.798" gradientTransform="matrix(4.2867655,0,0,4.2143148,-1648.1448,-1219.3694)" gradientUnits="userSpaceOnUse" xlink:href="#linearGradient5247"/><linearGradient id="linearGradient5247"><stop id="stop5249" offset="0" stop-color="#000" stop-opacity="1"/><stop id="stop5251" offset="1" stop-color="#000" stop-opacity="0"/></linearGradient><linearGradient id="linearGradient4853"><stop id="stop4855" offset="0" stop-color="#1a1a1a" stop-opacity="1"/><stop id="stop4857" offset="1" stop-color="#333" stop-opacity="1"/></linearGradient><linearGradient id="linearGradient4871"><stop id="stop4873" offset="0" stop-color="#fff" stop-opacity=".417"/><stop id="stop4875" offset="1" stop-color="#fff" stop-opacity="0"/></linearGradient></defs><metadata id="metadata7"/><g id="layer1" transform="translate(0,-1004.3622)"><rect id="rect2991-1" width="48" height="48" x="0" y="-1052.362" fill="url(#linearGradient886)" fill-opacity="1" stroke="none" ry="1.945" transform="scale(1,-1)"/><path id="rect846" fill="#000" fill-opacity="1" stroke="none" d="m -1.5e-7,1049.3622 0,1.0625 c 0,1.0773 0.8602229,1.9375 1.93749995,1.9375 l 44.1250002,0 c 1.077277,0 1.9375,-0.8602 1.9375,-1.9375 l 0,-1.0625 c 0,1.0773 -0.860223,1.9375 -1.9375,1.9375 l -44.1250002,0 C 0.86022275,1051.2997 -1.5e-7,1050.4395 -1.5e-7,1049.3622 Z"/><path id="path7515" fill="#fff" fill-opacity=".537" stroke="none" d="m 2.5312498,1005.0185 c -0.9170884,0 -1.67114675,0.6395 -1.84374995,1.5 0.33561205,-0.2799 0.77451215,-0.4375 1.24999995,-0.4375 l 44.1250002,0 c 0.475488,0 0.914388,0.1576 1.25,0.4375 -0.172603,-0.8605 -0.926662,-1.5 -1.84375,-1.5 L 2.5312498,1005.0185 Z"/><path id="rect4280" fill="#000" fill-opacity=".392" stroke="none" d="m 1.9374998,1004.3622 c -1.07727695,0 -1.93749995,0.8602 -1.93749995,1.9375 l 0,43.0625 c 0,0.7934 0.4800236,1.449 1.15624995,1.75 -0.30934165,-0.3333 -0.49999995,-0.7824 -0.49999995,-1.2812 l 0,-42.9375 c 0,-1.0482 0.82689895,-1.875 1.87499995,-1.875 l 42.9375002,0 c 1.048101,0 1.875,0.8268 1.875,1.875 l 0,42.9375 c 0,0.4988 -0.190658,0.9479 -0.5,1.2812 0.676226,-0.301 1.15625,-0.9566 1.15625,-1.75 l 0,-43.0625 c 0,-1.0773 -0.860223,-1.9375 -1.9375,-1.9375 L 1.9374998,1004.3622 Z"/><path id="path5270" fill="#000" fill-opacity=".059" fill-rule="nonzero" stroke="none" stroke-dasharray="none" stroke-linecap="round" stroke-linejoin="miter" stroke-miterlimit="4" stroke-opacity="1" stroke-width=".215" d="m 20.514624,1016.7698 c -0.684854,0 -1.201837,0.5554 -1.201837,1.2284 l 0,8.4598 -8.605254,0 c -0.684854,0 -1.2499352,0.5555 -1.2499352,1.2289 l 0,6.8058 c 0,0.6729 0.5650382,1.2285 1.2499352,1.2285 l 8.605254,0 0,8.4597 c 0,0.6736 0.516983,1.1813 1.201837,1.1813 l 6.970752,0 c 0.684853,0 1.201837,-0.5077 1.201837,-1.1813 l 0,-8.4597 8.605297,0 c 0.684853,0 1.249892,-0.5556 1.249892,-1.2285 l 0,-6.8058 c 4.1e-5,-0.6734 -0.565039,-1.2289 -1.249892,-1.2289 l -8.605297,0 0,-8.4598 c 0,-0.673 -0.516984,-1.2284 -1.201837,-1.2284 l -6.970752,0 z" display="inline"/><path id="path5268" fill="#000" fill-opacity=".118" fill-rule="nonzero" stroke="none" stroke-dasharray="none" stroke-linecap="round" stroke-linejoin="miter" stroke-miterlimit="4" stroke-opacity="1" stroke-width=".215" d="m 20.514624,1015.5054 c -0.684854,0 -1.201837,0.5555 -1.201837,1.2286 l 0,8.4597 -8.605254,0 c -0.684854,0 -1.2499352,0.5555 -1.2499352,1.2289 l 0,6.8057 c 0,0.6731 0.5650382,1.2285 1.2499352,1.2285 l 8.605254,0 0,8.4598 c 0,0.6734 0.516983,1.1814 1.201837,1.1814 l 6.970752,0 c 0.684853,0 1.201837,-0.508 1.201837,-1.1814 l 0,-8.4598 8.605297,0 c 0.684853,0 1.249892,-0.5554 1.249892,-1.2285 l 0,-6.8057 c 4.1e-5,-0.6734 -0.565039,-1.2289 -1.249892,-1.2289 l -8.605297,0 0,-8.4597 c 0,-0.6731 -0.516984,-1.2286 -1.201837,-1.2286 l -6.970752,0 z" display="inline"/><path id="path5243" fill="#000" fill-opacity=".235" fill-rule="nonzero" stroke="none" stroke-dasharray="none" stroke-linecap="round" stroke-linejoin="miter" stroke-miterlimit="4" stroke-opacity="1" stroke-width=".215" d="m 20.514624,1014.6625 c -0.684854,0 -1.201837,0.5555 -1.201837,1.2286 l 0,8.4597 -8.605254,0 c -0.684854,0 -1.2499352,0.5556 -1.2499352,1.229 l 0,6.8058 c 0,0.6729 0.5650382,1.2283 1.2499352,1.2283 l 8.605254,0 0,8.4598 c 0,0.6735 0.516983,1.1814 1.201837,1.1814 l 6.970752,0 c 0.684853,0 1.201837,-0.5079 1.201837,-1.1814 l 0,-8.4598 8.605297,0 c 0.684853,0 1.249892,-0.5554 1.249892,-1.2283 l 0,-6.8058 c 4.1e-5,-0.6734 -0.565039,-1.229 -1.249892,-1.229 l -8.605297,0 0,-8.4597 c 0,-0.6731 -0.516984,-1.2286 -1.201837,-1.2286 l -6.970752,0 z" display="inline"/><path id="rect2235-3" fill="url(#linearGradient5225)" fill-opacity="1" fill-rule="nonzero" stroke="url(#linearGradient5253)" stroke-dasharray="none" stroke-linecap="round" stroke-linejoin="miter" stroke-miterlimit="4" stroke-opacity=".151" stroke-width=".915" d="m 20.514624,1013.8198 c -0.684854,0 -1.201837,0.5555 -1.201837,1.2284 l 0,8.4598 -8.605254,0 c -0.684854,0 -1.2499352,0.5555 -1.2499352,1.229 l 0,6.8057 c 0,0.6729 0.5650382,1.2284 1.2499352,1.2284 l 8.605254,0 0,8.4598 c 0,0.6735 0.516983,1.1813 1.201837,1.1813 l 6.970752,0 c 0.684853,0 1.201837,-0.5078 1.201837,-1.1813 l 0,-8.4598 8.605297,0 c 0.684853,0 1.249892,-0.5555 1.249892,-1.2284 l 0,-6.8057 c 4.1e-5,-0.6735 -0.565039,-1.229 -1.249892,-1.229 l -8.605297,0 0,-8.4598 c 0,-0.6729 -0.516984,-1.2284 -1.201837,-1.2284 l -6.970752,0 z" display="inline"/><path id="path5255" fill="#000" fill-opacity=".054" fill-rule="nonzero" stroke="none" stroke-dasharray="none" stroke-linecap="round" stroke-linejoin="miter" stroke-miterlimit="4" stroke-opacity=".151" stroke-width=".215" d="m 20.516896,1013.8185 c -0.684854,0 -1.205653,0.5534 -1.205653,1.2263 l 0,0.848 c 0,-0.6736 0.520799,-1.2264 1.205653,-1.2264 l 6.965993,0 c 0.684854,0 1.205653,0.5528 1.205653,1.2264 l 0,-0.848 c 0,-0.6729 -0.520799,-1.2263 -1.205653,-1.2263 l -6.965993,0 z m -9.812677,9.6878 c -0.684853,0 -1.2475132,0.5534 -1.2475132,1.2268 l 0,0.8475 c 0,-0.673 0.5626602,-1.2264 1.2475132,-1.2264 l 8.607024,0 0,-0.8479 -8.607024,0 z m 17.984323,0 0,0.8479 8.607019,0 c 0.684854,0 1.247561,0.5534 1.247517,1.2264 l 0,-0.8475 c 4.4e-5,-0.6734 -0.562663,-1.2268 -1.247517,-1.2268 l -8.607019,0 z" display="inline"/><path id="path5278" fill="#fff" fill-opacity=".185" fill-rule="nonzero" stroke="none" stroke-dasharray="none" stroke-linecap="round" stroke-linejoin="miter" stroke-miterlimit="4" stroke-opacity=".151" stroke-width=".215" d="m 20.516896,1014.2399 c -0.684854,0 -1.205653,0.5533 -1.205653,1.2264 l 0,0.8479 c 0,-0.6734 0.520799,-1.2264 1.205653,-1.2264 l 6.965993,0 c 0.684854,0 1.205653,0.553 1.205653,1.2264 l 0,-0.8479 c 0,-0.6731 -0.520799,-1.2264 -1.205653,-1.2264 l -6.965993,0 z m -9.812664,9.6879 c -0.684854,0 -1.2475342,0.5533 -1.2475342,1.2267 l 0,0.8475 c 0,-0.673 0.5626802,-1.2263 1.2475342,-1.2263 l 8.607011,0 0,-0.8479 -8.607011,0 z m 17.98431,0 0,0.8479 8.607011,0 c 0.684854,0 1.247578,0.5533 1.247534,1.2263 l 0,-0.8475 c 4.4e-5,-0.6734 -0.56268,-1.2267 -1.247534,-1.2267 l -8.607011,0 z" display="inline"/><rect id="rect5643" width="1.286" height="4.636" x="23.357" y="1034.437" fill="#e5e5e5" fill-opacity="1" fill-rule="nonzero" stroke="none" stroke-dasharray="none" stroke-dashoffset="0" stroke-linecap="butt" stroke-linejoin="miter" stroke-miterlimit="4" stroke-opacity=".151" stroke-width="1" clip-rule="nonzero" color="#000" color-interpolation="sRGB" color-interpolation-filters="linearRGB" color-rendering="auto" display="inline" enable-background="accumulate" image-rendering="auto" opacity="1" overflow="visible" ry="0" shape-rendering="auto" text-decoration="none" text-rendering="auto" visibility="visible" style="text-decoration-line:none;text-decoration-style:solid;text-decoration-color:#000;isolation:auto;mix-blend-mode:normal;solid-color:#000;solid-opacity:1"/><ellipse id="ellipse5011-3-6" cx="24" cy="1028.538" fill="url(#linearGradient5137-7)" fill-opacity="1" fill-rule="nonzero" stroke="none" display="inline" opacity=".52" rx="4.287" ry="4.214"/><rect clip-rule="nonzero" style="text-decoration-line:none;text-decoration-style:solid;text-decoration-color:#000;isolation:auto;mix-blend-mode:normal;solid-color:#000;solid-opacity:1" id="rect4725" width="1.286" height="4.636" x="23.357" y="1017.158" fill="#e5e5e5" fill-opacity="1" fill-rule="nonzero" stroke="none" stroke-dasharray="none" stroke-dashoffset="0" stroke-linecap="butt" stroke-linejoin="miter" stroke-miterlimit="4" stroke-opacity=".151" stroke-width="1" color="#000" color-interpolation="sRGB" color-interpolation-filters="linearRGB" color-rendering="auto" display="inline" enable-background="accumulate" image-rendering="auto" opacity="1" overflow="visible" ry="0" shape-rendering="auto" text-decoration="none" text-rendering="auto" visibility="visible"/><rect clip-rule="nonzero" style="text-decoration-line:none;text-decoration-style:solid;text-decoration-color:#000;isolation:auto;mix-blend-mode:normal;solid-color:#000;solid-opacity:1" id="rect4727" width="1.264" height="4.715" x="1027.484" y="-17.57" fill="#e5e5e5" fill-opacity="1" fill-rule="nonzero" stroke="none" stroke-dasharray="none" stroke-dashoffset="0" stroke-linecap="butt" stroke-linejoin="miter" stroke-miterlimit="4" stroke-opacity=".151" stroke-width="1" color="#000" color-interpolation="sRGB" color-interpolation-filters="linearRGB" color-rendering="auto" display="inline" enable-background="accumulate" image-rendering="auto" opacity="1" overflow="visible" ry="0" shape-rendering="auto" text-decoration="none" text-rendering="auto" transform="rotate(90)" visibility="visible"/><rect clip-rule="nonzero" style="text-decoration-line:none;text-decoration-style:solid;text-decoration-color:#000;isolation:auto;mix-blend-mode:normal;solid-color:#000;solid-opacity:1" id="rect4729" width="1.264" height="4.715" x="1027.484" y="-35.146" fill="#e5e5e5" fill-opacity="1" fill-rule="nonzero" stroke="none" stroke-dasharray="none" stroke-dashoffset="0" stroke-linecap="butt" stroke-linejoin="miter" stroke-miterlimit="4" stroke-opacity=".151" stroke-width="1" color="#000" color-interpolation="sRGB" color-interpolation-filters="linearRGB" color-rendering="auto" display="inline" enable-background="accumulate" image-rendering="auto" opacity="1" overflow="visible" ry="0" shape-rendering="auto" text-decoration="none" text-rendering="auto" transform="rotate(90)" visibility="visible"/></g></svg>