<svg xmlns="http://www.w3.org/2000/svg" xmlns:svg="http://www.w3.org/2000/svg" xmlns:xlink="http://www.w3.org/1999/xlink" id="svg2" width="48" height="48" version="1.1"><defs id="defs4"><linearGradient id="linearGradient923"><stop id="stop925" offset="0" stop-color="#87b5e0" stop-opacity="1"/><stop id="stop927" offset="1" stop-color="#f3f8fc" stop-opacity="1"/></linearGradient><linearGradient id="linearGradient915"><stop id="stop917" offset="0" stop-color="#235fa3" stop-opacity="1"/><stop id="stop919" offset="1" stop-color="#2d7ec2" stop-opacity="1"/></linearGradient><linearGradient id="linearGradient907"><stop id="stop909" offset="0" stop-color="#235fa3" stop-opacity="1"/><stop id="stop911" offset="1" stop-color="#3293d7" stop-opacity="1"/></linearGradient><linearGradient id="linearGradient851"><stop id="stop853" offset="0" stop-color="#212835" stop-opacity="1"/><stop id="stop855" offset="1" stop-color="#52596b" stop-opacity="1"/></linearGradient><linearGradient id="linearGradient857" x1="24.198" x2="24.198" y1="-1052.814" y2="-1005.097" gradientTransform="matrix(1,0,0,-1,0,-1004.3622)" gradientUnits="userSpaceOnUse" xlink:href="#linearGradient851"/><linearGradient id="linearGradient905" x1="19.931" x2="19.931" y1="-1004.078" y2="-1052.264" gradientTransform="matrix(0.65009644,0,0,0.34310295,8.3976878,-686.52801)" gradientUnits="userSpaceOnUse" xlink:href="#linearGradient915"/><linearGradient id="linearGradient913" x1="25.106" x2="25.106" y1="1025.977" y2="1009.186" gradientUnits="userSpaceOnUse" xlink:href="#linearGradient907"/><linearGradient id="linearGradient929" x1="19.676" x2="19.676" y1="30.263" y2="7.622" gradientUnits="userSpaceOnUse" xlink:href="#linearGradient923"/></defs><metadata id="metadata7"/><g id="layer1" transform="translate(0,-1004.3622)"><path id="rect2991-1" fill="url(#linearGradient857)" fill-opacity="1" stroke="none" d="M 1.9375 0 C 0.86022285 0 0 0.86022285 0 1.9375 L 0 46.0625 C 0 47.139777 0.86022285 48 1.9375 48 L 46.0625 48 C 47.139777 48 48 47.139777 48 46.0625 L 48 1.9375 C 48 0.86022285 47.139777 0 46.0625 0 L 1.9375 0 z M 2.3125 2.03125 L 5.6875 2.03125 C 6.0370179 2.03125 6.3125 2.3067321 6.3125 2.65625 L 6.3125 6.03125 C 6.3125 6.3807679 6.0370179 6.65625 5.6875 6.65625 L 2.3125 6.65625 C 1.9629821 6.65625 1.6875 6.3807679 1.6875 6.03125 L 1.6875 2.65625 C 1.6875 2.3067321 1.9629821 2.03125 2.3125 2.03125 z M 42.3125 2.03125 L 45.6875 2.03125 C 46.037018 2.03125 46.3125 2.3067321 46.3125 2.65625 L 46.3125 6.03125 C 46.3125 6.3807679 46.037018 6.65625 45.6875 6.65625 L 42.3125 6.65625 C 41.962982 6.65625 41.6875 6.3807679 41.6875 6.03125 L 41.6875 2.65625 C 41.6875 2.3067321 41.962982 2.03125 42.3125 2.03125 z M 2.3125 9.90625 L 5.6875 9.90625 C 6.0370179 9.90625 6.3125 10.181732 6.3125 10.53125 L 6.3125 13.875 C 6.3125 14.224518 6.0370179 14.5 5.6875 14.5 L 2.3125 14.5 C 1.9629821 14.5 1.6875 14.224518 1.6875 13.875 L 1.6875 10.53125 C 1.6875 10.181732 1.9629821 9.90625 2.3125 9.90625 z M 42.3125 9.90625 L 45.6875 9.90625 C 46.037018 9.90625 46.3125 10.181732 46.3125 10.53125 L 46.3125 13.875 C 46.3125 14.224518 46.037018 14.5 45.6875 14.5 L 42.3125 14.5 C 41.962982 14.5 41.6875 14.224518 41.6875 13.875 L 41.6875 10.53125 C 41.6875 10.181732 41.962982 9.90625 42.3125 9.90625 z M 2.3125 17.75 L 5.6875 17.75 C 6.0370179 17.75 6.3125 18.056732 6.3125 18.40625 L 6.3125 21.75 C 6.3125 22.099518 6.0370179 22.375 5.6875 22.375 L 2.3125 22.375 C 1.9629821 22.375 1.6875 22.099518 1.6875 21.75 L 1.6875 18.40625 C 1.6875 18.056732 1.9629821 17.75 2.3125 17.75 z M 42.3125 17.75 L 45.6875 17.75 C 46.037018 17.75 46.3125 18.056732 46.3125 18.40625 L 46.3125 21.75 C 46.3125 22.099518 46.037018 22.375 45.6875 22.375 L 42.3125 22.375 C 41.962982 22.375 41.6875 22.099518 41.6875 21.75 L 41.6875 18.40625 C 41.6875 18.056732 41.962982 17.75 42.3125 17.75 z M 2.3125 25.625 L 5.6875 25.625 C 6.0370179 25.625 6.3125 25.900482 6.3125 26.25 L 6.3125 29.59375 C 6.3125 29.943268 6.0370179 30.25 5.6875 30.25 L 2.3125 30.25 C 1.9629821 30.25 1.6875 29.943268 1.6875 29.59375 L 1.6875 26.25 C 1.6875 25.900482 1.9629821 25.625 2.3125 25.625 z M 42.3125 25.625 L 45.6875 25.625 C 46.037018 25.625 46.3125 25.900482 46.3125 26.25 L 46.3125 29.59375 C 46.3125 29.943268 46.037018 30.25 45.6875 30.25 L 42.3125 30.25 C 41.962982 30.25 41.6875 29.943268 41.6875 29.59375 L 41.6875 26.25 C 41.6875 25.900482 41.962982 25.625 42.3125 25.625 z M 2.3125 33.5 L 5.6875 33.5 C 6.0370179 33.5 6.3125 33.775482 6.3125 34.125 L 6.3125 37.46875 C 6.3125 37.818268 6.0370179 38.09375 5.6875 38.09375 L 2.3125 38.09375 C 1.9629821 38.09375 1.6875 37.818268 1.6875 37.46875 L 1.6875 34.125 C 1.6875 33.775482 1.9629821 33.5 2.3125 33.5 z M 42.3125 33.5 L 45.6875 33.5 C 46.037018 33.5 46.3125 33.775482 46.3125 34.125 L 46.3125 37.46875 C 46.3125 37.818268 46.037018 38.09375 45.6875 38.09375 L 42.3125 38.09375 C 41.962982 38.09375 41.6875 37.818268 41.6875 37.46875 L 41.6875 34.125 C 41.6875 33.775482 41.962982 33.5 42.3125 33.5 z M 2.3125 41.34375 L 5.6875 41.34375 C 6.0370179 41.34375 6.3125 41.619232 6.3125 41.96875 L 6.3125 45.34375 C 6.3125 45.693268 6.0370179 45.96875 5.6875 45.96875 L 2.3125 45.96875 C 1.9629821 45.96875 1.6875 45.693268 1.6875 45.34375 L 1.6875 41.96875 C 1.6875 41.619232 1.9629821 41.34375 2.3125 41.34375 z M 42.3125 41.34375 L 45.6875 41.34375 C 46.037018 41.34375 46.3125 41.619232 46.3125 41.96875 L 46.3125 45.34375 C 46.3125 45.693268 46.037018 45.96875 45.6875 45.96875 L 42.3125 45.96875 C 41.962982 45.96875 41.6875 45.693268 41.6875 45.34375 L 41.6875 41.96875 C 41.6875 41.619232 41.962982 41.34375 42.3125 41.34375 z" transform="translate(0,1004.3622)"/><rect id="rect859" width="31.205" height="16.469" x="8.398" y="1009.128" fill="url(#linearGradient913)" fill-opacity="1" stroke="none" ry=".667"/><path id="path974" fill="#000" fill-opacity=".503" stroke="none" d="m 9.0625,1009.1278 c -0.369617,0 -0.65625,0.3179 -0.65625,0.6875 l 0,0.5625 c 0,-0.3696 0.286633,-0.6875 0.65625,-0.6875 l 29.875,0 c 0.369617,0 0.65625,0.3179 0.65625,0.6875 l 0,-0.5625 c 0,-0.3696 -0.286633,-0.6875 -0.65625,-0.6875 L 9.0625,1009.1278 Z"/><path id="rect873" fill="#fff" fill-opacity=".527" fill-rule="nonzero" stroke="none" stroke-width=".2" d="M 1.6875 6.03125 L 1.6875 6.1875 L 1.6875 6.28125 L 1.6875 6.4375 C 1.6875 6.787 1.9629821 7.0625 2.3125 7.0625 L 5.6875 7.0625 C 6.0370179 7.0625 6.3125 6.787 6.3125 6.4375 L 6.3125 6.28125 L 6.3125 6.1875 L 6.3125 6.03125 C 6.3125 6.38075 6.0370179 6.65625 5.6875 6.65625 L 2.3125 6.65625 C 1.9629821 6.65625 1.6875 6.38075 1.6875 6.03125 z M 41.6875 6.03125 L 41.6875 6.1875 L 41.6875 6.28125 L 41.6875 6.4375 C 41.6875 6.787 41.962982 7.0625 42.3125 7.0625 L 45.6875 7.0625 C 46.037018 7.0625 46.3125 6.787 46.3125 6.4375 L 46.3125 6.28125 L 46.3125 6.1875 L 46.3125 6.03125 C 46.3125 6.38075 46.037018 6.65625 45.6875 6.65625 L 42.3125 6.65625 C 41.962982 6.65625 41.6875 6.38075 41.6875 6.03125 z M 1.6875 13.875 L 1.6875 14.03125 L 1.6875 14.125 L 1.6875 14.28125 C 1.6875 14.63085 1.9629821 14.90625 2.3125 14.90625 L 5.6875 14.90625 C 6.0370179 14.90625 6.3125 14.63085 6.3125 14.28125 L 6.3125 14.125 L 6.3125 14.03125 L 6.3125 13.875 C 6.3125 14.2246 6.0370179 14.5 5.6875 14.5 L 2.3125 14.5 C 1.9629821 14.5 1.6875 14.2246 1.6875 13.875 z M 41.6875 13.875 L 41.6875 14.03125 L 41.6875 14.125 L 41.6875 14.28125 C 41.6875 14.63085 41.962982 14.90625 42.3125 14.90625 L 45.6875 14.90625 C 46.037018 14.90625 46.3125 14.63085 46.3125 14.28125 L 46.3125 14.125 L 46.3125 14.03125 L 46.3125 13.875 C 46.3125 14.2246 46.037018 14.5 45.6875 14.5 L 42.3125 14.5 C 41.962982 14.5 41.6875 14.2246 41.6875 13.875 z M 1.6875 21.75 L 1.6875 21.90625 L 1.6875 22 L 1.6875 22.15625 C 1.6875 22.50585 1.9629821 22.78125 2.3125 22.78125 L 5.6875 22.78125 C 6.0370179 22.78125 6.3125 22.50585 6.3125 22.15625 L 6.3125 22 L 6.3125 21.90625 L 6.3125 21.75 C 6.3125 22.0996 6.0370179 22.375 5.6875 22.375 L 2.3125 22.375 C 1.9629821 22.375 1.6875 22.0996 1.6875 21.75 z M 41.6875 21.75 L 41.6875 21.90625 L 41.6875 22 L 41.6875 22.15625 C 41.6875 22.50585 41.962982 22.78125 42.3125 22.78125 L 45.6875 22.78125 C 46.037018 22.78125 46.3125 22.50585 46.3125 22.15625 L 46.3125 22 L 46.3125 21.90625 L 46.3125 21.75 C 46.3125 22.0996 46.037018 22.375 45.6875 22.375 L 42.3125 22.375 C 41.962982 22.375 41.6875 22.0996 41.6875 21.75 z M 1.6875 29.59375 L 1.6875 29.75 L 1.6875 29.84375 L 1.6875 30 C 1.6875 30.3495 1.9629821 30.65625 2.3125 30.65625 L 5.6875 30.65625 C 6.0370179 30.65625 6.3125 30.3495 6.3125 30 L 6.3125 29.84375 L 6.3125 29.75 L 6.3125 29.59375 C 6.3125 29.94325 6.0370179 30.25 5.6875 30.25 L 2.3125 30.25 C 1.9629821 30.25 1.6875 29.94325 1.6875 29.59375 z M 41.6875 29.59375 L 41.6875 29.75 L 41.6875 29.84375 L 41.6875 30 C 41.6875 30.3495 41.962982 30.65625 42.3125 30.65625 L 45.6875 30.65625 C 46.037018 30.65625 46.3125 30.3495 46.3125 30 L 46.3125 29.84375 L 46.3125 29.75 L 46.3125 29.59375 C 46.3125 29.94325 46.037018 30.25 45.6875 30.25 L 42.3125 30.25 C 41.962982 30.25 41.6875 29.94325 41.6875 29.59375 z M 1.6875 37.46875 L 1.6875 37.625 L 1.6875 37.71875 L 1.6875 37.875 C 1.6875 38.2245 1.9629821 38.5 2.3125 38.5 L 5.6875 38.5 C 6.0370179 38.5 6.3125 38.2245 6.3125 37.875 L 6.3125 37.71875 L 6.3125 37.625 L 6.3125 37.46875 C 6.3125 37.81825 6.0370179 38.09375 5.6875 38.09375 L 2.3125 38.09375 C 1.9629821 38.09375 1.6875 37.81825 1.6875 37.46875 z M 41.6875 37.46875 L 41.6875 37.625 L 41.6875 37.71875 L 41.6875 37.875 C 41.6875 38.2245 41.962982 38.5 42.3125 38.5 L 45.6875 38.5 C 46.037018 38.5 46.3125 38.2245 46.3125 37.875 L 46.3125 37.71875 L 46.3125 37.625 L 46.3125 37.46875 C 46.3125 37.81825 46.037018 38.09375 45.6875 38.09375 L 42.3125 38.09375 C 41.962982 38.09375 41.6875 37.81825 41.6875 37.46875 z M 1.6875 45.34375 L 1.6875 45.5 L 1.6875 45.59375 L 1.6875 45.75 C 1.6875 46.0995 1.9629821 46.375 2.3125 46.375 L 5.6875 46.375 C 6.0370179 46.375 6.3125 46.0995 6.3125 45.75 L 6.3125 45.59375 L 6.3125 45.5 L 6.3125 45.34375 C 6.3125 45.69325 6.0370179 45.96875 5.6875 45.96875 L 2.3125 45.96875 C 1.9629821 45.96875 1.6875 45.69325 1.6875 45.34375 z M 41.6875 45.34375 L 41.6875 45.5 L 41.6875 45.59375 L 41.6875 45.75 C 41.6875 46.0995 41.962982 46.375 42.3125 46.375 L 45.6875 46.375 C 46.037018 46.375 46.3125 46.0995 46.3125 45.75 L 46.3125 45.59375 L 46.3125 45.5 L 46.3125 45.34375 C 46.3125 45.69325 46.037018 45.96875 45.6875 45.96875 L 42.3125 45.96875 C 41.962982 45.96875 41.6875 45.69325 41.6875 45.34375 z" color="#000" display="inline" enable-background="accumulate" overflow="visible" transform="translate(0,1004.3622)" visibility="visible" style="marker:none"/><path id="path976" fill="#fff" fill-opacity=".172" stroke="none" d="m 8.40625,1024.3468 0,0.5625 c 0,0.3696 0.286633,0.6875 0.65625,0.6875 l 29.875,0 c 0.369617,0 0.65625,-0.3179 0.65625,-0.6875 l 0,-0.5625 c 0,0.3696 -0.286633,0.6563 -0.65625,0.6563 l -29.875,0 C 8.692883,1025.0031 8.40625,1024.7164 8.40625,1024.3468 Z"/><rect id="rect903" width="31.205" height="16.469" x="8.398" y="-1047.597" fill="url(#linearGradient905)" fill-opacity="1" stroke="none" ry=".667" transform="scale(1,-1)"/><path id="rect969" fill="#000" fill-opacity=".503" stroke="none" d="M 9.0625 26.75 C 8.692883 26.75 8.40625 27.067883 8.40625 27.4375 L 8.40625 28 C 8.40625 27.630383 8.692883 27.3125 9.0625 27.3125 L 38.9375 27.3125 C 39.307117 27.3125 39.59375 27.630383 39.59375 28 L 39.59375 27.4375 C 39.59375 27.067883 39.307117 26.75 38.9375 26.75 L 9.0625 26.75 z" transform="translate(0,1004.3622)"/><path id="path944" fill="#000" fill-opacity=".294" fill-rule="nonzero" stroke="none" stroke-width=".2" d="m 33.662026,18.896185 -19.310378,11.148852 0,-22.2977043 z" color="#000" display="inline" enable-background="accumulate" overflow="visible" transform="matrix(0.91760958,0,0,1,1.9710963,1010.5967)" visibility="visible" style="marker:none"/><path id="path921" fill="url(#linearGradient929)" fill-opacity="1" fill-rule="nonzero" stroke="none" stroke-width=".2" d="m 33.662026,18.896185 -19.310378,11.148852 0,-22.2977043 z" color="#000" display="inline" enable-background="accumulate" overflow="visible" transform="matrix(0.91760958,0,0,1,1.9710963,1009.466)" visibility="visible" style="marker:none"/><path id="path956" fill="#000" fill-opacity=".645" fill-rule="nonzero" stroke="none" stroke-width=".2" d="M 2.3125 1.59375 C 1.9629821 1.59375 1.6875 1.86925 1.6875 2.21875 L 1.6875 2.40625 L 1.6875 2.46875 L 1.6875 2.65625 C 1.6875 2.30675 1.9629821 2.03125 2.3125 2.03125 L 5.6875 2.03125 C 6.0370179 2.03125 6.3125 2.30675 6.3125 2.65625 L 6.3125 2.46875 L 6.3125 2.40625 L 6.3125 2.21875 C 6.3125 1.86925 6.0370179 1.59375 5.6875 1.59375 L 2.3125 1.59375 z M 42.3125 1.59375 C 41.962982 1.59375 41.6875 1.86925 41.6875 2.21875 L 41.6875 2.40625 L 41.6875 2.46875 L 41.6875 2.65625 C 41.6875 2.30675 41.962982 2.03125 42.3125 2.03125 L 45.6875 2.03125 C 46.037018 2.03125 46.3125 2.30675 46.3125 2.65625 L 46.3125 2.46875 L 46.3125 2.40625 L 46.3125 2.21875 C 46.3125 1.86925 46.037018 1.59375 45.6875 1.59375 L 42.3125 1.59375 z M 2.3125 9.46875 C 1.9629821 9.46875 1.6875 9.74425 1.6875 10.09375 L 1.6875 10.28125 L 1.6875 10.34375 L 1.6875 10.53125 C 1.6875 10.18175 1.9629821 9.90625 2.3125 9.90625 L 5.6875 9.90625 C 6.0370179 9.90625 6.3125 10.18175 6.3125 10.53125 L 6.3125 10.34375 L 6.3125 10.28125 L 6.3125 10.09375 C 6.3125 9.74425 6.0370179 9.46875 5.6875 9.46875 L 2.3125 9.46875 z M 42.3125 9.46875 C 41.962982 9.46875 41.6875 9.74425 41.6875 10.09375 L 41.6875 10.28125 L 41.6875 10.34375 L 41.6875 10.53125 C 41.6875 10.18175 41.962982 9.90625 42.3125 9.90625 L 45.6875 9.90625 C 46.037018 9.90625 46.3125 10.18175 46.3125 10.53125 L 46.3125 10.34375 L 46.3125 10.28125 L 46.3125 10.09375 C 46.3125 9.74425 46.037018 9.46875 45.6875 9.46875 L 42.3125 9.46875 z M 2.3125 17.3125 C 1.9629821 17.3125 1.6875 17.61925 1.6875 17.96875 L 1.6875 18.15625 L 1.6875 18.21875 L 1.6875 18.40625 C 1.6875 18.05675 1.9629821 17.75 2.3125 17.75 L 5.6875 17.75 C 6.0370179 17.75 6.3125 18.05675 6.3125 18.40625 L 6.3125 18.21875 L 6.3125 18.15625 L 6.3125 17.96875 C 6.3125 17.61925 6.0370179 17.3125 5.6875 17.3125 L 2.3125 17.3125 z M 42.3125 17.3125 C 41.962982 17.3125 41.6875 17.61925 41.6875 17.96875 L 41.6875 18.15625 L 41.6875 18.21875 L 41.6875 18.40625 C 41.6875 18.05675 41.962982 17.75 42.3125 17.75 L 45.6875 17.75 C 46.037018 17.75 46.3125 18.05675 46.3125 18.40625 L 46.3125 18.21875 L 46.3125 18.15625 L 46.3125 17.96875 C 46.3125 17.61925 46.037018 17.3125 45.6875 17.3125 L 42.3125 17.3125 z M 2.3125 25.1875 C 1.9629821 25.1875 1.6875 25.4629 1.6875 25.8125 L 1.6875 26 L 1.6875 26.0625 L 1.6875 26.25 C 1.6875 25.9004 1.9629821 25.625 2.3125 25.625 L 5.6875 25.625 C 6.0370179 25.625 6.3125 25.9004 6.3125 26.25 L 6.3125 26.0625 L 6.3125 26 L 6.3125 25.8125 C 6.3125 25.4629 6.0370179 25.1875 5.6875 25.1875 L 2.3125 25.1875 z M 42.3125 25.1875 C 41.962982 25.1875 41.6875 25.4629 41.6875 25.8125 L 41.6875 26 L 41.6875 26.0625 L 41.6875 26.25 C 41.6875 25.9004 41.962982 25.625 42.3125 25.625 L 45.6875 25.625 C 46.037018 25.625 46.3125 25.9004 46.3125 26.25 L 46.3125 26.0625 L 46.3125 26 L 46.3125 25.8125 C 46.3125 25.4629 46.037018 25.1875 45.6875 25.1875 L 42.3125 25.1875 z M 2.3125 33.0625 C 1.9629821 33.0625 1.6875 33.3379 1.6875 33.6875 L 1.6875 33.875 L 1.6875 33.9375 L 1.6875 34.125 C 1.6875 33.7754 1.9629821 33.5 2.3125 33.5 L 5.6875 33.5 C 6.0370179 33.5 6.3125 33.7754 6.3125 34.125 L 6.3125 33.9375 L 6.3125 33.875 L 6.3125 33.6875 C 6.3125 33.3379 6.0370179 33.0625 5.6875 33.0625 L 2.3125 33.0625 z M 42.3125 33.0625 C 41.962982 33.0625 41.6875 33.3379 41.6875 33.6875 L 41.6875 33.875 L 41.6875 33.9375 L 41.6875 34.125 C 41.6875 33.7754 41.962982 33.5 42.3125 33.5 L 45.6875 33.5 C 46.037018 33.5 46.3125 33.7754 46.3125 34.125 L 46.3125 33.9375 L 46.3125 33.875 L 46.3125 33.6875 C 46.3125 33.3379 46.037018 33.0625 45.6875 33.0625 L 42.3125 33.0625 z M 2.3125 40.90625 C 1.9629821 40.90625 1.6875 41.18175 1.6875 41.53125 L 1.6875 41.71875 L 1.6875 41.78125 L 1.6875 41.96875 C 1.6875 41.61925 1.9629821 41.34375 2.3125 41.34375 L 5.6875 41.34375 C 6.0370179 41.34375 6.3125 41.61925 6.3125 41.96875 L 6.3125 41.78125 L 6.3125 41.71875 L 6.3125 41.53125 C 6.3125 41.18175 6.0370179 40.90625 5.6875 40.90625 L 2.3125 40.90625 z M 42.3125 40.90625 C 41.962982 40.90625 41.6875 41.18175 41.6875 41.53125 L 41.6875 41.71875 L 41.6875 41.78125 L 41.6875 41.96875 C 41.6875 41.61925 41.962982 41.34375 42.3125 41.34375 L 45.6875 41.34375 C 46.037018 41.34375 46.3125 41.61925 46.3125 41.96875 L 46.3125 41.78125 L 46.3125 41.71875 L 46.3125 41.53125 C 46.3125 41.18175 46.037018 40.90625 45.6875 40.90625 L 42.3125 40.90625 z" color="#000" display="inline" enable-background="accumulate" overflow="visible" transform="translate(0,1004.3622)" visibility="visible" style="marker:none"/><path id="rect964" fill="#fff" fill-opacity=".172" stroke="none" d="m 8.40625,1046.3467 0,0.5625 c 0,0.3696 0.286633,0.6875 0.65625,0.6875 l 29.875,0 c 0.369617,0 0.65625,-0.3179 0.65625,-0.6875 l 0,-0.5625 c 0,0.3696 -0.286633,0.6563 -0.65625,0.6563 l -29.875,0 C 8.692883,1047.003 8.40625,1046.7163 8.40625,1046.3467 Z"/><path id="rect846" fill="#000" fill-opacity="1" stroke="none" d="m -9.5269774e-8,1049.3622 0,1.0625 c 0,1.0773 0.860222895269774,1.9375 1.937499895269774,1.9375 l 44.1250002,0 c 1.077277,0 1.9375,-0.8602 1.9375,-1.9375 l 0,-1.0625 c 0,1.0773 -0.860223,1.9375 -1.9375,1.9375 l -44.1250002,0 C 0.8602228,1051.2997 -9.5269774e-8,1050.4395 -9.5269774e-8,1049.3622 Z"/><path id="path7515" fill="#fff" fill-opacity=".537" stroke="none" d="m 2.5312498,1005.0185 c -0.9170884,0 -1.6711467,0.6395 -1.8437499,1.5 0.335612,-0.2799 0.7745121,-0.4375 1.2499999,-0.4375 l 44.1250002,0 c 0.475488,0 0.914388,0.1576 1.25,0.4375 -0.172603,-0.8605 -0.926662,-1.5 -1.84375,-1.5 L 2.5312498,1005.0185 Z"/><path id="rect4280" fill="#000" fill-opacity=".392" stroke="none" d="m 1.9374998,1004.3622 c -1.0772769,0 -1.937499895269774,0.8602 -1.937499895269774,1.9375 l 0,43.0625 c 0,0.7934 0.480023595269774,1.449 1.156249895269774,1.75 -0.3093416,-0.3333 -0.4999999,-0.7824 -0.4999999,-1.2812 l 0,-42.9375 c 0,-1.0482 0.8268989,-1.875 1.8749999,-1.875 l 42.9375002,0 c 1.048101,0 1.875,0.8268 1.875,1.875 l 0,42.9375 c 0,0.4988 -0.190658,0.9479 -0.5,1.2812 0.676226,-0.301 1.15625,-0.9566 1.15625,-1.75 l 0,-43.0625 c 0,-1.0773 -0.860223,-1.9375 -1.9375,-1.9375 L 1.9374998,1004.3622 Z"/></g></svg>