<svg xmlns="http://www.w3.org/2000/svg" xmlns:svg="http://www.w3.org/2000/svg" xmlns:xlink="http://www.w3.org/1999/xlink" id="svg2" width="48" height="48" version="1.1" viewBox="0 0 13.547 13.547"><metadata id="metadata32"/><defs id="defs4"><linearGradient id="linearGradient4301"><stop id="stop4303" offset="0" stop-color="#000" stop-opacity="1"/><stop id="stop4305" offset="1" stop-color="#000" stop-opacity="0"/></linearGradient><linearGradient id="linearGradient1264"><stop id="stop1266" offset="0" stop-color="#222b32" stop-opacity="1"/><stop id="stop1268" offset="1" stop-color="#313a41" stop-opacity="1"/></linearGradient><linearGradient id="linearGradient1327" x1="35.5" x2="35.5" y1="39.167" y2="7.5" gradientTransform="matrix(0.20372917,0,0,0.20372917,-0.15345832,2.0875694)" gradientUnits="userSpaceOnUse" xlink:href="#linearGradient1264"/><linearGradient id="linearGradient4307" x1="34.502" x2="34.502" y1="-2.022" y2="24.334" gradientTransform="matrix(0.2716389,0,0,0.2716389,-2.462389,0.52563872)" gradientUnits="userSpaceOnUse" xlink:href="#linearGradient4301"/><linearGradient id="linearGradient4156" x1="393.857" x2="393.857" y1="-699.218" y2="-651.251" gradientTransform="matrix(0.28222223,0,0,0.28222223,-103.69651,183.78855)" gradientUnits="userSpaceOnUse" xlink:href="#linearGradient1264"/></defs><rect id="rect4154" width="13.547" height="13.547" x="0" y="-13.547" fill="url(#linearGradient4156)" fill-opacity="1" stroke="none" ry=".549" transform="scale(1,-1)"/><circle id="path4299" cx="6.773" cy="7.112" r="4.346" fill="#000" fill-opacity=".059" stroke="none"/><circle id="path4297" cx="6.773" cy="6.999" r="4.346" fill="#000" fill-opacity=".118" stroke="none"/><circle id="path4267" cx="6.773" cy="6.886" r="4.346" fill="#000" fill-opacity=".235" stroke="none"/><path id="rect846" fill="#000" fill-opacity="1" stroke="none" d="m -3.465766e-8,12.7 0,0.299861 c 0,0.304038 0.24277402465766,0.546806 0.54680554465766,0.546806 l 12.45305549,0 c 0.304032,0 0.546806,-0.242768 0.546806,-0.546806 l 0,-0.299861 c 0,0.304038 -0.242774,0.546806 -0.546806,0.546806 l -12.45305549,0 C 0.24277399,13.246806 -3.4657661e-8,13.004038 -3.4657661e-8,12.7 Z"/><path id="path7515" fill="#fff" fill-opacity=".537" stroke="none" d="m 0.71437496,0.18522226 c -0.25882273,0 -0.47163475,0.18048112 -0.52034721,0.42333335 0.0947172,-0.078994 0.21858454,-0.12347223 0.35277776,-0.12347223 l 12.45305549,0 c 0.134193,0 0.258061,0.0444782 0.352778,0.12347223 -0.04871,-0.24285223 -0.261525,-0.42333335 -0.520347,-0.42333335 l -12.11791704,0 z"/><path id="rect4280" fill="#000" fill-opacity=".392" stroke="none" d="M 0.54680551,-1.88294e-7 C 0.24277402,-1.88294e-7 -3.465766e-8,0.24276737 -3.465766e-8,0.54680538 l 0,12.15319462 C -3.465766e-8,12.923915 0.1354733,13.10894 0.3263194,13.193889 0.23901632,13.099824 0.1852083,12.973078 0.1852083,12.832306 l 0,-12.11791706 c 0,-0.29582534 0.23336926,-0.52916668 0.52916666,-0.52916668 l 12.11791704,0 c 0.295797,0 0.529166,0.23334134 0.529166,0.52916668 l 0,12.11791706 c 0,0.140772 -0.05381,0.267518 -0.141111,0.361583 0.190846,-0.08495 0.32632,-0.269974 0.32632,-0.493889 l 0,-12.15319462 C 13.546667,0.24276737 13.303893,-1.88294e-7 12.999861,-1.88294e-7 l -12.45305549,0 z"/><circle id="path1272" cx="6.773" cy="6.773" r="4.346" fill="url(#linearGradient4307)" fill-opacity="1" stroke="none"/><circle id="path4193" cx="6.773" cy="6.886" r="3.26" fill="#000" fill-opacity=".235" stroke="none"/><circle id="path4195" cx="6.773" cy="6.971" r="3.26" fill="#000" fill-opacity=".118" stroke="none"/><circle id="path4197" cx="6.773" cy="7.084" r="3.26" fill="#000" fill-opacity=".059" stroke="none"/><circle id="path1325" cx="6.773" cy="6.773" r="3.26" fill="url(#linearGradient1327)" fill-opacity="1" stroke="none"/><path id="path4257" fill="#5d6f7d" fill-opacity=".314" stroke="none" d="m 6.7733335,3.510139 c -1.8002643,0 -3.2631945,1.4629302 -3.2631945,3.2631945 0,0.038542 0.00749,0.076435 0.00882,0.1146528 0.060649,-1.7469384 1.4926525,-3.1485418 3.2543751,-3.1485418 1.7617226,0 3.1937264,1.4016034 3.2543755,3.1485418 0.0013,-0.038218 0.0088,-0.076111 0.0088,-0.1146528 0,-1.8002643 -1.4629302,-3.2631945 -3.2631945,-3.2631945 z"/><path id="path4264" fill="#1a1a1a" fill-opacity=".235" stroke="none" d="M 6.7733335,4.4730637 A 2.4129999,2.4129999 0 0 0 4.360113,6.8862842 2.4129999,2.4129999 0 0 0 6.7733335,9.2995047 2.4129999,2.4129999 0 0 0 9.186554,6.8862842 2.4129999,2.4129999 0 0 0 6.7733335,4.4730637 Z m 0,0.2822223 A 2.1307776,2.1307776 0 0 1 8.9043318,6.8862842 2.1307776,2.1307776 0 0 1 6.7733335,9.0172825 2.1307776,2.1307776 0 0 1 4.6423353,6.8862842 2.1307776,2.1307776 0 0 1 6.7733335,4.755286 Z"/><path id="circle4255" fill="#00d8ff" fill-opacity="1" stroke="none" d="M 24 15.449219 A 8.5499993 8.5499993 0 0 0 15.449219 24 A 8.5499993 8.5499993 0 0 0 24 32.550781 A 8.5499993 8.5499993 0 0 0 32.550781 24 A 8.5499993 8.5499993 0 0 0 24 15.449219 z M 24 16.449219 A 7.5499992 7.5499992 0 0 1 31.550781 24 A 7.5499992 7.5499992 0 0 1 24 31.550781 A 7.5499992 7.5499992 0 0 1 16.449219 24 A 7.5499992 7.5499992 0 0 1 24 16.449219 z" transform="scale(0.28222223,0.28222223)"/></svg>