<svg xmlns="http://www.w3.org/2000/svg" xmlns:svg="http://www.w3.org/2000/svg" xmlns:xlink="http://www.w3.org/1999/xlink" id="svg2" width="48" height="48" version="1.1"><defs id="defs4"><linearGradient id="linearGradient985"><stop id="stop987" offset="0" stop-color="#461718" stop-opacity="1"/><stop id="stop989" offset="1" stop-color="#7a2f2e" stop-opacity="1"/></linearGradient><linearGradient id="linearGradient934"><stop id="stop936" offset="0" stop-color="#6a2123" stop-opacity="1"/><stop id="stop938" offset="1" stop-color="#8f3c41" stop-opacity="1"/></linearGradient><linearGradient id="linearGradient879" x1="85.206" x2="85.206" y1="-1059.745" y2="-1011.88" gradientTransform="matrix(1,0,0,-1,-61.559919,-1011.3916)" gradientUnits="userSpaceOnUse" xlink:href="#linearGradient868"/><linearGradient id="linearGradient940" x1="4.5" x2="4.5" y1="48.125" y2=".5" gradientUnits="userSpaceOnUse" xlink:href="#linearGradient934"/><linearGradient id="linearGradient991" x1="4.125" x2="4.125" y1="48" y2=".375" gradientUnits="userSpaceOnUse" xlink:href="#linearGradient985"/><linearGradient id="linearGradient1577" x1="13.766" x2="13.766" y1="1071.336" y2="1042.972" gradientTransform="translate(24.762502,-38.718652)" gradientUnits="userSpaceOnUse" xlink:href="#linearGradient985"/><linearGradient id="linearGradient868"><stop id="stop870" offset="0" stop-color="#a00" stop-opacity="1"/><stop id="stop872" offset="1" stop-color="#f55" stop-opacity="1"/></linearGradient></defs><metadata id="metadata7"/><g id="layer1" transform="translate(0,-1004.3622)"><path id="rect2991-1" fill="url(#linearGradient879)" fill-opacity="1" stroke="none" d="M 1.9375,0 C 0.86022285,0 0,0.86022285 0,1.9375 l 0,44.125 C 0,47.139777 0.86022285,48 1.9375,48 l 44.125,0 C 47.139777,48 48,47.139777 48,46.0625 L 48,1.9375 C 48,0.86022285 47.139777,0 46.0625,0 Z" transform="translate(0,1004.3622)"/><path id="rect1035" fill="#000" fill-opacity=".627" fill-rule="nonzero" stroke="none" stroke-width=".2" d="m 8.65625,1004.3622 0,48 0.1875,0 0,-48 L 8.65625,1004.3622 Z" color="#000" display="inline" enable-background="accumulate" overflow="visible" visibility="visible" style="marker:none"/><path id="path1004" fill="#fff" fill-opacity="1" stroke="none" d="m 42.75383,1004.3622 c 1.077277,0 1.9375,0.8602 1.9375,1.9375 l 0,44.125 c 0,1.0773 -0.860223,1.9375 -1.9375,1.9375 l 2.65625,0 c 1.077277,0 1.9375,-0.8602 1.9375,-1.9375 l 0,-44.125 c 0,-1.0773 -0.860223,-1.9375 -1.9375,-1.9375 L 42.75383,1004.3622 Z"/><path id="rect923" fill="url(#linearGradient940)" fill-opacity="1" fill-rule="nonzero" stroke="none" stroke-width=".2" d="M 1.9375 0 C 0.86022285 0 0 0.86022285 0 1.9375 L 0 46.0625 C 0 47.139777 0.86022285 48 1.9375 48 L 8.65625 48 L 8.65625 0 L 1.9375 0 z" color="#000" display="inline" enable-background="accumulate" overflow="visible" transform="translate(0,1004.3622)" visibility="visible" style="marker:none"/><path id="rect983" fill="url(#linearGradient991)" fill-opacity="1" fill-rule="nonzero" stroke="none" stroke-width=".2" d="M 2.75 0 L 2.75 48 L 4.75 48 L 4.75 0 L 2.75 0 z" color="#000" display="inline" enable-background="accumulate" opacity=".5" overflow="visible" transform="translate(0,1004.3622)" visibility="visible" style="marker:none"/><path id="rect1566" fill="url(#linearGradient1577)" fill-opacity="1" stroke="none" d="m 34.543752,1004.3622 0,28.0313 4.03125,-2.0313 4,2 0,-28 z"/><path id="path1579" fill="#000" fill-opacity=".212" stroke="none" d="m 38.575002,1030.347 -4.03125,2.0312 0,0.1875 4.03125,-2.0312 4,2 0,-0.1875 z"/><path id="rect4280-9" fill="#000" fill-opacity=".392" stroke="none" d="m 1.9374985,1004.3622 c -1.077277,0 -1.9375,0.8602 -1.9375,1.9375 l 0,43.0625 c 0,0.7934 0.480023,1.449 1.15625,1.75 -0.309342,-0.3333 -0.5,-0.7824 -0.5,-1.2812 l 0,-42.9375 c 0,-1.0482 0.826899,-1.875 1.875,-1.875 l 42.9375025,0 c 1.048101,0 1.875,0.8268 1.875,1.875 l 0,42.9375 c 0,0.4988 -0.190659,0.9479 -0.5,1.2812 0.67622,-0.301 1.15625,-0.9566 1.15625,-1.75 l 0,-43.0625 c 0,-1.0773 -0.86023,-1.9375 -1.9375,-1.9375 L 1.9374985,1004.3622 Z"/><path id="rect846" fill="#000" fill-opacity="1" stroke="none" d="m -1.5e-6,1049.3622 0,1.0625 c 0,1.0773 0.860223,1.9375 1.9375,1.9375 l 44.1250025,0 c 1.07727,0 1.9375,-0.8602 1.9375,-1.9375 l 0,-1.0625 c 0,1.0773 -0.86023,1.9375 -1.9375,1.9375 l -44.1250025,0 C 0.8602215,1051.2997 -1.5e-6,1050.4395 -1.5e-6,1049.3622 Z"/><path id="path7515" fill="#fff" fill-opacity=".537" stroke="none" d="m 2.5312485,1005.0185 c -0.917089,0 -1.671147,0.6395 -1.84375,1.5 0.335612,-0.2799 0.774512,-0.4375 1.25,-0.4375 l 44.1250025,0 c 0.47548,0 0.91438,0.1576 1.25,0.4375 -0.17261,-0.8605 -0.92667,-1.5 -1.84375,-1.5 L 2.5312485,1005.0185 Z"/><path d="m 4.75,1004.3622 0,48 0.4973981,0 0,-48 L 4.75,1004.3622 Z" style="marker:none" id="path996" fill="#fff" fill-opacity=".078" fill-rule="nonzero" stroke="none" stroke-width=".2" color="#000" display="inline" enable-background="accumulate" overflow="visible" visibility="visible"/><path id="path1002" fill="#000" fill-opacity=".078" fill-rule="nonzero" stroke="none" stroke-width=".2" d="m 2.75,1004.3622 0,48 0.4973981,0 0,-48 L 2.75,1004.3622 Z" color="#000" display="inline" enable-background="accumulate" overflow="visible" visibility="visible" style="marker:none"/><path id="path1014" fill="#000" fill-opacity=".431" stroke="none" d="m 43.442424,1004.3622 c 1.077277,0 1.9375,0.8602 1.9375,1.9375 l 0,44.125 c 0,1.0773 -0.860223,1.9375 -1.9375,1.9375 l 0.40625,0 c 1.077277,0 1.9375,-0.8602 1.9375,-1.9375 l 0,-44.125 c 0,-1.0773 -0.860223,-1.9375 -1.9375,-1.9375 L 43.442424,1004.3622 Z"/><path id="path1016" fill="#000" fill-opacity=".431" stroke="none" d="m 44.379924,1004.3622 c 1.077277,0 1.9375,0.8602 1.9375,1.9375 l 0,44.125 c 0,1.0773 -0.860223,1.9375 -1.9375,1.9375 l 0.40625,0 c 1.077277,0 1.9375,-0.8602 1.9375,-1.9375 l 0,-44.125 c 0,-1.0773 -0.860223,-1.9375 -1.9375,-1.9375 L 44.379924,1004.3622 Z"/><path id="path1018" fill="#000" fill-opacity=".196" stroke="none" d="m 41.75,1004.3622 c 0.975404,0.1047 1.71875,0.9323 1.71875,1.9375 l 0,44.125 c 0,1.0052 -0.743346,1.8328 -1.71875,1.9375 0.06179,0 0.127264,0.01 0.1875,0 0.04119,0 0.08448,0 0.125,0 0.03089,0 0.06323,0 0.09375,0 0.03044,0 0.06367,0 0.09375,0 l 0.09375,0 c 0.04119,0 0.08448,0 0.125,0 l 0.28125,0 c 1.077277,0 1.9375,-0.8602 1.9375,-1.9375 l 0,-44.125 c 0,-1.0773 -0.860223,-1.9375 -1.9375,-1.9375 l -0.28125,0 -0.21875,0 c -0.03012,-0 -0.06323,0 -0.09375,0 l -0.21875,0 L 41.75,1004.3622 Z"/></g></svg>