<svg xmlns="http://www.w3.org/2000/svg" xmlns:svg="http://www.w3.org/2000/svg" xmlns:xlink="http://www.w3.org/1999/xlink" id="svg2" width="48" height="48" enable-background="new" version="1.1" viewBox="0 0 13.547 13.547"><metadata id="metadata95"/><defs id="defs4"><linearGradient id="linearGradient874" x1="-48.865" x2="-48.865" y1="-1053.155" y2="-1005.101" gradientTransform="matrix(0.28222223,0,0,0.28222223,20.265848,283.66677)" gradientUnits="userSpaceOnUse" xlink:href="#linearGradient4096"/><linearGradient id="linearGradient4316" x1="23" x2="23" y1="40" y2="8" gradientUnits="userSpaceOnUse" xlink:href="#linearGradient4247"/><linearGradient id="linearGradient4247"><stop id="stop4249" offset="0" stop-color="#b9daff" stop-opacity="1"/><stop id="stop4251" offset="1" stop-color="#f5faff" stop-opacity="1"/></linearGradient><linearGradient id="linearGradient4096"><stop id="stop4098" offset="0" stop-color="#004ba0" stop-opacity="1"/><stop id="stop4104" offset="1" stop-color="#005ec8" stop-opacity="1"/></linearGradient></defs><rect id="rect2991-1" width="13.547" height="13.547" x="0" y="-13.547" fill="url(#linearGradient874)" fill-opacity="1" stroke="none" ry=".549" transform="scale(1,-1)"/><path id="path4330" fill="#000" fill-opacity=".059" stroke="none" stroke-dasharray="none" stroke-miterlimit="4" stroke-opacity=".55" stroke-width="2.8" d="m 4.938889,2.5964443 c -1.4853401,0 -2.6811112,1.2087073 -2.6811112,2.7097742 0,0.7465791 0.2794659,1.3661272 0.6372048,1.9088586 l 1.0384897,1.5902562 0,-0.9872266 c 0.3104815,0.1264423 0.6490982,0.1973351 1.0054167,0.1973351 1.4853404,0 2.6811112,-1.2081561 2.6811112,-2.7092233 0,-1.5010669 -1.1957708,-2.7097742 -2.6811112,-2.7097742 z m 3.668889,2.8222223 c -0.1755081,0 -0.346145,0.018472 -0.512079,0.050712 -0.094112,1.3180021 -0.9679793,2.4088937 -2.1624174,2.8051346 0.033911,0.6812266 0.2966934,1.2562253 0.63059,1.7627858 l 1.0384897,1.590254 0,-0.987226 c 0.3104817,0.126443 0.6490979,0.197335 1.0054167,0.197335 1.48534,0 2.681111,-1.2081527 2.681111,-2.7092211 0,-1.5010678 -1.195771,-2.7097742 -2.681111,-2.7097742 z" opacity="1"/><path id="path4328" fill="#000" fill-opacity=".118" stroke="none" stroke-dasharray="none" stroke-miterlimit="4" stroke-opacity=".55" stroke-width="2.8" d="m 4.938889,2.4835555 c -1.4853401,0 -2.6811112,1.2087073 -2.6811112,2.7097742 0,0.7465791 0.2794659,1.3661272 0.6372048,1.9088586 l 1.0384897,1.5902562 0,-0.9872266 C 4.2439538,7.8316602 4.5825705,7.902553 4.938889,7.902553 c 1.4853404,0 2.6811112,-1.2081561 2.6811112,-2.7092233 0,-1.5010669 -1.1957708,-2.7097742 -2.6811112,-2.7097742 z m 3.668889,2.8222223 c -0.1755081,0 -0.346145,0.018472 -0.512079,0.050712 -0.094112,1.3180021 -0.9679793,2.4088937 -2.1624174,2.8051346 0.033911,0.6812266 0.2966934,1.2562253 0.63059,1.7627863 l 1.0384897,1.5902543 0,-0.987226 c 0.3104817,0.126443 0.6490979,0.197335 1.0054167,0.197335 1.48534,0 2.681111,-1.2081535 2.681111,-2.7092219 0,-1.5010678 -1.195771,-2.7097742 -2.681111,-2.7097742 z" opacity="1"/><path id="path4324" fill="#000" fill-opacity=".235" stroke="none" stroke-dasharray="none" stroke-miterlimit="4" stroke-opacity=".55" stroke-width="2.8" d="m 4.938889,2.3706667 c -1.4853401,0 -2.6811112,1.2087073 -2.6811112,2.7097742 0,0.7465791 0.2794659,1.3661272 0.6372048,1.9088586 l 1.0384897,1.5902562 0,-0.9872266 c 0.3104815,0.1264423 0.6490982,0.1973351 1.0054167,0.1973351 1.4853404,0 2.6811112,-1.2081561 2.6811112,-2.7092233 0,-1.5010669 -1.1957708,-2.7097742 -2.6811112,-2.7097742 z M 8.607778,5.192889 c -0.1755081,0 -0.346145,0.018472 -0.512079,0.050712 -0.094112,1.3180021 -0.9679793,2.4088937 -2.1624174,2.8051346 0.033911,0.6812266 0.2966934,1.2562253 0.63059,1.7627863 l 1.0384897,1.5902551 0,-0.987226 c 0.3104817,0.126443 0.6490979,0.197335 1.0054167,0.197335 1.48534,0 2.681111,-1.2081543 2.681111,-2.7092227 0,-1.5010678 -1.195771,-2.7097742 -2.681111,-2.7097742 z" opacity="1"/><path id="path7515" fill="#fff" fill-opacity=".537" stroke="none" d="m 0.71437483,0.18522226 c -0.2588229,0 -0.47163484,0.18048112 -0.52034725,0.42333335 0.0947172,-0.078994 0.21858452,-0.12347223 0.3527778,-0.12347223 l 12.45305562,0 c 0.134193,0 0.258061,0.0444782 0.352778,0.12347223 -0.04871,-0.24285223 -0.261525,-0.42333335 -0.520347,-0.42333335 l -12.11791717,0 z"/><path id="rect4280-9" fill="#000" fill-opacity=".392" stroke="none" d="M 0.54680538,-1.88294e-7 C 0.24277385,-1.88294e-7 -1.9955838e-7,0.24276737 -1.9955838e-7,0.54680538 l 0,12.15319462 c 0,0.223915 0.13547343955838,0.40894 0.32631945955838,0.493889 -0.0873032,-0.09407 -0.14111112,-0.220811 -0.14111112,-0.361583 l 0,-12.11791706 c 0,-0.29582534 0.23336929,-0.52916668 0.52916669,-0.52916668 l 12.11791717,0 c 0.295797,0 0.529166,0.23334134 0.529166,0.52916668 l 0,12.11791706 c 0,0.140772 -0.05381,0.267518 -0.141111,0.361583 0.190846,-0.08495 0.32632,-0.269974 0.32632,-0.493889 l 0,-12.15319462 C 13.546667,0.24276737 13.303893,-1.88294e-7 12.999861,-1.88294e-7 l -12.45305562,0 z"/><path id="rect846" fill="#000" fill-opacity="1" stroke="none" d="m -1.9955838e-7,12.7 0,0.299861 c 0,0.304038 0.24277404955838,0.546806 0.54680557955838,0.546806 l 12.45305562,0 c 0.304032,0 0.546806,-0.242768 0.546806,-0.546806 l 0,-0.299861 c 0,0.304038 -0.242774,0.546806 -0.546806,0.546806 l -12.45305562,0 C 0.24277385,13.246806 -1.9955838e-7,13.004038 -1.9955838e-7,12.7 Z"/><path id="rect4291" fill="url(#linearGradient4316)" fill-opacity="1" stroke="none" stroke-dasharray="none" stroke-miterlimit="4" stroke-opacity=".55" stroke-width="2.8" d="M 17.5 8 C 12.236984 8 8 12.282821 8 17.601562 C 8 20.246921 8.9902334 22.44217 10.257812 24.365234 L 13.9375 30 L 13.9375 26.501953 C 15.037631 26.949977 16.237454 27.201172 17.5 27.201172 C 22.763017 27.201172 27 22.920304 27 17.601562 C 27 12.282821 22.763017 8 17.5 8 z M 30.5 18 C 29.878121 18 29.273502 18.065451 28.685547 18.179688 C 28.352078 22.849774 25.255699 26.715138 21.023438 28.119141 C 21.143595 30.532936 22.074714 32.570333 23.257812 34.365234 L 26.9375 40 L 26.9375 36.501953 C 28.037632 36.949979 29.237453 37.201172 30.5 37.201172 C 35.763014 37.201172 40 32.920308 40 27.601562 C 40 22.282818 35.763014 18 30.5 18 z" opacity="1" transform="scale(0.28222223,0.28222223)"/><path id="path4334" fill="#004da4" fill-opacity=".314" stroke="none" stroke-dasharray="none" stroke-miterlimit="4" stroke-opacity=".55" stroke-width="2.8" d="M 26.980469 17.201172 C 26.772554 22.33124 22.629228 26.400391 17.5 26.400391 C 16.237454 26.400391 15.037631 26.149196 13.9375 25.701172 L 13.9375 26.501953 C 15.037631 26.949977 16.237454 27.201172 17.5 27.201172 C 22.763017 27.201172 27 22.920305 27 17.601562 C 27 17.466357 26.985892 17.334985 26.980469 17.201172 z M 8.0195312 17.214844 C 8.0144696 17.344146 8 17.470963 8 17.601562 C 8 20.246922 8.9902339 22.44217 10.257812 24.365234 L 13.9375 30 L 13.9375 29.199219 L 10.257812 23.564453 C 9.0576883 21.743725 8.1174025 19.67455 8.0195312 17.214844 z M 39.980469 27.201172 C 39.772554 32.331244 35.629227 36.400391 30.5 36.400391 C 29.237453 36.400391 28.037632 36.149198 26.9375 35.701172 L 26.9375 36.501953 C 28.037632 36.949979 29.237453 37.201172 30.5 37.201172 C 35.763014 37.201172 40 32.920309 40 27.601562 C 40 27.466357 39.985892 27.334985 39.980469 27.201172 z M 21.095703 28.091797 C 21.071211 28.100113 21.048006 28.11099 21.023438 28.119141 C 21.143595 30.532936 22.074714 32.570333 23.257812 34.365234 L 26.9375 40 L 26.9375 39.199219 L 23.257812 33.564453 C 22.203438 31.964842 21.354158 30.171383 21.095703 28.091797 z" opacity="1" transform="scale(0.28222223,0.28222223)"/><path id="path4339" fill="#fff" fill-opacity=".235" stroke="none" stroke-dasharray="none" stroke-miterlimit="4" stroke-opacity=".55" stroke-width="2.8" d="M 17.5 8 C 12.236984 8 8 12.282821 8 17.601562 C 8 17.707339 8.010551 17.807761 8.0136719 17.912109 C 8.1652632 12.729369 12.333566 8.5996094 17.5 8.5996094 C 22.663147 8.5996094 26.827761 12.724246 26.984375 17.902344 C 26.987444 17.801539 27 17.703147 27 17.601562 C 27 12.282821 22.763017 8 17.5 8 z M 30.5 18 C 29.878121 18 29.273502 18.06545 28.685547 18.179688 C 28.352078 22.849774 25.255699 26.715138 21.023438 28.119141 C 21.03324 28.316065 21.055877 28.507232 21.076172 28.699219 C 25.280964 27.280466 28.353488 23.429652 28.685547 18.779297 C 29.273502 18.665061 29.878121 18.599609 30.5 18.599609 C 35.663146 18.599609 39.827761 22.724242 39.984375 27.902344 C 39.987444 27.801538 40 27.703148 40 27.601562 C 40 22.282818 35.763014 18 30.5 18 z" opacity="1" transform="scale(0.28222223,0.28222223)"/></svg>