<svg xmlns="http://www.w3.org/2000/svg" xmlns:svg="http://www.w3.org/2000/svg" xmlns:xlink="http://www.w3.org/1999/xlink" id="svg2" width="48" height="48" version="1.1" viewBox="0 0 13.547 13.547"><metadata id="metadata30"/><defs id="defs4"><linearGradient id="linearGradient4383"><stop id="stop4385" offset="0" stop-color="#ff9b9b" stop-opacity="1"/><stop id="stop4387" offset="1" stop-color="#fff5f5" stop-opacity="1"/></linearGradient><linearGradient id="linearGradient4377"><stop id="stop4379" offset="0" stop-color="#ff8686" stop-opacity="1"/><stop id="stop4381" offset="1" stop-color="#ffc6c6" stop-opacity="1"/></linearGradient><linearGradient id="linearGradient843" x1="-35.844" x2="-35.844" y1="-1057.985" y2="-1009.976" gradientTransform="matrix(0.28222223,0,0,0.28222223,16.052931,285.03808)" gradientUnits="userSpaceOnUse" xlink:href="#linearGradient868"/><linearGradient id="linearGradient4095" x1="7.898" x2="24.412" y1="33.59" y2="4.987" gradientTransform="matrix(0.24904463,0,0,0.24904463,3.4961038,2.0131192)" gradientUnits="userSpaceOnUse" xlink:href="#linearGradient4053"/><linearGradient id="linearGradient4103" x1="30.75" x2="20.243" y1="35.538" y2="17.339" gradientTransform="scale(0.28222223,0.28222223)" gradientUnits="userSpaceOnUse" xlink:href="#linearGradient4377"/><linearGradient id="linearGradient4118" x1="37.388" x2="10.518" y1="17.064" y2="17.064" gradientTransform="scale(0.28222223,0.28222223)" gradientUnits="userSpaceOnUse" xlink:href="#linearGradient4383"/><linearGradient id="linearGradient868"><stop id="stop870" offset="0" stop-color="#a00" stop-opacity="1"/><stop id="stop872" offset="1" stop-color="#f55" stop-opacity="1"/></linearGradient><linearGradient id="linearGradient4053"><stop id="stop4055" offset="0" stop-color="#ffcdcd" stop-opacity="1"/><stop id="stop4057" offset="1" stop-color="#fff5f5" stop-opacity="1"/></linearGradient></defs><rect id="rect2991-1" width="13.547" height="13.547" x="0" y="-13.547" fill="url(#linearGradient843)" fill-opacity="1" stroke="none" ry=".549" transform="scale(1,-1)"/><path id="path4137" fill="#000" fill-opacity=".059" stroke="none" d="m 10.537273,9.2851207 -3.7639395,2.1731113 -3.763939,-2.1731113 0,-4.3462224 3.7639391,-2.1731112 3.7639394,2.1731112 z"/><path id="path4135" fill="#000" fill-opacity=".118" stroke="none" d="m 10.537273,9.1722319 -3.7639395,2.1731111 -3.763939,-2.1731111 0,-4.3462224 3.7639391,-2.1731112 3.7639394,2.1731112 z"/><path id="path4120" fill="#000" fill-opacity=".235" stroke="none" d="m 10.537273,9.0593426 -3.7639395,2.1731114 -3.763939,-2.1731114 0,-4.3462224 3.7639391,-2.1731112 3.7639394,2.1731112 z"/><path id="path7515" fill="#fff" fill-opacity=".537" stroke="none" d="m 0.71437494,0.18522226 c -0.2588229,0 -0.47163482,0.18048112 -0.52034723,0.42333335 0.0947172,-0.078994 0.2185845,-0.12347223 0.35277778,-0.12347223 l 12.45305551,0 c 0.134194,0 0.258061,0.0444782 0.352778,0.12347223 -0.04871,-0.24285223 -0.261524,-0.42333335 -0.520347,-0.42333335 l -12.11791706,0 z"/><path id="rect4280-3" fill="#000" fill-opacity=".392" stroke="none" d="M 0.54680549,-1.88294e-7 C 0.24277398,-1.88294e-7 -6.9884984e-8,0.24276737 -6.9884984e-8,0.54680538 l 0,12.15319462 c 0,0.223915 0.135473159884984,0.40894 0.326319449884984,0.493889 -0.0873032,-0.09407 -0.14111111,-0.220811 -0.14111111,-0.361583 l 0,-12.11791706 c 0,-0.29582534 0.23336927,-0.52916668 0.52916667,-0.52916668 l 12.11791706,0 c 0.295797,0 0.529167,0.23334134 0.529167,0.52916668 l 0,12.11791706 c 0,0.140772 -0.05381,0.267518 -0.141111,0.361583 0.190846,-0.08495 0.326319,-0.269974 0.326319,-0.493889 l 0,-12.15319462 C 13.546667,0.24276737 13.303893,-1.88294e-7 12.999861,-1.88294e-7 l -12.45305551,0 z"/><path id="rect846" fill="#000" fill-opacity="1" stroke="none" d="m -6.9884984e-8,12.7 0,0.299861 c 0,0.304038 0.242774049884984,0.546806 0.546805559884984,0.546806 l 12.45305551,0 c 0.304032,0 0.546806,-0.242768 0.546806,-0.546806 l 0,-0.299861 c 0,0.304038 -0.242774,0.546806 -0.546806,0.546806 l -12.45305551,0 C 0.24277398,13.246806 -6.9884985e-8,13.004038 -6.9884985e-8,12.7 Z"/><path id="path4045" fill="url(#linearGradient4095)" fill-opacity="1" stroke="none" d="m 10.537273,8.9464538 -3.7639395,2.1731112 -3.763939,-2.1731112 0,-4.3462224 3.7639391,-2.1731112 3.7639394,2.1731112 z"/><path id="path4047" fill="url(#linearGradient4103)" fill-opacity="1" stroke="none" d="m 6.7733335,2.4270009 0,8.6926651 3.7636985,-2.1734417 0,-4.3457815 -3.7636985,-2.1734419 z"/><path id="path4063" fill="url(#linearGradient4118)" fill-opacity="1" stroke="none" d="m 6.7733335,2.4270009 -3.7642493,2.1734419 3.7642493,2.1728907 3.7636985,-2.1723396 0,-5.644e-4 -3.7636985,-2.1734286 z"/><path id="path4054" fill="#fff" fill-opacity=".235" stroke="none" d="m 6.7733335,2.4270009 3.7636985,2.1734419 5.64e-4,0 -3.7642625,-2.1734419 z"/><path id="path4139" fill="#b00606" fill-opacity=".314" stroke="none" d="m 3.0096354,8.7207773 0,0.225447 3.7636981,2.1734417 3.7636985,-2.1734417 0,-0.225447 L 6.7733335,10.893668 3.0096354,8.7207773 Z"/><path id="path4144" fill="#fff" fill-opacity=".235" stroke="none" d="m 6.7733335,2.4270009 -3.7642493,2.1734419 0.098116,0.056224 3.6661328,-2.1166667 3.6655815,2.1172179 0.09812,-0.056224 0,-5.644e-4 -3.7636985,-2.1734286 z"/></svg>