<svg xmlns="http://www.w3.org/2000/svg" xmlns:svg="http://www.w3.org/2000/svg" xmlns:xlink="http://www.w3.org/1999/xlink" id="svg5453" width="48" height="48" version="1.1"><defs id="defs5455"><linearGradient id="linearGradient4472"><stop id="stop4474" offset="0" stop-color="#144786" stop-opacity="1"/><stop id="stop4476" offset="1" stop-color="#144786" stop-opacity="1"/></linearGradient><linearGradient id="linearGradient5277"><stop id="stop5279" offset="0" stop-color="#144786" stop-opacity="1"/><stop id="stop5281" offset="1" stop-color="#068edc" stop-opacity="1"/></linearGradient><linearGradient id="linearGradient5261"><stop id="stop5263" offset="0" stop-color="#1e6ccd" stop-opacity="1"/><stop id="stop5265" offset="1" stop-color="#2faff9" stop-opacity="1"/></linearGradient><linearGradient id="linearGradient867-1" x1="26.25" x2="26.25" y1="-1052.541" y2="-1004.684" gradientTransform="translate(384.57139,504.56412)" gradientUnits="userSpaceOnUse" xlink:href="#linearGradient1373-2"/><linearGradient id="linearGradient1373-2"><stop id="stop1375-3" offset="0" stop-color="#282827" stop-opacity="1"/><stop id="stop1377-7" offset="1" stop-color="#292929" stop-opacity="1"/></linearGradient><linearGradient id="linearGradient4413" x1="418.386" x2="418.386" y1="539.198" y2="508.398" gradientUnits="userSpaceOnUse" xlink:href="#linearGradient5261"/><linearGradient id="linearGradient4415" x1="404.721" x2="404.721" y1="539.198" y2="508.398" gradientTransform="translate(-384.57143,-499.798)" gradientUnits="userSpaceOnUse" xlink:href="#linearGradient5277"/><linearGradient id="linearGradient4454" x1="403.119" x2="403.119" y1="527.298" y2="520.298" gradientUnits="userSpaceOnUse" xlink:href="#linearGradient4472"/><linearGradient id="linearGradient4462" x1="401.571" x2="408.571" y1="527.298" y2="527.298" gradientUnits="userSpaceOnUse" xlink:href="#linearGradient5277"/><linearGradient id="linearGradient4470" x1="401.571" x2="408.571" y1="519.298" y2="519.298" gradientUnits="userSpaceOnUse" xlink:href="#linearGradient5277"/></defs><metadata id="metadata5458"/><g id="layer1" transform="translate(-384.57143,-499.798)"><rect id="rect2991-1-0" width="48" height="48" x="384.571" y="-547.798" fill="url(#linearGradient867-1)" fill-opacity="1" stroke="none" ry="1.945" transform="scale(1,-1)"/><path id="rect846" fill="#000" fill-opacity="1" stroke="none" d="m 384.57143,544.79799 0,1.0625 c 0,1.0773 0.86022,1.9375 1.9375,1.9375 l 44.125,0 c 1.07728,0 1.9375,-0.8602 1.9375,-1.9375 l 0,-1.0625 c 0,1.0773 -0.86022,1.9375 -1.9375,1.9375 l -44.125,0 C 385.43165,546.73549 384.57143,545.87529 384.57143,544.79799 Z"/><path id="path7515" fill="#fff" fill-opacity=".537" stroke="none" d="m 387.10268,500.45429 c -0.91709,0 -1.67115,0.6395 -1.84375,1.5 0.33561,-0.2799 0.77451,-0.4375 1.25,-0.4375 l 44.125,0 c 0.47549,0 0.91439,0.1576 1.25,0.4375 -0.1726,-0.8605 -0.92666,-1.5 -1.84375,-1.5 L 387.10268,500.45429 Z"/><path id="rect4280" fill="#000" fill-opacity=".392" stroke="none" d="m 386.50893,499.79799 c -1.07728,0 -1.9375,0.8602 -1.9375,1.9375 l 0,43.0625 c 0,0.7934 0.48002,1.449 1.15625,1.75 -0.30934,-0.3333 -0.5,-0.7824 -0.5,-1.2812 l 0,-42.9375 c 0,-1.0482 0.8269,-1.875 1.875,-1.875 l 42.9375,0 c 1.0481,0 1.875,0.8268 1.875,1.875 l 0,42.9375 c 0,0.4988 -0.19066,0.9479 -0.5,1.2812 0.67623,-0.301 1.15625,-0.9566 1.15625,-1.75 l 0,-43.0625 c 0,-1.0773 -0.86022,-1.9375 -1.9375,-1.9375 L 386.50893,499.79799 Z"/><path id="path4329" fill="url(#linearGradient4415)" fill-opacity="1" stroke="none" d="M 30.400391 8.5996094 L 11 15.599609 L 11 32.400391 L 30.400391 39.400391 L 30.400391 8.5996094 z M 24 18.5 L 24 29.5 L 17 27.5 L 17 20.5 L 24 18.5 z" transform="translate(384.57143,499.798)"/><path id="path4341" fill="url(#linearGradient4413)" fill-opacity="1" stroke="none" d="m 414.97147,508.39801 6.59999,3 -7e-5,24.79999 -6.59992,3 z"/><rect id="rect4429" width="3" height="7" x="401.571" y="520.298" fill="url(#linearGradient4454)" fill-opacity="1" stroke="none"/><path id="path4443" fill="url(#linearGradient4470)" stroke="none" stroke-linecap="butt" stroke-linejoin="miter" stroke-opacity="1" stroke-width="1" d="m 401.57144,520.29804 3,0 4,-1.00019 0,-0.99981 z"/><path id="path4445" fill="url(#linearGradient4462)" fill-opacity="1" stroke="none" d="m 401.57144,527.29803 3,0 4,1.00019 0,0.99981 z"/><path id="path4478" fill="#0d305a" fill-opacity=".314" stroke="none" d="M 24 17.699219 L 17 19.699219 L 17 20.5 L 24 18.5 L 24 17.699219 z M 11 31.599609 L 11 32.400391 L 30.400391 39.400391 L 30.400391 38.599609 L 11 31.599609 z" transform="translate(384.57143,499.798)"/><path id="path4483" fill="#0d305a" fill-opacity=".314" stroke="none" d="M 37 35.599609 L 30.400391 38.599609 L 30.400391 39.400391 L 37 36.400391 L 37 35.599609 z" transform="translate(384.57143,499.798)"/><path id="path4488" fill="#fff" fill-opacity=".235" stroke="none" d="M 30.400391 8.5996094 L 11 15.599609 L 11 16 L 30.400391 9 L 30.400391 8.5996094 z M 17 27.5 L 17 27.900391 L 24 29.900391 L 24 29.5 L 17 27.5 z" transform="translate(384.57143,499.798)"/><path id="path4493" fill="#fff" fill-opacity=".235" stroke="none" d="M 30.400391 8.5996094 L 30.400391 9 L 37 12 L 37 11.599609 L 30.400391 8.5996094 z" transform="translate(384.57143,499.798)"/></g></svg>