<svg xmlns="http://www.w3.org/2000/svg" xmlns:svg="http://www.w3.org/2000/svg" xmlns:xlink="http://www.w3.org/1999/xlink" id="svg2" width="48" height="48" version="1.1" viewBox="0 0 13.547 13.547"><metadata id="metadata26"/><defs id="defs4"><linearGradient id="linearGradient4164"><stop id="stop4166" offset="0" stop-color="#c5ddf3" stop-opacity="1"/><stop id="stop4168" offset="1" stop-color="#f6fbfe" stop-opacity="1"/></linearGradient><linearGradient id="linearGradient4290"><stop id="stop4292" stop-color="#c6dbf2" stop-opacity="1"/><stop id="stop4294" offset="1" stop-color="#f6fbfe" stop-opacity="1"/></linearGradient><linearGradient id="linearGradient3700-46-1-4"><stop id="stop3702-4-1-6" offset="0" stop-color="#2276c5" stop-opacity="1"/><stop id="stop3704-2-4-4" offset="1" stop-color="#68baf4" stop-opacity="1"/></linearGradient><linearGradient id="linearGradient1365" x1="274.547" x2="302.722" y1="698.575" y2="728.879" gradientTransform="matrix(0.28222223,0,0,0.28222223,-74.667939,-197.49616)" gradientUnits="userSpaceOnUse" xlink:href="#linearGradient1378"/><linearGradient id="linearGradient1378"><stop id="stop1380" offset="0" stop-color="#fff" stop-opacity=".266"/><stop id="stop1382" offset="1" stop-color="#fff" stop-opacity="0"/></linearGradient><linearGradient id="linearGradient1384" x1="310.041" x2="260.494" y1="733.651" y2="695.972" gradientTransform="matrix(0.29983645,0,0,0.29983645,-79.031335,-209.70591)" gradientUnits="userSpaceOnUse" xlink:href="#linearGradient1378"/><linearGradient id="linearGradient4959" x1="-13.025" x2="-13.025" y1="-1052.863" y2="-1004.769" gradientTransform="matrix(0.28222223,0,0,0.28222223,13.418502,283.53437)" gradientUnits="userSpaceOnUse" xlink:href="#linearGradient3700-46-1-4"/><linearGradient id="linearGradient4162" x1="7.095" x2="7.095" y1="9.623" y2="3.919" gradientUnits="userSpaceOnUse" xlink:href="#linearGradient4164"/></defs><rect id="rect2991-1-7" width="13.547" height="13.547" x="0" y="-13.547" fill="url(#linearGradient4959)" fill-opacity="1" stroke="none" ry=".549" transform="scale(1,-1)"/><path id="path4818" fill="#000" fill-opacity=".706" stroke="none" d="m 1.1288889,12.417778 0,1.128889 11.2888891,0 0,-1.128889 -11.2888891,0 z"/><path id="path1357" fill="url(#linearGradient1365)" fill-opacity="1" stroke="none" d="m 1.0230725e-8,3.3958388 0,6.6410282 C 2.8886057,8.0019878 6.8825445,6.5885907 9.9836114,5.7065333 6.7848321,4.6820102 3.0671782,3.9194739 1.0230725e-8,3.3958388 Z" opacity=".5"/><path id="rect1340" fill="#fff" fill-opacity=".152" stroke="none" d="m 1.0230725e-8,3.3847838e-4 0,7.93750022162 C 4.2406244,4.9505446 10.869323,3.2874372 13.546667,2.7079221 l 0,-2.70758362162 -13.546666989769274,0 z"/><path id="path1376" fill="url(#linearGradient1384)" fill-opacity="1" stroke="none" d="m 1.0230725e-8,3.3847838e-4 0,7.15258372162 C 5.3181858,7.5498114 10.724064,9.0473954 13.546667,9.9310332 l 0,-4.2421388 -9.8601391,-5.68855592162 -3.686527889769275,0 z"/><path id="rect846-4" fill="#000" fill-opacity="1" stroke="none" d="m -1.4008804e-6,12.7 0,0.299861 c 0,0.304038 0.2427732108804,0.546806 0.5468055708804,0.546806 l 12.45305583,0 c 0.304032,0 0.546806,-0.242768 0.546806,-0.546806 l 0,-0.299861 c 0,0.304038 -0.242774,0.546806 -0.546806,0.546806 l -12.45305583,0 C 0.24277181,13.246806 -1.4008804e-6,13.004038 -1.4008804e-6,12.7 Z"/><path id="path7515-8" fill="#fff" fill-opacity=".537" stroke="none" d="m 0.71437362,0.18522226 c -0.25882319,0 -0.47163568,0.18048112 -0.52034724,0.42333335 0.0947166,-0.078994 0.21858394,-0.12347223 0.35277779,-0.12347223 l 12.45305583,0 c 0.134194,0 0.258061,0.0444782 0.352778,0.12347223 -0.04871,-0.24285223 -0.261524,-0.42333335 -0.520347,-0.42333335 l -12.11791738,0 z"/><path id="rect4280-4" fill="#000" fill-opacity=".392" stroke="none" d="M 0.54680417,-1.88294e-7 C 0.24277181,-1.88294e-7 -1.4008804e-6,0.24276737 -1.4008804e-6,0.54680538 l 0,12.15319462 c 0,0.223915 0.1354723108804,0.40894 0.3263194508804,0.493889 -0.0873026,-0.09407 -0.14111111,-0.220811 -0.14111111,-0.361583 l 0,-12.11791706 c 0,-0.29582534 0.23336956,-0.52916668 0.52916668,-0.52916668 l 12.11791738,0 c 0.295797,0 0.529166,0.23334134 0.529166,0.52916668 l 0,12.11791706 c 0,0.140772 -0.05381,0.267518 -0.141111,0.361583 0.190847,-0.08495 0.32632,-0.269974 0.32632,-0.493889 l 0,-12.15319462 C 13.546666,0.24276737 13.303892,-1.88294e-7 12.99986,-1.88294e-7 l -12.45305583,0 z"/><path id="path86-6" fill="url(#linearGradient4162)" fill-opacity="1" d="m 3.9511113,5.1270375 0,1.6462957 c 0,0 1.1759259,-0.8155539 1.1759259,0.5879635 0,1.409439 -1.1759259,0.5879625 -1.1759259,0.5879625 l 10e-8,1.6462965 1.6462963,0 c 0,0 -0.5637173,-1.175926 0.7055551,-1.175926 1.2989494,0 0.7055559,1.175926 0.7055559,1.175926 l 1.6462968,0 0,-1.6462965 c 0,0 0.9407402,0.5879635 0.9407402,-0.5879625 0,-0.940741 -0.4703701,-0.823148 -0.9407402,-0.5879635 l 0,-1.6462957 -1.6462968,-2e-7 c 0,0 0.705556,-1.175926 -0.7055559,-1.175926 -1.4111106,0 -0.7055551,1.175926 -0.7055551,1.175926 z"/></svg>