<svg xmlns="http://www.w3.org/2000/svg" xmlns:svg="http://www.w3.org/2000/svg" xmlns:xlink="http://www.w3.org/1999/xlink" id="svg2" width="48" height="48" version="1.1"><defs id="defs4"><linearGradient id="linearGradient4160-5"><stop id="stop4162-8" offset="0" stop-color="#fff" stop-opacity="1"/><stop id="stop4164-8" offset="1" stop-color="#fff" stop-opacity="0"/></linearGradient><linearGradient id="linearGradient4132-7"><stop id="stop4134-1" offset="0" stop-color="#000" stop-opacity="1"/><stop id="stop4136-1" offset="1" stop-color="#000" stop-opacity="0"/></linearGradient><linearGradient id="linearGradient1414"><stop id="stop1416" offset="0" stop-color="#2c3e50" stop-opacity="1"/><stop id="stop1418" offset="1" stop-color="#3d5670" stop-opacity="1"/></linearGradient><linearGradient id="linearGradient1398" x1="76.279" x2="76.279" y1="-1044.013" y2="-995.982" gradientTransform="translate(-52.721087,-8.3501062)" gradientUnits="userSpaceOnUse" xlink:href="#linearGradient1414"/><linearGradient id="linearGradient4118-8" x1="-52.408" x2="-49.757" y1="23.239" y2="22.32" gradientUnits="userSpaceOnUse" xlink:href="#linearGradient4132-7"/><linearGradient id="linearGradient4128-6" x1="-25.367" x2="-22.693" y1="1027.039" y2="1028.395" gradientTransform="matrix(2.0609075,0,0,2.0602678,165.25411,-1085.4051)" gradientUnits="userSpaceOnUse" xlink:href="#linearGradient4132-7"/><linearGradient id="linearGradient4138-5" x1="-34.471" x2="-31.687" y1="1030.972" y2="1028.232" gradientTransform="matrix(2.0609075,0,0,2.0602678,165.25411,-1085.4051)" gradientUnits="userSpaceOnUse" xlink:href="#linearGradient4132-7"/><linearGradient id="linearGradient4156-5" x1="-31.334" x2="-28.549" y1="1021.692" y2="1021.692" gradientTransform="matrix(2.0609075,0,0,2.0602678,165.25411,-1085.4051)" gradientUnits="userSpaceOnUse" xlink:href="#linearGradient4132-7"/><linearGradient id="linearGradient4166-0" x1="-29.919" x2="-31.844" y1="1021.912" y2="1021.397" gradientTransform="matrix(2.0609075,0,0,2.0602678,165.25411,-1085.4051)" gradientUnits="userSpaceOnUse" xlink:href="#linearGradient4160-5"/><linearGradient id="linearGradient4176" x1="-24.538" x2="-22.789" y1="1021.46" y2="1020.649" gradientTransform="matrix(2.0609075,0,0,2.0602678,165.25411,-1085.4051)" gradientUnits="userSpaceOnUse" xlink:href="#linearGradient4132-7"/></defs><metadata id="metadata7"/><g id="layer1" transform="translate(0,-1004.3622)"><rect id="rect2991-1" width="48" height="48" x="0" y="-1052.362" fill="url(#linearGradient1398)" fill-opacity="1" stroke="none" ry="1.945" transform="scale(1,-1)"/><path id="path4161" fill="#000" fill-opacity=".059" stroke="none" d="m 12.336412,1014.1623 -0.0039,0.01 -0.04884,0 -6.0642535,7.353 -2.469465,2.9694 0.01954,0 -0.01368,0.016 -0.0059,0 0.0039,0 -0.0039,0 20.2480475,20.4515 0.002,0 0.002,0 20.248051,-20.4516 -0.004,0 0.004,0 -0.006,0 -0.0137,-0.016 0.0195,0 -2.46947,-2.9694 -6.064254,-7.353 -0.04884,0 -0.0039,-0.01 -1.680173,0.01 -19.964762,0 -1.682127,-0.01 z"/><path id="path4159" fill="#000" fill-opacity=".118" stroke="none" d="m 12.336412,1013.7623 -0.0039,0.01 -0.04884,0 -6.0642535,7.353 -2.469465,2.9694 0.01954,0 -0.01368,0.016 -0.0059,0 0.0039,0 -0.0039,0 20.2480475,20.4515 0.002,0 0.002,0 20.248051,-20.4516 -0.004,0 0.004,0 -0.006,0 -0.0137,-0.016 0.0195,0 -2.46947,-2.9694 -6.064254,-7.353 -0.04884,0 -0.0039,-0.01 -1.680173,0.01 -19.964762,0 -1.682127,-0.01 z"/><path id="path4106" fill="#000" fill-opacity=".235" stroke="none" d="m 12.336412,1013.3623 -0.0039,0.01 -0.04884,0 -6.0642535,7.353 -2.469465,2.9694 0.01954,0 -0.01368,0.016 -0.0059,0 0.0039,0 -0.0039,0 20.2480475,20.4515 0.002,0 0.002,0 20.248051,-20.4516 -0.004,0 0.004,0 -0.006,0 -0.0137,-0.016 0.0195,0 -2.46947,-2.9694 -6.064254,-7.353 -0.04884,0 -0.0039,-0.01 -1.680173,0.01 -19.964762,0 -1.682127,-0.01 z"/><path id="rect846" fill="#000" fill-opacity="1" stroke="none" d="m -1.5e-6,1049.3622 0,1.0625 c 0,1.0773 0.860223,1.9375 1.9375,1.9375 l 44.1250025,0 c 1.07727,0 1.9375,-0.8602 1.9375,-1.9375 l 0,-1.0625 c 0,1.0773 -0.86023,1.9375 -1.9375,1.9375 l -44.1250025,0 c -1.077277,0 -1.9375,-0.8602 -1.9375,-1.9375 z"/><path id="path7515" fill="#fff" fill-opacity=".537" stroke="none" d="m 2.5312485,1005.0185 c -0.917088,0 -1.671147,0.6395 -1.84375,1.5 0.335612,-0.2799 0.774512,-0.4375 1.25,-0.4375 l 44.1250025,0 c 0.47549,0 0.91439,0.1576 1.25,0.4375 -0.17261,-0.8605 -0.92667,-1.5 -1.84375,-1.5 l -42.9375025,0 z"/><path id="rect4280-0" fill="#000" fill-opacity=".392" stroke="none" d="m 1.9374985,1004.3622 c -1.077277,0 -1.9375,0.8602 -1.9375,1.9375 l 0,43.0625 c 0,0.7934 0.480024,1.449 1.15625,1.75 -0.309342,-0.3333 -0.5,-0.7824 -0.5,-1.2812 l 0,-42.9375 c 0,-1.0482 0.826899,-1.875 1.875,-1.875 l 42.9375025,0 c 1.048101,0 1.875,0.8268 1.875,1.875 l 0,42.9375 c 0,0.4988 -0.190659,0.9479 -0.5,1.2812 0.67622,-0.301 1.15625,-0.9566 1.15625,-1.75 l 0,-43.0625 c 0,-1.0773 -0.86023,-1.9375 -1.9375,-1.9375 l -44.1250025,0 z"/><path id="path4073-4" fill="#c54c4c" fill-opacity="1" stroke="none" d="m 12.284051,1012.9683 -8.5339965,10.3438 -3.3e-5,0 1.9e-5,0 2e-5,0 20.2499595,20.4499 20.249951,-20.4499 3e-5,0 -2e-5,0 -8.533993,-10.3438 -23.431937,0 z"/><path id="path4086-2" fill="#d54747" fill-opacity="1" stroke="none" d="m -49.460674,25.039731 -2.980764,-5.162834 5.961527,0 z" transform="matrix(3.1949997,0,0,3.9610243,182.02684,944.57921)"/><path id="path4091-2" fill="#e86363" fill-opacity="1" stroke="none" d="m 14.482163,1023.304 -0.0057,0 0.0095,0 -0.0038,0 z m -0.0057,0 -10.7264595,0 20.2328655,20.4135 -9.506349,-20.4054 z"/><path id="path4096-1" fill="#c54c4c" fill-opacity="1" stroke="none" d="m 33.517775,1023.304 0.0057,0 -0.0095,0 0.0038,0 z m 0.0057,0 10.726466,0 -20.232905,20.4135 9.506382,-20.4054 z"/><path id="path4098-2" fill="#e97070" fill-opacity="1" stroke="none" d="m 18.480721,1013.0297 -4.00425,10.2491 19.047079,0 -4.022218,-10.295 z"/><path id="path4102-9" fill="#dd5b5b" fill-opacity="1" stroke="none" d="m 33.517775,1023.2882 0.0057,0 -0.0095,0 z m 0.0057,0 10.726466,0 -8.586473,-10.326 -6.165632,0.021 4.025582,10.2955 z"/><path id="path4107-9" fill="#f79898" fill-opacity="1" stroke="none" d="m 14.482243,1023.2882 -0.0057,0 0.0095,0 z m -0.0057,0 -10.7264605,0 8.5864675,-10.326 6.165635,0.021 -4.025583,10.2955 z"/><g id="g4272" transform="translate(-85.185232,-0.95167139)"><path id="path4110-3" fill="url(#linearGradient4118-8)" fill-opacity="1" stroke="none" d="m -49.460674,25.039731 -2.980764,-5.162834 5.961527,0 z" opacity=".17" transform="matrix(3.1949997,0,0,3.9610243,267.21195,945.53088)"/><path id="path4120-1" fill="url(#linearGradient4128-6)" fill-opacity="1" stroke="none" d="m 118.70288,1024.2557 0.006,0 -0.01,0 z m 0.006,0 7.62817,0 -17.13461,20.4135 9.50639,-20.4054 z" opacity=".31"/><path id="path4130-8" fill="url(#linearGradient4138-5)" fill-opacity="1" stroke="none" d="m 99.667272,1024.2557 -0.0057,0 0.0095,0 -0.0038,0 z m -0.0057,0 -10.72646,0 20.232868,20.4135 -9.506351,-20.4054 z"/><path id="path4140-4" fill="url(#linearGradient4156-5)" fill-opacity="1" stroke="none" d="m 103.66583,1013.9814 -4.00425,10.2491 19.04708,0 -4.02222,-10.295 z" opacity=".17"/><path id="path4158-7" fill="url(#linearGradient4166-0)" fill-opacity="1" stroke="none" d="m 99.667352,1024.2399 -0.0057,0 0.0095,0 z m -0.0057,0 -10.726461,0 8.586468,-10.326 6.165631,0.021 -4.025579,10.2955 z"/><path id="path4168" fill="url(#linearGradient4176)" fill-opacity="1" stroke="none" d="m 118.70288,1024.2399 0.006,0 -0.01,0 z m 0.006,0 10.72647,0 -8.58647,-10.326 -6.16564,0.021 4.02559,10.2955 z" opacity=".18"/></g></g></svg>