<svg xmlns="http://www.w3.org/2000/svg" xmlns:svg="http://www.w3.org/2000/svg" xmlns:xlink="http://www.w3.org/1999/xlink" id="svg5453" width="48" height="48" version="1.1"><defs id="defs5455"><linearGradient id="linearGradient6754"><stop id="stop6756" offset="0" stop-color="#fff" stop-opacity="1"/><stop id="stop6758" offset="1" stop-color="#fff" stop-opacity="0"/></linearGradient><linearGradient id="linearGradient887"><stop id="stop889" offset="0" stop-color="#28784d" stop-opacity="1"/><stop id="stop891" offset="1" stop-color="#518f5c" stop-opacity="1"/></linearGradient><linearGradient id="linearGradient893" x1="25.266" x2="25.266" y1="-1053.002" y2="-1004.389" gradientTransform="translate(384.57143,504.56419)" gradientUnits="userSpaceOnUse" xlink:href="#linearGradient887"/><radialGradient id="radialGradient6748" cx="400.697" cy="521.366" r="15.4" fx="400.697" fy="521.366" gradientTransform="translate(1.5043249e-4,0)" gradientUnits="userSpaceOnUse" xlink:href="#linearGradient4001"/><radialGradient id="radialGradient6762" cx="402.665" cy="515.46" r="14.4" fx="402.665" fy="515.46" gradientTransform="matrix(0.9627233,0,0,0.98282814,15.230349,8.2418601)" gradientUnits="userSpaceOnUse" xlink:href="#linearGradient6754"/><radialGradient id="radialGradient6766" cx="402.665" cy="515.46" r="14.4" fx="402.665" fy="515.46" gradientTransform="matrix(0.09489324,0.23365355,-0.20266879,0.08230946,347.81337,451.02656)" gradientUnits="userSpaceOnUse" xlink:href="#linearGradient6754"/><radialGradient id="radialGradient6770" cx="402.665" cy="515.46" r="14.4" fx="402.665" fy="515.46" gradientTransform="matrix(0.06726112,0.16561558,-0.14365334,0.05834163,392.61796,455.09776)" gradientUnits="userSpaceOnUse" xlink:href="#linearGradient6754"/><radialGradient id="radialGradient6778" cx="403.507" cy="509.215" r="14.4" fx="403.507" fy="509.215" gradientTransform="matrix(0.9627233,0,0,0.98282814,-369.34108,-491.55614)" gradientUnits="userSpaceOnUse" xlink:href="#linearGradient6754"/><linearGradient id="linearGradient3356"><stop id="stop3358" offset="0" stop-color="#ed9223" stop-opacity="1"/><stop id="stop3360" offset="1" stop-color="#f9a847" stop-opacity="1"/></linearGradient><linearGradient id="linearGradient4219" x1="23.22" x2="23.22" y1="31.069" y2="16.959" gradientUnits="userSpaceOnUse" xlink:href="#linearGradient3356"/><linearGradient id="linearGradient4001"><stop id="stop4003" offset="0" stop-color="#c0bebe" stop-opacity="1"/><stop id="stop4005" offset="1" stop-color="#f2f7f7" stop-opacity="1"/></linearGradient><linearGradient id="linearGradient4513" x1="408.801" x2="408.801" y1="528.87" y2="518.779" gradientUnits="userSpaceOnUse" xlink:href="#linearGradient4001"/></defs><metadata id="metadata5458"/><g id="layer1" transform="translate(-384.57143,-499.798)"><rect id="rect2991-1" width="48" height="48" x="384.571" y="-547.798" fill="url(#linearGradient893)" fill-opacity="1" stroke="none" ry="1.945" transform="scale(1,-1)"/><circle id="circle6818" cx="408.571" cy="524.998" r="15.4" fill="#000" fill-opacity=".059" stroke="none" d="m 423.97144,524.99799 a 15.4,15.4 0 0 1 -15.4,15.4 15.4,15.4 0 0 1 -15.4,-15.4 15.4,15.4 0 0 1 15.4,-15.4 15.4,15.4 0 0 1 15.4,15.4 z"/><circle id="circle6816" cx="408.571" cy="524.598" r="15.4" fill="#000" fill-opacity=".118" stroke="none" d="m 423.97144,524.5979 a 15.4,15.4 0 0 1 -15.4,15.4 15.4,15.4 0 0 1 -15.4,-15.4 15.4,15.4 0 0 1 15.4,-15.4 15.4,15.4 0 0 1 15.4,15.4 z"/><circle id="circle6812" cx="408.571" cy="524.198" r="15.4" fill="#000" fill-opacity=".235" stroke="none" d="m 423.97144,524.198 a 15.4,15.4 0 0 1 -15.4,15.4 15.4,15.4 0 0 1 -15.4,-15.4 15.4,15.4 0 0 1 15.4,-15.4 15.4,15.4 0 0 1 15.4,15.4 z"/><path id="rect846-4" fill="#000" fill-opacity="1" stroke="none" d="m 384.57143,544.798 0,1.0625 c 0,1.0773 0.86022,1.9375 1.9375,1.9375 l 44.125,0 c 1.07727,0 1.9375,-0.8602 1.9375,-1.9375 l 0,-1.0625 c 0,1.0773 -0.86023,1.9375 -1.9375,1.9375 l -44.125,0 c -1.07728,0 -1.9375,-0.8602 -1.9375,-1.9375 z"/><path id="path7515-0" fill="#fff" fill-opacity=".537" stroke="none" d="m 387.10268,500.4543 c -0.91709,0 -1.67115,0.6395 -1.84375,1.5 0.33561,-0.2799 0.77451,-0.4375 1.25,-0.4375 l 44.125,0 c 0.47549,0 0.91439,0.1576 1.25,0.4375 -0.1726,-0.8605 -0.92666,-1.5 -1.84375,-1.5 l -42.9375,0 z"/><path id="rect4280-0" fill="#000" fill-opacity=".392" stroke="none" d="m 386.50893,499.798 c -1.07728,0 -1.9375,0.8602 -1.9375,1.9375 l 0,43.0625 c 0,0.7934 0.48002,1.449 1.15625,1.75 -0.30934,-0.3333 -0.5,-0.7824 -0.5,-1.2812 l 0,-42.9375 c 0,-1.0482 0.8269,-1.875 1.875,-1.875 l 42.9375,0 c 1.0481,0 1.875,0.8268 1.875,1.875 l 0,42.9375 c 0,0.4988 -0.19066,0.9479 -0.5,1.2812 0.67622,-0.301 1.15625,-0.9566 1.15625,-1.75 l 0,-43.0625 c 0,-1.0773 -0.86023,-1.9375 -1.9375,-1.9375 l -44.125,0 z"/><circle id="path5295" cx="408.571" cy="523.798" r="15.4" fill="url(#radialGradient6748)" fill-opacity="1" stroke="none" d="m 423.97144,523.79797 a 15.4,15.4 0 0 1 -15.4,15.4 15.4,15.4 0 0 1 -15.4,-15.4 15.4,15.4 0 0 1 15.4,-15.4 15.4,15.4 0 0 1 15.4,15.4 z"/><path id="rect4165" fill="url(#linearGradient4219)" fill-opacity="1" stroke="none" stroke-dasharray="none" stroke-miterlimit="4" stroke-opacity=".55" stroke-width="2.8" d="M 10.300781 17 A 15.4 15.4 0 0 0 8.5996094 24 A 15.4 15.4 0 0 0 9.8867188 30.119141 C 9.8878401 30.121198 9.8895026 30.122943 9.890625 30.125 C 10.052883 30.422344 10.224475 30.714071 10.408203 31 L 37.583984 31 C 37.816535 30.638901 38.026408 30.265818 38.224609 29.886719 A 15.4 15.4 0 0 0 39.400391 24 A 15.4 15.4 0 0 0 37.716797 17 L 10.300781 17 z" opacity="1" transform="translate(384.57143,499.798)"/><circle id="path4505" cx="408.571" cy="523.798" r="5" fill="url(#linearGradient4513)" fill-opacity="1" stroke="none" stroke-dasharray="none" stroke-miterlimit="4" stroke-opacity=".55" stroke-width="2.8" opacity="1"/><g id="text4515" fill="#000" fill-opacity=".587" stroke="none" stroke-linecap="butt" stroke-linejoin="miter" stroke-opacity="1" stroke-width="1" font-family="Helvetica" font-size="10" font-stretch="normal" font-style="normal" font-variant="normal" font-weight="normal" letter-spacing="0" word-spacing="0" style="line-height:125%;-inkscape-font-specification:Helvetica"><path id="path4520" fill="#000" fill-opacity=".587" d="m 409.85318,522.09631 q 0,-0.49804 -0.38086,-0.81054 -0.37598,-0.31739 -0.9668,-0.31739 -0.625,0 -0.95703,0.38575 -0.33203,0.38086 -0.36621,1.14257 l 0,0 -0.85449,0 0,0 q 0,-1.10351 0.57617,-1.7041 0.58106,-0.60547 1.64063,-0.60547 1.00097,0 1.61132,0.50293 0.61524,0.49805 0.61524,1.31836 0,0.81543 -0.61524,1.31836 -0.11718,0.0977 -0.2539,0.17578 l 0,0 q 0.2539,0.11231 0.44922,0.26856 0.65918,0.51758 0.65918,1.39648 0,0.98633 -0.6836,1.61621 -0.68359,0.625 -1.75781,0.625 -1.18164,0 -1.78223,-0.5664 -0.60058,-0.57129 -0.65429,-1.74317 l 0,0 0.92285,0 0,0 q 0.0781,0.82032 0.43457,1.17676 0.35644,0.35156 1.1084,0.35156 0.64941,0 1.06445,-0.37109 0.41504,-0.37598 0.41504,-0.96191 0,-0.61524 -0.40039,-0.97657 -0.3418,-0.3125 -0.87891,-0.35156 -0.24902,-0.0146 -0.47363,-0.0146 -0.21973,0 -0.29297,0.0195 l 0,-0.77148 q 0.10742,0.0244 0.33203,0.0244 0.22461,0 0.44434,-0.0293 0.4248,-0.0537 0.68847,-0.27832 0.35645,-0.29297 0.35645,-0.82032 z"/></g><ellipse id="circle6750" cx="408.571" cy="523.045" fill="url(#radialGradient6762)" fill-opacity="1" stroke="none" d="m 422.43466,523.04523 a 13.863215,14.152725 0 0 1 -13.86322,14.15272 13.863215,14.152725 0 0 1 -13.86321,-14.15272 13.863215,14.152725 0 0 1 13.86321,-14.15273 13.863215,14.152725 0 0 1 13.86322,14.15273 z" opacity=".17" rx="13.863" ry="14.153"/><ellipse id="ellipse6764" cx="283.194" cy="589.362" fill="url(#radialGradient6766)" fill-opacity="1" stroke="none" d="m 287.18652,589.36188 a 3.9929764,3.1499317 0 0 1 -3.99298,3.14993 3.9929764,3.1499317 0 0 1 -3.99297,-3.14993 3.9929764,3.1499317 0 0 1 3.99297,-3.14993 3.9929764,3.1499317 0 0 1 3.99298,3.14993 z" opacity=".17" rx="3.993" ry="3.15" transform="matrix(0.97643652,-0.21580483,0.21580483,0.97643652,0,0)"/><ellipse id="ellipse6768" cx="346.815" cy="553.151" fill="url(#radialGradient6770)" fill-opacity="1" stroke="none" d="m 349.64517,553.151 a 2.830255,2.2326977 0 0 1 -2.83026,2.2327 2.830255,2.2326977 0 0 1 -2.83025,-2.2327 2.830255,2.2326977 0 0 1 2.83025,-2.2327 2.830255,2.2326977 0 0 1 2.83026,2.2327 z" opacity=".34" rx="2.83" ry="2.233" transform="matrix(0.9945066,-0.10467388,0.10467388,0.9945066,0,0)"/><path id="ellipse6774" fill="url(#radialGradient6778)" fill-opacity="1" stroke="none" d="m 24,9.09375 c -3.218892,0.00295 -6.424399,1.194449 -8.891592,3.305046 -2.467193,2.110597 -4.177154,5.124105 -4.743174,8.359016 1.7748,-0.09077 4.187576,-0.985991 6.542969,-2.634765 4.63215,-3.24251 10.189217,-2.663319 15.400387,2.779461 2.348698,2.453085 4.888203,-2.026334 3.257816,-5.443524 C 33.055568,11.569203 28.563114,9.0969119 24,9.09375 Z" opacity=".17" transform="translate(384.57143,499.798)"/></g></svg>