<svg xmlns="http://www.w3.org/2000/svg" xmlns:svg="http://www.w3.org/2000/svg" xmlns:xlink="http://www.w3.org/1999/xlink" id="svg2" width="48" height="48" version="1.1"><defs id="defs4"><linearGradient id="linearGradient4001"><stop id="stop4003" offset="0" stop-color="#c0bebe" stop-opacity="1"/><stop id="stop4005" offset="1" stop-color="#f2f7f7" stop-opacity="1"/></linearGradient><linearGradient id="linearGradient3795-1-2"><stop id="stop3797-1-9" offset="0" stop-color="#272b30" stop-opacity="1"/><stop id="stop3799-3-6" offset="1" stop-color="#282c31" stop-opacity="1"/></linearGradient><linearGradient id="linearGradient4007" x1="22.451" x2="22.451" y1="1049.29" y2="1007.375" gradientTransform="matrix(0.95237789,0,0,0.95237799,1.1428663,48.972578)" gradientUnits="userSpaceOnUse" xlink:href="#linearGradient4001"/><linearGradient id="linearGradient929" x1="88.43" x2="88.43" y1="-1042.109" y2="-994.91" gradientTransform="translate(-63.327693,-9.7643189)" gradientUnits="userSpaceOnUse" xlink:href="#linearGradient3795-1-2"/><linearGradient id="linearGradient137480"><stop id="stop137482" offset="0" stop-color="#5a5a5a" stop-opacity="1"/><stop id="stop137484" offset="1" stop-color="#101010" stop-opacity="1"/></linearGradient><linearGradient id="linearGradient6194" x1="0" x2="1" y1="0" y2="0" gradientTransform="matrix(13.526835,20.525875,20.525875,-13.526835,19.18986,1021.0543)" gradientUnits="userSpaceOnUse" spreadMethod="pad"><stop id="stop6196" offset="0" stop-color="#fff" stop-opacity="1"/><stop id="stop6198" offset=".168" stop-color="#29282b" stop-opacity="1"/><stop id="stop6200" offset=".264" stop-color="#868c95" stop-opacity="1"/><stop id="stop6202" offset=".396" stop-color="#92979f" stop-opacity="1"/><stop id="stop6204" offset=".542" stop-color="#737881" stop-opacity="1"/><stop id="stop6206" offset=".626" stop-color="#70757e" stop-opacity="1"/><stop id="stop6208" offset=".718" stop-color="#e4e6e8" stop-opacity="1"/><stop id="stop6210" offset=".791" stop-color="#fff" stop-opacity="1"/><stop id="stop6212" offset="1" stop-color="#1d191a" stop-opacity="1"/></linearGradient><linearGradient id="linearGradient4768" x1="1004.313" x2="1012.362" y1="-34.625" y2="-34.625" gradientTransform="translate(0.50002588,0)" gradientUnits="userSpaceOnUse" xlink:href="#linearGradient6194"/><linearGradient id="linearGradient4772" x1="1004.313" x2="1012.362" y1="-34.625" y2="-34.625" gradientTransform="translate(0.50002588,2)" gradientUnits="userSpaceOnUse" xlink:href="#linearGradient6194"/><linearGradient id="linearGradient4776" x1="1004.313" x2="1012.362" y1="-34.625" y2="-34.625" gradientTransform="translate(0.50002588,9.249021)" gradientUnits="userSpaceOnUse" xlink:href="#linearGradient6194"/><linearGradient id="linearGradient4780" x1="1004.313" x2="1012.362" y1="-34.625" y2="-34.625" gradientTransform="translate(0.50002588,11.249021)" gradientUnits="userSpaceOnUse" xlink:href="#linearGradient6194"/><linearGradient id="linearGradient4788" x1="1004.313" x2="1012.362" y1="-34.625" y2="-34.625" gradientTransform="translate(0.50002588,22)" gradientUnits="userSpaceOnUse" xlink:href="#linearGradient6194"/><linearGradient id="linearGradient4792" x1="1004.313" x2="1012.362" y1="-34.625" y2="-34.625" gradientTransform="translate(0.50002588,20)" gradientUnits="userSpaceOnUse" xlink:href="#linearGradient6194"/><linearGradient id="linearGradient4863" x1="1013.469" x2="1011.539" y1="-13.206" y2="-13.206" gradientTransform="matrix(1.1578948,0,0,2.6595742,-159.62035,19.577131)" gradientUnits="userSpaceOnUse" xlink:href="#linearGradient137480"/><linearGradient id="linearGradient4871" x1="1013.469" x2="1011.539" y1="-13.206" y2="-13.206" gradientTransform="matrix(1.1578948,0,0,2.6595742,-159.62035,-0.42286811)" gradientUnits="userSpaceOnUse" xlink:href="#linearGradient137480"/><linearGradient id="linearGradient4883" x1="1013.469" x2="1011.539" y1="-13.206" y2="-13.206" gradientTransform="matrix(1.1578948,0,0,2.6595742,-159.62035,9.2016413)" gradientUnits="userSpaceOnUse" xlink:href="#linearGradient137480"/><linearGradient id="linearGradient6453"><stop id="stop6455" offset="0" stop-color="#fff" stop-opacity="1"/><stop id="stop6457" offset="1" stop-color="#fff" stop-opacity="0"/></linearGradient><linearGradient id="linearGradient6436"><stop id="stop6438" offset="0" stop-color="#908f7d" stop-opacity="1"/><stop id="stop6440" offset="1" stop-color="#2d3538" stop-opacity="1"/></linearGradient><linearGradient id="linearGradient6413"><stop id="stop6415" offset="0" stop-color="#eed39b" stop-opacity="1"/><stop id="stop6417" offset="1" stop-color="#bc6a2d" stop-opacity="1"/></linearGradient><linearGradient id="linearGradient6405"><stop id="stop6407" offset="0" stop-color="#99491c" stop-opacity="1"/><stop id="stop6409" offset="1" stop-color="#99491c" stop-opacity="0"/></linearGradient><linearGradient id="linearGradient6381"><stop id="stop6383" offset="0" stop-color="#0f0e1c" stop-opacity=".183"/><stop id="stop6385" offset="1" stop-color="#0f0e1c" stop-opacity="0"/></linearGradient><linearGradient id="linearGradient6365"><stop id="stop6367" offset="0" stop-color="#fef0ac" stop-opacity="1"/><stop id="stop6369" offset="1" stop-color="#fef0ac" stop-opacity="0"/></linearGradient><linearGradient id="linearGradient6357"><stop id="stop6359" offset="0" stop-color="#be7c04" stop-opacity="1"/><stop id="stop6361" offset="1" stop-color="#fbd61f" stop-opacity="0"/></linearGradient><linearGradient id="linearGradient6349"><stop id="stop6351" offset="0" stop-color="#bf4e3a" stop-opacity="1"/><stop id="stop6353" offset="1" stop-color="#0f0e1c" stop-opacity="0"/></linearGradient><linearGradient id="linearGradient6337"><stop id="stop6339" offset="0" stop-color="#ee6b6a" stop-opacity="1"/><stop id="stop6341" offset="1" stop-color="#eb5453" stop-opacity="1"/></linearGradient><linearGradient id="linearGradient6138"><stop id="stop6140" offset="0" stop-color="#0f0e1c" stop-opacity="1"/><stop id="stop6142" offset="1" stop-color="#0f0e1c" stop-opacity="0"/></linearGradient><linearGradient id="linearGradient6194-6" x1="0" x2="1" y1="0" y2="0" gradientTransform="matrix(13.526835,20.525875,20.525875,-13.526835,19.18986,1021.0543)" gradientUnits="userSpaceOnUse" spreadMethod="pad"><stop id="stop6196-4" offset="0" stop-color="#fff" stop-opacity="1"/><stop id="stop6198-2" offset=".168" stop-color="#29282b" stop-opacity="1"/><stop id="stop6200-17" offset=".264" stop-color="#868c95" stop-opacity="1"/><stop id="stop6202-4" offset=".396" stop-color="#92979f" stop-opacity="1"/><stop id="stop6204-4" offset=".542" stop-color="#737881" stop-opacity="1"/><stop id="stop6206-5" offset=".626" stop-color="#70757e" stop-opacity="1"/><stop id="stop6208-4" offset=".718" stop-color="#e4e6e8" stop-opacity="1"/><stop id="stop6210-0" offset=".791" stop-color="#fff" stop-opacity="1"/><stop id="stop6212-4" offset="1" stop-color="#1d191a" stop-opacity="1"/></linearGradient><linearGradient id="linearGradient6343" x1="451.13" x2="461.601" y1="500.738" y2="500.738" gradientTransform="matrix(0.48308685,0.48308685,-0.4817572,0.4817572,51.93319,558.88054)" gradientUnits="userSpaceOnUse" xlink:href="#linearGradient6337"/><linearGradient id="linearGradient6347" x1="451.13" x2="461.601" y1="500.738" y2="500.738" gradientTransform="matrix(-0.39088837,-0.39088837,-0.38981247,0.38981247,405.03678,1004.1232)" gradientUnits="userSpaceOnUse" xlink:href="#linearGradient6349"/><linearGradient id="linearGradient6363" x1="76.542" x2="69.41" y1="18.071" y2="18.071" gradientTransform="matrix(0.48308685,0.48308685,-0.4817572,0.4817572,-3.06668,985.44324)" gradientUnits="userSpaceOnUse" xlink:href="#linearGradient6357"/><linearGradient id="linearGradient6371" x1="455.21" x2="452.089" y1="516.138" y2="516.138" gradientTransform="matrix(0.48308685,0.48308685,-0.61264245,0.61264245,119.66725,491.14648)" gradientUnits="userSpaceOnUse" xlink:href="#linearGradient6365"/><linearGradient id="linearGradient6375" x1="456.344" x2="452.77" y1="516.138" y2="516.138" gradientTransform="matrix(0.48308685,0.48308685,-0.61264245,0.61264245,121.80518,493.2844)" gradientUnits="userSpaceOnUse" xlink:href="#linearGradient6365"/><linearGradient id="linearGradient6379" x1="455.096" x2="452.77" y1="516.138" y2="516.138" gradientTransform="matrix(-0.48308685,-0.48308685,-0.61264245,0.61264245,558.53019,930.00942)" gradientUnits="userSpaceOnUse" xlink:href="#linearGradient6381"/><linearGradient id="linearGradient6389" x1="454.245" x2="452.203" y1="516.138" y2="516.138" gradientTransform="matrix(-0.48308685,-0.48308685,-0.61264245,0.61264245,560.66816,932.14735)" gradientUnits="userSpaceOnUse" xlink:href="#linearGradient6381"/><linearGradient id="linearGradient6411" x1="457.188" x2="458.993" y1="532.392" y2="533.074" gradientTransform="matrix(0.48308685,0.48308685,-0.4817572,0.4817572,51.93319,558.88054)" gradientUnits="userSpaceOnUse" xlink:href="#linearGradient6405"/><linearGradient id="linearGradient6419" x1="68.645" x2="74.983" y1="33.437" y2="33.437" gradientTransform="matrix(0.48308685,0.48308685,-0.4817572,0.4817572,-3.06668,985.44324)" gradientUnits="userSpaceOnUse" xlink:href="#linearGradient6413"/><linearGradient id="linearGradient6423" x1="460.04" x2="457.761" y1="533.509" y2="532.765" gradientTransform="matrix(-0.36852036,-0.36852036,-0.36750602,0.36750602,379.69828,1007.9672)" gradientUnits="userSpaceOnUse" xlink:href="#linearGradient6365"/><linearGradient id="linearGradient6433" x1="71.112" x2="72.416" y1="37.95" y2="37.95" gradientTransform="matrix(0.48308685,0.48308685,-0.4817572,0.4817572,-3.06668,985.44324)" gradientUnits="userSpaceOnUse" xlink:href="#linearGradient6436"/><linearGradient id="linearGradient6444" x1="451.13" x2="461.601" y1="500.738" y2="500.738" gradientTransform="matrix(0.48308685,0.48308685,-0.4817572,0.4817572,50.29318,560.52056)" gradientUnits="userSpaceOnUse" xlink:href="#linearGradient6194-6"/><linearGradient id="linearGradient6459" x1="66.35" x2="68.819" y1="-2.5" y2=".716" gradientTransform="matrix(0.48308685,0.48308685,-0.4817572,0.4817572,-3.06668,985.44324)" gradientUnits="userSpaceOnUse" xlink:href="#linearGradient6453"/><linearGradient id="linearGradient6463" x1="455.941" x2="455.941" y1="498.031" y2="502.474" gradientTransform="matrix(-0.51192701,-0.51192701,-0.1076542,0.1076542,317.02019,1202.0447)" gradientUnits="userSpaceOnUse" xlink:href="#linearGradient6138"/></defs><metadata id="metadata7"/><g id="layer1" transform="translate(0,-1004.3622)"><rect id="rect2991-1-5" width="48" height="48" x="0" y="-1052.362" fill="url(#linearGradient929)" fill-opacity="1" stroke="none" ry="1.945" transform="scale(1,-1)"/><path id="path4523" fill="#000" fill-opacity=".235" stroke="none" d="m 4.7002843,1007.3622 c -0.942615,0 -1.700284,0.7576 -1.700284,1.7002 l 0,38.5995 c 0,0.9426 0.757669,1.7003 1.700284,1.7003 l 38.5994307,0 c 0.942614,0 1.700285,-0.7577 1.700285,-1.7003 l 0,-38.5994 c 0,-0.9427 -0.757671,-1.7003 -1.700285,-1.7003 z"/><path id="rect839" fill="url(#linearGradient4007)" fill-opacity="1" stroke="none" d="m 5.6193183,1008.3622 c -0.897728,0 -1.619318,0.7215 -1.619318,1.6192 l 0,36.7615 c 0,0.8977 0.72159,1.6193 1.619318,1.6193 l 36.7613627,0 c 0.897728,0 1.619319,-0.7216 1.619319,-1.6193 l 0,-36.7614 c 0,-0.8978 -0.721591,-1.6193 -1.619319,-1.6193 z"/><path id="path4943" fill="#000" fill-opacity=".314" stroke="none" d="m 4.0000003,1044.956 0,1.7812 c 0,0.8977 0.7273,1.625 1.625,1.625 l 36.7499997,0 c 0.8977,0 1.625,-0.7273 1.625,-1.625 l 0,-1.7812 c 0,0.8977 -0.7273,1.5937 -1.625,1.5937 l -36.7499997,0 c -0.8977,0 -1.625,-0.696 -1.625,-1.5937 z"/><path id="path4948" fill="#000" fill-opacity=".314" stroke="none" d="m 4.0000003,1046.1435 0,0.5937 c 0,0.8977 0.7273,1.625 1.625,1.625 l 36.7499997,0 c 0.8977,0 1.625,-0.7273 1.625,-1.625 l 0,-0.5937 c 0,0.8977 -0.7273,1.625 -1.625,1.625 l -36.7499997,0 c -0.8977,0 -1.625,-0.7273 -1.625,-1.625 z"/><g id="g10821" transform="translate(3.1530762e-7,-1.0016406e-5)"><path id="rect846-7" fill="#000" fill-opacity="1" stroke="none" d="m 7.4539099e-7,1049.3622 0,1.0625 c 0,1.0773 0.86022300460901,1.9375 1.93750005460901,1.9375 l 44.1249992,0 c 1.07728,0 1.9375,-0.8602 1.9375,-1.9375 l 0,-1.0625 c 0,1.0773 -0.86022,1.9375 -1.9375,1.9375 l -44.1249992,0 c -1.07727705,0 -1.93750005460901,-0.8602 -1.93750005460901,-1.9375 z"/><path id="path7515-9" fill="#fff" fill-opacity=".537" stroke="none" d="m 2.5312508,1005.0185 c -0.917088,0 -1.67114705,0.6395 -1.84375005,1.5 0.33561205,-0.2799 0.77451205,-0.4375 1.25000005,-0.4375 l 44.1249992,0 c 0.47549,0 0.91439,0.1576 1.25,0.4375 -0.1726,-0.8605 -0.92666,-1.5 -1.84375,-1.5 l -42.9374992,0 z"/><path id="rect4280-5" fill="#000" fill-opacity=".392" stroke="none" d="m 1.9375008,1004.3622 c -1.07727705,0 -1.93750005460901,0.8602 -1.93750005460901,1.9375 l 0,43.0625 c 0,0.7934 0.48002400460901,1.449 1.15625005460901,1.75 -0.30934105,-0.3333 -0.50000005,-0.7824 -0.50000005,-1.2812 l 0,-42.9375 c 0,-1.0482 0.82689905,-1.875 1.87500005,-1.875 l 42.9374992,0 c 1.0481,0 1.875,0.8268 1.875,1.875 l 0,42.9375 c 0,0.4988 -0.19066,0.9479 -0.5,1.2812 0.67623,-0.301 1.15625,-0.9566 1.15625,-1.75 l 0,-43.0625 c 0,-1.0773 -0.86022,-1.9375 -1.9375,-1.9375 l -44.1249992,0 z"/></g><rect id="rect1526" width="48" height="48" x="0" y="1004.362" fill="none" stroke="none" ry="0"/><path id="rect4953-2" fill="#000" fill-opacity=".039" stroke="none" d="m 5.8437498,1008.3622 0,1.8438 -1.8437495,0 0,0.3125 1.8437495,0 0,1.6875 -1.8437495,0 0,0.3125 1.8437495,0 0,1.6875 -1.8437495,0 0,0.3125 1.8437495,0 0,1.6875 -1.8437495,0 0,0.3125 1.8437495,0 0,1.6875 -1.8437495,0 0,0.3125 1.8437495,0 0,1.6875 -1.8437495,0 0,0.3125 1.8437495,0 0,1.6875 -1.8437495,0 0,0.3125 1.8437495,0 0,1.6875 -1.8437495,0 0,0.3125 1.8437495,0 0,1.6875 -1.8437495,0 0,0.3125 1.8437495,0 0,1.6875 -1.8437495,0 0,0.3125 1.8437495,0 0,1.6875 -1.8437495,0 0,0.3125 1.8437495,0 0,1.6875 -1.8437495,0 0,0.3125 1.8437495,0 0,1.6875 -1.8437495,0 0,0.3125 1.8437495,0 0,1.6875 -1.8437495,0 0,0.3125 1.8437495,0 0,1.6875 -1.8437495,0 0,0.3125 1.8437495,0 0,1.6875 -1.8437495,0 0,0.3125 1.8437495,0 0,1.6875 -1.8437495,0 0,0.3125 1.8437495,0 0,1.6875 -1.8437495,0 0,0.3125 1.8437495,0 0,1.6875 -1.2187495,0 c 0.1936152,0.1467 0.4378079,0.2634 0.6874995,0.3125 l 0.53125,0 0,0.031 0.3125,0 0,-0.031 1.6875,0 0,0.031 0.3125,0 0,-0.031 1.6875,0 0,0.031 0.3125012,0 0,-0.031 1.6875,0 0,0.031 0.3125,0 0,-0.031 1.6875,0 0,0.031 0.312499,0 0,-0.031 1.6875,0 0,0.031 0.3125,0 0,-0.031 1.6875,0 0,0.031 0.3125,0 0,-0.031 1.6875,0 0,0.031 0.3125,0 0,-0.031 1.6875,0 0,0.031 0.3125,0 0,-0.031 1.6875,0 0,0.031 0.3125,0 0,-0.031 1.6875,0 0,0.031 0.3125,0 0,-0.031 1.6875,0 0,0.031 0.3125,0 0,-0.031 1.6875,0 0,0.031 0.3125,0 0,-0.031 1.6875,0 0,0.031 0.3125,0 0,-0.031 1.6875,0 0,0.031 0.3125,0 0,-0.031 1.6875,0 0,0.031 0.3125,0 0,-0.031 1.6875,0 0,0.031 0.3125,0 0,-0.031 1.6875,0 0,0.031 0.3125,0 0,-0.031 1.6875,0 0,0.031 0.3125,0 0,-0.031 0.53125,0 c 0.249692,-0.049 0.493885,-0.1658 0.6875,-0.3125 l -1.21875,0 0,-1.6875 1.84375,0 0,-0.3125 -1.84375,0 0,-1.6875 1.84375,0 0,-0.3125 -1.84375,0 0,-1.6875 1.84375,0 0,-0.3125 -1.84375,0 0,-1.6875 1.84375,0 0,-0.3125 -1.84375,0 0,-1.6875 1.84375,0 0,-0.3125 -1.84375,0 0,-1.6875 1.84375,0 0,-0.3125 -1.84375,0 0,-1.6875 1.84375,0 0,-0.3125 -1.84375,0 0,-1.6875 1.84375,0 0,-0.3125 -1.84375,0 0,-1.6875 1.84375,0 0,-0.3125 -1.84375,0 0,-1.6875 1.84375,0 0,-0.3125 -1.84375,0 0,-1.6875 1.84375,0 0,-0.3125 -1.84375,0 0,-1.6875 1.84375,0 0,-0.3125 -1.84375,0 0,-1.6875 1.84375,0 0,-0.3125 -1.84375,0 0,-1.6875 1.84375,0 0,-0.3125 -1.84375,0 0,-1.6875 1.84375,0 0,-0.3125 -1.84375,0 0,-1.6875 1.84375,0 0,-0.3125 -1.84375,0 0,-1.6875 1.84375,0 0,-0.3125 -1.84375,0 0,-1.6875 1.84375,0 0,-0.3125 -1.84375,0 0,-1.8438 -0.3125,0 0,1.8438 -1.6875,0 0,-1.8438 -0.3125,0 0,1.8438 -1.6875,0 0,-1.8438 -0.3125,0 0,1.8438 -1.6875,0 0,-1.8438 -0.3125,0 0,1.8438 -1.6875,0 0,-1.8438 -0.3125,0 0,1.8438 -1.6875,0 0,-1.8438 -0.3125,0 0,1.8438 -1.6875,0 0,-1.8438 -0.3125,0 0,1.8438 -1.6875,0 0,-1.8438 -0.3125,0 0,1.8438 -1.6875,0 0,-1.8438 -0.3125,0 0,1.8438 -1.6875,0 0,-1.8438 -0.3125,0 0,1.8438 -1.6875,0 0,-1.8438 -0.3125,0 0,1.8438 -1.6875,0 0,-1.8438 -0.3125,0 0,1.8438 -1.6875,0 0,-1.8438 -0.3125,0 0,1.8438 -1.6875,0 0,-1.8438 -0.3125,0 0,1.8438 -1.6875,0 0,-1.8438 -0.312499,0 0,1.8438 -1.6875,0 0,-1.8438 -0.3125,0 0,1.8438 -1.6875,0 0,-1.8438 -0.3125013,0 0,1.8438 -1.6875,0 0,-1.8438 -0.3125,0 0,1.8438 -1.6875,0 0,-1.8438 -0.3125,0 z m 0.3125,2.1563 1.6875,0 0,1.6875 -1.6875,0 0,-1.6875 z m 2,0 1.6875,0 0,1.6875 -1.6875,0 0,-1.6875 z m 2.0000012,0 1.6875,0 0,1.6875 -1.6875,0 0,-1.6875 z m 2,0 1.6875,0 0,1.6875 -1.6875,0 0,-1.6875 z m 1.999999,0 1.6875,0 0,1.6875 -1.6875,0 0,-1.6875 z m 2,0 1.6875,0 0,1.6875 -1.6875,0 0,-1.6875 z m 2,0 1.6875,0 0,1.6875 -1.6875,0 0,-1.6875 z m 2,0 1.6875,0 0,1.6875 -1.6875,0 0,-1.6875 z m 2,0 1.6875,0 0,1.6875 -1.6875,0 0,-1.6875 z m 2,0 1.6875,0 0,1.6875 -1.6875,0 0,-1.6875 z m 2,0 1.6875,0 0,1.6875 -1.6875,0 0,-1.6875 z m 2,0 1.6875,0 0,1.6875 -1.6875,0 0,-1.6875 z m 2,0 1.6875,0 0,1.6875 -1.6875,0 0,-1.6875 z m 2,0 1.6875,0 0,1.6875 -1.6875,0 0,-1.6875 z m 2,0 1.6875,0 0,1.6875 -1.6875,0 0,-1.6875 z m 2,0 1.6875,0 0,1.6875 -1.6875,0 0,-1.6875 z m 2,0 1.6875,0 0,1.6875 -1.6875,0 0,-1.6875 z m 2,0 1.6875,0 0,1.6875 -1.6875,0 0,-1.6875 z m -34.0000002,2 1.6875,0 0,1.6875 -1.6875,0 0,-1.6875 z m 2,0 1.6875,0 0,1.6875 -1.6875,0 0,-1.6875 z m 2.0000012,0 1.6875,0 0,1.6875 -1.6875,0 0,-1.6875 z m 2,0 1.6875,0 0,1.6875 -1.6875,0 0,-1.6875 z m 1.999999,0 1.6875,0 0,1.6875 -1.6875,0 0,-1.6875 z m 2,0 1.6875,0 0,1.6875 -1.6875,0 0,-1.6875 z m 2,0 1.6875,0 0,1.6875 -1.6875,0 0,-1.6875 z m 2,0 1.6875,0 0,1.6875 -1.6875,0 0,-1.6875 z m 2,0 1.6875,0 0,1.6875 -1.6875,0 0,-1.6875 z m 2,0 1.6875,0 0,1.6875 -1.6875,0 0,-1.6875 z m 2,0 1.6875,0 0,1.6875 -1.6875,0 0,-1.6875 z m 2,0 1.6875,0 0,1.6875 -1.6875,0 0,-1.6875 z m 2,0 1.6875,0 0,1.6875 -1.6875,0 0,-1.6875 z m 2,0 1.6875,0 0,1.6875 -1.6875,0 0,-1.6875 z m 2,0 1.6875,0 0,1.6875 -1.6875,0 0,-1.6875 z m 2,0 1.6875,0 0,1.6875 -1.6875,0 0,-1.6875 z m 2,0 1.6875,0 0,1.6875 -1.6875,0 0,-1.6875 z m 2,0 1.6875,0 0,1.6875 -1.6875,0 0,-1.6875 z m -34.0000002,2 1.6875,0 0,1.6875 -1.6875,0 0,-1.6875 z m 2,0 1.6875,0 0,1.6875 -1.6875,0 0,-1.6875 z m 2.0000012,0 1.6875,0 0,1.6875 -1.6875,0 0,-1.6875 z m 2,0 1.6875,0 0,1.6875 -1.6875,0 0,-1.6875 z m 1.999999,0 1.6875,0 0,1.6875 -1.6875,0 0,-1.6875 z m 2,0 1.6875,0 0,1.6875 -1.6875,0 0,-1.6875 z m 2,0 1.6875,0 0,1.6875 -1.6875,0 0,-1.6875 z m 2,0 1.6875,0 0,1.6875 -1.6875,0 0,-1.6875 z m 2,0 1.6875,0 0,1.6875 -1.6875,0 0,-1.6875 z m 2,0 1.6875,0 0,1.6875 -1.6875,0 0,-1.6875 z m 2,0 1.6875,0 0,1.6875 -1.6875,0 0,-1.6875 z m 2,0 1.6875,0 0,1.6875 -1.6875,0 0,-1.6875 z m 2,0 1.6875,0 0,1.6875 -1.6875,0 0,-1.6875 z m 2,0 1.6875,0 0,1.6875 -1.6875,0 0,-1.6875 z m 2,0 1.6875,0 0,1.6875 -1.6875,0 0,-1.6875 z m 2,0 1.6875,0 0,1.6875 -1.6875,0 0,-1.6875 z m 2,0 1.6875,0 0,1.6875 -1.6875,0 0,-1.6875 z m 2,0 1.6875,0 0,1.6875 -1.6875,0 0,-1.6875 z m -34.0000002,2 1.6875,0 0,1.6875 -1.6875,0 0,-1.6875 z m 2,0 1.6875,0 0,1.6875 -1.6875,0 0,-1.6875 z m 2.0000012,0 1.6875,0 0,1.6875 -1.6875,0 0,-1.6875 z m 2,0 1.6875,0 0,1.6875 -1.6875,0 0,-1.6875 z m 1.999999,0 1.6875,0 0,1.6875 -1.6875,0 0,-1.6875 z m 2,0 1.6875,0 0,1.6875 -1.6875,0 0,-1.6875 z m 2,0 1.6875,0 0,1.6875 -1.6875,0 0,-1.6875 z m 2,0 1.6875,0 0,1.6875 -1.6875,0 0,-1.6875 z m 2,0 1.6875,0 0,1.6875 -1.6875,0 0,-1.6875 z m 2,0 1.6875,0 0,1.6875 -1.6875,0 0,-1.6875 z m 2,0 1.6875,0 0,1.6875 -1.6875,0 0,-1.6875 z m 2,0 1.6875,0 0,1.6875 -1.6875,0 0,-1.6875 z m 2,0 1.6875,0 0,1.6875 -1.6875,0 0,-1.6875 z m 2,0 1.6875,0 0,1.6875 -1.6875,0 0,-1.6875 z m 2,0 1.6875,0 0,1.6875 -1.6875,0 0,-1.6875 z m 2,0 1.6875,0 0,1.6875 -1.6875,0 0,-1.6875 z m 2,0 1.6875,0 0,1.6875 -1.6875,0 0,-1.6875 z m 2,0 1.6875,0 0,1.6875 -1.6875,0 0,-1.6875 z m -34.0000002,2 1.6875,0 0,1.6875 -1.6875,0 0,-1.6875 z m 2,0 1.6875,0 0,1.6875 -1.6875,0 0,-1.6875 z m 2.0000012,0 1.6875,0 0,1.6875 -1.6875,0 0,-1.6875 z m 2,0 1.6875,0 0,1.6875 -1.6875,0 0,-1.6875 z m 1.999999,0 1.6875,0 0,1.6875 -1.6875,0 0,-1.6875 z m 2,0 1.6875,0 0,1.6875 -1.6875,0 0,-1.6875 z m 2,0 1.6875,0 0,1.6875 -1.6875,0 0,-1.6875 z m 2,0 1.6875,0 0,1.6875 -1.6875,0 0,-1.6875 z m 2,0 1.6875,0 0,1.6875 -1.6875,0 0,-1.6875 z m 2,0 1.6875,0 0,1.6875 -1.6875,0 0,-1.6875 z m 2,0 1.6875,0 0,1.6875 -1.6875,0 0,-1.6875 z m 2,0 1.6875,0 0,1.6875 -1.6875,0 0,-1.6875 z m 2,0 1.6875,0 0,1.6875 -1.6875,0 0,-1.6875 z m 2,0 1.6875,0 0,1.6875 -1.6875,0 0,-1.6875 z m 2,0 1.6875,0 0,1.6875 -1.6875,0 0,-1.6875 z m 2,0 1.6875,0 0,1.6875 -1.6875,0 0,-1.6875 z m 2,0 1.6875,0 0,1.6875 -1.6875,0 0,-1.6875 z m 2,0 1.6875,0 0,1.6875 -1.6875,0 0,-1.6875 z m -34.0000002,2 1.6875,0 0,1.6875 -1.6875,0 0,-1.6875 z m 2,0 1.6875,0 0,1.6875 -1.6875,0 0,-1.6875 z m 2.0000012,0 1.6875,0 0,1.6875 -1.6875,0 0,-1.6875 z m 2,0 1.6875,0 0,1.6875 -1.6875,0 0,-1.6875 z m 1.999999,0 1.6875,0 0,1.6875 -1.6875,0 0,-1.6875 z m 2,0 1.6875,0 0,1.6875 -1.6875,0 0,-1.6875 z m 2,0 1.6875,0 0,1.6875 -1.6875,0 0,-1.6875 z m 2,0 1.6875,0 0,1.6875 -1.6875,0 0,-1.6875 z m 2,0 1.6875,0 0,1.6875 -1.6875,0 0,-1.6875 z m 2,0 1.6875,0 0,1.6875 -1.6875,0 0,-1.6875 z m 2,0 1.6875,0 0,1.6875 -1.6875,0 0,-1.6875 z m 2,0 1.6875,0 0,1.6875 -1.6875,0 0,-1.6875 z m 2,0 1.6875,0 0,1.6875 -1.6875,0 0,-1.6875 z m 2,0 1.6875,0 0,1.6875 -1.6875,0 0,-1.6875 z m 2,0 1.6875,0 0,1.6875 -1.6875,0 0,-1.6875 z m 2,0 1.6875,0 0,1.6875 -1.6875,0 0,-1.6875 z m 2,0 1.6875,0 0,1.6875 -1.6875,0 0,-1.6875 z m 2,0 1.6875,0 0,1.6875 -1.6875,0 0,-1.6875 z m -34.0000002,2 1.6875,0 0,1.6875 -1.6875,0 0,-1.6875 z m 2,0 1.6875,0 0,1.6875 -1.6875,0 0,-1.6875 z m 2.0000012,0 1.6875,0 0,1.6875 -1.6875,0 0,-1.6875 z m 2,0 1.6875,0 0,1.6875 -1.6875,0 0,-1.6875 z m 1.999999,0 1.6875,0 0,1.6875 -1.6875,0 0,-1.6875 z m 2,0 1.6875,0 0,1.6875 -1.6875,0 0,-1.6875 z m 2,0 1.6875,0 0,1.6875 -1.6875,0 0,-1.6875 z m 2,0 1.6875,0 0,1.6875 -1.6875,0 0,-1.6875 z m 2,0 1.6875,0 0,1.6875 -1.6875,0 0,-1.6875 z m 2,0 1.6875,0 0,1.6875 -1.6875,0 0,-1.6875 z m 2,0 1.6875,0 0,1.6875 -1.6875,0 0,-1.6875 z m 2,0 1.6875,0 0,1.6875 -1.6875,0 0,-1.6875 z m 2,0 1.6875,0 0,1.6875 -1.6875,0 0,-1.6875 z m 2,0 1.6875,0 0,1.6875 -1.6875,0 0,-1.6875 z m 2,0 1.6875,0 0,1.6875 -1.6875,0 0,-1.6875 z m 2,0 1.6875,0 0,1.6875 -1.6875,0 0,-1.6875 z m 2,0 1.6875,0 0,1.6875 -1.6875,0 0,-1.6875 z m 2,0 1.6875,0 0,1.6875 -1.6875,0 0,-1.6875 z m -34.0000002,2 1.6875,0 0,1.6875 -1.6875,0 0,-1.6875 z m 2,0 1.6875,0 0,1.6875 -1.6875,0 0,-1.6875 z m 2.0000012,0 1.6875,0 0,1.6875 -1.6875,0 0,-1.6875 z m 2,0 1.6875,0 0,1.6875 -1.6875,0 0,-1.6875 z m 1.999999,0 1.6875,0 0,1.6875 -1.6875,0 0,-1.6875 z m 2,0 1.6875,0 0,1.6875 -1.6875,0 0,-1.6875 z m 2,0 1.6875,0 0,1.6875 -1.6875,0 0,-1.6875 z m 2,0 1.6875,0 0,1.6875 -1.6875,0 0,-1.6875 z m 2,0 1.6875,0 0,1.6875 -1.6875,0 0,-1.6875 z m 2,0 1.6875,0 0,1.6875 -1.6875,0 0,-1.6875 z m 2,0 1.6875,0 0,1.6875 -1.6875,0 0,-1.6875 z m 2,0 1.6875,0 0,1.6875 -1.6875,0 0,-1.6875 z m 2,0 1.6875,0 0,1.6875 -1.6875,0 0,-1.6875 z m 2,0 1.6875,0 0,1.6875 -1.6875,0 0,-1.6875 z m 2,0 1.6875,0 0,1.6875 -1.6875,0 0,-1.6875 z m 2,0 1.6875,0 0,1.6875 -1.6875,0 0,-1.6875 z m 2,0 1.6875,0 0,1.6875 -1.6875,0 0,-1.6875 z m 2,0 1.6875,0 0,1.6875 -1.6875,0 0,-1.6875 z m -34.0000002,2 1.6875,0 0,1.6875 -1.6875,0 0,-1.6875 z m 2,0 1.6875,0 0,1.6875 -1.6875,0 0,-1.6875 z m 2.0000012,0 1.6875,0 0,1.6875 -1.6875,0 0,-1.6875 z m 2,0 1.6875,0 0,1.6875 -1.6875,0 0,-1.6875 z m 1.999999,0 1.6875,0 0,1.6875 -1.6875,0 0,-1.6875 z m 2,0 1.6875,0 0,1.6875 -1.6875,0 0,-1.6875 z m 2,0 1.6875,0 0,1.6875 -1.6875,0 0,-1.6875 z m 2,0 1.6875,0 0,1.6875 -1.6875,0 0,-1.6875 z m 2,0 1.6875,0 0,1.6875 -1.6875,0 0,-1.6875 z m 2,0 1.6875,0 0,1.6875 -1.6875,0 0,-1.6875 z m 2,0 1.6875,0 0,1.6875 -1.6875,0 0,-1.6875 z m 2,0 1.6875,0 0,1.6875 -1.6875,0 0,-1.6875 z m 2,0 1.6875,0 0,1.6875 -1.6875,0 0,-1.6875 z m 2,0 1.6875,0 0,1.6875 -1.6875,0 0,-1.6875 z m 2,0 1.6875,0 0,1.6875 -1.6875,0 0,-1.6875 z m 2,0 1.6875,0 0,1.6875 -1.6875,0 0,-1.6875 z m 2,0 1.6875,0 0,1.6875 -1.6875,0 0,-1.6875 z m 2,0 1.6875,0 0,1.6875 -1.6875,0 0,-1.6875 z m -34.0000002,2 1.6875,0 0,1.6875 -1.6875,0 0,-1.6875 z m 2,0 1.6875,0 0,1.6875 -1.6875,0 0,-1.6875 z m 2.0000012,0 1.6875,0 0,1.6875 -1.6875,0 0,-1.6875 z m 2,0 1.6875,0 0,1.6875 -1.6875,0 0,-1.6875 z m 1.999999,0 1.6875,0 0,1.6875 -1.6875,0 0,-1.6875 z m 2,0 1.6875,0 0,1.6875 -1.6875,0 0,-1.6875 z m 2,0 1.6875,0 0,1.6875 -1.6875,0 0,-1.6875 z m 2,0 1.6875,0 0,1.6875 -1.6875,0 0,-1.6875 z m 2,0 1.6875,0 0,1.6875 -1.6875,0 0,-1.6875 z m 2,0 1.6875,0 0,1.6875 -1.6875,0 0,-1.6875 z m 2,0 1.6875,0 0,1.6875 -1.6875,0 0,-1.6875 z m 2,0 1.6875,0 0,1.6875 -1.6875,0 0,-1.6875 z m 2,0 1.6875,0 0,1.6875 -1.6875,0 0,-1.6875 z m 2,0 1.6875,0 0,1.6875 -1.6875,0 0,-1.6875 z m 2,0 1.6875,0 0,1.6875 -1.6875,0 0,-1.6875 z m 2,0 1.6875,0 0,1.6875 -1.6875,0 0,-1.6875 z m 2,0 1.6875,0 0,1.6875 -1.6875,0 0,-1.6875 z m 2,0 1.6875,0 0,1.6875 -1.6875,0 0,-1.6875 z m -34.0000002,2 1.6875,0 0,1.6875 -1.6875,0 0,-1.6875 z m 2,0 1.6875,0 0,1.6875 -1.6875,0 0,-1.6875 z m 2.0000012,0 1.6875,0 0,1.6875 -1.6875,0 0,-1.6875 z m 2,0 1.6875,0 0,1.6875 -1.6875,0 0,-1.6875 z m 1.999999,0 1.6875,0 0,1.6875 -1.6875,0 0,-1.6875 z m 2,0 1.6875,0 0,1.6875 -1.6875,0 0,-1.6875 z m 2,0 1.6875,0 0,1.6875 -1.6875,0 0,-1.6875 z m 2,0 1.6875,0 0,1.6875 -1.6875,0 0,-1.6875 z m 2,0 1.6875,0 0,1.6875 -1.6875,0 0,-1.6875 z m 2,0 1.6875,0 0,1.6875 -1.6875,0 0,-1.6875 z m 2,0 1.6875,0 0,1.6875 -1.6875,0 0,-1.6875 z m 2,0 1.6875,0 0,1.6875 -1.6875,0 0,-1.6875 z m 2,0 1.6875,0 0,1.6875 -1.6875,0 0,-1.6875 z m 2,0 1.6875,0 0,1.6875 -1.6875,0 0,-1.6875 z m 2,0 1.6875,0 0,1.6875 -1.6875,0 0,-1.6875 z m 2,0 1.6875,0 0,1.6875 -1.6875,0 0,-1.6875 z m 2,0 1.6875,0 0,1.6875 -1.6875,0 0,-1.6875 z m 2,0 1.6875,0 0,1.6875 -1.6875,0 0,-1.6875 z m -34.0000002,2 1.6875,0 0,1.6875 -1.6875,0 0,-1.6875 z m 2,0 1.6875,0 0,1.6875 -1.6875,0 0,-1.6875 z m 2.0000012,0 1.6875,0 0,1.6875 -1.6875,0 0,-1.6875 z m 2,0 1.6875,0 0,1.6875 -1.6875,0 0,-1.6875 z m 1.999999,0 1.6875,0 0,1.6875 -1.6875,0 0,-1.6875 z m 2,0 1.6875,0 0,1.6875 -1.6875,0 0,-1.6875 z m 2,0 1.6875,0 0,1.6875 -1.6875,0 0,-1.6875 z m 2,0 1.6875,0 0,1.6875 -1.6875,0 0,-1.6875 z m 2,0 1.6875,0 0,1.6875 -1.6875,0 0,-1.6875 z m 2,0 1.6875,0 0,1.6875 -1.6875,0 0,-1.6875 z m 2,0 1.6875,0 0,1.6875 -1.6875,0 0,-1.6875 z m 2,0 1.6875,0 0,1.6875 -1.6875,0 0,-1.6875 z m 2,0 1.6875,0 0,1.6875 -1.6875,0 0,-1.6875 z m 2,0 1.6875,0 0,1.6875 -1.6875,0 0,-1.6875 z m 2,0 1.6875,0 0,1.6875 -1.6875,0 0,-1.6875 z m 2,0 1.6875,0 0,1.6875 -1.6875,0 0,-1.6875 z m 2,0 1.6875,0 0,1.6875 -1.6875,0 0,-1.6875 z m 2,0 1.6875,0 0,1.6875 -1.6875,0 0,-1.6875 z m -34.0000002,2 1.6875,0 0,1.6875 -1.6875,0 0,-1.6875 z m 2,0 1.6875,0 0,1.6875 -1.6875,0 0,-1.6875 z m 2.0000012,0 1.6875,0 0,1.6875 -1.6875,0 0,-1.6875 z m 2,0 1.6875,0 0,1.6875 -1.6875,0 0,-1.6875 z m 1.999999,0 1.6875,0 0,1.6875 -1.6875,0 0,-1.6875 z m 2,0 1.6875,0 0,1.6875 -1.6875,0 0,-1.6875 z m 2,0 1.6875,0 0,1.6875 -1.6875,0 0,-1.6875 z m 2,0 1.6875,0 0,1.6875 -1.6875,0 0,-1.6875 z m 2,0 1.6875,0 0,1.6875 -1.6875,0 0,-1.6875 z m 2,0 1.6875,0 0,1.6875 -1.6875,0 0,-1.6875 z m 2,0 1.6875,0 0,1.6875 -1.6875,0 0,-1.6875 z m 2,0 1.6875,0 0,1.6875 -1.6875,0 0,-1.6875 z m 2,0 1.6875,0 0,1.6875 -1.6875,0 0,-1.6875 z m 2,0 1.6875,0 0,1.6875 -1.6875,0 0,-1.6875 z m 2,0 1.6875,0 0,1.6875 -1.6875,0 0,-1.6875 z m 2,0 1.6875,0 0,1.6875 -1.6875,0 0,-1.6875 z m 2,0 1.6875,0 0,1.6875 -1.6875,0 0,-1.6875 z m 2,0 1.6875,0 0,1.6875 -1.6875,0 0,-1.6875 z m -34.0000002,2 1.6875,0 0,1.6875 -1.6875,0 0,-1.6875 z m 2,0 1.6875,0 0,1.6875 -1.6875,0 0,-1.6875 z m 2.0000012,0 1.6875,0 0,1.6875 -1.6875,0 0,-1.6875 z m 2,0 1.6875,0 0,1.6875 -1.6875,0 0,-1.6875 z m 1.999999,0 1.6875,0 0,1.6875 -1.6875,0 0,-1.6875 z m 2,0 1.6875,0 0,1.6875 -1.6875,0 0,-1.6875 z m 2,0 1.6875,0 0,1.6875 -1.6875,0 0,-1.6875 z m 2,0 1.6875,0 0,1.6875 -1.6875,0 0,-1.6875 z m 2,0 1.6875,0 0,1.6875 -1.6875,0 0,-1.6875 z m 2,0 1.6875,0 0,1.6875 -1.6875,0 0,-1.6875 z m 2,0 1.6875,0 0,1.6875 -1.6875,0 0,-1.6875 z m 2,0 1.6875,0 0,1.6875 -1.6875,0 0,-1.6875 z m 2,0 1.6875,0 0,1.6875 -1.6875,0 0,-1.6875 z m 2,0 1.6875,0 0,1.6875 -1.6875,0 0,-1.6875 z m 2,0 1.6875,0 0,1.6875 -1.6875,0 0,-1.6875 z m 2,0 1.6875,0 0,1.6875 -1.6875,0 0,-1.6875 z m 2,0 1.6875,0 0,1.6875 -1.6875,0 0,-1.6875 z m 2,0 1.6875,0 0,1.6875 -1.6875,0 0,-1.6875 z m -34.0000002,2 1.6875,0 0,1.6875 -1.6875,0 0,-1.6875 z m 2,0 1.6875,0 0,1.6875 -1.6875,0 0,-1.6875 z m 2.0000012,0 1.6875,0 0,1.6875 -1.6875,0 0,-1.6875 z m 2,0 1.6875,0 0,1.6875 -1.6875,0 0,-1.6875 z m 1.999999,0 1.6875,0 0,1.6875 -1.6875,0 0,-1.6875 z m 2,0 1.6875,0 0,1.6875 -1.6875,0 0,-1.6875 z m 2,0 1.6875,0 0,1.6875 -1.6875,0 0,-1.6875 z m 2,0 1.6875,0 0,1.6875 -1.6875,0 0,-1.6875 z m 2,0 1.6875,0 0,1.6875 -1.6875,0 0,-1.6875 z m 2,0 1.6875,0 0,1.6875 -1.6875,0 0,-1.6875 z m 2,0 1.6875,0 0,1.6875 -1.6875,0 0,-1.6875 z m 2,0 1.6875,0 0,1.6875 -1.6875,0 0,-1.6875 z m 2,0 1.6875,0 0,1.6875 -1.6875,0 0,-1.6875 z m 2,0 1.6875,0 0,1.6875 -1.6875,0 0,-1.6875 z m 2,0 1.6875,0 0,1.6875 -1.6875,0 0,-1.6875 z m 2,0 1.6875,0 0,1.6875 -1.6875,0 0,-1.6875 z m 2,0 1.6875,0 0,1.6875 -1.6875,0 0,-1.6875 z m 2,0 1.6875,0 0,1.6875 -1.6875,0 0,-1.6875 z m -34.0000002,2 1.6875,0 0,1.6875 -1.6875,0 0,-1.6875 z m 2,0 1.6875,0 0,1.6875 -1.6875,0 0,-1.6875 z m 2.0000012,0 1.6875,0 0,1.6875 -1.6875,0 0,-1.6875 z m 2,0 1.6875,0 0,1.6875 -1.6875,0 0,-1.6875 z m 1.999999,0 1.6875,0 0,1.6875 -1.6875,0 0,-1.6875 z m 2,0 1.6875,0 0,1.6875 -1.6875,0 0,-1.6875 z m 2,0 1.6875,0 0,1.6875 -1.6875,0 0,-1.6875 z m 2,0 1.6875,0 0,1.6875 -1.6875,0 0,-1.6875 z m 2,0 1.6875,0 0,1.6875 -1.6875,0 0,-1.6875 z m 2,0 1.6875,0 0,1.6875 -1.6875,0 0,-1.6875 z m 2,0 1.6875,0 0,1.6875 -1.6875,0 0,-1.6875 z m 2,0 1.6875,0 0,1.6875 -1.6875,0 0,-1.6875 z m 2,0 1.6875,0 0,1.6875 -1.6875,0 0,-1.6875 z m 2,0 1.6875,0 0,1.6875 -1.6875,0 0,-1.6875 z m 2,0 1.6875,0 0,1.6875 -1.6875,0 0,-1.6875 z m 2,0 1.6875,0 0,1.6875 -1.6875,0 0,-1.6875 z m 2,0 1.6875,0 0,1.6875 -1.6875,0 0,-1.6875 z m 2,0 1.6875,0 0,1.6875 -1.6875,0 0,-1.6875 z m -34.0000002,2 1.6875,0 0,1.6875 -1.6875,0 0,-1.6875 z m 2,0 1.6875,0 0,1.6875 -1.6875,0 0,-1.6875 z m 2.0000012,0 1.6875,0 0,1.6875 -1.6875,0 0,-1.6875 z m 2,0 1.6875,0 0,1.6875 -1.6875,0 0,-1.6875 z m 1.999999,0 1.6875,0 0,1.6875 -1.6875,0 0,-1.6875 z m 2,0 1.6875,0 0,1.6875 -1.6875,0 0,-1.6875 z m 2,0 1.6875,0 0,1.6875 -1.6875,0 0,-1.6875 z m 2,0 1.6875,0 0,1.6875 -1.6875,0 0,-1.6875 z m 2,0 1.6875,0 0,1.6875 -1.6875,0 0,-1.6875 z m 2,0 1.6875,0 0,1.6875 -1.6875,0 0,-1.6875 z m 2,0 1.6875,0 0,1.6875 -1.6875,0 0,-1.6875 z m 2,0 1.6875,0 0,1.6875 -1.6875,0 0,-1.6875 z m 2,0 1.6875,0 0,1.6875 -1.6875,0 0,-1.6875 z m 2,0 1.6875,0 0,1.6875 -1.6875,0 0,-1.6875 z m 2,0 1.6875,0 0,1.6875 -1.6875,0 0,-1.6875 z m 2,0 1.6875,0 0,1.6875 -1.6875,0 0,-1.6875 z m 2,0 1.6875,0 0,1.6875 -1.6875,0 0,-1.6875 z m 2,0 1.6875,0 0,1.6875 -1.6875,0 0,-1.6875 z m -34.0000002,2 1.6875,0 0,1.6875 -1.6875,0 0,-1.6875 z m 2,0 1.6875,0 0,1.6875 -1.6875,0 0,-1.6875 z m 2.0000012,0 1.6875,0 0,1.6875 -1.6875,0 0,-1.6875 z m 2,0 1.6875,0 0,1.6875 -1.6875,0 0,-1.6875 z m 1.999999,0 1.6875,0 0,1.6875 -1.6875,0 0,-1.6875 z m 2,0 1.6875,0 0,1.6875 -1.6875,0 0,-1.6875 z m 2,0 1.6875,0 0,1.6875 -1.6875,0 0,-1.6875 z m 2,0 1.6875,0 0,1.6875 -1.6875,0 0,-1.6875 z m 2,0 1.6875,0 0,1.6875 -1.6875,0 0,-1.6875 z m 2,0 1.6875,0 0,1.6875 -1.6875,0 0,-1.6875 z m 2,0 1.6875,0 0,1.6875 -1.6875,0 0,-1.6875 z m 2,0 1.6875,0 0,1.6875 -1.6875,0 0,-1.6875 z m 2,0 1.6875,0 0,1.6875 -1.6875,0 0,-1.6875 z m 2,0 1.6875,0 0,1.6875 -1.6875,0 0,-1.6875 z m 2,0 1.6875,0 0,1.6875 -1.6875,0 0,-1.6875 z m 2,0 1.6875,0 0,1.6875 -1.6875,0 0,-1.6875 z m 2,0 1.6875,0 0,1.6875 -1.6875,0 0,-1.6875 z m 2,0 1.6875,0 0,1.6875 -1.6875,0 0,-1.6875 z"/><g id="g302" transform="translate(3.1530762e-7,-0.49994032)"><rect id="rect4881" width="2.2" height="5" x="1011.662" y="-26.875" fill="url(#linearGradient4883)" fill-opacity="1" stroke="none" font-family="Derivia" font-size="24" font-stretch="normal" font-style="normal" font-variant="normal" font-weight="normal" letter-spacing="-.03" ry=".26" transform="matrix(0,1,-1,0,0,0)" word-spacing="0" style="line-height:125%;-inkscape-font-specification:Derivia"/><rect id="rect4869" width="2.2" height="5" x="1011.662" y="-36.5" fill="url(#linearGradient4871)" fill-opacity="1" stroke="none" font-family="Derivia" font-size="24" font-stretch="normal" font-style="normal" font-variant="normal" font-weight="normal" letter-spacing="-.03" ry=".26" transform="matrix(0,1,-1,0,0,0)" word-spacing="0" style="line-height:125%;-inkscape-font-specification:Derivia"/><rect id="rect4855" width="2.2" height="5" x="1011.662" y="-16.5" fill="url(#linearGradient4863)" fill-opacity="1" stroke="none" font-family="Derivia" font-size="24" font-stretch="normal" font-style="normal" font-variant="normal" font-weight="normal" letter-spacing="-.03" ry=".26" transform="matrix(0,1,-1,0,0,0)" word-spacing="0" style="line-height:125%;-inkscape-font-specification:Derivia"/><rect id="rect4833" width="5" height="1.48" x="1008.462" y="-33.74" fill="#000" fill-opacity=".235" stroke="none" font-family="Derivia" font-size="24" font-stretch="normal" font-style="normal" font-variant="normal" font-weight="normal" letter-spacing="-.03" ry=".418" transform="matrix(0,1,-1,0,0,0)" word-spacing="0" style="line-height:125%;-inkscape-font-specification:Derivia"/><rect id="rect4829" width="5" height="1.18" x="1008.162" y="-33.59" fill="#000" fill-opacity=".235" stroke="none" font-family="Derivia" font-size="24" font-stretch="normal" font-style="normal" font-variant="normal" font-weight="normal" letter-spacing="-.03" ry=".333" transform="matrix(0,1,-1,0,0,0)" word-spacing="0" style="line-height:125%;-inkscape-font-specification:Derivia"/><rect id="rect4835" width="5" height="1.48" x="1008.462" y="-35.74" fill="#000" fill-opacity=".235" stroke="none" font-family="Derivia" font-size="24" font-stretch="normal" font-style="normal" font-variant="normal" font-weight="normal" letter-spacing="-.03" ry=".418" transform="matrix(0,1,-1,0,0,0)" word-spacing="0" style="line-height:125%;-inkscape-font-specification:Derivia"/><rect id="rect4837" width="5" height="1.18" x="1008.162" y="-35.59" fill="#000" fill-opacity=".235" stroke="none" font-family="Derivia" font-size="24" font-stretch="normal" font-style="normal" font-variant="normal" font-weight="normal" letter-spacing="-.03" ry=".333" transform="matrix(0,1,-1,0,0,0)" word-spacing="0" style="line-height:125%;-inkscape-font-specification:Derivia"/><rect id="rect4839" width="5" height="1.48" x="1008.462" y="-26.115" fill="#000" fill-opacity=".235" stroke="none" font-family="Derivia" font-size="24" font-stretch="normal" font-style="normal" font-variant="normal" font-weight="normal" letter-spacing="-.03" ry=".418" transform="matrix(0,1,-1,0,0,0)" word-spacing="0" style="line-height:125%;-inkscape-font-specification:Derivia"/><rect id="rect4841" width="5" height="1.18" x="1008.162" y="-25.965" fill="#000" fill-opacity=".235" stroke="none" font-family="Derivia" font-size="24" font-stretch="normal" font-style="normal" font-variant="normal" font-weight="normal" letter-spacing="-.03" ry=".333" transform="matrix(0,1,-1,0,0,0)" word-spacing="0" style="line-height:125%;-inkscape-font-specification:Derivia"/><rect id="rect4843" width="5" height="1.48" x="1008.462" y="-24.115" fill="#000" fill-opacity=".235" stroke="none" font-family="Derivia" font-size="24" font-stretch="normal" font-style="normal" font-variant="normal" font-weight="normal" letter-spacing="-.03" ry=".418" transform="matrix(0,1,-1,0,0,0)" word-spacing="0" style="line-height:125%;-inkscape-font-specification:Derivia"/><rect id="rect4845" width="5" height="1.18" x="1008.162" y="-23.965" fill="#000" fill-opacity=".235" stroke="none" font-family="Derivia" font-size="24" font-stretch="normal" font-style="normal" font-variant="normal" font-weight="normal" letter-spacing="-.03" ry=".333" transform="matrix(0,1,-1,0,0,0)" word-spacing="0" style="line-height:125%;-inkscape-font-specification:Derivia"/><rect id="rect4847" width="5" height="1.48" x="1008.462" y="-15.74" fill="#000" fill-opacity=".235" stroke="none" font-family="Derivia" font-size="24" font-stretch="normal" font-style="normal" font-variant="normal" font-weight="normal" letter-spacing="-.03" ry=".418" transform="matrix(0,1,-1,0,0,0)" word-spacing="0" style="line-height:125%;-inkscape-font-specification:Derivia"/><rect id="rect4849" width="5" height="1.18" x="1008.162" y="-15.59" fill="#000" fill-opacity=".235" stroke="none" font-family="Derivia" font-size="24" font-stretch="normal" font-style="normal" font-variant="normal" font-weight="normal" letter-spacing="-.03" ry=".333" transform="matrix(0,1,-1,0,0,0)" word-spacing="0" style="line-height:125%;-inkscape-font-specification:Derivia"/><rect id="rect4851" width="5" height="1.48" x="1008.462" y="-13.74" fill="#000" fill-opacity=".235" stroke="none" font-family="Derivia" font-size="24" font-stretch="normal" font-style="normal" font-variant="normal" font-weight="normal" letter-spacing="-.03" ry=".418" transform="matrix(0,1,-1,0,0,0)" word-spacing="0" style="line-height:125%;-inkscape-font-specification:Derivia"/><rect id="rect4853" width="5" height="1.18" x="1008.162" y="-13.59" fill="#000" fill-opacity=".235" stroke="none" font-family="Derivia" font-size="24" font-stretch="normal" font-style="normal" font-variant="normal" font-weight="normal" letter-spacing="-.03" ry=".333" transform="matrix(0,1,-1,0,0,0)" word-spacing="0" style="line-height:125%;-inkscape-font-specification:Derivia"/><g id="g4873" transform="translate(0.37548923,0)"><rect id="rect4202" width="5" height=".7" x="1007.862" y="-34.975" fill="url(#linearGradient4768)" fill-opacity="1" stroke="none" font-family="Derivia" font-size="24" font-stretch="normal" font-style="normal" font-variant="normal" font-weight="normal" letter-spacing="-.03" ry=".198" transform="matrix(0,1,-1,0,0,0)" word-spacing="0" style="line-height:125%;-inkscape-font-specification:Derivia"/><rect id="rect4770" width="5" height=".7" x="1007.862" y="-32.975" fill="url(#linearGradient4772)" fill-opacity="1" stroke="none" font-family="Derivia" font-size="24" font-stretch="normal" font-style="normal" font-variant="normal" font-weight="normal" letter-spacing="-.03" ry=".198" transform="matrix(0,1,-1,0,0,0)" word-spacing="0" style="line-height:125%;-inkscape-font-specification:Derivia"/></g><g id="g4877"><rect id="rect4774" width="5" height=".7" x="1007.862" y="-25.725" fill="url(#linearGradient4776)" fill-opacity="1" stroke="none" font-family="Derivia" font-size="24" font-stretch="normal" font-style="normal" font-variant="normal" font-weight="normal" letter-spacing="-.03" ry=".198" transform="matrix(0,1,-1,0,0,0)" word-spacing="0" style="line-height:125%;-inkscape-font-specification:Derivia"/><rect id="rect4778" width="5" height=".7" x="1007.862" y="-23.725" fill="url(#linearGradient4780)" fill-opacity="1" stroke="none" font-family="Derivia" font-size="24" font-stretch="normal" font-style="normal" font-variant="normal" font-weight="normal" letter-spacing="-.03" ry=".198" transform="matrix(0,1,-1,0,0,0)" word-spacing="0" style="line-height:125%;-inkscape-font-specification:Derivia"/></g><g id="g4865" transform="translate(0.37548923,0)"><rect id="rect4786" width="5" height=".7" x="1007.862" y="-12.975" fill="url(#linearGradient4788)" fill-opacity="1" stroke="none" font-family="Derivia" font-size="24" font-stretch="normal" font-style="normal" font-variant="normal" font-weight="normal" letter-spacing="-.03" ry=".198" transform="matrix(0,1,-1,0,0,0)" word-spacing="0" style="line-height:125%;-inkscape-font-specification:Derivia"/><rect id="rect4790" width="5" height=".7" x="1007.862" y="-14.975" fill="url(#linearGradient4792)" fill-opacity="1" stroke="none" font-family="Derivia" font-size="24" font-stretch="normal" font-style="normal" font-variant="normal" font-weight="normal" letter-spacing="-.03" ry=".198" transform="matrix(0,1,-1,0,0,0)" word-spacing="0" style="line-height:125%;-inkscape-font-specification:Derivia"/></g><path font-stretch="normal" style="line-height:125%;-inkscape-font-specification:Derivia" id="rect4814" fill="#000" fill-opacity=".235" stroke="none" d="m 32.844239,1007.8622 c -0.109453,0 -0.1875,0.078 -0.1875,0.1875 l 0,4.625 c 0,0.1094 0.07805,0.1875 0.1875,0.1875 0.109453,0 0.21875,-0.078 0.21875,-0.1875 l 0,-4.625 c 0,-0.1095 -0.109297,-0.1875 -0.21875,-0.1875 z" font-family="Derivia" font-size="24" font-style="normal" font-variant="normal" font-weight="normal" letter-spacing="-.03" word-spacing="0"/><path font-stretch="normal" style="line-height:125%;-inkscape-font-specification:Derivia" id="path4819" fill="#000" fill-opacity=".235" stroke="none" d="m 34.837499,1007.8622 c -0.109453,0 -0.1875,0.078 -0.1875,0.1875 l 0,4.625 c 0,0.1095 0.07805,0.1875 0.1875,0.1875 0.109453,0 0.21875,-0.078 0.21875,-0.1875 l 0,-4.625 c 0,-0.1095 -0.109297,-0.1875 -0.21875,-0.1875 z" font-family="Derivia" font-size="24" font-style="normal" font-variant="normal" font-weight="normal" letter-spacing="-.03" word-spacing="0"/><path font-stretch="normal" style="line-height:125%;-inkscape-font-specification:Derivia" id="path4821" fill="#000" fill-opacity=".235" stroke="none" d="m 25.212989,1007.8622 c -0.109453,0 -0.1875,0.078 -0.1875,0.1875 l 0,4.625 c 0,0.1095 0.07805,0.1875 0.1875,0.1875 0.109453,0 0.21875,-0.078 0.21875,-0.1875 l 0,-4.625 c 0,-0.1095 -0.109297,-0.1875 -0.21875,-0.1875 z" font-family="Derivia" font-size="24" font-style="normal" font-variant="normal" font-weight="normal" letter-spacing="-.03" word-spacing="0"/><path font-stretch="normal" style="line-height:125%;-inkscape-font-specification:Derivia" id="path4823" fill="#000" fill-opacity=".235" stroke="none" d="m 23.212989,1007.8622 c -0.109453,0 -0.1875,0.078 -0.1875,0.1875 l 0,4.625 c 0,0.1095 0.07805,0.1875 0.1875,0.1875 0.109453,0 0.21875,-0.078 0.21875,-0.1875 l 0,-4.625 c 0,-0.1095 -0.109297,-0.1875 -0.21875,-0.1875 z" font-family="Derivia" font-size="24" font-style="normal" font-variant="normal" font-weight="normal" letter-spacing="-.03" word-spacing="0"/><path font-stretch="normal" style="line-height:125%;-inkscape-font-specification:Derivia" id="path4825" fill="#000" fill-opacity=".235" stroke="none" d="m 14.837499,1007.8622 c -0.109453,0 -0.1875,0.078 -0.1875,0.1875 l 0,4.625 c 0,0.1095 0.07805,0.1875 0.1875,0.1875 0.109453,0 0.21875,-0.078 0.21875,-0.1875 l 0,-4.625 c 0,-0.1095 -0.109297,-0.1875 -0.21875,-0.1875 z" font-family="Derivia" font-size="24" font-style="normal" font-variant="normal" font-weight="normal" letter-spacing="-.03" word-spacing="0"/><path font-stretch="normal" style="line-height:125%;-inkscape-font-specification:Derivia" id="path4827" fill="#000" fill-opacity=".235" stroke="none" d="m 12.837499,1007.8622 c -0.109453,0 -0.1875,0.078 -0.1875,0.1875 l 0,4.625 c 0,0.1095 0.07805,0.1875 0.1875,0.1875 0.109453,0 0.21875,-0.078 0.21875,-0.1875 l 0,-4.625 c 0,-0.1095 -0.109297,-0.1875 -0.21875,-0.1875 z" font-family="Derivia" font-size="24" font-style="normal" font-variant="normal" font-weight="normal" letter-spacing="-.03" word-spacing="0"/></g><path id="path6481" fill="#000" fill-opacity=".059" stroke="none" d="m 30.1312,1017.7381 -2.10769,2.1076 -1.0689,1.0689 -0.57209,0.5721 -11.17075,11.1708 -0.94374,3.4523 -0.88342,3.4524 3.42217,-0.9137 3.4674,-0.9286 11.17074,-11.1708 0.5721,-0.5721 1.53559,-1.5356 1.64099,-1.6409 -5.0624,-5.0624 z"/><path id="path6479" fill="#000" fill-opacity=".118" stroke="none" d="m 29.93834,1017.5452 -2.10768,2.1077 -1.06891,1.0689 -0.57209,0.5721 -11.17073,11.1707 -0.94375,3.4523 -0.88343,3.4524 3.42218,-0.9136 3.4674,-0.9287 11.17073,-11.1707 0.5721,-0.5721 1.5356,-1.5356 1.64099,-1.641 -5.06241,-5.0624 z"/><path id="path6468" fill="#000" fill-opacity=".235" stroke="none" d="m 29.74549,1017.3524 -2.10768,2.1076 -1.06891,1.0689 -0.57209,0.5721 -11.17073,11.1708 -0.94376,3.4523 -0.88342,3.4523 3.42218,-0.9136 3.4674,-0.9286 11.17073,-11.1708 0.57209,-0.5721 1.53561,-1.5356 1.64098,-1.6409 -5.0624,-5.0624 z"/><path id="path6442" fill="url(#linearGradient6444)" fill-opacity="1" stroke="none" d="m 27.91202,1018.8022 -2.11287,2.1129 5.06238,5.0624 2.11289,-2.113 -5.0624,-5.0623 z"/><path id="path6330" fill="url(#linearGradient6343)" fill-opacity="1" stroke="none" d="m 29.55205,1017.1622 -2.11287,2.1128 5.06238,5.0624 2.11289,-2.1129 -5.0624,-5.0623 z"/><path id="path6335" fill="url(#linearGradient6419)" fill-opacity="1" stroke="none" d="m 19.69343,1037.1389 -5.05732,-5.0573 -0.94501,3.451 -0.8847,3.4511 3.42091,-0.9149 3.46612,-0.9299 z"/><path id="path6328" fill="#fbd61f" fill-opacity="1" stroke="none" d="m 26.37894,1020.3387 -11.74283,11.7429 5.05732,5.0573 11.74284,-11.7428 -5.05733,-5.0574 z"/><path id="path6355" fill="url(#linearGradient6363)" fill-opacity="1" stroke="none" d="m 26.37894,1020.3387 -11.74283,11.7429 5.05732,5.0573 11.74284,-11.7428 -5.05733,-5.0574 z"/><path id="rect844" fill="url(#linearGradient6371)" fill-opacity="1" stroke="none" d="m 26.57326,1020.5331 -11.74282,11.7428 1.28514,1.2851 11.74282,-11.7428 z"/><path id="path6345" fill="url(#linearGradient6347)" fill-opacity="1" stroke="none" d="m 34.21952,1022.2329 -1.70963,1.7096 -4.09624,-4.0962 1.70967,-1.7097 4.0962,4.0963 z" opacity=".59"/><path id="path6373" fill="url(#linearGradient6375)" fill-opacity="1" stroke="none" d="m 29.27747,1023.2373 -11.74284,11.7428 0.72464,0.7246 11.74283,-11.7428 -0.72463,-0.7246 z"/><path id="path6377" fill="url(#linearGradient6379)" fill-opacity="1" stroke="none" d="m 27.8584,1021.8182 -11.74282,11.7428 0.70953,0.7095 11.74283,-11.7428 -0.70954,-0.7095 z"/><path id="path6387" fill="url(#linearGradient6389)" fill-opacity="1" stroke="none" d="m 30.0021,1023.9619 -11.74283,11.7428 0.70952,0.7096 11.74284,-11.7429 -0.70953,-0.7095 z"/><path id="path6403" fill="url(#linearGradient6411)" fill-opacity="1" stroke="none" d="m 19.03413,1036.832 -1.33724,-1.3377 -2.0963,1.4599 -2.66851,1.9009 3.05728,-1.03 z"/><path id="path6421" fill="url(#linearGradient6423)" fill-opacity="1" stroke="none" d="m 15.09544,1033.0641 1.02043,1.0201 -1.11367,1.5991 -1.45008,2.0357 0.78574,-2.3323 z"/><path id="path6425" fill="url(#linearGradient6433)" fill-opacity="1" stroke="none" d="m 13.1813,1037.552 -0.3749,1.4317 1.43167,-0.3749 -1.05677,-1.0568 z"/><path id="path6446" fill="url(#linearGradient6459)" fill-opacity="1" stroke="none" d="m 29.55553,1017.1622 -2.06252,2.0625 c 1.56494,-0.1519 3.57445,0.4778 5.41394,1.2889 l -3.35142,-3.3514 z"/><path id="path6461" fill="url(#linearGradient6463)" fill-opacity="1" stroke="none" d="m 27.14674,1019.5709 -0.48176,0.4818 5.05732,5.0573 0.48176,-0.4818 -5.05732,-5.0573 z" opacity=".59"/><path id="path5692_2_-0" fill="#000" fill-opacity=".392" stroke="none" d="m 36.263294,1032.8622 -1.588973,0.1572 0,6.4955 1.571512,-0.227 0,-2.7763 2.095349,3.0732 1.641356,-0.5239 -2.147732,-2.9509 2.165194,-2.7938 -1.676279,-0.3842 -2.077888,2.7938 0.01746,-2.8636 z m -3.579554,1.5889 c -0.01781,0 -0.03901,0.01 -0.05239,0.018 l -0.611143,0.6286 c -0.02603,0.027 -0.03663,0.073 -0.01747,0.1048 l 0.715911,1.1874 c -0.128512,0.2161 -0.223223,0.4527 -0.296841,0.6983 l -1.327055,0.2795 c -0.03701,0.01 -0.06984,0.032 -0.06984,0.07 l 0,0.8731 c 0,0.037 0.03419,0.078 0.06984,0.087 l 1.292132,0.3143 c 0.06885,0.2847 0.173293,0.5553 0.314302,0.8031 l -0.750833,1.1352 c -0.02085,0.032 -0.0095,0.078 0.01747,0.1048 l 0.611144,0.611 c 0.02603,0.025 0.07303,0.038 0.104768,0.018 l 1.169902,-0.7158 c 0.230034,0.1327 0.471177,0.2434 0.733373,0.3142 l 0.279379,1.3096 c 0.0077,0.038 0.03211,0.07 0.06984,0.07 l 0.873063,0 c 0.0368,0 0.07852,-0.034 0.08731,-0.07 l 0.314303,-1.3096 c 0.270276,-0.073 0.532658,-0.1929 0.768295,-0.3317 l 1.152441,0.7683 c 0.03173,0.02 0.07783,0.01 0.104767,-0.018 l 0.611146,-0.6112 c 0.02618,-0.027 0.0367,-0.073 0.01747,-0.1047 l -0.419071,-0.6983 -0.139689,0.052 c -0.01989,0.01 -0.04069,0 -0.05239,-0.018 0,0 -0.2641,-0.4001 -0.611144,-0.9081 -0.414869,0.812 -1.26033,1.3621 -2.235039,1.3621 -1.38481,0 -2.514418,-1.1121 -2.514418,-2.497 0,-1.0187 0.611881,-1.8949 1.484205,-2.2874 l 0,-0.6461 c -0.158762,0.056 -0.308214,0.1126 -0.453992,0.1922 -1.11e-4,0 -0.01706,0 -0.01747,0 l -1.169903,-0.7684 c -0.01591,-0.01 -0.03457,-0.019 -0.05237,-0.017 z"/></g></svg>