<svg xmlns="http://www.w3.org/2000/svg" xmlns:svg="http://www.w3.org/2000/svg" xmlns:xlink="http://www.w3.org/1999/xlink" id="svg2" width="48" height="48" version="1.1"><defs id="defs4"><linearGradient id="linearGradient1399" x1="-23.769" x2="-23.769" y1="-1055.152" y2="-1007.129" gradientTransform="translate(55.819804,2.7867629)" gradientUnits="userSpaceOnUse" xlink:href="#linearGradient1163"/><linearGradient id="linearGradient4056" x1="33.861" x2="33.861" y1="1043.777" y2="1013.045" gradientUnits="userSpaceOnUse" xlink:href="#linearGradient4110"/><linearGradient id="linearGradient4110"><stop id="stop4112" offset="0" stop-color="#bebebe" stop-opacity="1"/><stop id="stop4114" offset="1" stop-color="#fafafa" stop-opacity="1"/></linearGradient><linearGradient id="linearGradient1163"><stop id="stop1165" offset="0" stop-color="#9c9c9c" stop-opacity="1"/><stop id="stop1167" offset="1" stop-color="#cecece" stop-opacity="1"/></linearGradient></defs><metadata id="metadata7"/><g id="layer1" transform="translate(0,-1004.3622)"><rect id="rect2991-1" width="48" height="48" x="0" y="-1052.362" fill="url(#linearGradient1399)" fill-opacity="1" stroke="none" ry="1.945" transform="scale(1,-1)"/><path id="path4048" fill="#000" fill-opacity=".059" fill-rule="evenodd" stroke="none" d="m 22.424886,1014.1622 0,12.2765 -6.936128,-5.19 -1.927728,1.921 8.228192,6.3925 -7.895617,6.3206 2.079269,2.1251 6.452012,-5.2214 0,12.1757 12.014085,-8.9644 -7.961714,-6.3337 L 34.184696,1023.4174 z m 3.182907,5.9732 4.031906,3.3835 L 25.607793,1026.5711 z m -2e-4,12.7517 4.159181,3.0089 -4.161756,2.7197 C 25.605018,1036.5533 25.607593,1034.9093 25.607593,1032.8871 Z" display="inline"/><path id="path4046" fill="#000" fill-opacity=".118" fill-rule="evenodd" stroke="none" d="m 22.424886,1013.7622 0,12.2765 -6.936128,-5.19 -1.927728,1.921 8.228192,6.3925 -7.895617,6.3206 2.079269,2.1251 6.452012,-5.2214 0,12.1757 12.014085,-8.9644 -7.961714,-6.3337 L 34.184696,1023.0174 z m 3.182907,5.9732 4.031906,3.3835 L 25.607793,1026.1711 z m -2e-4,12.7517 4.159181,3.0089 -4.161756,2.7197 C 25.605018,1036.1533 25.607593,1034.5093 25.607593,1032.4871 Z" display="inline"/><path id="path4044" fill="#000" fill-opacity=".235" fill-rule="evenodd" stroke="none" d="m 22.424886,1013.3622 0,12.2765 -6.936128,-5.19 -1.927728,1.921 8.228192,6.3925 -7.895617,6.3206 2.079269,2.1251 6.452012,-5.2214 0,12.1757 12.014085,-8.9644 -7.961714,-6.3337 L 34.184696,1022.6174 z m 3.182907,5.9732 4.031906,3.3835 L 25.607793,1025.7711 z m -2e-4,12.7517 4.159181,3.0089 -4.161756,2.7197 C 25.605018,1035.7533 25.607593,1034.1093 25.607593,1032.0871 Z" display="inline"/><path id="rect846" fill="#000" fill-opacity="1" stroke="none" d="m 4.7263183e-7,1049.3622 0,1.0625 c 0,1.0773 0.86022299736817,1.9375 1.93750002736817,1.9375 l 44.1250005,0 c 1.077277,0 1.9375,-0.8602 1.9375,-1.9375 l 0,-1.0625 c 0,1.0773 -0.860223,1.9375 -1.9375,1.9375 l -44.1250005,0 C 0.86022347,1051.2997 4.7263183e-7,1050.4395 4.7263183e-7,1049.3622 Z"/><path id="path7515" fill="#fff" fill-opacity=".537" stroke="none" d="m 2.5312505,1005.0185 c -0.917089,0 -1.67114703,0.6395 -1.84375003,1.5 0.33561203,-0.2799 0.77451203,-0.4375 1.25000003,-0.4375 l 44.1250005,0 c 0.475488,0 0.914388,0.1576 1.25,0.4375 -0.172603,-0.8605 -0.926662,-1.5 -1.843751,-1.5 L 2.5312505,1005.0185 Z"/><path id="rect4280-1" fill="#000" fill-opacity=".392" stroke="none" d="m 1.9375005,1004.3622 c -1.07727703,0 -1.93750002736817,0.8602 -1.93750002736817,1.9375 l 0,43.0625 c 0,0.7934 0.48002299736817,1.449 1.15625002736817,1.75 -0.30934203,-0.3333 -0.50000003,-0.7824 -0.50000003,-1.2812 l 0,-42.9375 c 0,-1.0482 0.82689903,-1.875 1.87500003,-1.875 l 42.9374995,0 c 1.048102,0 1.875001,0.8268 1.875001,1.875 l 0,42.9375 c 0,0.4988 -0.190658,0.9479 -0.5,1.2812 0.676226,-0.301 1.15625,-0.9566 1.15625,-1.75 l 0,-43.0625 c 0,-1.0773 -0.860223,-1.9375 -1.9375,-1.9375 L 1.9375005,1004.3622 Z"/><path id="path4050" fill="url(#linearGradient4056)" fill-opacity="1" fill-rule="evenodd" stroke="none" d="m 22.424886,1012.9622 0,12.2765 -6.936128,-5.19 -1.927728,1.921 8.228192,6.3925 -7.895617,6.3206 2.079269,2.1251 6.452012,-5.2214 0,12.1757 12.014085,-8.9644 -7.961714,-6.3337 L 34.184696,1022.2174 z m 3.182907,5.9732 4.031906,3.3835 L 25.607793,1025.3711 z m -2e-4,12.7517 4.159181,3.0089 -4.161756,2.7197 C 25.605018,1035.3533 25.607593,1033.7093 25.607593,1031.6871 Z" display="inline"/><path id="path4064" fill="#646464" fill-opacity=".314" fill-rule="evenodd" stroke="none" d="m 25.607422,1018.1352 0,0.7989 3.53125,2.9629 0.501953,-0.3789 L 25.607422,1018.1352 z m -11.595703,3.3848 -0.451172,0.4492 7.720703,5.9981 0.507812,-0.4063 L 14.011719,1021.52 z m 19.671875,0.3027 -7.207032,5.8418 0.498047,0.3965 7.210938,-5.8437 L 33.683594,1021.8227 z m -11.257813,8.9629 -6.453125,5.2227 -1.640625,-1.6777 -0.4375,0.3515 2.078125,2.125 6.453125,-5.2207 L 22.425781,1030.7856 z m 3.181641,0.1016 c 0,0.282 8.6e-5,0.5294 0,0.7988 l 3.578125,2.5899 0.582031,-0.3809 L 25.607422,1030.8872 z m 8.3125,3.4961 -11.494141,8.5781 0,0.8008 12.013672,-8.9648 L 33.919922,1034.3833 Z" display="inline"/><path id="path4069" fill="#fff" fill-opacity=".314" fill-rule="evenodd" stroke="none" d="m 22.425781,1012.9622 0,0.4004 11.509766,9.0586 0.25,-0.2031 L 22.425781,1012.9622 z m -6.9375,7.0859 -1.927734,1.9219 0.226562,0.1758 1.701172,-1.6973 6.9375,5.1914 0,-0.4004 L 15.488281,1020.0481 z m 13.902344,2.461 -3.783203,2.8633 0,0.3984 4.033203,-3.0508 L 29.390625,1022.5091 z m -7.855469,6.0566 -7.640625,6.1172 0.21875,0.2246 7.675781,-6.1445 L 21.535156,1028.5657 z m 5.191406,0.098 -0.25,0.2011 7.703126,6.127 0.259765,-0.1934 L 26.726562,1028.6634 z m 2.75,6.2226 -3.871093,2.5293 c -2.4e-5,0.1404 0,0.2563 0,0.4004 L 29.767578,1035.097 29.476562,1034.886 Z" display="inline"/></g></svg>