<svg xmlns="http://www.w3.org/2000/svg" xmlns:svg="http://www.w3.org/2000/svg" xmlns:xlink="http://www.w3.org/1999/xlink" id="svg5453" width="48" height="48" version="1.1" viewBox="0 0 48 48"><defs id="defs5455"><linearGradient id="linearGradient4195"><stop id="stop4197" offset="0" stop-color="#f4acbe" stop-opacity="1"/><stop id="stop4199" offset="1" stop-color="#f7d9d9" stop-opacity="1"/></linearGradient><linearGradient id="linearGradient4687" x1="428.671" x2="428.671" y1="-547.803" y2="-499.797" gradientTransform="translate(0,1047.5959)" gradientUnits="userSpaceOnUse" xlink:href="#linearGradient7376"/><linearGradient id="linearGradient7376"><stop id="stop7378" offset="0" stop-color="#e75177" stop-opacity="1"/><stop id="stop7380" offset="1" stop-color="#d23638" stop-opacity="1"/></linearGradient><linearGradient id="linearGradient4193" x1="410.734" x2="410.734" y1="508.377" y2="539.224" gradientUnits="userSpaceOnUse" xlink:href="#linearGradient4195"/></defs><metadata id="metadata5458"/><g id="layer1" transform="translate(-384.57143,-499.798)"><rect id="rect2991-1-7" width="48" height="48" x="384.571" y="499.798" fill="url(#linearGradient4687)" fill-opacity="1" stroke="none" ry="1.945"/><path id="rect846" fill="#000" fill-opacity="1" stroke="none" d="m 384.57143,544.79799 0,1.0625 c 0,1.0773 0.86022,1.9375 1.9375,1.9375 l 44.125,0 c 1.07728,0 1.9375,-0.8602 1.9375,-1.9375 l 0,-1.0625 c 0,1.0773 -0.86022,1.9375 -1.9375,1.9375 l -44.125,0 c -1.07728,0 -1.9375,-0.8602 -1.9375,-1.9375 z"/><path id="path7515" fill="#fff" fill-opacity=".537" stroke="none" d="m 387.10268,500.45429 c -0.91709,0 -1.67115,0.6395 -1.84375,1.5 0.33561,-0.2799 0.77451,-0.4375 1.25,-0.4375 l 44.125,0 c 0.47549,0 0.91439,0.1576 1.25,0.4375 -0.1726,-0.8605 -0.92666,-1.5 -1.84375,-1.5 l -42.9375,0 z"/><path id="rect4280" fill="#000" fill-opacity=".392" stroke="none" d="m 386.50893,499.79799 c -1.07728,0 -1.9375,0.8602 -1.9375,1.9375 l 0,43.0625 c 0,0.7934 0.48002,1.449 1.15625,1.75 -0.30934,-0.3333 -0.5,-0.7824 -0.5,-1.2812 l 0,-42.9375 c 0,-1.0482 0.8269,-1.875 1.875,-1.875 l 42.9375,0 c 1.0481,0 1.875,0.8268 1.875,1.875 l 0,42.9375 c 0,0.4988 -0.19066,0.9479 -0.5,1.2812 0.67623,-0.301 1.15625,-0.9566 1.15625,-1.75 l 0,-43.0625 c 0,-1.0773 -0.86022,-1.9375 -1.9375,-1.9375 l -44.125,0 z"/><path id="path4207" fill="#000" fill-opacity=".059" fill-rule="nonzero" stroke="none" stroke-width=".298" d="m 408.57143,509.59802 c -1.172,0 -2.30947,0.13884 -3.4065,0.38683 l 0,23.24157 c 0,0.35277 -0.28887,0.63224 -0.64166,0.63227 l -2.22696,0 c -0.35279,0 -0.63223,-0.2795 -0.63223,-0.63227 l 0,-21.99595 c -5.03491,2.53248 -8.49265,7.74721 -8.49265,13.76753 0,8.50514 6.89482,15.39998 15.4,15.39998 8.5052,0 15.4,-6.89484 15.4,-15.39998 0,-8.50518 -6.89481,-15.39998 -15.4,-15.39998 z m -1.10404,8.29449 a 0.92701195,1.0816675 0 0 1 0.0944,0 0.92701195,1.0816675 0 0 1 0.4435,0.14154 l 5.15221,3.48199 5.14277,3.46308 a 0.92701195,1.0816675 0 0 1 0,1.87778 l -5.14277,3.46315 -5.15221,3.47257 a 0.92701195,1.0816675 0 0 1 -1.39656,-0.93425 l 0,-6.94505 0,-6.93567 a 0.92701195,1.0816675 0 0 1 0.8587,-1.08514 z" color="#000" display="inline" enable-background="accumulate" overflow="visible" visibility="visible" style="marker:none"/><path id="path4205" fill="#000" fill-opacity=".118" fill-rule="nonzero" stroke="none" stroke-width=".298" d="m 408.57143,509.19802 c -1.172,0 -2.30947,0.13884 -3.4065,0.38683 l 0,23.24157 c 0,0.35277 -0.28887,0.63224 -0.64166,0.63227 l -2.22696,0 c -0.35279,0 -0.63223,-0.2795 -0.63223,-0.63227 l 0,-21.99595 c -5.03491,2.53248 -8.49265,7.74721 -8.49265,13.76753 0,8.50514 6.89482,15.39998 15.4,15.39998 8.5052,0 15.4,-6.89484 15.4,-15.39998 0,-8.50518 -6.89481,-15.39998 -15.4,-15.39998 z m -1.10404,8.29449 a 0.92701195,1.0816675 0 0 1 0.0944,0 0.92701195,1.0816675 0 0 1 0.4435,0.14154 l 5.15221,3.48199 5.14277,3.46308 a 0.92701195,1.0816675 0 0 1 0,1.87778 l -5.14277,3.46315 -5.15221,3.47257 a 0.92701195,1.0816675 0 0 1 -1.39656,-0.93425 l 0,-6.94505 0,-6.93567 a 0.92701195,1.0816675 0 0 1 0.8587,-1.08514 z" color="#000" display="inline" enable-background="accumulate" overflow="visible" visibility="visible" style="marker:none"/><path id="path4201" fill="#000" fill-opacity=".235" fill-rule="nonzero" stroke="none" stroke-width=".298" d="m 408.57143,508.79802 c -1.172,0 -2.30947,0.13884 -3.4065,0.38683 l 0,23.24157 c 0,0.35277 -0.28887,0.63224 -0.64166,0.63227 l -2.22696,0 c -0.35279,0 -0.63223,-0.2795 -0.63223,-0.63227 l 0,-21.99595 c -5.03491,2.53248 -8.49265,7.74721 -8.49265,13.76753 0,8.50514 6.89482,15.39998 15.4,15.39998 8.5052,0 15.4,-6.89484 15.4,-15.39998 0,-8.50518 -6.89481,-15.39998 -15.4,-15.39998 z m -1.10404,8.29449 a 0.92701195,1.0816675 0 0 1 0.0944,0 0.92701195,1.0816675 0 0 1 0.4435,0.14154 l 5.15221,3.48199 5.14277,3.46308 a 0.92701195,1.0816675 0 0 1 0,1.87778 l -5.14277,3.46315 -5.15221,3.47257 a 0.92701195,1.0816675 0 0 1 -1.39656,-0.93425 l 0,-6.94505 0,-6.93567 a 0.92701195,1.0816675 0 0 1 0.8587,-1.08514 z" color="#000" display="inline" enable-background="accumulate" overflow="visible" visibility="visible" style="marker:none"/><path id="path7360-9" fill="url(#linearGradient4193)" fill-opacity="1" fill-rule="nonzero" stroke="none" stroke-width=".298" d="m 408.57143,508.39802 c -1.172,0 -2.30947,0.13884 -3.4065,0.38683 l 0,23.24157 c 0,0.35277 -0.28887,0.63224 -0.64166,0.63227 l -2.22696,0 c -0.35279,0 -0.63223,-0.2795 -0.63223,-0.63227 l 0,-21.99595 c -5.03491,2.53248 -8.49265,7.74721 -8.49265,13.76753 0,8.50514 6.89482,15.39998 15.4,15.39998 8.5052,0 15.4,-6.89484 15.4,-15.39998 0,-8.50518 -6.89481,-15.39998 -15.4,-15.39998 z m -1.10404,8.29449 a 0.92701195,1.0816675 0 0 1 0.0944,0 0.92701195,1.0816675 0 0 1 0.4435,0.14154 l 5.15221,3.48199 5.14277,3.46308 a 0.92701195,1.0816675 0 0 1 0,1.87778 l -5.14277,3.46315 -5.15221,3.47257 a 0.92701195,1.0816675 0 0 1 -1.39656,-0.93425 l 0,-6.94505 0,-6.93567 a 0.92701195,1.0816675 0 0 1 0.8587,-1.08514 z" color="#000" display="inline" enable-background="accumulate" overflow="visible" visibility="visible" style="marker:none"/><path id="path4209" fill="#d3383c" fill-opacity=".235" fill-rule="nonzero" stroke="none" stroke-width=".298" d="M 22.896484 16.09375 A 0.92701195 1.0816675 0 0 0 22.037109 17.179688 L 22.037109 17.980469 A 0.92701195 1.0816675 0 0 1 22.896484 16.894531 A 0.92701195 1.0816675 0 0 1 22.990234 16.894531 A 0.92701195 1.0816675 0 0 1 23.433594 17.035156 L 28.585938 20.517578 L 33.728516 23.980469 A 0.92701195 1.0816675 0 0 1 34.128906 24.521484 A 0.92701195 1.0816675 0 0 0 33.728516 23.181641 L 28.585938 19.71875 L 23.433594 16.236328 A 0.92701195 1.0816675 0 0 0 22.990234 16.09375 A 0.92701195 1.0816675 0 0 0 22.896484 16.09375 z M 8.6171875 23.535156 C 8.6125596 23.690331 8.5996094 23.843707 8.5996094 24 C 8.5996094 32.50514 15.49482 39.400391 24 39.400391 C 32.5052 39.400391 39.400391 32.50514 39.400391 24 C 39.400391 23.864813 39.384322 23.733962 39.380859 23.599609 C 39.166734 31.918103 32.370179 38.599609 24 38.599609 C 15.608126 38.599609 8.79752 31.883733 8.6171875 23.535156 z" color="#000" display="inline" enable-background="accumulate" overflow="visible" transform="translate(384.57143,499.798)" visibility="visible" style="marker:none"/><path id="path4214" fill="#fff" fill-opacity=".235" fill-rule="nonzero" stroke="none" stroke-width=".298" d="M 24 8.5996094 C 22.828 8.5996094 21.69078 8.7383381 20.59375 8.9863281 L 20.59375 9.3867188 C 21.69078 9.1387288 22.828 9 24 9 C 32.437267 9 39.281714 15.787811 39.390625 24.199219 C 39.391485 24.132158 39.400391 24.067264 39.400391 24 C 39.400391 15.49482 32.50519 8.5996094 24 8.5996094 z M 17.091797 10.232422 C 12.056887 12.764902 8.5996094 17.97968 8.5996094 24 C 8.5996094 24.056706 8.6068105 24.111407 8.6074219 24.167969 C 8.6956968 18.246735 12.122232 13.132425 17.091797 10.632812 L 17.091797 10.232422 z M 34.177734 25.117188 A 0.92701195 1.0816675 0 0 1 33.728516 25.859375 L 28.585938 29.322266 L 23.433594 32.794922 A 0.92701195 1.0816675 0 0 1 22.037109 31.863281 L 22.037109 32.259766 A 0.92701195 1.0816675 0 0 0 23.433594 33.195312 L 28.585938 29.722656 L 33.728516 26.259766 A 0.92701195 1.0816675 0 0 0 34.177734 25.117188 z M 17.091797 32.228516 L 17.091797 32.628906 C 17.091797 32.981676 17.371819 33.259766 17.724609 33.259766 L 19.951172 33.259766 C 20.303962 33.259736 20.59375 32.981676 20.59375 32.628906 L 20.59375 32.228516 C 20.59375 32.581286 20.303962 32.861298 19.951172 32.861328 L 17.724609 32.861328 C 17.371819 32.861328 17.091797 32.581286 17.091797 32.228516 z" color="#000" display="inline" enable-background="accumulate" overflow="visible" transform="translate(384.57143,499.798)" visibility="visible" style="marker:none"/></g></svg>