<svg xmlns="http://www.w3.org/2000/svg" xmlns:svg="http://www.w3.org/2000/svg" xmlns:xlink="http://www.w3.org/1999/xlink" id="svg4451" width="48" height="48" version="1.1"><defs id="defs4453"><linearGradient id="linearGradient4346"><stop id="stop4348" offset="0" stop-color="#1fa3dc" stop-opacity="1"/><stop id="stop4350" offset="1" stop-color="#50b9e6" stop-opacity="1"/></linearGradient><linearGradient id="linearGradient4362"><stop id="stop4364" offset="0" stop-color="#c2e6f6" stop-opacity="1"/><stop id="stop4366" offset="1" stop-color="#f6fcfe" stop-opacity="1"/></linearGradient><linearGradient id="linearGradient4445" x1="418.744" x2="418.744" y1="-547.747" y2="-499.789" gradientTransform="translate(102.85713,-79.99278)" gradientUnits="userSpaceOnUse" xlink:href="#linearGradient4346"/><linearGradient id="linearGradient4447" x1="25.067" x2="25.067" y1="32.125" y2="10.047" gradientTransform="matrix(1.385246,0,0,1.3852108,477.4722,574.58242)" gradientUnits="userSpaceOnUse" xlink:href="#linearGradient4362"/></defs><metadata id="metadata4456"/><g id="layer1" transform="translate(-487.42857,-579.79077)"><rect id="rect2991-1-7" width="48" height="48" x="487.429" y="-627.791" fill="url(#linearGradient4445)" fill-opacity="1" stroke="none" ry="1.945" transform="scale(1,-1)"/><g id="g5165" fill="#000" fill-opacity=".059" transform="matrix(1.385246,0,0,1.385246,477.4722,575.78167)"><path id="path5167" fill="#000" fill-opacity=".059" stroke="none" d="m 11.037905,9.9687459 11.749842,0 0,5.0050941 -6.614705,0 0,12.156446 6.614705,0.01126 0,5.061471 -11.749842,0 0,-22.2343177"/><path id="path5169" fill="#000" fill-opacity=".059" stroke="none" d="m 37.987842,9.9687459 -11.749842,0 0,5.0050941 6.614705,0 0,12.156446 -6.614705,0.01126 0,5.061471 11.749842,0 0,-22.2343177"/></g><g id="g5159" fill="#000" fill-opacity=".118" transform="matrix(1.385246,0,0,1.385246,477.4722,575.38167)"><path id="path5161" fill="#000" fill-opacity=".118" stroke="none" d="m 11.037905,9.9687459 11.749842,0 0,5.0050941 -6.614705,0 0,12.156446 6.614705,0.01126 0,5.061471 -11.749842,0 0,-22.2343177"/><path id="path5163" fill="#000" fill-opacity=".118" stroke="none" d="m 37.987842,9.9687459 -11.749842,0 0,5.0050941 6.614705,0 0,12.156446 -6.614705,0.01126 0,5.061471 11.749842,0 0,-22.2343177"/></g><g id="g5147" fill="#000" fill-opacity=".235" transform="matrix(1.385246,0,0,1.385246,477.4722,574.98167)"><path id="path5149" fill="#000" fill-opacity=".235" stroke="none" d="m 11.037905,9.9687459 11.749842,0 0,5.0050941 -6.614705,0 0,12.156446 6.614705,0.01126 0,5.061471 -11.749842,0 0,-22.2343177"/><path id="path5151" fill="#000" fill-opacity=".235" stroke="none" d="m 37.987842,9.9687459 -11.749842,0 0,5.0050941 6.614705,0 0,12.156446 -6.614705,0.01126 0,5.061471 11.749842,0 0,-22.2343177"/></g><path id="rect846" fill="#000" fill-opacity="1" stroke="none" d="m 487.42856,624.79076 0,1.0625 c 0,1.0773 0.86022,1.9375 1.9375,1.9375 l 44.125,0 c 1.07728,0 1.9375,-0.8602 1.9375,-1.9375 l 0,-1.0625 c 0,1.0773 -0.86022,1.9375 -1.9375,1.9375 l -44.125,0 c -1.07728,0 -1.9375,-0.8602 -1.9375,-1.9375 z"/><path id="path7515" fill="#fff" fill-opacity=".537" stroke="none" d="m 489.95981,580.44706 c -0.91709,0 -1.67115,0.6395 -1.84375,1.5 0.33561,-0.2799 0.77451,-0.4375 1.25,-0.4375 l 44.125,0 c 0.47549,0 0.91439,0.1576 1.25,0.4375 -0.1726,-0.8605 -0.92666,-1.5 -1.84375,-1.5 l -42.9375,0 z"/><path id="rect4280" fill="#000" fill-opacity=".392" stroke="none" d="m 489.36606,579.79076 c -1.07728,0 -1.9375,0.8602 -1.9375,1.9375 l 0,43.0625 c 0,0.7934 0.48002,1.449 1.15625,1.75 -0.30934,-0.3333 -0.5,-0.7824 -0.5,-1.2812 l 0,-42.9375 c 0,-1.0482 0.8269,-1.875 1.875,-1.875 l 42.9375,0 c 1.0481,0 1.875,0.8268 1.875,1.875 l 0,42.9375 c 0,0.4988 -0.19066,0.9479 -0.5,1.2812 0.67623,-0.301 1.15625,-0.9566 1.15625,-1.75 l 0,-43.0625 c 0,-1.0773 -0.86022,-1.9375 -1.9375,-1.9375 l -44.125,0 z"/><path id="path10558" fill="url(#linearGradient4447)" fill-opacity="1" stroke="none" d="m 492.76255,588.39078 0,30.8 16.27539,0 0,-7.01154 -9.1621,-0.0156 0,-16.83942 9.1621,0 0,-6.93342 -16.27539,0 z m 21.05665,0 0,6.93342 9.1621,0 0,16.83942 -9.1621,0.0156 0,7.01154 16.27539,0 0,-30.8 -16.27539,0 z"/><path id="path5173" fill="#20a3dc" fill-opacity=".314" stroke="none" d="M 12.447266 14.732422 L 12.447266 15.533203 L 21.609375 15.533203 L 21.609375 14.732422 L 12.447266 14.732422 z M 26.390625 14.732422 L 26.390625 15.533203 L 35.552734 15.533203 L 35.552734 14.732422 L 26.390625 14.732422 z M 5.3339844 38.599609 L 5.3339844 39.400391 L 21.609375 39.400391 L 21.609375 38.599609 L 5.3339844 38.599609 z M 26.390625 38.599609 L 26.390625 39.400391 L 42.666016 39.400391 L 42.666016 38.599609 L 26.390625 38.599609 z" transform="translate(487.42857,579.79077)"/><path id="path5193" fill="#fff" fill-opacity=".235" stroke="none" d="M 5.3339844 8.5996094 L 5.3339844 9 L 21.609375 9 L 21.609375 8.5996094 L 5.3339844 8.5996094 z M 26.390625 8.5996094 L 26.390625 9 L 42.666016 9 L 42.666016 8.5996094 L 26.390625 8.5996094 z M 12.447266 32.373047 L 12.447266 32.773438 L 21.609375 32.789062 L 21.609375 32.388672 L 12.447266 32.373047 z M 35.552734 32.373047 L 26.390625 32.388672 L 26.390625 32.789062 L 35.552734 32.773438 L 35.552734 32.373047 z" transform="translate(487.42857,579.79077)"/></g></svg>