<svg xmlns="http://www.w3.org/2000/svg" xmlns:svg="http://www.w3.org/2000/svg" xmlns:xlink="http://www.w3.org/1999/xlink" id="svg5453" width="48" height="48" version="1.1"><defs id="defs5455"><linearGradient id="linearGradient4350"><stop id="stop4352" offset="0" stop-color="#131219" stop-opacity="1"/><stop id="stop4354" offset="1" stop-color="#2e2e3a" stop-opacity="1"/></linearGradient><linearGradient id="linearGradient4269"><stop id="stop4271" offset="0" stop-color="#f4c4cb" stop-opacity="1"/><stop id="stop4273" offset="1" stop-color="#fff7f5" stop-opacity="1"/></linearGradient><linearGradient id="linearGradient4074"><stop id="stop4076" offset="0" stop-color="#db334c" stop-opacity="1"/><stop id="stop4078" offset="1" stop-color="#fe6136" stop-opacity="1"/></linearGradient><linearGradient id="linearGradient4080" x1="413.841" x2="413.841" y1="-547.813" y2="-499.795" gradientTransform="translate(-2.2203125e-5,0)" gradientUnits="userSpaceOnUse" xlink:href="#linearGradient4350"/><linearGradient id="linearGradient4267" x1="24" x2="24" y1="39.4" y2="8.6" gradientUnits="userSpaceOnUse" xlink:href="#linearGradient4269"/><linearGradient id="linearGradient4290" x1="24" x2="24" y1="39.4" y2="8.6" gradientTransform="matrix(1,0,0,0.99994924,384.57143,499.8)" gradientUnits="userSpaceOnUse" xlink:href="#linearGradient4269"/><linearGradient id="linearGradient4317" x1="408.572" x2="408.572" y1="539.211" y2="509.41" gradientTransform="matrix(1,0,0,0.99997462,0,0.001)" gradientUnits="userSpaceOnUse" xlink:href="#linearGradient4074"/></defs><metadata id="metadata5458"/><g id="layer1" transform="translate(-384.57143,-499.798)"><rect id="rect2991-1-7" width="48" height="48" x="384.571" y="-547.798" fill="url(#linearGradient4080)" fill-opacity="1" stroke="none" ry="1.945" transform="scale(1,-1)"/><path id="path4325" fill="url(#linearGradient4317)" fill-opacity="1" stroke="none" d="m 408.57143,509.39761 2,0 3.44141,0 8.95898,0 0,8.99219 0,5.4082 a 14.399994,14.399629 0 0 1 -14.40039,14.40039 14.399994,14.399629 0 0 1 -11.0332,-5.16992 14.399994,14.399994 0 0 1 -3.36719,-9.23047 14.399994,14.399994 0 0 1 14.40039,-14.40039 z"/><path id="path4138" fill="#000" fill-opacity=".059" stroke="none" d="m 410.57143,509.598 0,0.99998 3.44141,0 8.95898,0 0,8.99196 0,5.40806 c 1e-4,3.76986 -1.55098,7.51765 -4.2168,10.18334 -2.66582,2.66569 -6.41355,4.21679 -10.18359,4.21669 -4.19357,-0.006 -8.34522,-1.95114 -11.0332,-5.16979 l -0.59961,0.84763 c 2.87765,3.32493 7.23541,5.31873 11.63281,5.32213 4.03184,10e-5 8.03967,-1.65885 10.89063,-4.50965 2.85093,-2.8508 4.50986,-6.85871 4.50976,-10.89035 l 0,-14.40002 0,-0.99998 -1,0 z m 1.5,5.619 0,6.88068 0,6.57796 0,2.42182 0,0.40038 -0.006,0.0996 c -0.0511,1.79706 -1.69619,3.39803 -3.4941,3.40031 -1.8326,0 -3.5,-1.66747 -3.5,-3.49991 0,-1.83248 1.6674,-3.49992 3.5,-3.49992 0.48022,2.3e-4 0.96018,0.1013 1.40039,0.29297 0.59962,0.29257 0.83994,-0.72705 0.30859,-0.9531 -0.54072,-0.22283 -1.12408,-0.33885 -1.70898,-0.33984 -2.3562,0 -4.5,2.14386 -4.5,4.49989 0,2.35601 2.1438,4.49988 4.5,4.49988 2.3562,0 4.5,-2.14387 4.5,-4.49988 l 0,-0.40038 0,-8.49979 0,-4.79949 c 1.69801,0 1.69801,-3.06055 5.56055,-0.85266 -0.5059,-1.8879 -2.39837,-3.25398 -4.32813,-3.31632 -1.65058,0 -2.23242,1.16797 -2.23242,1.5878 z"/><path id="path4136" fill="#000" fill-opacity=".118" stroke="none" d="m 410.57143,509.19839 0,0.99998 3.44141,0 8.95898,0 0,8.99196 0,5.40806 c 1e-4,3.76986 -1.55098,7.51765 -4.2168,10.18334 -2.66582,2.66569 -6.41355,4.21679 -10.18359,4.21669 -4.19357,-0.006 -8.34522,-1.95114 -11.0332,-5.16979 l -0.59961,0.84763 c 2.87765,3.32493 7.23541,5.31873 11.63281,5.32213 4.03184,10e-5 8.03967,-1.65885 10.89063,-4.50965 2.85093,-2.8508 4.50986,-6.85871 4.50976,-10.89035 l 0,-14.40002 0,-0.99998 -1,0 z m 1.5,5.619 0,6.88068 0,6.57796 0,2.42182 0,0.40038 -0.006,0.0996 c -0.0511,1.79706 -1.69619,3.39803 -3.4941,3.40031 -1.8326,0 -3.5,-1.66747 -3.5,-3.49991 0,-1.83248 1.6674,-3.49992 3.5,-3.49992 0.48022,2.3e-4 0.96018,0.1013 1.40039,0.29297 0.59962,0.29257 0.83994,-0.72705 0.30859,-0.9531 -0.54072,-0.22283 -1.12408,-0.33885 -1.70898,-0.33984 -2.3562,0 -4.5,2.14386 -4.5,4.49989 0,2.35601 2.1438,4.49988 4.5,4.49988 2.3562,0 4.5,-2.14387 4.5,-4.49988 l 0,-0.40038 0,-8.49979 0,-4.79949 c 1.69801,0 1.69801,-3.06055 5.56055,-0.85266 -0.5059,-1.8879 -2.39837,-3.25398 -4.32813,-3.31632 -1.65058,0 -2.23242,1.16797 -2.23242,1.5878 z"/><path id="path4132" fill="#000" fill-opacity=".235" stroke="none" d="m 410.57143,508.79839 0,0.99998 3.44141,0 8.95898,0 0,8.99196 0,5.40806 c 1e-4,3.76986 -1.55098,7.51765 -4.2168,10.18334 -2.66582,2.66569 -6.41355,4.21679 -10.18359,4.21669 -4.19357,-0.006 -8.34522,-1.95114 -11.0332,-5.16979 l -0.59961,0.84763 c 2.87765,3.32493 7.23541,5.31873 11.63281,5.32213 4.03184,10e-5 8.03967,-1.65885 10.89063,-4.50965 2.85093,-2.8508 4.50986,-6.85871 4.50976,-10.89035 l 0,-14.40002 0,-0.99998 -1,0 z m 1.5,5.619 0,6.88068 0,6.57796 0,2.42182 0,0.40038 -0.006,0.0996 c -0.0511,1.79706 -1.69619,3.39803 -3.4941,3.40031 -1.8326,0 -3.5,-1.66747 -3.5,-3.49991 0,-1.83248 1.6674,-3.49992 3.5,-3.49992 0.48022,2.3e-4 0.96018,0.1013 1.40039,0.29297 0.59962,0.29257 0.83994,-0.72705 0.30859,-0.9531 -0.54072,-0.22283 -1.12408,-0.33885 -1.70898,-0.33984 -2.3562,0 -4.5,2.14386 -4.5,4.49989 0,2.35601 2.1438,4.49988 4.5,4.49988 2.3562,0 4.5,-2.14387 4.5,-4.49988 l 0,-0.40038 0,-8.49979 0,-4.79949 c 1.69801,0 1.69801,-3.06055 5.56055,-0.85266 -0.5059,-1.8879 -2.39837,-3.25398 -4.32813,-3.31632 -1.65058,0 -2.23242,1.16797 -2.23242,1.5878 z"/><path id="rect846" fill="#000" fill-opacity="1" stroke="none" d="m 384.57143,544.79799 0,1.0625 c 0,1.0773 0.86022,1.9375 1.9375,1.9375 l 44.125,0 c 1.07728,0 1.9375,-0.8602 1.9375,-1.9375 l 0,-1.0625 c 0,1.0773 -0.86022,1.9375 -1.9375,1.9375 l -44.125,0 C 385.43165,546.73549 384.57143,545.87529 384.57143,544.79799 Z"/><path id="path7515" fill="#fff" fill-opacity=".537" stroke="none" d="m 387.10268,500.45429 c -0.91709,0 -1.67115,0.6395 -1.84375,1.5 0.33561,-0.2799 0.77451,-0.4375 1.25,-0.4375 l 44.125,0 c 0.47549,0 0.91439,0.1576 1.25,0.4375 -0.1726,-0.8605 -0.92666,-1.5 -1.84375,-1.5 L 387.10268,500.45429 Z"/><path id="rect4280" fill="#000" fill-opacity=".392" stroke="none" d="m 386.50893,499.79799 c -1.07728,0 -1.9375,0.8602 -1.9375,1.9375 l 0,43.0625 c 0,0.7934 0.48002,1.449 1.15625,1.75 -0.30934,-0.3333 -0.5,-0.7824 -0.5,-1.2812 l 0,-42.9375 c 0,-1.0482 0.8269,-1.875 1.875,-1.875 l 42.9375,0 c 1.0481,0 1.875,0.8268 1.875,1.875 l 0,42.9375 c 0,0.4988 -0.19066,0.9479 -0.5,1.2812 0.67623,-0.301 1.15625,-0.9566 1.15625,-1.75 l 0,-43.0625 c 0,-1.0773 -0.86022,-1.9375 -1.9375,-1.9375 L 386.50893,499.79799 Z"/><path id="path4288" fill="url(#linearGradient4290)" fill-opacity="1" stroke="none" d="m 410.57143,508.39839 0,0.99998 3.44141,0 8.95898,0 0,8.99196 0,5.40806 c 1e-4,3.76986 -1.55098,7.51765 -4.2168,10.18334 -2.66582,2.66569 -6.41355,4.21679 -10.18359,4.21669 -4.19357,-0.006 -8.34522,-1.95114 -11.0332,-5.16979 l -0.59961,0.84763 c 2.87765,3.32493 7.23541,5.31873 11.63281,5.32213 4.03184,10e-5 8.03967,-1.65885 10.89063,-4.50965 2.85093,-2.8508 4.50986,-6.85871 4.50976,-10.89035 l 0,-14.40002 0,-0.99998 -1,0 z m 1.5,5.619 0,6.88068 0,6.57796 0,2.42182 0,0.40038 -0.006,0.0996 c -0.0511,1.79706 -1.69619,3.39803 -3.4941,3.40031 -1.8326,0 -3.5,-1.66747 -3.5,-3.49991 0,-1.83248 1.6674,-3.49992 3.5,-3.49992 0.48022,2.3e-4 0.96018,0.1013 1.40039,0.29297 0.59962,0.29257 0.83994,-0.72705 0.30859,-0.9531 -0.54072,-0.22283 -1.12408,-0.33885 -1.70898,-0.33984 -2.3562,0 -4.5,2.14386 -4.5,4.49989 0,2.35601 2.1438,4.49988 4.5,4.49988 2.3562,0 4.5,-2.14387 4.5,-4.49988 l 0,-0.40038 0,-8.49979 0,-4.79949 c 1.69801,0 1.69801,-3.06055 5.56055,-0.85266 -0.5059,-1.8879 -2.39837,-3.25398 -4.32813,-3.31632 -1.65058,0 -2.23242,1.16797 -2.23242,1.5878 z"/><path id="path4094" fill="url(#linearGradient4267)" fill-opacity="1" stroke="none" d="M 8.5996094 24 A 15.399994 15.399994 0 0 0 12.367188 34.078125 L 12.966797 33.230469 A 14.399994 14.399994 0 0 1 9.5996094 24 A 14.399994 14.399994 0 0 1 24 9.5996094 L 26 9.5996094 L 26 8.5996094 L 24 8.5996094 A 15.399994 15.399994 0 0 0 8.5996094 24 z" opacity=".5" transform="translate(384.57143,499.798)"/><path id="path4140" fill="#dc354b" fill-opacity=".314" stroke="none" d="M 26 9 L 26 9.5996094 L 29.441406 9.5996094 L 38.400391 9.5996094 L 38.400391 9 L 29.441406 9 L 26 9 z M 31.800781 14.548828 C 30.091678 14.478154 29.773508 16.201172 28.5 16.201172 L 28.5 16.800781 C 30.19801 16.800781 30.198007 13.739376 34.060547 15.947266 C 33.990192 15.684716 33.887938 15.435574 33.767578 15.195312 C 32.951513 14.764784 32.309095 14.569848 31.800781 14.548828 z M 39.400391 23.400391 C 39.400491 27.432031 37.741555 31.440216 34.890625 34.291016 C 32.039665 37.141816 28.03184 38.800881 24 38.800781 C 19.720551 38.797472 15.490008 36.898211 12.613281 33.732422 L 12.367188 34.078125 C 15.244838 37.403055 19.6026 39.396991 24 39.400391 C 28.03184 39.400491 32.039665 37.741425 34.890625 34.890625 C 37.741555 32.039825 39.400491 28.03164 39.400391 24 L 39.400391 23.400391 z M 24 26.400391 C 22.1674 26.400391 20.5 28.067911 20.5 29.900391 C 20.5 30.001692 20.523265 30.099179 20.533203 30.199219 C 20.704034 28.490432 22.269364 27 24 27 C 24.48022 27.00023 24.960181 27.101299 25.400391 27.292969 C 25.888104 27.530936 26.129511 26.906148 25.919922 26.541016 C 25.82216 26.712331 25.642656 26.811567 25.400391 26.693359 C 24.960181 26.501689 24.48022 26.400621 24 26.400391 z M 28.5 29.900391 C 28.5 32.256401 26.3562 34.400391 24 34.400391 C 21.745075 34.400391 19.706158 32.433094 19.533203 30.199219 C 19.525336 30.300189 19.5 30.398079 19.5 30.5 C 19.5 32.85601 21.6438 35 24 35 C 26.3562 35 28.5 32.85601 28.5 30.5 L 28.5 30.099609 L 28.5 29.900391 z" transform="translate(384.57143,499.798)"/><path id="path4145" fill="#fff" fill-opacity=".235" stroke="none" d="M 26 8.5996094 L 26 9 L 38.400391 9 L 39.400391 9 L 39.400391 8.5996094 L 38.400391 8.5996094 L 26 8.5996094 z M 29.732422 12.630859 C 28.081842 12.630859 27.5 13.79892 27.5 14.21875 L 27.5 14.619141 C 27.5 14.199311 28.081842 13.03125 29.732422 13.03125 C 31.486598 13.087918 33.197875 14.22764 33.876953 15.851562 C 33.940015 15.885888 33.995308 15.909974 34.060547 15.947266 C 33.554647 14.059366 31.662182 12.693199 29.732422 12.630859 z M 38.400391 24 C 38.400491 27.76986 36.849414 31.517904 34.183594 34.183594 C 31.517774 36.849284 27.77004 38.400491 24 38.400391 C 19.80643 38.394391 15.654777 36.449119 12.966797 33.230469 L 12.367188 34.078125 C 12.418748 34.137699 12.478748 34.189331 12.53125 34.248047 L 12.966797 33.630859 C 15.654777 36.849509 19.80643 38.794781 24 38.800781 C 27.77004 38.800881 31.517774 37.249674 34.183594 34.583984 C 36.849414 31.918294 38.400491 28.170251 38.400391 24.400391 L 38.400391 24 z M 24 26 C 21.6438 26 19.5 28.14397 19.5 30.5 C 19.5 30.567487 19.518012 30.632125 19.521484 30.699219 C 19.640084 28.424634 21.711795 26.400391 24 26.400391 C 24.5849 26.401381 25.168264 26.517404 25.708984 26.740234 C 25.843889 26.797626 25.928534 26.906013 25.970703 27.03125 C 26.049512 26.781654 25.982227 26.456088 25.708984 26.339844 C 25.168264 26.117014 24.5849 26.00099 24 26 z M 27.5 30.5 L 27.494141 30.599609 C 27.443041 32.396669 25.79791 33.99772 24 34 C 22.234916 34 20.637854 32.450476 20.521484 30.699219 C 20.516973 30.76666 20.5 30.832419 20.5 30.900391 C 20.5 32.732831 22.1674 34.400391 24 34.400391 C 25.79791 34.398111 27.443041 32.79706 27.494141 31 L 27.5 30.900391 L 27.5 30.5 z" transform="translate(384.57143,499.798)"/></g></svg>