<svg xmlns="http://www.w3.org/2000/svg" xmlns:svg="http://www.w3.org/2000/svg" xmlns:xlink="http://www.w3.org/1999/xlink" id="svg5453" width="48" height="48" version="1.1"><defs id="defs5455"><linearGradient id="linearGradient4518"><stop id="stop4520" offset="0" stop-color="#fff" stop-opacity="1"/><stop id="stop4522" offset="1" stop-color="#fff" stop-opacity="0"/></linearGradient><linearGradient id="linearGradient4469"><stop id="stop4471" offset="0" stop-color="#000" stop-opacity="1"/><stop id="stop4473" offset="1" stop-color="#2b392c" stop-opacity="1"/></linearGradient><linearGradient id="linearGradient4461"><stop id="stop4463" offset="0" stop-color="#000" stop-opacity="1"/><stop id="stop4465" offset="1" stop-color="#7d868b" stop-opacity="1"/></linearGradient><linearGradient id="linearGradient4444"><stop id="stop4446" offset="0" stop-color="#142014" stop-opacity="1"/><stop id="stop4448" offset="1" stop-color="#31393a" stop-opacity="1"/></linearGradient><linearGradient id="linearGradient4436"><stop id="stop4438" offset="0" stop-color="#242528" stop-opacity="1"/><stop id="stop4440" offset="1" stop-color="#1f2324" stop-opacity="1"/></linearGradient><linearGradient id="linearGradient4425"><stop id="stop4427" offset="0" stop-color="#87878d" stop-opacity="1"/><stop id="stop4429" offset="1" stop-color="#f1f2f5" stop-opacity="1"/></linearGradient><linearGradient id="linearGradient4258"><stop id="stop4260" offset="0" stop-color="#fff" stop-opacity="1"/><stop id="stop4262" offset="1" stop-color="#fff" stop-opacity="0"/></linearGradient><linearGradient id="linearGradient4248"><stop id="stop4250" offset="0" stop-color="#000" stop-opacity="1"/><stop id="stop4252" offset="1" stop-color="#000" stop-opacity="0"/></linearGradient><linearGradient id="linearGradient867-1" x1="26.25" x2="26.25" y1="-1052.541" y2="-1004.684" gradientTransform="translate(384.57139,504.56412)" gradientUnits="userSpaceOnUse" xlink:href="#linearGradient1373-2"/><linearGradient id="linearGradient1373-2"><stop id="stop1375-3" offset="0" stop-color="#c0c1c9" stop-opacity="1"/><stop id="stop1377-7" offset="1" stop-color="#d3d6de" stop-opacity="1"/></linearGradient><linearGradient id="linearGradient4245" x1="24" x2="24" y1="-1056.362" y2="-1047.362" gradientTransform="matrix(1,0,0,-1,-4e-5,-1004.3621)" gradientUnits="userSpaceOnUse" xlink:href="#linearGradient4248"/><linearGradient id="linearGradient4256" x1="24" x2="24" y1="-1059.362" y2="-1047.362" gradientTransform="translate(384.57139,1552.1601)" gradientUnits="userSpaceOnUse" xlink:href="#linearGradient4258"/><linearGradient id="linearGradient4431" x1="24" x2="24" y1="48" y2="3" gradientUnits="userSpaceOnUse" xlink:href="#linearGradient4425"/><linearGradient id="linearGradient4442" x1="24" x2="24" y1="33" y2="15" gradientUnits="userSpaceOnUse" xlink:href="#linearGradient4436"/><linearGradient id="linearGradient4450" x1="48" x2="43" y1="15" y2="15" gradientUnits="userSpaceOnUse" xlink:href="#linearGradient4444"/><linearGradient id="linearGradient4458" x1="0" x2="5" y1="15" y2="15" gradientUnits="userSpaceOnUse" xlink:href="#linearGradient4444"/><linearGradient id="linearGradient4467" x1="24" x2="24" y1="8" y2="0" gradientUnits="userSpaceOnUse" xlink:href="#linearGradient4461"/><linearGradient id="linearGradient4475" x1="42" x2="42" y1="48" y2="43" gradientUnits="userSpaceOnUse" xlink:href="#linearGradient4469"/><linearGradient id="linearGradient4483" x1="6" x2="6" y1="48" y2="43" gradientUnits="userSpaceOnUse" xlink:href="#linearGradient4469"/><linearGradient id="linearGradient4524" x1="422.571" x2="409.571" y1="513.798" y2="520.798" gradientUnits="userSpaceOnUse" xlink:href="#linearGradient4518"/><linearGradient id="linearGradient4530" x1="409.571" x2="431.571" y1="501.798" y2="517.298" gradientTransform="translate(-384.57143,-499.798)" gradientUnits="userSpaceOnUse" xlink:href="#linearGradient4518"/><linearGradient id="linearGradient4542" x1="409.571" x2="431.571" y1="501.798" y2="517.298" gradientTransform="matrix(-1,0,0,1,817.14286,0)" gradientUnits="userSpaceOnUse" xlink:href="#linearGradient4518"/></defs><metadata id="metadata5458"/><g id="layer1" transform="translate(-384.57143,-499.798)"><rect id="rect2991-1-0" width="48" height="48" x="384.571" y="-547.798" fill="url(#linearGradient867-1)" fill-opacity="1" stroke="none" ry="1.945" transform="scale(1,-1)"/><path id="path4485" fill="#fff" fill-opacity="1" fill-rule="evenodd" stroke="none" stroke-linecap="butt" stroke-linejoin="miter" stroke-opacity="1" stroke-width="1" d="m 397.57143,503.798 -10,4 2,12 -3,9 2,15 1,0 4,0 0.35352,0.64648 2.375,4.35352 0.99804,0 -2.72656,-5 9,-9 5,0 5,0 9,9 -2.72656,5 0.99804,0 2.375,-4.35352 0.35352,-0.64648 5,0 2,-15 -3,-9 2,-12 -10,-4 -11,5 -11,-5 z m 0.0469,1 9.95312,4.52344 0,6.33398 -8.14258,8.14258 -9.04883,-4.52344 -1.80859,-10.85742 9.04688,-3.61914 z m 21.90625,0 9.04687,3.61914 -1.80859,10.85742 -9.04883,4.52344 -8.14258,-8.14258 0,-6.33398 9.95313,-4.52344 z m -10.95313,11 9,9 9.14258,-4.57227 2.85742,8.57227 -1.86719,14 -3.13281,0 -1,0 -1,0 -8.69141,-8.69141 3.69141,-8.30859 0,-1 -4,9 -1,0 -4,0 -5,0 -4,-9 0,1 3.69141,8.30859 -8.69141,8.69141 -1,0 -1,0 -3.13281,0 -1.86719,-14 2.85742,-8.57227 9.14258,4.57227 9,-9 z" opacity=".3"/><path id="path4254" fill="url(#linearGradient4256)" fill-opacity="1" stroke="none" d="m 384.57143,505.798 0,-4.05469 c 0,-1.07728 0.86804,-1.94531 1.94531,-1.94531 l 44.10938,0 c 1.07727,0 1.94531,0.86803 1.94531,1.94531 l 0,4.05469 -48,0 z"/><path id="path4295" fill="url(#linearGradient4442)" fill-opacity="1" fill-rule="evenodd" stroke="none" stroke-linecap="butt" stroke-linejoin="miter" stroke-opacity="1" stroke-width="1" d="M 24 15 L 15 24 L 19 33 L 24 33 L 29 33 L 33 24 L 24 15 z" transform="translate(384.57143,499.798)"/><path id="path4317" fill="url(#linearGradient4431)" fill-opacity="1" fill-rule="evenodd" stroke="none" stroke-linecap="butt" stroke-linejoin="miter" stroke-opacity="1" stroke-width="1" d="M 13 3 L 3 7 L 5 19 L 2 28 L 4 43 L 5 43 L 9 43 L 9.3535156 43.646484 L 11.728516 48 L 12.726562 48 L 10 43 L 19 34 L 24 34 L 29 34 L 38 43 L 35.273438 48 L 36.271484 48 L 38.646484 43.646484 L 39 43 L 44 43 L 46 28 L 43 19 L 45 7 L 35 3 L 24 8 L 13 3 z M 13.046875 4 L 23 8.5234375 L 23 14.857422 L 14.857422 23 L 5.8085938 18.476562 L 4 7.6191406 L 13.046875 4 z M 34.953125 4 L 44 7.6191406 L 42.191406 18.476562 L 33.142578 23 L 25 14.857422 L 25 8.5234375 L 34.953125 4 z M 24 15 L 33 24 L 42.142578 19.427734 L 45 28 L 43.132812 42 L 40 42 L 39 42 L 38 42 L 29.308594 33.308594 L 33 25 L 33 24 L 29 33 L 28 33 L 24 33 L 19 33 L 15 24 L 15 25 L 18.691406 33.308594 L 10 42 L 9 42 L 8 42 L 4.8671875 42 L 3 28 L 5.8574219 19.427734 L 15 24 L 24 15 z" opacity="1" transform="translate(384.57143,499.798)"/><path id="path4329" fill="url(#linearGradient4467)" fill-opacity="1" fill-rule="evenodd" stroke="none" stroke-linecap="butt" stroke-linejoin="miter" stroke-opacity="1" stroke-width="1" d="M 14.5 0 L 13 3 L 24 8 L 35 3 L 33.5 0 L 24 0 L 14.5 0 z" transform="translate(384.57143,499.798)"/><path id="path4345" fill="url(#linearGradient4458)" fill-opacity="1" fill-rule="evenodd" stroke="none" stroke-linecap="butt" stroke-linejoin="miter" stroke-opacity="1" stroke-width="1" d="M 0,8 0,28 2,28 5,19 3,7 Z" transform="translate(384.57143,499.798)"/><path id="path4349" fill="url(#linearGradient4450)" fill-opacity="1" fill-rule="evenodd" stroke="none" stroke-linecap="butt" stroke-linejoin="miter" stroke-opacity="1" stroke-width="1" d="m 45,7 -2,12 3,9 2,0 0,-20 z" transform="translate(384.57143,499.798)"/><path id="path4355" fill="url(#linearGradient4483)" fill-opacity="1" fill-rule="evenodd" stroke="none" stroke-linecap="butt" stroke-linejoin="miter" stroke-opacity="1" stroke-width="1" d="M 4 43 L 1.0253906 47.759766 C 1.2998803 47.907551 1.6105346 48 1.9453125 48 L 11.726562 48 L 9 43 L 4 43 z" transform="translate(384.57143,499.798)"/><path id="path4357" fill="url(#linearGradient4475)" fill-opacity="1" fill-rule="evenodd" stroke="none" stroke-linecap="butt" stroke-linejoin="miter" stroke-opacity="1" stroke-width="1" d="M 39 43 L 36.273438 48 L 46.054688 48 C 46.389465 48 46.70012 47.907551 46.974609 47.759766 L 44 43 L 39 43 z" transform="translate(384.57143,499.798)"/><path id="rect4241" fill="url(#linearGradient4245)" fill-opacity="1" stroke="none" d="M 0 42 L 0 46.054688 C 0 46.189347 0.013223101 46.320432 0.0390625 46.447266 C 0.039188483 46.447888 0.038935927 46.448597 0.0390625 46.449219 C 0.064895007 46.57539 0.10347792 46.696633 0.15234375 46.8125 C 0.1525826 46.813068 0.15210437 46.813885 0.15234375 46.814453 C 0.29973595 47.16307 0.54555088 47.458893 0.85546875 47.667969 C 0.95888657 47.737722 1.0691477 47.798587 1.1855469 47.847656 C 1.1860764 47.84788 1.1869702 47.847433 1.1875 47.847656 C 1.3033881 47.89638 1.4245868 47.935245 1.5507812 47.960938 C 1.6781894 47.987023 1.8099959 48 1.9453125 48 L 46.054688 48 C 47.131965 48 48 47.131965 48 46.054688 L 48 42 L 0 42 z" transform="translate(384.57143,499.798)"/><path id="path4514" fill="url(#linearGradient4524)" fill-opacity="1" fill-rule="evenodd" stroke="none" stroke-linecap="butt" stroke-linejoin="miter" stroke-opacity="1" stroke-width="1" d="m 408.57143,515.798 -8,8 3.55556,8 4.44444,0 4.44444,0 3.55556,-8 -8,-8 z"/><path id="path4526" fill="url(#linearGradient4530)" fill-opacity="1" fill-rule="evenodd" stroke="none" stroke-linecap="butt" stroke-linejoin="miter" stroke-opacity="1" stroke-width="1" d="m 45,7 -1,12 3,9 1,0 0,-20 z" transform="translate(384.57143,499.798)"/><path id="path4540" fill="url(#linearGradient4542)" fill-opacity="1" fill-rule="evenodd" stroke="none" stroke-linecap="butt" stroke-linejoin="miter" stroke-opacity="1" stroke-width="1" d="m 387.57143,506.798 1,12 -3,9 -1,0 0,-21 z"/><g id="g4532"><path id="rect4280" fill="#000" fill-opacity=".392" stroke="none" d="m 386.50893,499.79799 c -1.07728,0 -1.9375,0.8602 -1.9375,1.9375 l 0,43.0625 c 0,0.7934 0.48002,1.449 1.15625,1.75 -0.30934,-0.3333 -0.5,-0.7824 -0.5,-1.2812 l 0,-42.9375 c 0,-1.0482 0.8269,-1.875 1.875,-1.875 l 42.9375,0 c 1.0481,0 1.875,0.8268 1.875,1.875 l 0,42.9375 c 0,0.4988 -0.19066,0.9479 -0.5,1.2812 0.67623,-0.301 1.15625,-0.9566 1.15625,-1.75 l 0,-43.0625 c 0,-1.0773 -0.86022,-1.9375 -1.9375,-1.9375 L 386.50893,499.79799 Z"/><path id="path7515" fill="#fff" fill-opacity=".537" stroke="none" d="m 387.10268,500.45429 c -0.91709,0 -1.67115,0.6395 -1.84375,1.5 0.33561,-0.2799 0.77451,-0.4375 1.25,-0.4375 l 44.125,0 c 0.47549,0 0.91439,0.1576 1.25,0.4375 -0.1726,-0.8605 -0.92666,-1.5 -1.84375,-1.5 L 387.10268,500.45429 Z"/><path id="rect846" fill="#000" fill-opacity="1" stroke="none" d="m 384.57143,544.79799 0,1.0625 c 0,1.0773 0.86022,1.9375 1.9375,1.9375 l 44.125,0 c 1.07728,0 1.9375,-0.8602 1.9375,-1.9375 l 0,-1.0625 c 0,1.0773 -0.86022,1.9375 -1.9375,1.9375 l -44.125,0 C 385.43165,546.73549 384.57143,545.87529 384.57143,544.79799 Z"/></g></g></svg>