<svg xmlns="http://www.w3.org/2000/svg" xmlns:svg="http://www.w3.org/2000/svg" xmlns:xlink="http://www.w3.org/1999/xlink" id="svg2" width="48" height="48" version="1.1"><defs id="defs4"><linearGradient id="linearGradient4086"><stop id="stop4088" offset="0" stop-color="#ffe9b9" stop-opacity="1"/><stop id="stop4090" offset="1" stop-color="#fffef5" stop-opacity="1"/></linearGradient><linearGradient id="linearGradient859"><stop id="stop861" offset="0" stop-color="#ffae00" stop-opacity="1"/><stop id="stop863" offset="1" stop-color="#fcdb00" stop-opacity="1"/></linearGradient><linearGradient id="ButtonShadow" x1="45.448" x2="45.448" y1="92.54" y2="7.017" gradientTransform="scale(1.0058652,0.994169)" gradientUnits="userSpaceOnUse"><stop id="stop3750" offset="0" stop-color="#000" stop-opacity="1"/><stop id="stop3752" offset="1" stop-color="#000" stop-opacity=".588"/></linearGradient><linearGradient id="linearGradient3737"><stop id="stop3739" offset="0" stop-color="#fff" stop-opacity="1"/><stop id="stop3741" offset="1" stop-color="#fff" stop-opacity="0"/></linearGradient><filter id="filter3174" color-interpolation-filters="sRGB"><feGaussianBlur id="feGaussianBlur3176" stdDeviation="1.71"/></filter><filter id="filter3794" width="1.384" height="1.384" x="-.192" y="-.192" color-interpolation-filters="sRGB"><feGaussianBlur id="feGaussianBlur3796" stdDeviation="5.28"/></filter><linearGradient id="linearGradient3613" x1="48" x2="48" y1="20.221" y2="138.661" gradientUnits="userSpaceOnUse" xlink:href="#linearGradient3737"/><clipPath id="clipPath3613"><rect id="rect3615" width="84" height="84" x="6" y="6" fill="#fff" fill-opacity="1" fill-rule="nonzero" stroke="none" rx="6" ry="6"/></clipPath><linearGradient id="linearGradient865" x1="19.98" x2="19.98" y1="-1052.522" y2="-1004.73" gradientUnits="userSpaceOnUse" xlink:href="#linearGradient859"/><linearGradient id="linearGradient4084" x1="25.926" x2="25.926" y1="1043.703" y2="1012.832" gradientUnits="userSpaceOnUse" xlink:href="#linearGradient4086"/></defs><metadata id="metadata7"/><g id="layer1" transform="translate(0,-1004.3622)"><rect id="rect2991-1" width="48" height="48" x="0" y="-1052.362" fill="url(#linearGradient865)" fill-opacity="1" stroke="none" ry="1.945" transform="scale(1,-1)"/><path id="path4066" fill="#000" fill-opacity=".059" stroke="none" d="m 23.73901,1014.1622 -10.52179,14.7431 7.0523,0 0,16.0569 6.938981,0 0,-6.24 2.667679,2.6678 4.9066,-4.9066 -7.574279,-7.5743 -0.0037,0 0.0037,0 7.052301,0 L 23.73901,1014.1622 Z"/><path id="path4064" fill="#000" fill-opacity=".118" stroke="none" d="m 23.73901,1013.7622 -10.52179,14.7431 7.0523,0 0,16.0569 6.938981,0 0,-6.24 2.667679,2.6678 4.9066,-4.9066 -7.574279,-7.5743 -0.0037,0 0.0037,0 7.052301,0 L 23.73901,1013.7622 Z"/><path id="path4062" fill="#000" fill-opacity=".235" stroke="none" d="m 23.73901,1013.3622 -10.52179,14.7431 7.0523,0 0,16.0569 6.938981,0 0,-6.24 2.667679,2.6678 4.9066,-4.9066 -7.574279,-7.5743 -0.0037,0 0.0037,0 7.052301,0 L 23.73901,1013.3622 Z"/><path id="rect4065" fill="url(#linearGradient4084)" fill-opacity="1" stroke="none" d="m 23.73901,1012.9622 -10.52179,14.7431 7.0523,0 0,16.0569 6.938981,0 0,-6.24 2.667679,2.6678 4.9066,-4.9066 -7.574279,-7.5743 -0.0037,0 0.0037,0 7.052301,0 L 23.73901,1012.9622 Z"/><g id="layer2" display="none" transform="translate(-126.31865,964.9772)"><rect id="rect3745" width="86" height="85" x="5" y="7" fill="url(#ButtonShadow)" fill-opacity="1" fill-rule="nonzero" stroke="none" filter="url(#filter3174)" opacity=".9" rx="6" ry="6"/></g><g id="layer5" display="none" transform="translate(-126.31865,964.9772)"><rect id="rect3171" width="66" height="66" x="15" y="15" fill="url(#linearGradient3613)" fill-opacity="1" fill-rule="nonzero" stroke="#fff" stroke-dasharray="none" stroke-dashoffset="0" stroke-linecap="round" stroke-linejoin="miter" stroke-miterlimit="4" stroke-opacity="1" stroke-width=".5" clip-path="url(#clipPath3613)" filter="url(#filter3794)" opacity=".1" rx="12" ry="12"/></g><path id="rect846" fill="#000" fill-opacity="1" stroke="none" d="m -3.4576416e-8,1049.3622 0,1.0625 c 0,1.0773 0.860223004576416,1.9375 1.937500034576416,1.9375 l 44.125,0 c 1.077277,0 1.9375,-0.8602 1.9375,-1.9375 l 0,-1.0625 c 0,1.0773 -0.860223,1.9375 -1.9375,1.9375 l -44.125,0 C 0.86022297,1051.2997 -3.4576416e-8,1050.4395 -3.4576416e-8,1049.3622 Z"/><path id="path7515" fill="#fff" fill-opacity=".537" stroke="none" d="m 2.53125,1005.0185 c -0.917088,0 -1.67114603,0.6395 -1.84375003,1.5 C 1.023112,1006.2386 1.462012,1006.081 1.9375,1006.081 l 44.125,0 c 0.475488,0 0.914388,0.1576 1.25,0.4375 -0.172603,-0.8605 -0.926662,-1.5 -1.84375,-1.5 L 2.53125,1005.0185 Z"/><path id="rect4280" fill="#000" fill-opacity=".392" stroke="none" d="m 1.9375,1004.3622 c -1.07727703,0 -1.937500034576416,0.8602 -1.937500034576416,1.9375 l 0,43.0625 c 0,0.7934 0.480024004576416,1.449 1.156250034576416,1.75 -0.30934103,-0.3333 -0.50000003,-0.7824 -0.50000003,-1.2812 l 0,-42.9375 c 0,-1.0482 0.82689903,-1.875 1.87500003,-1.875 l 42.9375,0 c 1.048101,0 1.875,0.8268 1.875,1.875 l 0,42.9375 c 0,0.4988 -0.190658,0.9479 -0.5,1.2812 0.676226,-0.301 1.15625,-0.9566 1.15625,-1.75 l 0,-43.0625 c 0,-1.0773 -0.860223,-1.9375 -1.9375,-1.9375 L 1.9375,1004.3622 Z"/><path id="path4068" fill="#feaf00" fill-opacity=".314" stroke="none" d="m 13.789062,1026.9048 -0.572265,0.8008 7.052734,0 0,-0.8008 L 13.789062,1026.9048 z m 13.419922,0 0.800782,0.8008 6.251953,0 -0.572266,-0.8008 L 27.208984,1026.9087 z m 7.173828,7.9746 -4.505859,4.5059 -2.667969,-2.668 0,0.8008 2.667969,2.6679 4.90625,-4.9062 L 34.382812,1034.8833 z m -14.113281,8.0781 0,0.8008 6.939453,0 0,-0.8008 L 20.269531,1042.9614 Z"/><path id="path4073" fill="#fff" fill-opacity=".235" stroke="none" d="m 23.738281,1012.9622 -10.521484,14.7441 0.285156,0 10.236328,-14.3437 10.238281,14.3476 0.285157,0 L 23.738281,1012.9622 z m 3.470703,15.1465 7.375,7.375 0.199219,-0.1992 -7.175781,-7.1758 L 27.208984,1028.1087 Z"/></g></svg>