<svg xmlns="http://www.w3.org/2000/svg" xmlns:svg="http://www.w3.org/2000/svg" xmlns:xlink="http://www.w3.org/1999/xlink" id="svg2" width="48" height="48" version="1.1" viewBox="0 0 13.547 13.547"><metadata id="metadata138"/><defs id="defs4"><linearGradient id="linearGradient1365" x1="274.547" x2="302.722" y1="698.575" y2="728.879" gradientTransform="translate(-264.57143,304.57268)" gradientUnits="userSpaceOnUse" xlink:href="#linearGradient1378"/><linearGradient id="linearGradient1378"><stop id="stop1380" offset="0" stop-color="#fff" stop-opacity=".266"/><stop id="stop1382" offset="1" stop-color="#fff" stop-opacity="0"/></linearGradient><linearGradient id="linearGradient1384" x1="310.041" x2="260.494" y1="733.651" y2="695.972" gradientTransform="matrix(1.0624126,0,0,1.0624126,-280.03228,261.30977)" gradientUnits="userSpaceOnUse" xlink:href="#linearGradient1378"/><linearGradient id="linearGradient1265" x1="7.366" x2="7.366" y1="45.054" y2="39.786" gradientTransform="translate(275.17805,699.79076)" gradientUnits="userSpaceOnUse" xlink:href="#linearGradient1271-4"/><linearGradient id="linearGradient1271-4"><stop id="stop1273-2" offset="0" stop-color="#8a0" stop-opacity="1"/><stop id="stop1275-7" offset="1" stop-color="#6f0" stop-opacity="1"/></linearGradient><linearGradient id="linearGradient1285" x1="7.366" x2="7.366" y1="45.054" y2="39.786" gradientTransform="translate(284.82091,699.79076)" gradientUnits="userSpaceOnUse" xlink:href="#linearGradient1293-8"/><linearGradient id="linearGradient1293-8"><stop id="stop1295-8" offset="0" stop-color="#08a" stop-opacity="1"/><stop id="stop1297-6" offset="1" stop-color="#0cf" stop-opacity="1"/></linearGradient><linearGradient id="linearGradient1291" x1="7.366" x2="7.366" y1="45.054" y2="39.786" gradientTransform="translate(296.7852,699.79076)" gradientUnits="userSpaceOnUse" xlink:href="#linearGradient1299-1"/><linearGradient id="linearGradient1299-1"><stop id="stop1301-1" offset="0" stop-color="#aa00d4" stop-opacity="1"/><stop id="stop1303-5" offset="1" stop-color="#bc5fd3" stop-opacity="1"/></linearGradient><linearGradient id="linearGradient1231" x1="7.366" x2="7.366" y1="45.054" y2="39.786" gradientUnits="userSpaceOnUse" xlink:href="#linearGradient1233-8"/><linearGradient id="linearGradient1233-8"><stop id="stop1235-6" offset="0" stop-color="#e38141" stop-opacity="1"/><stop id="stop1237-5" offset="1" stop-color="#ffcf00" stop-opacity="1"/></linearGradient><linearGradient id="linearGradient4959" x1="-13.025" x2="-13.025" y1="-1052.863" y2="-1004.769" gradientTransform="translate(47.545873,0.28711355)" gradientUnits="userSpaceOnUse" xlink:href="#linearGradient4100"/><linearGradient id="linearGradient4100"><stop id="stop4102" offset="0" stop-color="#eb641e" stop-opacity="1"/><stop id="stop4104" offset="1" stop-color="#f5a41d" stop-opacity="1"/></linearGradient></defs><g id="layer1" transform="matrix(0.28222223,0,0,0.28222223,-1.9999989e-8,-283.45334)"><rect id="rect2991-1-7" width="48" height="48" x="0" y="-1052.362" fill="url(#linearGradient4959)" fill-opacity="1" stroke="none" ry="1.945" transform="scale(1,-1)"/><path id="path4818" fill="#000" fill-opacity=".706" stroke="none" d="m 4.0000001,1048.3622 0,4 39.9999999,0 0,-4 -39.9999999,0 z"/><path id="path1357" fill="url(#linearGradient1365)" fill-opacity="1" stroke="none" d="m 1.071167e-7,1016.3947 0,23.5312 C 10.235217,1032.7157 24.386968,1027.7076 35.375,1024.5822 24.040743,1020.952 10.867954,1018.2501 1.071167e-7,1016.3947 Z" opacity=".5"/><path id="rect1340" fill="#fff" fill-opacity=".152" stroke="none" d="m 1.071167e-7,1004.3634 0,28.125 C 15.025834,1021.9035 38.513348,1016.0106 48,1013.9572 l 0,-9.5938 -47.9999998928833,0 z"/><path id="path1376" fill="url(#linearGradient1384)" fill-opacity="1" stroke="none" d="m 1.071167e-7,1004.3634 0,25.3438 C 18.843965,1031.1135 37.998652,1036.4199 48,1039.5509 l 0,-15.0312 -34.9375,-20.1563 -13.0624998928833,0 z"/><g id="g1313" transform="matrix(1.3999876,0,0,1.3999876,-386.49576,7.7142867)"><rect id="rect1255" width="5" height="5" x="279.999" y="739.755" fill="url(#linearGradient1265)" fill-opacity="1" stroke="none"/><circle id="path1279" cx="10.259" cy="42.728" r="1.547" fill="#fff" fill-opacity="1" stroke="none" d="m 11.806157,42.728268 a 1.5467961,1.5467961 0 0 1 -1.546796,1.546796 1.5467961,1.5467961 0 0 1 -1.5467958,-1.546796 1.5467961,1.5467961 0 0 1 1.5467958,-1.546796 1.5467961,1.5467961 0 0 1 1.546796,1.546796 z" transform="matrix(0.65306123,0,0,0.65306123,275.79948,714.35088)"/></g><g id="g1309" transform="matrix(1.3999876,0,0,1.3999876,-389.99564,7.7142867)"><rect id="rect1281" width="5" height="5" x="289.642" y="739.755" fill="url(#linearGradient1285)" fill-opacity="1" stroke="none"/><circle id="path1283" cx="10.259" cy="42.728" r="1.547" fill="#fff" fill-opacity="1" stroke="none" d="m 11.806157,42.728268 a 1.5467961,1.5467961 0 0 1 -1.546796,1.546796 1.5467961,1.5467961 0 0 1 -1.5467958,-1.546796 1.5467961,1.5467961 0 0 1 1.5467958,-1.546796 1.5467961,1.5467961 0 0 1 1.546796,1.546796 z" transform="matrix(0.65306123,0,0,0.65306123,285.44234,714.35088)"/></g><g id="g1305" transform="matrix(1.3999876,0,0,1.3999876,-396.7455,7.7142867)"><rect id="rect1287" width="5" height="5" x="301.607" y="739.755" fill="url(#linearGradient1291)" fill-opacity="1" stroke="none"/><circle id="path1289" cx="10.259" cy="42.728" r="1.547" fill="#fff" fill-opacity="1" stroke="none" d="m 11.806157,42.728268 a 1.5467961,1.5467961 0 0 1 -1.546796,1.546796 1.5467961,1.5467961 0 0 1 -1.5467958,-1.546796 1.5467961,1.5467961 0 0 1 1.5467958,-1.546796 1.5467961,1.5467961 0 0 1 1.546796,1.546796 z" transform="matrix(0.65306123,0,0,0.65306123,297.40663,714.35088)"/></g><g id="g1317" transform="matrix(1.3999877,0,0,1.3999877,-341.64666,7.7142167)"><rect id="rect1223" width="5" height="5" x="4.821" y="39.964" fill="url(#linearGradient1231)" fill-opacity="1" stroke="none" transform="translate(264.57144,699.79077)"/><circle id="path1277" cx="10.259" cy="42.728" r="1.547" fill="#fff" fill-opacity="1" stroke="none" d="m 11.806157,42.728268 a 1.5467961,1.5467961 0 0 1 -1.546796,1.546796 1.5467961,1.5467961 0 0 1 -1.5467958,-1.546796 1.5467961,1.5467961 0 0 1 1.5467958,-1.546796 1.5467961,1.5467961 0 0 1 1.546796,1.546796 z" transform="matrix(0.65306123,0,0,0.65306123,265.19288,714.35088)"/></g><path id="rect846-4" fill="#000" fill-opacity="1" stroke="none" d="m -4.8928833e-6,1049.3622 0,1.0625 c 0,1.0773 0.8602200028833,1.9375 1.9374999928833,1.9375 l 44.1249999,0 c 1.07728,0 1.9375,-0.8602 1.9375,-1.9375 l 0,-1.0625 c 0,1.0773 -0.86022,1.9375 -1.9375,1.9375 l -44.1249999,0 c -1.07727999,0 -1.9374999928833,-0.8602 -1.9374999928833,-1.9375 z"/><path id="path7515-8" fill="#fff" fill-opacity=".537" stroke="none" d="m 2.5312451,1005.0185 c -0.91709,0 -1.67114999,0.6395 -1.84374999,1.5 0.33560999,-0.2799 0.77450999,-0.4375 1.24999999,-0.4375 l 44.1249999,0 c 0.47549,0 0.91439,0.1576 1.25,0.4375 -0.1726,-0.8605 -0.92666,-1.5 -1.84375,-1.5 l -42.9374999,0 z"/><path id="rect4280-4" fill="#000" fill-opacity=".392" stroke="none" d="m 1.9374951,1004.3622 c -1.07727999,0 -1.9374999928833,0.8602 -1.9374999928833,1.9375 l 0,43.0625 c 0,0.7934 0.4800200028833,1.449 1.1562499928833,1.75 -0.30933999,-0.3333 -0.49999999,-0.7824 -0.49999999,-1.2812 l 0,-42.9375 c 0,-1.0482 0.82689999,-1.875 1.87499999,-1.875 l 42.9374999,0 c 1.0481,0 1.875,0.8268 1.875,1.875 l 0,42.9375 c 0,0.4988 -0.19066,0.9479 -0.5,1.2812 0.67623,-0.301 1.15625,-0.9566 1.15625,-1.75 l 0,-43.0625 c 0,-1.0773 -0.86022,-1.9375 -1.9375,-1.9375 l -44.1249999,0 z"/></g></svg>