<svg xmlns="http://www.w3.org/2000/svg" xmlns:svg="http://www.w3.org/2000/svg" xmlns:xlink="http://www.w3.org/1999/xlink" id="svg5453" width="48" height="48" version="1.1"><defs id="defs5455"><linearGradient id="linearGradient4708"><stop id="stop4710" offset="0" stop-color="#999" stop-opacity="1"/><stop id="stop4712" offset="1" stop-color="#ccc" stop-opacity="1"/></linearGradient><linearGradient id="linearGradient4423"><stop id="stop4425" offset="0" stop-color="#bddefb" stop-opacity="1"/><stop id="stop4427" offset="1" stop-color="#f6fafe" stop-opacity="1"/></linearGradient><linearGradient id="linearGradient843-4" x1="-35.844" x2="-35.844" y1="-1057.985" y2="-1009.976" gradientTransform="translate(441.45187,510.17933)" gradientUnits="userSpaceOnUse" xlink:href="#linearGradient872-0"/><linearGradient id="linearGradient872-0"><stop id="stop874-3" offset="0" stop-color="#06355f" stop-opacity="1"/><stop id="stop876-0" offset="1" stop-color="#084b86" stop-opacity="1"/></linearGradient><linearGradient id="linearGradient4706" x1="14.6" x2="14.6" y1="39.4" y2="17.4" gradientTransform="matrix(0.99997082,0,0,0.99997468,384.57174,499.799)" gradientUnits="userSpaceOnUse" xlink:href="#linearGradient4708"/><linearGradient id="linearGradient4715" x1="24.6" x2="24.6" y1="39.4" y2="8.6" gradientTransform="matrix(0.99997082,0,0,0.99997468,384.57174,499.799)" gradientUnits="userSpaceOnUse" xlink:href="#linearGradient4423"/></defs><metadata id="metadata5458"/><g id="layer1" transform="translate(-384.57143,-499.798)"><rect id="rect2991-1-6" width="48" height="48" x="384.571" y="-547.798" fill="url(#linearGradient843-4)" fill-opacity="1" stroke="none" ry="1.945" transform="scale(1,-1)"/><path id="path4726" fill="#000" fill-opacity=".059" stroke="none" d="m 408.57104,509.598 -13.4,8.20096 0,11.59932 0,2.99992 13.4,7.9998 13.4,-7.9998 0,-4.99987 -13.4,7.69902 -9.40012,-5.69907 0,-8.99977 9.40012,-5.70103 5.59944,3.3007 -8.99973,5.40025 4.80064,2.40033 11.99965,-7.4002 -13.4,-8.80056 z"/><path id="path4724" fill="#000" fill-opacity=".118" stroke="none" d="m 408.57104,509.198 -13.4,8.20096 0,11.59932 0,2.99992 13.4,7.9998 13.4,-7.9998 0,-4.99987 -13.4,7.69902 -9.40012,-5.69907 0,-8.99977 9.40012,-5.70103 5.59944,3.3007 -8.99973,5.40025 4.80064,2.40033 11.99965,-7.4002 -13.4,-8.80056 z"/><path id="path4717" fill="#000" fill-opacity=".235" stroke="none" d="m 408.57104,508.798 -13.4,8.20096 0,11.59932 0,2.99992 13.4,7.9998 13.4,-7.9998 0,-4.99987 -13.4,7.69902 -9.40012,-5.69907 0,-8.99977 9.40012,-5.70103 5.59944,3.3007 -8.99973,5.40025 4.80064,2.40033 11.99965,-7.4002 -13.4,-8.80056 z"/><path id="rect846" fill="#000" fill-opacity="1" stroke="none" d="m 384.57143,544.79799 0,1.0625 c 0,1.0773 0.86022,1.9375 1.9375,1.9375 l 44.125,0 c 1.07728,0 1.9375,-0.8602 1.9375,-1.9375 l 0,-1.0625 c 0,1.0773 -0.86022,1.9375 -1.9375,1.9375 l -44.125,0 C 385.43165,546.73549 384.57143,545.87529 384.57143,544.79799 Z"/><path id="path7515" fill="#fff" fill-opacity=".537" stroke="none" d="m 387.10268,500.45429 c -0.91709,0 -1.67115,0.6395 -1.84375,1.5 0.33561,-0.2799 0.77451,-0.4375 1.25,-0.4375 l 44.125,0 c 0.47549,0 0.91439,0.1576 1.25,0.4375 -0.1726,-0.8605 -0.92666,-1.5 -1.84375,-1.5 L 387.10268,500.45429 Z"/><path id="rect4280" fill="#000" fill-opacity=".392" stroke="none" d="m 386.50893,499.79799 c -1.07728,0 -1.9375,0.8602 -1.9375,1.9375 l 0,43.0625 c 0,0.7934 0.48002,1.449 1.15625,1.75 -0.30934,-0.3333 -0.5,-0.7824 -0.5,-1.2812 l 0,-42.9375 c 0,-1.0482 0.8269,-1.875 1.875,-1.875 l 42.9375,0 c 1.0481,0 1.875,0.8268 1.875,1.875 l 0,42.9375 c 0,0.4988 -0.19066,0.9479 -0.5,1.2812 0.67623,-0.301 1.15625,-0.9566 1.15625,-1.75 l 0,-43.0625 c 0,-1.0773 -0.86022,-1.9375 -1.9375,-1.9375 L 386.50893,499.79799 Z"/><path id="path4675" fill="url(#linearGradient4715)" fill-opacity="1" stroke="none" d="m 408.57104,508.39839 -13.4,8.20096 3.99988,2.59955 9.40012,-5.70103 5.59944,3.3007 -8.99973,5.40025 4.80064,2.40033 11.99965,-7.4002 -13.4,-8.80056 z m 13.4,17.80033 -13.4,7.69902 0,5.30065 13.4,-7.9998 0,-4.99987 z"/><path id="path4677" fill="url(#linearGradient4706)" fill-opacity="1" stroke="none" d="m 395.17104,516.59935 0,11.59932 0,2.99992 13.4,7.9998 0,-5.30065 -9.40012,-5.69907 0,-8.99977 -3.99988,-2.59955 z"/><path id="path4728" fill="#063661" fill-opacity=".314" stroke="none" d="M 24 12.898438 L 14.599609 18.599609 L 14.599609 19.400391 L 24 13.699219 L 28.925781 16.603516 L 29.599609 16.199219 L 24 12.898438 z M 36.771484 16.988281 L 25.400391 24 L 21.328125 21.962891 L 20.599609 22.400391 L 25.400391 24.800781 L 37.400391 17.400391 L 36.771484 16.988281 z M 10.599609 30.599609 L 10.599609 31.400391 L 24 39.400391 L 37.400391 31.400391 L 37.400391 30.599609 L 24 38.599609 L 10.599609 30.599609 z" transform="translate(384.57143,499.798)"/><path id="path4738" fill="#fff" fill-opacity=".235" stroke="none" d="M 24 8.5996094 L 10.599609 16.800781 L 10.599609 17.201172 L 24 9 L 37.085938 17.59375 L 37.400391 17.400391 L 24 8.5996094 z M 29.263672 17.201172 L 20.599609 22.400391 L 20.962891 22.582031 L 29.599609 17.400391 L 29.263672 17.201172 z M 37.400391 26.400391 L 24 34.099609 L 14.599609 28.400391 L 14.599609 28.800781 L 24 34.5 L 37.400391 26.800781 L 37.400391 26.400391 z" transform="translate(384.57143,499.798)"/></g></svg>