<svg xmlns="http://www.w3.org/2000/svg" xmlns:svg="http://www.w3.org/2000/svg" xmlns:xlink="http://www.w3.org/1999/xlink" id="svg2" width="48" height="48" version="1.1" viewBox="0 0 13.547 13.547"><metadata id="metadata22"/><defs id="defs4"><linearGradient id="linearGradient1698" x1="22.081" x2="22.081" y1="-1052.841" y2="-1004.767" gradientTransform="matrix(0.28222223,0,0,0.28222223,-3.056488e-7,283.45334)" gradientUnits="userSpaceOnUse" xlink:href="#linearGradient1462"/><linearGradient id="linearGradient1462"><stop id="stop1464" offset="0" stop-color="#000" stop-opacity="1"/><stop id="stop1466" offset="1" stop-color="#666" stop-opacity="1"/></linearGradient><linearGradient id="linearGradient1497" x1="24.969" x2="24.969" y1="23.906" y2="45.594" gradientTransform="matrix(0.25656567,0,0,0.25656567,0.61575719,0.57565086)" gradientUnits="userSpaceOnUse" xlink:href="#linearGradient1499"/><linearGradient id="linearGradient1499"><stop id="stop1501" offset="0" stop-color="#0a2956" stop-opacity="1"/><stop id="stop1503" offset="1" stop-color="#084ba0" stop-opacity="1"/></linearGradient><linearGradient id="linearGradient1489" x1="25.191" x2="25.191" y1="24.224" y2="1.861" gradientTransform="matrix(0.25656567,0,0,0.25288994,0.61575719,0.6644662)" gradientUnits="userSpaceOnUse" xlink:href="#linearGradient1483"/><linearGradient id="linearGradient1483"><stop id="stop1485" offset="0" stop-color="#267aff" stop-opacity="1"/><stop id="stop1487" offset="1" stop-color="#6992d3" stop-opacity="1"/></linearGradient><linearGradient id="linearGradient1545" x1="24.406" x2="24.406" y1="1027.273" y2="1027.844" gradientTransform="matrix(0.25656567,0,0,0.43634777,0.61575709,-441.77318)" gradientUnits="userSpaceOnUse" xlink:href="#linearGradient1539"/><linearGradient id="linearGradient1539"><stop id="stop1541" offset="0" stop-color="#000" stop-opacity="1"/><stop id="stop1543" offset="1" stop-color="#000" stop-opacity="0"/></linearGradient><linearGradient id="linearGradient1583" x1="19.55" x2="25.4" y1="20.563" y2="20.563" gradientUnits="userSpaceOnUse" xlink:href="#linearGradient1577"/><linearGradient id="linearGradient1577"><stop id="stop1579" offset="0" stop-color="#b6e500" stop-opacity="1"/><stop id="stop1581" offset="1" stop-color="#cf0" stop-opacity="1"/></linearGradient></defs><rect id="rect2991-1" width="13.547" height="13.547" x="0" y="-13.547" fill="url(#linearGradient1698)" fill-opacity="1" stroke="none" ry=".549" transform="scale(1,-1)"/><rect id="rect4065" width="11.853" height="11.853" x=".847" y="-12.7" fill="#000" fill-opacity=".235" stroke="none" ry=".48" transform="scale(1,-1)"/><path id="rect846" fill="#000" fill-opacity="1" stroke="none" d="m -3.056488e-7,12.700002 0,0.299861 c 0,0.304038 0.2427740956488,0.546806 0.5468055956488,0.546806 l 12.45305571,0 c 0.304032,0 0.546806,-0.242768 0.546806,-0.546806 l 0,-0.299861 c 0,0.304038 -0.242774,0.546806 -0.546806,0.546806 l -12.45305571,0 C 0.24277379,13.246808 -3.056488e-7,13.00404 -3.056488e-7,12.700002 Z"/><path id="path7515" fill="#fff" fill-opacity=".537" stroke="none" d="m 0.71437469,0.18522462 c -0.2588226,0 -0.4716348,0.18048113 -0.5203472,0.42333335 0.094717,-0.078994 0.2185845,-0.12347222 0.3527778,-0.12347222 l 12.45305571,0 c 0.134193,0 0.258061,0.0444782 0.352778,0.12347222 -0.04871,-0.24285222 -0.261525,-0.42333335 -0.520347,-0.42333335 l -12.11791731,0 z"/><path id="rect4280" fill="#000" fill-opacity=".392" stroke="none" d="M 0.54680529,2.1849451e-6 C 0.24277379,2.1849451e-6 -3.056488e-7,0.24276974 -3.056488e-7,0.54680775 l 0,12.15319425 c 0,0.223915 0.1354734956488,0.40894 0.3263194956488,0.493889 -0.087303,-0.09407 -0.1411112,-0.220811 -0.1411112,-0.361583 l 0,-12.11791669 c 0,-0.29582534 0.2333693,-0.52916669 0.5291667,-0.52916669 l 12.11791731,0 c 0.295797,0 0.529166,0.23334135 0.529166,0.52916669 l 0,12.11791669 c 0,0.140772 -0.05381,0.267518 -0.141111,0.361583 0.190846,-0.08495 0.32632,-0.269974 0.32632,-0.493889 l 0,-12.15319425 C 13.546667,0.24276974 13.303893,2.1849451e-6 12.999861,2.1849451e-6 l -12.45305571,0 z"/><rect id="rect1472" width="11.289" height="11.289" x="1.129" y="-12.418" fill="#000" fill-opacity="1" stroke="none" ry=".457" transform="scale(1,-1)"/><path id="path1481" fill="url(#linearGradient1497)" fill-opacity="1" stroke="none" d="m 12.329583,6.7733356 -11.1125,0 0,5.0671874 c 0,0.249428 0.1995532,0.448959 0.4489899,0.448959 l 10.2145201,0 c 0.249437,0 0.44899,-0.199531 0.44899,-0.448959 l 0,-5.0671874 z"/><path id="path1567" fill="#000" fill-opacity=".735" fill-rule="nonzero" stroke="none" stroke-width=".2" d="m 1.1288884,6.5868996 0,0.4730609 11.2888886,0 0,-0.4730609 -11.2888886,0 z" color="#000" display="inline" enable-background="accumulate" overflow="visible" visibility="visible" style="marker:none"/><path id="rect1476" fill="url(#linearGradient1489)" fill-opacity="1" stroke="none" d="m 1.6660729,1.2571894 c -0.2494367,0 -0.4489899,0.1966524 -0.4489899,0.4425526 l 0,5.0735936 11.1125,0 0,-5.0735936 c 0,-0.2459002 -0.199553,-0.4425526 -0.44899,-0.4425526 l -10.2145201,0 z"/><path id="path1565" fill="#000" fill-opacity=".508" fill-rule="nonzero" stroke="none" stroke-width=".2" d="m 1.1288884,6.4867107 0,0.4730609 11.2888886,0 0,-0.4730609 -11.2888886,0 z" color="#000" display="inline" enable-background="accumulate" overflow="visible" visibility="visible" style="marker:none"/><path id="rect1505" fill="#cf0" fill-opacity="1" fill-rule="nonzero" stroke="none" stroke-width=".2" d="m 1.1288884,6.548094 0,0.4730609 11.2888886,0 0,-0.4730609 -11.2888886,0 z" color="#000" display="inline" enable-background="accumulate" overflow="visible" visibility="visible" style="marker:none"/><path id="path1516" fill="url(#linearGradient1545)" fill-opacity="1" fill-rule="nonzero" stroke="none" stroke-width=".2" d="m 1.1288884,6.548094 0,0.22606 11.2888886,0 0,-0.22606 -11.2888886,0 z" color="#000" display="inline" enable-background="accumulate" opacity=".571" overflow="visible" visibility="visible" style="marker:none"/><path id="path1512" fill="#000" fill-opacity=".195" fill-rule="nonzero" stroke="none" stroke-width=".2" d="m 25.399619,20.5625 -5.849429,3.377169 0,-6.754338 z" color="#000" display="inline" enable-background="accumulate" overflow="visible" transform="matrix(0,0.16735909,-0.28505464,0,12.634769,3.2762071)" visibility="visible" style="marker:none"/><path id="path1514" fill="url(#linearGradient1583)" fill-opacity="1" fill-rule="nonzero" stroke="none" stroke-width=".2" d="m 25.399619,20.5625 -5.849429,3.377169 0,-6.754338 z" color="#000" display="inline" enable-background="accumulate" overflow="visible" transform="matrix(0,0.15365232,-0.26170857,0,12.154715,3.5441771)" visibility="visible" style="marker:none"/><path id="path858" fill="#fff" fill-opacity="1" d="m 7.9418478,4.9737738 c 8.467e-4,-0.1783927 0.00141,-0.450596 0.00141,-0.6048587 l 0,-0.2805571 -0.00682,0 c -0.00375,0 -0.298816,-0.0031 -0.6557072,-0.00734 C 6.92384,4.077068 6.6188653,4.073678 6.6030095,4.073678 l -0.028827,0 0,0.4768991 c 0,0.262382 2.351e-4,0.4770403 5.926e-4,0.4770403 3.105e-4,0 0.3062063,0.060791 0.6798178,0.1350151 0.3736108,0.074224 0.6807883,0.1350716 0.6826151,0.1351562 0.00296,-1.129e-4 0.0034,-0.030311 0.00467,-0.3243298 z M 6.4573939,4.5386435 c 7.337e-4,-0.2562295 0.0011,-0.4659771 8.466e-4,-0.4662029 -4.515e-4,0 -0.8127974,-0.0096 -0.8385601,-0.00931 l -0.016245,0 0,0.3856849 0,0.3857696 0.00472,0.00282 c 0.00369,0.00282 0.8417371,0.1677247 0.8466757,0.1685431 7.056e-4,0 0.00183,-0.2106789 0.00254,-0.4668802 z m -0.4094636,-0.57404 c 0.1931476,-0.00282 0.3646218,-0.00395 0.3810539,-0.00423 l 0.029877,0 0,-0.4666827 0,-0.4667673 -0.00577,0.00282 c -0.00317,0 -0.195632,0.038664 -0.4276884,0.084638 l -0.421923,0.083566 -1.7e-5,0.3862776 -3.36e-5,0.3862494 0.046649,0 c 0.025677,0 0.2046989,-0.0031 0.3978473,-0.00536 z m 1.2368375,-0.013829 c 0.3614226,-0.00395 0.6574356,-0.0079 0.6578073,-0.00818 3.951e-4,0 3.951e-4,-0.2728807 1.6e-4,-0.6055642 L 7.9421424,2.7321956 7.3205054,2.8555548 C 6.9786047,2.9233728 6.671035,2.9843611 6.6370182,2.9910779 l -0.061849,0.012418 -5.927e-4,0.4773789 -5.927e-4,0.4773507 0.026735,0 c 0.014876,-5.64e-5 0.3226193,-0.00339 0.6840415,-0.00762 z"/><path id="path3511" fill="#fff" fill-opacity="1" fill-rule="evenodd" stroke="none" d="m 6.7733335,8.1194792 0,0 c -0.4313093,0 -0.8132891,0.1940278 -1.0715626,0.4971909 L 6.1719577,9.331031 c 0.00884,-0.026811 0.018692,-0.053199 0.030868,-0.07826 0.00691,-0.014111 0.014131,-0.028363 0.02205,-0.041882 0.023475,-0.04033 0.051202,-0.077385 0.082682,-0.1113649 6.774e-4,0 0.00152,-0.00339 0.0022,-0.00339 0.041848,-0.04476 0.090044,-0.082973 0.1433158,-0.1141024 0.00138,0 0.00246,-0.00282 0.00386,-0.00282 0.011424,-0.00649 0.023416,-0.013265 0.035278,-0.018909 0.0033,-0.00282 0.00659,-0.0031 0.00992,-0.00452 0.01222,-0.00564 0.024294,-0.011571 0.036932,-0.016651 0.00209,0 0.00452,-0.00282 0.00662,-0.00282 0.028061,-0.010725 0.056699,-0.019756 0.086541,-0.026529 0.021737,-0.0048 0.044165,-0.00903 0.066697,-0.011571 8.467e-4,-1.129e-4 0.00192,0 0.00277,0 l 5.644e-4,0 c 0.023427,-0.00282 0.046963,-0.00452 0.071107,-0.00452 l 1.2600782,0 C 7.8016776,8.4329716 7.3261388,8.1175883 6.7733555,8.1175883 Z M 5.6449957,8.686125 C 5.4684592,8.9217241 5.3622223,9.2133443 5.3622223,9.531691 c 0,0.752658 0.5840183,1.36223 1.3251214,1.406708 l 0.4266407,-0.874804 c -0.09873,0.06341 -0.2140534,0.103096 -0.3406509,0.103096 -0.052729,0 -0.1037621,-0.0068 -0.1526868,-0.01863 l -0.0011,0 c -0.2767082,-0.06861 -0.481211,-0.3172174 -0.481211,-0.6157239 0,-0.032202 0.00314,-0.063387 0.00772,-0.094262 l -0.5010548,-0.75184 z m 1.4133162,0.2811215 c 0.2070709,0.1043658 0.3500216,0.3164276 0.3500216,0.5649807 0,0.1281007 -0.037783,0.246634 -0.102526,0.3461738 l -0.532474,1.064937 c 0.7817555,0 1.4111111,-0.629356 1.4111111,-1.4111108 0,-0.2017324 -0.044858,-0.3918655 -0.120716,-0.5649807 l -1.0054167,0 z m -0.2849784,0.035278 c -0.2931584,0 -0.5291667,0.2359942 -0.5291667,0.5291667 0,0.2931442 0.2360083,0.5291658 0.5291667,0.5291658 0.2931583,0 0.5291666,-0.2360216 0.5291666,-0.5291658 0,-0.2931725 -0.2360083,-0.5291667 -0.5291666,-0.5291667 z"/></svg>