<svg xmlns="http://www.w3.org/2000/svg" xmlns:svg="http://www.w3.org/2000/svg" xmlns:xlink="http://www.w3.org/1999/xlink" id="svg2" width="48" height="48" version="1.1" viewBox="0 0 13.547 13.547"><metadata id="metadata104"/><defs id="defs4"><linearGradient id="linearGradient4150"><stop id="stop4152" offset="0" stop-color="#fff" stop-opacity="1"/><stop id="stop4154" offset="1" stop-color="#fff" stop-opacity="0"/></linearGradient><linearGradient id="linearGradient5555"><stop id="stop5557" offset="0" stop-color="#ff516a" stop-opacity="1"/><stop id="stop5559" offset="1" stop-color="#fe7144" stop-opacity="1"/></linearGradient><linearGradient id="linearGradient5561" x1="27.224" x2="27.224" y1="-1052.384" y2="-1004.332" gradientTransform="matrix(0.28222223,0,0,0.28222223,-4.9499509e-8,283.45334)" gradientUnits="userSpaceOnUse" xlink:href="#linearGradient5555"/><linearGradient id="linearGradient4156" x1="26.348" x2="26.348" y1="24.984" y2="44.972" gradientUnits="userSpaceOnUse" xlink:href="#linearGradient4150"/></defs><rect id="rect2991-1-7" width="13.547" height="13.547" x="0" y="-13.547" fill="url(#linearGradient5561)" fill-opacity="1" stroke="none" ry=".549" transform="scale(1,-1)"/><path id="rect846" fill="#000" fill-opacity="1" stroke="none" d="m -1.6753882e-6,12.700002 0,0.299861 c 0,0.304038 0.2427732053882,0.546806 0.5468055553882,0.546806 l 12.45305612,0 c 0.304032,0 0.546805,-0.242768 0.546805,-0.546806 l 0,-0.299861 c 0,0.304038 -0.242773,0.546806 -0.546805,0.546806 l -12.45305612,0 c -0.30403235,0 -0.5468055553882,-0.242768 -0.5468055553882,-0.546806 z"/><path id="path7515" fill="#fff" fill-opacity=".537" stroke="none" d="m 0.71437333,0.18522464 c -0.25882318,0 -0.47163567,0.18048112 -0.52034722,0.42333335 0.0947166,-0.078994 0.21858393,-0.12347223 0.35277777,-0.12347223 l 12.45305612,0 c 0.134194,0 0.258061,0.0444782 0.352778,0.12347223 C 13.303926,0.36570576 13.091113,0.18522464 12.83229,0.18522464 l -12.11791667,0 z"/><path id="rect4289" fill="url(#linearGradient4156)" fill-opacity="1" stroke="none" stroke-dasharray="none" stroke-miterlimit="4" stroke-opacity=".55" stroke-width="2.8" d="M 0 24.966797 L 0 28.966797 L 48 28.966797 L 48 24.966797 L 0 24.966797 z M 0 32.966797 L 0 36.966797 L 48 36.966797 L 48 32.966797 L 0 32.966797 z M 0 40.966797 L 0 44.966797 L 48 44.966797 L 48 40.966797 L 0 40.966797 z" opacity="1" transform="scale(0.28222223,0.28222223)"/><path id="rect4280" fill="#000" fill-opacity=".392" stroke="none" d="M 0.54680388,2.1958918e-6 C 0.24277153,2.1958918e-6 -1.6753882e-6,0.24276975 -1.6753882e-6,0.54680776 l 0,12.15319424 c 0,0.223915 0.1354723153882,0.40894 0.3263194453882,0.493889 -0.0873026,-0.09407 -0.14111111,-0.220811 -0.14111111,-0.361583 l 0,-12.11791668 c 0,-0.29582534 0.23336955,-0.52916668 0.52916667,-0.52916668 l 12.11791667,0 c 0.295797,0 0.529167,0.23334134 0.529167,0.52916668 l 0,12.11791668 c 0,0.140772 -0.05381,0.267518 -0.141111,0.361583 0.190847,-0.08495 0.326319,-0.269974 0.326319,-0.493889 l 0,-12.15319424 C 13.546665,0.24276975 13.303892,2.1958918e-6 12.99986,2.1958918e-6 l -12.45305612,0 z"/></svg>