<svg xmlns="http://www.w3.org/2000/svg" xmlns:svg="http://www.w3.org/2000/svg" xmlns:xlink="http://www.w3.org/1999/xlink" id="svg2408" width="48" height="48" version="1.0"><defs id="defs2410"><linearGradient id="ButtonShadow" x1="45.448" x2="45.448" y1="92.54" y2="7.017" gradientTransform="scale(1.0058652,0.994169)" gradientUnits="userSpaceOnUse"><stop id="stop3750" offset="0" stop-color="#000" stop-opacity="1"/><stop id="stop3752" offset="1" stop-color="#000" stop-opacity=".588"/></linearGradient><linearGradient id="linearGradient3737"><stop id="stop3739" offset="0" stop-color="#fff" stop-opacity="1"/><stop id="stop3741" offset="1" stop-color="#fff" stop-opacity="0"/></linearGradient><filter id="filter3174" color-interpolation-filters="sRGB"><feGaussianBlur id="feGaussianBlur3176" stdDeviation="1.71"/></filter><filter id="filter3794" width="1.384" height="1.384" x="-.192" y="-.192" color-interpolation-filters="sRGB"><feGaussianBlur id="feGaussianBlur3796" stdDeviation="5.28"/></filter><linearGradient id="linearGradient3613" x1="48" x2="48" y1="20.221" y2="138.661" gradientUnits="userSpaceOnUse" xlink:href="#linearGradient3737"/><clipPath id="clipPath3613"><rect id="rect3615" width="84" height="84" x="6" y="6" fill="#fff" fill-opacity="1" fill-rule="nonzero" stroke="none" rx="6" ry="6"/></clipPath><linearGradient id="linearGradient885" x1="27.107" x2="27.107" y1="1004.495" y2="1052.323" gradientTransform="translate(6.5393066e-7,-1052.3622)" gradientUnits="userSpaceOnUse" xlink:href="#linearGradient929"/><linearGradient id="linearGradient4125" x1="28.369" x2="28.369" y1="1043.511" y2="1013.554" gradientTransform="matrix(-1.0263947,0,0,1.0263947,48.633098,-1031.5095)" gradientUnits="userSpaceOnUse" xlink:href="#linearGradient4117"/><linearGradient id="linearGradient4117"><stop id="stop4119" offset="0" stop-color="#cc7c19" stop-opacity="1"/><stop id="stop4121" offset="1" stop-color="#f8bd03" stop-opacity="1"/></linearGradient><linearGradient id="linearGradient929"><stop id="stop931" offset="0" stop-color="#000" stop-opacity="1"/><stop id="stop933" offset="1" stop-color="#333" stop-opacity="1"/></linearGradient></defs><metadata id="metadata2413"/><g id="layer2" display="none" transform="translate(-69.966102,-41.898303)"><rect id="rect3745" width="86" height="85" x="5" y="7" fill="url(#ButtonShadow)" fill-opacity="1" fill-rule="nonzero" stroke="none" filter="url(#filter3174)" opacity=".9" rx="6" ry="6"/></g><g id="layer5" display="none" transform="translate(-69.966102,-41.898303)"><rect id="rect3171" width="66" height="66" x="15" y="15" fill="url(#linearGradient3613)" fill-opacity="1" fill-rule="nonzero" stroke="#fff" stroke-dasharray="none" stroke-dashoffset="0" stroke-linecap="round" stroke-linejoin="miter" stroke-miterlimit="4" stroke-opacity="1" stroke-width=".5" clip-path="url(#clipPath3613)" filter="url(#filter3794)" opacity=".1" rx="12" ry="12"/></g><rect id="rect2991" width="48" height="48" x="0" y="-48" fill="url(#linearGradient885)" fill-opacity="1" stroke="none" ry="1.945" transform="scale(1,-1)"/><path id="rect846" fill="#000" fill-opacity="1" stroke="none" d="m 0,45 0,1.0625 C 0,47.1398 0.860223,48 1.9375,48 l 44.125,0 C 47.139777,48 48,47.1398 48,46.0625 L 48,45 c 0,1.0773 -0.860223,1.9375 -1.9375,1.9375 l -44.125,0 C 0.860223,46.9375 0,46.0773 0,45 Z"/><path id="path7515" fill="#fff" fill-opacity=".537" stroke="none" d="m 2.53125,0.65630025 c -0.917089,0 -1.671147,0.63949995 -1.84375,1.49999995 0.335612,-0.2799 0.774512,-0.4375 1.25,-0.4375 l 44.125,0 c 0.475488,0 0.914388,0.1576 1.25,0.4375 -0.172603,-0.8605 -0.926662,-1.49999995 -1.84375,-1.49999995 L 2.53125,0.65630025 Z"/><path id="rect4280" fill="#000" fill-opacity=".392" stroke="none" d="M 1.9375,2.5e-7 C 0.860223,2.5e-7 0,0.86020025 0,1.9375002 L 0,45 c 0,0.7934 0.480023,1.449 1.15625,1.75 -0.309342,-0.3333 -0.5,-0.7824 -0.5,-1.2812 l 0,-42.9374997 c 0,-1.0482 0.826899,-1.87500005 1.875,-1.87500005 l 42.9375,0 c 1.048101,0 1.875,0.82680005 1.875,1.87500005 l 0,42.9374997 c 0,0.4988 -0.190658,0.9479 -0.5,1.2812 C 47.519976,46.449 48,45.7934 48,45 L 48,1.9375002 C 48,0.86020025 47.139777,2.5e-7 46.0625,2.5e-7 L 1.9375,2.5e-7 Z"/><path id="path4136" fill="#000" fill-opacity=".059" stroke="none" d="m 22.267585,9.7999972 c 0.236379,-2.053e-4 0.47016,0.015653 0.705647,0.032075 3.13966,0.2220088 6.102005,1.9443048 7.794185,4.8753798 2.707495,4.689289 1.129176,10.699959 -3.560307,13.407281 -4.68953,2.707732 -10.667711,1.09701 -13.375206,-3.592382 C 11.12439,19.832754 12.702708,13.8227 17.392211,11.11507 18.930985,10.226722 20.612838,9.8016394 22.267585,9.7999972 Z m -0.160374,2.5980668 c -1.163177,0.02976 -2.353504,0.339634 -3.432007,0.962245 -3.451224,1.992848 -4.622731,6.427694 -2.630136,9.879049 1.99255,3.451252 6.427801,4.622471 9.879049,2.630136 3.451224,-1.992745 4.622712,-6.395927 2.630136,-9.846974 -1.369885,-2.372614 -3.888132,-3.690967 -6.447042,-3.624456 z m 7.986634,17.705308 c 0.702956,0.04914 1.351695,0.431766 1.732041,1.090545 l 3.367858,5.83762 c 0.608554,1.054046 0.252176,2.374405 -0.801871,2.982959 l -0.449048,0.288674 c -1.054047,0.608554 -2.40648,0.252176 -3.015034,-0.801871 l -3.367858,-5.83762 c -0.608554,-1.054047 -0.252176,-2.374405 0.801871,-2.98296 l 0.481123,-0.288673 c 0.395267,-0.228208 0.829145,-0.318158 1.250918,-0.288674 z"/><path id="path4134" fill="#000" fill-opacity=".118" stroke="none" d="m 22.267585,9.3999988 c 0.236379,-2.053e-4 0.47016,0.015653 0.705647,0.032075 3.13966,0.2220092 6.102005,1.9443032 7.794185,4.8753782 2.707495,4.689289 1.129176,10.699959 -3.560307,13.407281 -4.68953,2.707732 -10.667711,1.09701 -13.375206,-3.592382 C 11.12439,19.432754 12.702708,13.4227 17.392211,10.71507 18.930985,9.8267224 20.612838,9.401641 22.267585,9.3999988 Z m -0.160374,2.5980652 c -1.163177,0.02976 -2.353504,0.339634 -3.432007,0.962245 -3.451224,1.992848 -4.622731,6.427694 -2.630136,9.879049 1.99255,3.451252 6.427801,4.622471 9.879049,2.630136 3.451224,-1.992745 4.622712,-6.395927 2.630136,-9.846974 -1.369885,-2.372614 -3.888132,-3.690967 -6.447042,-3.624456 z m 7.986634,17.705308 c 0.702956,0.04914 1.351695,0.431766 1.732041,1.090545 l 3.367858,5.83762 c 0.608554,1.054046 0.252176,2.374405 -0.801871,2.982959 l -0.449048,0.288674 c -1.054047,0.608554 -2.40648,0.252176 -3.015034,-0.801871 l -3.367858,-5.83762 c -0.608554,-1.054047 -0.252176,-2.374405 0.801871,-2.98296 l 0.481123,-0.288673 c 0.395267,-0.228208 0.829145,-0.318158 1.250918,-0.288674 z"/><path id="path4132" fill="#000" fill-opacity=".255" stroke="none" d="m 22.267585,9.0000004 c 0.236379,-2.053e-4 0.47016,0.015653 0.705647,0.032075 3.13966,0.2220092 6.102005,1.9443016 7.794185,4.8753766 2.707495,4.689289 1.129176,10.699959 -3.560307,13.407281 -4.68953,2.707732 -10.667711,1.09701 -13.375206,-3.592382 C 11.12439,19.032754 12.702708,13.0227 17.392211,10.31507 18.930985,9.426724 20.612838,9.0016426 22.267585,9.0000004 Z m -0.160374,2.5980636 c -1.163177,0.02976 -2.353504,0.339634 -3.432007,0.962245 -3.451224,1.992848 -4.622731,6.427694 -2.630136,9.879049 1.99255,3.451252 6.427801,4.622471 9.879049,2.630136 3.451224,-1.992745 4.622712,-6.395927 2.630136,-9.846974 -1.369885,-2.372614 -3.888132,-3.690967 -6.447042,-3.624456 z m 7.986634,17.705308 c 0.702956,0.04914 1.351695,0.431766 1.732041,1.090545 l 3.367858,5.83762 c 0.608554,1.054046 0.252176,2.374405 -0.801871,2.982959 l -0.449048,0.288674 c -1.054047,0.608554 -2.40648,0.252176 -3.015034,-0.801871 l -3.367858,-5.83762 c -0.608554,-1.054047 -0.252176,-2.374405 0.801871,-2.98296 l 0.481123,-0.288673 c 0.395267,-0.228208 0.829145,-0.318158 1.250918,-0.288674 z"/><path id="path2983" fill="url(#linearGradient4125)" fill-opacity="1" stroke="none" d="m 22.267585,8.600002 c 0.236379,-2.053e-4 0.47016,0.015653 0.705647,0.032075 3.13966,0.2220092 6.102005,1.9443 7.794185,4.875375 2.707495,4.689289 1.129176,10.699959 -3.560307,13.407281 -4.68953,2.707732 -10.667711,1.09701 -13.375206,-3.592382 C 11.12439,18.632754 12.702708,12.6227 17.392211,9.9150702 18.930985,9.0267256 20.612838,8.6016442 22.267585,8.600002 Z m -0.160374,2.598062 c -1.163177,0.02976 -2.353504,0.339634 -3.432007,0.962245 -3.451224,1.992848 -4.622731,6.427694 -2.630136,9.879049 1.99255,3.451252 6.427801,4.622471 9.879049,2.630136 3.451224,-1.992745 4.622712,-6.395927 2.630136,-9.846974 -1.369885,-2.372614 -3.888132,-3.690967 -6.447042,-3.624456 z m 7.986634,17.705308 c 0.702956,0.04914 1.351695,0.431766 1.732041,1.090545 l 3.367858,5.83762 c 0.608554,1.054046 0.252176,2.374405 -0.801871,2.982959 l -0.449048,0.288674 c -1.054047,0.608554 -2.40648,0.252176 -3.015034,-0.801871 l -3.367858,-5.83762 c -0.608554,-1.054047 -0.252176,-2.374405 0.801871,-2.98296 l 0.481123,-0.288673 c 0.395267,-0.228208 0.829145,-0.318158 1.250918,-0.288674 z"/><path id="path4138" fill="#bb8d00" fill-opacity=".314" stroke="none" d="m 22.093749,10.410331 c 2.55891,-0.06651 5.098865,1.252386 6.46875,3.625 0.718971,1.245223 1.000873,2.602316 0.9375,3.9375 -0.06765,-1.077841 -0.360245,-2.156472 -0.9375,-3.15625 -1.369885,-2.372614 -3.90984,-3.691511 -6.46875,-3.625 -1.163177,0.02976 -2.327747,0.346139 -3.40625,0.96875 -2.205937,1.273779 -3.481488,3.562893 -3.59375,5.9375 -0.173353,-2.658438 1.136453,-5.299827 3.59375,-6.71875 1.078503,-0.622611 2.243073,-0.93899 3.40625,-0.96875 z m 9.96875,7.53125 c 0.178862,3.554757 -1.553256,7.069089 -4.84375,8.96875 -4.68953,2.707732 -10.667505,1.095642 -13.375,-3.59375 -0.955334,-1.654704 -1.372737,-3.469582 -1.3125,-5.25 0.07184,1.521363 0.499374,3.06036 1.3125,4.46875 2.707495,4.689392 8.68547,6.301482 13.375,3.59375 3.038275,-1.75405 4.736837,-4.917948 4.84375,-8.1875 z m -4.75,13.0625 c 0.04635,0.226873 0.126922,0.443072 0.25,0.65625 l 3.375,5.84375 c 0.608554,1.054047 1.945953,1.421054 3,0.8125 l 0.46875,-0.3125 c 0.577357,-0.333337 0.916464,-0.86903 1.03125,-1.46875 0.167636,0.885568 -0.200004,1.80133 -1.03125,2.28125 l -0.46875,0.28125 c -1.054047,0.608554 -2.391446,0.272797 -3,-0.78125 l -3.375,-5.84375 c -0.2691,-0.466096 -0.335152,-0.98308 -0.25,-1.46875 z"/><path id="path4143" fill="#fff" fill-opacity=".235" stroke="none" d="m 22.281249,8.6000021 c 0.236379,-2.053e-4 0.452013,0.014828 0.6875,0.03125 3.13966,0.2220092 6.12032,1.9439249 7.8125,4.8749999 0.902436,1.562988 1.318839,3.283413 1.3125,4.96875 -0.05841,-1.552412 -0.482632,-3.125197 -1.3125,-4.5625 -1.69218,-2.931075 -4.67284,-4.6529907 -7.8125,-4.8749999 -0.235487,-0.016422 -0.451121,-0.031455 -0.6875,-0.03125 -1.654747,0.00164 -3.336226,0.424154 -4.875,1.3124999 -2.930939,1.692269 -4.661453,4.668846 -4.875,7.8125 0.09085,-3.287372 1.821278,-6.455589 4.875,-8.2187499 1.538774,-0.8883446 3.220253,-1.3108578 4.875,-1.3125 z m 7.25,9.9062499 c 0.116415,2.599113 -1.182137,5.170029 -3.59375,6.5625 -3.451248,1.992335 -7.9137,0.826252 -9.90625,-2.625 -0.671326,-1.162797 -0.981909,-2.432432 -0.96875,-3.6875 0.05018,1.124502 0.368522,2.2416 0.96875,3.28125 1.99255,3.451252 6.455002,4.617335 9.90625,2.625 2.288471,-1.321369 3.567852,-3.695568 3.59375,-6.15625 z m 0.5625,10.40625 c 0.702956,0.04914 1.338404,0.434971 1.71875,1.09375 l 3.375,5.84375 c 0.244906,0.424189 0.33148,0.8658 0.28125,1.3125 -0.0255,-0.313933 -0.11166,-0.643762 -0.28125,-0.9375 l -3.375,-5.8125 c -0.380346,-0.658779 -1.015794,-1.04461 -1.71875,-1.09375 -0.421773,-0.02948 -0.854733,0.05304 -1.25,0.28125 l -0.46875,0.28125 c -0.658779,0.380347 -1.045274,1.052354 -1.09375,1.75 -0.107094,-0.844553 0.303215,-1.699834 1.09375,-2.15625 l 0.46875,-0.28125 c 0.395267,-0.228208 0.828227,-0.310734 1.25,-0.28125 z"/></svg>