<svg xmlns="http://www.w3.org/2000/svg" xmlns:svg="http://www.w3.org/2000/svg" xmlns:xlink="http://www.w3.org/1999/xlink" id="svg2" width="48" height="48" version="1.1" viewBox="0 0 13.547 13.547"><metadata id="metadata20"/><defs id="defs4"><linearGradient id="linearGradient6033"><stop id="stop6035" offset="0" stop-color="#89aabd" stop-opacity="1"/><stop id="stop6037" offset="1" stop-color="#b9def3" stop-opacity="1"/></linearGradient><linearGradient id="linearGradient4194"><stop id="stop4196" offset="0" stop-color="#bae0fe" stop-opacity="1"/><stop id="stop4198" offset="1" stop-color="#f5fdff" stop-opacity="1"/></linearGradient><linearGradient id="linearGradient4687" x1="428.671" x2="428.671" y1="-547.803" y2="-499.797" gradientTransform="matrix(0.28222223,0,0,0.28222223,-108.53461,141.0541)" gradientUnits="userSpaceOnUse" xlink:href="#linearGradient4557"/><linearGradient id="linearGradient5420" x1="4.233" x2="4.233" y1="10.16" y2="7.62" gradientTransform="matrix(1.1846154,0,0,1.1846154,-1.0833021,-1.0833006)" gradientUnits="userSpaceOnUse" xlink:href="#linearGradient4194"/><linearGradient id="linearGradient5436" x1="6.491" x2="6.491" y1="7.902" y2="5.362" gradientTransform="matrix(1.1846154,0,0,1.1846154,-1.0833021,-1.0833006)" gradientUnits="userSpaceOnUse" xlink:href="#linearGradient4194"/><linearGradient id="linearGradient5438" x1="3.951" x2="3.951" y1="5.644" y2="3.104" gradientTransform="matrix(1.1846154,0,0,1.1846154,-1.0833021,-1.0833006)" gradientUnits="userSpaceOnUse" xlink:href="#linearGradient4194"/><linearGradient id="linearGradient5573" x1="6.773" x2="6.773" y1="9.596" y2="8.184" gradientTransform="matrix(1.1846154,0,0,1.1846154,-1.0833021,-1.0833006)" gradientUnits="userSpaceOnUse" xlink:href="#linearGradient6033"/><linearGradient id="linearGradient5581" x1="8.467" x2="8.467" y1="7.338" y2="5.927" gradientTransform="matrix(1.1846154,0,0,1.1846154,-1.0833021,-1.0833006)" gradientUnits="userSpaceOnUse" xlink:href="#linearGradient6033"/><linearGradient id="linearGradient5589" x1="8.467" x2="8.467" y1="5.08" y2="3.669" gradientTransform="matrix(1.1846154,0,0,1.1846154,-1.0833021,-1.0833006)" gradientUnits="userSpaceOnUse" xlink:href="#linearGradient6033"/><linearGradient id="linearGradient4557"><stop id="stop4559" offset="0" stop-color="#176393" stop-opacity="1"/><stop id="stop4561" offset="1" stop-color="#a6d4ee" stop-opacity="1"/></linearGradient></defs><rect id="rect2991-1-7" width="13.547" height="13.547" x="0" y="-13.547" fill="url(#linearGradient4687)" fill-opacity="1" stroke="none" ry=".549" transform="scale(1,-1)"/><path id="path5645" fill="#000" fill-opacity=".059" stroke="none" d="M 3.7642492,3.1002982 A 1.3372991,1.3372991 0 0 0 2.4270009,4.4375466 1.3372991,1.3372991 0 0 0 3.7642492,5.7747948 1.3372991,1.3372991 0 0 0 4.92125,5.1061706 l 5.605859,0 c 0.328139,0 0.592557,-0.264418 0.592557,-0.5925564 l 0,-0.1526867 c 0,-0.3281384 -0.264418,-0.5920051 -0.592557,-0.5920051 l -5.6064102,0 A 1.3372991,1.3372991 0 0 0 3.7642492,3.1002982 Z M 6.4387456,5.7747948 A 1.3372991,1.3372991 0 0 0 5.1014974,7.112043 1.3372991,1.3372991 0 0 0 6.4387456,8.4492912 1.3372991,1.3372991 0 0 0 7.5957463,7.7806672 l 2.9313627,0 c 0.328139,0 0.592557,-0.2644179 0.592557,-0.5925566 l 0,-0.1521353 c 0,-0.3281386 -0.264418,-0.5925566 -0.592557,-0.5925566 l -2.9319139,0 A 1.3372991,1.3372991 0 0 0 6.4387456,5.7747948 Z M 3.7642492,8.4492912 A 1.3372991,1.3372991 0 0 0 2.4270009,9.7865393 1.3372991,1.3372991 0 0 0 3.7642492,11.123789 1.3372991,1.3372991 0 0 0 4.92125,10.455164 l 5.605859,0 c 0.328139,0 0.592557,-0.263867 0.592557,-0.5920056 l 0,-0.1526867 c 0,-0.3281384 -0.264418,-0.5925563 -0.592557,-0.5925563 l -5.6064102,0 A 1.3372991,1.3372991 0 0 0 3.7642492,8.4492912 Z"/><path id="path5643" fill="#000" fill-opacity=".118" stroke="none" d="M 3.7642492,2.9874097 A 1.3372991,1.3372991 0 0 0 2.4270009,4.3246581 1.3372991,1.3372991 0 0 0 3.7642492,5.6619063 1.3372991,1.3372991 0 0 0 4.92125,4.9932821 l 5.605859,0 c 0.328139,0 0.592557,-0.264418 0.592557,-0.5925564 l 0,-0.1526867 c 0,-0.3281384 -0.264418,-0.5920051 -0.592557,-0.5920051 l -5.6064102,0 A 1.3372991,1.3372991 0 0 0 3.7642492,2.9874097 Z M 6.4387456,5.6619063 A 1.3372991,1.3372991 0 0 0 5.1014974,6.9991545 1.3372991,1.3372991 0 0 0 6.4387456,8.3364027 1.3372991,1.3372991 0 0 0 7.5957463,7.6677787 l 2.9313627,0 c 0.328139,0 0.592557,-0.2644179 0.592557,-0.5925566 l 0,-0.1521353 c 0,-0.3281386 -0.264418,-0.5925566 -0.592557,-0.5925566 l -2.9319139,0 A 1.3372991,1.3372991 0 0 0 6.4387456,5.6619063 Z M 3.7642492,8.3364027 A 1.3372991,1.3372991 0 0 0 2.4270009,9.6736508 1.3372991,1.3372991 0 0 0 3.7642492,11.0109 1.3372991,1.3372991 0 0 0 4.92125,10.342275 l 5.605859,0 c 0.328139,0 0.592557,-0.263867 0.592557,-0.5920051 l 0,-0.1526867 c 0,-0.3281384 -0.264418,-0.5925563 -0.592557,-0.5925563 l -5.6064102,0 A 1.3372991,1.3372991 0 0 0 3.7642492,8.3364027 Z"/><path id="rect5620" fill="#000" fill-opacity=".235" stroke="none" d="M 3.7642492,2.8745208 A 1.3372991,1.3372991 0 0 0 2.4270009,4.2117692 1.3372991,1.3372991 0 0 0 3.7642492,5.5490174 1.3372991,1.3372991 0 0 0 4.92125,4.8803932 l 5.605859,0 c 0.328139,0 0.592557,-0.264418 0.592557,-0.5925564 l 0,-0.1526867 c 0,-0.3281384 -0.264418,-0.5920051 -0.592557,-0.5920051 l -5.6064102,0 A 1.3372991,1.3372991 0 0 0 3.7642492,2.8745208 Z M 6.4387456,5.5490174 A 1.3372991,1.3372991 0 0 0 5.1014974,6.8862656 1.3372991,1.3372991 0 0 0 6.4387456,8.2235138 1.3372991,1.3372991 0 0 0 7.5957463,7.5548898 l 2.9313627,0 c 0.328139,0 0.592557,-0.2644179 0.592557,-0.5925566 l 0,-0.1521353 c 0,-0.3281386 -0.264418,-0.5925566 -0.592557,-0.5925566 l -2.9319139,0 A 1.3372991,1.3372991 0 0 0 6.4387456,5.5490174 Z M 3.7642492,8.2235138 A 1.3372991,1.3372991 0 0 0 2.4270009,9.5607619 1.3372991,1.3372991 0 0 0 3.7642492,10.898011 1.3372991,1.3372991 0 0 0 4.92125,10.229386 l 5.605859,0 c 0.328139,0 0.592557,-0.2638666 0.592557,-0.592005 l 0,-0.1526867 c 0,-0.3281384 -0.264418,-0.5925563 -0.592557,-0.5925563 l -5.6064102,0 A 1.3372991,1.3372991 0 0 0 3.7642492,8.2235138 Z"/><path id="rect846" fill="#000" fill-opacity="1" stroke="none" d="m 1.9940186e-7,12.700003 0,0.299861 c 0,0.304038 0.24277300059814,0.546805 0.54680500059814,0.546805 l 12.4530558,0 c 0.304033,0 0.546806,-0.242767 0.546806,-0.546805 l 0,-0.299861 c 0,0.304038 -0.242773,0.546805 -0.546806,0.546805 l -12.4530558,0 C 0.2427732,13.246808 1.9940186e-7,13.004041 1.9940186e-7,12.700003 Z"/><path id="path7515" fill="#fff" fill-opacity=".537" stroke="none" d="m 0.7143762,0.18522441 c -0.258824,0 -0.471636,0.18048111 -0.520348,0.42333334 0.09472,-0.078994 0.218584,-0.1234722 0.352778,-0.1234722 l 12.4530558,0 c 0.134193,0 0.258061,0.044478 0.352777,0.1234722 -0.04871,-0.24285223 -0.261524,-0.42333334 -0.520347,-0.42333334 l -12.1179158,0 z"/><path id="rect4280" fill="#000" fill-opacity=".392" stroke="none" d="M 0.5468052,1.9645532e-6 C 0.2427732,1.9645532e-6 1.9940186e-7,0.24276952 1.9940186e-7,0.54680755 l 0,12.15319545 c 0,0.223915 0.13547200059814,0.40894 0.32631900059814,0.493889 -0.0873,-0.09407 -0.141111,-0.220811 -0.141111,-0.361584 l 0,-12.11791695 c 0,-0.2958253 0.233369,-0.52916664 0.529167,-0.52916664 l 12.1179168,0 c 0.295797,0 0.529166,0.23334134 0.529166,0.52916664 l 0,12.11791695 c 0,0.140773 -0.05381,0.267519 -0.141111,0.361584 0.190847,-0.08495 0.32632,-0.269974 0.32632,-0.493889 l 0,-12.15319545 C 13.546667,0.24276952 13.303894,1.9645532e-6 12.999861,1.9645532e-6 l -12.4530558,0 z"/><g id="g5635"><rect id="rect3659" width="7.355" height="1.337" x="3.764" y="3.43" fill="url(#linearGradient5589)" fill-opacity="1" stroke="none" rx=".592" ry=".592"/><circle id="path4429" cx="3.764" cy="4.099" r="1.337" fill="url(#linearGradient5438)" fill-opacity="1" stroke="none"/><rect id="rect4431" width="7.355" height="1.337" x="3.764" y="8.779" fill="url(#linearGradient5573)" fill-opacity="1" stroke="none" rx=".592" ry=".592"/><circle id="path4433" cx="3.764" cy="9.448" r="1.337" fill="url(#linearGradient5420)" fill-opacity="1" stroke="none"/><rect id="rect4435" width="4.681" height="1.337" x="6.439" y="6.105" fill="url(#linearGradient5581)" fill-opacity="1" stroke="none" rx=".592" ry=".592"/><circle id="path4437" cx="6.439" cy="6.773" r="1.337" fill="url(#linearGradient5436)" fill-opacity="1" stroke="none"/></g><path id="path5653" fill="#26709e" fill-opacity=".314" stroke="none" d="M 8.6152344 14.152344 A 4.7384614 4.7384614 0 0 0 8.5996094 14.523438 A 4.7384614 4.7384614 0 0 0 13.337891 19.261719 A 4.7384614 4.7384614 0 0 0 17.4375 16.892578 L 37.300781 16.892578 C 38.463478 16.892578 39.400391 15.955664 39.400391 14.792969 L 39.400391 14.251953 C 39.400391 14.224504 39.393613 14.199061 39.392578 14.171875 C 39.350772 15.297251 38.436692 16.193359 37.300781 16.193359 L 17.4375 16.193359 A 4.7384614 4.7384614 0 0 1 13.337891 18.5625 A 4.7384614 4.7384614 0 0 1 8.6152344 14.152344 z M 18.091797 23.628906 A 4.7384614 4.7384614 0 0 0 18.076172 24 A 4.7384614 4.7384614 0 0 0 22.814453 28.738281 A 4.7384614 4.7384614 0 0 0 26.914062 26.369141 L 37.300781 26.369141 C 38.463478 26.369141 39.400391 25.432227 39.400391 24.269531 L 39.400391 23.730469 C 39.400391 23.703019 39.393613 23.677579 39.392578 23.650391 C 39.349771 24.774841 38.436029 25.669922 37.300781 25.669922 L 26.914062 25.669922 A 4.7384614 4.7384614 0 0 1 22.814453 28.039062 A 4.7384614 4.7384614 0 0 1 18.091797 23.628906 z M 8.6152344 33.105469 A 4.7384614 4.7384614 0 0 0 8.5996094 33.476562 A 4.7384614 4.7384614 0 0 0 13.337891 38.214844 A 4.7384614 4.7384614 0 0 0 17.4375 35.845703 L 37.300781 35.845703 C 38.463478 35.845703 39.400391 34.910742 39.400391 33.748047 L 39.400391 33.207031 C 39.400391 33.180245 39.393564 33.155444 39.392578 33.128906 C 39.349771 34.253268 38.436029 35.146484 37.300781 35.146484 L 17.4375 35.146484 A 4.7384614 4.7384614 0 0 1 13.337891 37.515625 A 4.7384614 4.7384614 0 0 1 8.6152344 33.105469 z" transform="scale(0.28222222,0.28222222)"/><path id="path6039" fill="#fff" fill-opacity=".235" stroke="none" d="M 13.337891 9.7851562 A 4.7384614 4.7384614 0 0 0 8.5996094 14.523438 A 4.7384614 4.7384614 0 0 0 8.6074219 14.689453 A 4.7384614 4.7384614 0 0 1 13.337891 10.185547 A 4.7384614 4.7384614 0 0 1 17.435547 12.554688 L 37.300781 12.554688 C 38.463478 12.554688 39.400391 13.489649 39.400391 14.652344 L 39.400391 14.251953 C 39.400391 13.089258 38.463478 12.154297 37.300781 12.154297 L 17.435547 12.154297 A 4.7384614 4.7384614 0 0 0 13.337891 9.7851562 z M 22.814453 19.261719 A 4.7384614 4.7384614 0 0 0 18.076172 24 A 4.7384614 4.7384614 0 0 0 18.083984 24.166016 A 4.7384614 4.7384614 0 0 1 22.814453 19.662109 A 4.7384614 4.7384614 0 0 1 26.912109 22.03125 L 37.300781 22.03125 C 38.463478 22.03125 39.400391 22.968164 39.400391 24.130859 L 39.400391 23.730469 C 39.400391 22.567773 38.463478 21.630859 37.300781 21.630859 L 26.912109 21.630859 A 4.7384614 4.7384614 0 0 0 22.814453 19.261719 z M 13.337891 28.738281 A 4.7384614 4.7384614 0 0 0 8.5996094 33.476562 A 4.7384614 4.7384614 0 0 0 8.6074219 33.642578 A 4.7384614 4.7384614 0 0 1 13.337891 29.138672 A 4.7384614 4.7384614 0 0 1 17.435547 31.507812 L 37.300781 31.507812 C 38.463478 31.507812 39.400391 32.444727 39.400391 33.607422 L 39.400391 33.207031 C 39.400391 32.044336 38.463478 31.107422 37.300781 31.107422 L 17.435547 31.107422 A 4.7384614 4.7384614 0 0 0 13.337891 28.738281 z" transform="scale(0.28222222,0.28222222)"/></svg>