<svg xmlns="http://www.w3.org/2000/svg" xmlns:svg="http://www.w3.org/2000/svg" xmlns:xlink="http://www.w3.org/1999/xlink" id="svg2" width="48" height="48" version="1.1"><metadata id="metadata20"/><defs id="defs4"><linearGradient id="linearGradient4329"><stop id="stop4331" offset="0" stop-color="#c2d9f6" stop-opacity="1"/><stop id="stop4333" offset="1" stop-color="#f5fbff" stop-opacity="1"/></linearGradient><linearGradient id="linearGradient5277"><stop id="stop5279" offset="0" stop-color="#144786" stop-opacity="1"/><stop id="stop5281" offset="1" stop-color="#068edc" stop-opacity="1"/></linearGradient><linearGradient id="linearGradient4172" x1="419.086" x2="419.086" y1="-547.798" y2="-499.791" gradientTransform="translate(-384.57144,499.79798)" gradientUnits="userSpaceOnUse" xlink:href="#linearGradient5277"/><linearGradient id="linearGradient4327" x1="25.837" x2="25.837" y1="39.849" y2="8.246" gradientTransform="matrix(0.97592507,0,0,0.97592507,0.57779546,0.57779834)" gradientUnits="userSpaceOnUse" xlink:href="#linearGradient4329"/></defs><rect id="rect2991-1-7" width="48" height="48" x="0" y="-48" fill="url(#linearGradient4172)" fill-opacity="1" stroke="none" ry="1.945" transform="scale(1,-1)"/><path id="path4345" fill="#000" fill-opacity=".059" fill-rule="nonzero" stroke="none" d="m 23.999999,9.8 c -0.197168,0.512751 -0.419114,1.031846 -0.645789,1.527811 -0.01906,0.04294 -0.04869,0.07905 -0.06798,0.12199 -0.209128,0.452049 -0.416347,0.875795 -0.645787,1.314376 -0.0476,0.09076 -0.08758,0.184645 -0.135959,0.274626 -0.207289,0.387539 -0.425866,0.78396 -0.645788,1.161058 -0.07639,0.131066 -0.16024,0.267598 -0.237924,0.397396 -1.967091,3.221724 -4.552091,6.586811 -6.59386,9.411041 -1.617815,2.124882 -2.548153,4.418305 -2.821081,6.630728 0,5.494555 5.275111,9.960974 11.794171,9.960974 6.519058,0 11.794168,-4.466419 11.794168,-9.960974 0,-3.461899 -2.823642,-7.019146 -6.084027,-11.58062 C 28.678134,17.641558 27.682221,16.15132 26.787089,14.749892 26.301236,13.982522 25.826204,13.192316 25.359555,12.366781 25.213779,12.108648 25.06064,11.83617 24.917696,11.572378 24.608708,11.000778 24.292245,10.401072 23.999999,9.8 Z"/><path id="path4343" fill="#000" fill-opacity=".118" fill-rule="nonzero" stroke="none" d="m 23.999999,9.4 c -0.197168,0.512751 -0.419114,1.031846 -0.645789,1.527811 -0.01906,0.04294 -0.04869,0.07905 -0.06798,0.12199 -0.209128,0.452049 -0.416347,0.875795 -0.645787,1.314376 -0.0476,0.09076 -0.08758,0.184645 -0.135959,0.274626 -0.207289,0.387539 -0.425866,0.78396 -0.645788,1.161058 -0.07639,0.131066 -0.16024,0.267598 -0.237924,0.397396 -1.967091,3.221724 -4.552091,6.586811 -6.59386,9.411041 -1.617815,2.124882 -2.548153,4.418305 -2.821081,6.630728 0,5.494555 5.275111,9.960974 11.794171,9.960974 6.519058,0 11.794168,-4.466419 11.794168,-9.960974 0,-3.461899 -2.823642,-7.019146 -6.084027,-11.58062 C 28.678134,17.241558 27.682221,15.75132 26.787089,14.349892 26.301236,13.582522 25.826204,12.792316 25.359555,11.966781 25.213779,11.708648 25.06064,11.43617 24.917696,11.172378 24.608708,10.600778 24.292245,10.001072 23.999999,9.4 Z"/><path id="path4339" fill="#000" fill-opacity=".235" fill-rule="nonzero" stroke="none" d="m 23.999999,9 c -0.197168,0.512751 -0.419114,1.031846 -0.645789,1.527811 -0.01906,0.04294 -0.04869,0.07905 -0.06798,0.12199 -0.209128,0.452049 -0.416347,0.875795 -0.645787,1.314376 -0.0476,0.09076 -0.08758,0.184645 -0.135959,0.274626 -0.207289,0.387539 -0.425866,0.78396 -0.645788,1.161058 -0.07639,0.131066 -0.16024,0.267598 -0.237924,0.397396 -1.967091,3.221724 -4.552091,6.586811 -6.59386,9.411041 -1.617815,2.124882 -2.548153,4.418305 -2.821081,6.630728 0,5.494555 5.275111,9.960974 11.794171,9.960974 6.519058,0 11.794168,-4.466419 11.794168,-9.960974 0,-3.461899 -2.823642,-7.019146 -6.084027,-11.58062 C 28.678134,16.841558 27.682221,15.35132 26.787089,13.949892 26.301236,13.182522 25.826204,12.392316 25.359555,11.566781 25.213779,11.308648 25.06064,11.03617 24.917696,10.772378 24.608708,10.200778 24.292245,9.6010723 23.999999,9 Z"/><path id="rect846" fill="#000" fill-opacity="1" stroke="none" d="m -1e-5,45.00001 0,1.0625 c 0,1.0773 0.86022,1.9375 1.9375,1.9375 l 44.125,0 c 1.07728,0 1.9375,-0.8602 1.9375,-1.9375 l 0,-1.0625 c 0,1.0773 -0.86022,1.9375 -1.9375,1.9375 l -44.125,0 c -1.07728,0 -1.9375,-0.8602 -1.9375,-1.9375 z"/><path id="path7515" fill="#fff" fill-opacity=".537" stroke="none" d="m 2.53124,0.65631 c -0.91709,0 -1.67115,0.6395 -1.84375,1.5 0.33561,-0.2799 0.77451,-0.4375 1.25,-0.4375 l 44.125,0 c 0.47549,0 0.91439,0.1576 1.25,0.4375 -0.1726,-0.8605 -0.92666,-1.5 -1.84375,-1.5 l -42.9375,0 z"/><path id="rect4280" fill="#000" fill-opacity=".392" stroke="none" d="m 1.93749,1e-5 c -1.07728,0 -1.9375,0.8602 -1.9375,1.9375 l 0,43.0625 c 0,0.7934 0.48002,1.449 1.15625,1.75 -0.30934,-0.3333 -0.5,-0.7824 -0.5,-1.2812 l 0,-42.9375 c 0,-1.0482 0.8269,-1.875 1.875,-1.875 l 42.9375,0 c 1.0481,0 1.875,0.8268 1.875,1.875 l 0,42.9375 c 0,0.4988 -0.19066,0.9479 -0.5,1.2812 0.67623,-0.301 1.15625,-0.9566 1.15625,-1.75 l 0,-43.0625 c 0,-1.0773 -0.86022,-1.9375 -1.9375,-1.9375 l -44.125,0 z"/><path id="path895" fill="url(#linearGradient4327)" fill-opacity="1" fill-rule="nonzero" stroke="none" d="m 23.999999,8.6 c -0.197168,0.512751 -0.419114,1.031846 -0.645789,1.527811 -0.01906,0.04294 -0.04869,0.07905 -0.06798,0.12199 -0.209128,0.452049 -0.416347,0.875795 -0.645787,1.314376 -0.0476,0.09076 -0.08758,0.184645 -0.135959,0.274626 -0.207289,0.387539 -0.425866,0.78396 -0.645788,1.161058 -0.07639,0.131066 -0.16024,0.267598 -0.237924,0.397396 -1.967091,3.221724 -4.552091,6.586811 -6.59386,9.411041 -1.617815,2.124882 -2.548153,4.418305 -2.821081,6.630728 0,5.494555 5.275111,9.960974 11.794171,9.960974 6.519058,0 11.794168,-4.466419 11.794168,-9.960974 0,-3.461899 -2.823642,-7.019146 -6.084027,-11.58062 C 28.678134,16.441558 27.682221,14.95132 26.787089,13.549892 26.301236,12.782522 25.826204,11.992316 25.359555,11.166781 25.213779,10.908648 25.06064,10.63617 24.917696,10.372378 24.608708,9.800778 24.292245,9.2010723 23.999999,8.6 Z"/><path id="path4347" fill="#134d8e" fill-opacity=".314" fill-rule="nonzero" stroke="none" d="M 35.773438 29.001953 C 35.545278 34.327401 30.373619 38.599609 24 38.599609 C 17.713193 38.599609 12.59778 34.442694 12.240234 29.21875 C 12.22977 29.292078 12.214103 29.366294 12.205078 29.439453 C 12.205078 34.934008 17.48094 39.400391 24 39.400391 C 30.519058 39.400391 35.794922 34.934008 35.794922 29.439453 C 35.794922 29.293922 35.78324 29.147889 35.773438 29.001953 z"/><path id="path4352" fill="#fff" fill-opacity=".235" fill-rule="nonzero" stroke="none" d="M 24 8.5996094 C 23.802832 9.1123604 23.580191 9.6309881 23.353516 10.126953 C 23.334456 10.169893 23.306399 10.20706 23.287109 10.25 C 23.077981 10.702049 22.870065 11.125872 22.640625 11.564453 C 22.593025 11.655213 22.552285 11.74791 22.503906 11.837891 C 22.296617 12.22543 22.079297 12.622902 21.859375 13 C 21.782985 13.131066 21.698778 13.266686 21.621094 13.396484 C 19.654003 16.618208 17.069113 19.984364 15.027344 22.808594 C 13.409529 24.933476 12.478006 27.22703 12.205078 29.439453 C 12.205078 29.537658 12.219309 29.63294 12.222656 29.730469 C 12.512317 27.551764 13.436047 25.299037 15.027344 23.208984 C 17.069113 20.384754 19.654003 17.018599 21.621094 13.796875 C 21.698778 13.667077 21.782985 13.531457 21.859375 13.400391 C 22.079297 13.023293 22.296617 12.62582 22.503906 12.238281 C 22.552285 12.1483 22.593025 12.055604 22.640625 11.964844 C 22.870065 11.526263 23.077981 11.10244 23.287109 10.650391 C 23.306399 10.607451 23.334456 10.570284 23.353516 10.527344 C 23.580191 10.031379 23.802832 9.512751 24 9 C 24.292246 9.6010723 24.608981 10.199884 24.917969 10.771484 C 25.060913 11.035276 25.213599 11.308273 25.359375 11.566406 C 25.826024 12.391941 26.301256 13.181849 26.787109 13.949219 C 27.682241 15.350647 28.678928 16.840965 29.710938 18.257812 C 32.902777 22.723387 35.668005 26.227659 35.783203 29.621094 C 35.784511 29.560043 35.794922 29.500764 35.794922 29.439453 C 35.794922 25.977554 32.971322 22.420849 29.710938 17.859375 C 28.678928 16.442527 27.682241 14.952209 26.787109 13.550781 C 26.301256 12.783411 25.826024 11.991551 25.359375 11.166016 C 25.213599 10.907883 25.060913 10.636839 24.917969 10.373047 C 24.608981 9.8014469 24.292246 9.2006817 24 8.5996094 z"/></svg>