<svg xmlns="http://www.w3.org/2000/svg" xmlns:svg="http://www.w3.org/2000/svg" xmlns:xlink="http://www.w3.org/1999/xlink" id="svg2" width="48" height="48" version="1.1" viewBox="0 0 13.547 13.547"><metadata id="metadata24"/><defs id="defs4"><linearGradient id="linearGradient1010"><stop id="stop1012" offset="0" stop-color="#1a1a1a" stop-opacity="1"/><stop id="stop1016" offset=".874" stop-color="#868686" stop-opacity="1"/><stop id="stop1018" offset=".887" stop-color="#fff" stop-opacity="1"/><stop id="stop1020" offset=".99" stop-color="#b0b0b0" stop-opacity="1"/><stop id="stop1014" offset="1" stop-color="#6a6a6a" stop-opacity="1"/></linearGradient><linearGradient id="linearGradient3698-2"><stop id="stop3700-0" offset="0" stop-color="#b3b3b3" stop-opacity="1"/><stop id="stop3702-6" offset="1" stop-color="#e6e6e6" stop-opacity="1"/></linearGradient><linearGradient id="linearGradient895" x1="27.75" x2="27.75" y1="-1052.362" y2="-1004.737" gradientTransform="matrix(0.28222223,0,0,0.28222223,-1.9999999e-8,283.45334)" gradientUnits="userSpaceOnUse" xlink:href="#linearGradient1359"/><radialGradient id="radialGradient923" cx="24" cy="24" r="16" fx="24" fy="24" gradientTransform="matrix(0.27163829,0,0,0.27163829,0.25401454,0.25399982)" gradientUnits="userSpaceOnUse" xlink:href="#linearGradient1010"/><linearGradient id="linearGradient933" x1="15.455" x2="15.455" y1="24.457" y2="20.531" gradientTransform="matrix(0.04866318,0,0,0.04866318,6.0227646,5.672582)" gradientUnits="userSpaceOnUse" xlink:href="#linearGradient3698-2"/><linearGradient id="linearGradient1001" x1="25.438" x2="25.438" y1="34.531" y2="10.906" gradientTransform="matrix(0.31726782,0,0,0.31726782,-1.2475936,-0.45443442)" gradientUnits="userSpaceOnUse" xlink:href="#linearGradient1359"/><linearGradient id="linearGradient4166" x1="31.497" x2="31.497" y1="1012.648" y2="1043.538" gradientTransform="matrix(0.28222223,0,0,0.28222223,-1.9999999e-8,-283.45334)" gradientUnits="userSpaceOnUse" xlink:href="#linearGradient26-7"/><linearGradient id="linearGradient4307" x1="15.455" x2="15.455" y1="24.457" y2="20.531" gradientTransform="matrix(0.28310065,0,0,0.28310065,-0.30952801,0.42488538)" gradientUnits="userSpaceOnUse" xlink:href="#linearGradient3698-2"/><linearGradient id="linearGradient4309" x1="15.455" x2="15.455" y1="24.457" y2="20.531" gradientTransform="matrix(0.28310065,0,0,0.28310065,5.123238,0.42488538)" gradientUnits="userSpaceOnUse" xlink:href="#linearGradient3698-2"/><linearGradient id="linearGradient4311" x1="15.455" x2="15.455" y1="24.457" y2="20.531" gradientTransform="matrix(0.28310065,0,0,0.28310065,2.4068549,-2.2914895)" gradientUnits="userSpaceOnUse" xlink:href="#linearGradient3698-2"/><linearGradient id="linearGradient1359"><stop id="stop1361" offset="0" stop-color="#1c3145" stop-opacity="1"/><stop id="stop1363" offset="1" stop-color="#364552" stop-opacity="1"/></linearGradient><linearGradient id="linearGradient26-7" x1="0" x2="1" y1="0" y2="0" gradientTransform="matrix(-1.3107266e-6,29.876887,-29.876887,-1.3107266e-6,399.54619,508.86648)" gradientUnits="userSpaceOnUse" spreadMethod="pad"><stop id="stop28-0" offset="0" stop-color="#47c4ed" stop-opacity="1"/><stop id="stop30-2" offset=".09" stop-color="#47c4ed" stop-opacity="1"/><stop id="stop32-6" offset="1" stop-color="#498bc9" stop-opacity="1"/></linearGradient></defs><rect id="rect2991-1" width="13.547" height="13.547" x="0" y="-13.547" fill="url(#linearGradient895)" fill-opacity="1" stroke="none" ry=".549" transform="scale(1,-1)"/><path id="path4180" fill="#000" fill-opacity=".059" stroke="none" d="m 6.7733338,2.7657777 c -2.4003472,0 -4.3462129,1.945894 -4.3462129,4.3462223 0,2.4003283 1.9458657,4.346222 4.3462129,4.346222 2.4003469,0 4.3462122,-1.9458937 4.3462122,-4.346222 0,-2.4003283 -1.9458653,-4.3462223 -4.3462122,-4.3462223 z m 0,0.543306 c 2.1003037,0 3.8029362,1.7026185 3.8029362,3.8029163 0,2.1002978 -1.7026325,3.802916 -3.8029362,3.802916 -2.1003041,0 -3.8029361,-1.7026182 -3.8029361,-3.802916 0,-2.1002978 1.702632,-3.8029163 3.8029361,-3.8029163 z"/><path id="path4176" fill="#000" fill-opacity=".118" stroke="none" d="m 6.7733338,2.6528888 c -2.4003472,0 -4.3462129,1.945894 -4.3462129,4.3462223 0,2.4003283 1.9458657,4.3462219 4.3462129,4.3462219 2.4003469,0 4.3462122,-1.9458936 4.3462122,-4.3462219 0,-2.4003283 -1.9458653,-4.3462223 -4.3462122,-4.3462223 z m 0,0.543306 c 2.1003037,0 3.8029362,1.7026185 3.8029362,3.8029163 0,2.1002979 -1.7026325,3.8029159 -3.8029362,3.8029159 -2.1003041,0 -3.8029361,-1.702618 -3.8029361,-3.8029159 0,-2.1002978 1.702632,-3.8029163 3.8029361,-3.8029163 z"/><path id="rect846" fill="#000" fill-opacity="1" stroke="none" d="m -5.0479622e-8,12.7 0,0.299861 c 0,0.304038 0.242774020479622,0.546806 0.546805540479622,0.546806 l 12.45305551,0 c 0.304032,0 0.546806,-0.242768 0.546806,-0.546806 l 0,-0.299861 c 0,0.304038 -0.242774,0.546806 -0.546806,0.546806 l -12.45305551,0 C 0.24277397,13.246806 -5.0479622e-8,13.004038 -5.0479622e-8,12.7 Z"/><path id="path7515" fill="#fff" fill-opacity=".537" stroke="none" d="m 0.71437494,0.18522226 c -0.25882273,0 -0.47163475,0.18048112 -0.52034721,0.42333335 0.0947172,-0.078994 0.21858454,-0.12347223 0.35277776,-0.12347223 l 12.45305551,0 c 0.134194,0 0.258061,0.0444782 0.352778,0.12347223 -0.04871,-0.24285223 -0.261524,-0.42333335 -0.520347,-0.42333335 l -12.11791706,0 z"/><path id="rect4280" fill="#000" fill-opacity=".392" stroke="none" d="M 0.54680549,-1.88294e-7 C 0.242774,-1.88294e-7 -5.0479622e-8,0.24276737 -5.0479622e-8,0.54680538 l 0,12.15319462 C -5.0479622e-8,12.923915 0.13547328,13.10894 0.32631938,13.193889 0.2390163,13.099824 0.18520829,12.973078 0.18520829,12.832306 l 0,-12.11791706 c 0,-0.29582534 0.23336925,-0.52916668 0.52916665,-0.52916668 l 12.11791706,0 c 0.295797,0 0.529167,0.23334134 0.529167,0.52916668 l 0,12.11791706 c 0,0.140772 -0.05381,0.267518 -0.141111,0.361583 0.190846,-0.08495 0.326319,-0.269974 0.326319,-0.493889 l 0,-12.15319462 C 13.546667,0.24276737 13.303893,-1.88294e-7 12.999861,-1.88294e-7 l -12.45305551,0 z"/><path id="path4172" fill="#000" fill-opacity=".235" stroke="none" d="m 6.7733338,2.5399999 c -2.4003472,0 -4.3462129,1.945894 -4.3462129,4.3462223 0,2.4003283 1.9458657,4.3462228 4.3462129,4.3462228 2.4003469,0 4.3462122,-1.9458945 4.3462122,-4.3462228 0,-2.4003283 -1.9458653,-4.3462223 -4.3462122,-4.3462223 z m 0,0.543306 c 2.1003037,0 3.8029362,1.7026185 3.8029362,3.8029163 0,2.1002979 -1.7026325,3.8029168 -3.8029362,3.8029168 -2.1003041,0 -3.8029361,-1.7026189 -3.8029361,-3.8029168 0,-2.1002978 1.702632,-3.8029163 3.8029361,-3.8029163 z"/><circle id="path993" cx="6.773" cy="6.773" r="3.777" fill="url(#linearGradient1001)" fill-opacity="1" stroke="none"/><path id="path897" fill="url(#radialGradient923)" fill-opacity="1" stroke="none" d="m 6.7733338,2.427111 c -2.4003472,0 -4.3462129,1.945894 -4.3462129,4.3462223 0,2.4003283 1.9458657,4.3462227 4.3462129,4.3462227 2.4003469,0 4.3462122,-1.9458944 4.3462122,-4.3462227 0,-2.4003283 -1.9458653,-4.3462223 -4.3462122,-4.3462223 z m 0,0.543306 c 2.1003037,0 3.8029362,1.7026185 3.8029362,3.8029163 0,2.1002979 -1.7026325,3.8029167 -3.8029362,3.8029167 -2.1003041,0 -3.8029361,-1.7026188 -3.8029361,-3.8029167 0,-2.1002978 1.702632,-3.8029163 3.8029361,-3.8029163 z"/><circle id="path925" cx="4.057" cy="6.795" r=".563" fill="url(#linearGradient4307)" fill-opacity="1" stroke="none"/><path id="path937" fill="#000" fill-opacity=".235" stroke="none" d="m 3.5349836,7.0124884 c 0.081497,0.2105661 0.2826622,0.3627403 0.5219666,0.3627403 0.2393044,0 0.4404699,-0.1521742 0.5219672,-0.3627403 -0.08547,0.2021276 -0.2887594,0.3450449 -0.5219672,0.3450449 -0.2332073,0 -0.4364968,-0.1429173 -0.5219666,-0.3450449 z"/><path id="path942" fill="#000" fill-opacity=".138" stroke="none" d="m 3.5349836,7.0297322 c 0.081497,0.2105378 0.2826622,0.3627403 0.5219666,0.3627403 0.2393044,0 0.4404699,-0.1522025 0.5219672,-0.3627403 -0.08547,0.2020994 -0.2887594,0.3450449 -0.5219672,0.3450449 -0.2332073,0 -0.4364968,-0.1429455 -0.5219666,-0.3450449 z"/><path id="path944" fill="#000" fill-opacity=".079" stroke="none" d="m 3.5349836,7.046976 c 0.081497,0.2105378 0.2826622,0.3627402 0.5219666,0.3627402 0.2393044,0 0.4404699,-0.1522024 0.5219672,-0.3627402 -0.08547,0.2020711 -0.2887594,0.3450731 -0.5219672,0.3450731 -0.2332073,0 -0.4364968,-0.143002 -0.5219666,-0.3450731 z"/><path id="path946" fill="#fff" fill-opacity=".736" stroke="none" d="m 4.0569502,6.2300273 c -0.3109432,0 -0.5650851,0.2541694 -0.5650851,0.5650936 0,0.0079 0.00413,0.014393 0.00445,0.022296 0.00995,-0.3022035 0.2560066,-0.5428544 0.5606356,-0.5428544 0.304629,0 0.5506842,0.2406509 0.5606356,0.5428544 3.387e-4,-0.0079 0.00445,-0.014393 0.00445,-0.022296 9e-7,-0.3109242 -0.2541408,-0.5650936 -0.5650845,-0.5650936 z"/><path id="path951" fill="#000" fill-opacity=".039" stroke="none" d="M 3.5349836,7.0642198 C 3.6164809,7.2747576 3.8176458,7.42696 4.0569502,7.42696 c 0.2393044,0 0.4404699,-0.1522024 0.5219672,-0.3627402 -0.08547,0.2020993 -0.2887594,0.3450731 -0.5219672,0.3450731 -0.2332073,0 -0.4364968,-0.1429738 -0.5219666,-0.3450731 z"/><circle id="path963" cx="9.49" cy="6.795" r=".563" fill="url(#linearGradient4309)" fill-opacity="1" stroke="none"/><path id="path965" fill="#000" fill-opacity=".235" stroke="none" d="m 8.9677496,7.0124884 c 0.081497,0.2105661 0.2826622,0.3627403 0.5219667,0.3627403 0.2393044,0 0.4404693,-0.1521742 0.5219667,-0.3627403 -0.08547,0.2021276 -0.2887592,0.3450449 -0.5219667,0.3450449 -0.2332076,0 -0.4364968,-0.1429173 -0.5219667,-0.3450449 z"/><path id="path967" fill="#000" fill-opacity=".138" stroke="none" d="m 8.9677496,7.0297322 c 0.081497,0.2105378 0.2826622,0.3627403 0.5219667,0.3627403 0.2393044,0 0.4404693,-0.1522025 0.5219667,-0.3627403 -0.08547,0.2020994 -0.2887592,0.3450449 -0.5219667,0.3450449 -0.2332076,0 -0.4364968,-0.1429455 -0.5219667,-0.3450449 z"/><path id="path969" fill="#000" fill-opacity=".079" stroke="none" d="m 8.9677496,7.046976 c 0.081497,0.2105378 0.2826622,0.3627402 0.5219667,0.3627402 0.2393044,0 0.4404693,-0.1522024 0.5219667,-0.3627402 -0.08547,0.2020711 -0.2887592,0.3450731 -0.5219667,0.3450731 -0.2332076,0 -0.4364968,-0.143002 -0.5219667,-0.3450731 z"/><path id="path971" fill="#fff" fill-opacity=".736" stroke="none" d="m 9.4897163,6.2300273 c -0.3109435,0 -0.5650851,0.2541694 -0.5650851,0.5650936 0,0.0079 0.00413,0.014393 0.00445,0.022296 0.00995,-0.3022035 0.2560066,-0.5428544 0.5606358,-0.5428544 0.304629,0 0.5506832,0.2406509 0.5606352,0.5428544 3.39e-4,-0.0079 0.0045,-0.014393 0.0045,-0.022296 0,-0.3109242 -0.2541413,-0.5650936 -0.5650847,-0.5650936 z"/><path id="path973" fill="#000" fill-opacity=".039" stroke="none" d="M 8.9677496,7.0642198 C 9.0492467,7.2747576 9.2504118,7.42696 9.4897163,7.42696 c 0.2393044,0 0.4404693,-0.1522024 0.5219667,-0.3627402 -0.08547,0.2020993 -0.2887592,0.3450731 -0.5219667,0.3450731 -0.2332076,0 -0.4364968,-0.1429738 -0.5219667,-0.3450731 z"/><circle id="path979" cx="6.773" cy="4.078" r=".563" fill="url(#linearGradient4311)" fill-opacity="1" stroke="none"/><path id="path981" fill="#000" fill-opacity=".235" stroke="none" d="m 6.2513666,4.2960995 c 0.081497,0.210566 0.2826622,0.3627402 0.5219666,0.3627402 0.2393044,0 0.4404696,-0.1521742 0.5219669,-0.3627402 -0.08547,0.2020993 -0.2887593,0.3450449 -0.5219669,0.3450449 -0.2332073,0 -0.4364967,-0.1429456 -0.5219666,-0.3450449 z"/><path id="path983" fill="#000" fill-opacity=".138" stroke="none" d="m 6.2513666,4.3133715 c 0.081497,0.2105095 0.2826622,0.362712 0.5219666,0.362712 0.2393044,0 0.4404696,-0.1522025 0.5219669,-0.362712 -0.08547,0.2020993 -0.2887593,0.3450449 -0.5219669,0.3450449 -0.2332073,0 -0.4364967,-0.1429456 -0.5219666,-0.3450449 z"/><path id="path985" fill="#000" fill-opacity=".079" stroke="none" d="m 6.2513666,4.330587 c 0.081497,0.210566 0.2826622,0.3627403 0.5219666,0.3627403 0.2393044,0 0.4404696,-0.1521743 0.5219669,-0.3627403 -0.08547,0.2020994 -0.2887593,0.3450732 -0.5219669,0.3450732 -0.2332073,0 -0.4364967,-0.1429738 -0.5219666,-0.3450732 z"/><path id="path987" fill="#fff" fill-opacity=".736" stroke="none" d="m 6.7733332,3.5136666 c -0.3109434,0 -0.5650851,0.2541411 -0.5650851,0.5650653 0,0.0079 0.00413,0.014393 0.00445,0.022296 0.00995,-0.3022036 0.2560069,-0.5428263 0.5606359,-0.5428263 0.304629,0 0.5506836,0.2406227 0.5606356,0.5428263 3.387e-4,-0.0079 0.00445,-0.014393 0.00445,-0.022296 3.4e-6,-0.3109242 -0.2541386,-0.5650653 -0.565082,-0.5650653 z"/><path id="path989" fill="#000" fill-opacity=".039" stroke="none" d="m 6.2513666,4.3478308 c 0.081497,0.2105378 0.2826622,0.3627403 0.5219666,0.3627403 0.2393044,0 0.4404696,-0.1522025 0.5219669,-0.3627403 -0.08547,0.2020994 -0.2887593,0.3450449 -0.5219669,0.3450449 -0.2332073,0 -0.4364967,-0.1429455 -0.5219666,-0.3450449 z"/><path id="path1047" fill="red" fill-opacity=".933" stroke="none" d="m 6.7733341,2.8743203 -0.3349177,3.8468019 0,0.028702 c 0,0.027093 0.00362,0.051562 0.00957,0.076539 0.035117,0.1474047 0.1672302,0.2583462 0.3253489,0.2583462 0.1849289,0 0.3349176,-0.1499447 0.3349176,-0.3348849 l 0,-0.028702 L 6.9838524,5.3144702 6.7733341,2.8743203 Z"/><path id="rect1093" fill="#fff" fill-opacity=".243" stroke="none" d="m 6.7733341,2.8743203 0,4.2103888 c 0.1849289,0 0.3349179,-0.1499447 0.3349179,-0.3348849 l 0,-0.028702 L 6.9838538,5.3144702 6.7733341,2.8743203 Z"/><circle id="path1100" cx="6.773" cy="6.768" r=".097" fill="url(#linearGradient933)" fill-opacity="1" stroke="none"/><path id="path1102" fill="#000" fill-opacity=".235" stroke="none" d="m 6.6836117,6.8049422 c 0.01401,0.036209 0.048588,0.062343 0.089722,0.062343 0.041135,0 0.075714,-0.026247 0.089723,-0.062343 -0.014693,0.034742 -0.049636,0.059323 -0.089723,0.059323 -0.040087,0 -0.075031,-0.024553 -0.089722,-0.059323 z"/><path id="path1104" fill="#000" fill-opacity=".138" stroke="none" d="m 6.6836117,6.8079056 c 0.01401,0.036209 0.048588,0.062371 0.089722,0.062371 0.041135,0 0.075714,-0.026247 0.089723,-0.062371 -0.014693,0.034741 -0.049636,0.059323 -0.089723,0.059323 -0.040087,0 -0.075031,-0.024553 -0.089722,-0.059323 z"/><path id="path1106" fill="#000" fill-opacity=".079" stroke="none" d="m 6.6836117,6.8108689 c 0.01401,0.036209 0.048588,0.062371 0.089722,0.062371 0.041135,0 0.075714,-0.026247 0.089723,-0.062371 -0.014693,0.034741 -0.049636,0.059323 -0.089723,0.059323 -0.040087,0 -0.075031,-0.024553 -0.089722,-0.059323 z"/><path id="path1108" fill="#fff" fill-opacity=".736" stroke="none" d="m 6.7733341,6.6704351 c -0.053449,0 -0.097134,0.043688 -0.097134,0.097141 0,0.00282 7.055e-4,0.00282 7.62e-4,0.00395 0.00172,-0.051901 0.044006,-0.093274 0.09637,-0.093274 0.052364,0 0.094659,0.041374 0.09637,0.093274 5.59e-5,-0.00282 7.62e-4,-0.00282 7.62e-4,-0.00395 5.3e-6,-0.053453 -0.04368,-0.097141 -0.097129,-0.097141 z"/><path id="path1110" fill="#000" fill-opacity=".039" stroke="none" d="m 6.6836117,6.8138322 c 0.01401,0.036181 0.048588,0.062371 0.089722,0.062371 0.041135,0 0.075714,-0.026247 0.089723,-0.062371 -0.014693,0.034742 -0.049636,0.059323 -0.089723,0.059323 -0.040087,0 -0.075031,-0.024553 -0.089722,-0.059323 z"/><path id="path1213" fill="#000" fill-opacity=".197" stroke="none" d="m 7.1043929,6.8168238 c -0.031237,0.1525975 -0.1692464,0.2716107 -0.3310591,0.2716107 -0.1581187,0 -0.2874538,-0.1157112 -0.3225704,-0.2631158 0.00141,0.0079 -0.00195,0.017215 0,0.025682 C 6.48588,6.9983773 6.6152151,7.1141731 6.7733338,7.1141731 6.9438149,7.1139473 7.0834353,6.9816133 7.1043929,6.8168238 Z"/><path id="path1218" fill="#000" fill-opacity=".117" stroke="none" d="M 7.1043929,6.8433244 C 7.0731557,6.995922 6.9351465,7.1149633 6.7733338,7.1149633 c -0.1581187,0 -0.2874538,-0.1157393 -0.3225704,-0.263144 0.00141,0.00818 -0.00195,0.017216 0,0.025682 C 6.48588,7.0249062 6.6152151,7.1406738 6.7733338,7.1406738 6.9438149,7.140448 7.0834353,7.0081422 7.1043929,6.8433244 Z"/><path id="path1220" fill="#000" fill-opacity=".054" stroke="none" d="m 7.1043929,6.8698533 c -0.031237,0.1525976 -0.1692464,0.2716389 -0.3310591,0.2716389 -0.1581187,0 -0.2874538,-0.1157393 -0.3225704,-0.263144 0.00141,0.00818 -0.00195,0.017216 0,0.025682 C 6.48588,7.0514351 6.6152151,7.1672027 6.7733338,7.1672027 6.9438149,7.1669769 7.0834353,7.0346711 7.1043929,6.8698533 Z"/><path id="path4162" fill="url(#linearGradient4166)" fill-opacity="1" stroke="none" d="m 6.7733338,2.427111 c -2.4003472,0 -4.3462129,1.945894 -4.3462129,4.3462223 0,2.4003283 1.9458657,4.3462227 4.3462129,4.3462227 2.4003469,0 4.3462122,-1.9458944 4.3462122,-4.3462227 0,-2.4003283 -1.9458653,-4.3462223 -4.3462122,-4.3462223 z m 0,0.543306 c 2.1003037,0 3.8029362,1.7026185 3.8029362,3.8029163 0,2.1002979 -1.7026325,3.8029167 -3.8029362,3.8029167 -2.1003041,0 -3.8029361,-1.7026188 -3.8029361,-3.8029167 0,-2.1002978 1.702632,-3.8029163 3.8029361,-3.8029163 z"/></svg>