<svg xmlns="http://www.w3.org/2000/svg" xmlns:svg="http://www.w3.org/2000/svg" xmlns:xlink="http://www.w3.org/1999/xlink" id="svg2" width="48" height="48" version="1.1"><defs id="defs4"><linearGradient id="linearGradient1469" x1="25.456" x2="25.456" y1="-1052.716" y2="-1004.633" gradientUnits="userSpaceOnUse" xlink:href="#linearGradient3320"/><linearGradient id="linearGradient3320"><stop id="stop3322" offset="0" stop-color="#fbfbfb" stop-opacity="1"/><stop id="stop3324" offset="1" stop-color="#fefefe" stop-opacity="1"/></linearGradient><style id="style3290" type="text/css"><![CDATA[
    .fil2 {fill:#11A861}
    .fil0 {fill:#3777E3}
    .fil1 {fill:#FFCF63}
   ]]></style></defs><metadata id="metadata7"/><g id="layer1" transform="translate(0,-1004.3622)"><rect id="rect2991-1" width="48" height="48" x="0" y="-1052.362" fill="url(#linearGradient1469)" fill-opacity="1" stroke="none" ry="1.945" transform="scale(1,-1)"/><path id="path4257" fill="#000" fill-opacity=".059" stroke="none" d="m 8.5996094,1014.1614 0,9 8.9999996,0 0,-9 -8.9999996,0 z m 10.9003906,0 0,9 9,0 0,-9 -9,0 z m 10.900391,0 0,9 9,0 0,-9 -9,0 z m -21.8007816,10.9004 0,9 8.9999996,0 0,-9 -8.9999996,0 z m 10.9003906,0 0,9 9,0 0,-9 -9,0 z m 10.900391,0 0,9 9,0 0,-9 -9,0 z m -21.8007816,10.9004 0,9 8.9999996,0 0,-9 -8.9999996,0 z m 10.9003906,0 0,9 9,0 0,-9 -9,0 z m 10.900391,0 0,9 9,0 0,-9 -9,0 z"/><path id="path4255" fill="#000" fill-opacity=".118" stroke="none" d="m 8.5996094,1013.7614 0,9 8.9999996,0 0,-9 -8.9999996,0 z m 10.9003906,0 0,9 9,0 0,-9 -9,0 z m 10.900391,0 0,9 9,0 0,-9 -9,0 z m -21.8007816,10.9004 0,9 8.9999996,0 0,-9 -8.9999996,0 z m 10.9003906,0 0,9 9,0 0,-9 -9,0 z m 10.900391,0 0,9 9,0 0,-9 -9,0 z m -21.8007816,10.9004 0,9 8.9999996,0 0,-9 -8.9999996,0 z m 10.9003906,0 0,9 9,0 0,-9 -9,0 z m 10.900391,0 0,9 9,0 0,-9 -9,0 z"/><path id="rect4236" fill="#000" fill-opacity=".235" stroke="none" d="m 8.5996094,1013.3614 0,9 8.9999996,0 0,-9 -8.9999996,0 z m 10.9003906,0 0,9 9,0 0,-9 -9,0 z m 10.900391,0 0,9 9,0 0,-9 -9,0 z m -21.8007816,10.9004 0,9 8.9999996,0 0,-9 -8.9999996,0 z m 10.9003906,0 0,9 9,0 0,-9 -9,0 z m 10.900391,0 0,9 9,0 0,-9 -9,0 z m -21.8007816,10.9004 0,9 8.9999996,0 0,-9 -8.9999996,0 z m 10.9003906,0 0,9 9,0 0,-9 -9,0 z m 10.900391,0 0,9 9,0 0,-9 -9,0 z"/><path id="rect846" fill="#000" fill-opacity="1" stroke="none" d="m 1.871521e-6,1049.3622 0,1.0625 c 0,1.0773 0.860199998479,1.9375 1.937500028479,1.9375 l 44.1250001,0 c 1.0773,0 1.9375,-0.8602 1.9375,-1.9375 l 0,-1.0625 c 0,1.0773 -0.8602,1.9375 -1.9375,1.9375 l -44.1250001,0 C 0.86020187,1051.2997 1.871521e-6,1050.4395 1.871521e-6,1049.3622 Z"/><path id="path7515" fill="#fff" fill-opacity=".537" stroke="none" d="m 2.5312019,1005.0185 c -0.917,0 -1.67110003,0.6395 -1.84370003,1.5 0.33560003,-0.2799 0.77450003,-0.4375 1.25000003,-0.4375 l 44.1250001,0 c 0.4755,0 0.9144,0.1576 1.25,0.4375 -0.1726,-0.8605 -0.9267,-1.5 -1.8437,-1.5 L 2.5312019,1005.0185 Z"/><path id="rect4280-7" fill="#000" fill-opacity=".392" stroke="none" d="m 1.9375019,1004.3622 c -1.07730003,0 -1.937500028479,0.8602 -1.937500028479,1.9375 l 0,43.0625 c 0,0.7934 0.479999998479,1.449 1.156200028479,1.75 -0.30930003,-0.3333 -0.50000003,-0.7824 -0.50000003,-1.2812 l 0,-42.9375 c 0,-1.0482 0.82690003,-1.875 1.87500003,-1.875 l 42.9376001,0 c 1.0481,0 1.875,0.8268 1.875,1.875 l 0,42.9375 c 0,0.4988 -0.1907,0.9479 -0.5,1.2812 0.6762,-0.301 1.1562,-0.9566 1.1562,-1.75 l 0,-43.0625 c 0,-1.0773 -0.8602,-1.9375 -1.9375,-1.9375 L 1.9375019,1004.3622 Z"/><rect id="rect1526" width="48" height="48" x="0" y="1004.362" fill="none" stroke="none" ry="0"/><rect id="rect4218" width="9" height="9" x="8.6" y="1034.762" fill="#009d5a" fill-opacity="1" stroke="none"/><rect id="rect4220" width="9" height="9" x="30.4" y="1034.762" fill="#ffb000" fill-opacity="1" stroke="none"/><rect id="rect4222" width="9" height="9" x="19.5" y="1034.762" fill="#ffb000" fill-opacity="1" stroke="none"/><rect id="rect4224" width="9" height="9" x="8.6" y="1012.962" fill="#fe3932" fill-opacity="1" stroke="none"/><rect id="rect4226" width="9" height="9" x="30.4" y="1012.962" fill="#fe3932" fill-opacity="1" stroke="none"/><rect id="rect4228" width="9" height="9" x="19.5" y="1012.962" fill="#fe3932" fill-opacity="1" stroke="none"/><rect id="rect4230" width="9" height="9" x="8.6" y="1023.862" fill="#009d5a" fill-opacity="1" stroke="none"/><rect id="rect4232" width="9" height="9" x="30.4" y="1023.862" fill="#ffb000" fill-opacity="1" stroke="none"/><rect id="rect4234" width="9" height="9" x="19.5" y="1023.862" fill="#008bf4" fill-opacity="1" stroke="none"/><path id="rect4259" fill="#000" fill-opacity=".235" stroke="none" d="M 8.5996094 16.798828 L 8.5996094 17.599609 L 17.599609 17.599609 L 17.599609 16.798828 L 8.5996094 16.798828 z M 19.5 16.798828 L 19.5 17.599609 L 28.5 17.599609 L 28.5 16.798828 L 19.5 16.798828 z M 30.400391 16.798828 L 30.400391 17.599609 L 39.400391 17.599609 L 39.400391 16.798828 L 30.400391 16.798828 z M 8.5996094 27.699219 L 8.5996094 28.5 L 17.599609 28.5 L 17.599609 27.699219 L 8.5996094 27.699219 z M 19.5 27.699219 L 19.5 28.5 L 28.5 28.5 L 28.5 27.699219 L 19.5 27.699219 z M 30.400391 27.699219 L 30.400391 28.5 L 39.400391 28.5 L 39.400391 27.699219 L 30.400391 27.699219 z M 8.5996094 38.599609 L 8.5996094 39.400391 L 17.599609 39.400391 L 17.599609 38.599609 L 8.5996094 38.599609 z M 19.5 38.599609 L 19.5 39.400391 L 28.5 39.400391 L 28.5 38.599609 L 19.5 38.599609 z M 30.400391 38.599609 L 30.400391 39.400391 L 39.400391 39.400391 L 39.400391 38.599609 L 30.400391 38.599609 z" transform="translate(0,1004.3622)"/><path id="rect4281" fill="#fff" fill-opacity=".235" stroke="none" d="M 8.5996094 8.5996094 L 8.5996094 9 L 17.599609 9 L 17.599609 8.5996094 L 8.5996094 8.5996094 z M 19.5 8.5996094 L 19.5 9 L 28.5 9 L 28.5 8.5996094 L 19.5 8.5996094 z M 30.400391 8.5996094 L 30.400391 9 L 39.400391 9 L 39.400391 8.5996094 L 30.400391 8.5996094 z M 8.5996094 19.5 L 8.5996094 19.900391 L 17.599609 19.900391 L 17.599609 19.5 L 8.5996094 19.5 z M 19.5 19.5 L 19.5 19.900391 L 28.5 19.900391 L 28.5 19.5 L 19.5 19.5 z M 30.400391 19.5 L 30.400391 19.900391 L 39.400391 19.900391 L 39.400391 19.5 L 30.400391 19.5 z M 8.5996094 30.400391 L 8.5996094 30.800781 L 17.599609 30.800781 L 17.599609 30.400391 L 8.5996094 30.400391 z M 19.5 30.400391 L 19.5 30.800781 L 28.5 30.800781 L 28.5 30.400391 L 19.5 30.400391 z M 30.400391 30.400391 L 30.400391 30.800781 L 39.400391 30.800781 L 39.400391 30.400391 L 30.400391 30.400391 z" transform="translate(0,1004.3622)"/></g></svg>