<svg xmlns="http://www.w3.org/2000/svg" xmlns:svg="http://www.w3.org/2000/svg" xmlns:xlink="http://www.w3.org/1999/xlink" id="svg2" width="48" height="48" enable-background="new" version="1.1" viewBox="0 0 13.547 13.547"><metadata id="metadata82"/><defs id="defs4"><linearGradient id="linearGradient895" x1="27.75" x2="27.75" y1="-1052.362" y2="-1004.737" gradientTransform="matrix(0.28222223,0,0,0.28222223,-4.949951e-8,283.45334)" gradientUnits="userSpaceOnUse" xlink:href="#linearGradient1359"/><linearGradient id="linearGradient1359"><stop id="stop1361" offset="0" stop-color="#825541" stop-opacity="1"/><stop id="stop1363" offset="1" stop-color="#9b674d" stop-opacity="1"/></linearGradient></defs><rect id="rect2991-1" width="13.547" height="13.547" x="0" y="-13.547" fill="url(#linearGradient895)" fill-opacity="1" stroke="none" ry=".549" transform="scale(1,-1)"/><path id="rect4395" fill="#1f2d35" fill-opacity="1" stroke="none" stroke-dasharray="none" stroke-miterlimit="4" stroke-opacity=".55" stroke-width="2.8" d="M 1.9453125 0 C 0.86803533 0 2.9605947e-16 0.86803533 0 1.9453125 L 0 46.054688 C 0 46.399798 0.097504952 46.719604 0.25390625 47 L 6 47 L 6 33 L 8 33 L 18 33 L 18 37 L 20 37 L 20 33 L 28 33 L 28 37 L 30 37 L 30 33 L 40 33 L 46 33 L 46 31.072266 L 40 31.072266 L 40 27 L 42 27 L 42 0 L 40 0 L 40 25 L 27 25 L 27 23 L 21 23 L 21 25 L 8 25 L 8 0 L 6 0 L 1.9453125 0 z M 6 27 L 8 27 L 8 31.072266 L 6 31.072266 L 6 27 z" opacity="1" transform="scale(0.28222223,0.28222223)"/><path id="rect4399" fill="#1f2d35" fill-opacity="1" stroke="none" stroke-dasharray="none" stroke-miterlimit="4" stroke-opacity=".55" stroke-width="2.8" d="M 42 0 L 42 48 L 46.054688 48 C 47.131965 48 48 47.131965 48 46.054688 L 48 1.9453125 C 48 0.86803533 47.131965 -2.9605947e-16 46.054688 0 L 42 0 z" opacity="1" transform="scale(0.28222223,0.28222223)"/><path id="rect4407" fill="#8d7821" fill-opacity="1" stroke="none" stroke-dasharray="none" stroke-miterlimit="4" stroke-opacity=".55" stroke-width="2.8" d="M 2 31 L 2 31.072266 L 6 31.072266 L 6 31 L 2 31 z M 42 31 L 42 31.072266 L 46 31.072266 L 46 31 L 42 31 z M 2 33 L 2 48 L 6 48 L 6 47 L 42 47 L 42 48 L 46 48 L 46 33 L 42 33 L 42 43 L 6 43 L 6 33 L 2 33 z" opacity="1" transform="scale(0.28222223,0.28222223)"/><path id="rect4429" fill="#fec61d" fill-opacity="1" stroke="none" stroke-dasharray="none" stroke-miterlimit="4" stroke-opacity=".55" stroke-width="2.8" d="M 2 0 L 2 31 L 6 31 L 20 31 L 20 29 L 28 29 L 28 31 L 42 31 L 46 31 L 46 0 L 42 0 L 42 27 L 28 27 L 28 25 L 20 25 L 20 27 L 6 27 L 6 0 L 2 0 z" opacity="1" transform="scale(0.28222223,0.28222223)"/><rect id="rect4434" width="2.258" height=".847" x="5.644" y="8.749" fill="#d4d4d4" fill-opacity="1" stroke="none" stroke-dasharray="none" stroke-miterlimit="4" stroke-opacity=".55" stroke-width="2.8" opacity="1"/><rect id="rect4436" width="2.258" height="1.129" x="5.644" y="9.596" fill="#707070" fill-opacity="1" stroke="none" stroke-dasharray="none" stroke-miterlimit="4" stroke-opacity=".55" stroke-width="2.8" opacity="1"/><path id="rect4417" fill="#d08864" fill-opacity="1" stroke="none" stroke-dasharray="none" stroke-miterlimit="4" stroke-opacity=".55" stroke-width="2.8" d="M 8 13 L 8 25 L 15 25 L 15 13 L 8 13 z M 16 13 L 16 25 L 21 25 L 21 23 L 23 23 L 23 13 L 16 13 z M 25 13 L 25 23 L 27 23 L 27 25 L 32 25 L 32 13 L 25 13 z M 33 13 L 33 25 L 40 25 L 40 13 L 33 13 z" opacity="1" transform="scale(0.28222223,0.28222223)"/><g id="g4187"><path id="rect846" fill="#000" fill-opacity="1" stroke="none" d="m -7.9979133e-8,12.700002 0,0.299861 c 0,0.304038 0.242774019979133,0.546806 0.546805539979133,0.546806 l 12.45305554,0 c 0.304032,0 0.546806,-0.242768 0.546806,-0.546806 l 0,-0.299861 c 0,0.304038 -0.242774,0.546806 -0.546806,0.546806 l -12.45305554,0 C 0.24277394,13.246808 -7.9979133e-8,13.00404 -7.9979133e-8,12.700002 Z"/><path id="rect4280" fill="#000" fill-opacity=".392" stroke="none" d="M 0.54680546,2.1958918e-6 C 0.24277397,2.1958918e-6 -7.9979133e-8,0.24276975 -7.9979133e-8,0.54680776 l 0,12.15319424 c 0,0.223915 0.135473329979133,0.40894 0.326319429979133,0.493889 -0.0873031,-0.09407 -0.14111109,-0.220811 -0.14111109,-0.361583 l 0,-12.11791668 c 0,-0.29582534 0.23336925,-0.52916668 0.52916665,-0.52916668 l 12.11791709,0 c 0.295797,0 0.529167,0.23334134 0.529167,0.52916668 l 0,12.11791668 c 0,0.140772 -0.05381,0.267518 -0.141111,0.361583 0.190846,-0.08495 0.326319,-0.269974 0.326319,-0.493889 l 0,-12.15319424 C 13.546667,0.24276975 13.303893,2.1958918e-6 12.999861,2.1958918e-6 l -12.45305554,0 z"/><path id="path7515" fill="#fff" fill-opacity=".537" stroke="none" d="m 0.71437491,0.18522464 c -0.25882273,0 -0.47163475,0.18048112 -0.52034721,0.42333335 0.0947172,-0.078994 0.21858454,-0.12347223 0.35277776,-0.12347223 l 12.45305554,0 c 0.134194,0 0.258061,0.0444782 0.352778,0.12347223 -0.04871,-0.24285223 -0.261524,-0.42333335 -0.520347,-0.42333335 l -12.11791709,0 z"/></g></svg>