<svg xmlns="http://www.w3.org/2000/svg" xmlns:svg="http://www.w3.org/2000/svg" xmlns:xlink="http://www.w3.org/1999/xlink" id="svg2" width="48" height="48" version="1.1" viewBox="0 0 13.547 13.547"><metadata id="metadata276"/><defs id="defs4"><linearGradient id="linearGradient5561-0" x1="27.224" x2="27.224" y1="-1052.384" y2="-1004.332" gradientTransform="matrix(0.28222223,0,0,0.28222223,-1.0774661e-7,283.45334)" gradientUnits="userSpaceOnUse" xlink:href="#linearGradient896"/><linearGradient id="linearGradient4245" x1="25" x2="25" y1="40" y2="7.96" gradientTransform="matrix(0.96250002,0,0,0.96250002,0.89999994,0.90000947)" gradientUnits="userSpaceOnUse" xlink:href="#linearGradient4195"/><linearGradient id="linearGradient896"><stop id="stop898" offset="0" stop-color="#1a1a1a" stop-opacity="1"/><stop id="stop900" offset="1" stop-color="#4d4d4d" stop-opacity="1"/></linearGradient><linearGradient id="linearGradient4195"><stop id="stop4197" offset="0" stop-color="#dee4e4" stop-opacity="1"/><stop id="stop4199" offset="1" stop-color="#f2f2f0" stop-opacity="1"/></linearGradient></defs><rect id="rect2991-1-7-2" width="13.547" height="13.547" x="0" y="-13.547" fill="url(#linearGradient5561-0)" fill-opacity="1" stroke="none" ry=".549" transform="scale(1,-1)"/><path id="path4269" fill="#000" fill-opacity=".059" stroke="none" stroke-dasharray="none" stroke-miterlimit="4" stroke-opacity=".55" stroke-width="2.8" d="M 8.5996094 9.8007812 L 8.5996094 33.863281 L 21.353516 33.863281 L 29.775391 40.599609 L 29.775391 33.863281 L 39.400391 33.863281 L 39.400391 9.8007812 L 8.5996094 9.8007812 z M 10 10 L 38 10 L 38 31 L 10 31 L 10 10 z" opacity="1" transform="scale(0.28222223,0.28222223)"/><path id="path4267" fill="#000" fill-opacity=".118" stroke="none" stroke-dasharray="none" stroke-miterlimit="4" stroke-opacity=".55" stroke-width="2.8" d="M 8.5996094 9.4003906 L 8.5996094 33.462891 L 21.353516 33.462891 L 29.775391 40.199219 L 29.775391 33.462891 L 39.400391 33.462891 L 39.400391 9.4003906 L 8.5996094 9.4003906 z M 10 10 L 38 10 L 38 31 L 10 31 L 10 10 z" opacity="1" transform="scale(0.28222223,0.28222223)"/><path id="path4263" fill="#000" fill-opacity=".235" stroke="none" stroke-dasharray="none" stroke-miterlimit="4" stroke-opacity=".55" stroke-width="2.8" d="M 8.5996094 9 L 8.5996094 33.0625 L 21.353516 33.0625 L 29.775391 39.800781 L 29.775391 33.0625 L 39.400391 33.0625 L 39.400391 9 L 8.5996094 9 z M 10 10 L 38 10 L 38 31 L 10 31 L 10 10 z" opacity="1" transform="scale(0.28222223,0.28222223)"/><path id="rect846-3" fill="#000" fill-opacity="1" stroke="none" d="m -1.80108e-6,12.700003 0,0.299861 c 0,0.304038 0.24277321108,0.546806 0.54680557108,0.546806 l 12.45305523,0 c 0.304033,0 0.546806,-0.242768 0.546806,-0.546806 l 0,-0.299861 c 0,0.304038 -0.242773,0.546806 -0.546806,0.546806 l -12.45305523,0 c -0.30403236,0 -0.54680557108,-0.242768 -0.54680557108,-0.546806 z"/><path id="path7515-3" fill="#fff" fill-opacity=".537" stroke="none" d="m 0.71437322,0.18522512 c -0.25882318,0 -0.47163568,0.18048112 -0.52034724,0.42333335 0.0947166,-0.078994 0.21858394,-0.12347223 0.35277779,-0.12347223 l 12.45305523,0 c 0.134194,0 0.258062,0.0444782 0.352778,0.12347223 C 13.303926,0.36570624 13.091113,0.18522512 12.83229,0.18522512 l -12.11791678,0 z"/><path id="rect4280-2" fill="#000" fill-opacity=".392" stroke="none" d="M 0.54680377,2.6714809e-6 C 0.24277141,2.6714809e-6 -1.80108e-6,0.24277023 -1.80108e-6,0.54680824 l 0,12.15319476 c 0,0.223915 0.13547231108,0.40894 0.32631946108,0.493889 -0.0873026,-0.09407 -0.14111112,-0.220811 -0.14111112,-0.361583 l 0,-12.1179172 c 0,-0.29582534 0.23336956,-0.52916668 0.52916668,-0.52916668 l 12.11791678,0 c 0.295797,0 0.529167,0.23334134 0.529167,0.52916668 l 0,12.1179172 c 0,0.140772 -0.05381,0.267518 -0.141111,0.361583 0.190847,-0.08495 0.326319,-0.269974 0.326319,-0.493889 l 0,-12.15319476 C 13.546665,0.24277023 13.303892,2.6714809e-6 12.999859,2.6714809e-6 l -12.45305523,0 z"/><path id="rect4225" fill="url(#linearGradient4245)" fill-opacity="1" stroke="none" stroke-dasharray="none" stroke-miterlimit="4" stroke-opacity=".55" stroke-width="2.8" d="M 8.5996094 8.5996094 L 8.5996094 32.662109 L 21.353516 32.662109 L 29.775391 39.400391 L 29.775391 32.662109 L 39.400391 32.662109 L 39.400391 8.5996094 L 8.5996094 8.5996094 z M 10 10 L 38 10 L 38 31 L 10 31 L 10 10 z" opacity="1" transform="scale(0.28222223,0.28222223)"/><path id="path4271" fill="#000" fill-opacity=".314" stroke="none" stroke-dasharray="none" stroke-miterlimit="4" stroke-opacity=".55" stroke-width="2.8" d="M 8.5996094 31.863281 L 8.5996094 32.662109 L 21.353516 32.662109 L 29.775391 39.400391 L 29.775391 38.599609 L 21.353516 31.863281 L 8.5996094 31.863281 z M 29.775391 31.863281 L 29.775391 32.662109 L 39.400391 32.662109 L 39.400391 31.863281 L 29.775391 31.863281 z" opacity="1" transform="scale(0.28222223,0.28222223)"/><path id="path4276" fill="#fff" fill-opacity=".235" stroke="none" stroke-dasharray="none" stroke-miterlimit="4" stroke-opacity=".55" stroke-width="2.8" d="M 8.5996094 8.5996094 L 8.5996094 9 L 39.400391 9 L 39.400391 8.5996094 L 8.5996094 8.5996094 z" opacity="1" transform="scale(0.28222223,0.28222223)"/></svg>