<svg xmlns="http://www.w3.org/2000/svg" xmlns:svg="http://www.w3.org/2000/svg" xmlns:xlink="http://www.w3.org/1999/xlink" id="svg4230" width="48" height="48" version="1.1"><defs id="defs4232"><linearGradient id="linearGradient1420"><stop id="stop1422" offset="0" stop-color="#9034ca" stop-opacity="1"/><stop id="stop1424" offset="1" stop-color="#e18baf" stop-opacity="1"/></linearGradient><linearGradient id="linearGradient7530" x1="26.375" x2="26.375" y1="-1052.612" y2="-1004.612" gradientTransform="translate(-1.0024414e-6,-7.1533594e-5)" gradientUnits="userSpaceOnUse" xlink:href="#linearGradient1420"/></defs><metadata id="metadata4235"/><g id="layer1" transform="translate(0,-1004.3622)"><rect id="rect2991-1" width="48" height="48" x="0" y="-1052.362" fill="url(#linearGradient7530)" fill-opacity="1" stroke="none" ry="1.945" transform="scale(1,-1)"/><g id="g4219" fill="#000" fill-opacity=".059" transform="matrix(0.24000046,0,0,0.23636221,10.580111,1016.5622)"><path id="path4221" fill="#000" fill-opacity=".059" d="m 105.916,96.173 c -5.82,2.288 -11.195,3.373 -12.942,4.245 -6.922,3.454 -10.882,6.393 -16.123,7.769 -6.993,1.835 -13.652,1.997 -18.495,1.69 -1.339,-0.085 0.66,0.014 -0.532,-0.063 -0.024,-10e-4 -0.047,-0.002 -0.071,-0.003 -0.032,10e-4 -0.059,0.02 -0.091,0.021 -0.114,-0.009 -0.225,-0.026 -0.339,-0.037 -0.194,-0.01 -0.386,-0.009 -0.581,-0.021 C 26.901,107.882 4.143,81.901 6.025,51.85 c 0.002,-0.034 0.006,-0.067 0.009,-0.1 0,-0.019 0,-0.037 0.001,-0.057 C 6.237,48.469 6.719,45.418 7.426,42.521 7.56,41.943 7.713,41.374 7.865,40.803 7.877,40.762 7.886,40.72 7.897,40.679 14.529,15.955 37.741,-1.561 64.091,0.11 c 4.193,0.266 5.96,0.378 5.96,0.378 l 0.01,0.062 c 5.599,0.308 17.396,2.598 20.334,4.072 2.583,1.297 5.801,3.308 6.948,5.145 2.538,4.064 1.875,6.385 2.449,8.006 1.063,3.003 3.489,4.146 5.753,5.784 -0.175,1.053 -0.58,1.702 -1.263,2.708 -2.346,3.453 -6.732,5.074 -10.755,4.219 -10.011,-2.129 -17.022,-2.33 -17.536,-2.362 -0.678,-0.043 -0.737,-0.047 -1.416,-0.09 -0.007,0 -0.122,-0.008 -0.281,-0.018 l -10e-4,0.009 c -11.819,-0.65 -21.682,5.052 -26.15,15.439 -0.342,0.795 -1.425,4.137 -0.211,7.844 0.601,1.836 1.494,3.423 2.623,4.73 1.51,1.748 2.262,4.391 2.529,5.414 1.213,4.636 3.714,8.781 7.122,11.986 -2.704,0.885 -7.945,-0.422 -11.527,-3.37 -1.585,-1.305 -2.328,-2.508 -3.363,-2.439 -0.692,0.046 -0.548,0.87 -0.069,1.669 0.988,1.647 1.61,2.669 3.808,4.673 2.809,2.561 5.449,4.179 6.942,5.171 3.874,2.572 10.139,4.159 15.097,4.473 0.678,0.043 0.419,0.027 1.097,0.07 1.512,0.096 2.351,0.235 4.221,0.034 9.353,-1.006 16.352,-6.209 20.798,-11.059 l 4.431,11.97 c -1.289,0.983 -2.897,2.087 -5.348,3.56 -1.168,0.702 0.04,2.187 1.839,1.053 1.087,-0.483 2.703,-1.369 4.348,-2.346 l 3.436,9.278 z M 91.932,13.841 c -1.401,-0.089 -2.608,0.982 -2.696,2.391 -0.088,1.409 0.976,2.624 2.376,2.713 1.401,0.089 2.607,-0.982 2.696,-2.391 0.088,-1.41 -0.976,-2.624 -2.376,-2.713 z"/><path id="path4223" fill="#000" fill-opacity=".059" d="m 59.45,53.934 c 0.618,-9.811 9.103,-17.29 18.91,-16.672 9.814,0.618 17.292,9.103 16.674,18.915 C 94.415,65.99 85.93,73.469 76.116,72.85 66.31,72.232 58.831,63.747 59.45,53.934"/></g><g id="g4213" fill="#000" fill-opacity=".118" transform="matrix(0.24000046,0,0,0.23636221,10.580111,1016.1622)"><path id="path4215" fill="#000" fill-opacity=".118" d="m 105.916,96.173 c -5.82,2.288 -11.195,3.373 -12.942,4.245 -6.922,3.454 -10.882,6.393 -16.123,7.769 -6.993,1.835 -13.652,1.997 -18.495,1.69 -1.339,-0.085 0.66,0.014 -0.532,-0.063 -0.024,-10e-4 -0.047,-0.002 -0.071,-0.003 -0.032,10e-4 -0.059,0.02 -0.091,0.021 -0.114,-0.009 -0.225,-0.026 -0.339,-0.037 -0.194,-0.01 -0.386,-0.009 -0.581,-0.021 C 26.901,107.882 4.143,81.901 6.025,51.85 c 0.002,-0.034 0.006,-0.067 0.009,-0.1 0,-0.019 0,-0.037 0.001,-0.057 C 6.237,48.469 6.719,45.418 7.426,42.521 7.56,41.943 7.713,41.374 7.865,40.803 7.877,40.762 7.886,40.72 7.897,40.679 14.529,15.955 37.741,-1.561 64.091,0.11 c 4.193,0.266 5.96,0.378 5.96,0.378 l 0.01,0.062 c 5.599,0.308 17.396,2.598 20.334,4.072 2.583,1.297 5.801,3.308 6.948,5.145 2.538,4.064 1.875,6.385 2.449,8.006 1.063,3.003 3.489,4.146 5.753,5.784 -0.175,1.053 -0.58,1.702 -1.263,2.708 -2.346,3.453 -6.732,5.074 -10.755,4.219 -10.011,-2.129 -17.022,-2.33 -17.536,-2.362 -0.678,-0.043 -0.737,-0.047 -1.416,-0.09 -0.007,0 -0.122,-0.008 -0.281,-0.018 l -10e-4,0.009 c -11.819,-0.65 -21.682,5.052 -26.15,15.439 -0.342,0.795 -1.425,4.137 -0.211,7.844 0.601,1.836 1.494,3.423 2.623,4.73 1.51,1.748 2.262,4.391 2.529,5.414 1.213,4.636 3.714,8.781 7.122,11.986 -2.704,0.885 -7.945,-0.422 -11.527,-3.37 -1.585,-1.305 -2.328,-2.508 -3.363,-2.439 -0.692,0.046 -0.548,0.87 -0.069,1.669 0.988,1.647 1.61,2.669 3.808,4.673 2.809,2.561 5.449,4.179 6.942,5.171 3.874,2.572 10.139,4.159 15.097,4.473 0.678,0.043 0.419,0.027 1.097,0.07 1.512,0.096 2.351,0.235 4.221,0.034 9.353,-1.006 16.352,-6.209 20.798,-11.059 l 4.431,11.97 c -1.289,0.983 -2.897,2.087 -5.348,3.56 -1.168,0.702 0.04,2.187 1.839,1.053 1.087,-0.483 2.703,-1.369 4.348,-2.346 l 3.436,9.278 z M 91.932,13.841 c -1.401,-0.089 -2.608,0.982 -2.696,2.391 -0.088,1.409 0.976,2.624 2.376,2.713 1.401,0.089 2.607,-0.982 2.696,-2.391 0.088,-1.41 -0.976,-2.624 -2.376,-2.713 z"/><path id="path4217" fill="#000" fill-opacity=".118" d="m 59.45,53.934 c 0.618,-9.811 9.103,-17.29 18.91,-16.672 9.814,0.618 17.292,9.103 16.674,18.915 C 94.415,65.99 85.93,73.469 76.116,72.85 66.31,72.232 58.831,63.747 59.45,53.934"/></g><path id="rect846" fill="#000" fill-opacity="1" stroke="none" d="m -1.0024414e-6,1049.3622 0,1.0625 c 0,1.0773 0.8602230024414,1.9375 1.9375000024414,1.9375 l 44.125,0 c 1.077277,0 1.9375,-0.8602 1.9375,-1.9375 l 0,-1.0625 c 0,1.0773 -0.860223,1.9375 -1.9375,1.9375 l -44.125,0 c -1.077277,0 -1.9375000024414,-0.8602 -1.9375000024414,-1.9375 z"/><path id="path7515" fill="#fff" fill-opacity=".537" stroke="none" d="m 2.531249,1005.0185 c -0.917088,0 -1.671146,0.6395 -1.84375,1.5 0.335612,-0.2799 0.774512,-0.4375 1.25,-0.4375 l 44.125,0 c 0.475488,0 0.914388,0.1576 1.25,0.4375 -0.172603,-0.8605 -0.926662,-1.5 -1.84375,-1.5 l -42.9375,0 z"/><path id="rect4280" fill="#000" fill-opacity=".392" stroke="none" d="m 1.937499,1004.3622 c -1.077277,0 -1.9375000024414,0.8602 -1.9375000024414,1.9375 l 0,43.0625 c 0,0.7934 0.4800240024414,1.449 1.1562500024414,1.75 -0.309341,-0.3333 -0.5,-0.7824 -0.5,-1.2812 l 0,-42.9375 c 0,-1.0482 0.826899,-1.875 1.875,-1.875 l 42.9375,0 c 1.048101,0 1.875,0.8268 1.875,1.875 l 0,42.9375 c 0,0.4988 -0.190658,0.9479 -0.5,1.2812 0.676226,-0.301 1.15625,-0.9566 1.15625,-1.75 l 0,-43.0625 c 0,-1.0773 -0.860223,-1.9375 -1.9375,-1.9375 l -44.125,0 z"/><g id="g4201" fill="#000" fill-opacity=".235" transform="matrix(0.24000046,0,0,0.23636221,10.580111,1015.7622)"><path id="path4203" fill="#000" fill-opacity=".235" d="m 105.916,96.173 c -5.82,2.288 -11.195,3.373 -12.942,4.245 -6.922,3.454 -10.882,6.393 -16.123,7.769 -6.993,1.835 -13.652,1.997 -18.495,1.69 -1.339,-0.085 0.66,0.014 -0.532,-0.063 -0.024,-10e-4 -0.047,-0.002 -0.071,-0.003 -0.032,10e-4 -0.059,0.02 -0.091,0.021 -0.114,-0.009 -0.225,-0.026 -0.339,-0.037 -0.194,-0.01 -0.386,-0.009 -0.581,-0.021 C 26.901,107.882 4.143,81.901 6.025,51.85 c 0.002,-0.034 0.006,-0.067 0.009,-0.1 0,-0.019 0,-0.037 0.001,-0.057 C 6.237,48.469 6.719,45.418 7.426,42.521 7.56,41.943 7.713,41.374 7.865,40.803 7.877,40.762 7.886,40.72 7.897,40.679 14.529,15.955 37.741,-1.561 64.091,0.11 c 4.193,0.266 5.96,0.378 5.96,0.378 l 0.01,0.062 c 5.599,0.308 17.396,2.598 20.334,4.072 2.583,1.297 5.801,3.308 6.948,5.145 2.538,4.064 1.875,6.385 2.449,8.006 1.063,3.003 3.489,4.146 5.753,5.784 -0.175,1.053 -0.58,1.702 -1.263,2.708 -2.346,3.453 -6.732,5.074 -10.755,4.219 -10.011,-2.129 -17.022,-2.33 -17.536,-2.362 -0.678,-0.043 -0.737,-0.047 -1.416,-0.09 -0.007,0 -0.122,-0.008 -0.281,-0.018 l -10e-4,0.009 c -11.819,-0.65 -21.682,5.052 -26.15,15.439 -0.342,0.795 -1.425,4.137 -0.211,7.844 0.601,1.836 1.494,3.423 2.623,4.73 1.51,1.748 2.262,4.391 2.529,5.414 1.213,4.636 3.714,8.781 7.122,11.986 -2.704,0.885 -7.945,-0.422 -11.527,-3.37 -1.585,-1.305 -2.328,-2.508 -3.363,-2.439 -0.692,0.046 -0.548,0.87 -0.069,1.669 0.988,1.647 1.61,2.669 3.808,4.673 2.809,2.561 5.449,4.179 6.942,5.171 3.874,2.572 10.139,4.159 15.097,4.473 0.678,0.043 0.419,0.027 1.097,0.07 1.512,0.096 2.351,0.235 4.221,0.034 9.353,-1.006 16.352,-6.209 20.798,-11.059 l 4.431,11.97 c -1.289,0.983 -2.897,2.087 -5.348,3.56 -1.168,0.702 0.04,2.187 1.839,1.053 1.087,-0.483 2.703,-1.369 4.348,-2.346 l 3.436,9.278 z M 91.932,13.841 c -1.401,-0.089 -2.608,0.982 -2.696,2.391 -0.088,1.409 0.976,2.624 2.376,2.713 1.401,0.089 2.607,-0.982 2.696,-2.391 0.088,-1.41 -0.976,-2.624 -2.376,-2.713 z"/><path id="path4205" fill="#000" fill-opacity=".235" d="m 59.45,53.934 c 0.618,-9.811 9.103,-17.29 18.91,-16.672 9.814,0.618 17.292,9.103 16.674,18.915 C 94.415,65.99 85.93,73.469 76.116,72.85 66.31,72.232 58.831,63.747 59.45,53.934"/></g><g id="g2995" fill="#2d3e7b" fill-opacity="1" transform="matrix(0.24000046,0,0,0.23636221,10.580111,1015.3622)"><path id="path2997" fill="#2d3e7b" fill-opacity="1" d="m 105.916,96.173 c -5.82,2.288 -11.195,3.373 -12.942,4.245 -6.922,3.454 -10.882,6.393 -16.123,7.769 -6.993,1.835 -13.652,1.997 -18.495,1.69 -1.339,-0.085 0.66,0.014 -0.532,-0.063 -0.024,-10e-4 -0.047,-0.002 -0.071,-0.003 -0.032,10e-4 -0.059,0.02 -0.091,0.021 -0.114,-0.009 -0.225,-0.026 -0.339,-0.037 -0.194,-0.01 -0.386,-0.009 -0.581,-0.021 C 26.901,107.882 4.143,81.901 6.025,51.85 c 0.002,-0.034 0.006,-0.067 0.009,-0.1 0,-0.019 0,-0.037 0.001,-0.057 C 6.237,48.469 6.719,45.418 7.426,42.521 7.56,41.943 7.713,41.374 7.865,40.803 7.877,40.762 7.886,40.72 7.897,40.679 14.529,15.955 37.741,-1.561 64.091,0.11 c 4.193,0.266 5.96,0.378 5.96,0.378 l 0.01,0.062 c 5.599,0.308 17.396,2.598 20.334,4.072 2.583,1.297 5.801,3.308 6.948,5.145 2.538,4.064 1.875,6.385 2.449,8.006 1.063,3.003 3.489,4.146 5.753,5.784 -0.175,1.053 -0.58,1.702 -1.263,2.708 -2.346,3.453 -6.732,5.074 -10.755,4.219 -10.011,-2.129 -17.022,-2.33 -17.536,-2.362 -0.678,-0.043 -0.737,-0.047 -1.416,-0.09 -0.007,0 -0.122,-0.008 -0.281,-0.018 l -10e-4,0.009 c -11.819,-0.65 -21.682,5.052 -26.15,15.439 -0.342,0.795 -1.425,4.137 -0.211,7.844 0.601,1.836 1.494,3.423 2.623,4.73 1.51,1.748 2.262,4.391 2.529,5.414 1.213,4.636 3.714,8.781 7.122,11.986 -2.704,0.885 -7.945,-0.422 -11.527,-3.37 -1.585,-1.305 -2.328,-2.508 -3.363,-2.439 -0.692,0.046 -0.548,0.87 -0.069,1.669 0.988,1.647 1.61,2.669 3.808,4.673 2.809,2.561 5.449,4.179 6.942,5.171 3.874,2.572 10.139,4.159 15.097,4.473 0.678,0.043 0.419,0.027 1.097,0.07 1.512,0.096 2.351,0.235 4.221,0.034 9.353,-1.006 16.352,-6.209 20.798,-11.059 l 4.431,11.97 c -1.289,0.983 -2.897,2.087 -5.348,3.56 -1.168,0.702 0.04,2.187 1.839,1.053 1.087,-0.483 2.703,-1.369 4.348,-2.346 l 3.436,9.278 z M 91.932,13.841 c -1.401,-0.089 -2.608,0.982 -2.696,2.391 -0.088,1.409 0.976,2.624 2.376,2.713 1.401,0.089 2.607,-0.982 2.696,-2.391 0.088,-1.41 -0.976,-2.624 -2.376,-2.713 z"/><path id="path2999" fill="#2d3e7b" fill-opacity="1" d="m 59.45,53.934 c 0.618,-9.811 9.103,-17.29 18.91,-16.672 9.814,0.618 17.292,9.103 16.674,18.915 C 94.415,65.99 85.93,73.469 76.116,72.85 66.31,72.232 58.831,63.747 59.45,53.934"/></g></g></svg>