<svg xmlns="http://www.w3.org/2000/svg" xmlns:svg="http://www.w3.org/2000/svg" xmlns:xlink="http://www.w3.org/1999/xlink" id="svg2" width="48" height="48" version="1.1"><defs id="defs4"><linearGradient id="linearGradient930"><stop id="stop932" offset="0" stop-color="#00060b" stop-opacity="1"/><stop id="stop934" offset="1" stop-color="#004876" stop-opacity="1"/></linearGradient><linearGradient id="linearGradient867"><stop id="stop869" offset="0" stop-color="#00060b" stop-opacity="1"/><stop id="stop871" offset="1" stop-color="#001624" stop-opacity="1"/></linearGradient><linearGradient id="linearGradient3801" x1="23.204" x2="23.204" y1="1053.158" y2="1004.847" gradientUnits="userSpaceOnUse" xlink:href="#linearGradient867"/><linearGradient id="linearGradient3223"><stop id="stop3225" offset="0" stop-color="#003e69" stop-opacity="1"/><stop id="stop3227" offset="1" stop-color="#17a3ff" stop-opacity="1"/></linearGradient><linearGradient id="linearGradient856" x1="23.204" x2="23.204" y1="1053.158" y2="1004.847" gradientTransform="translate(0,-1004.3622)" gradientUnits="userSpaceOnUse" xlink:href="#linearGradient3223"/><linearGradient id="linearGradient928" x1="23.204" x2="23.204" y1="1053.158" y2="1004.847" gradientTransform="matrix(1,0,0,0.2135417,0,827.63897)" gradientUnits="userSpaceOnUse" xlink:href="#linearGradient930"/></defs><metadata id="metadata7"/><g id="layer1" transform="translate(0,-1004.3622)"><rect id="rect2991" width="48" height="48" x="0" y="1004.362" fill="url(#linearGradient3801)" fill-opacity="1" stroke="none" ry="1.945"/><path id="path3239" fill="#fff" fill-opacity="1" fill-rule="evenodd" stroke="none" d="m 24.426151,1025.1757 c -0.241983,-1.0537 1.025618,-1.6643 1.888726,-1.5514 1.687146,0.2203 2.487103,2.1095 2.098604,3.6235 -0.590766,2.302 -3.207903,3.3381 -5.353587,2.6486 -2.915618,-0.9371 -4.19363,-4.3158 -3.194823,-7.0908 1.272287,-3.535 5.419989,-5.0594 8.818425,-3.7455 4.150593,1.6047 5.92068,6.5329 4.291051,10.5581 -1.93223,4.7726 -7.637488,6.7915 -12.283273,4.8424 -5.388799,-2.2609 -7.654262,-8.7531 -5.38727,-14.0254 2.585352,-6.0126 9.857045,-8.5281 15.748128,-5.9394 6.628531,2.9128 9.39074,10.9748 6.4835,17.4924 -3.235503,7.254 -12.0776,10.2669 -19.21297,7.0366 -7.869074,-3.5624 -11.1287904,-13.1972 -7.579746,-20.9598 2.782836,-6.0866 9.14446,-9.9167 15.801718,-9.744"/><path id="rect854" fill="url(#linearGradient856)" fill-opacity="1" stroke="none" d="M 1.9375 0 C 0.99488249 0 0.21063043 0.64490644 0.03125 1.53125 C 0.029176156 1.5407091 0.033186378 1.552989 0.03125 1.5625 C 0.0093116761 1.6800874 0 1.8131379 0 1.9375 L 0 46.0625 C 0 46.19716 0.0054316262 46.310687 0.03125 46.4375 C 0.17559579 47.21118 0.76184421 47.813036 1.53125 47.96875 C 1.5407091 47.970824 1.552989 47.966814 1.5625 47.96875 C 1.6800874 47.990688 1.8131379 48 1.9375 48 L 46.0625 48 C 46.601139 48 47.066816 47.787608 47.40625 47.4375 C 47.660825 47.174919 47.843754 46.847967 47.9375 46.46875 C 47.968749 46.342344 47.989718 46.196767 48 46.0625 L 48 32.3125 C 47.907411 32.316766 47.811113 32.3125 47.71875 32.3125 C 43.13009 32.3125 39.4375 28.58866 39.4375 24 C 39.4375 19.41134 43.13009 15.6875 47.71875 15.6875 C 47.81096 15.6875 47.907419 15.683221 48 15.6875 L 48 1.9375 C 47.989718 1.8032334 47.968749 1.6576555 47.9375 1.53125 C 47.843754 1.1520334 47.660825 0.82508134 47.40625 0.5625 C 47.066816 0.21239155 46.601139 0 46.0625 0 L 1.9375 0 z" opacity=".58" transform="translate(0,1004.3622)"/><rect id="rect926" width="48" height="10.25" x="0" y="1042.112" fill="url(#linearGradient928)" fill-opacity="1" stroke="none" ry=".415"/><g id="g915" transform="translate(2.5040969e-7,-0.37499905)"><g id="g887" transform="matrix(0.7495215,0,0,0.7495215,6.2989664,262.30684)"><path id="path877" fill="#fff" fill-opacity="1" stroke="none" d="M 8.8922067,46.643425 1.7155848,42.5 8.8922071,38.356575 Z" opacity=".58" transform="matrix(-0.63042129,0,0,0.63042129,44.659781,1020.4301)"/><path id="path879" fill="#fff" fill-opacity="1" stroke="none" d="M 8.8922067,46.643425 1.7155848,42.5 8.8922071,38.356575 Z" opacity=".58" transform="matrix(-0.63042129,0,0,0.63042129,40.135485,1020.4301)"/></g><g id="g883" transform="matrix(0.7495215,0,0,0.7495215,6.2989664,262.30684)"><path id="path873" fill="#fff" fill-opacity="1" stroke="none" d="M 8.8922067,46.643425 1.7155848,42.5 8.8922071,38.356575 Z" opacity=".58" transform="matrix(0.63042128,0,0,0.63042128,2.5731092,1020.4301)"/><path id="path875" fill="#fff" fill-opacity="1" stroke="none" d="M 8.8922067,46.643425 1.7155848,42.5 8.8922071,38.356575 Z" opacity=".58" transform="matrix(0.63042128,0,0,0.63042128,7.0974047,1020.4301)"/></g><g id="g911" transform="translate(2.8125001,0)"><rect id="rect907" width="2.5" height="6.25" x="18.5" y="1044.487" fill="#fff" fill-opacity="1" stroke="none" opacity=".58" ry="0"/><rect id="rect909" width="2.5" height="6.25" x="21.375" y="1044.487" fill="#fff" fill-opacity="1" stroke="none" opacity=".58" ry="0"/></g></g><path id="rect846" fill="#000" fill-opacity="1" stroke="none" d="m 3.5e-7,1049.3622 0,1.0625 c 0,1.0773 0.860223,1.9375 1.93750005,1.9375 l 44.1249996,0 c 1.077276,0 1.9375,-0.8602 1.9375,-1.9375 l 0,-1.0625 c 0,1.0773 -0.860224,1.9375 -1.9375,1.9375 l -44.1249996,0 C 0.86022335,1051.2997 3.5e-7,1050.4395 3.5e-7,1049.3622 Z"/><path id="rect4280-4" fill="#000" fill-opacity=".392" stroke="none" d="m 1.9375004,1004.3622 c -1.07727705,0 -1.93750005,0.8602 -1.93750005,1.9375 l 0,43.0625 c 0,0.7934 0.480023,1.449 1.15625005,1.75 -0.30934205,-0.3333 -0.50000005,-0.7824 -0.50000005,-1.2812 l 0,-42.9375 c 0,-1.0482 0.82689895,-1.875 1.87500005,-1.875 l 42.9374996,0 c 1.048101,0 1.874999,0.8268 1.874999,1.875 l 0,42.9375 c 0,0.4988 -0.190658,0.9479 -0.499999,1.2812 0.676226,-0.301 1.15625,-0.9566 1.15625,-1.75 l 0,-43.0625 c 0,-1.0773 -0.860224,-1.9375 -1.9375,-1.9375 L 1.9375004,1004.3622 Z"/><path id="path7515" fill="#fff" fill-opacity=".537" stroke="none" d="m 2.5312504,1005.0185 c -0.917089,0 -1.67114705,0.6395 -1.84375005,1.5 0.33561195,-0.2799 0.77451205,-0.4375 1.25000005,-0.4375 l 44.1249996,0 c 0.475488,0 0.914388,0.1576 1.249999,0.4375 -0.172603,-0.8605 -0.926661,-1.5 -1.843749,-1.5 L 2.5312504,1005.0185 Z"/></g></svg>