<svg xmlns="http://www.w3.org/2000/svg" xmlns:svg="http://www.w3.org/2000/svg" xmlns:xlink="http://www.w3.org/1999/xlink" id="svg2" width="48" height="48" version="1.1"><defs id="defs4"><linearGradient id="linearGradient5229"><stop id="stop5231" offset="0" stop-color="#a2eb59" stop-opacity="1"/><stop id="stop5233" offset="1" stop-color="#a2eb59" stop-opacity="0"/></linearGradient><linearGradient id="linearGradient25246"><stop id="stop25248" offset="0" stop-color="#000" stop-opacity="1"/><stop id="stop25250" offset="1" stop-color="#000" stop-opacity="0"/></linearGradient><linearGradient id="linearGradient25252" x1="24.13" x2="24.13" y1="46.232" y2="43.227" gradientTransform="translate(0,1004.3622)" gradientUnits="userSpaceOnUse" xlink:href="#linearGradient25246"/><linearGradient id="linearGradient25256" x1="24.13" x2="24.13" y1="46.232" y2="43.227" gradientTransform="matrix(1,0,0,-1,0,1052.3622)" gradientUnits="userSpaceOnUse" xlink:href="#linearGradient25246"/><linearGradient id="linearGradient25260" x1="24.13" x2="24.13" y1="46.232" y2="43.227" gradientTransform="matrix(0,-1,-1,0,48,1052.3622)" gradientUnits="userSpaceOnUse" xlink:href="#linearGradient25246"/><linearGradient id="linearGradient25264" x1="24.13" x2="24.13" y1="46.232" y2="43.227" gradientTransform="matrix(0,-1,1,0,0,1052.3622)" gradientUnits="userSpaceOnUse" xlink:href="#linearGradient25246"/><linearGradient id="linearGradient6390-8"><stop id="stop6392-2" offset="0" stop-color="#fff" stop-opacity="1"/><stop id="stop6414-0" offset=".165" stop-color="#29282b" stop-opacity="1"/><stop id="stop6416-4" offset=".261" stop-color="#868c95" stop-opacity="1"/><stop id="stop6418-9" offset=".395" stop-color="#92979f" stop-opacity="1"/><stop id="stop6420-9" offset=".543" stop-color="#737881" stop-opacity="1"/><stop id="stop6422-5" offset=".626" stop-color="#70757e" stop-opacity="1"/><stop id="stop6424-1" offset=".721" stop-color="#e4e6e8" stop-opacity="1"/><stop id="stop6426-4" offset=".795" stop-color="#fff" stop-opacity="1"/><stop id="stop6394-6" offset="1" stop-color="#1d191a" stop-opacity="1"/></linearGradient><linearGradient id="linearGradient3310" x1="407.669" x2="407.669" y1="-555.928" y2="-495.714" gradientTransform="translate(-384.57144,-504.56432)" gradientUnits="userSpaceOnUse" xlink:href="#linearGradient6390-8"/><radialGradient id="radialGradient4752" cx="41" cy="1013.362" r="1.75" fx="41" fy="1013.362" gradientTransform="matrix(0.85712574,0,0,0.85712574,-25.427155,168.36839)" gradientUnits="userSpaceOnUse" xlink:href="#linearGradient5229"/><radialGradient id="radialGradient5486" cx="41" cy="1013.362" r="1.75" fx="41" fy="1013.362" gradientTransform="matrix(0.85712574,0,0,0.85712574,-25.427155,168.36839)" gradientUnits="userSpaceOnUse" xlink:href="#linearGradient5229"/><radialGradient id="radialGradient5494" cx="41" cy="1013.362" r="1.75" fx="41" fy="1013.362" gradientTransform="matrix(0.85712574,0,0,0.85712574,-25.427155,168.36839)" gradientUnits="userSpaceOnUse" xlink:href="#linearGradient5229"/><radialGradient id="radialGradient5502" cx="41" cy="1013.362" r="1.75" fx="41" fy="1013.362" gradientTransform="matrix(0.85712574,0,0,0.85712574,-25.427155,168.36839)" gradientUnits="userSpaceOnUse" xlink:href="#linearGradient5229"/><radialGradient id="radialGradient5510" cx="41" cy="1013.362" r="1.75" fx="41" fy="1013.362" gradientTransform="matrix(0.85712574,0,0,0.85712574,-25.427155,168.36839)" gradientUnits="userSpaceOnUse" xlink:href="#linearGradient5229"/><radialGradient id="radialGradient5518" cx="41" cy="1013.362" r="1.75" fx="41" fy="1013.362" gradientTransform="matrix(0.85712574,0,0,0.85712574,-25.427155,168.36839)" gradientUnits="userSpaceOnUse" xlink:href="#linearGradient5229"/><radialGradient id="radialGradient5526" cx="41" cy="1013.362" r="1.75" fx="41" fy="1013.362" gradientTransform="matrix(0.85712574,0,0,0.85712574,-25.427155,168.36839)" gradientUnits="userSpaceOnUse" xlink:href="#linearGradient5229"/><radialGradient id="radialGradient5534" cx="41" cy="1013.362" r="1.75" fx="41" fy="1013.362" gradientTransform="matrix(0.85712574,0,0,0.85712574,-25.427155,168.36839)" gradientUnits="userSpaceOnUse" xlink:href="#linearGradient5229"/><radialGradient id="radialGradient5542" cx="41" cy="1013.362" r="1.75" fx="41" fy="1013.362" gradientTransform="matrix(0.85712574,0,0,0.85712574,-25.427155,168.36839)" gradientUnits="userSpaceOnUse" xlink:href="#linearGradient5229"/><radialGradient id="radialGradient5550" cx="41" cy="1013.362" r="1.75" fx="41" fy="1013.362" gradientTransform="matrix(0.85712574,0,0,0.85712574,-25.427155,168.36839)" gradientUnits="userSpaceOnUse" xlink:href="#linearGradient5229"/><radialGradient id="radialGradient5558" cx="41" cy="1013.362" r="1.75" fx="41" fy="1013.362" gradientTransform="matrix(0.85712574,0,0,0.85712574,-25.427155,168.36839)" gradientUnits="userSpaceOnUse" xlink:href="#linearGradient5229"/><radialGradient id="radialGradient5566" cx="41" cy="1013.362" r="1.75" fx="41" fy="1013.362" gradientTransform="matrix(0.85712574,0,0,0.85712574,-25.427155,168.36839)" gradientUnits="userSpaceOnUse" xlink:href="#linearGradient5229"/><radialGradient id="radialGradient5574" cx="41" cy="1013.362" r="1.75" fx="41" fy="1013.362" gradientTransform="matrix(0.85712574,0,0,0.85712574,-25.427155,168.36839)" gradientUnits="userSpaceOnUse" xlink:href="#linearGradient5229"/><radialGradient id="radialGradient5582" cx="41" cy="1013.362" r="1.75" fx="41" fy="1013.362" gradientTransform="matrix(0.85712574,0,0,0.85712574,-25.427155,168.36839)" gradientUnits="userSpaceOnUse" xlink:href="#linearGradient5229"/><radialGradient id="radialGradient5590" cx="41" cy="1013.362" r="1.75" fx="41" fy="1013.362" gradientTransform="matrix(0.85712574,0,0,0.85712574,-25.427155,168.36839)" gradientUnits="userSpaceOnUse" xlink:href="#linearGradient5229"/><radialGradient id="radialGradient5598" cx="41" cy="1013.362" r="1.75" fx="41" fy="1013.362" gradientTransform="matrix(0.85712574,0,0,0.85712574,-25.427155,168.36839)" gradientUnits="userSpaceOnUse" xlink:href="#linearGradient5229"/><radialGradient id="radialGradient5606" cx="41" cy="1013.362" r="1.75" fx="41" fy="1013.362" gradientTransform="matrix(0.85712574,0,0,0.85712574,-25.427155,168.36839)" gradientUnits="userSpaceOnUse" xlink:href="#linearGradient5229"/><radialGradient id="radialGradient5614" cx="41" cy="1013.362" r="1.75" fx="41" fy="1013.362" gradientTransform="matrix(0.85712574,0,0,0.85712574,-25.427155,168.36839)" gradientUnits="userSpaceOnUse" xlink:href="#linearGradient5229"/><radialGradient id="radialGradient5622" cx="41" cy="1013.362" r="1.75" fx="41" fy="1013.362" gradientTransform="matrix(0.85712574,0,0,0.85712574,-25.427155,168.36839)" gradientUnits="userSpaceOnUse" xlink:href="#linearGradient5229"/><radialGradient id="radialGradient5630" cx="41" cy="1013.362" r="1.75" fx="41" fy="1013.362" gradientTransform="matrix(0.85712574,0,0,0.85712574,-25.427155,168.36839)" gradientUnits="userSpaceOnUse" xlink:href="#linearGradient5229"/><radialGradient id="radialGradient5638" cx="41" cy="1013.362" r="1.75" fx="41" fy="1013.362" gradientTransform="matrix(0.85712574,0,0,0.85712574,-25.427155,168.36839)" gradientUnits="userSpaceOnUse" xlink:href="#linearGradient5229"/><radialGradient id="radialGradient5646" cx="41" cy="1013.362" r="1.75" fx="41" fy="1013.362" gradientTransform="matrix(0.85712574,0,0,0.85712574,-25.427155,168.36839)" gradientUnits="userSpaceOnUse" xlink:href="#linearGradient5229"/><radialGradient id="radialGradient5654" cx="41" cy="1013.362" r="1.75" fx="41" fy="1013.362" gradientTransform="matrix(0.85712574,0,0,0.85712574,-25.427155,168.36839)" gradientUnits="userSpaceOnUse" xlink:href="#linearGradient5229"/><radialGradient id="radialGradient5662" cx="41" cy="1013.362" r="1.75" fx="41" fy="1013.362" gradientTransform="matrix(0.85712574,0,0,0.85712574,-25.427155,168.36839)" gradientUnits="userSpaceOnUse" xlink:href="#linearGradient5229"/><radialGradient id="radialGradient5670" cx="41" cy="1013.362" r="1.75" fx="41" fy="1013.362" gradientTransform="matrix(0.85712574,0,0,0.85712574,-25.427155,168.36839)" gradientUnits="userSpaceOnUse" xlink:href="#linearGradient5229"/><radialGradient id="radialGradient5686" cx="41" cy="1013.362" r="1.75" fx="41" fy="1013.362" gradientTransform="matrix(0.85712574,0,0,0.85712574,-25.427155,168.36839)" gradientUnits="userSpaceOnUse" xlink:href="#linearGradient5229"/><radialGradient id="radialGradient5694" cx="41" cy="1013.362" r="1.75" fx="41" fy="1013.362" gradientTransform="matrix(0.85712574,0,0,0.85712574,-25.427155,168.36839)" gradientUnits="userSpaceOnUse" xlink:href="#linearGradient5229"/><radialGradient id="radialGradient5710" cx="41" cy="1013.362" r="1.75" fx="41" fy="1013.362" gradientTransform="matrix(0.85712574,0,0,0.85712574,-25.427155,168.36839)" gradientUnits="userSpaceOnUse" xlink:href="#linearGradient5229"/><radialGradient id="radialGradient5718" cx="41" cy="1013.362" r="1.75" fx="41" fy="1013.362" gradientTransform="matrix(0.85712574,0,0,0.85712574,-25.427155,168.36839)" gradientUnits="userSpaceOnUse" xlink:href="#linearGradient5229"/><radialGradient id="radialGradient5726" cx="41" cy="1013.362" r="1.75" fx="41" fy="1013.362" gradientTransform="matrix(0.85712574,0,0,0.85712574,-25.427155,168.36839)" gradientUnits="userSpaceOnUse" xlink:href="#linearGradient5229"/><radialGradient id="radialGradient5734" cx="41" cy="1013.362" r="1.75" fx="41" fy="1013.362" gradientTransform="matrix(0.85712574,0,0,0.85712574,-25.427155,168.36839)" gradientUnits="userSpaceOnUse" xlink:href="#linearGradient5229"/><radialGradient id="radialGradient5742" cx="41" cy="1013.362" r="1.75" fx="41" fy="1013.362" gradientTransform="matrix(0.85712574,0,0,0.85712574,-25.427155,168.36839)" gradientUnits="userSpaceOnUse" xlink:href="#linearGradient5229"/><radialGradient id="radialGradient5780" cx="41" cy="1013.362" r="1.75" fx="41" fy="1013.362" gradientTransform="matrix(0.85712574,0,0,0.85712574,-25.427155,168.36839)" gradientUnits="userSpaceOnUse" xlink:href="#linearGradient5229"/><radialGradient id="radialGradient5788" cx="41" cy="1013.362" r="1.75" fx="41" fy="1013.362" gradientTransform="matrix(0.85712574,0,0,0.85712574,-25.427155,168.36839)" gradientUnits="userSpaceOnUse" xlink:href="#linearGradient5229"/><radialGradient id="radialGradient5796" cx="41" cy="1013.362" r="1.75" fx="41" fy="1013.362" gradientTransform="matrix(0.85712574,0,0,0.85712574,-25.427155,168.36839)" gradientUnits="userSpaceOnUse" xlink:href="#linearGradient5229"/><radialGradient id="radialGradient5846" cx="41" cy="1013.362" r="1.75" fx="41" fy="1013.362" gradientTransform="matrix(0.85712574,0,0,0.85712574,-25.427155,168.36839)" gradientUnits="userSpaceOnUse" xlink:href="#linearGradient5229"/><radialGradient id="radialGradient5848" cx="41" cy="1013.362" r="1.75" fx="41" fy="1013.362" gradientTransform="matrix(0.85712574,0,0,0.85712574,-25.427155,168.36839)" gradientUnits="userSpaceOnUse" xlink:href="#linearGradient5229"/><radialGradient id="radialGradient5850" cx="41" cy="1013.362" r="1.75" fx="41" fy="1013.362" gradientTransform="matrix(0.85712574,0,0,0.85712574,-25.427155,168.36839)" gradientUnits="userSpaceOnUse" xlink:href="#linearGradient5229"/><radialGradient id="radialGradient5878" cx="41" cy="1013.362" r="1.75" fx="41" fy="1013.362" gradientTransform="matrix(0.85712574,0,0,0.85712574,-25.427155,168.36839)" gradientUnits="userSpaceOnUse" xlink:href="#linearGradient5229"/><radialGradient id="radialGradient5880" cx="41" cy="1013.362" r="1.75" fx="41" fy="1013.362" gradientTransform="matrix(0.85712574,0,0,0.85712574,-25.427155,168.36839)" gradientUnits="userSpaceOnUse" xlink:href="#linearGradient5229"/><radialGradient id="radialGradient5882" cx="41" cy="1013.362" r="1.75" fx="41" fy="1013.362" gradientTransform="matrix(0.85712574,0,0,0.85712574,-25.427155,168.36839)" gradientUnits="userSpaceOnUse" xlink:href="#linearGradient5229"/><radialGradient id="radialGradient5910" cx="41" cy="1013.362" r="1.75" fx="41" fy="1013.362" gradientTransform="matrix(0.85712574,0,0,0.85712574,-25.427155,168.36839)" gradientUnits="userSpaceOnUse" xlink:href="#linearGradient5229"/><radialGradient id="radialGradient5912" cx="41" cy="1013.362" r="1.75" fx="41" fy="1013.362" gradientTransform="matrix(0.85712574,0,0,0.85712574,-25.427155,168.36839)" gradientUnits="userSpaceOnUse" xlink:href="#linearGradient5229"/><radialGradient id="radialGradient5914" cx="41" cy="1013.362" r="1.75" fx="41" fy="1013.362" gradientTransform="matrix(0.85712574,0,0,0.85712574,-25.427155,168.36839)" gradientUnits="userSpaceOnUse" xlink:href="#linearGradient5229"/><radialGradient id="radialGradient5942" cx="41" cy="1013.362" r="1.75" fx="41" fy="1013.362" gradientTransform="matrix(0.85712574,0,0,0.85712574,-25.427155,168.36839)" gradientUnits="userSpaceOnUse" xlink:href="#linearGradient5229"/><radialGradient id="radialGradient5944" cx="41" cy="1013.362" r="1.75" fx="41" fy="1013.362" gradientTransform="matrix(0.85712574,0,0,0.85712574,-25.427155,168.36839)" gradientUnits="userSpaceOnUse" xlink:href="#linearGradient5229"/><radialGradient id="radialGradient5946" cx="41" cy="1013.362" r="1.75" fx="41" fy="1013.362" gradientTransform="matrix(0.85712574,0,0,0.85712574,-25.427155,168.36839)" gradientUnits="userSpaceOnUse" xlink:href="#linearGradient5229"/><radialGradient id="radialGradient5956" cx="41" cy="1013.362" r="1.75" fx="41" fy="1013.362" gradientTransform="matrix(0.85712574,0,0,0.85712574,-25.427155,168.36839)" gradientUnits="userSpaceOnUse" xlink:href="#linearGradient5229"/><radialGradient id="radialGradient5964" cx="41" cy="1013.362" r="1.75" fx="41" fy="1013.362" gradientTransform="matrix(0.85712574,0,0,0.85712574,-25.427155,168.36839)" gradientUnits="userSpaceOnUse" xlink:href="#linearGradient5229"/><radialGradient id="radialGradient5972" cx="41" cy="1013.362" r="1.75" fx="41" fy="1013.362" gradientTransform="matrix(0.85712574,0,0,0.85712574,-25.427155,168.36839)" gradientUnits="userSpaceOnUse" xlink:href="#linearGradient5229"/><radialGradient id="radialGradient5980" cx="41" cy="1013.362" r="1.75" fx="41" fy="1013.362" gradientTransform="matrix(0.85712574,0,0,0.85712574,-25.427155,168.36839)" gradientUnits="userSpaceOnUse" xlink:href="#linearGradient5229"/><radialGradient id="radialGradient5988" cx="41" cy="1013.362" r="1.75" fx="41" fy="1013.362" gradientTransform="matrix(0.85712574,0,0,0.85712574,-25.427155,168.36839)" gradientUnits="userSpaceOnUse" xlink:href="#linearGradient5229"/><radialGradient id="radialGradient5996" cx="41" cy="1013.362" r="1.75" fx="41" fy="1013.362" gradientTransform="matrix(0.85712574,0,0,0.85712574,-25.427155,168.36839)" gradientUnits="userSpaceOnUse" xlink:href="#linearGradient5229"/><radialGradient id="radialGradient6004" cx="41" cy="1013.362" r="1.75" fx="41" fy="1013.362" gradientTransform="matrix(0.85712574,0,0,0.85712574,-25.427155,168.36839)" gradientUnits="userSpaceOnUse" xlink:href="#linearGradient5229"/><radialGradient id="radialGradient6012" cx="41" cy="1013.362" r="1.75" fx="41" fy="1013.362" gradientTransform="matrix(0.85712574,0,0,0.85712574,-25.427155,168.36839)" gradientUnits="userSpaceOnUse" xlink:href="#linearGradient5229"/><radialGradient id="radialGradient6020" cx="41" cy="1013.362" r="1.75" fx="41" fy="1013.362" gradientTransform="matrix(0.85712574,0,0,0.85712574,-25.427155,168.36839)" gradientUnits="userSpaceOnUse" xlink:href="#linearGradient5229"/><radialGradient id="radialGradient6028" cx="41" cy="1013.362" r="1.75" fx="41" fy="1013.362" gradientTransform="matrix(0.85712574,0,0,0.85712574,-25.427155,168.36839)" gradientUnits="userSpaceOnUse" xlink:href="#linearGradient5229"/><radialGradient id="radialGradient6036" cx="41" cy="1013.362" r="1.75" fx="41" fy="1013.362" gradientTransform="matrix(0.85712574,0,0,0.85712574,-25.427155,168.36839)" gradientUnits="userSpaceOnUse" xlink:href="#linearGradient5229"/><radialGradient id="radialGradient6044" cx="41" cy="1013.362" r="1.75" fx="41" fy="1013.362" gradientTransform="matrix(0.85712574,0,0,0.85712574,-25.427155,168.36839)" gradientUnits="userSpaceOnUse" xlink:href="#linearGradient5229"/><radialGradient id="radialGradient6052" cx="41" cy="1013.362" r="1.75" fx="41" fy="1013.362" gradientTransform="matrix(0.85712574,0,0,0.85712574,-25.427155,168.36839)" gradientUnits="userSpaceOnUse" xlink:href="#linearGradient5229"/><radialGradient id="radialGradient6060" cx="41" cy="1013.362" r="1.75" fx="41" fy="1013.362" gradientTransform="matrix(0.85712574,0,0,0.85712574,-25.427155,168.36839)" gradientUnits="userSpaceOnUse" xlink:href="#linearGradient5229"/><radialGradient id="radialGradient6068" cx="41" cy="1013.362" r="1.75" fx="41" fy="1013.362" gradientTransform="matrix(0.85712574,0,0,0.85712574,-25.427155,168.36839)" gradientUnits="userSpaceOnUse" xlink:href="#linearGradient5229"/><radialGradient id="radialGradient6076" cx="41" cy="1013.362" r="1.75" fx="41" fy="1013.362" gradientTransform="matrix(0.85712574,0,0,0.85712574,-25.427155,168.36839)" gradientUnits="userSpaceOnUse" xlink:href="#linearGradient5229"/><radialGradient id="radialGradient6084" cx="41" cy="1013.362" r="1.75" fx="41" fy="1013.362" gradientTransform="matrix(0.85712574,0,0,0.85712574,-25.427155,168.36839)" gradientUnits="userSpaceOnUse" xlink:href="#linearGradient5229"/><radialGradient id="radialGradient6100" cx="41" cy="1013.362" r="1.75" fx="41" fy="1013.362" gradientTransform="matrix(0.85712574,0,0,0.85712574,-25.427155,168.36839)" gradientUnits="userSpaceOnUse" xlink:href="#linearGradient5229"/><radialGradient id="radialGradient6124" cx="41" cy="1013.362" r="1.75" fx="41" fy="1013.362" gradientTransform="matrix(0.85712574,0,0,0.85712574,-25.427155,168.36839)" gradientUnits="userSpaceOnUse" xlink:href="#linearGradient5229"/><radialGradient id="radialGradient6132" cx="41" cy="1013.362" r="1.75" fx="41" fy="1013.362" gradientTransform="matrix(0.85712574,0,0,0.85712574,-25.427155,168.36839)" gradientUnits="userSpaceOnUse" xlink:href="#linearGradient5229"/><radialGradient id="radialGradient6140" cx="41" cy="1013.362" r="1.75" fx="41" fy="1013.362" gradientTransform="matrix(0.85712574,0,0,0.85712574,-25.427155,168.36839)" gradientUnits="userSpaceOnUse" xlink:href="#linearGradient5229"/></defs><metadata id="metadata7"/><g id="layer1" transform="translate(0,-1004.3622)"><rect id="rect2991-1-7" width="48" height="48" x="0" y="-1052.362" fill="url(#linearGradient3310)" fill-opacity="1" stroke="none" ry="1.945" transform="scale(1,-1)"/><flowRoot id="flowRoot61" fill="#000" fill-opacity="1" stroke="none" stroke-linecap="butt" stroke-linejoin="miter" stroke-opacity="1" stroke-width="1" font-family="sans-serif" font-size="40" font-style="normal" font-weight="normal" letter-spacing="0" word-spacing="0" xml:space="preserve" style="line-height:125%"><flowRegion id="flowRegion63"><rect id="rect65" width="57.629" height="49.321" x="-53.033" y="6.634"/></flowRegion><flowPara id="flowPara67"/></flowRoot><rect id="rect4562" width="42" height="42" x="3" y="-1049.362" fill="#000" fill-opacity=".235" stroke="none" ry="1.701" transform="scale(1,-1)"/><path id="path7515-7" fill="#fff" fill-opacity=".537" stroke="none" d="m 2.53125,1005.0185 c -0.9170884,0 -1.67114675,0.6395 -1.84374995,1.5 0.33561205,-0.2799 0.77451215,-0.4375 1.24999995,-0.4375 l 44.125,0 c 0.475488,0 0.914388,0.1576 1.25,0.4375 -0.172603,-0.8605 -0.926662,-1.5 -1.84375,-1.5 L 2.53125,1005.0185 Z"/><rect id="rect25136" width="40" height="40" x="4" y="-1048.362" fill="#3a402e" fill-opacity="1" stroke="none" ry="1.62" transform="scale(1,-1)"/><path id="rect4352" fill="#000" fill-opacity=".118" stroke="none" d="m 6.6190473,1008.3622 0,0.7143 -1.4285715,0 0,-0.6548 c -0.1752851,0.047 -0.3299191,0.1097 -0.4761905,0.2084 l 0,0.4464 -0.4464286,0 c -0.098657,0.1463 -0.161477,0.3009 -0.2083333,0.4762 l 0.6547619,0 0,1.4285 -0.7142857,0 0,0.4762 0.7142857,0 0,1.4286 -0.7142857,0 0,0.4762 0.7142857,0 0,1.4286 -0.7142857,0 0,0.4762 0.7142857,0 0,1.4285 -0.7142857,0 0,0.4762 0.7142857,0 0,1.4286 -0.7142857,0 0,0.4762 0.7142857,0 0,1.4286 -0.7142857,0 0,0.4761 0.7142857,0 0,1.4286 -0.7142857,0 0,0.4762 0.7142857,0 0,1.4286 -0.7142857,0 0,0.4762 0.7142857,0 0,1.4285 -0.7142857,0 0,0.4762 0.7142857,0 0,1.4286 -0.7142857,0 0,0.4762 0.7142857,0 0,1.4286 -0.7142857,0 0,0.4762 0.7142857,0 0,1.4285 -0.7142857,0 0,0.4762 0.7142857,0 0,1.4286 -0.7142857,0 0,0.4762 0.7142857,0 0,1.4286 -0.7142857,0 0,0.4761 0.7142857,0 0,1.4286 -0.7142857,0 0,0.4762 0.7142857,0 0,1.4286 -0.7142857,0 0,0.4762 0.7142857,0 0,1.4285 -0.7142857,0 0,0.4762 0.7142857,0 0,1.4286 -0.7142857,0 0,0.4762 0.7142857,0 0,1.4286 -0.7142857,0 0,0.4762 0.7142857,0 0,1.4285 -0.6547619,0 c 0.046856,0.1753 0.1096767,0.3299 0.2083333,0.4762 l 0.4464286,0 0,0.4464 c 0.1462714,0.099 0.3009054,0.1615 0.4761905,0.2084 l 0,-0.6548 1.4285715,0 0,0.7143 0.4761904,0 0,-0.7143 1.4285715,0 0,0.7143 0.4761905,0 0,-0.7143 1.4285713,0 0,0.7143 0.476191,0 0,-0.7143 1.428571,0 0,0.7143 0.476191,0 0,-0.7143 1.428571,0 0,0.7143 0.476191,0 0,-0.7143 1.428571,0 0,0.7143 0.47619,0 0,-0.7143 1.428572,0 0,0.7143 0.47619,0 0,-0.7143 1.428572,0 0,0.7143 0.47619,0 0,-0.7143 1.428572,0 0,0.7143 0.47619,0 0,-0.7143 1.428572,0 0,0.7143 0.47619,0 0,-0.7143 1.428572,0 0,0.7143 0.47619,0 0,-0.7143 1.428572,0 0,0.7143 0.47619,0 0,-0.7143 1.428572,0 0,0.7143 0.47619,0 0,-0.7143 1.428572,0 0,0.7143 0.47619,0 0,-0.7143 1.428571,0 0,0.7143 0.476191,0 0,-0.7143 1.428571,0 0,0.7143 0.476191,0 0,-0.7143 1.428571,0 0,0.7143 0.476191,0 0,-0.7143 1.428571,0 0,0.7143 0.476191,0 0,-0.7143 1.428571,0 0,0.7143 0.476191,0 0,-0.7143 1.428571,0 0,0.6548 c 0.175285,-0.047 0.329919,-0.1097 0.476191,-0.2084 l 0,-0.4464 0.446428,0 c 0.09866,-0.1463 0.161477,-0.3009 0.208334,-0.4762 l -0.654762,0 0,-1.4285 0.714285,0 0,-0.4762 -0.714285,0 0,-1.4286 0.714285,0 0,-0.4762 -0.714285,0 0,-1.4286 0.714285,0 0,-0.4762 -0.714285,0 0,-1.4285 0.714285,0 0,-0.4762 -0.714285,0 0,-1.4286 0.714285,0 0,-0.4762 -0.714285,0 0,-1.4286 0.714285,0 0,-0.4761 -0.714285,0 0,-1.4286 0.714285,0 0,-0.4762 -0.714285,0 0,-1.4286 0.714285,0 0,-0.4762 -0.714285,0 0,-1.4285 0.714285,0 0,-0.4762 -0.714285,0 0,-1.4286 0.714285,0 0,-0.4762 -0.714285,0 0,-1.4286 0.714285,0 0,-0.4762 -0.714285,0 0,-1.4285 0.714285,0 0,-0.4762 -0.714285,0 0,-1.4286 0.714285,0 0,-0.4762 -0.714285,0 0,-1.4286 0.714285,0 0,-0.4761 -0.714285,0 0,-1.4286 0.714285,0 0,-0.4762 -0.714285,0 0,-1.4286 0.714285,0 0,-0.4762 -0.714285,0 0,-1.4285 0.714285,0 0,-0.4762 -0.714285,0 0,-1.4286 0.714285,0 0,-0.4762 -0.714285,0 0,-1.4286 0.714285,0 0,-0.4762 -0.714285,0 0,-1.4285 0.654762,0 c -0.04686,-0.1753 -0.109678,-0.3299 -0.208334,-0.4762 l -0.446428,0 0,-0.4464 c -0.146272,-0.099 -0.300906,-0.1615 -0.476191,-0.2084 l 0,0.6548 -1.428571,0 0,-0.7143 -0.476191,0 0,0.7143 -1.428571,0 0,-0.7143 -0.476191,0 0,0.7143 -1.428571,0 0,-0.7143 -0.476191,0 0,0.7143 -1.428571,0 0,-0.7143 -0.476191,0 0,0.7143 -1.428571,0 0,-0.7143 -0.476191,0 0,0.7143 -1.428571,0 0,-0.7143 -0.47619,0 0,0.7143 -1.428572,0 0,-0.7143 -0.47619,0 0,0.7143 -1.428572,0 0,-0.7143 -0.47619,0 0,0.7143 -1.428572,0 0,-0.7143 -0.47619,0 0,0.7143 -1.428572,0 0,-0.7143 -0.47619,0 0,0.7143 -1.428572,0 0,-0.7143 -0.47619,0 0,0.7143 -1.428572,0 0,-0.7143 -0.47619,0 0,0.7143 -1.428572,0 0,-0.7143 -0.47619,0 0,0.7143 -1.428572,0 0,-0.7143 -0.47619,0 0,0.7143 -1.428571,0 0,-0.7143 -0.476191,0 0,0.7143 -1.428571,0 0,-0.7143 -0.476191,0 0,0.7143 -1.428571,0 0,-0.7143 -0.476191,0 0,0.7143 -1.4285713,0 0,-0.7143 -0.4761905,0 0,0.7143 -1.4285715,0 0,-0.7143 -0.4761904,0 z m -1.4285715,1.1905 1.4285715,0 0,1.4285 -1.4285715,0 0,-1.4285 z m 1.9047619,0 1.4285715,0 0,1.4285 -1.4285715,0 0,-1.4285 z m 1.904762,0 1.4285713,0 0,1.4285 -1.4285713,0 0,-1.4285 z m 1.9047623,0 1.428571,0 0,1.4285 -1.428571,0 0,-1.4285 z m 1.904762,0 1.428571,0 0,1.4285 -1.428571,0 0,-1.4285 z m 1.904762,0 1.428571,0 0,1.4285 -1.428571,0 0,-1.4285 z m 1.904761,0 1.428572,0 0,1.4285 -1.428572,0 0,-1.4285 z m 1.904762,0 1.428572,0 0,1.4285 -1.428572,0 0,-1.4285 z m 1.904762,0 1.428572,0 0,1.4285 -1.428572,0 0,-1.4285 z m 1.904762,0 1.428572,0 0,1.4285 -1.428572,0 0,-1.4285 z m 1.904762,0 1.428572,0 0,1.4285 -1.428572,0 0,-1.4285 z m 1.904762,0 1.428572,0 0,1.4285 -1.428572,0 0,-1.4285 z m 1.904762,0 1.428572,0 0,1.4285 -1.428572,0 0,-1.4285 z m 1.904762,0 1.428572,0 0,1.4285 -1.428572,0 0,-1.4285 z m 1.904762,0 1.428571,0 0,1.4285 -1.428571,0 0,-1.4285 z m 1.904762,0 1.428571,0 0,1.4285 -1.428571,0 0,-1.4285 z m 1.904762,0 1.428571,0 0,1.4285 -1.428571,0 0,-1.4285 z m 1.904762,0 1.428571,0 0,1.4285 -1.428571,0 0,-1.4285 z m 1.904762,0 1.428571,0 0,1.4285 -1.428571,0 0,-1.4285 z m 1.904762,0 1.428571,0 0,1.4285 -1.428571,0 0,-1.4285 z m -36.1904772,1.9047 1.4285715,0 0,1.4286 -1.4285715,0 0,-1.4286 z m 1.9047619,0 1.4285715,0 0,1.4286 -1.4285715,0 0,-1.4286 z m 1.904762,0 1.4285713,0 0,1.4286 -1.4285713,0 0,-1.4286 z m 1.9047623,0 1.428571,0 0,1.4286 -1.428571,0 0,-1.4286 z m 1.904762,0 1.428571,0 0,1.4286 -1.428571,0 0,-1.4286 z m 1.904762,0 1.428571,0 0,1.4286 -1.428571,0 0,-1.4286 z m 1.904761,0 1.428572,0 0,1.4286 -1.428572,0 0,-1.4286 z m 1.904762,0 1.428572,0 0,1.4286 -1.428572,0 0,-1.4286 z m 1.904762,0 1.428572,0 0,1.4286 -1.428572,0 0,-1.4286 z m 1.904762,0 1.428572,0 0,1.4286 -1.428572,0 0,-1.4286 z m 1.904762,0 1.428572,0 0,1.4286 -1.428572,0 0,-1.4286 z m 1.904762,0 1.428572,0 0,1.4286 -1.428572,0 0,-1.4286 z m 1.904762,0 1.428572,0 0,1.4286 -1.428572,0 0,-1.4286 z m 1.904762,0 1.428572,0 0,1.4286 -1.428572,0 0,-1.4286 z m 1.904762,0 1.428571,0 0,1.4286 -1.428571,0 0,-1.4286 z m 1.904762,0 1.428571,0 0,1.4286 -1.428571,0 0,-1.4286 z m 1.904762,0 1.428571,0 0,1.4286 -1.428571,0 0,-1.4286 z m 1.904762,0 1.428571,0 0,1.4286 -1.428571,0 0,-1.4286 z m 1.904762,0 1.428571,0 0,1.4286 -1.428571,0 0,-1.4286 z m 1.904762,0 1.428571,0 0,1.4286 -1.428571,0 0,-1.4286 z m -36.1904772,1.9048 1.4285715,0 0,1.4286 -1.4285715,0 0,-1.4286 z m 1.9047619,0 1.4285715,0 0,1.4286 -1.4285715,0 0,-1.4286 z m 1.904762,0 1.4285713,0 0,1.4286 -1.4285713,0 0,-1.4286 z m 1.9047623,0 1.428571,0 0,1.4286 -1.428571,0 0,-1.4286 z m 1.904762,0 1.428571,0 0,1.4286 -1.428571,0 0,-1.4286 z m 1.904762,0 1.428571,0 0,1.4286 -1.428571,0 0,-1.4286 z m 1.904761,0 1.428572,0 0,1.4286 -1.428572,0 0,-1.4286 z m 1.904762,0 1.428572,0 0,1.4286 -1.428572,0 0,-1.4286 z m 1.904762,0 1.428572,0 0,1.4286 -1.428572,0 0,-1.4286 z m 1.904762,0 1.428572,0 0,1.4286 -1.428572,0 0,-1.4286 z m 1.904762,0 1.428572,0 0,1.4286 -1.428572,0 0,-1.4286 z m 1.904762,0 1.428572,0 0,1.4286 -1.428572,0 0,-1.4286 z m 1.904762,0 1.428572,0 0,1.4286 -1.428572,0 0,-1.4286 z m 1.904762,0 1.428572,0 0,1.4286 -1.428572,0 0,-1.4286 z m 1.904762,0 1.428571,0 0,1.4286 -1.428571,0 0,-1.4286 z m 1.904762,0 1.428571,0 0,1.4286 -1.428571,0 0,-1.4286 z m 1.904762,0 1.428571,0 0,1.4286 -1.428571,0 0,-1.4286 z m 1.904762,0 1.428571,0 0,1.4286 -1.428571,0 0,-1.4286 z m 1.904762,0 1.428571,0 0,1.4286 -1.428571,0 0,-1.4286 z m 1.904762,0 1.428571,0 0,1.4286 -1.428571,0 0,-1.4286 z m -36.1904772,1.9048 1.4285715,0 0,1.4285 -1.4285715,0 0,-1.4285 z m 1.9047619,0 1.4285715,0 0,1.4285 -1.4285715,0 0,-1.4285 z m 1.904762,0 1.4285713,0 0,1.4285 -1.4285713,0 0,-1.4285 z m 1.9047623,0 1.428571,0 0,1.4285 -1.428571,0 0,-1.4285 z m 1.904762,0 1.428571,0 0,1.4285 -1.428571,0 0,-1.4285 z m 1.904762,0 1.428571,0 0,1.4285 -1.428571,0 0,-1.4285 z m 1.904761,0 1.428572,0 0,1.4285 -1.428572,0 0,-1.4285 z m 1.904762,0 1.428572,0 0,1.4285 -1.428572,0 0,-1.4285 z m 1.904762,0 1.428572,0 0,1.4285 -1.428572,0 0,-1.4285 z m 1.904762,0 1.428572,0 0,1.4285 -1.428572,0 0,-1.4285 z m 1.904762,0 1.428572,0 0,1.4285 -1.428572,0 0,-1.4285 z m 1.904762,0 1.428572,0 0,1.4285 -1.428572,0 0,-1.4285 z m 1.904762,0 1.428572,0 0,1.4285 -1.428572,0 0,-1.4285 z m 1.904762,0 1.428572,0 0,1.4285 -1.428572,0 0,-1.4285 z m 1.904762,0 1.428571,0 0,1.4285 -1.428571,0 0,-1.4285 z m 1.904762,0 1.428571,0 0,1.4285 -1.428571,0 0,-1.4285 z m 1.904762,0 1.428571,0 0,1.4285 -1.428571,0 0,-1.4285 z m 1.904762,0 1.428571,0 0,1.4285 -1.428571,0 0,-1.4285 z m 1.904762,0 1.428571,0 0,1.4285 -1.428571,0 0,-1.4285 z m 1.904762,0 1.428571,0 0,1.4285 -1.428571,0 0,-1.4285 z m -36.1904772,1.9047 1.4285715,0 0,1.4286 -1.4285715,0 0,-1.4286 z m 1.9047619,0 1.4285715,0 0,1.4286 -1.4285715,0 0,-1.4286 z m 1.904762,0 1.4285713,0 0,1.4286 -1.4285713,0 0,-1.4286 z m 1.9047623,0 1.428571,0 0,1.4286 -1.428571,0 0,-1.4286 z m 1.904762,0 1.428571,0 0,1.4286 -1.428571,0 0,-1.4286 z m 1.904762,0 1.428571,0 0,1.4286 -1.428571,0 0,-1.4286 z m 1.904761,0 1.428572,0 0,1.4286 -1.428572,0 0,-1.4286 z m 1.904762,0 1.428572,0 0,1.4286 -1.428572,0 0,-1.4286 z m 1.904762,0 1.428572,0 0,1.4286 -1.428572,0 0,-1.4286 z m 1.904762,0 1.428572,0 0,1.4286 -1.428572,0 0,-1.4286 z m 1.904762,0 1.428572,0 0,1.4286 -1.428572,0 0,-1.4286 z m 1.904762,0 1.428572,0 0,1.4286 -1.428572,0 0,-1.4286 z m 1.904762,0 1.428572,0 0,1.4286 -1.428572,0 0,-1.4286 z m 1.904762,0 1.428572,0 0,1.4286 -1.428572,0 0,-1.4286 z m 1.904762,0 1.428571,0 0,1.4286 -1.428571,0 0,-1.4286 z m 1.904762,0 1.428571,0 0,1.4286 -1.428571,0 0,-1.4286 z m 1.904762,0 1.428571,0 0,1.4286 -1.428571,0 0,-1.4286 z m 1.904762,0 1.428571,0 0,1.4286 -1.428571,0 0,-1.4286 z m 1.904762,0 1.428571,0 0,1.4286 -1.428571,0 0,-1.4286 z m 1.904762,0 1.428571,0 0,1.4286 -1.428571,0 0,-1.4286 z m -36.1904772,1.9048 1.4285715,0 0,1.4286 -1.4285715,0 0,-1.4286 z m 1.9047619,0 1.4285715,0 0,1.4286 -1.4285715,0 0,-1.4286 z m 1.904762,0 1.4285713,0 0,1.4286 -1.4285713,0 0,-1.4286 z m 1.9047623,0 1.428571,0 0,1.4286 -1.428571,0 0,-1.4286 z m 1.904762,0 1.428571,0 0,1.4286 -1.428571,0 0,-1.4286 z m 1.904762,0 1.428571,0 0,1.4286 -1.428571,0 0,-1.4286 z m 1.904761,0 1.428572,0 0,1.4286 -1.428572,0 0,-1.4286 z m 1.904762,0 1.428572,0 0,1.4286 -1.428572,0 0,-1.4286 z m 1.904762,0 1.428572,0 0,1.4286 -1.428572,0 0,-1.4286 z m 1.904762,0 1.428572,0 0,1.4286 -1.428572,0 0,-1.4286 z m 1.904762,0 1.428572,0 0,1.4286 -1.428572,0 0,-1.4286 z m 1.904762,0 1.428572,0 0,1.4286 -1.428572,0 0,-1.4286 z m 1.904762,0 1.428572,0 0,1.4286 -1.428572,0 0,-1.4286 z m 1.904762,0 1.428572,0 0,1.4286 -1.428572,0 0,-1.4286 z m 1.904762,0 1.428571,0 0,1.4286 -1.428571,0 0,-1.4286 z m 1.904762,0 1.428571,0 0,1.4286 -1.428571,0 0,-1.4286 z m 1.904762,0 1.428571,0 0,1.4286 -1.428571,0 0,-1.4286 z m 1.904762,0 1.428571,0 0,1.4286 -1.428571,0 0,-1.4286 z m 1.904762,0 1.428571,0 0,1.4286 -1.428571,0 0,-1.4286 z m 1.904762,0 1.428571,0 0,1.4286 -1.428571,0 0,-1.4286 z m -36.1904772,1.9047 1.4285715,0 0,1.4286 -1.4285715,0 0,-1.4286 z m 1.9047619,0 1.4285715,0 0,1.4286 -1.4285715,0 0,-1.4286 z m 1.904762,0 1.4285713,0 0,1.4286 -1.4285713,0 0,-1.4286 z m 1.9047623,0 1.428571,0 0,1.4286 -1.428571,0 0,-1.4286 z m 1.904762,0 1.428571,0 0,1.4286 -1.428571,0 0,-1.4286 z m 1.904762,0 1.428571,0 0,1.4286 -1.428571,0 0,-1.4286 z m 1.904761,0 1.428572,0 0,1.4286 -1.428572,0 0,-1.4286 z m 1.904762,0 1.428572,0 0,1.4286 -1.428572,0 0,-1.4286 z m 1.904762,0 1.428572,0 0,1.4286 -1.428572,0 0,-1.4286 z m 1.904762,0 1.428572,0 0,1.4286 -1.428572,0 0,-1.4286 z m 1.904762,0 1.428572,0 0,1.4286 -1.428572,0 0,-1.4286 z m 1.904762,0 1.428572,0 0,1.4286 -1.428572,0 0,-1.4286 z m 1.904762,0 1.428572,0 0,1.4286 -1.428572,0 0,-1.4286 z m 1.904762,0 1.428572,0 0,1.4286 -1.428572,0 0,-1.4286 z m 1.904762,0 1.428571,0 0,1.4286 -1.428571,0 0,-1.4286 z m 1.904762,0 1.428571,0 0,1.4286 -1.428571,0 0,-1.4286 z m 1.904762,0 1.428571,0 0,1.4286 -1.428571,0 0,-1.4286 z m 1.904762,0 1.428571,0 0,1.4286 -1.428571,0 0,-1.4286 z m 1.904762,0 1.428571,0 0,1.4286 -1.428571,0 0,-1.4286 z m 1.904762,0 1.428571,0 0,1.4286 -1.428571,0 0,-1.4286 z m -36.1904772,1.9048 1.4285715,0 0,1.4286 -1.4285715,0 0,-1.4286 z m 1.9047619,0 1.4285715,0 0,1.4286 -1.4285715,0 0,-1.4286 z m 1.904762,0 1.4285713,0 0,1.4286 -1.4285713,0 0,-1.4286 z m 1.9047623,0 1.428571,0 0,1.4286 -1.428571,0 0,-1.4286 z m 1.904762,0 1.428571,0 0,1.4286 -1.428571,0 0,-1.4286 z m 1.904762,0 1.428571,0 0,1.4286 -1.428571,0 0,-1.4286 z m 1.904761,0 1.428572,0 0,1.4286 -1.428572,0 0,-1.4286 z m 1.904762,0 1.428572,0 0,1.4286 -1.428572,0 0,-1.4286 z m 1.904762,0 1.428572,0 0,1.4286 -1.428572,0 0,-1.4286 z m 1.904762,0 1.428572,0 0,1.4286 -1.428572,0 0,-1.4286 z m 1.904762,0 1.428572,0 0,1.4286 -1.428572,0 0,-1.4286 z m 1.904762,0 1.428572,0 0,1.4286 -1.428572,0 0,-1.4286 z m 1.904762,0 1.428572,0 0,1.4286 -1.428572,0 0,-1.4286 z m 1.904762,0 1.428572,0 0,1.4286 -1.428572,0 0,-1.4286 z m 1.904762,0 1.428571,0 0,1.4286 -1.428571,0 0,-1.4286 z m 1.904762,0 1.428571,0 0,1.4286 -1.428571,0 0,-1.4286 z m 1.904762,0 1.428571,0 0,1.4286 -1.428571,0 0,-1.4286 z m 1.904762,0 1.428571,0 0,1.4286 -1.428571,0 0,-1.4286 z m 1.904762,0 1.428571,0 0,1.4286 -1.428571,0 0,-1.4286 z m 1.904762,0 1.428571,0 0,1.4286 -1.428571,0 0,-1.4286 z m -36.1904772,1.9048 1.4285715,0 0,1.4285 -1.4285715,0 0,-1.4285 z m 1.9047619,0 1.4285715,0 0,1.4285 -1.4285715,0 0,-1.4285 z m 1.904762,0 1.4285713,0 0,1.4285 -1.4285713,0 0,-1.4285 z m 1.9047623,0 1.428571,0 0,1.4285 -1.428571,0 0,-1.4285 z m 1.904762,0 1.428571,0 0,1.4285 -1.428571,0 0,-1.4285 z m 1.904762,0 1.428571,0 0,1.4285 -1.428571,0 0,-1.4285 z m 1.904761,0 1.428572,0 0,1.4285 -1.428572,0 0,-1.4285 z m 1.904762,0 1.428572,0 0,1.4285 -1.428572,0 0,-1.4285 z m 1.904762,0 1.428572,0 0,1.4285 -1.428572,0 0,-1.4285 z m 1.904762,0 1.428572,0 0,1.4285 -1.428572,0 0,-1.4285 z m 1.904762,0 1.428572,0 0,1.4285 -1.428572,0 0,-1.4285 z m 1.904762,0 1.428572,0 0,1.4285 -1.428572,0 0,-1.4285 z m 1.904762,0 1.428572,0 0,1.4285 -1.428572,0 0,-1.4285 z m 1.904762,0 1.428572,0 0,1.4285 -1.428572,0 0,-1.4285 z m 1.904762,0 1.428571,0 0,1.4285 -1.428571,0 0,-1.4285 z m 1.904762,0 1.428571,0 0,1.4285 -1.428571,0 0,-1.4285 z m 1.904762,0 1.428571,0 0,1.4285 -1.428571,0 0,-1.4285 z m 1.904762,0 1.428571,0 0,1.4285 -1.428571,0 0,-1.4285 z m 1.904762,0 1.428571,0 0,1.4285 -1.428571,0 0,-1.4285 z m 1.904762,0 1.428571,0 0,1.4285 -1.428571,0 0,-1.4285 z m -36.1904772,1.9047 1.4285715,0 0,1.4286 -1.4285715,0 0,-1.4286 z m 1.9047619,0 1.4285715,0 0,1.4286 -1.4285715,0 0,-1.4286 z m 1.904762,0 1.4285713,0 0,1.4286 -1.4285713,0 0,-1.4286 z m 1.9047623,0 1.428571,0 0,1.4286 -1.428571,0 0,-1.4286 z m 1.904762,0 1.428571,0 0,1.4286 -1.428571,0 0,-1.4286 z m 1.904762,0 1.428571,0 0,1.4286 -1.428571,0 0,-1.4286 z m 1.904761,0 1.428572,0 0,1.4286 -1.428572,0 0,-1.4286 z m 1.904762,0 1.428572,0 0,1.4286 -1.428572,0 0,-1.4286 z m 1.904762,0 1.428572,0 0,1.4286 -1.428572,0 0,-1.4286 z m 1.904762,0 1.428572,0 0,1.4286 -1.428572,0 0,-1.4286 z m 1.904762,0 1.428572,0 0,1.4286 -1.428572,0 0,-1.4286 z m 1.904762,0 1.428572,0 0,1.4286 -1.428572,0 0,-1.4286 z m 1.904762,0 1.428572,0 0,1.4286 -1.428572,0 0,-1.4286 z m 1.904762,0 1.428572,0 0,1.4286 -1.428572,0 0,-1.4286 z m 1.904762,0 1.428571,0 0,1.4286 -1.428571,0 0,-1.4286 z m 1.904762,0 1.428571,0 0,1.4286 -1.428571,0 0,-1.4286 z m 1.904762,0 1.428571,0 0,1.4286 -1.428571,0 0,-1.4286 z m 1.904762,0 1.428571,0 0,1.4286 -1.428571,0 0,-1.4286 z m 1.904762,0 1.428571,0 0,1.4286 -1.428571,0 0,-1.4286 z m 1.904762,0 1.428571,0 0,1.4286 -1.428571,0 0,-1.4286 z m -36.1904772,1.9048 1.4285715,0 0,1.4286 -1.4285715,0 0,-1.4286 z m 1.9047619,0 1.4285715,0 0,1.4286 -1.4285715,0 0,-1.4286 z m 1.904762,0 1.4285713,0 0,1.4286 -1.4285713,0 0,-1.4286 z m 1.9047623,0 1.428571,0 0,1.4286 -1.428571,0 0,-1.4286 z m 1.904762,0 1.428571,0 0,1.4286 -1.428571,0 0,-1.4286 z m 1.904762,0 1.428571,0 0,1.4286 -1.428571,0 0,-1.4286 z m 1.904761,0 1.428572,0 0,1.4286 -1.428572,0 0,-1.4286 z m 1.904762,0 1.428572,0 0,1.4286 -1.428572,0 0,-1.4286 z m 1.904762,0 1.428572,0 0,1.4286 -1.428572,0 0,-1.4286 z m 1.904762,0 1.428572,0 0,1.4286 -1.428572,0 0,-1.4286 z m 1.904762,0 1.428572,0 0,1.4286 -1.428572,0 0,-1.4286 z m 1.904762,0 1.428572,0 0,1.4286 -1.428572,0 0,-1.4286 z m 1.904762,0 1.428572,0 0,1.4286 -1.428572,0 0,-1.4286 z m 1.904762,0 1.428572,0 0,1.4286 -1.428572,0 0,-1.4286 z m 1.904762,0 1.428571,0 0,1.4286 -1.428571,0 0,-1.4286 z m 1.904762,0 1.428571,0 0,1.4286 -1.428571,0 0,-1.4286 z m 1.904762,0 1.428571,0 0,1.4286 -1.428571,0 0,-1.4286 z m 1.904762,0 1.428571,0 0,1.4286 -1.428571,0 0,-1.4286 z m 1.904762,0 1.428571,0 0,1.4286 -1.428571,0 0,-1.4286 z m 1.904762,0 1.428571,0 0,1.4286 -1.428571,0 0,-1.4286 z m -36.1904772,1.9048 1.4285715,0 0,1.4285 -1.4285715,0 0,-1.4285 z m 1.9047619,0 1.4285715,0 0,1.4285 -1.4285715,0 0,-1.4285 z m 1.904762,0 1.4285713,0 0,1.4285 -1.4285713,0 0,-1.4285 z m 1.9047623,0 1.428571,0 0,1.4285 -1.428571,0 0,-1.4285 z m 1.904762,0 1.428571,0 0,1.4285 -1.428571,0 0,-1.4285 z m 1.904762,0 1.428571,0 0,1.4285 -1.428571,0 0,-1.4285 z m 1.904761,0 1.428572,0 0,1.4285 -1.428572,0 0,-1.4285 z m 1.904762,0 1.428572,0 0,1.4285 -1.428572,0 0,-1.4285 z m 1.904762,0 1.428572,0 0,1.4285 -1.428572,0 0,-1.4285 z m 1.904762,0 1.428572,0 0,1.4285 -1.428572,0 0,-1.4285 z m 1.904762,0 1.428572,0 0,1.4285 -1.428572,0 0,-1.4285 z m 1.904762,0 1.428572,0 0,1.4285 -1.428572,0 0,-1.4285 z m 1.904762,0 1.428572,0 0,1.4285 -1.428572,0 0,-1.4285 z m 1.904762,0 1.428572,0 0,1.4285 -1.428572,0 0,-1.4285 z m 1.904762,0 1.428571,0 0,1.4285 -1.428571,0 0,-1.4285 z m 1.904762,0 1.428571,0 0,1.4285 -1.428571,0 0,-1.4285 z m 1.904762,0 1.428571,0 0,1.4285 -1.428571,0 0,-1.4285 z m 1.904762,0 1.428571,0 0,1.4285 -1.428571,0 0,-1.4285 z m 1.904762,0 1.428571,0 0,1.4285 -1.428571,0 0,-1.4285 z m 1.904762,0 1.428571,0 0,1.4285 -1.428571,0 0,-1.4285 z m -36.1904772,1.9047 1.4285715,0 0,1.4286 -1.4285715,0 0,-1.4286 z m 1.9047619,0 1.4285715,0 0,1.4286 -1.4285715,0 0,-1.4286 z m 1.904762,0 1.4285713,0 0,1.4286 -1.4285713,0 0,-1.4286 z m 1.9047623,0 1.428571,0 0,1.4286 -1.428571,0 0,-1.4286 z m 1.904762,0 1.428571,0 0,1.4286 -1.428571,0 0,-1.4286 z m 1.904762,0 1.428571,0 0,1.4286 -1.428571,0 0,-1.4286 z m 1.904761,0 1.428572,0 0,1.4286 -1.428572,0 0,-1.4286 z m 1.904762,0 1.428572,0 0,1.4286 -1.428572,0 0,-1.4286 z m 1.904762,0 1.428572,0 0,1.4286 -1.428572,0 0,-1.4286 z m 1.904762,0 1.428572,0 0,1.4286 -1.428572,0 0,-1.4286 z m 1.904762,0 1.428572,0 0,1.4286 -1.428572,0 0,-1.4286 z m 1.904762,0 1.428572,0 0,1.4286 -1.428572,0 0,-1.4286 z m 1.904762,0 1.428572,0 0,1.4286 -1.428572,0 0,-1.4286 z m 1.904762,0 1.428572,0 0,1.4286 -1.428572,0 0,-1.4286 z m 1.904762,0 1.428571,0 0,1.4286 -1.428571,0 0,-1.4286 z m 1.904762,0 1.428571,0 0,1.4286 -1.428571,0 0,-1.4286 z m 1.904762,0 1.428571,0 0,1.4286 -1.428571,0 0,-1.4286 z m 1.904762,0 1.428571,0 0,1.4286 -1.428571,0 0,-1.4286 z m 1.904762,0 1.428571,0 0,1.4286 -1.428571,0 0,-1.4286 z m 1.904762,0 1.428571,0 0,1.4286 -1.428571,0 0,-1.4286 z m -36.1904772,1.9048 1.4285715,0 0,1.4286 -1.4285715,0 0,-1.4286 z m 1.9047619,0 1.4285715,0 0,1.4286 -1.4285715,0 0,-1.4286 z m 1.904762,0 1.4285713,0 0,1.4286 -1.4285713,0 0,-1.4286 z m 1.9047623,0 1.428571,0 0,1.4286 -1.428571,0 0,-1.4286 z m 1.904762,0 1.428571,0 0,1.4286 -1.428571,0 0,-1.4286 z m 1.904762,0 1.428571,0 0,1.4286 -1.428571,0 0,-1.4286 z m 1.904761,0 1.428572,0 0,1.4286 -1.428572,0 0,-1.4286 z m 1.904762,0 1.428572,0 0,1.4286 -1.428572,0 0,-1.4286 z m 1.904762,0 1.428572,0 0,1.4286 -1.428572,0 0,-1.4286 z m 1.904762,0 1.428572,0 0,1.4286 -1.428572,0 0,-1.4286 z m 1.904762,0 1.428572,0 0,1.4286 -1.428572,0 0,-1.4286 z m 1.904762,0 1.428572,0 0,1.4286 -1.428572,0 0,-1.4286 z m 1.904762,0 1.428572,0 0,1.4286 -1.428572,0 0,-1.4286 z m 1.904762,0 1.428572,0 0,1.4286 -1.428572,0 0,-1.4286 z m 1.904762,0 1.428571,0 0,1.4286 -1.428571,0 0,-1.4286 z m 1.904762,0 1.428571,0 0,1.4286 -1.428571,0 0,-1.4286 z m 1.904762,0 1.428571,0 0,1.4286 -1.428571,0 0,-1.4286 z m 1.904762,0 1.428571,0 0,1.4286 -1.428571,0 0,-1.4286 z m 1.904762,0 1.428571,0 0,1.4286 -1.428571,0 0,-1.4286 z m 1.904762,0 1.428571,0 0,1.4286 -1.428571,0 0,-1.4286 z m -36.1904772,1.9047 1.4285715,0 0,1.4286 -1.4285715,0 0,-1.4286 z m 1.9047619,0 1.4285715,0 0,1.4286 -1.4285715,0 0,-1.4286 z m 1.904762,0 1.4285713,0 0,1.4286 -1.4285713,0 0,-1.4286 z m 1.9047623,0 1.428571,0 0,1.4286 -1.428571,0 0,-1.4286 z m 1.904762,0 1.428571,0 0,1.4286 -1.428571,0 0,-1.4286 z m 1.904762,0 1.428571,0 0,1.4286 -1.428571,0 0,-1.4286 z m 1.904761,0 1.428572,0 0,1.4286 -1.428572,0 0,-1.4286 z m 1.904762,0 1.428572,0 0,1.4286 -1.428572,0 0,-1.4286 z m 1.904762,0 1.428572,0 0,1.4286 -1.428572,0 0,-1.4286 z m 1.904762,0 1.428572,0 0,1.4286 -1.428572,0 0,-1.4286 z m 1.904762,0 1.428572,0 0,1.4286 -1.428572,0 0,-1.4286 z m 1.904762,0 1.428572,0 0,1.4286 -1.428572,0 0,-1.4286 z m 1.904762,0 1.428572,0 0,1.4286 -1.428572,0 0,-1.4286 z m 1.904762,0 1.428572,0 0,1.4286 -1.428572,0 0,-1.4286 z m 1.904762,0 1.428571,0 0,1.4286 -1.428571,0 0,-1.4286 z m 1.904762,0 1.428571,0 0,1.4286 -1.428571,0 0,-1.4286 z m 1.904762,0 1.428571,0 0,1.4286 -1.428571,0 0,-1.4286 z m 1.904762,0 1.428571,0 0,1.4286 -1.428571,0 0,-1.4286 z m 1.904762,0 1.428571,0 0,1.4286 -1.428571,0 0,-1.4286 z m 1.904762,0 1.428571,0 0,1.4286 -1.428571,0 0,-1.4286 z m -36.1904772,1.9048 1.4285715,0 0,1.4286 -1.4285715,0 0,-1.4286 z m 1.9047619,0 1.4285715,0 0,1.4286 -1.4285715,0 0,-1.4286 z m 1.904762,0 1.4285713,0 0,1.4286 -1.4285713,0 0,-1.4286 z m 1.9047623,0 1.428571,0 0,1.4286 -1.428571,0 0,-1.4286 z m 1.904762,0 1.428571,0 0,1.4286 -1.428571,0 0,-1.4286 z m 1.904762,0 1.428571,0 0,1.4286 -1.428571,0 0,-1.4286 z m 1.904761,0 1.428572,0 0,1.4286 -1.428572,0 0,-1.4286 z m 1.904762,0 1.428572,0 0,1.4286 -1.428572,0 0,-1.4286 z m 1.904762,0 1.428572,0 0,1.4286 -1.428572,0 0,-1.4286 z m 1.904762,0 1.428572,0 0,1.4286 -1.428572,0 0,-1.4286 z m 1.904762,0 1.428572,0 0,1.4286 -1.428572,0 0,-1.4286 z m 1.904762,0 1.428572,0 0,1.4286 -1.428572,0 0,-1.4286 z m 1.904762,0 1.428572,0 0,1.4286 -1.428572,0 0,-1.4286 z m 1.904762,0 1.428572,0 0,1.4286 -1.428572,0 0,-1.4286 z m 1.904762,0 1.428571,0 0,1.4286 -1.428571,0 0,-1.4286 z m 1.904762,0 1.428571,0 0,1.4286 -1.428571,0 0,-1.4286 z m 1.904762,0 1.428571,0 0,1.4286 -1.428571,0 0,-1.4286 z m 1.904762,0 1.428571,0 0,1.4286 -1.428571,0 0,-1.4286 z m 1.904762,0 1.428571,0 0,1.4286 -1.428571,0 0,-1.4286 z m 1.904762,0 1.428571,0 0,1.4286 -1.428571,0 0,-1.4286 z m -36.1904772,1.9048 1.4285715,0 0,1.4285 -1.4285715,0 0,-1.4285 z m 1.9047619,0 1.4285715,0 0,1.4285 -1.4285715,0 0,-1.4285 z m 1.904762,0 1.4285713,0 0,1.4285 -1.4285713,0 0,-1.4285 z m 1.9047623,0 1.428571,0 0,1.4285 -1.428571,0 0,-1.4285 z m 1.904762,0 1.428571,0 0,1.4285 -1.428571,0 0,-1.4285 z m 1.904762,0 1.428571,0 0,1.4285 -1.428571,0 0,-1.4285 z m 1.904761,0 1.428572,0 0,1.4285 -1.428572,0 0,-1.4285 z m 1.904762,0 1.428572,0 0,1.4285 -1.428572,0 0,-1.4285 z m 1.904762,0 1.428572,0 0,1.4285 -1.428572,0 0,-1.4285 z m 1.904762,0 1.428572,0 0,1.4285 -1.428572,0 0,-1.4285 z m 1.904762,0 1.428572,0 0,1.4285 -1.428572,0 0,-1.4285 z m 1.904762,0 1.428572,0 0,1.4285 -1.428572,0 0,-1.4285 z m 1.904762,0 1.428572,0 0,1.4285 -1.428572,0 0,-1.4285 z m 1.904762,0 1.428572,0 0,1.4285 -1.428572,0 0,-1.4285 z m 1.904762,0 1.428571,0 0,1.4285 -1.428571,0 0,-1.4285 z m 1.904762,0 1.428571,0 0,1.4285 -1.428571,0 0,-1.4285 z m 1.904762,0 1.428571,0 0,1.4285 -1.428571,0 0,-1.4285 z m 1.904762,0 1.428571,0 0,1.4285 -1.428571,0 0,-1.4285 z m 1.904762,0 1.428571,0 0,1.4285 -1.428571,0 0,-1.4285 z m 1.904762,0 1.428571,0 0,1.4285 -1.428571,0 0,-1.4285 z m -36.1904772,1.9047 1.4285715,0 0,1.4286 -1.4285715,0 0,-1.4286 z m 1.9047619,0 1.4285715,0 0,1.4286 -1.4285715,0 0,-1.4286 z m 1.904762,0 1.4285713,0 0,1.4286 -1.4285713,0 0,-1.4286 z m 1.9047623,0 1.428571,0 0,1.4286 -1.428571,0 0,-1.4286 z m 1.904762,0 1.428571,0 0,1.4286 -1.428571,0 0,-1.4286 z m 1.904762,0 1.428571,0 0,1.4286 -1.428571,0 0,-1.4286 z m 1.904761,0 1.428572,0 0,1.4286 -1.428572,0 0,-1.4286 z m 1.904762,0 1.428572,0 0,1.4286 -1.428572,0 0,-1.4286 z m 1.904762,0 1.428572,0 0,1.4286 -1.428572,0 0,-1.4286 z m 1.904762,0 1.428572,0 0,1.4286 -1.428572,0 0,-1.4286 z m 1.904762,0 1.428572,0 0,1.4286 -1.428572,0 0,-1.4286 z m 1.904762,0 1.428572,0 0,1.4286 -1.428572,0 0,-1.4286 z m 1.904762,0 1.428572,0 0,1.4286 -1.428572,0 0,-1.4286 z m 1.904762,0 1.428572,0 0,1.4286 -1.428572,0 0,-1.4286 z m 1.904762,0 1.428571,0 0,1.4286 -1.428571,0 0,-1.4286 z m 1.904762,0 1.428571,0 0,1.4286 -1.428571,0 0,-1.4286 z m 1.904762,0 1.428571,0 0,1.4286 -1.428571,0 0,-1.4286 z m 1.904762,0 1.428571,0 0,1.4286 -1.428571,0 0,-1.4286 z m 1.904762,0 1.428571,0 0,1.4286 -1.428571,0 0,-1.4286 z m 1.904762,0 1.428571,0 0,1.4286 -1.428571,0 0,-1.4286 z m -36.1904772,1.9048 1.4285715,0 0,1.4286 -1.4285715,0 0,-1.4286 z m 1.9047619,0 1.4285715,0 0,1.4286 -1.4285715,0 0,-1.4286 z m 1.904762,0 1.4285713,0 0,1.4286 -1.4285713,0 0,-1.4286 z m 1.9047623,0 1.428571,0 0,1.4286 -1.428571,0 0,-1.4286 z m 1.904762,0 1.428571,0 0,1.4286 -1.428571,0 0,-1.4286 z m 1.904762,0 1.428571,0 0,1.4286 -1.428571,0 0,-1.4286 z m 1.904761,0 1.428572,0 0,1.4286 -1.428572,0 0,-1.4286 z m 1.904762,0 1.428572,0 0,1.4286 -1.428572,0 0,-1.4286 z m 1.904762,0 1.428572,0 0,1.4286 -1.428572,0 0,-1.4286 z m 1.904762,0 1.428572,0 0,1.4286 -1.428572,0 0,-1.4286 z m 1.904762,0 1.428572,0 0,1.4286 -1.428572,0 0,-1.4286 z m 1.904762,0 1.428572,0 0,1.4286 -1.428572,0 0,-1.4286 z m 1.904762,0 1.428572,0 0,1.4286 -1.428572,0 0,-1.4286 z m 1.904762,0 1.428572,0 0,1.4286 -1.428572,0 0,-1.4286 z m 1.904762,0 1.428571,0 0,1.4286 -1.428571,0 0,-1.4286 z m 1.904762,0 1.428571,0 0,1.4286 -1.428571,0 0,-1.4286 z m 1.904762,0 1.428571,0 0,1.4286 -1.428571,0 0,-1.4286 z m 1.904762,0 1.428571,0 0,1.4286 -1.428571,0 0,-1.4286 z m 1.904762,0 1.428571,0 0,1.4286 -1.428571,0 0,-1.4286 z m 1.904762,0 1.428571,0 0,1.4286 -1.428571,0 0,-1.4286 z m -36.1904772,1.9048 1.4285715,0 0,1.4285 -1.4285715,0 0,-1.4285 z m 1.9047619,0 1.4285715,0 0,1.4285 -1.4285715,0 0,-1.4285 z m 1.904762,0 1.4285713,0 0,1.4285 -1.4285713,0 0,-1.4285 z m 1.9047623,0 1.428571,0 0,1.4285 -1.428571,0 0,-1.4285 z m 1.904762,0 1.428571,0 0,1.4285 -1.428571,0 0,-1.4285 z m 1.904762,0 1.428571,0 0,1.4285 -1.428571,0 0,-1.4285 z m 1.904761,0 1.428572,0 0,1.4285 -1.428572,0 0,-1.4285 z m 1.904762,0 1.428572,0 0,1.4285 -1.428572,0 0,-1.4285 z m 1.904762,0 1.428572,0 0,1.4285 -1.428572,0 0,-1.4285 z m 1.904762,0 1.428572,0 0,1.4285 -1.428572,0 0,-1.4285 z m 1.904762,0 1.428572,0 0,1.4285 -1.428572,0 0,-1.4285 z m 1.904762,0 1.428572,0 0,1.4285 -1.428572,0 0,-1.4285 z m 1.904762,0 1.428572,0 0,1.4285 -1.428572,0 0,-1.4285 z m 1.904762,0 1.428572,0 0,1.4285 -1.428572,0 0,-1.4285 z m 1.904762,0 1.428571,0 0,1.4285 -1.428571,0 0,-1.4285 z m 1.904762,0 1.428571,0 0,1.4285 -1.428571,0 0,-1.4285 z m 1.904762,0 1.428571,0 0,1.4285 -1.428571,0 0,-1.4285 z m 1.904762,0 1.428571,0 0,1.4285 -1.428571,0 0,-1.4285 z m 1.904762,0 1.428571,0 0,1.4285 -1.428571,0 0,-1.4285 z m 1.904762,0 1.428571,0 0,1.4285 -1.428571,0 0,-1.4285 z"/><g id="g5213"><path id="rect846-6" fill="#000" fill-opacity="1" stroke="none" d="m 5.3674317e-8,1049.3622 0,1.0625 c 0,1.0773 0.860222896325683,1.9375 1.937499946325683,1.9375 l 44.125,0 c 1.077277,0 1.9375,-0.8602 1.9375,-1.9375 l 0,-1.0625 c 0,1.0773 -0.860223,1.9375 -1.9375,1.9375 l -44.125,0 C 0.86022295,1051.2997 5.3674317e-8,1050.4395 5.3674317e-8,1049.3622 Z"/><path id="rect4280-1" fill="#000" fill-opacity=".392" stroke="none" d="m 1.9375,1004.3622 c -1.07727695,0 -1.937499946325683,0.8602 -1.937499946325683,1.9375 l 0,43.0625 c 0,0.7934 0.480023596325683,1.449 1.156249946325683,1.75 -0.30934165,-0.3333 -0.49999995,-0.7824 -0.49999995,-1.2812 l 0,-42.9375 c 0,-1.0482 0.82689895,-1.875 1.87499995,-1.875 l 42.9375,0 c 1.048101,0 1.875,0.8268 1.875,1.875 l 0,42.9375 c 0,0.4988 -0.190658,0.9479 -0.5,1.2812 0.676226,-0.301 1.15625,-0.9566 1.15625,-1.75 l 0,-43.0625 c 0,-1.0773 -0.860223,-1.9375 -1.9375,-1.9375 L 1.9375,1004.3622 Z"/></g><g id="g5217" transform="matrix(0.95238097,0,0,0.95238097,1.1428567,48.969608)"><path id="rect25241" fill="url(#linearGradient25252)" fill-opacity="1" stroke="none" d="m 3,1046.081 0,1.5937 c 0,0.9426 0.7448824,1.6875 1.6875,1.6875 l 38.625,0 c 0.942618,0 1.6875,-0.7449 1.6875,-1.6875 l 0,-1.5937 c 0,0.9426 -0.744882,1.6875 -1.6875,1.6875 l -38.625,0 C 3.7448824,1047.7685 3,1047.0236 3,1046.081 Z"/><path id="path25254" fill="url(#linearGradient25256)" fill-opacity="1" stroke="none" d="m 3,1010.6434 0,-1.5937 c 0,-0.9427 0.7448824,-1.6875 1.6875,-1.6875 l 38.625,0 c 0.942618,0 1.6875,0.7448 1.6875,1.6875 l 0,1.5937 c 0,-0.9426 -0.744882,-1.6875 -1.6875,-1.6875 l -38.625,0 c -0.9426176,0 -1.6875,0.7449 -1.6875,1.6875 z"/><path id="path25258" fill="url(#linearGradient25260)" fill-opacity="1" stroke="none" d="m 6.2812,1049.3622 -1.5937,0 C 3.7448,1049.3622 3,1048.6173 3,1047.6747 l 0,-38.625 c 0,-0.9426 0.7448,-1.6875 1.6875,-1.6875 l 1.5937,0 c -0.9426,0 -1.6875,0.7449 -1.6875,1.6875 l 0,38.625 c 0,0.9426 0.7449,1.6875 1.6875,1.6875 z"/><path id="path25262" fill="url(#linearGradient25264)" fill-opacity="1" stroke="none" d="m 41.7188,1049.3622 1.5937,0 c 0.9427,0 1.6875,-0.7449 1.6875,-1.6875 l 0,-38.625 c 0,-0.9426 -0.7448,-1.6875 -1.6875,-1.6875 l -1.5937,0 c 0.9426,0 1.6875,0.7449 1.6875,1.6875 l 0,38.625 c 0,0.9426 -0.7449,1.6875 -1.6875,1.6875 z"/></g><g id="g4746" transform="translate(14.285,5.415)"><path id="path4748" fill="#a2eb59" fill-opacity="1" stroke="none" d="m 9,1036.2322 1.43,0 0,1.43 -1.43,0 0,-1.43 z"/><path id="path4750" fill="url(#radialGradient4752)" fill-opacity="1" stroke="none" d="m 8.21503,1035.4472 2.99994,0 0,3 -2.99994,0 0,-3 z"/></g><g id="g5480" transform="translate(12.285,5.415)"><path id="path5482" fill="#a2eb59" fill-opacity="1" stroke="none" d="m 9,1036.2322 1.43,0 0,1.43 -1.43,0 0,-1.43 z"/><path id="path5484" fill="url(#radialGradient5486)" fill-opacity="1" stroke="none" d="m 8.21503,1035.4472 2.99994,0 0,3 -2.99994,0 0,-3 z"/></g><g id="g5488" transform="translate(10.285,5.415)"><path id="path5490" fill="#a2eb59" fill-opacity="1" stroke="none" d="m 9,1036.2322 1.43,0 0,1.43 -1.43,0 0,-1.43 z"/><path id="path5492" fill="url(#radialGradient5494)" fill-opacity="1" stroke="none" d="m 8.21503,1035.4472 2.99994,0 0,3 -2.99994,0 0,-3 z"/></g><g id="g5496" transform="translate(16.285,5.415)"><path id="path5498" fill="#a2eb59" fill-opacity="1" stroke="none" d="m 9,1036.2322 1.43,0 0,1.43 -1.43,0 0,-1.43 z"/><path id="path5500" fill="url(#radialGradient5502)" fill-opacity="1" stroke="none" d="m 8.21503,1035.4472 2.99994,0 0,3 -2.99994,0 0,-3 z"/></g><g id="g5504" transform="translate(18.285,5.415)"><path id="path5506" fill="#a2eb59" fill-opacity="1" stroke="none" d="m 9,1036.2322 1.43,0 0,1.43 -1.43,0 0,-1.43 z"/><path id="path5508" fill="url(#radialGradient5510)" fill-opacity="1" stroke="none" d="m 8.21503,1035.4472 2.99994,0 0,3 -2.99994,0 0,-3 z"/></g><g id="g5512" transform="translate(20.285,3.415)"><path id="path5514" fill="#a2eb59" fill-opacity="1" stroke="none" d="m 9,1036.2322 1.43,0 0,1.43 -1.43,0 0,-1.43 z"/><path id="path5516" fill="url(#radialGradient5518)" fill-opacity="1" stroke="none" d="m 8.21503,1035.4472 2.99994,0 0,3 -2.99994,0 0,-3 z"/></g><g id="g5520" transform="translate(20.285,1.415)"><path id="path5522" fill="#a2eb59" fill-opacity="1" stroke="none" d="m 9,1036.2322 1.43,0 0,1.43 -1.43,0 0,-1.43 z"/><path id="path5524" fill="url(#radialGradient5526)" fill-opacity="1" stroke="none" d="m 8.21503,1035.4472 2.99994,0 0,3 -2.99994,0 0,-3 z"/></g><g id="g5528" transform="translate(22.285,-0.585)"><path id="path5530" fill="#a2eb59" fill-opacity="1" stroke="none" d="m 9,1036.2322 1.43,0 0,1.43 -1.43,0 0,-1.43 z"/><path id="path5532" fill="url(#radialGradient5534)" fill-opacity="1" stroke="none" d="m 8.21503,1035.4472 2.99994,0 0,3 -2.99994,0 0,-3 z"/></g><g id="g5536" transform="translate(22.285,-2.585)"><path id="path5538" fill="#a2eb59" fill-opacity="1" stroke="none" d="m 9,1036.2322 1.43,0 0,1.43 -1.43,0 0,-1.43 z"/><path id="path5540" fill="url(#radialGradient5542)" fill-opacity="1" stroke="none" d="m 8.21503,1035.4472 2.99994,0 0,3 -2.99994,0 0,-3 z"/></g><g id="g5544" transform="translate(24.285,-4.585)"><path id="path5546" fill="#a2eb59" fill-opacity="1" stroke="none" d="m 9,1036.2322 1.43,0 0,1.43 -1.43,0 0,-1.43 z"/><path id="path5548" fill="url(#radialGradient5550)" fill-opacity="1" stroke="none" d="m 8.21503,1035.4472 2.99994,0 0,3 -2.99994,0 0,-3 z"/></g><g id="g5552" transform="translate(24.285,-6.585)"><path id="path5554" fill="#a2eb59" fill-opacity="1" stroke="none" d="m 9,1036.2322 1.43,0 0,1.43 -1.43,0 0,-1.43 z"/><path id="path5556" fill="url(#radialGradient5558)" fill-opacity="1" stroke="none" d="m 8.21503,1035.4472 2.99994,0 0,3 -2.99994,0 0,-3 z"/></g><g id="g5560" transform="translate(26.285,-6.585)"><path id="path5562" fill="#a2eb59" fill-opacity="1" stroke="none" d="m 9,1036.2322 1.43,0 0,1.43 -1.43,0 0,-1.43 z"/><path id="path5564" fill="url(#radialGradient5566)" fill-opacity="1" stroke="none" d="m 8.21503,1035.4472 2.99994,0 0,3 -2.99994,0 0,-3 z"/></g><g id="g5568" transform="translate(22.285,-6.585)"><path id="path5570" fill="#a2eb59" fill-opacity="1" stroke="none" d="m 9,1036.2322 1.43,0 0,1.43 -1.43,0 0,-1.43 z"/><path id="path5572" fill="url(#radialGradient5574)" fill-opacity="1" stroke="none" d="m 8.21503,1035.4472 2.99994,0 0,3 -2.99994,0 0,-3 z"/></g><g id="g5576" transform="translate(20.285,-6.585)"><path id="path5578" fill="#a2eb59" fill-opacity="1" stroke="none" d="m 9,1036.2322 1.43,0 0,1.43 -1.43,0 0,-1.43 z"/><path id="path5580" fill="url(#radialGradient5582)" fill-opacity="1" stroke="none" d="m 8.21503,1035.4472 2.99994,0 0,3 -2.99994,0 0,-3 z"/></g><g id="g5584" transform="translate(18.285,-6.585)"><path id="path5586" fill="#a2eb59" fill-opacity="1" stroke="none" d="m 9,1036.2322 1.43,0 0,1.43 -1.43,0 0,-1.43 z"/><path id="path5588" fill="url(#radialGradient5590)" fill-opacity="1" stroke="none" d="m 8.21503,1035.4472 2.99994,0 0,3 -2.99994,0 0,-3 z"/></g><g id="g5592" transform="translate(16.285,-6.585)"><path id="path5594" fill="#a2eb59" fill-opacity="1" stroke="none" d="m 9,1036.2322 1.43,0 0,1.43 -1.43,0 0,-1.43 z"/><path id="path5596" fill="url(#radialGradient5598)" fill-opacity="1" stroke="none" d="m 8.21503,1035.4472 2.99994,0 0,3 -2.99994,0 0,-3 z"/></g><g id="g5600" transform="translate(14.285,-6.585)"><path id="path5602" fill="#a2eb59" fill-opacity="1" stroke="none" d="m 9,1036.2322 1.43,0 0,1.43 -1.43,0 0,-1.43 z"/><path id="path5604" fill="url(#radialGradient5606)" fill-opacity="1" stroke="none" d="m 8.21503,1035.4472 2.99994,0 0,3 -2.99994,0 0,-3 z"/></g><g id="g5608" transform="translate(12.285,-6.585)"><path id="path5610" fill="#a2eb59" fill-opacity="1" stroke="none" d="m 9,1036.2322 1.43,0 0,1.43 -1.43,0 0,-1.43 z"/><path id="path5612" fill="url(#radialGradient5614)" fill-opacity="1" stroke="none" d="m 8.21503,1035.4472 2.99994,0 0,3 -2.99994,0 0,-3 z"/></g><g id="g5616" transform="translate(8.285,-6.585)"><path id="path5618" fill="#a2eb59" fill-opacity="1" stroke="none" d="m 9,1036.2322 1.43,0 0,1.43 -1.43,0 0,-1.43 z"/><path id="path5620" fill="url(#radialGradient5622)" fill-opacity="1" stroke="none" d="m 8.21503,1035.4472 2.99994,0 0,3 -2.99994,0 0,-3 z"/></g><g id="g5624" transform="translate(6.285,-6.585)"><path id="path5626" fill="#a2eb59" fill-opacity="1" stroke="none" d="m 9,1036.2322 1.43,0 0,1.43 -1.43,0 0,-1.43 z"/><path id="path5628" fill="url(#radialGradient5630)" fill-opacity="1" stroke="none" d="m 8.21503,1035.4472 2.99994,0 0,3 -2.99994,0 0,-3 z"/></g><g id="g5632" transform="translate(4.285,-6.585)"><path id="path5634" fill="#a2eb59" fill-opacity="1" stroke="none" d="m 9,1036.2322 1.43,0 0,1.43 -1.43,0 0,-1.43 z"/><path id="path5636" fill="url(#radialGradient5638)" fill-opacity="1" stroke="none" d="m 8.21503,1035.4472 2.99994,0 0,3 -2.99994,0 0,-3 z"/></g><g id="g5640" transform="translate(2.285,-6.585)"><path id="path5642" fill="#a2eb59" fill-opacity="1" stroke="none" d="m 9,1036.2322 1.43,0 0,1.43 -1.43,0 0,-1.43 z"/><path id="path5644" fill="url(#radialGradient5646)" fill-opacity="1" stroke="none" d="m 8.21503,1035.4472 2.99994,0 0,3 -2.99994,0 0,-3 z"/></g><g id="g5648" transform="translate(4.285,-4.585)"><path id="path5650" fill="#a2eb59" fill-opacity="1" stroke="none" d="m 9,1036.2322 1.43,0 0,1.43 -1.43,0 0,-1.43 z"/><path id="path5652" fill="url(#radialGradient5654)" fill-opacity="1" stroke="none" d="m 8.21503,1035.4472 2.99994,0 0,3 -2.99994,0 0,-3 z"/></g><g id="g5656" transform="translate(6.285,-2.585)"><path id="path5658" fill="#a2eb59" fill-opacity="1" stroke="none" d="m 9,1036.2322 1.43,0 0,1.43 -1.43,0 0,-1.43 z"/><path id="path5660" fill="url(#radialGradient5662)" fill-opacity="1" stroke="none" d="m 8.21503,1035.4472 2.99994,0 0,3 -2.99994,0 0,-3 z"/></g><g id="g5664" transform="translate(6.285,-0.585)"><path id="path5666" fill="#a2eb59" fill-opacity="1" stroke="none" d="m 9,1036.2322 1.43,0 0,1.43 -1.43,0 0,-1.43 z"/><path id="path5668" fill="url(#radialGradient5670)" fill-opacity="1" stroke="none" d="m 8.21503,1035.4472 2.99994,0 0,3 -2.99994,0 0,-3 z"/></g><g id="g5680" transform="translate(8.285,1.415)"><path id="path5682" fill="#a2eb59" fill-opacity="1" stroke="none" d="m 9,1036.2322 1.43,0 0,1.43 -1.43,0 0,-1.43 z"/><path id="path5684" fill="url(#radialGradient5686)" fill-opacity="1" stroke="none" d="m 8.21503,1035.4472 2.99994,0 0,3 -2.99994,0 0,-3 z"/></g><g id="g5688" transform="translate(8.285,3.415)"><path id="path5690" fill="#a2eb59" fill-opacity="1" stroke="none" d="m 9,1036.2322 1.43,0 0,1.43 -1.43,0 0,-1.43 z"/><path id="path5692" fill="url(#radialGradient5694)" fill-opacity="1" stroke="none" d="m 8.21503,1035.4472 2.99994,0 0,3 -2.99994,0 0,-3 z"/></g><g id="g5704" transform="translate(10.285,-6.585)"><path id="path5706" fill="#a2eb59" fill-opacity="1" stroke="none" d="m 9,1036.2322 1.43,0 0,1.43 -1.43,0 0,-1.43 z"/><path id="path5708" fill="url(#radialGradient5710)" fill-opacity="1" stroke="none" d="m 8.21503,1035.4472 2.99994,0 0,3 -2.99994,0 0,-3 z"/></g><g id="g5712" transform="translate(10.285,-2.585)"><path id="path5714" fill="#a2eb59" fill-opacity="1" stroke="none" d="m 9,1036.2322 1.43,0 0,1.43 -1.43,0 0,-1.43 z"/><path id="path5716" fill="url(#radialGradient5718)" fill-opacity="1" stroke="none" d="m 8.21503,1035.4472 2.99994,0 0,3 -2.99994,0 0,-3 z"/></g><g id="g5720" transform="translate(10.285,-0.585)"><path id="path5722" fill="#a2eb59" fill-opacity="1" stroke="none" d="m 9,1036.2322 1.43,0 0,1.43 -1.43,0 0,-1.43 z"/><path id="path5724" fill="url(#radialGradient5726)" fill-opacity="1" stroke="none" d="m 8.21503,1035.4472 2.99994,0 0,3 -2.99994,0 0,-3 z"/></g><g id="g5728" transform="translate(10.285,1.415)"><path id="path5730" fill="#a2eb59" fill-opacity="1" stroke="none" d="m 9,1036.2322 1.43,0 0,1.43 -1.43,0 0,-1.43 z"/><path id="path5732" fill="url(#radialGradient5734)" fill-opacity="1" stroke="none" d="m 8.21503,1035.4472 2.99994,0 0,3 -2.99994,0 0,-3 z"/></g><g id="g5736" transform="translate(12.285,1.415)"><path id="path5738" fill="#a2eb59" fill-opacity="1" stroke="none" d="m 9,1036.2322 1.43,0 0,1.43 -1.43,0 0,-1.43 z"/><path id="path5740" fill="url(#radialGradient5742)" fill-opacity="1" stroke="none" d="m 8.21503,1035.4472 2.99994,0 0,3 -2.99994,0 0,-3 z"/></g><g id="g5774" transform="translate(2.285,-8.585)"><path id="path5776" fill="#a2eb59" fill-opacity="1" stroke="none" d="m 9,1036.2322 1.43,0 0,1.43 -1.43,0 0,-1.43 z"/><path id="path5778" fill="url(#radialGradient5780)" fill-opacity="1" stroke="none" d="m 8.21503,1035.4472 2.99994,0 0,3 -2.99994,0 0,-3 z"/></g><g id="g5782" transform="translate(4.285,-10.585)"><path id="path5784" fill="#a2eb59" fill-opacity="1" stroke="none" d="m 9,1036.2322 1.43,0 0,1.43 -1.43,0 0,-1.43 z"/><path id="path5786" fill="url(#radialGradient5788)" fill-opacity="1" stroke="none" d="m 8.21503,1035.4472 2.99994,0 0,3 -2.99994,0 0,-3 z"/></g><g id="g5790" transform="translate(0.285,-10.585)"><path id="path5792" fill="#a2eb59" fill-opacity="1" stroke="none" d="m 9,1036.2322 1.43,0 0,1.43 -1.43,0 0,-1.43 z"/><path id="path5794" fill="url(#radialGradient5796)" fill-opacity="1" stroke="none" d="m 8.21503,1035.4472 2.99994,0 0,3 -2.99994,0 0,-3 z"/></g><g id="g5822" transform="translate(8.285,-8.585)"><path id="path5824" fill="#a2eb59" fill-opacity="1" stroke="none" d="m 9,1036.2322 1.43,0 0,1.43 -1.43,0 0,-1.43 z"/><path id="path5826" fill="url(#radialGradient5846)" fill-opacity="1" stroke="none" d="m 8.21503,1035.4472 2.99994,0 0,3 -2.99994,0 0,-3 z"/></g><g id="g5828" transform="translate(10.285,-10.585)"><path id="path5830" fill="#a2eb59" fill-opacity="1" stroke="none" d="m 9,1036.2322 1.43,0 0,1.43 -1.43,0 0,-1.43 z"/><path id="path5832" fill="url(#radialGradient5848)" fill-opacity="1" stroke="none" d="m 8.21503,1035.4472 2.99994,0 0,3 -2.99994,0 0,-3 z"/></g><g id="g5834" transform="translate(6.285,-10.585)"><path id="path5836" fill="#a2eb59" fill-opacity="1" stroke="none" d="m 9,1036.2322 1.43,0 0,1.43 -1.43,0 0,-1.43 z"/><path id="path5838" fill="url(#radialGradient5850)" fill-opacity="1" stroke="none" d="m 8.21503,1035.4472 2.99994,0 0,3 -2.99994,0 0,-3 z"/></g><g id="g5854" transform="translate(14.285,-8.585)"><path id="path5856" fill="#a2eb59" fill-opacity="1" stroke="none" d="m 9,1036.2322 1.43,0 0,1.43 -1.43,0 0,-1.43 z"/><path id="path5858" fill="url(#radialGradient5878)" fill-opacity="1" stroke="none" d="m 8.21503,1035.4472 2.99994,0 0,3 -2.99994,0 0,-3 z"/></g><g id="g5860" transform="translate(16.285,-10.585)"><path id="path5862" fill="#a2eb59" fill-opacity="1" stroke="none" d="m 9,1036.2322 1.43,0 0,1.43 -1.43,0 0,-1.43 z"/><path id="path5864" fill="url(#radialGradient5880)" fill-opacity="1" stroke="none" d="m 8.21503,1035.4472 2.99994,0 0,3 -2.99994,0 0,-3 z"/></g><g id="g5866" transform="translate(12.285,-10.585)"><path id="path5868" fill="#a2eb59" fill-opacity="1" stroke="none" d="m 9,1036.2322 1.43,0 0,1.43 -1.43,0 0,-1.43 z"/><path id="path5870" fill="url(#radialGradient5882)" fill-opacity="1" stroke="none" d="m 8.21503,1035.4472 2.99994,0 0,3 -2.99994,0 0,-3 z"/></g><g id="g5886" transform="translate(20.285,-8.585)"><path id="path5888" fill="#a2eb59" fill-opacity="1" stroke="none" d="m 9,1036.2322 1.43,0 0,1.43 -1.43,0 0,-1.43 z"/><path id="path5890" fill="url(#radialGradient5910)" fill-opacity="1" stroke="none" d="m 8.21503,1035.4472 2.99994,0 0,3 -2.99994,0 0,-3 z"/></g><g id="g5892" transform="translate(22.285,-10.585)"><path id="path5894" fill="#a2eb59" fill-opacity="1" stroke="none" d="m 9,1036.2322 1.43,0 0,1.43 -1.43,0 0,-1.43 z"/><path id="path5896" fill="url(#radialGradient5912)" fill-opacity="1" stroke="none" d="m 8.21503,1035.4472 2.99994,0 0,3 -2.99994,0 0,-3 z"/></g><g id="g5898" transform="translate(18.285,-10.585)"><path id="path5900" fill="#a2eb59" fill-opacity="1" stroke="none" d="m 9,1036.2322 1.43,0 0,1.43 -1.43,0 0,-1.43 z"/><path id="path5902" fill="url(#radialGradient5914)" fill-opacity="1" stroke="none" d="m 8.21503,1035.4472 2.99994,0 0,3 -2.99994,0 0,-3 z"/></g><g id="g5918" transform="translate(26.285,-8.585)"><path id="path5920" fill="#a2eb59" fill-opacity="1" stroke="none" d="m 9,1036.2322 1.43,0 0,1.43 -1.43,0 0,-1.43 z"/><path id="path5922" fill="url(#radialGradient5942)" fill-opacity="1" stroke="none" d="m 8.21503,1035.4472 2.99994,0 0,3 -2.99994,0 0,-3 z"/></g><g id="g5924" transform="translate(28.285,-10.585)"><path id="path5926" fill="#a2eb59" fill-opacity="1" stroke="none" d="m 9,1036.2322 1.43,0 0,1.43 -1.43,0 0,-1.43 z"/><path id="path5928" fill="url(#radialGradient5944)" fill-opacity="1" stroke="none" d="m 8.21503,1035.4472 2.99994,0 0,3 -2.99994,0 0,-3 z"/></g><g id="g5930" transform="translate(24.285,-10.585)"><path id="path5932" fill="#a2eb59" fill-opacity="1" stroke="none" d="m 9,1036.2322 1.43,0 0,1.43 -1.43,0 0,-1.43 z"/><path id="path5934" fill="url(#radialGradient5946)" fill-opacity="1" stroke="none" d="m 8.21503,1035.4472 2.99994,0 0,3 -2.99994,0 0,-3 z"/></g><g id="g5950" transform="translate(0.285,-12.585)"><path id="path5952" fill="#a2eb59" fill-opacity="1" stroke="none" d="m 9,1036.2322 1.43,0 0,1.43 -1.43,0 0,-1.43 z"/><path id="path5954" fill="url(#radialGradient5956)" fill-opacity="1" stroke="none" d="m 8.21503,1035.4472 2.99994,0 0,3 -2.99994,0 0,-3 z"/></g><g id="g5958" transform="translate(4.285,-12.585)"><path id="path5960" fill="#a2eb59" fill-opacity="1" stroke="none" d="m 9,1036.2322 1.43,0 0,1.43 -1.43,0 0,-1.43 z"/><path id="path5962" fill="url(#radialGradient5964)" fill-opacity="1" stroke="none" d="m 8.21503,1035.4472 2.99994,0 0,3 -2.99994,0 0,-3 z"/></g><g id="g5966" transform="translate(12.285,-12.585)"><path id="path5968" fill="#a2eb59" fill-opacity="1" stroke="none" d="m 9,1036.2322 1.43,0 0,1.43 -1.43,0 0,-1.43 z"/><path id="path5970" fill="url(#radialGradient5972)" fill-opacity="1" stroke="none" d="m 8.21503,1035.4472 2.99994,0 0,3 -2.99994,0 0,-3 z"/></g><g id="g5974" transform="translate(16.285,-12.585)"><path id="path5976" fill="#a2eb59" fill-opacity="1" stroke="none" d="m 9,1036.2322 1.43,0 0,1.43 -1.43,0 0,-1.43 z"/><path id="path5978" fill="url(#radialGradient5980)" fill-opacity="1" stroke="none" d="m 8.21503,1035.4472 2.99994,0 0,3 -2.99994,0 0,-3 z"/></g><g id="g5982" transform="translate(24.285,-12.585)"><path id="path5984" fill="#a2eb59" fill-opacity="1" stroke="none" d="m 9,1036.2322 1.43,0 0,1.43 -1.43,0 0,-1.43 z"/><path id="path5986" fill="url(#radialGradient5988)" fill-opacity="1" stroke="none" d="m 8.21503,1035.4472 2.99994,0 0,3 -2.99994,0 0,-3 z"/></g><g id="g5990" transform="translate(28.285,-12.585)"><path id="path5992" fill="#a2eb59" fill-opacity="1" stroke="none" d="m 9,1036.2322 1.43,0 0,1.43 -1.43,0 0,-1.43 z"/><path id="path5994" fill="url(#radialGradient5996)" fill-opacity="1" stroke="none" d="m 8.21503,1035.4472 2.99994,0 0,3 -2.99994,0 0,-3 z"/></g><g id="g5998" transform="translate(28.285,-14.585)"><path id="path6000" fill="#a2eb59" fill-opacity="1" stroke="none" d="m 9,1036.2322 1.43,0 0,1.43 -1.43,0 0,-1.43 z"/><path id="path6002" fill="url(#radialGradient6004)" fill-opacity="1" stroke="none" d="m 8.21503,1035.4472 2.99994,0 0,3 -2.99994,0 0,-3 z"/></g><g id="g6006" transform="translate(26.285,-16.585)"><path id="path6008" fill="#a2eb59" fill-opacity="1" stroke="none" d="m 9,1036.2322 1.43,0 0,1.43 -1.43,0 0,-1.43 z"/><path id="path6010" fill="url(#radialGradient6012)" fill-opacity="1" stroke="none" d="m 8.21503,1035.4472 2.99994,0 0,3 -2.99994,0 0,-3 z"/></g><g id="g6014" transform="translate(24.285,-18.585)"><path id="path6016" fill="#a2eb59" fill-opacity="1" stroke="none" d="m 9,1036.2322 1.43,0 0,1.43 -1.43,0 0,-1.43 z"/><path id="path6018" fill="url(#radialGradient6020)" fill-opacity="1" stroke="none" d="m 8.21503,1035.4472 2.99994,0 0,3 -2.99994,0 0,-3 z"/></g><g id="g6022" transform="translate(22.285,-20.585)"><path id="path6024" fill="#a2eb59" fill-opacity="1" stroke="none" d="m 9,1036.2322 1.43,0 0,1.43 -1.43,0 0,-1.43 z"/><path id="path6026" fill="url(#radialGradient6028)" fill-opacity="1" stroke="none" d="m 8.21503,1035.4472 2.99994,0 0,3 -2.99994,0 0,-3 z"/></g><g id="g6030" transform="translate(20.285,-22.585)"><path id="path6032" fill="#a2eb59" fill-opacity="1" stroke="none" d="m 9,1036.2322 1.43,0 0,1.43 -1.43,0 0,-1.43 z"/><path id="path6034" fill="url(#radialGradient6036)" fill-opacity="1" stroke="none" d="m 8.21503,1035.4472 2.99994,0 0,3 -2.99994,0 0,-3 z"/></g><g id="g6038" transform="translate(18.285,-24.585)"><path id="path6040" fill="#a2eb59" fill-opacity="1" stroke="none" d="m 9,1036.2322 1.43,0 0,1.43 -1.43,0 0,-1.43 z"/><path id="path6042" fill="url(#radialGradient6044)" fill-opacity="1" stroke="none" d="m 8.21503,1035.4472 2.99994,0 0,3 -2.99994,0 0,-3 z"/></g><g id="g6046" transform="translate(16.285,-24.585)"><path id="path6048" fill="#a2eb59" fill-opacity="1" stroke="none" d="m 9,1036.2322 1.43,0 0,1.43 -1.43,0 0,-1.43 z"/><path id="path6050" fill="url(#radialGradient6052)" fill-opacity="1" stroke="none" d="m 8.21503,1035.4472 2.99994,0 0,3 -2.99994,0 0,-3 z"/></g><g id="g6054" transform="translate(14.285,-24.585)"><path id="path6056" fill="#a2eb59" fill-opacity="1" stroke="none" d="m 9,1036.2322 1.43,0 0,1.43 -1.43,0 0,-1.43 z"/><path id="path6058" fill="url(#radialGradient6060)" fill-opacity="1" stroke="none" d="m 8.21503,1035.4472 2.99994,0 0,3 -2.99994,0 0,-3 z"/></g><g id="g6062" transform="translate(12.285,-24.585)"><path id="path6064" fill="#a2eb59" fill-opacity="1" stroke="none" d="m 9,1036.2322 1.43,0 0,1.43 -1.43,0 0,-1.43 z"/><path id="path6066" fill="url(#radialGradient6068)" fill-opacity="1" stroke="none" d="m 8.21503,1035.4472 2.99994,0 0,3 -2.99994,0 0,-3 z"/></g><g id="g6070" transform="translate(10.285,-24.585)"><path id="path6072" fill="#a2eb59" fill-opacity="1" stroke="none" d="m 9,1036.2322 1.43,0 0,1.43 -1.43,0 0,-1.43 z"/><path id="path6074" fill="url(#radialGradient6076)" fill-opacity="1" stroke="none" d="m 8.21503,1035.4472 2.99994,0 0,3 -2.99994,0 0,-3 z"/></g><g id="g6078" transform="translate(8.285,-22.585)"><path id="path6080" fill="#a2eb59" fill-opacity="1" stroke="none" d="m 9,1036.2322 1.43,0 0,1.43 -1.43,0 0,-1.43 z"/><path id="path6082" fill="url(#radialGradient6084)" fill-opacity="1" stroke="none" d="m 8.21503,1035.4472 2.99994,0 0,3 -2.99994,0 0,-3 z"/></g><g id="g6094" transform="translate(4.285,-18.585)"><path id="path6096" fill="#a2eb59" fill-opacity="1" stroke="none" d="m 9,1036.2322 1.43,0 0,1.43 -1.43,0 0,-1.43 z"/><path id="path6098" fill="url(#radialGradient6100)" fill-opacity="1" stroke="none" d="m 8.21503,1035.4472 2.99994,0 0,3 -2.99994,0 0,-3 z"/></g><g id="g6118" transform="translate(0.285,-14.585)"><path id="path6120" fill="#a2eb59" fill-opacity="1" stroke="none" d="m 9,1036.2322 1.43,0 0,1.43 -1.43,0 0,-1.43 z"/><path id="path6122" fill="url(#radialGradient6124)" fill-opacity="1" stroke="none" d="m 8.21503,1035.4472 2.99994,0 0,3 -2.99994,0 0,-3 z"/></g><g id="g6126" transform="translate(2.285,-16.585)"><path id="path6128" fill="#a2eb59" fill-opacity="1" stroke="none" d="m 9,1036.2322 1.43,0 0,1.43 -1.43,0 0,-1.43 z"/><path id="path6130" fill="url(#radialGradient6132)" fill-opacity="1" stroke="none" d="m 8.21503,1035.4472 2.99994,0 0,3 -2.99994,0 0,-3 z"/></g><g id="g6134" transform="translate(6.285,-20.585)"><path id="path6136" fill="#a2eb59" fill-opacity="1" stroke="none" d="m 9,1036.2322 1.43,0 0,1.43 -1.43,0 0,-1.43 z"/><path id="path6138" fill="url(#radialGradient6140)" fill-opacity="1" stroke="none" d="m 8.21503,1035.4472 2.99994,0 0,3 -2.99994,0 0,-3 z"/></g></g></svg>