<svg xmlns="http://www.w3.org/2000/svg" xmlns:svg="http://www.w3.org/2000/svg" xmlns:xlink="http://www.w3.org/1999/xlink" id="svg2" width="48" height="48" version="1.1"><defs id="defs4"><linearGradient id="linearGradient1577"><stop id="stop1579" offset="0" stop-color="#fff" stop-opacity=".498"/><stop id="stop1581" offset="1" stop-color="#fff" stop-opacity="0"/></linearGradient><linearGradient id="linearGradient1583" x1="28.77" x2="28.77" y1="47.029" y2=".882" gradientTransform="matrix(1.0482791,0,0,1.0482791,-1.158698,1003.1878)" gradientUnits="userSpaceOnUse" xlink:href="#linearGradient1577"/><style id="style874" type="text/css"><![CDATA[
    .fil0 {fill:#1F1A17}
   ]]></style><linearGradient id="linearGradient4973" x1="23.938" x2="23.938" y1="-1052.425" y2="-1004.362" gradientUnits="userSpaceOnUse" xlink:href="#linearGradient4173"/><linearGradient id="linearGradient4173"><stop id="stop4175" offset="0" stop-color="#1482cf" stop-opacity="1"/><stop id="stop4177" offset="1" stop-color="#74bef2" stop-opacity="1"/></linearGradient><linearGradient id="linearGradient4167"><stop id="stop4169" offset="0" stop-color="#bfe1f9" stop-opacity="1"/><stop id="stop4171" offset="1" stop-color="#f6fbfe" stop-opacity="1"/></linearGradient><linearGradient id="linearGradient4198" x1="25.114" x2="25.114" y1="39.794" y2="8.547" gradientTransform="matrix(0.99997462,0,0,0.99997462,2.1822351e-4,1004.3632)" gradientUnits="userSpaceOnUse" xlink:href="#linearGradient4167"/></defs><metadata id="metadata7"/><g id="layer1" transform="translate(0,-1004.3622)"><rect id="rect1448" width="48" height="48" x="0" y="-1052.362" fill="url(#linearGradient4973)" fill-opacity="1" stroke="none" ry="1.945" transform="scale(1,-1)"/><path id="rect1510" fill="url(#linearGradient1583)" fill-opacity="1" stroke="none" d="m 2.7500012,1004.3622 0,2.8928 -2.7499997604942,0 0,0.2502 2.7499997604942,0 0,3.9283 -2.7499997604942,0 0,0.2861 2.7499997604942,0 0,3.9282 -2.7499997604942,0 0,0.2503 2.7499997604942,0 0,3.9287 -2.7499997604942,0 0,0.2498 2.7499997604942,0 0,3.9286 -2.7499997604942,0 0,0.2857 2.7499997604942,0 0,3.9287 -2.7499997604942,0 0,0.2499 2.7499997604942,0 0,3.9286 -2.7499997604942,0 0,0.2857 2.7499997604942,0 0,3.9286 -2.7499997604942,0 0,0.2499 2.7499997604942,0 0,3.9286 -2.7499997604942,0 0,0.25 2.7499997604942,0 0,3.9643 -2.7499997604942,0 0,0.25 2.7499997604942,0 0,3.9286 -2.7499997604942,0 0,0.2499 2.7499997604942,0 0,2.9285 0.25,0 0,-2.9285 3.9285712,0 0,2.9285 0.2499999,0 0,-2.9285 3.9642857,0 0,2.9285 0.250001,0 0,-2.9285 3.92857,0 0,2.9285 0.250001,0 0,-2.9285 3.92857,0 0,2.9285 0.285715,0 0,-2.9285 3.92857,0 0,2.9285 0.250001,0 0,-2.9285 3.92857,0 0,2.9285 0.250001,0 0,-2.9285 3.964284,0 0,2.9285 0.250001,0 0,-2.9285 3.92857,0 0,2.9285 0.250001,0 0,-2.9285 3.928573,0 0,2.9285 0.285712,0 0,-2.9285 3.928573,0 0,2.9285 0.249998,0 0,-2.9285 3.071428,0 0,-0.2499 -3.071428,0 0,-3.9286 3.071428,0 0,-0.25 -3.071428,0 0,-3.9643 3.071428,0 0,-0.25 -3.071428,0 0,-3.9286 3.071428,0 0,-0.2499 -3.071428,0 0,-3.9286 3.071428,0 0,-0.2857 -3.071428,0 0,-3.9286 3.071428,0 0,-0.2499 -3.071428,0 0,-3.9287 3.071428,0 0,-0.2857 -3.071428,0 0,-3.9286 3.071428,0 0,-0.2498 -3.071428,0 0,-3.9287 3.071428,0 0,-0.2503 -3.071428,0 0,-3.9282 3.071428,0 0,-0.2861 -3.071428,0 0,-3.9283 3.071428,0 0,-0.2502 -3.071428,0 0,-2.8928 -0.249998,0 0,2.8928 -3.928573,0 0,-2.8928 -0.285712,0 0,2.8928 -3.928573,0 0,-2.8928 -0.250001,0 0,2.8928 -3.92857,0 0,-2.8928 -0.250001,0 0,2.8928 -3.964284,0 0,-2.8928 -0.250001,0 0,2.8928 -3.92857,0 0,-2.8928 -0.250001,0 0,2.8928 -3.92857,0 0,-2.8928 -0.285715,0 0,2.8928 -3.92857,0 0,-2.8928 -0.250001,0 0,2.8928 -3.92857,0 0,-2.8928 -0.250001,0 0,2.8928 -3.9642857,0 0,-2.8928 -0.2499999,0 0,2.8928 -3.9285712,0 0,-2.8928 -0.25,0 z m 0.25,3.143 3.9285712,0 0,3.9283 -3.9285712,0 0,-3.9283 z m 4.1785711,0 3.9642857,0 0,3.9283 -3.9642857,0 0,-3.9283 z m 4.2142867,0 3.92857,0 0,3.9283 -3.92857,0 0,-3.9283 z m 4.178571,0 3.92857,0 0,3.9283 -3.92857,0 0,-3.9283 z m 4.214285,0 3.92857,0 0,3.9283 -3.92857,0 0,-3.9283 z m 4.178571,0 3.92857,0 0,3.9283 -3.92857,0 0,-3.9283 z m 4.178571,0 3.964284,0 0,3.9283 -3.964284,0 0,-3.9283 z m 4.214285,0 3.92857,0 0,3.9283 -3.92857,0 0,-3.9283 z m 4.178571,0 3.928573,0 0,3.9283 -3.928573,0 0,-3.9283 z m 4.214285,0 3.928573,0 0,3.9283 -3.928573,0 0,-3.9283 z m -37.7499968,4.2144 3.9285712,0 0,3.9282 -3.9285712,0 0,-3.9282 z m 4.1785711,0 3.9642857,0 0,3.9282 -3.9642857,0 0,-3.9282 z m 4.2142867,0 3.92857,0 0,3.9282 -3.92857,0 0,-3.9282 z m 4.178571,0 3.92857,0 0,3.9282 -3.92857,0 0,-3.9282 z m 4.214285,0 3.92857,0 0,3.9282 -3.92857,0 0,-3.9282 z m 4.178571,0 3.92857,0 0,3.9282 -3.92857,0 0,-3.9282 z m 4.178571,0 3.964284,0 0,3.9282 -3.964284,0 0,-3.9282 z m 4.214285,0 3.92857,0 0,3.9282 -3.92857,0 0,-3.9282 z m 4.178571,0 3.928573,0 0,3.9282 -3.928573,0 0,-3.9282 z m 4.214285,0 3.928573,0 0,3.9282 -3.928573,0 0,-3.9282 z m -37.7499968,4.1785 3.9285712,0 0,3.9287 -3.9285712,0 0,-3.9287 z m 4.1785711,0 3.9642857,0 0,3.9287 -3.9642857,0 0,-3.9287 z m 4.2142867,0 3.92857,0 0,3.9287 -3.92857,0 0,-3.9287 z m 4.178571,0 3.92857,0 0,3.9287 -3.92857,0 0,-3.9287 z m 4.214285,0 3.92857,0 0,3.9287 -3.92857,0 0,-3.9287 z m 4.178571,0 3.92857,0 0,3.9287 -3.92857,0 0,-3.9287 z m 4.178571,0 3.964284,0 0,3.9287 -3.964284,0 0,-3.9287 z m 4.214285,0 3.92857,0 0,3.9287 -3.92857,0 0,-3.9287 z m 4.178571,0 3.928573,0 0,3.9287 -3.928573,0 0,-3.9287 z m 4.214285,0 3.928573,0 0,3.9287 -3.928573,0 0,-3.9287 z m -37.7499968,4.1785 3.9285712,0 0,3.9286 -3.9285712,0 0,-3.9286 z m 4.1785711,0 3.9642857,0 0,3.9286 -3.9642857,0 0,-3.9286 z m 4.2142867,0 3.92857,0 0,3.9286 -3.92857,0 0,-3.9286 z m 4.178571,0 3.92857,0 0,3.9286 -3.92857,0 0,-3.9286 z m 4.214285,0 3.92857,0 0,3.9286 -3.92857,0 0,-3.9286 z m 4.178571,0 3.92857,0 0,3.9286 -3.92857,0 0,-3.9286 z m 4.178571,0 3.964284,0 0,3.9286 -3.964284,0 0,-3.9286 z m 4.214285,0 3.92857,0 0,3.9286 -3.92857,0 0,-3.9286 z m 4.178571,0 3.928573,0 0,3.9286 -3.928573,0 0,-3.9286 z m 4.214285,0 3.928573,0 0,3.9286 -3.928573,0 0,-3.9286 z m -37.7499968,4.2143 3.9285712,0 0,3.9287 -3.9285712,0 0,-3.9287 z m 4.1785711,0 3.9642857,0 0,3.9287 -3.9642857,0 0,-3.9287 z m 4.2142867,0 3.92857,0 0,3.9287 -3.92857,0 0,-3.9287 z m 4.178571,0 3.92857,0 0,3.9287 -3.92857,0 0,-3.9287 z m 4.214285,0 3.92857,0 0,3.9287 -3.92857,0 0,-3.9287 z m 4.178571,0 3.92857,0 0,3.9287 -3.92857,0 0,-3.9287 z m 4.178571,0 3.964284,0 0,3.9287 -3.964284,0 0,-3.9287 z m 4.214285,0 3.92857,0 0,3.9287 -3.92857,0 0,-3.9287 z m 4.178571,0 3.928573,0 0,3.9287 -3.928573,0 0,-3.9287 z m 4.214285,0 3.928573,0 0,3.9287 -3.928573,0 0,-3.9287 z m -37.7499968,4.1786 3.9285712,0 0,3.9286 -3.9285712,0 0,-3.9286 z m 4.1785711,0 3.9642857,0 0,3.9286 -3.9642857,0 0,-3.9286 z m 4.2142867,0 3.92857,0 0,3.9286 -3.92857,0 0,-3.9286 z m 4.178571,0 3.92857,0 0,3.9286 -3.92857,0 0,-3.9286 z m 4.214285,0 3.92857,0 0,3.9286 -3.92857,0 0,-3.9286 z m 4.178571,0 3.92857,0 0,3.9286 -3.92857,0 0,-3.9286 z m 4.178571,0 3.964284,0 0,3.9286 -3.964284,0 0,-3.9286 z m 4.214285,0 3.92857,0 0,3.9286 -3.92857,0 0,-3.9286 z m 4.178571,0 3.928573,0 0,3.9286 -3.928573,0 0,-3.9286 z m 4.214285,0 3.928573,0 0,3.9286 -3.928573,0 0,-3.9286 z m -37.7499968,4.2143 3.9285712,0 0,3.9286 -3.9285712,0 0,-3.9286 z m 4.1785711,0 3.9642857,0 0,3.9286 -3.9642857,0 0,-3.9286 z m 4.2142867,0 3.92857,0 0,3.9286 -3.92857,0 0,-3.9286 z m 4.178571,0 3.92857,0 0,3.9286 -3.92857,0 0,-3.9286 z m 4.214285,0 3.92857,0 0,3.9286 -3.92857,0 0,-3.9286 z m 4.178571,0 3.92857,0 0,3.9286 -3.92857,0 0,-3.9286 z m 4.178571,0 3.964284,0 0,3.9286 -3.964284,0 0,-3.9286 z m 4.214285,0 3.92857,0 0,3.9286 -3.92857,0 0,-3.9286 z m 4.178571,0 3.928573,0 0,3.9286 -3.928573,0 0,-3.9286 z m 4.214285,0 3.928573,0 0,3.9286 -3.928573,0 0,-3.9286 z m -37.7499968,4.1785 3.9285712,0 0,3.9286 -3.9285712,0 0,-3.9286 z m 4.1785711,0 3.9642857,0 0,3.9286 -3.9642857,0 0,-3.9286 z m 4.2142867,0 3.92857,0 0,3.9286 -3.92857,0 0,-3.9286 z m 4.178571,0 3.92857,0 0,3.9286 -3.92857,0 0,-3.9286 z m 4.214285,0 3.92857,0 0,3.9286 -3.92857,0 0,-3.9286 z m 4.178571,0 3.92857,0 0,3.9286 -3.92857,0 0,-3.9286 z m 4.178571,0 3.964284,0 0,3.9286 -3.964284,0 0,-3.9286 z m 4.214285,0 3.92857,0 0,3.9286 -3.92857,0 0,-3.9286 z m 4.178571,0 3.928573,0 0,3.9286 -3.928573,0 0,-3.9286 z m 4.214285,0 3.928573,0 0,3.9286 -3.928573,0 0,-3.9286 z m -37.7499968,4.1786 3.9285712,0 0,3.9643 -3.9285712,0 0,-3.9643 z m 4.1785711,0 3.9642857,0 0,3.9643 -3.9642857,0 0,-3.9643 z m 4.2142867,0 3.92857,0 0,3.9643 -3.92857,0 0,-3.9643 z m 4.178571,0 3.92857,0 0,3.9643 -3.92857,0 0,-3.9643 z m 4.214285,0 3.92857,0 0,3.9643 -3.92857,0 0,-3.9643 z m 4.178571,0 3.92857,0 0,3.9643 -3.92857,0 0,-3.9643 z m 4.178571,0 3.964284,0 0,3.9643 -3.964284,0 0,-3.9643 z m 4.214285,0 3.92857,0 0,3.9643 -3.92857,0 0,-3.9643 z m 4.178571,0 3.928573,0 0,3.9643 -3.928573,0 0,-3.9643 z m 4.214285,0 3.928573,0 0,3.9643 -3.928573,0 0,-3.9643 z m -37.7499968,4.2143 3.9285712,0 0,3.9286 -3.9285712,0 0,-3.9286 z m 4.1785711,0 3.9642857,0 0,3.9286 -3.9642857,0 0,-3.9286 z m 4.2142867,0 3.92857,0 0,3.9286 -3.92857,0 0,-3.9286 z m 4.178571,0 3.92857,0 0,3.9286 -3.92857,0 0,-3.9286 z m 4.214285,0 3.92857,0 0,3.9286 -3.92857,0 0,-3.9286 z m 4.178571,0 3.92857,0 0,3.9286 -3.92857,0 0,-3.9286 z m 4.178571,0 3.964284,0 0,3.9286 -3.964284,0 0,-3.9286 z m 4.214285,0 3.92857,0 0,3.9286 -3.92857,0 0,-3.9286 z m 4.178571,0 3.928573,0 0,3.9286 -3.928573,0 0,-3.9286 z m 4.214285,0 3.928573,0 0,3.9286 -3.928573,0 0,-3.9286 z" opacity=".385"/><path id="path7515-2" fill="#fff" fill-opacity=".537" stroke="none" d="m 2.5312491,1005.0185 c -0.917088,0 -1.67114701,0.6395 -1.84375001,1.5 0.33561201,-0.2799 0.77451201,-0.4375 1.25000001,-0.4375 l 44.1249999,0 c 0.475488,0 0.914388,0.1576 1.25,0.4375 -0.172603,-0.8605 -0.926662,-1.5 -1.84375,-1.5 l -42.9374999,0 z"/><path id="rect4280-9" fill="#000" fill-opacity=".392" stroke="none" d="m 1.9374991,1004.3622 c -1.07727701,0 -1.93750000734863,0.8602 -1.93750000734863,1.9375 l 0,43.0625 c 0,0.7934 0.48002399734863,1.449 1.15625000734863,1.75 -0.30934201,-0.3333 -0.50000001,-0.7824 -0.50000001,-1.2812 l 0,-42.9375 c 0,-1.0482 0.82689901,-1.875 1.87500001,-1.875 l 42.9374999,0 c 1.048101,0 1.875,0.8268 1.875,1.875 l 0,42.9375 c 0,0.4988 -0.190658,0.9479 -0.5,1.2812 0.676226,-0.301 1.15625,-0.9566 1.15625,-1.75 l 0,-43.0625 c 0,-1.0773 -0.860223,-1.9375 -1.9375,-1.9375 l -44.1249999,0 z"/><path id="rect846-6" fill="#000" fill-opacity="1" stroke="none" d="m -9.0734863e-7,1049.3622 0,1.0625 c 0,1.0773 0.86022299734863,1.9375 1.93750000734863,1.9375 l 44.1249999,0 c 1.077277,0 1.9375,-0.8602 1.9375,-1.9375 l 0,-1.0625 c 0,1.0773 -0.860223,1.9375 -1.9375,1.9375 l -44.1249999,0 c -1.07727701,0 -1.93750000734863,-0.8602 -1.93750000734863,-1.9375 z"/><path id="path4264" fill="#000" fill-opacity=".059" stroke="none" d="m 14.75961,1014.1622 0,7.1873 18.479999,0 0,-7.1873 -18.479999,0 z m -6.1600006,10.2673 0,14.3727 6.1600006,0 0,6.16 18.479999,0 0,-6.16 6.16,0 0,-14.3727 -30.7999996,0 z m 8.2126826,7.1853 14.374635,0 0,7.1874 0,4.1074 -14.374635,0 0,-4.1074 0,-7.1874 z"/><path id="path4262" fill="#000" fill-opacity=".118" stroke="none" d="m 14.75961,1013.7622 0,7.1873 18.479999,0 0,-7.1873 -18.479999,0 z m -6.1600006,10.2673 0,14.3727 6.1600006,0 0,6.16 18.479999,0 0,-6.16 6.16,0 0,-14.3727 -30.7999996,0 z m 8.2126826,7.1853 14.374635,0 0,7.1874 0,4.1074 -14.374635,0 0,-4.1074 0,-7.1874 z"/><path id="path4258" fill="#000" fill-opacity=".235" stroke="none" d="m 14.75961,1013.3622 0,7.1873 18.479999,0 0,-7.1873 -18.479999,0 z m -6.1600006,10.2673 0,14.3727 6.1600006,0 0,6.16 18.479999,0 0,-6.16 6.16,0 0,-14.3727 -30.7999996,0 z m 8.2126826,7.1853 14.374635,0 0,7.1874 0,4.1074 -14.374635,0 0,-4.1074 0,-7.1874 z"/><path id="rect3234" fill="url(#linearGradient4198)" fill-opacity="1" stroke="none" d="m 14.75961,1012.9626 0,7.1873 18.479999,0 0,-7.1873 -18.479999,0 z m -6.1600006,10.2673 0,14.3727 6.1600006,0 0,6.16 18.479999,0 0,-6.16 6.16,0 0,-14.3727 -30.7999996,0 z m 8.2126826,7.1854 14.374635,0 0,7.1873 0,4.1073 -14.374635,0 0,-4.1073 0,-7.1873 z"/><path id="path4270" fill="#1c87d2" fill-opacity=".314" stroke="none" d="M 14.759766 14.986328 L 14.759766 15.787109 L 33.240234 15.787109 L 33.240234 14.986328 L 14.759766 14.986328 z M 16.8125 25.251953 L 16.8125 26.052734 L 31.1875 26.052734 L 31.1875 25.251953 L 16.8125 25.251953 z M 8.5996094 32.439453 L 8.5996094 33.240234 L 14.759766 33.240234 L 14.759766 32.439453 L 8.5996094 32.439453 z M 33.240234 32.439453 L 33.240234 33.240234 L 39.400391 33.240234 L 39.400391 32.439453 L 33.240234 32.439453 z M 14.759766 38.599609 L 14.759766 39.400391 L 33.240234 39.400391 L 33.240234 38.599609 L 14.759766 38.599609 z" transform="translate(0,1004.3622)"/><path id="path4275" fill="#fff" fill-opacity=".235" stroke="none" d="M 14.759766 8.5996094 L 14.759766 9 L 33.240234 9 L 33.240234 8.5996094 L 14.759766 8.5996094 z M 8.5996094 18.867188 L 8.5996094 19.267578 L 39.400391 19.267578 L 39.400391 18.867188 L 8.5996094 18.867188 z M 16.8125 37.347656 L 16.8125 37.748047 L 31.1875 37.748047 L 31.1875 37.347656 L 16.8125 37.347656 z" transform="translate(0,1004.3622)"/></g></svg>