<svg xmlns="http://www.w3.org/2000/svg" xmlns:svg="http://www.w3.org/2000/svg" xmlns:xlink="http://www.w3.org/1999/xlink" id="svg2" width="48" height="48" version="1.1"><defs id="defs4"><linearGradient id="linearGradient4872"><stop id="stop4874" offset="0" stop-color="#000" stop-opacity="0"/><stop id="stop4876" offset="1" stop-color="#000" stop-opacity=".404"/></linearGradient><linearGradient id="linearGradient1711" x1="22.49" x2="22.49" y1="-1052.37" y2="-1004.364" gradientTransform="translate(-3.8085936e-8,-2.5343751e-6)" gradientUnits="userSpaceOnUse" xlink:href="#linearGradient1373"/><linearGradient id="linearGradient4169"><stop id="stop4171" offset="0" stop-color="#e2f4c4" stop-opacity="1"/><stop id="stop4173" offset="1" stop-color="#fdfff5" stop-opacity="1"/></linearGradient><linearGradient id="linearGradient4181" x1="10.41" x2="10.41" y1="13.991" y2="2.012" gradientTransform="matrix(2.5666667,0,0,2.5666667,-55.35834,990.61949)" gradientUnits="userSpaceOnUse" xlink:href="#linearGradient4169"/><linearGradient id="linearGradient4185" x1="10.41" x2="10.41" y1="13.991" y2="2.012" gradientTransform="matrix(2.5666667,0,0,2.5666667,-55.35834,990.61949)" gradientUnits="userSpaceOnUse" xlink:href="#linearGradient4169"/><linearGradient id="linearGradient1373"><stop id="stop1375" offset="0" stop-color="#282827" stop-opacity="1"/><stop id="stop1377" offset="1" stop-color="#292929" stop-opacity="1"/></linearGradient><linearGradient id="linearGradient4335" x1="25.319" x2="25.319" y1="1043.805" y2="1013.095" gradientUnits="userSpaceOnUse" xlink:href="#linearGradient4175"/><linearGradient id="linearGradient4175"><stop id="stop4177" offset="0" stop-color="#1ecb08" stop-opacity=".996"/><stop id="stop4179" offset=".132" stop-color="#b9f177" stop-opacity="1"/><stop id="stop4181" offset=".334" stop-color="#9ae63f" stop-opacity="1"/><stop id="stop4183" offset=".615" stop-color="#41bd18" stop-opacity="1"/><stop id="stop4610" offset=".855" stop-color="#27d410" stop-opacity="1"/><stop id="stop4185" offset="1" stop-color="#2ca815" stop-opacity="1"/></linearGradient><linearGradient id="linearGradient4878" x1="25.197" x2="25.197" y1="1043.576" y2="1012.992" gradientTransform="translate(-4.9999997e-8,0.6)" gradientUnits="userSpaceOnUse" xlink:href="#linearGradient4872"/></defs><metadata id="metadata7"/><g id="layer1" transform="translate(0,-1004.3622)"><rect id="rect2991-1" width="48" height="48" x="0" y="-1052.362" fill="url(#linearGradient1711)" fill-opacity="1" stroke="none" ry="1.945" transform="scale(1,-1)"/><path id="path4886" fill="#000" fill-opacity=".059" fill-rule="nonzero" stroke="none" d="m 9,1019.2955 12.433333,0 0,-5.1333 5.133333,0 0,5.1333 12.433334,0 0,5.1334 -12.433334,0 0,5.1333 5.133335,0 0,15.4 -5.133334,0 0,-10.2667 -5.133333,0 0,10.2667 -5.133333,0 0,-15.4 5.133333,0 0,-5.1333 -12.433334,0"/><path id="path4884" fill="#000" fill-opacity=".118" fill-rule="nonzero" stroke="none" d="m 9,1018.8955 12.433333,0 0,-5.1333 5.133333,0 0,5.1333 12.433334,0 0,5.1334 -12.433334,0 0,5.1333 5.133335,0 0,15.4 -5.133334,0 0,-10.2667 -5.133333,0 0,10.2667 -5.133333,0 0,-15.4 5.133333,0 0,-5.1333 -12.433334,0"/><path id="path4880" fill="#000" fill-opacity=".235" fill-rule="nonzero" stroke="none" d="m 9,1018.4955 12.433333,0 0,-5.1333 5.133333,0 0,5.1333 12.433334,0 0,5.1334 -12.433334,0 0,5.1333 5.133335,0 0,15.4 -5.133334,0 0,-10.2667 -5.133333,0 0,10.2667 -5.133333,0 0,-15.4 5.133333,0 0,-5.1333 -12.433334,0"/><path id="rect846" fill="#000" fill-opacity="1" stroke="none" d="m -3.8085936e-8,1049.3622 0,1.0625 c 0,1.0773 0.860222898085936,1.9375 1.937499938085936,1.9375 l 44.1250001,0 c 1.077277,0 1.9375,-0.8602 1.9375,-1.9375 l 0,-1.0625 c 0,1.0773 -0.860223,1.9375 -1.9375,1.9375 l -44.1250001,0 C 0.86022286,1051.2997 -3.8085936e-8,1050.4395 -3.8085936e-8,1049.3622 Z"/><path id="path7515" fill="#fff" fill-opacity=".537" stroke="none" d="m 2.5312499,1005.0185 c -0.9170884,0 -1.67114674,0.6395 -1.84374994,1.5 0.33561204,-0.2799 0.77451214,-0.4375 1.24999994,-0.4375 l 44.1250001,0 c 0.475488,0 0.914388,0.1576 1.25,0.4375 -0.172603,-0.8605 -0.926662,-1.5 -1.84375,-1.5 L 2.5312499,1005.0185 Z"/><path id="rect4280" fill="#000" fill-opacity=".392" stroke="none" d="m 1.9374999,1004.3622 c -1.07727694,0 -1.937499938085938,0.8602 -1.937499938085938,1.9375 l 0,43.0625 c 0,0.7934 0.480023998085938,1.449 1.156249938085938,1.75 -0.30934164,-0.3333 -0.49999994,-0.7824 -0.49999994,-1.2812 l 0,-42.9375 c 0,-1.0482 0.82689894,-1.875 1.87499994,-1.875 l 42.9375001,0 c 1.048101,0 1.875,0.8268 1.875,1.875 l 0,42.9375 c 0,0.4988 -0.190658,0.9479 -0.5,1.2812 0.676226,-0.301 1.15625,-0.9566 1.15625,-1.75 l 0,-43.0625 c 0,-1.0773 -0.860223,-1.9375 -1.9375,-1.9375 L 1.9374999,1004.3622 Z"/><rect id="rect4898" width="56.467" height="56.467" x="-55.358" y="990.62" fill="url(#linearGradient4181)" fill-opacity="1" fill-rule="nonzero" stroke="none" display="none"/><rect id="rect4126" width="56.467" height="56.467" x="-55.358" y="990.62" fill="url(#linearGradient4185)" fill-opacity="1" fill-rule="nonzero" stroke="none" display="none"/><path id="path4274-7" fill="url(#linearGradient4335)" fill-opacity="1" fill-rule="nonzero" stroke="none" d="m 9,1018.0955 12.433333,0 0,-5.1333 5.133333,0 0,5.1333 12.433334,0 0,5.1334 -12.433334,0 0,5.1333 5.133335,0 0,15.4 -5.133334,0 0,-10.2667 -5.133333,0 0,10.2667 -5.133333,0 0,-15.4 5.133333,0 0,-5.1333 -12.433334,0"/><path id="path4854" fill="url(#linearGradient4878)" fill-opacity="1" fill-rule="nonzero" stroke="none" d="m 9,1018.6955 12.433333,0 0,-5.1333 5.133333,0 0,5.1333 12.433334,0 0,5.1334 -12.433334,0 0,5.1333 5.133335,0 0,15.4 -5.133334,0 0,-10.2667 -5.133333,0 0,10.2667 -5.133333,0 0,-15.4 5.133333,0 0,-5.1333 -12.4333341,0"/></g></svg>