<svg xmlns="http://www.w3.org/2000/svg" xmlns:svg="http://www.w3.org/2000/svg" xmlns:xlink="http://www.w3.org/1999/xlink" id="svg5453" width="48" height="48" version="1.1"><defs id="defs5455"><linearGradient id="linearGradient4264" x1="-13.025" x2="-13.025" y1="-1052.863" y2="-1004.769" gradientTransform="translate(432.1173,504.8513)" gradientUnits="userSpaceOnUse" xlink:href="#linearGradient6589"/><linearGradient id="linearGradient4169"><stop id="stop4171-0" offset="0" stop-color="#e2f4c4" stop-opacity="1"/><stop id="stop4173" offset="1" stop-color="#fdfff5" stop-opacity="1"/></linearGradient><linearGradient id="linearGradient6589"><stop id="stop6591" offset="0" stop-color="#88c425" stop-opacity="1"/><stop id="stop6593" offset="1" stop-color="#bef202" stop-opacity="1"/></linearGradient><linearGradient id="linearGradient4312" x1="414.186" x2="414.186" y1="539.315" y2="508.389" gradientUnits="userSpaceOnUse" xlink:href="#linearGradient4169"/></defs><metadata id="metadata5458"/><g id="layer1" transform="translate(-384.57143,-499.798)"><rect id="rect4256" width="48" height="48" x="384.571" y="-547.798" fill="url(#linearGradient4264)" fill-opacity="1" stroke="none" ry="1.945" transform="scale(1,-1)"/><path id="path4258" fill="#000" fill-opacity="1" stroke="none" d="m 384.57142,544.798 0,1.0625 c 0,1.0773 0.86022,1.9375 1.9375,1.9375 l 44.125,0 c 1.07728,0 1.9375,-0.8602 1.9375,-1.9375 l 0,-1.0625 c 0,1.0773 -0.86022,1.9375 -1.9375,1.9375 l -44.125,0 c -1.07728,0 -1.9375,-0.8602 -1.9375,-1.9375 z"/><path id="path4260" fill="#fff" fill-opacity=".537" stroke="none" d="m 387.10267,500.4543 c -0.91709,0 -1.67115,0.6395 -1.84375,1.5 0.33561,-0.2799 0.77451,-0.4375 1.25,-0.4375 l 44.125,0 c 0.47549,0 0.91439,0.1576 1.25,0.4375 -0.1726,-0.8605 -0.92666,-1.5 -1.84375,-1.5 l -42.9375,0 z"/><path id="path4262" fill="#000" fill-opacity=".392" stroke="none" d="m 386.50892,499.798 c -1.07728,0 -1.9375,0.8602 -1.9375,1.9375 l 0,43.0625 c 0,0.7934 0.48002,1.449 1.15625,1.75 -0.30934,-0.3333 -0.5,-0.7824 -0.5,-1.2812 l 0,-42.9375 c 0,-1.0482 0.8269,-1.875 1.875,-1.875 l 42.9375,0 c 1.0481,0 1.875,0.8268 1.875,1.875 l 0,42.9375 c 0,0.4988 -0.19066,0.9479 -0.5,1.2812 0.67623,-0.301 1.15625,-0.9566 1.15625,-1.75 l 0,-43.0625 c 0,-1.0773 -0.86022,-1.9375 -1.9375,-1.9375 l -44.125,0 z"/><path id="path4320" fill="#000" fill-opacity=".059" fill-rule="evenodd" stroke="none" d="m 408.62465,509.598 c -4.88435,0 -9.21731,2.31603 -12.01661,5.89465 l 1.91835,1.22281 c 2.39409,-2.94219 6.05126,-4.81683 10.12775,-4.81683 7.20791,0 13.05913,5.86899 13.05913,13.10194 0,7.22781 -5.85122,13.0968 -13.05913,13.0968 -4.06238,0 -7.70673,-1.86438 -10.10339,-4.79117 l -1.91834,1.22281 c 2.80956,3.56836 7.1284,5.86899 12.0166,5.86899 8.46074,0 15.32242,-6.89677 15.32242,-15.39743 0,-8.49554 -6.86681,-15.39231 -15.32242,-15.39231 m -15.47758,6.40534 0,17.96367 15.56862,-9.07165 m -0.1154,-9.29236 c -2.75442,0 -5.2293,1.19844 -6.9476,3.09745 l 1.98887,1.24335 c 1.27719,-1.26772 3.03012,-2.0453 4.96386,-2.0453 3.91235,0 7.08737,3.2078 7.08737,7.15725 0,3.95457 -3.17117,7.16237 -7.08737,7.16237 -1.96836,0 -3.74694,-0.80708 -5.02926,-2.11458 l -1.91834,1.22281 c 1.7183,1.89902 4.18805,3.09745 6.9476,3.09745 5.18056,0 9.38144,-4.22018 9.38144,-9.41296 0,-5.19792 -4.20216,-9.41297 -9.38144,-9.41297 m -0.005,0.005"/><path id="path4318" fill="#000" fill-opacity=".118" fill-rule="evenodd" stroke="none" d="m 408.62465,509.198 c -4.88435,0 -9.21731,2.31603 -12.01661,5.89465 l 1.91835,1.22281 c 2.39409,-2.94219 6.05126,-4.81683 10.12775,-4.81683 7.20791,0 13.05913,5.86899 13.05913,13.10194 0,7.22781 -5.85122,13.0968 -13.05913,13.0968 -4.06238,0 -7.70673,-1.86438 -10.10339,-4.79117 l -1.91834,1.22281 c 2.80956,3.56836 7.1284,5.86899 12.0166,5.86899 8.46074,0 15.32242,-6.89677 15.32242,-15.39743 0,-8.49554 -6.86681,-15.39231 -15.32242,-15.39231 m -15.47758,6.40534 0,17.96367 15.56862,-9.07165 m -0.1154,-9.29236 c -2.75442,0 -5.2293,1.19844 -6.9476,3.09745 l 1.98887,1.24335 c 1.27719,-1.26772 3.03012,-2.0453 4.96386,-2.0453 3.91235,0 7.08737,3.2078 7.08737,7.15725 0,3.95457 -3.17117,7.16237 -7.08737,7.16237 -1.96836,0 -3.74694,-0.80708 -5.02926,-2.11458 l -1.91834,1.22281 c 1.7183,1.89902 4.18805,3.09745 6.9476,3.09745 5.18056,0 9.38144,-4.22018 9.38144,-9.41296 0,-5.19792 -4.20216,-9.41297 -9.38144,-9.41297 m -0.005,0.005"/><path id="path4314" fill="#000" fill-opacity=".235" fill-rule="evenodd" stroke="none" d="m 408.62465,508.798 c -4.88435,0 -9.21731,2.31603 -12.01661,5.89465 l 1.91835,1.22281 c 2.39409,-2.94219 6.05126,-4.81683 10.12775,-4.81683 7.20791,0 13.05913,5.86899 13.05913,13.10194 0,7.22781 -5.85122,13.0968 -13.05913,13.0968 -4.06238,0 -7.70673,-1.86438 -10.10339,-4.79117 l -1.91834,1.22281 c 2.80956,3.56836 7.1284,5.86899 12.0166,5.86899 8.46074,0 15.32242,-6.89677 15.32242,-15.39743 0,-8.49554 -6.86681,-15.39231 -15.32242,-15.39231 m -15.47758,6.40534 0,17.96367 15.56862,-9.07165 m -0.1154,-9.29236 c -2.75442,0 -5.2293,1.19844 -6.9476,3.09745 l 1.98887,1.24335 c 1.27719,-1.26772 3.03012,-2.0453 4.96386,-2.0453 3.91235,0 7.08737,3.2078 7.08737,7.15725 0,3.95457 -3.17117,7.16237 -7.08737,7.16237 -1.96836,0 -3.74694,-0.80708 -5.02926,-2.11458 l -1.91834,1.22281 c 1.7183,1.89902 4.18805,3.09745 6.9476,3.09745 5.18056,0 9.38144,-4.22018 9.38144,-9.41296 0,-5.19792 -4.20216,-9.41297 -9.38144,-9.41297 m -0.005,0.005"/><path id="path4203-2" fill="url(#linearGradient4312)" fill-opacity="1" fill-rule="evenodd" stroke="none" d="m 408.62465,508.398 c -4.88435,0 -9.21731,2.31603 -12.01661,5.89465 l 1.91835,1.22281 c 2.39409,-2.94219 6.05126,-4.81683 10.12775,-4.81683 7.20791,0 13.05913,5.86899 13.05913,13.10194 0,7.22781 -5.85122,13.0968 -13.05913,13.0968 -4.06238,0 -7.70673,-1.86438 -10.10339,-4.79117 l -1.91834,1.22281 c 2.80956,3.56836 7.1284,5.86899 12.0166,5.86899 8.46074,0 15.32242,-6.89677 15.32242,-15.39743 0,-8.49554 -6.86681,-15.39231 -15.32242,-15.39231 m -15.47758,6.40534 0,17.96367 15.56862,-9.07165 m -0.1154,-9.29236 c -2.75442,0 -5.2293,1.19844 -6.9476,3.09745 l 1.98887,1.24335 c 1.27719,-1.26772 3.03012,-2.0453 4.96386,-2.0453 3.91235,0 7.08737,3.2078 7.08737,7.15725 0,3.95457 -3.17117,7.16237 -7.08737,7.16237 -1.96836,0 -3.74694,-0.80708 -5.02926,-2.11458 l -1.91834,1.22281 c 1.7183,1.89902 4.18805,3.09745 6.9476,3.09745 5.18056,0 9.38144,-4.22018 9.38144,-9.41296 0,-5.19792 -4.20216,-9.41297 -9.38144,-9.41297 m -0.005,0.005"/><path id="path4322" fill="#8cc722" fill-opacity=".314" fill-rule="evenodd" stroke="none" d="M 24.082031 10.101562 C 20.005541 10.101562 16.349168 11.975779 13.955078 14.917969 L 12.486328 13.980469 C 12.338248 14.153565 12.177589 14.314552 12.037109 14.494141 L 13.955078 15.716797 C 16.349168 12.774607 20.005541 10.900391 24.082031 10.900391 C 31.155138 10.900391 36.909822 16.555495 37.123047 23.601562 C 37.127071 23.468015 37.142578 23.337643 37.142578 23.203125 C 37.142578 15.970175 31.289941 10.101562 24.082031 10.101562 z M 24.058594 16.111328 C 22.124854 16.111328 20.37094 16.88853 19.09375 18.15625 L 17.599609 17.220703 C 17.431415 17.381253 17.261537 17.540408 17.105469 17.712891 L 19.09375 18.957031 C 20.37094 17.689311 22.124854 16.910156 24.058594 16.910156 C 27.837285 16.910156 30.920173 19.905169 31.126953 23.667969 C 31.134259 23.534708 31.146484 23.40268 31.146484 23.267578 C 31.146484 19.318128 27.970944 16.111328 24.058594 16.111328 z M 23.474609 23.511719 L 8.5996094 32.179688 L 8.5996094 32.978516 L 24.167969 23.908203 L 23.474609 23.511719 z M 39.380859 23.601562 C 39.168264 31.916294 32.404873 38.599609 24.078125 38.599609 C 19.435536 38.599609 15.321906 36.509734 12.511719 33.244141 L 12.060547 33.53125 C 14.870107 37.09961 19.189925 39.400391 24.078125 39.400391 C 32.538865 39.400391 39.400391 32.502613 39.400391 24.001953 C 39.400391 23.866752 39.384316 23.735933 39.380859 23.601562 z M 33.419922 23.623047 C 33.208972 28.629135 29.104257 32.636719 24.058594 32.636719 C 21.547562 32.636719 19.282915 31.636846 17.599609 30.027344 L 17.111328 30.337891 C 18.829628 32.236911 21.299044 33.435547 24.058594 33.435547 C 29.239154 33.435547 33.439453 29.216217 33.439453 24.023438 C 33.439453 23.888363 33.425541 23.756737 33.419922 23.623047 z" transform="translate(384.57143,499.798)"/><path id="path4327" fill="#fff" fill-opacity=".314" fill-rule="evenodd" stroke="none" d="M 24.052734 8.5996094 C 19.168384 8.5996094 14.836409 10.915521 12.037109 14.494141 L 12.261719 14.636719 C 15.065212 11.210506 19.2911 9 24.052734 9 L 24.078125 9.0097656 C 32.466779 9.0097656 39.283065 15.800306 39.390625 24.203125 C 39.391498 24.135446 39.400391 24.06984 39.400391 24.001953 C 39.400391 15.506413 32.533735 8.609375 24.078125 8.609375 L 24.052734 8.5996094 z M 24.058594 14.609375 L 24.052734 14.615234 C 21.298314 14.615234 18.823769 15.813881 17.105469 17.712891 L 17.351562 17.867188 C 19.056546 16.115641 21.422976 15.015625 24.052734 15.015625 L 24.058594 15.009766 C 29.170251 15.009766 33.321933 19.118476 33.429688 24.222656 C 33.431091 24.155711 33.439453 24.090716 33.439453 24.023438 C 33.439453 18.825518 29.237874 14.609375 24.058594 14.609375 z M 8.5996094 15.015625 L 8.5996094 15.416016 L 23.820312 24.111328 L 24.167969 23.908203 L 8.5996094 15.015625 z M 37.132812 24.201172 C 37.025313 31.336282 31.222867 37.099609 24.082031 37.099609 C 20.019651 37.099609 16.375176 35.235384 13.978516 32.308594 L 12.060547 33.53125 C 12.131113 33.620874 12.214654 33.699101 12.287109 33.787109 L 13.978516 32.708984 C 16.375176 35.635774 20.019651 37.5 24.082031 37.5 C 31.289941 37.5 37.142578 31.630154 37.142578 24.402344 C 37.142578 24.334478 37.133839 24.268794 37.132812 24.201172 z M 31.136719 24.269531 C 31.030425 28.130313 27.907573 31.230469 24.058594 31.230469 C 22.090234 31.230469 20.311617 30.422734 19.029297 29.115234 L 17.111328 30.337891 C 17.18859 30.423278 17.275211 30.499522 17.355469 30.582031 L 19.029297 29.515625 C 20.311617 30.823125 22.090234 31.630859 24.058594 31.630859 C 27.974794 31.630859 31.146484 28.42332 31.146484 24.46875 C 31.146484 24.401615 31.138542 24.336226 31.136719 24.269531 z" transform="translate(384.57143,499.798)"/></g></svg>