<svg xmlns="http://www.w3.org/2000/svg" xmlns:svg="http://www.w3.org/2000/svg" xmlns:xlink="http://www.w3.org/1999/xlink" id="svg5453" width="48" height="48" version="1.1"><defs id="defs5455"><linearGradient id="linearGradient4264" x1="-13.025" x2="-13.025" y1="-1052.863" y2="-1004.769" gradientTransform="translate(432.1173,504.8513)" gradientUnits="userSpaceOnUse" xlink:href="#linearGradient4010"/><linearGradient id="linearGradient4055"><stop id="stop4057" offset="0" stop-color="#eec9dd" stop-opacity="1"/><stop id="stop4059" offset="1" stop-color="#fbf9fa" stop-opacity="1"/></linearGradient><linearGradient id="linearGradient4010"><stop id="stop4012" offset="0" stop-color="#772953" stop-opacity="1"/><stop id="stop4014" offset="1" stop-color="#af417d" stop-opacity="1"/></linearGradient><linearGradient id="linearGradient4307" x1="416.953" x2="416.953" y1="539.256" y2="508.428" gradientUnits="userSpaceOnUse" xlink:href="#linearGradient4055"/></defs><metadata id="metadata5458"/><g id="layer1" transform="translate(-384.57143,-499.798)"><rect id="rect4256" width="48" height="48" x="384.571" y="-547.798" fill="url(#linearGradient4264)" fill-opacity="1" stroke="none" ry="1.945" transform="scale(1,-1)"/><path id="path4315" fill="#000" fill-opacity=".059" fill-rule="nonzero" stroke="none" d="m 396.07268,509.60442 0,16.96367 c 0,2.05582 0.23504,3.91529 0.66885,5.61435 0.44006,1.66441 1.15267,3.13248 2.14407,4.36572 0.9914,1.23837 2.26159,2.17516 3.88683,2.87198 1.6315,0.65704 3.65305,0.97786 6.03591,0.97786 2.73916,0 5.17202,-0.11036 7.23733,-0.45556 2.10532,-0.35034 3.75056,-0.73662 5.02576,-1.04331 l 0,-29.29985 -5.00075,0 0,25.39995 c -0.19503,0.0808 -1.09391,0.23099 -1.56773,0.31056 -0.44007,0.0398 -0.91264,0.1155 -1.47523,0.19506 -0.55633,0.0347 -1.10891,0.0898 -1.73901,0.1309 -0.63509,0.0346 -1.27894,0.0654 -1.88028,0.0654 -2.81792,0 -4.83948,-0.82772 -6.0309,-2.41642 -1.19144,-1.58357 -2.31035,-4.11035 -2.31035,-7.77668 l 0,-15.9101 m -4.99575,0.0103"/><path id="path4313" fill="#000" fill-opacity=".118" fill-rule="nonzero" stroke="none" d="m 396.07268,509.20442 0,16.96367 c 0,2.05582 0.23504,3.91529 0.66885,5.61435 0.44006,1.66441 1.15267,3.13248 2.14407,4.36572 0.9914,1.23837 2.26159,2.17516 3.88683,2.87198 1.6315,0.65704 3.65305,0.97786 6.03591,0.97786 2.73916,0 5.17202,-0.11036 7.23733,-0.45556 2.10532,-0.35034 3.75056,-0.73662 5.02576,-1.04331 l 0,-29.29985 -5.00075,0 0,25.39995 c -0.19503,0.0808 -1.09391,0.23099 -1.56773,0.31056 -0.44007,0.0398 -0.91264,0.1155 -1.47523,0.19506 -0.55633,0.0347 -1.10891,0.0898 -1.73901,0.1309 -0.63509,0.0346 -1.27894,0.0654 -1.88028,0.0654 -2.81792,0 -4.83948,-0.82772 -6.0309,-2.41642 -1.19144,-1.58357 -2.31035,-4.11035 -2.31035,-7.77668 l 0,-15.9101 m -4.99575,0.0103"/><path id="path4258" fill="#000" fill-opacity="1" stroke="none" d="m 384.57142,544.798 0,1.0625 c 0,1.0773 0.86022,1.9375 1.9375,1.9375 l 44.125,0 c 1.07728,0 1.9375,-0.8602 1.9375,-1.9375 l 0,-1.0625 c 0,1.0773 -0.86022,1.9375 -1.9375,1.9375 l -44.125,0 c -1.07728,0 -1.9375,-0.8602 -1.9375,-1.9375 z"/><path id="path4260" fill="#fff" fill-opacity=".537" stroke="none" d="m 387.10267,500.4543 c -0.91709,0 -1.67115,0.6395 -1.84375,1.5 0.33561,-0.2799 0.77451,-0.4375 1.25,-0.4375 l 44.125,0 c 0.47549,0 0.91439,0.1576 1.25,0.4375 -0.1726,-0.8605 -0.92666,-1.5 -1.84375,-1.5 l -42.9375,0 z"/><path id="path4262" fill="#000" fill-opacity=".392" stroke="none" d="m 386.50892,499.798 c -1.07728,0 -1.9375,0.8602 -1.9375,1.9375 l 0,43.0625 c 0,0.7934 0.48002,1.449 1.15625,1.75 -0.30934,-0.3333 -0.5,-0.7824 -0.5,-1.2812 l 0,-42.9375 c 0,-1.0482 0.8269,-1.875 1.875,-1.875 l 42.9375,0 c 1.0481,0 1.875,0.8268 1.875,1.875 l 0,42.9375 c 0,0.4988 -0.19066,0.9479 -0.5,1.2812 0.67623,-0.301 1.15625,-0.9566 1.15625,-1.75 l 0,-43.0625 c 0,-1.0773 -0.86022,-1.9375 -1.9375,-1.9375 l -44.125,0 z"/><path id="path4309" fill="#000" fill-opacity=".235" fill-rule="nonzero" stroke="none" d="m 396.07268,508.80442 0,16.96367 c 0,2.05582 0.23504,3.91529 0.66885,5.61435 0.44006,1.66441 1.15267,3.13248 2.14407,4.36572 0.9914,1.23837 2.26159,2.17516 3.88683,2.87198 1.6315,0.65704 3.65305,0.97786 6.03591,0.97786 2.73916,0 5.17202,-0.11036 7.23733,-0.45556 2.10532,-0.35034 3.75056,-0.73662 5.02576,-1.04331 l 0,-29.29985 -5.00075,0 0,25.39995 c -0.19503,0.0808 -1.09391,0.23099 -1.56773,0.31056 -0.44007,0.0398 -0.91264,0.1155 -1.47523,0.19506 -0.55633,0.0347 -1.10891,0.0898 -1.73901,0.1309 -0.63509,0.0346 -1.27894,0.0654 -1.88028,0.0654 -2.81792,0 -4.83948,-0.82772 -6.0309,-2.41642 -1.19144,-1.58357 -2.31035,-4.11035 -2.31035,-7.77668 l 0,-15.9101 m -4.99575,0.0103"/><path id="path4203-5" fill="url(#linearGradient4307)" fill-opacity="1" fill-rule="nonzero" stroke="none" d="m 396.07268,508.40445 0,16.96367 c 0,2.05582 0.23504,3.91529 0.66885,5.61435 0.44006,1.66441 1.15267,3.13248 2.14407,4.36572 0.9914,1.23837 2.26159,2.17516 3.88683,2.87198 1.6315,0.65704 3.65305,0.97786 6.03591,0.97786 2.73916,0 5.17202,-0.11036 7.23733,-0.45556 2.10532,-0.35034 3.75056,-0.73662 5.02576,-1.04331 l 0,-29.29985 -5.00075,0 0,25.39995 c -0.19503,0.0808 -1.09391,0.23099 -1.56773,0.31056 -0.44007,0.0398 -0.91264,0.1155 -1.47523,0.19506 -0.55633,0.0347 -1.10891,0.0898 -1.73901,0.1309 -0.63509,0.0346 -1.27894,0.0654 -1.88028,0.0654 -2.81792,0 -4.83948,-0.82772 -6.0309,-2.41642 -1.19144,-1.58357 -2.31035,-4.11035 -2.31035,-7.77668 l 0,-15.9101 m -4.99575,0.0103"/><path id="path4317" fill="#7c2b57" fill-opacity=".314" fill-rule="nonzero" stroke="none" d="M 11.501953 24.769531 L 11.501953 25.570312 C 11.501953 27.626133 11.736112 29.484534 12.169922 31.183594 C 12.609982 32.848004 13.323053 34.317541 14.314453 35.550781 C 15.305853 36.789151 16.575932 37.725055 18.201172 38.421875 C 19.832672 39.078915 21.853468 39.400391 24.236328 39.400391 C 26.975488 39.400391 29.409299 39.290512 31.474609 38.945312 C 33.579929 38.594973 35.2248 38.207081 36.5 37.900391 L 36.5 37.101562 C 35.2248 37.408253 33.579929 37.794191 31.474609 38.144531 C 29.409299 38.489731 26.975488 38.599609 24.236328 38.599609 C 21.853468 38.599609 19.832672 38.280087 18.201172 37.623047 C 16.575932 36.926227 15.305853 35.98837 14.314453 34.75 C 13.323053 33.51676 12.609982 32.049176 12.169922 30.384766 C 11.736112 28.685706 11.501953 26.825351 11.501953 24.769531 z" transform="translate(384.57143,499.798)"/><path id="path4322" fill="#fff" fill-opacity=".235" fill-rule="nonzero" stroke="none" d="M 16.496094 8.5996094 L 11.501953 8.6074219 L 11.501953 9.0058594 L 16.496094 9 L 16.496094 8.5996094 z M 31.5 8.6015625 L 31.5 9.0019531 L 36.5 9.0019531 L 36.5 8.6015625 L 31.5 8.6015625 z M 16.496094 24.509766 L 16.496094 24.910156 C 16.496094 28.576486 17.615201 31.10393 18.806641 32.6875 C 19.998061 34.2762 22.019971 35.103516 24.837891 35.103516 C 25.439231 35.103516 26.081707 35.071709 26.716797 35.037109 C 27.346897 34.996009 27.900701 34.94095 28.457031 34.90625 C 29.019621 34.82669 29.491571 34.750738 29.931641 34.710938 C 30.405461 34.631368 31.30497 34.481191 31.5 34.400391 L 31.5 34.001953 C 31.30497 34.082753 30.405461 34.23293 29.931641 34.3125 C 29.491571 34.3523 29.019621 34.428252 28.457031 34.507812 C 27.900701 34.542513 27.346897 34.597572 26.716797 34.638672 C 26.081707 34.673272 25.439231 34.703125 24.837891 34.703125 C 22.019971 34.703125 19.998061 33.875809 18.806641 32.287109 C 17.615201 30.703539 16.496094 28.176096 16.496094 24.509766 z" transform="translate(384.57143,499.798)"/></g></svg>