<svg xmlns="http://www.w3.org/2000/svg" xmlns:svg="http://www.w3.org/2000/svg" xmlns:xlink="http://www.w3.org/1999/xlink" id="svg2" width="48" height="48" version="1.1"><defs id="defs4"><linearGradient id="linearGradient1485"><stop id="stop1487" offset="0" stop-color="#000" stop-opacity="1"/><stop id="stop1489" offset="1" stop-color="#000" stop-opacity="0"/></linearGradient><linearGradient id="linearGradient1469"><stop id="stop1471" offset="0" stop-color="#fff" stop-opacity="1"/><stop id="stop1473" offset="1" stop-color="#fff" stop-opacity="0"/></linearGradient><linearGradient id="linearGradient1434"><stop id="stop1436" offset="0" stop-color="#f3f3f3" stop-opacity="1"/><stop id="stop1438" offset="1" stop-color="#ededed" stop-opacity="1"/></linearGradient><linearGradient id="linearGradient3795"><stop id="stop3797" offset="0" stop-color="#adaeae" stop-opacity="1"/><stop id="stop3832" offset=".474" stop-color="#fff" stop-opacity="1"/><stop id="stop3799" offset="1" stop-color="#f0f0f0" stop-opacity="1"/></linearGradient><linearGradient id="linearGradient852" x1="23.399" x2="23.399" y1="1015.862" y2="1045.612" gradientTransform="matrix(0.84859218,0,0,0.84859218,3.6337877,155.70188)" gradientUnits="userSpaceOnUse" xlink:href="#linearGradient3795"/><linearGradient id="linearGradient1440" x1="-25.25" x2="-25.25" y1="-1050.362" y2="-1002.612" gradientTransform="translate(51.500001,-2.2500087)" gradientUnits="userSpaceOnUse" xlink:href="#linearGradient1434"/><linearGradient id="linearGradient1475" x1="24" x2="24" y1="8" y2="29.125" gradientUnits="userSpaceOnUse" xlink:href="#linearGradient1469"/><linearGradient id="linearGradient1491" x1="23.656" x2="23.656" y1="1016.3" y2="1017.831" gradientTransform="translate(0,0.15625)" gradientUnits="userSpaceOnUse" xlink:href="#linearGradient1485"/><linearGradient id="linearGradient1504" x1="23.938" x2="23.938" y1="8.25" y2="10.063" gradientUnits="userSpaceOnUse" xlink:href="#linearGradient1485"/></defs><metadata id="metadata7"/><g id="layer1" transform="translate(0,-1004.3622)"><rect id="rect2991-1" width="48" height="48" x="0" y="-1052.362" fill="url(#linearGradient1440)" fill-opacity="1" stroke="none" ry="1.945" transform="scale(1,-1)"/><path id="rect846" fill="#000" fill-opacity="1" stroke="none" d="m 2.9073486e-6,1049.3622 0,1.0625 c 0,1.0773 0.8602000026514,1.9375 1.9374989926514,1.9375 l 44.1250011,0 c 1.0773,0 1.9375,-0.8602 1.9375,-1.9375 l 0,-1.0625 c 0,1.0773 -0.8602,1.9375 -1.9375,1.9375 l -44.1250011,0 C 0.86020291,1051.2997 2.9073486e-6,1050.4395 2.9073486e-6,1049.3622 Z"/><path id="path7515" fill="#fff" fill-opacity=".537" stroke="none" d="m 2.5312019,1005.0185 c -0.916999,0 -1.67109899,0.6395 -1.84369899,1.5 0.33559899,-0.2799 0.77449999,-0.4375 1.24999899,-0.4375 l 44.1250011,0 c 0.4755,0 0.9144,0.1576 1.25,0.4375 -0.1726,-0.8605 -0.9267,-1.5 -1.8437,-1.5 L 2.5312019,1005.0185 Z"/><path id="rect4280-7" fill="#000" fill-opacity=".392" stroke="none" d="m 1.9375019,1004.3622 c -1.07729899,0 -1.9374989926514,0.8602 -1.9374989926514,1.9375 l 0,43.0625 c 0,0.7934 0.4800000026514,1.449 1.1561989926514,1.75 -0.30929899,-0.3333 -0.49999899,-0.7824 -0.49999899,-1.2812 l 0,-42.9375 c 0,-1.0482 0.82689899,-1.875 1.87499899,-1.875 l 42.9376011,0 c 1.0481,0 1.875,0.8268 1.875,1.875 l 0,42.9375 c 0,0.4988 -0.1907,0.9479 -0.5,1.2812 0.6762,-0.301 1.1562,-0.9566 1.1562,-1.75 l 0,-43.0625 c 0,-1.0773 -0.8602,-1.9375 -1.9375,-1.9375 L 1.9375019,1004.3622 Z"/><rect id="rect1526" width="48" height="48" x="0" y="1004.362" fill="none" stroke="none" ry="0"/><g id="g1600" transform="matrix(0.9589193,0,0,0.9589193,0.9859368,42.245791)"><path id="path1459" fill="#000" fill-opacity=".083" fill-rule="nonzero" stroke="none" stroke-width=".4" d="m 18.359316,1012.185 c -2.766496,0 -4.996035,2.2158 -4.996035,4.9653 l 0,22.4238 c 0,2.7495 2.229539,4.9654 4.996035,4.9654 l 11.281368,0 c 2.766496,0 4.996035,-2.2159 4.996035,-4.9654 l 0,-22.4238 C 34.636719,1014.4008 32.40718,1012.185 29.640684,1012.185 z m 0.193395,0.4805 10.894578,0 c 2.684323,0 4.867105,2.1373 4.867105,4.8051 l 0,21.7832 c 0,2.6678 -2.182782,4.8051 -4.867105,4.8051 l -10.894578,0 c -2.684323,0 -4.867105,-2.1373 -4.867105,-4.8051 l 0,-21.7832 C 13.685606,1014.8028 15.868388,1012.6655 18.552711,1012.6655 Z" color="#000" display="inline" enable-background="accumulate" overflow="visible" visibility="visible" style="marker:none"/><path d="m 18.53125,1012.6693 c -2.68217,0 -4.84375,2.1495 -4.84375,4.8167 l 0,21.7524 c 0,2.6672 2.16158,4.8167 4.84375,4.8167 l 10.9375,0 c 2.68217,0 4.84375,-2.1495 4.84375,-4.8167 l 0,-21.7524 C 34.3125,1014.8188 32.15092,1012.6693 29.46875,1012.6693 z m 0.1875,0.4662 10.5625,0 c 2.602502,0 4.71875,2.0733 4.71875,4.6612 l 0,21.131 c 0,2.5879 -2.116248,4.6612 -4.71875,4.6612 l -10.5625,0 c -2.602502,0 -4.71875,-2.0733 -4.71875,-4.6612 l 0,-21.131 C 14,1015.2088 16.116248,1013.1355 18.71875,1013.1355 Z" style="marker:none" id="rect1449" fill="#000" fill-opacity=".135" fill-rule="nonzero" stroke="none" stroke-width=".4" color="#000" display="inline" enable-background="accumulate" overflow="visible" visibility="visible"/><path d="m 18.71875,1013.1381 c -2.602502,0 -4.71875,2.073 -4.71875,4.6604 l 0,21.1274 c 0,2.5874 2.116248,4.6604 4.71875,4.6604 l 10.5625,0 c 2.602502,0 4.71875,-2.073 4.71875,-4.6604 l 0,-21.1274 c 0,-2.5874 -2.116248,-4.6604 -4.71875,-4.6604 L 18.71875,1013.1381 z m 0.21875,0.466 10.125,0 c 2.523957,0 4.5625,2.0268 4.5625,4.5362 l 0,20.4438 c 0,2.5094 -2.038543,4.5362 -4.5625,4.5362 l -10.125,0 c -2.523957,0 -4.5625,-2.0268 -4.5625,-4.5362 l 0,-20.4438 C 14.375,1015.6309 16.413543,1013.6041 18.9375,1013.6041 Z" style="marker:none" id="rect842" fill="#000" fill-opacity=".253" fill-rule="nonzero" stroke="none" stroke-width=".4" color="#000" display="inline" enable-background="accumulate" overflow="visible" visibility="visible"/><rect id="rect844" width="19.265" height="29.701" x="14.367" y="1013.512" fill="url(#linearGradient852)" fill-opacity="1" fill-rule="nonzero" stroke="none" stroke-width=".4" color="#000" display="inline" enable-background="accumulate" overflow="visible" ry="4.556" visibility="visible" style="marker:none"/><path d="m 18.183543,1011.6768 c -2.852704,0 -5.151719,2.2854 -5.151719,5.1213 l 0,23.1282 c 0,2.8359 2.299015,5.1214 5.151719,5.1214 l 11.632914,0 c 2.852704,0 5.151719,-2.2855 5.151719,-5.1214 l 0,-23.1282 C 34.968176,1013.9622 32.669161,1011.6768 29.816457,1011.6768 z m 0.199422,0.4956 11.23407,0 c 2.76797,0 5.018772,2.2044 5.018772,4.956 l 0,22.4676 c 0,2.7516 -2.250802,4.956 -5.018772,4.956 l -11.23407,0 c -2.76797,0 -5.018772,-2.2044 -5.018772,-4.956 l 0,-22.4676 C 13.364193,1014.3768 15.614995,1012.1724 18.382965,1012.1724 Z" style="marker:none" id="path1461" fill="#000" fill-opacity=".537" fill-rule="nonzero" stroke="none" stroke-width=".4" color="#000" display="inline" enable-background="accumulate" overflow="visible" visibility="visible"/><path id="rect1463" fill="url(#linearGradient1475)" fill-opacity="1" fill-rule="nonzero" stroke="none" stroke-width=".4" d="m 18.9375,9.15625 c -2.523957,0 -4.5625,2.038543 -4.5625,4.5625 l 0,20.5625 c 0,0.655583 0.12781,1.281544 0.375,1.84375 l 0,-19.15625 c 0,-2.4257 1.9493,-4.375 4.375,-4.375 l 9.75,0 c 2.4257,0 4.375,1.9493 4.375,4.375 l 0,19.15625 c 0.24719,-0.562206 0.375,-1.188167 0.375,-1.84375 l 0,-20.5625 c 0,-2.523957 -2.038543,-4.5625 -4.5625,-4.5625 L 18.9375,9.15625 Z" color="#000" display="inline" enable-background="accumulate" overflow="visible" transform="translate(0,1004.3622)" visibility="visible" style="marker:none"/><path id="rect1477" fill="url(#linearGradient1491)" fill-opacity="1" fill-rule="nonzero" stroke="none" stroke-width=".4" d="m 19.15625,1016.9247 c -2.202446,0 -3.956286,1.6297 -4.25,3.75 -0.0274,0.1978 -0.09375,0.3883 -0.09375,0.5938 -0.0019,0.053 0,0.1031 0,0.1562 l 0,0.031 c -6.78e-4,0.032 0,0.062 0,0.094 l 0,0.1875 c 0,-0.2467 0.02326,-0.4834 0.0625,-0.7187 0.0072,-0.052 0.0222,-0.1046 0.03125,-0.1563 0.405171,-1.9853 2.143075,-3.4687 4.25,-3.4687 l 9.6875,0 c 2.106926,0 3.844829,1.4834 4.25,3.4687 0.01044,0.051 0.02262,0.1045 0.03125,0.1563 0.03924,0.2353 0.0625,0.472 0.0625,0.7187 l 0,-0.1875 c 0,-0.032 6.78e-4,-0.062 0,-0.094 l 0,-0.031 c 0,-0.053 0.0019,-0.1036 0,-0.1562 0,-0.2055 -0.06635,-0.396 -0.09375,-0.5938 -0.293714,-2.1203 -2.047553,-3.75 -4.25,-3.75 L 19.15625,1016.9247 Z" color="#000" display="inline" enable-background="accumulate" opacity=".432" overflow="visible" visibility="visible" style="marker:none"/><path id="path1493" fill="url(#linearGradient1504)" fill-opacity="1" fill-rule="nonzero" stroke="none" stroke-width=".4" d="m 18.9375,9.15625 c -2.523957,0 -4.5625,2.038543 -4.5625,4.5625 l 0,1.1875 c 0,-2.524 2.038543,-4.5625 4.5625,-4.5625 l 10.125,0 c 2.523957,0 4.5625,2.0385 4.5625,4.5625 l 0,-1.1875 c 0,-2.523957 -2.038543,-4.5625 -4.5625,-4.5625 L 18.9375,9.15625 Z" color="#000" display="inline" enable-background="accumulate" opacity=".677" overflow="visible" transform="translate(0,1004.3622)" visibility="visible" style="marker:none"/><rect id="rect1515" width="1.012" height="3" x="23.403" y="1020.082" fill="#000" fill-opacity=".329" stroke="none" ry="0"/><path id="path1517" fill="#000" fill-opacity=".329" stroke="none" d="m 24,32.90625 c -0.828428,0 -1.5,0.6716 -1.5,1.5 0,0.8284 0.671572,1.5 1.5,1.5 0.828428,0 1.5,-0.6716 1.5,-1.5 C 25.5,33.57785 24.828428,32.90625 24,32.90625 z m 0,0.5 c 0.551377,0 1,0.4488 1,1 0,0.5514 -0.448623,1.03125 -1,1.03125 -0.551378,0 -1,-0.48005 -1,-1.03125 C 23,33.85485 23.448622,33.40625 24,33.40625 Z" transform="translate(0,1004.3622)"/><path id="rect1533" fill="#fff" fill-opacity=".497" stroke="none" d="m 23.40625,18.71875 0,0.15625 1,0 0,-0.15625 L 23.40625,18.71875 Z" transform="translate(0,1004.3622)"/><path id="path1535" fill="#f9f9f9" fill-opacity="1" stroke="none" d="m 22.53125,1039.0888 c 0.0775,0.7556 0.692611,1.3437 1.46875,1.3437 0.776139,0 1.391245,-0.5881 1.46875,-1.3437 -0.139869,0.6835 -0.743876,1.1875 -1.46875,1.1875 C 23.275126,1040.2763 22.671119,1039.7723 22.53125,1039.0888 Z"/></g></g></svg>