<svg xmlns="http://www.w3.org/2000/svg" xmlns:svg="http://www.w3.org/2000/svg" xmlns:xlink="http://www.w3.org/1999/xlink" id="svg3840" width="48" height="48" version="1.1"><defs id="defs3842"><linearGradient id="linearGradient4181"><stop id="stop4183" offset="0" stop-color="#c1dcf7" stop-opacity="1"/><stop id="stop4185" offset="1" stop-color="#f6fbfe" stop-opacity="1"/></linearGradient><linearGradient id="linearGradient14081"><stop id="stop14083" offset="0" stop-color="#005eaa" stop-opacity="1"/><stop id="stop14085" offset="1" stop-color="#0090cd" stop-opacity="1"/></linearGradient><linearGradient id="linearGradient69"><stop id="stop71" offset="0" stop-color="#002234" stop-opacity="1"/><stop id="stop4191" offset=".3" stop-color="#00538c" stop-opacity="1"/><stop id="stop73" offset="1" stop-color="#003d62" stop-opacity="1"/></linearGradient><linearGradient id="linearGradient46" x1="379.234" x2="379.234" y1="-487.8" y2="-439.784" gradientTransform="translate(-200.00002,-17.142871)" gradientUnits="userSpaceOnUse" xlink:href="#linearGradient14081"/><linearGradient id="linearGradient66" x1="353.172" x2="364.114" y1="-466.121" y2="-466.121" gradientTransform="matrix(1,0,0,-1,-200.00002,17.142873)" gradientUnits="userSpaceOnUse" xlink:href="#linearGradient69"/><linearGradient id="linearGradient4187" x1="188.179" x2="188.179" y1="495.392" y2="466.575" gradientTransform="matrix(1.0724234,0,0,1.0724234,-8.035764,-34.830837)" gradientUnits="userSpaceOnUse" xlink:href="#linearGradient4181"/></defs><metadata id="metadata3845"/><g id="layer1" transform="translate(-153.14285,-456.93362)"><rect id="rect2991-1-7" width="48" height="48" x="153.143" y="-504.934" fill="url(#linearGradient46)" fill-opacity="1" stroke="none" ry="1.945" transform="scale(1,-1)"/><g id="g4205" fill="#000" fill-opacity=".059" stroke="none" font-family="Helvetica" font-size="40" font-stretch="normal" font-style="normal" font-variant="normal" font-weight="bold" letter-spacing="0" text-anchor="start" transform="matrix(1.0724234,0,0,1.0724234,-8.035764,-33.630837)" word-spacing="0" writing-mode="lr-tb" style="text-align:start;line-height:125%;-inkscape-font-specification:Helvetica Bold"><path id="path4207" fill="#000" fill-opacity=".059" d="m 166.08785,495.29361 0,-28.72 12.68,0 q 6.48,0 9.48,4.8 2.2,3.52 2.2,8.88 0,5.8 -2.4,9.8 -3.12,5.24 -9.52,5.24 l -12.44,0 z m 5.84,-23.76 0.04,18.8 5.84,0 q 3.36,0 5.08,-3.04 1.44,-2.56 1.44,-6.6 0,-5.6 -2.36,-7.76 -1.52,-1.4 -4.28,-1.4 l -5.76,0 z"/></g><g id="g4201" fill="#000" fill-opacity=".118" stroke="none" font-family="Helvetica" font-size="40" font-stretch="normal" font-style="normal" font-variant="normal" font-weight="bold" letter-spacing="0" text-anchor="start" transform="matrix(1.0724234,0,0,1.0724234,-8.035764,-34.030837)" word-spacing="0" writing-mode="lr-tb" style="text-align:start;line-height:125%;-inkscape-font-specification:Helvetica Bold"><path id="path4203" fill="#000" fill-opacity=".118" d="m 166.08785,495.29361 0,-28.72 12.68,0 q 6.48,0 9.48,4.8 2.2,3.52 2.2,8.88 0,5.8 -2.4,9.8 -3.12,5.24 -9.52,5.24 l -12.44,0 z m 5.84,-23.76 0.04,18.8 5.84,0 q 3.36,0 5.08,-3.04 1.44,-2.56 1.44,-6.6 0,-5.6 -2.36,-7.76 -1.52,-1.4 -4.28,-1.4 l -5.76,0 z"/></g><path id="rect48" fill="url(#linearGradient66)" fill-opacity="1" stroke="none" d="m 155.08034,456.93361 c -1.07727,0 -1.9375,0.86022 -1.9375,1.9375 l 0,44.125 c 0,1.07728 0.86023,1.9375 1.9375,1.9375 l 9.1875,0 0,-48 -9.1875,0 z"/><g id="g885" transform="translate(-200.00002,17.142871)"><path id="rect75" fill="#fff" fill-opacity=".196" d="m 11.125,0 0,48 0.59375,0 0,-48 -0.59375,0 z" transform="translate(353.14286,439.79074)"/><path id="rect877" fill="#000" fill-opacity=".196" d="m 10.53125,0 0,48 0.59375,0 0,-48 -0.59375,0 z" transform="translate(353.14286,439.79074)"/></g><path id="rect846-2" fill="#000" fill-opacity="1" stroke="none" d="m 153.14283,501.93363 0,1.0625 c 0,1.0773 0.86022,1.9375 1.9375,1.9375 l 44.125,0 c 1.07728,0 1.9375,-0.8602 1.9375,-1.9375 l 0,-1.0625 c 0,1.0773 -0.86022,1.9375 -1.9375,1.9375 l -44.125,0 c -1.07728,0 -1.9375,-0.8602 -1.9375,-1.9375 z"/><path id="path7515-6" fill="#fff" fill-opacity=".537" stroke="none" d="m 155.67408,457.58993 c -0.91709,0 -1.67115,0.6395 -1.84375,1.5 0.33561,-0.2799 0.77451,-0.4375 1.25,-0.4375 l 44.125,0 c 0.47549,0 0.91439,0.1576 1.25,0.4375 -0.1726,-0.8605 -0.92666,-1.5 -1.84375,-1.5 l -42.9375,0 z"/><path id="rect4280" fill="#000" fill-opacity=".392" stroke="none" d="m 155.08033,456.93363 c -1.07728,0 -1.9375,0.8602 -1.9375,1.9375 l 0,43.0625 c 0,0.7934 0.48002,1.449 1.15625,1.75 -0.30934,-0.3333 -0.5,-0.7824 -0.5,-1.2812 l 0,-42.9375 c 0,-1.0482 0.8269,-1.875 1.875,-1.875 l 42.9375,0 c 1.0481,0 1.875,0.8268 1.875,1.875 l 0,42.9375 c 0,0.4988 -0.19066,0.9479 -0.5,1.2812 0.67623,-0.301 1.15625,-0.9566 1.15625,-1.75 l 0,-43.0625 c 0,-1.0773 -0.86022,-1.9375 -1.9375,-1.9375 l -44.125,0 z"/><g id="g4193" fill="#000" fill-opacity=".235" stroke="none" font-family="Helvetica" font-size="40" font-stretch="normal" font-style="normal" font-variant="normal" font-weight="bold" letter-spacing="0" text-anchor="start" transform="matrix(1.0724234,0,0,1.0724234,-8.035764,-34.430837)" word-spacing="0" writing-mode="lr-tb" style="text-align:start;line-height:125%;-inkscape-font-specification:Helvetica Bold"><path id="path4195" fill="#000" fill-opacity=".235" d="m 166.08785,495.29361 0,-28.72 12.68,0 q 6.48,0 9.48,4.8 2.2,3.52 2.2,8.88 0,5.8 -2.4,9.8 -3.12,5.24 -9.52,5.24 l -12.44,0 z m 5.84,-23.76 0.04,18.8 5.84,0 q 3.36,0 5.08,-3.04 1.44,-2.56 1.44,-6.6 0,-5.6 -2.36,-7.76 -1.52,-1.4 -4.28,-1.4 l -5.76,0 z"/></g><path id="path1063" fill="url(#linearGradient4187)" fill-opacity="1" stroke="none" d="m 170.08073,496.33362 0,-30.8 13.59833,0 q 6.94931,0 10.16658,5.14763 2.35933,3.77493 2.35933,9.52312 0,6.22006 -2.57382,10.50975 -3.34596,5.6195 -10.20947,5.6195 l -13.34095,0 z m 6.26296,-25.48078 0.0429,20.16156 6.26296,0 q 3.60334,0 5.44791,-3.26017 1.54429,-2.7454 1.54429,-7.07799 0,-6.00557 -2.53092,-8.32201 -1.63009,-1.50139 -4.58998,-1.50139 l -6.17715,0 z" font-family="Helvetica" font-size="40" font-stretch="normal" font-style="normal" font-variant="normal" font-weight="bold" letter-spacing="0" text-anchor="start" word-spacing="0" writing-mode="lr-tb" style="text-align:start;line-height:125%;-inkscape-font-specification:Helvetica Bold"/><path id="path4211" fill="#005faa" fill-opacity=".314" stroke="none" d="M 23.201172 13.119141 L 23.203125 13.919922 L 29.378906 13.919922 C 31.352166 13.919922 32.882023 14.418995 33.96875 15.419922 C 35.603516 16.916152 36.437402 19.57787 36.488281 23.382812 C 36.491064 23.235513 36.498047 23.093519 36.498047 22.943359 C 36.498047 18.939646 35.65603 16.165387 33.96875 14.621094 C 32.882023 13.620167 31.352166 13.119141 29.378906 13.119141 L 23.201172 13.119141 z M 43.052734 22.867188 C 42.998799 26.838723 42.148415 30.213586 40.488281 32.980469 C 38.257641 36.726802 34.85497 38.599609 30.279297 38.599609 L 16.9375 38.599609 L 16.9375 39.400391 L 30.279297 39.400391 C 34.85497 39.400391 38.257641 37.527583 40.488281 33.78125 C 42.204161 30.921457 43.0625 27.418191 43.0625 23.271484 C 43.0625 23.133775 43.054766 23.003198 43.052734 22.867188 z" font-family="Helvetica" font-size="40" font-stretch="normal" font-style="normal" font-variant="normal" font-weight="bold" letter-spacing="0" text-anchor="start" transform="translate(153.14285,456.93362)" word-spacing="0" writing-mode="lr-tb" style="text-align:start;line-height:125%;-inkscape-font-specification:Helvetica Bold"/><path id="path4221" fill="#fff" fill-opacity=".235" stroke="none" d="M 16.9375 8.5996094 L 16.9375 9 L 30.537109 9 C 35.169983 9 38.558278 10.716684 40.703125 14.148438 C 42.247883 16.620052 43.029015 19.728259 43.056641 23.46875 C 43.05709 23.401964 43.0625 23.338608 43.0625 23.271484 C 43.0625 19.439358 42.276012 16.264667 40.703125 13.748047 C 38.558278 10.316294 35.169983 8.5996094 30.537109 8.5996094 L 16.9375 8.5996094 z M 36.494141 23.962891 C 36.468012 26.749163 35.957777 29.03774 34.955078 30.820312 C 33.725365 32.993759 31.908086 34.080078 29.505859 34.080078 L 23.244141 34.080078 L 23.244141 34.480469 L 29.505859 34.480469 C 31.908086 34.480469 33.725365 33.39415 34.955078 31.220703 C 35.984605 29.390436 36.498047 27.030971 36.498047 24.142578 C 36.498047 24.080283 36.494549 24.02459 36.494141 23.962891 z" font-family="Helvetica" font-size="40" font-stretch="normal" font-style="normal" font-variant="normal" font-weight="bold" letter-spacing="0" text-anchor="start" transform="translate(153.14285,456.93362)" word-spacing="0" writing-mode="lr-tb" style="text-align:start;line-height:125%;-inkscape-font-specification:Helvetica Bold"/></g></svg>