<svg xmlns="http://www.w3.org/2000/svg" xmlns:svg="http://www.w3.org/2000/svg" xmlns:xlink="http://www.w3.org/1999/xlink" id="svg5453" width="48" height="48" version="1.1"><defs id="defs5455"><linearGradient id="linearGradient4111"><stop id="stop4113" offset="0" stop-color="#b9e8ff" stop-opacity="1"/><stop id="stop4115" offset="1" stop-color="#f5fdff" stop-opacity="1"/></linearGradient><linearGradient id="linearGradient4074"><stop id="stop4076" offset="0" stop-color="#007dba" stop-opacity="1"/><stop id="stop4078" offset="1" stop-color="#00afda" stop-opacity="1"/></linearGradient><linearGradient id="linearGradient4080" x1="412.422" x2="412.422" y1="-547.798" y2="-499.826" gradientUnits="userSpaceOnUse" xlink:href="#linearGradient4074"/><linearGradient id="linearGradient4172" x1="488.616" x2="488.616" y1="539.257" y2="508.257" gradientTransform="translate(-77.14202,0.008177)" gradientUnits="userSpaceOnUse" xlink:href="#linearGradient4111"/></defs><metadata id="metadata5458"/><g id="layer1" transform="translate(-384.57143,-499.798)"><rect id="rect2991-1-7" width="48" height="48" x="384.571" y="-547.798" fill="url(#linearGradient4080)" fill-opacity="1" stroke="none" ry="1.945" transform="scale(1,-1)"/><path id="path4185" fill="#000" fill-opacity=".059" stroke="none" d="m 395.57143,509.998 0,30 26,0 0,-12.29883 -15.1836,-17.70117 -10.8164,0 z m 13.45117,0 1.71484,2 8.83399,0 0,10.29687 2,2.33204 0,-14.62891 -12.54883,0 z"/><path id="path4183" fill="#000" fill-opacity=".118" stroke="none" d="m 395.57143,509.598 0,30 26,0 0,-12.29883 -15.1836,-17.70117 -10.8164,0 z m 13.45117,0 1.71484,2 8.83399,0 0,10.29687 2,2.33204 0,-14.62891 -12.54883,0 z"/><path id="path4179" fill="#000" fill-opacity=".235" stroke="none" d="m 395.57143,509.198 0,30 26,0 0,-12.29883 -15.1836,-17.70117 -10.8164,0 z m 13.45117,0 1.71484,2 8.83399,0 0,10.29687 2,2.33204 0,-14.62891 -12.54883,0 z"/><path id="rect846" fill="#000" fill-opacity="1" stroke="none" d="m 384.57143,544.79799 0,1.0625 c 0,1.0773 0.86022,1.9375 1.9375,1.9375 l 44.125,0 c 1.07728,0 1.9375,-0.8602 1.9375,-1.9375 l 0,-1.0625 c 0,1.0773 -0.86022,1.9375 -1.9375,1.9375 l -44.125,0 C 385.43165,546.73549 384.57143,545.87529 384.57143,544.79799 Z"/><path id="path7515" fill="#fff" fill-opacity=".537" stroke="none" d="m 387.10268,500.45429 c -0.91709,0 -1.67115,0.6395 -1.84375,1.5 0.33561,-0.2799 0.77451,-0.4375 1.25,-0.4375 l 44.125,0 c 0.47549,0 0.91439,0.1576 1.25,0.4375 -0.1726,-0.8605 -0.92666,-1.5 -1.84375,-1.5 L 387.10268,500.45429 Z"/><path id="rect4280" fill="#000" fill-opacity=".392" stroke="none" d="m 386.50893,499.79799 c -1.07728,0 -1.9375,0.8602 -1.9375,1.9375 l 0,43.0625 c 0,0.7934 0.48002,1.449 1.15625,1.75 -0.30934,-0.3333 -0.5,-0.7824 -0.5,-1.2812 l 0,-42.9375 c 0,-1.0482 0.8269,-1.875 1.875,-1.875 l 42.9375,0 c 1.0481,0 1.875,0.8268 1.875,1.875 l 0,42.9375 c 0,0.4988 -0.19066,0.9479 -0.5,1.2812 0.67623,-0.301 1.15625,-0.9566 1.15625,-1.75 l 0,-43.0625 c 0,-1.0773 -0.86022,-1.9375 -1.9375,-1.9375 L 386.50893,499.79799 Z"/><path id="path3268" fill="url(#linearGradient4172)" fill-opacity="1" stroke="none" d="m 395.57143,508.798 0,30 26,0 0,-12.29883 -15.1836,-17.70117 -10.8164,0 z m 13.45117,0 1.71484,2 8.83399,0 0,10.29687 2,2.33204 0,-14.62891 -12.54883,0 z"/><path id="path4187" fill="#0082bd" fill-opacity=".314" stroke="none" d="M 24.451172 9 L 26.166016 11 L 35 11 L 35 10.199219 L 26.166016 10.199219 L 25.138672 9 L 24.451172 9 z M 35 20.496094 L 35 21.296875 L 37 23.628906 L 37 22.828125 L 35 20.496094 z M 11 38.199219 L 11 39 L 37 39 L 37 38.199219 L 11 38.199219 z" transform="translate(384.57143,499.798)"/><path id="path4192" fill="#fff" fill-opacity=".235" stroke="none" d="M 11 9 L 11 9.4003906 L 21.816406 9.4003906 L 37 27.101562 L 37 26.701172 L 21.816406 9 L 11 9 z M 24.451172 9 L 24.794922 9.4003906 L 37 9.4003906 L 37 9 L 24.451172 9 z" transform="translate(384.57143,499.798)"/></g></svg>