<svg xmlns="http://www.w3.org/2000/svg" xmlns:svg="http://www.w3.org/2000/svg" xmlns:xlink="http://www.w3.org/1999/xlink" id="svg2" width="48" height="48" version="1.1"><defs id="defs4"><linearGradient id="linearGradient4336"><stop id="stop4338" offset="0" stop-color="#d8eaff" stop-opacity="1"/><stop id="stop4340" offset="1" stop-color="#deedff" stop-opacity="1"/></linearGradient><linearGradient id="linearGradient4181"><stop id="stop4183" offset="0" stop-color="#fff" stop-opacity="1"/><stop id="stop4185" offset="1" stop-color="#fff" stop-opacity="0"/></linearGradient><linearGradient id="linearGradient4166"><stop id="stop4168" offset="0" stop-color="#68a2ba" stop-opacity="1"/><stop id="stop4170" offset="1" stop-color="#66a0b8" stop-opacity="0"/></linearGradient><linearGradient id="linearGradient4130"><stop id="stop4132" offset="0" stop-color="#0f1b29" stop-opacity=".453"/><stop id="stop4134" offset="1" stop-color="#545f6c" stop-opacity="1"/></linearGradient><linearGradient id="linearGradient4121" x1="24.002" x2="24.002" y1="-1052.361" y2="-1004.358" gradientUnits="userSpaceOnUse" xlink:href="#linearGradient3700-46-1-4"/><linearGradient id="linearGradient4125" x1="24.002" x2="24.002" y1="-1052.361" y2="-1004.358" gradientTransform="matrix(1,0,0,-0.22916663,0,-193.16603)" gradientUnits="userSpaceOnUse" xlink:href="#linearGradient4130"/><linearGradient id="linearGradient4163" x1="48.078" x2="32.993" y1="-1045.06" y2="-1029.976" gradientTransform="matrix(1,0,0,-1,0,-1004.3622)" gradientUnits="userSpaceOnUse" xlink:href="#linearGradient4166"/><linearGradient id="linearGradient4187" x1="-.53" x2="21.349" y1="-15.993" y2="21.903" gradientUnits="userSpaceOnUse" xlink:href="#linearGradient4181"/><linearGradient id="linearGradient4262" x1="24.661" x2="21.964" y1="1049.362" y2="1039.602" gradientTransform="matrix(0.63636364,0,0,0.87500025,8.7272725,134.16999)" gradientUnits="userSpaceOnUse" xlink:href="#linearGradient1293-8"/><linearGradient id="linearGradient4266" x1="24.661" x2="21.964" y1="1049.362" y2="1039.602" gradientTransform="matrix(0.63636364,0,0,0.87500025,-0.0727272,134.16999)" gradientUnits="userSpaceOnUse" xlink:href="#linearGradient1233-8"/><linearGradient id="linearGradient4351" x1="27.931" x2="27.931" y1="1030.619" y2="1018.421" gradientTransform="matrix(1.1198906,0,0,1.1198906,-4.0512869,-121.00982)" gradientUnits="userSpaceOnUse" xlink:href="#linearGradient4336"/><linearGradient id="linearGradient4405" x1="24.661" x2="21.964" y1="1049.362" y2="1039.602" gradientTransform="matrix(0.63636364,0,0,0.87500025,17.527274,134.16999)" gradientUnits="userSpaceOnUse" xlink:href="#linearGradient1271-4"/><linearGradient id="linearGradient3700-46-1-4"><stop id="stop3702-4-1-6" offset="0" stop-color="#2276c5" stop-opacity="1"/><stop id="stop3704-2-4-4" offset="1" stop-color="#68baf4" stop-opacity="1"/></linearGradient><linearGradient id="linearGradient1271-4"><stop id="stop1273-2" offset="0" stop-color="#8a0" stop-opacity="1"/><stop id="stop1275-7" offset="1" stop-color="#6f0" stop-opacity="1"/></linearGradient><linearGradient id="linearGradient1293-8"><stop id="stop1295-8" offset="0" stop-color="#08a" stop-opacity="1"/><stop id="stop1297-6" offset="1" stop-color="#0cf" stop-opacity="1"/></linearGradient><linearGradient id="linearGradient1233-8"><stop id="stop1235-6" offset="0" stop-color="#e38141" stop-opacity="1"/><stop id="stop1237-5" offset="1" stop-color="#ffcf00" stop-opacity="1"/></linearGradient></defs><metadata id="metadata7"/><g id="layer1" transform="translate(0,-1004.3622)"><rect id="rect2991-1-7" width="48" height="48" x="0" y="-1052.362" fill="url(#linearGradient4121)" fill-opacity="1" stroke="none" ry="1.945" transform="scale(1,-1)"/><path id="rect4159" fill="url(#linearGradient4163)" fill-opacity="1" stroke="none" d="M 47.431641 0.56835938 L 0.56835938 47.431641 C 0.91983563 47.783117 1.4066739 48 1.9453125 48 L 46.054688 48 C 47.131965 48 48 47.131965 48 46.054688 L 48 1.9453125 C 48 1.4066739 47.783117 0.91983563 47.431641 0.56835938 z" transform="translate(0,1004.3622)"/><path id="path4140" fill="#000" fill-opacity=".059" stroke="none" d="m 0,38.8 0,7.254688 C 0,47.131965 0.86803535,48 1.9453125,48 L 46.054688,48 C 47.131965,48 48,47.131965 48,46.054688 L 48,38.8 Z" transform="translate(0,1004.3622)"/><path id="path4138" fill="#000" fill-opacity=".118" stroke="none" d="m 0,39.2 0,6.854688 C 0,47.131965 0.86803535,48 1.9453125,48 L 46.054688,48 C 47.131965,48 48,47.131965 48,46.054688 L 48,39.2 Z" transform="translate(0,1004.3622)"/><path id="path4136" fill="#000" fill-opacity=".235" stroke="none" d="m 0,39.6 0,6.454688 C 0,47.131965 0.86803535,48 1.9453125,48 L 46.054688,48 C 47.131965,48 48,47.131965 48,46.054688 L 48,39.6 Z" transform="translate(0,1004.3622)"/><path id="rect4123" fill="url(#linearGradient4125)" fill-opacity="1" stroke="none" d="m 0,40 0,6.054688 C 0,47.131965 0.86803535,48 1.9453125,48 L 46.054688,48 C 47.131965,48 48,47.131965 48,46.054688 L 48,40 Z" transform="translate(0,1004.3622)"/><rect id="rect4260" width="7" height="7" x="20.5" y="1045.362" fill="url(#linearGradient4262)" fill-opacity="1" stroke="none" ry="0"/><rect id="rect4264" width="7" height="7" x="11.7" y="1045.362" fill="url(#linearGradient4266)" fill-opacity="1" stroke="none" ry="0"/><path font-stretch="normal" style="line-height:125%;-inkscape-font-specification:Cony" id="path4385" fill="#000" fill-opacity=".059" stroke="none" d="m 13.934113,1016.995 0,5.8247 -4.3111419,0 c -1.063896,0.084 -1.6229664,0.8955 -1.6229664,2.4914 l 0,6.2993 c 0,1.5959 0.5590704,2.4358 1.6229664,2.5198 l 6.6624739,0 0,-17.1352 -2.351332,0 z m 5.713192,0 0,17.1352 6.662474,0 c 1.063896,-0.084 1.622967,-0.9239 1.622967,-2.5198 l 0,-6.2993 c 0,-1.5959 -0.559071,-2.4074 -1.622967,-2.4914 l -4.311141,0 0,-5.8247 -2.351333,0 z m 11.6473,5.851 3.442789,6.0763 -3.442789,5.1795 1.006151,0 2.856597,-4.3396 2.239782,4.3396 2.60287,0 -3.414354,-6.3563 3.414354,-4.8995 -1.034587,0 -2.799726,4.1733 -2.296651,-4.1733 -2.574436,0 z m -19.460287,0.6452 2.099795,0 0,8.1192 c 0,1.1199 -0.279098,1.8199 -1.48298,1.8199 l -0.616815,0 c -1.203882,0 -1.48298,-0.7 -1.48298,-1.8199 l 0,-6.2993 c 0,-1.1199 0.279098,-1.8199 1.48298,-1.8199 z m 10.16432,0 2.099795,0 c 1.203883,0 1.482979,0.7 1.482979,1.8199 l 0,6.2993 c 0,1.1199 -0.279096,1.8199 -1.482979,1.8199 l -0.616815,0 c -1.203883,0 -1.48298,-0.7 -1.48298,-1.8199 l 0,-8.1192 z" font-family="Cony" font-size="25" font-style="normal" font-variant="normal" font-weight="normal" letter-spacing="0" word-spacing="0"/><path font-stretch="normal" style="line-height:125%;-inkscape-font-specification:Cony" id="path4383" fill="#000" fill-opacity=".118" stroke="none" d="m 13.934113,1016.595 0,5.8247 -4.3111419,0 c -1.063896,0.084 -1.6229664,0.8955 -1.6229664,2.4914 l 0,6.2993 c 0,1.5959 0.5590704,2.4358 1.6229664,2.5198 l 6.6624739,0 0,-17.1352 -2.351332,0 z m 5.713192,0 0,17.1352 6.662474,0 c 1.063896,-0.084 1.622967,-0.9239 1.622967,-2.5198 l 0,-6.2993 c 0,-1.5959 -0.559071,-2.4074 -1.622967,-2.4914 l -4.311141,0 0,-5.8247 -2.351333,0 z m 11.6473,5.851 3.442789,6.0763 -3.442789,5.1795 1.006151,0 2.856597,-4.3396 2.239782,4.3396 2.60287,0 -3.414354,-6.3563 3.414354,-4.8995 -1.034587,0 -2.799726,4.1733 -2.296651,-4.1733 -2.574436,0 z m -19.460287,0.6452 2.099795,0 0,8.1192 c 0,1.1199 -0.279098,1.8199 -1.48298,1.8199 l -0.616815,0 c -1.203882,0 -1.48298,-0.7 -1.48298,-1.8199 l 0,-6.2993 c 0,-1.1199 0.279098,-1.8199 1.48298,-1.8199 z m 10.16432,0 2.099795,0 c 1.203883,0 1.482979,0.7 1.482979,1.8199 l 0,6.2993 c 0,1.1199 -0.279096,1.8199 -1.482979,1.8199 l -0.616815,0 c -1.203883,0 -1.48298,-0.7 -1.48298,-1.8199 l 0,-8.1192 z" font-family="Cony" font-size="25" font-style="normal" font-variant="normal" font-weight="normal" letter-spacing="0" word-spacing="0"/><path font-stretch="normal" style="line-height:125%;-inkscape-font-specification:Cony" id="path4377" fill="#000" fill-opacity=".235" stroke="none" d="m 13.934113,1016.195 0,5.8247 -4.3111419,0 c -1.063896,0.084 -1.6229664,0.8955 -1.6229664,2.4914 l 0,6.2993 c 0,1.5959 0.5590704,2.4358 1.6229664,2.5198 l 6.6624739,0 0,-17.1352 -2.351332,0 z m 5.713192,0 0,17.1352 6.662474,0 c 1.063896,-0.084 1.622967,-0.9239 1.622967,-2.5198 l 0,-6.2993 c 0,-1.5959 -0.559071,-2.4074 -1.622967,-2.4914 l -4.311141,0 0,-5.8247 -2.351333,0 z m 11.6473,5.851 3.442789,6.0763 -3.442789,5.1795 1.006151,0 2.856597,-4.3396 2.239782,4.3396 2.60287,0 -3.414354,-6.3563 3.414354,-4.8995 -1.034587,0 -2.799726,4.1733 -2.296651,-4.1733 -2.574436,0 z m -19.460287,0.6452 2.099795,0 0,8.1192 c 0,1.1199 -0.279098,1.8199 -1.48298,1.8199 l -0.616815,0 c -1.203882,0 -1.48298,-0.7 -1.48298,-1.8199 l 0,-6.2993 c 0,-1.1199 0.279098,-1.8199 1.48298,-1.8199 z m 10.16432,0 2.099795,0 c 1.203883,0 1.482979,0.7 1.482979,1.8199 l 0,6.2993 c 0,1.1199 -0.279096,1.8199 -1.482979,1.8199 l -0.616815,0 c -1.203883,0 -1.48298,-0.7 -1.48298,-1.8199 l 0,-8.1192 z" font-family="Cony" font-size="25" font-style="normal" font-variant="normal" font-weight="normal" letter-spacing="0" word-spacing="0"/><path font-stretch="normal" style="line-height:125%;-inkscape-font-specification:Cony" id="path4345" fill="url(#linearGradient4351)" fill-opacity="1" stroke="none" d="m 13.934113,1015.7946 0,5.8247 -4.3111419,0 c -1.063896,0.084 -1.6229664,0.8955 -1.6229664,2.4914 l 0,6.2993 c 0,1.5959 0.5590704,2.4358 1.6229664,2.5198 l 6.6624739,0 0,-17.1352 -2.351332,0 z m 5.713192,0 0,17.1352 6.662474,0 c 1.063896,-0.084 1.622967,-0.9239 1.622967,-2.5198 l 0,-6.2993 c 0,-1.5959 -0.559071,-2.4074 -1.622967,-2.4914 l -4.311141,0 0,-5.8247 -2.351333,0 z m 11.6473,5.851 3.442789,6.0763 -3.442789,5.1795 1.006151,0 2.856597,-4.3396 2.239782,4.3396 2.60287,0 -3.414354,-6.3563 3.414354,-4.8995 -1.034587,0 -2.799726,4.1733 -2.296651,-4.1733 -2.574436,0 z m -19.460287,0.6452 2.099795,0 0,8.1192 c 0,1.1199 -0.279098,1.8199 -1.48298,1.8199 l -0.616815,0 c -1.203882,0 -1.48298,-0.7 -1.48298,-1.8199 l 0,-6.2993 c 0,-1.1199 0.279098,-1.8199 1.48298,-1.8199 z m 10.16432,0 2.099795,0 c 1.203883,0 1.482979,0.7 1.482979,1.8199 l 0,6.2993 c 0,1.1199 -0.279096,1.8199 -1.482979,1.8199 l -0.616815,0 c -1.203883,0 -1.48298,-0.7 -1.48298,-1.8199 l 0,-8.1192 z" font-family="Cony" font-size="25" font-style="normal" font-variant="normal" font-weight="normal" letter-spacing="0" word-spacing="0"/><path id="path4387" fill="#427199" fill-opacity=".314" stroke="none" d="M 11.089844 17.257812 C 10.506944 17.508288 10.351562 18.111323 10.351562 18.949219 L 10.351562 19.748047 C 10.351562 18.628147 10.630102 17.927734 11.833984 17.927734 L 13.933594 17.927734 L 13.933594 17.257812 L 11.089844 17.257812 z M 21.998047 17.257812 L 21.998047 17.927734 L 24.097656 17.927734 C 25.301539 17.927734 25.582031 18.628147 25.582031 19.748047 L 25.582031 18.949219 C 25.582031 18.111312 25.424715 17.508282 24.841797 17.257812 L 21.998047 17.257812 z M 31.294922 17.283203 L 34.494141 22.927734 L 34.738281 22.560547 L 31.748047 17.283203 L 31.294922 17.283203 z M 39.443359 17.283203 L 36.585938 21.382812 L 36.828125 21.835938 L 40 17.283203 L 39.443359 17.283203 z M 35.158203 23.400391 L 32.300781 27.740234 L 31.826172 27.740234 L 31.294922 28.539062 L 32.300781 28.539062 L 35.158203 24.199219 L 37.396484 28.539062 L 40 28.539062 L 39.570312 27.740234 L 37.396484 27.740234 L 35.158203 23.400391 z M 8 25.248047 L 8 26.046875 C 8 27.642775 8.5591509 28.484359 9.6230469 28.568359 L 16.285156 28.568359 L 16.285156 27.767578 L 13.097656 27.767578 C 12.91816 27.829217 12.709381 27.867188 12.451172 27.867188 L 11.833984 27.867188 C 11.57636 27.867188 11.368706 27.828945 11.189453 27.767578 L 9.6230469 27.767578 C 8.5591509 27.683578 8 26.843947 8 25.248047 z M 27.933594 25.248047 C 27.933594 26.843947 27.374443 27.683578 26.310547 27.767578 L 24.744141 27.767578 C 24.564644 27.829217 24.355866 27.867188 24.097656 27.867188 L 23.482422 27.867188 C 23.224212 27.867188 23.015434 27.829217 22.835938 27.767578 L 19.646484 27.767578 L 19.646484 28.568359 L 26.310547 28.568359 C 27.374443 28.484359 27.933594 27.642775 27.933594 26.046875 L 27.933594 25.248047 z" font-family="Cony" font-size="25" font-stretch="normal" font-style="normal" font-variant="normal" font-weight="normal" letter-spacing="0" transform="translate(0,1004.3622)" word-spacing="0" style="line-height:125%;-inkscape-font-specification:Cony"/><path id="path4392" fill="#fff" fill-opacity=".235" stroke="none" d="M 13.933594 11.431641 L 13.933594 11.832031 L 16.285156 11.832031 L 16.285156 11.431641 L 13.933594 11.431641 z M 19.646484 11.431641 L 19.646484 11.832031 L 21.998047 11.832031 L 21.998047 11.431641 L 19.646484 11.431641 z M 9.6230469 17.257812 C 8.5591509 17.341812 8 18.152147 8 19.748047 L 8 20.148438 C 8 18.552537 8.5591509 17.742203 9.6230469 17.658203 L 13.933594 17.658203 L 13.933594 17.257812 L 9.6230469 17.257812 z M 21.998047 17.257812 L 21.998047 17.658203 L 26.310547 17.658203 C 27.374443 17.742203 27.933594 18.552537 27.933594 20.148438 L 27.933594 19.748047 C 27.933594 18.152147 27.374443 17.341812 26.310547 17.257812 L 21.998047 17.257812 z M 31.294922 17.283203 L 31.521484 17.683594 L 33.869141 17.683594 L 36.166016 21.857422 L 38.964844 17.683594 L 39.720703 17.683594 L 40 17.283203 L 38.964844 17.283203 L 36.166016 21.457031 L 33.869141 17.283203 L 31.294922 17.283203 z M 36.707031 22.410156 L 36.585938 22.583984 L 39.785156 28.539062 L 40 28.539062 L 36.707031 22.410156 z M 34.615234 23.542969 L 31.294922 28.539062 L 31.560547 28.539062 L 34.738281 23.759766 L 34.615234 23.542969 z M 10.351562 26.046875 L 10.351562 26.447266 C 10.351563 27.567166 10.630102 28.267578 11.833984 28.267578 L 12.451172 28.267578 C 13.655054 28.267578 13.933594 27.567166 13.933594 26.447266 L 13.933594 26.046875 C 13.933594 27.166775 13.655054 27.867188 12.451172 27.867188 L 11.833984 27.867188 C 10.630102 27.867188 10.351563 27.166775 10.351562 26.046875 z M 21.998047 26.046875 L 21.998047 26.447266 C 21.998047 27.567166 22.278539 28.267578 23.482422 28.267578 L 24.097656 28.267578 C 25.301539 28.267578 25.582031 27.567166 25.582031 26.447266 L 25.582031 26.046875 C 25.582031 27.166775 25.301539 27.867188 24.097656 27.867188 L 23.482422 27.867188 C 22.278539 27.867188 21.998047 27.166775 21.998047 26.046875 z" font-family="Cony" font-size="25" font-stretch="normal" font-style="normal" font-variant="normal" font-weight="normal" letter-spacing="0" transform="translate(0,1004.3622)" word-spacing="0" style="line-height:125%;-inkscape-font-specification:Cony"/><path id="rect4172" fill="url(#linearGradient4187)" fill-opacity="1" stroke="none" d="M 1.9453125 0 C 0.86803535 0 0 0.86803535 0 1.9453125 L 0 28.636719 C 21.544715 27.937487 37.670531 10.88488 45.828125 0 L 1.9453125 0 z" transform="translate(0,1004.3622)"/><rect id="rect4403" width="7" height="7" x="29.3" y="1045.362" fill="url(#linearGradient4405)" fill-opacity="1" stroke="none" ry="0"/><rect id="rect4397" width="48" height=".6" x="0" y="1044.362" fill="#000" fill-opacity=".235" stroke="none"/><path id="path4417" fill="#000" fill-opacity=".235" stroke="none" d="m 29.300001,1050.7626 0,0.5996 7,0 0,-0.5996 -7,0 z"/><path id="path4419" fill="#fff" fill-opacity=".235" stroke="none" d="m 29.300001,1045.3622 0,0.5996 7,0 0,-0.5996 -7,0 z"/><path id="path4421" fill="#000" fill-opacity=".235" stroke="none" d="m 20.5,1050.7626 0,0.5996 7,0 0,-0.5996 -7,0 z"/><path id="path4222" fill="#fff" fill-opacity=".924" stroke="none" d="m 23.894312,1051.2624 0.987497,-1.7104 0.987497,1.7104 z" transform="matrix(1.5189921,0,0,1.1693207,-13.795272,-177.90068)"/><path id="path4423" fill="#fff" fill-opacity=".235" stroke="none" d="m 20.5,1045.3622 0,0.5996 7,0 0,-0.5996 -7,0 z"/><path id="path4425" fill="#000" fill-opacity=".235" stroke="none" d="m 11.699999,1050.7626 0,0.5996 7,0 0,-0.5996 -7,0 z"/><path id="path4427" fill="#fff" fill-opacity=".235" stroke="none" d="m 11.699999,1045.3622 0,0.5996 7,0 0,-0.5996 -7,0 z"/><g id="g4288"><path id="path7515-8" fill="#fff" fill-opacity=".537" stroke="none" d="m 2.5312451,1005.0185 c -0.91709,0 -1.67114999,0.6395 -1.84374999,1.5 0.33560999,-0.2799 0.77450999,-0.4375 1.24999999,-0.4375 l 44.1249999,0 c 0.47549,0 0.91439,0.1576 1.25,0.4375 -0.1726,-0.8605 -0.92666,-1.5 -1.84375,-1.5 L 2.5312451,1005.0185 Z"/><path id="rect4280-4" fill="#000" fill-opacity=".392" stroke="none" d="m 1.9374951,1004.3622 c -1.07727999,0 -1.9374999928833,0.8602 -1.9374999928833,1.9375 l 0,43.0625 c 0,0.7934 0.4800200028833,1.449 1.1562499928833,1.75 -0.30933999,-0.3333 -0.49999999,-0.7824 -0.49999999,-1.2812 l 0,-42.9375 c 0,-1.0482 0.82689999,-1.875 1.87499999,-1.875 l 42.9374999,0 c 1.0481,0 1.875,0.8268 1.875,1.875 l 0,42.9375 c 0,0.4988 -0.19066,0.9479 -0.5,1.2812 0.67623,-0.301 1.15625,-0.9566 1.15625,-1.75 l 0,-43.0625 c 0,-1.0773 -0.86022,-1.9375 -1.9375,-1.9375 L 1.9374951,1004.3622 Z"/><path id="rect846-4" fill="#000" fill-opacity="1" stroke="none" d="m -4.8928833e-6,1049.3622 0,1.0625 c 0,1.0773 0.8602200028833,1.9375 1.9374999928833,1.9375 l 44.1249999,0 c 1.07728,0 1.9375,-0.8602 1.9375,-1.9375 l 0,-1.0625 c 0,1.0773 -0.86022,1.9375 -1.9375,1.9375 l -44.1249999,0 C 0.86021511,1051.2997 -4.8928833e-6,1050.4395 -4.8928833e-6,1049.3622 Z"/></g><path id="path4224" fill="#fff" fill-opacity=".314" stroke="none" d="m 23.894312,1051.2624 0.987497,-1.7104 0.987497,1.7104 z" transform="matrix(1.5189921,0,0,1.1693207,-22.595273,-177.90068)"/><path id="path4226" fill="#fff" fill-opacity=".314" stroke="none" d="m 23.894312,1051.2624 0.987497,-1.7104 0.987497,1.7104 z" transform="matrix(1.5189921,0,0,1.1693207,-4.9952705,-177.90068)"/></g></svg>