<svg xmlns="http://www.w3.org/2000/svg" xmlns:svg="http://www.w3.org/2000/svg" xmlns:xlink="http://www.w3.org/1999/xlink" id="svg5453" width="48" height="48" version="1.1"><defs id="defs5455"><linearGradient id="linearGradient4085"><stop id="stop4087" offset="0" stop-color="#f1c7c7" stop-opacity="1"/><stop id="stop4089" offset="1" stop-color="#fef6f6" stop-opacity="1"/></linearGradient><linearGradient id="linearGradient3795"><stop id="stop3797" offset="0" stop-color="#ce3c3c" stop-opacity="1"/><stop id="stop3799" offset="1" stop-color="#ea5252" stop-opacity="1"/></linearGradient><linearGradient id="linearGradient848" x1="24.042" x2="24.042" y1="-1053.069" y2="-1004.633" gradientTransform="translate(384.57142,504.56418)" gradientUnits="userSpaceOnUse" xlink:href="#linearGradient3795"/><linearGradient id="linearGradient4261" x1="25" x2="25" y1="40" y2="8" gradientUnits="userSpaceOnUse" xlink:href="#linearGradient4085"/></defs><metadata id="metadata5458"/><g id="layer1" transform="translate(-384.57143,-499.798)"><rect id="rect2991-1" width="48" height="48" x="384.571" y="-547.798" fill="url(#linearGradient848)" fill-opacity="1" stroke="none" ry="1.945" transform="scale(1,-1)"/><path id="path4269" fill="#000" fill-opacity=".059" fill-rule="nonzero" stroke="none" stroke-dasharray="none" stroke-dashoffset="0" stroke-linecap="butt" stroke-linejoin="miter" stroke-miterlimit="4" stroke-opacity="1" stroke-width="1" d="m 391.57143,509.998 c -2.53266,0 -4.91182,0.62727 -7,1.72656 l 0,2.32031 c 2.01969,-1.29 4.41578,-2.04687 7,-2.04687 7.202,0 13,5.798 13,13 0,7.202 -5.798,13 -13,13 -2.58422,0 -4.98031,-0.75687 -7,-2.04688 l 0,2.32032 c 2.08818,1.09929 4.46734,1.72656 7,1.72656 8.31,0 15,-6.69 15,-15 0,-8.31 -6.69,-15 -15,-15 z m 34,0 c -8.31,0 -15,6.69 -15,15 0,8.31 6.69,15 15,15 2.53266,0 4.91182,-0.62727 7,-1.72656 l 0,-2.32032 c -2.01969,1.29002 -4.41578,2.04688 -7,2.04688 -7.202,0 -13,-5.798 -13,-13 0,-7.202 5.798,-13 13,-13 2.58422,0 4.98031,0.75687 7,2.04687 l 0,-2.32031 c -2.08818,-1.09929 -4.46734,-1.72656 -7,-1.72656 z" clip-rule="nonzero" color="#000" color-interpolation="sRGB" color-interpolation-filters="linearRGB" color-rendering="auto" display="inline" enable-background="accumulate" image-rendering="auto" opacity="1" overflow="visible" shape-rendering="auto" text-decoration="none" text-rendering="auto" visibility="visible" style="text-decoration-line:none;text-decoration-style:solid;text-decoration-color:#000;white-space:normal;isolation:auto;mix-blend-mode:normal;solid-color:#000;solid-opacity:1"/><path color="#000" style="text-decoration-line:none;text-decoration-style:solid;text-decoration-color:#000;white-space:normal;isolation:auto;mix-blend-mode:normal;solid-color:#000;solid-opacity:1" id="path4267" fill="#000" fill-opacity=".118" fill-rule="nonzero" stroke="none" stroke-dasharray="none" stroke-dashoffset="0" stroke-linecap="butt" stroke-linejoin="miter" stroke-miterlimit="4" stroke-opacity="1" stroke-width="1" d="m 391.57143,509.598 c -2.53266,0 -4.91182,0.62727 -7,1.72656 l 0,2.32031 c 2.01969,-1.29 4.41578,-2.04687 7,-2.04687 7.202,0 13,5.798 13,13 0,7.202 -5.798,13 -13,13 -2.58422,0 -4.98031,-0.75687 -7,-2.04688 l 0,2.32032 c 2.08818,1.09929 4.46734,1.72656 7,1.72656 8.31,0 15,-6.69 15,-15 0,-8.31 -6.69,-15 -15,-15 z m 34,0 c -8.31,0 -15,6.69 -15,15 0,8.31 6.69,15 15,15 2.53266,0 4.91182,-0.62727 7,-1.72656 l 0,-2.32032 c -2.01969,1.29002 -4.41578,2.04688 -7,2.04688 -7.202,0 -13,-5.798 -13,-13 0,-7.202 5.798,-13 13,-13 2.58422,0 4.98031,0.75687 7,2.04687 l 0,-2.32031 c -2.08818,-1.09929 -4.46734,-1.72656 -7,-1.72656 z" clip-rule="nonzero" color-interpolation="sRGB" color-interpolation-filters="linearRGB" color-rendering="auto" display="inline" enable-background="accumulate" image-rendering="auto" opacity="1" overflow="visible" shape-rendering="auto" text-decoration="none" text-rendering="auto" visibility="visible"/><path id="path4263" fill="#000" fill-opacity=".235" fill-rule="nonzero" stroke="none" stroke-dasharray="none" stroke-dashoffset="0" stroke-linecap="butt" stroke-linejoin="miter" stroke-miterlimit="4" stroke-opacity="1" stroke-width="1" d="m 391.57143,509.198 c -2.53266,0 -4.91182,0.62727 -7,1.72656 l 0,2.32031 c 2.01969,-1.29 4.41578,-2.04687 7,-2.04687 7.202,0 13,5.798 13,13 0,7.202 -5.798,13 -13,13 -2.58422,0 -4.98031,-0.75687 -7,-2.04688 l 0,2.32032 c 2.08818,1.09929 4.46734,1.72656 7,1.72656 8.31,0 15,-6.69 15,-15 0,-8.31 -6.69,-15 -15,-15 z m 34,0 c -8.31,0 -15,6.69 -15,15 0,8.31 6.69,15 15,15 2.53266,0 4.91182,-0.62727 7,-1.72656 l 0,-2.32032 c -2.01969,1.29002 -4.41578,2.04688 -7,2.04688 -7.202,0 -13,-5.798 -13,-13 0,-7.202 5.798,-13 13,-13 2.58422,0 4.98031,0.75687 7,2.04687 l 0,-2.32031 c -2.08818,-1.09929 -4.46734,-1.72656 -7,-1.72656 z" clip-rule="nonzero" color="#000" color-interpolation="sRGB" color-interpolation-filters="linearRGB" color-rendering="auto" display="inline" enable-background="accumulate" image-rendering="auto" opacity="1" overflow="visible" shape-rendering="auto" text-decoration="none" text-rendering="auto" visibility="visible" style="text-decoration-line:none;text-decoration-style:solid;text-decoration-color:#000;white-space:normal;isolation:auto;mix-blend-mode:normal;solid-color:#000;solid-opacity:1"/><rect id="rect1526" width="48" height="48" x="384.571" y="499.798" fill="none" stroke="none" ry="0"/><path color="#000" style="text-decoration-line:none;text-decoration-style:solid;text-decoration-color:#000;white-space:normal;isolation:auto;mix-blend-mode:normal;solid-color:#000;solid-opacity:1" id="rect4233" fill="url(#linearGradient4261)" fill-opacity="1" fill-rule="nonzero" stroke="none" stroke-dasharray="none" stroke-dashoffset="0" stroke-linecap="butt" stroke-linejoin="miter" stroke-miterlimit="4" stroke-opacity="1" stroke-width="1" d="M 7 9 C 4.467343 9 2.0881789 9.6272742 0 10.726562 L 0 13.046875 C 2.0196871 11.756871 4.4157831 11 7 11 C 14.202 11 20 16.798 20 24 C 20 31.202 14.202 37 7 37 C 4.4157831 37 2.0196871 36.243129 0 34.953125 L 0 37.273438 C 2.0881789 38.372726 4.467343 39 7 39 C 15.31 39 22 32.31 22 24 C 22 15.69 15.31 9 7 9 z M 41 9 C 32.69 9 26 15.69 26 24 C 26 32.31 32.69 39 41 39 C 43.53266 39 45.91182 38.372727 48 37.273438 L 48 34.953125 C 45.98031 36.243135 43.58422 37 41 37 C 33.798 37 28 31.202 28 24 C 28 16.798 33.798 11 41 11 C 43.58422 11 45.98031 11.756875 48 13.046875 L 48 10.726562 C 45.91182 9.6272725 43.53266 9 41 9 z" clip-rule="nonzero" color-interpolation="sRGB" color-interpolation-filters="linearRGB" color-rendering="auto" display="inline" enable-background="accumulate" image-rendering="auto" opacity="1" overflow="visible" shape-rendering="auto" text-decoration="none" text-rendering="auto" transform="translate(384.57143,499.798)" visibility="visible"/><path color="#000" style="text-decoration-line:none;text-decoration-style:solid;text-decoration-color:#000;white-space:normal;isolation:auto;mix-blend-mode:normal;solid-color:#000;solid-opacity:1" id="path4271" fill="#d03e3e" fill-opacity=".314" fill-rule="nonzero" stroke="none" stroke-dasharray="none" stroke-dashoffset="0" stroke-linecap="butt" stroke-linejoin="miter" stroke-miterlimit="4" stroke-opacity="1" stroke-width="1" d="M 7 10.199219 C 4.41578 10.199219 2.01969 10.956094 0 12.246094 L 0 13.046875 C 2.0196871 11.756871 4.4157831 11 7 11 C 14.066706 11 19.768244 16.586184 19.980469 23.599609 C 19.98452 23.46553 20 23.334315 20 23.199219 C 20 15.997219 14.202 10.199219 7 10.199219 z M 41 10.199219 C 33.798 10.199219 28 15.997219 28 23.199219 C 28 23.334315 28.01548 23.46553 28.019531 23.599609 C 28.231756 16.586184 33.933294 11 41 11 C 43.58422 11 45.98031 11.756875 48 13.046875 L 48 12.246094 C 45.98031 10.956094 43.58422 10.199219 41 10.199219 z M 21.980469 23.599609 C 21.767793 31.721369 15.174897 38.199219 7 38.199219 C 4.46734 38.199219 2.08818 37.571946 0 36.472656 L 0 37.273438 C 2.0881789 38.372726 4.467343 39 7 39 C 15.31 39 22 32.31 22 24 C 22 23.864726 21.983992 23.734003 21.980469 23.599609 z M 26.019531 23.599609 C 26.016008 23.734003 26 23.864726 26 24 C 26 32.31 32.69 39 41 39 C 43.53266 39 45.91182 38.372726 48 37.273438 L 48 36.472656 C 45.91182 37.571946 43.53266 38.199219 41 38.199219 C 32.825103 38.199219 26.232207 31.721369 26.019531 23.599609 z" clip-rule="nonzero" color-interpolation="sRGB" color-interpolation-filters="linearRGB" color-rendering="auto" display="inline" enable-background="accumulate" image-rendering="auto" opacity="1" overflow="visible" shape-rendering="auto" text-decoration="none" text-rendering="auto" transform="translate(384.57143,499.798)" visibility="visible"/><path color="#000" style="text-decoration-line:none;text-decoration-style:solid;text-decoration-color:#000;white-space:normal;isolation:auto;mix-blend-mode:normal;solid-color:#000;solid-opacity:1" id="path4276" fill="#fff" fill-opacity=".235" fill-rule="nonzero" stroke="none" stroke-dasharray="none" stroke-dashoffset="0" stroke-linecap="butt" stroke-linejoin="miter" stroke-miterlimit="4" stroke-opacity="1" stroke-width="1" d="M 7 9 C 4.467343 9 2.0881789 9.6272747 0 10.726562 L 0 11.126953 C 2.08818 10.027663 4.46734 9.4003906 7 9.4003906 C 15.24212 9.4003906 21.882168 15.983684 21.990234 24.199219 C 21.991109 24.132126 22 24.067308 22 24 C 22 15.69 15.31 9 7 9 z M 41 9 C 32.69 9 26 15.69 26 24 C 26 24.067308 26.008891 24.132126 26.009766 24.199219 C 26.117832 15.983684 32.75788 9.4003906 41 9.4003906 C 43.53266 9.4003906 45.91182 10.027663 48 11.126953 L 48 10.726562 C 45.91182 9.627273 43.53266 9 41 9 z M 19.990234 24.199219 C 19.883239 31.307519 14.134682 37 7 37 C 4.4157831 37 2.0196871 36.243129 0 34.953125 L 0 35.353516 C 2.01969 36.643516 4.41578 37.400391 7 37.400391 C 14.202 37.400391 20 31.602391 20 24.400391 C 20 24.332514 19.991261 24.266843 19.990234 24.199219 z M 28.009766 24.199219 C 28.008739 24.266843 28 24.332514 28 24.400391 C 28 31.602391 33.798 37.400391 41 37.400391 C 43.58422 37.400391 45.98031 36.643526 48 35.353516 L 48 34.953125 C 45.98031 36.243135 43.58422 37 41 37 C 33.865318 37 28.116761 31.307519 28.009766 24.199219 z" clip-rule="nonzero" color-interpolation="sRGB" color-interpolation-filters="linearRGB" color-rendering="auto" display="inline" enable-background="accumulate" image-rendering="auto" opacity="1" overflow="visible" shape-rendering="auto" text-decoration="none" text-rendering="auto" transform="translate(384.57143,499.798)" visibility="visible"/><g id="g4281"><path id="rect846-3" fill="#000" fill-opacity="1" stroke="none" d="m 384.57142,544.79802 0,1.0625 c 0,1.0773 0.8602,1.9375 1.9375,1.9375 l 44.125,0 c 1.0773,0 1.9375,-0.8602 1.9375,-1.9375 l 0,-1.0625 c 0,1.0773 -0.8602,1.9375 -1.9375,1.9375 l -44.125,0 c -1.0773,0 -1.9375,-0.8602 -1.9375,-1.9375 z"/><path id="path7515-8" fill="#fff" fill-opacity=".537" stroke="none" d="m 387.10262,500.45432 c -0.917,0 -1.6711,0.6395 -1.8437,1.5 0.3356,-0.2799 0.7745,-0.4375 1.25,-0.4375 l 44.125,0 c 0.4755,0 0.9144,0.1576 1.25,0.4375 -0.1726,-0.8605 -0.9267,-1.5 -1.8437,-1.5 l -42.9376,0 z"/><path id="rect4280-7" fill="#000" fill-opacity=".392" stroke="none" d="m 386.50892,499.79802 c -1.0773,0 -1.9375,0.8602 -1.9375,1.9375 l 0,43.0625 c 0,0.7934 0.48,1.449 1.1562,1.75 -0.3093,-0.3333 -0.5,-0.7824 -0.5,-1.2812 l 0,-42.9375 c 0,-1.0482 0.8269,-1.875 1.875,-1.875 l 42.9376,0 c 1.0481,0 1.875,0.8268 1.875,1.875 l 0,42.9375 c 0,0.4988 -0.1907,0.9479 -0.5,1.2812 0.6762,-0.301 1.1562,-0.9566 1.1562,-1.75 l 0,-43.0625 c 0,-1.0773 -0.8602,-1.9375 -1.9375,-1.9375 l -44.125,0 z"/></g></g></svg>