<svg xmlns="http://www.w3.org/2000/svg" xmlns:svg="http://www.w3.org/2000/svg" xmlns:xlink="http://www.w3.org/1999/xlink" id="svg2" width="48" height="48" version="1.1"><defs id="defs4"><linearGradient id="linearGradient1997" x1="82.5" x2="82.5" y1="-1037.504" y2="-989.511" gradientTransform="translate(-57.640627,-14.867202)" gradientUnits="userSpaceOnUse" xlink:href="#linearGradient6589"/><linearGradient id="linearGradient4171" x1="34.586" x2="34.586" y1="1012.894" y2="1043.83" gradientTransform="matrix(1,0,0,-1,-4.44e-4,2056.7244)" gradientUnits="userSpaceOnUse" xlink:href="#linearGradient4169-1"/><linearGradient id="linearGradient4169"><stop id="stop4171-0" offset="0" stop-color="#e2f4c4" stop-opacity="1"/><stop id="stop4173" offset="1" stop-color="#fdfff5" stop-opacity="1"/></linearGradient><linearGradient id="linearGradient4181" x1="10.41" x2="10.41" y1="13.991" y2="2.012" gradientTransform="matrix(2.5666667,0,0,2.5666667,5.740773,990.50509)" gradientUnits="userSpaceOnUse" xlink:href="#linearGradient4169"/><linearGradient id="linearGradient4185" x1="10.41" x2="10.41" y1="13.991" y2="2.012" gradientTransform="matrix(2.5666667,0,0,2.5666667,5.740773,990.50509)" gradientUnits="userSpaceOnUse" xlink:href="#linearGradient4169"/><linearGradient id="linearGradient4169-1"><stop id="stop4171-1" offset="0" stop-color="#e2f4c4" stop-opacity="1"/><stop id="stop4173-3" offset="1" stop-color="#fdfff5" stop-opacity="1"/></linearGradient><linearGradient id="linearGradient6589"><stop id="stop6591" offset="0" stop-color="#88c425" stop-opacity="1"/><stop id="stop6593" offset="1" stop-color="#bef202" stop-opacity="1"/></linearGradient></defs><metadata id="metadata7"/><g id="layer1" transform="translate(0,-1004.3622)"><rect id="rect2991-1" width="48" height="48" x="0" y="-1052.362" fill="url(#linearGradient1997)" fill-opacity="1" stroke="none" ry="1.945" transform="scale(1,-1)"/><path id="rect846" fill="#000" fill-opacity="1" stroke="none" d="m -2.5e-6,1049.3622 0,1.0625 c 0,1.0773 0.860223,1.9375 1.9375,1.9375 l 44.1250055,0 c 1.07727,0 1.9375,-0.8602 1.9375,-1.9375 l 0,-1.0625 c 0,1.0773 -0.86023,1.9375 -1.9375,1.9375 l -44.1250055,0 C 0.8602205,1051.2997 -2.5e-6,1050.4395 -2.5e-6,1049.3622 Z"/><path id="path7515" fill="#fff" fill-opacity=".537" stroke="none" d="m 2.5312475,1005.0185 c -0.917088,0 -1.671146,0.6395 -1.84375,1.5 0.335612,-0.2799 0.774513,-0.4375 1.25,-0.4375 l 44.1250055,0 c 0.47548,0 0.91438,0.1576 1.25,0.4375 -0.17261,-0.8605 -0.92667,-1.5 -1.84375,-1.5 L 2.5312475,1005.0185 Z"/><path id="rect4280-8" fill="#000" fill-opacity=".392" stroke="none" d="m 1.9374975,1004.3622 c -1.077277,0 -1.9375,0.8602 -1.9375,1.9375 l 0,43.0625 c 0,0.7934 0.480024,1.449 1.15625,1.75 -0.309341,-0.3333 -0.5,-0.7824 -0.5,-1.2812 l 0,-42.9375 c 0,-1.0482 0.826899,-1.875 1.875,-1.875 l 42.9375055,0 c 1.0481,0 1.875,0.8268 1.875,1.875 l 0,42.9375 c 0,0.4988 -0.19066,0.9479 -0.5,1.2812 0.67622,-0.301 1.15625,-0.9566 1.15625,-1.75 l 0,-43.0625 c 0,-1.0773 -0.86023,-1.9375 -1.9375,-1.9375 L 1.9374975,1004.3622 Z"/><path id="path4153" fill="#000" fill-opacity=".059" d="m 8.599557,1029.5776 5.4593,-5.4516 c 0,0 3.062675,3.0607 6.077225,6.0753 l 0,-16.0391 7.720212,0 0,16.0391 6.083,-6.083 5.46026,5.4593 -15.398072,15.3846 -15.401925,-15.3846 z"/><path id="path4151" fill="#000" fill-opacity=".118" d="m 8.599557,1029.1776 5.4593,-5.4516 c 0,0 3.062675,3.0607 6.077225,6.0753 l 0,-16.0391 7.720212,0 0,16.0391 6.082999,-6.083 5.460261,5.4593 -15.398071,15.3846 -15.401926,-15.3846 z"/><path id="path4147" fill="#000" fill-opacity=".235" d="m 8.599559,1028.7776 5.4593,-5.4516 c 0,0 3.062675,3.0607 6.077225,6.0753 l 0,-16.0391 7.720212,0 0,16.0391 6.082999,-6.083 5.460259,5.4593 -15.39807,15.3846 -15.401925,-15.3846 z"/><path id="path4099" fill="url(#linearGradient4171)" fill-opacity="1" d="m 8.599556,1028.3776 5.4593,-5.4516 c 0,0 3.062675,3.0607 6.07722,6.0753 l 0,-16.0391 7.72022,0 0,16.0391 6.083,-6.083 5.460258,5.4593 -15.398078,15.3846 -15.40192,-15.3846 z"/><rect id="rect4898" width="56.467" height="56.467" x="5.741" y="990.505" fill="url(#linearGradient4181)" fill-opacity="1" fill-rule="nonzero" stroke="none" display="none"/><rect id="rect4126" width="56.467" height="56.467" x="5.741" y="990.505" fill="url(#linearGradient4185)" fill-opacity="1" fill-rule="nonzero" stroke="none" display="none"/><path id="path4269" fill="#90cb20" fill-opacity=".314" d="m 9.000053,1027.9774 -0.40039,0.4004 15.402343,15.3848 15.398438,-15.3848 -0.40039,-0.4004 -14.998048,14.9844 -15.001953,-14.9844 z"/><path id="path4274" fill="#fff" fill-opacity=".235" d="m 20.136772,1012.9618 0,0.4004 7.71875,0 0,-0.4004 -7.71875,0 z m 13.802734,9.957 -6.083984,6.0821 0,0.4004 6.083984,-6.0821 5.259768,5.2578 0.20117,-0.1992 -5.460938,-5.459 z m -19.880859,0.01 -5.458984,5.4511 0.201172,0.1992 5.257812,-5.2519 c 0,0 3.06358,3.0616 6.078125,6.0762 l 0,-0.4004 c -3.014545,-3.0146 -6.078125,-6.0742 -6.078125,-6.0742 z"/></g></svg>