<svg xmlns="http://www.w3.org/2000/svg" xmlns:svg="http://www.w3.org/2000/svg" xmlns:xlink="http://www.w3.org/1999/xlink" id="svg2" width="48" height="48" version="1.1"><defs id="defs4"><style id="style2464" type="text/css"/><style id="style2464-7" type="text/css"/><linearGradient id="linearGradient868-9"><stop id="stop870-2" offset="0" stop-color="#a00" stop-opacity="1"/><stop id="stop872-3" offset="1" stop-color="#ff3939" stop-opacity="1"/></linearGradient><linearGradient id="linearGradient844" x1="24.177" x2="24.177" y1="-1052.185" y2="-1005.204" gradientTransform="translate(-2.7380371e-7,1.1997656e-5)" gradientUnits="userSpaceOnUse" xlink:href="#linearGradient853"/><linearGradient id="linearGradient4406" x1="33.649" x2="33.649" y1="39" y2="9" gradientTransform="matrix(1.0266664,0,0,1.0266664,-0.64,1003.7222)" gradientUnits="userSpaceOnUse" xlink:href="#linearGradient845"/><linearGradient id="linearGradient4442" x1="28.75" x2="28.75" y1="1030.487" y2="1007.362" gradientUnits="userSpaceOnUse" xlink:href="#linearGradient868-9"/><linearGradient id="linearGradient4574" x1="28.742" x2="28.742" y1="1007.364" y2="1030.431" gradientTransform="matrix(-1,0,0,-1,48.400391,2056.7264)" gradientUnits="userSpaceOnUse" xlink:href="#linearGradient868-9"/><linearGradient id="linearGradient853"><stop id="stop855" offset="0" stop-color="#36b512" stop-opacity="1"/><stop id="stop857" offset="1" stop-color="#93e62f" stop-opacity="1"/></linearGradient><linearGradient id="linearGradient845"><stop id="stop847" offset="0" stop-color="#8eda68" stop-opacity="1"/><stop id="stop4243" offset=".5" stop-color="#d5f2c4" stop-opacity="1"/><stop id="stop849" offset="1" stop-color="#f0fbe5" stop-opacity="1"/></linearGradient></defs><metadata id="metadata7"/><g id="layer1" transform="translate(0,-1004.3622)"><rect id="rect2991-1" width="48" height="48" x="0" y="-1052.362" fill="url(#linearGradient844)" fill-opacity="1" stroke="none" ry="1.945" transform="scale(1,-1)"/><path id="path4424" fill="#000" fill-opacity=".059" stroke="none" d="m 24,1014.1622 c -4.031711,0 -8.038595,1.6597 -10.889445,4.5106 -2.85085,2.8508 -4.5105553,6.8577 -4.510555,10.8894 -3e-7,4.0317 1.659705,8.0386 4.510555,10.8894 2.85085,2.8509 6.857734,4.5106 10.889445,4.5106 4.031711,0 8.038595,-1.6597 10.889445,-4.5106 2.85085,-2.8508 4.510555,-6.8577 4.510555,-10.8894 0,-4.0317 -1.659705,-8.0386 -4.510555,-10.8894 -2.85085,-2.8509 -6.857734,-4.5106 -10.889445,-4.5106 z m 0,11.2936 c 2.150156,0 4.106525,1.9562 4.106664,4.1064 -1.39e-4,2.1502 -1.956508,4.1064 -4.106664,4.1064 -2.150156,0 -4.106525,-1.9562 -4.106664,-4.1064 1.39e-4,-2.1502 1.956508,-4.1064 4.106664,-4.1064 z"/><path id="path4422" fill="#000" fill-opacity=".235" stroke="none" d="m 24,1013.7622 c -4.031711,0 -8.038595,1.6597 -10.889445,4.5106 -2.85085,2.8508 -4.5105553,6.8577 -4.510555,10.8894 -3e-7,4.0317 1.659705,8.0386 4.510555,10.8894 2.85085,2.8509 6.857734,4.5106 10.889445,4.5106 4.031711,0 8.038595,-1.6597 10.889445,-4.5106 2.85085,-2.8508 4.510555,-6.8577 4.510555,-10.8894 0,-4.0317 -1.659705,-8.0386 -4.510555,-10.8894 -2.85085,-2.8509 -6.857734,-4.5106 -10.889445,-4.5106 z m 0,11.2936 c 2.150156,0 4.106525,1.9562 4.106664,4.1064 -1.39e-4,2.1502 -1.956508,4.1064 -4.106664,4.1064 -2.150156,0 -4.106525,-1.9562 -4.106664,-4.1064 1.39e-4,-2.1502 1.956508,-4.1064 4.106664,-4.1064 z"/><path id="path4418" fill="#000" fill-opacity=".235" stroke="none" d="m 24,1013.3622 c -4.031711,0 -8.038595,1.6597 -10.889445,4.5106 -2.85085,2.8508 -4.5105553,6.8577 -4.510555,10.8894 -3e-7,4.0317 1.659705,8.0386 4.510555,10.8894 2.85085,2.8509 6.857734,4.5106 10.889445,4.5106 4.031711,0 8.038595,-1.6597 10.889445,-4.5106 2.85085,-2.8508 4.510555,-6.8577 4.510555,-10.8894 0,-4.0317 -1.659705,-8.0386 -4.510555,-10.8894 -2.85085,-2.8509 -6.857734,-4.5106 -10.889445,-4.5106 z m 0,11.2936 c 2.150156,0 4.106525,1.9562 4.106664,4.1064 -1.39e-4,2.1502 -1.956508,4.1064 -4.106664,4.1064 -2.150156,0 -4.106525,-1.9562 -4.106664,-4.1064 1.39e-4,-2.1502 1.956508,-4.1064 4.106664,-4.1064 z"/><path id="rect846" fill="#000" fill-opacity="1" stroke="none" d="m -1.2738037e-6,1049.3622 0,1.0625 c 0,1.0773 0.8602230038037,1.9375 1.9374999738037,1.9375 l 44.1250003,0 c 1.077278,0 1.937501,-0.8602 1.937501,-1.9375 l 0,-1.0625 c 0,1.0773 -0.860223,1.9375 -1.937501,1.9375 l -44.1250003,0 c -1.07727697,0 -1.9374999738037,-0.8602 -1.9374999738037,-1.9375 z"/><path id="path7515" fill="#fff" fill-opacity=".537" stroke="none" d="m 2.5312487,1005.0185 c -0.917088,0 -1.67114597,0.6395 -1.84374997,1.5 0.33561197,-0.2799 0.77451297,-0.4375 1.24999997,-0.4375 l 44.1250003,0 c 0.475488,0 0.914388,0.1576 1.250001,0.4375 -0.172603,-0.8605 -0.926663,-1.5 -1.843751,-1.5 l -42.9375003,0 z"/><path id="rect4280-4" fill="#000" fill-opacity=".392" stroke="none" d="m 1.9374987,1004.3622 c -1.07727697,0 -1.9374999738037,0.8602 -1.9374999738037,1.9375 l 0,43.0625 c 0,0.7934 0.4800240038037,1.449 1.1562499738037,1.75 -0.30934097,-0.3333 -0.49999997,-0.7824 -0.49999997,-1.2812 l 0,-42.9375 c 0,-1.0482 0.82689897,-1.875 1.87499997,-1.875 l 42.9375003,0 c 1.048101,0 1.875001,0.8268 1.875001,1.875 l 0,42.9375 c 0,0.4988 -0.190658,0.9479 -0.500001,1.2812 0.676227,-0.301 1.156251,-0.9566 1.156251,-1.75 l 0,-43.0625 c 0,-1.0773 -0.860223,-1.9375 -1.937501,-1.9375 l -44.1250003,0 z"/><path id="path4352" fill="url(#linearGradient4406)" fill-opacity="1" stroke="none" d="m 24,1012.9622 c -4.031711,0 -8.038595,1.6597 -10.889445,4.5106 -2.85085,2.8508 -4.5105553,6.8577 -4.510555,10.8894 -3e-7,4.0317 1.659705,8.0386 4.510555,10.8894 2.85085,2.8509 6.857734,4.5106 10.889445,4.5106 4.031711,0 8.038595,-1.6597 10.889445,-4.5106 2.85085,-2.8508 4.510555,-6.8577 4.510555,-10.8894 0,-4.0317 -1.659705,-8.0386 -4.510555,-10.8894 -2.85085,-2.8509 -6.857734,-4.5106 -10.889445,-4.5106 z m 0,11.2936 c 2.150156,0 4.106525,1.9562 4.106664,4.1064 -1.39e-4,2.1502 -1.956508,4.1064 -4.106664,4.1064 -2.150156,0 -4.106525,-1.9562 -4.106664,-4.1064 1.39e-4,-2.1502 1.956508,-4.1064 4.106664,-4.1064 z"/><path id="path4431" fill="#fff" fill-opacity=".235" stroke="none" d="M 24,8.5996094 C 19.968159,8.5995069 15.961107,10.259223 13.110165,13.110165 10.259223,15.961107 8.5995069,19.968159 8.5996094,24 c 0.00231,0.05535 0.00491,0.110692 0.00781,0.166016 0.06065,-3.99131 1.7463521,-7.93429 4.5898091,-10.735895 C 16.040688,10.628517 20.008229,9.0014628 24,9 c 4.003017,0.0017 7.981375,1.638549 10.82652,4.454451 2.845144,2.815902 4.523007,6.777138 4.566058,10.779924 0.0032,-0.0781 0.0058,-0.156232 0.0078,-0.234375 1.03e-4,-4.031841 -1.659613,-8.038893 -4.510555,-10.889835 C 32.038893,10.259223 28.031841,8.5995068 24,8.5996094 Z m 4.097656,15.5742186 c -0.08908,2.088229 -2.00753,3.928955 -4.097656,3.931641 -2.07339,-0.0014 -3.982665,-1.808708 -4.097656,-3.878907 -0.0045,0.05786 -0.0077,0.115826 -0.0098,0.173829 6.27e-4,2.150098 1.957324,4.105864 4.107422,4.105468 2.150098,3.96e-4 4.106795,-1.95537 4.107422,-4.105468 -0.0012,-0.07559 -0.0044,-0.151151 -0.0098,-0.226563 z" transform="translate(0,1004.3622)"/><path id="path4450" fill="#000" fill-opacity=".059" stroke="none" d="m 24.003637,1008.5648 -7.127274,6.0948 7.127274,5.0796 0,-2.9109 c 3.824168,0.4564 7.601482,1.8624 10.321626,4.5827 2.720145,2.7203 4.489131,6.3698 4.93752,10.1862 0.08714,-0.6855 0.13299,-1.3763 0.137217,-2.0673 -0.0056,-4.1779 -1.593929,-8.3348 -4.377391,-11.4561 -2.783463,-3.1213 -6.860552,-4.8112 -11.018972,-5.3027 z"/><path id="path4448" fill="#000" fill-opacity=".235" stroke="none" d="m 24.003637,1008.1648 -7.127274,6.0948 7.127274,5.0796 0,-2.9109 c 3.824168,0.4564 7.601482,1.8624 10.321626,4.5827 2.720145,2.7203 4.489131,6.3698 4.93752,10.1862 0.08714,-0.6855 0.13299,-1.3763 0.137217,-2.0673 -0.0056,-4.1779 -1.593929,-8.3348 -4.377391,-11.4561 -2.783463,-3.1213 -6.860552,-4.8112 -11.018972,-5.3027 z"/><path id="path4444" fill="#000" fill-opacity=".235" stroke="none" d="m 24.003637,1007.7648 -7.127274,6.0948 7.127274,5.0796 0,-2.9109 c 3.824168,0.4564 7.601482,1.8624 10.321626,4.5827 2.720145,2.7203 4.489131,6.3698 4.93752,10.1862 0.08714,-0.6855 0.13299,-1.3763 0.137217,-2.0673 -0.0056,-4.1779 -1.593929,-8.3348 -4.377391,-11.4561 -2.783463,-3.1213 -6.860552,-4.8112 -11.018972,-5.3027 z"/><path id="path4392" fill="url(#linearGradient4442)" fill-opacity="1" stroke="none" d="m 24.003637,1007.365 -7.127274,6.0948 7.127274,5.0796 0,-2.9109 c 3.824168,0.4564 7.601482,1.8624 10.321626,4.5827 2.720145,2.7203 4.489131,6.3698 4.93752,10.1862 0.08714,-0.6855 0.13299,-1.3763 0.137217,-2.0673 -0.0056,-4.1779 -1.593929,-8.3348 -4.377391,-11.4561 -2.783463,-3.1213 -6.860552,-4.8112 -11.018972,-5.3027 z"/><path id="path4426" fill="#38b612" fill-opacity=".314" stroke="none" d="m 24,18.693359 c -2.150749,-3.96e-4 -4.107818,1.956673 -4.107422,4.107422 0.0014,0.202008 0.01774,0.40391 0.04883,0.603516 0.283296,-1.928387 2.10951,-3.507649 4.058594,-3.509766 1.946837,0.0016 3.77192,1.576338 4.058594,3.501953 0.03071,-0.197031 0.04704,-0.396301 0.04883,-0.595703 C 28.107818,20.650032 26.150749,18.692963 24,18.693359 Z M 8.625,23.296875 C 8.6111835,23.531016 8.602717,23.765472 8.5996094,24 8.5995068,28.031841 10.259223,32.038893 13.110165,34.889836 15.961107,37.740778 19.968159,39.400494 24,39.400391 28.031841,39.400494 32.038894,37.740778 34.889836,34.889836 37.740778,32.038894 39.400494,28.031841 39.400391,24 39.394595,23.834513 39.38613,23.66912 39.375,23.503906 39.195958,27.412552 37.460264,31.228459 34.631721,33.93196 31.803179,36.63546 27.912743,38.196966 24,38.199219 20.054074,38.194874 16.132217,36.603621 13.298812,33.85732 10.465407,31.111018 8.7525113,27.240743 8.625,23.296875 Z" transform="translate(0,1004.3622)"/><path id="path4452" fill="#ac0101" fill-opacity=".314" stroke="none" d="M 17.386719 8.6601562 L 16.876953 9.0976562 L 24.003906 14.177734 L 24.003906 13.376953 L 17.386719 8.6601562 z M 24.003906 10.466797 L 24.003906 11.265625 C 27.828074 11.722025 31.606028 13.129309 34.326172 15.849609 C 37.046317 18.569909 38.815283 22.218756 39.263672 26.035156 C 39.350812 25.349656 39.396164 24.65975 39.400391 23.96875 C 39.400239 23.85532 39.387243 23.742285 39.384766 23.628906 C 39.367086 24.165806 39.331412 24.701485 39.263672 25.234375 C 38.815283 21.417975 37.046317 17.769128 34.326172 15.048828 C 31.606028 12.328528 27.828074 10.923197 24.003906 10.466797 z" transform="translate(0,1004.3622)"/><path id="path4457" fill="#fff" fill-opacity=".235" stroke="none" d="M 24.003906 3.0019531 L 16.876953 9.0976562 L 17.132812 9.2792969 L 24.003906 3.4023438 L 24.003906 3.0019531 z M 24.003906 7.2089844 L 24.003906 7.609375 C 28.162326 8.100875 32.239975 9.7908094 35.023438 12.912109 C 37.769501 15.991471 39.345163 20.078191 39.392578 24.199219 C 39.39408 24.122313 39.39992 24.045667 39.400391 23.96875 C 39.394791 19.79085 37.806899 15.633019 35.023438 12.511719 C 32.239975 9.3904187 28.162326 7.7004844 24.003906 7.2089844 z" transform="translate(0,1004.3622)"/><path id="path4562" fill="#000" fill-opacity=".059" stroke="none" d="m 24.396754,1048.1616 7.127274,-6.0948 -7.127274,-5.0796 0,2.9109 c -3.824168,-0.4564 -7.601482,-1.8624 -10.321626,-4.5827 -2.720145,-2.7203 -4.489131,-6.3698 -4.93752,-10.1862 -0.08714,0.6855 -0.13299,1.3763 -0.137217,2.0673 0.0056,4.1779 1.593929,8.3348 4.377391,11.4561 2.783463,3.1213 6.860552,4.8112 11.018972,5.3027 z"/><path id="path4564" fill="#000" fill-opacity=".235" stroke="none" d="m 24.396754,1048.5616 7.127274,-6.0948 -7.127274,-5.0796 0,2.9109 c -3.824168,-0.4564 -7.601482,-1.8624 -10.321626,-4.5827 -2.720145,-2.7203 -4.489131,-6.3698 -4.93752,-10.1862 -0.08714,0.6855 -0.13299,1.3763 -0.137217,2.0673 0.0056,4.1779 1.593929,8.3348 4.377391,11.4561 2.783463,3.1213 6.860552,4.8112 11.018972,5.3027 z"/><path id="path4566" fill="#000" fill-opacity=".235" stroke="none" d="m 24.396754,1048.9616 7.127274,-6.0948 -7.127274,-5.0796 0,2.9109 c -3.824168,-0.4564 -7.601482,-1.8624 -10.321626,-4.5827 -2.720145,-2.7203 -4.489131,-6.3698 -4.93752,-10.1862 -0.08714,0.6855 -0.13299,1.3763 -0.137217,2.0673 0.0056,4.1779 1.593929,8.3348 4.377391,11.4561 2.783463,3.1213 6.860552,4.8112 11.018972,5.3027 z"/><path id="path4568" fill="url(#linearGradient4574)" fill-opacity="1" stroke="none" d="m 24.396754,1049.3614 7.127274,-6.0948 -7.127274,-5.0796 0,2.9109 c -3.824168,-0.4564 -7.601482,-1.8624 -10.321626,-4.5827 -2.720145,-2.7203 -4.489131,-6.3698 -4.93752,-10.1862 -0.08714,0.6855 -0.13299,1.3763 -0.137217,2.0673 0.0056,4.1779 1.593929,8.3348 4.377391,11.4561 2.783463,3.1213 6.860552,4.8112 11.018972,5.3027 z"/><path id="path4570" fill="#fff" fill-opacity=".235" stroke="none" d="m 31.013672,1043.704 0.509766,-0.4375 -7.126953,-5.0801 0,0.8008 6.617187,4.7168 z m -6.617187,-1.8066 0,-0.7989 c -3.824168,-0.4564 -7.602122,-1.8637 -10.322266,-4.584 -2.720145,-2.7203 -4.489111,-6.3691 -4.9375,-10.1855 -0.08714,0.6855 -0.132492,1.3754 -0.136719,2.0664 1.52e-4,0.1134 0.01315,0.2265 0.01563,0.3398 0.01768,-0.5369 0.05335,-1.0725 0.121094,-1.6054 0.448389,3.8164 2.217355,7.4652 4.9375,10.1855 2.720144,2.7203 6.498098,4.1257 10.322266,4.5821 z"/><path id="path4572" fill="#ac0101" fill-opacity=".314" stroke="none" d="m 24.396485,1049.3622 7.126953,-6.0957 -0.255859,-0.1816 -6.871094,5.8769 0,0.4004 z m 0,-4.207 0,-0.4004 c -4.15842,-0.4915 -8.236069,-2.1815 -11.019532,-5.3028 -2.746063,-3.0793 -4.321725,-7.166 -4.36914,-11.2871 -0.0015,0.077 -0.0073,0.1536 -0.0078,0.2305 0.0056,4.1779 1.593492,8.3357 4.376953,11.457 2.783463,3.1213 6.861112,4.8113 11.019532,5.3028 z"/></g></svg>