<svg xmlns="http://www.w3.org/2000/svg" xmlns:svg="http://www.w3.org/2000/svg" xmlns:xlink="http://www.w3.org/1999/xlink" id="svg2" width="48" height="48" version="1.1"><defs id="defs4"><linearGradient id="linearGradient1126"><stop id="stop1128" offset="0" stop-color="#fff" stop-opacity="1"/><stop id="stop1130" offset="1" stop-color="#09001d" stop-opacity="1"/></linearGradient><linearGradient id="linearGradient980"><stop id="stop982" offset="0" stop-color="#4e2387" stop-opacity="1"/><stop id="stop984" offset="1" stop-color="#d3b5fc" stop-opacity="1"/></linearGradient><linearGradient id="linearGradient974"><stop id="stop976" offset="0" stop-color="#000" stop-opacity="1"/><stop id="stop978" offset="1" stop-color="#503d7b" stop-opacity="1"/></linearGradient><linearGradient id="linearGradient2044" x1="112.225" x2="137.54" y1="780.599" y2="686.125" gradientTransform="matrix(0.38358375,-0.22145351,0.22146218,0.38356874,-176.35789,791.10604)" gradientUnits="userSpaceOnUse" xlink:href="#linearGradient980"/><linearGradient id="linearGradient2060" x1="87.781" x2="113.962" y1="405.781" y2="379.6" gradientTransform="matrix(-0.48856413,0.13090523,-0.13091036,-0.48854501,131.77822,1209.151)" gradientUnits="userSpaceOnUse" xlink:href="#linearGradient980"/><linearGradient id="linearGradient2086" x1="152.019" x2="121.893" y1="713.92" y2="691.7" gradientTransform="matrix(-0.58093667,0,0,-0.58091394,92.294684,1434.3085)" gradientUnits="userSpaceOnUse" xlink:href="#linearGradient980"/><linearGradient id="linearGradient2190" x1="152.019" x2="121.893" y1="713.92" y2="691.7" gradientTransform="matrix(0.20609521,0.65765657,-0.57607659,0.12448463,402.22201,862.04082)" gradientUnits="userSpaceOnUse" xlink:href="#linearGradient980"/><linearGradient id="linearGradient2160" x1="147.996" x2="136.858" y1="708.373" y2="723.351" gradientTransform="matrix(0.15035747,0.56111976,-0.56114171,0.15035159,396.16219,859.15117)" gradientUnits="userSpaceOnUse" xlink:href="#linearGradient980"/><linearGradient id="linearGradient1262" x1="101.398" x2="101.398" y1="629.136" y2="727.632" gradientTransform="matrix(0.38358375,-0.22145351,0.22146218,0.38356874,-176.35789,791.10603)" gradientUnits="userSpaceOnUse" xlink:href="#linearGradient974"/><linearGradient id="linearGradient1071" x1="130.624" x2="119.809" y1="746.941" y2="662.218" gradientTransform="matrix(0.38358375,-0.22145351,0.22146218,0.38356874,-176.35789,-213.25617)" gradientUnits="userSpaceOnUse" xlink:href="#linearGradient974"/><radialGradient id="radialGradient1132" cx="24" cy="-1028.362" r="24" fx="24" fy="-1028.362" gradientTransform="matrix(0.83795495,2.1961261e-7,-2.1768214e-7,0.83058904,3.8888592,-174.21584)" gradientUnits="userSpaceOnUse" xlink:href="#linearGradient1126"/><linearGradient id="linearGradient851" x1="24.177" x2="24.177" y1="-1052.185" y2="-1004.321" gradientUnits="userSpaceOnUse" xlink:href="#linearGradient980"/></defs><metadata id="metadata7"/><g id="layer1" transform="translate(0,-1004.3622)"><rect id="rect2991-1" width="48" height="48" x="0" y="-1052.362" fill="url(#radialGradient1132)" fill-opacity="1" stroke="none" ry="1.945" transform="scale(1,-1)"/><rect id="rect847" width="48" height="48" x="0" y="-1052.362" fill="url(#linearGradient851)" fill-opacity="1" stroke="none" opacity=".385" ry="1.945" transform="scale(1,-1)"/><path id="rect4280-7" fill="#000" fill-opacity=".392" stroke="none" d="m 1.9375007,1004.3622 c -1.07730001,0 -1.9375000126632,0.8602 -1.9375000126632,1.9375 l 0,43.0625 c 0,0.7934 0.4800000026632,1.449 1.1562000126632,1.75 -0.30930001,-0.3333 -0.50000001,-0.7824 -0.50000001,-1.2812 l 0,-42.9375 c 0,-1.0482 0.82690001,-1.875 1.87500001,-1.875 l 42.9376003,0 c 1.0481,0 1.875,0.8268 1.875,1.875 l 0,42.9375 c 0,0.4988 -0.1907,0.9479 -0.5,1.2812 0.6762,-0.301 1.1562,-0.9566 1.1562,-1.75 l 0,-43.0625 c 0,-1.0773 -0.8602,-1.9375 -1.9375,-1.9375 L 1.9375007,1004.3622 Z"/><rect id="rect1526" width="48" height="48" x="0" y="1004.362" fill="none" stroke="none" ry="0"/><g id="g853"><path id="path2033" fill="url(#linearGradient1262)" fill-opacity="1" fill-rule="nonzero" stroke="none" stroke-width="1.4" d="m 16.075722,1014.514 c -7.6490028,4.416 -10.3723852,14.1733 -5.956465,21.8216 4.41558,7.6477 14.301939,10.2965 21.950946,5.8805 7.648998,-4.4159 10.169282,-14.2275 5.753698,-21.8752 C 33.407985,1012.6926 23.724724,1010.098 16.075722,1014.514 Z" color="#000" display="inline" enable-background="accumulate" overflow="visible" visibility="visible" style="marker:none"/><path id="path1115" fill="#080808" fill-opacity=".354" fill-rule="nonzero" stroke="none" stroke-width="1.4" d="M 32.25 10.28125 C 33.071827 16.49322 30.224144 22.864811 24.46875 26.1875 C 19.244951 29.203355 12.980585 28.916213 8.125 26 C 8.3740044 28.0489 9.0265063 30.066177 10.125 31.96875 C 14.54058 39.61645 24.413493 42.25975 32.0625 37.84375 C 39.711498 33.42785 42.228084 23.61645 37.8125 15.96875 C 36.407225 13.534835 34.486814 11.628523 32.25 10.28125 z" color="#000" display="inline" enable-background="accumulate" overflow="visible" transform="translate(0,1004.3622)" visibility="visible" style="marker:none"/><path d="m 22.422081,1012.4729 c -0.004,-3e-4 0.0038,0.014 0,0.014 -0.03656,0 -0.07419,0.01 -0.110731,0.014 3.142867,0.3169 6.088391,1.3255 8.67855,2.8788 0.128546,0 0.260158,0.012 0.387558,0.014 C 28.715939,1013.7919 25.664585,1012.7628 22.422081,1012.4729 z m 7.225204,2.9204 c -9.319279,0.3449 -17.276208,5.8511 -21.2603692,13.7163 0.0093,0.2222 0.00895,0.4421 0.027683,0.6643 3.8646044,-8.2196 11.9982884,-14.0261 21.5787214,-14.3806 C 29.877619,1015.396 29.762575,1015.389 29.647285,1015.3933 Z" style="marker:none" id="path906" fill="#000" fill-opacity=".105" fill-rule="nonzero" stroke="none" stroke-width="1.4" color="#000" display="inline" enable-background="accumulate" overflow="visible" visibility="visible"/><path d="m 9.0395006,1022.7716 c -0.451743,1.1919 -0.7607447,2.431 -0.9192142,3.6952 0.044921,1.7822 0.2604794,3.6077 0.6869757,5.4528 8.858e-4,0 0.00594,0.01 0.00691,0.012 0.9842577,2.2682 2.3720283,4.4208 4.1452313,6.3491 2.904211,3.1581 6.401139,5.1868 9.936375,6.0262 0.01909,0 0.03765,0.014 0.05672,0.015 2.068563,0.1462 4.16942,-0.1025 6.197712,-0.7812 C 20.360678,1040.4745 12.563052,1032.8378 9.0395006,1022.7716 Z" style="marker:none" id="path2188" fill="url(#linearGradient2190)" fill-opacity="1" fill-rule="nonzero" stroke="none" stroke-width="1.4" color="#000" display="inline" enable-background="accumulate" overflow="visible" visibility="visible"/><path d="m 9.0374609,1022.7705 c -0.055688,0.1469 -0.1009198,0.2946 -0.1522552,0.4429 3.5946963,9.848 11.2847893,17.3111 19.9454373,20.3322 -1.521219,0.5091 -3.078247,0.7765 -4.636864,0.8166 1.662732,-0.01 3.331693,-0.2733 4.955216,-0.8166 C 20.359462,1040.4796 12.561013,1032.8367 9.0374609,1022.7705 Z" style="marker:none" id="path918" fill="#000" fill-opacity=".21" fill-rule="nonzero" stroke="none" stroke-width="1.4" color="#000" display="inline" enable-background="accumulate" overflow="visible" visibility="visible"/><path d="m 16.077746,1014.505 c -5.567918,3.2145 -8.5190035,9.2689 -8.0131175,15.2702 3.9892695,-8.4848 12.5387325,-14.3923 22.5208035,-14.3923 0.146152,0 0.295723,0.015 0.441303,0.017 -2.661519,-1.6014 -5.701464,-2.6334 -8.943967,-2.9233 -0.004,-3e-4 -0.0082,0.01 -0.012,0.01 C 20.018338,1012.7416 17.989996,1013.401 16.077746,1014.505 Z" style="marker:none" id="path2084" fill="url(#linearGradient2086)" fill-opacity="1" fill-rule="nonzero" stroke="none" stroke-width="1.4" color="#000" display="inline" enable-background="accumulate" overflow="visible" visibility="visible"/><path d="m 26.08994,1012.4964 c 1.914142,1.4772 3.578652,3.347 4.868022,5.5802 5.271487,9.1301 2.265594,20.8431 -6.866058,26.115 -0.0965,0.056 -0.197526,0.1003 -0.294611,0.1541 2.815307,0.051 5.68012,-0.6262 8.281095,-2.1279 7.649003,-4.4159 10.165704,-14.2271 5.75012,-21.8748 C 35.238791,1015.8576 30.830086,1013.1109 26.08994,1012.4964 Z" style="marker:none" id="path2040" fill="url(#linearGradient2044)" fill-opacity="1" fill-rule="nonzero" stroke="none" stroke-width="1.4" color="#000" display="inline" enable-background="accumulate" overflow="visible" visibility="visible"/><path d="m 23.558791,1012.3755 c 3.544892,2.3879 6.274325,6.005 7.45971,10.4287 2.33551,8.716 -2.134616,17.5976 -10.079346,21.2418 1.052849,0.2081 2.132646,0.3073 3.211822,0.3033 8.907147,-3.1439 14.124782,-12.6162 11.640504,-21.8873 -0.934597,-3.4879 -2.839974,-6.4659 -5.337079,-8.7455 C 28.291509,1012.7627 25.938026,1012.301 23.558791,1012.3755 Z" style="marker:none" id="path2049" fill="url(#linearGradient2060)" fill-opacity="1" fill-rule="nonzero" stroke="none" stroke-width="1.4" color="#000" display="inline" enable-background="accumulate" overflow="visible" visibility="visible"/><path d="m 8.0094933,1028.96 c 0.081396,2.5137 0.7702189,5.0434 2.1170767,7.3761 2.91198,5.0435 8.198955,7.9137 13.658737,8.0165 C 16.612444,1042 10.635494,1036.4846 8.0094933,1028.96 Z" style="marker:none" id="path2158" fill="url(#linearGradient2160)" fill-opacity="1" fill-rule="nonzero" stroke="none" stroke-width="1.4" color="#000" display="inline" enable-background="accumulate" overflow="visible" visibility="visible"/><path d="m 24.110731,1012.376 c 2.073943,0.052 4.11463,0.508 6.007161,1.3426 2.497106,2.2796 4.408178,5.2596 5.342775,8.7474 2.483137,9.2668 -2.727105,18.7341 -11.626764,21.8824 0.10513,0 0.213208,4e-4 0.318352,0 8.907147,-3.144 14.124884,-12.6113 11.640606,-21.8824 -0.934597,-3.4878 -2.84567,-6.4678 -5.342776,-8.7474 C 28.456169,1012.8393 26.299451,1012.3843 24.110731,1012.376 Z" style="marker:none" id="path901" fill="#000" fill-opacity=".175" fill-rule="nonzero" stroke="none" stroke-width="1.4" color="#000" display="inline" enable-background="accumulate" overflow="visible" visibility="visible"/><path d="m 8.0131984,1028.9574 c 0.011817,0.3649 0.031638,0.7285 0.069207,1.0934 2.7990227,6.9517 8.5194337,12.0393 15.3224147,14.2837 0.125978,0.01 0.247528,0.012 0.373717,0.014 C 16.605674,1041.9957 10.639199,1036.482 8.0131984,1028.9574 Z" style="marker:none" id="path913" fill="#000" fill-opacity=".284" fill-rule="nonzero" stroke="none" stroke-width="1.4" color="#000" display="inline" enable-background="accumulate" overflow="visible" visibility="visible"/><path id="path1067" fill="url(#linearGradient1071)" fill-opacity="1" fill-rule="nonzero" stroke="none" stroke-width="1.4" d="M 36.0625 13.5 C 40.333792 21.120579 37.806982 30.806681 30.21875 35.1875 C 23.466111 39.086 14.967884 37.473371 10.03125 31.78125 C 10.065997 31.843316 10.089322 31.906956 10.125 31.96875 C 14.54058 39.61645 24.413493 42.25975 32.0625 37.84375 C 39.711498 33.42785 42.228084 23.61645 37.8125 15.96875 C 37.29501 15.072465 36.712911 14.254332 36.0625 13.5 z" color="#000" display="inline" enable-background="accumulate" opacity=".37" overflow="visible" transform="translate(0,1004.3622)" visibility="visible" style="marker:none"/></g><path id="path7515" fill="#fff" fill-opacity=".537" stroke="none" d="m 2.5312007,1005.0185 c -0.917,0 -1.67110001,0.6395 -1.84370001,1.5 0.33560001,-0.2799 0.77450001,-0.4375 1.25000001,-0.4375 l 44.1250003,0 c 0.4755,0 0.9144,0.1576 1.25,0.4375 -0.1726,-0.8605 -0.9267,-1.5 -1.8437,-1.5 L 2.5312007,1005.0185 Z"/><path id="rect846" fill="#000" fill-opacity="1" stroke="none" d="m 6.873368e-7,1049.3622 0,1.0625 c 0,1.0773 0.8602000026632,1.9375 1.9375000126632,1.9375 l 44.1250003,0 c 1.0773,0 1.9375,-0.8602 1.9375,-1.9375 l 0,-1.0625 c 0,1.0773 -0.8602,1.9375 -1.9375,1.9375 l -44.1250003,0 C 0.86020069,1051.2997 6.873368e-7,1050.4395 6.873368e-7,1049.3622 Z"/></g></svg>