<svg xmlns="http://www.w3.org/2000/svg" xmlns:svg="http://www.w3.org/2000/svg" xmlns:xlink="http://www.w3.org/1999/xlink" id="svg2" width="48" height="48" version="1.1"><defs id="defs4"><linearGradient id="linearGradient6194" x1="0" x2="1" y1="0" y2="0" gradientTransform="matrix(13.526835,20.525875,20.525875,-13.526835,19.18986,1021.0543)" gradientUnits="userSpaceOnUse" spreadMethod="pad"><stop id="stop6196" offset="0" stop-color="#fff" stop-opacity="1"/><stop id="stop6198" offset=".026" stop-color="#29282b" stop-opacity="1"/><stop id="stop6200" offset=".264" stop-color="#868c95" stop-opacity="1"/><stop id="stop6202" offset=".396" stop-color="#92979f" stop-opacity="1"/><stop id="stop6204" offset=".542" stop-color="#737881" stop-opacity="1"/><stop id="stop6206" offset=".626" stop-color="#70757e" stop-opacity="1"/><stop id="stop6208" offset=".718" stop-color="#e4e6e8" stop-opacity="1"/><stop id="stop6210" offset=".791" stop-color="#fff" stop-opacity="1"/><stop id="stop6212" offset="1" stop-color="#1d191a" stop-opacity="1"/></linearGradient><linearGradient id="linearGradient1929"><stop id="stop1931" offset="0" stop-color="#fff" stop-opacity="0"/><stop id="stop1937" offset=".5" stop-color="#fff" stop-opacity=".498"/><stop id="stop1933" offset="1" stop-color="#fff" stop-opacity="0"/></linearGradient><linearGradient id="linearGradient1908"><stop id="stop1910" offset="0" stop-color="#000" stop-opacity="1"/><stop id="stop1912" offset="1" stop-color="#000" stop-opacity="0"/></linearGradient><linearGradient id="linearGradient1896"><stop id="stop1898" offset="0" stop-color="#fff" stop-opacity="1"/><stop id="stop1900" offset="1" stop-color="#fff" stop-opacity="0"/></linearGradient><linearGradient id="linearGradient1877"><stop id="stop1879" offset="0" stop-color="#49c7f5" stop-opacity="1"/><stop id="stop2620" offset=".5" stop-color="#015ae0" stop-opacity="1"/><stop id="stop1881" offset="1" stop-color="#0671b0" stop-opacity="1"/></linearGradient><linearGradient id="linearGradient1865"><stop id="stop1867" offset="0" stop-color="#000" stop-opacity="1"/><stop id="stop1869" offset="1" stop-color="#3c3c3c" stop-opacity="1"/></linearGradient><linearGradient id="linearGradient1441" x1="405.499" x2="405.499" y1="-556.505" y2="-508.61" gradientTransform="translate(-380.74998,-495.8892)" gradientUnits="userSpaceOnUse" xlink:href="#linearGradient1373"/><linearGradient id="linearGradient1871" x1="26.225" x2="26.225" y1="-1048.524" y2="-1008.547" gradientTransform="matrix(1.0861562,0,0,0.79999969,-2.067751,-202.47452)" gradientUnits="userSpaceOnUse" xlink:href="#linearGradient1865"/><linearGradient id="linearGradient1875" x1="26.225" x2="26.225" y1="-1048.524" y2="-1008.547" gradientTransform="matrix(0.91465795,0,0,0.67368394,2.0482095,-332.37285)" gradientUnits="userSpaceOnUse" xlink:href="#linearGradient1877"/><linearGradient id="linearGradient1902" x1="24.786" x2="24.786" y1="40.484" y2="39.125" gradientTransform="matrix(1.1433223,0,0,0.84210492,-3.4397381,1004.9534)" gradientUnits="userSpaceOnUse" xlink:href="#linearGradient1896"/><linearGradient id="linearGradient1906" x1="24.786" x2="24.786" y1="40.484" y2="39.125" gradientTransform="matrix(1.1433223,0,0,-0.84210492,-3.4397381,1045.3745)" gradientUnits="userSpaceOnUse" xlink:href="#linearGradient1908"/><linearGradient id="linearGradient1916" x1="24.786" x2="24.786" y1="40.484" y2="39.125" gradientTransform="matrix(0,-0.84210492,-1.1433223,0,51.439737,1045.3745)" gradientUnits="userSpaceOnUse" xlink:href="#linearGradient1908"/><linearGradient id="linearGradient1920" x1="24.786" x2="24.786" y1="40.484" y2="39.125" gradientTransform="matrix(0,-0.84210492,1.1433223,0,-3.4397381,1045.3745)" gradientUnits="userSpaceOnUse" xlink:href="#linearGradient1908"/><linearGradient id="linearGradient1935" x1="6.662" x2="11.788" y1="36.909" y2="42.035" gradientTransform="matrix(1.1433223,0,0,0.84210492,-3.4397381,1004.9534)" gradientUnits="userSpaceOnUse" xlink:href="#linearGradient1929"/><linearGradient id="linearGradient1941" x1="6.662" x2="11.788" y1="36.909" y2="42.035" gradientTransform="matrix(-1.1433223,0,0,0.84210492,51.439737,1004.9534)" gradientUnits="userSpaceOnUse" xlink:href="#linearGradient1929"/><linearGradient id="linearGradient1947" x1="6.662" x2="11.788" y1="36.909" y2="42.035" gradientTransform="matrix(1.1433223,0,0,-0.84210492,-3.4397381,1045.3745)" gradientUnits="userSpaceOnUse" xlink:href="#linearGradient1929"/><linearGradient id="linearGradient1949" x1="6.662" x2="11.788" y1="36.909" y2="42.035" gradientTransform="matrix(-1.1433223,0,0,-0.84210492,51.439737,1045.3745)" gradientUnits="userSpaceOnUse" xlink:href="#linearGradient1929"/><linearGradient id="linearGradient6103" x1="19.417" x2="28.105" y1="1046.987" y2="1046.987" gradientUnits="userSpaceOnUse" xlink:href="#linearGradient6194"/><linearGradient id="linearGradient1344-6" x1="23.813" x2="23.813" y1="3.581" y2="15.125" gradientTransform="matrix(1.0078733,0,0,1.0078733,-0.18896129,1006.3674)" gradientUnits="userSpaceOnUse" xlink:href="#linearGradient1346-5"/><linearGradient id="linearGradient1346-5"><stop id="stop1348-5" offset="0" stop-color="#fff" stop-opacity="1"/><stop id="stop1350-0" offset="1" stop-color="#fff" stop-opacity="0"/></linearGradient><linearGradient id="linearGradient1373"><stop id="stop1375" offset="0" stop-color="#282827" stop-opacity="1"/><stop id="stop1377" offset="1" stop-color="#292929" stop-opacity="1"/></linearGradient></defs><metadata id="metadata7"/><g id="layer1" transform="translate(0,-1004.3622)"><rect id="rect7121" width="48" height="48" x="0" y="-1052.362" fill="url(#linearGradient1441)" fill-opacity="1" stroke="none" ry="1.945" transform="scale(1,-1)"/><path id="rect846" fill="#000" fill-opacity="1" stroke="none" d="m -2.6831833e-6,1049.3622 0,1.0625 c 0,1.0773 0.8602229931833,1.9375 1.9374999831833,1.9375 l 44.1250007,0 c 1.077277,0 1.937505,-0.8602 1.937505,-1.9375 l 0,-1.0625 c 0,1.0773 -0.860228,1.9375 -1.937505,1.9375 l -44.1250007,0 c -1.07727699,0 -1.9374999831833,-0.8602 -1.9374999831833,-1.9375 z"/><path id="path6126" fill="#000" fill-opacity=".118" stroke="none" d="m 24,1043.8622 c -1.656864,0 -3,1.3432 -3,3 0,1.6568 1.343136,3 3,3 1.656846,0 3,-1.3432 3,-3 0,-1.6568 -1.343154,-3 -3,-3 z m 0,0.2501 c 1.25967,0 2.321544,0.8469 2.647194,2.0025 -0.280494,0.5784 -0.67959,1.0993 -1.165638,1.5202 -0.23349,0.2022 -0.488406,0.3824 -0.769992,0.5094 -0.281598,0.1269 -0.591324,0.1989 -0.899694,0.1813 -0.231684,-0.014 -0.460536,-0.078 -0.663444,-0.1904 0.537708,-0.2913 1.022868,-0.6798 1.420008,-1.145 0.260676,-0.3052 0.488742,-0.6523 0.57657,-1.0441 0.04386,-0.1958 0.0513,-0.4009 0.01026,-0.5974 -0.04104,-0.1965 -0.131886,-0.3838 -0.269376,-0.53 -0.134328,-0.1429 -0.31065,-0.2442 -0.499698,-0.2963 -0.189036,-0.053 -0.39021,-0.056 -0.583116,-0.021 -0.385824,0.07 -0.73029,0.2948 -1.00656,0.5732 -0.486984,0.4907 -0.78804,1.183 -0.732816,1.8721 0.0276,0.3446 0.143076,0.6832 0.340932,0.9666 0.04416,0.063 0.09271,0.1235 0.14469,0.1806 -0.288234,0.1009 -0.586686,0.1727 -0.889374,0.2132 -0.259872,-0.42 -0.409998,-0.915 -0.409998,-1.4451 0,-1.5187 1.231218,-2.7499 2.749998,-2.7499 z m 0.01746,0.5556 c 0.193308,2e-4 0.387942,0.059 0.542178,0.1752 0.138984,0.105 0.241944,0.2544 0.300324,0.4185 0.05844,0.1641 0.07343,0.3423 0.0534,0.5153 -0.0399,0.346 -0.21441,0.6634 -0.425328,0.9406 -0.37344,0.4909 -0.86982,0.8838 -1.42188,1.1588 -0.05646,0.029 -0.11391,0.055 -0.171552,0.081 -0.12012,-0.105 -0.22308,-0.2298 -0.30156,-0.3687 -0.163998,-0.2904 -0.21807,-0.6353 -0.186258,-0.9672 0.0318,-0.3318 0.145734,-0.6519 0.298758,-0.948 0.177426,-0.3435 0.419256,-0.669 0.757806,-0.8556 0.169284,-0.094 0.36075,-0.1497 0.554064,-0.1494 z m 2.707812,1.8262 c 0.01614,0.1204 0.02466,0.2432 0.02466,0.3681 0,1.5188 -1.231218,2.75 -2.749998,2.75 -0.85296,0 -1.615278,-0.3882 -2.119692,-0.9979 0.31134,-0.07 0.61563,-0.1721 0.9075,-0.3015 0.127644,0.097 0.268602,0.177 0.41844,0.2343 0.431514,0.1656 0.92142,0.1416 1.358124,-0.01 0.43671,-0.1512 0.823968,-0.4224 1.16157,-0.738 0.402156,-0.3759 0.74124,-0.819 0.999366,-1.3053 z"/><path id="path7515" fill="#fff" fill-opacity=".537" stroke="none" d="m 2.5312473,1005.0185 c -0.917088,0 -1.67114699,0.6395 -1.84374999,1.5 0.33561199,-0.2799 0.77451199,-0.4375 1.24999999,-0.4375 l 44.1250007,0 c 0.475488,0 0.914388,0.1576 1.250005,0.4375 -0.172608,-0.8605 -0.926667,-1.5 -1.843755,-1.5 l -42.9375007,0 z"/><path id="rect4280-0" fill="#000" fill-opacity=".392" stroke="none" d="m 1.9374973,1004.3622 c -1.07727699,0 -1.9374999831833,0.8602 -1.9374999831833,1.9375 l 0,43.0625 c 0,0.7934 0.4800239931833,1.449 1.1562499831833,1.75 -0.30934199,-0.3333 -0.49999999,-0.7824 -0.49999999,-1.2812 l 0,-42.9375 c 0,-1.0482 0.82689899,-1.875 1.87499999,-1.875 l 42.9375007,0 c 1.048101,0 1.875005,0.8268 1.875005,1.875 l 0,42.9375 c 0,0.4988 -0.190663,0.9479 -0.500005,1.2812 0.676225,-0.301 1.156255,-0.9566 1.156255,-1.75 l 0,-43.0625 c 0,-1.0773 -0.860228,-1.9375 -1.937505,-1.9375 l -44.1250007,0 z"/><g id="g2056" transform="translate(1.8124997,0.61872699)"><path id="path2034" fill="#1a1a1a" fill-opacity="1" stroke="none" d="m 3.90625,39.25 c -0.3944891,0 -0.71875,0.324261 -0.71875,0.71875 0,0.394489 0.3242609,0.71875 0.71875,0.71875 0.3944891,0 0.71875,-0.324261 0.71875,-0.71875 C 4.625,39.574261 4.3007391,39.25 3.90625,39.25 Z m 2.84375,0 c -0.3944891,0 -0.71875,0.324261 -0.71875,0.71875 0,0.394489 0.3242609,0.71875 0.71875,0.71875 0.3944891,0 0.71875,-0.324261 0.71875,-0.71875 C 7.46875,39.574261 7.1444891,39.25 6.75,39.25 Z m 2.875,0 c -0.3944891,0 -0.71875,0.324261 -0.71875,0.71875 0,0.394489 0.3242609,0.71875 0.71875,0.71875 0.394489,0 0.71875,-0.324261 0.71875,-0.71875 0,-0.394489 -0.324261,-0.71875 -0.71875,-0.71875 z m 2.84375,0 c -0.394489,0 -0.71875,0.324261 -0.71875,0.71875 0,0.394489 0.324261,0.71875 0.71875,0.71875 0.394489,0 0.71875,-0.324261 0.71875,-0.71875 0,-0.394489 -0.324261,-0.71875 -0.71875,-0.71875 z M 6.75,42.125 c -0.3944891,0 -0.71875,0.324261 -0.71875,0.71875 0,0.394489 0.3242609,0.71875 0.71875,0.71875 0.3944891,0 0.71875,-0.324261 0.71875,-0.71875 C 7.46875,42.449261 7.1444891,42.125 6.75,42.125 Z m 2.875,0 c -0.3944891,0 -0.71875,0.324261 -0.71875,0.71875 0,0.394489 0.3242609,0.71875 0.71875,0.71875 0.394489,0 0.71875,-0.324261 0.71875,-0.71875 0,-0.394489 -0.324261,-0.71875 -0.71875,-0.71875 z m 2.84375,0 c -0.394489,0 -0.71875,0.324261 -0.71875,0.71875 0,0.394489 0.324261,0.71875 0.71875,0.71875 0.394489,0 0.71875,-0.324261 0.71875,-0.71875 0,-0.394489 -0.324261,-0.71875 -0.71875,-0.71875 z" transform="translate(0,1004.3622)"/><path id="path2049" fill="#fff" fill-opacity=".184" stroke="none" d="m 3.1875,1044.4803 c -4.497e-4,0.01 0,0.021 0,0.031 0,0.3945 0.3242609,0.7188 0.71875,0.7188 0.3944891,0 0.71875,-0.3243 0.71875,-0.7188 0,-0.01 4.497e-4,-0.021 0,-0.031 -0.031841,0.3659 -0.3451456,0.6562 -0.71875,0.6562 -0.3736044,0 -0.6869085,-0.2903 -0.71875,-0.6562 z m 2.84375,0 c -4.497e-4,0.01 0,0.021 0,0.031 0,0.3945 0.3242609,0.7188 0.71875,0.7188 0.3944891,0 0.71875,-0.3243 0.71875,-0.7188 0,-0.01 4.497e-4,-0.021 0,-0.031 -0.031841,0.3659 -0.3451456,0.6562 -0.71875,0.6562 -0.3736044,0 -0.6869085,-0.2903 -0.71875,-0.6562 z m 2.875,0 c -4.497e-4,0.01 0,0.021 0,0.031 0,0.3945 0.3242609,0.7188 0.71875,0.7188 0.394489,0 0.71875,-0.3243 0.71875,-0.7188 0,-0.01 4.5e-4,-0.021 0,-0.031 -0.03184,0.3659 -0.3451457,0.6562 -0.71875,0.6562 -0.3736044,0 -0.6869085,-0.2903 -0.71875,-0.6562 z m 2.84375,0 c -4.5e-4,0.01 0,0.021 0,0.031 0,0.3945 0.324261,0.7188 0.71875,0.7188 0.394489,0 0.71875,-0.3243 0.71875,-0.7188 0,-0.01 4.5e-4,-0.021 0,-0.031 -0.03184,0.3659 -0.345146,0.6562 -0.71875,0.6562 -0.373604,0 -0.686908,-0.2903 -0.71875,-0.6562 z m -5.71875,2.875 c -4.497e-4,0.01 0,0.021 0,0.031 0,0.3945 0.3242609,0.7188 0.71875,0.7188 0.3944891,0 0.71875,-0.3243 0.71875,-0.7188 0,-0.01 4.497e-4,-0.021 0,-0.031 -0.031841,0.3659 -0.3451456,0.6562 -0.71875,0.6562 -0.3736044,0 -0.6869085,-0.2903 -0.71875,-0.6562 z m 2.875,0 c -4.497e-4,0.01 0,0.021 0,0.031 0,0.3945 0.3242609,0.7188 0.71875,0.7188 0.394489,0 0.71875,-0.3243 0.71875,-0.7188 0,-0.01 4.5e-4,-0.021 0,-0.031 -0.03184,0.3659 -0.3451457,0.6562 -0.71875,0.6562 -0.3736044,0 -0.6869085,-0.2903 -0.71875,-0.6562 z m 2.84375,0 c -4.5e-4,0.01 0,0.021 0,0.031 0,0.3945 0.324261,0.7188 0.71875,0.7188 0.394489,0 0.71875,-0.3243 0.71875,-0.7188 0,-0.01 4.5e-4,-0.021 0,-0.031 -0.03184,0.3659 -0.345146,0.6562 -0.71875,0.6562 -0.373604,0 -0.686908,-0.2903 -0.71875,-0.6562 z"/><path id="path2054" fill="#fff" fill-opacity=".363" stroke="none" d="m 3.1875,1044.3919 c -4.497e-4,0.01 0,0.021 0,0.031 0,0.3945 0.3242609,0.7188 0.71875,0.7188 0.3944891,0 0.71875,-0.3243 0.71875,-0.7188 0,-0.01 4.497e-4,-0.021 0,-0.031 -0.031841,0.3659 -0.3451456,0.6562 -0.71875,0.6562 -0.3736044,0 -0.6869085,-0.2903 -0.71875,-0.6562 z m 2.84375,0 c -4.497e-4,0.01 0,0.021 0,0.031 0,0.3945 0.3242609,0.7188 0.71875,0.7188 0.3944891,0 0.71875,-0.3243 0.71875,-0.7188 0,-0.01 4.497e-4,-0.021 0,-0.031 -0.031841,0.3659 -0.3451456,0.6562 -0.71875,0.6562 -0.3736044,0 -0.6869085,-0.2903 -0.71875,-0.6562 z m 2.875,0 c -4.497e-4,0.01 0,0.021 0,0.031 0,0.3945 0.3242609,0.7188 0.71875,0.7188 0.394489,0 0.71875,-0.3243 0.71875,-0.7188 0,-0.01 4.5e-4,-0.021 0,-0.031 -0.03184,0.3659 -0.3451457,0.6562 -0.71875,0.6562 -0.3736044,0 -0.6869085,-0.2903 -0.71875,-0.6562 z m 2.84375,0 c -4.5e-4,0.01 0,0.021 0,0.031 0,0.3945 0.324261,0.7188 0.71875,0.7188 0.394489,0 0.71875,-0.3243 0.71875,-0.7188 0,-0.01 4.5e-4,-0.021 0,-0.031 -0.03184,0.3659 -0.345146,0.6562 -0.71875,0.6562 -0.373604,0 -0.686908,-0.2903 -0.71875,-0.6562 z m -5.71875,2.875 c -4.497e-4,0.01 0,0.021 0,0.031 0,0.3945 0.3242609,0.7188 0.71875,0.7188 0.3944891,0 0.71875,-0.3243 0.71875,-0.7188 0,-0.01 4.497e-4,-0.021 0,-0.031 -0.031841,0.3659 -0.3451456,0.6562 -0.71875,0.6562 -0.3736044,0 -0.6869085,-0.2903 -0.71875,-0.6562 z m 2.875,0 c -4.497e-4,0.01 0,0.021 0,0.031 0,0.3945 0.3242609,0.7188 0.71875,0.7188 0.394489,0 0.71875,-0.3243 0.71875,-0.7188 0,-0.01 4.5e-4,-0.021 0,-0.031 -0.03184,0.3659 -0.3451457,0.6562 -0.71875,0.6562 -0.3736044,0 -0.6869085,-0.2903 -0.71875,-0.6562 z m 2.84375,0 c -4.5e-4,0.01 0,0.021 0,0.031 0,0.3945 0.324261,0.7188 0.71875,0.7188 0.394489,0 0.71875,-0.3243 0.71875,-0.7188 0,-0.01 4.5e-4,-0.021 0,-0.031 -0.03184,0.3659 -0.345146,0.6562 -0.71875,0.6562 -0.373604,0 -0.686908,-0.2903 -0.71875,-0.6562 z"/></g><g id="g2061" transform="matrix(-1,0,0,1,46.1875,0.61872699)"><path id="path2063" fill="#1a1a1a" fill-opacity="1" stroke="none" d="m 3.90625,39.25 c -0.3944891,0 -0.71875,0.324261 -0.71875,0.71875 0,0.394489 0.3242609,0.71875 0.71875,0.71875 0.3944891,0 0.71875,-0.324261 0.71875,-0.71875 C 4.625,39.574261 4.3007391,39.25 3.90625,39.25 Z m 2.84375,0 c -0.3944891,0 -0.71875,0.324261 -0.71875,0.71875 0,0.394489 0.3242609,0.71875 0.71875,0.71875 0.3944891,0 0.71875,-0.324261 0.71875,-0.71875 C 7.46875,39.574261 7.1444891,39.25 6.75,39.25 Z m 2.875,0 c -0.3944891,0 -0.71875,0.324261 -0.71875,0.71875 0,0.394489 0.3242609,0.71875 0.71875,0.71875 0.394489,0 0.71875,-0.324261 0.71875,-0.71875 0,-0.394489 -0.324261,-0.71875 -0.71875,-0.71875 z m 2.84375,0 c -0.394489,0 -0.71875,0.324261 -0.71875,0.71875 0,0.394489 0.324261,0.71875 0.71875,0.71875 0.394489,0 0.71875,-0.324261 0.71875,-0.71875 0,-0.394489 -0.324261,-0.71875 -0.71875,-0.71875 z M 6.75,42.125 c -0.3944891,0 -0.71875,0.324261 -0.71875,0.71875 0,0.394489 0.3242609,0.71875 0.71875,0.71875 0.3944891,0 0.71875,-0.324261 0.71875,-0.71875 C 7.46875,42.449261 7.1444891,42.125 6.75,42.125 Z m 2.875,0 c -0.3944891,0 -0.71875,0.324261 -0.71875,0.71875 0,0.394489 0.3242609,0.71875 0.71875,0.71875 0.394489,0 0.71875,-0.324261 0.71875,-0.71875 0,-0.394489 -0.324261,-0.71875 -0.71875,-0.71875 z m 2.84375,0 c -0.394489,0 -0.71875,0.324261 -0.71875,0.71875 0,0.394489 0.324261,0.71875 0.71875,0.71875 0.394489,0 0.71875,-0.324261 0.71875,-0.71875 0,-0.394489 -0.324261,-0.71875 -0.71875,-0.71875 z" transform="translate(0,1004.3622)"/><path id="path2065" fill="#fff" fill-opacity=".184" stroke="none" d="m 3.1875,1044.4803 c -4.497e-4,0.01 0,0.021 0,0.031 0,0.3945 0.3242609,0.7188 0.71875,0.7188 0.3944891,0 0.71875,-0.3243 0.71875,-0.7188 0,-0.01 4.497e-4,-0.021 0,-0.031 -0.031841,0.3659 -0.3451456,0.6562 -0.71875,0.6562 -0.3736044,0 -0.6869085,-0.2903 -0.71875,-0.6562 z m 2.84375,0 c -4.497e-4,0.01 0,0.021 0,0.031 0,0.3945 0.3242609,0.7188 0.71875,0.7188 0.3944891,0 0.71875,-0.3243 0.71875,-0.7188 0,-0.01 4.497e-4,-0.021 0,-0.031 -0.031841,0.3659 -0.3451456,0.6562 -0.71875,0.6562 -0.3736044,0 -0.6869085,-0.2903 -0.71875,-0.6562 z m 2.875,0 c -4.497e-4,0.01 0,0.021 0,0.031 0,0.3945 0.3242609,0.7188 0.71875,0.7188 0.394489,0 0.71875,-0.3243 0.71875,-0.7188 0,-0.01 4.5e-4,-0.021 0,-0.031 -0.03184,0.3659 -0.3451457,0.6562 -0.71875,0.6562 -0.3736044,0 -0.6869085,-0.2903 -0.71875,-0.6562 z m 2.84375,0 c -4.5e-4,0.01 0,0.021 0,0.031 0,0.3945 0.324261,0.7188 0.71875,0.7188 0.394489,0 0.71875,-0.3243 0.71875,-0.7188 0,-0.01 4.5e-4,-0.021 0,-0.031 -0.03184,0.3659 -0.345146,0.6562 -0.71875,0.6562 -0.373604,0 -0.686908,-0.2903 -0.71875,-0.6562 z m -5.71875,2.875 c -4.497e-4,0.01 0,0.021 0,0.031 0,0.3945 0.3242609,0.7188 0.71875,0.7188 0.3944891,0 0.71875,-0.3243 0.71875,-0.7188 0,-0.01 4.497e-4,-0.021 0,-0.031 -0.031841,0.3659 -0.3451456,0.6562 -0.71875,0.6562 -0.3736044,0 -0.6869085,-0.2903 -0.71875,-0.6562 z m 2.875,0 c -4.497e-4,0.01 0,0.021 0,0.031 0,0.3945 0.3242609,0.7188 0.71875,0.7188 0.394489,0 0.71875,-0.3243 0.71875,-0.7188 0,-0.01 4.5e-4,-0.021 0,-0.031 -0.03184,0.3659 -0.3451457,0.6562 -0.71875,0.6562 -0.3736044,0 -0.6869085,-0.2903 -0.71875,-0.6562 z m 2.84375,0 c -4.5e-4,0.01 0,0.021 0,0.031 0,0.3945 0.324261,0.7188 0.71875,0.7188 0.394489,0 0.71875,-0.3243 0.71875,-0.7188 0,-0.01 4.5e-4,-0.021 0,-0.031 -0.03184,0.3659 -0.345146,0.6562 -0.71875,0.6562 -0.373604,0 -0.686908,-0.2903 -0.71875,-0.6562 z"/><path id="path2067" fill="#fff" fill-opacity=".363" stroke="none" d="m 3.1875,1044.3919 c -4.497e-4,0.01 0,0.021 0,0.031 0,0.3945 0.3242609,0.7188 0.71875,0.7188 0.3944891,0 0.71875,-0.3243 0.71875,-0.7188 0,-0.01 4.497e-4,-0.021 0,-0.031 -0.031841,0.3659 -0.3451456,0.6562 -0.71875,0.6562 -0.3736044,0 -0.6869085,-0.2903 -0.71875,-0.6562 z m 2.84375,0 c -4.497e-4,0.01 0,0.021 0,0.031 0,0.3945 0.3242609,0.7188 0.71875,0.7188 0.3944891,0 0.71875,-0.3243 0.71875,-0.7188 0,-0.01 4.497e-4,-0.021 0,-0.031 -0.031841,0.3659 -0.3451456,0.6562 -0.71875,0.6562 -0.3736044,0 -0.6869085,-0.2903 -0.71875,-0.6562 z m 2.875,0 c -4.497e-4,0.01 0,0.021 0,0.031 0,0.3945 0.3242609,0.7188 0.71875,0.7188 0.394489,0 0.71875,-0.3243 0.71875,-0.7188 0,-0.01 4.5e-4,-0.021 0,-0.031 -0.03184,0.3659 -0.3451457,0.6562 -0.71875,0.6562 -0.3736044,0 -0.6869085,-0.2903 -0.71875,-0.6562 z m 2.84375,0 c -4.5e-4,0.01 0,0.021 0,0.031 0,0.3945 0.324261,0.7188 0.71875,0.7188 0.394489,0 0.71875,-0.3243 0.71875,-0.7188 0,-0.01 4.5e-4,-0.021 0,-0.031 -0.03184,0.3659 -0.345146,0.6562 -0.71875,0.6562 -0.373604,0 -0.686908,-0.2903 -0.71875,-0.6562 z m -5.71875,2.875 c -4.497e-4,0.01 0,0.021 0,0.031 0,0.3945 0.3242609,0.7188 0.71875,0.7188 0.3944891,0 0.71875,-0.3243 0.71875,-0.7188 0,-0.01 4.497e-4,-0.021 0,-0.031 -0.031841,0.3659 -0.3451456,0.6562 -0.71875,0.6562 -0.3736044,0 -0.6869085,-0.2903 -0.71875,-0.6562 z m 2.875,0 c -4.497e-4,0.01 0,0.021 0,0.031 0,0.3945 0.3242609,0.7188 0.71875,0.7188 0.394489,0 0.71875,-0.3243 0.71875,-0.7188 0,-0.01 4.5e-4,-0.021 0,-0.031 -0.03184,0.3659 -0.3451457,0.6562 -0.71875,0.6562 -0.3736044,0 -0.6869085,-0.2903 -0.71875,-0.6562 z m 2.84375,0 c -4.5e-4,0.01 0,0.021 0,0.031 0,0.3945 0.324261,0.7188 0.71875,0.7188 0.394489,0 0.71875,-0.3243 0.71875,-0.7188 0,-0.01 4.5e-4,-0.021 0,-0.031 -0.03184,0.3659 -0.345146,0.6562 -0.71875,0.6562 -0.373604,0 -0.686908,-0.2903 -0.71875,-0.6562 z"/></g><rect id="rect1861" width="43.446" height="32" x="2.277" y="-1041.164" fill="url(#linearGradient1871)" fill-opacity="1" stroke="none" ry="1.296" transform="scale(1,-1)"/><path id="rect1922" fill="url(#linearGradient1935)" fill-opacity="1" stroke="none" d="m 2.2768741,1035.085 0,4.7895 c 0,0.7182 0.7756361,1.2894 1.7507123,1.2894 l 7.4673246,0 0,-6.0789 -9.2180369,0 z" opacity=".65"/><path id="path1939" fill="url(#linearGradient1941)" fill-opacity="1" stroke="none" d="m 45.723126,1035.085 0,4.7895 c 0,0.7182 -0.775635,1.2894 -1.750713,1.2894 l -7.467324,0 0,-6.0789 9.218037,0 z" opacity=".65"/><path id="path1943" fill="url(#linearGradient1947)" fill-opacity="1" stroke="none" d="m 2.2768741,1015.2428 0,-4.7894 c 0,-0.7181 0.7756361,-1.2894 1.7507123,-1.2894 l 7.4673246,0 0,6.0788 -9.2180369,0 z" opacity=".65"/><path id="path1945" fill="url(#linearGradient1949)" fill-opacity="1" stroke="none" d="m 45.723126,1015.2428 0,-4.7894 c 0,-0.7181 -0.775635,-1.2894 -1.750713,-1.2894 l -7.467324,0 0,6.0788 9.218037,0 z" opacity=".65"/><rect id="rect1873" width="36.586" height="26.947" x="5.707" y="-1038.638" fill="url(#linearGradient1875)" fill-opacity="1" stroke="none" ry="1.092" transform="scale(1,-1)"/><path id="path1361-1" fill="#000" fill-opacity=".235" d="m 23.753844,1017.214 c -1.155281,0 -2.107692,0.961 -2.107692,2.1274 l 0,6.0402 c 0,1.1656 0.952411,2.1269 2.107692,2.1269 l 0.492309,0 c 1.155281,0 2.107693,-0.9613 2.107693,-2.1269 l 0,-6.0402 c 0,-1.1664 -0.952412,-2.1274 -2.107693,-2.1274 l -0.492309,0 z m -4.353845,6.8011 c -0.215302,0 -0.4,0.171 -0.4,0.3881 l 0,0.357 c 0,2.5996 1.771435,4.7539 4.215384,5.1396 l 0,1.6305 -1.507695,0 c -0.21565,0 -0.4,0.187 -0.4,0.4038 l 0,0.776 c 0,0.2177 0.184342,0.4039 0.4,0.4039 l 4.584617,0 c 0.215654,0 0.384615,-0.187 0.384615,-0.4039 l 0,-0.776 c 0,-0.2176 -0.168963,-0.4038 -0.384615,-0.4038 l -1.507691,0 0,-1.6305 c 2.445699,-0.3854 4.215385,-2.54 4.215385,-5.1396 l 0,-0.357 c 0,-0.2179 -0.184338,-0.3881 -0.4,-0.3881 l -0.384616,0 c -0.215654,0 -0.4,0.171 -0.4,0.3881 l 0,0.357 c 0,2.2202 -1.616499,4.0217 -3.815384,4.0217 -2.199238,0 -3.815385,-1.8015 -3.815385,-4.0217 l 0,-0.357 c 0,-0.2179 -0.184342,-0.3881 -0.4,-0.3881 l -0.384615,0 z"/><path id="rect1883" fill="url(#linearGradient1902)" fill-opacity="1" stroke="none" d="m 5.7068414,1036.5849 0,0.9739 c 0,0.6047 0.643765,1.0789 1.4648819,1.0789 l 33.6565547,0 c 0.821117,0 1.464881,-0.4742 1.464881,-1.0789 l 0,-0.9739 c 0,0.6048 -0.643764,1.1053 -1.464881,1.1053 l -33.6565547,0 c -0.8211169,0 -1.4648819,-0.5005 -1.4648819,-1.1053 z"/><path id="path1904" fill="url(#linearGradient1906)" fill-opacity="1" stroke="none" d="m 5.7068414,1013.743 0,-0.9738 c 0,-0.6048 0.643765,-1.0791 1.4648819,-1.0791 l 33.6565547,0 c 0.821117,0 1.464881,0.4743 1.464881,1.0791 l 0,0.9738 c 0,-0.6049 -0.643764,-1.1053 -1.464881,-1.1053 l -33.6565547,0 c -0.8211169,0 -1.4648819,0.5004 -1.4648819,1.1053 z"/><path id="path1914" fill="url(#linearGradient1916)" fill-opacity="1" stroke="none" d="m 8.4936896,1038.6377 -1.3219092,0 c -0.8211343,0 -1.464939,-0.4742 -1.464939,-1.079 l 0,-24.7896 c 0,-0.6048 0.6438047,-1.079 1.464939,-1.079 l 1.3219092,0 c -0.8211343,0 -1.5006108,0.4742 -1.5006108,1.079 l 0,24.7896 c 0,0.6048 0.6794765,1.079 1.5006108,1.079 z"/><path id="path1918" fill="url(#linearGradient1920)" fill-opacity="1" stroke="none" d="m 39.50631,1038.6377 1.321912,0 c 0.821134,0 1.464937,-0.4742 1.464937,-1.079 l 0,-24.7896 c 0,-0.6048 -0.643803,-1.079 -1.464937,-1.079 l -1.321912,0 c 0.821134,0 1.50061,0.4742 1.50061,1.079 l 0,24.7896 c 0,0.6048 -0.679476,1.079 -1.50061,1.079 z"/><path id="rect2622" fill="#fff" fill-opacity=".128" stroke="none" d="m 5.7499997,1012.4872 c -0.023979,0.085 -0.028468,0.1581 -0.03125,0.25 l 36.5625003,0 c -0.0028,-0.092 -0.0073,-0.1652 -0.03125,-0.25 l -36.5000003,0 z m -0.03125,1 0,0.2813 36.5625003,0 0,-0.2813 -36.5625003,0 z m 0,1 0,0.2813 36.5625003,0 0,-0.2813 -36.5625003,0 z m 0,1 0,0.2813 36.5625003,0 0,-0.2813 -36.5625003,0 z m 0,1 0,0.2813 36.5625003,0 0,-0.2813 -36.5625003,0 z m 0,1 0,0.2813 36.5625003,0 0,-0.2813 -36.5625003,0 z m 0,1 0,0.2813 36.5625003,0 0,-0.2813 -36.5625003,0 z m 0,1 0,0.2813 36.5625003,0 0,-0.2813 -36.5625003,0 z m 0,1 0,0.2813 36.5625003,0 0,-0.2813 -36.5625003,0 z m 0,1 0,0.2813 36.5625003,0 0,-0.2813 -36.5625003,0 z m 0,1 0,0.2813 36.5625003,0 0,-0.2813 -36.5625003,0 z m 0,1 0,0.2813 36.5625003,0 0,-0.2813 -36.5625003,0 z m 0,1 0,0.2813 36.5625003,0 0,-0.2813 -36.5625003,0 z m 0,1.0313 0,0.25 36.5625003,0 0,-0.25 -36.5625003,0 z m 0,1 0,0.2812 36.5625003,0 0,-0.2812 -36.5625003,0 z m 0,1 0,0.2812 36.5625003,0 0,-0.2812 -36.5625003,0 z m 0,1 0,0.2812 36.5625003,0 0,-0.2812 -36.5625003,0 z m 0,1 0,0.2812 36.5625003,0 0,-0.2812 -36.5625003,0 z m 0,1 0,0.2812 36.5625003,0 0,-0.2812 -36.5625003,0 z m 0,1 0,0.2812 36.5625003,0 0,-0.2812 -36.5625003,0 z m 0,1 0,0.2812 36.5625003,0 0,-0.2812 -36.5625003,0 z m 0,1 0,0.2812 36.5625003,0 0,-0.2812 -36.5625003,0 z m 0,1 0,0.2812 36.5625003,0 0,-0.2812 -36.5625003,0 z m 0,1 0,0.2812 36.5625003,0 0,-0.2812 -36.5625003,0 z m 0,1 0,0.2812 36.5625003,0 0,-0.2812 -36.5625003,0 z m 0,1 0,0.031 c 0,0.086 0.012544,0.1697 0.03125,0.25 l 36.5000003,0 c 0.01871,-0.08 0.03125,-0.1638 0.03125,-0.25 l 0,-0.031 -36.5625003,0 z"/><path id="path6105" fill="#000" fill-opacity=".235" stroke="none" d="m 24,1043.5622 c -1.656864,0 -3,1.3432 -3,3 0,1.6568 1.343136,3 3,3 1.656846,0 3,-1.3432 3,-3 0,-1.6568 -1.343154,-3 -3,-3 z m 0,0.2501 c 1.25967,0 2.321544,0.8469 2.647194,2.0025 -0.280494,0.5784 -0.67959,1.0993 -1.165638,1.5202 -0.23349,0.2022 -0.488406,0.3824 -0.769992,0.5094 -0.281598,0.1269 -0.591324,0.1989 -0.899694,0.1813 -0.231684,-0.014 -0.460536,-0.078 -0.663444,-0.1904 0.537708,-0.2913 1.022868,-0.6798 1.420008,-1.145 0.260676,-0.3052 0.488742,-0.6523 0.57657,-1.0441 0.04386,-0.1958 0.0513,-0.4009 0.01026,-0.5974 -0.04104,-0.1965 -0.131886,-0.3838 -0.269376,-0.53 -0.134328,-0.1429 -0.31065,-0.2442 -0.499698,-0.2963 -0.189036,-0.053 -0.39021,-0.056 -0.583116,-0.021 -0.385824,0.07 -0.73029,0.2948 -1.00656,0.5732 -0.486984,0.4907 -0.78804,1.183 -0.732816,1.8721 0.0276,0.3446 0.143076,0.6832 0.340932,0.9666 0.04416,0.063 0.09271,0.1235 0.14469,0.1806 -0.288234,0.1009 -0.586686,0.1727 -0.889374,0.2132 -0.259872,-0.42 -0.409998,-0.915 -0.409998,-1.4451 0,-1.5187 1.231218,-2.7499 2.749998,-2.7499 z m 0.01746,0.5556 c 0.193308,2e-4 0.387942,0.059 0.542178,0.1752 0.138984,0.105 0.241944,0.2544 0.300324,0.4185 0.05844,0.1641 0.07343,0.3423 0.0534,0.5153 -0.0399,0.346 -0.21441,0.6634 -0.425328,0.9406 -0.37344,0.4909 -0.86982,0.8838 -1.42188,1.1588 -0.05646,0.029 -0.11391,0.055 -0.171552,0.081 -0.12012,-0.105 -0.22308,-0.2298 -0.30156,-0.3687 -0.163998,-0.2904 -0.21807,-0.6353 -0.186258,-0.9672 0.0318,-0.3318 0.145734,-0.6519 0.298758,-0.948 0.177426,-0.3435 0.419256,-0.669 0.757806,-0.8556 0.169284,-0.094 0.36075,-0.1497 0.554064,-0.1494 z m 2.707812,1.8262 c 0.01614,0.1204 0.02466,0.2432 0.02466,0.3681 0,1.5188 -1.231218,2.75 -2.749998,2.75 -0.85296,0 -1.615278,-0.3882 -2.119692,-0.9979 0.31134,-0.07 0.61563,-0.1721 0.9075,-0.3015 0.127644,0.097 0.268602,0.177 0.41844,0.2343 0.431514,0.1656 0.92142,0.1416 1.358124,-0.01 0.43671,-0.1512 0.823968,-0.4224 1.16157,-0.738 0.402156,-0.3759 0.74124,-0.819 0.999366,-1.3053 z"/><path id="path2993-1" fill="url(#linearGradient6103)" fill-opacity="1" stroke="none" d="m 24,1043.3622 c -1.656864,0 -3,1.3432 -3,3 0,1.6568 1.343136,3 3,3 1.656846,0 3,-1.3432 3,-3 0,-1.6568 -1.343154,-3 -3,-3 z m 0,0.2501 c 1.25967,0 2.321544,0.8469 2.647194,2.0025 -0.280494,0.5784 -0.67959,1.0993 -1.165638,1.5202 -0.23349,0.2022 -0.488406,0.3824 -0.769992,0.5094 -0.281598,0.1269 -0.591324,0.1989 -0.899694,0.1813 -0.231684,-0.014 -0.460536,-0.078 -0.663444,-0.1904 0.537708,-0.2913 1.022868,-0.6798 1.420008,-1.145 0.260676,-0.3052 0.488742,-0.6523 0.57657,-1.0441 0.04386,-0.1958 0.0513,-0.4009 0.01026,-0.5974 -0.04104,-0.1965 -0.131886,-0.3838 -0.269376,-0.53 -0.134328,-0.1429 -0.31065,-0.2442 -0.499698,-0.2963 -0.189036,-0.053 -0.39021,-0.056 -0.583116,-0.021 -0.385824,0.07 -0.73029,0.2948 -1.00656,0.5732 -0.486984,0.4907 -0.78804,1.183 -0.732816,1.8721 0.0276,0.3446 0.143076,0.6832 0.340932,0.9666 0.04416,0.063 0.09271,0.1235 0.14469,0.1806 -0.288234,0.1009 -0.586686,0.1727 -0.889374,0.2132 -0.259872,-0.42 -0.409998,-0.915 -0.409998,-1.4451 0,-1.5187 1.231218,-2.7499 2.749998,-2.7499 z m 0.01746,0.5556 c 0.193308,2e-4 0.387942,0.059 0.542178,0.1752 0.138984,0.105 0.241944,0.2544 0.300324,0.4185 0.05844,0.1641 0.07343,0.3423 0.0534,0.5153 -0.0399,0.346 -0.21441,0.6634 -0.425328,0.9406 -0.37344,0.4909 -0.86982,0.8838 -1.42188,1.1588 -0.05646,0.029 -0.11391,0.055 -0.171552,0.081 -0.12012,-0.105 -0.22308,-0.2298 -0.30156,-0.3687 -0.163998,-0.2904 -0.21807,-0.6353 -0.186258,-0.9672 0.0318,-0.3318 0.145734,-0.6519 0.298758,-0.948 0.177426,-0.3435 0.419256,-0.669 0.757806,-0.8556 0.169284,-0.094 0.36075,-0.1497 0.554064,-0.1494 z m 2.707812,1.8262 c 0.01614,0.1204 0.02466,0.2432 0.02466,0.3681 0,1.5188 -1.231218,2.75 -2.749998,2.75 -0.85296,0 -1.615278,-0.3882 -2.119692,-0.9979 0.31134,-0.07 0.61563,-0.1721 0.9075,-0.3015 0.127644,0.097 0.268602,0.177 0.41844,0.2343 0.431514,0.1656 0.92142,0.1416 1.358124,-0.01 0.43671,-0.1512 0.823968,-0.4224 1.16157,-0.738 0.402156,-0.3759 0.74124,-0.819 0.999366,-1.3053 z"/><path id="path6109" fill="#fff" fill-opacity=".235" stroke="none" d="m 24,1043.1622 c -1.656864,0 -3,1.3432 -3,3 0,1.6568 1.343136,3 3,3 1.656846,0 3,-1.3432 3,-3 0,-1.6568 -1.343154,-3 -3,-3 z m 0,0.2501 c 1.25967,0 2.321544,0.8469 2.647194,2.0025 -0.280494,0.5784 -0.67959,1.0993 -1.165638,1.5202 -0.23349,0.2022 -0.488406,0.3824 -0.769992,0.5094 -0.281598,0.1269 -0.591324,0.1989 -0.899694,0.1813 -0.231684,-0.014 -0.460536,-0.078 -0.663444,-0.1904 0.537708,-0.2913 1.022868,-0.6798 1.420008,-1.145 0.260676,-0.3052 0.488742,-0.6523 0.57657,-1.0441 0.04386,-0.1958 0.0513,-0.4009 0.01026,-0.5974 -0.04104,-0.1965 -0.131886,-0.3838 -0.269376,-0.53 -0.134328,-0.1429 -0.31065,-0.2442 -0.499698,-0.2963 -0.189036,-0.053 -0.39021,-0.056 -0.583116,-0.021 -0.385824,0.07 -0.73029,0.2948 -1.00656,0.5732 -0.486984,0.4907 -0.78804,1.183 -0.732816,1.8721 0.0276,0.3446 0.143076,0.6832 0.340932,0.9666 0.04416,0.063 0.09271,0.1235 0.14469,0.1806 -0.288234,0.1009 -0.586686,0.1727 -0.889374,0.2132 -0.259872,-0.42 -0.409998,-0.915 -0.409998,-1.4451 0,-1.5187 1.231218,-2.7499 2.749998,-2.7499 z m 0.01746,0.5556 c 0.193308,2e-4 0.387942,0.059 0.542178,0.1752 0.138984,0.105 0.241944,0.2544 0.300324,0.4185 0.05844,0.1641 0.07343,0.3423 0.0534,0.5153 -0.0399,0.346 -0.21441,0.6634 -0.425328,0.9406 -0.37344,0.4909 -0.86982,0.8838 -1.42188,1.1588 -0.05646,0.029 -0.11391,0.055 -0.171552,0.081 -0.12012,-0.105 -0.22308,-0.2298 -0.30156,-0.3687 -0.163998,-0.2904 -0.21807,-0.6353 -0.186258,-0.9672 0.0318,-0.3318 0.145734,-0.6519 0.298758,-0.948 0.177426,-0.3435 0.419256,-0.669 0.757806,-0.8556 0.169284,-0.094 0.36075,-0.1497 0.554064,-0.1494 z m 2.707812,1.8262 c 0.01614,0.1204 0.02466,0.2432 0.02466,0.3681 0,1.5188 -1.231218,2.75 -2.749998,2.75 -0.85296,0 -1.615278,-0.3882 -2.119692,-0.9979 0.31134,-0.07 0.61563,-0.1721 0.9075,-0.3015 0.127644,0.097 0.268602,0.177 0.41844,0.2343 0.431514,0.1656 0.92142,0.1416 1.358124,-0.01 0.43671,-0.1512 0.823968,-0.4224 1.16157,-0.738 0.402156,-0.3759 0.74124,-0.819 0.999366,-1.3053 z"/><path id="path1342-0" fill="url(#linearGradient1344-6)" fill-opacity="1" stroke="none" d="m 6.9606403,1011.6903 c -0.6155275,0 -1.1023615,0.4868 -1.1023615,1.1023 l 0,10.5197 36.2834392,0 0,-10.5197 c 0,-0.6155 -0.486834,-1.1023 -1.102361,-1.1023 z" opacity=".386"/></g></svg>