<svg xmlns="http://www.w3.org/2000/svg" xmlns:svg="http://www.w3.org/2000/svg" xmlns:xlink="http://www.w3.org/1999/xlink" id="svg2" width="48" height="48" version="1.1" viewBox="0 0 13.547 13.547"><metadata id="metadata22"/><defs id="defs4"><linearGradient id="linearGradient1698" x1="22.081" x2="22.081" y1="-1052.841" y2="-1004.767" gradientTransform="matrix(0.28222223,0,0,0.28222223,-3.056488e-7,283.45334)" gradientUnits="userSpaceOnUse" xlink:href="#linearGradient1462"/><linearGradient id="linearGradient1462"><stop id="stop1464" offset="0" stop-color="#000" stop-opacity="1"/><stop id="stop1466" offset="1" stop-color="#666" stop-opacity="1"/></linearGradient><linearGradient id="linearGradient1497" x1="24.969" x2="24.969" y1="23.906" y2="45.594" gradientTransform="matrix(0.25656567,0,0,0.25656567,0.61575719,0.57565086)" gradientUnits="userSpaceOnUse" xlink:href="#linearGradient1499"/><linearGradient id="linearGradient1499"><stop id="stop1501" offset="0" stop-color="#256e0d" stop-opacity="1"/><stop id="stop1503" offset="1" stop-color="#4ea119" stop-opacity="1"/></linearGradient><linearGradient id="linearGradient1489" x1="25.191" x2="25.191" y1="24.224" y2="1.861" gradientTransform="matrix(0.25656567,0,0,0.25288994,0.61575719,0.6644662)" gradientUnits="userSpaceOnUse" xlink:href="#linearGradient1483"/><linearGradient id="linearGradient1483"><stop id="stop1485" offset="0" stop-color="#43bc16" stop-opacity="1"/><stop id="stop1487" offset="1" stop-color="#88c34a" stop-opacity="1"/></linearGradient><linearGradient id="linearGradient1545" x1="24.406" x2="24.406" y1="1027.273" y2="1027.844" gradientTransform="matrix(0.25656567,0,0,0.43634777,0.61575709,-441.77318)" gradientUnits="userSpaceOnUse" xlink:href="#linearGradient1539"/><linearGradient id="linearGradient1539"><stop id="stop1541" offset="0" stop-color="#000" stop-opacity="1"/><stop id="stop1543" offset="1" stop-color="#000" stop-opacity="0"/></linearGradient><linearGradient id="linearGradient1583" x1="19.55" x2="25.4" y1="20.563" y2="20.563" gradientUnits="userSpaceOnUse" xlink:href="#linearGradient1577"/><linearGradient id="linearGradient1577"><stop id="stop1579" offset="0" stop-color="#b6e500" stop-opacity="1"/><stop id="stop1581" offset="1" stop-color="#cf0" stop-opacity="1"/></linearGradient></defs><rect id="rect2991-1" width="13.547" height="13.547" x="0" y="-13.547" fill="url(#linearGradient1698)" fill-opacity="1" stroke="none" ry=".549" transform="scale(1,-1)"/><rect id="rect4065" width="11.853" height="11.853" x=".847" y="-12.7" fill="#000" fill-opacity=".235" stroke="none" ry=".48" transform="scale(1,-1)"/><path id="rect846" fill="#000" fill-opacity="1" stroke="none" d="m -3.056488e-7,12.700002 0,0.299861 c 0,0.304038 0.2427740956488,0.546806 0.5468055956488,0.546806 l 12.45305571,0 c 0.304032,0 0.546806,-0.242768 0.546806,-0.546806 l 0,-0.299861 c 0,0.304038 -0.242774,0.546806 -0.546806,0.546806 l -12.45305571,0 C 0.24277379,13.246808 -3.056488e-7,13.00404 -3.056488e-7,12.700002 Z"/><path id="path7515" fill="#fff" fill-opacity=".537" stroke="none" d="m 0.71437469,0.18522462 c -0.2588226,0 -0.4716348,0.18048113 -0.5203472,0.42333335 0.094717,-0.078994 0.2185845,-0.12347222 0.3527778,-0.12347222 l 12.45305571,0 c 0.134193,0 0.258061,0.0444782 0.352778,0.12347222 -0.04871,-0.24285222 -0.261525,-0.42333335 -0.520347,-0.42333335 l -12.11791731,0 z"/><path id="rect4280" fill="#000" fill-opacity=".392" stroke="none" d="M 0.54680529,2.1849451e-6 C 0.24277379,2.1849451e-6 -3.056488e-7,0.24276974 -3.056488e-7,0.54680775 l 0,12.15319425 c 0,0.223915 0.1354734956488,0.40894 0.3263194956488,0.493889 -0.087303,-0.09407 -0.1411112,-0.220811 -0.1411112,-0.361583 l 0,-12.11791669 c 0,-0.29582534 0.2333693,-0.52916669 0.5291667,-0.52916669 l 12.11791731,0 c 0.295797,0 0.529166,0.23334135 0.529166,0.52916669 l 0,12.11791669 c 0,0.140772 -0.05381,0.267518 -0.141111,0.361583 0.190846,-0.08495 0.32632,-0.269974 0.32632,-0.493889 l 0,-12.15319425 C 13.546667,0.24276974 13.303893,2.1849451e-6 12.999861,2.1849451e-6 l -12.45305571,0 z"/><rect id="rect1472" width="11.289" height="11.289" x="1.129" y="-12.418" fill="#000" fill-opacity="1" stroke="none" ry=".457" transform="scale(1,-1)"/><path id="path1481" fill="url(#linearGradient1497)" fill-opacity="1" stroke="none" d="m 12.329583,6.7733356 -11.1125,0 0,5.0671874 c 0,0.249428 0.1995532,0.448959 0.4489899,0.448959 l 10.2145201,0 c 0.249437,0 0.44899,-0.199531 0.44899,-0.448959 l 0,-5.0671874 z"/><path id="path1567" fill="#000" fill-opacity=".735" fill-rule="nonzero" stroke="none" stroke-width=".2" d="m 1.1288884,6.5868996 0,0.4730609 11.2888886,0 0,-0.4730609 -11.2888886,0 z" color="#000" display="inline" enable-background="accumulate" overflow="visible" visibility="visible" style="marker:none"/><path id="rect1476" fill="url(#linearGradient1489)" fill-opacity="1" stroke="none" d="m 1.6660729,1.2571894 c -0.2494367,0 -0.4489899,0.1966524 -0.4489899,0.4425526 l 0,5.0735936 11.1125,0 0,-5.0735936 c 0,-0.2459002 -0.199553,-0.4425526 -0.44899,-0.4425526 l -10.2145201,0 z"/><path id="path1565" fill="#000" fill-opacity=".508" fill-rule="nonzero" stroke="none" stroke-width=".2" d="m 1.1288884,6.4867107 0,0.4730609 11.2888886,0 0,-0.4730609 -11.2888886,0 z" color="#000" display="inline" enable-background="accumulate" overflow="visible" visibility="visible" style="marker:none"/><path id="rect1505" fill="#cf0" fill-opacity="1" fill-rule="nonzero" stroke="none" stroke-width=".2" d="m 1.1288884,6.548094 0,0.4730609 11.2888886,0 0,-0.4730609 -11.2888886,0 z" color="#000" display="inline" enable-background="accumulate" overflow="visible" visibility="visible" style="marker:none"/><path id="path1516" fill="url(#linearGradient1545)" fill-opacity="1" fill-rule="nonzero" stroke="none" stroke-width=".2" d="m 1.1288884,6.548094 0,0.22606 11.2888886,0 0,-0.22606 -11.2888886,0 z" color="#000" display="inline" enable-background="accumulate" opacity=".571" overflow="visible" visibility="visible" style="marker:none"/><path id="path1512" fill="#000" fill-opacity=".195" fill-rule="nonzero" stroke="none" stroke-width=".2" d="m 25.399619,20.5625 -5.849429,3.377169 0,-6.754338 z" color="#000" display="inline" enable-background="accumulate" overflow="visible" transform="matrix(0,0.16735909,-0.28505464,0,12.634769,3.2762071)" visibility="visible" style="marker:none"/><path id="path1514" fill="url(#linearGradient1583)" fill-opacity="1" fill-rule="nonzero" stroke="none" stroke-width=".2" d="m 25.399619,20.5625 -5.849429,3.377169 0,-6.754338 z" color="#000" display="inline" enable-background="accumulate" overflow="visible" transform="matrix(0,0.15365232,-0.26170857,0,12.154715,3.5441771)" visibility="visible" style="marker:none"/><path id="rect4171" fill="#fff" fill-opacity="1" fill-rule="nonzero" stroke="none" stroke-dasharray="none" stroke-dashoffset="0" stroke-linecap="butt" stroke-linejoin="miter" stroke-miterlimit="4" stroke-opacity="1" stroke-width="1" d="m 5.0799996,2.2577774 0,2.5400001 1.1288889,0 0,0.282222 0.2822223,0 0,-0.282222 0.5644444,0 0,0.282222 0.2822222,0 0,-0.282222 1.1288889,0 0,-2.5400001 -3.3866667,0 z m 0.2822222,0.2822222 2.8222223,0 0,1.4111112 -2.8222223,0 0,-1.4111112 z m 0,1.6933334 2.8222223,0 0,0.2822222 -2.8222223,0 0,-0.2822222 z m 0.5644445,1.1288885 0,0.282223 1.6933334,0 0,-0.282223 -0.2822223,0 -0.2822222,0 -0.5644444,0 -0.2822223,0 -0.2822222,0 z" clip-rule="nonzero" color="#000" color-interpolation="sRGB" color-interpolation-filters="linearRGB" color-rendering="auto" display="inline" enable-background="accumulate" image-rendering="auto" opacity="1" overflow="visible" shape-rendering="auto" text-decoration="none" text-rendering="auto" visibility="visible" style="text-decoration-line:none;text-decoration-style:solid;text-decoration-color:#000;isolation:auto;mix-blend-mode:normal;solid-color:#000;solid-opacity:1"/><path color="#000" style="text-decoration-line:none;text-decoration-style:solid;text-decoration-color:#000;isolation:auto;mix-blend-mode:normal;solid-color:#000;solid-opacity:1" id="path4298" fill="#fff" fill-opacity="1" fill-rule="nonzero" stroke="none" stroke-dasharray="none" stroke-dashoffset="0" stroke-linecap="butt" stroke-linejoin="miter" stroke-miterlimit="4" stroke-opacity="1" stroke-width="1" d="m 5.0799996,7.9022219 0,2.5400001 1.1288889,0 0,0.282222 0.2822223,0 0,-0.282222 0.5644444,0 0,0.282222 0.2822222,0 0,-0.282222 1.1288889,0 0,-2.5400001 -3.3866667,0 z m 0.2822222,0.2822222 2.8222223,0 0,1.4111112 -2.8222223,0 0,-1.4111112 z m 0,1.6933334 2.8222223,0 0,0.2822225 -2.8222223,0 0,-0.2822225 z m 0.5644445,1.1288885 0,0.282223 1.6933334,0 0,-0.282223 -0.2822223,0 -0.2822222,0 -0.5644444,0 -0.2822223,0 -0.2822222,0 z" clip-rule="nonzero" color-interpolation="sRGB" color-interpolation-filters="linearRGB" color-rendering="auto" display="inline" enable-background="accumulate" image-rendering="auto" opacity="1" overflow="visible" shape-rendering="auto" text-decoration="none" text-rendering="auto" visibility="visible"/></svg>