<svg xmlns="http://www.w3.org/2000/svg" xmlns:svg="http://www.w3.org/2000/svg" xmlns:xlink="http://www.w3.org/1999/xlink" id="svg2" width="48" height="48" version="1.1"><defs id="defs4"><linearGradient id="linearGradient868"><stop id="stop870" offset="0" stop-color="#a00" stop-opacity="1"/><stop id="stop872" offset="1" stop-color="#f55" stop-opacity="1"/></linearGradient><linearGradient id="linearGradient4053"><stop id="stop4055" offset="0" stop-color="#ffcdcd" stop-opacity="1"/><stop id="stop4057" offset="1" stop-color="#fff5f5" stop-opacity="1"/></linearGradient><linearGradient id="linearGradient1098" x1="-29.303" x2="-29.303" y1="-1051.302" y2="-1003.572" gradientTransform="translate(53.344928,-1.1022901)" gradientUnits="userSpaceOnUse" xlink:href="#linearGradient868"/><linearGradient id="linearGradient4127" x1="35.068" x2="35.068" y1="1043.735" y2="1012.952" gradientTransform="matrix(-1,0,0,1,48.066494,8.6914063e-6)" gradientUnits="userSpaceOnUse" xlink:href="#linearGradient4053"/><linearGradient id="linearGradient4159" x1="28.462" x2="28.462" y1="20.899" y2="25.354" gradientTransform="matrix(-0.86486486,0,0,0.86486486,47.093521,1008.4703)" gradientUnits="userSpaceOnUse" xlink:href="#linearGradient868"/><style id="style2464" type="text/css"/><style id="style2464-7" type="text/css"/></defs><metadata id="metadata7"/><g id="layer1" transform="translate(0,-1004.3622)"><rect id="rect2991-1-5" width="48" height="48" x="0" y="-1052.362" fill="url(#linearGradient1098)" fill-opacity="1" stroke="none" ry="1.945" transform="scale(1,-1)"/><path id="path4194" fill="#000" fill-opacity=".059" stroke="none" d="m 23.961881,1014.1622 c 8.505769,0 15.401337,6.8928 15.401337,15.3987 0,2.4444 -0.584256,4.7482 -1.597738,6.8011 0.893372,3.3341 1.742149,4.0336 1.739672,4.8312 -0.08478,1.8387 -3.07256,2.8155 -7.410561,1.4293 -2.362084,1.4741 -5.143381,2.3397 -8.13271,2.3397 -8.50577,0 -15.4013395,-6.8956 -15.4013395,-15.4013 0,-8.5059 6.8955695,-15.3987 15.4013395,-15.3987 z"/><path id="path4192" fill="#000" fill-opacity=".118" stroke="none" d="m 23.961881,1013.7622 c 8.505769,0 15.401337,6.8928 15.401337,15.3987 0,2.4444 -0.584256,4.7482 -1.597738,6.8011 0.893372,3.3341 1.742149,4.0336 1.739672,4.8312 -0.08478,1.8387 -3.07256,2.8155 -7.410561,1.4293 -2.362084,1.4741 -5.143381,2.3397 -8.13271,2.3397 -8.50577,0 -15.4013395,-6.8956 -15.4013395,-15.4013 0,-8.5059 6.8955695,-15.3987 15.4013395,-15.3987 z"/><path id="path4188" fill="#000" fill-opacity=".235" stroke="none" d="m 23.961881,1013.3622 c 8.505769,0 15.401337,6.8928 15.401337,15.3987 0,2.4444 -0.584256,4.7482 -1.597738,6.8011 0.893372,3.3341 1.742149,4.0336 1.739672,4.8312 -0.08478,1.8387 -3.07256,2.8155 -7.410561,1.4293 -2.362084,1.4741 -5.143381,2.3397 -8.13271,2.3397 -8.50577,0 -15.4013395,-6.8956 -15.4013395,-15.4013 0,-8.5059 6.8955695,-15.3987 15.4013395,-15.3987 z"/><path id="rect846-2" fill="#000" fill-opacity="1" stroke="none" d="m -2.3073456e-6,1049.3622 0,1.0625 c 0,1.0773 0.8602229973456,1.9375 1.9375000073456,1.9375 l 44.1250003,0 c 1.077277,0 1.9375,-0.8602 1.9375,-1.9375 l 0,-1.0625 c 0,1.0773 -0.860223,1.9375 -1.9375,1.9375 l -44.1250003,0 c -1.07727701,0 -1.9375000073456,-0.8602 -1.9375000073456,-1.9375 z"/><path id="path7515-2" fill="#fff" fill-opacity=".537" stroke="none" d="m 2.5312477,1005.0185 c -0.917088,0 -1.67114601,0.6395 -1.84375001,1.5 0.33561201,-0.2799 0.77451301,-0.4375 1.25000001,-0.4375 l 44.1250003,0 c 0.475488,0 0.914388,0.1576 1.25,0.4375 -0.172603,-0.8605 -0.926662,-1.5 -1.84375,-1.5 l -42.9375003,0 z"/><path id="rect4280-2" fill="#000" fill-opacity=".392" stroke="none" d="m 1.9374977,1004.3622 c -1.07727701,0 -1.9375000073456,0.8602 -1.9375000073456,1.9375 l 0,43.0625 c 0,0.7934 0.4800239973456,1.449 1.1562500073456,1.75 -0.30934101,-0.3333 -0.50000001,-0.7824 -0.50000001,-1.2812 l 0,-42.9375 c 0,-1.0482 0.82689901,-1.875 1.87500001,-1.875 l 42.9375003,0 c 1.048101,0 1.875,0.8268 1.875,1.875 l 0,42.9375 c 0,0.4988 -0.190658,0.9479 -0.5,1.2812 0.676226,-0.301 1.15625,-0.9566 1.15625,-1.75 l 0,-43.0625 c 0,-1.0773 -0.860223,-1.9375 -1.9375,-1.9375 l -44.1250003,0 z"/><path id="path4080" fill="url(#linearGradient4127)" fill-opacity="1" stroke="none" d="m 23.961881,1012.9622 c 8.505769,0 15.401337,6.8928 15.401337,15.3987 0,2.4444 -0.584256,4.7482 -1.597738,6.8011 0.893372,3.3341 1.742149,4.0336 1.739672,4.8312 -0.08478,1.8387 -3.07256,2.8155 -7.410561,1.4293 -2.362084,1.4741 -5.143381,2.3397 -8.13271,2.3397 -8.50577,0 -15.4013395,-6.8956 -15.4013395,-15.4013 0,-8.5059 6.8955695,-15.3987 15.4013395,-15.3987 z"/><path id="path4161" fill="#fff" fill-opacity=".235" stroke="none" d="m 32.066494,1026.7626 c 1.104569,0 2,0.8954 2,2 0,1.1046 -0.895431,2 -2,2 -1.104569,0 -2,-0.8954 -2,-2 0,-1.1046 0.895431,-2 2,-2 z m -8,0 c 1.104569,0 2,0.8954 2,2 0,1.1046 -0.895431,2 -2,2 -1.104569,0 -2,-0.8954 -2,-2 0,-1.1046 0.895431,-2 2,-2 z m -8,0 c 1.104569,0 2,0.8954 2,2 0,1.1046 -0.895431,2 -2,2 -1.104569,0 -2,-0.8954 -2,-2 0,-1.1046 0.895431,-2 2,-2 z"/><path id="path4179" fill="#dd4915" fill-opacity=".314" stroke="none" d="m 32.066494,1025.9622 c 1.104569,0 2,0.8954 2,2 0,1.1046 -0.895431,2 -2,2 -1.104569,0 -2,-0.8954 -2,-2 0,-1.1046 0.895431,-2 2,-2 z m -8,0 c 1.104569,0 2,0.8954 2,2 0,1.1046 -0.895431,2 -2,2 -1.104569,0 -2,-0.8954 -2,-2 0,-1.1046 0.895431,-2 2,-2 z m -8,0 c 1.104569,0 2,0.8954 2,2 0,1.1046 -0.895431,2 -2,2 -1.104569,0 -2,-0.8954 -2,-2 0,-1.1046 0.895431,-2 2,-2 z"/><path id="path4143" fill="url(#linearGradient4159)" fill-opacity="1" stroke="none" d="m 32.066494,1026.3622 c 1.104569,0 2,0.8954 2,2 0,1.1046 -0.895431,2 -2,2 -1.104569,0 -2,-0.8954 -2,-2 0,-1.1046 0.895431,-2 2,-2 z m -8,0 c 1.104569,0 2,0.8954 2,2 0,1.1046 -0.895431,2 -2,2 -1.104569,0 -2,-0.8954 -2,-2 0,-1.1046 0.895431,-2 2,-2 z m -8,0 c 1.104569,0 2,0.8954 2,2 0,1.1046 -0.895431,2 -2,2 -1.104569,0 -2,-0.8954 -2,-2 0,-1.1046 0.895431,-2 2,-2 z"/><path id="path4201" fill="#a00" fill-opacity=".314" stroke="none" d="m 8.5801665,1027.9599 c 0.213388,8.3197 7.0096275,15.0019 15.3808585,15.0019 2.989329,0 5.770729,-0.8657 8.132813,-2.3398 4.01224,1.2821 6.86432,0.5418 7.337891,-1.0313 0.04232,0.1386 0.07463,0.2707 0.07422,0.4024 -0.08478,1.8387 -3.074109,2.8158 -7.41211,1.4296 -2.362084,1.4741 -5.143484,2.3399 -8.132813,2.3399 -8.50577,0 -15.4003895,-6.8967 -15.4003895,-15.4024 0,-0.1352 0.01607,-0.266 0.01953,-0.4003 z m 30.7675775,0.1035 c 0.0019,0.1 0.01563,0.1966 0.01563,0.2968 0,2.3194 -0.539424,4.5047 -1.458984,6.4766 -0.04642,-0.1605 -0.0919,-0.3 -0.138672,-0.4746 0.943613,-1.9114 1.507714,-4.0415 1.582031,-6.2988 z"/><path id="path4211" fill="#fff" fill-opacity=".235" stroke="none" d="m 23.961025,1012.9622 c 8.505769,0 15.402344,6.8925 15.402344,15.3984 0,0.085 -0.0064,0.1677 -0.0078,0.252 -0.08062,-8.4367 -6.938893,-15.25 -15.394531,-15.25 -8.4385,0 -15.2827455,6.7862 -15.3906245,15.1992 -8.75e-4,-0.068 -0.0098,-0.1333 -0.0098,-0.2012 3.2e-5,-8.5059 6.8946515,-15.3984 15.4004215,-15.3984 z m 13.875,22.4375 c 0.867042,3.1133 1.672334,3.8171 1.669923,4.5937 -0.0029,0.063 -0.01765,0.1226 -0.02734,0.1836 -0.131306,-0.7298 -0.899972,-1.5813 -1.712891,-4.6152 0.02599,-0.053 0.04489,-0.1091 0.07031,-0.1621 z"/></g></svg>