<svg xmlns="http://www.w3.org/2000/svg" xmlns:svg="http://www.w3.org/2000/svg" xmlns:xlink="http://www.w3.org/1999/xlink" id="svg5453" width="48" height="48" version="1.1"><defs id="defs5455"><style id="style2464" type="text/css"/><style id="style2464-7" type="text/css"/><linearGradient id="linearGradient872"><stop id="stop874" offset="0" stop-color="#e3ebed" stop-opacity=".996"/><stop id="stop876" offset="1" stop-color="#f4f8f9" stop-opacity=".997"/></linearGradient><linearGradient id="linearGradient843-4" x1="-35.844" x2="-35.844" y1="-1057.985" y2="-1009.976" gradientTransform="translate(441.45187,510.17939)" gradientUnits="userSpaceOnUse" xlink:href="#linearGradient872"/><linearGradient id="linearGradient4089"><stop id="stop4091" offset="0" stop-color="#16597c" stop-opacity="1"/><stop id="stop4093" offset="1" stop-color="#3ab4f5" stop-opacity="1"/></linearGradient><linearGradient id="linearGradient4517" x1="408.571" x2="408.571" y1="532.798" y2="515.798" gradientUnits="userSpaceOnUse" xlink:href="#linearGradient4089"/></defs><metadata id="metadata5458"/><g id="layer1" transform="translate(-384.57143,-499.798)"><rect id="rect2991-1-7-3" width="48" height="48" x="384.571" y="-547.798" fill="url(#linearGradient843-4)" fill-opacity="1" stroke="none" ry="1.945" transform="scale(1,-1)"/><path id="path4600" fill="#000" fill-opacity=".059" fill-rule="nonzero" stroke="none" stroke-dasharray="none" stroke-dashoffset="0" stroke-linecap="butt" stroke-linejoin="miter" stroke-miterlimit="4" stroke-opacity="1" stroke-width="1" d="m 406.62044,516.67435 a 4.8911771,4.8911771 0 0 0 -4.45955,3.61453 c -4.24236,0.88957 -7.48166,3.2588 -8.98945,6.31633 8.9e-4,0.002 0.002,0.004 0.003,0.005 -8.9e-4,0.002 -0.002,0.004 -0.003,0.005 1.94166,3.93733 6.74685,6.74496 12.88015,6.70279 0.0296,1.3e-4 0.0581,0.003 0.0877,0.003 3.5742,0 7.66338,-1.58825 11.12239,-3.86292 1.25174,-0.009 2.60796,0.50399 4.24678,1.94014 1.16793,1.02351 1.94509,0.42074 2.46296,-0.9388 -0.72329,-1.29982 -1.79146,-2.61308 -3.08999,-3.84989 1.29835,-1.2367 2.36678,-2.54848 3.08999,-3.84816 -0.51787,-1.35954 -1.29503,-1.96231 -2.46296,-0.93881 -1.63882,1.43616 -2.99504,1.94928 -4.24678,1.94015 -3.23764,-2.12912 -7.02745,-3.65611 -10.43023,-3.84295 a 4.8911771,4.8911771 0 0 1 -0.39862,-1.92016 4.8911771,4.8911771 0 0 1 0.18759,-1.32528 z" clip-rule="nonzero" color="#000" color-interpolation="sRGB" color-interpolation-filters="linearRGB" color-rendering="auto" display="inline" enable-background="accumulate" image-rendering="auto" opacity="1" overflow="visible" shape-rendering="auto" text-decoration="none" text-rendering="auto" visibility="visible" style="text-decoration-line:none;text-decoration-style:solid;text-decoration-color:#000;white-space:normal;isolation:auto;mix-blend-mode:normal;solid-color:#000;solid-opacity:1"/><path color="#000" style="text-decoration-line:none;text-decoration-style:solid;text-decoration-color:#000;white-space:normal;isolation:auto;mix-blend-mode:normal;solid-color:#000;solid-opacity:1" id="path4598" fill="#000" fill-opacity=".118" fill-rule="nonzero" stroke="none" stroke-dasharray="none" stroke-dashoffset="0" stroke-linecap="butt" stroke-linejoin="miter" stroke-miterlimit="4" stroke-opacity="1" stroke-width="1" d="m 406.62044,516.27435 a 4.8911771,4.8911771 0 0 0 -4.45955,3.61453 c -4.24236,0.88957 -7.48166,3.2588 -8.98945,6.31633 8.9e-4,0.002 0.002,0.004 0.003,0.005 -8.9e-4,0.002 -0.002,0.004 -0.003,0.005 1.94166,3.93733 6.74685,6.74496 12.88015,6.70279 0.0296,1.3e-4 0.0581,0.003 0.0877,0.003 3.5742,0 7.66338,-1.58825 11.12239,-3.86292 1.25174,-0.009 2.60796,0.50399 4.24678,1.94014 1.16793,1.02351 1.94509,0.42074 2.46296,-0.9388 -0.72329,-1.29982 -1.79146,-2.61308 -3.08999,-3.84989 1.29835,-1.2367 2.36678,-2.54848 3.08999,-3.84816 -0.51787,-1.35954 -1.29503,-1.96231 -2.46296,-0.93881 -1.63882,1.43616 -2.99504,1.94928 -4.24678,1.94015 -3.23764,-2.12912 -7.02745,-3.65611 -10.43023,-3.84295 a 4.8911771,4.8911771 0 0 1 -0.39862,-1.92016 4.8911771,4.8911771 0 0 1 0.18759,-1.32528 z" clip-rule="nonzero" color-interpolation="sRGB" color-interpolation-filters="linearRGB" color-rendering="auto" display="inline" enable-background="accumulate" image-rendering="auto" opacity="1" overflow="visible" shape-rendering="auto" text-decoration="none" text-rendering="auto" visibility="visible"/><path id="path4594" fill="#000" fill-opacity=".235" fill-rule="nonzero" stroke="none" stroke-dasharray="none" stroke-dashoffset="0" stroke-linecap="butt" stroke-linejoin="miter" stroke-miterlimit="4" stroke-opacity="1" stroke-width="1" d="m 406.62044,515.87435 a 4.8911771,4.8911771 0 0 0 -4.45955,3.61453 c -4.24236,0.88957 -7.48166,3.2588 -8.98945,6.31633 8.9e-4,0.002 0.002,0.004 0.003,0.005 -8.9e-4,0.002 -0.002,0.004 -0.003,0.005 1.94166,3.93733 6.74685,6.74496 12.88015,6.70279 0.0296,1.3e-4 0.0581,0.003 0.0877,0.003 3.5742,0 7.66338,-1.58825 11.12239,-3.86292 1.25174,-0.009 2.60796,0.50399 4.24678,1.94014 1.16793,1.02351 1.94509,0.42074 2.46296,-0.9388 -0.72329,-1.29982 -1.79146,-2.61308 -3.08999,-3.84989 1.29835,-1.2367 2.36678,-2.54848 3.08999,-3.84816 -0.51787,-1.35954 -1.29503,-1.96231 -2.46296,-0.93881 -1.63882,1.43616 -2.99504,1.94928 -4.24678,1.94015 -3.23764,-2.12912 -7.02745,-3.65611 -10.43023,-3.84295 a 4.8911771,4.8911771 0 0 1 -0.39862,-1.92016 4.8911771,4.8911771 0 0 1 0.18759,-1.32528 z" clip-rule="nonzero" color="#000" color-interpolation="sRGB" color-interpolation-filters="linearRGB" color-rendering="auto" display="inline" enable-background="accumulate" image-rendering="auto" opacity="1" overflow="visible" shape-rendering="auto" text-decoration="none" text-rendering="auto" visibility="visible" style="text-decoration-line:none;text-decoration-style:solid;text-decoration-color:#000;white-space:normal;isolation:auto;mix-blend-mode:normal;solid-color:#000;solid-opacity:1"/><path id="rect846-4" fill="#000" fill-opacity="1" stroke="none" d="m 384.57143,544.79801 0,1.0625 c 0,1.0773 0.86022,1.9375 1.9375,1.9375 l 44.125,0 c 1.07727,0 1.9375,-0.8602 1.9375,-1.9375 l 0,-1.0625 c 0,1.0773 -0.86023,1.9375 -1.9375,1.9375 l -44.125,0 c -1.07728,0 -1.9375,-0.8602 -1.9375,-1.9375 z"/><path id="path7515-2" fill="#fff" fill-opacity=".537" stroke="none" d="m 387.10268,500.45431 c -0.91709,0 -1.67115,0.6395 -1.84375,1.5 0.33561,-0.2799 0.77451,-0.4375 1.25,-0.4375 l 44.125,0 c 0.47549,0 0.91439,0.1576 1.25,0.4375 -0.1726,-0.8605 -0.92666,-1.5 -1.84375,-1.5 l -42.9375,0 z"/><path id="rect4280-2" fill="#000" fill-opacity=".392" stroke="none" d="m 386.50893,499.79801 c -1.07728,0 -1.9375,0.8602 -1.9375,1.9375 l 0,43.0625 c 0,0.7934 0.48002,1.449 1.15625,1.75 -0.30934,-0.3333 -0.5,-0.7824 -0.5,-1.2812 l 0,-42.9375 c 0,-1.0482 0.8269,-1.875 1.875,-1.875 l 42.9375,0 c 1.0481,0 1.875,0.8268 1.875,1.875 l 0,42.9375 c 0,0.4988 -0.19066,0.9479 -0.5,1.2812 0.67622,-0.301 1.15625,-0.9566 1.15625,-1.75 l 0,-43.0625 c 0,-1.0773 -0.86023,-1.9375 -1.9375,-1.9375 l -44.125,0 z"/><path color="#000" style="text-decoration-line:none;text-decoration-style:solid;text-decoration-color:#000;white-space:normal;isolation:auto;mix-blend-mode:normal;solid-color:#000;solid-opacity:1" id="path4434" fill="url(#linearGradient4517)" fill-opacity="1" fill-rule="nonzero" stroke="none" stroke-dasharray="none" stroke-dashoffset="0" stroke-linecap="butt" stroke-linejoin="miter" stroke-miterlimit="4" stroke-opacity="1" stroke-width="1" d="m 406.62044,515.47469 a 4.8911771,4.8911771 0 0 0 -4.45955,3.61453 c -4.24236,0.88957 -7.48166,3.2588 -8.98945,6.31633 8.9e-4,0.002 0.002,0.004 0.003,0.005 -8.9e-4,0.002 -0.002,0.004 -0.003,0.005 1.94166,3.93733 6.74685,6.74496 12.88015,6.70279 0.0296,1.3e-4 0.0581,0.003 0.0877,0.003 3.5742,0 7.66338,-1.58825 11.12239,-3.86292 1.25174,-0.009 2.60796,0.50399 4.24678,1.94014 1.16793,1.02351 1.94509,0.42074 2.46296,-0.9388 -0.72329,-1.29982 -1.79146,-2.61308 -3.08999,-3.84989 1.29835,-1.2367 2.36678,-2.54848 3.08999,-3.84816 -0.51787,-1.35954 -1.29503,-1.96231 -2.46296,-0.93881 -1.63882,1.43616 -2.99504,1.94928 -4.24678,1.94015 -3.23764,-2.12912 -7.02745,-3.65611 -10.43023,-3.84295 a 4.8911771,4.8911771 0 0 1 -0.39862,-1.92016 4.8911771,4.8911771 0 0 1 0.18759,-1.32528 z" clip-rule="nonzero" color-interpolation="sRGB" color-interpolation-filters="linearRGB" color-rendering="auto" display="inline" enable-background="accumulate" image-rendering="auto" opacity="1" overflow="visible" shape-rendering="auto" text-decoration="none" text-rendering="auto" visibility="visible"/><path color="#000" style="text-decoration-line:none;text-decoration-style:solid;text-decoration-color:#000;white-space:normal;isolation:auto;mix-blend-mode:normal;solid-color:#000;solid-opacity:1" id="path4602" fill="#154a66" fill-opacity=".314" fill-rule="nonzero" stroke="none" stroke-dasharray="none" stroke-dashoffset="0" stroke-linecap="butt" stroke-linejoin="miter" stroke-miterlimit="4" stroke-opacity="1" stroke-width="1" d="M 22.048828 15.675781 A 4.8911771 4.8911771 0 0 0 21.890625 15.691406 A 4.8911771 4.8911771 0 0 0 21.861328 16.201172 A 4.8911771 4.8911771 0 0 0 21.882812 16.595703 A 4.8911771 4.8911771 0 0 1 22.048828 15.675781 z M 39.195312 21.294922 C 38.480624 22.485551 37.498653 23.680809 36.310547 24.8125 C 36.448413 24.943813 36.572543 25.078009 36.705078 25.210938 C 37.820339 24.092466 38.754155 22.925022 39.400391 21.763672 C 39.336204 21.595166 39.267716 21.438521 39.195312 21.294922 z M 8.8222656 25.222656 C 8.7507902 25.352003 8.6646914 25.475447 8.5996094 25.607422 C 8.6004994 25.609422 8.6025156 25.612281 8.6035156 25.613281 C 8.6026256 25.615281 8.6006094 25.616188 8.5996094 25.617188 C 10.541269 29.554517 15.347169 32.362482 21.480469 32.320312 C 21.510069 32.320443 21.538759 32.324219 21.568359 32.324219 C 25.142559 32.324219 29.230443 30.735608 32.689453 28.460938 C 33.941193 28.451937 35.29868 28.964241 36.9375 30.400391 C 38.10543 31.423901 38.882521 30.820478 39.400391 29.460938 C 39.339149 29.35088 39.26143 29.241055 39.195312 29.130859 C 38.683551 30.145849 37.960673 30.496262 36.9375 29.599609 C 35.29868 28.163459 33.941193 27.651156 32.689453 27.660156 C 29.230443 29.934826 25.142559 31.523438 21.568359 31.523438 C 21.538759 31.523438 21.510069 31.519661 21.480469 31.519531 C 15.56192 31.560225 10.88763 28.943749 8.8222656 25.222656 z" clip-rule="nonzero" color-interpolation="sRGB" color-interpolation-filters="linearRGB" color-rendering="auto" display="inline" enable-background="accumulate" image-rendering="auto" opacity="1" overflow="visible" shape-rendering="auto" text-decoration="none" text-rendering="auto" transform="translate(384.57143,499.798)" visibility="visible"/><path color="#000" style="text-decoration-line:none;text-decoration-style:solid;text-decoration-color:#000;white-space:normal;isolation:auto;mix-blend-mode:normal;solid-color:#000;solid-opacity:1" id="path4607" fill="#fff" fill-opacity=".235" fill-rule="nonzero" stroke="none" stroke-dasharray="none" stroke-dashoffset="0" stroke-linecap="butt" stroke-linejoin="miter" stroke-miterlimit="4" stroke-opacity="1" stroke-width="1" d="M 22.048828 15.675781 A 4.8911771 4.8911771 0 0 0 17.589844 19.291016 C 13.347484 20.180586 10.107399 22.549892 8.5996094 25.607422 C 8.6004994 25.609422 8.6025156 25.612281 8.6035156 25.613281 C 8.6026256 25.615281 8.6006094 25.616188 8.5996094 25.617188 C 8.6332127 25.685329 8.6736736 25.750904 8.7089844 25.818359 C 10.256421 22.854742 13.437594 20.562081 17.589844 19.691406 A 4.8911771 4.8911771 0 0 1 21.955078 16.085938 A 4.8911771 4.8911771 0 0 1 22.048828 15.675781 z M 21.871094 17.203125 A 4.8911771 4.8911771 0 0 0 21.861328 17.402344 A 4.8911771 4.8911771 0 0 0 22.259766 19.322266 C 25.662546 19.509106 29.451813 21.034943 32.689453 23.164062 C 33.941193 23.173193 35.29868 22.660769 36.9375 21.224609 C 38.032941 20.264635 38.780484 20.745781 39.296875 21.929688 C 39.328902 21.874327 39.369606 21.818996 39.400391 21.763672 C 38.882521 20.404132 38.10543 19.800719 36.9375 20.824219 C 35.29868 22.260379 33.941193 22.774755 32.689453 22.765625 C 29.451813 20.636505 25.662546 19.108715 22.259766 18.921875 A 4.8911771 4.8911771 0 0 1 21.871094 17.203125 z M 36.507812 25.8125 C 36.440202 25.878561 36.37947 25.946068 36.310547 26.011719 C 37.553802 27.195881 38.576461 28.449883 39.296875 29.695312 C 39.331047 29.616969 39.368248 29.54532 39.400391 29.460938 C 38.715647 28.230388 37.713588 26.99087 36.507812 25.8125 z" clip-rule="nonzero" color-interpolation="sRGB" color-interpolation-filters="linearRGB" color-rendering="auto" display="inline" enable-background="accumulate" image-rendering="auto" opacity="1" overflow="visible" shape-rendering="auto" text-decoration="none" text-rendering="auto" transform="translate(384.57143,499.798)" visibility="visible"/></g></svg>