<svg xmlns="http://www.w3.org/2000/svg" xmlns:svg="http://www.w3.org/2000/svg" xmlns:xlink="http://www.w3.org/1999/xlink" id="svg2" width="48" height="48" version="1.1"><defs id="defs4"><linearGradient id="linearGradient4090"><stop id="stop4092" offset="0" stop-color="#b9ddff" stop-opacity="1"/><stop id="stop4094" offset="1" stop-color="#f5fcff" stop-opacity="1"/></linearGradient><linearGradient id="linearGradient908"><stop id="stop910" offset="0" stop-color="#0062bf" stop-opacity="1"/><stop id="stop912" offset="1" stop-color="#0095d4" stop-opacity="1"/></linearGradient><linearGradient id="linearGradient848" x1="-25.668" x2="-25.668" y1="-1036.786" y2="-988.807" gradientTransform="translate(50.007065,-15.575966)" gradientUnits="userSpaceOnUse" xlink:href="#linearGradient908"/><linearGradient id="linearGradient4119" x1="-7.472" x2="-7.472" y1="1046.651" y2="1015.856" gradientTransform="translate(31.649073,-2.8941)" gradientUnits="userSpaceOnUse" xlink:href="#linearGradient4090"/></defs><metadata id="metadata7"/><g id="layer1" transform="translate(0,-1004.3622)"><rect id="rect2991-1-8" width="48" height="48" x="0" y="-1052.362" fill="url(#linearGradient848)" fill-opacity="1" stroke="none" ry="1.945" transform="scale(1,-1)"/><path id="rect846" fill="#000" fill-opacity="1" stroke="none" d="m -5.9033203e-7,1049.3622 0,1.0625 c 0,1.0773 0.86022300033203,1.9375 1.93749999033203,1.9375 l 44.1249996,0 c 1.077277,0 1.9375,-0.8602 1.9375,-1.9375 l 0,-1.0625 c 0,1.0773 -0.860223,1.9375 -1.9375,1.9375 l -44.1249996,0 C 0.86022241,1051.2997 -5.9033203e-7,1050.4395 -5.9033203e-7,1049.3622 Z"/><path id="path7515" fill="#fff" fill-opacity=".537" stroke="none" d="m 2.5312494,1005.0185 c -0.917089,0 -1.67114699,0.6395 -1.84374999,1.5 0.33561199,-0.2799 0.77451199,-0.4375 1.24999999,-0.4375 l 44.1249996,0 c 0.475488,0 0.914388,0.1576 1.25,0.4375 -0.172603,-0.8605 -0.926662,-1.5 -1.84375,-1.5 L 2.5312494,1005.0185 Z"/><path id="rect4280" fill="#000" fill-opacity=".392" stroke="none" d="m 1.9374994,1004.3622 c -1.07727699,0 -1.93749999033203,0.8602 -1.93749999033203,1.9375 l 0,43.0625 c 0,0.7934 0.48002400033203,1.449 1.15624999033203,1.75 -0.30934199,-0.3333 -0.49999999,-0.7824 -0.49999999,-1.2812 l 0,-42.9375 c 0,-1.0482 0.82689899,-1.875 1.87499999,-1.875 l 42.9374996,0 c 1.048101,0 1.875,0.8268 1.875,1.875 l 0,42.9375 c 0,0.4988 -0.190658,0.9479 -0.5,1.2812 0.676226,-0.301 1.15625,-0.9566 1.15625,-1.75 l 0,-43.0625 c 0,-1.0773 -0.860223,-1.9375 -1.9375,-1.9375 L 1.9374994,1004.3622 Z"/><path id="path4127" fill="#000" fill-opacity=".059" fill-rule="evenodd" stroke="none" d="m 8.5999795,1014.1622 c 3.7828145,3.9843 2.1413015,6.5332 4.2168465,11.2259 1.926104,4.3549 6.118861,1.0952 8.989281,4.1741 -2.870407,3.0789 -7.077444,-0.195 -9.003535,4.1599 -2.075533,4.6927 -0.41979,7.2558 -4.2025926,11.2401 3.9843316,-3.7828 6.5474026,-2.1271 11.2401606,-4.2026 4.354885,-1.9261 1.095226,-6.1189 4.174121,-8.9893 3.056959,2.8708 -0.189727,7.0798 4.159854,9.0036 4.693791,2.076 7.240703,0.4047 11.225906,4.1883 -3.783636,-3.9852 -2.112358,-6.5321 -4.18835,-11.2259 -1.923751,-4.3495 -6.118537,-1.1171 -8.98928,-4.1741 2.870743,-3.057 7.065529,0.1755 8.98928,-4.1741 2.076005,-4.6938 0.404701,-7.2407 4.18835,-11.2259 -3.985215,3.7836 -6.532127,2.1123 -11.225906,4.1883 -4.349581,1.9238 -1.102895,6.1328 -4.159854,9.0036 -3.078883,-2.8704 0.180764,-7.0632 -4.174121,-8.9893 -4.692758,-2.0755 -7.255829,-0.4198 -11.2401606,-4.2026 z"/><path id="path4125" fill="#000" fill-opacity=".118" fill-rule="evenodd" stroke="none" d="m 8.5999795,1013.7622 c 3.7828145,3.9843 2.1413015,6.5332 4.2168465,11.2259 1.926104,4.3549 6.118861,1.0952 8.989281,4.1741 -2.870407,3.0789 -7.077444,-0.195 -9.003535,4.1599 -2.075533,4.6927 -0.41979,7.2558 -4.2025926,11.2401 3.9843316,-3.7828 6.5474026,-2.1271 11.2401606,-4.2026 4.354885,-1.9261 1.095226,-6.1189 4.174121,-8.9893 3.056959,2.8708 -0.189727,7.0798 4.159854,9.0036 4.693791,2.076 7.240703,0.4047 11.225906,4.1883 -3.783636,-3.9852 -2.112358,-6.5321 -4.18835,-11.2259 -1.923751,-4.3495 -6.118537,-1.1171 -8.98928,-4.1741 2.870743,-3.057 7.065529,0.1755 8.98928,-4.1741 2.076005,-4.6938 0.404701,-7.2407 4.18835,-11.2259 -3.985215,3.7836 -6.532127,2.1123 -11.225906,4.1883 -4.349581,1.9238 -1.102895,6.1328 -4.159854,9.0036 -3.078883,-2.8704 0.180764,-7.0632 -4.174121,-8.9893 -4.692758,-2.0755 -7.255829,-0.4198 -11.2401606,-4.2026 z"/><path id="path4121" fill="#000" fill-opacity=".235" fill-rule="evenodd" stroke="none" d="m 8.5999795,1013.3622 c 3.7828145,3.9843 2.1413015,6.5332 4.2168465,11.2259 1.926104,4.3549 6.118861,1.0952 8.989281,4.1741 -2.870407,3.0789 -7.077444,-0.195 -9.003535,4.1599 -2.075533,4.6927 -0.41979,7.2558 -4.2025926,11.2401 3.9843316,-3.7828 6.5474026,-2.1271 11.2401606,-4.2026 4.354885,-1.9261 1.095226,-6.1189 4.174121,-8.9893 3.056959,2.8708 -0.189727,7.0798 4.159854,9.0036 4.693791,2.076 7.240703,0.4047 11.225906,4.1883 -3.783636,-3.9852 -2.112358,-6.5321 -4.18835,-11.2259 -1.923751,-4.3495 -6.118537,-1.1171 -8.98928,-4.1741 2.870743,-3.057 7.065529,0.1755 8.98928,-4.1741 2.076005,-4.6938 0.404701,-7.2407 4.18835,-11.2259 -3.985215,3.7836 -6.532127,2.1123 -11.225906,4.1883 -4.349581,1.9238 -1.102895,6.1328 -4.159854,9.0036 -3.078883,-2.8704 0.180764,-7.0632 -4.174121,-8.9893 -4.692758,-2.0755 -7.255829,-0.4198 -11.2401606,-4.2026 z"/><path id="path7057" fill="url(#linearGradient4119)" fill-opacity="1" fill-rule="evenodd" stroke="none" d="m 8.5999795,1012.9622 c 3.7828145,3.9843 2.1413015,6.5332 4.2168465,11.2259 1.926104,4.3549 6.118861,1.0952 8.989281,4.1741 -2.870407,3.0789 -7.077444,-0.195 -9.003535,4.1599 -2.075533,4.6927 -0.41979,7.2558 -4.2025926,11.2401 3.9843316,-3.7828 6.5474026,-2.1271 11.2401606,-4.2026 4.354885,-1.9261 1.095226,-6.1189 4.174121,-8.9893 3.056959,2.8708 -0.189727,7.0798 4.159854,9.0036 4.693791,2.076 7.240703,0.4047 11.225906,4.1883 -3.783636,-3.9852 -2.112358,-6.5321 -4.18835,-11.2259 -1.923751,-4.3495 -6.118537,-1.1171 -8.98928,-4.1741 2.870743,-3.057 7.065529,0.1755 8.98928,-4.1741 2.076005,-4.6938 0.404701,-7.2407 4.18835,-11.2259 -3.985215,3.7836 -6.532127,2.1123 -11.225906,4.1883 -4.349581,1.9238 -1.102895,6.1328 -4.159854,9.0036 -3.078883,-2.8704 0.180764,-7.0632 -4.174121,-8.9893 -4.692758,-2.0755 -7.255829,-0.4198 -11.2401606,-4.2026 z"/><path id="path4129" fill="#0064c0" fill-opacity=".235" fill-rule="evenodd" stroke="none" d="M 8.5996094 8.5996094 C 12.382424 12.583909 10.740861 15.133472 12.816406 19.826172 C 14.647227 23.965637 18.524709 21.236675 21.369141 23.599609 C 21.516972 23.476866 21.664893 23.351262 21.806641 23.199219 C 18.936221 20.120319 14.74251 23.380291 12.816406 19.025391 C 11.124538 15.200164 11.902668 12.799658 10.199219 9.8847656 C 9.6872512 9.5431521 9.1575691 9.1293469 8.5996094 8.5996094 z M 39.400391 8.5996094 C 38.843573 9.1282575 38.317081 9.5420447 37.806641 9.8828125 C 36.108269 12.798779 36.90363 15.198252 35.210938 19.025391 C 33.287186 23.374991 29.093399 20.142219 26.222656 23.199219 C 26.365267 23.351082 26.513405 23.477088 26.662109 23.599609 C 29.506754 21.256933 33.382921 23.959316 35.210938 19.826172 C 37.286943 15.132372 35.616742 12.584809 39.400391 8.5996094 z M 24.013672 25.408203 C 20.934777 28.278603 24.194729 32.470384 19.839844 34.396484 C 15.802672 36.182033 13.341018 35.215364 10.195312 37.316406 C 9.809953 37.977527 9.2980785 38.664716 8.5996094 39.400391 C 12.583941 35.617591 15.147086 37.272766 19.839844 35.197266 C 24.194729 33.271166 20.934777 29.079384 24.013672 26.208984 C 27.070631 29.079784 23.824247 33.287137 28.173828 35.210938 C 32.867619 37.286938 35.415188 35.616791 39.400391 39.400391 C 38.700506 38.663221 38.18952 37.975887 37.804688 37.314453 C 34.662954 35.218314 32.210816 36.197614 28.173828 34.412109 C 23.824247 32.488309 27.070631 28.279003 24.013672 25.408203 z" transform="translate(0,1004.3622)"/><path id="path4134" fill="#fff" fill-opacity=".235" fill-rule="evenodd" stroke="none" d="M 8.5996094 8.5996094 C 9.0373361 9.0606509 9.3945434 9.5015399 9.7011719 9.9296875 C 13.089504 12.488774 15.594629 11.325563 19.839844 13.203125 C 24.194729 15.129225 20.934789 19.321006 24.013672 22.191406 C 27.070631 19.320606 23.824247 15.1113 28.173828 13.1875 C 32.418782 11.31001 34.911848 12.486087 38.296875 9.9316406 C 38.60319 9.5027848 38.961833 9.0615289 39.400391 8.5996094 C 35.415176 12.383209 32.867607 10.713062 28.173828 12.789062 C 23.824247 14.712863 27.070631 18.920216 24.013672 21.791016 C 20.934789 18.920616 24.194729 14.728834 19.839844 12.802734 C 15.147086 10.727234 12.583941 12.382409 8.5996094 8.5996094 z M 21.587891 24.199219 C 18.726126 26.904605 14.68129 23.912734 12.802734 28.160156 C 10.727201 32.852856 12.382412 35.416091 8.5996094 39.400391 C 8.9788186 39.040362 9.3426966 38.742063 9.6992188 38.472656 C 12.042864 35.196623 10.966774 32.711583 12.802734 28.560547 C 14.728825 24.205647 18.936234 27.479291 21.806641 24.400391 C 21.735484 24.324065 21.660618 24.267966 21.587891 24.199219 z M 26.443359 24.199219 C 26.37013 24.267885 26.294292 24.324107 26.222656 24.400391 C 29.093399 27.457391 33.287186 24.224719 35.210938 28.574219 C 37.04713 32.725835 35.958277 35.199375 38.298828 38.472656 C 38.655748 38.742199 39.020429 39.03965 39.400391 39.400391 C 35.616755 35.415191 37.28693 32.867628 35.210938 28.173828 C 33.335065 23.932578 29.304749 26.883247 26.443359 24.199219 z" transform="translate(0,1004.3622)"/></g></svg>