<svg xmlns="http://www.w3.org/2000/svg" xmlns:svg="http://www.w3.org/2000/svg" xmlns:xlink="http://www.w3.org/1999/xlink" id="svg5453" width="48" height="48" version="1.1" viewBox="0 0 48 48"><defs id="defs5455"><linearGradient id="linearGradient4745"><stop id="stop4747" offset="0" stop-color="#e6e6e6" stop-opacity="1"/><stop id="stop4749" offset="1" stop-color="#f9f9f9" stop-opacity="1"/></linearGradient><linearGradient id="linearGradient4688"><stop id="stop4690" offset="0" stop-color="#fbb616" stop-opacity="1"/><stop id="stop4692" offset="1" stop-color="#df6a25" stop-opacity="1"/></linearGradient><linearGradient id="linearGradient4675"><stop id="stop4677" offset="0" stop-color="#83bd4d" stop-opacity="1"/><stop id="stop4679" offset="1" stop-color="#b4d689" stop-opacity="1"/></linearGradient><linearGradient id="linearGradient4649"><stop id="stop4651" offset="0" stop-color="#0271b4" stop-opacity="1"/><stop id="stop4653" offset="1" stop-color="#52c2ed" stop-opacity="1"/></linearGradient><linearGradient id="linearGradient4655" x1="417.715" x2="417.715" y1="-547.805" y2="-499.791" gradientUnits="userSpaceOnUse" xlink:href="#linearGradient4649"/><linearGradient id="linearGradient4672" x1="404.752" x2="404.752" y1="-548.168" y2="-515.701" gradientTransform="matrix(1,0,0,-1,-384.57143,-499.798)" gradientUnits="userSpaceOnUse" xlink:href="#linearGradient4675"/><linearGradient id="linearGradient4685" x1="417.715" x2="417.715" y1="-545.153" y2="-499.791" gradientTransform="matrix(1,0,0,-1,-384.57143,-499.798)" gradientUnits="userSpaceOnUse" xlink:href="#linearGradient4688"/><linearGradient id="linearGradient4751" x1="10.058" x2="10.058" y1="14.002" y2="1.973" gradientUnits="userSpaceOnUse" xlink:href="#linearGradient4745"/></defs><metadata id="metadata5458"/><g id="layer1" transform="translate(-384.57143,-499.798)"><rect id="rect2991-1-7" width="48" height="48" x="384.571" y="-547.798" fill="url(#linearGradient4655)" fill-opacity="1" stroke="none" ry="1.945" transform="scale(1,-1)"/><path id="rect4668" fill="url(#linearGradient4672)" fill-opacity="1" stroke="none" d="M 0 15.826172 L 0 46.054688 C 0 47.131965 0.86803535 48 1.9453125 48 L 32.173828 48 L 0 15.826172 z" transform="translate(384.57143,499.798)"/><g id="g4737" fill="#000" fill-opacity=".059" transform="matrix(2.5666667,0,0,2.5666667,388.0381,504.46467)"><path id="path4743" fill="#000" fill-opacity=".059" stroke="none" d="M 2,2 2,14 14,14 14,2 2,2 Z m 1.33333,1.33333 9.33334,0 0,8.00001 -1.449225,0 L 9.29296,8 8.613275,9.17707 6.60026,5.690195 3.342445,11.33334 l -0.0091,0 -1.5e-5,-8.00001 z m 7.33333,0.666665 c -0.73638,0 -1.33333,0.596935 -1.33333,1.333345 0,0.736395 0.59695,1.33333 1.33333,1.33333 0.73638,0 1.333345,-0.596935 1.333345,-1.33333 0,-0.73641 -0.596965,-1.333345 -1.333345,-1.333345 z"/></g><g id="g4729" fill="#000" fill-opacity=".118" transform="matrix(2.5666667,0,0,2.5666667,388.0381,504.06467)"><path id="path4735" fill="#000" fill-opacity=".118" stroke="none" d="M 2,2 2,14 14,14 14,2 2,2 Z m 1.33333,1.33333 9.33334,0 0,8.00001 -1.449225,0 L 9.29296,8 8.613275,9.17707 6.60026,5.690195 3.342445,11.33334 l -0.0091,0 -1.5e-5,-8.00001 z m 7.33333,0.666665 c -0.73638,0 -1.33333,0.596935 -1.33333,1.333345 0,0.736395 0.59695,1.33333 1.33333,1.33333 0.73638,0 1.333345,-0.596935 1.333345,-1.33333 0,-0.73641 -0.596965,-1.333345 -1.333345,-1.333345 z"/></g><g id="g4721" fill="#000" fill-opacity=".235" transform="matrix(2.5666667,0,0,2.5666667,388.0381,503.66467)"><path id="path4727" fill="#000" fill-opacity=".235" stroke="none" d="M 2,2 2,14 14,14 14,2 2,2 Z m 1.33333,1.33333 9.33334,0 0,8.00001 -1.449225,0 L 9.29296,8 8.613275,9.17707 6.60026,5.690195 3.342445,11.33334 l -0.0091,0 -1.5e-5,-8.00001 z m 7.33333,0.666665 c -0.73638,0 -1.33333,0.596935 -1.33333,1.333345 0,0.736395 0.59695,1.33333 1.33333,1.33333 0.73638,0 1.333345,-0.596935 1.333345,-1.33333 0,-0.73641 -0.596965,-1.333345 -1.333345,-1.333345 z"/></g><path id="path4703" fill="#000" fill-opacity=".118" stroke="none" d="M 0 15.826172 L 0 17.5 L 30.5 48 L 32.173828 48 L 0 15.826172 z" transform="translate(384.57143,499.798)"/><path id="rect4681" fill="url(#linearGradient4685)" fill-opacity="1" stroke="none" d="M 21.779297 0 L 48 45.412109 L 48 1.9453125 C 48 0.86803535 47.131965 0 46.054688 0 L 21.779297 0 z" transform="translate(384.57143,499.798)"/><path id="path4696" fill="#fff" fill-opacity=".235" stroke="none" d="M 21.779297 0 L 48 45.412109 L 48 43.935547 L 22.634766 0 L 21.779297 0 z" transform="translate(384.57143,499.798)"/><g id="g4716" fill="url(#linearGradient4751)" fill-opacity="1" transform="matrix(2.5666667,0,0,2.5666667,388.0381,503.26467)"><path id="rect4144" fill="url(#linearGradient4751)" fill-opacity="1" stroke="none" d="M 2,2 2,14 14,14 14,2 2,2 Z m 1.33333,1.33333 9.33334,0 0,8.00001 -1.449225,0 L 9.29296,8 8.613275,9.17707 6.60026,5.690195 3.342445,11.33334 l -0.0091,0 -1.5e-5,-8.00001 z m 7.33333,0.666665 c -0.73638,0 -1.33333,0.596935 -1.33333,1.333345 0,0.736395 0.59695,1.33333 1.33333,1.33333 0.73638,0 1.333345,-0.596935 1.333345,-1.33333 0,-0.73641 -0.596965,-1.333345 -1.333345,-1.333345 z"/></g><path id="path4770" fill="#000" fill-opacity=".314" stroke="none" d="M 12.021484 11.222656 L 12.021484 12.021484 L 35.978516 12.021484 L 35.978516 11.222656 L 12.021484 11.222656 z M 27.462891 16.755859 C 27.447191 16.888851 27.421875 17.019036 27.421875 17.15625 C 27.421875 19.04633 28.95371 20.578125 30.84375 20.578125 C 32.73379 20.578125 34.267578 19.04633 34.267578 17.15625 C 34.267578 17.019036 34.242263 16.888851 34.226562 16.755859 C 34.025989 18.454791 32.596582 19.777344 30.84375 19.777344 C 29.090918 19.777344 27.663459 18.454791 27.462891 16.755859 z M 8.5996094 38.599609 L 8.5996094 39.400391 L 39.400391 39.400391 L 39.400391 38.599609 L 8.5996094 38.599609 z" transform="translate(384.57143,499.798)"/><path id="path4793" fill="#fff" fill-opacity=".235" stroke="none" d="M 8.5996094 8.5996094 L 8.5996094 9 L 39.400391 9 L 39.400391 8.5996094 L 8.5996094 8.5996094 z M 30.84375 13.732422 C 28.95371 13.732422 27.421875 15.26613 27.421875 17.15625 C 27.421875 17.224491 27.437467 17.288217 27.441406 17.355469 C 27.546573 15.559982 29.021949 14.132812 30.84375 14.132812 C 32.665551 14.132812 34.142877 15.559982 34.248047 17.355469 C 34.251986 17.288217 34.267578 17.224491 34.267578 17.15625 C 34.267578 15.26613 32.73379 13.732422 30.84375 13.732422 z M 20.408203 18.072266 L 12.044922 32.554688 L 12.021484 32.554688 L 12.021484 32.955078 L 12.044922 32.955078 L 20.408203 18.470703 L 25.574219 27.421875 L 27.318359 24.400391 L 32.257812 32.955078 L 35.978516 32.955078 L 35.978516 32.554688 L 32.257812 32.554688 L 27.318359 24 L 25.574219 27.021484 L 20.408203 18.072266 z" transform="translate(384.57143,499.798)"/><path id="path7515" fill="#fff" fill-opacity=".537" stroke="none" d="m 387.10268,500.45429 c -0.91709,0 -1.67115,0.6395 -1.84375,1.5 0.33561,-0.2799 0.77451,-0.4375 1.25,-0.4375 l 44.125,0 c 0.47549,0 0.91439,0.1576 1.25,0.4375 -0.1726,-0.8605 -0.92666,-1.5 -1.84375,-1.5 l -42.9375,0 z"/><path id="rect4280" fill="#000" fill-opacity=".392" stroke="none" d="m 386.50893,499.79799 c -1.07728,0 -1.9375,0.8602 -1.9375,1.9375 l 0,43.0625 c 0,0.7934 0.48002,1.449 1.15625,1.75 -0.30934,-0.3333 -0.5,-0.7824 -0.5,-1.2812 l 0,-42.9375 c 0,-1.0482 0.8269,-1.875 1.875,-1.875 l 42.9375,0 c 1.0481,0 1.875,0.8268 1.875,1.875 l 0,42.9375 c 0,0.4988 -0.19066,0.9479 -0.5,1.2812 0.67623,-0.301 1.15625,-0.9566 1.15625,-1.75 l 0,-43.0625 c 0,-1.0773 -0.86022,-1.9375 -1.9375,-1.9375 l -44.125,0 z"/><path id="rect846" fill="#000" fill-opacity="1" stroke="none" d="m 384.57143,544.79799 0,1.0625 c 0,1.0773 0.86022,1.9375 1.9375,1.9375 l 44.125,0 c 1.07728,0 1.9375,-0.8602 1.9375,-1.9375 l 0,-1.0625 c 0,1.0773 -0.86022,1.9375 -1.9375,1.9375 l -44.125,0 c -1.07728,0 -1.9375,-0.8602 -1.9375,-1.9375 z"/></g></svg>