<svg xmlns="http://www.w3.org/2000/svg" xmlns:svg="http://www.w3.org/2000/svg" xmlns:xlink="http://www.w3.org/1999/xlink" id="svg2" width="48" height="48" version="1.1"><defs id="defs4"><linearGradient id="linearGradient2491" x1="25.102" x2="25.102" y1="-1051.478" y2="-1004.633" gradientUnits="userSpaceOnUse" xlink:href="#linearGradient859"/><linearGradient id="linearGradient859"><stop id="stop861" offset="0" stop-color="#ffae00" stop-opacity="1"/><stop id="stop863" offset="1" stop-color="#fcdb00" stop-opacity="1"/></linearGradient></defs><metadata id="metadata7"/><g id="layer1" transform="translate(0,-1004.3622)"><rect id="rect2489" width="48" height="48" x="0" y="-1052.362" fill="url(#linearGradient2491)" fill-opacity="1" stroke="none" ry="1.945" transform="scale(1,-1)"/><path id="rect4280" fill="#000" fill-opacity=".392" stroke="none" d="m 1.9374998,1004.3622 c -1.07727685,0 -1.937499850286865,0.8602 -1.937499850286865,1.9375 l 0,43.0625 c 0,0.7934 0.480023600286865,1.449 1.156249850286865,1.75 -0.30934155,-0.3333 -0.49999985,-0.7824 -0.49999985,-1.2812 l 0,-42.9375 c 0,-1.0482 0.82689885,-1.875 1.87499985,-1.875 l 42.9375002,0 c 1.048101,0 1.875,0.8268 1.875,1.875 l 0,42.9375 c 0,0.4988 -0.190658,0.9479 -0.5,1.2812 0.676226,-0.301 1.15625,-0.9566 1.15625,-1.75 l 0,-43.0625 c 0,-1.0773 -0.860223,-1.9375 -1.9375,-1.9375 L 1.9374998,1004.3622 Z"/><path id="path7515" fill="#fff" fill-opacity=".537" stroke="none" d="m 2.5312498,1005.0185 c -0.9170884,0 -1.67114665,0.6395 -1.84374985,1.5 0.33561195,-0.2799 0.77451205,-0.4375 1.24999985,-0.4375 l 44.1250002,0 c 0.475488,0 0.914388,0.1576 1.25,0.4375 -0.172603,-0.8605 -0.926662,-1.5 -1.84375,-1.5 L 2.5312498,1005.0185 Z"/><path id="rect846" fill="#000" fill-opacity="1" stroke="none" d="m -5.0286866e-8,1049.3622 0,1.0625 c 0,1.0773 0.860222900286866,1.9375 1.937499850286866,1.9375 l 44.1250002,0 c 1.077277,0 1.9375,-0.8602 1.9375,-1.9375 l 0,-1.0625 c 0,1.0773 -0.860223,1.9375 -1.9375,1.9375 l -44.1250002,0 C 0.86022285,1051.2997 -5.0286866e-8,1050.4395 -5.0286866e-8,1049.3622 Z"/><g id="g4493" transform="matrix(1.2352942,0,0,1.2352942,-5.6417024,-244.25611)"><rect id="rect4435" width="7" height="7" x="15.496" y="1023.185" fill="#1a1a1a" fill-opacity="1" stroke="none" ry="3.5"/><rect id="rect4439" width="7" height="7" x="25.496" y="1023.185" fill="#1a1a1a" fill-opacity="1" stroke="none" ry="3.5"/><circle id="path4449" cx="19.58" cy="1025.355" r="1.338" fill="#fff" fill-opacity="1" stroke="none" d="m 20.917683,1025.3549 a 1.3380764,1.3380764 0 0 1 -1.338076,1.338 1.3380764,1.3380764 0 0 1 -1.338076,-1.338 1.3380764,1.3380764 0 0 1 1.338076,-1.3381 1.3380764,1.3380764 0 0 1 1.338076,1.3381 z"/><circle id="circle4451" cx="17.477" cy="1028.495" r=".475" fill="#fff" fill-opacity="1" stroke="none" d="m 17.95153,1028.4952 a 0.47461477,0.47461477 0 0 1 -0.474615,0.4747 0.47461477,0.47461477 0 0 1 -0.474614,-0.4747 0.47461477,0.47461477 0 0 1 0.474614,-0.4746 0.47461477,0.47461477 0 0 1 0.474615,0.4746 z"/><circle id="circle4453" cx="30.12" cy="1025.355" r="1.338" fill="#fff" fill-opacity="1" stroke="none" d="m 31.458447,1025.3549 a 1.3380764,1.3380764 0 0 1 -1.338076,1.338 1.3380764,1.3380764 0 0 1 -1.338076,-1.338 1.3380764,1.3380764 0 0 1 1.338076,-1.3381 1.3380764,1.3380764 0 0 1 1.338076,1.3381 z"/><circle id="circle4455" cx="28.018" cy="1028.495" r=".475" fill="#fff" fill-opacity="1" stroke="none" d="m 28.492294,1028.4952 a 0.47461477,0.47461477 0 0 1 -0.474615,0.4747 0.47461477,0.47461477 0 0 1 -0.474615,-0.4747 0.47461477,0.47461477 0 0 1 0.474615,-0.4746 0.47461477,0.47461477 0 0 1 0.474615,0.4746 z"/><g font-style="normal" style="line-height:125%;-inkscape-font-specification:'Alex Brush'" id="text4467" fill="#000" fill-opacity="1" stroke="none" font-family="Alex Brush" font-size="10" font-stretch="normal" font-variant="normal" font-weight="normal" letter-spacing="0" transform="matrix(0.5,0.8660254,-0.8660254,0.5,0,0)" word-spacing="0"><path id="path4472" d="m 909.45229,495.20571 c 1.17,-0.36 1.76,-0.83 1.79,-1.41 0.03,-0.61 -0.29,-0.91 -0.94,-0.91 -0.47,0 -1.07,0.15 -1.79,0.46 0.03,-0.04 0.06,-0.07 0.08,-0.08 0.04,-0.04 0.06,-0.08 0.06,-0.12 0,-0.04 -0.02,-0.06 -0.05,-0.07 -0.03,-0.01 -0.07,0 -0.11,0.04 -0.33,0.31 -0.57,0.49 -0.73,0.54 -0.13,0.03 -0.19,0.15 -0.19,0.34 0,0.09 0.02,0.13 0.07,0.13 0.02,0 0.04,-0.01 0.07,-0.03 0.31,-0.2 0.68,-0.38 1.11,-0.54 0.48,-0.18 0.89,-0.27 1.22,-0.27 0.38,0 0.57,0.14 0.57,0.43 0,0.04 0,0.08 -0.01,0.13 -0.08,0.47 -0.44,0.82 -1.08,1.07 -0.49,0.19 -1.03,0.29 -1.61,0.29 -0.17,0 -0.29,0.15 -0.29,0.3 0,0.11 0.06,0.17 0.18,0.17 0.05,0 0.12,-0.01 0.19,-0.04 0.26,-0.1 0.59,-0.15 0.98,-0.15 0.39,0 0.71,0.06 0.96,0.17 0.3,0.13 0.45,0.33 0.45,0.59 0,0.11 -0.02,0.22 -0.07,0.34 -0.33,0.82 -0.96,1.44 -1.89,1.87 -0.83,0.38 -1.64,0.5 -2.41,0.36 -0.79,-0.14 -1.19,-0.5 -1.19,-1.08 0,-0.11 0.02,-0.22 0.05,-0.34 0.07,-0.24 0.29,-0.47 0.66,-0.7 0.33,-0.2 0.61,-0.3 0.82,-0.3 0.09,0 0.14,-0.03 0.14,-0.1 0,-0.05 -0.04,-0.08 -0.12,-0.08 -0.31,0 -0.68,0.09 -1.09,0.26 -0.49,0.21 -0.82,0.46 -0.99,0.77 -0.13,0.24 -0.19,0.46 -0.19,0.66 0,0.39 0.22,0.69 0.65,0.9 0.4,0.2 0.93,0.3 1.58,0.3 1.01,0 1.95,-0.21 2.82,-0.64 0.98,-0.49 1.57,-1.13 1.77,-1.92 0.03,-0.1 0.04,-0.19 0.04,-0.28 0,-0.6 -0.5,-0.95 -1.51,-1.06 z"/></g></g></g></svg>