<svg xmlns="http://www.w3.org/2000/svg" xmlns:svg="http://www.w3.org/2000/svg" xmlns:xlink="http://www.w3.org/1999/xlink" id="svg5453" width="48" height="48" version="1.1"><defs id="defs5455"><linearGradient id="linearGradient4171"><stop id="stop4173" offset="0" stop-color="#dcdcdc" stop-opacity="1"/><stop id="stop4175" offset="1" stop-color="#fafafa" stop-opacity="1"/></linearGradient><linearGradient id="linearGradient867-9" x1="26.25" x2="26.25" y1="-1052.541" y2="-1004.684" gradientTransform="translate(384.5714,504.56415)" gradientUnits="userSpaceOnUse" xlink:href="#linearGradient1373-3"/><linearGradient id="linearGradient1373-3"><stop id="stop1375-8" offset="0" stop-color="#282827" stop-opacity="1"/><stop id="stop1377-0" offset="1" stop-color="#292929" stop-opacity="1"/></linearGradient><linearGradient id="linearGradient4218" x1="407.661" x2="407.661" y1="539.805" y2="510.591" gradientTransform="matrix(1.056236,0,0,1.056236,-402.4997,-530.75405)" gradientUnits="userSpaceOnUse" xlink:href="#linearGradient4171"/><linearGradient id="linearGradient4116"><stop id="stop4118" offset="0" stop-color="#ca0000" stop-opacity="1"/><stop id="stop4120" offset="1" stop-color="#fd3232" stop-opacity="1"/></linearGradient><linearGradient id="linearGradient4327" x1="410.743" x2="410.743" y1="524.811" y2="522.777" gradientUnits="userSpaceOnUse" xlink:href="#linearGradient4116"/></defs><metadata id="metadata5458"/><g id="layer1" transform="translate(-384.57143,-499.798)"><rect id="rect2991-1-1" width="48" height="48" x="384.571" y="-547.798" fill="url(#linearGradient867-9)" fill-opacity="1" stroke="none" ry="1.945" transform="scale(1,-1)"/><path id="path4190" fill="#000" fill-opacity=".059" stroke="none" d="M 11.394531 9.8007812 L 11.394531 12.007812 L 15.314453 12.007812 L 15.314453 22 L 19.501953 22 L 19.501953 12.337891 L 34.066406 12.337891 L 34.066406 16.648438 L 36.605469 16.648438 L 36.605469 9.8007812 L 11.394531 9.8007812 z M 30.023438 18.794922 L 30.023438 22 L 32.560547 22 L 32.560547 18.794922 L 30.023438 18.794922 z M 15.314453 26 L 15.314453 38.414062 L 11.394531 38.414062 L 11.394531 40.599609 L 24.433594 40.599609 L 24.433594 38.414062 L 19.501953 38.414062 L 19.501953 26 L 15.314453 26 z M 30.023438 26 L 30.023438 29.027344 L 32.560547 29.027344 L 32.560547 26 L 30.023438 26 z" font-family="DejaVu Serif" font-size="40" font-stretch="normal" font-style="normal" font-variant="normal" font-weight="normal" letter-spacing="0" transform="translate(384.57143,499.798)" word-spacing="0" style="line-height:125%;-inkscape-font-specification:DejaVu Serif"/><path id="path4188" fill="#000" fill-opacity=".118" stroke="none" d="M 11.394531 9.4003906 L 11.394531 11.607422 L 15.314453 11.607422 L 15.314453 22 L 19.501953 22 L 19.501953 11.9375 L 34.066406 11.9375 L 34.066406 16.248047 L 36.605469 16.248047 L 36.605469 9.4003906 L 11.394531 9.4003906 z M 30.023438 18.394531 L 30.023438 22 L 32.560547 22 L 32.560547 18.394531 L 30.023438 18.394531 z M 15.314453 26 L 15.314453 38.013672 L 11.394531 38.013672 L 11.394531 40.199219 L 24.433594 40.199219 L 24.433594 38.013672 L 19.501953 38.013672 L 19.501953 26 L 15.314453 26 z M 30.023438 26 L 30.023438 28.626953 L 32.560547 28.626953 L 32.560547 26 L 30.023438 26 z" font-family="DejaVu Serif" font-size="40" font-stretch="normal" font-style="normal" font-variant="normal" font-weight="normal" letter-spacing="0" transform="translate(384.57143,499.798)" word-spacing="0" style="line-height:125%;-inkscape-font-specification:DejaVu Serif"/><path id="path4181" fill="#000" fill-opacity=".235" stroke="none" d="M 11.394531 9 L 11.394531 11.207031 L 15.314453 11.207031 L 15.314453 22 L 32.560547 22 L 32.560547 17.994141 L 30.023438 17.994141 L 30.023438 21.851562 L 19.501953 21.851562 L 19.501953 11.537109 L 34.066406 11.537109 L 34.066406 15.849609 L 36.605469 15.849609 L 36.605469 9 L 11.394531 9 z M 15.314453 26 L 15.314453 37.613281 L 11.394531 37.613281 L 11.394531 39.800781 L 24.433594 39.800781 L 24.433594 37.613281 L 19.501953 37.613281 L 19.501953 26 L 15.314453 26 z M 30.023438 26 L 30.023438 28.226562 L 32.560547 28.226562 L 32.560547 26 L 30.023438 26 z" font-family="DejaVu Serif" font-size="40" font-stretch="normal" font-style="normal" font-variant="normal" font-weight="normal" letter-spacing="0" transform="translate(384.57143,499.798)" word-spacing="0" style="line-height:125%;-inkscape-font-specification:DejaVu Serif"/><path id="rect846" fill="#000" fill-opacity="1" stroke="none" d="m 384.57143,544.79799 0,1.0625 c 0,1.0773 0.86022,1.9375 1.9375,1.9375 l 44.125,0 c 1.07728,0 1.9375,-0.8602 1.9375,-1.9375 l 0,-1.0625 c 0,1.0773 -0.86022,1.9375 -1.9375,1.9375 l -44.125,0 C 385.43165,546.73549 384.57143,545.87529 384.57143,544.79799 Z"/><path id="path7515" fill="#fff" fill-opacity=".537" stroke="none" d="m 387.10268,500.45429 c -0.91709,0 -1.67115,0.6395 -1.84375,1.5 0.33561,-0.2799 0.77451,-0.4375 1.25,-0.4375 l 44.125,0 c 0.47549,0 0.91439,0.1576 1.25,0.4375 -0.1726,-0.8605 -0.92666,-1.5 -1.84375,-1.5 L 387.10268,500.45429 Z"/><path id="rect4280" fill="#000" fill-opacity=".392" stroke="none" d="m 386.50893,499.79799 c -1.07728,0 -1.9375,0.8602 -1.9375,1.9375 l 0,43.0625 c 0,0.7934 0.48002,1.449 1.15625,1.75 -0.30934,-0.3333 -0.5,-0.7824 -0.5,-1.2812 l 0,-42.9375 c 0,-1.0482 0.8269,-1.875 1.875,-1.875 l 42.9375,0 c 1.0481,0 1.875,0.8268 1.875,1.875 l 0,42.9375 c 0,0.4988 -0.19066,0.9479 -0.5,1.2812 0.67623,-0.301 1.15625,-0.9566 1.15625,-1.75 l 0,-43.0625 c 0,-1.0773 -0.86022,-1.9375 -1.9375,-1.9375 L 386.50893,499.79799 Z"/><path id="path4161" fill="url(#linearGradient4218)" fill-opacity="1" stroke="none" d="M 11.394531 8.5996094 L 11.394531 10.806641 L 15.314453 10.806641 L 15.314453 22 L 32.560547 22 L 32.560547 17.59375 L 30.023438 17.59375 L 30.023438 21.453125 L 19.501953 21.453125 L 19.501953 11.136719 L 34.066406 11.136719 L 34.066406 15.449219 L 36.605469 15.449219 L 36.605469 8.5996094 L 11.394531 8.5996094 z M 15.314453 26 L 15.314453 37.212891 L 11.394531 37.212891 L 11.394531 39.400391 L 24.433594 39.400391 L 24.433594 37.212891 L 19.501953 37.212891 L 19.501953 26 L 15.314453 26 z M 30.023438 26 L 30.023438 27.826172 L 32.560547 27.826172 L 32.560547 26 L 30.023438 26 z" font-family="DejaVu Serif" font-size="40" font-stretch="normal" font-style="normal" font-variant="normal" font-weight="normal" letter-spacing="0" transform="translate(384.57143,499.798)" word-spacing="0" style="line-height:125%;-inkscape-font-specification:DejaVu Serif"/><path id="path4194" fill="#282827" fill-opacity=".314" stroke="none" d="M 11.394531 10.007812 L 11.394531 10.806641 L 15.314453 10.806641 L 15.314453 10.007812 L 11.394531 10.007812 z M 19.501953 10.337891 L 19.501953 11.136719 L 34.066406 11.136719 L 34.066406 10.337891 L 19.501953 10.337891 z M 34.066406 14.648438 L 34.066406 15.449219 L 36.605469 15.449219 L 36.605469 14.648438 L 34.066406 14.648438 z M 19.501953 23.169922 L 19.501953 23.96875 L 30.023438 23.96875 L 30.023438 23.169922 L 19.501953 23.169922 z M 30.023438 27.027344 L 30.023438 27.826172 L 32.560547 27.826172 L 32.560547 27.027344 L 30.023438 27.027344 z M 11.394531 38.599609 L 11.394531 39.400391 L 24.433594 39.400391 L 24.433594 38.599609 L 11.394531 38.599609 z" font-family="DejaVu Serif" font-size="40" font-stretch="normal" font-style="normal" font-variant="normal" font-weight="normal" letter-spacing="0" transform="translate(384.57143,499.798)" word-spacing="0" style="line-height:125%;-inkscape-font-specification:DejaVu Serif"/><path id="path4205" fill="#fff" fill-opacity=".235" stroke="none" d="M 11.394531 8.5996094 L 11.394531 9 L 36.605469 9 L 36.605469 8.5996094 L 11.394531 8.5996094 z M 30.023438 17.59375 L 30.023438 17.994141 L 32.560547 17.994141 L 32.560547 17.59375 L 30.023438 17.59375 z M 19.501953 21.453125 L 19.501953 21.851562 L 30.023438 21.851562 L 30.023438 21.453125 L 19.501953 21.453125 z M 11.394531 37.212891 L 11.394531 37.613281 L 15.314453 37.613281 L 15.314453 37.212891 L 11.394531 37.212891 z M 19.501953 37.212891 L 19.501953 37.613281 L 24.433594 37.613281 L 24.433594 37.212891 L 19.501953 37.212891 z" font-family="DejaVu Serif" font-size="40" font-stretch="normal" font-style="normal" font-variant="normal" font-weight="normal" letter-spacing="0" transform="translate(384.57143,499.798)" word-spacing="0" style="line-height:125%;-inkscape-font-specification:DejaVu Serif"/><rect id="rect4214" width="42" height="2" x="387.571" y="522.798" fill="url(#linearGradient4327)" fill-opacity="1" stroke="none" ry="0"/><path id="rect4329" fill="#870e0e" fill-opacity=".314" stroke="none" d="M 3 24.199219 L 3 25 L 45 25 L 45 24.199219 L 3 24.199219 z" transform="translate(384.57143,499.798)"/><path id="rect4334" fill="#fff" fill-opacity=".235" stroke="none" d="M 3 23 L 3 23.400391 L 45 23.400391 L 45 23 L 3 23 z" transform="translate(384.57143,499.798)"/></g></svg>