<svg xmlns="http://www.w3.org/2000/svg" xmlns:svg="http://www.w3.org/2000/svg" xmlns:xlink="http://www.w3.org/1999/xlink" id="svg5453" width="48" height="48" version="1.1" viewBox="0 0 48 48"><defs id="defs5455"><linearGradient id="linearGradient5314"><stop id="stop5316" offset="0" stop-color="#59f325" stop-opacity="1"/><stop id="stop5318" offset="1" stop-color="#59f325" stop-opacity="0"/></linearGradient><linearGradient id="linearGradient1819"><stop id="stop1821" offset="0" stop-color="#74684a" stop-opacity="1"/><stop id="stop1823" offset=".3" stop-color="#968869" stop-opacity="1"/><stop id="stop1825" offset="1" stop-color="#ebebe3" stop-opacity="1"/></linearGradient><linearGradient id="linearGradient1716"><stop id="stop1718" offset="0" stop-color="#eff16a" stop-opacity="1"/><stop id="stop1720" offset="1" stop-color="#88d73e" stop-opacity="1"/></linearGradient><linearGradient id="linearGradient1621"><stop id="stop1623" offset="0" stop-color="#c6b48e" stop-opacity="1"/><stop id="stop1625" offset="1" stop-color="#ddd6ba" stop-opacity="1"/></linearGradient><linearGradient id="linearGradient1499"><stop id="stop1501" offset="0" stop-color="#877d65" stop-opacity="1"/><stop id="stop1503" offset="1" stop-color="#877d65" stop-opacity="0"/></linearGradient><linearGradient id="linearGradient1483"><stop id="stop1485" offset="0" stop-color="#fff" stop-opacity="1"/><stop id="stop1487" offset="1" stop-color="#fff" stop-opacity="0"/></linearGradient><linearGradient id="linearGradient1473"><stop id="stop1475" offset="0" stop-color="#252525" stop-opacity="1"/><stop id="stop1477" offset="1" stop-color="#040404" stop-opacity="1"/></linearGradient><linearGradient id="linearGradient1454"><stop id="stop1456" offset="0" stop-color="#928261" stop-opacity="1"/><stop id="stop1700" offset=".3" stop-color="#b8ac94" stop-opacity="1"/><stop id="stop1458" offset="1" stop-color="#d1c9b9" stop-opacity="1"/></linearGradient><linearGradient id="linearGradient1619" x1="10.75" x2="10.75" y1="46.262" y2="41.536" gradientTransform="matrix(0.888,0,0,0.888,384.17545,500.1038)" gradientUnits="userSpaceOnUse" xlink:href="#linearGradient1621"/><radialGradient id="radialGradient1714" cx="11.161" cy="43.446" r="3.125" fx="11.161" fy="43.446" gradientTransform="matrix(0.25458412,0,0,0.25458412,397.2346,529.3898)" gradientUnits="userSpaceOnUse" xlink:href="#linearGradient1716"/><radialGradient id="radialGradient1813" cx="11.161" cy="43.446" r="3.125" fx="11.161" fy="43.446" gradientTransform="matrix(0.25458412,0,0,0.25458412,397.2346,529.38979)" gradientUnits="userSpaceOnUse" xlink:href="#linearGradient1716"/><linearGradient id="linearGradient4878" x1="408.332" x2="408.332" y1="-547.799" y2="-499.794" gradientUnits="userSpaceOnUse" xlink:href="#linearGradient1819"/><linearGradient id="linearGradient4886" x1="408.332" x2="408.332" y1="-547.799" y2="-506.651" gradientTransform="matrix(0.85416677,0,0,0.85416677,59.583273,-76.387159)" gradientUnits="userSpaceOnUse" xlink:href="#linearGradient1454"/><linearGradient id="linearGradient4902" x1="408.332" x2="408.332" y1="-554.099" y2="-514.471" gradientTransform="matrix(0.79166665,0,0,0.39583333,85.11905,721.63467)" gradientUnits="userSpaceOnUse" xlink:href="#linearGradient1499"/><radialGradient id="radialGradient4912" cx="408.449" cy="541.712" r="19" fx="408.449" fy="541.712" gradientTransform="matrix(1.03125,0,0,0.6625,-12.767857,168.94431)" gradientUnits="userSpaceOnUse" xlink:href="#linearGradient1473"/><linearGradient id="linearGradient4936" x1="409.446" x2="409.446" y1="497.298" y2="515.423" gradientTransform="matrix(1.0058828,0,0,0.98009039,-2.4033639,10.609145)" gradientUnits="userSpaceOnUse" xlink:href="#linearGradient1483"/><linearGradient id="linearGradient4942" x1="408.332" x2="408.332" y1="-557.399" y2="-500.024" gradientTransform="matrix(0.79166665,0,0,0.39583333,85.11905,-314.56128)" gradientUnits="userSpaceOnUse" xlink:href="#linearGradient1499"/><linearGradient id="linearGradient5320" x1="458.821" x2="456.337" y1="542.204" y2="539.72" gradientTransform="translate(-61.188832,0)" gradientUnits="userSpaceOnUse" xlink:href="#linearGradient5314"/><radialGradient id="radialGradient5324" cx="11.161" cy="43.446" r="3.125" fx="11.161" fy="43.446" gradientTransform="matrix(0.28655998,0,0,0.28655998,396.87771,528.00052)" gradientUnits="userSpaceOnUse" xlink:href="#linearGradient1716"/><radialGradient id="radialGradient5328" cx="11.161" cy="43.446" r="3.125" fx="11.161" fy="43.446" gradientTransform="matrix(0.33455996,0,0,0.33455996,396.34201,525.91507)" gradientUnits="userSpaceOnUse" xlink:href="#linearGradient1716"/></defs><metadata id="metadata5458"/><g id="layer1" transform="translate(-384.57143,-499.798)"><rect id="rect2991-1-7" width="48" height="48" x="384.571" y="-547.798" fill="url(#linearGradient4878)" fill-opacity="1" stroke="none" ry="1.945" transform="scale(1,-1)"/><rect id="rect6174" width="42" height="42" x="387.571" y="-544.798" fill="#000" fill-opacity=".118" stroke="none" ry="1.701" transform="scale(1,-1)"/><path id="rect846" fill="#000" fill-opacity="1" stroke="none" d="m 384.57143,544.79799 0,1.0625 c 0,1.0773 0.86022,1.9375 1.9375,1.9375 l 44.125,0 c 1.07728,0 1.9375,-0.8602 1.9375,-1.9375 l 0,-1.0625 c 0,1.0773 -0.86022,1.9375 -1.9375,1.9375 l -44.125,0 c -1.07728,0 -1.9375,-0.8602 -1.9375,-1.9375 z"/><path id="path7515" fill="#fff" fill-opacity=".537" stroke="none" d="m 387.10268,500.45429 c -0.91709,0 -1.67115,0.6395 -1.84375,1.5 0.33561,-0.2799 0.77451,-0.4375 1.25,-0.4375 l 44.125,0 c 0.47549,0 0.91439,0.1576 1.25,0.4375 -0.1726,-0.8605 -0.92666,-1.5 -1.84375,-1.5 l -42.9375,0 z"/><path id="rect4280" fill="#000" fill-opacity=".392" stroke="none" d="m 386.50893,499.79799 c -1.07728,0 -1.9375,0.8602 -1.9375,1.9375 l 0,43.0625 c 0,0.7934 0.48002,1.449 1.15625,1.75 -0.30934,-0.3333 -0.5,-0.7824 -0.5,-1.2812 l 0,-42.9375 c 0,-1.0482 0.8269,-1.875 1.875,-1.875 l 42.9375,0 c 1.0481,0 1.875,0.8268 1.875,1.875 l 0,42.9375 c 0,0.4988 -0.19066,0.9479 -0.5,1.2812 0.67623,-0.301 1.15625,-0.9566 1.15625,-1.75 l 0,-43.0625 c 0,-1.0773 -0.86022,-1.9375 -1.9375,-1.9375 l -44.125,0 z"/><rect id="rect4884" width="41" height="41" x="388.071" y="-544.298" fill="url(#linearGradient4886)" fill-opacity="1" stroke="none" ry="1.661" transform="scale(1,-1)"/><rect id="rect4900" width="38" height="19" x="389.571" y="504.798" fill="url(#linearGradient4902)" fill-opacity="1" stroke="none" ry="1.482"/><rect id="rect4940" width="38" height="19" x="389.571" y="-531.398" fill="url(#linearGradient4942)" fill-opacity="1" stroke="none" ry="1.423" transform="scale(1,-1)"/><path id="rect4910" fill="url(#radialGradient4912)" fill-opacity="1" stroke="none" d="m 391.98354,505.748 c -0.8102,0 -1.46211,0.65191 -1.46211,1.46211 l 0,0.43789 0,20.9 0,0.43789 c 0,0.8102 0.65191,1.46211 1.46211,1.46211 l 33.17578,0 c 0.8102,0 1.46211,-0.65191 1.46211,-1.46211 l 0,-0.43789 0,-20.9 0,-0.43789 c 0,-0.8102 -0.65191,-1.46211 -1.46211,-1.46211 l -33.17578,0 z"/><path id="path4926" fill="url(#linearGradient4936)" fill-opacity="1" stroke="none" d="m 392.85659,506.698 c -0.76749,0 -1.38516,0.60176 -1.38516,1.34963 l 0,0.40422 0,19.2923 0,0.4042 c 0,0.74788 0.61768,1.34965 1.38516,1.34965 l 31.42968,0 c 0.76748,0 1.38516,-0.60177 1.38516,-1.34965 l 0,-0.4042 0,-19.2923 0,-0.40422 c 0,-0.74787 -0.61767,-1.34963 -1.38516,-1.34963 l -31.42968,0 z" opacity=".6"/><path id="path1579" fill="#d1e191" fill-opacity="1" stroke="none" d="m 398.86918,516.6919 4.75,0 0,1.52 -4.75,0 z" font-family="Francois One" font-size="8.024" font-stretch="normal" font-style="normal" font-variant="normal" font-weight="bold" letter-spacing="0" word-spacing="0" style="line-height:125%;-inkscape-font-specification:Francois One Bold"/><path id="rect3237" fill="#ffa264" fill-opacity="1" stroke="none" d="m 395.54418,510.0419 -1.09707,1.09707 2.22792,2.22793 -2.22792,2.22791 1.09707,1.09709 2.22793,-2.22793 1.09707,-1.09707 -1.09707,-1.09709 -2.22793,-2.22791 z"/><circle id="path1607" cx="394.086" cy="538.684" r="3.125" fill="#000" fill-opacity="1" fill-rule="nonzero" stroke="none" stroke-width="1.4" color="#000" display="inline" enable-background="accumulate" opacity=".67" overflow="visible" visibility="visible" style="marker:none"/><circle id="path1611" cx="394.086" cy="538.684" r="2.775" fill="url(#linearGradient1619)" fill-opacity="1" fill-rule="nonzero" stroke="none" stroke-width="1.4" color="#000" display="inline" enable-background="accumulate" overflow="visible" visibility="visible" style="marker:none"/><path id="path1627" fill="#fff" fill-opacity=".418" fill-rule="nonzero" stroke="none" stroke-width="1.4" d="m 394.10134,535.9229 c -1.53259,0 -2.78125,1.2174 -2.78125,2.75 0,0.1063 0.0196,0.2093 0.0312,0.3125 0.14211,-1.3993 1.3132,-2.5 2.75,-2.5 1.43651,0 2.57624,1.1011 2.71875,2.5 0.0117,-0.1036 0.0312,-0.2058 0.0312,-0.3125 0,-1.5326 -1.21741,-2.75 -2.75,-2.75 z" color="#000" display="inline" enable-background="accumulate" overflow="visible" visibility="visible" style="marker:none"/><path id="path1689" fill="#000" fill-opacity=".582" fill-rule="nonzero" stroke="none" stroke-width="1.4" d="m 396.85134,538.5479 c -0.0487,1.4892 -1.24895,2.6875 -2.75,2.6875 -1.49054,0 -2.71531,-1.1816 -2.78125,-2.6563 -0.006,0.03 0,0.062 0,0.094 0,1.5326 1.24866,2.7812 2.78125,2.7812 1.53259,0 2.75,-1.2486 2.75,-2.7812 0,-0.042 0.005,-0.084 0,-0.1252 z" color="#000" display="inline" enable-background="accumulate" overflow="visible" visibility="visible" style="marker:none"/><path id="path1632" fill="url(#linearGradient5320)" fill-opacity="1" fill-rule="nonzero" stroke="none" stroke-width="1.4" d="m 395.72634,536.4854 c 0.45818,0.4949 0.75,1.1474 0.75,1.875 0,1.5326 -1.24866,2.7812 -2.78125,2.7812 -0.57472,0 -1.08836,-0.1695 -1.53125,-0.4687 0.4995,0.484 1.18706,0.7812 1.9375,0.7812 1.53259,0 2.75,-1.2486 2.75,-2.7812 0,-0.9103 -0.44791,-1.6815 -1.125,-2.1875 z" color="#000" display="inline" enable-background="accumulate" overflow="visible" visibility="visible" style="marker:none"/><path id="path1722" fill="#c3bba8" fill-opacity="1" fill-rule="nonzero" stroke="none" stroke-width="1.4" d="m 400.07009,539.0479 c -0.66049,0 -1.1875,0.527 -1.1875,1.1875 0,0.044 0.0265,0.082 0.0312,0.125 0.0695,-0.5943 0.54329,-1.0625 1.15625,-1.0625 0.61296,0 1.08672,0.4682 1.15625,1.0625 0.005,-0.043 0.0312,-0.081 0.0312,-0.125 0,-0.6605 -0.52701,-1.1875 -1.1875,-1.1875 z" color="#000" display="inline" enable-background="accumulate" opacity=".67" overflow="visible" visibility="visible" style="marker:none"/><circle stroke-width="1.4" style="marker:none" id="path1702" cx="400.076" cy="540.451" r="1.196" fill="#000" fill-opacity="1" fill-rule="nonzero" stroke="none" color="#000" display="inline" enable-background="accumulate" opacity=".67" overflow="visible" visibility="visible"/><path d="m 400.8687,540.4113 c -0.0141,0.4268 -0.35806,0.7703 -0.78841,0.7703 -0.42732,0 -0.77846,-0.3389 -0.79736,-0.7615 -0.002,0 0,0.029 0,0.029 0,0.4394 0.35798,0.7973 0.79736,0.7973 0.43939,0 0.78841,-0.3579 0.78841,-0.7973 0,-0.014 0.002,-0.026 0,-0.038 z" style="marker:none" id="path1708" fill="#000" fill-opacity=".582" fill-rule="nonzero" stroke="none" stroke-width="1.4" color="#000" display="inline" enable-background="accumulate" overflow="visible" visibility="visible"/><circle id="path1727" cx="400.076" cy="540.451" r=".796" fill="url(#radialGradient1813)" fill-opacity="1" fill-rule="nonzero" stroke="none" stroke-width="1.4" color="#000" display="inline" enable-background="accumulate" opacity=".15" overflow="visible" visibility="visible" style="marker:none"/><circle id="path1704" cx="400.076" cy="540.451" r=".796" fill="url(#radialGradient1714)" fill-opacity="1" fill-rule="nonzero" stroke="none" stroke-width="1.4" color="#000" display="inline" enable-background="accumulate" overflow="visible" visibility="visible" style="marker:none"/><rect id="rect1873" width="19.701" height="1.984" x="406.236" y="538.021" fill="#000" fill-opacity=".219" fill-rule="nonzero" stroke="none" stroke-width="1.4" color="#000" display="inline" enable-background="accumulate" overflow="visible" ry="0" visibility="visible" style="marker:none"/><rect id="rect1877" width="19.701" height="1.984" x="406.481" y="538.646" fill="#fff" fill-opacity=".219" fill-rule="nonzero" stroke="none" stroke-width="1.4" color="#000" display="inline" enable-background="accumulate" overflow="visible" ry="0" visibility="visible" style="marker:none"/><rect id="rect1875" width="19.448" height="1.607" x="406.488" y="538.397" fill="#000" fill-opacity="1" fill-rule="nonzero" stroke="none" stroke-width="1.4" color="#000" display="inline" enable-background="accumulate" overflow="visible" ry="0" visibility="visible" style="marker:none"/><circle stroke-width="1.4" style="marker:none" id="circle5322" cx="400.076" cy="540.451" r=".895" fill="url(#radialGradient5324)" fill-opacity="1" fill-rule="nonzero" stroke="none" color="#000" display="inline" enable-background="accumulate" opacity=".3" overflow="visible" visibility="visible"/><circle id="circle5326" cx="400.076" cy="540.451" r="1.046" fill="url(#radialGradient5328)" fill-opacity="1" fill-rule="nonzero" stroke="none" stroke-width="1.4" color="#000" display="inline" enable-background="accumulate" opacity=".6" overflow="visible" visibility="visible" style="marker:none"/></g></svg>