<svg xmlns="http://www.w3.org/2000/svg" xmlns:svg="http://www.w3.org/2000/svg" xmlns:xlink="http://www.w3.org/1999/xlink" id="svg2" width="48" height="48" version="1.1" viewBox="0 0 13.547 13.547"><metadata id="metadata43"/><defs id="defs4"><linearGradient id="linearGradient1539"><stop id="stop1541" offset="0" stop-color="#efefef" stop-opacity="1"/><stop id="stop1543" offset="1" stop-color="#fbfbfb" stop-opacity="1"/></linearGradient><style id="style2464" type="text/css"/><style id="style2464-7" type="text/css"/><linearGradient id="linearGradient1545" x1="26.364" x2="26.364" y1="1047.311" y2="1017.365" gradientTransform="matrix(0.3641385,0,0,0.3641385,-2.8720662,-369.13872)" gradientUnits="userSpaceOnUse" xlink:href="#linearGradient1539"/><linearGradient id="linearGradient4171" x1="34.586" x2="34.586" y1="1012.894" y2="1043.83" gradientTransform="matrix(0.28222223,0,0,-0.28222223,-14.771977,297.00001)" gradientUnits="userSpaceOnUse" xlink:href="#linearGradient6589"/><linearGradient id="linearGradient4169"><stop id="stop4171-0" offset="0" stop-color="#e2f4c4" stop-opacity="1"/><stop id="stop4173" offset="1" stop-color="#fdfff5" stop-opacity="1"/></linearGradient><linearGradient id="linearGradient4181" x1="10.41" x2="10.41" y1="13.991" y2="2.012" gradientTransform="matrix(0.7243704,0,0,0.7243704,-13.151678,-3.9107847)" gradientUnits="userSpaceOnUse" xlink:href="#linearGradient4169"/><linearGradient id="linearGradient6589"><stop id="stop6591" offset="0" stop-color="#88c425" stop-opacity="1"/><stop id="stop6593" offset="1" stop-color="#bef202" stop-opacity="1"/></linearGradient><linearGradient id="linearGradient4964" x1="10.41" x2="10.41" y1="13.991" y2="2.012" gradientTransform="matrix(0.7243704,0,0,0.7243704,-13.151678,-3.9107847)" gradientUnits="userSpaceOnUse" xlink:href="#linearGradient4169"/><linearGradient id="linearGradient3795"><stop id="stop3797" offset="0" stop-color="#dd4814" stop-opacity="1"/><stop id="stop3799" offset="1" stop-color="#ed632b" stop-opacity="1"/></linearGradient><linearGradient id="linearGradient3801" x1="23.204" x2="23.204" y1="1052.296" y2="1004.317" gradientTransform="matrix(0.28222222,0,0,0.28222222,7.2808383e-8,-283.45333)" gradientUnits="userSpaceOnUse" xlink:href="#linearGradient3795"/></defs><rect id="rect2991" width="13.547" height="13.547" x="0" y="0" fill="url(#linearGradient3801)" fill-opacity="1" stroke="none" ry=".549"/><path id="rect846" fill="#000" fill-opacity="1" stroke="none" d="m 7.2808383e-8,12.700003 0,0.299861 c 0,0.304031 0.242773997191617,0.546805 0.546805997191617,0.546805 l 12.45305493,0 c 0.304032,0 0.546806,-0.242774 0.546806,-0.546805 l 0,-0.299861 c 0,0.304031 -0.242774,0.546805 -0.546806,0.546805 l -12.45305493,0 C 0.24277407,13.246808 7.2808383e-8,13.004034 7.2808383e-8,12.700003 Z"/><path id="path7515" fill="#fff" fill-opacity=".537" stroke="none" d="m 0.71437507,0.18521104 c -0.258823,0 -0.471635,0.18049048 -0.520347,0.42333333 0.09472,-0.0789834 0.218584,-0.12347222 0.352778,-0.12347222 l 12.45305493,0 c 0.134193,0 0.258061,0.0444889 0.352778,0.12347222 -0.04871,-0.24284285 -0.261525,-0.42333333 -0.520347,-0.42333333 l -12.11791693,0 z"/><path id="rect4280-0" fill="#000" fill-opacity=".396" stroke="none" d="M 0.54680607,2.7122621e-6 C 0.24277407,2.7122621e-6 7.2808383e-8,0.24277026 7.2808383e-8,0.54680826 l 0,12.15319474 c 0,0.223908 0.135472997191617,0.408935 0.326318997191617,0.493889 -0.0873,-0.09407 -0.141111,-0.22081 -0.141111,-0.361598 l 0,-12.1179163 c 0,-0.29582533 0.23337,-0.52916666 0.529167,-0.52916666 l 12.11791693,0 c 0.295797,0 0.529166,0.23334133 0.529166,0.52916666 l 0,12.1179163 c 0,0.140788 -0.05381,0.267526 -0.141111,0.361598 0.190846,-0.08495 0.32632,-0.269981 0.32632,-0.493889 l 0,-12.15319474 c 0,-0.304038 -0.242774,-0.5468055477379 -0.546806,-0.5468055477379 l -12.45305493,0 z"/><path id="path1489" fill="#000" fill-opacity=".185" stroke="none" d="m 6.7733335,0.84672295 c -3.2732075,0 -5.92666683,2.65342515 -5.92666683,5.92661035 0,3.2731287 2.65345933,5.9266107 5.92666683,5.9266107 C 10.046541,12.699944 12.7,10.046462 12.7,6.7733333 12.7,3.5001481 10.046541,0.84672295 6.7733335,0.84672295 Z m 0,5.28986055 c 0.3507015,0 0.6366533,0.2859758 0.6366533,0.6367498 0,0.3507458 -0.2859518,0.6366934 -0.6366533,0.6366934 -0.3507015,0 -0.6366533,-0.2859476 -0.6366533,-0.6366934 0,-0.350774 0.2859518,-0.6367498 0.6366533,-0.6367498 z"/><path id="path1491" fill="#e4e4e5" fill-opacity="1" stroke="none" d="m 6.7733335,1.031889 c -3.1709197,0 -5.7414588,2.5704518 -5.7414588,5.7414443 0,3.1709361 2.5705391,5.7414157 5.7414588,5.7414157 3.17092,0 5.7414585,-2.5704796 5.7414585,-5.7414157 0,-3.1709925 -2.5705385,-5.7414443 -5.7414585,-5.7414443 z m 0,5.1046945 c 0.3507015,0 0.6366533,0.2859758 0.6366533,0.6367498 0,0.3507458 -0.2859518,0.6366934 -0.6366533,0.6366934 -0.3507015,0 -0.6366533,-0.2859476 -0.6366533,-0.6366934 0,-0.350774 0.2859518,-0.6367498 0.6366533,-0.6367498 z"/><path id="path1493" fill="url(#linearGradient1545)" fill-opacity="1" stroke="none" d="m 6.7733335,1.3212232 c -3.0101823,0 -5.4520704,2.4419843 -5.4520704,5.4521101 0,3.0100977 2.4418881,5.4520817 5.4520704,5.4520817 3.0101823,0 5.4520705,-2.441984 5.4520705,-5.4520817 0,-3.0101258 -2.4418882,-5.4521101 -5.4520705,-5.4521101 z m 0,4.8153603 c 0.3507015,0 0.6366533,0.2859758 0.6366533,0.6367498 0,0.3507458 -0.2859518,0.6366934 -0.6366533,0.6366934 -0.3507015,0 -0.6366533,-0.2859476 -0.6366533,-0.6366934 0,-0.350774 0.2859518,-0.6367498 0.6366533,-0.6367498 z"/><path id="path1495" fill="#d3d5d7" fill-opacity="1" stroke="none" d="m 6.7733335,5.02539 c -0.9644276,0 -1.7479042,0.7835053 -1.7479042,1.7479433 0,0.9643816 0.7834766,1.7479434 1.7479042,1.7479434 0.9644279,0 1.7479042,-0.7835618 1.7479042,-1.7479434 0,-0.964438 -0.7834763,-1.7479433 -1.7479042,-1.7479433 z m 0,1.1111935 c 0.3507015,0 0.6366533,0.2859758 0.6366533,0.6367498 0,0.3507458 -0.2859518,0.6366934 -0.6366533,0.6366934 -0.3507015,0 -0.6366533,-0.2859476 -0.6366533,-0.6366934 0,-0.350774 0.2859518,-0.6367498 0.6366533,-0.6367498 z"/><path id="path1497" fill="#e0e0e2" fill-opacity="1" stroke="none" d="m 6.7733335,5.3958913 c -0.7598517,0 -1.3774863,0.6175305 -1.3774863,1.377442 0,0.7598834 0.6176346,1.3774138 1.3774863,1.3774138 0.7598517,0 1.3774863,-0.6175304 1.3774863,-1.3774138 0,-0.7599115 -0.6176346,-1.377442 -1.3774863,-1.377442 z m 0,0.7406922 c 0.3507015,0 0.6366533,0.2859758 0.6366533,0.6367498 0,0.3507458 -0.2859518,0.6366934 -0.6366533,0.6366934 -0.3507015,0 -0.6366533,-0.2859476 -0.6366533,-0.6366934 0,-0.350774 0.2859518,-0.6367498 0.6366533,-0.6367498 z"/><path id="path1516" fill="#000" fill-opacity=".315" stroke="none" d="m 6.7733335,6.1365835 c -0.3507015,0 -0.6366533,0.2859758 -0.6366533,0.6367498 0,0.028392 0.00805,0.053989 0.011568,0.081026 0.059211,-0.289306 0.318214,-0.5093264 0.6250779,-0.5093264 0.3068639,0 0.5658669,0.2200204 0.625078,0.5093264 0.00357,-0.026529 0.011568,-0.052945 0.011568,-0.081026 C 7.4099868,6.4225593 7.124035,6.1365835 6.7733335,6.1365835 Z"/><path id="path1532" fill="#1a1a1a" fill-opacity=".314" stroke="none" d="m 6.7733335,6.131814 c -0.3243213,0 -0.5875548,0.2502464 -0.6261806,0.5644727 0.059527,-0.2897576 0.319317,-0.5027507 0.6261806,-0.5027507 0.3068636,0 0.5666528,0.2129931 0.6261806,0.5027507 C 7.360888,6.3820604 7.0976548,6.131814 6.7733335,6.131814 Z M 5.0359026,6.9520364 c 0.064517,0.905877 0.8152421,1.6227496 1.7374309,1.6227496 0.9221888,0 1.6729138,-0.7168726 1.7374306,-1.6227496 -0.089607,0.8807027 -0.8332795,1.5698612 -1.7374306,1.5698612 -0.9041511,0 -1.6478231,-0.6891585 -1.7374309,-1.5698612 z"/><rect id="rect4898" width="15.936" height="15.936" x="-13.152" y="-3.911" fill="url(#linearGradient4964)" fill-opacity="1" fill-rule="nonzero" stroke="none" display="none"/><rect id="rect4126" width="15.936" height="15.936" x="-13.152" y="-3.911" fill="url(#linearGradient4181)" fill-opacity="1" fill-rule="nonzero" stroke="none" display="none"/><g id="g4996" transform="matrix(0.5,0,0,0.5,14.062963,6.857972)"><path id="path4153" fill="#000" fill-opacity=".059" d="m -12.344866,7.1163462 1.540736,-1.5385627 c 0,0 0.8643549,0.8637976 1.715128,1.7145847 l 0,-4.5265905 2.1788154,0 0,4.5265905 1.7167578,-1.7167578 1.5410068,1.5407358 -4.3456782,4.3418758 -4.3467658,-4.3418758 z"/><path id="path4151" fill="#000" fill-opacity=".118" d="m -12.344866,7.0034573 1.540736,-1.5385627 c 0,0 0.8643549,0.8637976 1.715128,1.7145847 l 0,-4.5265905 2.1788154,0 0,4.5265905 1.7167576,-1.7167578 1.541007,1.5407358 -4.3456779,4.3418757 -4.3467661,-4.3418757 z"/><path id="path4147" fill="#000" fill-opacity=".235" d="m -12.344865,6.8905684 1.540736,-1.5385627 c 0,0 0.8643545,0.8637976 1.7151275,1.7145848 l 0,-4.5265906 2.1788155,0 0,4.5265906 1.7167575,-1.7167579 1.5410065,1.5407358 -4.3456777,4.3418766 -4.3467653,-4.3418766 z"/><path id="path4099" fill="url(#linearGradient4171)" fill-opacity="1" d="m -12.344866,6.7776796 1.540736,-1.5385628 c 0,0 0.8643547,0.8637976 1.7151263,1.7145848 l 0,-4.5265906 2.1788177,0 0,4.5265906 1.7167578,-1.7167579 1.5410062,1.5407359 -4.3456799,4.3418764 -4.3467641,-4.3418764 z"/><path id="path4269" fill="#90cb20" fill-opacity=".314" d="m -12.231837,6.6647342 -0.112999,0.1130018 4.3468837,4.341933 4.3457815,-4.341933 -0.112999,-0.1130018 -4.2327825,4.2289308 -4.2338847,-4.2289308 z"/><path id="path4274" fill="#fff" fill-opacity=".235" d="m -9.0888073,2.4269981 0,0.1130018 2.1784028,0 0,-0.1130018 -2.1784028,0 z m 3.8954384,2.8100867 -1.7170356,1.7165039 0,0.1130018 1.7170356,-1.7165039 1.4844234,1.4838681 0.056775,-0.056219 -1.5411981,-1.5406512 z m -5.6108201,0.00282 -1.540647,1.5384216 0.05678,0.056219 1.483872,-1.4822029 c 0,0 0.8646101,0.8640516 1.7153817,1.7148387 l 0,-0.1130018 C -9.9395789,6.1033942 -10.804189,5.2399071 -10.804189,5.2399071 Z"/></g></svg>