<svg xmlns="http://www.w3.org/2000/svg" xmlns:svg="http://www.w3.org/2000/svg" xmlns:xlink="http://www.w3.org/1999/xlink" id="svg2" width="48" height="48" version="1.1"><defs id="defs4"><linearGradient id="linearGradient883" x1="21.5" x2="21.5" y1="-1052.366" y2="-1004.354" gradientUnits="userSpaceOnUse" xlink:href="#linearGradient3257"/><linearGradient id="linearGradient3257"><stop id="stop3259" offset="0" stop-color="#000" stop-opacity="1"/><stop id="stop3261" offset="1" stop-color="#1a1a1a" stop-opacity="1"/></linearGradient><linearGradient id="linearGradient4200"><stop id="stop4202" offset="0" stop-color="#fa741b" stop-opacity="1"/><stop id="stop4204" offset="1" stop-color="#f7aa1d" stop-opacity="1"/></linearGradient><linearGradient id="linearGradient4232" x1="26.517" x2="26.517" y1="1032.563" y2="1012.962" gradientTransform="matrix(1.5794555,0,0,1.5794555,-15.806485,-586.96594)" gradientUnits="userSpaceOnUse" xlink:href="#linearGradient4200"/></defs><metadata id="metadata7"/><g id="layer1" transform="translate(0,-1004.3622)"><rect id="rect2991-1" width="48" height="48" x="0" y="-1052.362" fill="url(#linearGradient883)" fill-opacity="1" stroke="none" ry="1.945" transform="scale(1,-1)"/><path id="path4453" fill="#000" fill-opacity=".059" d="m 23.283203,1014.1614 c 0.685804,5.8496 -4.854585,6.3345 -7.386719,11.8223 -1.773056,3.8418 1.898967,6.0399 4.277344,7.0293 l -1.134766,2.0293 -4.439453,0 9.400391,9.9199 9.400391,-9.9199 -4.439453,0 -0.871094,-1.5606 c 4.473716,-0.7527 6.840251,-3.7453 6.882812,-5.9121 0.0596,-3.0718 -3.46875,-6.4707 -3.46875,-6.4707 0.657175,4.0322 -1.789062,4.6406 -1.789062,4.6406 0.856358,-6.703 -6.431641,-11.5781 -6.431641,-11.5781 z"/><path id="path4451" fill="#000" fill-opacity=".118" d="m 23.283203,1013.7614 c 0.685804,5.8496 -4.854585,6.3345 -7.386719,11.8223 -1.773056,3.8418 1.898967,6.0399 4.277344,7.0293 l -1.134766,2.0293 -4.439453,0 9.400391,9.9199 9.400391,-9.9199 -4.439453,0 -0.871094,-1.5606 c 4.473716,-0.7527 6.840251,-3.7453 6.882812,-5.9121 0.0596,-3.0718 -3.46875,-6.4707 -3.46875,-6.4707 0.657175,4.0322 -1.789062,4.6406 -1.789062,4.6406 0.856358,-6.703 -6.431641,-11.5781 -6.431641,-11.5781 z"/><path id="path4444" fill="#000" fill-opacity=".235" d="m 23.283203,1013.3614 c 0.685804,5.8496 -4.854585,6.3345 -7.386719,11.8223 -1.773056,3.8418 1.898967,6.0399 4.277344,7.0293 l -1.134766,2.0293 -4.439453,0 9.400391,9.9199 9.400391,-9.9199 -4.439453,0 -0.871094,-1.5606 c 4.473716,-0.7527 6.840251,-3.7453 6.882812,-5.9121 0.0596,-3.0718 -3.46875,-6.4707 -3.46875,-6.4707 0.657175,4.0322 -1.789062,4.6406 -1.789062,4.6406 0.856358,-6.703 -6.431641,-11.5781 -6.431641,-11.5781 z"/><path id="rect846" fill="#000" fill-opacity="1" stroke="none" d="m 0,1049.3622 0,1.0625 c 0,1.0773 0.860223,1.9375 1.9375,1.9375 l 44.125,0 c 1.077277,0 1.9375,-0.8602 1.9375,-1.9375 l 0,-1.0625 c 0,1.0773 -0.860223,1.9375 -1.9375,1.9375 l -44.125,0 C 0.860223,1051.2997 0,1050.4395 0,1049.3622 Z"/><path id="path7515" fill="#fff" fill-opacity=".537" stroke="none" d="m 2.53125,1005.0185 c -0.917089,0 -1.671147,0.6395 -1.84375,1.5 0.335612,-0.2799 0.774512,-0.4375 1.25,-0.4375 l 44.125,0 c 0.475488,0 0.914388,0.1576 1.25,0.4375 -0.172603,-0.8605 -0.926662,-1.5 -1.84375,-1.5 L 2.53125,1005.0185 Z"/><path id="rect4280" fill="#000" fill-opacity=".392" stroke="none" d="m 1.9375,1004.3622 c -1.077277,0 -1.9375,0.8602 -1.9375,1.9375 l 0,43.0625 c 0,0.7934 0.480024,1.449 1.15625,1.75 -0.309342,-0.3333 -0.5,-0.7824 -0.5,-1.2812 l 0,-42.9375 c 0,-1.0482 0.826899,-1.875 1.875,-1.875 l 42.9375,0 c 1.048101,0 1.875,0.8268 1.875,1.875 l 0,42.9375 c 0,0.4988 -0.190658,0.9479 -0.5,1.2812 0.676226,-0.301 1.15625,-0.9566 1.15625,-1.75 l 0,-43.0625 c 0,-1.0773 -0.860223,-1.9375 -1.9375,-1.9375 L 1.9375,1004.3622 Z"/><path id="path4149" fill="url(#linearGradient4232)" fill-opacity="1" d="m 20.966972,1012.9628 c 1.083197,9.2392 -7.666648,10.0052 -11.6660424,18.673 -3.999514,8.666 9.6352834,12.1264 9.6352834,12.1264 3.483909,-0.5024 3.483909,-0.5024 3.483909,-0.5024 l 2.694782,0.5024 c 9.297002,0 14.240178,-5.6813 14.317616,-9.6236 0.09414,-4.8518 -5.480539,-10.22 -5.480539,-10.22 1.037979,6.3686 -2.824412,7.3315 -2.824412,7.3315 1.352579,-10.5871 -10.160597,-18.2873 -10.160597,-18.2873 z"/><path id="path4420" fill="#c35604" fill-opacity=".314" d="m 20.968299,1012.9622 c 0.03659,0.3121 0.03465,0.5919 0.04936,0.8854 0.01614,-0.2707 0.0261,-0.5451 0.02159,-0.833 -0.0075,-0.01 -0.07095,-0.052 -0.07095,-0.052 z m 12.984235,10.9575 c 0.07995,0.4905 0.122267,0.9381 0.148074,1.3666 0.02343,-0.374 0.02407,-0.7752 0,-1.2093 -0.01957,-0.019 -0.148074,-0.1573 -0.148074,-0.1573 z m -2.757878,4.8679 c -0.01537,0.3978 -0.01592,0.7934 -0.06787,1.2 0,0 0.06672,-0.029 0.07404,-0.031 0.01251,-0.3943 0.01443,-0.7842 -0.0062,-1.1692 z m 8.196512,4.5317 c -0.416852,3.9111 -5.319829,9.1806 -14.276798,9.1806 l -2.693095,-0.5029 -3.485907,0.5029 c 0,0 -9.6576114,-2.4535 -10.3312444,-8.3971 -0.677577,6.86 10.3312444,9.6588 10.3312444,9.6588 l 3.485907,-0.5029 2.693095,0.5029 c 9.297002,0 14.239463,-5.6794 14.3169,-9.6217 0.0053,-0.2716 -0.01182,-0.5468 -0.0401,-0.8206 z"/><path id="path4425" fill="#fff" fill-opacity=".235" d="m 20.968299,1012.9622 c 0.02716,0.2317 0.02199,0.4358 0.03702,0.6571 0.193136,0.13 9.887008,6.7187 10.210932,16.0567 0.110935,-9.7649 -10.247951,-16.7138 -10.247951,-16.7138 z m 0.06787,1.8941 c -0.261808,7.4892 -8.029215,8.7475 -11.7348624,16.7786 -0.570394,1.236 -0.771932,2.3642 -0.715691,3.3934 0.04395,-0.8551 0.259783,-1.7731 0.715691,-2.761 3.8068704,-8.2504 11.8969664,-9.3569 11.7348624,-17.411 z m 12.916367,9.0634 c 0.04137,0.2538 0.06311,0.4849 0.08946,0.7218 0.261912,0.2553 5.165889,5.1046 5.36768,9.7205 0.0047,-0.074 0.02017,-0.1497 0.02159,-0.2221 0.09414,-4.8518 -5.478736,-10.2202 -5.478736,-10.2202 z m 0.160414,2.3846 c -0.148609,4.1479 -2.849012,4.9033 -2.94914,4.9296 -0.01721,0.2173 -0.0089,0.428 -0.03702,0.6478 0,0 3.109852,-0.7928 2.986158,-5.5774 z"/></g></svg>