<svg xmlns="http://www.w3.org/2000/svg" xmlns:svg="http://www.w3.org/2000/svg" xmlns:xlink="http://www.w3.org/1999/xlink" id="svg2" width="48" height="48" version="1.1"><defs id="defs4"><linearGradient id="linearGradient4309"><stop id="stop4311" offset="0" stop-color="#d0d0d0" stop-opacity="1"/><stop id="stop4313" offset="1" stop-color="#f6f6f6" stop-opacity="1"/></linearGradient><linearGradient id="linearGradient4295"><stop id="stop4297" offset="0" stop-color="#005fb8" stop-opacity="1"/><stop id="stop4299" offset="1" stop-color="#3e8fff" stop-opacity="1"/></linearGradient><linearGradient id="linearGradient4289"><stop id="stop4291" offset="0" stop-color="#67b2ff" stop-opacity="1"/><stop id="stop4293" offset="1" stop-color="#0780ff" stop-opacity="0"/></linearGradient><linearGradient id="linearGradient845" x1="25.766" x2="25.766" y1="-1052.361" y2="-1004.361" gradientUnits="userSpaceOnUse" xlink:href="#linearGradient4309"/><linearGradient id="linearGradient2193" x1="26.937" x2="26.937" y1="8.69" y2="1.94" gradientUnits="userSpaceOnUse" xlink:href="#linearGradient2186"/><linearGradient id="linearGradient2186"><stop id="stop2189" offset="0" stop-color="#b7006f" stop-opacity="1"/><stop id="stop2191" offset="1" stop-color="#ff0089" stop-opacity="1"/></linearGradient><linearGradient id="linearGradient2203" x1="26.875" x2="26.875" y1="1.659" y2="8.188" gradientUnits="userSpaceOnUse" xlink:href="#linearGradient2197"/><linearGradient id="linearGradient2197"><stop id="stop2199" offset="0" stop-color="#fff" stop-opacity="1"/><stop id="stop2201" offset="1" stop-color="#fff" stop-opacity="0"/></linearGradient><linearGradient id="linearGradient2207" x1="26.875" x2="26.875" y1="-.728" y2="8.188" gradientUnits="userSpaceOnUse" xlink:href="#linearGradient2197"/><linearGradient id="linearGradient2219" x1="26.871" x2="26.871" y1="5.335" y2="2.847" gradientTransform="matrix(1.7325521,0,0,0.551719,40.096974,1001.7794)" gradientUnits="userSpaceOnUse" xlink:href="#linearGradient2224"/><linearGradient id="linearGradient2224"><stop id="stop2226" offset="0" stop-color="#ff64b9" stop-opacity="1"/><stop id="stop2228" offset="1" stop-color="#ff008a" stop-opacity="0"/></linearGradient><linearGradient id="linearGradient4275" x1="26.937" x2="26.937" y1="8.69" y2="1.94" gradientUnits="userSpaceOnUse" xlink:href="#linearGradient4295"/><linearGradient id="linearGradient4277" x1="26.875" x2="26.875" y1="1.659" y2="8.188" gradientUnits="userSpaceOnUse" xlink:href="#linearGradient2197"/><linearGradient id="linearGradient4279" x1="26.875" x2="26.875" y1="-.728" y2="8.188" gradientUnits="userSpaceOnUse" xlink:href="#linearGradient2197"/><linearGradient id="linearGradient4281" x1="26.871" x2="26.871" y1="5.335" y2="2.847" gradientTransform="matrix(1.7325521,0,0,0.551719,20.494576,1001.7794)" gradientUnits="userSpaceOnUse" xlink:href="#linearGradient4289"/></defs><metadata id="metadata7"/><g id="layer1" transform="translate(0,-1004.3622)"><rect id="rect2991-1" width="48" height="48" x="0" y="-1052.362" fill="url(#linearGradient845)" fill-opacity="1" stroke="none" ry="1.945" transform="scale(1,-1)"/><path id="rect846" fill="#000" fill-opacity="1" stroke="none" d="m -2.7e-6,1049.3622 0,1.0625 c 0,1.0773 0.860223,1.9375 1.9374999,1.9375 l 44.1250008,0 c 1.077277,0 1.937505,-0.8602 1.937505,-1.9375 l 0,-1.0625 c 0,1.0773 -0.860228,1.9375 -1.937505,1.9375 l -44.1250008,0 C 0.8602203,1051.2997 -2.7e-6,1050.4395 -2.7e-6,1049.3622 Z"/><path id="path7515" fill="#fff" fill-opacity=".537" stroke="none" d="m 2.5312472,1005.0185 c -0.917088,0 -1.6711469,0.6395 -1.8437499,1.5 0.3356119,-0.2799 0.7745119,-0.4375 1.2499999,-0.4375 l 44.1250008,0 c 0.475488,0 0.914388,0.1576 1.250005,0.4375 -0.172608,-0.8605 -0.926667,-1.5 -1.843755,-1.5 L 2.5312472,1005.0185 Z"/><path id="rect4280-0" fill="#000" fill-opacity=".392" stroke="none" d="m 1.9374972,1004.3622 c -1.0772769,0 -1.9374999,0.8602 -1.9374999,1.9375 l 0,43.0625 c 0,0.7934 0.480024,1.449 1.1562499,1.75 -0.3093419,-0.3333 -0.4999999,-0.7824 -0.4999999,-1.2812 l 0,-42.9375 c 0,-1.0482 0.8268989,-1.875 1.8749999,-1.875 l 42.9375008,0 c 1.048101,0 1.875005,0.8268 1.875005,1.875 l 0,42.9375 c 0,0.4988 -0.190663,0.9479 -0.500005,1.2812 0.676225,-0.301 1.156255,-0.9566 1.156255,-1.75 l 0,-43.0625 c 0,-1.0773 -0.860228,-1.9375 -1.937505,-1.9375 L 1.9374972,1004.3622 Z"/><g id="g4324" transform="translate(-54.835308,30.643931)"><path id="path4248" fill="#000" fill-opacity=".059" d="m 30.249998,5.2500019 c 0,1.8639609 -1.511039,3.3749998 -3.375,3.3749998 -1.863961,0 -3.375,-1.5110389 -3.375,-3.3749998 0,-1.8639609 1.511039,-3.3749998 3.375,-3.3749998 C 28.738959,1.8750021 30.249998,3.386041 30.249998,5.2500019 Z" transform="matrix(2.4225186,0,0,2.4223495,21.554126,985.00093)"/><path id="path4244" fill="#000" fill-opacity=".235" d="m 30.249998,5.2500019 c 0,1.8639609 -1.511039,3.3749998 -3.375,3.3749998 -1.863961,0 -3.375,-1.5110389 -3.375,-3.3749998 0,-1.8639609 1.511039,-3.3749998 3.375,-3.3749998 C 28.738959,1.8750021 30.249998,3.386041 30.249998,5.2500019 Z" transform="matrix(2.185486,0,0,2.1853335,27.924377,986.24526)"/><path id="path4246" fill="#000" fill-opacity=".118" d="m 30.249998,5.2500019 c 0,1.8639609 -1.511039,3.3749998 -3.375,3.3749998 -1.863961,0 -3.375,-1.5110389 -3.375,-3.3749998 0,-1.8639609 1.511039,-3.3749998 3.375,-3.3749998 C 28.738959,1.8750021 30.249998,3.386041 30.249998,5.2500019 Z" transform="matrix(2.3040002,0,0,2.3038391,24.739308,985.62311)"/><path id="path1384" fill="url(#linearGradient2193)" fill-opacity="1" d="m 30.249998,5.2500019 c 0,1.8639609 -1.511039,3.3749998 -3.375,3.3749998 -1.863961,0 -3.375,-1.5110389 -3.375,-3.3749998 0,-1.8639609 1.511039,-3.3749998 3.375,-3.3749998 C 28.738959,1.8750021 30.249998,3.386041 30.249998,5.2500019 Z" transform="matrix(2.0818241,0,0,2.081679,30.71029,986.78945)"/><path id="path2195" fill="url(#linearGradient2203)" fill-opacity="1" d="m 30.249998,5.2500019 c 0,1.8639609 -1.511039,3.3749998 -3.375,3.3749998 -1.863961,0 -3.375,-1.5110389 -3.375,-3.3749998 0,-1.8639609 1.511039,-3.3749998 3.375,-3.3749998 C 28.738959,1.8750021 30.249998,3.386041 30.249998,5.2500019 Z" opacity=".628" transform="matrix(1.809563,0,0,1.5761557,38.027306,988.20895)"/><path id="path2205" fill="url(#linearGradient2207)" fill-opacity="1" d="m 30.249998,5.2500019 c 0,1.8639609 -1.511039,3.3749998 -3.375,3.3749998 -1.863961,0 -3.375,-1.5110389 -3.375,-3.3749998 0,-1.8639609 1.511039,-3.3749998 3.375,-3.3749998 C 28.738959,1.8750021 30.249998,3.386041 30.249998,5.2500019 Z" opacity=".62" transform="matrix(1.4844795,0,0,1.2565708,46.763924,988.80826)"/><path id="path2209" fill="url(#linearGradient2219)" fill-opacity="1" d="m 86.659308,1002.8636 c -1.605446,0 -3.038378,0.1977 -4.098593,0.5204 1.157711,0.8397 2.558974,1.366 4.098593,1.366 1.53962,0 2.940883,-0.5263 4.098594,-1.366 C 89.697687,1003.0594 88.264755,1002.8636 86.659308,1002.8636 Z"/></g><g id="g4315" transform="translate(-50.880911,30.643931)"><path id="path4261" fill="#000" fill-opacity=".059" d="m 30.249998,5.2500019 c 0,1.8639609 -1.511039,3.3749998 -3.375,3.3749998 -1.863961,0 -3.375,-1.5110389 -3.375,-3.3749998 0,-1.8639609 1.511039,-3.3749998 3.375,-3.3749998 C 28.738959,1.8750021 30.249998,3.386041 30.249998,5.2500019 Z" transform="matrix(2.4225186,0,0,2.4223495,1.9517277,985.00093)"/><path id="path4263" fill="#000" fill-opacity=".235" d="m 30.249998,5.2500019 c 0,1.8639609 -1.511039,3.3749998 -3.375,3.3749998 -1.863961,0 -3.375,-1.5110389 -3.375,-3.3749998 0,-1.8639609 1.511039,-3.3749998 3.375,-3.3749998 C 28.738959,1.8750021 30.249998,3.386041 30.249998,5.2500019 Z" transform="matrix(2.185486,0,0,2.1853335,8.3219787,986.24526)"/><path id="path4265" fill="#000" fill-opacity=".118" d="m 30.249998,5.2500019 c 0,1.8639609 -1.511039,3.3749998 -3.375,3.3749998 -1.863961,0 -3.375,-1.5110389 -3.375,-3.3749998 0,-1.8639609 1.511039,-3.3749998 3.375,-3.3749998 C 28.738959,1.8750021 30.249998,3.386041 30.249998,5.2500019 Z" transform="matrix(2.3040002,0,0,2.3038391,5.1369097,985.62311)"/><path id="path4267" fill="url(#linearGradient4275)" fill-opacity="1" d="m 30.249998,5.2500019 c 0,1.8639609 -1.511039,3.3749998 -3.375,3.3749998 -1.863961,0 -3.375,-1.5110389 -3.375,-3.3749998 0,-1.8639609 1.511039,-3.3749998 3.375,-3.3749998 C 28.738959,1.8750021 30.249998,3.386041 30.249998,5.2500019 Z" transform="matrix(2.0818241,0,0,2.081679,11.107892,986.78945)"/><path id="path4269" fill="url(#linearGradient4277)" fill-opacity="1" d="m 30.249998,5.2500019 c 0,1.8639609 -1.511039,3.3749998 -3.375,3.3749998 -1.863961,0 -3.375,-1.5110389 -3.375,-3.3749998 0,-1.8639609 1.511039,-3.3749998 3.375,-3.3749998 C 28.738959,1.8750021 30.249998,3.386041 30.249998,5.2500019 Z" opacity=".628" transform="matrix(1.809563,0,0,1.5761557,18.424908,988.20895)"/><path id="path4271" fill="url(#linearGradient4279)" fill-opacity="1" d="m 30.249998,5.2500019 c 0,1.8639609 -1.511039,3.3749998 -3.375,3.3749998 -1.863961,0 -3.375,-1.5110389 -3.375,-3.3749998 0,-1.8639609 1.511039,-3.3749998 3.375,-3.3749998 C 28.738959,1.8750021 30.249998,3.386041 30.249998,5.2500019 Z" opacity=".62" transform="matrix(1.4844795,0,0,1.2565708,27.161526,988.80826)"/><path id="path4273" fill="url(#linearGradient4281)" fill-opacity="1" d="m 67.05691,1002.8636 c -1.605446,0 -3.038378,0.1977 -4.098593,0.5204 1.157711,0.8397 2.558974,1.366 4.098593,1.366 1.53962,0 2.940883,-0.5263 4.098594,-1.366 C 70.095289,1003.0594 68.662357,1002.8636 67.05691,1002.8636 Z"/></g></g></svg>