<svg xmlns="http://www.w3.org/2000/svg" xmlns:svg="http://www.w3.org/2000/svg" xmlns:xlink="http://www.w3.org/1999/xlink" id="svg2" width="48" height="48" version="1.1"><defs id="defs4"><linearGradient id="linearGradient14081"><stop id="stop14083" offset="0" stop-color="#ffe6a9" stop-opacity="1"/><stop id="stop14085" offset="1" stop-color="#fff2d3" stop-opacity="1"/></linearGradient><linearGradient id="linearGradient69"><stop id="stop71" offset="0" stop-color="#3b2a1c" stop-opacity="1"/><stop id="stop73" offset="1" stop-color="#966b4f" stop-opacity="1"/></linearGradient><linearGradient id="linearGradient46" x1="379.234" x2="379.234" y1="-487.901" y2="-439.784" gradientUnits="userSpaceOnUse" xlink:href="#linearGradient14081"/><linearGradient id="linearGradient66" x1="364.253" x2="353.136" y1="-462.268" y2="-462.268" gradientTransform="matrix(0,1,1,0,840.9336,86.64788)" gradientUnits="userSpaceOnUse" xlink:href="#linearGradient69"/></defs><metadata id="metadata7"/><g id="layer1" transform="translate(-353.14286,-439.79074)"><rect id="rect2991-1-7" width="48" height="48" x="353.143" y="-487.791" fill="url(#linearGradient46)" fill-opacity="1" stroke="none" ry="1.945" transform="scale(1,-1)"/><path id="path4065" fill="#231b09" fill-opacity=".287" stroke="none" d="m 353.14286,455.07199 0,0.5 48,0 0,-0.5 -48,0 z"/><path id="path4063" fill="#231b09" fill-opacity=".287" stroke="none" d="m 353.14286,463.38449 0,0.5 48,0 0,-0.5 -48,0 z"/><path id="path4061" fill="#231b09" fill-opacity=".287" stroke="none" d="m 353.14286,471.69699 0,0.5 48,0 0,-0.5 -48,0 z"/><path id="rect4090" fill="#231b09" fill-opacity=".287" stroke="none" d="m 353.14286,480.00949 0,0.5 48,0 0,-0.5 -48,0 z"/><rect id="rect4086" width=".5" height="48" x="357.893" y="439.791" fill="#d55051" fill-opacity=".368" stroke="none" ry="0"/><rect id="rect4088" width=".5" height="48" x="360.436" y="439.791" fill="#d55051" fill-opacity=".368" stroke="none" ry="0"/><path id="rect48" fill="url(#linearGradient66)" fill-opacity="1" stroke="none" d="m 401.14286,441.72824 c 0,-1.07728 -0.86022,-1.9375 -1.9375,-1.9375 l -44.125,0 c -1.07727,0 -1.9375,0.86022 -1.9375,1.9375 l 0,9.1875 48,0 L 401.14286,441.72824 Z"/><g id="g885" transform="matrix(0,1,-1,0,840.9336,86.64787)"><path id="rect75" fill="#fff" fill-opacity=".196" d="m 11.125,0 0,48 0.59375,0 0,-48 L 11.125,0 Z" transform="translate(353.14286,439.79074)"/><path id="rect877" fill="#000" fill-opacity=".196" d="m 10.53125,0 0,48 0.59375,0 0,-48 L 10.53125,0 Z" transform="translate(353.14286,439.79074)"/></g><path id="rect846" fill="#000" fill-opacity="1" stroke="none" d="m 353.14285,484.79076 0,1.0625 c 0,1.0773 0.86022,1.9375 1.9375,1.9375 l 44.125,0 c 1.07728,0 1.9375,-0.8602 1.9375,-1.9375 l 0,-1.0625 c 0,1.0773 -0.86022,1.9375 -1.9375,1.9375 l -44.125,0 C 354.00307,486.72826 353.14285,485.86806 353.14285,484.79076 Z"/><path id="path7515" fill="#fff" fill-opacity=".537" stroke="none" d="m 355.6741,440.44706 c -0.91709,0 -1.67115,0.6395 -1.84375,1.5 0.33561,-0.2799 0.77451,-0.4375 1.25,-0.4375 l 44.125,0 c 0.47549,0 0.91439,0.1576 1.25,0.4375 -0.1726,-0.8605 -0.92666,-1.5 -1.84375,-1.5 L 355.6741,440.44706 Z"/><path id="rect4280" fill="#000" fill-opacity=".392" stroke="none" d="m 355.08035,439.79076 c -1.07728,0 -1.9375,0.8602 -1.9375,1.9375 l 0,43.0625 c 0,0.7934 0.48002,1.449 1.15625,1.75 -0.30934,-0.3333 -0.5,-0.7824 -0.5,-1.2812 l 0,-42.9375 c 0,-1.0482 0.8269,-1.875 1.875,-1.875 l 42.9375,0 c 1.0481,0 1.875,0.8268 1.875,1.875 l 0,42.9375 c 0,0.4988 -0.19066,0.9479 -0.5,1.2812 0.67623,-0.301 1.15625,-0.9566 1.15625,-1.75 l 0,-43.0625 c 0,-1.0773 -0.86022,-1.9375 -1.9375,-1.9375 L 355.08035,439.79076 Z"/><path id="path4067" fill="#fff" fill-opacity=".314" stroke="none" d="m 377.14286,458.19076 c -5.52287,0 -10,4.47713 -10,10 0,5.52287 4.47713,10 10,10 5.52283,0 10,-4.47713 10,-10 0,-5.52287 -4.47717,-10 -10,-10 z m 0,0.83333 c 4.19891,0 7.73847,2.82328 8.82397,6.67499 -0.93496,1.92841 -2.26529,3.66468 -3.88545,5.06771 -0.77829,0.674 -1.62801,1.27487 -2.56664,1.69794 -0.93866,0.42304 -1.97108,0.66311 -2.99897,0.60415 -0.77228,-0.0442 -1.53513,-0.25941 -2.21144,-0.63435 1.79233,-0.97124 3.40952,-2.26614 4.73332,-3.81669 0.86891,-1.01776 1.62914,-2.17439 1.92188,-3.4802 0.14634,-0.65291 0.17115,-1.33669 0.0342,-1.99167 -0.13685,-0.65499 -0.43961,-1.27913 -0.89791,-1.76668 -0.44771,-0.47625 -1.03549,-0.81364 -1.66561,-0.9875 -0.63015,-0.17384 -1.30071,-0.1873 -1.94374,-0.0699 -1.28607,0.23503 -2.4343,0.98247 -3.35522,1.91042 -1.62327,1.63565 -2.62678,3.94356 -2.44272,6.24062 0.092,1.14851 0.47694,2.27711 1.13647,3.22188 0.14721,0.21088 0.30905,0.41175 0.4823,0.60208 -0.9608,0.33625 -1.95563,0.57562 -2.96459,0.71042 -0.86628,-1.39977 -1.36668,-3.04958 -1.36668,-4.81668 0,-5.0626 4.10407,-9.16666 9.16668,-9.16666 z m 0.0583,1.85208 c 0.64439,7.1e-4 1.29315,0.19597 1.80729,0.58439 0.46322,0.34993 0.80647,0.84781 1.00105,1.39479 0.19457,0.54698 0.24451,1.14094 0.17812,1.71771 -0.13271,1.15349 -0.71467,2.21132 -1.41771,3.13541 -1.2448,1.63619 -2.89939,2.94578 -4.73958,3.8625 -0.18836,0.0939 -0.3797,0.18301 -0.57188,0.26876 -0.4004,-0.35039 -0.7436,-0.766 -1.0052,-1.22918 -0.54663,-0.96781 -0.72689,-2.1175 -0.62084,-3.22397 0.106,-1.10643 0.48576,-2.17282 0.99584,-3.16041 0.5914,-1.14503 1.39755,-2.22964 2.52605,-2.85208 0.56423,-0.31121 1.20247,-0.4988 1.84686,-0.49792 z m 9.02605,6.0875 c 0.0538,0.40141 0.0822,0.81098 0.0822,1.22709 0,5.0626 -4.10407,9.16667 -9.16667,9.16667 -2.84321,0 -5.38425,-1.29435 -7.06562,-3.32605 1.03779,-0.23571 2.0521,-0.57425 3.025,-1.00521 0.42545,0.32401 0.89532,0.58978 1.39479,0.78126 1.43836,0.55143 3.0714,0.47164 4.52708,-0.0322 1.4557,-0.50394 2.74655,-1.40846 3.87188,-2.46041 1.34055,-1.25317 2.4708,-2.73025 3.33125,-4.35104 z"/><path id="path4069" fill="#000" fill-opacity=".314" stroke="none" d="m 377.14286,457.39076 c -5.52287,0 -10,4.47713 -10,10 0,5.52287 4.47713,10 10,10 5.52283,0 10,-4.47713 10,-10 0,-5.52287 -4.47717,-10 -10,-10 z m 0,0.83333 c 4.19891,0 7.73847,2.82328 8.82397,6.67499 -0.93496,1.92841 -2.26529,3.66468 -3.88545,5.06771 -0.77829,0.674 -1.62801,1.27487 -2.56664,1.69794 -0.93866,0.42304 -1.97108,0.66311 -2.99897,0.60415 -0.77228,-0.0442 -1.53513,-0.25941 -2.21144,-0.63435 1.79233,-0.97124 3.40952,-2.26614 4.73332,-3.81669 0.86891,-1.01776 1.62914,-2.17439 1.92188,-3.4802 0.14634,-0.65291 0.17115,-1.33669 0.0342,-1.99167 -0.13685,-0.65499 -0.43961,-1.27913 -0.89791,-1.76668 -0.44771,-0.47625 -1.03549,-0.81364 -1.66561,-0.9875 -0.63015,-0.17384 -1.30071,-0.1873 -1.94374,-0.0699 -1.28607,0.23503 -2.4343,0.98247 -3.35522,1.91042 -1.62327,1.63565 -2.62678,3.94356 -2.44272,6.24062 0.092,1.14851 0.47694,2.27711 1.13647,3.22188 0.14721,0.21088 0.30905,0.41175 0.4823,0.60208 -0.9608,0.33625 -1.95563,0.57562 -2.96459,0.71042 -0.86628,-1.39977 -1.36668,-3.04958 -1.36668,-4.81668 0,-5.0626 4.10407,-9.16666 9.16668,-9.16666 z m 0.0583,1.85208 c 0.64439,7.1e-4 1.29315,0.19597 1.80729,0.58439 0.46322,0.34993 0.80647,0.84781 1.00105,1.39479 0.19457,0.54698 0.24451,1.14094 0.17812,1.71771 -0.13271,1.15349 -0.71467,2.21132 -1.41771,3.13541 -1.2448,1.63619 -2.89939,2.94578 -4.73958,3.8625 -0.18836,0.0939 -0.3797,0.18301 -0.57188,0.26876 -0.4004,-0.35039 -0.7436,-0.766 -1.0052,-1.22918 -0.54663,-0.96781 -0.72689,-2.1175 -0.62084,-3.22397 0.106,-1.10643 0.48576,-2.17282 0.99584,-3.16041 0.5914,-1.14503 1.39755,-2.22964 2.52605,-2.85208 0.56423,-0.31121 1.20247,-0.4988 1.84686,-0.49792 z m 9.02605,6.0875 c 0.0538,0.40141 0.0822,0.81098 0.0822,1.22709 0,5.0626 -4.10407,9.16667 -9.16667,9.16667 -2.84321,0 -5.38425,-1.29435 -7.06562,-3.32605 1.03779,-0.23571 2.0521,-0.57425 3.025,-1.00521 0.42545,0.32401 0.89532,0.58978 1.39479,0.78126 1.43836,0.55143 3.0714,0.47164 4.52708,-0.0322 1.4557,-0.50394 2.74655,-1.40846 3.87188,-2.46041 1.34055,-1.25317 2.4708,-2.73025 3.33125,-4.35104 z"/><path id="path2993" fill="#c3b48f" fill-opacity="1" stroke="none" d="m 377.14286,457.79074 c -5.52287,0 -10,4.47713 -10,10 0,5.52287 4.47713,10 10,10 5.52283,0 10,-4.47713 10,-10 0,-5.52287 -4.47717,-10 -10,-10 z m 0,0.83333 c 4.19891,0 7.73847,2.82328 8.82397,6.67499 -0.93496,1.92841 -2.26529,3.66468 -3.88545,5.06771 -0.77829,0.674 -1.62801,1.27487 -2.56664,1.69794 -0.93866,0.42304 -1.97108,0.66311 -2.99897,0.60415 -0.77228,-0.0442 -1.53513,-0.25941 -2.21144,-0.63435 1.79233,-0.97124 3.40952,-2.26614 4.73332,-3.81669 0.86891,-1.01776 1.62914,-2.17439 1.92188,-3.4802 0.14634,-0.65291 0.17115,-1.33669 0.0342,-1.99167 -0.13685,-0.65499 -0.43961,-1.27913 -0.89791,-1.76668 -0.44771,-0.47625 -1.03549,-0.81364 -1.66561,-0.9875 -0.63015,-0.17384 -1.30071,-0.1873 -1.94374,-0.0699 -1.28607,0.23503 -2.4343,0.98247 -3.35522,1.91042 -1.62327,1.63565 -2.62678,3.94356 -2.44272,6.24062 0.092,1.14851 0.47694,2.27711 1.13647,3.22188 0.14721,0.21088 0.30905,0.41175 0.4823,0.60208 -0.9608,0.33625 -1.95563,0.57562 -2.96459,0.71042 -0.86628,-1.39977 -1.36668,-3.04958 -1.36668,-4.81668 0,-5.0626 4.10407,-9.16666 9.16668,-9.16666 z m 0.0583,1.85208 c 0.64439,7.1e-4 1.29315,0.19597 1.80729,0.58439 0.46322,0.34993 0.80647,0.84781 1.00105,1.39479 0.19457,0.54698 0.24451,1.14094 0.17812,1.71771 -0.13271,1.15349 -0.71467,2.21132 -1.41771,3.13541 -1.2448,1.63619 -2.89939,2.94578 -4.73958,3.8625 -0.18836,0.0939 -0.3797,0.18301 -0.57188,0.26876 -0.4004,-0.35039 -0.7436,-0.766 -1.0052,-1.22918 -0.54663,-0.96781 -0.72689,-2.1175 -0.62084,-3.22397 0.106,-1.10643 0.48576,-2.17282 0.99584,-3.16041 0.5914,-1.14503 1.39755,-2.22964 2.52605,-2.85208 0.56423,-0.31121 1.20247,-0.4988 1.84686,-0.49792 z m 9.02605,6.0875 c 0.0538,0.40141 0.0822,0.81098 0.0822,1.22709 0,5.0626 -4.10407,9.16667 -9.16667,9.16667 -2.84321,0 -5.38425,-1.29435 -7.06562,-3.32605 1.03779,-0.23571 2.0521,-0.57425 3.025,-1.00521 0.42545,0.32401 0.89532,0.58978 1.39479,0.78126 1.43836,0.55143 3.0714,0.47164 4.52708,-0.0322 1.4557,-0.50394 2.74655,-1.40846 3.87188,-2.46041 1.34055,-1.25317 2.4708,-2.73025 3.33125,-4.35104 z"/></g></svg>