<svg xmlns="http://www.w3.org/2000/svg" xmlns:svg="http://www.w3.org/2000/svg" xmlns:xlink="http://www.w3.org/1999/xlink" id="svg2" width="48" height="48" version="1.1" viewBox="0 0 13.547 13.547"><metadata id="metadata54"/><defs id="defs4"><linearGradient id="linearGradient960"><stop id="stop962" offset="0" stop-color="#272822" stop-opacity="1"/><stop id="stop964" offset="1" stop-color="#32342c" stop-opacity=".996"/></linearGradient><linearGradient id="linearGradient1061" x1="-31.188" x2="-31.188" y1="-1055.425" y2="-1007.487" gradientTransform="matrix(0.28222223,0,0,0.28222223,15.5575,284.3)" gradientUnits="userSpaceOnUse" xlink:href="#linearGradient960"/><linearGradient id="linearGradient4686"><stop id="stop4688" offset="0" stop-color="#524625" stop-opacity="1"/><stop id="stop4690" offset=".039" stop-color="#9e8749" stop-opacity="1"/><stop id="stop4692" offset=".94" stop-color="#c6af76" stop-opacity="1"/><stop id="stop4694" offset="1" stop-color="#000" stop-opacity="1"/></linearGradient><linearGradient id="linearGradient1127"><stop id="stop1129" offset="0" stop-color="#33bd6f" stop-opacity="1"/><stop id="stop1131" offset=".86" stop-color="#034726" stop-opacity="1"/><stop id="stop1133" offset="1" stop-color="#103c23" stop-opacity="1"/></linearGradient><linearGradient id="linearGradient3821"><stop id="stop3823" offset="0" stop-color="#000" stop-opacity="1"/><stop id="stop3825" offset="1" stop-color="#000" stop-opacity="0"/></linearGradient><linearGradient id="linearGradient1111" x1="-35.254" x2="-35.254" y1="17.011" y2="6.045" gradientTransform="matrix(0.24813,0,0,0.24813,15.797475,0.59789269)" gradientUnits="userSpaceOnUse" xlink:href="#linearGradient4686"/><linearGradient id="linearGradient1115" x1="-35.254" x2="-35.254" y1="17.011" y2="6.045" gradientTransform="matrix(0.24813,0,0,0.24813,15.797475,3.778844)" gradientUnits="userSpaceOnUse" xlink:href="#linearGradient4686"/><radialGradient id="radialGradient1125" cx="-54.136" cy="11.472" r="2.085" fx="-54.136" fy="11.472" gradientTransform="matrix(0.24813,0,0,0.24813,15.797475,0.74590223)" gradientUnits="userSpaceOnUse" xlink:href="#linearGradient1127"/><radialGradient id="radialGradient1137" cx="-54.136" cy="11.472" r="2.085" fx="-54.136" fy="11.472" gradientTransform="matrix(0.24813,0,0,0.24813,15.797475,3.9268536)" gradientUnits="userSpaceOnUse" xlink:href="#linearGradient1127"/><linearGradient id="linearGradient1161" x1="-27.877" x2="-26.184" y1="1028.478" y2="1028.478" gradientTransform="matrix(0.24813,0,0,0.24813,15.797475,-248.42287)" gradientUnits="userSpaceOnUse" xlink:href="#linearGradient3821"/><linearGradient id="linearGradient1163" x1="-32.91" x2="-31.217" y1="1028.478" y2="1028.478" gradientTransform="matrix(0.24813,0,0,0.24813,15.797475,-248.42287)" gradientUnits="userSpaceOnUse" xlink:href="#linearGradient3821"/><linearGradient id="linearGradient1165" x1="-37.943" x2="-36.25" y1="1028.478" y2="1028.478" gradientTransform="matrix(0.24813,0,0,0.24813,15.797475,-248.42287)" gradientUnits="userSpaceOnUse" xlink:href="#linearGradient3821"/><linearGradient id="linearGradient1167" x1="-42.976" x2="-41.283" y1="1028.478" y2="1028.478" gradientTransform="matrix(0.24813,0,0,0.24813,15.797475,-248.42287)" gradientUnits="userSpaceOnUse" xlink:href="#linearGradient3821"/><linearGradient id="linearGradient1175" x1="-27.877" x2="-26.184" y1="1016.43" y2="1016.43" gradientTransform="matrix(0.24813,0,0,0.24813,15.797475,-248.6145)" gradientUnits="userSpaceOnUse" xlink:href="#linearGradient3821"/><linearGradient id="linearGradient1177" x1="-32.91" x2="-31.217" y1="1016.43" y2="1016.43" gradientTransform="matrix(0.24813,0,0,0.24813,15.797475,-248.6145)" gradientUnits="userSpaceOnUse" xlink:href="#linearGradient3821"/><linearGradient id="linearGradient1179" x1="-37.943" x2="-36.25" y1="1016.43" y2="1016.43" gradientTransform="matrix(0.24813,0,0,0.24813,15.797475,-248.6145)" gradientUnits="userSpaceOnUse" xlink:href="#linearGradient3821"/><linearGradient id="linearGradient1181" x1="-42.976" x2="-41.283" y1="1016.43" y2="1016.43" gradientTransform="matrix(0.24813,0,0,0.24813,15.797475,-248.6145)" gradientUnits="userSpaceOnUse" xlink:href="#linearGradient3821"/><linearGradient id="linearGradient1195" x1="-35.254" x2="-35.254" y1="17.011" y2="6.045" gradientTransform="matrix(0.24813,0,0,0.24813,15.797475,6.9597722)" gradientUnits="userSpaceOnUse" xlink:href="#linearGradient4686"/><radialGradient id="radialGradient1197" cx="-54.136" cy="11.472" r="2.085" fx="-54.136" fy="11.472" gradientTransform="matrix(0.24813,0,0,0.24813,15.797475,7.1077817)" gradientUnits="userSpaceOnUse" xlink:href="#linearGradient1127"/><linearGradient id="linearGradient1199" x1="-42.976" x2="-41.283" y1="1028.478" y2="1028.478" gradientTransform="matrix(0.24813,0,0,0.24813,15.797475,-245.24194)" gradientUnits="userSpaceOnUse" xlink:href="#linearGradient3821"/><linearGradient id="linearGradient1201" x1="-37.943" x2="-36.25" y1="1028.478" y2="1028.478" gradientTransform="matrix(0.24813,0,0,0.24813,15.797475,-245.24194)" gradientUnits="userSpaceOnUse" xlink:href="#linearGradient3821"/><linearGradient id="linearGradient1203" x1="-32.91" x2="-31.217" y1="1028.478" y2="1028.478" gradientTransform="matrix(0.24813,0,0,0.24813,15.797475,-245.24194)" gradientUnits="userSpaceOnUse" xlink:href="#linearGradient3821"/><linearGradient id="linearGradient1205" x1="-27.877" x2="-26.184" y1="1028.478" y2="1028.478" gradientTransform="matrix(0.24813,0,0,0.24813,15.797475,-245.24194)" gradientUnits="userSpaceOnUse" xlink:href="#linearGradient3821"/></defs><rect id="rect2991-1" width="13.547" height="13.547" x="0" y="-13.547" fill="url(#linearGradient1061)" fill-opacity="1" stroke="none" ry=".549" transform="scale(1,-1)"/><path id="path4584" fill="#000" fill-opacity=".063" stroke="none" d="m 1.1095963,2.7656673 0,2.3305382 11.3274737,0 0,-2.3305382 -11.3274737,0 z m 0,3.1810634 0,2.330538 11.3274737,0 0,-2.330538 -11.3274737,0 z m 0,3.1810632 0,2.3305361 11.3274737,0 0,-2.3305361 -11.3274737,0 z"/><path id="path4582" fill="#000" fill-opacity=".118" stroke="none" d="m 1.1095963,2.6527785 0,2.3305382 11.3274737,0 0,-2.3305382 -11.3274737,0 z m 0,3.1810634 0,2.330538 11.3274737,0 0,-2.330538 -11.3274737,0 z m 0,3.1810632 0,2.3305369 11.3274737,0 0,-2.3305369 -11.3274737,0 z"/><path id="rect4573" fill="#000" fill-opacity=".235" stroke="none" d="m 1.1095963,2.5398897 0,2.3305382 11.3274737,0 0,-2.3305382 -11.3274737,0 z m 0,3.1810634 0,2.330538 11.3274737,0 0,-2.330538 -11.3274737,0 z m 0,3.1810632 0,2.3305377 11.3274737,0 0,-2.3305377 -11.3274737,0 z"/><path id="rect846" fill="#000" fill-opacity="1" stroke="none" d="m -1.9999999e-8,12.7 0,0.299861 c 0,0.304038 0.242774049999999,0.546806 0.546805569999999,0.546806 l 12.45305545,0 c 0.304032,0 0.546806,-0.242768 0.546806,-0.546806 l 0,-0.299861 c 0,0.304038 -0.242774,0.546806 -0.546806,0.546806 l -12.45305545,0 C 0.24277403,13.246806 -1.9999999e-8,13.004038 -1.9999999e-8,12.7 Z"/><path id="rect4280-4" fill="#000" fill-opacity=".392" stroke="none" d="M 0.54680555,-1.88294e-7 C 0.24277403,-1.88294e-7 -1.9999999e-8,0.24276737 -1.9999999e-8,0.54680538 l 0,12.15319462 c 0,0.223915 0.135473439999999,0.40894 0.326319449999999,0.493889 -0.0873032,-0.09407 -0.14111111,-0.220811 -0.14111111,-0.361583 l 0,-12.11791706 c 0,-0.29582534 0.23336928,-0.52916668 0.52916668,-0.52916668 l 12.117917,0 c 0.295797,0 0.529167,0.23334134 0.529167,0.52916668 l 0,12.11791706 c 0,0.140772 -0.05381,0.267518 -0.141111,0.361583 0.190846,-0.08495 0.326319,-0.269974 0.326319,-0.493889 l 0,-12.15319462 C 13.546667,0.24276737 13.303893,-1.88294e-7 12.999861,-1.88294e-7 l -12.45305545,0 z"/><path id="path7515" fill="#fff" fill-opacity=".537" stroke="none" d="m 0.714375,0.18522226 c -0.2588229,0 -0.47163483,0.18048112 -0.52034724,0.42333335 0.0947172,-0.078994 0.21858451,-0.12347223 0.35277779,-0.12347223 l 12.45305545,0 c 0.134194,0 0.258061,0.0444782 0.352778,0.12347223 -0.04871,-0.24285223 -0.261524,-0.42333335 -0.520347,-0.42333335 l -12.117917,0 z"/><rect id="rect1103" width="11.328" height="2.331" x="1.11" y="2.427" fill="url(#linearGradient1111)" fill-opacity="1" stroke="none" ry="0"/><circle id="path1117" cx="2.365" cy="3.592" r=".517" fill="url(#radialGradient1125)" fill-opacity="1" stroke="none"/><rect id="rect1139" width=".42" height="1.667" x="5.134" y="2.759" fill="url(#linearGradient1181)" fill-opacity="1" stroke="none"/><rect id="rect1141" width=".42" height="1.667" x="6.383" y="2.759" fill="url(#linearGradient1179)" fill-opacity="1" stroke="none"/><rect id="rect1143" width=".42" height="1.667" x="7.632" y="2.759" fill="url(#linearGradient1177)" fill-opacity="1" stroke="none"/><rect id="rect1145" width=".42" height="1.667" x="8.88" y="2.759" fill="url(#linearGradient1175)" fill-opacity="1" stroke="none"/><rect id="rect1113" width="11.328" height="2.331" x="1.11" y="5.608" fill="url(#linearGradient1115)" fill-opacity="1" stroke="none" ry="0"/><circle id="path1135" cx="2.365" cy="6.773" r=".517" fill="url(#radialGradient1137)" fill-opacity="1" stroke="none"/><rect id="rect1147" width=".42" height="1.667" x="5.134" y="5.94" fill="url(#linearGradient1167)" fill-opacity="1" stroke="none"/><rect id="rect1149" width=".42" height="1.667" x="6.383" y="5.94" fill="url(#linearGradient1165)" fill-opacity="1" stroke="none"/><rect id="rect1151" width=".42" height="1.667" x="7.632" y="5.94" fill="url(#linearGradient1163)" fill-opacity="1" stroke="none"/><rect id="rect1153" width=".42" height="1.667" x="8.88" y="5.94" fill="url(#linearGradient1161)" fill-opacity="1" stroke="none"/><rect id="rect1183" width="11.328" height="2.331" x="1.11" y="8.789" fill="url(#linearGradient1195)" fill-opacity="1" stroke="none" ry="0"/><circle id="path1185" cx="2.365" cy="9.954" r=".517" fill="url(#radialGradient1197)" fill-opacity="1" stroke="none"/><rect id="rect1187" width=".42" height="1.667" x="5.134" y="9.121" fill="url(#linearGradient1199)" fill-opacity="1" stroke="none"/><rect id="rect1189" width=".42" height="1.667" x="6.383" y="9.121" fill="url(#linearGradient1201)" fill-opacity="1" stroke="none"/><rect id="rect1191" width=".42" height="1.667" x="7.632" y="9.121" fill="url(#linearGradient1203)" fill-opacity="1" stroke="none"/><rect id="rect1193" width=".42" height="1.667" x="8.88" y="9.121" fill="url(#linearGradient1205)" fill-opacity="1" stroke="none"/><path id="rect4586" fill="#282923" fill-opacity=".314" stroke="none" d="M 3.9316406 16.056641 L 3.9316406 16.857422 L 44.068359 16.857422 L 44.068359 16.056641 L 3.9316406 16.056641 z M 3.9316406 27.328125 L 3.9316406 28.128906 L 44.068359 28.128906 L 44.068359 27.328125 L 3.9316406 27.328125 z M 3.9316406 38.599609 L 3.9316406 39.400391 L 44.068359 39.400391 L 44.068359 38.599609 L 3.9316406 38.599609 z" transform="scale(0.28222222,0.28222222)"/><path id="path4598" fill="#fff" fill-opacity=".235" stroke="none" d="m 1.1095963,9.0152351 0,-0.225998 11.3274737,0 0,0.225998 -11.3274737,0 z m 0,-3.1810634 0,-0.2259982 11.3274737,0 0,0.2259982 -11.3274737,0 z m 0,-3.1810633 0,-0.2259984 11.3274737,0 0,0.2259984 -11.3274737,0 z"/></svg>