<svg xmlns="http://www.w3.org/2000/svg" xmlns:svg="http://www.w3.org/2000/svg" xmlns:xlink="http://www.w3.org/1999/xlink" id="svg2" width="48" height="48" version="1.1"><defs id="defs4"><linearGradient id="linearGradient837" x1="73.724" x2="73.724" y1="-1049.648" y2="-1001.655" gradientTransform="translate(-52.117671,-2.7051588)" gradientUnits="userSpaceOnUse" xlink:href="#linearGradient872"/><linearGradient id="linearGradient872"><stop id="stop874" offset="0" stop-color="#e3ebed" stop-opacity=".996"/><stop id="stop876" offset="1" stop-color="#f4f8f9" stop-opacity=".997"/></linearGradient><style id="style2464" type="text/css"/><style id="style2464-7" type="text/css"/><linearGradient id="linearGradient3323"><stop id="stop3325" offset="0" stop-color="#f31a69" stop-opacity="1"/><stop id="stop3327" offset="1" stop-color="#fe6d45" stop-opacity="1"/></linearGradient><linearGradient id="linearGradient3306"><stop id="stop3308" offset="0" stop-color="#0ed2e4" stop-opacity="1"/><stop id="stop3310" offset="1" stop-color="#c7f5f9" stop-opacity="1"/></linearGradient><linearGradient id="linearGradient4392" x1="24" x2="6" y1="1026.362" y2="1045.362" gradientTransform="translate(1,0)" gradientUnits="userSpaceOnUse" xlink:href="#linearGradient3323"/><linearGradient id="linearGradient4394" x1="23" x2="23" y1="1021.09" y2="1038.362" gradientTransform="translate(1,0)" gradientUnits="userSpaceOnUse" xlink:href="#linearGradient3306"/><linearGradient id="linearGradient4396" x1="22" x2="40" y1="1026.362" y2="1045.362" gradientTransform="translate(1,0)" gradientUnits="userSpaceOnUse" xlink:href="#linearGradient3323"/><linearGradient id="linearGradient4398" x1="23" x2="23" y1="1021.09" y2="1038.362" gradientTransform="translate(1,0)" gradientUnits="userSpaceOnUse" xlink:href="#linearGradient3306"/></defs><metadata id="metadata7"/><g id="layer1" transform="translate(0,-1004.3622)"><rect id="rect2991-1" width="48" height="48" x="0" y="-1052.362" fill="url(#linearGradient837)" fill-opacity="1" stroke="none" ry="1.945" transform="scale(1,-1)"/><path color="#000" style="text-decoration-line:none;text-decoration-style:solid;text-decoration-color:#000;white-space:normal;isolation:auto;mix-blend-mode:normal;solid-color:#000;solid-opacity:1" id="path4433" fill="#000" fill-opacity=".059" fill-rule="nonzero" stroke="none" stroke-dasharray="none" stroke-dashoffset="0" stroke-linecap="butt" stroke-linejoin="miter" stroke-miterlimit="4" stroke-opacity="1" stroke-width="1" d="m 4.75,1014.1614 0,1.627 0,6.8164 0,1.625 0,1.6269 c 0.2687985,6.4347 7.408678,8.0062 12.830078,11.0938 -3.74536,3.5954 -7.9093772,6.9461 -8.9804686,8.0117 l 7.2089846,0 1.638672,0 c 3.402214,0 6.183347,-2.5545 6.519531,-5.8477 0.0065,0.024 0.01289,0.05 0.01758,0.072 l 0,-0.4297 c 0.005,-0.105 0.01563,-0.2082 0.01563,-0.3144 0,0.1062 0.01062,0.2094 0.01563,0.3144 l 0,0.4297 c 0.0047,-0.023 0.01107,-0.048 0.01758,-0.072 0.336184,3.2932 3.117316,5.8477 6.519531,5.8477 l 1.638672,0 7.208985,0 c -1.071092,-1.0656 -5.235109,-4.4163 -8.980469,-8.0117 5.42141,-3.0876 12.56125,-4.6589 12.830078,-11.0938 l 0,-1.6269 0,-1.625 0,-6.8164 0,-1.627 c -9.128254,5.5273 -19.234375,6.4918 -19.234375,13.2871 l 0,1.1367 c 0.440874,2.1533 3.221284,5.2853 6.298828,8.2637 -3.086744,-2.9738 -5.872065,-6.1005 -6.314453,-8.25 -0.442388,2.1495 -3.227709,5.2762 -6.314453,8.25 3.077543,-2.9784 5.857954,-6.1104 6.298828,-8.2637 l 0,-1.1367 c 0,-6.7953 -10.106121,-7.7598 -19.234375,-13.2871 z" clip-rule="nonzero" color-interpolation="sRGB" color-interpolation-filters="linearRGB" color-rendering="auto" display="inline" enable-background="accumulate" image-rendering="auto" opacity="1" overflow="visible" shape-rendering="auto" text-decoration="none" text-rendering="auto" visibility="visible"/><path id="path4429" fill="#000" fill-opacity=".118" fill-rule="nonzero" stroke="none" stroke-dasharray="none" stroke-dashoffset="0" stroke-linecap="butt" stroke-linejoin="miter" stroke-miterlimit="4" stroke-opacity="1" stroke-width="1" d="m 4.75,1013.7614 0,1.627 0,6.8164 0,1.625 0,1.6269 c 0.2687985,6.4347 7.408678,8.0062 12.830078,11.0938 -3.74536,3.5954 -7.9093772,6.9461 -8.9804686,8.0117 l 7.2089846,0 1.638672,0 c 3.402214,0 6.183347,-2.5545 6.519531,-5.8477 0.0065,0.024 0.01289,0.05 0.01758,0.072 l 0,-0.4297 c 0.005,-0.105 0.01563,-0.2082 0.01563,-0.3144 0,0.1062 0.01062,0.2094 0.01563,0.3144 l 0,0.4297 c 0.0047,-0.023 0.01107,-0.048 0.01758,-0.072 0.336184,3.2932 3.117316,5.8477 6.519531,5.8477 l 1.638672,0 7.208985,0 c -1.071092,-1.0656 -5.235109,-4.4163 -8.980469,-8.0117 5.42141,-3.0876 12.56125,-4.6589 12.830078,-11.0938 l 0,-1.6269 0,-1.625 0,-6.8164 0,-1.627 c -9.128254,5.5273 -19.234375,6.4918 -19.234375,13.2871 l 0,1.1367 c 0.440874,2.1533 3.221284,5.2853 6.298828,8.2637 -3.086744,-2.9738 -5.872065,-6.1005 -6.314453,-8.25 -0.442388,2.1495 -3.227709,5.2762 -6.314453,8.25 3.077543,-2.9784 5.857954,-6.1104 6.298828,-8.2637 l 0,-1.1367 c 0,-6.7953 -10.106121,-7.7598 -19.234375,-13.2871 z" clip-rule="nonzero" color="#000" color-interpolation="sRGB" color-interpolation-filters="linearRGB" color-rendering="auto" display="inline" enable-background="accumulate" image-rendering="auto" opacity="1" overflow="visible" shape-rendering="auto" text-decoration="none" text-rendering="auto" visibility="visible" style="text-decoration-line:none;text-decoration-style:solid;text-decoration-color:#000;white-space:normal;isolation:auto;mix-blend-mode:normal;solid-color:#000;solid-opacity:1"/><path color="#000" style="text-decoration-line:none;text-decoration-style:solid;text-decoration-color:#000;white-space:normal;isolation:auto;mix-blend-mode:normal;solid-color:#000;solid-opacity:1" id="path4408" fill="#000" fill-opacity=".235" fill-rule="nonzero" stroke="none" stroke-dasharray="none" stroke-dashoffset="0" stroke-linecap="butt" stroke-linejoin="miter" stroke-miterlimit="4" stroke-opacity="1" stroke-width="1" d="m 4.75,1013.3614 0,1.627 0,6.8164 0,1.625 0,1.6269 c 0.2687985,6.4347 7.408678,8.0062 12.830078,11.0938 -3.74536,3.5954 -7.9093772,6.9461 -8.9804686,8.0117 l 7.2089846,0 1.638672,0 c 3.402214,0 6.183347,-2.5545 6.519531,-5.8477 0.0065,0.024 0.01289,0.05 0.01758,0.072 l 0,-0.4297 c 0.005,-0.105 0.01563,-0.2082 0.01563,-0.3144 0,0.1062 0.01062,0.2094 0.01563,0.3144 l 0,0.4297 c 0.0047,-0.023 0.01107,-0.048 0.01758,-0.072 0.336184,3.2932 3.117316,5.8477 6.519531,5.8477 l 1.638672,0 7.208985,0 c -1.071092,-1.0656 -5.235109,-4.4163 -8.980469,-8.0117 5.42141,-3.0876 12.56125,-4.6589 12.830078,-11.0938 l 0,-1.6269 0,-1.625 0,-6.8164 0,-1.627 c -9.128254,5.5273 -19.234375,6.4918 -19.234375,13.2871 l 0,1.1367 c 0.440874,2.1533 3.221284,5.2853 6.298828,8.2637 -3.086744,-2.9738 -5.872065,-6.1005 -6.314453,-8.25 -0.442388,2.1495 -3.227709,5.2762 -6.314453,8.25 3.077543,-2.9784 5.857954,-6.1104 6.298828,-8.2637 l 0,-1.1367 c 0,-6.7953 -10.106121,-7.7598 -19.234375,-13.2871 z" clip-rule="nonzero" color-interpolation="sRGB" color-interpolation-filters="linearRGB" color-rendering="auto" display="inline" enable-background="accumulate" image-rendering="auto" opacity="1" overflow="visible" shape-rendering="auto" text-decoration="none" text-rendering="auto" visibility="visible"/><path id="rect846" fill="#000" fill-opacity="1" stroke="none" d="m -4.8327637e-7,1049.3623 0,1.0625 c 0,1.0773 0.86022300327637,1.9375 1.93749998327637,1.9375 l 44.1250005,0 c 1.077277,0 1.937499,-0.8602 1.937499,-1.9375 l 0,-1.0625 c 0,1.0773 -0.860222,1.9375 -1.937499,1.9375 l -44.1250005,0 C 0.86022252,1051.2998 -4.8327637e-7,1050.4396 -4.8327637e-7,1049.3623 Z"/><path id="path7515" fill="#fff" fill-opacity=".537" stroke="none" d="m 2.5312495,1005.0186 c -0.917088,0 -1.67114598,0.6395 -1.84374998,1.5 0.33561198,-0.2799 0.77451298,-0.4375 1.24999998,-0.4375 l 44.1250005,0 c 0.475488,0 0.914388,0.1576 1.25,0.4375 -0.172603,-0.8605 -0.926662,-1.5 -1.84375,-1.5 L 2.5312495,1005.0186 Z"/><path id="rect4280-9" fill="#000" fill-opacity=".392" stroke="none" d="m 1.9374995,1004.3623 c -1.07727698,0 -1.93749998327637,0.8602 -1.93749998327637,1.9375 l 0,43.0625 c 0,0.7934 0.48002400327637,1.449 1.15624998327637,1.75 -0.30934098,-0.3333 -0.49999998,-0.7824 -0.49999998,-1.2812 l 0,-42.9375 c 0,-1.0482 0.82689898,-1.875 1.87499998,-1.875 l 42.9375005,0 c 1.048101,0 1.875,0.8268 1.875,1.875 l 0,42.9375 c 0,0.4988 -0.190658,0.9479 -0.5,1.2812 0.676226,-0.301 1.156249,-0.9566 1.156249,-1.75 l 0,-43.0625 c 0,-1.0773 -0.860222,-1.9375 -1.937499,-1.9375 L 1.9374995,1004.3623 Z"/><g id="g4400" transform="matrix(0.9625,0,0,0.9625,0.9,38.563583)"><path color="#000" style="text-decoration-line:none;text-decoration-style:solid;text-decoration-color:#000;white-space:normal;isolation:auto;mix-blend-mode:normal;solid-color:#000;solid-opacity:1" id="path4176" fill="url(#linearGradient4396)" fill-opacity="1" fill-rule="nonzero" stroke="none" stroke-dasharray="none" stroke-dashoffset="0" stroke-linecap="butt" stroke-linejoin="miter" stroke-miterlimit="4" stroke-opacity="1" stroke-width="1" d="m 24,1027.3622 c 1.0213,4.9624 13.95741,14.9679 16,17 l -7.48933,0 -1.70217,0 c -3.7719,0 -6.8085,-3.021 -6.8085,-6.773 l 0,-2.0995 0,-1.6933 z" clip-rule="nonzero" color-interpolation="sRGB" color-interpolation-filters="linearRGB" color-rendering="auto" display="inline" enable-background="accumulate" image-rendering="auto" opacity="1" overflow="visible" shape-rendering="auto" text-decoration="none" text-rendering="auto" visibility="visible"/><path id="path4178" fill="url(#linearGradient4394)" fill-opacity="1" fill-rule="nonzero" stroke="none" stroke-dasharray="none" stroke-dashoffset="0" stroke-linecap="butt" stroke-linejoin="miter" stroke-miterlimit="4" stroke-opacity="1" stroke-width="1" d="m 4,1012.3622 0,1.6894 0,7.0821 0,1.6894 0,1.6895 c 0.27931,6.6864 7.69912,8.3186 13.33203,11.5273 3.24145,-3.1263 6.189,-6.4302 6.65235,-8.6933 l 0,-1.1797 c 0,-7.0601 -10.50048,-8.062 -19.98438,-13.8047 z m 19.98438,25.2129 c 0,0.222 -0.01253,0.4418 -0.03321,0.6582 0.01219,0.044 0.02476,0.088 0.03321,0.1289 l 0,-0.7871 z" clip-rule="nonzero" color="#000" color-interpolation="sRGB" color-interpolation-filters="linearRGB" color-rendering="auto" display="inline" enable-background="accumulate" image-rendering="auto" opacity="1" overflow="visible" shape-rendering="auto" text-decoration="none" text-rendering="auto" visibility="visible" style="text-decoration-line:none;text-decoration-style:solid;text-decoration-color:#000;white-space:normal;isolation:auto;mix-blend-mode:normal;solid-color:#000;solid-opacity:1"/><path id="path4190" fill="url(#linearGradient4398)" fill-opacity="1" fill-rule="nonzero" stroke="none" stroke-dasharray="none" stroke-dashoffset="0" stroke-linecap="butt" stroke-linejoin="miter" stroke-miterlimit="4" stroke-opacity="1" stroke-width="1" d="m 44,1012.3622 c -9.4839,5.7427 -19.98438,6.7446 -19.98438,13.8047 l 0,1.1797 c 0.46335,2.2631 3.4109,5.567 6.65235,8.6933 5.63292,-3.2087 13.05269,-4.8407 13.33203,-11.5273 l 0,-1.6895 0,-1.6894 0,-7.0821 0,-1.6894 z m -19.98438,25.2129 0,0.7871 c 0.0084,-0.041 0.02102,-0.085 0.03321,-0.1289 -0.02068,-0.2164 -0.03321,-0.4362 -0.03321,-0.6582 z" clip-rule="nonzero" color="#000" color-interpolation="sRGB" color-interpolation-filters="linearRGB" color-rendering="auto" display="inline" enable-background="accumulate" image-rendering="auto" opacity="1" overflow="visible" shape-rendering="auto" text-decoration="none" text-rendering="auto" visibility="visible" style="text-decoration-line:none;text-decoration-style:solid;text-decoration-color:#000;white-space:normal;isolation:auto;mix-blend-mode:normal;solid-color:#000;solid-opacity:1"/><path id="path4198" fill="url(#linearGradient4392)" fill-opacity="1" fill-rule="nonzero" stroke="none" stroke-dasharray="none" stroke-dashoffset="0" stroke-linecap="butt" stroke-linejoin="miter" stroke-miterlimit="4" stroke-opacity="1" stroke-width="1" d="m 24,1027.3622 c -1.0213,4.9624 -13.95741,14.9679 -16,17 l 7.48933,0 1.70217,0 c 3.7719,0 6.8085,-3.021 6.8085,-6.773 l 0,-2.0995 0,-1.6933 z" clip-rule="nonzero" color="#000" color-interpolation="sRGB" color-interpolation-filters="linearRGB" color-rendering="auto" display="inline" enable-background="accumulate" image-rendering="auto" opacity="1" overflow="visible" shape-rendering="auto" text-decoration="none" text-rendering="auto" visibility="visible" style="text-decoration-line:none;text-decoration-style:solid;text-decoration-color:#000;white-space:normal;isolation:auto;mix-blend-mode:normal;solid-color:#000;solid-opacity:1"/></g><path color="#000" style="text-decoration-line:none;text-decoration-style:solid;text-decoration-color:#000;white-space:normal;isolation:auto;mix-blend-mode:normal;solid-color:#000;solid-opacity:1" id="path4458" fill="#76a0a5" fill-opacity=".314" fill-rule="nonzero" stroke="none" stroke-dasharray="none" stroke-dashoffset="0" stroke-linecap="butt" stroke-linejoin="miter" stroke-miterlimit="4" stroke-opacity="1" stroke-width="1" d="M 4.75 19.494141 L 4.75 20.294922 C 5.0099494 26.51779 11.684001 28.203553 17.027344 31.099609 C 17.211766 30.925498 17.397242 30.763406 17.580078 30.587891 C 12.15868 27.500291 5.0187984 25.928841 4.75 19.494141 z M 43.25 19.494141 C 42.981172 25.929041 35.84133 27.500291 30.419922 30.587891 C 30.602758 30.763406 30.788234 30.925498 30.972656 31.099609 C 36.316006 28.203565 42.990022 26.517984 43.25 20.294922 L 43.25 19.494141 z M 23.984375 22.222656 C 23.543501 24.375956 20.763089 27.507928 17.685547 30.486328 C 20.750112 27.533894 23.511845 24.433096 23.984375 22.285156 L 23.984375 22.222656 z M 24.015625 22.222656 L 24.015625 22.285156 C 24.488155 24.433096 27.249888 27.533894 30.314453 30.486328 C 27.23691 27.507928 24.456499 24.375956 24.015625 22.222656 z M 24 32.080078 C 24 32.186278 23.989375 32.289531 23.984375 32.394531 L 23.984375 32.824219 C 23.979685 32.802219 23.973297 32.775953 23.966797 32.751953 C 23.630613 36.045153 20.849479 38.599609 17.447266 38.599609 L 15.808594 38.599609 L 9.4902344 38.599609 C 9.1535666 38.89691 8.7790964 39.221825 8.5996094 39.400391 L 15.808594 39.400391 L 17.447266 39.400391 C 20.84948 39.400391 23.630613 36.84593 23.966797 33.552734 C 23.9733 33.57696 23.979682 33.602431 23.984375 33.625 L 23.984375 33.195312 C 23.989379 33.090333 24 32.987113 24 32.880859 C 24 32.987113 24.010621 33.090333 24.015625 33.195312 L 24.015625 33.625 C 24.0203 33.601912 24.026694 33.57679 24.033203 33.552734 C 24.369387 36.84593 27.150519 39.400391 30.552734 39.400391 L 32.191406 39.400391 L 39.400391 39.400391 C 39.220904 39.221825 38.846433 38.89691 38.509766 38.599609 L 32.191406 38.599609 L 30.552734 38.599609 C 27.15052 38.599609 24.369387 36.045153 24.033203 32.751953 C 24.026693 32.775953 24.020325 32.801219 24.015625 32.824219 L 24.015625 32.394531 C 24.010615 32.289531 24 32.186278 24 32.080078 z" clip-rule="nonzero" color-interpolation="sRGB" color-interpolation-filters="linearRGB" color-rendering="auto" display="inline" enable-background="accumulate" image-rendering="auto" opacity="1" overflow="visible" shape-rendering="auto" text-decoration="none" text-rendering="auto" transform="translate(0,1004.3622)" visibility="visible"/><path color="#000" style="text-decoration-line:none;text-decoration-style:solid;text-decoration-color:#000;white-space:normal;isolation:auto;mix-blend-mode:normal;solid-color:#000;solid-opacity:1" id="path4465" fill="#fff" fill-opacity=".235" fill-rule="nonzero" stroke="none" stroke-dasharray="none" stroke-dashoffset="0" stroke-linecap="butt" stroke-linejoin="miter" stroke-miterlimit="4" stroke-opacity="1" stroke-width="1" d="M 4.75 8.5996094 L 4.75 9 C 13.878254 14.5273 23.984375 15.491809 23.984375 22.287109 L 23.984375 21.886719 C 23.984375 15.091419 13.878254 14.126909 4.75 8.5996094 z M 43.25 8.5996094 C 34.121746 14.126909 24.015625 15.091419 24.015625 21.886719 L 24.015625 22.287109 C 24.015625 15.491809 34.121746 14.5273 43.25 9 L 43.25 8.5996094 z M 24 23.037109 C 23.996822 23.052553 23.987795 23.070393 23.984375 23.085938 L 23.984375 23.423828 C 23.543501 25.577128 20.76309 28.7091 17.685547 31.6875 C 20.772291 28.7137 23.557612 25.587 24 23.4375 C 24.442388 25.587 27.227709 28.7137 30.314453 31.6875 C 27.236909 28.7091 24.456499 25.577128 24.015625 23.423828 L 24.015625 23.085938 C 24.012205 23.070393 24.003178 23.052553 24 23.037109 z M 17.304688 31.644531 C 13.632703 35.139553 9.644607 38.360757 8.5996094 39.400391 L 9.0429688 39.400391 C 10.475656 38.087004 14.147541 35.084165 17.580078 31.789062 C 17.491087 31.73838 17.394567 31.694425 17.304688 31.644531 z M 30.695312 31.644531 C 30.605433 31.694425 30.508913 31.73838 30.419922 31.789062 C 33.852459 35.084165 37.524344 38.087004 38.957031 39.400391 L 39.400391 39.400391 C 38.355392 38.360757 34.367297 35.139553 30.695312 31.644531 z" clip-rule="nonzero" color-interpolation="sRGB" color-interpolation-filters="linearRGB" color-rendering="auto" display="inline" enable-background="accumulate" image-rendering="auto" opacity="1" overflow="visible" shape-rendering="auto" text-decoration="none" text-rendering="auto" transform="translate(0,1004.3622)" visibility="visible"/></g></svg>