<svg xmlns="http://www.w3.org/2000/svg" xmlns:svg="http://www.w3.org/2000/svg" xmlns:xlink="http://www.w3.org/1999/xlink" id="svg2" width="48" height="48" version="1.1"><defs id="defs4"><linearGradient id="linearGradient4332"><stop id="stop4334" offset="0" stop-color="#fff" stop-opacity=".235"/><stop id="stop4336" offset="1" stop-color="#fff" stop-opacity="0"/></linearGradient><linearGradient id="linearGradient4294"><stop id="stop4296" offset="0" stop-color="#00c0f8" stop-opacity=".996"/><stop id="stop4298" offset="1" stop-color="#c7f5ff" stop-opacity="1"/></linearGradient><linearGradient id="linearGradient4272"><stop id="stop4274" offset="0" stop-color="#fff" stop-opacity="1"/><stop id="stop4276" offset="1" stop-color="#fff" stop-opacity="0"/></linearGradient><linearGradient id="linearGradient4089"><stop id="stop4091" offset="0" stop-color="#00c2fb" stop-opacity=".996"/><stop id="stop4093" offset="1" stop-color="#97edff" stop-opacity="1"/></linearGradient><linearGradient id="linearGradient872"><stop id="stop874" offset="0" stop-color="#c9dcd9" stop-opacity=".998"/><stop id="stop876" offset="1" stop-color="#b8c5d9" stop-opacity=".996"/></linearGradient><linearGradient id="linearGradient843" x1="-35.844" x2="-35.844" y1="-1057.985" y2="-1009.976" gradientTransform="translate(56.880463,5.6151998)" gradientUnits="userSpaceOnUse" xlink:href="#linearGradient872"/><linearGradient id="linearGradient4103" x1="30.75" x2="30.75" y1="35.538" y2="8.625" gradientTransform="translate(0,1004.3622)" gradientUnits="userSpaceOnUse" xlink:href="#linearGradient4294"/><linearGradient id="linearGradient4118" x1="37.388" x2="10.518" y1="17.064" y2="17.064" gradientTransform="translate(0,1004.3622)" gradientUnits="userSpaceOnUse" xlink:href="#linearGradient4089"/><linearGradient id="linearGradient4278" x1="8.148" x2="16.516" y1="12.338" y2="26.831" gradientUnits="userSpaceOnUse" xlink:href="#linearGradient4272"/><linearGradient id="linearGradient4338" x1="27.367" x2="27.367" y1="26.919" y2="28.422" gradientUnits="userSpaceOnUse" xlink:href="#linearGradient4332"/><linearGradient id="linearGradient4344" x1="27.367" x2="27.367" y1="26.919" y2="28.422" gradientTransform="translate(2,1008.3622)" gradientUnits="userSpaceOnUse" xlink:href="#linearGradient4332"/></defs><metadata id="metadata7"/><g id="layer1" transform="translate(0,-1004.3622)"><rect id="rect2991-1-0" width="48" height="48" x="0" y="-1052.362" fill="url(#linearGradient843)" fill-opacity="1" stroke="none" ry="1.945" transform="scale(1,-1)"/><path id="path4137" fill="#000" fill-opacity=".059" stroke="none" d="m 28.272718,27.839727 -15.113512,8.72579 -15.1135113,-8.72579 10e-8,-17.45158 L 13.159206,1.6623573 28.272718,10.388147 Z" transform="matrix(0.88244159,0,0,0.88244159,12.387769,1012.6953)"/><path id="path4135" fill="#000" fill-opacity=".118" stroke="none" d="m 28.272718,27.839727 -15.113512,8.72579 -15.1135113,-8.72579 10e-8,-17.45158 L 13.159206,1.6623573 28.272718,10.388147 Z" transform="matrix(0.88244159,0,0,0.88244159,12.387769,1012.2953)"/><path id="path4120" fill="#000" fill-opacity=".235" stroke="none" d="m 28.272718,27.839727 -15.113512,8.72579 -15.1135113,-8.72579 10e-8,-17.45158 L 13.159206,1.6623573 28.272718,10.388147 Z" transform="matrix(0.88244159,0,0,0.88244159,12.387769,1011.8953)"/><path id="path7515-3" fill="#fff" fill-opacity=".537" stroke="none" d="m 2.5312498,1005.0185 c -0.917089,0 -1.67114698,0.6395 -1.84374998,1.5 0.33561198,-0.2799 0.77451198,-0.4375 1.24999998,-0.4375 l 44.1250002,0 c 0.475488,0 0.914388,0.1576 1.25,0.4375 -0.172603,-0.8605 -0.926662,-1.5 -1.84375,-1.5 L 2.5312498,1005.0185 Z"/><path id="rect4280-3" fill="#000" fill-opacity=".392" stroke="none" d="m 1.9374998,1004.3622 c -1.07727698,0 -1.93749997675782,0.8602 -1.93749997675782,1.9375 l 0,43.0625 c 0,0.7934 0.48002299675782,1.449 1.15624997675782,1.75 -0.30934198,-0.3333 -0.49999998,-0.7824 -0.49999998,-1.2812 l 0,-42.9375 c 0,-1.0482 0.82689898,-1.875 1.87499998,-1.875 l 42.9375002,0 c 1.048101,0 1.875,0.8268 1.875,1.875 l 0,42.9375 c 0,0.4988 -0.190658,0.9479 -0.5,1.2812 0.676226,-0.301 1.15625,-0.9566 1.15625,-1.75 l 0,-43.0625 c 0,-1.0773 -0.860223,-1.9375 -1.9375,-1.9375 L 1.9374998,1004.3622 Z"/><path id="rect846-3" fill="#000" fill-opacity="1" stroke="none" d="m -1.7675782e-7,1049.3622 0,1.0625 c 0,1.0773 0.86022299675782,1.9375 1.93749997675782,1.9375 l 44.1250002,0 c 1.077277,0 1.9375,-0.8602 1.9375,-1.9375 l 0,-1.0625 c 0,1.0773 -0.860223,1.9375 -1.9375,1.9375 l -44.1250002,0 C 0.86022282,1051.2997 -1.7675782e-7,1050.4395 -1.7675782e-7,1049.3622 Z"/><path id="path4045" fill="#afeeff" fill-opacity="1" stroke="none" d="m 28.272718,27.839727 -15.113512,8.72579 -15.1135113,-8.72579 10e-8,-17.45158 L 13.159206,1.6623573 28.272718,10.388147 Z" transform="matrix(0.88244159,0,0,0.88244159,12.387769,1011.4953)"/><path id="path4047" fill="url(#linearGradient4103)" fill-opacity="1" stroke="none" d="m 24,1012.9618 c 0.0287,6.2231 0.440497,12.5419 0.508019,18.7746 0.04401,4.0621 -0.05822,8.0876 -0.508019,12.0262 L 37.335938,1036.0614 37.335938,1020.663 Z"/><path id="path4300" fill="#fff" fill-opacity=".118" stroke="none" d="m 24,8.5996094 0,14.5527346 c 2.194427,-0.419454 4.04106,-0.467094 5.593327,-0.232205 1.327188,0.20083 3.853402,-1.071183 4.78361,-0.513086 1.050677,0.630375 0.01327,3.309207 0.64821,4.24377 1.057108,1.555944 2.046671,3.245244 2.306884,5.050349 l 0.0039,-0.002 L 37.335938,16.300781 Z" transform="translate(0,1004.3622)"/><path id="path4139" fill="#43d4fc" fill-opacity=".314" stroke="none" d="m 10.664062,1035.2626 0,0.7988 13.335938,7.7012 13.335938,-7.7012 0,-0.7988 L 24,1042.9618 10.664062,1035.2626 Z"/><path id="path4250" fill="url(#linearGradient4278)" fill-opacity="1" stroke="none" d="m 16.478516,12.943359 -5.814454,3.357422 0,15.369141 3.10045,-1.790231 1.808236,-3.7479 4.587063,-1.606804 L 29.789062,20.626953 Z" transform="translate(0,1004.3622)"/><path id="path4063" fill="url(#linearGradient4118)" fill-opacity="1" stroke="none" d="m 24,1012.9618 -13.337891,7.7012 c 6.266026,2.369 7.86499,5.9369 13.337891,7.6992 6.028371,-0.5248 7.822044,-5.2962 13.335938,-7.6973 l 0,0 0,0 0,0 L 37.335938,1020.6649 Z"/><path id="path4054" fill="#fff" fill-opacity=".235" stroke="none" d="m 24,1012.9618 13.335938,7.7012 0.002,0 L 24,1012.9618 Z"/><path id="path4144" fill="#fff" fill-opacity=".235" stroke="none" d="m 24,1012.9618 -13.337891,7.7012 0.347657,0.1992 12.990234,-7.5 12.988281,7.502 0.347657,-0.1993 0,-0 L 24,1012.9618 Z"/><path id="path4322" fill="#fff" fill-opacity=".118" stroke="none" stroke-linecap="butt" stroke-linejoin="miter" stroke-opacity="1" stroke-width="1" d="m 14.142136,16.003418 10.526768,-6.0776322 10.353335,5.9775012 -2.47119,1.426742 c 0,0 0.673678,-2.297182 -2.194297,-3.800634 -2.867976,-1.503452 -4.017024,-2.917666 -5.608015,-0.973122 -1.59099,1.944543 -2.209708,2.298097 -4.154252,2.12132 -1.944544,-0.176777 -5.303301,0.176777 -5.126524,1.502602 0.176776,1.325825 -0.795495,2.298097 -1.414214,1.502602 C 13.435029,16.887302 14.142136,16.003418 14.142136,16.003418 Z" transform="translate(0,1004.3622)"/><path id="path4324" fill="#fff" fill-opacity=".118" stroke="none" stroke-linecap="butt" stroke-linejoin="miter" stroke-opacity="1" stroke-width="1" d="m 19.622213,20.334447 4.09816,2.366074 5.522649,-1.47979 c 0,0 -3.931659,-3.959267 -3.660545,-2.113416 0.271115,1.845851 0.315309,2.906511 -0.922128,2.729734 C 23.422912,21.660272 22.936776,19.62734 21.080621,19.759923 19.224466,19.892505 19.622213,20.334447 19.622213,20.334447 Z" transform="translate(0,1004.3622)"/><path id="path4326" fill="#fff" fill-opacity=".118" stroke="none" d="m 28.344354,1032.4587 c 0,0.4921 -0.398882,0.8909 -0.890927,0.8909 -0.492045,0 -0.890927,-0.3988 -0.890927,-0.8909 0,-0.492 0.890927,-2.4659 0.890927,-2.4659 C 27.453427,1029.9928 28.344354,1031.9667 28.344354,1032.4587 Z"/><path id="path4329" fill="url(#linearGradient4338)" fill-opacity="1" stroke="none" d="m 28.019107,28.20101 c 0,0.311199 -0.252277,0.563475 -0.563476,0.563475 -0.311199,0 -0.563475,-0.252276 -0.563475,-0.563475 0,-0.311199 0.563475,-1.712524 0.563475,-1.712524 C 27.455631,26.488486 28.019107,27.889811 28.019107,28.20101 Z" transform="translate(0,1004.3622)"/><path id="path4340" fill="#fff" fill-opacity=".118" stroke="none" d="m 30.344354,1036.4587 c 0,0.4921 -0.398882,0.8909 -0.890927,0.8909 -0.492045,0 -0.890927,-0.3988 -0.890927,-0.8909 0,-0.492 0.890927,-2.4659 0.890927,-2.4659 C 29.453427,1033.9928 30.344354,1035.9667 30.344354,1036.4587 Z"/><path id="path4342" fill="url(#linearGradient4344)" fill-opacity="1" stroke="none" d="m 30.019107,1036.5632 c 0,0.3112 -0.252277,0.5635 -0.563476,0.5635 -0.311199,0 -0.563475,-0.2523 -0.563475,-0.5635 0,-0.3112 0.563475,-1.7125 0.563475,-1.7125 C 29.455631,1034.8507 30.019107,1036.252 30.019107,1036.5632 Z"/><path id="path4348" fill="#fff" fill-opacity=".235" stroke="none" d="m 14.125,1037.0121 1.363261,0.7871 0,-5.2871 3.063451,1.7687 0,-1.8937 -2.563303,-1.4799 0,-1.4576 4.466225,2.5786 0,-2.3286 -6.326776,-3.6272 C 14.127858,1029.5914 14.125,1033.3551 14.125,1037.0121 Z"/><path id="path4346" fill="#20cafb" fill-opacity="1" stroke="none" d="m 14.125,1036.6122 1.363261,0.7871 0,-5.2871 3.063451,1.7687 0,-1.8937 -2.563303,-1.4799 0,-1.4576 4.466225,2.5786 0,-2.3286 -6.326776,-3.6272 C 14.127858,1029.1915 14.125,1032.9552 14.125,1036.6122 Z"/></g></svg>