<svg xmlns="http://www.w3.org/2000/svg" xmlns:svg="http://www.w3.org/2000/svg" xmlns:xlink="http://www.w3.org/1999/xlink" id="svg2" width="48" height="48" version="1.1"><defs id="defs4"><linearGradient id="linearGradient4188"><stop id="stop4190" offset="0" stop-color="#10e829" stop-opacity="1"/><stop id="stop4192" offset="1" stop-color="#10e829" stop-opacity="0"/></linearGradient><linearGradient id="linearGradient4161"><stop id="stop4163" offset="0" stop-color="#2b62c5" stop-opacity="1"/><stop id="stop4165" offset="1" stop-color="#2b62c5" stop-opacity="0"/></linearGradient><linearGradient id="linearGradient4077"><stop id="stop4079" offset="0" stop-color="#0a1048" stop-opacity="1"/><stop id="stop4153" offset=".5" stop-color="#06081e" stop-opacity="1"/><stop id="stop4081" offset="1" stop-color="#090b34" stop-opacity="1"/></linearGradient><linearGradient id="linearGradient842" x1="23.625" x2="23.625" y1="-1052.362" y2="-1004.362" gradientUnits="userSpaceOnUse" xlink:href="#linearGradient4077"/><radialGradient id="radialGradient4167" cx="-878.876" cy="536.044" r=".5" fx="-878.876" fy="536.044" gradientTransform="matrix(0.5,-0.8660254,62.353816,35.999993,-32960.144,-20033.91)" gradientUnits="userSpaceOnUse" xlink:href="#linearGradient4161"/><radialGradient id="radialGradient4179" cx="-879.198" cy="536.094" r=".5" fx="-879.198" fy="536.094" gradientTransform="matrix(0.70710678,-0.70710678,18.002805,18.002805,-9002.5163,-10258.89)" gradientUnits="userSpaceOnUse" xlink:href="#linearGradient4161"/><radialGradient id="radialGradient4194" cx="11.5" cy="1035.862" r="3.5" fx="11.5" fy="1035.862" gradientTransform="matrix(2.1428572,0,0,2.1428572,-13.142857,-1183.8425)" gradientUnits="userSpaceOnUse" xlink:href="#linearGradient4188"/></defs><metadata id="metadata7"/><g id="layer1" transform="translate(0,-1004.3622)"><rect id="rect2991-1" width="48" height="48" x="0" y="-1052.362" fill="url(#linearGradient842)" fill-opacity="1" stroke="none" ry="1.945" transform="scale(1,-1)"/><path color="#000" style="text-decoration-line:none;text-decoration-style:solid;text-decoration-color:#000;white-space:normal;isolation:auto;mix-blend-mode:normal;solid-color:#000;solid-opacity:1" id="rect4159" fill="url(#radialGradient4167)" fill-opacity="1" fill-rule="nonzero" stroke="none" stroke-dasharray="none" stroke-dashoffset="0" stroke-linecap="butt" stroke-linejoin="miter" stroke-miterlimit="4" stroke-opacity="1" stroke-width="1" d="M 0 9.8984375 L 0 11.052734 L 48 38.765625 L 48 37.611328 L 0 9.8984375 z" clip-rule="nonzero" color-interpolation="sRGB" color-interpolation-filters="linearRGB" color-rendering="auto" display="inline" enable-background="accumulate" image-rendering="auto" opacity="1" overflow="visible" shape-rendering="auto" text-decoration="none" text-rendering="auto" transform="translate(0,1004.3622)" visibility="visible"/><path color="#000" style="text-decoration-line:none;text-decoration-style:solid;text-decoration-color:#000;white-space:normal;isolation:auto;mix-blend-mode:normal;solid-color:#000;solid-opacity:1" id="path4177" fill="url(#radialGradient4179)" fill-opacity="1" fill-rule="nonzero" stroke="none" stroke-dasharray="none" stroke-dashoffset="0" stroke-linecap="butt" stroke-linejoin="miter" stroke-miterlimit="4" stroke-opacity="1" stroke-width="1" d="M 12.748047 0 L 43.447266 30.697266 L 43.746094 29.582031 L 14.162109 0 L 12.748047 0 z" clip-rule="nonzero" color-interpolation="sRGB" color-interpolation-filters="linearRGB" color-rendering="auto" display="inline" enable-background="accumulate" image-rendering="auto" opacity="1" overflow="visible" shape-rendering="auto" text-decoration="none" text-rendering="auto" transform="translate(0,1004.3622)" visibility="visible"/><path id="rect846" fill="#000" fill-opacity="1" stroke="none" d="m 0,1049.3622 0,1.0625 c 0,1.0773 0.860222,1.9375 1.937499,1.9375 l 44.125001,0 c 1.077277,0 1.9375,-0.8602 1.9375,-1.9375 l 0,-1.0625 c 0,1.0773 -0.860223,1.9375 -1.9375,1.9375 l -44.125001,0 C 0.860222,1051.2997 0,1050.4395 0,1049.3622 Z"/><path id="path7515" fill="#fff" fill-opacity=".537" stroke="none" d="m 2.531249,1005.0185 c -0.917088,0 -1.671146,0.6395 -1.843749,1.5 0.335612,-0.2799 0.774512,-0.4375 1.249999,-0.4375 l 44.125001,0 c 0.475488,0 0.914388,0.1576 1.25,0.4375 -0.172603,-0.8605 -0.926662,-1.5 -1.84375,-1.5 L 2.531249,1005.0185 Z"/><path id="rect4280" fill="#000" fill-opacity=".392" stroke="none" d="M 1.937499,1004.3622 C 0.860223,1004.3622 0,1005.2224 0,1006.2997 l 0,43.0625 c 0,0.7934 0.480023,1.449 1.156249,1.75 -0.309341,-0.3333 -0.499999,-0.7824 -0.499999,-1.2812 l 0,-42.9375 c 0,-1.0482 0.826898,-1.875 1.874999,-1.875 l 42.937501,0 c 1.048101,0 1.875,0.8268 1.875,1.875 l 0,42.9375 c 0,0.4988 -0.190658,0.9479 -0.5,1.2812 0.676226,-0.301 1.15625,-0.9566 1.15625,-1.75 l 0,-43.0625 c 0,-1.0773 -0.860223,-1.9375 -1.9375,-1.9375 L 1.937499,1004.3622 Z"/><path color="#000" style="text-decoration-line:none;text-decoration-style:solid;text-decoration-color:#000;white-space:normal;isolation:auto;mix-blend-mode:normal;solid-color:#000;solid-opacity:1" id="rect4155" fill="#74a8e1" fill-opacity="1" fill-rule="nonzero" stroke="none" stroke-dasharray="none" stroke-dashoffset="0" stroke-linecap="butt" stroke-linejoin="miter" stroke-miterlimit="4" stroke-opacity="1" stroke-width="1" d="M 15 8 L 15 40 L 33 40 L 33 8 L 15 8 z M 16 9 L 32 9 L 32 39 L 16 39 L 16 9 z" clip-rule="nonzero" color-interpolation="sRGB" color-interpolation-filters="linearRGB" color-rendering="auto" display="inline" enable-background="accumulate" image-rendering="auto" opacity="1" overflow="visible" shape-rendering="auto" text-decoration="none" text-rendering="auto" transform="translate(0,1004.3622)" visibility="visible"/><rect id="rect4157" width="16" height="30" x="16" y="1013.362" fill="#1b5fcf" fill-opacity=".723" fill-rule="nonzero" stroke="none" stroke-dasharray="none" stroke-dashoffset="0" stroke-linecap="butt" stroke-linejoin="miter" stroke-miterlimit="4" stroke-opacity="1" stroke-width="1" clip-rule="nonzero" color="#000" color-interpolation="sRGB" color-interpolation-filters="linearRGB" color-rendering="auto" display="inline" enable-background="accumulate" image-rendering="auto" opacity="1" overflow="visible" shape-rendering="auto" text-decoration="none" text-rendering="auto" visibility="visible" style="text-decoration-line:none;text-decoration-style:solid;text-decoration-color:#000;white-space:normal;isolation:auto;mix-blend-mode:normal;solid-color:#000;solid-opacity:1"/><rect clip-rule="nonzero" style="text-decoration-line:none;text-decoration-style:solid;text-decoration-color:#000;white-space:normal;isolation:auto;mix-blend-mode:normal;solid-color:#000;solid-opacity:1" id="rect4184" width="15" height="15" x="4" y="1028.362" fill="url(#radialGradient4194)" fill-opacity="1" fill-rule="nonzero" stroke="none" stroke-dasharray="none" stroke-dashoffset="0" stroke-linecap="butt" stroke-linejoin="miter" stroke-miterlimit="4" stroke-opacity="1" stroke-width="1" color="#000" color-interpolation="sRGB" color-interpolation-filters="linearRGB" color-rendering="auto" display="inline" enable-background="accumulate" image-rendering="auto" opacity="1" overflow="visible" ry="7.5" shape-rendering="auto" text-decoration="none" text-rendering="auto" visibility="visible"/><rect id="rect4186" width="5" height="5" x="9" y="1033.362" fill="#10e829" fill-opacity="1" fill-rule="nonzero" stroke="none" stroke-dasharray="none" stroke-dashoffset="0" stroke-linecap="butt" stroke-linejoin="miter" stroke-miterlimit="4" stroke-opacity="1" stroke-width="1" clip-rule="nonzero" color="#000" color-interpolation="sRGB" color-interpolation-filters="linearRGB" color-rendering="auto" display="inline" enable-background="accumulate" image-rendering="auto" opacity="1" overflow="visible" shape-rendering="auto" text-decoration="none" text-rendering="auto" visibility="visible" style="text-decoration-line:none;text-decoration-style:solid;text-decoration-color:#000;white-space:normal;isolation:auto;mix-blend-mode:normal;solid-color:#000;solid-opacity:1"/></g></svg>