<svg xmlns="http://www.w3.org/2000/svg" xmlns:svg="http://www.w3.org/2000/svg" xmlns:xlink="http://www.w3.org/1999/xlink" id="svg5453" width="48" height="48" version="1.1"><defs id="defs5455"><linearGradient id="linearGradient4260"><stop id="stop4262" offset="0" stop-color="#1c8eff" stop-opacity="1"/><stop id="stop4264" offset="1" stop-color="#e4f9ff" stop-opacity="1"/></linearGradient><linearGradient id="linearGradient4235"><stop id="stop4237" offset="0" stop-color="#0067cd" stop-opacity="1"/><stop id="stop4239" offset="1" stop-color="#44d2ff" stop-opacity="0"/></linearGradient><linearGradient id="linearGradient4219"><stop id="stop4221" offset="0" stop-color="#3fcaff" stop-opacity="1"/><stop id="stop4225" offset=".6" stop-color="#2eadff" stop-opacity="1"/><stop id="stop4223" offset="1" stop-color="#359cff" stop-opacity="1"/></linearGradient><linearGradient id="linearGradient859-2" x1="23.102" x2="23.102" y1="-1052.385" y2="-1004.361" gradientTransform="translate(384.57142,504.56417)" gradientUnits="userSpaceOnUse" xlink:href="#linearGradient4172-7"/><linearGradient id="linearGradient4172-7"><stop id="stop4174-6" offset="0" stop-color="#1c8eff" stop-opacity="1"/><stop id="stop4176-0" offset="1" stop-color="#44d2ff" stop-opacity="1"/></linearGradient><radialGradient id="radialGradient4217" cx="408.571" cy="-523.798" r="24" fx="408.571" fy="-523.798" gradientTransform="matrix(0.99999998,1.9043732e-7,-1.9303634e-7,1.0136476,-1.1402302e-4,7.1485169)" gradientUnits="userSpaceOnUse" xlink:href="#linearGradient4219"/><linearGradient id="linearGradient4233" x1="409.301" x2="409.301" y1="-547.798" y2="-529.783" gradientTransform="translate(-1.1650391e-5,0)" gradientUnits="userSpaceOnUse" xlink:href="#linearGradient4235"/><linearGradient id="linearGradient4258" x1="29.315" x2="29.315" y1="48.164" y2="19.504" gradientUnits="userSpaceOnUse" xlink:href="#linearGradient4260"/><linearGradient id="linearGradient5301-5" x1="26.39" x2="26.39" y1="1035.868" y2="1020.873" gradientTransform="matrix(0.04326923,0,0,0.09230769,387.0193,-626.756)" gradientUnits="userSpaceOnUse" xlink:href="#linearGradient5287-1"/><linearGradient id="linearGradient5287-1"><stop id="stop5289-1" offset="0" stop-color="#d7d7d7" stop-opacity="1"/><stop id="stop5291-7" offset="1" stop-color="#f9f9f9" stop-opacity="1"/></linearGradient><linearGradient id="linearGradient5285-9" x1="26.39" x2="26.39" y1="1035.868" y2="1020.873" gradientTransform="matrix(0.12980768,0,0,0.27692308,384.94238,247.05306)" gradientUnits="userSpaceOnUse" xlink:href="#linearGradient5287-1"/></defs><metadata id="metadata5458"/><g id="layer1" transform="translate(-384.57143,-499.798)"><rect id="rect2991-1-7-6-1" width="48" height="48" x="384.571" y="-547.798" fill="url(#linearGradient859-2)" fill-opacity="1" stroke="none" ry="1.945" transform="scale(1,-1)"/><rect id="rect4215" width="48" height="48" x="384.571" y="-547.798" fill="url(#radialGradient4217)" fill-opacity="1" stroke="none" ry="1.945" transform="scale(1,-1)"/><path id="path4241" fill="url(#linearGradient4258)" fill-opacity="1" stroke="none" d="M 39.058594 19.884766 C 36.702316 19.800479 36.423566 29.283404 32.074219 34.630859 C 27.275109 40.531489 19.564411 25.975914 18.462891 24.402344 C 17.361531 22.828924 14.765194 17.323219 13.427734 24.167969 C 12.246677 30.21225 10.713707 36.015435 0 34.513672 L 0 46.054688 C 0 47.131965 0.86803535 48 1.9453125 48 L 46.054688 48 C 47.131965 48 48 47.131965 48 46.054688 L 48 32.347656 C 44.621396 28.548409 41.860981 21.782537 39.863281 20.234375 C 39.56825 20.005721 39.302347 19.893485 39.058594 19.884766 z" transform="translate(384.57143,499.798)"/><rect id="rect4229" width="48" height="48" x="384.571" y="-547.798" fill="url(#linearGradient4233)" fill-opacity="1" stroke="none" ry="1.945" transform="scale(1,-1)"/><path id="path4279" fill="#fff" fill-opacity=".392" stroke="none" d="M 33.058594 19.884766 C 30.702324 19.800466 30.423569 29.283399 26.074219 34.630859 C 21.275109 40.531489 13.564411 25.975914 12.462891 24.402344 C 11.361531 22.828924 8.7651944 17.323219 7.4277344 24.167969 C 6.8229946 27.262856 6.1170831 30.286467 4.1425781 32.306641 C 4.352721 32.414466 4.5566547 32.526532 4.7539062 32.642578 C 6.3949611 30.69194 7.0788816 27.98284 7.6289062 25.167969 C 8.9663762 18.323219 11.361531 23.828924 12.462891 25.402344 C 13.564411 26.975924 21.275109 41.332271 26.074219 35.431641 C 30.886789 29.852571 30.801933 20.501638 33.158203 20.585938 C 33.401953 20.594938 33.667861 20.706887 33.962891 20.935547 C 35.333103 22.533368 39.705075 33.396988 48 34.955078 L 48 34.46875 C 39.870452 32.838922 35.714657 21.669148 33.863281 20.234375 C 33.568251 20.005725 33.302354 19.893486 33.058594 19.884766 z" transform="translate(384.57143,499.798)"/><path id="rect4166" fill="#006ac4" fill-opacity=".118" stroke="none" d="m 388.57143,499.798 c -0.0831,0 -0.15039,0.087 -0.15039,0.19531 l 0,3.6543 -3.6543,0 c -0.10832,0 -0.19531,0.0673 -0.19531,0.15039 0,0.0831 0.087,0.15039 0.19531,0.15039 l 3.6543,0 0,3.69922 -3.6543,0 c -0.10832,0 -0.19531,0.0673 -0.19531,0.15039 0,0.0831 0.087,0.15039 0.19531,0.15039 l 3.6543,0 0,3.69922 -3.6543,0 c -0.10832,0 -0.19531,0.0673 -0.19531,0.15039 0,0.0831 0.087,0.15039 0.19531,0.15039 l 3.6543,0 0,3.69922 -3.6543,0 c -0.10832,0 -0.19531,0.0673 -0.19531,0.15039 0,0.0831 0.087,0.15039 0.19531,0.15039 l 3.6543,0 0,3.69922 -3.6543,0 c -0.10832,0 -0.19531,0.0673 -0.19531,0.15039 0,0.0831 0.087,0.15039 0.19531,0.15039 l 3.6543,0 0,3.69922 -3.6543,0 c -0.10832,0 -0.19531,0.0673 -0.19531,0.15039 0,0.0831 0.087,0.15039 0.19531,0.15039 l 3.6543,0 0,3.69922 -3.6543,0 c -0.10832,0 -0.19531,0.0673 -0.19531,0.15039 0,0.0831 0.087,0.15039 0.19531,0.15039 l 3.6543,0 0,3.69922 -3.6543,0 c -0.10832,0 -0.19531,0.0673 -0.19531,0.15039 0,0.0831 0.087,0.15039 0.19531,0.15039 l 3.6543,0 0,3.69922 -3.6543,0 c -0.10832,0 -0.19531,0.0673 -0.19531,0.15039 0,0.0831 0.087,0.15039 0.19531,0.15039 l 3.6543,0 0,3.69922 -3.6543,0 c -0.10832,0 -0.19531,0.0673 -0.19531,0.15039 0,0.0831 0.087,0.15039 0.19531,0.15039 l 3.6543,0 0,3.69922 -3.6543,0 c -0.10832,0 -0.19531,0.0673 -0.19531,0.15039 0,0.0831 0.087,0.15039 0.19531,0.15039 l 3.6543,0 0,3.6543 c 0,0.10831 0.0673,0.19531 0.15039,0.19531 0.0831,0 0.15039,-0.087 0.15039,-0.19531 l 0,-3.6543 3.69922,0 0,3.6543 c 0,0.10831 0.0673,0.19531 0.15039,0.19531 0.0831,0 0.15039,-0.087 0.15039,-0.19531 l 0,-3.6543 3.69922,0 0,3.6543 c 0,0.10831 0.0673,0.19531 0.15039,0.19531 0.0831,0 0.15039,-0.087 0.15039,-0.19531 l 0,-3.6543 3.69922,0 0,3.6543 c 0,0.10831 0.0673,0.19531 0.15039,0.19531 0.0831,0 0.15039,-0.087 0.15039,-0.19531 l 0,-3.6543 3.69922,0 0,3.6543 c 0,0.10831 0.0673,0.19531 0.15039,0.19531 0.0831,0 0.15039,-0.087 0.15039,-0.19531 l 0,-3.6543 3.69922,0 0,3.6543 c 0,0.10831 0.0673,0.19531 0.15039,0.19531 0.0831,0 0.15039,-0.087 0.15039,-0.19531 l 0,-3.6543 3.69922,0 0,3.6543 c 0,0.10831 0.0673,0.19531 0.15039,0.19531 0.0831,0 0.15039,-0.087 0.15039,-0.19531 l 0,-3.6543 3.69922,0 0,3.6543 c 0,0.10831 0.0673,0.19531 0.15039,0.19531 0.0831,0 0.15039,-0.087 0.15039,-0.19531 l 0,-3.6543 3.69922,0 0,3.6543 c 0,0.10831 0.0673,0.19531 0.15039,0.19531 0.0831,0 0.15039,-0.087 0.15039,-0.19531 l 0,-3.6543 3.69922,0 0,3.6543 c 0,0.10831 0.0673,0.19531 0.15039,0.19531 0.0831,0 0.15039,-0.087 0.15039,-0.19531 l 0,-3.6543 3.69922,0 0,3.6543 c 0,0.10831 0.0673,0.19531 0.15039,0.19531 0.0831,0 0.15039,-0.087 0.15039,-0.19531 l 0,-3.6543 3.6543,0 c 0.10832,0 0.19531,-0.0673 0.19531,-0.15039 0,-0.0831 -0.087,-0.15039 -0.19531,-0.15039 l -3.6543,0 0,-3.69922 3.6543,0 c 0.10832,0 0.19531,-0.0673 0.19531,-0.15039 0,-0.0831 -0.087,-0.15039 -0.19531,-0.15039 l -3.6543,0 0,-3.69922 3.6543,0 c 0.10832,0 0.19531,-0.0673 0.19531,-0.15039 0,-0.0831 -0.087,-0.15039 -0.19531,-0.15039 l -3.6543,0 0,-3.69922 3.6543,0 c 0.10832,0 0.19531,-0.0673 0.19531,-0.15039 0,-0.0831 -0.087,-0.15039 -0.19531,-0.15039 l -3.6543,0 0,-3.69922 3.6543,0 c 0.10832,0 0.19531,-0.0673 0.19531,-0.15039 0,-0.0831 -0.087,-0.15039 -0.19531,-0.15039 l -3.6543,0 0,-3.69922 3.6543,0 c 0.10832,0 0.19531,-0.0673 0.19531,-0.15039 0,-0.0831 -0.087,-0.15039 -0.19531,-0.15039 l -3.6543,0 0,-3.69922 3.6543,0 c 0.10832,0 0.19531,-0.0673 0.19531,-0.15039 0,-0.0831 -0.087,-0.15039 -0.19531,-0.15039 l -3.6543,0 0,-3.69922 3.6543,0 c 0.10832,0 0.19531,-0.0673 0.19531,-0.15039 0,-0.0831 -0.087,-0.15039 -0.19531,-0.15039 l -3.6543,0 0,-3.69922 3.6543,0 c 0.10832,0 0.19531,-0.0673 0.19531,-0.15039 0,-0.0831 -0.087,-0.15039 -0.19531,-0.15039 l -3.6543,0 0,-3.69922 3.6543,0 c 0.10832,0 0.19531,-0.0673 0.19531,-0.15039 0,-0.0831 -0.087,-0.15039 -0.19531,-0.15039 l -3.6543,0 0,-3.69922 3.6543,0 c 0.10832,0 0.19531,-0.0673 0.19531,-0.15039 0,-0.0831 -0.087,-0.15039 -0.19531,-0.15039 l -3.6543,0 0,-3.6543 c 0,-0.10832 -0.0673,-0.19531 -0.15039,-0.19531 -0.0831,0 -0.15039,0.087 -0.15039,0.19531 l 0,3.6543 -3.69922,0 0,-3.6543 c 0,-0.10832 -0.0673,-0.19531 -0.15039,-0.19531 -0.0831,0 -0.15039,0.087 -0.15039,0.19531 l 0,3.6543 -3.69922,0 0,-3.6543 c 0,-0.10832 -0.0673,-0.19531 -0.15039,-0.19531 -0.0831,0 -0.15039,0.087 -0.15039,0.19531 l 0,3.6543 -3.69922,0 0,-3.6543 c 0,-0.10832 -0.0673,-0.19531 -0.15039,-0.19531 -0.0831,0 -0.15039,0.087 -0.15039,0.19531 l 0,3.6543 -3.69922,0 0,-3.6543 c 0,-0.10832 -0.0673,-0.19531 -0.15039,-0.19531 -0.0831,0 -0.15039,0.087 -0.15039,0.19531 l 0,3.6543 -3.69922,0 0,-3.6543 c 0,-0.10832 -0.0673,-0.19531 -0.15039,-0.19531 -0.0831,0 -0.15039,0.087 -0.15039,0.19531 l 0,3.6543 -3.69922,0 0,-3.6543 c 0,-0.10832 -0.0673,-0.19531 -0.15039,-0.19531 -0.0831,0 -0.15039,0.087 -0.15039,0.19531 l 0,3.6543 -3.69922,0 0,-3.6543 c 0,-0.10832 -0.0673,-0.19531 -0.15039,-0.19531 -0.0831,0 -0.15039,0.087 -0.15039,0.19531 l 0,3.6543 -3.69922,0 0,-3.6543 c 0,-0.10832 -0.0673,-0.19531 -0.15039,-0.19531 -0.0831,0 -0.15039,0.087 -0.15039,0.19531 l 0,3.6543 -3.69922,0 0,-3.6543 c 0,-0.10832 -0.0673,-0.19531 -0.15039,-0.19531 -0.0831,0 -0.15039,0.087 -0.15039,0.19531 l 0,3.6543 -3.69922,0 0,-3.6543 c 0,-0.10832 -0.0673,-0.19531 -0.15039,-0.19531 z m 0.15039,4.15039 3.69922,0 0,3.69922 -3.69922,0 0,-3.69922 z m 4,0 3.69922,0 0,3.69922 -3.69922,0 0,-3.69922 z m 4,0 3.69922,0 0,3.69922 -3.69922,0 0,-3.69922 z m 4,0 3.69922,0 0,3.69922 -3.69922,0 0,-3.69922 z m 4,0 3.69922,0 0,3.69922 -3.69922,0 0,-3.69922 z m 4,0 3.69922,0 0,3.69922 -3.69922,0 0,-3.69922 z m 4,0 3.69922,0 0,3.69922 -3.69922,0 0,-3.69922 z m 4,0 3.69922,0 0,3.69922 -3.69922,0 0,-3.69922 z m 4,0 3.69922,0 0,3.69922 -3.69922,0 0,-3.69922 z m 4,0 3.69922,0 0,3.69922 -3.69922,0 0,-3.69922 z m -36,4 3.69922,0 0,3.69922 -3.69922,0 0,-3.69922 z m 4,0 3.69922,0 0,3.69922 -3.69922,0 0,-3.69922 z m 4,0 3.69922,0 0,3.69922 -3.69922,0 0,-3.69922 z m 4,0 3.69922,0 0,3.69922 -3.69922,0 0,-3.69922 z m 4,0 3.69922,0 0,3.69922 -3.69922,0 0,-3.69922 z m 4,0 3.69922,0 0,3.69922 -3.69922,0 0,-3.69922 z m 4,0 3.69922,0 0,3.69922 -3.69922,0 0,-3.69922 z m 4,0 3.69922,0 0,3.69922 -3.69922,0 0,-3.69922 z m 4,0 3.69922,0 0,3.69922 -3.69922,0 0,-3.69922 z m 4,0 3.69922,0 0,3.69922 -3.69922,0 0,-3.69922 z m -36,4 3.69922,0 0,3.69922 -3.69922,0 0,-3.69922 z m 4,0 3.69922,0 0,3.69922 -3.69922,0 0,-3.69922 z m 4,0 3.69922,0 0,3.69922 -3.69922,0 0,-3.69922 z m 4,0 3.69922,0 0,3.69922 -3.69922,0 0,-3.69922 z m 4,0 3.69922,0 0,3.69922 -3.69922,0 0,-3.69922 z m 4,0 3.69922,0 0,3.69922 -3.69922,0 0,-3.69922 z m 4,0 3.69922,0 0,3.69922 -3.69922,0 0,-3.69922 z m 4,0 3.69922,0 0,3.69922 -3.69922,0 0,-3.69922 z m 4,0 3.69922,0 0,3.69922 -3.69922,0 0,-3.69922 z m 4,0 3.69922,0 0,3.69922 -3.69922,0 0,-3.69922 z m -36,4 3.69922,0 0,3.69922 -3.69922,0 0,-3.69922 z m 4,0 3.69922,0 0,3.69922 -3.69922,0 0,-3.69922 z m 4,0 3.69922,0 0,3.69922 -3.69922,0 0,-3.69922 z m 4,0 3.69922,0 0,3.69922 -3.69922,0 0,-3.69922 z m 4,0 3.69922,0 0,3.69922 -3.69922,0 0,-3.69922 z m 4,0 3.69922,0 0,3.69922 -3.69922,0 0,-3.69922 z m 4,0 3.69922,0 0,3.69922 -3.69922,0 0,-3.69922 z m 4,0 3.69922,0 0,3.69922 -3.69922,0 0,-3.69922 z m 4,0 3.69922,0 0,3.69922 -3.69922,0 0,-3.69922 z m 4,0 3.69922,0 0,3.69922 -3.69922,0 0,-3.69922 z m -36,4 3.69922,0 0,3.69922 -3.69922,0 0,-3.69922 z m 4,0 3.69922,0 0,3.69922 -3.69922,0 0,-3.69922 z m 4,0 3.69922,0 0,3.69922 -3.69922,0 0,-3.69922 z m 4,0 3.69922,0 0,3.69922 -3.69922,0 0,-3.69922 z m 4,0 3.69922,0 0,3.69922 -3.69922,0 0,-3.69922 z m 4,0 3.69922,0 0,3.69922 -3.69922,0 0,-3.69922 z m 4,0 3.69922,0 0,3.69922 -3.69922,0 0,-3.69922 z m 4,0 3.69922,0 0,3.69922 -3.69922,0 0,-3.69922 z m 4,0 3.69922,0 0,3.69922 -3.69922,0 0,-3.69922 z m 4,0 3.69922,0 0,3.69922 -3.69922,0 0,-3.69922 z m -36,4 3.69922,0 0,3.69922 -3.69922,0 0,-3.69922 z m 4,0 3.69922,0 0,3.69922 -3.69922,0 0,-3.69922 z m 4,0 3.69922,0 0,3.69922 -3.69922,0 0,-3.69922 z m 4,0 3.69922,0 0,3.69922 -3.69922,0 0,-3.69922 z m 4,0 3.69922,0 0,3.69922 -3.69922,0 0,-3.69922 z m 4,0 3.69922,0 0,3.69922 -3.69922,0 0,-3.69922 z m 4,0 3.69922,0 0,3.69922 -3.69922,0 0,-3.69922 z m 4,0 3.69922,0 0,3.69922 -3.69922,0 0,-3.69922 z m 4,0 3.69922,0 0,3.69922 -3.69922,0 0,-3.69922 z m 4,0 3.69922,0 0,3.69922 -3.69922,0 0,-3.69922 z m -36,4 3.69922,0 0,3.69922 -3.69922,0 0,-3.69922 z m 4,0 3.69922,0 0,3.69922 -3.69922,0 0,-3.69922 z m 4,0 3.69922,0 0,3.69922 -3.69922,0 0,-3.69922 z m 4,0 3.69922,0 0,3.69922 -3.69922,0 0,-3.69922 z m 4,0 3.69922,0 0,3.69922 -3.69922,0 0,-3.69922 z m 4,0 3.69922,0 0,3.69922 -3.69922,0 0,-3.69922 z m 4,0 3.69922,0 0,3.69922 -3.69922,0 0,-3.69922 z m 4,0 3.69922,0 0,3.69922 -3.69922,0 0,-3.69922 z m 4,0 3.69922,0 0,3.69922 -3.69922,0 0,-3.69922 z m 4,0 3.69922,0 0,3.69922 -3.69922,0 0,-3.69922 z m -36,4 3.69922,0 0,3.69922 -3.69922,0 0,-3.69922 z m 4,0 3.69922,0 0,3.69922 -3.69922,0 0,-3.69922 z m 4,0 3.69922,0 0,3.69922 -3.69922,0 0,-3.69922 z m 4,0 3.69922,0 0,3.69922 -3.69922,0 0,-3.69922 z m 4,0 3.69922,0 0,3.69922 -3.69922,0 0,-3.69922 z m 4,0 3.69922,0 0,3.69922 -3.69922,0 0,-3.69922 z m 4,0 3.69922,0 0,3.69922 -3.69922,0 0,-3.69922 z m 4,0 3.69922,0 0,3.69922 -3.69922,0 0,-3.69922 z m 4,0 3.69922,0 0,3.69922 -3.69922,0 0,-3.69922 z m 4,0 3.69922,0 0,3.69922 -3.69922,0 0,-3.69922 z m -36,4 3.69922,0 0,3.69922 -3.69922,0 0,-3.69922 z m 4,0 3.69922,0 0,3.69922 -3.69922,0 0,-3.69922 z m 4,0 3.69922,0 0,3.69922 -3.69922,0 0,-3.69922 z m 4,0 3.69922,0 0,3.69922 -3.69922,0 0,-3.69922 z m 4,0 3.69922,0 0,3.69922 -3.69922,0 0,-3.69922 z m 4,0 3.69922,0 0,3.69922 -3.69922,0 0,-3.69922 z m 4,0 3.69922,0 0,3.69922 -3.69922,0 0,-3.69922 z m 4,0 3.69922,0 0,3.69922 -3.69922,0 0,-3.69922 z m 4,0 3.69922,0 0,3.69922 -3.69922,0 0,-3.69922 z m 4,0 3.69922,0 0,3.69922 -3.69922,0 0,-3.69922 z m -36,4 3.69922,0 0,3.69922 -3.69922,0 0,-3.69922 z m 4,0 3.69922,0 0,3.69922 -3.69922,0 0,-3.69922 z m 4,0 3.69922,0 0,3.69922 -3.69922,0 0,-3.69922 z m 4,0 3.69922,0 0,3.69922 -3.69922,0 0,-3.69922 z m 4,0 3.69922,0 0,3.69922 -3.69922,0 0,-3.69922 z m 4,0 3.69922,0 0,3.69922 -3.69922,0 0,-3.69922 z m 4,0 3.69922,0 0,3.69922 -3.69922,0 0,-3.69922 z m 4,0 3.69922,0 0,3.69922 -3.69922,0 0,-3.69922 z m 4,0 3.69922,0 0,3.69922 -3.69922,0 0,-3.69922 z m 4,0 3.69922,0 0,3.69922 -3.69922,0 0,-3.69922 z"/><g id="g4413" transform="translate(-0.23633978,0.01773877)"><rect id="rect5297-7" width="4.5" height="4.5" x="385.808" y="529.58" fill="#000" fill-opacity=".118" stroke="none" ry="2.25"/><rect id="rect5293-1" width="4.327" height="4.327" x="385.894" y="529.667" fill="#000" fill-opacity=".235" stroke="none" ry="2.163"/><rect id="rect5283-8" width="4.154" height="4.154" x="385.981" y="529.753" fill="url(#linearGradient5285-9)" fill-opacity="1" stroke="none" ry="2.077"/><rect id="rect5299-8" width="1.385" height="1.385" x="387.365" y="-532.523" fill="url(#linearGradient5301-5)" fill-opacity="1" stroke="none" ry=".692" transform="scale(1,-1)"/></g><g id="g4274"><path id="path7515" fill="#fff" fill-opacity=".537" stroke="none" d="m 387.10268,500.45429 c -0.91709,0 -1.67115,0.6395 -1.84375,1.5 0.33561,-0.2799 0.77451,-0.4375 1.25,-0.4375 l 44.125,0 c 0.47549,0 0.91439,0.1576 1.25,0.4375 -0.1726,-0.8605 -0.92666,-1.5 -1.84375,-1.5 L 387.10268,500.45429 Z"/><path id="rect4280" fill="#000" fill-opacity=".392" stroke="none" d="m 386.50893,499.79799 c -1.07728,0 -1.9375,0.8602 -1.9375,1.9375 l 0,43.0625 c 0,0.7934 0.48002,1.449 1.15625,1.75 -0.30934,-0.3333 -0.5,-0.7824 -0.5,-1.2812 l 0,-42.9375 c 0,-1.0482 0.8269,-1.875 1.875,-1.875 l 42.9375,0 c 1.0481,0 1.875,0.8268 1.875,1.875 l 0,42.9375 c 0,0.4988 -0.19066,0.9479 -0.5,1.2812 0.67623,-0.301 1.15625,-0.9566 1.15625,-1.75 l 0,-43.0625 c 0,-1.0773 -0.86022,-1.9375 -1.9375,-1.9375 L 386.50893,499.79799 Z"/><path id="rect846" fill="#000" fill-opacity="1" stroke="none" d="m 384.57143,544.79799 0,1.0625 c 0,1.0773 0.86022,1.9375 1.9375,1.9375 l 44.125,0 c 1.07728,0 1.9375,-0.8602 1.9375,-1.9375 l 0,-1.0625 c 0,1.0773 -0.86022,1.9375 -1.9375,1.9375 l -44.125,0 C 385.43165,546.73549 384.57143,545.87529 384.57143,544.79799 Z"/></g></g></svg>