<svg xmlns="http://www.w3.org/2000/svg" xmlns:svg="http://www.w3.org/2000/svg" xmlns:xlink="http://www.w3.org/1999/xlink" id="svg2" width="48" height="48" version="1.1"><defs id="defs4"><linearGradient id="linearGradient4655"><stop id="stop4657" offset="0" stop-color="#464646" stop-opacity="1"/><stop id="stop4659" offset="1" stop-color="#000" stop-opacity="1"/></linearGradient><linearGradient id="linearGradient1323"><stop id="stop1325" offset="0" stop-color="#147ce2" stop-opacity="1"/><stop id="stop1327" offset="1" stop-color="#1faff6" stop-opacity="0"/></linearGradient><linearGradient id="ButtonShadow" x1="45.448" x2="45.448" y1="92.54" y2="7.017" gradientTransform="scale(1.0058652,0.994169)" gradientUnits="userSpaceOnUse"><stop id="stop3750" offset="0" stop-color="#000" stop-opacity="1"/><stop id="stop3752-8" offset="1" stop-color="#000" stop-opacity=".588"/></linearGradient><filter id="filter3174" color-interpolation-filters="sRGB"><feGaussianBlur id="feGaussianBlur3176" stdDeviation="1.71"/></filter><linearGradient id="linearGradient3737-6"><stop id="stop3739-73" offset="0" stop-color="#fff" stop-opacity="1"/><stop id="stop3741-6" offset="1" stop-color="#fff" stop-opacity="0"/></linearGradient><clipPath id="clipPath3613"><rect id="rect3615" width="84" height="84" x="6" y="6" fill="#fff" fill-opacity="1" fill-rule="nonzero" stroke="none" rx="6" ry="6"/></clipPath><filter id="filter3794" width="1.384" height="1.384" x="-.192" y="-.192" color-interpolation-filters="sRGB"><feGaussianBlur id="feGaussianBlur3796" stdDeviation="5.28"/></filter><linearGradient id="linearGradient2885" x1="48" x2="48" y1="20.221" y2="138.661" gradientUnits="userSpaceOnUse" xlink:href="#linearGradient3737-6"/><radialGradient id="radialGradient1321" cx="17.103" cy="23.914" r="8.088" fx="17.103" fy="23.914" gradientUnits="userSpaceOnUse" xlink:href="#linearGradient1323"/><radialGradient id="radialGradient1333" cx="17.103" cy="23.914" r="8.088" fx="17.103" fy="23.914" gradientUnits="userSpaceOnUse" xlink:href="#linearGradient1323"/><radialGradient id="radialGradient1337" cx="17.103" cy="23.914" r="8.088" fx="17.103" fy="23.914" gradientUnits="userSpaceOnUse" xlink:href="#linearGradient1323"/><linearGradient id="linearGradient854"><stop id="stop856" offset="0" stop-color="#666" stop-opacity="1"/><stop id="stop858" offset="1" stop-color="#000" stop-opacity="1"/></linearGradient><linearGradient id="linearGradient868" x1="24.72" x2="24.72" y1="36.706" y2="13.968" gradientTransform="matrix(1.3675215,0,0,1.3675215,-9.1623939,994.51606)" gradientUnits="userSpaceOnUse" xlink:href="#linearGradient4655"/><radialGradient id="radialGradient865" cx="-37.653" cy="-1015.239" r="24" fx="-37.653" fy="-1015.239" gradientTransform="matrix(-3.701206e-6,1.1567321,-1.1574315,-3.6887624e-6,-1151.0697,-984.81098)" gradientUnits="userSpaceOnUse" xlink:href="#linearGradient854"/></defs><metadata id="metadata7"/><g id="layer1" transform="translate(0,-1004.3622)"><rect id="rect2991-1-5" width="48" height="48" x="0" y="-1052.362" fill="url(#radialGradient865)" fill-opacity="1" stroke="none" ry="1.945" transform="scale(1,-1)"/><path id="rect846" fill="#000" fill-opacity="1" stroke="none" d="m 1.3513183e-7,1049.3622 0,1.0625 c 0,1.0773 0.86022300486817,1.9375 1.93749996486817,1.9375 l 44.1249999,0 c 1.077277,0 1.9375,-0.8602 1.9375,-1.9375 l 0,-1.0625 c 0,1.0773 -0.860223,1.9375 -1.9375,1.9375 l -44.1249999,0 c -1.07727696,0 -1.93749996486817,-0.8602 -1.93749996486817,-1.9375 z"/><path id="path7515" fill="#fff" fill-opacity=".537" stroke="none" d="m 2.5312501,1005.0185 c -0.917089,0 -1.67114696,0.6395 -1.84374996,1.5 0.33561196,-0.2799 0.77451196,-0.4375 1.24999996,-0.4375 l 44.1249999,0 c 0.475488,0 0.914388,0.1576 1.25,0.4375 -0.172603,-0.8605 -0.926662,-1.5 -1.84375,-1.5 l -42.9374999,0 z"/><path id="rect4280-8" fill="#000" fill-opacity=".392" stroke="none" d="m 1.9375001,1004.3622 c -1.07727696,0 -1.93749996486817,0.8602 -1.93749996486817,1.9375 l 0,43.0625 c 0,0.7934 0.48002300486817,1.449 1.15624996486817,1.75 -0.30934196,-0.3333 -0.49999996,-0.7824 -0.49999996,-1.2812 l 0,-42.9375 c 0,-1.0482 0.82689896,-1.875 1.87499996,-1.875 l 42.9374999,0 c 1.048101,0 1.875,0.8268 1.875,1.875 l 0,42.9375 c 0,0.4988 -0.190658,0.9479 -0.5,1.2812 0.676226,-0.301 1.15625,-0.9566 1.15625,-1.75 l 0,-43.0625 c 0,-1.0773 -0.860223,-1.9375 -1.9375,-1.9375 l -44.1249999,0 z"/><circle id="path860" cx="24" cy="1028.362" r="15.726" fill="url(#linearGradient868)" fill-opacity="1" stroke="#4d4d4d" stroke-dasharray="none" stroke-miterlimit="4" stroke-opacity="1" stroke-width=".547"/><g id="layer2-9" display="none" transform="translate(-272.99658,987.3651)"><rect id="rect3745" width="86" height="85" x="5" y="7" fill="url(#ButtonShadow)" fill-opacity="1" fill-rule="nonzero" stroke="none" filter="url(#filter3174)" opacity=".9" rx="6" ry="6"/></g><g id="layer4" display="none" transform="translate(-272.99658,987.3651)"><rect id="rect3171" width="66" height="66" x="15" y="15" fill="url(#linearGradient2885)" fill-opacity="1" fill-rule="nonzero" stroke="#fff" stroke-dasharray="none" stroke-dashoffset="0" stroke-linecap="round" stroke-linejoin="miter" stroke-miterlimit="4" stroke-opacity="1" stroke-width=".5" clip-path="url(#clipPath3613)" filter="url(#filter3794)" opacity=".15" rx="12" ry="12"/></g><g id="g1369" transform="matrix(0.99455884,0,0,0.99455884,0.13058542,5.5955048)"><circle id="path1331" cx="17.103" cy="23.914" r="8.088" fill="url(#radialGradient1333)" fill-opacity="1" stroke="none" d="m 25.19068,23.914173 a 8.087534,8.087534 0 0 1 -8.087534,8.087534 8.087534,8.087534 0 0 1 -8.0875344,-8.087534 8.087534,8.087534 0 0 1 8.0875344,-8.087534 8.087534,8.087534 0 0 1 8.087534,8.087534 z" opacity=".3" transform="matrix(1.9891768,0,0,1.9891768,-10.021178,980.79266)"/><circle id="path1335" cx="17.103" cy="23.914" r="8.088" fill="url(#radialGradient1337)" fill-opacity="1" stroke="none" d="m 25.19068,23.914173 a 8.087534,8.087534 0 0 1 -8.087534,8.087534 8.087534,8.087534 0 0 1 -8.0875344,-8.087534 8.087534,8.087534 0 0 1 8.0875344,-8.087534 8.087534,8.087534 0 0 1 8.087534,8.087534 z" opacity=".3" transform="matrix(1.7418826,0,0,1.7418826,-5.7916698,986.7065)"/><circle id="path1313" cx="17.103" cy="23.914" r="8.088" fill="url(#radialGradient1321)" fill-opacity="1" stroke="none" d="m 25.19068,23.914173 a 8.087534,8.087534 0 0 1 -8.087534,8.087534 8.087534,8.087534 0 0 1 -8.0875344,-8.087534 8.087534,8.087534 0 0 1 8.0875344,-8.087534 8.087534,8.087534 0 0 1 8.087534,8.087534 z" opacity=".3" transform="matrix(1.3709413,0,0,1.3709413,0.5525925,995.57726)"/></g><g id="g4667" transform="matrix(0.99215624,0,0,1.0078905,-0.796062,-8.1852889)"><path id="path1329" fill="#1483e4" fill-opacity="1" stroke="none" d="m 25.059449,27.680882 -10.121817,0 -10.1218177,-1e-6 5.0609086,-8.76575 5.0609091,-8.765751 5.060908,8.76575 z" transform="matrix(0.74683159,-0.44110313,0.43118347,0.76401299,2.9085665,1018.3379)"/><path id="path1351" fill="#fff" fill-opacity=".087" stroke="none" d="m 18.444879,1019.5031 0,8.9295 0,4.0742 c 2.633221,-3.048 6.807085,-5.4477 10.095205,-7.032 L 26,1023.9679 l -7.555121,-4.4648 z"/></g></g></svg>