<svg xmlns="http://www.w3.org/2000/svg" xmlns:svg="http://www.w3.org/2000/svg" xmlns:xlink="http://www.w3.org/1999/xlink" id="svg2" width="48" height="48" version="1.1"><defs id="defs4"><linearGradient id="linearGradient872"><stop id="stop874" offset="0" stop-color="#e3ebed" stop-opacity=".996"/><stop id="stop876" offset="1" stop-color="#f4f8f9" stop-opacity=".997"/></linearGradient><linearGradient id="linearGradient843" x1="-35.844" x2="-35.844" y1="-1057.985" y2="-1009.976" gradientTransform="translate(56.880463,5.6152085)" gradientUnits="userSpaceOnUse" xlink:href="#linearGradient872"/><linearGradient id="linearGradient4095" x1="7.898" x2="24.412" y1="33.59" y2="4.987" gradientUnits="userSpaceOnUse" xlink:href="#linearGradient6390"/><linearGradient id="linearGradient4103" x1="30.75" x2="20.243" y1="35.538" y2="17.339" gradientUnits="userSpaceOnUse" xlink:href="#linearGradient6390"/><linearGradient id="linearGradient4118" x1="37.388" x2="10.518" y1="17.064" y2="17.064" gradientUnits="userSpaceOnUse" xlink:href="#linearGradient6390"/><linearGradient id="linearGradient6390"><stop id="stop6392" offset="0" stop-color="#fff" stop-opacity="1"/><stop id="stop6414" offset=".165" stop-color="#29282b" stop-opacity="1"/><stop id="stop6416" offset=".261" stop-color="#868c95" stop-opacity="1"/><stop id="stop6418" offset=".395" stop-color="#92979f" stop-opacity="1"/><stop id="stop6420" offset=".543" stop-color="#737881" stop-opacity="1"/><stop id="stop6422" offset=".626" stop-color="#70757e" stop-opacity="1"/><stop id="stop6424" offset=".721" stop-color="#e4e6e8" stop-opacity="1"/><stop id="stop6426" offset=".795" stop-color="#fff" stop-opacity="1"/><stop id="stop6394" offset="1" stop-color="#1d191a" stop-opacity="1"/></linearGradient></defs><metadata id="metadata7"/><g id="layer1" transform="translate(0,-1004.3622)"><rect id="rect2991-1" width="48" height="48" x="0" y="-1052.362" fill="url(#linearGradient843)" fill-opacity="1" stroke="none" ry="1.945" transform="scale(1,-1)"/><path id="path4137" fill="#000" fill-opacity=".059" stroke="none" d="m 28.272718,27.839727 -15.113512,8.72579 -15.1135113,-8.72579 10e-8,-17.45158 15.1135112,-8.7257897 15.113512,8.7257897 z" transform="matrix(0.88244159,0,0,0.88244159,12.387769,1012.6953)"/><path id="path4135" fill="#000" fill-opacity=".118" stroke="none" d="m 28.272718,27.839727 -15.113512,8.72579 -15.1135113,-8.72579 10e-8,-17.45158 15.1135112,-8.7257897 15.113512,8.7257897 z" transform="matrix(0.88244159,0,0,0.88244159,12.387769,1012.2953)"/><path id="path4120" fill="#000" fill-opacity=".235" stroke="none" d="m 28.272718,27.839727 -15.113512,8.72579 -15.1135113,-8.72579 10e-8,-17.45158 15.1135112,-8.7257897 15.113512,8.7257897 z" transform="matrix(0.88244159,0,0,0.88244159,12.387769,1011.8953)"/><path id="path7515" fill="#fff" fill-opacity=".537" stroke="none" d="m 2.5312498,1005.0185 c -0.917089,0 -1.67114698,0.6395 -1.84374998,1.5 0.33561198,-0.2799 0.77451198,-0.4375 1.24999998,-0.4375 l 44.1250002,0 c 0.475488,0 0.914388,0.1576 1.25,0.4375 -0.172603,-0.8605 -0.926662,-1.5 -1.84375,-1.5 L 2.5312498,1005.0185 Z"/><path id="rect4280-3" fill="#000" fill-opacity=".392" stroke="none" d="m 1.9374998,1004.3622 c -1.07727698,0 -1.93749997675782,0.8602 -1.93749997675782,1.9375 l 0,43.0625 c 0,0.7934 0.48002299675782,1.449 1.15624997675782,1.75 -0.30934198,-0.3333 -0.49999998,-0.7824 -0.49999998,-1.2812 l 0,-42.9375 c 0,-1.0482 0.82689898,-1.875 1.87499998,-1.875 l 42.9375002,0 c 1.048101,0 1.875,0.8268 1.875,1.875 l 0,42.9375 c 0,0.4988 -0.190658,0.9479 -0.5,1.2812 0.676226,-0.301 1.15625,-0.9566 1.15625,-1.75 l 0,-43.0625 c 0,-1.0773 -0.860223,-1.9375 -1.9375,-1.9375 L 1.9374998,1004.3622 Z"/><path id="rect846" fill="#000" fill-opacity="1" stroke="none" d="m -1.7675782e-7,1049.3622 0,1.0625 c 0,1.0773 0.86022299675782,1.9375 1.93749997675782,1.9375 l 44.1250002,0 c 1.077277,0 1.9375,-0.8602 1.9375,-1.9375 l 0,-1.0625 c 0,1.0773 -0.860223,1.9375 -1.9375,1.9375 l -44.1250002,0 C 0.86022282,1051.2997 -1.7675782e-7,1050.4395 -1.7675782e-7,1049.3622 Z"/><path id="path4045" fill="url(#linearGradient4095)" fill-opacity="1" stroke="none" d="m 28.272718,27.839727 -15.113512,8.72579 -15.1135113,-8.72579 10e-8,-17.45158 15.1135112,-8.7257897 15.113512,8.7257897 z" transform="matrix(0.88244159,0,0,0.88244159,12.387769,1011.4953)"/><path id="path4047" fill="url(#linearGradient4103)" fill-opacity="1" stroke="none" d="M 24 8.5996094 L 24 39.400391 L 37.335938 31.699219 L 37.335938 16.300781 L 24 8.5996094 z" transform="translate(0,1004.3622)"/><path id="path4063" fill="url(#linearGradient4118)" fill-opacity="1" stroke="none" d="M 24 8.5996094 L 10.662109 16.300781 L 24 24 L 37.335938 16.302734 L 37.335938 16.300781 L 24 8.5996094 z" transform="translate(0,1004.3622)"/><path id="path4054" fill="#fff" fill-opacity=".235" stroke="none" d="M 24 8.5996094 L 37.335938 16.300781 L 37.337891 16.300781 L 24 8.5996094 z" transform="translate(0,1004.3622)"/><path id="path4139" fill="#000" fill-opacity=".314" stroke="none" d="M 10.664062 30.900391 L 10.664062 31.699219 L 24 39.400391 L 37.335938 31.699219 L 37.335938 30.900391 L 24 38.599609 L 10.664062 30.900391 z" transform="translate(0,1004.3622)"/><path id="path4144" fill="#fff" fill-opacity=".235" stroke="none" d="M 24 8.5996094 L 10.662109 16.300781 L 11.009766 16.5 L 24 9 L 36.988281 16.501953 L 37.335938 16.302734 L 37.335938 16.300781 L 24 8.5996094 z" transform="translate(0,1004.3622)"/><path id="path1878" fill="#000" fill-opacity=".537" stroke="none" d="m 24,1012.3622 c -0.634356,0 -1.148438,0.5141 -1.148438,1.1484 10e-7,0.6344 0.514082,1.1485 1.148438,1.1485 0.634356,0 1.148438,-0.5141 1.148438,-1.1485 -10e-7,-0.6343 -0.514082,-1.1484 -1.148438,-1.1484 z m -12.994141,7.4258 c -0.634356,0 -1.1503901,0.5141 -1.1503901,1.1484 0,0.6344 0.5160341,1.1485 1.1503901,1.1485 0.634357,0 1.148438,-0.5141 1.148438,-1.1485 0,-0.6343 -0.514081,-1.1484 -1.148438,-1.1484 z m 25.988282,0 c -0.634357,0 -1.148438,0.5141 -1.148438,1.1484 0,0.6344 0.514081,1.1485 1.148438,1.1485 0.634356,0 1.15039,-0.5141 1.15039,-1.1485 0,-0.6343 -0.516034,-1.1484 -1.15039,-1.1484 z M 24,1027.2138 c -0.634356,0 -1.148438,0.514 -1.148438,1.1484 10e-7,0.6344 0.514082,1.1484 1.148438,1.1484 0.634356,0 1.148438,-0.514 1.148438,-1.1484 -10e-7,-0.6344 -0.514082,-1.1484 -1.148438,-1.1484 z m -12.994141,7.4257 c -0.634356,0 -1.1503901,0.5141 -1.1503901,1.1485 0,0.6343 0.5160341,1.1484 1.1503901,1.1484 0.634357,0 1.148438,-0.5141 1.148438,-1.1484 0,-0.6344 -0.514081,-1.1485 -1.148438,-1.1485 z m 25.988282,0 c -0.634357,0 -1.148438,0.5141 -1.148438,1.1485 0,0.6343 0.514081,1.1484 1.148438,1.1484 0.634356,0 1.15039,-0.5141 1.15039,-1.1484 0,-0.6344 -0.516034,-1.1485 -1.15039,-1.1485 z M 24,1042.0653 c -0.634356,0 -1.148438,0.5141 -1.148438,1.1485 10e-7,0.6343 0.514082,1.1484 1.148438,1.1484 0.634356,0 1.148438,-0.5141 1.148438,-1.1484 -10e-7,-0.6344 -0.514082,-1.1485 -1.148438,-1.1485 z"/><path id="path4178" fill="#fff" fill-opacity=".235" stroke="none" d="m 29.729295,1021.2086 c -0.195997,-0.308 -0.552103,-0.5849 -0.95982,-0.7387 -0.500317,-0.1879 -1.412495,-0.049 -1.783839,0.2694 -0.190773,0.1637 -0.358611,0.4761 -0.350771,0.6778 0.01556,0.3753 0.570847,0.7549 1.362909,0.9433 0.857564,0.2019 1.606722,0.09 1.849222,-0.2882 0.149488,-0.2328 0.08475,-0.5594 -0.117701,-0.8636 z m -1.818146,-2.3914 c -0.253644,-0.4395 -0.697959,-0.493 -1.286456,-0.1509 -0.402746,0.2336 -0.683494,0.5851 -0.666036,0.8218 0.01324,0.1758 0.0217,0.1755 0.181122,0.3137 0.266203,0.2277 1.087451,0.1118 1.501151,-0.2013 0.33796,-0.2558 0.425126,-0.5154 0.270214,-0.7833 z m -1.603437,-1.3938 c -0.05529,-0.078 -0.160546,-0.1269 -0.282335,-0.1595 -0.248398,-0.067 -0.334805,-0.018 -0.632382,0.1559 -0.352477,0.2056 -0.496021,0.4044 -0.610643,0.7899 -0.08403,0.2873 -0.02171,0.4236 0.252983,0.4813 0.287694,0.067 0.610962,-0.046 0.897165,-0.2898 0.436547,-0.3724 0.561724,-0.756 0.383626,-0.982 z m -1.777207,-0.6089 c -0.0586,-0.08 -0.156883,-0.1259 -0.283633,-0.1599 -0.330996,-0.09 -0.826525,0.3929 -0.925751,0.8957 -0.120878,0.6016 0.396112,0.7326 0.921888,0.2472 0.380837,-0.3492 0.476906,-0.7516 0.287628,-0.9835 z m 1.345033,4.1095 c -0.163067,-0.2825 -0.358075,-0.5919 -0.619851,-0.8779 -0.659821,-0.745 -1.368946,-1.2366 -2.055099,-1.4182 -0.395744,-0.106 -0.710645,-0.1127 -1.136984,-0.028 -1.036283,0.2078 -1.952889,1.4602 -2.198051,2.9802 -0.09055,0.5658 -0.09487,0.8817 1.32e-4,1.3498 0.04981,0.2423 0.127145,0.4128 0.356873,0.7825 0.25877,0.4265 0.322406,0.507 0.631904,0.6998 0.438289,0.2916 1.169681,0.4865 1.686772,0.4521 0.315556,-0.021 0.432427,-0.063 0.630961,-0.1932 0.339825,-0.2233 0.355142,-0.4135 0.09692,-0.8544 -0.371914,-0.6277 -0.671527,-0.8083 -1.192058,-0.6806 -0.393759,0.097 -0.576164,0.058 -0.704068,-0.1638 -0.20269,-0.3511 -0.132733,-0.8741 0.159871,-1.043 0.201209,-0.1161 0.691984,0.036 1.712732,0.5324 1.439318,0.6987 2.138238,0.8209 2.62404,0.4623 0.504208,-0.3718 0.480152,-1.1436 0.0059,-1.9997 z"/><path id="path4180" fill="#000" fill-opacity=".235" stroke="none" d="m 29.729295,1020.4086 c -0.195997,-0.308 -0.552103,-0.5849 -0.95982,-0.7387 -0.500317,-0.1879 -1.412495,-0.049 -1.783839,0.2694 -0.190773,0.1637 -0.358611,0.4761 -0.350771,0.6778 0.01556,0.3753 0.570847,0.7549 1.362909,0.9433 0.857564,0.2019 1.606722,0.09 1.849222,-0.2882 0.149488,-0.2328 0.08475,-0.5594 -0.117701,-0.8636 z m -1.818146,-2.3914 c -0.253644,-0.4395 -0.697959,-0.493 -1.286456,-0.1509 -0.402746,0.2336 -0.683494,0.5851 -0.666036,0.8218 0.01324,0.1758 0.0217,0.1755 0.181122,0.3137 0.266203,0.2277 1.087451,0.1118 1.501151,-0.2013 0.33796,-0.2558 0.425126,-0.5154 0.270214,-0.7833 z m -1.603437,-1.3938 c -0.05529,-0.078 -0.160546,-0.1269 -0.282335,-0.1595 -0.248398,-0.067 -0.334805,-0.018 -0.632382,0.1559 -0.352477,0.2056 -0.496021,0.4044 -0.610643,0.7899 -0.08403,0.2873 -0.02171,0.4236 0.252983,0.4813 0.287694,0.067 0.610962,-0.046 0.897165,-0.2898 0.436547,-0.3724 0.561724,-0.756 0.383626,-0.982 z m -1.777207,-0.6089 c -0.0586,-0.08 -0.156883,-0.1259 -0.283633,-0.1599 -0.330996,-0.09 -0.826525,0.3929 -0.925751,0.8957 -0.120878,0.6016 0.396112,0.7326 0.921888,0.2472 0.380837,-0.3492 0.476906,-0.7516 0.287628,-0.9835 z m 1.345033,4.1095 c -0.163067,-0.2825 -0.358075,-0.5919 -0.619851,-0.8779 -0.659821,-0.745 -1.368946,-1.2366 -2.055099,-1.4182 -0.395744,-0.106 -0.710645,-0.1127 -1.136984,-0.028 -1.036283,0.2078 -1.952889,1.4602 -2.198051,2.9802 -0.09055,0.5658 -0.09487,0.8817 1.32e-4,1.3498 0.04981,0.2423 0.127145,0.4128 0.356873,0.7825 0.25877,0.4265 0.322406,0.507 0.631904,0.6998 0.438289,0.2916 1.169681,0.4865 1.686772,0.4521 0.315556,-0.021 0.432427,-0.063 0.630961,-0.1932 0.339825,-0.2233 0.355142,-0.4135 0.09692,-0.8544 -0.371914,-0.6277 -0.671527,-0.8083 -1.192058,-0.6806 -0.393759,0.097 -0.576164,0.058 -0.704068,-0.1638 -0.20269,-0.3511 -0.132733,-0.8741 0.159871,-1.043 0.201209,-0.1161 0.691984,0.036 1.712732,0.5324 1.439318,0.6987 2.138238,0.8209 2.62404,0.4623 0.504208,-0.3718 0.480152,-1.1436 0.0059,-1.9997 z"/><path id="path4909" fill="#3c3e42" fill-opacity="1" stroke="none" d="m 29.729295,1020.9086 c -0.195997,-0.308 -0.552103,-0.5849 -0.95982,-0.7387 -0.500317,-0.1879 -1.412495,-0.049 -1.783839,0.2694 -0.190773,0.1637 -0.358611,0.4761 -0.350771,0.6778 0.01556,0.3753 0.570847,0.7549 1.362909,0.9433 0.857564,0.2019 1.606722,0.09 1.849222,-0.2882 0.149488,-0.2328 0.08475,-0.5594 -0.117701,-0.8636 z m -1.818146,-2.3914 c -0.253644,-0.4395 -0.697959,-0.493 -1.286456,-0.1509 -0.402746,0.2336 -0.683494,0.5851 -0.666036,0.8218 0.01324,0.1758 0.0217,0.1755 0.181122,0.3137 0.266203,0.2277 1.087451,0.1118 1.501151,-0.2013 0.33796,-0.2558 0.425126,-0.5154 0.270214,-0.7833 z m -1.603437,-1.3938 c -0.05529,-0.078 -0.160546,-0.1269 -0.282335,-0.1595 -0.248398,-0.067 -0.334805,-0.018 -0.632382,0.1559 -0.352477,0.2056 -0.496021,0.4044 -0.610643,0.7899 -0.08403,0.2873 -0.02171,0.4236 0.252983,0.4813 0.287694,0.067 0.610962,-0.046 0.897165,-0.2898 0.436547,-0.3724 0.561724,-0.756 0.383626,-0.982 z m -1.777207,-0.6089 c -0.0586,-0.08 -0.156883,-0.1259 -0.283633,-0.1599 -0.330996,-0.09 -0.826525,0.3929 -0.925751,0.8957 -0.120878,0.6016 0.396112,0.7326 0.921888,0.2472 0.380837,-0.3492 0.476906,-0.7516 0.287628,-0.9835 z m 1.345033,4.1095 c -0.163067,-0.2825 -0.358075,-0.5919 -0.619851,-0.8779 -0.659821,-0.745 -1.368946,-1.2366 -2.055099,-1.4182 -0.395744,-0.106 -0.710645,-0.1127 -1.136984,-0.028 -1.036283,0.2078 -1.952889,1.4602 -2.198051,2.9802 -0.09055,0.5658 -0.09487,0.8817 1.32e-4,1.3498 0.04981,0.2423 0.127145,0.4128 0.356873,0.7825 0.25877,0.4265 0.322406,0.507 0.631904,0.6998 0.438289,0.2916 1.169681,0.4865 1.686772,0.4521 0.315556,-0.021 0.432427,-0.063 0.630961,-0.1932 0.339825,-0.2233 0.355142,-0.4135 0.09692,-0.8544 -0.371914,-0.6277 -0.671527,-0.8083 -1.192058,-0.6806 -0.393759,0.097 -0.576164,0.058 -0.704068,-0.1638 -0.20269,-0.3511 -0.132733,-0.8741 0.159871,-1.043 0.201209,-0.1161 0.691984,0.036 1.712732,0.5324 1.439318,0.6987 2.138238,0.8209 2.62404,0.4623 0.504208,-0.3718 0.480152,-1.1436 0.0059,-1.9997 z"/></g></svg>