<svg xmlns="http://www.w3.org/2000/svg" xmlns:svg="http://www.w3.org/2000/svg" xmlns:xlink="http://www.w3.org/1999/xlink" id="svg2" width="48" height="48" version="1.1"><defs id="defs4"><linearGradient id="linearGradient1441"><stop id="stop1443" offset="0" stop-color="#bd0404" stop-opacity="1"/><stop id="stop1445" offset="1" stop-color="#eb7e7e" stop-opacity="1"/></linearGradient><linearGradient id="linearGradient1402"><stop id="stop1404" offset="0" stop-color="#960303" stop-opacity="1"/><stop id="stop1406" offset="1" stop-color="#e13b3b" stop-opacity="1"/></linearGradient><linearGradient id="linearGradient1385"><stop id="stop1387" offset="0" stop-color="#000" stop-opacity="1"/><stop id="stop1389" offset="1" stop-color="#000" stop-opacity="0"/></linearGradient><linearGradient id="linearGradient1372"><stop id="stop1374" offset="0" stop-color="#131313" stop-opacity="1"/><stop id="stop1376" offset="1" stop-color="#464646" stop-opacity="1"/></linearGradient><linearGradient id="linearGradient543"><stop id="stop545" offset="0" stop-color="#272727" stop-opacity="1"/><stop id="stop547" offset="1" stop-color="#767676" stop-opacity="1"/></linearGradient><linearGradient id="linearGradient549" x1="25.456" x2="25.456" y1="-1052.539" y2="-1004.361" gradientUnits="userSpaceOnUse" xlink:href="#linearGradient543"/><linearGradient id="linearGradient1370" x1="25.456" x2="25.456" y1="-1052.539" y2="-1004.361" gradientTransform="matrix(0.87499999,0,0,0.87499999,2.9999998,-128.54527)" gradientUnits="userSpaceOnUse" xlink:href="#linearGradient1372"/><linearGradient id="linearGradient1391" x1="23.375" x2="23.375" y1="2.875" y2="4.375" gradientUnits="userSpaceOnUse" xlink:href="#linearGradient1385"/><linearGradient id="linearGradient1400" x1="25.456" x2="25.456" y1="-1052.539" y2="-1004.361" gradientTransform="matrix(0.79166665,0,0,0.79166665,4.9999996,-214.24211)" gradientUnits="userSpaceOnUse" xlink:href="#linearGradient1441"/><linearGradient id="linearGradient1439" x1="25.456" x2="25.456" y1="-1052.539" y2="-1004.361" gradientTransform="matrix(0.77291661,0,0,0.77291661,5.4500093,-233.52392)" gradientUnits="userSpaceOnUse" xlink:href="#linearGradient1402"/></defs><metadata id="metadata7"/><g id="layer1" transform="translate(0,-1004.3622)"><rect id="rect2991-1" width="48" height="48" x="0" y="-1052.362" fill="url(#linearGradient549)" fill-opacity="1" stroke="none" ry="1.945" transform="scale(1,-1)"/><path id="rect846" fill="#000" fill-opacity="1" stroke="none" d="m 1.4587402e-6,1049.3622 0,1.0625 c 0,1.0773 0.8602300012598,1.9375 1.9375000412598,1.9375 l 44.1249995,0 c 1.07728,0 1.9375,-0.8602 1.9375,-1.9375 l 0,-1.0625 c 0,1.0773 -0.86022,1.9375 -1.9375,1.9375 l -44.1249995,0 C 0.86023146,1051.2997 1.4587402e-6,1050.4395 1.4587402e-6,1049.3622 Z"/><path id="path7515" fill="#fff" fill-opacity=".537" stroke="none" d="m 2.5312515,1005.0185 c -0.91709,0 -1.67114004,0.6395 -1.84375004,1.5 0.33561004,-0.2799 0.77451004,-0.4375 1.25000004,-0.4375 l 44.1249995,0 c 0.47549,0 0.91439,0.1576 1.25,0.4375 -0.1726,-0.8605 -0.92666,-1.5 -1.84375,-1.5 L 2.5312515,1005.0185 Z"/><path id="rect4280" fill="#000" fill-opacity=".392" stroke="none" d="m 1.9375015,1004.3622 c -1.07727004,0 -1.9375000412598,0.8602 -1.9375000412598,1.9375 l 0,43.0625 c 0,0.7934 0.4800300012598,1.449 1.1562500412598,1.75 -0.30934004,-0.3333 -0.50000004,-0.7824 -0.50000004,-1.2812 l 0,-42.9375 c 0,-1.0482 0.82690004,-1.875 1.87500004,-1.875 l 42.9374995,0 c 1.0481,0 1.875,0.8268 1.875,1.875 l 0,42.9375 c 0,0.4988 -0.19066,0.9479 -0.5,1.2812 0.67623,-0.301 1.15625,-0.9566 1.15625,-1.75 l 0,-43.0625 c 0,-1.0773 -0.86022,-1.9375 -1.9375,-1.9375 L 1.9375015,1004.3622 Z"/><rect id="rect1368" width="42" height="42" x="3" y="-1049.362" fill="url(#linearGradient1370)" fill-opacity="1" stroke="none" ry="1.701" transform="scale(1,-1)"/><path id="rect1378" fill="url(#linearGradient1391)" fill-opacity="1" stroke="none" d="M 4.6875 3 C 3.7448824 3 3 3.7448824 3 4.6875 L 3 5.125 L 45 5.125 L 45 4.6875 C 45 3.7448824 44.255118 3 43.3125 3 L 4.6875 3 z" transform="translate(0,1004.3622)"/><path id="rect1393" fill="#fff" fill-opacity=".231" stroke="none" d="m 3,1047.6617 0,0.625 c 0,0.9426 0.7448824,1.6875 1.6875,1.6875 l 38.625,0 c 0.942618,0 1.6875,-0.7449 1.6875,-1.6875 l 0,-0.625 c 0,0.9426 -0.744882,1.7188 -1.6875,1.7188 l -38.625,0 C 3.7448824,1049.3805 3,1048.6043 3,1047.6617 Z"/><rect id="rect1398" width="38" height="38" x="5" y="-1047.362" fill="url(#linearGradient1400)" fill-opacity="1" stroke="none" ry="1.539" transform="scale(1,-1)"/><rect id="rect1437" width="37.1" height="37.1" x="5.45" y="-1046.912" fill="url(#linearGradient1439)" fill-opacity="1" stroke="none" ry="1.503" transform="scale(1,-1)"/><path id="path1361" fill="#000" fill-opacity=".536" d="m 23.506195,1012.3622 c -2.317587,0 -4.228199,1.9098 -4.228199,4.2282 l 0,12.0057 c 0,2.3168 1.910612,4.2282 4.228199,4.2282 l 0.987609,0 c 2.317587,0 4.2282,-1.9114 4.2282,-4.2282 l 0,-12.0057 c 0,-2.3184 -1.910613,-4.2282 -4.2282,-4.2282 L 23.506195,1012.3622 z m -8.734163,13.5179 c -0.431915,0 -0.802432,0.3383 -0.802432,0.7715 l 0,0.7099 c 0,5.1669 3.553646,9.4486 8.456399,10.2155 l 0,3.2407 -3.024552,0 c -0.432618,0 -0.802432,0.3703 -0.802432,0.8025 l 0,1.5429 c 0,0.4321 0.369814,0.8026 0.802432,0.8026 l 9.197106,0 c 0.432616,0 0.771569,-0.3705 0.771569,-0.8026 l 0,-1.5429 c 0,-0.4322 -0.338953,-0.8025 -0.771569,-0.8025 l -3.024553,0 0,-3.2407 c 4.906265,-0.7656 8.4564,-5.0486 8.4564,-10.2155 l 0,-0.7099 c 0,-0.4332 -0.369815,-0.7715 -0.802432,-0.7715 l -0.771569,0 c -0.432617,0 -0.802433,0.3383 -0.802433,0.7715 l 0,0.7099 c 0,4.4126 -3.242823,7.9934 -7.653966,7.9934 -4.411845,0 -7.653967,-3.5808 -7.653967,-7.9934 l 0,-0.7099 c 0,-0.4332 -0.369815,-0.7715 -0.802432,-0.7715 L 14.772032,1025.8801 Z"/><path id="path1427" fill="#fff" fill-opacity=".157" d="m 14.000464,1028.3136 c 0.245942,4.9139 3.700838,8.921 8.425535,9.6601 l 0,-0.4013 C 17.829667,1036.8534 14.408832,1033.0442 14.000464,1028.3136 z m 19.999072,0 c -0.407996,4.7307 -3.825914,8.5411 -8.425536,9.2588 l 0,0.4013 C 30.302082,1037.2359 33.753826,1033.2276 33.999536,1028.3136 z m -14.72154,0.2778 0,0.4011 c 0,2.317 1.910612,4.2282 4.228199,4.2282 l 0.987609,0 c 2.317587,0 4.2282,-1.9112 4.2282,-4.2282 l 0,-0.4011 c 0,2.3169 -1.910613,4.2281 -4.2282,4.2281 l -0.987609,0 C 21.188608,1032.8195 19.277996,1030.9083 19.277996,1028.5914 z m -0.678981,14.5673 0,0.4011 c 0,0.432 0.369814,0.8024 0.802432,0.8024 l 9.197106,0 c 0.432616,0 0.771569,-0.3704 0.771569,-0.8024 l 0,-0.4011 c 0,0.4319 -0.338953,0.8024 -0.771569,0.8024 l -9.197106,0 C 18.968829,1043.9611 18.599015,1043.5906 18.599015,1043.1587 Z"/><path id="path1432" fill="#000" fill-opacity=".536" d="m 23.506195,1012.3622 c -2.317587,0 -4.228199,1.9098 -4.228199,4.2282 l 0,0.3086 c 0,-2.3183 1.910612,-4.2282 4.228199,-4.2282 l 0.987609,0 c 2.317587,0 4.2282,1.9099 4.2282,4.2282 l 0,-0.3086 c 0,-2.3184 -1.910613,-4.2282 -4.2282,-4.2282 L 23.506195,1012.3622 z m -8.734163,13.5179 c -0.431915,0 -0.802432,0.3383 -0.802432,0.7715 l 0,0.3087 c 0,-0.4333 0.370517,-0.7716 0.802432,-0.7716 l 0.771569,0 c 0.432617,0 0.802432,0.3383 0.802432,0.7716 l 0,-0.3087 c 0,-0.4332 -0.369815,-0.7715 -0.802432,-0.7715 L 14.772032,1025.8801 z m 17.684367,0 c -0.432617,0 -0.802433,0.3383 -0.802433,0.7715 l 0,0.3087 c 0,-0.4333 0.369816,-0.7716 0.802433,-0.7716 l 0.771569,0 c 0.432617,0 0.802432,0.3383 0.802432,0.7716 l 0,-0.3087 c 0,-0.4332 -0.369815,-0.7715 -0.802432,-0.7715 L 32.456399,1025.8801 z m -16.079503,2.2838 c 0.237061,4.1774 3.381102,7.4997 7.623104,7.4997 4.241327,0 7.385993,-3.3223 7.623104,-7.4997 -0.372421,4.0294 -3.487657,7.191 -7.623104,7.191 C 19.863894,1035.3549 16.749244,1032.1933 16.376896,1028.1639 z m 3.024551,12.6538 c -0.432618,0 -0.802432,0.3703 -0.802432,0.8025 l 0,0.3085 c 0,-0.4319 0.369814,-0.8024 0.802432,-0.8024 l 3.024552,0 0,-0.3086 L 19.401447,1040.8177 z m 6.172553,0 0,0.3086 3.024553,0 c 0.432616,0 0.771569,0.3705 0.771569,0.8024 l 0,-0.3085 c 0,-0.4322 -0.338953,-0.8025 -0.771569,-0.8025 L 25.574,1040.8177 Z"/></g></svg>