<svg xmlns="http://www.w3.org/2000/svg" xmlns:svg="http://www.w3.org/2000/svg" xmlns:xlink="http://www.w3.org/1999/xlink" id="svg5453" width="48" height="48" version="1.1"><defs id="defs5455"><linearGradient id="linearGradient4372"><stop id="stop4374" offset="0" stop-color="#d8dce0" stop-opacity="1"/><stop id="stop4376" offset="1" stop-color="#f9fafb" stop-opacity="1"/></linearGradient><linearGradient id="linearGradient859" x1="23.102" x2="23.102" y1="-1052.385" y2="-1004.361" gradientTransform="translate(384.57143,504.5642)" gradientUnits="userSpaceOnUse" xlink:href="#linearGradient4252"/><linearGradient id="linearGradient4252"><stop id="stop4254" offset="0" stop-color="#2d3238" stop-opacity="1"/><stop id="stop4256" offset="1" stop-color="#5c6373" stop-opacity="1"/></linearGradient><linearGradient id="linearGradient4370" x1="408.571" x2="408.571" y1="539.198" y2="508.398" gradientTransform="matrix(0.99997468,0,0,0.99997468,0.00995668,0.01365468)" gradientUnits="userSpaceOnUse" xlink:href="#linearGradient4372"/></defs><metadata id="metadata5458"/><g id="layer1" transform="translate(-384.57143,-499.798)"><rect id="rect2991-1-7-3" width="48" height="48" x="384.571" y="-547.798" fill="url(#linearGradient859)" fill-opacity="1" stroke="none" ry="1.945" transform="scale(1,-1)"/><path id="path4384" fill="#000" fill-opacity=".059" stroke="none" d="m 418.57079,509.598 0,1.99995 -1.99995,0 -1.99995,0 -1.99995,0 0,-1.99995 1.99995,0 1.99995,0 1.99995,0 z m -13.99965,0 0,1.99995 -1.99995,0 -1.99995,0 -1.99995,0 0,-1.99995 1.99995,0 1.99995,0 1.99995,0 z m 19.3999,5.40025 0,1.99995 0,1.99995 0,1.99995 -1.99995,0 0,-1.99995 0,-1.99995 0,-1.99995 1.99995,0 z m -13.40005,0 0,1.99995 0,1.99995 0,1.99995 -1.99995,0 -1.99995,0 0,-1.99995 0,-1.99995 0,-1.99995 1.99995,0 1.99995,0 z m -15.4,0 0,1.99995 0,1.99995 0,1.99995 -1.99995,0 0,-1.99995 0,-1.99995 0,-1.99995 1.99995,0 z m 23.3998,7.9998 0,1.99995 0,1.99995 -1.99995,0 -1.99995,0 -1.99995,0 0,-1.99995 0,-1.99995 1.99995,0 1.99995,0 1.99995,0 z m -13.99965,0 0,1.99995 0,1.99995 -1.99995,0 -1.99995,0 -1.99995,0 0,-1.99995 0,-1.99995 1.99995,0 1.99995,0 1.99995,0 z m 19.3999,5.99985 0,1.99995 0,1.99995 0,1.99995 -1.99995,0 0,-1.99995 0,-1.99995 0,-1.99995 1.99995,0 z m -13.40005,0 0,1.99995 0,1.99995 0,1.99995 -1.99995,0 -1.99995,0 0,-1.99995 0,-1.99995 0,-1.99995 1.99995,0 1.99995,0 z m -15.4,0 0,1.99995 0,1.99995 0,1.99995 -1.99995,0 0,-1.99995 0,-1.99995 0,-1.99995 1.99995,0 z m 23.3998,9.40015 0,1.99995 -1.99995,0 -1.99995,0 -1.99995,0 0,-1.99995 1.99995,0 1.99995,0 1.99995,0 z m -13.99965,0 0,1.99995 -1.99995,0 -1.99995,0 -1.99995,0 0,-1.99995 1.99995,0 1.99995,0 1.99995,0 z"/><path id="path4382" fill="#000" fill-opacity=".118" stroke="none" d="m 418.57079,509.198 0,1.99995 -1.99995,0 -1.99995,0 -1.99995,0 0,-1.99995 1.99995,0 1.99995,0 1.99995,0 z m -13.99965,0 0,1.99995 -1.99995,0 -1.99995,0 -1.99995,0 0,-1.99995 1.99995,0 1.99995,0 1.99995,0 z m 19.3999,5.40025 0,1.99995 0,1.99995 0,1.99995 -1.99995,0 0,-1.99995 0,-1.99995 0,-1.99995 1.99995,0 z m -13.40005,0 0,1.99995 0,1.99995 0,1.99995 -1.99995,0 -1.99995,0 0,-1.99995 0,-1.99995 0,-1.99995 1.99995,0 1.99995,0 z m -15.4,0 0,1.99995 0,1.99995 0,1.99995 -1.99995,0 0,-1.99995 0,-1.99995 0,-1.99995 1.99995,0 z m 23.3998,7.9998 0,1.99995 0,1.99995 -1.99995,0 -1.99995,0 -1.99995,0 0,-1.99995 0,-1.99995 1.99995,0 1.99995,0 1.99995,0 z m -13.99965,0 0,1.99995 0,1.99995 -1.99995,0 -1.99995,0 -1.99995,0 0,-1.99995 0,-1.99995 1.99995,0 1.99995,0 1.99995,0 z m 19.3999,5.99985 0,1.99995 0,1.99995 0,1.99995 -1.99995,0 0,-1.99995 0,-1.99995 0,-1.99995 1.99995,0 z m -13.40005,0 0,1.99995 0,1.99995 0,1.99995 -1.99995,0 -1.99995,0 0,-1.99995 0,-1.99995 0,-1.99995 1.99995,0 1.99995,0 z m -15.4,0 0,1.99995 0,1.99995 0,1.99995 -1.99995,0 0,-1.99995 0,-1.99995 0,-1.99995 1.99995,0 z m 23.3998,9.40015 0,1.99995 -1.99995,0 -1.99995,0 -1.99995,0 0,-1.99995 1.99995,0 1.99995,0 1.99995,0 z m -13.99965,0 0,1.99995 -1.99995,0 -1.99995,0 -1.99995,0 0,-1.99995 1.99995,0 1.99995,0 1.99995,0 z"/><path id="path4378" fill="#000" fill-opacity=".235" stroke="none" d="m 418.57079,508.798 0,1.99995 -1.99995,0 -1.99995,0 -1.99995,0 0,-1.99995 1.99995,0 1.99995,0 1.99995,0 z m -13.99965,0 0,1.99995 -1.99995,0 -1.99995,0 -1.99995,0 0,-1.99995 1.99995,0 1.99995,0 1.99995,0 z m 19.3999,5.40025 0,1.99995 0,1.99995 0,1.99995 -1.99995,0 0,-1.99995 0,-1.99995 0,-1.99995 1.99995,0 z m -13.40005,0 0,1.99995 0,1.99995 0,1.99995 -1.99995,0 -1.99995,0 0,-1.99995 0,-1.99995 0,-1.99995 1.99995,0 1.99995,0 z m -15.4,0 0,1.99995 0,1.99995 0,1.99995 -1.99995,0 0,-1.99995 0,-1.99995 0,-1.99995 1.99995,0 z m 23.3998,7.9998 0,1.99995 0,1.99995 -1.99995,0 -1.99995,0 -1.99995,0 0,-1.99995 0,-1.99995 1.99995,0 1.99995,0 1.99995,0 z m -13.99965,0 0,1.99995 0,1.99995 -1.99995,0 -1.99995,0 -1.99995,0 0,-1.99995 0,-1.99995 1.99995,0 1.99995,0 1.99995,0 z m 19.3999,5.99985 0,1.99995 0,1.99995 0,1.99995 -1.99995,0 0,-1.99995 0,-1.99995 0,-1.99995 1.99995,0 z m -13.40005,0 0,1.99995 0,1.99995 0,1.99995 -1.99995,0 -1.99995,0 0,-1.99995 0,-1.99995 0,-1.99995 1.99995,0 1.99995,0 z m -15.4,0 0,1.99995 0,1.99995 0,1.99995 -1.99995,0 0,-1.99995 0,-1.99995 0,-1.99995 1.99995,0 z m 23.3998,9.40015 0,1.99995 -1.99995,0 -1.99995,0 -1.99995,0 0,-1.99995 1.99995,0 1.99995,0 1.99995,0 z m -13.99965,0 0,1.99995 -1.99995,0 -1.99995,0 -1.99995,0 0,-1.99995 1.99995,0 1.99995,0 1.99995,0 z"/><path id="rect846" fill="#000" fill-opacity="1" stroke="none" d="m 384.57143,544.79799 0,1.0625 c 0,1.0773 0.86022,1.9375 1.9375,1.9375 l 44.125,0 c 1.07728,0 1.9375,-0.8602 1.9375,-1.9375 l 0,-1.0625 c 0,1.0773 -0.86022,1.9375 -1.9375,1.9375 l -44.125,0 C 385.43165,546.73549 384.57143,545.87529 384.57143,544.79799 Z"/><path id="path7515" fill="#fff" fill-opacity=".537" stroke="none" d="m 387.10268,500.45429 c -0.91709,0 -1.67115,0.6395 -1.84375,1.5 0.33561,-0.2799 0.77451,-0.4375 1.25,-0.4375 l 44.125,0 c 0.47549,0 0.91439,0.1576 1.25,0.4375 -0.1726,-0.8605 -0.92666,-1.5 -1.84375,-1.5 L 387.10268,500.45429 Z"/><path id="rect4280" fill="#000" fill-opacity=".392" stroke="none" d="m 386.50893,499.79799 c -1.07728,0 -1.9375,0.8602 -1.9375,1.9375 l 0,43.0625 c 0,0.7934 0.48002,1.449 1.15625,1.75 -0.30934,-0.3333 -0.5,-0.7824 -0.5,-1.2812 l 0,-42.9375 c 0,-1.0482 0.8269,-1.875 1.875,-1.875 l 42.9375,0 c 1.0481,0 1.875,0.8268 1.875,1.875 l 0,42.9375 c 0,0.4988 -0.19066,0.9479 -0.5,1.2812 0.67623,-0.301 1.15625,-0.9566 1.15625,-1.75 l 0,-43.0625 c 0,-1.0773 -0.86022,-1.9375 -1.9375,-1.9375 L 386.50893,499.79799 Z"/><g id="layer5" display="none" transform="translate(312.12454,463.92656)"><rect id="rect3171" width="66" height="66" x="15" y="15" fill="url(#linearGradient3613-6)" fill-opacity="1" fill-rule="nonzero" stroke="#fff" stroke-dasharray="none" stroke-dashoffset="0" stroke-linecap="round" stroke-linejoin="miter" stroke-miterlimit="4" stroke-opacity="1" stroke-width=".5" clip-path="url(#clipPath3613-0)" filter="url(#filter3794-9)" opacity=".1" rx="12" ry="12"/></g><path id="rect4273" fill="url(#linearGradient4370)" fill-opacity="1" stroke="none" d="m 418.57079,508.39839 0,1.99995 -1.99995,0 -1.99995,0 -1.99995,0 0,-1.99995 1.99995,0 1.99995,0 1.99995,0 z m -13.99965,0 0,1.99995 -1.99995,0 -1.99995,0 -1.99995,0 0,-1.99995 1.99995,0 1.99995,0 1.99995,0 z m 19.3999,5.40025 0,1.99995 0,1.99995 0,1.99995 -1.99995,0 0,-1.99995 0,-1.99995 0,-1.99995 1.99995,0 z m -13.40005,0 0,1.99995 0,1.99995 0,1.99995 -1.99995,0 -1.99995,0 0,-1.99995 0,-1.99995 0,-1.99995 1.99995,0 1.99995,0 z m -15.4,0 0,1.99995 0,1.99995 0,1.99995 -1.99995,0 0,-1.99995 0,-1.99995 0,-1.99995 1.99995,0 z m 23.3998,7.9998 0,1.99995 0,1.99995 -1.99995,0 -1.99995,0 -1.99995,0 0,-1.99995 0,-1.99995 1.99995,0 1.99995,0 1.99995,0 z m -13.99965,0 0,1.99995 0,1.99995 -1.99995,0 -1.99995,0 -1.99995,0 0,-1.99995 0,-1.99995 1.99995,0 1.99995,0 1.99995,0 z m 19.3999,5.99985 0,1.99995 0,1.99995 0,1.99995 -1.99995,0 0,-1.99995 0,-1.99995 0,-1.99995 1.99995,0 z m -13.40005,0 0,1.99995 0,1.99995 0,1.99995 -1.99995,0 -1.99995,0 0,-1.99995 0,-1.99995 0,-1.99995 1.99995,0 1.99995,0 z m -15.4,0 0,1.99995 0,1.99995 0,1.99995 -1.99995,0 0,-1.99995 0,-1.99995 0,-1.99995 1.99995,0 z m 23.3998,9.40015 0,1.99995 -1.99995,0 -1.99995,0 -1.99995,0 0,-1.99995 1.99995,0 1.99995,0 1.99995,0 z m -13.99965,0 0,1.99995 -1.99995,0 -1.99995,0 -1.99995,0 0,-1.99995 1.99995,0 1.99995,0 1.99995,0 z"/><path id="path4386" fill="#2f343a" fill-opacity=".314" stroke="none" d="M 14 9.8007812 L 14 10.599609 L 16 10.599609 L 18 10.599609 L 20 10.599609 L 20 9.8007812 L 18 9.8007812 L 16 9.8007812 L 14 9.8007812 z M 28 9.8007812 L 28 10.599609 L 30 10.599609 L 32 10.599609 L 34 10.599609 L 34 9.8007812 L 32 9.8007812 L 30 9.8007812 L 28 9.8007812 z M 8.5996094 19.199219 L 8.5996094 20 L 10.599609 20 L 10.599609 19.199219 L 8.5996094 19.199219 z M 22 19.199219 L 22 20 L 24 20 L 26 20 L 26 19.199219 L 24 19.199219 L 22 19.199219 z M 37.400391 19.199219 L 37.400391 20 L 39.400391 20 L 39.400391 19.199219 L 37.400391 19.199219 z M 14 25.199219 L 14 26 L 16 26 L 18 26 L 20 26 L 20 25.199219 L 18 25.199219 L 16 25.199219 L 14 25.199219 z M 28 25.199219 L 28 26 L 30 26 L 32 26 L 34 26 L 34 25.199219 L 32 25.199219 L 30 25.199219 L 28 25.199219 z M 8.5996094 33.199219 L 8.5996094 34 L 10.599609 34 L 10.599609 33.199219 L 8.5996094 33.199219 z M 22 33.199219 L 22 34 L 24 34 L 26 34 L 26 33.199219 L 24 33.199219 L 22 33.199219 z M 37.400391 33.199219 L 37.400391 34 L 39.400391 34 L 39.400391 33.199219 L 37.400391 33.199219 z M 14 38.599609 L 14 39.400391 L 16 39.400391 L 18 39.400391 L 20 39.400391 L 20 38.599609 L 18 38.599609 L 16 38.599609 L 14 38.599609 z M 28 38.599609 L 28 39.400391 L 30 39.400391 L 32 39.400391 L 34 39.400391 L 34 38.599609 L 32 38.599609 L 30 38.599609 L 28 38.599609 z" transform="translate(384.57143,499.798)"/><path id="path4391" fill="#fff" fill-opacity=".235" stroke="none" d="M 14 8.5996094 L 14 9 L 16 9 L 18 9 L 20 9 L 20 8.5996094 L 18 8.5996094 L 16 8.5996094 L 14 8.5996094 z M 28 8.5996094 L 28 9 L 30 9 L 32 9 L 34 9 L 34 8.5996094 L 32 8.5996094 L 30 8.5996094 L 28 8.5996094 z M 8.5996094 14 L 8.5996094 14.400391 L 10.599609 14.400391 L 10.599609 14 L 8.5996094 14 z M 22 14 L 22 14.400391 L 24 14.400391 L 26 14.400391 L 26 14 L 24 14 L 22 14 z M 37.400391 14 L 37.400391 14.400391 L 39.400391 14.400391 L 39.400391 14 L 37.400391 14 z M 14 22 L 14 22.400391 L 16 22.400391 L 18 22.400391 L 20 22.400391 L 20 22 L 18 22 L 16 22 L 14 22 z M 28 22 L 28 22.400391 L 30 22.400391 L 32 22.400391 L 34 22.400391 L 34 22 L 32 22 L 30 22 L 28 22 z M 8.5996094 28 L 8.5996094 28.400391 L 10.599609 28.400391 L 10.599609 28 L 8.5996094 28 z M 22 28 L 22 28.400391 L 24 28.400391 L 26 28.400391 L 26 28 L 24 28 L 22 28 z M 37.400391 28 L 37.400391 28.400391 L 39.400391 28.400391 L 39.400391 28 L 37.400391 28 z M 14 37.400391 L 14 37.800781 L 16 37.800781 L 18 37.800781 L 20 37.800781 L 20 37.400391 L 18 37.400391 L 16 37.400391 L 14 37.400391 z M 28 37.400391 L 28 37.800781 L 30 37.800781 L 32 37.800781 L 34 37.800781 L 34 37.400391 L 32 37.400391 L 30 37.400391 L 28 37.400391 z" transform="translate(384.57143,499.798)"/></g></svg>