<svg xmlns="http://www.w3.org/2000/svg" xmlns:svg="http://www.w3.org/2000/svg" xmlns:xlink="http://www.w3.org/1999/xlink" id="svg2" width="48" height="48" version="1.1" viewBox="0 0 13.547 13.547"><metadata id="metadata20"/><defs id="defs4"><linearGradient id="linearGradient4174"><stop id="stop4176" offset="0" stop-color="#f1c7c7" stop-opacity="1"/><stop id="stop4178" offset="1" stop-color="#fdf7f7" stop-opacity="1"/></linearGradient><linearGradient id="linearGradient4172-2" x1="419.086" x2="419.086" y1="-547.798" y2="-499.791" gradientTransform="matrix(0.28222223,0,0,0.28222223,-108.53461,141.05408)" gradientUnits="userSpaceOnUse" xlink:href="#linearGradient5277-2"/><linearGradient id="linearGradient5277-2"><stop id="stop5279-4" offset="0" stop-color="#c73331" stop-opacity="1"/><stop id="stop5281-8" offset="1" stop-color="#d55f5e" stop-opacity="1"/></linearGradient><linearGradient id="linearGradient4172" x1="7.056" x2="7.056" y1="11.12" y2="2.427" gradientUnits="userSpaceOnUse" xlink:href="#linearGradient4174"/></defs><rect id="rect2991-1-7-1-6" width="13.547" height="13.547" x="0" y="-13.547" fill="url(#linearGradient4172-2)" fill-opacity="1" stroke="none" ry=".549" transform="scale(1,-1)"/><path id="path4186" fill="#000" fill-opacity=".059" stroke="none" stroke-dasharray="none" stroke-miterlimit="4" stroke-opacity=".55" stroke-width="2.8" d="m 11.119666,2.7656673 0,8.6926627 -8.6926651,0 0,-8.6926627 8.6926651,0 z m -0.395221,0.3952214 -1.1288891,0 0,0.8466667 1.1288891,0 0,-0.8466667 z m -6.7733337,0 -1.1288889,0 0,0.8466667 1.1288889,0 0,-0.8466667 z m 6.7733337,1.1757423 -1.1288891,0 0,0.8466667 1.1288891,0 0,-0.8466667 z m -6.7733337,0 -1.1288889,0 0,0.8466667 1.1288889,0 0,-0.8466667 z m 6.7733337,1.1762932 -1.1288891,0 0,0.8466667 1.1288891,0 0,-0.8466667 z m -6.7733337,0 -1.1288889,0 0,0.8466667 1.1288889,0 0,-0.8466667 z m 6.7733337,1.1757424 -1.1288891,0 0,0.8466667 1.1288891,0 0,-0.8466667 z m -6.7733337,0 -1.1288889,0 0,0.8466667 1.1288889,0 0,-0.8466667 z m 6.7733337,1.1757423 -1.1288891,0 0,0.8466667 1.1288891,0 0,-0.8466667 z m -6.7733337,0 -1.1288889,0 0,0.8466667 1.1288889,0 0,-0.8466667 z m 0,1.1288889 -1.1288889,0 0,0.8466667 1.1288889,0 0,-0.8466667 z m 6.7733337,0.047404 -1.1288891,0 0,0.8466667 1.1288891,0 0,-0.8466667 z m 0,1.0814842 -1.1288891,0 0,0.846665 1.1288891,0 0,-0.846665 z m -6.7733337,0 -1.1288889,0 0,0.846665 1.1288889,0 0,-0.846665 z" opacity="1"/><path id="path4184" fill="#000" fill-opacity=".118" stroke="none" stroke-dasharray="none" stroke-miterlimit="4" stroke-opacity=".55" stroke-width="2.8" d="m 11.119666,2.6527785 0,8.6926635 -8.6926651,0 0,-8.6926635 8.6926651,0 z m -0.395221,0.3952214 -1.1288891,0 0,0.8466667 1.1288891,0 0,-0.8466667 z m -6.7733337,0 -1.1288889,0 0,0.8466667 1.1288889,0 0,-0.8466667 z m 6.7733337,1.1757423 -1.1288891,0 0,0.8466667 1.1288891,0 0,-0.8466667 z m -6.7733337,0 -1.1288889,0 0,0.8466667 1.1288889,0 0,-0.8466667 z m 6.7733337,1.1762932 -1.1288891,0 0,0.8466667 1.1288891,0 0,-0.8466667 z m -6.7733337,0 -1.1288889,0 0,0.8466667 1.1288889,0 0,-0.8466667 z m 6.7733337,1.1757424 -1.1288891,0 0,0.8466667 1.1288891,0 0,-0.8466667 z m -6.7733337,0 -1.1288889,0 0,0.8466667 1.1288889,0 0,-0.8466667 z m 6.7733337,1.1757423 -1.1288891,0 0,0.8466667 1.1288891,0 0,-0.8466667 z m -6.7733337,0 -1.1288889,0 0,0.8466667 1.1288889,0 0,-0.8466667 z m 0,1.1288889 -1.1288889,0 0,0.8466667 1.1288889,0 0,-0.8466667 z m 6.7733337,0.047404 -1.1288891,0 0,0.8466667 1.1288891,0 0,-0.8466667 z m 0,1.081485 -1.1288891,0 0,0.846665 1.1288891,0 0,-0.846665 z m -6.7733337,0 -1.1288889,0 0,0.846665 1.1288889,0 0,-0.846665 z" opacity="1"/><path id="path4180" fill="#000" fill-opacity=".235" stroke="none" stroke-dasharray="none" stroke-miterlimit="4" stroke-opacity=".55" stroke-width="2.8" d="m 11.119666,2.5398897 0,8.6926643 -8.6926651,0 0,-8.6926643 8.6926651,0 z m -0.395221,0.3952214 -1.1288891,0 0,0.8466667 1.1288891,0 0,-0.8466667 z m -6.7733337,0 -1.1288889,0 0,0.8466667 1.1288889,0 0,-0.8466667 z m 6.7733337,1.1757423 -1.1288891,0 0,0.8466667 1.1288891,0 0,-0.8466667 z m -6.7733337,0 -1.1288889,0 0,0.8466667 1.1288889,0 0,-0.8466667 z m 6.7733337,1.1762932 -1.1288891,0 0,0.8466667 1.1288891,0 0,-0.8466667 z m -6.7733337,0 -1.1288889,0 0,0.8466667 1.1288889,0 0,-0.8466667 z m 6.7733337,1.1757424 -1.1288891,0 0,0.8466667 1.1288891,0 0,-0.8466667 z m -6.7733337,0 -1.1288889,0 0,0.8466667 1.1288889,0 0,-0.8466667 z m 6.7733337,1.1757423 -1.1288891,0 0,0.8466667 1.1288891,0 0,-0.8466667 z m -6.7733337,0 -1.1288889,0 0,0.8466667 1.1288889,0 0,-0.8466667 z m 0,1.1288889 -1.1288889,0 0,0.8466667 1.1288889,0 0,-0.8466667 z m 6.7733337,0.047404 -1.1288891,0 0,0.8466667 1.1288891,0 0,-0.8466667 z m 0,1.0814846 -1.1288891,0 0,0.8466662 1.1288891,0 0,-0.8466662 z m -6.7733337,0 -1.1288889,0 0,0.8466662 1.1288889,0 0,-0.8466662 z" opacity="1"/><path id="rect846" fill="#000" fill-opacity="1" stroke="none" d="m -1.6781616e-6,12.700003 0,0.299861 c 0,0.304038 0.2427729981616,0.546805 0.5468049981616,0.546805 l 12.45305568,0 c 0.304032,0 0.546806,-0.242767 0.546806,-0.546805 l 0,-0.299861 c 0,0.304038 -0.242774,0.546805 -0.546806,0.546805 l -12.45305568,0 c -0.304032,0 -0.5468049981616,-0.242767 -0.5468049981616,-0.546805 z"/><path id="path7515" fill="#fff" fill-opacity=".537" stroke="none" d="m 0.71437332,0.18522506 c -0.258824,0 -0.471636,0.1804812 -0.520348,0.4233334 0.09472,-0.078994 0.218584,-0.1234722 0.352778,-0.1234722 l 12.45305568,0 c 0.134194,0 0.258061,0.044478 0.352778,0.1234722 -0.04871,-0.2428522 -0.261524,-0.4233334 -0.520347,-0.4233334 l -12.11791668,0 z"/><path id="rect4280" fill="#000" fill-opacity=".392" stroke="none" d="M 0.54680332,2.6639526e-6 C 0.24277132,2.6639526e-6 -1.6781616e-6,0.24277016 -1.6781616e-6,0.54680826 l 0,12.15319474 c 0,0.223915 0.1354719981616,0.40894 0.3263189981616,0.493889 -0.0873,-0.09407 -0.141111,-0.220811 -0.141111,-0.361584 l 0,-12.11791624 c 0,-0.2958253 0.233369,-0.5291667 0.529167,-0.5291667 l 12.11791668,0 c 0.295797,0 0.529166,0.2333414 0.529166,0.5291667 l 0,12.11791624 c 0,0.140773 -0.05381,0.267519 -0.141111,0.361584 0.190847,-0.08495 0.32632,-0.269974 0.32632,-0.493889 l 0,-12.15319474 c 0,-0.3040381 -0.242774,-0.5468055960474 -0.546806,-0.5468055960474 l -12.45305568,0 z"/><path id="rect4213" fill="url(#linearGradient4172)" fill-opacity="1" stroke="none" stroke-dasharray="none" stroke-miterlimit="4" stroke-opacity=".55" stroke-width="2.8" d="m 11.119666,2.4270009 0,8.6926651 -8.6926651,0 0,-8.6926651 8.6926651,0 z m -0.395221,0.3952214 -1.1288891,0 0,0.8466667 1.1288891,0 0,-0.8466667 z m -6.7733337,0 -1.1288889,0 0,0.8466667 1.1288889,0 0,-0.8466667 z m 6.7733337,1.1757423 -1.1288891,0 0,0.8466667 1.1288891,0 0,-0.8466667 z m -6.7733337,0 -1.1288889,0 0,0.8466667 1.1288889,0 0,-0.8466667 z m 6.7733337,1.1762932 -1.1288891,0 0,0.8466667 1.1288891,0 0,-0.8466667 z m -6.7733337,0 -1.1288889,0 0,0.8466667 1.1288889,0 0,-0.8466667 z m 6.7733337,1.1757424 -1.1288891,0 0,0.8466667 1.1288891,0 0,-0.8466667 z m -6.7733337,0 -1.1288889,0 0,0.8466667 1.1288889,0 0,-0.8466667 z m 6.7733337,1.1757423 -1.1288891,0 0,0.8466667 1.1288891,0 0,-0.8466667 z m -6.7733337,0 -1.1288889,0 0,0.8466667 1.1288889,0 0,-0.8466667 z m 0,1.1288889 -1.1288889,0 0,0.8466667 1.1288889,0 0,-0.8466667 z m 6.7733337,0.047404 -1.1288891,0 0,0.8466667 1.1288891,0 0,-0.8466667 z m 0,1.0814846 -1.1288891,0 0,0.8466667 1.1288891,0 0,-0.8466667 z m -6.7733337,0 -1.1288889,0 0,0.8466667 1.1288889,0 0,-0.8466667 z" opacity="1"/><path id="path4188" fill="#c83533" fill-opacity=".314" stroke="none" stroke-dasharray="none" stroke-miterlimit="4" stroke-opacity=".55" stroke-width="2.8" d="M 10 9.1992188 L 10 10 L 14 10 L 14 9.1992188 L 10 9.1992188 z M 34 9.1992188 L 34 10 L 38 10 L 38 9.1992188 L 34 9.1992188 z M 10 13.365234 L 10 14.166016 L 14 14.166016 L 14 13.365234 L 10 13.365234 z M 34 13.365234 L 34 14.166016 L 38 14.166016 L 38 13.365234 L 34 13.365234 z M 10 17.533203 L 10 18.333984 L 14 18.333984 L 14 17.533203 L 10 17.533203 z M 34 17.533203 L 34 18.333984 L 38 18.333984 L 38 17.533203 L 34 17.533203 z M 10 21.699219 L 10 22.5 L 14 22.5 L 14 21.699219 L 10 21.699219 z M 34 21.699219 L 34 22.5 L 38 22.5 L 38 21.699219 L 34 21.699219 z M 10 25.865234 L 10 26.666016 L 14 26.666016 L 14 25.865234 L 10 25.865234 z M 34 25.865234 L 34 26.666016 L 38 26.666016 L 38 25.865234 L 34 25.865234 z M 10 29.865234 L 10 30.666016 L 14 30.666016 L 14 29.865234 L 10 29.865234 z M 34 30.033203 L 34 30.833984 L 38 30.833984 L 38 30.033203 L 34 30.033203 z M 10 33.865234 L 10 34.666016 L 14 34.666016 L 14 33.865234 L 10 33.865234 z M 34 33.865234 L 34 34.666016 L 38 34.666016 L 38 33.865234 L 34 33.865234 z M 8.5996094 38.599609 L 8.5996094 39.400391 L 39.400391 39.400391 L 39.400391 38.599609 L 8.5996094 38.599609 z" opacity="1" transform="scale(0.28222223,0.28222223)"/><path id="path4193" fill="#fff" fill-opacity=".235" stroke="none" stroke-dasharray="none" stroke-miterlimit="4" stroke-opacity=".55" stroke-width="2.8" d="M 8.5996094 8.5996094 L 8.5996094 9 L 39.400391 9 L 39.400391 8.5996094 L 8.5996094 8.5996094 z M 10 13 L 10 13.400391 L 14 13.400391 L 14 13 L 10 13 z M 34 13 L 34 13.400391 L 38 13.400391 L 38 13 L 34 13 z M 10 17.166016 L 10 17.566406 L 14 17.566406 L 14 17.166016 L 10 17.166016 z M 34 17.166016 L 34 17.566406 L 38 17.566406 L 38 17.166016 L 34 17.166016 z M 10 21.333984 L 10 21.734375 L 14 21.734375 L 14 21.333984 L 10 21.333984 z M 34 21.333984 L 34 21.734375 L 38 21.734375 L 38 21.333984 L 34 21.333984 z M 10 25.5 L 10 25.900391 L 14 25.900391 L 14 25.5 L 10 25.5 z M 34 25.5 L 34 25.900391 L 38 25.900391 L 38 25.5 L 34 25.5 z M 10 29.666016 L 10 30.066406 L 14 30.066406 L 14 29.666016 L 10 29.666016 z M 34 29.666016 L 34 30.066406 L 38 30.066406 L 38 29.666016 L 34 29.666016 z M 10 33.666016 L 10 34.066406 L 14 34.066406 L 14 33.666016 L 10 33.666016 z M 34 33.833984 L 34 34.234375 L 38 34.234375 L 38 33.833984 L 34 33.833984 z M 10 37.666016 L 10 38.066406 L 14 38.066406 L 14 37.666016 L 10 37.666016 z M 34 37.666016 L 34 38.066406 L 38 38.066406 L 38 37.666016 L 34 37.666016 z" opacity="1" transform="scale(0.28222223,0.28222223)"/></svg>