<svg xmlns="http://www.w3.org/2000/svg" xmlns:svg="http://www.w3.org/2000/svg" xmlns:xlink="http://www.w3.org/1999/xlink" id="svg2" width="48" height="48" version="1.1" viewBox="0 0 13.547 13.547"><metadata id="metadata38"/><defs id="defs4"><linearGradient id="linearGradient1801"><stop id="stop1803" offset="0" stop-color="#1a1a1a" stop-opacity="1"/><stop id="stop1805" offset="1" stop-color="#333" stop-opacity="1"/></linearGradient><linearGradient id="linearGradient1807" x1="25.633" x2="25.633" y1="-1052.539" y2="-1004.456" gradientTransform="matrix(0.28222223,0,0,0.28222223,-2e-8,283.45334)" gradientUnits="userSpaceOnUse" xlink:href="#linearGradient1801"/></defs><rect id="rect2991-1" width="13.547" height="13.547" x="0" y="-13.547" fill="url(#linearGradient1807)" fill-opacity="1" stroke="none" ry=".549" transform="scale(1,-1)"/><path id="path5233" fill="#000" fill-opacity=".059" stroke="none" stroke-dasharray="none" stroke-miterlimit="4" stroke-opacity=".55" stroke-width="2.8" d="m 2.4270009,4.289833 0,2.2577778 8.6924451,0 0,-2.2577778 z m 0,2.6529439 0,4.5155531 8.6924451,0 0,-4.5155531 z" opacity="1"/><path id="path5231" fill="#000" fill-opacity=".118" stroke="none" stroke-dasharray="none" stroke-miterlimit="4" stroke-opacity=".55" stroke-width="2.8" d="m 2.4270009,4.1769442 0,2.2577778 8.6924451,0 0,-2.2577778 z m 0,2.6529439 0,4.5155539 8.6924451,0 0,-4.5155539 z" opacity="1"/><path id="path5229" fill="#000" fill-opacity=".235" stroke="none" stroke-dasharray="none" stroke-miterlimit="4" stroke-opacity=".55" stroke-width="2.8" d="m 2.4270009,4.0640554 0,2.2577778 8.6924451,0 0,-2.2577778 z m 0,2.6529439 0,4.5155547 8.6924451,0 0,-4.5155547 z" opacity="1"/><path id="rect846" fill="#000" fill-opacity="1" stroke="none" d="m -2e-8,12.7 0,0.299861 c 0,0.304038 0.24277405,0.546806 0.54680557,0.546806 l 12.45305545,0 c 0.304032,0 0.546806,-0.242768 0.546806,-0.546806 l 0,-0.299861 c 0,0.304038 -0.242774,0.546806 -0.546806,0.546806 l -12.45305545,0 C 0.24277403,13.246806 -2e-8,13.004038 -2e-8,12.7 Z"/><path id="path7515" fill="#fff" fill-opacity=".537" stroke="none" d="m 0.714375,0.18522226 c -0.2588229,0 -0.47163483,0.18048112 -0.52034724,0.42333335 0.0947172,-0.078994 0.21858451,-0.12347223 0.35277779,-0.12347223 l 12.45305545,0 c 0.134194,0 0.258061,0.0444782 0.352778,0.12347223 -0.04871,-0.24285223 -0.261524,-0.42333335 -0.520347,-0.42333335 l -12.117917,0 z"/><path id="rect4280" fill="#000" fill-opacity=".392" stroke="none" d="M 0.54680555,-1.88294e-7 C 0.24277403,-1.88294e-7 -2e-8,0.24276737 -2e-8,0.54680538 L -2e-8,12.7 c 0,0.223915 0.13547344,0.40894 0.32631945,0.493889 -0.0873032,-0.09407 -0.14111111,-0.220811 -0.14111111,-0.361583 l 0,-12.11791706 c 0,-0.29582534 0.23336928,-0.52916668 0.52916668,-0.52916668 l 12.117917,0 c 0.295797,0 0.529167,0.23334134 0.529167,0.52916668 l 0,12.11791706 c 0,0.140772 -0.05381,0.267518 -0.141111,0.361583 0.190846,-0.08495 0.326319,-0.269974 0.326319,-0.493889 l 0,-12.15319462 C 13.546667,0.24276737 13.303893,-1.88294e-7 12.999861,-1.88294e-7 l -12.45305545,0 z"/><path id="rect5203" fill="#e34d40" fill-opacity="1" stroke="none" stroke-dasharray="none" stroke-miterlimit="4" stroke-opacity=".55" stroke-width="2.8" d="m 2.4270009,3.9511666 0,2.2577778 8.6924451,0 0,-2.2577778 z m 0,2.6529439 0,4.5155555 8.6924451,0 0,-4.5155555 z" opacity="1"/><path id="rect5207" fill="#b9bbbb" fill-opacity="1" stroke="none" stroke-dasharray="none" stroke-miterlimit="4" stroke-opacity=".55" stroke-width="2.8" d="m 15.505859,8.5998049 c -0.0036,0 -0.0059,0.00216 -0.0059,0.00586 l 0,0.716797 0,0.271485 0,4.3828121 c 0,0.01283 0.01061,0.02344 0.02344,0.02344 l 1.953124,0 c 0.01283,0 0.02344,-0.01061 0.02344,-0.02344 l 0,-4.3769531 13,0 0,4.3769531 c 0,0.01283 0.0106,0.02344 0.02344,0.02344 l 1.953124,0 c 0.01283,0 0.02344,-0.0106 0.02344,-0.02344 l 0,-4.3828121 0,-0.988282 c -4.1e-5,-0.00366 -0.0022,-0.00586 -0.0059,-0.00586 z" opacity="1" transform="scale(0.28222223,0.28222223)"/><rect id="rect5218" width="7.902" height="1.411" x="2.822" y="9.313" fill="#ca4237" fill-opacity="1" stroke="none" stroke-dasharray="none" stroke-miterlimit="4" stroke-opacity=".55" stroke-width="2.8" opacity="1"/><path id="path5221" fill="#7f1b13" fill-opacity=".314" stroke="none" stroke-dasharray="none" stroke-miterlimit="4" stroke-opacity=".55" stroke-width="2.8" d="m 17.5,8.7990239 0,0.800781 13,0 0,-0.800781 z m -2,4.3769531 0,0.02344 0.02344,0 c -0.01283,0 -0.02344,-0.01061 -0.02344,-0.02344 z m 2,0 c 0,0.01283 -0.01061,0.02344 -0.02344,0.02344 l 0.02344,0 z m 13,0 0,0.02344 0.02344,0 c -0.01283,0 -0.02344,-0.01061 -0.02344,-0.02344 z m 2,0 c 0,0.01283 -0.01061,0.02344 -0.02344,0.02344 l 0.02344,0 z m -23.9003906,8.023437 0,0.800782 30.8007816,0 0,-0.800782 z m 0,17.400195 0,0.800782 30.8007816,0 0,-0.800782 z" opacity="1" transform="scale(0.28222223,0.28222223)"/><path id="path5235" fill="#fff" fill-opacity=".235" stroke="none" stroke-dasharray="none" stroke-miterlimit="4" stroke-opacity=".55" stroke-width="2.8" d="m 15.505859,8.5998049 c -0.0036,0 -0.0059,0.00217 -0.0059,0.00586 l 0,0.400391 c 0,-0.00369 0.0022,-0.00586 0.0059,-0.00586 l 16.988282,0 c 0.0036,0 0.0058,0.00221 0.0059,0.00586 l 0,-0.400391 c -4.1e-5,-0.00365 -0.0022,-0.00586 -0.0059,-0.00586 z m -6.9062496,5.4003911 0,0.40039 6.9238286,0 c -0.01283,0 -0.02344,-0.01061 -0.02344,-0.02344 l 0,-0.376953 z m 8.9003906,0 0,0.376953 c 0,0.01283 -0.01061,0.02344 -0.02344,0.02344 l 13.046876,0 c -0.01283,0 -0.02344,-0.01061 -0.02344,-0.02344 l 0,-0.376953 z m 15,0 0,0.376953 c 0,0.01283 -0.01061,0.02344 -0.02344,0.02344 l 6.923829,0 0,-0.40039 z m -23.9003906,9.400195 0,0.40039 30.8007816,0 0,-0.40039 z" opacity="1" transform="scale(0.28222223,0.28222223)"/></svg>