<svg xmlns="http://www.w3.org/2000/svg" xmlns:svg="http://www.w3.org/2000/svg" xmlns:xlink="http://www.w3.org/1999/xlink" id="svg2" width="48" height="48" version="1.1"><defs id="defs4"><linearGradient id="linearGradient4102"><stop id="stop4104" offset="0" stop-color="#afcdf5" stop-opacity="1"/><stop id="stop4106" offset="1" stop-color="#f6f9fe" stop-opacity="1"/></linearGradient><linearGradient id="linearGradient5555"><stop id="stop5557" offset="0" stop-color="#2d7ce6" stop-opacity="1"/><stop id="stop5559" offset="1" stop-color="#4990f1" stop-opacity="1"/></linearGradient><linearGradient id="linearGradient5561-0" x1="27.224" x2="27.224" y1="-1052.384" y2="-1004.332" gradientTransform="translate(-3.1091309e-7,-8.691406e-6)" gradientUnits="userSpaceOnUse" xlink:href="#linearGradient5555"/><linearGradient id="linearGradient4062" x1="61.353" x2="61.353" y1="39.397" y2="8.592" gradientTransform="matrix(0.99997461,0,0,0.99997462,-37.281647,1004.3632)" gradientUnits="userSpaceOnUse" xlink:href="#linearGradient4102"/></defs><metadata id="metadata7"/><g id="layer1" transform="translate(0,-1004.3622)"><rect id="rect2991-1-7-2" width="48" height="48" x="0" y="-1052.362" fill="url(#linearGradient5561-0)" fill-opacity="1" stroke="none" ry="1.945" transform="scale(1,-1)"/><path id="path4089" fill="#000" fill-opacity=".059" fill-rule="evenodd" stroke="none" d="m 8.6,1014.1622 0,6.9998 30.8,0 0,-6.9998 -30.8,0 z m 0,11.9001 0,6.9998 30.8,0 0,-6.9998 -30.8,0 z m 0,11.9001 0,6.9998 30.8,0 0,-6.9998 -30.8,0 z"/><path id="path4087" fill="#000" fill-opacity=".118" fill-rule="evenodd" stroke="none" d="m 8.6,1013.7622 0,6.9998 30.8,0 0,-6.9998 -30.8,0 z m 0,11.9001 0,6.9998 30.8,0 0,-6.9998 -30.8,0 z m 0,11.9001 0,6.9998 30.8,0 0,-6.9998 -30.8,0 z"/><path id="path4083" fill="#000" fill-opacity=".235" fill-rule="evenodd" stroke="none" d="m 8.6,1013.3622 0,6.9998 30.8,0 0,-6.9998 -30.8,0 z m 0,11.9001 0,6.9998 30.8,0 0,-6.9998 -30.8,0 z m 0,11.9001 0,6.9998 30.8,0 0,-6.9998 -30.8,0 z"/><path id="rect846-3" fill="#000" fill-opacity="1" stroke="none" d="m -6.3109131e-6,1049.3622 0,1.0625 c 0,1.0773 0.8602200009131,1.9375 1.9375000109131,1.9375 l 44.1249993,0 c 1.07728,0 1.9375,-0.8602 1.9375,-1.9375 l 0,-1.0625 c 0,1.0773 -0.86022,1.9375 -1.9375,1.9375 l -44.1249993,0 C 0.86021369,1051.2997 -6.3109131e-6,1050.4395 -6.3109131e-6,1049.3622 Z"/><path id="path7515-3" fill="#fff" fill-opacity=".537" stroke="none" d="m 2.5312437,1005.0185 c -0.91709,0 -1.67115001,0.6395 -1.84375001,1.5 0.33561001,-0.2799 0.77451001,-0.4375 1.25000001,-0.4375 l 44.1249993,0 c 0.47549,0 0.91439,0.1576 1.25,0.4375 -0.1726,-0.8605 -0.92666,-1.5 -1.84375,-1.5 L 2.5312437,1005.0185 Z"/><path id="rect4280-2" fill="#000" fill-opacity=".392" stroke="none" d="m 1.9374937,1004.3622 c -1.07728001,0 -1.9375000109131,0.8602 -1.9375000109131,1.9375 l 0,43.0625 c 0,0.7934 0.4800200009131,1.449 1.1562500109131,1.75 -0.30934001,-0.3333 -0.50000001,-0.7824 -0.50000001,-1.2812 l 0,-42.9375 c 0,-1.0482 0.82690001,-1.875 1.87500001,-1.875 l 42.9374993,0 c 1.0481,0 1.875,0.8268 1.875,1.875 l 0,42.9375 c 0,0.4988 -0.19066,0.9479 -0.5,1.2812 0.67623,-0.301 1.15625,-0.9566 1.15625,-1.75 l 0,-43.0625 c 0,-1.0773 -0.86022,-1.9375 -1.9375,-1.9375 L 1.9374937,1004.3622 Z"/><path id="rect3249" fill="url(#linearGradient4062)" fill-opacity="1" fill-rule="evenodd" stroke="none" d="m 8.6,1012.9626 0,6.9998 30.8,0 0,-6.9998 -30.8,0 z m 0,11.9001 0,6.9998 30.8,0 0,-6.9998 -30.8,0 z m 0,11.9001 0,6.9998 30.8,0 0,-6.9998 -30.8,0 z"/><path id="path4073" fill="#2d7ce6" fill-opacity=".314" fill-rule="evenodd" stroke="none" d="m 8.6,1019.163 0,0.7988 30.8,0 0,-0.7988 -30.8,0 z m 0,11.9004 0,0.7988 30.8,0 0,-0.7988 -30.8,0 z m 0,11.8984 0,0.8008 30.8,0 0,-0.8008 -30.8,0 z"/><path id="path4078" fill="#fff" fill-opacity=".235" fill-rule="evenodd" stroke="none" d="m 8.6,1012.9626 0,0.4004 30.8,0 0,-0.4004 -30.8,0 z m 0,11.8998 0,0.4004 30.8,0 0,-0.4004 -30.8,0 z m 0,11.8998 0,0.4004 30.8,0 0,-0.4004 -30.8,0 z"/></g></svg>