<svg xmlns="http://www.w3.org/2000/svg" xmlns:svg="http://www.w3.org/2000/svg" xmlns:xlink="http://www.w3.org/1999/xlink" id="svg2" width="48" height="48" version="1.1"><defs id="defs4"><linearGradient id="linearGradient4582"><stop id="stop4584" offset="0" stop-color="#c0d8f8" stop-opacity="1"/><stop id="stop4586" offset="1" stop-color="#f6f9fe" stop-opacity="1"/></linearGradient><linearGradient id="linearGradient5555"><stop id="stop5557" offset="0" stop-color="#2d7ce6" stop-opacity="1"/><stop id="stop5559" offset="1" stop-color="#4990f1" stop-opacity="1"/></linearGradient><linearGradient id="linearGradient5561-0" x1="27.224" x2="27.224" y1="-1052.384" y2="-1004.332" gradientTransform="translate(-3.1091309e-7,-8.691406e-6)" gradientUnits="userSpaceOnUse" xlink:href="#linearGradient5555"/><linearGradient id="linearGradient4580" x1="25.231" x2="25.231" y1="1043.767" y2="1012.953" gradientUnits="userSpaceOnUse" xlink:href="#linearGradient4582"/></defs><metadata id="metadata7"/><g id="layer1" transform="translate(0,-1004.3622)"><rect id="rect2991-1-7-2" width="48" height="48" x="0" y="-1052.362" fill="url(#linearGradient5561-0)" fill-opacity="1" stroke="none" ry="1.945" transform="scale(1,-1)"/><path id="path4594" fill="#000" fill-opacity=".059" d="m 22.076053,1014.162 0,1.9249 0,1.9248 -6.413023,0 -6.4130268,0 0,1.925 0,1.9249 10.2608408,0 10.26084,0 0,0.6161 c 0,0.8284 -0.520801,2.8154 -1.098183,4.1905 -0.638384,1.5201 -2.034405,3.5796 -3.391881,5.004 l -1.12228,1.1773 -0.808826,-0.8823 c -1.10854,-1.209 -2.761241,-3.7046 -3.37718,-5.0998 l -0.510092,-1.156 -2.211675,0 -2.211693,0 0.45813,1.1112 c 0.859234,2.0848 2.749922,4.9471 4.563958,6.9092 1.612876,1.7444 1.663089,1.3905 -0.415532,2.9346 -3.120995,2.3185 -5.527723,3.7289 -8.269612,4.8466 l -1.4805097,0.6037 1.2935707,1.4175 1.29325,1.4173 0.988873,-0.495 c 3.056817,-1.5304 6.607307,-3.782 9.127611,-5.7885 l 1.40535,-1.1188 1.079697,0.8717 c 2.834884,2.3022 6.34394,4.4887 9.430401,6.0463 l 0.988889,0.495 1.29325,-1.4173 1.293557,-1.4175 -1.480497,-0.6036 c -3.710776,-1.9547 -6.921214,-3.8114 -9.884685,-6.363 0,-0.077 0.481715,-0.6625 1.070284,-1.3023 3.178922,-3.4568 5.09531,-6.9724 5.626116,-10.3203 l 0.265227,-1.6712 2.531397,0 2.531398,0 0,-1.9249 0,-1.925 -6.413024,0 -6.413026,0 0,-1.9248 0,-1.9249 -1.923907,0 -1.923909,0 z"/><path id="path4592" fill="#000" fill-opacity=".118" d="m 22.076053,1013.7621 0,1.9249 0,1.9248 -6.413023,0 -6.4130268,0 0,1.925 0,1.9249 10.2608408,0 10.26084,0 0,0.6161 c 0,0.8284 -0.520801,2.8154 -1.098183,4.1905 -0.638384,1.5201 -2.034405,3.5796 -3.391881,5.004 l -1.12228,1.1773 -0.808826,-0.8823 c -1.10854,-1.209 -2.761241,-3.7046 -3.37718,-5.0998 l -0.510092,-1.156 -2.211675,0 -2.211693,0 0.45813,1.1112 c 0.859234,2.0848 2.749922,4.9471 4.563958,6.9092 1.612876,1.7444 1.663089,1.3905 -0.415532,2.9346 -3.120995,2.3185 -5.527723,3.7289 -8.269612,4.8466 l -1.4805097,0.6037 1.2935707,1.4175 1.29325,1.4173 0.988873,-0.495 c 3.056817,-1.5304 6.607307,-3.782 9.127611,-5.7885 l 1.40535,-1.1188 1.079697,0.8717 c 2.834884,2.3022 6.34394,4.4887 9.430401,6.0463 l 0.988889,0.495 1.29325,-1.4173 1.293557,-1.4175 -1.480497,-0.6036 c -3.710776,-1.9547 -6.921214,-3.8114 -9.884685,-6.363 0,-0.077 0.481715,-0.6625 1.070284,-1.3023 3.178922,-3.4568 5.09531,-6.9724 5.626116,-10.3203 l 0.265227,-1.6712 2.531397,0 2.531398,0 0,-1.9249 0,-1.925 -6.413024,0 -6.413026,0 0,-1.9248 0,-1.9249 -1.923907,0 -1.923909,0 z"/><path id="path4588" fill="#000" fill-opacity=".235" d="m 22.076053,1013.3621 0,1.9249 0,1.9248 -6.413023,0 -6.4130268,0 0,1.925 0,1.9249 10.2608408,0 10.26084,0 0,0.6161 c 0,0.8284 -0.520801,2.8154 -1.098183,4.1905 -0.638384,1.5201 -2.034405,3.5796 -3.391881,5.004 l -1.12228,1.1773 -0.808826,-0.8823 c -1.10854,-1.209 -2.761241,-3.7046 -3.37718,-5.0998 l -0.510092,-1.156 -2.211675,0 -2.211693,0 0.45813,1.1112 c 0.859234,2.0848 2.749922,4.9471 4.563958,6.9092 1.612876,1.7444 1.663089,1.3905 -0.415532,2.9346 -3.120995,2.3185 -5.527723,3.7289 -8.269612,4.8466 l -1.4805097,0.6037 1.2935707,1.4175 1.29325,1.4173 0.988873,-0.495 c 3.056817,-1.5304 6.607307,-3.782 9.127611,-5.7885 l 1.40535,-1.1188 1.079697,0.8717 c 2.834884,2.3022 6.34394,4.4887 9.430401,6.0463 l 0.988889,0.495 1.29325,-1.4173 1.293557,-1.4175 -1.480497,-0.6036 c -3.710776,-1.9547 -6.921214,-3.8114 -9.884685,-6.363 0,-0.077 0.481715,-0.6625 1.070284,-1.3023 3.178922,-3.4568 5.09531,-6.9724 5.626116,-10.3203 l 0.265227,-1.6712 2.531397,0 2.531398,0 0,-1.9249 0,-1.925 -6.413024,0 -6.413026,0 0,-1.9248 0,-1.9249 -1.923907,0 -1.923909,0 z"/><path id="rect846-3" fill="#000" fill-opacity="1" stroke="none" d="m -6.3109131e-6,1049.3622 0,1.0625 c 0,1.0773 0.8602200009131,1.9375 1.9375000109131,1.9375 l 44.1249993,0 c 1.07728,0 1.9375,-0.8602 1.9375,-1.9375 l 0,-1.0625 c 0,1.0773 -0.86022,1.9375 -1.9375,1.9375 l -44.1249993,0 C 0.86021369,1051.2997 -6.3109131e-6,1050.4395 -6.3109131e-6,1049.3622 Z"/><path id="path7515-3" fill="#fff" fill-opacity=".537" stroke="none" d="m 2.5312437,1005.0185 c -0.91709,0 -1.67115001,0.6395 -1.84375001,1.5 0.33561001,-0.2799 0.77451001,-0.4375 1.25000001,-0.4375 l 44.1249993,0 c 0.47549,0 0.91439,0.1576 1.25,0.4375 -0.1726,-0.8605 -0.92666,-1.5 -1.84375,-1.5 L 2.5312437,1005.0185 Z"/><path id="rect4280-2" fill="#000" fill-opacity=".392" stroke="none" d="m 1.9374937,1004.3622 c -1.07728001,0 -1.9375000109131,0.8602 -1.9375000109131,1.9375 l 0,43.0625 c 0,0.7934 0.4800200009131,1.449 1.1562500109131,1.75 -0.30934001,-0.3333 -0.50000001,-0.7824 -0.50000001,-1.2812 l 0,-42.9375 c 0,-1.0482 0.82690001,-1.875 1.87500001,-1.875 l 42.9374993,0 c 1.0481,0 1.875,0.8268 1.875,1.875 l 0,42.9375 c 0,0.4988 -0.19066,0.9479 -0.5,1.2812 0.67623,-0.301 1.15625,-0.9566 1.15625,-1.75 l 0,-43.0625 c 0,-1.0773 -0.86022,-1.9375 -1.9375,-1.9375 L 1.9374937,1004.3622 Z"/><path id="path4566" fill="url(#linearGradient4580)" fill-opacity="1" d="m 22.076053,1012.9621 0,1.9249 0,1.9248 -6.413023,0 -6.4130268,0 0,1.925 0,1.9249 10.2608408,0 10.26084,0 0,0.6161 c 0,0.8284 -0.520801,2.8154 -1.098183,4.1905 -0.638384,1.5201 -2.034405,3.5796 -3.391881,5.004 l -1.12228,1.1773 -0.808826,-0.8823 c -1.10854,-1.209 -2.761241,-3.7046 -3.37718,-5.0998 l -0.510092,-1.156 -2.211675,0 -2.211693,0 0.45813,1.1112 c 0.859234,2.0848 2.749922,4.9471 4.563958,6.9092 1.612876,1.7444 1.663089,1.3905 -0.415532,2.9346 -3.120995,2.3185 -5.527723,3.7289 -8.269612,4.8466 l -1.4805097,0.6037 1.2935707,1.4175 1.29325,1.4173 0.988873,-0.495 c 3.056817,-1.5304 6.607307,-3.782 9.127611,-5.7885 l 1.40535,-1.1188 1.079697,0.8717 c 2.834884,2.3022 6.34394,4.4887 9.430401,6.0463 l 0.988889,0.495 1.29325,-1.4173 1.293557,-1.4175 -1.480497,-0.6036 c -3.710776,-1.9547 -6.921214,-3.8114 -9.884685,-6.363 0,-0.077 0.481715,-0.6625 1.070284,-1.3023 3.178922,-3.4568 5.09531,-6.9724 5.626116,-10.3203 l 0.265227,-1.6712 2.531397,0 2.531398,0 0,-1.9249 0,-1.925 -6.413024,0 -6.413026,0 0,-1.9248 0,-1.9249 -1.923907,0 -1.923909,0 z"/><path id="path4596" fill="#2f7de7" fill-opacity=".314" d="M 9.25 15.5 L 9.25 16.298828 L 19.511719 16.298828 L 29.751953 16.298828 C 29.755206 16.24484 29.771484 16.162121 29.771484 16.115234 L 29.771484 15.5 L 19.511719 15.5 L 9.25 15.5 z M 33.6875 15.503906 L 33.421875 17.175781 C 32.891069 20.523681 30.973844 24.039294 27.794922 27.496094 C 27.206353 28.135894 26.724609 28.721828 26.724609 28.798828 C 26.844908 28.902407 26.968714 28.998267 27.089844 29.099609 C 27.2798 28.870967 27.520549 28.595131 27.794922 28.296875 C 30.973844 24.840075 32.891069 21.324462 33.421875 17.976562 L 33.6875 16.304688 L 36.21875 16.304688 L 38.75 16.304688 L 38.75 15.503906 L 36.21875 15.503906 L 33.6875 15.503906 z M 15.039062 20.148438 L 15.498047 21.259766 C 16.357281 23.344566 18.248464 26.207822 20.0625 28.169922 C 20.523126 28.668111 20.840678 28.985386 21.033203 29.234375 C 21.491525 28.762779 21.126331 28.519723 20.0625 27.369141 C 18.248464 25.407041 16.357281 22.545738 15.498047 20.460938 L 15.369141 20.148438 L 15.039062 20.148438 z M 24.005859 31.1875 L 22.599609 32.306641 C 20.079305 34.313141 16.529473 36.56335 13.472656 38.09375 L 12.482422 38.589844 L 11.189453 37.171875 L 10.429688 36.337891 L 9.8964844 36.554688 L 11.189453 37.972656 L 12.482422 39.388672 L 13.472656 38.894531 C 16.529473 37.364131 20.079305 35.111969 22.599609 33.105469 L 24.005859 31.986328 L 25.083984 32.859375 C 27.918868 35.161575 31.429164 37.346697 34.515625 38.904297 L 35.503906 39.400391 L 36.796875 37.982422 L 38.089844 36.564453 L 37.558594 36.347656 L 36.796875 37.183594 L 35.503906 38.599609 L 34.515625 38.105469 C 31.429164 36.547869 27.918868 34.360794 25.083984 32.058594 L 24.005859 31.1875 z" transform="translate(0,1004.3622)"/><path id="path4601" fill="#fff" fill-opacity=".235" d="M 22.076172 8.6054688 L 22.076172 9.0058594 L 24 9.0058594 L 25.923828 9.0058594 L 25.923828 8.6054688 L 24 8.6054688 L 22.076172 8.6054688 z M 9.25 12.449219 L 9.25 12.849609 L 15.662109 12.849609 L 22.076172 12.849609 L 22.076172 12.449219 L 15.662109 12.449219 L 9.25 12.449219 z M 25.923828 12.455078 L 25.923828 12.855469 L 32.337891 12.855469 L 38.75 12.855469 L 38.75 12.455078 L 32.337891 12.455078 L 25.923828 12.455078 z M 29.771484 16.916016 C 29.771484 17.744416 29.25121 19.730369 28.673828 21.105469 C 28.035444 22.625569 26.638726 24.684975 25.28125 26.109375 L 24.160156 27.287109 L 23.349609 26.404297 C 22.241069 25.195297 20.588595 22.699887 19.972656 21.304688 L 19.462891 20.148438 L 17.251953 20.148438 L 15.039062 20.148438 L 15.205078 20.548828 L 17.251953 20.548828 L 19.462891 20.548828 L 19.972656 21.705078 C 20.588595 23.100278 22.241069 25.595687 23.349609 26.804688 L 24.160156 27.6875 L 25.28125 26.509766 C 26.638726 25.085366 28.035444 23.025959 28.673828 21.505859 C 29.25121 20.130759 29.771484 18.144806 29.771484 17.316406 L 29.771484 16.916016 z M 26.904297 29.748047 C 26.834777 29.842015 26.724609 29.976112 26.724609 29.998047 C 29.68808 32.549647 32.898599 34.406628 36.609375 36.361328 L 37.824219 36.855469 L 38.089844 36.564453 L 36.609375 35.960938 C 32.972801 34.045324 29.818288 32.2217 26.904297 29.748047 z M 21.175781 29.839844 C 21.03076 30.122225 20.550883 30.431685 19.646484 31.103516 C 16.525489 33.422016 14.118842 34.833472 11.376953 35.951172 L 9.8964844 36.554688 L 10.162109 36.845703 L 11.376953 36.351562 C 14.118842 35.233862 16.525489 33.822406 19.646484 31.503906 C 20.960113 30.52808 21.41971 30.308267 21.175781 29.839844 z" transform="translate(0,1004.3622)"/></g></svg>