<svg xmlns="http://www.w3.org/2000/svg" xmlns:svg="http://www.w3.org/2000/svg" xmlns:xlink="http://www.w3.org/1999/xlink" id="svg2" width="48" height="48" version="1.1"><defs id="defs4"><linearGradient id="linearGradient69"><stop id="stop71" offset="0" stop-color="#000" stop-opacity="1"/><stop id="stop73" offset="1" stop-color="#333" stop-opacity="1"/></linearGradient><linearGradient id="linearGradient40"><stop id="stop42" offset="0" stop-color="#7e0912" stop-opacity="1"/><stop id="stop44" offset="1" stop-color="#e73129" stop-opacity="1"/></linearGradient><linearGradient id="linearGradient46" x1="379.234" x2="379.234" y1="-487.901" y2="-439.784" gradientUnits="userSpaceOnUse" xlink:href="#linearGradient6589"/><linearGradient id="linearGradient66" x1="379.234" x2="379.234" y1="-487.901" y2="-439.784" gradientTransform="matrix(1,0,0,-1,-353.14286,-439.79074)" gradientUnits="userSpaceOnUse" xlink:href="#linearGradient69"/><linearGradient id="linearGradient910" x1="391.017" x2="391.017" y1="457.341" y2="439.884" gradientTransform="matrix(0.88489209,0,0,0.88489209,44.966085,51.623395)" gradientUnits="userSpaceOnUse" xlink:href="#linearGradient40"/><linearGradient id="linearGradient6589"><stop id="stop6591" offset="0" stop-color="#88c425" stop-opacity="1"/><stop id="stop6593" offset="1" stop-color="#bef202" stop-opacity="1"/></linearGradient></defs><metadata id="metadata7"/><g id="layer1" transform="translate(-353.14286,-439.79074)"><rect id="rect2991-1-7" width="48" height="48" x="353.143" y="-487.791" fill="url(#linearGradient46)" fill-opacity="1" stroke="none" ry="1.945" transform="scale(1,-1)"/><path id="rect48" fill="url(#linearGradient66)" fill-opacity="1" stroke="none" d="M 1.9375 0 C 0.86022285 0 0 0.86022285 0 1.9375 L 0 46.0625 C 0 47.139777 0.86022285 48 1.9375 48 L 11.125 48 L 11.125 0 L 1.9375 0 z" transform="translate(353.14286,439.79074)"/><g id="g912"><path id="rect889" fill="#000" fill-opacity=".537" d="m 386.14286,439.79074 0,17.34375 4.5,-2.625 4.5,2.65625 L 395.14286,439.79074 Z"/><path id="path902" fill="url(#linearGradient910)" fill-opacity="1" d="m 386.66085,439.79035 0,16.34774 3.98201,-2.32284 3.98201,2.35049 L 394.62487,439.79035 Z"/></g><g id="g885"><path id="rect75" fill="#fff" fill-opacity=".196" d="m 11.125,0 0,48 0.59375,0 0,-48 L 11.125,0 Z" transform="translate(353.14286,439.79074)"/><path id="rect877" fill="#000" fill-opacity=".196" d="m 10.53125,0 0,48 0.59375,0 0,-48 L 10.53125,0 Z" transform="translate(353.14286,439.79074)"/></g><path id="rect846" fill="#000" fill-opacity="1" stroke="none" d="m 353.14285,484.79076 0,1.0625 c 0,1.0773 0.86022,1.9375 1.9375,1.9375 l 44.125,0 c 1.07728,0 1.9375,-0.8602 1.9375,-1.9375 l 0,-1.0625 c 0,1.0773 -0.86022,1.9375 -1.9375,1.9375 l -44.125,0 C 354.00307,486.72826 353.14285,485.86806 353.14285,484.79076 Z"/><path id="path7515" fill="#fff" fill-opacity=".537" stroke="none" d="m 355.6741,440.44706 c -0.91709,0 -1.67115,0.6395 -1.84375,1.5 0.33561,-0.2799 0.77451,-0.4375 1.25,-0.4375 l 44.125,0 c 0.47549,0 0.91439,0.1576 1.25,0.4375 -0.1726,-0.8605 -0.92666,-1.5 -1.84375,-1.5 L 355.6741,440.44706 Z"/><path id="rect4280" fill="#000" fill-opacity=".392" stroke="none" d="m 355.08035,439.79076 c -1.07728,0 -1.9375,0.8602 -1.9375,1.9375 l 0,43.0625 c 0,0.7934 0.48002,1.449 1.15625,1.75 -0.30934,-0.3333 -0.5,-0.7824 -0.5,-1.2812 l 0,-42.9375 c 0,-1.0482 0.8269,-1.875 1.875,-1.875 l 42.9375,0 c 1.0481,0 1.875,0.8268 1.875,1.875 l 0,42.9375 c 0,0.4988 -0.19066,0.9479 -0.5,1.2812 0.67623,-0.301 1.15625,-0.9566 1.15625,-1.75 l 0,-43.0625 c 0,-1.0773 -0.86022,-1.9375 -1.9375,-1.9375 L 355.08035,439.79076 Z"/></g></svg>