<svg xmlns="http://www.w3.org/2000/svg" xmlns:svg="http://www.w3.org/2000/svg" xmlns:xlink="http://www.w3.org/1999/xlink" id="svg2" width="48" height="48" version="1.1"><defs id="defs4"><linearGradient id="linearGradient859" x1="23.102" x2="23.102" y1="-1052.368" y2="-1004.361" gradientTransform="translate(1.1564465e-5,3.425e-6)" gradientUnits="userSpaceOnUse" xlink:href="#linearGradient1373"/><linearGradient id="linearGradient4174" x1="32.5" x2="32.5" y1="1043.8" y2="1012.925" gradientUnits="userSpaceOnUse" xlink:href="#linearGradient5261"/><linearGradient id="linearGradient5261"><stop id="stop5263" offset="0" stop-color="#1e6ccd" stop-opacity="1"/><stop id="stop5265" offset="1" stop-color="#2faff9" stop-opacity="1"/></linearGradient><linearGradient id="linearGradient1373"><stop id="stop1375" offset="0" stop-color="#282827" stop-opacity="1"/><stop id="stop1377" offset="1" stop-color="#292929" stop-opacity="1"/></linearGradient></defs><metadata id="metadata7"/><g id="layer1" transform="translate(0,-1004.3622)"><rect id="rect2991-1-7" width="48" height="48" x="0" y="-1052.362" fill="url(#linearGradient859)" fill-opacity="1" stroke="none" ry="1.945" transform="scale(1,-1)"/><path id="rect846" fill="#000" fill-opacity="1" stroke="none" d="m -2.2444153e-7,1049.3622 0,1.0625 c 0,1.0773 0.86022290444153,1.9375 1.93749992444153,1.9375 l 44.1250003,0 c 1.077277,0 1.9375,-0.8602 1.9375,-1.9375 l 0,-1.0625 c 0,1.0773 -0.860223,1.9375 -1.9375,1.9375 l -44.1250003,0 C 0.86022268,1051.2997 -2.2444153e-7,1050.4395 -2.2444153e-7,1049.3622 Z"/><path id="path7515" fill="#fff" fill-opacity=".537" stroke="none" d="m 2.5312497,1005.0185 c -0.9170884,0 -1.67114672,0.6395 -1.84374992,1.5 0.33561202,-0.2799 0.77451212,-0.4375 1.24999992,-0.4375 l 44.1250003,0 c 0.475488,0 0.914388,0.1576 1.25,0.4375 -0.172603,-0.8605 -0.926662,-1.5 -1.84375,-1.5 L 2.5312497,1005.0185 Z"/><path id="rect4280" fill="#000" fill-opacity=".392" stroke="none" d="m 1.9374997,1004.3622 c -1.07727692,0 -1.93749992444153,0.8602 -1.93749992444153,1.9375 l 0,43.0625 c 0,0.7934 0.48002360444153,1.449 1.15624992444153,1.75 -0.30934162,-0.3333 -0.49999992,-0.7824 -0.49999992,-1.2812 l 0,-42.9375 c 0,-1.0482 0.82689892,-1.875 1.87499992,-1.875 l 42.9375003,0 c 1.048101,0 1.875,0.8268 1.875,1.875 l 0,42.9375 c 0,0.4988 -0.190658,0.9479 -0.5,1.2812 0.676226,-0.301 1.15625,-0.9566 1.15625,-1.75 l 0,-43.0625 c 0,-1.0773 -0.860223,-1.9375 -1.9375,-1.9375 L 1.9374997,1004.3622 Z"/><path id="path3367" fill="#000" fill-opacity=".059" d="m 24,1014.1622 a 15.399609,15.3996 0 0 0 -15.3999998,15.4 15.399609,15.3996 0 0 0 15.3999998,15.4 15.399609,15.3996 0 0 0 15.4,-15.4 15.399609,15.3996 0 0 0 -15.4,-15.4 z m 0,2.9999 A 12.399685,12.399678 0 0 1 36.400077,1029.5622 12.399685,12.399678 0 0 1 24,1041.9623 12.399685,12.399678 0 0 1 11.599924,1029.5622 12.399685,12.399678 0 0 1 24,1017.1621 Z m 0,5.4003 c -0.830979,0 -1.499962,0.669 -1.499962,1.4999 l 0,10.9998 c 0,0.8309 0.668983,1.4999 1.499962,1.4999 0.830979,0 1.499962,-0.669 1.499962,-1.4999 l 0,-10.9998 c 0,-0.8309 -0.668983,-1.4999 -1.499962,-1.4999 z"/><path id="path3365" fill="#000" fill-opacity=".118" d="m 24,1013.7622 a 15.399609,15.3996 0 0 0 -15.3999998,15.4 15.399609,15.3996 0 0 0 15.3999998,15.4 15.399609,15.3996 0 0 0 15.4,-15.4 15.399609,15.3996 0 0 0 -15.4,-15.4 z m 0,2.9999 A 12.399685,12.399678 0 0 1 36.400077,1029.1622 12.399685,12.399678 0 0 1 24,1041.5623 12.399685,12.399678 0 0 1 11.599924,1029.1622 12.399685,12.399678 0 0 1 24,1016.7621 Z m 0,5.4003 c -0.830979,0 -1.499962,0.669 -1.499962,1.4999 l 0,10.9998 c 0,0.8309 0.668983,1.4999 1.499962,1.4999 0.830979,0 1.499962,-0.669 1.499962,-1.4999 l 0,-10.9998 c 0,-0.8309 -0.668983,-1.4999 -1.499962,-1.4999 z"/><path id="path3363" fill="#000" fill-opacity=".235" d="m 24,1013.3622 a 15.399609,15.3996 0 0 0 -15.3999998,15.4 15.399609,15.3996 0 0 0 15.3999998,15.4 15.399609,15.3996 0 0 0 15.4,-15.4 15.399609,15.3996 0 0 0 -15.4,-15.4 z m 0,2.9999 A 12.399685,12.399678 0 0 1 36.400077,1028.7622 12.399685,12.399678 0 0 1 24,1041.1623 12.399685,12.399678 0 0 1 11.599924,1028.7622 12.399685,12.399678 0 0 1 24,1016.3621 Z m 0,5.4003 c -0.830979,0 -1.499962,0.669 -1.499962,1.4999 l 0,10.9998 c 0,0.8309 0.668983,1.4999 1.499962,1.4999 0.830979,0 1.499962,-0.669 1.499962,-1.4999 l 0,-10.9998 c 0,-0.8309 -0.668983,-1.4999 -1.499962,-1.4999 z"/><path id="path3342" fill="url(#linearGradient4174)" fill-opacity="1" d="m 24,1012.9622 a 15.399609,15.3996 0 0 0 -15.3999998,15.4 15.399609,15.3996 0 0 0 15.3999998,15.4 15.399609,15.3996 0 0 0 15.4,-15.4 15.399609,15.3996 0 0 0 -15.4,-15.4 z m 0,2.9999 A 12.399685,12.399678 0 0 1 36.400077,1028.3622 12.399685,12.399678 0 0 1 24,1040.7623 12.399685,12.399678 0 0 1 11.599924,1028.3622 12.399685,12.399678 0 0 1 24,1015.9621 Z m 0,5.4003 c -0.830979,0 -1.499962,0.669 -1.499962,1.4999 l 0,10.9998 c 0,0.8309 0.668983,1.4999 1.499962,1.4999 0.830979,0 1.499962,-0.669 1.499962,-1.4999 l 0,-10.9998 c 0,-0.8309 -0.668983,-1.4999 -1.499962,-1.4999 z"/><path id="path4169" fill="#09203b" fill-opacity=".314" d="M 24 10.400391 A 12.399685 12.399678 0 0 0 11.599609 22.800781 A 12.399685 12.399678 0 0 0 11.625 23.503906 A 12.399685 12.399678 0 0 1 24 11.599609 A 12.399685 12.399678 0 0 1 36.375 23.296875 A 12.399685 12.399678 0 0 0 36.400391 22.800781 A 12.399685 12.399678 0 0 0 24 10.400391 z M 8.625 23.296875 A 15.399609 15.3996 0 0 0 8.5996094 24 A 15.399609 15.3996 0 0 0 24 39.400391 A 15.399609 15.3996 0 0 0 39.400391 24 A 15.399609 15.3996 0 0 0 39.375 23.503906 A 15.399609 15.3996 0 0 1 24 38.199219 A 15.399609 15.3996 0 0 1 8.625 23.296875 z M 22.5 28.300781 L 22.5 29.5 C 22.5 30.3309 23.169021 31 24 31 C 24.830979 31 25.5 30.3309 25.5 29.5 L 25.5 28.300781 C 25.5 29.131681 24.830979 29.798828 24 29.798828 C 23.169021 29.798828 22.5 29.131681 22.5 28.300781 z" transform="translate(0,1004.3622)"/><path id="path4076" fill="#fff" fill-opacity=".235" d="M 24 8.5996094 A 15.399609 15.3996 0 0 0 8.5996094 24 A 15.399609 15.3996 0 0 0 8.6074219 24.166016 A 15.399609 15.3996 0 0 1 24 9 A 15.399609 15.3996 0 0 1 39.392578 24.234375 A 15.399609 15.3996 0 0 0 39.400391 24 A 15.399609 15.3996 0 0 0 24 8.5996094 z M 24 17 C 23.169021 17 22.5 17.6691 22.5 18.5 L 22.5 18.900391 C 22.5 18.069491 23.169021 17.400391 24 17.400391 C 24.830979 17.400391 25.5 18.069491 25.5 18.900391 L 25.5 18.5 C 25.5 17.6691 24.830979 17 24 17 z M 36.392578 24.166016 A 12.399685 12.399678 0 0 1 24 36.400391 A 12.399685 12.399678 0 0 1 11.607422 24.234375 A 12.399685 12.399678 0 0 0 11.599609 24.400391 A 12.399685 12.399678 0 0 0 24 36.800781 A 12.399685 12.399678 0 0 0 36.400391 24.400391 A 12.399685 12.399678 0 0 0 36.392578 24.166016 z" transform="translate(0,1004.3622)"/></g></svg>