<svg xmlns="http://www.w3.org/2000/svg" xmlns:svg="http://www.w3.org/2000/svg" xmlns:xlink="http://www.w3.org/1999/xlink" id="svg5453" width="48" height="48" version="1.1"><defs id="defs5455"><linearGradient id="linearGradient4079"><stop id="stop4081" offset="0" stop-color="#d8dce0" stop-opacity="1"/><stop id="stop4083" offset="1" stop-color="#f9fafb" stop-opacity="1"/></linearGradient><linearGradient id="linearGradient859-7" x1="23.102" x2="23.102" y1="-1052.385" y2="-1004.361" gradientTransform="translate(384.57142,504.56418)" gradientUnits="userSpaceOnUse" xlink:href="#linearGradient4252-2"/><linearGradient id="linearGradient4252-2"><stop id="stop4254-0" offset="0" stop-color="#2d3238" stop-opacity="1"/><stop id="stop4256-7" offset="1" stop-color="#5c6373" stop-opacity="1"/></linearGradient><linearGradient id="linearGradient4077" x1="416.649" x2="416.649" y1="539.196" y2="508.399" gradientUnits="userSpaceOnUse" xlink:href="#linearGradient4079"/></defs><metadata id="metadata5458"/><g id="layer1" transform="translate(-384.57143,-499.798)"><rect id="rect2991-1-7-2-2" width="48" height="48" x="384.571" y="-547.798" fill="url(#linearGradient859-7)" fill-opacity="1" stroke="none" ry="1.945" transform="scale(1,-1)"/><path id="rect846" fill="#000" fill-opacity="1" stroke="none" d="m 384.57143,544.79799 0,1.0625 c 0,1.0773 0.86022,1.9375 1.9375,1.9375 l 44.125,0 c 1.07728,0 1.9375,-0.8602 1.9375,-1.9375 l 0,-1.0625 c 0,1.0773 -0.86022,1.9375 -1.9375,1.9375 l -44.125,0 C 385.43165,546.73549 384.57143,545.87529 384.57143,544.79799 Z"/><path id="path7515" fill="#fff" fill-opacity=".537" stroke="none" d="m 387.10268,500.45429 c -0.91709,0 -1.67115,0.6395 -1.84375,1.5 0.33561,-0.2799 0.77451,-0.4375 1.25,-0.4375 l 44.125,0 c 0.47549,0 0.91439,0.1576 1.25,0.4375 -0.1726,-0.8605 -0.92666,-1.5 -1.84375,-1.5 L 387.10268,500.45429 Z"/><path id="rect4280" fill="#000" fill-opacity=".392" stroke="none" d="m 386.50893,499.79799 c -1.07728,0 -1.9375,0.8602 -1.9375,1.9375 l 0,43.0625 c 0,0.7934 0.48002,1.449 1.15625,1.75 -0.30934,-0.3333 -0.5,-0.7824 -0.5,-1.2812 l 0,-42.9375 c 0,-1.0482 0.8269,-1.875 1.875,-1.875 l 42.9375,0 c 1.0481,0 1.875,0.8268 1.875,1.875 l 0,42.9375 c 0,0.4988 -0.19066,0.9479 -0.5,1.2812 0.67623,-0.301 1.15625,-0.9566 1.15625,-1.75 l 0,-43.0625 c 0,-1.0773 -0.86022,-1.9375 -1.9375,-1.9375 L 386.50893,499.79799 Z"/><path id="path4131" fill="#000" fill-opacity=".059" stroke="none" d="m 408.61062,509.59809 -0.0731,0.0473 c -3.15509,1.64842 -20.55167,16.31068 -12.42414,26.51171 2.54043,3.18811 7.68906,3.27766 11.1308,-1.23797 1e-5,0.007 3.1e-4,0.0777 3.1e-4,0.0803 0,2.49131 -1.58097,4.59899 -3.79873,5.38317 l 0,0.0154 10.25135,0 0,-0.0154 c -2.21776,-0.78418 -3.7987,-2.89186 -3.7987,-5.38317 0,-0.003 3e-4,-0.0739 3.1e-4,-0.0813 3.08613,4.35383 8.6097,4.41177 11.13077,1.23889 l -2.9e-4,0 c 8.12755,-10.20103 -9.26632,-24.86329 -12.41862,-26.5117 l 0,-0.0473 z"/><path id="path4129" fill="#000" fill-opacity=".118" stroke="none" d="m 408.61062,509.19809 -0.0731,0.0473 c -3.15509,1.64842 -20.55167,16.31068 -12.42414,26.51171 2.54043,3.18811 7.68906,3.27766 11.1308,-1.23797 1e-5,0.007 3.1e-4,0.0777 3.1e-4,0.0803 0,2.49131 -1.58097,4.59899 -3.79873,5.38317 l 0,0.0154 10.25135,0 0,-0.0154 c -2.21776,-0.78418 -3.7987,-2.89186 -3.7987,-5.38317 0,-0.003 3e-4,-0.0739 3.1e-4,-0.0813 3.08613,4.35383 8.6097,4.41177 11.13077,1.23889 l -2.9e-4,0 c 8.12755,-10.20103 -9.26632,-24.86329 -12.41862,-26.5117 l 0,-0.0473 z"/><path id="path4123" fill="#000" fill-opacity=".235" stroke="none" d="m 408.61062,508.79809 -0.0731,0.0473 c -3.15509,1.64842 -20.55167,16.31068 -12.42414,26.51171 2.54043,3.18811 7.68906,3.27766 11.1308,-1.23797 1e-5,0.007 3.1e-4,0.0777 3.1e-4,0.0803 0,2.49131 -1.58097,4.59899 -3.79873,5.38317 l 0,0.0154 10.25135,0 0,-0.0154 c -2.21776,-0.78418 -3.7987,-2.89186 -3.7987,-5.38317 0,-0.003 3e-4,-0.0739 3.1e-4,-0.0813 3.08613,4.35383 8.6097,4.41177 11.13077,1.23889 l -2.9e-4,0 c 8.12755,-10.20103 -9.26632,-24.86329 -12.41862,-26.5117 l 0,-0.0473 z"/><path id="rect4169" fill="url(#linearGradient4077)" fill-opacity="1" stroke="none" d="m 408.61062,508.39808 -0.0731,0.0473 c -3.15509,1.64842 -20.55167,16.31068 -12.42414,26.51171 2.54043,3.18811 7.68906,3.27766 11.1308,-1.23797 1e-5,0.007 3.1e-4,0.0777 3.1e-4,0.0803 0,2.49131 -1.58097,4.59899 -3.79873,5.38317 l 0,0.0154 10.25135,0 0,-0.0154 c -2.21776,-0.78418 -3.7987,-2.89186 -3.7987,-5.38317 0,-0.003 3e-4,-0.0739 3.1e-4,-0.0813 3.08613,4.35383 8.6097,4.41177 11.13077,1.23889 l -2.9e-4,0 c 8.12755,-10.20103 -9.26632,-24.86329 -12.41862,-26.5117 l 0,-0.0473 z"/><path id="path4133" fill="#30353c" fill-opacity=".314" stroke="none" d="M 38.580078 28.6875 C 38.507557 30.651732 37.878976 32.574668 36.457031 34.359375 L 36.458984 34.359375 C 33.937914 37.532255 28.414255 37.474924 25.328125 33.121094 C 25.328115 33.128494 25.326172 33.198172 25.326172 33.201172 C 25.326172 33.471986 25.352522 33.735553 25.388672 33.996094 C 28.485547 38.269642 33.953622 38.311315 36.458984 35.158203 L 36.457031 35.158203 C 38.071856 33.131408 38.668341 30.929455 38.580078 28.6875 z M 9.4199219 28.693359 C 9.3327548 30.933288 9.9276052 33.133179 11.541016 35.158203 C 14.066973 38.328151 19.169997 38.431922 22.611328 33.994141 C 22.647305 33.734208 22.673828 33.471325 22.673828 33.201172 C 22.673828 33.198572 22.671885 33.128094 22.671875 33.121094 C 19.230135 37.636724 14.081446 37.547485 11.541016 34.359375 C 10.120488 32.576442 9.4933456 30.655554 9.4199219 28.693359 z M 20.345703 38.599609 C 19.899835 38.927309 19.407288 39.196553 18.875 39.384766 L 18.875 39.400391 L 29.125 39.400391 L 29.125 39.384766 C 28.592712 39.196553 28.100163 38.927309 27.654297 38.599609 L 20.345703 38.599609 z" transform="translate(384.57143,499.798)"/><path id="path4138" fill="#fff" fill-opacity=".235" stroke="none" d="M 24.039062 8.5996094 L 23.966797 8.6464844 C 21.383311 9.996262 9.2591842 20.072415 9.4101562 29.279297 C 9.6060462 20.182466 21.420567 10.377188 23.966797 9.046875 L 24.039062 9 L 24.039062 9.046875 C 26.582676 10.376989 38.39143 20.179659 38.589844 29.275391 C 38.738062 20.069567 26.619898 9.9960627 24.039062 8.6464844 L 24.039062 8.5996094 z M 22.671875 34.320312 C 22.663502 34.331298 22.654878 34.340631 22.646484 34.351562 C 22.504604 36.686799 20.986736 38.638075 18.875 39.384766 L 18.875 39.400391 L 19.71875 39.400391 C 21.481105 38.429949 22.673828 36.562975 22.673828 34.402344 C 22.673828 34.399744 22.671885 34.327312 22.671875 34.320312 z M 25.328125 34.320312 C 25.328115 34.327713 25.326172 34.399344 25.326172 34.402344 C 25.326172 36.562975 26.518901 38.429949 28.28125 39.400391 L 29.125 39.400391 L 29.125 39.384766 C 27.013852 38.638283 25.49613 36.687885 25.353516 34.353516 C 25.345222 34.341926 25.336384 34.331963 25.328125 34.320312 z" transform="translate(384.57143,499.798)"/></g></svg>