<svg xmlns="http://www.w3.org/2000/svg" xmlns:svg="http://www.w3.org/2000/svg" xmlns:xlink="http://www.w3.org/1999/xlink" id="svg2" width="48" height="48" version="1.1"><defs id="defs4"><linearGradient id="linearGradient16368"><stop id="stop16370" offset="0" stop-color="#1a1a1a" stop-opacity="1"/><stop id="stop16372" offset="1" stop-color="#1a1a1a" stop-opacity="0"/></linearGradient><linearGradient id="linearGradient3795-1-6"><stop id="stop1162" offset="0" stop-color="#000" stop-opacity="1"/><stop id="stop1164" offset="1" stop-color="#333" stop-opacity="1"/></linearGradient><linearGradient id="linearGradient1086"><stop id="stop1088" offset="0" stop-color="#e8e8e8" stop-opacity="1"/><stop id="stop1090" offset="1" stop-color="#fff" stop-opacity="1"/></linearGradient><linearGradient id="linearGradient3021"><stop id="stop3023" offset="0" stop-color="#cc6060" stop-opacity="1"/><stop id="stop3025" offset="1" stop-color="#fff" stop-opacity="0"/></linearGradient><linearGradient id="linearGradient16335" x1="23.158" x2="23.158" y1="-1052.018" y2="-1004.456" gradientTransform="matrix(0.83333334,0,0,0.83333334,3.9999972,-171.39376)" gradientUnits="userSpaceOnUse" xlink:href="#linearGradient3795-1-6"/><linearGradient id="linearGradient16339" x1="23.158" x2="23.158" y1="-1052.018" y2="-1004.456" gradientTransform="matrix(0.71428571,0,0,0.71428571,6.8571404,-293.81782)" gradientUnits="userSpaceOnUse" xlink:href="#linearGradient1086"/><linearGradient id="linearGradient16343" x1="23.158" x2="23.158" y1="-1052.018" y2="-1004.456" gradientTransform="matrix(1.0174147,0,0,-0.6158393,-0.41795584,383.18428)" gradientUnits="userSpaceOnUse" xlink:href="#linearGradient3021"/><linearGradient id="linearGradient16374" x1="-4.372" x2="6.505" y1="27.845" y2="27.845" gradientTransform="matrix(0.95238097,0,0,0.95238097,1.1428567,1005.5051)" gradientUnits="userSpaceOnUse" xlink:href="#linearGradient16368"/><linearGradient id="linearGradient16378" x1="-4.372" x2="6.505" y1="27.845" y2="27.845" gradientTransform="matrix(-0.95238097,0,0,0.95238097,46.857143,1005.5051)" gradientUnits="userSpaceOnUse" xlink:href="#linearGradient16368"/><linearGradient id="linearGradient16384" x1="-4.372" x2="6.505" y1="27.845" y2="27.845" gradientTransform="matrix(0,-0.95238097,0.95238097,0,1.1428567,1051.2193)" gradientUnits="userSpaceOnUse" xlink:href="#linearGradient16368"/><linearGradient id="linearGradient16386" x1="-4.372" x2="6.505" y1="27.845" y2="27.845" gradientTransform="matrix(0,0.95238097,0.95238097,0,1.1428567,1005.5051)" gradientUnits="userSpaceOnUse" xlink:href="#linearGradient16368"/><linearGradient id="linearGradient6390-2"><stop id="stop6392-0" offset="0" stop-color="#fff" stop-opacity="1"/><stop id="stop6414-7" offset=".165" stop-color="#29282b" stop-opacity="1"/><stop id="stop6416-5" offset=".261" stop-color="#868c95" stop-opacity="1"/><stop id="stop6418-2" offset=".395" stop-color="#92979f" stop-opacity="1"/><stop id="stop6420-9" offset=".543" stop-color="#737881" stop-opacity="1"/><stop id="stop6422-2" offset=".626" stop-color="#70757e" stop-opacity="1"/><stop id="stop6424-8" offset=".721" stop-color="#e4e6e8" stop-opacity="1"/><stop id="stop6426-7" offset=".795" stop-color="#fff" stop-opacity="1"/><stop id="stop6394-8" offset="1" stop-color="#1d191a" stop-opacity="1"/></linearGradient><linearGradient id="linearGradient3382" x1="407.669" x2="407.669" y1="-555.928" y2="-495.714" gradientTransform="translate(-384.57144,-504.56427)" gradientUnits="userSpaceOnUse" xlink:href="#linearGradient6390-2"/></defs><metadata id="metadata7"/><g id="layer1" transform="translate(0,-1004.3622)"><rect id="rect2991-1-7" width="48" height="48" x="0" y="-1052.362" fill="url(#linearGradient3382)" fill-opacity="1" stroke="none" ry="1.945" transform="scale(1,-1)"/><rect id="rect3281" width="42" height="42" x="3" y="-1049.362" fill="#000" fill-opacity=".235" stroke="none" ry="1.701" transform="scale(1,-1)"/><path id="rect846" fill="#000" fill-opacity="1" stroke="none" d="m 0,1049.3622 0,1.0625 c 0,1.0773 0.860223,1.9375 1.9375,1.9375 l 44.125,0 c 1.077277,0 1.9375,-0.8602 1.9375,-1.9375 l 0,-1.0625 c 0,1.0773 -0.860223,1.9375 -1.9375,1.9375 l -44.125,0 C 0.860223,1051.2997 0,1050.4395 0,1049.3622 Z"/><path id="path7515" fill="#fff" fill-opacity=".537" stroke="none" d="m 2.53125,1005.0185 c -0.917088,0 -1.671146,0.6395 -1.84375,1.5 0.335612,-0.2799 0.774513,-0.4375 1.25,-0.4375 l 44.125,0 c 0.475488,0 0.914388,0.1576 1.25,0.4375 -0.172603,-0.8605 -0.926662,-1.5 -1.84375,-1.5 L 2.53125,1005.0185 Z"/><path id="rect4280" fill="#000" fill-opacity=".392" stroke="none" d="m 1.9375,1004.3622 c -1.077277,0 -1.9375,0.8602 -1.9375,1.9375 l 0,43.0625 c 0,0.7934 0.480024,1.449 1.15625,1.75 -0.309341,-0.3333 -0.5,-0.7824 -0.5,-1.2812 l 0,-42.9375 c 0,-1.0482 0.826899,-1.875 1.875,-1.875 l 42.9375,0 c 1.048101,0 1.875,0.8268 1.875,1.875 l 0,42.9375 c 0,0.4988 -0.190658,0.9479 -0.5,1.2812 0.676226,-0.301 1.15625,-0.9566 1.15625,-1.75 l 0,-43.0625 c 0,-1.0773 -0.860223,-1.9375 -1.9375,-1.9375 L 1.9375,1004.3622 Z"/><rect id="rect16333" width="40" height="40" x="4" y="-1048.362" fill="url(#linearGradient16335)" fill-opacity="1" stroke="none" ry="1.62" transform="scale(1,-1)"/><rect id="rect16337" width="34.286" height="34.286" x="6.857" y="-1045.505" fill="url(#linearGradient16339)" fill-opacity="1" stroke="none" ry="1.389" transform="scale(1,-1)"/><g id="g16395" transform="matrix(0.95238097,0,0,0.95238097,1.1428567,48.974417)"><path id="rect16388" fill="#fff" fill-opacity=".237" stroke="none" d="m 6,1044.8908 0,0.5625 c 0,0.808 0.660792,1.4688 1.46875,1.4688 l 33.0625,0 c 0.807958,0 1.46875,-0.6608 1.46875,-1.4688 l 0,-0.5625 c 0,0.808 -0.660792,1.4688 -1.46875,1.4688 l -33.0625,0 C 6.660792,1046.3596 6,1045.6988 6,1044.8908 Z"/><path id="path16393" fill="#fff" fill-opacity=".237" stroke="none" d="m 6,1011.8235 0,-0.5625 c 0,-0.808 0.660792,-1.4688 1.46875,-1.4688 l 33.0625,0 c 0.807958,0 1.46875,0.6608 1.46875,1.4688 l 0,0.5625 c 0,-0.808 -0.660792,-1.4688 -1.46875,-1.4688 l -33.0625,0 C 6.660792,1010.3547 6,1011.0155 6,1011.8235 Z"/></g><path font-stretch="normal" style="line-height:125%;-inkscape-font-specification:Game Over" id="path936" fill="#000" fill-opacity="1" stroke="none" d="m 11.738095,1016.6062 0,0.4762 -0.505952,0 0,3.5119 0.505952,0 0,0.4762 1.994048,0 0,-0.4762 0.505952,0 0,-3.5119 -0.505952,0 0,-0.4762 -1.994048,0 z m 3.482143,0 0,0.4762 0.505952,0 0,3.9881 0.982143,0 0,-4.4643 -1.488095,0 z m 0,0.4762 -0.505952,0 0,0.506 0.505952,0 0,-0.506 z m 6.041667,-0.4762 0,0.4762 -0.505953,0 0,3.5119 0.505953,0 0,0.4762 1.994047,0 0,-0.4762 0.505953,0 0,-3.5119 -0.505953,0 0,-0.4762 -1.994047,0 z m 3.482143,0 0,0.4762 -0.505953,0 0,3.5119 0.505953,0 0,0.4762 1.994047,0 0,-0.4762 0.505953,0 0,-3.5119 -0.505953,0 0,-0.4762 -1.994047,0 z m 6.041666,0 0,0.4762 -0.505952,0 0,3.5119 0.505952,0 0,0.4762 1.994048,0 0,-0.4762 0.505952,0 0,-3.5119 -0.505952,0 0,-0.4762 -1.994048,0 z m 3.482143,0 0,0.4762 0.505953,0 0,3.9881 0.982143,0 0,-4.4643 -1.488096,0 z m 0,0.4762 -0.505952,0 0,0.506 0.505952,0 0,-0.506 z m -22.02381,0 0.982143,0 0,3.5119 -0.982143,0 0,-3.5119 z m 9.52381,0 0.982143,0 0,3.5119 -0.982143,0 0,-3.5119 z m 3.482143,0 0.982143,0 0,3.5119 -0.982143,0 0,-3.5119 z m 6.041667,0 0.982143,0 0,3.5119 -0.982143,0 0,-3.5119 z m -19.553572,9.0477 0,0.4761 -0.505952,0 0,3.512 0.505952,0 0,0.4761 1.994048,0 0,-0.4761 0.505952,0 0,-3.512 -0.505952,0 0,-0.4761 -1.994048,0 z m 3.482143,0 0,0.4761 -0.505952,0 0,3.512 0.505952,0 0,0.4761 1.994048,0 0,-0.4761 0.505952,0 0,-3.512 -0.505952,0 0,-0.4761 -1.994048,0 z m 6.041667,0 0,0.4761 -0.505953,0 0,3.512 0.505953,0 0,0.4761 1.994047,0 0,-0.4761 0.505953,0 0,-3.512 -0.505953,0 0,-0.4761 -1.994047,0 z m 3.482143,0 0,0.4761 0.505952,0 0,3.9881 0.982143,0 0,-4.4642 -1.488095,0 z m 0,0.4761 -0.505953,0 0,0.506 0.505953,0 0,-0.506 z m 6.041666,-0.4761 0,0.4761 -0.505952,0 0,3.512 0.505952,0 0,0.4761 1.994048,0 0,-0.4761 0.505952,0 0,-3.512 -0.505952,0 0,-0.4761 -1.994048,0 z m 3.482143,0 0,0.4761 -0.505952,0 0,3.512 0.505952,0 0,0.4761 1.994048,0 0,-0.4761 0.505952,0 0,-3.512 -0.505952,0 0,-0.4761 -1.994048,0 z m -22.02381,0.4761 0.982143,0 0,3.512 -0.982143,0 0,-3.512 z m 3.482143,0 0.982143,0 0,3.512 -0.982143,0 0,-3.512 z m 6.041667,0 0.982143,0 0,3.512 -0.982143,0 0,-3.512 z m 9.52381,0 0.982143,0 0,3.512 -0.982143,0 0,-3.512 z m 3.482143,0 0.982143,0 0,3.512 -0.982143,0 0,-3.512 z m -23.035715,9.0477 0,0.4762 -0.505952,0 0,3.5119 0.505952,0 0,0.4762 1.994048,0 0,-0.4762 0.505952,0 0,-3.5119 -0.505952,0 0,-0.4762 -1.994048,0 z m 3.482143,0 0,0.4762 0.505952,0 0,3.9881 0.982143,0 0,-4.4643 -1.488095,0 z m 0,0.4762 -0.505952,0 0,0.5059 0.505952,0 0,-0.5059 z m 6.041667,-0.4762 0,0.4762 0.505952,0 0,3.9881 0.982143,0 0,-4.4643 -1.488095,0 z m 0,0.4762 -0.505953,0 0,0.5059 0.505953,0 0,-0.5059 z m 2.5,-0.4762 0,0.4762 -0.505953,0 0,3.5119 0.505953,0 0,0.4762 1.994047,0 0,-0.4762 0.476191,0 0,-3.5119 -0.476191,0 0,-0.4762 -1.994047,0 z m 7.023809,0 0,0.4762 0.505953,0 0,3.9881 0.982143,0 0,-4.4643 -1.488096,0 z m 0,0.4762 -0.505952,0 0,0.5059 0.505952,0 0,-0.5059 z m 2.5,-0.4762 0,0.4762 -0.505952,0 0,3.5119 0.505952,0 0,0.4762 1.994048,0 0,-0.4762 0.476191,0 0,-3.5119 -0.476191,0 0,-0.4762 -1.994048,0 z m -21.041667,0.4762 0.982143,0 0,3.5119 -0.982143,0 0,-3.5119 z m 11.994048,0 1.011905,0 0,3.5119 -1.011905,0 0,-3.5119 z m 9.52381,0 1.011905,0 0,3.5119 -1.011905,0 0,-3.5119 z" font-family="Game Over" font-size="16.727" font-style="normal" font-variant="normal" font-weight="normal" letter-spacing="0" word-spacing="0"/><g id="g16399" transform="matrix(0,0.95238097,-0.95238097,0,1003.3878,1005.5051)"><path id="path16401" fill="#fff" fill-opacity=".237" stroke="none" d="m 6,1044.8908 0,0.5625 c 0,0.808 0.660792,1.4688 1.46875,1.4688 l 33.0625,0 c 0.807958,0 1.46875,-0.6608 1.46875,-1.4688 l 0,-0.5625 c 0,0.808 -0.660792,1.4688 -1.46875,1.4688 l -33.0625,0 C 6.660792,1046.3596 6,1045.6988 6,1044.8908 Z"/><path id="path16403" fill="#fff" fill-opacity=".237" stroke="none" d="m 6,1011.8235 0,-0.5625 c 0,-0.808 0.660792,-1.4688 1.46875,-1.4688 l 33.0625,0 c 0.807958,0 1.46875,0.6608 1.46875,1.4688 l 0,0.5625 c 0,-0.808 -0.660792,-1.4688 -1.46875,-1.4688 l -33.0625,0 C 6.660792,1010.3547 6,1011.0155 6,1011.8235 Z"/></g><path id="rect16341" fill="url(#linearGradient16343)" fill-opacity="1" stroke="none" d="m 5.6071425,1008.3622 c -0.8977311,0 -1.6071429,0.7094 -1.6071429,1.6071 l 0,21.3096 40.0000004,0 0,-21.3096 c 0,-0.8977 -0.709411,-1.6071 -1.607142,-1.6071 l -36.7857155,0 z"/><path id="rect16352" fill="#b30b0b" fill-opacity="1" stroke="none" d="m 3.9999996,1031.2789 0,0.3501 40.0000004,0 0,-0.3501 -40.0000004,0 z"/><path id="path16357" fill="#000" fill-opacity=".189" stroke="none" d="m 3.9999996,1031.1172 0,0.1617 40.0000004,0 0,-0.1617 -40.0000004,0 z"/><path id="path16359" fill="#fff" fill-opacity=".189" stroke="none" d="m 3.9999996,1031.4673 0,0.1617 40.0000004,0 0,-0.1617 -40.0000004,0 z"/><path id="path16382" fill="url(#linearGradient16386)" fill-opacity="1" stroke="none" d="m 3.9999996,1009.9693 c 0,-0.8977 0.7094286,-1.6071 1.6071429,-1.6071 l 36.7857155,0 c 0.897714,0 1.607142,0.7094 1.607142,1.6071 l 0,2.7381 -40.0000004,0 0,-2.7381 z"/><path id="rect16361" fill="url(#linearGradient16374)" fill-opacity="1" stroke="none" d="m 5.6071425,1008.3622 c -0.8977311,0 -1.6071429,0.7094 -1.6071429,1.6071 l 0,36.7858 c 0,0.8977 0.7094118,1.6071 1.6071429,1.6071 l 2.7380953,0 0,-40 -2.7380953,0 z"/><path id="path16376" fill="url(#linearGradient16378)" fill-opacity="1" stroke="none" d="m 42.392858,1008.3622 c 0.897731,0 1.607142,0.7094 1.607142,1.6071 l 0,36.7858 c 0,0.8977 -0.709411,1.6071 -1.607142,1.6071 l -2.738096,0 0,-40 2.738096,0 z"/><path id="path16380" fill="url(#linearGradient16384)" fill-opacity="1" stroke="none" d="m 3.9999996,1046.7551 c 0,0.8977 0.7094118,1.6071 1.6071429,1.6071 l 36.7857155,0 c 0.897731,0 1.607142,-0.7094 1.607142,-1.6071 l 0,-2.7381 -40.0000004,0 0,2.7381 z"/></g></svg>