<svg xmlns="http://www.w3.org/2000/svg" xmlns:svg="http://www.w3.org/2000/svg" xmlns:xlink="http://www.w3.org/1999/xlink" id="svg5453" width="48" height="48" version="1.1"><defs id="defs5455"><linearGradient id="linearGradient4233"><stop id="stop4235" offset="0" stop-color="#60822a" stop-opacity="1"/><stop id="stop4237" offset="1" stop-color="#99c14e" stop-opacity="1"/></linearGradient><linearGradient id="linearGradient867-8" x1="26.25" x2="26.25" y1="-1052.541" y2="-1004.684" gradientTransform="translate(384.57141,504.56414)" gradientUnits="userSpaceOnUse" xlink:href="#linearGradient4233"/><linearGradient id="linearGradient908"><stop id="stop910" offset="0" stop-color="#3a404c" stop-opacity="1"/><stop id="stop912" offset="1" stop-color="#4c5562" stop-opacity="1"/></linearGradient><linearGradient id="linearGradient4223" x1="423.203" x2="423.203" y1="526.647" y2="498.837" gradientUnits="userSpaceOnUse" xlink:href="#linearGradient908"/><linearGradient id="linearGradient1373"><stop id="stop1375" offset="0" stop-color="#282827" stop-opacity="1"/><stop id="stop1377" offset="1" stop-color="#292929" stop-opacity="1"/></linearGradient><linearGradient id="linearGradient4291" x1="423.203" x2="423.203" y1="526.647" y2="498.837" gradientUnits="userSpaceOnUse" xlink:href="#linearGradient1373"/></defs><metadata id="metadata5458"/><g id="layer1" transform="translate(-384.57143,-499.798)"><rect id="rect2991-1-9" width="48" height="48" x="384.571" y="-547.798" fill="url(#linearGradient867-8)" fill-opacity="1" stroke="none" ry="1.945" transform="scale(1,-1)"/><g id="g4305" fill="#000" fill-opacity=".059" stroke="none" font-family="FreeSerif" font-size="40" font-stretch="normal" font-style="normal" font-variant="normal" font-weight="normal" letter-spacing="0" transform="matrix(1.115942,0,0,1.115942,-56.084366,-47.04793)" word-spacing="0" style="line-height:125%;-inkscape-font-specification:FreeSerif"><path id="path4307" fill="#000" fill-opacity=".059" d="m 417.23988,500.4126 q -2.28,0 -4.04,0.84 -1.76,0.8 -2.84,2.08 -1.08,1.28 -1.76,3 -0.68,1.72 -0.96,3.32 -0.24,1.56 -0.24,3.16 0,5.56 2.8,8.8 2.84,3.2 7.72,3.2 2.16,0 3.72,-0.68 1.6,-0.72 1.6,-1.68 l 0,-6.48 q 0,-2.24 -0.64,-2.8 -0.6,-0.6 -2.88,-0.76 l 0,-0.72 10.2,0 0,0.72 q -1.76,0.16 -2.28,0.76 -0.52,0.56 -0.52,2.32 l 0,8.12 q -1.2,1.04 -4.36,1.92 -3.12,0.88 -5.68,0.88 -1.8,0 -3.6,-0.36 -1.8,-0.36 -3.76,-1.32 -1.96,-0.96 -3.44,-2.4 -1.48,-1.48 -2.48,-3.92 -0.96,-2.44 -0.96,-5.56 0,-6.12 3.84,-10.08 3.88,-3.96 9.88,-3.96 2.32,0 4.56,0.68 2.28,0.64 2.64,0.64 0.64,0 1.12,-0.36 0.48,-0.4 0.68,-0.96 l 0.88,0 0.32,8.44 -0.92,0 q -1.28,-3.12 -3.2,-4.96 -1.92,-1.88 -5.4,-1.88 z"/></g><g id="g4301" fill="#000" fill-opacity=".118" stroke="none" font-family="FreeSerif" font-size="40" font-stretch="normal" font-style="normal" font-variant="normal" font-weight="normal" letter-spacing="0" transform="matrix(1.115942,0,0,1.115942,-56.084366,-47.44793)" word-spacing="0" style="line-height:125%;-inkscape-font-specification:FreeSerif"><path id="path4303" fill="#000" fill-opacity=".118" d="m 417.23988,500.4126 q -2.28,0 -4.04,0.84 -1.76,0.8 -2.84,2.08 -1.08,1.28 -1.76,3 -0.68,1.72 -0.96,3.32 -0.24,1.56 -0.24,3.16 0,5.56 2.8,8.8 2.84,3.2 7.72,3.2 2.16,0 3.72,-0.68 1.6,-0.72 1.6,-1.68 l 0,-6.48 q 0,-2.24 -0.64,-2.8 -0.6,-0.6 -2.88,-0.76 l 0,-0.72 10.2,0 0,0.72 q -1.76,0.16 -2.28,0.76 -0.52,0.56 -0.52,2.32 l 0,8.12 q -1.2,1.04 -4.36,1.92 -3.12,0.88 -5.68,0.88 -1.8,0 -3.6,-0.36 -1.8,-0.36 -3.76,-1.32 -1.96,-0.96 -3.44,-2.4 -1.48,-1.48 -2.48,-3.92 -0.96,-2.44 -0.96,-5.56 0,-6.12 3.84,-10.08 3.88,-3.96 9.88,-3.96 2.32,0 4.56,0.68 2.28,0.64 2.64,0.64 0.64,0 1.12,-0.36 0.48,-0.4 0.68,-0.96 l 0.88,0 0.32,8.44 -0.92,0 q -1.28,-3.12 -3.2,-4.96 -1.92,-1.88 -5.4,-1.88 z"/></g><g id="g4293" fill="#000" fill-opacity=".235" stroke="none" font-family="FreeSerif" font-size="40" font-stretch="normal" font-style="normal" font-variant="normal" font-weight="normal" letter-spacing="0" transform="matrix(1.115942,0,0,1.115942,-56.084366,-47.84793)" word-spacing="0" style="line-height:125%;-inkscape-font-specification:FreeSerif"><path id="path4295" fill="#000" fill-opacity=".235" d="m 417.23988,500.4126 q -2.28,0 -4.04,0.84 -1.76,0.8 -2.84,2.08 -1.08,1.28 -1.76,3 -0.68,1.72 -0.96,3.32 -0.24,1.56 -0.24,3.16 0,5.56 2.8,8.8 2.84,3.2 7.72,3.2 2.16,0 3.72,-0.68 1.6,-0.72 1.6,-1.68 l 0,-6.48 q 0,-2.24 -0.64,-2.8 -0.6,-0.6 -2.88,-0.76 l 0,-0.72 10.2,0 0,0.72 q -1.76,0.16 -2.28,0.76 -0.52,0.56 -0.52,2.32 l 0,8.12 q -1.2,1.04 -4.36,1.92 -3.12,0.88 -5.68,0.88 -1.8,0 -3.6,-0.36 -1.8,-0.36 -3.76,-1.32 -1.96,-0.96 -3.44,-2.4 -1.48,-1.48 -2.48,-3.92 -0.96,-2.44 -0.96,-5.56 0,-6.12 3.84,-10.08 3.88,-3.96 9.88,-3.96 2.32,0 4.56,0.68 2.28,0.64 2.64,0.64 0.64,0 1.12,-0.36 0.48,-0.4 0.68,-0.96 l 0.88,0 0.32,8.44 -0.92,0 q -1.28,-3.12 -3.2,-4.96 -1.92,-1.88 -5.4,-1.88 z"/></g><path id="rect846" fill="#000" fill-opacity="1" stroke="none" d="m 384.57143,544.79799 0,1.0625 c 0,1.0773 0.86022,1.9375 1.9375,1.9375 l 44.125,0 c 1.07728,0 1.9375,-0.8602 1.9375,-1.9375 l 0,-1.0625 c 0,1.0773 -0.86022,1.9375 -1.9375,1.9375 l -44.125,0 C 385.43165,546.73549 384.57143,545.87529 384.57143,544.79799 Z"/><path id="path7515" fill="#fff" fill-opacity=".537" stroke="none" d="m 387.10268,500.45429 c -0.91709,0 -1.67115,0.6395 -1.84375,1.5 0.33561,-0.2799 0.77451,-0.4375 1.25,-0.4375 l 44.125,0 c 0.47549,0 0.91439,0.1576 1.25,0.4375 -0.1726,-0.8605 -0.92666,-1.5 -1.84375,-1.5 L 387.10268,500.45429 Z"/><path id="rect4280" fill="#000" fill-opacity=".392" stroke="none" d="m 386.50893,499.79799 c -1.07728,0 -1.9375,0.8602 -1.9375,1.9375 l 0,43.0625 c 0,0.7934 0.48002,1.449 1.15625,1.75 -0.30934,-0.3333 -0.5,-0.7824 -0.5,-1.2812 l 0,-42.9375 c 0,-1.0482 0.8269,-1.875 1.875,-1.875 l 42.9375,0 c 1.0481,0 1.875,0.8268 1.875,1.875 l 0,42.9375 c 0,0.4988 -0.19066,0.9479 -0.5,1.2812 0.67623,-0.301 1.15625,-0.9566 1.15625,-1.75 l 0,-43.0625 c 0,-1.0773 -0.86022,-1.9375 -1.9375,-1.9375 L 386.50893,499.79799 Z"/><g id="text4134" fill="url(#linearGradient4223)" fill-opacity="1" stroke="none" font-family="FreeSerif" font-size="40" font-stretch="normal" font-style="normal" font-variant="normal" font-weight="normal" letter-spacing="0" transform="matrix(1.115942,0,0,1.115942,-56.084366,-48.24793)" word-spacing="0" style="line-height:125%;-inkscape-font-specification:FreeSerif"><path id="path4139" fill="url(#linearGradient4291)" fill-opacity="1" d="m 417.23988,500.4126 q -2.28,0 -4.04,0.84 -1.76,0.8 -2.84,2.08 -1.08,1.28 -1.76,3 -0.68,1.72 -0.96,3.32 -0.24,1.56 -0.24,3.16 0,5.56 2.8,8.8 2.84,3.2 7.72,3.2 2.16,0 3.72,-0.68 1.6,-0.72 1.6,-1.68 l 0,-6.48 q 0,-2.24 -0.64,-2.8 -0.6,-0.6 -2.88,-0.76 l 0,-0.72 10.2,0 0,0.72 q -1.76,0.16 -2.28,0.76 -0.52,0.56 -0.52,2.32 l 0,8.12 q -1.2,1.04 -4.36,1.92 -3.12,0.88 -5.68,0.88 -1.8,0 -3.6,-0.36 -1.8,-0.36 -3.76,-1.32 -1.96,-0.96 -3.44,-2.4 -1.48,-1.48 -2.48,-3.92 -0.96,-2.44 -0.96,-5.56 0,-6.12 3.84,-10.08 3.88,-3.96 9.88,-3.96 2.32,0 4.56,0.68 2.28,0.64 2.64,0.64 0.64,0 1.12,-0.36 0.48,-0.4 0.68,-0.96 l 0.88,0 0.32,8.44 -0.92,0 q -1.28,-3.12 -3.2,-4.96 -1.92,-1.88 -5.4,-1.88 z"/></g><path id="path4311" fill="#000" fill-opacity=".314" stroke="none" d="M 24.958984 9.5859375 C 23.262751 9.5859375 21.760545 9.8985108 20.451172 10.523438 C 19.141805 11.118604 18.08473 11.891477 17.28125 12.84375 C 16.47777 13.796017 15.824253 14.911793 15.318359 16.191406 C 14.812466 17.47102 14.4544 18.706144 14.246094 19.896484 C 14.06754 21.057064 13.978516 22.233488 13.978516 23.423828 C 13.978516 23.570314 13.989575 23.707242 13.992188 23.851562 C 14.008914 22.788548 14.086221 21.736422 14.246094 20.697266 C 14.4544 19.506926 14.812466 18.271801 15.318359 16.992188 C 15.824253 15.712574 16.47777 14.596798 17.28125 13.644531 C 18.08473 12.692258 19.141805 11.917432 20.451172 11.322266 C 21.760545 10.697339 23.262751 10.384766 24.958984 10.384766 C 27.547971 10.384766 29.557921 11.085728 30.986328 12.484375 C 32.414735 13.853262 33.604374 15.696418 34.556641 18.017578 L 35.583984 18.017578 L 35.552734 17.21875 L 34.556641 17.21875 C 33.604374 14.89759 32.414735 13.05248 30.986328 11.683594 C 29.557921 10.284947 27.547971 9.5859375 24.958984 9.5859375 z M 27.726562 22.976562 L 27.726562 23.777344 C 29.422789 23.896377 30.495026 24.17862 30.941406 24.625 C 31.41754 25.04162 31.65625 26.083527 31.65625 27.75 L 31.65625 26.949219 C 31.65625 25.282745 31.41754 24.240839 30.941406 23.824219 C 30.495026 23.377839 29.422789 23.095596 27.726562 22.976562 z M 39.109375 22.976562 C 37.800008 23.095596 36.953266 23.377839 36.566406 23.824219 C 36.179546 24.240839 35.984375 25.104696 35.984375 26.414062 L 35.984375 27.214844 C 35.984375 25.905477 36.179546 25.04162 36.566406 24.625 C 36.953266 24.17862 37.800008 23.896377 39.109375 23.777344 L 39.109375 22.976562 z M 8.90625 23.871094 C 8.9037338 24.004803 8.890625 24.132453 8.890625 24.267578 C 8.890625 26.588738 9.2467375 28.657396 9.9609375 30.472656 C 10.704898 32.287923 11.627449 33.74659 12.728516 34.847656 C 13.829576 35.918956 15.110193 36.811184 16.568359 37.525391 C 18.026519 38.239591 19.424539 38.73022 20.763672 38.998047 C 22.102799 39.265874 23.442117 39.400391 24.78125 39.400391 C 26.68579 39.400391 28.797981 39.072655 31.119141 38.417969 C 33.470061 37.763282 35.091622 37.049111 35.984375 36.275391 L 35.984375 35.474609 C 35.091622 36.248329 33.470061 36.962501 31.119141 37.617188 C 28.797981 38.271874 26.68579 38.599609 24.78125 38.599609 C 23.442117 38.599609 22.102799 38.467045 20.763672 38.199219 C 19.424539 37.931392 18.026519 37.438809 16.568359 36.724609 C 15.110193 36.010403 13.829576 35.118175 12.728516 34.046875 C 11.627449 32.945808 10.704898 31.487142 9.9609375 29.671875 C 9.2891605 27.96444 8.9461531 26.026113 8.90625 23.871094 z" font-family="FreeSerif" font-size="40" font-stretch="normal" font-style="normal" font-variant="normal" font-weight="normal" letter-spacing="0" transform="translate(384.57143,499.798)" word-spacing="0" style="line-height:125%;-inkscape-font-specification:FreeSerif"/><path id="path4322" fill="#fff" fill-opacity=".235" stroke="none" d="M 24.201172 8.5996094 C 19.737405 8.5996094 16.062355 10.073445 13.175781 13.019531 C 10.318975 15.965618 8.890625 19.714531 8.890625 24.267578 C 8.890625 24.336516 8.8978075 24.400259 8.8984375 24.46875 C 8.9404028 20.007204 10.361575 16.322077 13.175781 13.419922 C 16.062355 10.473835 19.737405 9 24.201172 9 C 25.927165 9 27.622589 9.2538723 29.289062 9.7597656 C 30.985289 10.235899 31.968501 10.472656 32.236328 10.472656 C 32.712461 10.472656 33.129221 10.340092 33.486328 10.072266 C 33.843428 9.7746856 34.095347 9.41662 34.244141 9 L 35.226562 9 L 35.568359 18.017578 L 35.583984 18.017578 L 35.226562 8.5996094 L 34.244141 8.5996094 C 34.095347 9.0162294 33.843428 9.374295 33.486328 9.671875 C 33.129221 9.9397017 32.712461 10.072266 32.236328 10.072266 C 31.968501 10.072266 30.985289 9.8355083 29.289062 9.359375 C 27.622589 8.8534817 25.927165 8.5996094 24.201172 8.5996094 z M 27.726562 22.972656 L 27.726562 23.373047 L 39.109375 23.373047 L 39.109375 22.972656 L 27.726562 22.972656 z M 13.986328 24.4375 C 13.985839 24.499699 13.978516 24.560766 13.978516 24.623047 C 13.978516 28.759474 15.020422 32.032926 17.103516 34.443359 C 19.216362 36.824033 22.088217 38.013672 25.71875 38.013672 C 27.32571 38.013672 28.708567 37.761753 29.869141 37.255859 C 31.059481 36.720206 31.65625 36.095059 31.65625 35.380859 L 31.65625 34.980469 C 31.65625 35.694669 31.059481 36.319815 29.869141 36.855469 C 28.708567 37.361362 27.32571 37.615234 25.71875 37.615234 C 22.088217 37.615234 19.216362 36.423642 17.103516 34.042969 C 15.057433 31.675362 14.022681 28.470313 13.986328 24.4375 z" font-family="FreeSerif" font-size="40" font-stretch="normal" font-style="normal" font-variant="normal" font-weight="normal" letter-spacing="0" transform="translate(384.57143,499.798)" word-spacing="0" style="line-height:125%;-inkscape-font-specification:FreeSerif"/></g></svg>