<svg xmlns="http://www.w3.org/2000/svg" xmlns:svg="http://www.w3.org/2000/svg" xmlns:xlink="http://www.w3.org/1999/xlink" id="svg2" width="48" height="48" version="1.1"><defs id="defs4"><linearGradient id="linearGradient4160"><stop id="stop4162" offset="0" stop-color="#fff" stop-opacity="1"/><stop id="stop4164" offset="1" stop-color="#fff" stop-opacity="0"/></linearGradient><linearGradient id="linearGradient4132"><stop id="stop4134" offset="0" stop-color="#000" stop-opacity="1"/><stop id="stop4136" offset="1" stop-color="#000" stop-opacity="0"/></linearGradient><linearGradient id="linearGradient1414"><stop id="stop1416" offset="0" stop-color="#2c3e50" stop-opacity="1"/><stop id="stop1418" offset="1" stop-color="#3d5670" stop-opacity="1"/></linearGradient><linearGradient id="linearGradient1398" x1="76.279" x2="76.279" y1="-1044.013" y2="-995.982" gradientTransform="translate(-52.721087,-8.350115)" gradientUnits="userSpaceOnUse" xlink:href="#linearGradient1414"/><linearGradient id="linearGradient4118" x1="-52.408" x2="-49.757" y1="23.239" y2="22.32" gradientUnits="userSpaceOnUse" xlink:href="#linearGradient4132"/><linearGradient id="linearGradient4128" x1="-25.367" x2="-22.693" y1="1027.039" y2="1028.395" gradientTransform="matrix(2.0609075,0,0,2.0602678,80.068999,-1086.3568)" gradientUnits="userSpaceOnUse" xlink:href="#linearGradient4132"/><linearGradient id="linearGradient4138" x1="-34.471" x2="-31.687" y1="1030.972" y2="1028.232" gradientTransform="matrix(2.0609075,0,0,2.0602678,80.068999,-1086.3568)" gradientUnits="userSpaceOnUse" xlink:href="#linearGradient4132"/><linearGradient id="linearGradient4156" x1="-31.334" x2="-28.549" y1="1021.692" y2="1021.692" gradientTransform="matrix(2.0609075,0,0,2.0602678,80.068999,-1086.3568)" gradientUnits="userSpaceOnUse" xlink:href="#linearGradient4132"/><linearGradient id="linearGradient4166" x1="-29.919" x2="-31.844" y1="1021.912" y2="1021.397" gradientTransform="matrix(2.0609075,0,0,2.0602678,80.068999,-1086.3568)" gradientUnits="userSpaceOnUse" xlink:href="#linearGradient4160"/><linearGradient id="linearGradient4176" x1="-24.538" x2="-22.789" y1="1021.46" y2="1020.649" gradientTransform="matrix(2.0609075,0,0,2.0602678,80.068999,-1086.3568)" gradientUnits="userSpaceOnUse" xlink:href="#linearGradient4132"/></defs><metadata id="metadata7"/><g id="layer1" transform="translate(0,-1004.3622)"><rect id="rect2991-1" width="48" height="48" x="0" y="-1052.362" fill="url(#linearGradient1398)" fill-opacity="1" stroke="none" ry="1.945" transform="scale(1,-1)"/><path id="path4161" fill="#000" fill-opacity=".059" stroke="none" d="m 12.336412,1014.1623 -0.0039,0.01 -0.04884,0 -6.0642543,7.353 -2.4694645,2.9694 0.019537,0 -0.013676,0.016 -0.00586,0 0.00391,0 -0.00391,0 20.2480468,20.4515 0.002,0 0.002,0 20.248046,-20.4516 -0.0039,0 0.0039,0 -0.0059,0 -0.01368,-0.016 0.01954,0 -2.469464,-2.9694 -6.064255,-7.353 -0.04884,0 -0.0039,-0.01 -1.680173,0.01 -19.964762,0 -1.682127,-0.01 z"/><path id="path4159" fill="#000" fill-opacity=".118" stroke="none" d="m 12.336412,1013.7623 -0.0039,0.01 -0.04884,0 -6.0642543,7.353 -2.4694645,2.9694 0.019537,0 -0.013676,0.016 -0.00586,0 0.00391,0 -0.00391,0 20.2480468,20.4515 0.002,0 0.002,0 20.248046,-20.4516 -0.0039,0 0.0039,0 -0.0059,0 -0.01368,-0.016 0.01954,0 -2.469464,-2.9694 -6.064255,-7.353 -0.04884,0 -0.0039,-0.01 -1.680173,0.01 -19.964762,0 -1.682127,-0.01 z"/><path id="path4106" fill="#000" fill-opacity=".235" stroke="none" d="m 12.336412,1013.3623 -0.0039,0.01 -0.04884,0 -6.0642543,7.353 -2.4694645,2.9694 0.019537,0 -0.013676,0.016 -0.00586,0 0.00391,0 -0.00391,0 20.2480468,20.4515 0.002,0 0.002,0 20.248046,-20.4516 -0.0039,0 0.0039,0 -0.0059,0 -0.01368,-0.016 0.01954,0 -2.469464,-2.9694 -6.064255,-7.353 -0.04884,0 -0.0039,-0.01 -1.680173,0.01 -19.964762,0 -1.682127,-0.01 z"/><path id="rect846" fill="#000" fill-opacity="1" stroke="none" d="m -2.2973633e-6,1049.3622 0,1.0625 c 0,1.0773 0.8602229973633,1.9375 1.9374999973633,1.9375 l 44.1250003,0 c 1.077277,0 1.937505,-0.8602 1.937505,-1.9375 l 0,-1.0625 c 0,1.0773 -0.860228,1.9375 -1.937505,1.9375 l -44.1250003,0 C 0.8602207,1051.2997 -2.2973633e-6,1050.4395 -2.2973633e-6,1049.3622 Z"/><path id="path7515" fill="#fff" fill-opacity=".537" stroke="none" d="m 2.5312477,1005.0185 c -0.917088,0 -1.671147,0.6395 -1.84375,1.5 0.335612,-0.2799 0.774512,-0.4375 1.25,-0.4375 l 44.1250003,0 c 0.475488,0 0.914388,0.1576 1.250005,0.4375 -0.172608,-0.8605 -0.926667,-1.5 -1.843755,-1.5 L 2.5312477,1005.0185 Z"/><path id="rect4280-0" fill="#000" fill-opacity=".392" stroke="none" d="m 1.9374977,1004.3622 c -1.077277,0 -1.9374999973633,0.8602 -1.9374999973633,1.9375 l 0,43.0625 c 0,0.7934 0.4800239973633,1.449 1.1562499973633,1.75 -0.309342,-0.3333 -0.5,-0.7824 -0.5,-1.2812 l 0,-42.9375 c 0,-1.0482 0.826899,-1.875 1.875,-1.875 l 42.9375003,0 c 1.048101,0 1.875005,0.8268 1.875005,1.875 l 0,42.9375 c 0,0.4988 -0.190663,0.9479 -0.500005,1.2812 0.676225,-0.301 1.156255,-0.9566 1.156255,-1.75 l 0,-43.0625 c 0,-1.0773 -0.860228,-1.9375 -1.937505,-1.9375 L 1.9374977,1004.3622 Z"/><g id="g4190" transform="translate(3.125e-5,0)"><path id="path4086" fill="#45a0b8" fill-opacity="1" stroke="none" d="m -49.460674,25.039731 -2.980764,-5.162834 5.961527,0 z" transform="matrix(3.1949997,0,0,3.9610243,182.02684,944.57921)"/><path id="path4091" fill="#4db1bf" fill-opacity="1" stroke="none" d="m 14.482162,1023.304 -0.0057,0 0.0095,0 -0.0038,0 z m -0.0057,0 -10.7264605,0 20.2328655,20.4135 -9.506348,-20.4054 z"/><path id="path4096" fill="#2784ad" fill-opacity="1" stroke="none" d="m 33.517775,1023.304 0.0057,0 -0.0095,0 0.0038,0 z m 0.0057,0 10.726461,0 -20.2329,20.4135 9.506382,-20.4054 z"/><path id="path4098" fill="#96d3db" fill-opacity="1" stroke="none" d="m 18.480721,1013.0297 -4.00425,10.2491 19.047079,0 -4.022219,-10.295 z"/><path id="path4102" fill="#76cad6" fill-opacity="1" stroke="none" d="m 33.517775,1023.2882 0.0057,0 -0.0095,0 z m 0.0057,0 10.726461,0 -8.586468,-10.326 -6.165633,0.021 4.025583,10.2955 z"/><path id="path4107" fill="#b3dce0" fill-opacity="1" stroke="none" d="m 14.482242,1023.2882 -0.0057,0 0.0095,0 z m -0.0057,0 -10.7264614,0 8.5864674,-10.326 6.165636,0.021 -4.025583,10.2955 z"/></g><g id="g4182" transform="translate(3.125e-5,0)"><path id="path4110" fill="url(#linearGradient4118)" fill-opacity="1" stroke="none" d="m -49.460674,25.039731 -2.980764,-5.162834 5.961527,0 z" opacity=".17" transform="matrix(3.1949997,0,0,3.9610243,182.02684,944.57921)"/><path id="path4120" fill="url(#linearGradient4128)" fill-opacity="1" stroke="none" d="m 33.517775,1023.304 0.0057,0 -0.0095,0 z m 0.0057,0 7.628169,0 -17.134608,20.4135 9.506382,-20.4054 z" opacity=".31"/><path id="path4130" fill="url(#linearGradient4138)" fill-opacity="1" stroke="none" d="m 14.482162,1023.304 -0.0057,0 0.0095,0 -0.0038,0 z m -0.0057,0 -10.7264605,0 20.2328655,20.4135 -9.506348,-20.4054 z"/><path id="path4140" fill="url(#linearGradient4156)" fill-opacity="1" stroke="none" d="m 18.480721,1013.0297 -4.00425,10.2491 19.047079,0 -4.022219,-10.295 z" opacity=".17"/><path id="path4158" fill="url(#linearGradient4166)" fill-opacity="1" stroke="none" d="m 14.482242,1023.2882 -0.0057,0 0.0095,0 z m -0.0057,0 -10.7264614,0 8.5864674,-10.326 6.165636,0.021 -4.025583,10.2955 z"/><path id="path4168" fill="url(#linearGradient4176)" fill-opacity="1" stroke="none" d="m 33.517775,1023.2882 0.0057,0 -0.0095,0 z m 0.0057,0 10.726461,0 -8.586468,-10.326 -6.165633,0.021 4.025583,10.2955 z" opacity=".18"/></g></g></svg>