<svg xmlns="http://www.w3.org/2000/svg" xmlns:svg="http://www.w3.org/2000/svg" xmlns:xlink="http://www.w3.org/1999/xlink" id="svg2" width="48" height="48" version="1.1" viewBox="0 0 48 48"><defs id="defs4"><linearGradient id="linearGradient835" x1="-31.113" x2="-31.113" y1="-1050.915" y2="-1002.906" gradientTransform="translate(55.996581,-1.455814)" gradientUnits="userSpaceOnUse" xlink:href="#linearGradient844"/><linearGradient id="ButtonShadow" x1="45.448" x2="45.448" y1="92.54" y2="7.017" gradientTransform="matrix(1.0058652,0,0,0.994169,119.23086,972.70405)" gradientUnits="userSpaceOnUse"><stop id="stop3750" offset="0" stop-color="#000" stop-opacity="1"/><stop id="stop3752" offset="1" stop-color="#000" stop-opacity=".588"/></linearGradient><filter id="filter3174" color-interpolation-filters="sRGB"><feGaussianBlur id="feGaussianBlur3176" stdDeviation="1.71"/></filter><linearGradient id="linearGradient5575" x1="32.351" x2="32.351" y1="1043.752" y2="1012.974" gradientUnits="userSpaceOnUse" xlink:href="#linearGradient4082"/><linearGradient id="linearGradient4082"><stop id="stop4084" offset="0" stop-color="#c0c9dc" stop-opacity="1"/><stop id="stop4086" offset="1" stop-color="#ebeef5" stop-opacity="1"/></linearGradient><linearGradient id="linearGradient844"><stop id="stop846" offset="0" stop-color="#2a488d" stop-opacity="1"/><stop id="stop848" offset="1" stop-color="#4163b2" stop-opacity="1"/></linearGradient></defs><metadata id="metadata7"/><g id="layer1" transform="translate(0,-1004.3622)"><rect id="rect2991-1" width="48" height="48" x="0" y="-1052.362" fill="url(#linearGradient835)" fill-opacity="1" stroke="none" ry="1.945" transform="scale(1,-1)"/><path id="path5513" fill="#000" fill-opacity=".059" d="m 23.999999,1014.1622 c -8.505184,0 -15.3999994,6.8948 -15.3999994,15.4 0,8.5052 6.8948154,15.4 15.3999994,15.4 8.505183,0 15.399999,-6.8948 15.399999,-15.4 0,-8.5052 -6.894816,-15.4 -15.399999,-15.4 z m 0,3.08 c 6.80415,0 12.319999,5.5158 12.319999,12.32 0,6.8041 -5.515849,12.32 -12.319999,12.32 -6.804151,0 -12.32,-5.5159 -12.32,-12.32 0,-6.8042 5.515849,-12.32 12.32,-12.32 z m -3.6575,4.235 0,2.4664 2.099451,0 c 0.201278,0.7107 0.570231,1.2488 0.727896,2.0032 -1.799223,3.0709 -3.863367,6.4175 -5.654695,9.3904 -0.23178,0.3846 -0.576001,0.8484 -0.547418,1.2813 l 3.098048,0 c 1.57889,-2.2513 2.942591,-4.723 4.565864,-6.93 0.901629,2.5638 1.976148,4.9534 2.827337,7.5677 1.72635,-0.4317 3.466643,-0.8479 4.920782,-1.5521 -0.410143,-0.6842 -0.47203,-1.7122 -0.908353,-2.3701 -0.688041,0.2846 -1.401061,0.5438 -2.189695,0.7279 -1.473965,-4.3017 -3.266248,-8.2832 -4.740315,-12.5847 l -4.198902,0 z" display="inline" enable-background="new"/><path id="path5511" fill="#000" fill-opacity=".118" d="m 23.999999,1013.7622 c -8.505184,0 -15.3999994,6.8948 -15.3999994,15.4 0,8.5052 6.8948154,15.4 15.3999994,15.4 8.505183,0 15.399999,-6.8948 15.399999,-15.4 0,-8.5052 -6.894816,-15.4 -15.399999,-15.4 z m 0,3.08 c 6.80415,0 12.319999,5.5158 12.319999,12.32 0,6.8041 -5.515849,12.32 -12.319999,12.32 -6.804151,0 -12.32,-5.5159 -12.32,-12.32 0,-6.8042 5.515849,-12.32 12.32,-12.32 z m -3.6575,4.235 0,2.4664 2.099451,0 c 0.201278,0.7107 0.570231,1.2488 0.727896,2.0032 -1.799223,3.0709 -3.863367,6.4175 -5.654695,9.3904 -0.23178,0.3846 -0.576001,0.8484 -0.547418,1.2813 l 3.098048,0 c 1.57889,-2.2513 2.942591,-4.723 4.565864,-6.93 0.901629,2.5638 1.976148,4.9534 2.827337,7.5677 1.72635,-0.4317 3.466643,-0.8479 4.920782,-1.5521 -0.410143,-0.6842 -0.47203,-1.7122 -0.908353,-2.3701 -0.688041,0.2846 -1.401061,0.5438 -2.189695,0.7279 -1.473965,-4.3017 -3.266248,-8.2832 -4.740315,-12.5847 l -4.198902,0 z" display="inline" enable-background="new"/><path id="path5509" fill="#000" fill-opacity=".235" d="m 23.999999,1013.3622 c -8.505184,0 -15.3999994,6.8948 -15.3999994,15.4 0,8.5052 6.8948154,15.4 15.3999994,15.4 8.505183,0 15.399999,-6.8948 15.399999,-15.4 0,-8.5052 -6.894816,-15.4 -15.399999,-15.4 z m 0,3.08 c 6.80415,0 12.319999,5.5158 12.319999,12.32 0,6.8041 -5.515849,12.32 -12.319999,12.32 -6.804151,0 -12.32,-5.5159 -12.32,-12.32 0,-6.8042 5.515849,-12.32 12.32,-12.32 z m -3.6575,4.235 0,2.4664 2.099451,0 c 0.201278,0.7107 0.570231,1.2488 0.727896,2.0032 -1.799223,3.0709 -3.863367,6.4175 -5.654695,9.3904 -0.23178,0.3846 -0.576001,0.8484 -0.547418,1.2813 l 3.098048,0 c 1.57889,-2.2513 2.942591,-4.723 4.565864,-6.93 0.901629,2.5638 1.976148,4.9534 2.827337,7.5677 1.72635,-0.4317 3.466643,-0.8479 4.920782,-1.5521 -0.410143,-0.6842 -0.47203,-1.7122 -0.908353,-2.3701 -0.688041,0.2846 -1.401061,0.5438 -2.189695,0.7279 -1.473965,-4.3017 -3.266248,-8.2832 -4.740315,-12.5847 l -4.198902,0 z" display="inline" enable-background="new"/><path id="rect846" fill="#000" fill-opacity="1" stroke="none" d="m 1.165625e-6,1049.3622 0,1.0625 c 0,1.0773 0.860222004375,1.9375 1.937499034375,1.9375 l 44.1250008,0 c 1.077277,0 1.9375,-0.8602 1.9375,-1.9375 l 0,-1.0625 c 0,1.0773 -0.860223,1.9375 -1.9375,1.9375 l -44.1250008,0 c -1.07727703,0 -1.937499034375,-0.8602 -1.937499034375,-1.9375 z"/><path id="path7515" fill="#fff" fill-opacity=".537" stroke="none" d="m 2.5312502,1005.0185 c -0.917088,0 -1.67114603,0.6395 -1.84374903,1.5 0.33561203,-0.2799 0.77451203,-0.4375 1.24999903,-0.4375 l 44.1250008,0 c 0.475488,0 0.914388,0.1576 1.25,0.4375 -0.172603,-0.8605 -0.926662,-1.5 -1.84375,-1.5 l -42.9375008,0 z"/><path id="rect4280" fill="#000" fill-opacity=".392" stroke="none" d="m 1.9375002,1004.3622 c -1.07727603,0 -1.937499034375,0.8602 -1.937499034375,1.9375 l 0,43.0625 c 0,0.7934 0.480023004375,1.449 1.156249034375,1.75 -0.30934103,-0.3333 -0.49999903,-0.7824 -0.49999903,-1.2812 l 0,-42.9375 c 0,-1.0482 0.82689803,-1.875 1.87499903,-1.875 l 42.9375008,0 c 1.048101,0 1.875,0.8268 1.875,1.875 l 0,42.9375 c 0,0.4988 -0.190658,0.9479 -0.5,1.2812 0.676226,-0.301 1.15625,-0.9566 1.15625,-1.75 l 0,-43.0625 c 0,-1.0773 -0.860223,-1.9375 -1.9375,-1.9375 l -44.1250008,0 z"/><rect id="rect3745" width="86" height="85" x="124.231" y="979.704" fill="url(#ButtonShadow)" fill-opacity="1" fill-rule="nonzero" stroke="none" display="none" filter="url(#filter3174)" opacity=".9" rx="6" ry="6"/><path id="path7" fill="url(#linearGradient5575)" fill-opacity="1" d="m 23.999999,1012.9622 c -8.505184,0 -15.3999994,6.8948 -15.3999994,15.4 0,8.5052 6.8948154,15.4 15.3999994,15.4 8.505183,0 15.399999,-6.8948 15.399999,-15.4 0,-8.5052 -6.894816,-15.4 -15.399999,-15.4 z m 0,3.08 c 6.80415,0 12.319999,5.5158 12.319999,12.32 0,6.8041 -5.515849,12.32 -12.319999,12.32 -6.804151,0 -12.32,-5.5159 -12.32,-12.32 0,-6.8042 5.515849,-12.32 12.32,-12.32 z m -3.6575,4.235 0,2.4664 2.099451,0 c 0.201278,0.7107 0.570231,1.2488 0.727896,2.0032 -1.799223,3.0709 -3.863367,6.4175 -5.654695,9.3904 -0.23178,0.3846 -0.576001,0.8484 -0.547418,1.2813 l 3.098048,0 c 1.57889,-2.2513 2.942591,-4.723 4.565864,-6.93 0.901629,2.5638 1.976148,4.9534 2.827337,7.5677 1.72635,-0.4317 3.466643,-0.8479 4.920782,-1.5521 -0.410143,-0.6842 -0.47203,-1.7122 -0.908353,-2.3701 -0.688041,0.2846 -1.401061,0.5438 -2.189695,0.7279 -1.473965,-4.3017 -3.266248,-8.2832 -4.740315,-12.5847 l -4.198902,0 z" display="inline" enable-background="new"/><path id="path5499" fill="#2b498e" fill-opacity=".314" d="m 24,10.880859 c -6.804151,0 -12.320312,5.51416 -12.320312,12.31836 0,0.135142 0.01521,0.266297 0.01953,0.40039 C 11.912343,16.982352 17.330993,11.679688 24,11.679688 c 6.669006,0 12.087657,5.302664 12.300781,11.919921 0.0043,-0.134093 0.01953,-0.265248 0.01953,-0.40039 0,-6.8042 -5.516162,-12.31836 -12.320312,-12.31836 z m -3.658203,6.701172 0,0.798828 2.099609,0 c 0.149949,0.52946 0.392886,0.964221 0.572266,1.462891 0.04985,-0.08481 0.106794,-0.175354 0.15625,-0.259766 -0.157665,-0.7544 -0.527238,-1.291253 -0.728516,-2.001953 l -2.099609,0 z m 4.289062,5.744141 c -1.623273,2.207 -2.985563,4.678387 -4.564453,6.929687 l -2.83789,0 c -0.15125,0.263648 -0.279272,0.534942 -0.261719,0.800782 l 3.099609,0 c 1.57889,-2.2513 2.94118,-4.722688 4.564453,-6.929688 0.901629,2.5638 1.976936,4.952106 2.828125,7.566406 1.72635,-0.4317 3.465783,-0.846581 4.919922,-1.550781 -0.121036,-0.201912 -0.208158,-0.436241 -0.287109,-0.679687 -1.395127,0.626879 -3.015344,1.027168 -4.632813,1.43164 -0.851189,-2.6143 -1.926496,-5.004559 -2.828125,-7.568359 z M 8.6191406,23.599609 C 8.615678,23.733962 8.5996094,23.864812 8.5996094,24 c 0,8.5052 6.8952066,15.400391 15.4003906,15.400391 8.505183,0 15.400391,-6.895191 15.400391,-15.400391 0,-0.135188 -0.01607,-0.266038 -0.01953,-0.400391 -0.214125,8.31855 -7.010696,15 -15.380859,15 -8.370164,0 -15.1667338,-6.68145 -15.3808594,-15 z" display="inline" enable-background="new" transform="translate(0,1004.3622)"/><path id="path5504" fill="#fff" fill-opacity=".235" d="M 24,8.5996094 C 15.494816,8.5996094 8.5996094,15.4948 8.5996094,24 c 0,0.06726 0.00891,0.132158 0.00977,0.199219 C 8.7182856,15.787792 15.562739,9 24,9 c 8.43726,0 15.281714,6.787792 15.390625,15.199219 8.6e-4,-0.06706 0.0098,-0.131954 0.0098,-0.199219 C 39.400391,15.4948 32.505183,8.5996094 24,8.5996094 Z m -3.658203,7.3144526 0,0.400391 4.199219,0 c 1.474067,4.3015 3.266269,8.284238 4.740234,12.585938 0.788634,-0.1841 1.501412,-0.443916 2.189453,-0.728516 0.371698,0.560457 0.484747,1.376925 0.759766,2.033203 0.048,-0.02236 0.101033,-0.03954 0.148437,-0.0625 -0.410143,-0.6842 -0.47188,-1.713194 -0.908203,-2.371094 C 30.782662,28.056084 30.069884,28.3159 29.28125,28.5 27.807285,24.1983 26.015083,20.215562 24.541016,15.914062 l -4.199219,0 z m 2.75,4.59961 c -1.781676,3.036241 -3.809327,6.329451 -5.576172,9.261719 -0.23178,0.3846 -0.577411,0.84835 -0.548828,1.28125 l 0.07031,0 c 0.106541,-0.307604 0.317035,-0.612909 0.478516,-0.88086 1.791328,-2.9729 3.855074,-6.319725 5.654297,-9.390625 -0.02015,-0.09641 -0.05187,-0.181331 -0.07813,-0.271484 z m -11.402344,3.685547 c -0.0011,0.06764 -0.0098,0.133271 -0.0098,0.201172 0,6.8041 5.516161,12.320312 12.320312,12.320312 6.80415,0 12.320312,-5.516212 12.320312,-12.320312 0,-0.0679 -0.0087,-0.133532 -0.0098,-0.201172 C 36.203011,30.910457 30.736907,36.320312 24,36.320312 c -6.736908,0 -12.203011,-5.409855 -12.310547,-12.121093 z" display="inline" enable-background="new" transform="translate(0,1004.3622)"/></g></svg>