<svg xmlns="http://www.w3.org/2000/svg" xmlns:svg="http://www.w3.org/2000/svg" xmlns:xlink="http://www.w3.org/1999/xlink" id="svg5453" width="48" height="48" version="1.1"><defs id="defs5455"><linearGradient id="linearGradient4259"><stop id="stop4261" offset="0" stop-color="#fcc6bc" stop-opacity="1"/><stop id="stop4263" offset="1" stop-color="#fef9f6" stop-opacity="1"/></linearGradient><linearGradient id="linearGradient941-7" x1="26.163" x2="26.163" y1="-1052.716" y2="-1004.633" gradientTransform="translate(384.57141,504.56409)" gradientUnits="userSpaceOnUse" xlink:href="#linearGradient4124"/><linearGradient id="linearGradient4124"><stop id="stop4126" offset="0" stop-color="#f64524" stop-opacity="1"/><stop id="stop4128" offset="1" stop-color="#f37824" stop-opacity="1"/></linearGradient><style id="style2464" type="text/css"/><style id="style2464-7" type="text/css"/><linearGradient id="linearGradient4257" x1="30.317" x2="30.317" y1="39.338" y2="8.402" gradientUnits="userSpaceOnUse" xlink:href="#linearGradient4259"/></defs><metadata id="metadata5458"/><g id="layer1" transform="translate(-384.57143,-499.798)"><rect id="rect2991-1-5" width="48" height="48" x="384.571" y="-547.798" fill="url(#linearGradient941-7)" fill-opacity="1" stroke="none" ry="1.945" transform="scale(1,-1)"/><path id="path4271" fill="#000" fill-opacity=".059" stroke="none" d="m 399.57143,509.59722 -9,15.40039 9,15.40039 18,0 9,-15.40039 -9,-15.40039 -18,0 z m 4.01172,3.40039 9.97656,0 -4.98828,8.64062 -4.98828,-8.64062 z m -2.95117,1.60937 6,10.39063 -6,10.39062 -6.06055,-10.39062 6.06055,-10.39063 z m 15.8789,0 6.06055,10.39063 -6.06055,10.39062 -6,-10.39062 6,-10.39063 z m -7.93945,13.75 4.98828,8.64063 -9.97656,0 4.98828,-8.64063 z"/><path id="path4269" fill="#000" fill-opacity=".118" stroke="none" d="m 399.57143,509.19722 -9,15.40039 9,15.40039 18,0 9,-15.40039 -9,-15.40039 -18,0 z m 4.01172,3.40039 9.97656,0 -4.98828,8.64062 -4.98828,-8.64062 z m -2.95117,1.60937 6,10.39063 -6,10.39062 -6.06055,-10.39062 6.06055,-10.39063 z m 15.8789,0 6.06055,10.39063 -6.06055,10.39062 -6,-10.39062 6,-10.39063 z m -7.93945,13.75 4.98828,8.64063 -9.97656,0 4.98828,-8.64063 z"/><path id="path4265" fill="#000" fill-opacity=".235" stroke="none" d="m 399.57143,508.79722 -9,15.40039 9,15.40039 18,0 9,-15.40039 -9,-15.40039 -18,0 z m 4.01172,3.40039 9.97656,0 -4.98828,8.64062 -4.98828,-8.64062 z m -2.95117,1.60937 6,10.39063 -6,10.39062 -6.06055,-10.39062 6.06055,-10.39063 z m 15.8789,0 6.06055,10.39063 -6.06055,10.39062 -6,-10.39062 6,-10.39063 z m -7.93945,13.75 4.98828,8.64063 -9.97656,0 4.98828,-8.64063 z"/><path id="rect846" fill="#000" fill-opacity="1" stroke="none" d="m 384.57143,544.79799 0,1.0625 c 0,1.0773 0.86022,1.9375 1.9375,1.9375 l 44.125,0 c 1.07728,0 1.9375,-0.8602 1.9375,-1.9375 l 0,-1.0625 c 0,1.0773 -0.86022,1.9375 -1.9375,1.9375 l -44.125,0 C 385.43165,546.73549 384.57143,545.87529 384.57143,544.79799 Z"/><path id="path7515" fill="#fff" fill-opacity=".537" stroke="none" d="m 387.10268,500.45429 c -0.91709,0 -1.67115,0.6395 -1.84375,1.5 0.33561,-0.2799 0.77451,-0.4375 1.25,-0.4375 l 44.125,0 c 0.47549,0 0.91439,0.1576 1.25,0.4375 -0.1726,-0.8605 -0.92666,-1.5 -1.84375,-1.5 L 387.10268,500.45429 Z"/><path id="rect4280" fill="#000" fill-opacity=".392" stroke="none" d="m 386.50893,499.79799 c -1.07728,0 -1.9375,0.8602 -1.9375,1.9375 l 0,43.0625 c 0,0.7934 0.48002,1.449 1.15625,1.75 -0.30934,-0.3333 -0.5,-0.7824 -0.5,-1.2812 l 0,-42.9375 c 0,-1.0482 0.8269,-1.875 1.875,-1.875 l 42.9375,0 c 1.0481,0 1.875,0.8268 1.875,1.875 l 0,42.9375 c 0,0.4988 -0.19066,0.9479 -0.5,1.2812 0.67623,-0.301 1.15625,-0.9566 1.15625,-1.75 l 0,-43.0625 c 0,-1.0773 -0.86022,-1.9375 -1.9375,-1.9375 L 386.50893,499.79799 Z"/><path id="path4241" fill="url(#linearGradient4257)" fill-opacity="1" stroke="none" d="M 15 8.5996094 L 6 24 L 15 39.400391 L 33 39.400391 L 42 24 L 33 8.5996094 L 15 8.5996094 z M 19.011719 12 L 28.988281 12 L 24 20.640625 L 19.011719 12 z M 16.060547 13.609375 L 22.060547 24 L 16.060547 34.390625 L 10 24 L 16.060547 13.609375 z M 31.939453 13.609375 L 38 24 L 31.939453 34.390625 L 25.939453 24 L 31.939453 13.609375 z M 24 27.359375 L 28.988281 36 L 19.011719 36 L 24 27.359375 z" transform="translate(384.57143,499.798)"/><path id="path4273" fill="#f55024" fill-opacity=".314" stroke="none" d="M 19.011719 11.199219 L 19.474609 12 L 28.525391 12 L 28.988281 11.199219 L 19.011719 11.199219 z M 16.060547 12.808594 L 10 23.199219 L 10.234375 23.599609 L 16.060547 13.609375 L 21.830078 23.599609 L 22.060547 23.199219 L 16.060547 12.808594 z M 31.939453 12.808594 L 25.939453 23.199219 L 26.169922 23.599609 L 31.939453 13.609375 L 37.765625 23.599609 L 38 23.199219 L 31.939453 12.808594 z M 6.234375 23.599609 L 6 24 L 15 39.400391 L 33 39.400391 L 42 24 L 41.765625 23.599609 L 33 38.599609 L 15 38.599609 L 6.234375 23.599609 z M 24 26.558594 L 19.011719 35.199219 L 19.474609 35.199219 L 24 27.359375 L 28.525391 35.199219 L 28.988281 35.199219 L 24 26.558594 z" transform="translate(384.57143,499.798)"/><path id="path4278" fill="#fff" fill-opacity=".235" stroke="none" d="M 15 8.5996094 L 6 24 L 6.1171875 24.199219 L 15 9 L 33 9 L 41.882812 24.199219 L 42 24 L 33 8.5996094 L 15 8.5996094 z M 19.011719 12.400391 L 24 21.041016 L 28.988281 12.400391 L 28.757812 12.400391 L 24 20.640625 L 19.242188 12.400391 L 19.011719 12.400391 z M 10.117188 24.199219 L 10 24.400391 L 16.060547 34.791016 L 22.060547 24.400391 L 21.945312 24.199219 L 16.060547 34.390625 L 10.117188 24.199219 z M 26.054688 24.199219 L 25.939453 24.400391 L 31.939453 34.791016 L 38 24.400391 L 37.882812 24.199219 L 31.939453 34.390625 L 26.054688 24.199219 z M 19.242188 36 L 19.011719 36.400391 L 28.988281 36.400391 L 28.757812 36 L 19.242188 36 z" transform="translate(384.57143,499.798)"/></g></svg>