<svg xmlns="http://www.w3.org/2000/svg" xmlns:svg="http://www.w3.org/2000/svg" xmlns:xlink="http://www.w3.org/1999/xlink" id="svg5453" width="48" height="48" version="1.1"><defs id="defs5455"><linearGradient id="linearGradient4109-7" x1="55.374" x2="55.374" y1="1015.729" y2="1039.383" gradientTransform="matrix(1.3340156,0,0,1.3340156,337.41005,-847.38742)" gradientUnits="userSpaceOnUse" xlink:href="#linearGradient1734-8"/><linearGradient id="linearGradient1734-8"><stop id="stop1736-5" offset="0" stop-color="#7eecf6" stop-opacity="1"/><stop id="stop1742-5" offset=".5" stop-color="#0091e6" stop-opacity="1"/><stop id="stop1738-5" offset="1" stop-color="#002293" stop-opacity="1"/></linearGradient><linearGradient id="linearGradient867-0" x1="26.25" x2="26.25" y1="-1052.541" y2="-1004.684" gradientTransform="translate(384.5714,504.56415)" gradientUnits="userSpaceOnUse" xlink:href="#linearGradient1373-1"/><linearGradient id="linearGradient1373-1"><stop id="stop1375-0" offset="0" stop-color="#282827" stop-opacity="1"/><stop id="stop1377-5" offset="1" stop-color="#292929" stop-opacity="1"/></linearGradient><linearGradient id="linearGradient4321" x1="59.022" x2="59.022" y1="1039.272" y2="1016.17" gradientTransform="matrix(-0.69844757,0,0,0.69844757,453.82922,-186.77339)" gradientUnits="userSpaceOnUse" xlink:href="#linearGradient4195"/><linearGradient id="linearGradient4195"><stop id="stop4197" offset="0" stop-color="#dee4e4" stop-opacity="1"/><stop id="stop4199" offset="1" stop-color="#f2f2f0" stop-opacity="1"/></linearGradient><linearGradient id="linearGradient4134" x1="27.018" x2="27.018" y1="1006.518" y2="1027.203" gradientTransform="matrix(1.4242038,0,0,1.4242038,374.39054,-941.71617)" gradientUnits="userSpaceOnUse" xlink:href="#linearGradient4128"/><linearGradient id="linearGradient4128"><stop id="stop4130" offset="0" stop-color="#fff" stop-opacity="1"/><stop id="stop4132" offset="1" stop-color="#fff" stop-opacity="0"/></linearGradient></defs><metadata id="metadata5458"/><g id="layer1" transform="translate(-384.57143,-499.798)"><rect id="rect2991-1-4" width="48" height="48" x="384.571" y="-547.798" fill="url(#linearGradient867-0)" fill-opacity="1" stroke="none" ry="1.945" transform="scale(1,-1)"/><path id="path4390" fill="#000" fill-opacity=".059" fill-rule="nonzero" stroke="none" d="m 408.57143,509.59804 c -9.2731,0 -16.79,6.16216 -16.79,13.76124 0,4.36501 1.61404,7.96496 4.91767,10.31995 0.0551,0.052 0.15747,0.12512 0.32616,0.2285 2.4525,1.49284 -0.95893,5.72051 -0.95893,5.72051 -0.34894,0.61401 0,0.71677 0,0.71677 1.69344,0.46142 5.77895,-2.25188 5.77895,-2.25188 1.50381,-1.10426 3.13653,-1.57025 3.13653,-1.57025 0.61023,0.0654 1.24063,0.11279 1.89441,0.13866 1.28385,0.0514 2.56438,-0.0319 3.82203,-0.21483 1.82415,1.31337 4.28632,2.09308 6.75936,1.99407 0.34228,-0.0138 0.67265,-0.0381 0.99213,-0.0723 0,0 0.85513,0.2441 1.64247,0.82223 0,0 2.14051,1.42124 3.02717,1.17965 0,0 0.18268,-0.0535 0,-0.37499 0,0 -1.78791,-2.21437 -0.50388,-2.99599 0.0884,-0.0542 0.14317,-0.0919 0.17187,-0.11913 1.72967,-1.233 2.57406,-3.11873 2.57406,-5.40411 0,-1.30003 -0.42679,-2.51517 -1.16204,-3.56823 0.73299,-1.42001 1.16204,-2.9469 1.16204,-4.54867 0,-7.59908 -7.51691,-13.76124 -16.79,-13.76124 z" font-family="Anonymous" font-size="14.197" font-stretch="normal" font-style="normal" font-variant="normal" font-weight="normal" letter-spacing="0" word-spacing="0" style="line-height:125%;-inkscape-font-specification:Anonymous"/><path id="path4388" fill="#000" fill-opacity=".118" fill-rule="nonzero" stroke="none" d="m 408.57143,509.19804 c -9.2731,0 -16.79,6.16216 -16.79,13.76124 0,4.36501 1.61404,7.96496 4.91767,10.31995 0.0551,0.052 0.15747,0.12512 0.32616,0.2285 2.4525,1.49284 -0.95893,5.72051 -0.95893,5.72051 -0.34894,0.61401 0,0.71677 0,0.71677 1.69344,0.46142 5.77895,-2.25188 5.77895,-2.25188 1.50381,-1.10426 3.13653,-1.57025 3.13653,-1.57025 0.61023,0.0654 1.24063,0.11279 1.89441,0.13866 1.28385,0.0514 2.56438,-0.0319 3.82203,-0.21483 1.82415,1.31337 4.28632,2.09308 6.75936,1.99407 0.34228,-0.0138 0.67265,-0.0381 0.99213,-0.0723 0,0 0.85513,0.2441 1.64247,0.82223 0,0 2.14051,1.42124 3.02717,1.17965 0,0 0.18268,-0.0535 0,-0.37499 0,0 -1.78791,-2.21437 -0.50388,-2.99599 0.0884,-0.0542 0.14317,-0.0919 0.17187,-0.11913 1.72967,-1.233 2.57406,-3.11873 2.57406,-5.40411 0,-1.30003 -0.42679,-2.51517 -1.16204,-3.56823 0.73299,-1.42001 1.16204,-2.9469 1.16204,-4.54867 0,-7.59908 -7.51691,-13.76124 -16.79,-13.76124 z" font-family="Anonymous" font-size="14.197" font-stretch="normal" font-style="normal" font-variant="normal" font-weight="normal" letter-spacing="0" word-spacing="0" style="line-height:125%;-inkscape-font-specification:Anonymous"/><path id="path4381" fill="#000" fill-opacity=".235" fill-rule="nonzero" stroke="none" d="m 408.57143,508.79804 c -9.2731,0 -16.79,6.16216 -16.79,13.76124 0,4.36501 1.61404,7.96496 4.91767,10.31995 0.0551,0.052 0.15747,0.12512 0.32616,0.2285 2.4525,1.49284 -0.95893,5.72051 -0.95893,5.72051 -0.34894,0.61401 0,0.71677 0,0.71677 1.69344,0.46142 5.77895,-2.25188 5.77895,-2.25188 1.50381,-1.10426 3.13653,-1.57025 3.13653,-1.57025 0.61023,0.0654 1.24063,0.11279 1.89441,0.13866 1.28385,0.0514 2.56438,-0.0319 3.82203,-0.21483 1.82415,1.31337 4.28632,2.09308 6.75936,1.99407 0.34228,-0.0138 0.67265,-0.0381 0.99213,-0.0723 0,0 0.85513,0.2441 1.64247,0.82223 0,0 2.14051,1.42124 3.02717,1.17965 0,0 0.18268,-0.0535 0,-0.37499 0,0 -1.78791,-2.21437 -0.50388,-2.99599 0.0884,-0.0542 0.14317,-0.0919 0.17187,-0.11913 1.72967,-1.233 2.57406,-3.11873 2.57406,-5.40411 0,-1.30003 -0.42679,-2.51517 -1.16204,-3.56823 0.73299,-1.42001 1.16204,-2.9469 1.16204,-4.54867 0,-7.59908 -7.51691,-13.76124 -16.79,-13.76124 z" font-family="Anonymous" font-size="14.197" font-stretch="normal" font-style="normal" font-variant="normal" font-weight="normal" letter-spacing="0" word-spacing="0" style="line-height:125%;-inkscape-font-specification:Anonymous"/><path id="rect846" fill="#000" fill-opacity="1" stroke="none" d="m 384.57143,544.79799 0,1.0625 c 0,1.0773 0.86022,1.9375 1.9375,1.9375 l 44.125,0 c 1.07728,0 1.9375,-0.8602 1.9375,-1.9375 l 0,-1.0625 c 0,1.0773 -0.86022,1.9375 -1.9375,1.9375 l -44.125,0 C 385.43165,546.73549 384.57143,545.87529 384.57143,544.79799 Z"/><path id="path7515" fill="#fff" fill-opacity=".537" stroke="none" d="m 387.10268,500.45429 c -0.91709,0 -1.67115,0.6395 -1.84375,1.5 0.33561,-0.2799 0.77451,-0.4375 1.25,-0.4375 l 44.125,0 c 0.47549,0 0.91439,0.1576 1.25,0.4375 -0.1726,-0.8605 -0.92666,-1.5 -1.84375,-1.5 L 387.10268,500.45429 Z"/><path id="rect4280" fill="#000" fill-opacity=".392" stroke="none" d="m 386.50893,499.79799 c -1.07728,0 -1.9375,0.8602 -1.9375,1.9375 l 0,43.0625 c 0,0.7934 0.48002,1.449 1.15625,1.75 -0.30934,-0.3333 -0.5,-0.7824 -0.5,-1.2812 l 0,-42.9375 c 0,-1.0482 0.8269,-1.875 1.875,-1.875 l 42.9375,0 c 1.0481,0 1.875,0.8268 1.875,1.875 l 0,42.9375 c 0,0.4988 -0.19066,0.9479 -0.5,1.2812 0.67623,-0.301 1.15625,-0.9566 1.15625,-1.75 l 0,-43.0625 c 0,-1.0773 -0.86022,-1.9375 -1.9375,-1.9375 L 386.50893,499.79799 Z"/><path id="path4319" fill="url(#linearGradient4321)" fill-opacity="1" fill-rule="nonzero" stroke="none" d="m 416.57113,523.07212 c 4.85541,0 8.79178,3.22637 8.79178,7.20512 0,2.28546 -0.84511,4.1705 -2.57489,5.40354 -0.0287,0.0272 -0.0825,0.0656 -0.17089,0.1198 -1.2841,0.78164 0.50224,2.99516 0.50224,2.99516 0.18269,0.32149 0,0.37461 0,0.37461 -0.88671,0.2416 -3.02662,-1.17848 -3.02662,-1.17848 -0.78739,-0.57815 -1.64201,-0.82206 -1.64201,-0.82206 l 2.7e-4,0 c -0.3195,0.0342 -0.65,0.0585 -0.9923,0.0723 -4.85166,0.19423 -9.67875,-2.9851 -9.67875,-6.96478 0,-3.97877 3.93581,-7.20512 8.79117,-7.20512" font-family="Anonymous" font-size="14.197" font-stretch="normal" font-style="normal" font-variant="normal" font-weight="normal" letter-spacing="0" word-spacing="0" style="line-height:125%;-inkscape-font-specification:Anonymous"/><path id="path1246-0" fill="url(#linearGradient4109-7)" fill-opacity="1" fill-rule="nonzero" stroke="none" d="m 408.57199,508.39798 c -9.27366,0 -16.79203,6.16222 -16.79203,13.76157 0,4.36517 1.61415,7.96554 4.91798,10.32061 0.0551,0.052 0.15767,0.1254 0.32636,0.22879 2.45265,1.49289 -0.95923,5.72066 -0.95923,5.72066 -0.34896,0.61404 0,0.71556 0,0.71556 1.69354,0.46144 5.78073,-2.25088 5.78073,-2.25088 1.5039,-1.1043 3.13624,-1.57014 3.13624,-1.57014 l -5.5e-4,0 c 0.61027,0.0654 1.24149,0.11206 1.89531,0.13794 9.26648,0.37099 18.48611,-5.70145 18.48611,-13.30254 0,-7.59935 -7.51727,-13.76157 -16.79092,-13.76157" font-family="Anonymous" font-size="14.197" font-stretch="normal" font-style="normal" font-variant="normal" font-weight="normal" letter-spacing="0" word-spacing="0" style="line-height:125%;-inkscape-font-specification:Anonymous"/><path font-stretch="normal" style="line-height:125%;-inkscape-font-specification:Anonymous" id="path4392" fill="#282827" fill-opacity=".314" fill-rule="nonzero" stroke="none" d="M 40.765625 21.945312 C 40.702496 23.405997 40.302585 24.804392 39.628906 26.109375 C 39.706339 26.220267 39.765485 26.340682 39.835938 26.455078 C 40.433671 25.164386 40.791016 23.794938 40.791016 22.361328 C 40.791016 22.220825 40.770729 22.084803 40.765625 21.945312 z M 7.2304688 22.011719 C 7.2268602 22.129086 7.2089844 22.24325 7.2089844 22.361328 C 7.2089844 26.726348 8.8230331 30.326651 12.126953 32.681641 C 12.182053 32.733641 12.284425 32.806766 12.453125 32.910156 C 12.977406 33.229258 13.22181 33.676719 13.300781 34.177734 C 13.419568 33.359605 13.245288 32.591522 12.453125 32.109375 C 12.284425 32.005985 12.182053 31.932859 12.126953 31.880859 C 8.9393758 29.608797 7.3402386 26.170472 7.2304688 22.011719 z M 40.767578 30.1875 C 40.64869 32.24157 39.815079 33.942806 38.216797 35.082031 C 38.188097 35.109271 38.133322 35.146972 38.044922 35.201172 C 37.561499 35.495414 37.514521 35.992282 37.642578 36.498047 C 37.708342 36.304735 37.830602 36.132402 38.044922 36.001953 C 38.133322 35.947753 38.188097 35.910053 38.216797 35.882812 C 39.946627 34.649823 40.791016 32.763896 40.791016 30.478516 C 40.791016 30.379896 40.772439 30.285109 40.767578 30.1875 z M 26.126953 34.648438 C 24.869183 34.831368 23.588658 34.914681 22.304688 34.863281 C 21.650847 34.837401 21.020436 34.790009 20.410156 34.724609 C 20.410156 34.724609 18.777378 35.190662 17.273438 36.294922 C 17.273438 36.294922 13.272025 38.949645 11.548828 38.554688 C 11.543757 38.561069 11.494141 38.630859 11.494141 38.630859 C 11.145171 39.244879 11.494141 39.347656 11.494141 39.347656 C 13.187731 39.809086 17.273438 37.095703 17.273438 37.095703 C 18.777378 35.991443 20.410156 35.525391 20.410156 35.525391 C 21.020436 35.590791 21.650847 35.638183 22.304688 35.664062 C 23.588658 35.715462 24.869183 35.632149 26.126953 35.449219 C 27.951263 36.762589 30.413459 37.542369 32.886719 37.443359 C 33.229029 37.429559 33.559396 37.405294 33.878906 37.371094 C 33.878906 37.371094 34.734074 37.615229 35.521484 38.193359 C 35.521484 38.193359 37.662098 39.614637 38.548828 39.373047 C 38.548828 39.373047 38.731528 39.319537 38.548828 38.998047 C 38.548828 38.998047 38.41983 38.833446 38.257812 38.587891 C 37.267691 38.546874 35.521484 37.392578 35.521484 37.392578 C 34.734074 36.814448 33.878906 36.570312 33.878906 36.570312 C 33.559396 36.604513 33.229029 36.628778 32.886719 36.642578 C 30.413459 36.741588 27.951263 35.961807 26.126953 34.648438 z" font-family="Anonymous" font-size="14.197" font-style="normal" font-variant="normal" font-weight="normal" letter-spacing="0" transform="translate(384.57143,499.798)" word-spacing="0"/><path id="path4118" fill="url(#linearGradient4134)" fill-opacity="1" fill-rule="nonzero" stroke="none" d="m 408.57195,508.39841 c -8.72136,0 -15.79199,5.79522 -15.79199,12.94174 0,4.10555 1.51802,7.49117 4.62509,9.70623 0.0519,0.0498 0.14826,0.11821 0.30692,0.21519 2.3066,1.4037 -0.9021,5.37994 -0.9021,5.37994 -0.32819,0.57751 0,0.67307 0,0.67307 1.59267,0.43396 5.43646,-2.11722 5.43646,-2.11722 1.41433,-1.03853 2.94947,-1.47661 2.94947,-1.47661 l -5.3e-4,0 c 0.57393,0.0613 1.16756,0.10538 1.78244,0.1296 8.71463,0.34879 17.38519,-5.36198 17.38519,-12.51006 0,-7.14709 -7.06958,-12.94231 -15.79096,-12.94231" font-family="Anonymous" font-size="14.197" font-stretch="normal" font-style="normal" font-variant="normal" font-weight="normal" letter-spacing="0" word-spacing="0" style="line-height:125%;-inkscape-font-specification:Anonymous"/><path font-stretch="normal" style="line-height:125%;-inkscape-font-specification:Anonymous" id="path4562" fill="#fff" fill-opacity=".235" fill-rule="nonzero" stroke="none" d="M 24 8.5996094 C 14.72634 8.5996094 7.2089844 14.761978 7.2089844 22.361328 C 7.2089844 22.43793 7.2177554 22.509809 7.21875 22.585938 C 7.3349189 15.068496 14.798766 9 24 9 C 33.212452 9 40.682939 15.083127 40.78125 22.613281 C 40.783512 22.529243 40.791016 22.44575 40.791016 22.361328 C 40.791016 14.761978 33.27365 8.5996094 24 8.5996094 z M 13.324219 34.736328 C 13.201849 36.505853 11.494141 38.630859 11.494141 38.630859 C 11.280171 39.007367 11.330905 39.179754 11.400391 39.265625 C 11.424811 39.192608 11.439042 39.128204 11.494141 39.03125 C 11.494141 39.03125 13.476953 36.566715 13.324219 34.736328 z" font-family="Anonymous" font-size="14.197" font-style="normal" font-variant="normal" font-weight="normal" letter-spacing="0" transform="translate(384.57143,499.798)" word-spacing="0"/></g></svg>