<svg xmlns="http://www.w3.org/2000/svg" xmlns:svg="http://www.w3.org/2000/svg" xmlns:xlink="http://www.w3.org/1999/xlink" id="svg5453" width="48" height="48" version="1.1" viewBox="0 0 48 48"><defs id="defs5455"><linearGradient id="linearGradient2119" x1="25" x2="25" y1="-1052.362" y2="-1004.987" gradientTransform="translate(384.57143,504.56418)" gradientUnits="userSpaceOnUse" xlink:href="#linearGradient1126"/><linearGradient id="linearGradient4315" x1="413.682" x2="413.682" y1="539.196" y2="508.453" gradientUnits="userSpaceOnUse" xlink:href="#linearGradient4157"/><linearGradient id="linearGradient4157"><stop id="stop4159" offset="0" stop-color="#bbdffd" stop-opacity="1"/><stop id="stop4161" offset="1" stop-color="#f5fdff" stop-opacity="1"/></linearGradient><linearGradient id="linearGradient1126"><stop id="stop1128" offset="0" stop-color="#058dfa" stop-opacity="1"/><stop id="stop1130" offset="1" stop-color="#05ccfb" stop-opacity="1"/></linearGradient></defs><metadata id="metadata5458"/><g id="layer1" transform="translate(-384.57143,-499.798)"><rect id="rect2991-1" width="48" height="48" x="384.571" y="-547.798" fill="url(#linearGradient2119)" fill-opacity="1" stroke="none" ry="1.945" transform="scale(1,-1)"/><path id="path4307" fill="#000" fill-opacity=".059" fill-rule="evenodd" stroke="none" d="m 408.57143,509.598 a 15.399609,15.39961 0 0 0 -15.4,15.4 15.399609,15.39961 0 0 0 15.4,15.4 15.399609,15.39961 0 0 0 15.4,-15.4 15.399609,15.39961 0 0 0 -15.4,-15.4 z m 0,1.99995 a 13.39966,13.399661 0 0 1 13.40005,13.40005 13.39966,13.399661 0 0 1 -13.40005,13.40005 13.39966,13.399661 0 0 1 -13.40005,-13.40005 13.39966,13.399661 0 0 1 13.40005,-13.40005 z m -9.99975,8.40018 0,3.9999 3.9999,0 0,-3.9999 -3.9999,0 z m 7.9998,0 0,3.9999 3.9999,0 0,-3.9999 -3.9999,0 z m 7.9998,0 0,3.9999 3.9999,0 0,-3.9999 -3.9999,0 z m -15.9996,5.99984 0,3.9999 3.9999,0 0,-3.9999 -3.9999,0 z m 7.9998,0 0,3.9999 3.9999,0 0,-3.9999 -3.9999,0 z m 7.9998,0 0,3.9999 3.9999,0 0,-3.9999 -3.9999,0 z"/><path id="path4305" fill="#000" fill-opacity=".118" fill-rule="evenodd" stroke="none" d="m 408.57143,509.198 a 15.399609,15.39961 0 0 0 -15.4,15.4 15.399609,15.39961 0 0 0 15.4,15.4 15.399609,15.39961 0 0 0 15.4,-15.4 15.399609,15.39961 0 0 0 -15.4,-15.4 z m 0,1.99995 a 13.39966,13.399661 0 0 1 13.40005,13.40005 13.39966,13.399661 0 0 1 -13.40005,13.40005 13.39966,13.399661 0 0 1 -13.40005,-13.40005 13.39966,13.399661 0 0 1 13.40005,-13.40005 z m -9.99975,8.40018 0,3.9999 3.9999,0 0,-3.9999 -3.9999,0 z m 7.9998,0 0,3.9999 3.9999,0 0,-3.9999 -3.9999,0 z m 7.9998,0 0,3.9999 3.9999,0 0,-3.9999 -3.9999,0 z m -15.9996,5.99984 0,3.9999 3.9999,0 0,-3.9999 -3.9999,0 z m 7.9998,0 0,3.9999 3.9999,0 0,-3.9999 -3.9999,0 z m 7.9998,0 0,3.9999 3.9999,0 0,-3.9999 -3.9999,0 z"/><path id="path4303" fill="#000" fill-opacity=".235" fill-rule="evenodd" stroke="none" d="m 408.57143,508.798 a 15.399609,15.39961 0 0 0 -15.4,15.4 15.399609,15.39961 0 0 0 15.4,15.4 15.399609,15.39961 0 0 0 15.4,-15.4 15.399609,15.39961 0 0 0 -15.4,-15.4 z m 0,1.99995 a 13.39966,13.399661 0 0 1 13.40005,13.40005 13.39966,13.399661 0 0 1 -13.40005,13.40005 13.39966,13.399661 0 0 1 -13.40005,-13.40005 13.39966,13.399661 0 0 1 13.40005,-13.40005 z m -9.99975,8.40018 0,3.9999 3.9999,0 0,-3.9999 -3.9999,0 z m 7.9998,0 0,3.9999 3.9999,0 0,-3.9999 -3.9999,0 z m 7.9998,0 0,3.9999 3.9999,0 0,-3.9999 -3.9999,0 z m -15.9996,5.99984 0,3.9999 3.9999,0 0,-3.9999 -3.9999,0 z m 7.9998,0 0,3.9999 3.9999,0 0,-3.9999 -3.9999,0 z m 7.9998,0 0,3.9999 3.9999,0 0,-3.9999 -3.9999,0 z"/><path id="rect846-2" fill="#000" fill-opacity="1" stroke="none" d="m 384.57143,544.79802 0,1.0625 c 0,1.0773 0.86022,1.9375 1.9375,1.9375 l 44.125,0 c 1.07728,0 1.9375,-0.8602 1.9375,-1.9375 l 0,-1.0625 c 0,1.0773 -0.86022,1.9375 -1.9375,1.9375 l -44.125,0 c -1.07728,0 -1.9375,-0.8602 -1.9375,-1.9375 z"/><path id="path7515-4" fill="#fff" fill-opacity=".537" stroke="none" d="m 387.10268,500.45432 c -0.91709,0 -1.67115,0.6395 -1.84375,1.5 0.33561,-0.2799 0.77451,-0.4375 1.25,-0.4375 l 44.125,0 c 0.47549,0 0.91439,0.1576 1.25,0.4375 -0.1726,-0.8605 -0.92666,-1.5 -1.84375,-1.5 l -42.9375,0 z"/><path id="rect4280-8" fill="#000" fill-opacity=".392" stroke="none" d="m 386.50893,499.79802 c -1.07728,0 -1.9375,0.8602 -1.9375,1.9375 l 0,43.0625 c 0,0.7934 0.48002,1.449 1.15625,1.75 -0.30934,-0.3333 -0.5,-0.7824 -0.5,-1.2812 l 0,-42.9375 c 0,-1.0482 0.8269,-1.875 1.875,-1.875 l 42.9375,0 c 1.0481,0 1.875,0.8268 1.875,1.875 l 0,42.9375 c 0,0.4988 -0.19066,0.9479 -0.5,1.2812 0.67623,-0.301 1.15625,-0.9566 1.15625,-1.75 l 0,-43.0625 c 0,-1.0773 -0.86022,-1.9375 -1.9375,-1.9375 l -44.125,0 z"/><path id="path3481" fill="url(#linearGradient4315)" fill-opacity="1" fill-rule="evenodd" stroke="none" d="m 408.57143,508.398 a 15.399609,15.39961 0 0 0 -15.4,15.4 15.399609,15.39961 0 0 0 15.4,15.4 15.399609,15.39961 0 0 0 15.4,-15.4 15.399609,15.39961 0 0 0 -15.4,-15.4 z m 0,1.99995 a 13.39966,13.399661 0 0 1 13.40005,13.40005 13.39966,13.399661 0 0 1 -13.40005,13.40005 13.39966,13.399661 0 0 1 -13.40005,-13.40005 13.39966,13.399661 0 0 1 13.40005,-13.40005 z m -9.99975,8.40018 0,3.9999 3.9999,0 0,-3.9999 -3.9999,0 z m 7.9998,0 0,3.9999 3.9999,0 0,-3.9999 -3.9999,0 z m 7.9998,0 0,3.9999 3.9999,0 0,-3.9999 -3.9999,0 z m -15.9996,5.99984 0,3.9999 3.9999,0 0,-3.9999 -3.9999,0 z m 7.9998,0 0,3.9999 3.9999,0 0,-3.9999 -3.9999,0 z m 7.9998,0 0,3.9999 3.9999,0 0,-3.9999 -3.9999,0 z"/><path id="path4323" fill="#058efa" fill-opacity=".314" fill-rule="evenodd" stroke="none" d="M 24 9.8007812 A 13.39966 13.399661 0 0 0 10.599609 23.199219 A 13.39966 13.399661 0 0 0 10.615234 23.669922 A 13.39966 13.399661 0 0 1 24 10.599609 A 13.39966 13.399661 0 0 1 37.384766 23.529297 A 13.39966 13.399661 0 0 0 37.400391 23.199219 A 13.39966 13.399661 0 0 0 24 9.8007812 z M 14 22.199219 L 14 23 L 18 23 L 18 22.199219 L 14 22.199219 z M 22 22.199219 L 22 23 L 26 23 L 26 22.199219 L 22 22.199219 z M 30 22.199219 L 30 23 L 34 23 L 34 22.199219 L 30 22.199219 z M 8.6171875 23.53125 A 15.399609 15.39961 0 0 0 8.5996094 24 A 15.399609 15.39961 0 0 0 24 39.400391 A 15.399609 15.39961 0 0 0 39.400391 24 A 15.399609 15.39961 0 0 0 39.382812 23.669922 A 15.399609 15.39961 0 0 1 24 38.599609 A 15.399609 15.39961 0 0 1 8.6171875 23.53125 z M 14 28.199219 L 14 29 L 18 29 L 18 28.199219 L 14 28.199219 z M 22 28.199219 L 22 29 L 26 29 L 26 28.199219 L 22 28.199219 z M 30 28.199219 L 30 29 L 34 29 L 34 28.199219 L 30 28.199219 z" transform="translate(384.57143,499.798)"/><path id="path4328" fill="#fff" fill-opacity=".235" fill-rule="evenodd" stroke="none" d="M 24 8.5996094 A 15.399609 15.39961 0 0 0 8.5996094 24 A 15.399609 15.39961 0 0 0 8.6074219 24.166016 A 15.399609 15.39961 0 0 1 24 9 A 15.399609 15.39961 0 0 1 39.392578 24.234375 A 15.399609 15.39961 0 0 0 39.400391 24 A 15.399609 15.39961 0 0 0 24 8.5996094 z M 14 19 L 14 19.400391 L 18 19.400391 L 18 19 L 14 19 z M 22 19 L 22 19.400391 L 26 19.400391 L 26 19 L 22 19 z M 30 19 L 30 19.400391 L 34 19.400391 L 34 19 L 30 19 z M 37.392578 24.166016 A 13.39966 13.399661 0 0 1 24 37.400391 A 13.39966 13.399661 0 0 1 10.607422 24.234375 A 13.39966 13.399661 0 0 0 10.599609 24.400391 A 13.39966 13.399661 0 0 0 24 37.800781 A 13.39966 13.399661 0 0 0 37.400391 24.400391 A 13.39966 13.399661 0 0 0 37.392578 24.166016 z M 14 25 L 14 25.400391 L 18 25.400391 L 18 25 L 14 25 z M 22 25 L 22 25.400391 L 26 25.400391 L 26 25 L 22 25 z M 30 25 L 30 25.400391 L 34 25.400391 L 34 25 L 30 25 z" transform="translate(384.57143,499.798)"/></g></svg>