<svg xmlns="http://www.w3.org/2000/svg" xmlns:svg="http://www.w3.org/2000/svg" xmlns:xlink="http://www.w3.org/1999/xlink" id="svg4190" width="48" height="48" version="1.1"><defs id="defs4192"><linearGradient id="linearGradient4145" x1="17.766" x2="14.87" y1="1027.702" y2="1016.895" gradientTransform="matrix(0.80644036,0,0,0.80644036,13.679751,204.90449)" gradientUnits="userSpaceOnUse" xlink:href="#linearGradient896"/><linearGradient id="linearGradient896"><stop id="stop898" offset="0" stop-color="#fff" stop-opacity="1"/><stop id="stop900" offset="1" stop-color="#fff" stop-opacity="0"/></linearGradient><linearGradient id="linearGradient4147" x1="28.954" x2="28.954" y1="33.456" y2="-3.137" gradientTransform="matrix(0.80644036,0,0,0.80644036,12.146183,1045.9107)" gradientUnits="userSpaceOnUse" xlink:href="#linearGradient952"/><linearGradient id="linearGradient952"><stop id="stop954" offset="0" stop-color="#3b8838" stop-opacity="1"/><stop id="stop956" offset="1" stop-color="#81b054" stop-opacity="1"/></linearGradient><linearGradient id="linearGradient4149" x1="17.766" x2="14.87" y1="1027.702" y2="1016.895" gradientTransform="matrix(0.53994027,0,0,0.53994027,30.038795,490.60062)" gradientUnits="userSpaceOnUse" xlink:href="#linearGradient896"/><linearGradient id="linearGradient4151" x1="34.247" x2="34.247" y1="33.733" y2="-3.036" gradientTransform="matrix(0.80644036,0,0,0.80644036,21.420247,1037.8462)" gradientUnits="userSpaceOnUse" xlink:href="#linearGradient952"/><linearGradient id="linearGradient4153" x1="25.75" x2="25.75" y1="61" y2="23.375" gradientTransform="matrix(0.80644036,0,0,0.80644036,27.227133,1013.653)" gradientUnits="userSpaceOnUse" xlink:href="#linearGradient928"/><linearGradient id="linearGradient928"><stop id="stop930" offset="0" stop-color="#90b95b" stop-opacity="1"/><stop id="stop932" offset="1" stop-color="#97be61" stop-opacity="1"/></linearGradient><linearGradient id="linearGradient4155" x1="43.045" x2="43.045" y1="39.78" y2="26.787" gradientTransform="matrix(0.80644036,0,0,0.80644036,9.1220315,1013.653)" gradientUnits="userSpaceOnUse" xlink:href="#linearGradient988"/><linearGradient id="linearGradient988"><stop id="stop990" offset="0" stop-color="#f2f2f2" stop-opacity="1"/><stop id="stop992" offset="1" stop-color="#fff" stop-opacity=".615"/></linearGradient><linearGradient id="linearGradient4157" x1="30.813" x2="30.813" y1="43.594" y2="35.688" gradientTransform="matrix(0.80644036,0,0,0.80644036,9.1220315,1013.653)" gradientUnits="userSpaceOnUse" xlink:href="#linearGradient1051"/><linearGradient id="linearGradient1051"><stop id="stop1053" offset="0" stop-color="#f2f2f2" stop-opacity="1"/><stop id="stop1055" offset="1" stop-color="#fff" stop-opacity="0"/></linearGradient><linearGradient id="linearGradient4159" x1="27.5" x2="27.5" y1="34" y2="-2.75" gradientTransform="matrix(0.80644036,0,0,0.80644036,2.2672884,1035.8302)" gradientUnits="userSpaceOnUse" xlink:href="#linearGradient952"/><linearGradient id="linearGradient4161" x1="25.75" x2="25.75" y1="61" y2="23.375" gradientTransform="matrix(0.80644036,0,0,0.80644036,9.1220315,1013.653)" gradientUnits="userSpaceOnUse" xlink:href="#linearGradient928"/><linearGradient id="linearGradient4163" x1="18.625" x2="18.625" y1="40.75" y2="23.875" gradientTransform="matrix(0.80644036,0,0,0.80644036,9.1220315,1013.653)" gradientUnits="userSpaceOnUse" xlink:href="#linearGradient988"/><linearGradient id="linearGradient4165" x1="17.766" x2="14.87" y1="1027.702" y2="1016.895" gradientTransform="matrix(0.71760699,0,0,0.71760699,19.620364,305.84158)" gradientUnits="userSpaceOnUse" xlink:href="#linearGradient896"/><linearGradient id="linearGradient4167" x1="17.766" x2="14.87" y1="1027.702" y2="1016.895" gradientTransform="matrix(1.024685,0,0,1.024685,-2.7793443,-21.375856)" gradientUnits="userSpaceOnUse" xlink:href="#linearGradient896"/><linearGradient id="linearGradient874"><stop id="stop876" offset="0" stop-color="#d9e3da" stop-opacity="1"/><stop id="stop882" offset=".5" stop-color="#4e7e8c" stop-opacity="1"/><stop id="stop878" offset="1" stop-color="#1b1e2b" stop-opacity="1"/></linearGradient><linearGradient id="linearGradient4849" x1="19.5" x2="19.5" y1="-1052.393" y2="-1004.362" gradientTransform="matrix(0.83333336,0,0,0.83333336,317.9824,321.11279)" gradientUnits="userSpaceOnUse" xlink:href="#linearGradient874"/><linearGradient id="linearGradient5847"><stop id="stop5849" offset="0" stop-color="#222" stop-opacity="1"/><stop id="stop5855" offset="1" stop-color="#3d3d3d" stop-opacity="1"/></linearGradient><linearGradient id="linearGradient7123" x1="405.499" x2="405.499" y1="-556.644" y2="-508.472" gradientTransform="translate(-66.767607,-3.3827164)" gradientUnits="userSpaceOnUse" spreadMethod="pad" xlink:href="#linearGradient5847"/></defs><metadata id="metadata4195"/><g id="layer1" transform="translate(-313.98239,-511.85575)"><rect id="rect7121" width="48" height="48" x="313.982" y="-559.856" fill="url(#linearGradient7123)" fill-opacity="1" stroke="none" ry="1.945" transform="scale(1,-1)"/><rect id="rect2991-1" width="42" height="42" x="316.982" y="-556.856" fill="#000" fill-opacity=".235" stroke="none" ry="1.701" transform="scale(1,-1)"/><rect id="rect4089" width="40" height="40" x="317.982" y="-555.856" fill="url(#linearGradient4849)" fill-opacity="1" stroke="none" ry="1.62" transform="scale(1,-1)"/><g id="g4091" transform="matrix(0.83333336,0,0,0.83333336,317.56666,-321.11279)"><path id="path4093" fill="#fff" fill-opacity=".502" stroke="none" d="M 21.566757,7.4297485 A 0.35355338,0.35355338 0 0 1 21.213203,7.7833019 0.35355338,0.35355338 0 0 1 20.85965,7.4297485 0.35355338,0.35355338 0 0 1 21.213203,7.0761952 0.35355338,0.35355338 0 0 1 21.566757,7.4297485 Z" transform="matrix(0.55805825,0,0,0.55805825,9.2187501,1007.4895)"/><path id="path4095" fill="#fff" fill-opacity=".308" stroke="none" d="M 21.566757,7.4297485 A 0.35355338,0.35355338 0 0 1 21.213203,7.7833019 0.35355338,0.35355338 0 0 1 20.85965,7.4297485 0.35355338,0.35355338 0 0 1 21.213203,7.0761952 0.35355338,0.35355338 0 0 1 21.566757,7.4297485 Z" transform="matrix(0.55805825,0,0,0.55805825,19.21875,1011.4895)"/><path id="path4097" fill="#fff" fill-opacity=".308" stroke="none" d="M 21.566757,7.4297485 A 0.35355338,0.35355338 0 0 1 21.213203,7.7833019 0.35355338,0.35355338 0 0 1 20.85965,7.4297485 0.35355338,0.35355338 0 0 1 21.213203,7.0761952 0.35355338,0.35355338 0 0 1 21.566757,7.4297485 Z" transform="matrix(0.55805825,0,0,0.55805825,19.925857,1011.2573)"/><path id="path4099" fill="#fff" fill-opacity=".308" stroke="none" d="M 21.566757,7.4297485 A 0.35355338,0.35355338 0 0 1 21.213203,7.7833019 0.35355338,0.35355338 0 0 1 20.85965,7.4297485 0.35355338,0.35355338 0 0 1 21.213203,7.0761952 0.35355338,0.35355338 0 0 1 21.566757,7.4297485 Z" transform="matrix(0.55805825,0,0,0.55805825,23.21875,1015.4895)"/><path id="path4101" fill="#fff" fill-opacity=".502" stroke="none" d="M 21.566757,7.4297485 A 0.35355338,0.35355338 0 0 1 21.213203,7.7833019 0.35355338,0.35355338 0 0 1 20.85965,7.4297485 0.35355338,0.35355338 0 0 1 21.213203,7.0761952 0.35355338,0.35355338 0 0 1 21.566757,7.4297485 Z" transform="matrix(0.55805825,0,0,0.55805825,-0.78125,1005.4895)"/><path id="path4103" fill="#fff" fill-opacity=".502" stroke="none" d="M 21.566757,7.4297485 A 0.35355338,0.35355338 0 0 1 21.213203,7.7833019 0.35355338,0.35355338 0 0 1 20.85965,7.4297485 0.35355338,0.35355338 0 0 1 21.213203,7.0761952 0.35355338,0.35355338 0 0 1 21.566757,7.4297485 Z" transform="matrix(0.55805825,0,0,0.55805825,-1.8973665,1005.4895)"/><path id="path4105" fill="#fff" fill-opacity=".502" stroke="none" d="M 21.566757,7.4297485 A 0.35355338,0.35355338 0 0 1 21.213203,7.7833019 0.35355338,0.35355338 0 0 1 20.85965,7.4297485 0.35355338,0.35355338 0 0 1 21.213203,7.0761952 0.35355338,0.35355338 0 0 1 21.566757,7.4297485 Z" transform="matrix(0.55805825,0,0,0.55805825,1.21875,1001.4895)"/><path id="path4107" fill="#fff" fill-opacity=".308" stroke="none" d="M 21.566757,7.4297485 A 0.35355338,0.35355338 0 0 1 21.213203,7.7833019 0.35355338,0.35355338 0 0 1 20.85965,7.4297485 0.35355338,0.35355338 0 0 1 21.213203,7.0761952 0.35355338,0.35355338 0 0 1 21.566757,7.4297485 Z" transform="matrix(0.55805825,0,0,0.55805825,27.21875,1003.4895)"/></g><g id="g4109" transform="matrix(0.83333336,0,0,0.83333336,318.12309,-321.11279)"><path id="path4111" fill="url(#linearGradient4145)" fill-opacity="1" stroke="none" d="m 25.654204,1024.7659 c -1.486842,0 -2.789473,0.7427 -3.586137,1.8717 -0.312215,-0.1249 -0.657837,-0.1923 -1.014614,-0.1923 -1.502947,0 -2.71147,1.2259 -2.71147,2.7288 0,0.2584 0.03818,0.4984 0.104961,0.7347 l 14.432012,0 c 0.06764,-0.2363 0.10496,-0.4763 0.10496,-0.7347 0,-1.5029 -1.226016,-2.7288 -2.728961,-2.7288 -0.356178,0 -0.685338,0.069 -0.997121,0.1923 -0.796535,-1.1301 -2.115976,-1.8717 -3.60363,-1.8717 z"/><path id="path4113" fill="url(#linearGradient4147)" fill-opacity="1" stroke="none" d="m 33.315243,1043.2897 -5.241863,9.0725 10.483724,0 -5.241861,-9.0725 z"/><path id="path4115" fill="url(#linearGradient4149)" fill-opacity="1" stroke="none" d="m 38.056116,1039.5267 c -0.995495,0 -1.867652,0.4973 -2.401047,1.2533 -0.209038,-0.084 -0.440445,-0.1289 -0.679319,-0.1289 -1.006276,0 -1.815425,0.8208 -1.815425,1.8271 0,0.173 0.02555,0.3336 0.07027,0.4919 l 9.662742,0 c 0.04529,-0.1583 0.07028,-0.3189 0.07028,-0.4919 0,-1.0063 -0.820861,-1.8271 -1.827136,-1.8271 -0.238474,0 -0.458857,0.047 -0.667608,0.1289 -0.53331,-0.7568 -1.416721,-1.2533 -2.412757,-1.2533 z"/><path id="path4117" fill="url(#linearGradient4151)" fill-opacity="1" stroke="none" d="m 42.589306,1035.2253 -9.904095,17.1369 13.58348,0 c 0.86876,0 1.562478,-0.6937 1.562478,-1.5625 l 0,-6.5019 -5.241863,-9.0725 z"/><path id="path4119" fill="url(#linearGradient4153)" fill-opacity="1" stroke="none" d="m 42.589306,1035.2253 -3.024151,5.2418 c 3.994472,2.6351 4.812866,7.998 4.838642,11.8951 l 1.864894,0 c 0.86876,0 1.562478,-0.6937 1.562478,-1.5625 l 0,-6.5019 -5.241863,-9.0725 z"/><path id="path4121" fill="url(#linearGradient4155)" fill-opacity="1" stroke="none" d="m 42.589306,1035.2253 -4.914245,8.5181 -0.504026,1.8397 4.410221,-2.5706 2.59573,2.5957 0.680434,-2.5201 2.016101,1.1846 0.478824,-0.8065 -4.763039,-8.2409 z"/><path id="path4123" fill="url(#linearGradient4157)" fill-opacity="1" stroke="none" d="m 33.315243,1043.2897 -0.0252,0.05 -2.19251,3.8054 c -0.05069,0.1999 -0.163903,0.5545 -0.151207,0.5545 0.05403,0 1.927003,-0.6688 2.041301,-0.5545 l 0.932447,0.9577 1.38607,-1.3861 -1.990901,-3.427 z"/><path id="path4125" fill="url(#linearGradient4159)" fill-opacity="1" stroke="none" d="m 23.436348,1033.2093 -11.063354,19.1529 22.126708,0 -11.063354,-19.1529 z"/><path id="path4127" fill="url(#linearGradient4161)" fill-opacity="1" stroke="none" d="m 23.436348,1033.2093 -3.679385,6.3759 c 5.471678,2.1002 6.523237,8.3786 6.552329,12.777 l 8.19041,0 -11.063354,-19.1529 z"/><path id="path4129" fill="url(#linearGradient4163)" fill-opacity="1" stroke="none" d="m 23.436348,1033.2093 -4.561428,7.888 0,4.7882 4.183409,-4.1834 2.167308,2.1673 2.39412,-2.369 0.907245,0.5292 -5.090654,-8.8203 z"/><path id="path4131" fill="url(#linearGradient4165)" fill-opacity="1" stroke="none" d="m 30.275773,1035.3912 c -1.323058,0 -2.482199,0.6609 -3.191107,1.6656 -0.277822,-0.1112 -0.585372,-0.1712 -0.902848,-0.1712 -1.337391,0 -2.412789,1.0909 -2.412789,2.4283 0,0.2299 0.03397,0.4434 0.0934,0.6537 l 12.842255,0 c 0.06019,-0.2103 0.0934,-0.4238 0.0934,-0.6537 0,-1.3374 -1.090964,-2.4283 -2.428352,-2.4283 -0.316944,0 -0.609844,0.062 -0.887284,0.1712 -0.708795,-1.0057 -1.882893,-1.6656 -3.206675,-1.6656 z"/><path id="path4133" fill="url(#linearGradient4167)" fill-opacity="1" stroke="none" d="m 12.435721,1020.3622 c -1.889221,0 -3.5443799,0.9437 -4.5566434,2.3783 -0.3967082,-0.1588 -0.835865,-0.2444 -1.2891953,-0.2444 -1.9096849,0 -3.4452674,1.5577 -3.4452674,3.4673 0,0.3284 0.048507,0.6333 0.1333656,0.9336 l 18.3377065,0 c 0.08595,-0.3003 0.133366,-0.6052 0.133366,-0.9336 0,-1.9096 -1.557809,-3.4673 -3.467493,-3.4673 -0.452568,0 -0.870809,0.088 -1.266969,0.2444 -1.012099,-1.436 -2.688616,-2.3783 -4.57887,-2.3783 z"/></g><path id="rect4474" fill="#1f1f1f" fill-opacity="1" stroke="none" d="m 316.98239,555.15442 c 0,0.94262 0.75855,1.70117 1.70117,1.70117 l 38.59766,0 c 0.94262,0 1.70117,-0.75855 1.70117,-1.70117 l 0,-1.29883 0,-0.29883 0,-3.70117 -1.70117,0 -38.59766,0 -1.70117,0 0,3.70117 0,0.29883 z"/><path id="path7515" fill="#fff" fill-opacity=".537" stroke="none" d="m 316.51364,512.51192 c -0.91709,0 -1.67115,0.6395 -1.84375,1.5 0.33561,-0.2799 0.77451,-0.4375 1.25,-0.4375 l 44.125,0 c 0.47549,0 0.91439,0.1576 1.25,0.4375 -0.1726,-0.8605 -0.92666,-1.5 -1.84375,-1.5 l -42.9375,0 z"/><path id="rect4280-0" fill="#000" fill-opacity=".392" stroke="none" d="m 315.91989,511.85562 c -1.07728,0 -1.9375,0.8602 -1.9375,1.9375 l 0,43.0625 c 0,0.7934 0.48002,1.449 1.15625,1.75 -0.30934,-0.3333 -0.5,-0.7824 -0.5,-1.2812 l 0,-42.9375 c 0,-1.0482 0.8269,-1.875 1.875,-1.875 l 42.9375,0 c 1.0481,0 1.875,0.8268 1.875,1.875 l 0,42.9375 c 0,0.4988 -0.19066,0.9479 -0.5,1.2812 0.67622,-0.301 1.15625,-0.9566 1.15625,-1.75 l 0,-43.0625 c 0,-1.0773 -0.86023,-1.9375 -1.9375,-1.9375 l -44.125,0 z"/><path id="rect846" fill="#000" fill-opacity="1" stroke="none" d="m 313.98239,556.85562 0,1.0625 c 0,1.0773 0.86022,1.9375 1.9375,1.9375 l 44.125,0 c 1.07727,0 1.9375,-0.8602 1.9375,-1.9375 l 0,-1.0625 c 0,1.0773 -0.86023,1.9375 -1.9375,1.9375 l -44.125,0 c -1.07728,0 -1.9375,-0.8602 -1.9375,-1.9375 z"/><path id="path4134" fill="#2b2b2b" fill-opacity="1" stroke="none" d="m 316.98239,516.55676 c 0,-0.94262 0.75855,-1.70117 1.70117,-1.70117 l 38.59766,0 c 0.94262,0 1.70117,0.75855 1.70117,1.70117 l 0,1.29883 0,0.29883 0,3.70117 -1.70117,0 -38.59766,0 -1.70117,0 0,-3.70117 0,-0.29883 z"/><rect id="rect4136" width=".43" height="28" x="330.767" y="521.855" fill="#2b2b2b" fill-opacity="1" stroke="none" opacity=".6" ry="0"/><rect id="rect4138" width=".43" height="28" x="344.767" y="521.855" fill="#2b2b2b" fill-opacity="1" stroke="none" opacity=".6" ry="0"/></g></svg>