<svg xmlns="http://www.w3.org/2000/svg" xmlns:svg="http://www.w3.org/2000/svg" xmlns:xlink="http://www.w3.org/1999/xlink" id="svg2" width="48" height="48" version="1.1"><defs id="defs4"><linearGradient id="linearGradient4169"><stop id="stop4171" offset="0" stop-color="#c9d5ef" stop-opacity="1"/><stop id="stop4173" offset="1" stop-color="#f8f9fc" stop-opacity="1"/></linearGradient><linearGradient id="linearGradient843" x1="-35.844" x2="-35.844" y1="-1057.985" y2="-1009.976" gradientTransform="translate(56.880463,5.6152085)" gradientUnits="userSpaceOnUse" xlink:href="#linearGradient844"/><linearGradient id="linearGradient844"><stop id="stop846" offset="0" stop-color="#2a488d" stop-opacity="1"/><stop id="stop848" offset="1" stop-color="#4163b2" stop-opacity="1"/></linearGradient><linearGradient id="linearGradient2974-9" x1="398.342" x2="398.342" y1="711.756" y2="111.405" gradientTransform="matrix(0.05661528,0,0,0.05130889,4.49458,1007.2691)" gradientUnits="userSpaceOnUse" xlink:href="#linearGradient4169"/></defs><metadata id="metadata7"/><g id="layer1" transform="translate(0,-1004.3622)"><rect id="rect2991-1" width="48" height="48" x="0" y="-1052.362" fill="url(#linearGradient843)" fill-opacity="1" stroke="none" ry="1.945" transform="scale(1,-1)"/><path id="path4181" fill="#000" fill-opacity=".059" fill-rule="evenodd" stroke="none" d="m 10.94876,1014.1622 c 6.5609,7.5367 7.42763,15.314 7.08089,20.4203 -0.3039,4.4756 -3.03256,6.152 -3.55395,6.3633 -1.08699,0.4405 -3.64073,1.0998 -7.28145,-1.257 0,2.7497 2.34047,5.1064 6.41462,5.1064 4.07414,0 7.4085,-3.2995 8.08567,-7.0162 2.35129,-19.1882 -2.12077,-21.8837 -2.12077,-21.8837 0,0 -4.09579,-1.7331 -8.62501,-1.7331 z m 10.4829,0.7146 c 1.13966,5.0006 10.16184,6.968 10.16184,9.3453 0,2.3773 -6.17309,2.7873 -6.07812,6.6402 0.095,5.3285 7.50271,12.3784 15.29037,14.0999 -3.41897,-4.0988 -12.06139,-13.0342 -9.21225,-15.3295 10.25691,-7.214 0.85484,-13.1164 -10.16184,-14.7559 z"/><path id="path4179" fill="#000" fill-opacity=".118" fill-rule="evenodd" stroke="none" d="m 10.94876,1013.7622 c 6.5609,7.5367 7.42763,15.314 7.08089,20.4203 -0.3039,4.4756 -3.03256,6.152 -3.55395,6.3633 -1.08699,0.4405 -3.64073,1.0998 -7.28145,-1.257 0,2.7497 2.34047,5.1064 6.41462,5.1064 4.07414,0 7.4085,-3.2995 8.08567,-7.0162 2.35129,-19.1882 -2.12077,-21.8837 -2.12077,-21.8837 0,0 -4.09579,-1.7331 -8.62501,-1.7331 z m 10.4829,0.7146 c 1.13966,5.0006 10.16184,6.968 10.16184,9.3453 0,2.3773 -6.17309,2.7873 -6.07812,6.6402 0.095,5.3285 7.50271,12.3784 15.29037,14.0999 -3.41897,-4.0988 -12.06139,-13.0342 -9.21225,-15.3295 10.25691,-7.214 0.85484,-13.1164 -10.16184,-14.7559 z"/><path id="path4175" fill="#000" fill-opacity=".235" fill-rule="evenodd" stroke="none" d="m 10.94876,1013.3622 c 6.5609,7.5367 7.42763,15.314 7.08089,20.4203 -0.3039,4.4756 -3.03256,6.152 -3.55395,6.3633 -1.08699,0.4405 -3.64073,1.0998 -7.28145,-1.257 0,2.7497 2.34047,5.1064 6.41462,5.1064 4.07414,0 7.4085,-3.2995 8.08567,-7.0162 2.35129,-19.1882 -2.12077,-21.8837 -2.12077,-21.8837 0,0 -4.09579,-1.7331 -8.62501,-1.7331 z m 10.4829,0.7146 c 1.13966,5.0006 10.16184,6.968 10.16184,9.3453 0,2.3773 -6.17309,2.7873 -6.07812,6.6402 0.095,5.3285 7.50271,12.3784 15.29037,14.0999 -3.41897,-4.0988 -12.06139,-13.0342 -9.21225,-15.3295 10.25691,-7.214 0.85484,-13.1164 -10.16184,-14.7559 z"/><path id="path7515" fill="#fff" fill-opacity=".537" stroke="none" d="m 2.5312498,1005.0185 c -0.917089,0 -1.67114698,0.6395 -1.84374998,1.5 0.33561198,-0.2799 0.77451198,-0.4375 1.24999998,-0.4375 l 44.1250002,0 c 0.475488,0 0.914388,0.1576 1.25,0.4375 -0.172603,-0.8605 -0.926662,-1.5 -1.84375,-1.5 L 2.5312498,1005.0185 Z"/><path id="rect4280-3" fill="#000" fill-opacity=".392" stroke="none" d="m 1.9374998,1004.3622 c -1.07727698,0 -1.93749997675782,0.8602 -1.93749997675782,1.9375 l 0,43.0625 c 0,0.7934 0.48002299675782,1.449 1.15624997675782,1.75 -0.30934198,-0.3333 -0.49999998,-0.7824 -0.49999998,-1.2812 l 0,-42.9375 c 0,-1.0482 0.82689898,-1.875 1.87499998,-1.875 l 42.9375002,0 c 1.048101,0 1.875,0.8268 1.875,1.875 l 0,42.9375 c 0,0.4988 -0.190658,0.9479 -0.5,1.2812 0.676226,-0.301 1.15625,-0.9566 1.15625,-1.75 l 0,-43.0625 c 0,-1.0773 -0.860223,-1.9375 -1.9375,-1.9375 L 1.9374998,1004.3622 Z"/><path id="rect846" fill="#000" fill-opacity="1" stroke="none" d="m -1.7675782e-7,1049.3622 0,1.0625 c 0,1.0773 0.86022299675782,1.9375 1.93749997675782,1.9375 l 44.1250002,0 c 1.077277,0 1.9375,-0.8602 1.9375,-1.9375 l 0,-1.0625 c 0,1.0773 -0.860223,1.9375 -1.9375,1.9375 l -44.1250002,0 C 0.86022282,1051.2997 -1.7675782e-7,1050.4395 -1.7675782e-7,1049.3622 Z"/><path id="path1972-1" fill="url(#linearGradient2974-9)" fill-opacity="1" fill-rule="evenodd" stroke="none" d="m 10.94876,1012.9622 c 6.5609,7.5367 7.42763,15.314 7.08089,20.4203 -0.3039,4.4756 -3.03256,6.152 -3.55395,6.3633 -1.08699,0.4405 -3.64073,1.0998 -7.28145,-1.257 0,2.7497 2.34047,5.1064 6.41462,5.1064 4.07414,0 7.4085,-3.2995 8.08567,-7.0162 2.35129,-19.1882 -2.12077,-21.8837 -2.12077,-21.8837 0,0 -4.09579,-1.7331 -8.62501,-1.7331 z m 10.4829,0.7146 c 1.13966,5.0006 10.16184,6.968 10.16184,9.3453 0,2.3773 -6.17309,2.7873 -6.07812,6.6402 0.095,5.3285 7.50271,12.3784 15.29037,14.0999 -3.41897,-4.0988 -12.06139,-13.0342 -9.21225,-15.3295 10.25691,-7.214 0.85484,-13.1164 -10.16184,-14.7559 z"/><path id="path4183" fill="#2b498e" fill-opacity=".314" fill-rule="evenodd" stroke="none" d="M 10.949219 8.5996094 C 16.569787 15.056122 17.998335 21.677139 18.078125 26.65625 C 18.140716 21.805908 16.964087 15.179042 11.630859 8.6308594 C 11.402492 8.6222949 11.180329 8.5996094 10.949219 8.5996094 z M 21.431641 9.3144531 C 22.513931 14.063326 30.689784 16.077964 31.511719 18.304688 C 31.561964 18.163314 31.59375 18.016345 31.59375 17.859375 C 31.59375 15.621995 23.607535 13.746706 21.716797 9.3652344 C 21.620898 9.3502767 21.527798 9.3287632 21.431641 9.3144531 z M 35.978516 17.59375 C 35.789211 19.340674 34.460508 21.253252 31.59375 23.269531 C 31.102089 23.665619 30.957604 24.263516 31.064453 24.996094 C 31.130491 24.625008 31.296439 24.30983 31.59375 24.070312 C 34.905512 21.741048 36.158344 19.550196 35.978516 17.59375 z M 22.367188 22.402344 C 22.32692 24.906101 22.129046 27.876445 21.695312 31.416016 C 21.018142 35.132716 17.683515 38.433594 13.609375 38.433594 C 9.96156 38.433594 7.7080153 36.542893 7.2753906 34.173828 C 7.247094 34.155791 7.2217887 34.145357 7.1933594 34.126953 C 7.1933594 36.876653 9.535225 39.232422 13.609375 39.232422 C 17.683515 39.232422 21.018142 35.933497 21.695312 32.216797 C 22.177734 28.279896 22.361679 25.069858 22.367188 22.402344 z M 25.550781 24.849609 C 25.534239 24.997213 25.511707 25.14184 25.515625 25.300781 C 25.610625 30.629281 33.018981 37.678891 40.806641 39.400391 C 40.573879 39.121347 40.188016 38.68549 39.912109 38.365234 C 32.62789 36.371769 25.932354 29.925449 25.550781 24.849609 z" transform="translate(0,1004.3622)"/><path id="path4188" fill="#fff" fill-opacity=".235" fill-rule="evenodd" stroke="none" d="M 10.949219 8.5996094 C 11.069663 8.7379667 11.174382 8.8771235 11.291016 9.015625 C 15.680402 9.0998317 19.574219 10.732422 19.574219 10.732422 C 19.574219 10.732422 22.455283 12.493801 22.369141 23.136719 C 22.534973 12.123304 19.574219 10.333984 19.574219 10.333984 C 19.574219 10.333984 15.478439 8.5996094 10.949219 8.5996094 z M 21.431641 9.3144531 C 21.465244 9.4618993 21.527342 9.5979741 21.574219 9.7402344 C 29.044057 10.878581 35.730673 13.972616 35.992188 18.105469 C 36.15251 13.746553 29.198014 10.470243 21.431641 9.3144531 z M 31.554688 18.892578 C 31.160021 21.064234 25.423911 21.579983 25.515625 25.300781 C 25.516639 25.357679 25.53053 25.417328 25.533203 25.474609 C 25.687896 21.837715 31.59375 21.388884 31.59375 19.060547 C 31.59375 19.004214 31.564595 18.948497 31.554688 18.892578 z M 31.035156 25.591797 C 30.794757 28.754282 37.191604 35.557221 40.359375 39.28125 C 40.508729 39.318225 40.656957 39.367302 40.806641 39.400391 C 37.9224 35.942646 31.319086 29.043468 31.035156 25.591797 z M 18.085938 27.220703 C 18.083334 27.846804 18.067643 28.454825 18.029297 29.019531 C 17.725397 33.495131 14.997952 35.171513 14.476562 35.382812 C 13.389572 35.823312 10.834079 36.483753 7.1933594 34.126953 C 7.1933594 34.265876 7.2029737 34.4024 7.2148438 34.539062 C 10.843812 36.878935 13.391771 36.222812 14.476562 35.783203 C 14.997952 35.571903 17.725397 33.895522 18.029297 29.419922 C 18.075835 28.734575 18.093951 27.995241 18.085938 27.220703 z" transform="translate(0,1004.3622)"/></g></svg>