<svg xmlns="http://www.w3.org/2000/svg" xmlns:svg="http://www.w3.org/2000/svg" xmlns:xlink="http://www.w3.org/1999/xlink" id="svg2" width="48" height="48" version="1.1"><defs id="defs4"><linearGradient id="linearGradient965"><stop id="stop967" offset="0" stop-color="#f09f03" stop-opacity="1"/><stop id="stop969" offset="1" stop-color="#f09f03" stop-opacity="1"/></linearGradient><linearGradient id="linearGradient954"><stop id="stop956" offset="0" stop-color="#4d4d4d" stop-opacity="1"/><stop id="stop958" offset="1" stop-color="#999" stop-opacity="1"/></linearGradient><linearGradient id="linearGradient936"><stop id="stop938" offset="0" stop-color="#851e14" stop-opacity="1"/><stop id="stop940" offset="1" stop-color="#e34233" stop-opacity="1"/></linearGradient><linearGradient id="linearGradient903"><stop id="stop905" offset="0" stop-color="#999" stop-opacity="1"/><stop id="stop907" offset="1" stop-color="#ececec" stop-opacity="1"/></linearGradient><linearGradient id="linearGradient909" x1="22.981" x2="22.981" y1="-1052.694" y2="-1004.633" gradientUnits="userSpaceOnUse" xlink:href="#linearGradient903"/><linearGradient id="linearGradient922" x1="24.387" x2="24.387" y1="48.14" y2="32.188" gradientUnits="userSpaceOnUse" xlink:href="#linearGradient903"/><linearGradient id="linearGradient952" x1="6.594" x2="6.594" y1="1027.3" y2="1018.643" gradientTransform="matrix(1.0428571,0,0,1,1.9794643,10.75)" gradientUnits="userSpaceOnUse" xlink:href="#linearGradient954"/><linearGradient id="linearGradient971" x1="9.281" x2="9.281" y1="33.681" y2="4.159" gradientTransform="translate(0,1003.876)" gradientUnits="userSpaceOnUse" xlink:href="#linearGradient965"/><linearGradient id="linearGradient1008" x1="6.594" x2="6.594" y1="1027.3" y2="1018.643" gradientTransform="matrix(1.0428571,0,0,1,-23.807594,10.75)" gradientUnits="userSpaceOnUse" xlink:href="#linearGradient954"/><linearGradient id="linearGradient1030" x1="22.981" x2="22.981" y1="-1052.694" y2="-1004.633" gradientTransform="matrix(0.4844013,0,0,1,12.374367,0)" gradientUnits="userSpaceOnUse" xlink:href="#linearGradient936"/><linearGradient id="linearGradient1075" x1="9.281" x2="9.281" y1="33.681" y2="4.159" gradientTransform="translate(0,1003.876)" gradientUnits="userSpaceOnUse" xlink:href="#linearGradient965"/><linearGradient id="linearGradient1077" x1="6.594" x2="6.594" y1="1027.3" y2="1018.643" gradientTransform="matrix(1.0428571,0,0,1,1.9794643,10.75)" gradientUnits="userSpaceOnUse" xlink:href="#linearGradient954"/><linearGradient id="linearGradient1079" x1="6.594" x2="6.594" y1="1027.3" y2="1018.643" gradientTransform="matrix(1.0428571,0,0,1,-23.807594,10.75)" gradientUnits="userSpaceOnUse" xlink:href="#linearGradient954"/></defs><metadata id="metadata7"/><g id="layer1" transform="translate(0,-1004.3622)"><rect id="rect2991-1" width="48" height="48" x="0" y="-1052.362" fill="url(#linearGradient909)" fill-opacity="1" stroke="none" ry="1.945" transform="scale(1,-1)"/><path id="rect911" fill="url(#linearGradient922)" fill-opacity="1" d="M 0 35.625 L 0 46.0625 C 0 47.139777 0.86022285 48 1.9375 48 L 46.0625 48 C 47.139777 48 48 47.139777 48 46.0625 L 48 35.625 L 0 35.625 z" transform="translate(0,1004.3622)"/><rect id="rect934" width="23.251" height="48" x="12.374" y="-1052.362" fill="url(#linearGradient1030)" fill-opacity="1" stroke="none" opacity=".96" ry="0" transform="scale(1,-1)"/><path id="rect924" fill="#fff" fill-opacity=".409" d="M 0.65625 35.625 L 0.65625 36.25 L 47.34375 36.25 L 47.34375 35.625 L 0.65625 35.625 z" transform="translate(0,1004.3622)"/><path id="path932" fill="#000" fill-opacity=".409" d="m 0.65625,1039.3622 0,0.625 46.6875,0 0,-0.625 L 0.65625,1039.3622 Z"/><g id="g1032" transform="matrix(1.045902,0,0,1.045902,-1.4348862,-48.305555)"><g id="g979" transform="translate(4,13.984283)"><path id="path977" fill="#000" fill-opacity=".124" d="m 4.84375,1008.6904 2,3.4375 1.5625,2.6875 0,23.5625 0.875,0 0,-23.5625 1.5625,-2.6875 1.96875,-3.4375 -3.96875,0 L 4.84375,1008.6904 Z"/><path id="path973" fill="#000" fill-opacity=".232" d="m 4.84375,1008.2685 2,3.4375 1.26225,2.6875 0,23.5625 1.475,0 0,-23.5625 1.26275,-2.6875 1.96875,-3.4375 L 8.84375,1008.2685 Z"/><path id="path960" fill="url(#linearGradient971)" fill-opacity="1" d="m 4.84375,1007.7823 2,3.4375 1.5625,2.6875 0,23.5625 0.875,0 0,-23.5625 1.5625,-2.6875 1.96875,-3.4375 -3.96875,0 L 4.84375,1007.7823 Z"/></g><g id="g1020" transform="translate(-0.06540394,0)"><g id="g1010"><rect id="rect942" width="7.125" height="8.875" x="5" y="1029.237" fill="#000" fill-opacity="1" opacity=".347" ry="1.07"/><rect id="rect944" width="6.844" height="8.563" x="5.141" y="1029.393" fill="url(#linearGradient952)" fill-opacity="1" ry="1.032"/><path id="path3767" fill="#fff" stroke="none" d="m 7.0036426,1031.0217 0,1.0973 1.6459987,1.5427 -1.6589084,1.504 0,1.1619 L 10.134267,1033.6746 Z"/></g><g id="g1015"><rect id="rect1002" width="7.125" height="8.875" x="-20.787" y="1029.237" fill="#000" fill-opacity="1" opacity=".347" ry="1.07" transform="scale(-1,1)"/><rect id="rect1004" width="6.844" height="8.563" x="-20.646" y="1029.393" fill="url(#linearGradient1008)" fill-opacity="1" ry="1.032" transform="scale(-1,1)"/><path id="path1006" fill="#fff" stroke="none" d="m 18.783415,1031.0217 0,1.0973 -1.645998,1.5427 1.658908,1.504 0,1.1619 L 15.652791,1033.6746 Z"/></g></g></g><g id="g1047" transform="matrix(1.045902,0,0,1.045902,22.600957,-48.305555)"><g id="g1049" transform="translate(4,13.984283)"><path id="path1051" fill="#000" fill-opacity=".124" d="m 4.84375,1008.6904 2,3.4375 1.5625,2.6875 0,23.5625 0.875,0 0,-23.5625 1.5625,-2.6875 1.96875,-3.4375 -3.96875,0 L 4.84375,1008.6904 Z"/><path id="path1053" fill="#000" fill-opacity=".232" d="m 4.84375,1008.2685 2,3.4375 1.26225,2.6875 0,23.5625 1.475,0 0,-23.5625 1.26275,-2.6875 1.96875,-3.4375 L 8.84375,1008.2685 Z"/><path id="path1055" fill="url(#linearGradient1075)" fill-opacity="1" d="m 4.84375,1007.7823 2,3.4375 1.5625,2.6875 0,23.5625 0.875,0 0,-23.5625 1.5625,-2.6875 1.96875,-3.4375 -3.96875,0 L 4.84375,1007.7823 Z"/></g><g id="g1057" transform="translate(-0.06540394,0)"><g id="g1059"><rect id="rect1061" width="7.125" height="8.875" x="5" y="1029.237" fill="#000" fill-opacity="1" opacity=".347" ry="1.07"/><rect id="rect1063" width="6.844" height="8.563" x="5.141" y="1029.393" fill="url(#linearGradient1077)" fill-opacity="1" ry="1.032"/><path id="path1065" fill="#fff" stroke="none" d="m 7.0036426,1031.0217 0,1.0973 1.6459987,1.5427 -1.6589084,1.504 0,1.1619 L 10.134267,1033.6746 Z"/></g><g id="g1067"><rect id="rect1069" width="7.125" height="8.875" x="-20.787" y="1029.237" fill="#000" fill-opacity="1" opacity=".347" ry="1.07" transform="scale(-1,1)"/><rect id="rect1071" width="6.844" height="8.563" x="-20.646" y="1029.393" fill="url(#linearGradient1079)" fill-opacity="1" ry="1.032" transform="scale(-1,1)"/><path id="path1073" fill="#fff" stroke="none" d="m 18.783415,1031.0217 0,1.0973 -1.645998,1.5427 1.658908,1.504 0,1.1619 L 15.652791,1033.6746 Z"/></g></g></g><rect id="rect1111" width="17.75" height="5.375" x="3.107" y="1038.487" fill="#000" fill-opacity=".749" stroke="none" opacity="1" ry="1.25"/><rect id="rect1141" width="17.75" height="5.375" x="27.143" y="1038.487" fill="#000" fill-opacity=".749" stroke="none" ry="1.25"/><g id="text1143" fill="#fff" fill-opacity="1" stroke="none" font-family="Helvetica Neue" font-size="3.413" font-stretch="normal" font-style="normal" font-variant="normal" font-weight="normal" letter-spacing="0" text-anchor="start" word-spacing="0" writing-mode="lr-tb" style="text-align:start;line-height:125%;-inkscape-font-specification:Helvetica Neue"><path id="path1152" d="m 5.4797198,1041.1763 c 0,0.5324 0.047775,1.2285 0.8053529,1.2285 0.7575778,0 0.8053529,-0.6961 0.8053529,-1.2285 0,-0.5357 -0.047775,-1.2319 -0.8053529,-1.2319 C 5.527495,1039.9444 5.4797198,1040.6406 5.4797198,1041.1763 z m 0.3071261,-0 c 0,-0.3583 0.00341,-0.9725 0.4982268,-0.9725 0.4948143,0 0.4982268,0.6142 0.4982268,0.9725 0,0.3618 -0.00341,0.976 -0.4982268,0.976 C 5.7902584,1042.1489 5.7868459,1041.5347 5.7868459,1041.1729 Z"/><path id="path1154" d="m 7.3792628,1041.1763 c 0,0.5324 0.047775,1.2285 0.8053529,1.2285 0.7575777,0 0.8053529,-0.6961 0.8053529,-1.2285 0,-0.5357 -0.047775,-1.2319 -0.8053529,-1.2319 C 7.4270379,1039.9444 7.3792628,1040.6406 7.3792628,1041.1763 z m 0.3071261,-0 c 0,-0.3583 0.00341,-0.9725 0.4982268,-0.9725 0.4948142,0 0.4982268,0.6142 0.4982268,0.9725 0,0.3618 -0.00341,0.976 -0.4982268,0.976 C 7.6898014,1042.1489 7.6863889,1041.5347 7.6863889,1041.1729 Z"/><path id="path1156" d="m 9.4187187,1042.3639 0.3787889,0 0,-0.3788 -0.3787889,0 L 9.4187187,1042.3639 z m 0.3787889,-1.7643 -0.3787889,0 0,0.3788 0.3787889,0 L 9.7975076,1040.5996 Z"/><path id="path1158" d="m 10.522133,1040.801 c -0.01024,-0.2901 0.133088,-0.6006 0.470927,-0.6006 0.255938,0 0.467514,0.174 0.467514,0.4368 0,0.3344 -0.208163,0.4845 -0.617665,0.7371 -0.341251,0.2115 -0.631314,0.4163 -0.67909,0.9896 l 1.579994,0 0,-0.2559 -1.242155,0 c 0.05801,-0.3003 0.375377,-0.4539 0.67909,-0.6382 0.300301,-0.1877 0.586952,-0.4027 0.586952,-0.8292 0,-0.4505 -0.334426,-0.6962 -0.757577,-0.6962 -0.511877,0 -0.801941,0.3652 -0.778053,0.8566 L 10.522133,1040.801 Z"/><path id="path1160" d="m 12.421676,1040.801 c -0.01024,-0.2901 0.133088,-0.6006 0.470927,-0.6006 0.255938,0 0.467514,0.174 0.467514,0.4368 0,0.3344 -0.208163,0.4845 -0.617665,0.7371 -0.341251,0.2115 -0.631315,0.4163 -0.67909,0.9896 l 1.579993,0 0,-0.2559 -1.242154,0 c 0.05801,-0.3003 0.375376,-0.4539 0.67909,-0.6382 0.300301,-0.1877 0.586952,-0.4027 0.586952,-0.8292 0,-0.4505 -0.334426,-0.6962 -0.757578,-0.6962 -0.511876,0 -0.80194,0.3652 -0.778052,0.8566 L 12.421676,1040.801 Z"/><path id="path1162" d="m 14.164244,1042.3639 0.378789,0 0,-0.3788 -0.378789,0 L 14.164244,1042.3639 z m 0.378789,-1.7643 -0.378789,0 0,0.3788 0.378789,0 L 14.543033,1040.5996 Z"/><path id="path1164" d="m 16.431325,1039.9854 -1.194379,0 -0.225226,1.2558 0.249113,0.014 c 0.112613,-0.1365 0.266176,-0.2286 0.450452,-0.2286 0.324188,0 0.546002,0.2286 0.546002,0.5494 0,0.3856 -0.235464,0.5733 -0.511877,0.5733 -0.290064,0 -0.491402,-0.1877 -0.508464,-0.4368 l -0.290064,0 c 0.01024,0.4368 0.351489,0.6927 0.771228,0.6927 0.563064,0 0.846303,-0.3958 0.846303,-0.8053 0,-0.5528 -0.351489,-0.8293 -0.781465,-0.8293 -0.163801,0 -0.344664,0.055 -0.450452,0.1741 l -0.0068,-0.01 0.129675,-0.6962 0.975979,0 L 16.431325,1039.9854 Z"/><path id="path1166" d="m 18.15683,1039.9444 -0.232051,0 -1.102242,1.5732 0,0.2798 1.061292,0 0,0.5665 0.273001,0 0,-0.5665 0.327601,0 0,-0.2559 -0.327601,0 L 18.15683,1039.9444 z m -1.085179,1.5971 0.805353,-1.1842 0.0068,0 0,1.1842 L 17.071651,1041.5415 Z"/></g><g id="text1147" fill="#fff" fill-opacity="1" stroke="none" font-family="Helvetica Neue" font-size="3.413" font-stretch="normal" font-style="normal" font-variant="normal" font-weight="normal" letter-spacing="0" text-anchor="start" word-spacing="0" writing-mode="lr-tb" style="text-align:start;line-height:125%;-inkscape-font-specification:Helvetica Neue"><path id="path1169" d="m 29.515564,1041.1763 c 0,0.5324 0.04777,1.2285 0.805353,1.2285 0.757577,0 0.805352,-0.6961 0.805352,-1.2285 0,-0.5357 -0.04778,-1.2319 -0.805352,-1.2319 C 29.563339,1039.9444 29.515564,1040.6406 29.515564,1041.1763 z m 0.307126,-0 c 0,-0.3583 0.0034,-0.9725 0.498227,-0.9725 0.494814,0 0.498226,0.6142 0.498226,0.9725 0,0.3618 -0.0034,0.976 -0.498226,0.976 C 29.826102,1042.1489 29.82269,1041.5347 29.82269,1041.1729 Z"/><path id="path1171" d="m 31.415107,1041.1763 c 0,0.5324 0.04778,1.2285 0.805353,1.2285 0.757577,0 0.805352,-0.6961 0.805352,-1.2285 0,-0.5357 -0.04778,-1.2319 -0.805352,-1.2319 C 31.462882,1039.9444 31.415107,1040.6406 31.415107,1041.1763 z m 0.307126,-0 c 0,-0.3583 0.0034,-0.9725 0.498227,-0.9725 0.494814,0 0.498226,0.6142 0.498226,0.9725 0,0.3618 -0.0034,0.976 -0.498226,0.976 C 31.725645,1042.1489 31.722233,1041.5347 31.722233,1041.1729 Z"/><path id="path1173" d="m 33.454563,1042.3639 0.378788,0 0,-0.3788 -0.378788,0 L 33.454563,1042.3639 z m 0.378788,-1.7643 -0.378788,0 0,0.3788 0.378788,0 L 33.833351,1040.5996 Z"/><path id="path1175" d="m 35.547606,1039.9444 -0.232051,0 -1.102242,1.5732 0,0.2798 1.061292,0 0,0.5665 0.273001,0 0,-0.5665 0.327601,0 0,-0.2559 -0.327601,0 L 35.547606,1039.9444 z m -1.085179,1.5971 0.805353,-1.1842 0.0068,0 0,1.1842 L 34.462427,1041.5415 Z"/><path id="path1177" d="m 37.621187,1039.9854 -1.19438,0 -0.225225,1.2558 0.249113,0.014 c 0.112613,-0.1365 0.266176,-0.2286 0.450452,-0.2286 0.324188,0 0.546002,0.2286 0.546002,0.5494 0,0.3856 -0.235464,0.5733 -0.511877,0.5733 -0.290064,0 -0.491402,-0.1877 -0.508465,-0.4368 l -0.290063,0 c 0.01024,0.4368 0.351489,0.6927 0.771228,0.6927 0.563064,0 0.846303,-0.3958 0.846303,-0.8053 0,-0.5528 -0.351489,-0.8293 -0.781466,-0.8293 -0.1638,0 -0.344663,0.055 -0.450451,0.1741 l -0.0068,-0.01 0.129675,-0.6962 0.975979,0 L 37.621187,1039.9854 Z"/><path id="path1179" d="m 38.200088,1042.3639 0.378789,0 0,-0.3788 -0.378789,0 L 38.200088,1042.3639 z m 0.378789,-1.7643 -0.378789,0 0,0.3788 0.378789,0 L 38.578877,1040.5996 Z"/><path id="path1181" d="m 40.078142,1039.9444 -0.221813,0 c -0.06484,0.3652 -0.365139,0.4539 -0.696153,0.4539 l 0,0.232 0.627903,0 0,1.7336 0.290063,0 L 40.078142,1039.9444 Z"/><path id="path1183" d="m 42.192673,1039.9444 -0.23205,0 -1.102242,1.5732 0,0.2798 1.061291,0 0,0.5665 0.273001,0 0,-0.5665 0.327602,0 0,-0.2559 -0.327602,0 L 42.192673,1039.9444 z m -1.085179,1.5971 0.805353,-1.1842 0.0068,0 0,1.1842 L 41.107494,1041.5415 Z"/></g><path id="rect846" fill="#000" fill-opacity="1" stroke="none" d="m -2.2558594e-6,1049.3622 0,1.0625 c 0,1.0773 0.8602229958594,1.9375 1.9374999558594,1.9375 l 44.1250053,0 c 1.07727,0 1.9375,-0.8602 1.9375,-1.9375 l 0,-1.0625 c 0,1.0773 -0.86023,1.9375 -1.9375,1.9375 l -44.1250053,0 C 0.86022074,1051.2997 -2.2558594e-6,1050.4395 -2.2558594e-6,1049.3622 Z"/><path id="path7515" fill="#fff" fill-opacity=".537" stroke="none" d="m 2.5312477,1005.0185 c -0.917088,0 -1.67114696,0.6395 -1.84374996,1.5 0.33561196,-0.2799 0.77451196,-0.4375 1.24999996,-0.4375 l 44.1250053,0 c 0.47548,0 0.91438,0.1576 1.25,0.4375 -0.17261,-0.8605 -0.92667,-1.5 -1.84375,-1.5 L 2.5312477,1005.0185 Z"/><path id="rect4280-7" fill="#000" fill-opacity=".392" stroke="none" d="m 1.9374977,1004.3622 c -1.07727696,0 -1.9374999558594,0.8602 -1.9374999558594,1.9375 l 0,43.0625 c 0,0.7934 0.4800239958594,1.449 1.1562499558594,1.75 -0.30934196,-0.3333 -0.49999996,-0.7824 -0.49999996,-1.2812 l 0,-42.9375 c 0,-1.0482 0.82689896,-1.875 1.87499996,-1.875 l 42.9375053,0 c 1.0481,0 1.875,0.8268 1.875,1.875 l 0,42.9375 c 0,0.4988 -0.19066,0.9479 -0.5,1.2812 0.67622,-0.301 1.15625,-0.9566 1.15625,-1.75 l 0,-43.0625 c 0,-1.0773 -0.86023,-1.9375 -1.9375,-1.9375 L 1.9374977,1004.3622 Z"/></g></svg>