<svg xmlns="http://www.w3.org/2000/svg" xmlns:svg="http://www.w3.org/2000/svg" xmlns:xlink="http://www.w3.org/1999/xlink" id="svg2" width="48" height="48" version="1.1"><defs id="defs4"><linearGradient id="linearGradient1384" x1="310.041" x2="260.494" y1="733.651" y2="695.972" gradientTransform="matrix(1.0624126,0,0,1.0624126,-280.03229,261.30977)" gradientUnits="userSpaceOnUse" xlink:href="#linearGradient1378"/><linearGradient id="linearGradient1378"><stop id="stop1380" offset="0" stop-color="#fff" stop-opacity=".266"/><stop id="stop1382" offset="1" stop-color="#fff" stop-opacity="0"/></linearGradient><linearGradient id="linearGradient1365" x1="274.547" x2="302.722" y1="698.575" y2="728.879" gradientTransform="translate(-264.57144,304.57268)" gradientUnits="userSpaceOnUse" xlink:href="#linearGradient1378"/><linearGradient id="linearGradient3700-46-1"><stop id="stop3702-4-1" offset="0" stop-color="#2276c5" stop-opacity="1"/><stop id="stop3704-2-4" offset="1" stop-color="#68baf4" stop-opacity="1"/></linearGradient><linearGradient id="linearGradient4647" x1="-13.025" x2="-13.025" y1="-1052.863" y2="-1004.769" gradientTransform="translate(47.545873,0.287096)" gradientUnits="userSpaceOnUse" xlink:href="#linearGradient3700-46-1"/><linearGradient id="linearGradient908"><stop id="stop910" offset="0" stop-color="#3a404c" stop-opacity="1"/><stop id="stop912" offset="1" stop-color="#4c5562" stop-opacity="1"/></linearGradient><linearGradient id="ButtonShadow" x1="45.448" x2="45.448" y1="92.54" y2="7.017" gradientTransform="scale(1.0058652,0.994169)" gradientUnits="userSpaceOnUse"><stop id="stop3750" offset="0" stop-color="#000" stop-opacity="1"/><stop id="stop3752" offset="1" stop-color="#000" stop-opacity=".588"/></linearGradient><filter id="filter3174" color-interpolation-filters="sRGB"><feGaussianBlur id="feGaussianBlur3176" stdDeviation="1.71"/></filter><filter id="filter3794" width="1.384" height="1.384" x="-.192" y="-.192" color-interpolation-filters="sRGB"><feGaussianBlur id="feGaussianBlur3796" stdDeviation="5.28"/></filter><linearGradient id="linearGradient3613" x1="48" x2="48" y1="20.221" y2="138.661" gradientUnits="userSpaceOnUse" xlink:href="#linearGradient1378"/><clipPath id="clipPath3613"><rect id="rect3615" width="84" height="84" x="6" y="6" fill="#fff" fill-opacity="1" fill-rule="nonzero" stroke="none" rx="6" ry="6"/></clipPath><linearGradient id="linearGradient885" x1="27.107" x2="27.107" y1="1004.495" y2="1052.323" gradientTransform="translate(-4.6862793e-7,-2056.7244)" gradientUnits="userSpaceOnUse" xlink:href="#linearGradient908"/><linearGradient id="linearGradient4125" x1="28.369" x2="28.369" y1="1043.511" y2="1013.554" gradientTransform="matrix(0.83394619,0,0,0.83394619,3.9855938,174.87271)" gradientUnits="userSpaceOnUse" xlink:href="#linearGradient4183"/><linearGradient id="linearGradient4183"><stop id="stop4185" offset="0" stop-color="#bde7fb" stop-opacity="1"/><stop id="stop4189" offset="1" stop-color="#f5faff" stop-opacity="1"/></linearGradient></defs><metadata id="metadata7"/><g id="layer1" transform="translate(0,-1004.3622)"><rect id="rect2991" width="48" height="48" x="0" y="-1052.362" fill="url(#linearGradient885)" fill-opacity="1" stroke="none" ry="1.945" transform="scale(1,-1)"/><path id="rect846" fill="#000" fill-opacity="1" stroke="none" d="m -1.4686279e-6,1049.3622 0,1.0625 c 0,1.0773 0.8602229986279,1.9375 1.9374999686279,1.9375 l 44.1249995,0 c 1.077277,0 1.9375,-0.8602 1.9375,-1.9375 l 0,-1.0625 c 0,1.0773 -0.860223,1.9375 -1.9375,1.9375 l -44.1249995,0 c -1.07727697,0 -1.9374999686279,-0.8602 -1.9374999686279,-1.9375 z"/><path id="path7515" fill="#fff" fill-opacity=".537" stroke="none" d="m 2.5312485,1005.0185 c -0.917089,0 -1.67114697,0.6395 -1.84374997,1.5 0.33561197,-0.2799 0.77451197,-0.4375 1.24999997,-0.4375 l 44.1249995,0 c 0.475488,0 0.914388,0.1576 1.25,0.4375 -0.172603,-0.8605 -0.926662,-1.5 -1.84375,-1.5 l -42.9374995,0 z"/><path id="rect4280" fill="#000" fill-opacity=".392" stroke="none" d="m 1.9374985,1004.3622 c -1.07727697,0 -1.9374999686279,0.8602 -1.9374999686279,1.9375 l 0,43.0625 c 0,0.7934 0.4800229986279,1.449 1.1562499686279,1.75 -0.30934197,-0.3333 -0.49999997,-0.7824 -0.49999997,-1.2812 l 0,-42.9375 c 0,-1.0482 0.82689897,-1.875 1.87499997,-1.875 l 42.9374995,0 c 1.048101,0 1.875,0.8268 1.875,1.875 l 0,42.9375 c 0,0.4988 -0.190658,0.9479 -0.5,1.2812 0.676226,-0.301 1.15625,-0.9566 1.15625,-1.75 l 0,-43.0625 c 0,-1.0773 -0.860223,-1.9375 -1.9375,-1.9375 l -44.1249995,0 z"/><rect id="rect2991-1-7" width="48" height="48" x="0" y="-1052.362" fill="url(#linearGradient4647)" fill-opacity="1" stroke="none" ry="1.945" transform="scale(1,-1)"/><path id="path1357" fill="url(#linearGradient1365)" fill-opacity="1" stroke="none" d="m -2e-7,1016.3947 0,23.5312 C 10.235217,1032.7157 24.386968,1027.7076 35.375,1024.5822 24.040743,1020.952 10.867954,1018.2501 -2e-7,1016.3947 Z" opacity=".5"/><path id="rect1340" fill="#fff" fill-opacity=".152" stroke="none" d="m -2e-7,1004.3634 0,28.125 C 15.025834,1021.9035 38.513348,1016.0106 48,1013.9572 l 0,-9.5938 L -2e-7,1004.3634 Z"/><path id="path1376" fill="url(#linearGradient1384)" fill-opacity="1" stroke="none" d="m -2e-7,1004.3634 0,25.3438 C 18.843965,1031.1135 37.998652,1036.4199 48,1039.5509 L 48,1024.5197 13.0625,1004.3634 -2e-7,1004.3634 Z"/><path id="rect846-4" fill="#000" fill-opacity="1" stroke="none" d="m -5.0400391e-6,1049.3622 0,1.0625 c 0,1.0773 0.8602200000391,1.9375 1.9375000400391,1.9375 l 44.125,0 c 1.07728,0 1.9375,-0.8602 1.9375,-1.9375 l 0,-1.0625 c 0,1.0773 -0.86022,1.9375 -1.9375,1.9375 l -44.125,0 C 0.86021496,1051.2997 -5.0400391e-6,1050.4395 -5.0400391e-6,1049.3622 Z"/><path id="rect4060" fill="#fff" fill-opacity=".706" stroke="none" d="M 1.9453125 0 C 0.86803535 0 0 0.86803535 0 1.9453125 L 0 10 L 48 10 L 48 1.9453125 C 48 0.86803535 47.131965 0 46.054688 0 L 1.9453125 0 z" transform="translate(0,1004.3622)"/><path id="rect4658" fill="#000" fill-opacity=".235" stroke="none" d="m 9.3515625,1004.3622 0,10 0.4999995,0 0,-10 L 9.3515625,1004.3622 Z"/><path id="path4663" fill="#fff" fill-opacity=".118" stroke="none" d="m 9.851562,1004.3622 0,10 0.5,0 0,-10 L 9.851562,1004.3622 Z"/><path id="path7515-8" fill="#fff" fill-opacity=".537" stroke="none" d="m 2.531245,1005.0185 c -0.91709,0 -1.67115004,0.6395 -1.84375004,1.5 0.33561004,-0.2799 0.77451004,-0.4375 1.25000004,-0.4375 l 44.125,0 c 0.47549,0 0.91439,0.1576 1.25,0.4375 -0.1726,-0.8605 -0.92666,-1.5 -1.84375,-1.5 L 2.531245,1005.0185 Z"/><g id="layer1-4" fill="#0b243b" fill-opacity="1" transform="matrix(0.13333333,0,0,0.13333333,1.9757805,872.84724)"><g id="g1252" fill="#0b243b" fill-opacity="1" transform="matrix(0.53927737,0,0,-0.53927737,24.005932,1034.3687)"><path id="path1254" fill="#0b243b" fill-opacity="1" fill-rule="nonzero" stroke="none" d="m 0,0 c -5.752,0 -10.414,4.774 -10.414,10.669 0,5.889 4.662,10.667 10.414,10.667 5.751,0 10.415,-4.778 10.415,-10.667 C 10.415,4.774 5.751,0 0,0 m 26.015,3.195 c 0.731,2.515 1.123,5.18 1.123,7.941 0,0.233 -0.003,0.461 -0.007,0.691 l -6.071,3.211 c -0.223,1.184 -0.542,2.33 -0.948,3.438 l 3.762,5.896 c -1.373,2.59 -3.133,4.937 -5.208,6.951 L 11.83,29.095 c -0.814,0.551 -1.663,1.042 -2.547,1.472 L 7.816,37.78 c -2.476,0.764 -5.102,1.173 -7.826,1.173 -0.239,0 -0.476,-0.006 -0.712,-0.01 l -3.374,-6.682 c -0.87,-0.183 -1.716,-0.414 -2.538,-0.696 l -6.149,4.118 c -2.561,-1.397 -4.882,-3.207 -6.872,-5.343 l 2.206,-7.103 c -0.516,-0.767 -0.993,-1.574 -1.413,-2.413 l -7.109,-1.52 c -0.776,-2.585 -1.189,-5.324 -1.189,-8.168 0,-0.188 0,-0.369 0.008,-0.554 l 6.2,-3.292 c 0.176,-1.101 0.435,-2.18 0.766,-3.218 l -3.815,-5.968 c 0.001,-0.001 0.002,-0.003 0.003,-0.005 l -0.003,0.004 c 1.181,-2.275 2.661,-4.365 4.388,-6.209 0.246,-0.263 0.498,-0.521 0.755,-0.775 l 6.354,2.069 c 1.015,-0.767 2.093,-1.436 3.236,-2.008 l 1.358,-6.66 c 2.501,-0.778 5.153,-1.197 7.9,-1.197 0.173,0 0.338,0 0.504,0.006 l 2.978,5.899 c 1.364,0.215 2.695,0.572 3.961,1.046 l 5.419,-3.63 c 2.511,1.381 4.782,3.16 6.741,5.251 l -1.985,6.398 c 0.756,1.104 1.416,2.283 1.966,3.52 L 26.015,3.195 Z"/></g></g><path id="rect4280-4" fill="#000" fill-opacity=".392" stroke="none" d="m 1.937495,1004.3622 c -1.07728004,0 -1.9375000400391,0.8602 -1.9375000400391,1.9375 l 0,43.0625 c 0,0.7934 0.4800200000391,1.449 1.1562500400391,1.75 -0.30934004,-0.3333 -0.50000004,-0.7824 -0.50000004,-1.2812 l 0,-42.9375 c 0,-1.0482 0.82690004,-1.875 1.87500004,-1.875 l 42.9375,0 c 1.0481,0 1.875,0.8268 1.875,1.875 l 0,42.9375 c 0,0.4988 -0.19066,0.9479 -0.5,1.2812 0.67623,-0.301 1.15625,-0.9566 1.15625,-1.75 l 0,-43.0625 c 0,-1.0773 -0.86022,-1.9375 -1.9375,-1.9375 L 1.937495,1004.3622 Z"/><g id="layer2" display="none" transform="translate(-109.58547,978.8622)"><rect id="rect3745" width="86" height="85" x="5" y="7" fill="url(#ButtonShadow)" fill-opacity="1" fill-rule="nonzero" stroke="none" filter="url(#filter3174)" opacity=".9" rx="6" ry="6"/></g><g id="layer5" display="none" transform="translate(-109.58547,978.8622)"><rect id="rect3171" width="66" height="66" x="15" y="15" fill="url(#linearGradient3613)" fill-opacity="1" fill-rule="nonzero" stroke="#fff" stroke-dasharray="none" stroke-dashoffset="0" stroke-linecap="round" stroke-linejoin="miter" stroke-miterlimit="4" stroke-opacity="1" stroke-width=".5" clip-path="url(#clipPath3613)" filter="url(#filter3794)" opacity=".1" rx="12" ry="12"/></g><path id="path4136" fill="#000" fill-opacity=".059" stroke="none" d="m 25.407585,1020.9372 c -0.192057,-2e-4 -0.382005,0.013 -0.573338,0.026 -2.550976,0.1803 -4.957881,1.5798 -6.332778,3.9613 -2.199841,3.8099 -0.917456,8.6936 2.892751,10.8932 3.810245,2.2002 8.667519,0.8915 10.867359,-2.9185 2.199858,-3.8103 0.917474,-8.6936 -2.892751,-10.8936 -1.250254,-0.7219 -2.616759,-1.0672 -3.961243,-1.0685 z m 0.130305,2.1109 c 0.945082,0.024 1.912222,0.276 2.788507,0.7819 2.804121,1.6191 3.755971,5.2225 2.136987,8.0266 -1.618949,2.8041 -5.22259,3.7557 -8.026732,2.1372 -2.804121,-1.6193 -3.755955,-5.1968 -2.136988,-8.0008 1.113034,-1.9277 3.159109,-2.9988 5.238226,-2.9449 z m -6.489143,14.3855 c -0.571154,0.04 -1.098254,0.351 -1.407284,0.8862 l -2.736386,4.7429 c -0.494452,0.8566 -0.204894,1.9292 0.651519,2.4238 l 0.364852,0.2346 c 0.856414,0.4943 1.955266,0.2048 2.449717,-0.6513 l 2.736385,-4.7434 c 0.494452,-0.8564 0.204893,-1.9292 -0.651521,-2.4235 l -0.390913,-0.2347 c -0.321153,-0.1852 -0.673678,-0.2584 -1.016369,-0.2346 z"/><path id="path4134" fill="#000" fill-opacity=".118" stroke="none" d="m 25.407585,1020.6122 c -0.192057,-2e-4 -0.382005,0.013 -0.573338,0.026 -2.550976,0.1803 -4.957881,1.5798 -6.332778,3.9613 -2.199841,3.8099 -0.917456,8.6936 2.892751,10.8932 3.810245,2.2002 8.667519,0.8915 10.867359,-2.9185 2.199858,-3.8103 0.917474,-8.6936 -2.892751,-10.8936 -1.250254,-0.7219 -2.616759,-1.0672 -3.961243,-1.0685 z m 0.130305,2.1109 c 0.945082,0.024 1.912222,0.276 2.788507,0.7819 2.804121,1.6191 3.755971,5.2225 2.136987,8.0266 -1.618949,2.8041 -5.22259,3.7557 -8.026732,2.1372 -2.804121,-1.6193 -3.755955,-5.1968 -2.136988,-8.0008 1.113034,-1.9277 3.159109,-2.9988 5.238226,-2.9449 z m -6.489143,14.3855 c -0.571154,0.04 -1.098254,0.351 -1.407284,0.8862 l -2.736386,4.7429 c -0.494452,0.8566 -0.204894,1.9292 0.651519,2.4238 l 0.364852,0.2346 c 0.856414,0.4943 1.955266,0.2048 2.449717,-0.6513 l 2.736385,-4.7434 c 0.494452,-0.8564 0.204893,-1.9292 -0.651521,-2.4235 l -0.390913,-0.2347 c -0.321153,-0.1852 -0.673678,-0.2584 -1.016369,-0.2346 z"/><path id="path4132" fill="#000" fill-opacity=".255" stroke="none" d="m 25.407585,1020.2872 c -0.192057,-2e-4 -0.382005,0.013 -0.573338,0.026 -2.550976,0.1803 -4.957881,1.5798 -6.332778,3.9613 -2.199841,3.8099 -0.917456,8.6936 2.892751,10.8932 3.810245,2.2002 8.667519,0.8915 10.867359,-2.9185 2.199858,-3.8103 0.917474,-8.6936 -2.892751,-10.8936 -1.250254,-0.7219 -2.616759,-1.0672 -3.961243,-1.0685 z m 0.130305,2.1109 c 0.945082,0.024 1.912222,0.276 2.788507,0.7819 2.804121,1.6191 3.755971,5.2225 2.136987,8.0266 -1.618949,2.8041 -5.22259,3.7557 -8.026732,2.1372 -2.804121,-1.6193 -3.755955,-5.1968 -2.136988,-8.0008 1.113034,-1.9277 3.159109,-2.9988 5.238226,-2.9449 z m -6.489143,14.3855 c -0.571154,0.04 -1.098254,0.351 -1.407284,0.8862 l -2.736386,4.7429 c -0.494452,0.8566 -0.204894,1.9292 0.651519,2.4238 l 0.364852,0.2346 c 0.856414,0.4943 1.955266,0.2048 2.449717,-0.6513 l 2.736385,-4.7434 c 0.494452,-0.8564 0.204893,-1.9292 -0.651521,-2.4235 l -0.390913,-0.2347 c -0.321153,-0.1852 -0.673678,-0.2584 -1.016369,-0.2346 z"/><path id="path2983" fill="url(#linearGradient4125)" fill-opacity="1" stroke="none" d="m 25.407585,1019.9622 c -0.192057,-2e-4 -0.382005,0.013 -0.573338,0.026 -2.550976,0.1803 -4.957881,1.5798 -6.332778,3.9613 -2.199841,3.8099 -0.917456,8.6936 2.892751,10.8932 3.810245,2.2002 8.667519,0.8915 10.867359,-2.9185 2.199858,-3.8103 0.917474,-8.6936 -2.892751,-10.8936 -1.250254,-0.7219 -2.616759,-1.0672 -3.961243,-1.0685 z m 0.130305,2.1109 c 0.945082,0.024 1.912222,0.276 2.788507,0.7819 2.804121,1.6191 3.755971,5.2225 2.136987,8.0266 -1.618949,2.8041 -5.22259,3.7557 -8.026732,2.1372 -2.804121,-1.6193 -3.755955,-5.1968 -2.136988,-8.0008 1.113034,-1.9277 3.159109,-2.9988 5.238226,-2.9449 z m -6.489143,14.3855 c -0.571154,0.04 -1.098254,0.351 -1.407284,0.8862 l -2.736386,4.7429 c -0.494452,0.8566 -0.204894,1.9292 0.651519,2.4238 l 0.364852,0.2346 c 0.856414,0.4943 1.955266,0.2048 2.449717,-0.6513 l 2.736385,-4.7434 c 0.494452,-0.8564 0.204893,-1.9292 -0.651521,-2.4235 l -0.390913,-0.2347 c -0.321153,-0.1852 -0.673678,-0.2584 -1.016369,-0.2346 z"/><path id="path4138" fill="#1081c6" fill-opacity=".314" stroke="none" d="m 25.54883,1021.4332 c -2.079118,-0.055 -4.142832,1.0175 -5.255864,2.9452 -0.584166,1.012 -0.81321,2.1144 -0.761721,3.1992 0.05496,-0.8755 0.292701,-1.752 0.761721,-2.5642 1.113032,-1.9279 3.176746,-2.9995 5.255864,-2.9456 0.945079,0.024 1.891295,0.2813 2.767578,0.7872 1.792324,1.0352 2.82871,2.8948 2.919923,4.8242 0.140848,-2.1601 -0.923369,-4.3062 -2.919923,-5.459 -0.876283,-0.5059 -1.822499,-0.7629 -2.767578,-0.787 z m -8.099617,6.1191 c -0.145324,2.8882 1.262023,5.7435 3.935548,7.287 3.810247,2.2004 8.667355,0.8902 10.867195,-2.9199 0.776208,-1.3445 1.11535,-2.8188 1.066407,-4.2657 -0.05837,1.2363 -0.405743,2.4869 -1.066407,3.6309 -2.19984,3.8103 -7.056948,5.12 -10.867195,2.9199 -2.468599,-1.4249 -3.848681,-3.9958 -3.935548,-6.6522 z m 3.859379,10.6132 c -0.03765,0.1846 -0.103122,0.3601 -0.203125,0.5331 l -2.74219,4.7482 c -0.494451,0.8563 -1.581088,1.1546 -2.437502,0.6601 l -0.38086,-0.2539 c -0.469103,-0.2708 -0.744627,-0.7059 -0.837891,-1.1934 -0.136204,0.7196 0.162504,1.4638 0.837891,1.8538 l 0.38086,0.2283 c 0.856414,0.4945 1.943051,0.2215 2.437502,-0.6348 l 2.74219,-4.748 c 0.218643,-0.3787 0.272311,-0.7987 0.203125,-1.1934 z"/><path id="path4143" fill="#fff" fill-opacity=".235" stroke="none" d="m 25.396483,1019.9622 c -0.192057,-2e-4 -0.36726,0.012 -0.558593,0.025 -2.550977,0.1803 -4.972764,1.5794 -6.347661,3.9609 -0.733229,1.2698 -1.071556,2.6678 -1.066406,4.0369 0.04746,-1.2611 0.39214,-2.539 1.066406,-3.7069 1.374897,-2.3815 3.796684,-3.7806 6.347661,-3.9609 0.191333,-0.013 0.366536,-0.025 0.558593,-0.025 1.344484,0 2.710687,0.3446 3.96094,1.0665 2.381389,1.3748 3.787433,3.7934 3.96094,6.3476 -0.07381,-2.6708 -1.47979,-5.2451 -3.96094,-6.6777 -1.250253,-0.7218 -2.616456,-1.0652 -3.96094,-1.0665 z m -5.890628,8.049 c -0.09459,2.1116 0.960488,4.2004 2.919924,5.3319 2.804141,1.6188 6.429884,0.6715 8.048832,-2.1326 0.545453,-0.9451 0.797801,-1.9766 0.787109,-2.9964 -0.04076,0.9138 -0.299424,1.8213 -0.787109,2.6662 -1.618948,2.8041 -5.244691,3.7515 -8.048832,2.1327 -1.859384,-1.0736 -2.898881,-3.0024 -2.919924,-5.0018 z m -0.45703,8.4552 c -0.571154,0.04 -1.087455,0.3532 -1.396487,0.8884 l -2.742188,4.7481 c -0.198986,0.3448 -0.269328,0.7036 -0.228516,1.0663 0.02073,-0.2548 0.09072,-0.523 0.228516,-0.7618 l 2.742188,-4.7226 c 0.309032,-0.5352 0.825333,-0.8487 1.396487,-0.8885 0.342691,-0.024 0.694471,0.043 1.015625,0.2284 l 0.38086,0.2285 c 0.535256,0.3091 0.849284,0.8551 0.888674,1.4219 0.08701,-0.6863 -0.246365,-1.3811 -0.888674,-1.752 l -0.38086,-0.2284 c -0.321154,-0.1854 -0.672934,-0.2526 -1.015625,-0.2283 z"/></g></svg>