<svg xmlns="http://www.w3.org/2000/svg" xmlns:svg="http://www.w3.org/2000/svg" xmlns:xlink="http://www.w3.org/1999/xlink" id="svg865" width="48" height="48" version="1.1" viewBox="0 0 48 48"><defs id="defs867"><linearGradient id="linearGradient6589"><stop id="stop6591" offset="0" stop-color="#0091ff" stop-opacity="1"/><stop id="stop6593" offset="1" stop-color="#00b2ff" stop-opacity="1"/></linearGradient><linearGradient id="linearGradient4186" x1="71.117" x2="71.117" y1="1053.976" y2="1023.071" gradientTransform="translate(-44.428368,-10.1816)" gradientUnits="userSpaceOnUse" xlink:href="#linearGradient6589"/><linearGradient id="linearGradient3795"><stop id="stop3797" offset="0" stop-color="#0e0f10" stop-opacity="1"/><stop id="stop3799" offset="1" stop-color="#333" stop-opacity="1"/></linearGradient><linearGradient id="linearGradient3064" x1="23.204" x2="23.204" y1="1052.362" y2="1004.362" gradientTransform="translate(0,2.9e-5)" gradientUnits="userSpaceOnUse" xlink:href="#linearGradient3795"/></defs><metadata id="metadata870"/><g id="layer1" transform="translate(0,-1004.3622)"><path id="rect4069" fill="url(#linearGradient3064)" fill-opacity="1" stroke="none" d="m 1.9375,1004.3622 c -1.07728,0 -1.9375,0.8602 -1.9375,1.9375 l 0,44.125 c 0,1.0773 0.86022,1.9375 1.9375,1.9375 l 44.125,0 c 1.07727,0 1.9375,-0.8602 1.9375,-1.9375 l 0,-44.125 c 0,-1.0773 -0.86023,-1.9375 -1.9375,-1.9375 z"/><g id="g13027" transform="translate(-384.57143,504.56421)"><path id="rect846" fill="#000" fill-opacity="1" stroke="none" d="m 384.57143,544.79799 0,1.0625 c 0,1.0773 0.86022,1.9375 1.9375,1.9375 l 44.125,0 c 1.07728,0 1.9375,-0.8602 1.9375,-1.9375 l 0,-1.0625 c 0,1.0773 -0.86022,1.9375 -1.9375,1.9375 l -44.125,0 c -1.07728,0 -1.9375,-0.8602 -1.9375,-1.9375 z"/><path id="path7515" fill="#fff" fill-opacity=".537" stroke="none" d="m 387.10268,500.45429 c -0.91709,0 -1.67115,0.6395 -1.84375,1.5 0.33561,-0.2799 0.77451,-0.4375 1.25,-0.4375 l 44.125,0 c 0.47549,0 0.91439,0.1576 1.25,0.4375 -0.1726,-0.8605 -0.92666,-1.5 -1.84375,-1.5 l -42.9375,0 z"/><path id="rect4280" fill="#000" fill-opacity=".392" stroke="none" d="m 386.50893,499.79799 c -1.07728,0 -1.9375,0.8602 -1.9375,1.9375 l 0,43.0625 c 0,0.7934 0.48002,1.449 1.15625,1.75 -0.30934,-0.3333 -0.5,-0.7824 -0.5,-1.2812 l 0,-42.9375 c 0,-1.0482 0.8269,-1.875 1.875,-1.875 l 42.9375,0 c 1.0481,0 1.875,0.8268 1.875,1.875 l 0,42.9375 c 0,0.4988 -0.19066,0.9479 -0.5,1.2812 0.67623,-0.301 1.15625,-0.9566 1.15625,-1.75 l 0,-43.0625 c 0,-1.0773 -0.86022,-1.9375 -1.9375,-1.9375 l -44.125,0 z"/></g><path id="path4360" fill="#000" fill-opacity=".059" stroke="none" stroke-width="1.185" d="m 24,1014.1622 -5.923077,5.9231 0,11.8461 11.846154,-11.8461 L 24,1014.1622 Z m 9.476923,9.4769 -5.923077,5.9231 5.923077,5.9231 5.923077,-5.9231 -5.923077,-5.9231 z m -20.138461,1.1846 -4.738462,4.7385 4.738462,4.7385 0,-9.477 z M 24,1033.116 18.076923,1039.0391 24,1044.9622 29.923077,1039.0391 24,1033.116 Z"/><path id="path4358" fill="#000" fill-opacity=".118" stroke="none" stroke-width="1.185" d="m 24,1013.7622 -5.923077,5.9231 0,11.8461 11.846154,-11.8461 L 24,1013.7622 Z m 9.476923,9.4769 -5.923077,5.9231 5.923077,5.9231 5.923077,-5.9231 -5.923077,-5.9231 z m -20.138461,1.1846 -4.738462,4.7385 4.738462,4.7385 0,-9.477 z M 24,1032.716 18.076923,1038.6391 24,1044.5622 29.923077,1038.6391 24,1032.716 Z"/><path id="path4354" fill="#000" fill-opacity=".235" stroke="none" stroke-width="1.185" d="m 24,1013.3622 -5.923077,5.9231 0,11.8461 11.846154,-11.8461 L 24,1013.3622 Z m 9.476923,9.4769 -5.923077,5.9231 5.923077,5.9231 5.923077,-5.9231 -5.923077,-5.9231 z m -20.138461,1.1846 -4.738462,4.7385 4.738462,4.7385 0,-9.477 z M 24,1032.316 18.076923,1038.2391 24,1044.1622 29.923077,1038.2391 24,1032.316 Z"/><path id="path3042" fill="url(#linearGradient4186)" fill-opacity="1" stroke="none" stroke-width="1.185" d="m 24,1012.9622 -5.923077,5.9231 0,11.8461 11.846154,-11.8461 L 24,1012.9622 Z m 9.476923,9.4769 -5.923077,5.9231 5.923077,5.9231 5.923077,-5.9231 -5.923077,-5.9231 z m -20.138461,1.1846 -4.738462,4.7385 4.738462,4.7385 0,-9.477 z M 24,1031.916 18.076923,1037.8391 24,1043.7622 29.923077,1037.8391 24,1031.916 Z"/><path id="path4362" fill="#006ab2" fill-opacity=".314" stroke="none" stroke-width="1.185" d="M 29.523438 14.123047 L 18.076172 25.568359 L 18.076172 26.369141 L 29.923828 14.523438 L 29.523438 14.123047 z M 9 23.599609 L 8.5996094 24 L 13.337891 28.738281 L 13.337891 27.939453 L 9 23.599609 z M 27.955078 23.599609 L 27.554688 24 L 33.476562 29.923828 L 39.400391 24 L 39 23.599609 L 33.476562 29.123047 L 27.955078 23.599609 z M 18.476562 33.078125 L 18.076172 33.476562 L 24 39.400391 L 29.923828 33.476562 L 29.523438 33.078125 L 24 38.599609 L 18.476562 33.078125 z" transform="translate(0,1004.3622)"/><path id="path4367" fill="#fff" fill-opacity=".235" stroke="none" stroke-width="1.185" d="M 24 8.5996094 L 18.076172 14.523438 L 18.076172 14.923828 L 24 9 L 29.722656 14.722656 L 29.923828 14.523438 L 24 8.5996094 z M 33.476562 18.076172 L 27.554688 24 L 27.753906 24.199219 L 33.476562 18.476562 L 39.199219 24.199219 L 39.400391 24 L 33.476562 18.076172 z M 13.337891 19.261719 L 8.5996094 24 L 8.8007812 24.199219 L 13.337891 19.662109 L 13.337891 19.261719 z M 24 27.554688 L 18.076172 33.476562 L 18.277344 33.675781 L 24 27.953125 L 29.722656 33.675781 L 29.923828 33.476562 L 24 27.554688 z" transform="translate(0,1004.3622)"/></g></svg>