<svg xmlns="http://www.w3.org/2000/svg" xmlns:svg="http://www.w3.org/2000/svg" xmlns:xlink="http://www.w3.org/1999/xlink" id="svg2" width="48" height="48" version="1.1"><defs id="defs4"><linearGradient id="linearGradient1997" x1="82.5" x2="82.5" y1="-1037.504" y2="-989.511" gradientTransform="translate(-57.640627,-14.867202)" gradientUnits="userSpaceOnUse" xlink:href="#linearGradient865"/><linearGradient id="linearGradient4181" x1="10.41" x2="10.41" y1="13.991" y2="2.012" gradientTransform="matrix(2.5666667,0,0,2.5666667,5.740773,990.50509)" gradientUnits="userSpaceOnUse" xlink:href="#linearGradient4169"/><linearGradient id="linearGradient4185" x1="10.41" x2="10.41" y1="13.991" y2="2.012" gradientTransform="matrix(2.5666667,0,0,2.5666667,5.740773,990.50509)" gradientUnits="userSpaceOnUse" xlink:href="#linearGradient4169"/><linearGradient id="linearGradient877"><stop id="stop879" offset="0" stop-color="#282828" stop-opacity="1"/><stop id="stop881" offset="1" stop-color="#2b2b2d" stop-opacity="1"/></linearGradient><linearGradient id="linearGradient865"><stop id="stop867" offset="0" stop-color="#b6b4a4" stop-opacity="1"/><stop id="stop869" offset="1" stop-color="#d3d1c1" stop-opacity="1"/></linearGradient><linearGradient id="linearGradient4142"><stop id="stop4144" offset="0" stop-color="#0a79d6" stop-opacity=".998"/><stop id="stop4146" offset="1" stop-color="#2995ed" stop-opacity="1"/></linearGradient><linearGradient id="linearGradient4822" x1="31.75" x2="31.75" y1="1043.761" y2="1012.956" gradientTransform="translate(0.007031,0)" gradientUnits="userSpaceOnUse" xlink:href="#linearGradient877"/><linearGradient id="linearGradient4830" x1="28.466" x2="21.532" y1="33.773" y2="33.773" gradientUnits="userSpaceOnUse" xlink:href="#linearGradient4142"/></defs><metadata id="metadata7"/><g id="layer1" transform="translate(0,-1004.3622)"><rect id="rect2991-1" width="48" height="48" x="0" y="-1052.362" fill="url(#linearGradient1997)" fill-opacity="1" stroke="none" ry="1.945" transform="scale(1,-1)"/><path id="path4848" fill="#000" fill-opacity=".059" stroke="none" d="m 16.300781,1014.1622 0,30.8 26.699219,0 0,-12.6266 -15.597656,-18.1734 -11.101563,0 z m 13.8125,0 1.761719,2.0527 9.070312,0 0,10.572 2.054688,2.3944 0,-15.0191 -12.886719,0 z M 5,1024.0623 l 0,5.4999 0,5.4999 3.6503906,-2.75 3.6503904,-2.7499 -3.6503904,-2.7499 L 5,1024.0623 Z"/><path id="path4846" fill="#000" fill-opacity=".118" stroke="none" d="m 16.300781,1013.7622 0,30.8 26.699219,0 0,-12.6266 -15.597656,-18.1734 -11.101563,0 z m 13.8125,0 1.761719,2.0527 9.070312,0 0,10.572 2.054688,2.3944 0,-15.0191 -12.886719,0 z M 5,1023.6623 l 0,5.4999 0,5.4999 3.6503906,-2.75 3.6503904,-2.7499 -3.6503904,-2.7499 L 5,1023.6623 Z"/><path id="path4832" fill="#000" fill-opacity=".235" stroke="none" d="m 16.300781,1013.3622 0,30.8 26.699219,0 0,-12.6266 -15.597656,-18.1734 -11.101563,0 z m 13.8125,0 1.761719,2.0527 9.070312,0 0,10.572 2.054688,2.3944 0,-15.0191 -12.886719,0 z M 5,1023.2623 l 0,5.4999 0,5.4999 3.6503906,-2.75 3.6503904,-2.7499 -3.6503904,-2.7499 L 5,1023.2623 Z"/><path id="rect846" fill="#000" fill-opacity="1" stroke="none" d="m -2.5e-6,1049.3622 0,1.0625 c 0,1.0773 0.860223,1.9375 1.9375,1.9375 l 44.1250055,0 c 1.07727,0 1.9375,-0.8602 1.9375,-1.9375 l 0,-1.0625 c 0,1.0773 -0.86023,1.9375 -1.9375,1.9375 l -44.1250055,0 C 0.8602205,1051.2997 -2.5e-6,1050.4395 -2.5e-6,1049.3622 Z"/><path id="path7515" fill="#fff" fill-opacity=".537" stroke="none" d="m 2.5312475,1005.0185 c -0.917088,0 -1.671146,0.6395 -1.84375,1.5 0.335612,-0.2799 0.774513,-0.4375 1.25,-0.4375 l 44.1250055,0 c 0.47548,0 0.91438,0.1576 1.25,0.4375 -0.17261,-0.8605 -0.92667,-1.5 -1.84375,-1.5 L 2.5312475,1005.0185 Z"/><path id="rect4280-8" fill="#000" fill-opacity=".392" stroke="none" d="m 1.9374975,1004.3622 c -1.077277,0 -1.9375,0.8602 -1.9375,1.9375 l 0,43.0625 c 0,0.7934 0.480024,1.449 1.15625,1.75 -0.309341,-0.3333 -0.5,-0.7824 -0.5,-1.2812 l 0,-42.9375 c 0,-1.0482 0.826899,-1.875 1.875,-1.875 l 42.9375055,0 c 1.0481,0 1.875,0.8268 1.875,1.875 l 0,42.9375 c 0,0.4988 -0.19066,0.9479 -0.5,1.2812 0.67622,-0.301 1.15625,-0.9566 1.15625,-1.75 l 0,-43.0625 c 0,-1.0773 -0.86023,-1.9375 -1.9375,-1.9375 L 1.9374975,1004.3622 Z"/><rect id="rect4898" width="56.467" height="56.467" x="5.741" y="990.505" fill="url(#linearGradient4181)" fill-opacity="1" fill-rule="nonzero" stroke="none" display="none"/><rect id="rect4126" width="56.467" height="56.467" x="5.741" y="990.505" fill="url(#linearGradient4185)" fill-opacity="1" fill-rule="nonzero" stroke="none" display="none"/><path id="path3782" fill="url(#linearGradient4830)" fill-opacity="1" stroke="none" d="M 25,36 23.267949,33 21.535898,30 25,30 l 3.464102,0 -1.732051,3 z" transform="matrix(0,1.5877133,1.2166667,0,-31.500001,988.66935)"/><path id="path3268" fill="url(#linearGradient4822)" fill-opacity="1" stroke="none" d="m 16.307031,1012.9622 0,30.8 26.692969,0 0,-12.6267 -15.593066,-18.1733 z m 13.808769,0 1.761641,2.0526 9.067961,0 0,10.5721 2.054598,2.3944 0,-15.0191 z"/><path id="path4855" fill="#000" fill-opacity=".314" stroke="none" d="M 30.115234 8.5996094 L 31.876953 10.652344 L 40.945312 10.652344 L 40.945312 9.8535156 L 31.876953 9.8535156 L 30.800781 8.5996094 L 30.115234 8.5996094 z M 40.945312 20.423828 L 40.945312 21.224609 L 43 23.619141 L 43 22.818359 L 40.945312 20.423828 z M 11.771484 23.599609 L 8.6503906 25.949219 L 5 28.699219 L 5 29.5 L 8.6503906 26.75 L 12.302734 24 L 11.771484 23.599609 z M 16.302734 38.599609 L 16.302734 39.400391 L 43 39.400391 L 43 38.599609 L 16.302734 38.599609 z" transform="translate(0,1004.3622)"/><path id="path4862" fill="#fff" fill-opacity=".235" stroke="none" d="m 16.300781,1012.9622 0,0.4004 11.101563,0 L 43,1031.5364 l 0,-0.4004 -15.597656,-18.1738 -11.101563,0 z m 13.8125,0 0.34375,0.4004 12.542969,0 0,-0.4004 -12.886719,0 z M 5,1022.8626 l 0,0.4004 3.6503906,2.75 3.3847654,2.5488 0.265625,-0.1992 -3.6503904,-2.75 L 5,1022.8626 Z"/></g></svg>