<svg xmlns="http://www.w3.org/2000/svg" xmlns:svg="http://www.w3.org/2000/svg" xmlns:xlink="http://www.w3.org/1999/xlink" id="svg2" width="48" height="48" version="1.1"><defs id="defs4"><linearGradient id="linearGradient4167"><stop id="stop4169" offset="0" stop-color="#afc2dc" stop-opacity="1"/><stop id="stop4171" offset="1" stop-color="#fefeff" stop-opacity="1"/></linearGradient><linearGradient id="linearGradient4142"><stop id="stop4144" offset="0" stop-color="#0a79d6" stop-opacity=".998"/><stop id="stop4146" offset="1" stop-color="#2995ed" stop-opacity="1"/></linearGradient><linearGradient id="linearGradient1997" x1="82.5" x2="82.5" y1="-1037.504" y2="-989.511" gradientTransform="translate(-57.640627,-14.867202)" gradientUnits="userSpaceOnUse" xlink:href="#linearGradient4142"/><linearGradient id="linearGradient4171" x1="34.586" x2="34.586" y1="1012.894" y2="1043.83" gradientTransform="matrix(1,0,0,-1,-4.44e-4,2056.7244)" gradientUnits="userSpaceOnUse" xlink:href="#linearGradient4167"/><linearGradient id="linearGradient4169"><stop id="stop4171-0" offset="0" stop-color="#e2f4c4" stop-opacity="1"/><stop id="stop4173" offset="1" stop-color="#fdfff5" stop-opacity="1"/></linearGradient><linearGradient id="linearGradient4181" x1="10.41" x2="10.41" y1="13.991" y2="2.012" gradientTransform="matrix(2.5666667,0,0,2.5666667,5.740773,990.50509)" gradientUnits="userSpaceOnUse" xlink:href="#linearGradient4169"/><linearGradient id="linearGradient4185" x1="10.41" x2="10.41" y1="13.991" y2="2.012" gradientTransform="matrix(2.5666667,0,0,2.5666667,5.740773,990.50509)" gradientUnits="userSpaceOnUse" xlink:href="#linearGradient4169"/></defs><metadata id="metadata7"/><g id="layer1" transform="translate(0,-1004.3622)"><rect id="rect2991-1" width="48" height="48" x="0" y="-1052.362" fill="url(#linearGradient1997)" fill-opacity="1" stroke="none" ry="1.945" transform="scale(1,-1)"/><path id="rect846" fill="#000" fill-opacity="1" stroke="none" d="m -2.5e-6,1049.3622 0,1.0625 c 0,1.0773 0.860223,1.9375 1.9375,1.9375 l 44.1250055,0 c 1.07727,0 1.9375,-0.8602 1.9375,-1.9375 l 0,-1.0625 c 0,1.0773 -0.86023,1.9375 -1.9375,1.9375 l -44.1250055,0 C 0.8602205,1051.2997 -2.5e-6,1050.4395 -2.5e-6,1049.3622 Z"/><path id="path7515" fill="#fff" fill-opacity=".537" stroke="none" d="m 2.5312475,1005.0185 c -0.917088,0 -1.671146,0.6395 -1.84375,1.5 0.335612,-0.2799 0.774513,-0.4375 1.25,-0.4375 l 44.1250055,0 c 0.47548,0 0.91438,0.1576 1.25,0.4375 -0.17261,-0.8605 -0.92667,-1.5 -1.84375,-1.5 L 2.5312475,1005.0185 Z"/><path id="rect4280-8" fill="#000" fill-opacity=".392" stroke="none" d="m 1.9374975,1004.3622 c -1.077277,0 -1.9375,0.8602 -1.9375,1.9375 l 0,43.0625 c 0,0.7934 0.480024,1.449 1.15625,1.75 -0.309341,-0.3333 -0.5,-0.7824 -0.5,-1.2812 l 0,-42.9375 c 0,-1.0482 0.826899,-1.875 1.875,-1.875 l 42.9375055,0 c 1.0481,0 1.875,0.8268 1.875,1.875 l 0,42.9375 c 0,0.4988 -0.19066,0.9479 -0.5,1.2812 0.67622,-0.301 1.15625,-0.9566 1.15625,-1.75 l 0,-43.0625 c 0,-1.0773 -0.86023,-1.9375 -1.9375,-1.9375 L 1.9374975,1004.3622 Z"/><path id="path5692_2_" fill="#000" fill-opacity=".392" stroke="none" d="m 41.263291,1039.8622 -1.588973,0.1572 0,6.4955 1.571512,-0.227 0,-2.7763 2.095349,3.0732 1.641356,-0.5239 -2.147732,-2.9509 2.165194,-2.7938 -1.676279,-0.3842 -2.077888,2.7938 L 41.263291,1039.8622 z m -3.579554,1.5889 c -0.01781,0 -0.03901,0.01 -0.05239,0.018 l -0.611143,0.6286 c -0.02603,0.027 -0.03663,0.073 -0.01747,0.1048 l 0.715911,1.1874 c -0.128512,0.2161 -0.223223,0.4527 -0.296841,0.6983 l -1.327055,0.2795 c -0.03701,0.01 -0.06984,0.032 -0.06984,0.07 l 0,0.8731 c 0,0.037 0.03419,0.078 0.06984,0.087 l 1.292132,0.3143 c 0.06885,0.2847 0.173293,0.5553 0.314302,0.8031 l -0.750833,1.1352 c -0.02085,0.032 -0.0095,0.078 0.01747,0.1048 l 0.611144,0.611 c 0.02603,0.025 0.07303,0.038 0.104768,0.018 l 1.169902,-0.7158 c 0.230034,0.1327 0.471177,0.2434 0.733373,0.3142 l 0.279379,1.3096 c 0.0077,0.038 0.03211,0.07 0.06984,0.07 l 0.873063,0 c 0.0368,0 0.07852,-0.034 0.08731,-0.07 l 0.314303,-1.3096 c 0.270276,-0.073 0.532658,-0.1929 0.768295,-0.3317 l 1.152441,0.7683 c 0.03173,0.02 0.07783,0.01 0.104767,-0.018 l 0.611146,-0.6112 c 0.02618,-0.027 0.0367,-0.073 0.01747,-0.1047 l -0.419071,-0.6983 -0.139689,0.052 c -0.01989,0.01 -0.04069,0 -0.05239,-0.018 0,0 -0.2641,-0.4001 -0.611144,-0.9081 -0.414869,0.812 -1.26033,1.3621 -2.235039,1.3621 -1.38481,0 -2.514418,-1.1121 -2.514418,-2.497 0,-1.0187 0.611881,-1.8949 1.484205,-2.2874 l 0,-0.6461 c -0.158762,0.056 -0.308214,0.1126 -0.453992,0.1922 -1.11e-4,0 -0.01706,0 -0.01747,0 l -1.169903,-0.7684 C 37.720201,1041.4583 37.701538,1041.4492 37.683737,1041.4511 Z"/><path id="path4153" fill="#000" fill-opacity=".059" d="m 8.599557,1029.5776 5.4593,-5.4516 c 0,0 3.062675,3.0607 6.077225,6.0753 l 0,-16.0391 7.720212,0 0,16.0391 6.083,-6.083 5.46026,5.4593 -15.398072,15.3846 -15.401925,-15.3846 z"/><path id="path4151" fill="#000" fill-opacity=".118" d="m 8.599557,1029.1776 5.4593,-5.4516 c 0,0 3.062675,3.0607 6.077225,6.0753 l 0,-16.0391 7.720212,0 0,16.0391 6.082999,-6.083 5.460261,5.4593 -15.398071,15.3846 -15.401926,-15.3846 z"/><path id="path4147" fill="#000" fill-opacity=".235" d="m 8.599559,1028.7776 5.4593,-5.4516 c 0,0 3.062675,3.0607 6.077225,6.0753 l 0,-16.0391 7.720212,0 0,16.0391 6.082999,-6.083 5.460259,5.4593 -15.39807,15.3846 -15.401925,-15.3846 z"/><path id="path4099" fill="url(#linearGradient4171)" fill-opacity="1" d="m 8.599556,1028.3776 5.4593,-5.4516 c 0,0 3.062675,3.0607 6.07722,6.0753 l 0,-16.0391 7.72022,0 0,16.0391 6.083,-6.083 5.460258,5.4593 -15.398078,15.3846 -15.40192,-15.3846 z"/><rect id="rect4898" width="56.467" height="56.467" x="5.741" y="990.505" fill="url(#linearGradient4181)" fill-opacity="1" fill-rule="nonzero" stroke="none" display="none"/><rect id="rect4126" width="56.467" height="56.467" x="5.741" y="990.505" fill="url(#linearGradient4185)" fill-opacity="1" fill-rule="nonzero" stroke="none" display="none"/><path id="path4269" fill="#0a79d6" fill-opacity=".314" d="m 9.000053,1027.9774 -0.40039,0.4004 15.402343,15.3848 15.398438,-15.3848 -0.40039,-0.4004 -14.998048,14.9844 -15.001953,-14.9844 z"/><path id="path4274" fill="#fff" fill-opacity=".235" d="m 20.136772,1012.9618 0,0.4004 7.71875,0 0,-0.4004 -7.71875,0 z m 13.802734,9.957 -6.083984,6.0821 0,0.4004 6.083984,-6.0821 5.259768,5.2578 0.20117,-0.1992 -5.460938,-5.459 z m -19.880859,0.01 -5.458984,5.4511 0.201172,0.1992 5.257812,-5.2519 c 0,0 3.06358,3.0616 6.078125,6.0762 l 0,-0.4004 c -3.014545,-3.0146 -6.078125,-6.0742 -6.078125,-6.0742 z"/></g></svg>