<svg xmlns="http://www.w3.org/2000/svg" xmlns:svg="http://www.w3.org/2000/svg" xmlns:xlink="http://www.w3.org/1999/xlink" id="svg2" width="48" height="48" version="1.1"><defs id="defs4"><linearGradient id="linearGradient4361"><stop id="stop4363" offset="0" stop-color="#c36300" stop-opacity="1"/><stop id="stop4365" offset="1" stop-color="#ffdb31" stop-opacity="1"/></linearGradient><linearGradient id="linearGradient4355"><stop id="stop4357" offset="0" stop-color="#f6a700" stop-opacity="1"/><stop id="stop4359" offset="1" stop-color="#e0c000" stop-opacity="1"/></linearGradient><linearGradient id="linearGradient872"><stop id="stop874" offset="0" stop-color="#e3ebed" stop-opacity=".996"/><stop id="stop876" offset="1" stop-color="#f4f8f9" stop-opacity=".997"/></linearGradient><linearGradient id="linearGradient843" x1="-35.844" x2="-35.844" y1="-1057.985" y2="-1009.976" gradientTransform="translate(56.880463,5.6152085)" gradientUnits="userSpaceOnUse" xlink:href="#linearGradient872"/><linearGradient id="linearGradient4095" x1="7.898" x2="7.898" y1="33.59" y2="1.438" gradientUnits="userSpaceOnUse" xlink:href="#linearGradient859"/><linearGradient id="linearGradient4103" x1="30.75" x2="30.75" y1="35.538" y2="8.625" gradientUnits="userSpaceOnUse" xlink:href="#linearGradient4361"/><linearGradient id="linearGradient4118" x1="37.388" x2="10.518" y1="17.064" y2="17.064" gradientUnits="userSpaceOnUse" xlink:href="#linearGradient4355"/><linearGradient id="linearGradient859"><stop id="stop861" offset="0" stop-color="#ffae00" stop-opacity="1"/><stop id="stop863" offset="1" stop-color="#fcdb00" stop-opacity="1"/></linearGradient></defs><metadata id="metadata7"/><g id="layer1" transform="translate(0,-1004.3622)"><rect id="rect2991-1" width="48" height="48" x="0" y="-1052.362" fill="url(#linearGradient843)" fill-opacity="1" stroke="none" ry="1.945" transform="scale(1,-1)"/><path id="path4137" fill="#000" fill-opacity=".059" stroke="none" d="m 28.272718,27.839727 -15.113512,8.72579 -15.1135113,-8.72579 10e-8,-17.45158 15.1135112,-8.7257897 15.113512,8.7257897 z" transform="matrix(0.88244159,0,0,0.88244159,12.387769,1012.6953)"/><path id="path4135" fill="#000" fill-opacity=".118" stroke="none" d="m 28.272718,27.839727 -15.113512,8.72579 -15.1135113,-8.72579 10e-8,-17.45158 15.1135112,-8.7257897 15.113512,8.7257897 z" transform="matrix(0.88244159,0,0,0.88244159,12.387769,1012.2953)"/><path id="path4120" fill="#000" fill-opacity=".235" stroke="none" d="m 28.272718,27.839727 -15.113512,8.72579 -15.1135113,-8.72579 10e-8,-17.45158 15.1135112,-8.7257897 15.113512,8.7257897 z" transform="matrix(0.88244159,0,0,0.88244159,12.387769,1011.8953)"/><path id="path7515" fill="#fff" fill-opacity=".537" stroke="none" d="m 2.5312498,1005.0185 c -0.917089,0 -1.67114698,0.6395 -1.84374998,1.5 0.33561198,-0.2799 0.77451198,-0.4375 1.24999998,-0.4375 l 44.1250002,0 c 0.475488,0 0.914388,0.1576 1.25,0.4375 -0.172603,-0.8605 -0.926662,-1.5 -1.84375,-1.5 L 2.5312498,1005.0185 Z"/><path id="rect4280-3" fill="#000" fill-opacity=".392" stroke="none" d="m 1.9374998,1004.3622 c -1.07727698,0 -1.93749997675782,0.8602 -1.93749997675782,1.9375 l 0,43.0625 c 0,0.7934 0.48002299675782,1.449 1.15624997675782,1.75 -0.30934198,-0.3333 -0.49999998,-0.7824 -0.49999998,-1.2812 l 0,-42.9375 c 0,-1.0482 0.82689898,-1.875 1.87499998,-1.875 l 42.9375002,0 c 1.048101,0 1.875,0.8268 1.875,1.875 l 0,42.9375 c 0,0.4988 -0.190658,0.9479 -0.5,1.2812 0.676226,-0.301 1.15625,-0.9566 1.15625,-1.75 l 0,-43.0625 c 0,-1.0773 -0.860223,-1.9375 -1.9375,-1.9375 L 1.9374998,1004.3622 Z"/><path id="rect846" fill="#000" fill-opacity="1" stroke="none" d="m -1.7675782e-7,1049.3622 0,1.0625 c 0,1.0773 0.86022299675782,1.9375 1.93749997675782,1.9375 l 44.1250002,0 c 1.077277,0 1.9375,-0.8602 1.9375,-1.9375 l 0,-1.0625 c 0,1.0773 -0.860223,1.9375 -1.9375,1.9375 l -44.1250002,0 C 0.86022282,1051.2997 -1.7675782e-7,1050.4395 -1.7675782e-7,1049.3622 Z"/><path id="path4045" fill="url(#linearGradient4095)" fill-opacity="1" stroke="none" d="m 28.272718,27.839727 -15.113512,8.72579 -15.1135113,-8.72579 10e-8,-17.45158 15.1135112,-8.7257897 15.113512,8.7257897 z" transform="matrix(0.88244159,0,0,0.88244159,12.387769,1011.4953)"/><path id="path4047" fill="url(#linearGradient4103)" fill-opacity="1" stroke="none" d="M 24 8.5996094 L 24 39.400391 L 37.335938 31.699219 L 37.335938 16.300781 L 24 8.5996094 z" transform="translate(0,1004.3622)"/><path id="path4063" fill="url(#linearGradient4118)" fill-opacity="1" stroke="none" d="M 24 8.5996094 L 10.662109 16.300781 L 24 24 L 37.335938 16.302734 L 37.335938 16.300781 L 24 8.5996094 z" transform="translate(0,1004.3622)"/><path id="path4054" fill="#fff" fill-opacity=".235" stroke="none" d="M 24 8.5996094 L 37.335938 16.300781 L 37.337891 16.300781 L 24 8.5996094 z" transform="translate(0,1004.3622)"/><path id="path4139" fill="#000" fill-opacity=".314" stroke="none" d="M 10.664062 30.900391 L 10.664062 31.699219 L 24 39.400391 L 37.335938 31.699219 L 37.335938 30.900391 L 24 38.599609 L 10.664062 30.900391 z" transform="translate(0,1004.3622)"/><path id="path4144" fill="#fff" fill-opacity=".235" stroke="none" d="M 24 8.5996094 L 10.662109 16.300781 L 11.009766 16.5 L 24 9 L 36.988281 16.501953 L 37.335938 16.302734 L 37.335938 16.300781 L 24 8.5996094 z" transform="translate(0,1004.3622)"/><ellipse id="path4367" cx="17.865" cy="1020.8" fill="#b57a10" fill-opacity="1" stroke="none" rx="3.135" ry="1.938"/><ellipse id="ellipse4369" cx="17.865" cy="1020.072" fill="#ffdb31" fill-opacity="1" stroke="none" rx="3.135" ry="2.094"/><ellipse id="ellipse4379" cx="17.865" cy="1020.072" fill="#e8bf00" fill-opacity="1" stroke="none" rx="2.135" ry="1.476"/><ellipse id="ellipse4381" cx="29.865" cy="1020.8" fill="#b57a10" fill-opacity="1" stroke="none" rx="3.135" ry="1.938"/><ellipse id="ellipse4383" cx="29.865" cy="1020.072" fill="#ffdb31" fill-opacity="1" stroke="none" rx="3.135" ry="2.094"/><ellipse id="ellipse4385" cx="29.865" cy="1020.072" fill="#e8bf00" fill-opacity="1" stroke="none" rx="2.135" ry="1.476"/></g></svg>