<svg xmlns="http://www.w3.org/2000/svg" xmlns:svg="http://www.w3.org/2000/svg" xmlns:xlink="http://www.w3.org/1999/xlink" id="svg2" width="48" height="48" version="1.1"><defs id="defs4"><linearGradient id="linearGradient3795"><stop id="stop3797" offset="0" stop-color="#f2f2f2" stop-opacity="1"/><stop id="stop3799" offset="1" stop-color="#fff" stop-opacity="1"/></linearGradient><linearGradient id="linearGradient1402" x1="-57.29" x2="-57.29" y1="-1051.029" y2="-1003.031" gradientTransform="translate(84.155473,-1.3286153)" gradientUnits="userSpaceOnUse" xlink:href="#linearGradient3795"/></defs><metadata id="metadata7"/><g id="layer1" transform="translate(0,-1004.3622)"><rect id="rect2991-1" width="48" height="48" x="0" y="-1052.362" fill="url(#linearGradient1402)" fill-opacity="1" stroke="none" ry="1.945" transform="scale(1,-1)"/><path id="rect846" fill="#000" fill-opacity="1" stroke="none" d="m -1.0991211e-6,1049.3622 0,1.0625 c 0,1.0773 0.8602229991211,1.9375 1.9374999991211,1.9375 l 44.1250001,0 c 1.077277,0 1.9375,-0.8602 1.9375,-1.9375 l 0,-1.0625 c 0,1.0773 -0.860223,1.9375 -1.9375,1.9375 l -44.1250001,0 C 0.8602219,1051.2997 -1.0991211e-6,1050.4395 -1.0991211e-6,1049.3622 Z"/><path id="path7515" fill="#fff" fill-opacity=".537" stroke="none" d="m 2.5312489,1005.0185 c -0.917089,0 -1.671147,0.6395 -1.84375,1.5 0.335612,-0.2799 0.774512,-0.4375 1.25,-0.4375 l 44.1250001,0 c 0.475488,0 0.914388,0.1576 1.25,0.4375 -0.172603,-0.8605 -0.926662,-1.5 -1.84375,-1.5 L 2.5312489,1005.0185 Z"/><path id="rect4280-5" fill="#000" fill-opacity=".392" stroke="none" d="m 1.9374989,1004.3622 c -1.077277,0 -1.9374999991211,0.8602 -1.9374999991211,1.9375 l 0,43.0625 c 0,0.7934 0.4800229991211,1.449 1.1562499991211,1.75 -0.309342,-0.3333 -0.5,-0.7824 -0.5,-1.2812 l 0,-42.9375 c 0,-1.0482 0.826899,-1.875 1.875,-1.875 l 42.9375001,0 c 1.048101,0 1.875,0.8268 1.875,1.875 l 0,42.9375 c 0,0.4988 -0.190658,0.9479 -0.5,1.2812 0.676226,-0.301 1.15625,-0.9566 1.15625,-1.75 l 0,-43.0625 c 0,-1.0773 -0.860223,-1.9375 -1.9375,-1.9375 L 1.9374989,1004.3622 Z"/><g id="g972" transform="matrix(1.3983961,0,0,1.3983961,-36.56494,-421.00865)"><rect id="rect876" width="10.414" height="10.414" x="32.074" y="1025.011" fill="#f04f21" fill-opacity="1" stroke="none" ry="0"/><rect id="rect878" width="10.414" height="10.414" x="44.132" y="1025.011" fill="#7eb801" fill-opacity="1" stroke="none" ry="0"/><rect id="rect880" width="10.414" height="10.414" x="32.074" y="1037.48" fill="#01a3ee" fill-opacity="1" stroke="none" ry="0"/><rect id="rect882" width="10.414" height="10.414" x="44.132" y="1037.48" fill="#feb800" fill-opacity="1" stroke="none" ry="0"/></g></g></svg>