<svg xmlns="http://www.w3.org/2000/svg" xmlns:svg="http://www.w3.org/2000/svg" xmlns:xlink="http://www.w3.org/1999/xlink" id="svg5453" width="48" height="48" version="1.1"><defs id="defs5455"><linearGradient id="linearGradient1359"><stop id="stop1361" offset="0" stop-color="#1c3145" stop-opacity="1"/><stop id="stop1363" offset="1" stop-color="#364552" stop-opacity="1"/></linearGradient><linearGradient id="linearGradient1365" x1="411.014" x2="411.014" y1="-547.799" y2="-499.791" gradientUnits="userSpaceOnUse" xlink:href="#linearGradient1359"/><clipPath id="clipPath40" clipPathUnits="userSpaceOnUse"><path id="path42" d="m 0,595.28 841.89,0 L 841.89,0 0,0 0,595.28 Z"/></clipPath><linearGradient id="linearGradient26-7" x1="0" x2="1" y1="0" y2="0" gradientTransform="matrix(-1.3107266e-6,29.876887,-29.876887,-1.3107266e-6,399.54619,508.86648)" gradientUnits="userSpaceOnUse" spreadMethod="pad"><stop id="stop28-0" offset="0" stop-color="#47c4ed" stop-opacity="1"/><stop id="stop30-2" offset=".09" stop-color="#47c4ed" stop-opacity="1"/><stop id="stop32-6" offset="1" stop-color="#498bc9" stop-opacity="1"/></linearGradient><linearGradient id="linearGradient4056" x1="0" x2="1" y1="0" y2="0" gradientTransform="matrix(-1.3106161e-6,29.874368,-29.874368,-1.3106161e-6,399.54493,508.86774)" gradientUnits="userSpaceOnUse" spreadMethod="pad" xlink:href="#linearGradient26-7"/></defs><metadata id="metadata5458"/><g id="layer1" transform="translate(-384.57143,-499.798)"><rect id="rect2991-1-7" width="48" height="48" x="384.571" y="-547.798" fill="url(#linearGradient1365)" fill-opacity="1" stroke="none" ry="1.945" transform="scale(1,-1)"/><path id="path4060" fill="#000" fill-opacity=".059" stroke="none" d="m 408.46502,510.06309 c -4.71359,0 -10.48939,1.72083 -11.58212,4.60951 2.7785,-0.72125 5.07532,0.46103 5.65977,1.63375 0.72479,1.45384 -1.19644,2.91491 -8.13957,0.75853 -4.19144,-0.84897 -7.36572,-1.03185 -9.83167,-0.84605 l 0,10.00672 c 2.18522,0.48145 4.14995,1.5389 5.36803,3.55923 -1.5199,0.28506 -4.21552,1.61644 -4.40528,2.56733 1.80552,0.18948 6.47486,1.1173 10.96945,3.44254 7.45168,3.85444 8.96981,3.63245 9.53994,3.82181 l 0.35009,0.0584 c 21.38065,3.23149 29.8268,-24.50245 4.93041,-29.34914 C 410.45948,510.15623 409.48866,510.06323 408.46502,510.06309 Z"/><path id="path4058" fill="#000" fill-opacity=".118" stroke="none" d="m 408.46502,509.66312 c -4.71359,0 -10.48939,1.72084 -11.58212,4.60951 2.7785,-0.72125 5.07532,0.46103 5.65977,1.63376 0.72479,1.45383 -1.19644,2.9149 -8.13957,0.75852 -4.19144,-0.84897 -7.36572,-1.03185 -9.83167,-0.84605 l 0,10.00672 c 2.18522,0.48145 4.14995,1.5389 5.36803,3.55923 -1.5199,0.28507 -4.21552,1.61644 -4.40528,2.56733 1.80552,0.18949 6.47486,1.1173 10.96945,3.44254 7.45168,3.85445 8.96981,3.63246 9.53994,3.82181 l 0.35009,0.0584 c 21.38065,3.23148 29.8268,-24.50246 4.93041,-29.34915 C 410.45948,509.75626 409.48866,509.66326 408.46502,509.66312 Z"/><path id="path4054" fill="#000" fill-opacity=".235" stroke="none" d="m 408.46502,509.26316 c -4.71359,0 -10.48939,1.72083 -11.58212,4.60951 2.7785,-0.72125 5.07532,0.46103 5.65977,1.63375 0.72479,1.45384 -1.19644,2.9149 -8.13957,0.75853 -4.19144,-0.84897 -7.36572,-1.03186 -9.83167,-0.84605 l 0,10.00671 c 2.18522,0.48145 4.14995,1.5389 5.36803,3.55923 -1.5199,0.28507 -4.21552,1.61645 -4.40528,2.56734 1.80552,0.18948 6.47486,1.11729 10.96945,3.44254 7.45168,3.85444 8.96981,3.63245 9.53994,3.8218 l 0.35009,0.0584 c 21.38065,3.23149 29.8268,-24.50245 4.93041,-29.34915 C 410.45948,509.3563 409.48866,509.2633 408.46502,509.26316 Z"/><path id="rect846" fill="#000" fill-opacity="1" stroke="none" d="m 384.57143,544.79799 0,1.0625 c 0,1.0773 0.86022,1.9375 1.9375,1.9375 l 44.125,0 c 1.07728,0 1.9375,-0.8602 1.9375,-1.9375 l 0,-1.0625 c 0,1.0773 -0.86022,1.9375 -1.9375,1.9375 l -44.125,0 C 385.43165,546.73549 384.57143,545.87529 384.57143,544.79799 Z"/><path id="path7515" fill="#fff" fill-opacity=".537" stroke="none" d="m 387.10268,500.45429 c -0.91709,0 -1.67115,0.6395 -1.84375,1.5 0.33561,-0.2799 0.77451,-0.4375 1.25,-0.4375 l 44.125,0 c 0.47549,0 0.91439,0.1576 1.25,0.4375 -0.1726,-0.8605 -0.92666,-1.5 -1.84375,-1.5 L 387.10268,500.45429 Z"/><path id="path34" fill="url(#linearGradient4056)" stroke="none" d="m 408.46502,508.86154 c -4.71359,0 -10.48939,1.72083 -11.58212,4.60951 2.7785,-0.72125 5.07532,0.46103 5.65977,1.63375 0.72479,1.45384 -1.19644,2.91491 -8.13957,0.75853 -4.19144,-0.84897 -7.36572,-1.03185 -9.83167,-0.84605 l 0,10.00672 c 2.18522,0.48145 4.14995,1.5389 5.36803,3.55923 -1.5199,0.28506 -4.21552,1.61644 -4.40528,2.56733 1.80552,0.18948 6.47486,1.1173 10.96945,3.44254 7.45168,3.85445 8.96981,3.63245 9.53994,3.82181 l 0.35009,0.0584 c 21.38065,3.23149 29.8268,-24.50245 4.93041,-29.34914 C 410.45948,508.95468 409.48866,508.86168 408.46502,508.86154 Z"/><g id="g36" transform="matrix(0.13652252,0,0,-0.13652252,341.7031,572.44198)"><g id="g38" clip-path="url(#clipPath40)"><g id="g44" transform="translate(518.6543,398.9268)"><path id="path46" fill="#fff" fill-opacity="1" fill-rule="nonzero" stroke="none" d="m 0,0 c 65.821,8.231 82.986,-93.141 -8.327,-85.302 -35.994,4.381 -75.818,34.293 -97.031,43.174 19.241,2.958 37.116,9.692 49.357,18.178 13.298,8.953 39.937,21.776 54.951,23.954"/></g></g></g><path id="rect4280" fill="#000" fill-opacity=".392" stroke="none" d="m 386.50893,499.79799 c -1.07728,0 -1.9375,0.8602 -1.9375,1.9375 l 0,43.0625 c 0,0.7934 0.48002,1.449 1.15625,1.75 -0.30934,-0.3333 -0.5,-0.7824 -0.5,-1.2812 l 0,-42.9375 c 0,-1.0482 0.8269,-1.875 1.875,-1.875 l 42.9375,0 c 1.0481,0 1.875,0.8268 1.875,1.875 l 0,42.9375 c 0,0.4988 -0.19066,0.9479 -0.5,1.2812 0.67623,-0.301 1.15625,-0.9566 1.15625,-1.75 l 0,-43.0625 c 0,-1.0773 -0.86022,-1.9375 -1.9375,-1.9375 L 386.50893,499.79799 Z"/><path id="path4062" fill="#1e3346" fill-opacity=".314" stroke="none" d="m 398.85148,512.44447 c -0.45689,-0.0206 -0.93397,0.0351 -1.43738,0.12499 -0.22404,0.28728 -0.41169,0.59023 -0.53121,0.90617 2.7785,-0.72125 5.07132,0.45214 5.65578,1.62486 0.0236,0.0473 0.0446,0.0778 0.0625,0.12499 0.12613,-0.2839 0.0985,-0.6145 -0.0625,-0.93742 C 402.10033,513.40853 400.69703,512.52768 398.85148,512.44447 z m 27.71641,11.03032 c -0.30613,8.13741 -8.23621,15.99238 -20.1858,14.1863 l -0.34372,-0.0625 c -0.57013,-0.18936 -2.07877,0.0423 -9.53045,-3.81218 -4.18828,-2.16678 -8.43481,-3.07026 -10.46786,-3.34347 -0.26238,0.24071 -0.45648,0.46953 -0.49996,0.68744 1.80552,0.18949 6.47323,1.11197 10.96782,3.43721 7.45168,3.85445 8.96032,3.65407 9.53045,3.84343 l 0.34372,0.0625 C 418.7193,540.33819 426.76496,531.88409 426.56789,523.47479 z m -41.99646,0.74993 0,0.78119 c 1.92564,0.42426 3.68268,1.2912 4.90584,2.87476 0.16012,-0.0439 0.32622,-0.067 0.46871,-0.0937 C 388.7279,525.76659 386.75665,524.70617 384.57143,524.22472 Z"/><path id="path4067" fill="#fff" fill-opacity=".235" stroke="none" d="m 408.47566,508.86291 c -4.71358,0 -10.50004,1.73593 -11.59277,4.62461 0.063,-0.0163 0.12502,-0.0168 0.18749,-0.0312 1.45311,-2.64395 6.9162,-4.18714 11.40528,-4.18714 1.02365,1.4e-4 1.97892,0.0805 2.84351,0.24997 10.11416,1.96897 14.74066,7.71097 15.21747,13.62386 -0.30646,-6.04535 -4.88631,-12.01886 -15.21747,-14.03007 C 410.45458,508.94341 409.49931,508.86305 408.47566,508.86291 z m -21.9044,6.09324 c -0.70985,-0.004 -1.38334,0.0161 -1.99983,0.0625 l 0,0.40622 c 2.46595,-0.18581 5.65148,-0.005 9.84292,0.84368 6.31518,1.96135 8.45554,0.9216 8.2493,-0.37497 -0.28518,1.07991 -2.60802,1.7208 -8.2493,-0.0312 C 391.27078,515.22559 388.70082,514.96899 386.57126,514.95615 z m 3.12474,13.68634 c -1.54686,0.36683 -3.97563,1.59645 -4.1559,2.49979 0.0459,0.005 0.13796,0.0255 0.18748,0.0312 0.66387,-0.89576 2.88848,-1.93789 4.2184,-2.18732 C 389.87207,528.86364 389.77527,528.75806 389.696,528.64249 Z"/><path id="path4078" fill="#488dca" fill-opacity=".314" fill-rule="nonzero" stroke="none" d="m 399.25769,523.50065 c -0.37825,0.0813 -0.73662,0.19028 -1.1249,0.24997 2.89604,1.21245 8.33489,5.2764 13.24888,5.87451 6.31493,0.54212 8.81695,-2.74162 8.59303,-5.96825 -0.20867,2.95012 -2.79002,5.68524 -8.59303,5.18707 C 407.0496,528.31667 402.30343,525.09042 399.25769,523.50065 Z"/></g></svg>