<svg xmlns="http://www.w3.org/2000/svg" xmlns:svg="http://www.w3.org/2000/svg" xmlns:xlink="http://www.w3.org/1999/xlink" id="svg4340" width="48" height="48" version="1.1" viewBox="0 0 48 48"><defs id="defs4342"><linearGradient id="linearGradient4078"><stop id="stop4080" offset="0" stop-color="#fdbebb" stop-opacity="1"/><stop id="stop4082" offset="1" stop-color="#fff6f5" stop-opacity="1"/></linearGradient><linearGradient id="linearGradient1408"><stop id="stop1410" offset="0" stop-color="#d51007" stop-opacity="1"/><stop id="stop1412" offset="1" stop-color="#f83025" stop-opacity="1"/></linearGradient><linearGradient id="linearGradient1414" x1="258.664" x2="258.664" y1="-602.083" y2="-554.094" gradientTransform="translate(-1.1650391e-5,-4.8565673e-6)" gradientUnits="userSpaceOnUse" xlink:href="#linearGradient1408"/><linearGradient id="linearGradient4161" x1="664.481" x2="664.481" y1="901" y2="380" gradientUnits="userSpaceOnUse" xlink:href="#linearGradient4078"/></defs><metadata id="metadata4345"/><g id="layer1" transform="translate(-224.57143,-554.07648)"><rect id="rect2991-1-7" width="48" height="48" x="224.571" y="-602.076" fill="url(#linearGradient1414)" fill-opacity="1" stroke="none" ry="1.945" transform="scale(1,-1)"/><polygon id="polygon4178" fill="#000" fill-opacity=".059" points="416 599.111 601.234 784 678.404 784 864 599.111 864 901 1017 901 1017 380 870.223 380 639.776 609.333 409.778 380 263 380 263 901 416 901" display="inline" transform="matrix(0.04084881,0,0,0.04222649,222.42819,552.23042)"/><path id="rect846" fill="#000" fill-opacity="1" stroke="none" d="m 224.57143,599.0765 0,1.0625 c 0,1.0773 0.86022,1.9375 1.9375,1.9375 l 44.125,0 c 1.07728,0 1.9375,-0.8602 1.9375,-1.9375 l 0,-1.0625 c 0,1.0773 -0.86022,1.9375 -1.9375,1.9375 l -44.125,0 c -1.07728,0 -1.9375,-0.8602 -1.9375,-1.9375 z"/><path id="path7515" fill="#fff" fill-opacity=".537" stroke="none" d="m 227.10268,554.7328 c -0.91709,0 -1.67115,0.6395 -1.84375,1.5 0.33561,-0.2799 0.77451,-0.4375 1.25,-0.4375 l 44.125,0 c 0.47549,0 0.91439,0.1576 1.25,0.4375 -0.1726,-0.8605 -0.92666,-1.5 -1.84375,-1.5 l -42.9375,0 z"/><path id="rect4280-9" fill="#000" fill-opacity=".392" stroke="none" d="m 226.50893,554.0765 c -1.07728,0 -1.9375,0.8602 -1.9375,1.9375 l 0,43.0625 c 0,0.7934 0.48002,1.449 1.15625,1.75 -0.30934,-0.3333 -0.5,-0.7824 -0.5,-1.2812 l 0,-42.9375 c 0,-1.0482 0.8269,-1.875 1.875,-1.875 l 42.9375,0 c 1.0481,0 1.875,0.8268 1.875,1.875 l 0,42.9375 c 0,0.4988 -0.19066,0.9479 -0.5,1.2812 0.67623,-0.301 1.15625,-0.9566 1.15625,-1.75 l 0,-43.0625 c 0,-1.0773 -0.86022,-1.9375 -1.9375,-1.9375 l -44.125,0 z"/><polygon id="polygon4176" fill="#000" fill-opacity=".118" points="409.778 380 263 380 263 901 416 901 416 599.111 601.234 784 678.404 784 864 599.111 864 901 1017 901 1017 380 870.223 380 639.776 609.333" display="inline" transform="matrix(0.04084881,0,0,0.04222649,222.42819,551.83042)"/><polygon id="polygon4172" fill="#000" fill-opacity=".235" points="1017 901 1017 380 870.223 380 639.776 609.333 409.778 380 263 380 263 901 416 901 416 599.111 601.234 784 678.404 784 864 599.111 864 901" display="inline" transform="matrix(0.04084881,0,0,0.04222649,222.42819,551.43042)"/><polygon id="polygon6" fill="url(#linearGradient4161)" fill-opacity="1" points="601.234 784 678.404 784 864 599.111 864 901 1017 901 1017 380 870.223 380 639.776 609.333 409.778 380 263 380 263 901 416 901 416 599.111" display="inline" transform="matrix(0.04084881,0,0,0.04222649,222.42819,551.03042)"/><path id="polygon4180" fill="#d71209" fill-opacity=".314" stroke-width=".042" d="M 14.849609 21.453125 L 14.849609 22.251953 L 22.416016 30.058594 L 25.568359 30.058594 L 33.150391 22.251953 L 33.150391 21.453125 L 25.568359 29.259766 L 22.416016 29.259766 L 14.849609 21.453125 z M 8.5996094 34.199219 L 8.5996094 35 L 14.849609 35 L 14.849609 34.199219 L 8.5996094 34.199219 z M 33.150391 34.199219 L 33.150391 35 L 39.400391 35 L 39.400391 34.199219 L 33.150391 34.199219 z" display="inline" transform="translate(224.57143,554.07648)"/><path id="polygon4185" fill="#fff" fill-opacity=".235" stroke-width=".042" d="M 8.5996094 13 L 8.5996094 13.400391 L 14.595703 13.400391 L 23.990234 23.083984 L 33.404297 13.400391 L 39.400391 13.400391 L 39.400391 13 L 33.404297 13 L 23.990234 22.683594 L 14.595703 13 L 8.5996094 13 z" display="inline" transform="translate(224.57143,554.07648)"/></g></svg>