<svg xmlns="http://www.w3.org/2000/svg" xmlns:svg="http://www.w3.org/2000/svg" xmlns:xlink="http://www.w3.org/1999/xlink" id="svg2" width="48" height="48" version="1.1"><defs id="defs4"><linearGradient id="linearGradient1003"><stop id="stop1005" offset="0" stop-color="#1a1a1a" stop-opacity="1"/><stop id="stop1007" offset="1" stop-color="#333" stop-opacity="1"/></linearGradient><linearGradient id="linearGradient1010"><stop id="stop1012" offset="0" stop-color="#1a1a1a" stop-opacity="1"/><stop id="stop1016" offset=".874" stop-color="#868686" stop-opacity="1"/><stop id="stop1018" offset=".887" stop-color="#fff" stop-opacity="1"/><stop id="stop1020" offset=".99" stop-color="#b0b0b0" stop-opacity="1"/><stop id="stop1014" offset="1" stop-color="#6a6a6a" stop-opacity="1"/></linearGradient><linearGradient id="linearGradient3698-2"><stop id="stop3700-0" offset="0" stop-color="#b3b3b3" stop-opacity="1"/><stop id="stop3702-6" offset="1" stop-color="#e6e6e6" stop-opacity="1"/></linearGradient><linearGradient id="linearGradient895" x1="27.75" x2="27.75" y1="-1052.362" y2="-1004.737" gradientUnits="userSpaceOnUse" xlink:href="#linearGradient1003"/><radialGradient id="radialGradient923" cx="24" cy="24" r="16" fx="24" fy="24" gradientTransform="matrix(0.96249786,0,0,0.96249786,0.90005157,1005.2622)" gradientUnits="userSpaceOnUse" xlink:href="#linearGradient1010"/><linearGradient id="linearGradient933" x1="15.455" x2="15.455" y1="24.457" y2="20.531" gradientUnits="userSpaceOnUse" xlink:href="#linearGradient3698-2"/><linearGradient id="linearGradient975" x1="15.455" x2="15.455" y1="24.457" y2="20.531" gradientUnits="userSpaceOnUse" xlink:href="#linearGradient3698-2"/><linearGradient id="linearGradient991" x1="15.455" x2="15.455" y1="24.457" y2="20.531" gradientUnits="userSpaceOnUse" xlink:href="#linearGradient3698-2"/><linearGradient id="linearGradient1001" x1="25.438" x2="25.438" y1="34.531" y2="10.906" gradientUnits="userSpaceOnUse" xlink:href="#linearGradient1003"/><linearGradient id="linearGradient1112" x1="15.455" x2="15.455" y1="24.457" y2="20.531" gradientUnits="userSpaceOnUse" xlink:href="#linearGradient3698-2"/><linearGradient id="linearGradient1188" x1="30.451" x2="30.451" y1="38.861" y2="20.089" gradientTransform="matrix(0.3201851,0,0,0.3201851,14.428749,1028.2848)" gradientUnits="userSpaceOnUse" xlink:href="#linearGradient6390"/><linearGradient id="linearGradient6390"><stop id="stop6392" offset="0" stop-color="#fff" stop-opacity="1"/><stop id="stop6414" offset=".165" stop-color="#29282b" stop-opacity="1"/><stop id="stop6416" offset=".261" stop-color="#868c95" stop-opacity="1"/><stop id="stop6418" offset=".395" stop-color="#92979f" stop-opacity="1"/><stop id="stop6420" offset=".543" stop-color="#737881" stop-opacity="1"/><stop id="stop6422" offset=".626" stop-color="#70757e" stop-opacity="1"/><stop id="stop6424" offset=".721" stop-color="#e4e6e8" stop-opacity="1"/><stop id="stop6426" offset=".795" stop-color="#fff" stop-opacity="1"/><stop id="stop6394" offset="1" stop-color="#1d191a" stop-opacity="1"/></linearGradient><linearGradient id="linearGradient4166" x1="11.85" x2="40.209" y1="1044.268" y2="1015.909" gradientUnits="userSpaceOnUse" xlink:href="#linearGradient6390"/></defs><metadata id="metadata7"/><g id="layer1" transform="translate(0,-1004.3622)"><rect id="rect2991-1" width="48" height="48" x="0" y="-1052.362" fill="url(#linearGradient895)" fill-opacity="1" stroke="none" ry="1.945" transform="scale(1,-1)"/><path id="path4180" fill="#000" fill-opacity=".059" stroke="none" d="m 24.000001,1014.1622 c -8.505167,0 -15.3999666,6.8949 -15.3999666,15.4 0,8.5051 6.8947996,15.4 15.3999666,15.4 8.505166,0 15.399965,-6.8949 15.399965,-15.4 C 39.399966,1021.0571 32.505167,1014.1622 24.000001,1014.1622 z m 0,1.9251 c 7.442021,0 13.474969,6.0329 13.474969,13.4749 0,7.442 -6.032948,13.4749 -13.474969,13.4749 -7.442022,0 -13.47497,-6.0329 -13.47497,-13.4749 C 10.525031,1022.1202 16.557979,1016.0873 24.000001,1016.0873 Z"/><path id="path4176" fill="#000" fill-opacity=".118" stroke="none" d="m 24.000001,1013.7622 c -8.505167,0 -15.3999666,6.8949 -15.3999666,15.4 0,8.5051 6.8947996,15.4 15.3999666,15.4 8.505166,0 15.399965,-6.8949 15.399965,-15.4 C 39.399966,1020.6571 32.505167,1013.7622 24.000001,1013.7622 z m 0,1.9251 c 7.442021,0 13.474969,6.0329 13.474969,13.4749 0,7.442 -6.032948,13.4749 -13.474969,13.4749 -7.442022,0 -13.47497,-6.0329 -13.47497,-13.4749 C 10.525031,1021.7202 16.557979,1015.6873 24.000001,1015.6873 Z"/><path id="rect846" fill="#000" fill-opacity="1" stroke="none" d="m -1.0799866e-7,1049.3622 0,1.0625 c 0,1.0773 0.86022289799866,1.9375 1.93749990799866,1.9375 l 44.1250002,0 c 1.077277,0 1.9375,-0.8602 1.9375,-1.9375 l 0,-1.0625 c 0,1.0773 -0.860223,1.9375 -1.9375,1.9375 l -44.1250002,0 C 0.86022279,1051.2997 -1.0799866e-7,1050.4395 -1.0799866e-7,1049.3622 Z"/><path id="path7515" fill="#fff" fill-opacity=".537" stroke="none" d="m 2.5312498,1005.0185 c -0.9170884,0 -1.67114671,0.6395 -1.84374991,1.5 0.33561201,-0.2799 0.77451211,-0.4375 1.24999991,-0.4375 l 44.1250002,0 c 0.475488,0 0.914388,0.1576 1.25,0.4375 -0.172603,-0.8605 -0.926662,-1.5 -1.84375,-1.5 L 2.5312498,1005.0185 Z"/><path id="rect4280" fill="#000" fill-opacity=".392" stroke="none" d="m 1.9374998,1004.3622 c -1.07727691,0 -1.93749990799866,0.8602 -1.93749990799866,1.9375 l 0,43.0625 c 0,0.7934 0.48002359799866,1.449 1.15624990799866,1.75 -0.30934161,-0.3333 -0.49999991,-0.7824 -0.49999991,-1.2812 l 0,-42.9375 c 0,-1.0482 0.82689891,-1.875 1.87499991,-1.875 l 42.9375002,0 c 1.048101,0 1.875,0.8268 1.875,1.875 l 0,42.9375 c 0,0.4988 -0.190658,0.9479 -0.5,1.2812 0.676226,-0.301 1.15625,-0.9566 1.15625,-1.75 l 0,-43.0625 c 0,-1.0773 -0.860223,-1.9375 -1.9375,-1.9375 L 1.9374998,1004.3622 Z"/><path id="path4172" fill="#000" fill-opacity=".235" stroke="none" d="m 24.000001,1013.3622 c -8.505167,0 -15.3999666,6.8949 -15.3999666,15.4 0,8.5051 6.8947996,15.4 15.3999666,15.4 8.505166,0 15.399965,-6.8949 15.399965,-15.4 C 39.399966,1020.2571 32.505167,1013.3622 24.000001,1013.3622 z m 0,1.9251 c 7.442021,0 13.474969,6.0329 13.474969,13.4749 0,7.442 -6.032948,13.4749 -13.474969,13.4749 -7.442022,0 -13.47497,-6.0329 -13.47497,-13.4749 C 10.525031,1021.3202 16.557979,1015.2873 24.000001,1015.2873 Z"/><path id="path993" fill="url(#linearGradient1001)" fill-opacity="1" stroke="none" d="m 37.1875,22.78125 c 0,6.57564 -5.33061,11.90625 -11.90625,11.90625 -6.57564,0 -11.90625,-5.33061 -11.90625,-11.90625 0,-6.57564 5.33061,-11.90625 11.90625,-11.90625 6.57564,0 11.90625,5.33061 11.90625,11.90625 z" transform="matrix(1.1241773,0,0,1.1241773,-4.420607,1002.752)"/><path id="path897" fill="url(#radialGradient923)" fill-opacity="1" stroke="none" d="m 24.000001,1012.9622 c -8.505167,0 -15.3999666,6.8949 -15.3999666,15.4 0,8.5051 6.8947996,15.4 15.3999666,15.4 8.505166,0 15.399965,-6.8949 15.399965,-15.4 C 39.399966,1019.8571 32.505167,1012.9622 24.000001,1012.9622 z m 0,1.9251 c 7.442021,0 13.474969,6.0329 13.474969,13.4749 0,7.442 -6.032948,13.4749 -13.474969,13.4749 -7.442022,0 -13.47497,-6.0329 -13.47497,-13.4749 C 10.525031,1020.9202 16.557979,1014.8873 24.000001,1014.8873 Z"/><path id="path925" fill="url(#linearGradient933)" fill-opacity="1" stroke="none" d="m 17.412505,22.499962 c 0,1.098349 -0.890388,1.988738 -1.988738,1.988738 -1.098349,0 -1.988738,-0.890389 -1.988738,-1.988738 0,-1.09835 0.890389,-1.988738 1.988738,-1.988738 1.09835,0 1.988738,0.890388 1.988738,1.988738 z" transform="matrix(1.0031125,0,0,1.0031125,-1.0967527,1005.8677)"/><path id="path937" fill="#000" fill-opacity=".235" stroke="none" d="m 12.525532,1029.2096 c 0.28877,0.7461 1.001559,1.2853 1.849488,1.2853 0.847929,0 1.56072,-0.5392 1.84949,-1.2853 -0.302847,0.7162 -1.023163,1.2226 -1.84949,1.2226 C 13.548695,1030.4322 12.828378,1029.9258 12.525532,1029.2096 Z"/><path id="path942" fill="#000" fill-opacity=".138" stroke="none" d="m 12.525532,1029.2707 c 0.28877,0.746 1.001559,1.2853 1.849488,1.2853 0.847929,0 1.56072,-0.5393 1.84949,-1.2853 -0.302847,0.7161 -1.023163,1.2226 -1.84949,1.2226 C 13.548695,1030.4933 12.828378,1029.9868 12.525532,1029.2707 Z"/><path id="path944" fill="#000" fill-opacity=".079" stroke="none" d="m 12.525532,1029.3318 c 0.28877,0.746 1.001559,1.2853 1.849488,1.2853 0.847929,0 1.56072,-0.5393 1.84949,-1.2853 -0.302847,0.716 -1.023163,1.2227 -1.84949,1.2227 C 13.548695,1030.5545 12.828378,1030.0478 12.525532,1029.3318 Z"/><path id="path946" fill="#fff" fill-opacity=".736" stroke="none" d="m 14.37502,1026.4371 c -1.101767,0 -2.00227,0.9006 -2.00227,2.0023 0,0.028 0.01464,0.051 0.01577,0.079 0.03526,-1.0708 0.90711,-1.9235 1.986504,-1.9235 1.079394,0 1.951243,0.8527 1.986504,1.9235 0.0012,-0.028 0.01576,-0.051 0.01576,-0.079 C 16.377291,1027.3377 15.476789,1026.4371 14.37502,1026.4371 Z"/><path id="path951" fill="#000" fill-opacity=".039" stroke="none" d="m 12.525532,1029.3929 c 0.28877,0.746 1.001559,1.2853 1.849488,1.2853 0.847929,0 1.56072,-0.5393 1.84949,-1.2853 -0.302847,0.7161 -1.023163,1.2227 -1.84949,1.2227 C 13.548695,1030.6156 12.828378,1030.109 12.525532,1029.3929 Z"/><path id="path963" fill="url(#linearGradient975)" fill-opacity="1" stroke="none" d="m 17.412505,22.499962 c 0,1.098349 -0.890388,1.988738 -1.988738,1.988738 -1.098349,0 -1.988738,-0.890389 -1.988738,-1.988738 0,-1.09835 0.890389,-1.988738 1.988738,-1.988738 1.09835,0 1.988738,0.890388 1.988738,1.988738 z" transform="matrix(1.0031125,0,0,1.0031125,18.153205,1005.8677)"/><path id="path965" fill="#000" fill-opacity=".235" stroke="none" d="m 31.77549,1029.2096 c 0.288769,0.7461 1.001559,1.2853 1.849488,1.2853 0.847929,0 1.560718,-0.5392 1.849489,-1.2853 -0.302847,0.7162 -1.023163,1.2226 -1.849489,1.2226 C 32.798652,1030.4322 32.078336,1029.9258 31.77549,1029.2096 Z"/><path id="path967" fill="#000" fill-opacity=".138" stroke="none" d="m 31.77549,1029.2707 c 0.288769,0.746 1.001559,1.2853 1.849488,1.2853 0.847929,0 1.560718,-0.5393 1.849489,-1.2853 -0.302847,0.7161 -1.023163,1.2226 -1.849489,1.2226 C 32.798652,1030.4933 32.078336,1029.9868 31.77549,1029.2707 Z"/><path id="path969" fill="#000" fill-opacity=".079" stroke="none" d="m 31.77549,1029.3318 c 0.288769,0.746 1.001559,1.2853 1.849488,1.2853 0.847929,0 1.560718,-0.5393 1.849489,-1.2853 -0.302847,0.716 -1.023163,1.2227 -1.849489,1.2227 C 32.798652,1030.5545 32.078336,1030.0478 31.77549,1029.3318 Z"/><path id="path971" fill="#fff" fill-opacity=".736" stroke="none" d="m 33.624978,1026.4371 c -1.101768,0 -2.00227,0.9006 -2.00227,2.0023 0,0.028 0.01464,0.051 0.01576,0.079 0.03526,-1.0708 0.90711,-1.9235 1.986505,-1.9235 1.079394,0 1.951241,0.8527 1.986504,1.9235 0.0012,-0.028 0.01577,-0.051 0.01577,-0.079 C 35.627248,1027.3377 34.726746,1026.4371 33.624978,1026.4371 Z"/><path id="path973" fill="#000" fill-opacity=".039" stroke="none" d="m 31.77549,1029.3929 c 0.288769,0.746 1.001559,1.2853 1.849488,1.2853 0.847929,0 1.560718,-0.5393 1.849489,-1.2853 -0.302847,0.7161 -1.023163,1.2227 -1.849489,1.2227 C 32.798652,1030.6156 32.078336,1030.109 31.77549,1029.3929 Z"/><path id="path979" fill="url(#linearGradient991)" fill-opacity="1" stroke="none" d="m 17.412505,22.499962 c 0,1.098349 -0.890388,1.988738 -1.988738,1.988738 -1.098349,0 -1.988738,-0.890389 -1.988738,-1.988738 0,-1.09835 0.890389,-1.988738 1.988738,-1.988738 1.09835,0 1.988738,0.890388 1.988738,1.988738 z" transform="matrix(1.0031125,0,0,1.0031125,8.5282259,996.24275)"/><path id="path981" fill="#000" fill-opacity=".235" stroke="none" d="m 22.150511,1019.5846 c 0.28877,0.7461 1.001559,1.2853 1.849488,1.2853 0.847929,0 1.560719,-0.5392 1.849489,-1.2853 -0.302846,0.7161 -1.023163,1.2226 -1.849489,1.2226 C 23.173674,1020.8072 22.453357,1020.3007 22.150511,1019.5846 Z"/><path id="path983" fill="#000" fill-opacity=".138" stroke="none" d="m 22.150511,1019.6458 c 0.28877,0.7459 1.001559,1.2852 1.849488,1.2852 0.847929,0 1.560719,-0.5393 1.849489,-1.2852 -0.302846,0.7161 -1.023163,1.2226 -1.849489,1.2226 C 23.173674,1020.8684 22.453357,1020.3619 22.150511,1019.6458 Z"/><path id="path985" fill="#000" fill-opacity=".079" stroke="none" d="m 22.150511,1019.7068 c 0.28877,0.7461 1.001559,1.2853 1.849488,1.2853 0.847929,0 1.560719,-0.5392 1.849489,-1.2853 -0.302846,0.7161 -1.023163,1.2227 -1.849489,1.2227 C 23.173674,1020.9295 22.453357,1020.4229 22.150511,1019.7068 Z"/><path id="path987" fill="#fff" fill-opacity=".736" stroke="none" d="m 23.999999,1016.8122 c -1.101768,0 -2.00227,0.9005 -2.00227,2.0022 0,0.028 0.01464,0.051 0.01576,0.079 0.03526,-1.0708 0.907111,-1.9234 1.986505,-1.9234 1.079394,0 1.951241,0.8526 1.986504,1.9234 0.0012,-0.028 0.01576,-0.051 0.01576,-0.079 C 26.00227,1017.7127 25.101767,1016.8122 23.999999,1016.8122 Z"/><path id="path989" fill="#000" fill-opacity=".039" stroke="none" d="m 22.150511,1019.7679 c 0.28877,0.746 1.001559,1.2853 1.849488,1.2853 0.847929,0 1.560719,-0.5393 1.849489,-1.2853 -0.302846,0.7161 -1.023163,1.2226 -1.849489,1.2226 C 23.173674,1020.9905 22.453357,1020.484 22.150511,1019.7679 Z"/><path id="path1047" fill="red" fill-opacity=".933" stroke="none" d="m 24.000002,1014.5468 -1.186716,13.6304 0,0.1017 c 0,0.096 0.01281,0.1827 0.0339,0.2712 0.124431,0.5223 0.592548,0.9154 1.152811,0.9154 0.65526,0 1.186716,-0.5313 1.186716,-1.1866 l 0,-0.1017 -0.44078,-4.9842 L 24.000002,1014.5468 Z"/><path id="rect1093" fill="#fff" fill-opacity=".243" stroke="none" d="m 24.000002,1014.5468 0,14.9187 c 0.65526,0 1.186717,-0.5313 1.186717,-1.1866 l 0,-0.1017 -0.440781,-4.9842 L 24.000002,1014.5468 Z"/><path id="path1100" fill="url(#linearGradient1112)" fill-opacity="1" stroke="none" d="m 17.412505,22.499962 c 0,1.098349 -0.890388,1.988738 -1.988738,1.988738 -1.098349,0 -1.988738,-0.890389 -1.988738,-1.988738 0,-1.09835 0.890389,-1.988738 1.988738,-1.988738 1.09835,0 1.988738,0.890388 1.988738,1.988738 z" transform="matrix(0.17242857,0,0,0.17242857,21.340504,1024.4619)"/><path id="path1102" fill="#000" fill-opacity=".235" stroke="none" d="m 23.682088,1028.4742 c 0.04964,0.1283 0.172161,0.2209 0.317914,0.2209 0.145754,0 0.268278,-0.093 0.317916,-0.2209 -0.05206,0.1231 -0.175876,0.2102 -0.317916,0.2102 C 23.857962,1028.6844 23.734145,1028.5973 23.682088,1028.4742 Z"/><path id="path1104" fill="#000" fill-opacity=".138" stroke="none" d="m 23.682088,1028.4847 c 0.04964,0.1283 0.172161,0.221 0.317914,0.221 0.145754,0 0.268278,-0.093 0.317916,-0.221 -0.05206,0.1231 -0.175876,0.2102 -0.317916,0.2102 C 23.857962,1028.6949 23.734145,1028.6078 23.682088,1028.4847 Z"/><path id="path1106" fill="#000" fill-opacity=".079" stroke="none" d="m 23.682088,1028.4952 c 0.04964,0.1283 0.172161,0.221 0.317914,0.221 0.145754,0 0.268278,-0.093 0.317916,-0.221 -0.05206,0.1231 -0.175876,0.2102 -0.317916,0.2102 C 23.857962,1028.7054 23.734145,1028.6183 23.682088,1028.4952 Z"/><path id="path1108" fill="#fff" fill-opacity=".736" stroke="none" d="m 24.000002,1027.9976 c -0.189386,0 -0.344177,0.1548 -0.344177,0.3442 0,0.01 0.0025,0.01 0.0027,0.014 0.0061,-0.1839 0.155927,-0.3305 0.341467,-0.3305 0.185543,0 0.335407,0.1466 0.341469,0.3305 1.98e-4,-0.01 0.0027,-0.01 0.0027,-0.014 C 24.34418,1028.1524 24.189388,1027.9976 24.000002,1027.9976 Z"/><path id="path1110" fill="#000" fill-opacity=".039" stroke="none" d="m 23.682088,1028.5057 c 0.04964,0.1282 0.172161,0.221 0.317914,0.221 0.145754,0 0.268278,-0.093 0.317916,-0.221 -0.05206,0.1231 -0.175876,0.2102 -0.317916,0.2102 C 23.857962,1028.7159 23.734145,1028.6288 23.682088,1028.5057 Z"/><path id="path1186" fill="url(#linearGradient1188)" fill-opacity="1" stroke="none" d="m 21.112507,1036.4532 0.902342,3.0078 1.022653,0 0.962499,-3.0078 -0.962499,0 -0.481248,1.8047 -0.511327,-1.8047 L 21.112507,1036.4532 z m 3.037884,0 0,1.8347 c 0,0.8319 0.437644,1.2332 1.353513,1.2332 0.915867,0 1.383591,-0.4013 1.383591,-1.2332 l 0,-1.8347 -0.932421,0 0,1.6242 c 0,0.3068 -0.01425,0.6918 -0.45117,0.6918 -0.449533,0 -0.421093,-0.385 -0.421093,-0.6918 l 0,-1.6242 L 24.150391,1036.4532 Z" font-family="Helvetica Neue" font-size="4.365" font-stretch="normal" font-style="normal" font-variant="normal" font-weight="900" letter-spacing="0" text-anchor="start" word-spacing="0" writing-mode="lr-tb" style="text-align:start;line-height:125%;-inkscape-font-specification:Helvetica Neue Heavy"/><path id="path1191" fill="#000" fill-opacity=".276" stroke="none" d="m 21.112507,1036.5134 0.902342,2.9476 -0.872264,-2.9476 L 21.112507,1036.5134 z m 0.902342,2.9476 0,0.06 1.022653,0 0,-0.06 L 22.014849,1039.461 z m 1.022653,0 0.962499,-2.9476 -0.03008,0 L 23.037502,1039.461 z m 1.203123,-0.6317 c 0.153216,0.4983 0.551624,0.752 1.263279,0.752 0.713838,0 1.133268,-0.2505 1.293356,-0.752 -0.174479,0.4638 -0.606455,0.6919 -1.293356,0.6919 C 24.817002,1039.5212 24.406643,1039.2931 24.240625,1038.8293 Z" font-family="Helvetica Neue" font-size="4.365" font-stretch="normal" font-style="normal" font-variant="normal" font-weight="900" letter-spacing="0" text-anchor="start" word-spacing="0" writing-mode="lr-tb" style="text-align:start;line-height:125%;-inkscape-font-specification:Helvetica Neue Heavy"/><path font-style="normal" style="text-align:start;line-height:125%;-inkscape-font-specification:Helvetica Neue Heavy" id="path1196" fill="#000" fill-opacity=".126" stroke="none" d="m 21.112507,1036.5698 0.902342,2.9477 -0.872264,-2.9477 L 21.112507,1036.5698 z m 0.902342,2.9477 0,0.059 1.022653,0 0,-0.059 L 22.014849,1039.5175 z m 1.022653,0 0.962499,-2.9477 -0.03008,0 L 23.037502,1039.5175 z m 1.203123,-0.6318 c 0.153216,0.4984 0.551624,0.7521 1.263279,0.7521 0.713838,0 1.133268,-0.2506 1.293356,-0.7521 -0.174479,0.4639 -0.606455,0.6919 -1.293356,0.6919 C 24.817002,1039.5776 24.406643,1039.3496 24.240625,1038.8857 Z" font-family="Helvetica Neue" font-size="4.365" font-stretch="normal" font-variant="normal" font-weight="900" letter-spacing="0" text-anchor="start" word-spacing="0" writing-mode="lr-tb"/><path id="path1198" fill="#000" fill-opacity=".054" stroke="none" d="m 21.112507,1036.63 0.902342,2.9476 L 21.142585,1036.63 21.112507,1036.63 z m 0.902342,2.9476 0,0.06 1.022653,0 0,-0.06 L 22.014849,1039.5776 z m 1.022653,0 0.962499,-2.9476 -0.03008,0 L 23.037502,1039.5776 z m 1.203123,-0.6317 c 0.153216,0.4983 0.551624,0.752 1.263279,0.752 0.713838,0 1.133268,-0.2506 1.293356,-0.752 -0.174479,0.4638 -0.606455,0.6919 -1.293356,0.6919 C 24.817002,1039.6378 24.406643,1039.4097 24.240625,1038.9459 Z" font-family="Helvetica Neue" font-size="4.365" font-stretch="normal" font-style="normal" font-variant="normal" font-weight="900" letter-spacing="0" text-anchor="start" word-spacing="0" writing-mode="lr-tb" style="text-align:start;line-height:125%;-inkscape-font-specification:Helvetica Neue Heavy"/><path id="path1200" fill="#fff" fill-opacity="1" stroke="none" d="m 21.112507,1036.4532 0.03008,0.091 0.902342,0 0.511327,1.8046 0.481248,-1.8046 0.932421,0 0.03008,-0.091 -0.962499,0 -0.481248,1.8047 -0.511327,-1.8047 L 21.112507,1036.4532 z m 3.037884,0 0,0.091 0.93242,0 0,-0.091 L 24.150391,1036.4532 z m 1.804683,0 0,0.091 0.932421,0 0,-0.091 L 25.955074,1036.4532 z m 0,1.8649 c -0.02448,0.2376 -0.123474,0.4511 -0.45117,0.4511 -0.224767,0 -0.341934,-0.106 -0.391015,-0.2406 0.03147,0.1868 0.110922,0.3308 0.391015,0.3308 C 25.872559,1038.8594 25.942905,1038.5879 25.955074,1038.3181 Z" font-family="Helvetica Neue" font-size="4.365" font-stretch="normal" font-style="normal" font-variant="normal" font-weight="900" letter-spacing="0" text-anchor="start" word-spacing="0" writing-mode="lr-tb" style="text-align:start;line-height:125%;-inkscape-font-specification:Helvetica Neue Heavy"/><path id="path1213" fill="#000" fill-opacity=".197" stroke="none" d="m 25.173045,1028.5163 c -0.110683,0.5407 -0.599692,0.9624 -1.173044,0.9624 -0.560263,0 -1.018537,-0.41 -1.142966,-0.9323 0.005,0.028 -0.0069,0.061 0,0.091 0.124429,0.5222 0.582703,0.9325 1.142966,0.9325 C 24.604068,1029.5691 25.098786,1029.1002 25.173045,1028.5163 Z"/><path id="path1218" fill="#000" fill-opacity=".117" stroke="none" d="m 25.173045,1028.6102 c -0.110683,0.5407 -0.599692,0.9625 -1.173044,0.9625 -0.560263,0 -1.018537,-0.4101 -1.142966,-0.9324 0.005,0.029 -0.0069,0.061 0,0.091 0.124429,0.5223 0.582703,0.9325 1.142966,0.9325 C 24.604068,1029.663 25.098786,1029.1942 25.173045,1028.6102 Z"/><path id="path1220" fill="#000" fill-opacity=".054" stroke="none" d="m 25.173045,1028.7042 c -0.110683,0.5407 -0.599692,0.9625 -1.173044,0.9625 -0.560263,0 -1.018537,-0.4101 -1.142966,-0.9324 0.005,0.029 -0.0069,0.061 0,0.091 0.124429,0.5223 0.582703,0.9325 1.142966,0.9325 C 24.604068,1029.757 25.098786,1029.2882 25.173045,1028.7042 Z"/><path id="path4162" fill="url(#linearGradient4166)" fill-opacity="1" stroke="none" d="m 24.000001,1012.9622 c -8.505167,0 -15.3999666,6.8949 -15.3999666,15.4 0,8.5051 6.8947996,15.4 15.3999666,15.4 8.505166,0 15.399965,-6.8949 15.399965,-15.4 C 39.399966,1019.8571 32.505167,1012.9622 24.000001,1012.9622 z m 0,1.9251 c 7.442021,0 13.474969,6.0329 13.474969,13.4749 0,7.442 -6.032948,13.4749 -13.474969,13.4749 -7.442022,0 -13.47497,-6.0329 -13.47497,-13.4749 C 10.525031,1020.9202 16.557979,1014.8873 24.000001,1014.8873 Z"/></g></svg>