<svg xmlns="http://www.w3.org/2000/svg" xmlns:svg="http://www.w3.org/2000/svg" xmlns:xlink="http://www.w3.org/1999/xlink" id="svg5453" width="48" height="48" version="1.1" viewBox="0 0 48 48"><defs id="defs5455"><linearGradient id="linearGradient4285"><stop id="stop4287" offset="0" stop-color="#826046" stop-opacity="1"/><stop id="stop4293" offset=".5" stop-color="#805e44" stop-opacity="1"/><stop id="stop4289" offset="1" stop-color="#80b75c" stop-opacity="1"/></linearGradient><linearGradient id="linearGradient4291" x1="423.093" x2="423.093" y1="-547.807" y2="-499.807" gradientUnits="userSpaceOnUse" xlink:href="#linearGradient4285"/></defs><metadata id="metadata5458"/><g id="layer1" transform="translate(-384.57143,-499.798)"><rect id="rect2991-1-7" width="48" height="48" x="384.571" y="-547.798" fill="url(#linearGradient4291)" fill-opacity="1" stroke="none" ry="1.945" transform="scale(1,-1)"/><path id="rect4168" fill="#70af46" fill-opacity="1" fill-rule="evenodd" stroke="none" d="M 1.9453125 0 C 0.86803535 0 0 0.86803535 0 1.9453125 L 0 6.5 L 6.5 6.5 L 6.5 0 L 1.9453125 0 z" transform="translate(384.57143,499.798)"/><path id="rect4170" fill="#67a63d" fill-opacity="1" fill-rule="evenodd" stroke="none" d="M 6.5 0 L 6.5 6.5 L 13.5 6.5 L 13.5 0 L 6.5 0 z" transform="translate(384.57143,499.798)"/><path id="rect4172" fill="#90bf5f" fill-opacity="1" fill-rule="evenodd" stroke="none" d="M 0 6.5 L 0 13.5 L 6.5 13.5 L 6.5 6.5 L 0 6.5 z" transform="translate(384.57143,499.798)"/><rect id="rect4174" width="7" height="7" x="391.071" y="506.298" fill="#6baa41" fill-opacity="1" fill-rule="evenodd" stroke="none"/><path id="rect4176" fill="#6baa41" fill-opacity="1" fill-rule="evenodd" stroke="none" d="M 0 13.5 L 0 20.5 L 6.5 20.5 L 6.5 13.5 L 0 13.5 z" transform="translate(384.57143,499.798)"/><rect id="rect4178" width="7" height="7" x="391.071" y="513.298" fill="#593d28" fill-opacity="1" fill-rule="evenodd" stroke="none"/><path id="rect4180" fill="#593d28" fill-opacity="1" fill-rule="evenodd" stroke="none" d="M 0 20.5 L 0 27.5 L 6.5 27.5 L 6.5 20.5 L 0 20.5 z" transform="translate(384.57143,499.798)"/><rect id="rect4182" width="7" height="7" x="391.071" y="520.298" fill="#c49976" fill-opacity="1" fill-rule="evenodd" stroke="none"/><path id="rect4184" fill="#5a3e28" fill-opacity="1" fill-rule="evenodd" stroke="none" d="M 0 27.5 L 0 34.5 L 6.5 34.5 L 6.5 27.5 L 0 27.5 z" transform="translate(384.57143,499.798)"/><rect id="rect4186" width="7" height="7" x="391.071" y="527.298" fill="#7c7c7c" fill-opacity="1" fill-rule="evenodd" stroke="none"/><path id="rect4188" fill="#b3815a" fill-opacity="1" fill-rule="evenodd" stroke="none" d="M 0 34.5 L 0 41.5 L 6.5 41.5 L 6.5 34.5 L 0 34.5 z" transform="translate(384.57143,499.798)"/><rect id="rect4190" width="7" height="7" x="391.071" y="534.298" fill="#936a49" fill-opacity="1" fill-rule="evenodd" stroke="none"/><path id="rect4206" fill="#7f5d42" fill-opacity="1" fill-rule="evenodd" stroke="none" d="M 0 41.5 L 0 46.054688 C 0 47.131965 0.86803535 48 1.9453125 48 L 6.5 48 L 6.5 41.5 L 0 41.5 z" transform="translate(384.57143,499.798)"/><path id="rect4208" fill="#77563e" fill-opacity="1" fill-rule="evenodd" stroke="none" d="M 6.5 41.5 L 6.5 48 L 13.5 48 L 13.5 41.5 L 6.5 41.5 z" transform="translate(384.57143,499.798)"/><path id="rect4210" fill="#87bc64" fill-opacity="1" fill-rule="evenodd" stroke="none" d="M 13.5 0 L 13.5 6.5 L 20.5 6.5 L 20.5 0 L 13.5 0 z" transform="translate(384.57143,499.798)"/><rect id="rect4212" width="7" height="7" x="398.071" y="506.298" fill="#6dac43" fill-opacity="1" fill-rule="evenodd" stroke="none"/><rect id="rect4214" width="7" height="7" x="398.071" y="513.298" fill="#90bf5f" fill-opacity="1" fill-rule="evenodd" stroke="none"/><rect id="rect4216" width="7" height="7" x="398.071" y="520.298" fill="#79563a" fill-opacity="1" fill-rule="evenodd" stroke="none"/><rect id="rect4218" width="7" height="7" x="398.071" y="527.298" fill="#79563a" fill-opacity="1" fill-rule="evenodd" stroke="none"/><rect id="rect4220" width="7" height="7" x="398.071" y="534.298" fill="#7c5a3e" fill-opacity="1" fill-rule="evenodd" stroke="none"/><path id="rect4222" fill="#90694c" fill-opacity="1" fill-rule="evenodd" stroke="none" d="M 13.5 41.5 L 13.5 48 L 20.5 48 L 20.5 41.5 L 13.5 41.5 z" transform="translate(384.57143,499.798)"/><path id="rect4224" fill="#7bb058" fill-opacity="1" fill-rule="evenodd" stroke="none" d="M 20.5 0 L 20.5 6.5 L 27.5 6.5 L 27.5 0 L 20.5 0 z" transform="translate(384.57143,499.798)"/><rect id="rect4226" width="7" height="7" x="405.071" y="506.298" fill="#97be6f" fill-opacity="1" fill-rule="evenodd" stroke="none"/><rect id="rect4228" width="7" height="7" x="405.071" y="513.298" fill="#6dac43" fill-opacity="1" fill-rule="evenodd" stroke="none"/><rect id="rect4230" width="7" height="7" x="405.071" y="520.298" fill="#593d28" fill-opacity="1" fill-rule="evenodd" stroke="none"/><rect id="rect4232" width="7" height="7" x="405.071" y="527.298" fill="#c49976" fill-opacity="1" fill-rule="evenodd" stroke="none"/><rect id="rect4234" width="7" height="7" x="405.071" y="534.298" fill="#916849" fill-opacity="1" fill-rule="evenodd" stroke="none"/><path id="rect4236" fill="#876347" fill-opacity="1" fill-rule="evenodd" stroke="none" d="M 20.5 41.5 L 20.5 48 L 27.5 48 L 27.5 41.5 L 20.5 41.5 z" transform="translate(384.57143,499.798)"/><path id="rect4238" fill="#79ae54" fill-opacity="1" fill-rule="evenodd" stroke="none" d="M 27.5 0 L 27.5 6.5 L 34.5 6.5 L 34.5 0 L 27.5 0 z" transform="translate(384.57143,499.798)"/><rect id="rect4240" width="7" height="7" x="412.071" y="506.298" fill="#81b560" fill-opacity="1" fill-rule="evenodd" stroke="none"/><rect id="rect4242" width="7" height="7" x="412.071" y="513.298" fill="#62a138" fill-opacity="1" fill-rule="evenodd" stroke="none"/><rect id="rect4244" width="7" height="7" x="412.071" y="520.298" fill="#593d28" fill-opacity="1" fill-rule="evenodd" stroke="none"/><rect id="rect4246" width="7" height="7" x="412.071" y="527.298" fill="#593d28" fill-opacity="1" fill-rule="evenodd" stroke="none"/><rect id="rect4248" width="7" height="7" x="412.071" y="534.298" fill="#a17553" fill-opacity="1" fill-rule="evenodd" stroke="none"/><path id="rect4250" fill="#866247" fill-opacity="1" fill-rule="evenodd" stroke="none" d="M 27.5 41.5 L 27.5 48 L 34.5 48 L 34.5 41.5 L 27.5 41.5 z" transform="translate(384.57143,499.798)"/><path id="rect4252" fill="#7bb753" fill-opacity="1" fill-rule="evenodd" stroke="none" d="M 34.5 0 L 34.5 6.5 L 41.5 6.5 L 41.5 0 L 34.5 0 z" transform="translate(384.57143,499.798)"/><rect id="rect4254" width="7" height="7" x="419.071" y="506.298" fill="#62a138" fill-opacity="1" fill-rule="evenodd" stroke="none"/><rect id="rect4256" width="7" height="7" x="419.071" y="513.298" fill="#694f3e" fill-opacity="1" fill-rule="evenodd" stroke="none"/><rect id="rect4258" width="7" height="7" x="419.071" y="520.298" fill="#7c7c7c" fill-opacity="1" fill-rule="evenodd" stroke="none"/><rect id="rect4260" width="7" height="7" x="419.071" y="527.298" fill="#694f3e" fill-opacity="1" fill-rule="evenodd" stroke="none"/><rect id="rect4262" width="7" height="7" x="419.071" y="534.298" fill="#7f5c42" fill-opacity="1" fill-rule="evenodd" stroke="none"/><path id="rect4264" fill="#876347" fill-opacity="1" fill-rule="evenodd" stroke="none" d="M 34.5 41.5 L 34.5 48 L 41.5 48 L 41.5 41.5 L 34.5 41.5 z" transform="translate(384.57143,499.798)"/><path id="rect4266" fill="#519027" fill-opacity="1" fill-rule="evenodd" stroke="none" d="M 41.5 0 L 41.5 6.5 L 48 6.5 L 48 1.9453125 C 48 0.86803535 47.131965 0 46.054688 0 L 41.5 0 z" transform="translate(384.57143,499.798)"/><path id="rect4268" fill="#74b04c" fill-opacity="1" fill-rule="evenodd" stroke="none" d="M 41.5 6.5 L 41.5 13.5 L 48 13.5 L 48 6.5 L 41.5 6.5 z" transform="translate(384.57143,499.798)"/><path id="rect4270" fill="#519027" fill-opacity="1" fill-rule="evenodd" stroke="none" d="M 41.5 13.5 L 41.5 20.5 L 48 20.5 L 48 13.5 L 41.5 13.5 z" transform="translate(384.57143,499.798)"/><path id="rect4272" fill="#c49976" fill-opacity="1" fill-rule="evenodd" stroke="none" d="M 41.5 20.5 L 41.5 27.5 L 48 27.5 L 48 20.5 L 41.5 20.5 z" transform="translate(384.57143,499.798)"/><path id="rect4274" fill="#79563a" fill-opacity="1" fill-rule="evenodd" stroke="none" d="M 41.5 27.5 L 41.5 34.5 L 48 34.5 L 48 27.5 L 41.5 27.5 z" transform="translate(384.57143,499.798)"/><path id="rect4276" fill="#7f5d42" fill-opacity="1" fill-rule="evenodd" stroke="none" d="M 41.5 34.5 L 41.5 41.5 L 48 41.5 L 48 34.5 L 41.5 34.5 z" transform="translate(384.57143,499.798)"/><path id="rect4278" fill="#7f5c42" fill-opacity="1" fill-rule="evenodd" stroke="none" d="M 41.5 41.5 L 41.5 48 L 46.054688 48 C 47.131965 48 48 47.131965 48 46.054688 L 48 41.5 L 41.5 41.5 z" transform="translate(384.57143,499.798)"/><g id="g4280"><path id="rect846" fill="#000" fill-opacity="1" stroke="none" d="m 384.57143,544.79799 0,1.0625 c 0,1.0773 0.86022,1.9375 1.9375,1.9375 l 44.125,0 c 1.07728,0 1.9375,-0.8602 1.9375,-1.9375 l 0,-1.0625 c 0,1.0773 -0.86022,1.9375 -1.9375,1.9375 l -44.125,0 c -1.07728,0 -1.9375,-0.8602 -1.9375,-1.9375 z"/><path id="path7515" fill="#fff" fill-opacity=".537" stroke="none" d="m 387.10268,500.45429 c -0.91709,0 -1.67115,0.6395 -1.84375,1.5 0.33561,-0.2799 0.77451,-0.4375 1.25,-0.4375 l 44.125,0 c 0.47549,0 0.91439,0.1576 1.25,0.4375 -0.1726,-0.8605 -0.92666,-1.5 -1.84375,-1.5 l -42.9375,0 z"/><path id="rect4280" fill="#000" fill-opacity=".392" stroke="none" d="m 386.50893,499.79799 c -1.07728,0 -1.9375,0.8602 -1.9375,1.9375 l 0,43.0625 c 0,0.7934 0.48002,1.449 1.15625,1.75 -0.30934,-0.3333 -0.5,-0.7824 -0.5,-1.2812 l 0,-42.9375 c 0,-1.0482 0.8269,-1.875 1.875,-1.875 l 42.9375,0 c 1.0481,0 1.875,0.8268 1.875,1.875 l 0,42.9375 c 0,0.4988 -0.19066,0.9479 -0.5,1.2812 0.67623,-0.301 1.15625,-0.9566 1.15625,-1.75 l 0,-43.0625 c 0,-1.0773 -0.86022,-1.9375 -1.9375,-1.9375 l -44.125,0 z"/></g></g></svg>