<svg xmlns="http://www.w3.org/2000/svg" xmlns:svg="http://www.w3.org/2000/svg" xmlns:xlink="http://www.w3.org/1999/xlink" id="svg2" width="48" height="48" version="1.1"><defs id="defs4"><linearGradient id="linearGradient4166"><stop id="stop4168" offset="0" stop-color="#efefef" stop-opacity="1"/><stop id="stop4170" offset="1" stop-color="#fbfbfb" stop-opacity="1"/></linearGradient><linearGradient id="linearGradient1479"><stop id="stop1481" offset="0" stop-color="#1b9bf9" stop-opacity="1"/><stop id="stop1483" offset="1" stop-color="#6bc0f7" stop-opacity="1"/></linearGradient><linearGradient id="linearGradient5063" x1="23.646" x2="23.646" y1="-1052.372" y2="-1004.362" gradientTransform="translate(2.0727539e-7,2.5507812e-5)" gradientUnits="userSpaceOnUse" xlink:href="#linearGradient4166"/><linearGradient id="linearGradient4180" x1="36.802" x2="36.802" y1="41.361" y2="6.936" gradientTransform="matrix(0.8912077,0,0,0.8912077,0.48644521,1006.7346)" gradientUnits="userSpaceOnUse" xlink:href="#linearGradient1479"/></defs><metadata id="metadata7"/><g id="layer1" transform="translate(0,-1004.3622)"><rect id="rect2991-1-0" width="48" height="48" x="0" y="-1052.362" fill="url(#linearGradient5063)" fill-opacity="1" stroke="none" ry="1.945" transform="scale(1,-1)"/><circle id="path4192" cx="24" cy="1029.562" r="15.4" fill="#000" fill-opacity=".059" stroke="none"/><circle id="path4190" cx="24" cy="1029.162" r="15.4" fill="#000" fill-opacity=".118" stroke="none"/><circle id="path4186" cx="24" cy="1028.762" r="15.4" fill="#000" fill-opacity=".235" stroke="none"/><path id="rect846-2" fill="#000" fill-opacity="1" stroke="none" d="m 2.0727539e-7,1049.3622 0,1.0625 c 0,1.0773 0.86022300272461,1.9375 1.93749999272461,1.9375 l 44.1249998,0 c 1.077277,0 1.937496,-0.8602 1.937496,-1.9375 l 0,-1.0625 c 0,1.0773 -0.860219,1.9375 -1.937496,1.9375 l -44.1249998,0 c -1.07727699,0 -1.93749999272461,-0.8602 -1.93749999272461,-1.9375 z"/><path id="path7515-9" fill="#fff" fill-opacity=".537" stroke="none" d="m 2.5312502,1005.0185 c -0.917088,0 -1.67114599,0.6395 -1.84374999,1.5 0.33561199,-0.2799 0.77451199,-0.4375 1.24999999,-0.4375 l 44.1249998,0 c 0.475488,0 0.914388,0.1576 1.249996,0.4375 -0.172599,-0.8605 -0.926658,-1.5 -1.843746,-1.5 l -42.9374998,0 z"/><path id="rect4280-4" fill="#000" fill-opacity=".392" stroke="none" d="m 1.9375002,1004.3622 c -1.07727699,0 -1.93749999272461,0.8602 -1.93749999272461,1.9375 l 0,43.0625 c 0,0.7934 0.48002400272461,1.449 1.15624999272461,1.75 -0.30934099,-0.3333 -0.49999999,-0.7824 -0.49999999,-1.2812 l 0,-42.9375 c 0,-1.0482 0.82689899,-1.875 1.87499999,-1.875 l 42.9374998,0 c 1.048101,0 1.874996,0.8268 1.874996,1.875 l 0,42.9375 c 0,0.4988 -0.190654,0.9479 -0.499996,1.2812 0.676226,-0.301 1.156246,-0.9566 1.156246,-1.75 l 0,-43.0625 c 0,-1.0773 -0.860219,-1.9375 -1.937496,-1.9375 l -44.1249998,0 z"/><circle id="path4172" cx="24" cy="1028.362" r="15.4" fill="url(#linearGradient4180)" fill-opacity="1" stroke="none"/><path id="path4178" fill="#000" fill-opacity=".059" stroke="none" d="m 72.342234,1031.1574 0,-10.2698 8.893906,5.1349 z" transform="matrix(1.2368019,0,0,1.6553392,-69.973013,-668.853)"/><path id="path4176" fill="#000" fill-opacity=".118" stroke="none" d="m 72.342234,1031.1574 0,-10.2698 8.893906,5.1349 z" transform="matrix(1.2368019,0,0,1.6553392,-69.973013,-669.253)"/><path id="path4195" fill="#055d9b" fill-opacity=".314" stroke="none" d="m 8.6191412,1027.9618 c -0.0035,0.1344 -0.01953,0.2652 -0.01953,0.4004 0,8.5052 6.8952058,15.4004 15.4003908,15.4004 8.505185,0 15.400391,-6.8952 15.400391,-15.4004 0,-0.1352 -0.01607,-0.266 -0.01953,-0.4004 -0.214125,8.3185 -7.010694,15 -15.380859,15 -8.370165,0 -15.1667338,-6.6815 -15.3808588,-15 z"/><path id="path4200" fill="#fff" fill-opacity=".235" stroke="none" d="m 24,1012.9618 c -8.505185,0 -15.4003908,6.8952 -15.4003908,15.4004 0,0.067 0.0089,0.1322 0.0098,0.1992 0.108907,-8.4114 6.9533588,-15.1992 15.3906208,-15.1992 8.437262,0 15.281714,6.7878 15.390625,15.1992 8.6e-4,-0.067 0.0098,-0.1319 0.0098,-0.1992 -3.4e-5,-8.5052 -6.89524,-15.4004 -15.400425,-15.4004 z"/><path id="path4174" fill="#000" fill-opacity=".235" stroke="none" d="m 72.342234,1031.1574 0,-10.2698 8.893906,5.1349 z" transform="matrix(1.2368019,0,0,1.6553392,-69.973013,-669.653)"/><path id="path4153" fill="#fff" fill-opacity="1" stroke="none" d="m 72.342234,1031.1574 0,-10.2698 8.893906,5.1349 z" transform="matrix(1.2368019,0,0,1.6553392,-69.973013,-670.053)"/></g></svg>