<svg xmlns="http://www.w3.org/2000/svg" xmlns:svg="http://www.w3.org/2000/svg" xmlns:xlink="http://www.w3.org/1999/xlink" id="svg5453" width="48" height="48" version="1.1"><defs id="defs5455"><linearGradient id="linearGradient4460"><stop id="stop4068" offset="0" stop-color="#891410"/><stop id="stop4070" offset="1" stop-color="#b81b1a"/></linearGradient><linearGradient id="linearGradient4237" x1="-421.088" x2="-421.088" y1="-547.798" y2="-499.79" gradientUnits="userSpaceOnUse" xlink:href="#linearGradient4460"/><linearGradient id="linearGradient4166"><stop id="stop4168" offset="0" stop-color="#efefef" stop-opacity="1"/><stop id="stop4170" offset="1" stop-color="#fbfbfb" stop-opacity="1"/></linearGradient><linearGradient id="linearGradient4323" x1="400.509" x2="400.509" y1="539.235" y2="508.423" gradientUnits="userSpaceOnUse" xlink:href="#linearGradient4166"/><linearGradient id="linearGradient4327" x1="400.509" x2="400.509" y1="539.235" y2="508.423" gradientTransform="translate(20,0)" gradientUnits="userSpaceOnUse" xlink:href="#linearGradient4166"/><linearGradient id="linearGradient4335" x1="409.196" x2="409.196" y1="539.298" y2="519.423" gradientUnits="userSpaceOnUse" xlink:href="#linearGradient908"/><linearGradient id="linearGradient908"><stop id="stop910" offset="0" stop-color="#adadad" stop-opacity="1"/><stop id="stop912" offset="1" stop-color="#cacaca" stop-opacity="1"/></linearGradient></defs><metadata id="metadata5458"/><g id="layer1" transform="translate(-384.57143,-499.798)"><rect id="rect2991-1-7" width="48" height="48" x="-432.571" y="-547.798" fill="url(#linearGradient4237)" fill-opacity="1" stroke="none" ry="1.945" transform="scale(-1,-1)"/><path id="path4439" fill="#000" fill-opacity=".059" stroke="none" d="m 398.5519,509.598 c -1.374,0 -2.48047,1.10643 -2.48047,2.48041 l 0,25.83918 c 0,1.37397 1.10647,2.48041 2.48047,2.48041 l 0.0391,0 c 1.374,0 2.48047,-1.10644 2.48047,-2.48041 l 0,-25.83918 c 0,-1.37398 -1.10647,-2.48041 -2.48047,-2.48041 l -0.0391,0 z m 20,0 c -1.374,0 -2.48047,1.10643 -2.48047,2.48041 l 0,25.83918 c 0,1.37397 1.10647,2.48041 2.48047,2.48041 l 0.0391,0 c 1.374,0 2.48047,-1.10644 2.48047,-2.48041 l 0,-25.83918 c 0,-1.37398 -1.10647,-2.48041 -2.48047,-2.48041 l -0.0391,0 z m -9.98047,10.80051 c -1.385,0 -2.5,1.11497 -2.5,2.49993 l 0,14.99962 c 0,1.38497 1.115,2.49994 2.5,2.49994 1.385,0 2.5,-1.11497 2.5,-2.49994 l 0,-14.99962 c 0,-1.38496 -1.115,-2.49993 -2.5,-2.49993 z"/><path id="path4437" fill="#000" fill-opacity=".118" stroke="none" d="m 398.5519,509.198 c -1.374,0 -2.48047,1.10643 -2.48047,2.48041 l 0,25.83918 c 0,1.37397 1.10647,2.48041 2.48047,2.48041 l 0.0391,0 c 1.374,0 2.48047,-1.10644 2.48047,-2.48041 l 0,-25.83918 c 0,-1.37398 -1.10647,-2.48041 -2.48047,-2.48041 l -0.0391,0 z m 20,0 c -1.374,0 -2.48047,1.10643 -2.48047,2.48041 l 0,25.83918 c 0,1.37397 1.10647,2.48041 2.48047,2.48041 l 0.0391,0 c 1.374,0 2.48047,-1.10644 2.48047,-2.48041 l 0,-25.83918 c 0,-1.37398 -1.10647,-2.48041 -2.48047,-2.48041 l -0.0391,0 z m -9.98047,10.80051 c -1.385,0 -2.5,1.11497 -2.5,2.49993 l 0,14.99962 c 0,1.38497 1.115,2.49994 2.5,2.49994 1.385,0 2.5,-1.11497 2.5,-2.49994 l 0,-14.99962 c 0,-1.38496 -1.115,-2.49993 -2.5,-2.49993 z"/><path id="rect4428" fill="#000" fill-opacity=".235" stroke="none" d="m 398.5519,508.798 c -1.374,0 -2.48047,1.10643 -2.48047,2.48041 l 0,25.83918 c 0,1.37397 1.10647,2.48041 2.48047,2.48041 l 0.0391,0 c 1.374,0 2.48047,-1.10644 2.48047,-2.48041 l 0,-25.83918 c 0,-1.37398 -1.10647,-2.48041 -2.48047,-2.48041 l -0.0391,0 z m 20,0 c -1.374,0 -2.48047,1.10643 -2.48047,2.48041 l 0,25.83918 c 0,1.37397 1.10647,2.48041 2.48047,2.48041 l 0.0391,0 c 1.374,0 2.48047,-1.10644 2.48047,-2.48041 l 0,-25.83918 c 0,-1.37398 -1.10647,-2.48041 -2.48047,-2.48041 l -0.0391,0 z m -9.98047,10.80051 c -1.385,0 -2.5,1.11497 -2.5,2.49993 l 0,14.99962 c 0,1.38497 1.115,2.49994 2.5,2.49994 1.385,0 2.5,-1.11497 2.5,-2.49994 l 0,-14.99962 c 0,-1.38496 -1.115,-2.49993 -2.5,-2.49993 z"/><path id="rect846" fill="#000" fill-opacity="1" stroke="none" d="m 384.57143,544.79799 0,1.0625 c 0,1.0773 0.86022,1.9375 1.9375,1.9375 l 44.125,0 c 1.07728,0 1.9375,-0.8602 1.9375,-1.9375 l 0,-1.0625 c 0,1.0773 -0.86022,1.9375 -1.9375,1.9375 l -44.125,0 C 385.43165,546.73549 384.57143,545.87529 384.57143,544.79799 Z"/><path id="path7515" fill="#fff" fill-opacity=".537" stroke="none" d="m 387.10268,500.45429 c -0.91709,0 -1.67115,0.6395 -1.84375,1.5 0.33561,-0.2799 0.77451,-0.4375 1.25,-0.4375 l 44.125,0 c 0.47549,0 0.91439,0.1576 1.25,0.4375 -0.1726,-0.8605 -0.92666,-1.5 -1.84375,-1.5 L 387.10268,500.45429 Z"/><path id="rect4280" fill="#000" fill-opacity=".392" stroke="none" d="m 386.50893,499.79799 c -1.07728,0 -1.9375,0.8602 -1.9375,1.9375 l 0,43.0625 c 0,0.7934 0.48002,1.449 1.15625,1.75 -0.30934,-0.3333 -0.5,-0.7824 -0.5,-1.2812 l 0,-42.9375 c 0,-1.0482 0.8269,-1.875 1.875,-1.875 l 42.9375,0 c 1.0481,0 1.875,0.8268 1.875,1.875 l 0,42.9375 c 0,0.4988 -0.19066,0.9479 -0.5,1.2812 0.67623,-0.301 1.15625,-0.9566 1.15625,-1.75 l 0,-43.0625 c 0,-1.0773 -0.86022,-1.9375 -1.9375,-1.9375 L 386.50893,499.79799 Z"/><rect id="rect4325" width="5" height="30.8" x="416.071" y="508.398" fill="url(#linearGradient4327)" fill-opacity="1" stroke="none" ry="2.48"/><rect id="rect4262" width="5" height="30.8" x="396.071" y="508.398" fill="url(#linearGradient4323)" fill-opacity="1" stroke="none" ry="2.48"/><rect id="rect4264" width="5" height="20" x="406.071" y="519.198" fill="url(#linearGradient4335)" fill-opacity="1" stroke="none" ry="2.5"/><path id="rect4441" fill="#8f1511" fill-opacity=".314" stroke="none" d="M 21.5 36.099609 L 21.5 36.900391 C 21.5 38.285361 22.615 39.400391 24 39.400391 C 25.385 39.400391 26.5 38.285361 26.5 36.900391 L 26.5 36.099609 C 26.5 37.484579 25.385 38.599609 24 38.599609 C 22.615 38.599609 21.5 37.484579 21.5 36.099609 z M 11.5 36.119141 L 11.5 36.919922 C 11.5 38.293892 12.606469 39.400391 13.980469 39.400391 L 14.019531 39.400391 C 15.393531 39.400391 16.5 38.293892 16.5 36.919922 L 16.5 36.119141 C 16.5 37.493111 15.393531 38.599609 14.019531 38.599609 L 13.980469 38.599609 C 12.606469 38.599609 11.5 37.493111 11.5 36.119141 z M 31.5 36.119141 L 31.5 36.919922 C 31.5 38.293892 32.606469 39.400391 33.980469 39.400391 L 34.019531 39.400391 C 35.393531 39.400391 36.5 38.293892 36.5 36.919922 L 36.5 36.119141 C 36.5 37.493111 35.393531 38.599609 34.019531 38.599609 L 33.980469 38.599609 C 32.606469 38.599609 31.5 37.493111 31.5 36.119141 z" transform="translate(384.57143,499.798)"/><path id="rect4453" fill="#fff" fill-opacity=".235" stroke="none" d="M 13.980469 8.5996094 C 12.606466 8.5996094 11.5 9.7060753 11.5 11.080078 L 11.5 11.480469 C 11.5 10.106469 12.606469 9 13.980469 9 L 14.019531 9 C 15.393531 9 16.5 10.106469 16.5 11.480469 L 16.5 11.080078 C 16.5 9.7060753 15.393534 8.5996094 14.019531 8.5996094 L 13.980469 8.5996094 z M 33.980469 8.5996094 C 32.606466 8.5996094 31.5 9.7060753 31.5 11.080078 L 31.5 11.480469 C 31.5 10.106469 32.606469 9 33.980469 9 L 34.019531 9 C 35.393531 9 36.5 10.106469 36.5 11.480469 L 36.5 11.080078 C 36.5 9.7060753 35.393534 8.5996094 34.019531 8.5996094 L 33.980469 8.5996094 z M 24 19.400391 C 22.615 19.400391 21.5 20.515391 21.5 21.900391 L 21.5 22.300781 C 21.5 20.915781 22.615 19.800781 24 19.800781 C 25.385 19.800781 26.5 20.915781 26.5 22.300781 L 26.5 21.900391 C 26.5 20.515391 25.385 19.400391 24 19.400391 z" transform="translate(384.57143,499.798)"/></g></svg>