<svg xmlns="http://www.w3.org/2000/svg" xmlns:svg="http://www.w3.org/2000/svg" xmlns:xlink="http://www.w3.org/1999/xlink" id="svg2" width="48" height="48" version="1.1" viewBox="0 0 13.547 13.547"><metadata id="metadata94"/><defs id="defs4"><linearGradient id="linearGradient4644" x1="415.793" x2="415.793" y1="-547.8" y2="-499.793" gradientTransform="matrix(0.28222223,0,0,0.28222223,-108.53461,141.0541)" gradientUnits="userSpaceOnUse" xlink:href="#linearGradient4142"/><linearGradient id="linearGradient4391" x1="7.321" x2="7.321" y1="11.096" y2="2.397" gradientTransform="matrix(3.543307,0,0,3.543307,6.1568928e-6,-3.6253799e-6)" gradientUnits="userSpaceOnUse" xlink:href="#linearGradient4167"/><linearGradient id="linearGradient4167"><stop id="stop4169" offset="0" stop-color="#afc2dc" stop-opacity="1"/><stop id="stop4171" offset="1" stop-color="#fefeff" stop-opacity="1"/></linearGradient><linearGradient id="linearGradient4142"><stop id="stop4144" offset="0" stop-color="#0a79d6" stop-opacity=".998"/><stop id="stop4146" offset="1" stop-color="#2995ed" stop-opacity="1"/></linearGradient></defs><rect id="rect2991-1-7" width="13.547" height="13.547" x="0" y="-13.547" fill="url(#linearGradient4644)" fill-opacity="1" stroke="none" ry=".549" transform="scale(1,-1)"/><path id="path4434" fill="#000" fill-opacity=".059" fill-rule="evenodd" stroke="none" stroke-linecap="butt" stroke-linejoin="miter" stroke-opacity="1" stroke-width=".282" d="m 7.4766844,2.7655586 -5.1665411,0.91171 0,6.8802674 5.1665411,0.900686 0,-8.6926634 z m 0.1967837,0.9999045 0,0.019293 0,0.5120789 0,0.3671095 c 0,-0.00683 0.00529,-0.012127 0.012127,-0.012127 l 2.9831769,0 c 0.0068,0 0.01268,0.00529 0.01268,0.012127 l 0,0.358841 c 0,0.00683 -0.0058,0.012127 -0.01268,0.012127 l -2.9831769,0 c -0.00683,0 -0.012127,-0.00529 -0.012127,-0.012127 l 0,0.7700479 c 0,-0.00683 0.00529,-0.012127 0.012127,-0.012127 l 2.9831769,0 c 0.0068,0 0.01268,0.00529 0.01268,0.012127 l 0,0.358841 c 0,0.00683 -0.0058,0.012127 -0.01268,0.012127 l -2.9831769,0 c -0.00683,0 -0.012127,-0.00529 -0.012127,-0.012127 l 0,0.7320139 0,0.038034 c 0,-0.00683 0.00529,-0.012127 0.012127,-0.012127 l 2.9831769,0 c 0.0068,0 0.01268,0.00529 0.01268,0.012127 l 0,0.3588411 c 0,0.00683 -0.0058,0.012127 -0.01268,0.012127 l -2.9831769,0 c -0.00683,0 -0.012127,-0.00529 -0.012127,-0.012127 l 0,0.2700957 0,0.2783636 0,0.2215885 c 0,-0.00683 0.00529,-0.012127 0.012127,-0.012127 l 2.9831769,0 c 0.0068,0 0.01268,0.00529 0.01268,0.012127 l 0,0.3588411 c 0,0.00683 -0.0058,0.012127 -0.01268,0.012127 l -2.9831769,0 c -0.00683,0 -0.012127,-0.00529 -0.012127,-0.012127 l 0,0.060634 0,0.2574175 0,0.2789152 0,0.1355988 0,0.037483 c 0,-0.00683 0.00529,-0.012127 0.012127,-0.012127 l 2.9831769,0 c 0.0068,0 0.01268,0.00529 0.01268,0.012127 l 0,0.3588411 c 0,0.00683 -0.0058,0.012127 -0.01268,0.012127 l -2.9831769,0 c -0.00683,0 -0.012127,-0.00529 -0.012127,-0.012127 l 0,0.3665581 0,0.512078 0,0.01984 0.019292,0 0.5390888,0 0.8869053,0 0.5583809,0 0.1344967,0 1.4452872,0 c 0.01085,0 0.01984,-0.009 0.01984,-0.01984 l 0,-6.6322213 c 0,-0.010847 -0.009,-0.019293 -0.01984,-0.019293 l -1.4452872,0 -0.1344967,0 -0.5583809,0 -0.8869053,0 -0.5390888,0 -0.019292,0 z m -4.4433466,2.0654039 0.3307294,0 0.5446006,1.9650824 c 0.022629,0.08218 0.03704,0.1680913 0.042995,0.2574177 l 0.00882,0 c 0.00595,-0.063124 0.024705,-0.1490353 0.055673,-0.2574177 l 0.5660983,-1.9650824 0.2877343,0 0.542947,1.9794139 c 0.019056,0.067888 0.033467,0.1480707 0.042995,0.2397788 l 0.00717,0 c 0.00477,-0.061933 0.020565,-0.1445175 0.047955,-0.2469444 l 0.5236546,-1.9722483 0.325217,0 -0.7237456,2.5620484 -0.3516754,0 L 4.9543232,6.5204373 C 4.9316935,6.4406395 4.9177458,6.3538025 4.9129819,6.2597125 l -0.00717,0 c -0.00715,0.088135 -0.022481,0.1740467 -0.046302,0.2574174 l -0.5308202,1.8757855 -0.3483681,0 L 3.2301174,5.830867 Z"/><path id="path4432" fill="#000" fill-opacity=".118" fill-rule="evenodd" stroke="none" stroke-linecap="butt" stroke-linejoin="miter" stroke-opacity="1" stroke-width=".282" d="m 7.4766844,2.6526698 -5.1665411,0.91171 0,6.8802682 5.1665411,0.900686 0,-8.6926642 z m 0.1967837,0.9999045 0,0.019293 0,0.5120789 0,0.3671095 c 0,-0.00683 0.00529,-0.012127 0.012127,-0.012127 l 2.9831769,0 c 0.0068,0 0.01268,0.00529 0.01268,0.012127 l 0,0.358841 c 0,0.00683 -0.0058,0.012127 -0.01268,0.012127 l -2.9831769,0 c -0.00683,0 -0.012127,-0.00529 -0.012127,-0.012127 l 0,0.7700479 c 0,-0.00683 0.00529,-0.012127 0.012127,-0.012127 l 2.9831769,0 c 0.0068,0 0.01268,0.00529 0.01268,0.012127 l 0,0.358841 c 0,0.00683 -0.0058,0.012127 -0.01268,0.012127 l -2.9831769,0 c -0.00683,0 -0.012127,-0.00529 -0.012127,-0.012127 l 0,0.7320139 0,0.038034 c 0,-0.00683 0.00529,-0.012127 0.012127,-0.012127 l 2.9831769,0 c 0.0068,0 0.01268,0.00529 0.01268,0.012127 l 0,0.3588411 c 0,0.00683 -0.0058,0.012127 -0.01268,0.012127 l -2.9831769,0 c -0.00683,0 -0.012127,-0.00529 -0.012127,-0.012127 l 0,0.2700957 0,0.2783636 0,0.2215885 c 0,-0.00683 0.00529,-0.012127 0.012127,-0.012127 l 2.9831769,0 c 0.0068,0 0.01268,0.00529 0.01268,0.012127 l 0,0.3588411 c 0,0.00683 -0.0058,0.012127 -0.01268,0.012127 l -2.9831769,0 c -0.00683,0 -0.012127,-0.00529 -0.012127,-0.012127 l 0,0.060634 0,0.2574175 0,0.2789152 0,0.1355988 0,0.037483 c 0,-0.00683 0.00529,-0.012127 0.012127,-0.012127 l 2.9831769,0 c 0.0068,0 0.01268,0.00529 0.01268,0.012127 l 0,0.3588411 c 0,0.00683 -0.0058,0.012127 -0.01268,0.012127 l -2.9831769,0 c -0.00683,0 -0.012127,-0.00529 -0.012127,-0.012127 l 0,0.3665581 0,0.5120788 0,0.01984 0.019292,0 0.5390888,0 0.8869053,0 0.5583809,0 0.1344967,0 1.4452872,0 c 0.01085,0 0.01984,-0.009 0.01984,-0.01984 l 0,-6.6322221 c 0,-0.010847 -0.009,-0.019293 -0.01984,-0.019293 l -1.4452872,0 -0.1344967,0 -0.5583809,0 -0.8869053,0 -0.5390888,0 -0.019292,0 z m -4.4433466,2.0654039 0.3307294,0 0.5446006,1.9650824 c 0.022629,0.08218 0.03704,0.1680913 0.042995,0.2574177 l 0.00882,0 c 0.00595,-0.063124 0.024705,-0.1490353 0.055673,-0.2574177 l 0.5660983,-1.9650824 0.2877343,0 0.542947,1.9794139 c 0.019056,0.067888 0.033467,0.1480707 0.042995,0.2397788 l 0.00717,0 c 0.00477,-0.061933 0.020565,-0.1445175 0.047955,-0.2469444 l 0.5236546,-1.9722483 0.325217,0 -0.7237456,2.5620484 -0.3516754,0 L 4.9543232,6.4075485 C 4.9316935,6.3277507 4.9177458,6.2409137 4.9129819,6.1468237 l -0.00717,0 c -0.00715,0.088135 -0.022481,0.1740467 -0.046302,0.2574174 l -0.5308202,1.8757855 -0.3483681,0 -0.7502042,-2.5620484 z"/><path id="path4426" fill="#000" fill-opacity=".235" fill-rule="evenodd" stroke="none" stroke-linecap="butt" stroke-linejoin="miter" stroke-opacity="1" stroke-width=".282" d="m 7.4766844,2.5398898 -5.1665411,0.91171 0,6.8802682 5.1665411,0.900686 0,-8.6926642 z m 0.1967837,0.9999045 0,0.019293 0,0.5120789 0,0.3671094 c 0,-0.00683 0.00529,-0.012127 0.012127,-0.012127 l 2.9831769,0 c 0.0068,0 0.01268,0.00529 0.01268,0.012127 l 0,0.358841 c 0,0.00683 -0.0058,0.012127 -0.01268,0.012127 l -2.9831769,0 c -0.00683,0 -0.012127,-0.00529 -0.012127,-0.012127 l 0,0.7700479 c 0,-0.00683 0.00529,-0.012127 0.012127,-0.012127 l 2.9831769,0 c 0.0068,0 0.01268,0.00529 0.01268,0.012127 l 0,0.358841 c 0,0.00683 -0.0058,0.012127 -0.01268,0.012127 l -2.9831769,0 c -0.00683,0 -0.012127,-0.00529 -0.012127,-0.012127 l 0,0.7320139 0,0.038034 c 0,-0.00683 0.00529,-0.012127 0.012127,-0.012127 l 2.9831769,0 c 0.0068,0 0.01268,0.00529 0.01268,0.012127 l 0,0.3588411 c 0,0.00683 -0.0058,0.012127 -0.01268,0.012127 l -2.9831769,0 c -0.00683,0 -0.012127,-0.00529 -0.012127,-0.012127 l 0,0.2700957 0,0.2783636 0,0.2215885 c 0,-0.00683 0.00529,-0.012127 0.012127,-0.012127 l 2.9831769,0 c 0.0068,0 0.01268,0.00529 0.01268,0.012127 l 0,0.3588411 c 0,0.00683 -0.0058,0.012127 -0.01268,0.012127 l -2.9831769,0 c -0.00683,0 -0.012127,-0.00529 -0.012127,-0.012127 l 0,0.060634 0,0.2574175 0,0.2789151 0,0.1355988 0,0.037483 c 0,-0.00683 0.00529,-0.012127 0.012127,-0.012127 l 2.9831769,0 c 0.0068,0 0.01268,0.00529 0.01268,0.012127 l 0,0.3588411 c 0,0.00683 -0.0058,0.012127 -0.01268,0.012127 l -2.9831769,0 c -0.00683,0 -0.012127,-0.00529 -0.012127,-0.012127 l 0,0.3665581 0,0.512079 0,0.01984 0.019292,0 0.5390888,0 0.8869053,0 0.5583809,0 0.1344967,0 1.4452872,0 c 0.01085,0 0.01984,-0.009 0.01984,-0.01984 l 0,-6.6322221 c 0,-0.010847 -0.009,-0.019293 -0.01984,-0.019293 l -1.4452872,0 -0.1344967,0 -0.5583809,0 -0.8869053,0 -0.5390888,0 -0.019292,0 z m -4.4433466,2.0654038 0.3307294,0 0.5446006,1.9650824 c 0.022629,0.08218 0.03704,0.1680913 0.042995,0.2574177 l 0.00882,0 c 0.00595,-0.063124 0.024705,-0.1490353 0.055673,-0.2574177 l 0.5660983,-1.9650824 0.2877343,0 0.542947,1.9794139 c 0.019056,0.067888 0.033467,0.1480707 0.042995,0.2397788 l 0.00717,0 c 0.00477,-0.061933 0.020565,-0.1445175 0.047955,-0.2469444 l 0.5236546,-1.9722483 0.325217,0 -0.7237456,2.5620484 -0.3516754,0 L 4.9543232,6.2947684 C 4.9316935,6.2149706 4.9177458,6.1281336 4.9129819,6.0340436 l -0.00717,0 c -0.00715,0.088135 -0.022481,0.1740467 -0.046302,0.2574174 l -0.5308202,1.8757855 -0.3483681,0 -0.7502042,-2.5620484 z"/><path id="rect846" fill="#000" fill-opacity="1" stroke="none" d="m -1.6934991e-6,12.700003 0,0.299861 c 0,0.304038 0.2427732134991,0.546805 0.5468055734991,0.546805 l 12.45305612,0 c 0.304032,0 0.546806,-0.242767 0.546806,-0.546805 l 0,-0.299861 c 0,0.304038 -0.242774,0.546805 -0.546806,0.546805 l -12.45305612,0 c -0.30403236,0 -0.5468055734991,-0.242767 -0.5468055734991,-0.546805 z"/><path id="path7515" fill="#fff" fill-opacity=".537" stroke="none" d="m 0.71437333,0.18522472 c -0.25882319,0 -0.47163568,0.18048111 -0.52034724,0.42333334 0.0947166,-0.078994 0.21858394,-0.12347222 0.35277779,-0.12347222 l 12.45305612,0 c 0.134194,0 0.258061,0.0444782 0.352778,0.12347222 -0.04871,-0.24285223 -0.261524,-0.42333334 -0.520347,-0.42333334 l -12.11791767,0 z"/><path id="rect4280" fill="#000" fill-opacity=".392" stroke="none" d="M 0.54680388,2.2641549e-6 C 0.24277152,2.2641549e-6 -1.6934991e-6,0.24276983 -1.6934991e-6,0.54680784 l 0,12.15319516 c 0,0.223915 0.1354723134991,0.40894 0.3263194534991,0.493889 -0.0873026,-0.09406 -0.14111111,-0.220811 -0.14111111,-0.361584 l 0,-12.1179166 c 0,-0.29582534 0.23336956,-0.52916668 0.52916668,-0.52916668 l 12.11791767,0 c 0.295797,0 0.529166,0.23334134 0.529166,0.52916668 l 0,12.1179166 c 0,0.140773 -0.05381,0.267519 -0.141111,0.361584 0.190847,-0.08495 0.32632,-0.269974 0.32632,-0.493889 l 0,-12.15319516 C 13.546666,0.24276983 13.303892,2.2641549e-6 12.99986,2.2641549e-6 l -12.45305612,0 z"/><path id="path4279" fill="url(#linearGradient4391)" fill-opacity="1" fill-rule="evenodd" stroke="none" stroke-linecap="butt" stroke-linejoin="miter" stroke-opacity="1" stroke-width=".282" d="M 26.492188 8.5996094 L 8.1855469 11.830078 L 8.1855469 36.208984 L 26.492188 39.400391 L 26.492188 8.5996094 z M 27.189453 12.142578 L 27.189453 12.210938 L 27.189453 14.025391 L 27.189453 15.326172 C 27.189453 15.301956 27.208206 15.283203 27.232422 15.283203 L 37.802734 15.283203 C 37.82695 15.283203 37.847656 15.301956 37.847656 15.326172 L 37.847656 16.597656 C 37.847656 16.621872 37.82695 16.640625 37.802734 16.640625 L 27.232422 16.640625 C 27.208206 16.640625 27.189453 16.621872 27.189453 16.597656 L 27.189453 19.326172 C 27.189453 19.301956 27.208206 19.283203 27.232422 19.283203 L 37.802734 19.283203 C 37.82695 19.283203 37.847656 19.301956 37.847656 19.326172 L 37.847656 20.597656 C 37.847656 20.621872 37.82695 20.640625 37.802734 20.640625 L 27.232422 20.640625 C 27.208206 20.640625 27.189453 20.621872 27.189453 20.597656 L 27.189453 23.191406 L 27.189453 23.326172 C 27.189453 23.301956 27.208206 23.283203 27.232422 23.283203 L 37.802734 23.283203 C 37.82695 23.283203 37.847656 23.301956 37.847656 23.326172 L 37.847656 24.597656 C 37.847656 24.621872 37.82695 24.640625 37.802734 24.640625 L 27.232422 24.640625 C 27.208206 24.640625 27.189453 24.621872 27.189453 24.597656 L 27.189453 25.554688 L 27.189453 26.541016 L 27.189453 27.326172 C 27.189453 27.301956 27.208206 27.283203 27.232422 27.283203 L 37.802734 27.283203 C 37.82695 27.283203 37.847656 27.301956 37.847656 27.326172 L 37.847656 28.597656 C 37.847656 28.621872 37.82695 28.640625 37.802734 28.640625 L 27.232422 28.640625 C 27.208206 28.640625 27.189453 28.621872 27.189453 28.597656 L 27.189453 28.8125 L 27.189453 29.724609 L 27.189453 30.712891 L 27.189453 31.193359 L 27.189453 31.326172 C 27.189453 31.301956 27.208206 31.283203 27.232422 31.283203 L 37.802734 31.283203 C 37.82695 31.283203 37.847656 31.301956 37.847656 31.326172 L 37.847656 32.597656 C 37.847656 32.621872 37.82695 32.640625 37.802734 32.640625 L 27.232422 32.640625 C 27.208206 32.640625 27.189453 32.621872 27.189453 32.597656 L 27.189453 33.896484 L 27.189453 35.710938 L 27.189453 35.78125 L 27.257812 35.78125 L 29.167969 35.78125 L 32.310547 35.78125 L 34.289062 35.78125 L 34.765625 35.78125 L 39.886719 35.78125 C 39.925164 35.78125 39.957031 35.749347 39.957031 35.710938 L 39.957031 12.210938 C 39.957031 12.172505 39.925128 12.142578 39.886719 12.142578 L 34.765625 12.142578 L 34.289062 12.142578 L 32.310547 12.142578 L 29.167969 12.142578 L 27.257812 12.142578 L 27.189453 12.142578 z M 11.445312 19.460938 L 12.617188 19.460938 L 14.546875 26.423828 C 14.627058 26.715017 14.67812 27.019427 14.699219 27.335938 L 14.730469 27.335938 C 14.751563 27.112271 14.818005 26.80786 14.927734 26.423828 L 16.933594 19.460938 L 17.953125 19.460938 L 19.876953 26.474609 C 19.944474 26.715156 19.995536 26.999269 20.029297 27.324219 L 20.054688 27.324219 C 20.071577 27.104772 20.127556 26.812149 20.224609 26.449219 L 22.080078 19.460938 L 23.232422 19.460938 L 20.667969 28.539062 L 19.421875 28.539062 L 17.554688 21.904297 C 17.474504 21.621549 17.425083 21.313859 17.408203 20.980469 L 17.382812 20.980469 C 17.357492 21.292758 17.303154 21.59717 17.21875 21.892578 L 15.337891 28.539062 L 14.103516 28.539062 L 11.445312 19.460938 z" transform="scale(0.28222223,0.28222223)"/><path id="path4436" fill="#0c7bd7" fill-opacity=".314" fill-rule="evenodd" stroke="none" stroke-linecap="butt" stroke-linejoin="miter" stroke-opacity="1" stroke-width=".282" d="M 27.232422 14.482422 C 27.208196 14.482422 27.189453 14.50119 27.189453 14.525391 L 27.189453 15.326172 C 27.189453 15.301956 27.208206 15.283203 27.232422 15.283203 L 37.802734 15.283203 C 37.82695 15.283203 37.847656 15.301956 37.847656 15.326172 L 37.847656 14.525391 C 37.847656 14.501165 37.826829 14.482422 37.802734 14.482422 L 27.232422 14.482422 z M 27.232422 18.482422 C 27.208196 18.482422 27.189453 18.50119 27.189453 18.525391 L 27.189453 19.326172 C 27.189453 19.301956 27.208206 19.283203 27.232422 19.283203 L 37.802734 19.283203 C 37.82695 19.283203 37.847656 19.301956 37.847656 19.326172 L 37.847656 18.525391 C 37.847656 18.501165 37.826829 18.482422 37.802734 18.482422 L 27.232422 18.482422 z M 11.445312 18.660156 L 11.679688 19.460938 L 12.617188 19.460938 L 14.546875 26.423828 C 14.627058 26.715017 14.67812 27.019426 14.699219 27.335938 L 14.730469 27.335938 C 14.751563 27.11227 14.818005 26.80786 14.927734 26.423828 L 16.933594 19.460938 L 17.953125 19.460938 L 19.876953 26.474609 C 19.944474 26.715156 19.995536 26.999269 20.029297 27.324219 L 20.054688 27.324219 C 20.071577 27.104772 20.127556 26.812149 20.224609 26.449219 L 22.080078 19.460938 L 23.005859 19.460938 L 23.232422 18.660156 L 22.080078 18.660156 L 20.224609 25.648438 C 20.127558 26.011368 20.071589 26.30399 20.054688 26.523438 L 20.029297 26.523438 C 19.995536 26.198488 19.944474 25.914376 19.876953 25.673828 L 17.953125 18.660156 L 16.933594 18.660156 L 14.927734 25.623047 C 14.818005 26.007079 14.751551 26.311489 14.730469 26.535156 L 14.699219 26.535156 C 14.678118 26.218645 14.627056 25.914236 14.546875 25.623047 L 12.617188 18.660156 L 11.445312 18.660156 z M 27.232422 22.482422 C 27.208196 22.482422 27.189453 22.50119 27.189453 22.525391 L 27.189453 23.191406 L 27.189453 23.326172 C 27.189453 23.301956 27.208206 23.283203 27.232422 23.283203 L 37.802734 23.283203 C 37.82695 23.283203 37.847656 23.301956 37.847656 23.326172 L 37.847656 22.525391 C 37.847656 22.501165 37.826829 22.482422 37.802734 22.482422 L 27.232422 22.482422 z M 27.232422 26.482422 C 27.208196 26.482422 27.189453 26.50119 27.189453 26.525391 L 27.189453 26.541016 L 27.189453 27.326172 C 27.189453 27.301956 27.208206 27.283203 27.232422 27.283203 L 37.802734 27.283203 C 37.82695 27.283203 37.847656 27.301956 37.847656 27.326172 L 37.847656 26.525391 C 37.847656 26.501165 37.826829 26.482422 37.802734 26.482422 L 27.232422 26.482422 z M 27.232422 30.482422 C 27.208196 30.482422 27.189453 30.50119 27.189453 30.525391 L 27.189453 30.712891 L 27.189453 31.193359 L 27.189453 31.326172 C 27.189453 31.301956 27.208206 31.283203 27.232422 31.283203 L 37.802734 31.283203 C 37.82695 31.283203 37.847656 31.301956 37.847656 31.326172 L 37.847656 30.525391 C 37.847656 30.501165 37.826829 30.482422 37.802734 30.482422 L 27.232422 30.482422 z M 39.957031 34.910156 C 39.957031 34.948566 39.925164 34.980469 39.886719 34.980469 L 34.765625 34.980469 L 34.289062 34.980469 L 32.310547 34.980469 L 29.167969 34.980469 L 27.257812 34.980469 L 27.189453 34.980469 L 27.189453 35.710938 L 27.189453 35.78125 L 27.257812 35.78125 L 29.167969 35.78125 L 32.310547 35.78125 L 34.289062 35.78125 L 34.765625 35.78125 L 39.886719 35.78125 C 39.925164 35.78125 39.957031 35.749347 39.957031 35.710938 L 39.957031 34.910156 z M 8.1855469 35.408203 L 8.1855469 36.208984 L 26.492188 39.400391 L 26.492188 38.599609 L 8.1855469 35.408203 z" transform="scale(0.28222223,0.28222223)"/><path id="path4441" fill="#fff" fill-opacity=".235" fill-rule="evenodd" stroke="none" stroke-linecap="butt" stroke-linejoin="miter" stroke-opacity="1" stroke-width=".282" d="M 26.492188 8.5996094 L 8.1855469 11.830078 L 8.1855469 12.230469 L 26.492188 9 L 26.492188 8.5996094 z M 27.189453 12.142578 L 27.189453 12.210938 L 27.189453 12.542969 L 27.257812 12.542969 L 29.167969 12.542969 L 32.310547 12.542969 L 34.289062 12.542969 L 34.765625 12.542969 L 39.886719 12.542969 C 39.925128 12.542969 39.957031 12.572894 39.957031 12.611328 L 39.957031 12.210938 C 39.957031 12.172504 39.925128 12.142578 39.886719 12.142578 L 34.765625 12.142578 L 34.289062 12.142578 L 32.310547 12.142578 L 29.167969 12.142578 L 27.257812 12.142578 L 27.189453 12.142578 z M 27.189453 16.597656 L 27.189453 16.998047 C 27.189453 17.022272 27.208221 17.041016 27.232422 17.041016 L 37.802734 17.041016 C 37.827112 17.041016 37.847656 17.022248 37.847656 16.998047 L 37.847656 16.597656 C 37.847656 16.621872 37.82695 16.640625 37.802734 16.640625 L 27.232422 16.640625 C 27.208206 16.640625 27.189453 16.621872 27.189453 16.597656 z M 11.445312 19.861328 L 14.103516 28.939453 L 15.337891 28.939453 L 17.21875 22.292969 C 17.303155 21.997561 17.357478 21.693149 17.382812 21.380859 L 17.408203 21.380859 C 17.425083 21.714249 17.474504 22.021939 17.554688 22.304688 L 19.421875 28.939453 L 20.667969 28.939453 L 23.232422 19.861328 L 23.119141 19.861328 L 20.667969 28.539062 L 19.421875 28.539062 L 17.554688 21.904297 C 17.474503 21.621549 17.425083 21.313859 17.408203 20.980469 L 17.382812 20.980469 C 17.357492 21.292758 17.303154 21.59717 17.21875 21.892578 L 15.337891 28.539062 L 14.103516 28.539062 L 11.5625 19.861328 L 11.445312 19.861328 z M 27.189453 20.597656 L 27.189453 20.998047 C 27.189453 21.022272 27.208221 21.041016 27.232422 21.041016 L 37.802734 21.041016 C 37.827112 21.041016 37.847656 21.022248 37.847656 20.998047 L 37.847656 20.597656 C 37.847656 20.621872 37.82695 20.640625 37.802734 20.640625 L 27.232422 20.640625 C 27.208206 20.640625 27.189453 20.621872 27.189453 20.597656 z M 27.189453 24.597656 L 27.189453 24.998047 C 27.189453 25.022272 27.208221 25.041016 27.232422 25.041016 L 37.802734 25.041016 C 37.827112 25.041016 37.847656 25.022248 37.847656 24.998047 L 37.847656 24.597656 C 37.847656 24.621872 37.82695 24.640625 37.802734 24.640625 L 27.232422 24.640625 C 27.208206 24.640625 27.189453 24.621872 27.189453 24.597656 z M 27.189453 28.597656 L 27.189453 28.8125 L 27.189453 28.998047 C 27.189453 29.022272 27.208221 29.041016 27.232422 29.041016 L 37.802734 29.041016 C 37.827112 29.041016 37.847656 29.022248 37.847656 28.998047 L 37.847656 28.597656 C 37.847656 28.621872 37.82695 28.640625 37.802734 28.640625 L 27.232422 28.640625 C 27.208206 28.640625 27.189453 28.621872 27.189453 28.597656 z M 27.189453 32.597656 L 27.189453 32.998047 C 27.189453 33.022272 27.208221 33.041016 27.232422 33.041016 L 37.802734 33.041016 C 37.827112 33.041016 37.847656 33.022248 37.847656 32.998047 L 37.847656 32.597656 C 37.847656 32.621872 37.82695 32.640625 37.802734 32.640625 L 27.232422 32.640625 C 27.208206 32.640625 27.189453 32.621872 27.189453 32.597656 z" transform="scale(0.28222223,0.28222223)"/></svg>