<svg xmlns="http://www.w3.org/2000/svg" xmlns:svg="http://www.w3.org/2000/svg" xmlns:xlink="http://www.w3.org/1999/xlink" id="svg4324" width="48" height="48" version="1.1" viewBox="0 0 13.547 13.547"><defs id="defs4326"><linearGradient id="linearGradient4224" x1="410.8" x2="410.8" y1="528.592" y2="519.133" gradientTransform="matrix(0.59415207,0,0,0.59415207,-165.09241,-96.588504)" gradientUnits="userSpaceOnUse" xlink:href="#linearGradient4167"/><linearGradient id="linearGradient4167"><stop id="stop4169" offset="0" stop-color="#afc2dc" stop-opacity="1"/><stop id="stop4171" offset="1" stop-color="#fefeff" stop-opacity="1"/></linearGradient><radialGradient id="radialGradient5328" cx="23.999" cy="15.455" r="13.649" fx="23.999" fy="15.455" gradientTransform="matrix(0.28480679,0,0,0.09593173,70.825786,207.62284)" gradientUnits="userSpaceOnUse" xlink:href="#linearGradient5322"/><linearGradient id="linearGradient5322"><stop id="stop5324" offset="0" stop-color="#000" stop-opacity="1"/><stop id="stop5326" offset="1" stop-color="#000" stop-opacity="0"/></linearGradient><linearGradient id="linearGradient5312" x1="303.674" x2="304.45" y1="578.029" y2="578.029" gradientTransform="matrix(-0.28222223,0,0,0.21681934,161.32053,82.271866)" gradientUnits="userSpaceOnUse" xlink:href="#linearGradient5109"/><linearGradient id="linearGradient5109"><stop id="stop5111" offset="0" stop-color="#000" stop-opacity="1"/><stop id="stop5113" offset="1" stop-color="#000" stop-opacity="0"/></linearGradient><linearGradient id="linearGradient5310" x1="303.674" x2="304.45" y1="578.029" y2="578.029" gradientTransform="matrix(-0.28222223,0,0,0.21681934,167.33143,82.271866)" gradientUnits="userSpaceOnUse" xlink:href="#linearGradient5109"/><linearGradient id="linearGradient5296" x1="303.674" x2="304.45" y1="578.029" y2="578.029" gradientTransform="matrix(0.28222223,0,0,0.21681934,-5.9985613,82.271866)" gradientUnits="userSpaceOnUse" xlink:href="#linearGradient5109"/><linearGradient id="linearGradient5292" x1="303.674" x2="304.45" y1="578.029" y2="578.029" gradientTransform="matrix(0.28222223,0,0,0.21681934,-12.009461,82.271866)" gradientUnits="userSpaceOnUse" xlink:href="#linearGradient5109"/><linearGradient id="linearGradient5275" x1="115.403" x2="115.403" y1="49.418" y2="48.443" gradientTransform="matrix(0.57926428,0,0,0.58250798,17.014956,180.10558)" gradientUnits="userSpaceOnUse" xlink:href="#linearGradient5109"/><linearGradient id="linearGradient5176" x1="115.403" x2="115.403" y1="49.418" y2="48.443" gradientTransform="matrix(0.57926428,0,0,0.58250798,11.003891,180.10558)" gradientUnits="userSpaceOnUse" xlink:href="#linearGradient5109"/><linearGradient id="linearGradient5255" x1="408.981" x2="408.981" y1="617.834" y2="621.194" gradientTransform="matrix(0.57926443,0,0,0.58250798,-159.14373,-151.21319)" gradientUnits="userSpaceOnUse" xlink:href="#linearGradient5142"/><linearGradient id="linearGradient5142"><stop id="stop5144" offset="0" stop-color="#292929" stop-opacity="1"/><stop id="stop5146" offset="1" stop-color="#696969" stop-opacity="1"/></linearGradient><linearGradient id="linearGradient5140" x1="402.197" x2="408.923" y1="617.763" y2="611.019" gradientTransform="matrix(0.56444446,0,0,0.44751612,-153.18385,-67.788124)" gradientUnits="userSpaceOnUse" xlink:href="#linearGradient5336"/><linearGradient id="linearGradient5336"><stop id="stop5338" offset="0" stop-color="#292929" stop-opacity="1"/><stop id="stop5340" offset="1" stop-color="#878787" stop-opacity="1"/></linearGradient><linearGradient id="linearGradient5346" x1="402.197" x2="408.923" y1="617.763" y2="611.019" gradientTransform="matrix(0.56444446,0,0,0.44751612,-147.17296,-67.788124)" gradientUnits="userSpaceOnUse" xlink:href="#linearGradient5336"/><linearGradient id="linearGradient4422" x1="410.377" x2="410.377" y1="-547.809" y2="-499.801" gradientTransform="matrix(0.28222223,0,0,0.28222223,-37.646796,-65.106386)" gradientUnits="userSpaceOnUse" xlink:href="#linearGradient4142"/><linearGradient id="linearGradient4142"><stop id="stop4144" offset="0" stop-color="#0a79d6" stop-opacity=".998"/><stop id="stop4146" offset="1" stop-color="#2995ed" stop-opacity="1"/></linearGradient></defs><metadata id="metadata4329"/><g id="layer1" transform="translate(-70.887815,-206.16048)"><rect id="rect2991-1-7-6" width="13.547" height="13.547" x="70.888" y="-219.707" fill="url(#linearGradient4422)" fill-opacity="1" stroke="none" ry=".549" transform="scale(1,-1)"/><path id="path5014" fill="#000" fill-opacity=".059" stroke="none" d="m 78.107255,212.14347 -0.944095,0.0934 0,3.85931 0.933715,-0.13487 0,-1.64954 1.244956,1.82594 0.975213,-0.31127 -1.276079,-1.75329 1.286459,-1.65994 -0.995968,-0.22827 -1.234581,1.65994 0.01039,-1.70141 z m -2.126798,0.94405 c -0.01058,0 -0.02317,0.006 -0.03113,0.0107 l -0.363116,0.37349 c -0.01544,0.016 -0.02176,0.0434 -0.01039,0.0623 l 0.42536,0.7055 c -0.07635,0.12839 -0.132625,0.26897 -0.176366,0.41489 l -0.78847,0.16607 c -0.02199,0.006 -0.04147,0.019 -0.04147,0.0416 l 0,0.51876 c 0,0.022 0.02032,0.0463 0.04147,0.0517 l 0.767721,0.18675 c 0.04088,0.16915 0.10296,0.32993 0.186743,0.47716 l -0.446108,0.67448 c -0.01236,0.019 -0.0059,0.0463 0.01039,0.0623 l 0.36311,0.36303 c 0.01544,0.0148 0.04337,0.0226 0.06225,0.0107 l 0.695093,-0.42529 c 0.136678,0.0788 0.279959,0.14461 0.435746,0.18668 l 0.165994,0.7781 c 0.0047,0.0226 0.01908,0.0416 0.04147,0.0416 l 0.518736,0 c 0.02187,0 0.04664,-0.0202 0.05187,-0.0416 l 0.186744,-0.7781 c 0.160587,-0.0434 0.316481,-0.11461 0.456486,-0.19708 l 0.684724,0.45649 c 0.01882,0.0119 0.04622,0.006 0.06225,-0.0107 l 0.36311,-0.36315 c 0.01558,-0.0161 0.02182,-0.0434 0.01039,-0.0622 l -0.248985,-0.41489 -0.083,0.0309 c -0.01183,0.006 -0.02419,0 -0.03114,-0.0107 0,0 -0.156915,-0.23772 -0.36311,-0.53955 -0.246496,0.48246 -0.748829,0.8093 -1.327955,0.8093 -0.822788,0 -1.493946,-0.66076 -1.493946,-1.48359 0,-0.60527 0.36355,-1.12587 0.881845,-1.35907 l 0,-0.38388 c -0.09433,0.0333 -0.183128,0.0669 -0.269745,0.1142 -6.5e-5,0 -0.01016,0 -0.01039,0 l -0.695099,-0.45656 c -0.0094,-0.006 -0.02055,-0.0113 -0.03113,-0.0101 z"/><path id="path5012" fill="#000" fill-opacity=".118" stroke="none" d="m 78.107255,212.03058 -0.944095,0.0934 0,3.85931 0.933715,-0.13487 0,-1.64954 1.244956,1.82594 0.975213,-0.31127 -1.276079,-1.75329 1.286459,-1.65994 -0.995968,-0.22827 -1.234581,1.65994 0.01039,-1.70141 z m -2.126798,0.94405 c -0.01058,0 -0.02317,0.006 -0.03113,0.0107 l -0.363116,0.37349 c -0.01544,0.016 -0.02176,0.0434 -0.01039,0.0623 l 0.42536,0.7055 c -0.07635,0.12839 -0.132625,0.26897 -0.176366,0.41489 l -0.78847,0.16607 c -0.02199,0.006 -0.04147,0.019 -0.04147,0.0416 l 0,0.51876 c 0,0.022 0.02032,0.0463 0.04147,0.0517 l 0.767721,0.18675 c 0.04088,0.16915 0.10296,0.32993 0.186743,0.47716 l -0.446108,0.67448 c -0.01236,0.019 -0.0059,0.0463 0.01039,0.0623 l 0.36311,0.36303 c 0.01544,0.0148 0.04337,0.0226 0.06225,0.0107 l 0.695093,-0.42529 c 0.136678,0.0788 0.279959,0.14461 0.435746,0.18668 l 0.165994,0.7781 c 0.0047,0.0226 0.01908,0.0416 0.04147,0.0416 l 0.518736,0 c 0.02187,0 0.04664,-0.0202 0.05187,-0.0416 l 0.186744,-0.7781 c 0.160587,-0.0434 0.316481,-0.11461 0.456486,-0.19708 l 0.684724,0.45649 c 0.01882,0.0119 0.04622,0.006 0.06225,-0.0107 l 0.36311,-0.36315 c 0.01558,-0.0161 0.02182,-0.0434 0.01039,-0.0622 l -0.248985,-0.41489 -0.083,0.0309 c -0.01183,0.006 -0.02419,0 -0.03114,-0.0107 0,0 -0.156915,-0.23772 -0.36311,-0.53955 -0.246496,0.48246 -0.748829,0.8093 -1.327955,0.8093 -0.822788,0 -1.493946,-0.66076 -1.493946,-1.48359 0,-0.60527 0.36355,-1.12587 0.881845,-1.35907 l 0,-0.38388 c -0.09433,0.0333 -0.183128,0.0669 -0.269745,0.1142 -6.5e-5,0 -0.01016,0 -0.01039,0 l -0.695099,-0.45656 c -0.0094,-0.006 -0.02055,-0.0113 -0.03113,-0.0101 z"/><path id="path4226" fill="#000" fill-opacity=".235" stroke="none" d="m 78.107255,211.91781 -0.944095,0.0934 0,3.85931 0.933715,-0.13487 0,-1.64954 1.244956,1.82594 0.975213,-0.31127 -1.276079,-1.75329 1.286459,-1.65994 -0.995968,-0.22827 -1.234581,1.65994 0.01039,-1.70141 z m -2.126798,0.94405 c -0.01058,0 -0.02317,0.006 -0.03113,0.0107 l -0.363116,0.37349 c -0.01544,0.016 -0.02176,0.0434 -0.01039,0.0623 l 0.42536,0.7055 c -0.07635,0.12839 -0.132625,0.26897 -0.176366,0.41489 l -0.78847,0.16607 c -0.02199,0.006 -0.04147,0.019 -0.04147,0.0416 l 0,0.51876 c 0,0.022 0.02032,0.0463 0.04147,0.0517 l 0.767721,0.18675 c 0.04088,0.16915 0.10296,0.32993 0.186743,0.47716 l -0.446108,0.67448 c -0.01236,0.019 -0.0059,0.0463 0.01039,0.0623 l 0.36311,0.36303 c 0.01544,0.0148 0.04337,0.0226 0.06225,0.0107 l 0.695093,-0.42529 c 0.136678,0.0788 0.279959,0.14461 0.435746,0.18668 l 0.165994,0.7781 c 0.0047,0.0226 0.01908,0.0416 0.04147,0.0416 l 0.518736,0 c 0.02187,0 0.04664,-0.0202 0.05187,-0.0416 l 0.186744,-0.7781 c 0.160587,-0.0434 0.316481,-0.11461 0.456486,-0.19708 l 0.684724,0.45649 c 0.01882,0.0119 0.04622,0.006 0.06225,-0.0107 l 0.36311,-0.36315 c 0.01558,-0.0161 0.02182,-0.0434 0.01039,-0.0622 l -0.248985,-0.41489 -0.083,0.0309 c -0.01183,0.006 -0.02419,0 -0.03114,-0.0107 0,0 -0.156915,-0.23772 -0.36311,-0.53955 -0.246496,0.48246 -0.748829,0.8093 -1.327955,0.8093 -0.822788,0 -1.493946,-0.66076 -1.493946,-1.48359 0,-0.60527 0.36355,-1.12587 0.881845,-1.35907 l 0,-0.38388 c -0.09433,0.0333 -0.183128,0.0669 -0.269745,0.1142 -6.5e-5,0 -0.01016,0 -0.01039,0 l -0.695099,-0.45656 c -0.0094,-0.006 -0.02055,-0.0113 -0.03113,-0.0101 z"/><path id="rect5344" fill="url(#linearGradient5346)" fill-opacity="1" fill-rule="evenodd" stroke="none" d="m 79.819706,206.16048 0,2.54 1.693333,0 0,-2.54 -1.693333,0 z"/><path id="path5354" fill="#000" fill-opacity=".059" fill-rule="evenodd" stroke="none" d="m 73.808872,209.01663 0.812278,0.94316 0.406141,0.47101 0.203634,0.23551 c 0.187602,0.18866 0.189778,0.2355 0.478542,0.2355 l 0.05092,0 0.223994,0 0.05092,0 0.498907,0 0.05202,0 1.048718,0 0.05208,0 1.048718,0 0.05092,0 0.498909,0 0.05202,0 0.224003,0 0.05092,0 c 0.288767,0 0.29094,-0.0468 0.478542,-0.2355 l 0.202503,-0.23551 0.40614,-0.47101 0.813415,-0.94316 -7.704215,0 z"/><path id="path5352" fill="#000" fill-opacity=".118" fill-rule="evenodd" stroke="none" d="m 73.808872,208.90374 0.812278,0.94316 0.406141,0.47101 0.203634,0.23551 c 0.187602,0.18866 0.189778,0.2355 0.478542,0.2355 l 0.05092,0 0.223994,0 0.05092,0 0.498907,0 0.05202,0 1.048718,0 0.05208,0 1.048718,0 0.05092,0 0.498909,0 0.05202,0 0.224003,0 0.05092,0 c 0.288767,0 0.29094,-0.0468 0.478542,-0.2355 l 0.202503,-0.23551 0.406141,-0.47101 0.813414,-0.94316 -7.704214,0 z"/><path id="path5348" fill="#000" fill-opacity=".235" fill-rule="evenodd" stroke="none" d="m 73.808872,208.79085 0.812278,0.94316 0.406141,0.47101 0.203634,0.23551 c 0.187602,0.18867 0.189778,0.23551 0.478542,0.23551 l 0.05092,0 0.223994,0 0.05092,0 0.498907,0 0.05202,0 1.048718,0 0.05208,0 1.048718,0 0.05092,0 0.498909,0 0.05202,0 0.224003,0 0.05092,0 c 0.288767,0 0.29094,-0.0468 0.478542,-0.23551 l 0.202503,-0.23551 0.406141,-0.47101 0.813414,-0.94316 -7.704214,0 z"/><path id="rect5127" fill="url(#linearGradient5140)" fill-opacity="1" fill-rule="evenodd" stroke="none" d="m 73.808703,206.16048 0,2.54 1.693333,0 0,-2.54 -1.693333,0 z"/><path id="rect5131" fill="url(#linearGradient5255)" fill-opacity="1" fill-rule="evenodd" stroke="none" d="m 73.808872,208.67796 0.812278,0.94317 0.406141,0.471 0.203634,0.23551 c 0.187602,0.18867 0.189778,0.23551 0.478542,0.23551 l 0.05092,0 0.223994,0 0.05092,0 0.498907,0 0.05202,0 1.048718,0 0.05208,0 1.048718,0 0.05092,0 0.498909,0 0.05202,0 0.224003,0 0.05092,0 c 0.288767,0 0.29094,-0.0468 0.478542,-0.23551 l 0.202503,-0.23551 0.406141,-0.471 0.813414,-0.94317 -7.704214,0 z"/><path id="rect5160" fill="url(#linearGradient5176)" fill-opacity="1" fill-rule="evenodd" stroke="none" d="m 73.808703,208.32334 0,0.34892 1.693333,0 0,-0.34892 -1.693333,0 z"/><path id="path5273" fill="url(#linearGradient5275)" fill-opacity="1" fill-rule="evenodd" stroke="none" d="m 79.819768,208.32334 0,0.34892 1.693333,0 0,-0.34892 -1.693333,0 z"/><path id="rect5282" fill="url(#linearGradient5292)" fill-opacity="1" fill-rule="evenodd" stroke="none" d="m 73.808703,206.16048 0,2.54 0.564444,0 0,-2.54 -0.564444,0 z"/><path id="rect5294" fill="url(#linearGradient5296)" fill-opacity="1" fill-rule="evenodd" stroke="none" d="m 79.819706,206.16048 0,2.54 0.564445,0 0,-2.54 -0.564445,0 z"/><path id="rect5306" fill="url(#linearGradient5310)" fill-opacity="1" fill-rule="evenodd" stroke="none" d="m 80.948595,206.16048 0,2.54 0.564444,0 0,-2.54 -0.564444,0 z"/><path id="rect5308" fill="url(#linearGradient5312)" fill-opacity="1" fill-rule="evenodd" stroke="none" d="m 74.937592,206.16048 0,2.54 0.564444,0 0,-2.54 -0.564444,0 z"/><path id="path5314" fill="url(#radialGradient5328)" fill-opacity="1" fill-rule="evenodd" stroke="none" d="m 73.808703,208.67799 0.09756,0.113 0.716029,0.83013 0.405694,0.47129 0.202847,0.23537 c 0.156786,0.15767 0.193269,0.21322 0.366559,0.2282 -0.03093,-0.0308 -0.06589,-0.0684 -0.112448,-0.1152 l -0.202847,-0.23592 -0.406245,-0.47074 -0.813043,-0.94313 7.196116,0 -0.813042,0.94313 -0.406248,0.47074 -0.202847,0.23592 c -0.04656,0.0468 -0.08151,0.0844 -0.112446,0.1152 0.173287,-0.015 0.209773,-0.0705 0.366556,-0.2282 l 0.202847,-0.23537 0.405695,-0.47129 0.716028,-0.83013 0.09757,-0.113 -7.704336,0 z"/><g id="g5277" transform="matrix(0.28222223,0,0,0.28222223,-12.009461,45.635946)"><path id="path7515-8" fill="#fff" fill-opacity=".537" stroke="none" d="m 296.26174,569.44404 c -0.91709,0 -1.67116,0.6395 -1.84375,1.5 0.3356,-0.2799 0.77451,-0.4375 1.25,-0.4375 l 44.125,0 c 0.47548,0 0.91439,0.1576 1.25,0.4375 -0.1726,-0.8605 -0.92667,-1.5 -1.84375,-1.5 l -42.9375,0 z"/><path id="rect846-2" fill="#000" fill-opacity="1" stroke="none" d="m 293.73049,613.78774 0,1.0625 c 0,1.0773 0.86022,1.9375 1.9375,1.9375 l 44.125,0 c 1.07727,0 1.9375,-0.8602 1.9375,-1.9375 l 0,-1.0625 c 0,1.0773 -0.86023,1.9375 -1.9375,1.9375 l -44.125,0 c -1.07729,0 -1.9375,-0.8602 -1.9375,-1.9375 z"/><path id="rect4280-7" fill="#000" fill-opacity=".392" stroke="none" d="m 295.66799,568.78774 c -1.07728,0 -1.9375,0.8602 -1.9375,1.9375 l 0,43.0625 c 0,0.7934 0.48002,1.449 1.15625,1.75 -0.30935,-0.3333 -0.5,-0.7824 -0.5,-1.2812 l 0,-42.9375 c 0,-1.0482 0.8269,-1.875 1.875,-1.875 l 42.9375,0 c 1.04809,0 1.875,0.8268 1.875,1.875 l 0,42.9375 c 0,0.4988 -0.19066,0.9479 -0.5,1.2812 0.67622,-0.301 1.15625,-0.9566 1.15625,-1.75 l 0,-43.0625 c 0,-1.0773 -0.86023,-1.9375 -1.9375,-1.9375 l -44.125,0 z"/></g><path id="path5692_2_" fill="url(#linearGradient4224)" fill-opacity="1" stroke="none" d="m 78.107255,211.80492 -0.944095,0.0934 0,3.85932 0.933715,-0.13488 0,-1.64954 1.244956,1.82595 0.975213,-0.31128 -1.276079,-1.75328 1.286459,-1.65994 -0.995968,-0.22828 -1.234581,1.65995 0.01039,-1.70142 z m -2.126798,0.94405 c -0.01058,0 -0.02317,0.006 -0.03113,0.0107 l -0.363116,0.37348 c -0.01544,0.016 -0.02176,0.0434 -0.01039,0.0623 l 0.42536,0.70549 c -0.07635,0.1284 -0.132625,0.26897 -0.176366,0.4149 l -0.78847,0.16606 c -0.02199,0.006 -0.04147,0.019 -0.04147,0.0416 l 0,0.51876 c 0,0.022 0.02032,0.0463 0.04147,0.0517 l 0.767721,0.18674 c 0.04088,0.16916 0.10296,0.32993 0.186743,0.47717 l -0.446108,0.67448 c -0.01236,0.019 -0.0059,0.0464 0.01039,0.0623 l 0.36311,0.36302 c 0.01544,0.0148 0.04337,0.0226 0.06225,0.0107 l 0.695093,-0.42529 c 0.136678,0.0788 0.279959,0.14462 0.435746,0.18668 l 0.165994,0.7781 c 0.0047,0.0226 0.01908,0.0416 0.04147,0.0416 l 0.518736,0 c 0.02187,0 0.04664,-0.0202 0.05187,-0.0416 l 0.186744,-0.7781 c 0.160587,-0.0434 0.316481,-0.11461 0.456486,-0.19708 l 0.684724,0.45649 c 0.01882,0.0119 0.04622,0.006 0.06225,-0.0107 l 0.36311,-0.36314 c 0.01558,-0.0161 0.02182,-0.0434 0.01039,-0.0622 l -0.248985,-0.4149 -0.083,0.0309 c -0.01183,0.006 -0.02419,0 -0.03114,-0.0107 0,0 -0.156915,-0.23772 -0.36311,-0.53955 -0.246495,0.48245 -0.748828,0.8093 -1.327954,0.8093 -0.822788,0 -1.493946,-0.66076 -1.493946,-1.4836 0,-0.60527 0.36355,-1.12586 0.881846,-1.35906 l 0,-0.38389 c -0.09433,0.0333 -0.183129,0.0669 -0.269746,0.1142 -6.5e-5,0 -0.01016,0 -0.01039,0 l -0.6951,-0.45655 c -0.0094,-0.006 -0.02055,-0.0113 -0.03113,-0.0101 z"/><path id="path5016" fill="#0a79d6" fill-opacity=".314" stroke="none" d="M 25.572266 20 L 25.542969 24.628906 L 25.550781 24.617188 L 25.580078 20 L 25.572266 20 z M 32.525391 20.744141 L 28.888672 25.4375 L 29.414062 26.160156 L 33.447266 20.955078 L 32.525391 20.744141 z M 17.064453 24.279297 L 16.648438 24.707031 C 16.593729 24.763724 16.571041 24.860766 16.611328 24.927734 L 17.740234 26.798828 C 17.849041 26.531816 17.973062 26.273009 18.119141 26.027344 L 17.064453 24.279297 z M 21.611328 24.59375 C 21.526489 24.6237 21.445789 24.656637 21.363281 24.6875 C 19.663214 25.564483 18.486328 27.326808 18.486328 29.371094 C 18.486328 29.609118 18.508364 29.840905 18.539062 30.070312 C 18.785283 28.230934 19.978788 26.689617 21.611328 25.955078 L 21.611328 24.59375 z M 25.542969 26.283203 L 25.542969 27.683594 L 28.408203 31.884766 C 28.431703 31.841799 28.462049 31.803463 28.484375 31.759766 C 29.214987 32.829242 29.771484 33.671875 29.771484 33.671875 C 29.79611 33.709788 29.838942 33.730244 29.880859 33.708984 L 30.175781 33.599609 L 30.417969 34.003906 L 33.410156 33.050781 L 32.582031 31.914062 L 29.955078 32.751953 L 25.542969 26.283203 z M 14.552734 30.070312 L 14.552734 31.470703 C 14.552734 31.548656 14.624278 31.635163 14.699219 31.654297 L 17.419922 32.316406 C 17.492488 32.616684 17.582863 32.908341 17.693359 33.191406 L 18.082031 32.605469 C 17.785162 32.083752 17.564772 31.515401 17.419922 30.916016 L 14.699219 30.253906 C 14.624278 30.234772 14.552734 30.148265 14.552734 30.070312 z M 25.542969 32.126953 L 22.236328 32.605469 L 22.236328 34.005859 L 25.542969 33.527344 L 25.542969 32.126953 z M 27.087891 34.998047 C 26.801681 35.166639 26.493805 35.31259 26.177734 35.443359 C 25.946837 35.560792 25.708016 35.663074 25.458984 35.746094 L 24.808594 38.453125 C 24.790062 38.528952 24.702492 38.599609 24.625 38.599609 L 22.787109 38.599609 C 22.707775 38.599609 22.657279 38.533204 22.640625 38.453125 L 22.060547 35.738281 C 21.876752 35.675585 21.703386 35.593329 21.529297 35.511719 C 21.175865 35.377126 20.833685 35.221081 20.507812 35.033203 L 18.044922 36.541016 C 17.978024 36.583181 17.878927 36.556347 17.824219 36.503906 L 16.984375 35.664062 L 16.5 36.396484 C 16.456205 36.463807 16.479389 36.560849 16.537109 36.617188 L 17.824219 37.904297 C 17.878927 37.956738 17.978024 37.983572 18.044922 37.941406 L 20.507812 36.433594 C 20.992105 36.712806 21.49878 36.946672 22.050781 37.095703 L 22.640625 39.853516 C 22.657279 39.933594 22.707775 40 22.787109 40 L 24.625 40 C 24.702492 40 24.790062 39.929342 24.808594 39.853516 L 25.470703 37.095703 C 26.039712 36.941924 26.59181 36.690654 27.087891 36.398438 L 29.513672 38.015625 C 29.580357 38.05779 29.677576 38.035736 29.734375 37.976562 L 31.021484 36.689453 C 31.076689 36.632406 31.099094 36.537317 31.058594 36.470703 L 30.601562 35.708984 L 29.734375 36.576172 C 29.677576 36.635345 29.580357 36.6574 29.513672 36.615234 L 27.087891 34.998047 z" transform="matrix(0.28222223,0,0,0.28222223,70.887815,206.16048)"/><path id="path5021" fill="#fff" fill-opacity=".235" stroke="none" d="M 25.580078 20 L 22.236328 20.330078 L 22.236328 20.730469 L 25.578125 20.400391 L 25.580078 20 z M 29.917969 20.146484 L 25.544922 26.025391 L 25.542969 26.427734 L 29.917969 20.546875 L 33.183594 21.294922 L 33.447266 20.955078 L 29.917969 20.146484 z M 18.044922 23.345703 C 18.007434 23.345703 17.961798 23.366159 17.933594 23.382812 L 16.648438 24.707031 C 16.593729 24.763724 16.571041 24.860766 16.611328 24.927734 L 16.691406 25.060547 L 17.933594 23.783203 C 17.961798 23.76655 18.007434 23.744141 18.044922 23.744141 L 18.044922 23.746094 C 18.08241 23.741842 18.12099 23.75999 18.154297 23.78125 L 20.617188 25.398438 L 20.654297 25.398438 C 20.961207 25.230839 21.277088 25.112133 21.611328 24.994141 L 21.611328 24.59375 C 21.277088 24.711742 20.961207 24.832402 20.654297 25 L 20.617188 25 L 18.154297 23.380859 C 18.12099 23.3596 18.08241 23.341451 18.044922 23.345703 z M 29.039062 27.044922 L 28.888672 27.238281 L 33.173828 33.125 L 33.410156 33.050781 L 29.039062 27.044922 z M 18.009766 27.644531 C 17.798379 28.040749 17.62548 28.458305 17.494141 28.896484 L 14.699219 29.484375 C 14.621301 29.505635 14.552734 29.552734 14.552734 29.632812 L 14.552734 30.033203 C 14.552734 29.953124 14.621301 29.906025 14.699219 29.884766 L 17.494141 29.296875 C 17.649128 28.7798 17.848609 28.281132 18.119141 27.826172 L 18.009766 27.644531 z M 18.498047 31.007812 C 18.496361 31.062473 18.486328 31.114854 18.486328 31.169922 C 18.486328 34.085497 20.863906 36.427734 23.779297 36.427734 C 25.831318 36.427734 27.610968 35.270015 28.484375 33.560547 C 29.214987 34.630023 29.771484 35.470703 29.771484 35.470703 C 29.79611 35.508617 29.838942 35.531025 29.880859 35.509766 L 30.175781 35.400391 L 30.976562 36.734375 L 31.021484 36.689453 C 31.076689 36.632406 31.099094 36.537317 31.058594 36.470703 L 30.175781 35 L 29.880859 35.109375 C 29.838942 35.130635 29.79611 35.110179 29.771484 35.072266 C 29.771484 35.072266 29.214987 34.229633 28.484375 33.160156 C 27.610968 34.869625 25.831318 36.027344 23.779297 36.027344 C 20.944153 36.027344 18.624003 33.811088 18.498047 31.007812 z M 17.970703 34.173828 L 16.5 36.396484 C 16.456205 36.463807 16.479389 36.560849 16.537109 36.617188 L 16.585938 36.666016 L 18.082031 34.40625 C 18.039726 34.331903 18.00989 34.25007 17.970703 34.173828 z" transform="matrix(0.28222223,0,0,0.28222223,70.887815,206.16048)"/></g></svg>