<svg xmlns="http://www.w3.org/2000/svg" xmlns:svg="http://www.w3.org/2000/svg" xmlns:xlink="http://www.w3.org/1999/xlink" id="svg2" width="48" height="48" version="1.1"><defs id="defs4"><linearGradient id="linearGradient4093"><stop id="stop4095" offset="0" stop-color="#d6b0f4" stop-opacity="1"/><stop id="stop4097" offset="1" stop-color="#fdf7fd" stop-opacity="1"/></linearGradient><linearGradient id="linearGradient4087"><stop id="stop4089" offset="0" stop-color="#8b28cc" stop-opacity="1"/><stop id="stop4091" offset="1" stop-color="#c753c5" stop-opacity="1"/></linearGradient><linearGradient id="linearGradient850" x1="84.146" x2="84.146" y1="-1074.864" y2="-1026.86" gradientUnits="userSpaceOnUse" xlink:href="#linearGradient4087"/><linearGradient id="linearGradient4074" x1="25" x2="25" y1="44.604" y2="8.75" gradientTransform="matrix(0.76190475,0,0,0.77668394,5.7142856,1007.6831)" gradientUnits="userSpaceOnUse" xlink:href="#linearGradient4093"/></defs><metadata id="metadata7"/><g id="layer1" transform="translate(0,-1004.3622)"><g id="g880" transform="translate(-59.5,-22.499991)"><rect id="rect2991-1" width="48" height="48" x="59.5" y="-1074.862" fill="url(#linearGradient850)" fill-opacity="1" stroke="none" ry="1.945" transform="scale(1,-1)"/><path id="rect846" fill="#000" fill-opacity="1" stroke="none" d="m 59.5,1071.8622 0,1.0625 c 0,1.0773 0.860223,1.9375 1.9375,1.9375 l 44.125,0 c 1.07728,0 1.9375,-0.8602 1.9375,-1.9375 l 0,-1.0625 c 0,1.0773 -0.86022,1.9375 -1.9375,1.9375 l -44.125,0 C 60.360223,1073.7997 59.5,1072.9395 59.5,1071.8622 Z"/><path id="path7515" fill="#fff" fill-opacity=".537" stroke="none" d="m 62.03125,1027.5185 c -0.917089,0 -1.671147,0.6395 -1.84375,1.5 0.335612,-0.2799 0.774512,-0.4375 1.25,-0.4375 l 44.125,0 c 0.47549,0 0.91439,0.1576 1.25,0.4375 -0.1726,-0.8605 -0.92666,-1.5 -1.84375,-1.5 L 62.03125,1027.5185 Z"/><path id="rect4280-5" fill="#000" fill-opacity=".392" stroke="none" d="m 61.4375,1026.8622 c -1.077277,0 -1.9375,0.8602 -1.9375,1.9375 l 0,43.0625 c 0,0.7934 0.480023,1.449 1.15625,1.75 -0.309342,-0.3333 -0.5,-0.7824 -0.5,-1.2812 l 0,-42.9375 c 0,-1.0482 0.826899,-1.875 1.875,-1.875 l 42.9375,0 c 1.0481,0 1.875,0.8268 1.875,1.875 l 0,42.9375 c 0,0.4988 -0.19066,0.9479 -0.5,1.2812 0.67623,-0.301 1.15625,-0.9566 1.15625,-1.75 l 0,-43.0625 c 0,-1.0773 -0.86022,-1.9375 -1.9375,-1.9375 L 61.4375,1026.8622 Z"/></g><path id="path4105" fill="#000" fill-opacity=".059" stroke="none" d="m 8,1015.5622 0,28 32,0 0,-28 -15.998512,9.4159 -0.0015,0 L 23.998488,1024.9781 Z"/><path id="path4103" fill="#000" fill-opacity=".118" stroke="none" d="m 8,1015.1622 0,28 32,0 0,-28 -15.998512,9.4159 -0.0015,0 L 23.998488,1024.5781 Z"/><path id="path4099" fill="#000" fill-opacity=".235" stroke="none" d="m 8,1014.7622 0,28 32,0 0,-28 -15.998512,9.4159 -0.0015,0 L 23.998488,1024.1781 Z"/><path id="path4049" fill="url(#linearGradient4074)" fill-opacity="1" stroke="none" d="m 8,1014.3622 0,28 32,0 0,-28 -15.998512,9.4159 -0.0015,0 L 23.998488,1023.7781 Z"/><path id="path4107" fill="#8c29cb" fill-opacity=".314" stroke="none" d="M 8 37.199219 L 8 38 L 40 38 L 40 37.199219 L 8 37.199219 z" transform="translate(0,1004.3622)"/><path id="path4112" fill="#fff" fill-opacity=".235" stroke="none" d="M 8 10 L 8 10.400391 L 23.998047 19.816406 L 24 19.816406 L 24.001953 19.816406 L 40 10.400391 L 40 10 L 24.001953 19.416016 L 24 19.416016 L 23.998047 19.416016 L 8 10 z" transform="translate(0,1004.3622)"/></g></svg>