<svg xmlns="http://www.w3.org/2000/svg" xmlns:svg="http://www.w3.org/2000/svg" xmlns:xlink="http://www.w3.org/1999/xlink" id="svg2" width="48" height="48" version="1.1" viewBox="0 0 13.547 13.547"><metadata id="metadata22"/><defs id="defs4"><linearGradient id="linearGradient4250" x1="6.831" x2="6.831" y1="-13.573" y2=".027" gradientUnits="userSpaceOnUse" xlink:href="#linearGradient4100"/><linearGradient id="linearGradient4100"><stop id="stop4102" offset="0" stop-color="#e6e6e6" stop-opacity="1"/><stop id="stop4104" offset="1" stop-color="#fff" stop-opacity="1"/></linearGradient><linearGradient id="linearGradient4087"><stop id="stop4089" offset="0" stop-color="#1a1a1a" stop-opacity="1"/><stop id="stop4091" offset="1" stop-color="#333" stop-opacity="1"/></linearGradient><linearGradient id="linearGradient4316" x1="7.056" x2="7.056" y1="9.031" y2="4.233" gradientTransform="matrix(1.038961,0,0,1.038961,-0.2638962,-0.2638958)" gradientUnits="userSpaceOnUse" xlink:href="#linearGradient4087"/></defs><rect id="rect2991-1" width="13.547" height="13.547" x="0" y="-13.547" fill="url(#linearGradient4250)" fill-opacity="1" stroke="none" ry=".549" transform="scale(1,-1)"/><path id="path4326" fill="#000" fill-opacity=".059" stroke-width=".049" d="m 2.2577773,4.6386924 0,2.4604293 0,2.4604288 3.3743644,0.014068 7.07e-5,0 c 4.4654216,0.018639 5.5786366,0.015948 5.6082376,-0.013777 0.04387,-0.044062 0.05621,-0.8593121 0.04397,-2.9111157 l -0.01199,-2.0100286 -4.5073596,0 -4.50729,0 z m 5.6327196,0.4512569 c 1.0801765,-0.00543 1.9535335,0.2644233 2.4603581,0.7712488 0.345127,0.3451263 0.355372,0.396303 0.375024,1.8839027 l 0.01749,1.3278607 -1.4178687,0 -1.41787,0 0.00436,-1.1978088 C 7.9157301,6.8423091 7.9052366,6.6605853 7.8363328,6.5554287 7.5713364,6.1509956 6.5689749,6.2021757 5.7877594,6.6599987 l -0.2242722,0.1314087 0.016062,1.140777 0.016062,1.1408488 -1.3643355,-7.17e-5 -1.3644072,0 0,-1.9247312 0,-1.9248023 1.3765412,0 1.3766129,0 0,0.1270542 c 0,0.1015076 0.017081,0.1201522 0.085226,0.092865 0.2785173,-0.1115395 1.0771833,-0.2757942 1.56491,-0.3218473 0.213202,-0.020132 0.420321,-0.030544 0.6203542,-0.03155 z"/><path id="rect846" fill="#000" fill-opacity="1" stroke="none" d="m 1.3947347e-7,12.7 0,0.299861 c 0,0.304038 0.24277405052653,0.546806 0.54680558052653,0.546806 l 12.45305628,0 c 0.304031,0 0.546805,-0.242768 0.546805,-0.546806 l 0,-0.299861 c 0,0.304038 -0.242774,0.546806 -0.546805,0.546806 l -12.45305628,0 C 0.24277419,13.246806 1.3947347e-7,13.004038 1.3947347e-7,12.7 Z"/><path id="path7515" fill="#fff" fill-opacity=".537" stroke="none" d="m 0.71437517,0.18522226 c -0.25882291,0 -0.47163484,0.18048112 -0.52034725,0.42333335 0.0947172,-0.078994 0.21858451,-0.12347223 0.3527778,-0.12347223 l 12.45305628,0 c 0.134193,0 0.25806,0.0444782 0.352777,0.12347223 -0.04871,-0.24285223 -0.261524,-0.42333335 -0.520347,-0.42333335 l -12.11791683,0 z"/><path id="rect4280-8" fill="#000" fill-opacity=".392" stroke="none" d="M 0.54680572,-1.88294e-7 C 0.24277419,-1.88294e-7 1.3947347e-7,0.24276737 1.3947347e-7,0.54680538 l 0,12.15319462 C 1.3947347e-7,12.923915 0.1354733,13.10894 0.3263196,13.193889 0.2390164,13.099824 0.18520848,12.973078 0.18520848,12.832306 l 0,-12.11791706 c 0,-0.29582534 0.23336928,-0.52916668 0.52916669,-0.52916668 l 12.11791683,0 c 0.295797,0 0.529167,0.23334134 0.529167,0.52916668 l 0,12.11791706 c 0,0.140772 -0.05381,0.267518 -0.141111,0.361583 0.190846,-0.08495 0.326319,-0.269974 0.326319,-0.493889 l 0,-12.15319462 C 13.546667,0.24276737 13.303893,-1.88294e-7 12.999862,-1.88294e-7 l -12.45305628,0 z"/><path id="path4324" fill="#000" fill-opacity=".118" stroke-width=".049" d="m 2.2577773,4.5258035 0,2.4604293 0,2.4604288 3.3743644,0.014068 7.07e-5,0 c 4.4654216,0.018639 5.5786366,0.015948 5.6082376,-0.013777 0.04387,-0.044062 0.05621,-0.8593121 0.04397,-2.9111157 l -0.01199,-2.0100286 -4.5073596,0 -4.50729,0 z m 5.6327196,0.4512569 c 1.0801765,-0.00543 1.9535335,0.2644233 2.4603581,0.7712488 0.345127,0.3451263 0.355372,0.396303 0.375024,1.8839027 l 0.01749,1.3278607 -1.4178687,0 -1.41787,0 0.00436,-1.1978088 C 7.9157301,6.7294202 7.9052366,6.5476964 7.8363328,6.4425398 7.5713364,6.0381067 6.5689749,6.0892868 5.7877594,6.5471098 l -0.2242722,0.1314087 0.016062,1.140777 0.016062,1.1408488 -1.3643355,-7.17e-5 -1.3644072,0 0,-1.9247312 0,-1.9248023 1.3765412,0 1.3766129,0 0,0.1270542 c 0,0.1015076 0.017081,0.1201522 0.085226,0.092865 0.2785173,-0.1115395 1.0771833,-0.2757942 1.56491,-0.3218473 0.213202,-0.020132 0.420321,-0.030544 0.6203542,-0.03155 z"/><path id="path4320" fill="#000" fill-opacity=".235" stroke-width=".049" d="m 2.2577773,4.4129146 0,2.4604293 0,2.4604288 3.3743644,0.014068 7.07e-5,0 c 4.4654216,0.018639 5.5786366,0.015948 5.6082376,-0.013777 0.04387,-0.044062 0.05621,-0.8593121 0.04397,-2.9111157 l -0.01199,-2.0100286 -4.5073596,0 -4.50729,0 z m 5.6327196,0.4512569 c 1.0801765,-0.00543 1.9535335,0.2644233 2.4603581,0.7712488 0.345127,0.3451263 0.355372,0.396303 0.375024,1.8839027 l 0.01749,1.3278607 -1.4178687,0 -1.41787,0 0.00436,-1.1978088 C 7.9157301,6.6165313 7.9052366,6.4348075 7.8363328,6.3296509 7.5713364,5.9252178 6.5689749,5.9763979 5.7877594,6.4342209 l -0.2242722,0.1314087 0.016062,1.140777 0.016062,1.1408488 -1.3643355,-7.17e-5 -1.3644072,0 0,-1.9247312 0,-1.9248023 1.3765412,0 1.3766129,0 0,0.1270542 c 0,0.1015076 0.017081,0.1201522 0.085226,0.092865 0.2785173,-0.1115395 1.0771833,-0.2757942 1.56491,-0.3218473 0.213202,-0.020132 0.420321,-0.030544 0.6203542,-0.03155 z"/><path id="path4174" fill="url(#linearGradient4316)" fill-opacity="1" stroke-width=".049" d="m 2.2577773,4.2999818 0,2.4604293 0,2.4604288 3.3743644,0.014068 7.07e-5,0 c 4.4654216,0.018639 5.5786366,0.015948 5.6082376,-0.013777 0.04387,-0.044062 0.05621,-0.8593121 0.04397,-2.9111157 l -0.01199,-2.0100286 -4.5073596,0 -4.50729,0 z m 5.6327196,0.4512569 c 1.0801765,-0.00543 1.9535335,0.2644233 2.4603581,0.7712488 0.345127,0.3451263 0.355372,0.396303 0.375024,1.8839027 l 0.01749,1.3278607 -1.4178687,0 -1.41787,0 0.00436,-1.1978088 C 7.9157301,6.5035985 7.9052366,6.3218747 7.8363328,6.2167181 7.5713364,5.812285 6.5689749,5.8634651 5.7877594,6.3212881 l -0.2242722,0.1314087 0.016062,1.140777 0.016062,1.1408488 -1.3643355,-7.17e-5 -1.3644072,0 0,-1.9247312 0,-1.9248023 1.3765412,0 1.3766129,0 0,0.1270542 c 0,0.1015076 0.017081,0.1201522 0.085226,0.092865 0.2785173,-0.1115395 1.0771833,-0.2757942 1.56491,-0.3218473 0.213202,-0.020132 0.420321,-0.030544 0.6203542,-0.03155 z"/><path id="path4328" fill="#262626" fill-opacity="1" stroke-width=".173" d="M 27.958984 16.035156 C 27.250205 16.038721 26.515206 16.075151 25.759766 16.146484 C 24.0316 16.309665 21.201716 16.891891 20.214844 17.287109 C 19.973385 17.383796 19.914062 17.318657 19.914062 16.958984 L 19.914062 16.507812 L 15.035156 16.507812 L 10.158203 16.507812 L 10.158203 17.308594 L 15.035156 17.308594 L 19.914062 17.308594 L 19.914062 17.757812 C 19.914062 18.117485 19.973385 18.184578 20.214844 18.087891 C 21.201716 17.692672 24.0316 17.110446 25.759766 16.947266 C 26.515206 16.875932 27.250205 16.839502 27.958984 16.835938 C 31.786381 16.816697 34.879946 17.772521 36.675781 19.568359 C 37.898672 20.791248 37.936226 20.971165 38.005859 26.242188 L 38.056641 30.148438 L 38.066406 30.148438 L 38.005859 25.443359 C 37.936226 20.172337 37.898672 19.990467 36.675781 18.767578 C 34.879946 16.97174 31.786381 16.015916 27.958984 16.035156 z M 19.724609 22.857422 L 19.712891 22.863281 L 19.769531 26.90625 L 19.814453 30.148438 L 19.826172 30.148438 L 19.769531 26.105469 L 19.724609 22.857422 z M 28.033203 26.494141 L 28.019531 30.148438 L 28.023438 30.148438 L 28.035156 26.703125 C 28.035544 26.596018 28.032906 26.59615 28.033203 26.494141 z M 39.980469 29.382812 C 39.955528 31.03327 39.905847 31.794984 39.828125 31.873047 C 39.72324 31.978372 35.779391 31.987919 19.957031 31.921875 L 8 31.873047 L 8 32.671875 L 19.957031 32.722656 C 35.779391 32.7887 39.72324 32.779153 39.828125 32.673828 C 39.9138 32.587778 39.958547 31.405124 39.980469 29.382812 z" transform="scale(0.28222223)"/><path id="path4333" fill="#fff" fill-opacity=".235" stroke-width=".173" d="M 8 15.236328 L 8 15.636719 L 23.970703 15.636719 L 39.941406 15.636719 L 39.984375 22.726562 C 39.983449 22.559957 39.985398 22.52888 39.984375 22.357422 L 39.941406 15.236328 L 23.970703 15.236328 L 8 15.236328 z M 24.822266 21.066406 C 23.470966 21.13539 21.891856 21.587334 20.507812 22.398438 L 19.712891 22.863281 L 19.71875 23.259766 L 20.507812 22.798828 C 23.275899 21.176621 26.826661 20.994704 27.765625 22.427734 C 28.006166 22.794833 28.044757 23.479613 28.033203 26.998047 L 28.035156 26.703125 C 28.048408 23.043443 28.009772 22.399946 27.765625 22.027344 C 27.296143 21.310828 26.173565 20.997422 24.822266 21.066406 z M 10.158203 30.947266 L 10.158203 31.347656 L 14.992188 31.347656 L 19.826172 31.347656 L 19.820312 30.949219 L 14.992188 30.947266 L 10.158203 30.947266 z M 28.021484 30.947266 L 28.019531 31.347656 L 33.042969 31.347656 L 38.066406 31.347656 L 38.060547 30.947266 L 33.042969 30.947266 L 28.021484 30.947266 z" transform="scale(0.28222223)"/></svg>