<svg xmlns="http://www.w3.org/2000/svg" xmlns:svg="http://www.w3.org/2000/svg" xmlns:xlink="http://www.w3.org/1999/xlink" id="svg2" width="48" height="48" version="1.1"><defs id="defs4"><linearGradient id="linearGradient3133" x1="24.125" x2="24.125" y1="-1052.612" y2="-1004.862" gradientTransform="translate(0,-1.7671406e-5)" gradientUnits="userSpaceOnUse" xlink:href="#linearGradient872"/><linearGradient id="linearGradient872"><stop id="stop874" offset="0" stop-color="#e3ebed" stop-opacity=".996"/><stop id="stop876" offset="1" stop-color="#f4f8f9" stop-opacity=".997"/></linearGradient></defs><metadata id="metadata7"/><g id="layer1" transform="translate(0,-1004.3622)"><rect id="rect2991-1" width="48" height="48" x="0" y="-1052.362" fill="url(#linearGradient3133)" fill-opacity="1" stroke="none" ry="1.945" transform="scale(1,-1)"/><path id="rect846" fill="#000" fill-opacity="1" stroke="none" d="m 0,1049.3622 0,1.0625 c 0,1.0773 0.860222,1.9375 1.937499,1.9375 l 44.125001,0 c 1.077277,0 1.9375,-0.8602 1.9375,-1.9375 l 0,-1.0625 c 0,1.0773 -0.860223,1.9375 -1.9375,1.9375 l -44.125001,0 C 0.860222,1051.2997 0,1050.4395 0,1049.3622 Z"/><path id="path7515" fill="#fff" fill-opacity=".537" stroke="none" d="m 2.531249,1005.0185 c -0.917088,0 -1.671146,0.6395 -1.843749,1.5 0.335612,-0.2799 0.774512,-0.4375 1.249999,-0.4375 l 44.125001,0 c 0.475488,0 0.914388,0.1576 1.25,0.4375 -0.172603,-0.8605 -0.926662,-1.5 -1.84375,-1.5 L 2.531249,1005.0185 Z"/><path id="rect4280" fill="#000" fill-opacity=".392" stroke="none" d="M 1.937499,1004.3622 C 0.860223,1004.3622 0,1005.2224 0,1006.2997 l 0,43.0625 c 0,0.7934 0.480023,1.449 1.156249,1.75 -0.309341,-0.3333 -0.499999,-0.7824 -0.499999,-1.2812 l 0,-42.9375 c 0,-1.0482 0.826898,-1.875 1.874999,-1.875 l 42.937501,0 c 1.048101,0 1.875,0.8268 1.875,1.875 l 0,42.9375 c 0,0.4988 -0.190658,0.9479 -0.5,1.2812 0.676226,-0.301 1.15625,-0.9566 1.15625,-1.75 l 0,-43.0625 c 0,-1.0773 -0.860223,-1.9375 -1.9375,-1.9375 L 1.937499,1004.3622 Z"/><g id="g3479"><path id="path2652" fill="#000" fill-opacity=".721" stroke="none" d="m 19.961426,1014.4892 -0.277459,0.1541 0,0.2159 0.462432,-0.2775 L 19.961426,1014.4892 z m 10.142676,1.4182 -0.184972,0.1233 0.49326,0.2774 0,-0.2158 L 30.104102,1015.9074 z m -3.976915,1.1098 0,1.1098 0,0.4624 -1.29481,0.7399 0.215802,0.1233 1.603098,-0.9248 0,-0.6474 0.49326,-0.2775 L 26.127187,1017.0172 z m -6.165761,1.7264 -0.277459,0.185 0,0.709 0.369946,-0.2158 1.479782,0.8633 0.52409,-0.3083 L 19.961426,1018.7436 z m -6.412391,3.0212 -1.510611,0.894 0,2.0039 0,0.2775 0,0.031 1.973043,1.1406 0.03083,0 1.448954,-0.8323 0,-1.1715 0,-0.031 0,-0.3699 0,-1.3565 -0.986522,-0.5857 -0.462432,0.2774 -0.03083,0 L 13.549035,1021.7648 z m 22.258396,2.7746 -2.003872,1.1715 0,0.2158 0,0.061 0.739891,0.4316 0,2.9288 1.418125,-0.8324 0,-0.4624 0,-3.2678 -0.154144,-0.093 L 35.807431,1024.5394 z m -8.385434,4.2544 0,0.524 0.462432,-0.2774 L 27.421997,1028.7938 z m 6.843994,1.5106 -2.959565,1.7264 -0.369946,-0.2158 0,1.2332 0,0.4007 0,2.2506 0,0.1849 0.369946,0.2158 3.237024,-1.8805 0,-0.4625 0,-3.2679 L 34.265991,1030.3044 z m -14.458709,5.9191 0,0.1542 0,0.4007 -2.620448,1.5107 -2.589619,-1.5107 0,-0.4007 0,-0.1233 -0.52409,0.3083 0,2.6204 0,0.3699 0,0.031 0.52409,0.3083 0,0.5549 0,0.4007 2.589619,1.5107 2.620448,-1.5107 0,-0.4007 0,-0.1542 2.58962,1.5107 0.493261,-0.2775 1.448953,0.8324 1.29481,-0.7399 0,0.8015 0,0.4008 2.651277,1.5414 2.651277,-1.5414 0,-0.4008 0,-2.2813 0,-0.3699 0,-1.0174 -2.651277,1.5414 -2.651277,-1.5414 0,-0.4008 0,-0.8015 -1.29481,0.7399 -1.448953,-0.8325 -0.493261,0.2776 L 19.807282,1036.2235 Z"/><g id="g2182" transform="matrix(0.7130007,0,0,0.7130007,5.792605,295.7071)"><g id="g2086" transform="matrix(0.6181033,0,0,0.6181033,5.165521,390.72814)"><path id="path2088" fill="#ffdb4b" fill-opacity=".725" stroke="none" d="m 37.749052,24.053984 -6.650611,1.782026 -4.868586,-4.868586 1.782026,-6.650611 6.650611,-1.782026 4.868586,4.868585 z" transform="matrix(0.73395866,-0.19666363,0.19666363,0.73395866,-3.909948,1020.742)"/><path id="path2090" fill="#ffdb4b" fill-opacity=".725" stroke="none" d="m 24,1027.6864 -4.535354,2.6123 0,0.6646 4.535354,2.6359 4.535354,-2.6359 0,-0.6646 L 24,1027.6864 Z"/></g><g id="g2054" transform="matrix(0.80905165,0,0,0.80905165,6.582761,210.36406)"><path id="path2056" fill="#ffdb4b" fill-opacity=".725" stroke="none" d="m 37.749052,24.053984 -6.650611,1.782026 -4.868586,-4.868586 1.782026,-6.650611 6.650611,-1.782026 4.868586,4.868585 z" transform="matrix(0.73395866,-0.19666363,0.19666363,0.73395866,-3.909948,1020.742)"/><path id="path2058" fill="#ffdb4b" fill-opacity=".725" stroke="none" d="m 24,1027.6864 -4.535354,2.6123 0,0.6646 4.535354,2.6359 4.535354,-2.6359 0,-0.6646 L 24,1027.6864 Z"/></g><g id="g2048" transform="matrix(0.80905165,0,0,0.80905165,-3.417239,210.36406)"><path id="path2050" fill="#ffdb4b" fill-opacity=".725" stroke="none" d="m 37.749052,24.053984 -6.650611,1.782026 -4.868586,-4.868586 1.782026,-6.650611 6.650611,-1.782026 4.868586,4.868585 z" transform="matrix(0.73395866,-0.19666363,0.19666363,0.73395866,-3.909948,1020.742)"/><path id="path2052" fill="#ffdb4b" fill-opacity=".725" stroke="none" d="m 24,1027.6864 -4.535354,2.6123 0,0.6646 4.535354,2.6359 4.535354,-2.6359 0,-0.6646 L 24,1027.6864 Z"/></g><g id="g2128" transform="matrix(1.3314606,0,0,1.3314606,-16.457378,-356.50919)"><path id="path2130" fill="#3c81bb" fill-opacity=".537" stroke="none" d="m 37.749052,24.053984 -6.650611,1.782026 -4.868586,-4.868586 1.782026,-6.650611 6.650611,-1.782026 4.868586,4.868585 z" transform="matrix(0.45366422,-0.12155896,0.12155896,0.45366422,14.298082,1031.8601)"/><path id="path2132" fill="#3c81bb" fill-opacity=".537" stroke="none" d="m 31.549387,1036.1526 -2.803329,1.6145 0,0.411 2.803329,1.6291 2.803329,-1.6291 0,-0.411 L 31.549387,1036.1526 Z"/></g><g id="g2092" transform="matrix(0.6181033,0,0,0.6181033,5.165521,394.72814)"><path id="path2094" fill="#ffdb4b" fill-opacity=".725" stroke="none" d="m 37.749052,24.053984 -6.650611,1.782026 -4.868586,-4.868586 1.782026,-6.650611 6.650611,-1.782026 4.868586,4.868585 z" transform="matrix(0.73395866,-0.19666363,0.19666363,0.73395866,-3.909948,1020.742)"/><path id="path2096" fill="#ffdb4b" fill-opacity=".725" stroke="none" d="m 24,1027.6864 -4.535354,2.6123 0,0.6646 4.535354,2.6359 4.535354,-2.6359 0,-0.6646 L 24,1027.6864 Z"/></g><g id="g2038"><path id="path1928" fill="#ffdb4b" fill-opacity=".725" stroke="none" d="m 37.749052,24.053984 -6.650611,1.782026 -4.868586,-4.868586 1.782026,-6.650611 6.650611,-1.782026 4.868586,4.868585 z" transform="matrix(0.73395866,-0.19666363,0.19666363,0.73395866,-3.909948,1020.742)"/><path id="path1930" fill="#ffdb4b" fill-opacity=".725" stroke="none" d="m 24,1027.6864 -4.535354,2.6123 0,0.6646 4.535354,2.6359 4.535354,-2.6359 0,-0.6646 L 24,1027.6864 Z"/></g><g id="g2098" transform="matrix(0.6181033,0,0,0.6181033,5.165521,398.72814)"><path id="path2100" fill="#ffdb4b" fill-opacity=".725" stroke="none" d="m 37.749052,24.053984 -6.650611,1.782026 -4.868586,-4.868586 1.782026,-6.650611 6.650611,-1.782026 4.868586,4.868585 z" transform="matrix(0.73395866,-0.19666363,0.19666363,0.73395866,-3.909948,1020.742)"/><path id="path2102" fill="#ffdb4b" fill-opacity=".725" stroke="none" d="m 24,1027.6864 -4.535354,2.6123 0,0.6646 4.535354,2.6359 4.535354,-2.6359 0,-0.6646 L 24,1027.6864 Z"/></g><path id="path1932" fill="#ffdb4b" fill-opacity=".725" stroke="none" d="m 37.749052,24.053984 -6.650611,1.782026 -4.868586,-4.868586 1.782026,-6.650611 6.650611,-1.782026 4.868586,4.868585 z" transform="matrix(0.73395866,-0.19666363,0.19666363,0.73395866,-3.909948,1008.742)"/><path id="path1934" fill="#ffdb4b" fill-opacity=".725" stroke="none" d="m 24,1015.6864 -4.535354,2.6123 0,0.6646 4.535354,2.6359 4.535354,-2.6359 0,-0.6646 L 24,1015.6864 Z"/><path id="path1936" fill="#ffdb4b" fill-opacity=".725" stroke="none" d="m 37.749052,24.053984 -6.650611,1.782026 -4.868586,-4.868586 1.782026,-6.650611 6.650611,-1.782026 4.868586,4.868585 z" transform="matrix(0.73395866,-0.19666363,0.19666363,0.73395866,-3.909948,1002.742)"/><path id="path1938" fill="#ffdb4b" fill-opacity=".725" stroke="none" d="m 24,1009.6864 -4.535354,2.6123 0,0.6646 4.535354,2.6359 4.535354,-2.6359 0,-0.6646 L 24,1009.6864 Z"/><path id="path1940" fill="#ffdb4b" fill-opacity=".725" stroke="none" d="m 37.749052,24.053984 -6.650611,1.782026 -4.868586,-4.868586 1.782026,-6.650611 6.650611,-1.782026 4.868586,4.868585 z" transform="matrix(0.73395866,-0.19666363,0.19666363,0.73395866,2.090052,1004.742)"/><path id="path1942" fill="#ffdb4b" fill-opacity=".725" stroke="none" d="m 30,1011.6864 -4.535354,2.6123 0,0.6646 4.535354,2.6359 4.535354,-2.6359 0,-0.6646 L 30,1011.6864 Z"/><g id="g1988" transform="matrix(1.3314606,0,0,1.3314606,-10.457378,-342.50919)"><path id="path1976" fill="#3c81bb" fill-opacity=".537" stroke="none" d="m 37.749052,24.053984 -6.650611,1.782026 -4.868586,-4.868586 1.782026,-6.650611 6.650611,-1.782026 4.868586,4.868585 z" transform="matrix(0.45366422,-0.12155896,0.12155896,0.45366422,14.298082,1031.8601)"/><path id="path1978" fill="#3c81bb" fill-opacity=".537" stroke="none" d="m 31.549387,1036.1526 -2.803329,1.6145 0,0.411 2.803329,1.6291 2.803329,-1.6291 0,-0.411 L 31.549387,1036.1526 Z"/></g><g id="g1992" transform="matrix(1.3314606,0,0,1.3314606,-10.457378,-338.80606)"><path id="path1994" fill="#3c81bb" fill-opacity=".537" stroke="none" d="m 37.749052,24.053984 -6.650611,1.782026 -4.868586,-4.868586 1.782026,-6.650611 6.650611,-1.782026 4.868586,4.868585 z" transform="matrix(0.45366422,-0.12155896,0.12155896,0.45366422,14.298082,1031.8601)"/><path id="path1996" fill="#3c81bb" fill-opacity=".537" stroke="none" d="m 31.549387,1036.1526 -2.803329,1.6145 0,0.411 2.803329,1.6291 2.803329,-1.6291 0,-0.411 L 31.549387,1036.1526 Z"/></g><g id="g1998" transform="matrix(1.3314606,0,0,1.3314606,-10.457378,-335.06133)"><path id="path2000" fill="#3c81bb" fill-opacity=".537" stroke="none" d="m 37.749052,24.053984 -6.650611,1.782026 -4.868586,-4.868586 1.782026,-6.650611 6.650611,-1.782026 4.868586,4.868585 z" transform="matrix(0.45366422,-0.12155896,0.12155896,0.45366422,14.298082,1031.8601)"/><path id="path2002" fill="#3c81bb" fill-opacity=".537" stroke="none" d="m 31.549387,1036.1526 -2.803329,1.6145 0,0.411 2.803329,1.6291 2.803329,-1.6291 0,-0.411 L 31.549387,1036.1526 Z"/></g><g id="g2008" transform="translate(-48,4)"><path id="path2010" fill="#c90c0c" fill-opacity=".526" stroke="none" d="m 37.749052,24.053984 -6.650611,1.782026 -4.868586,-4.868586 1.782026,-6.650611 6.650611,-1.782026 4.868586,4.868585 z" transform="matrix(0.73395866,-0.19666363,0.19666363,0.73395866,45.881232,1022.9499)"/><path id="path2012" fill="#c90c0c" fill-opacity=".526" stroke="none" d="m 73.791179,1029.8946 -4.535354,2.6119 0,0.665 4.535354,2.6357 4.535354,-2.6357 0,-0.665 L 73.791179,1029.8946 Z"/></g><g id="g2014" transform="translate(-50.509667,10)"><path id="path2016" fill="#c90c0c" fill-opacity=".526" stroke="none" d="m 37.749052,24.053984 -6.650611,1.782026 -4.868586,-4.868586 1.782026,-6.650611 6.650611,-1.782026 4.868586,4.868585 z" transform="matrix(0.73395866,-0.19666363,0.19666363,0.73395866,45.881232,1022.9499)"/><path id="path2018" fill="#c90c0c" fill-opacity=".526" stroke="none" d="m 73.791179,1029.8946 -4.535354,2.6119 0,0.665 4.535354,2.6357 4.535354,-2.6357 0,-0.665 L 73.791179,1029.8946 Z"/></g><g id="g2042" transform="translate(-6,8)"><path id="path2044" fill="#ffdb4b" fill-opacity=".725" stroke="none" d="m 37.749052,24.053984 -6.650611,1.782026 -4.868586,-4.868586 1.782026,-6.650611 6.650611,-1.782026 4.868586,4.868585 z" transform="matrix(0.73395866,-0.19666363,0.19666363,0.73395866,-3.909948,1020.742)"/><path id="path2046" fill="#ffdb4b" fill-opacity=".725" stroke="none" d="m 24,1027.6864 -4.535354,2.6123 0,0.6646 4.535354,2.6359 4.535354,-2.6359 0,-0.6646 L 24,1027.6864 Z"/></g><g id="g2116" transform="matrix(0.80905165,0,0,0.80905165,0.5827605,204.36407)"><path id="path2118" fill="#ffdb4b" fill-opacity=".725" stroke="none" d="m 37.749052,24.053984 -6.650611,1.782026 -4.868586,-4.868586 1.782026,-6.650611 6.650611,-1.782026 4.868586,4.868585 z" transform="matrix(0.73395866,-0.19666363,0.19666363,0.73395866,-3.909948,1020.742)"/><path id="path2120" fill="#ffdb4b" fill-opacity=".725" stroke="none" d="m 24,1027.6864 -4.535354,2.6123 0,0.6646 4.535354,2.6359 4.535354,-2.6359 0,-0.6646 L 24,1027.6864 Z"/></g><g id="g2020" transform="matrix(0.80905347,0,0,0.80905347,-40.419497,202.78379)"><path id="path2022" fill="#c90c0c" fill-opacity=".526" stroke="none" d="m 37.749052,24.053984 -6.650611,1.782026 -4.868586,-4.868586 1.782026,-6.650611 6.650611,-1.782026 4.868586,4.868585 z" transform="matrix(0.73395866,-0.19666363,0.19666363,0.73395866,45.881232,1022.9499)"/><path id="path2024" fill="#c90c0c" fill-opacity=".526" stroke="none" d="m 73.791179,1029.8946 -4.535354,2.6119 0,0.665 4.535354,2.6357 4.535354,-2.6357 0,-0.665 L 73.791179,1029.8946 Z"/></g><g id="g2026" transform="matrix(0.80905347,0,0,0.80905347,-44.419497,206.78379)"><path id="path2028" fill="#c90c0c" fill-opacity=".526" stroke="none" d="m 37.749052,24.053984 -6.650611,1.782026 -4.868586,-4.868586 1.782026,-6.650611 6.650611,-1.782026 4.868586,4.868585 z" transform="matrix(0.73395866,-0.19666363,0.19666363,0.73395866,45.881232,1022.9499)"/><path id="path2030" fill="#c90c0c" fill-opacity=".526" stroke="none" d="m 73.791179,1029.8946 -4.535354,2.6119 0,0.665 4.535354,2.6357 4.535354,-2.6357 0,-0.665 L 73.791179,1029.8946 Z"/></g><g id="g2032" transform="matrix(0.80905347,0,0,0.80905347,-42.419497,198.78379)"><path id="path2034" fill="#c90c0c" fill-opacity=".526" stroke="none" d="m 37.749052,24.053984 -6.650611,1.782026 -4.868586,-4.868586 1.782026,-6.650611 6.650611,-1.782026 4.868586,4.868585 z" transform="matrix(0.73395866,-0.19666363,0.19666363,0.73395866,45.881232,1022.9499)"/><path id="path2036" fill="#c90c0c" fill-opacity=".526" stroke="none" d="m 73.791179,1029.8946 -4.535354,2.6119 0,0.665 4.535354,2.6357 4.535354,-2.6357 0,-0.665 L 73.791179,1029.8946 Z"/></g><g id="g2060" transform="matrix(0.80905347,0,0,0.80905347,-42.419497,194.78379)"><path id="path2062" fill="#c90c0c" fill-opacity=".526" stroke="none" d="m 37.749052,24.053984 -6.650611,1.782026 -4.868586,-4.868586 1.782026,-6.650611 6.650611,-1.782026 4.868586,4.868585 z" transform="matrix(0.73395866,-0.19666363,0.19666363,0.73395866,45.881232,1022.9499)"/><path id="path2064" fill="#c90c0c" fill-opacity=".526" stroke="none" d="m 73.791179,1029.8946 -4.535354,2.6119 0,0.665 4.535354,2.6357 4.535354,-2.6357 0,-0.665 L 73.791179,1029.8946 Z"/></g><g id="g2066" transform="matrix(0.80905347,0,0,0.80905347,-42.419497,190.78379)"><path id="path2068" fill="#c90c0c" fill-opacity=".526" stroke="none" d="m 37.749052,24.053984 -6.650611,1.782026 -4.868586,-4.868586 1.782026,-6.650611 6.650611,-1.782026 4.868586,4.868585 z" transform="matrix(0.73395866,-0.19666363,0.19666363,0.73395866,45.881232,1022.9499)"/><path id="path2070" fill="#c90c0c" fill-opacity=".526" stroke="none" d="m 73.791179,1029.8946 -4.535354,2.6119 0,0.665 4.535354,2.6357 4.535354,-2.6357 0,-0.665 L 73.791179,1029.8946 Z"/></g><g id="g2080" transform="matrix(0.61810694,0,0,0.61810694,-24.022288,383.56758)"><path id="path2082" fill="#3c81bb" fill-opacity=".537" stroke="none" d="m 37.749052,24.053984 -6.650611,1.782026 -4.868586,-4.868586 1.782026,-6.650611 6.650611,-1.782026 4.868586,4.868585 z" transform="matrix(0.73395866,-0.19666363,0.19666363,0.73395866,29.639439,1022.9499)"/><path id="path2084" fill="#3c81bb" fill-opacity=".537" stroke="none" d="m 57.549387,1029.8946 -4.535354,2.6119 0,0.665 4.535354,2.6357 4.535354,-2.6357 0,-0.665 L 57.549387,1029.8946 Z"/></g><g id="g2104" transform="matrix(0.80905165,0,0,0.80905165,0.5827605,192.36407)"><path id="path2106" fill="#ffdb4b" fill-opacity=".725" stroke="none" d="m 37.749052,24.053984 -6.650611,1.782026 -4.868586,-4.868586 1.782026,-6.650611 6.650611,-1.782026 4.868586,4.868585 z" transform="matrix(0.73395866,-0.19666363,0.19666363,0.73395866,-3.909948,1020.742)"/><path id="path2108" fill="#ffdb4b" fill-opacity=".725" stroke="none" d="m 24,1027.6864 -4.535354,2.6123 0,0.6646 4.535354,2.6359 4.535354,-2.6359 0,-0.6646 L 24,1027.6864 Z"/></g><g id="g2110" transform="matrix(0.80905165,0,0,0.80905165,0.5827605,198.36407)"><path id="path2112" fill="#ffdb4b" fill-opacity=".725" stroke="none" d="m 37.749052,24.053984 -6.650611,1.782026 -4.868586,-4.868586 1.782026,-6.650611 6.650611,-1.782026 4.868586,4.868585 z" transform="matrix(0.73395866,-0.19666363,0.19666363,0.73395866,-3.909948,1020.742)"/><path id="path2114" fill="#ffdb4b" fill-opacity=".725" stroke="none" d="m 24,1027.6864 -4.535354,2.6123 0,0.6646 4.535354,2.6359 4.535354,-2.6359 0,-0.6646 L 24,1027.6864 Z"/></g><g id="g2122" transform="matrix(1.3314606,0,0,1.3314606,-20.457378,-346.50919)"><path id="path2124" fill="#3c81bb" fill-opacity=".537" stroke="none" d="m 37.749052,24.053984 -6.650611,1.782026 -4.868586,-4.868586 1.782026,-6.650611 6.650611,-1.782026 4.868586,4.868585 z" transform="matrix(0.45366422,-0.12155896,0.12155896,0.45366422,14.298082,1031.8601)"/><path id="path2126" fill="#3c81bb" fill-opacity=".537" stroke="none" d="m 31.549387,1036.1526 -2.803329,1.6145 0,0.411 2.803329,1.6291 2.803329,-1.6291 0,-0.411 L 31.549387,1036.1526 Z"/></g><g id="g2134" transform="matrix(1.3314606,0,0,1.3314606,-10.457378,-350.50919)"><path id="path2136" fill="#3c81bb" fill-opacity=".537" stroke="none" d="m 37.749052,24.053984 -6.650611,1.782026 -4.868586,-4.868586 1.782026,-6.650611 6.650611,-1.782026 4.868586,4.868585 z" transform="matrix(0.45366422,-0.12155896,0.12155896,0.45366422,14.298082,1031.8601)"/><path id="path2138" fill="#3c81bb" fill-opacity=".537" stroke="none" d="m 31.549387,1036.1526 -2.803329,1.6145 0,0.411 2.803329,1.6291 2.803329,-1.6291 0,-0.411 L 31.549387,1036.1526 Z"/></g><g id="g2140" transform="matrix(1.3314606,0,0,1.3314606,-6.457378,-352.50919)"><path id="path2142" fill="#3c81bb" fill-opacity=".537" stroke="none" d="m 37.749052,24.053984 -6.650611,1.782026 -4.868586,-4.868586 1.782026,-6.650611 6.650611,-1.782026 4.868586,4.868585 z" transform="matrix(0.45366422,-0.12155896,0.12155896,0.45366422,14.298082,1031.8601)"/><path id="path2144" fill="#3c81bb" fill-opacity=".537" stroke="none" d="m 31.549387,1036.1526 -2.803329,1.6145 0,0.411 2.803329,1.6291 2.803329,-1.6291 0,-0.411 L 31.549387,1036.1526 Z"/></g><g id="g2146" transform="matrix(1.3314606,0,0,1.3314606,-10.457378,-356.50919)"><path id="path2148" fill="#3c81bb" fill-opacity=".537" stroke="none" d="m 37.749052,24.053984 -6.650611,1.782026 -4.868586,-4.868586 1.782026,-6.650611 6.650611,-1.782026 4.868586,4.868585 z" transform="matrix(0.45366422,-0.12155896,0.12155896,0.45366422,14.298082,1031.8601)"/><path id="path2150" fill="#3c81bb" fill-opacity=".537" stroke="none" d="m 31.549387,1036.1526 -2.803329,1.6145 0,0.411 2.803329,1.6291 2.803329,-1.6291 0,-0.411 L 31.549387,1036.1526 Z"/></g><g id="g2152" transform="translate(-38,2)"><path id="path2154" fill="#c90c0c" fill-opacity=".526" stroke="none" d="m 37.749052,24.053984 -6.650611,1.782026 -4.868586,-4.868586 1.782026,-6.650611 6.650611,-1.782026 4.868586,4.868585 z" transform="matrix(0.73395866,-0.19666363,0.19666363,0.73395866,45.881232,1022.9499)"/><path id="path2156" fill="#c90c0c" fill-opacity=".526" stroke="none" d="m 73.791179,1029.8946 -4.535354,2.6119 0,0.665 4.535354,2.6357 4.535354,-2.6357 0,-0.665 L 73.791179,1029.8946 Z"/></g><g id="g2158" transform="translate(-36,-6)"><path id="path2160" fill="#c90c0c" fill-opacity=".526" stroke="none" d="m 37.749052,24.053984 -6.650611,1.782026 -4.868586,-4.868586 1.782026,-6.650611 6.650611,-1.782026 4.868586,4.868585 z" transform="matrix(0.73395866,-0.19666363,0.19666363,0.73395866,45.881232,1022.9499)"/><path id="path2162" fill="#c90c0c" fill-opacity=".526" stroke="none" d="m 73.791179,1029.8946 -4.535354,2.6119 0,0.665 4.535354,2.6357 4.535354,-2.6357 0,-0.665 L 73.791179,1029.8946 Z"/></g><g id="g2164" transform="translate(-40,-10)"><path id="path2166" fill="#c90c0c" fill-opacity=".526" stroke="none" d="m 37.749052,24.053984 -6.650611,1.782026 -4.868586,-4.868586 1.782026,-6.650611 6.650611,-1.782026 4.868586,4.868585 z" transform="matrix(0.73395866,-0.19666363,0.19666363,0.73395866,45.881232,1022.9499)"/><path id="path2168" fill="#c90c0c" fill-opacity=".526" stroke="none" d="m 73.791179,1029.8946 -4.535354,2.6119 0,0.665 4.535354,2.6357 4.535354,-2.6357 0,-0.665 L 73.791179,1029.8946 Z"/></g><g id="g2170" transform="translate(-20,0)"><path id="path2172" fill="#ffdb4b" fill-opacity=".725" stroke="none" d="m 37.749052,24.053984 -6.650611,1.782026 -4.868586,-4.868586 1.782026,-6.650611 6.650611,-1.782026 4.868586,4.868585 z" transform="matrix(0.73395866,-0.19666363,0.19666363,0.73395866,29.639439,1012.3122)"/><path id="path2174" fill="#ffdb4b" fill-opacity=".725" stroke="none" d="m 57.549387,1019.2566 -4.535354,2.6123 0,0.6646 4.535354,2.6359 4.535354,-2.6359 0,-0.6646 L 57.549387,1019.2566 Z"/></g><g id="g2176" transform="translate(-28,4)"><path id="path2178" fill="#ffdb4b" fill-opacity=".725" stroke="none" d="m 37.749052,24.053984 -6.650611,1.782026 -4.868586,-4.868586 1.782026,-6.650611 6.650611,-1.782026 4.868586,4.868585 z" transform="matrix(0.73395866,-0.19666363,0.19666363,0.73395866,29.639439,1012.3122)"/><path id="path2180" fill="#ffdb4b" fill-opacity=".725" stroke="none" d="m 57.549387,1019.2566 -4.535354,2.6123 0,0.6646 4.535354,2.6359 4.535354,-2.6359 0,-0.6646 L 57.549387,1019.2566 Z"/></g></g><path id="path2287" fill="#000" fill-opacity=".344" stroke="none" d="m 19.683967,1016.9863 0,0.4933 0,0.062 0.462432,-0.2774 L 19.683967,1016.9863 z m 10.728423,1.449 -0.49326,0.2774 0.49326,0.2775 0,-0.092 L 30.41239,1018.4353 z m -4.285203,1.264 0,0.9556 0.52409,0.3083 0,-0.4007 0.49326,-0.2775 L 26.127187,1019.6993 z m -6.44322,1.5722 0,0.9557 0.09249,0.062 0.277459,-0.185 1.479782,0.8632 0.52409,-0.3083 L 19.683967,1021.2715 z m 6.44322,0 -1.29481,0.7399 0.184973,0.1233 1.109837,-0.6165 L 26.127187,1021.2715 z m -14.088763,2.3122 0,0.6474 0,0.2774 0,0.031 1.973043,1.1406 0.03083,0 1.448954,-0.8323 0,-0.9557 -1.448954,0.8323 -0.03083,0 L 12.038424,1023.5837 z m 23.923151,3.5453 -2.158016,1.264 0,0.2774 0.585747,0.3392 1.572269,-0.9249 0,-0.4624 L 35.961575,1027.129 z m -8.539578,4.3469 0,0.524 0.462432,-0.2466 L 27.421997,1031.4759 z m 7.121453,1.3564 -3.237024,1.8806 -0.369946,-0.2158 0,0.9557 0.369946,0.2158 3.237024,-1.8806 0,-0.4624 L 34.54345,1032.8323 z m -20.470325,5.3642 0,0.555 0,0.3699 0,0.031 0.52409,0.3083 0,-0.9557 L 14.073125,1038.1965 z m 0.52409,1.264 0,0.9557 2.589619,1.5106 2.620448,-1.5106 0,-0.4008 0,-0.1541 2.58962,1.5106 0.493261,-0.2775 1.448953,0.8324 1.29481,-0.7399 0,-0.9557 -1.29481,0.7399 -1.448953,-0.8324 -0.493261,0.2775 -2.58962,-1.5106 0,0.1541 0,0.4008 -2.620448,1.5106 L 14.597215,1039.4605 z m 11.036711,1.9731 0,0.9557 2.651277,1.5414 2.651277,-1.5414 0,-0.4008 0,-0.5549 -2.651277,1.5414 L 25.633926,1041.4336 Z"/></g></g></svg>