<svg xmlns="http://www.w3.org/2000/svg" xmlns:svg="http://www.w3.org/2000/svg" xmlns:xlink="http://www.w3.org/1999/xlink" id="svg2" width="48" height="48" version="1.1"><defs id="defs4"><linearGradient id="linearGradient4098"><stop id="stop4100" offset="0" stop-color="#1a1a1a" stop-opacity="1"/><stop id="stop4102" offset="1" stop-color="#333" stop-opacity="1"/></linearGradient><linearGradient id="linearGradient859"><stop id="stop861" offset="0" stop-color="#ffae00" stop-opacity="1"/><stop id="stop863" offset="1" stop-color="#fcdb00" stop-opacity="1"/></linearGradient><linearGradient id="ButtonShadow" x1="45.448" x2="45.448" y1="92.54" y2="7.017" gradientTransform="scale(1.0058652,0.994169)" gradientUnits="userSpaceOnUse"><stop id="stop3750" offset="0" stop-color="#000" stop-opacity="1"/><stop id="stop3752" offset="1" stop-color="#000" stop-opacity=".588"/></linearGradient><linearGradient id="linearGradient3737"><stop id="stop3739" offset="0" stop-color="#fff" stop-opacity="1"/><stop id="stop3741" offset="1" stop-color="#fff" stop-opacity="0"/></linearGradient><filter id="filter3174" color-interpolation-filters="sRGB"><feGaussianBlur id="feGaussianBlur3176" stdDeviation="1.71"/></filter><filter id="filter3794" width="1.384" height="1.384" x="-.192" y="-.192" color-interpolation-filters="sRGB"><feGaussianBlur id="feGaussianBlur3796" stdDeviation="5.28"/></filter><linearGradient id="linearGradient3613" x1="48" x2="48" y1="20.221" y2="138.661" gradientUnits="userSpaceOnUse" xlink:href="#linearGradient3737"/><clipPath id="clipPath3613"><rect id="rect3615" width="84" height="84" x="6" y="6" fill="#fff" fill-opacity="1" fill-rule="nonzero" stroke="none" rx="6" ry="6"/></clipPath><linearGradient id="linearGradient865" x1="19.98" x2="19.98" y1="-1052.522" y2="-1004.73" gradientUnits="userSpaceOnUse" xlink:href="#linearGradient859"/><linearGradient id="linearGradient4111" x1="25.897" x2="25.897" y1="1037.703" y2="1018.993" gradientTransform="matrix(1.6516129,0,0,1.6516129,-7.5459645,-670.09401)" gradientUnits="userSpaceOnUse" xlink:href="#linearGradient4098"/></defs><metadata id="metadata7"/><g id="layer1" transform="translate(0,-1004.3622)"><g id="layer2" display="none" transform="translate(-126.31865,964.9772)"><rect id="rect3745" width="86" height="85" x="5" y="7" fill="url(#ButtonShadow)" fill-opacity="1" fill-rule="nonzero" stroke="none" filter="url(#filter3174)" opacity=".9" rx="6" ry="6"/></g><g id="layer5" display="none" transform="translate(-126.31865,964.9772)"><rect id="rect3171" width="66" height="66" x="15" y="15" fill="url(#linearGradient3613)" fill-opacity="1" fill-rule="nonzero" stroke="#fff" stroke-dasharray="none" stroke-dashoffset="0" stroke-linecap="round" stroke-linejoin="miter" stroke-miterlimit="4" stroke-opacity="1" stroke-width=".5" clip-path="url(#clipPath3613)" filter="url(#filter3794)" opacity=".1" rx="12" ry="12"/></g><rect id="rect2991-1" width="48" height="48" x="0" y="-1052.362" fill="url(#linearGradient865)" fill-opacity="1" stroke="none" ry="1.945" transform="scale(1,-1)"/><path font-stretch="normal" style="line-height:125%;-inkscape-font-specification:Raconteur NF" id="path4124" fill="#000" fill-opacity=".059" stroke="none" d="m 5.667743,1014.1622 0,30.8 1.174193,0 0,-21.7484 22.335484,21.7484 2.890322,0 0,-14.4193 4.151613,0 0,4.1677 1.964516,0 0,-4.1677 4.148386,0 0,-1.9613 -4.148386,0 0,-4.1678 -1.964516,0 0,4.1678 -4.151613,0 0,-14.4194 -1.132258,0 0,22.0839 -23.090322,-22.0839 -2.177419,0 z" font-family="Raconteur NF" font-size="25.373" font-style="normal" font-variant="normal" font-weight="normal" letter-spacing="0" word-spacing="0"/><path id="rect846" fill="#000" fill-opacity="1" stroke="none" d="m -3.4576416e-8,1049.3622 0,1.0625 c 0,1.0773 0.860223004576416,1.9375 1.937500034576416,1.9375 l 44.125,0 c 1.077277,0 1.9375,-0.8602 1.9375,-1.9375 l 0,-1.0625 c 0,1.0773 -0.860223,1.9375 -1.9375,1.9375 l -44.125,0 C 0.86022297,1051.2997 -3.4576416e-8,1050.4395 -3.4576416e-8,1049.3622 Z"/><path id="path7515" fill="#fff" fill-opacity=".537" stroke="none" d="m 2.53125,1005.0185 c -0.917088,0 -1.67114603,0.6395 -1.84375003,1.5 C 1.023112,1006.2386 1.462012,1006.081 1.9375,1006.081 l 44.125,0 c 0.475488,0 0.914388,0.1576 1.25,0.4375 -0.172603,-0.8605 -0.926662,-1.5 -1.84375,-1.5 L 2.53125,1005.0185 Z"/><path id="rect4280" fill="#000" fill-opacity=".392" stroke="none" d="m 1.9375,1004.3622 c -1.07727703,0 -1.937500034576416,0.8602 -1.937500034576416,1.9375 l 0,43.0625 c 0,0.7934 0.480024004576416,1.449 1.156250034576416,1.75 -0.30934103,-0.3333 -0.50000003,-0.7824 -0.50000003,-1.2812 l 0,-42.9375 c 0,-1.0482 0.82689903,-1.875 1.87500003,-1.875 l 42.9375,0 c 1.048101,0 1.875,0.8268 1.875,1.875 l 0,42.9375 c 0,0.4988 -0.190658,0.9479 -0.5,1.2812 0.676226,-0.301 1.15625,-0.9566 1.15625,-1.75 l 0,-43.0625 c 0,-1.0773 -0.860223,-1.9375 -1.9375,-1.9375 L 1.9375,1004.3622 Z"/><path font-stretch="normal" style="line-height:125%;-inkscape-font-specification:Raconteur NF" id="path4122" fill="#000" fill-opacity=".118" stroke="none" d="m 5.667743,1013.7622 0,30.8 1.174193,0 0,-21.7484 22.335484,21.7484 2.890322,0 0,-14.4193 4.151613,0 0,4.1677 1.964516,0 0,-4.1677 4.148386,0 0,-1.9613 -4.148386,0 0,-4.1678 -1.964516,0 0,4.1678 -4.151613,0 0,-14.4194 -1.132258,0 0,22.0839 -23.090322,-22.0839 -2.177419,0 z" font-family="Raconteur NF" font-size="25.373" font-style="normal" font-variant="normal" font-weight="normal" letter-spacing="0" word-spacing="0"/><path font-stretch="normal" style="line-height:125%;-inkscape-font-specification:Raconteur NF" id="path4118" fill="#000" fill-opacity=".235" stroke="none" d="m 5.667743,1013.3622 0,30.8 1.174193,0 0,-21.7484 22.335484,21.7484 2.890322,0 0,-14.4193 4.151613,0 0,4.1677 1.964516,0 0,-4.1677 4.148386,0 0,-1.9613 -4.148386,0 0,-4.1678 -1.964516,0 0,4.1678 -4.151613,0 0,-14.4194 -1.132258,0 0,22.0839 -23.090322,-22.0839 -2.177419,0 z" font-family="Raconteur NF" font-size="25.373" font-style="normal" font-variant="normal" font-weight="normal" letter-spacing="0" word-spacing="0"/><path font-stretch="normal" style="line-height:125%;-inkscape-font-specification:Raconteur NF" id="path4107" fill="url(#linearGradient4111)" fill-opacity="1" stroke="none" d="m 5.667743,1012.9622 0,30.8 1.174193,0 0,-21.7484 22.335484,21.7484 2.890322,0 0,-14.4193 4.151613,0 0,4.1677 1.964516,0 0,-4.1677 4.148386,0 0,-1.9613 -4.148386,0 0,-4.1678 -1.964516,0 0,4.1678 -4.151613,0 0,-14.4194 -1.132258,0 0,22.0839 -23.090322,-22.0839 -2.177419,0 z" font-family="Raconteur NF" font-size="25.373" font-style="normal" font-variant="normal" font-weight="normal" letter-spacing="0" word-spacing="0"/><path id="path4126" fill="#000" fill-opacity=".314" stroke="none" d="M 6.8417969 16.851562 L 6.8417969 17.652344 L 29.177734 39.400391 L 32.068359 39.400391 L 32.068359 38.599609 L 29.177734 38.599609 L 6.8417969 16.851562 z M 32.068359 24.181641 L 32.068359 24.980469 L 36.21875 24.980469 L 36.21875 24.181641 L 32.068359 24.181641 z M 38.183594 24.181641 L 38.183594 24.980469 L 42.332031 24.980469 L 42.332031 24.181641 L 38.183594 24.181641 z M 36.21875 28.347656 L 36.21875 29.148438 L 38.183594 29.148438 L 38.183594 28.347656 L 36.21875 28.347656 z M 5.6679688 38.599609 L 5.6679688 39.400391 L 6.8417969 39.400391 L 6.8417969 38.599609 L 5.6679688 38.599609 z" font-family="Raconteur NF" font-size="25.373" font-stretch="normal" font-style="normal" font-variant="normal" font-weight="normal" letter-spacing="0" transform="translate(0,1004.3622)" word-spacing="0" style="line-height:125%;-inkscape-font-specification:Raconteur NF"/><path id="path4131" fill="#fff" fill-opacity=".235" stroke="none" d="M 5.6679688 8.5996094 L 5.6679688 9 L 7.8457031 9 L 30.935547 31.083984 L 30.935547 30.683594 L 7.8457031 8.5996094 L 5.6679688 8.5996094 z M 30.935547 8.5996094 L 30.935547 9 L 32.068359 9 L 32.068359 8.5996094 L 30.935547 8.5996094 z M 36.21875 18.851562 L 36.21875 19.251953 L 38.183594 19.251953 L 38.183594 18.851562 L 36.21875 18.851562 z M 32.068359 23.019531 L 32.068359 23.419922 L 36.21875 23.419922 L 36.21875 23.019531 L 32.068359 23.019531 z M 38.183594 23.019531 L 38.183594 23.419922 L 42.332031 23.419922 L 42.332031 23.019531 L 38.183594 23.019531 z" font-family="Raconteur NF" font-size="25.373" font-stretch="normal" font-style="normal" font-variant="normal" font-weight="normal" letter-spacing="0" transform="translate(0,1004.3622)" word-spacing="0" style="line-height:125%;-inkscape-font-specification:Raconteur NF"/></g></svg>