<svg xmlns="http://www.w3.org/2000/svg" xmlns:svg="http://www.w3.org/2000/svg" xmlns:xlink="http://www.w3.org/1999/xlink" id="svg2" width="48" height="48" version="1.1" viewBox="0 0 48 48"><defs id="defs4"><linearGradient id="linearGradient5590"><stop id="stop5592" offset="0" stop-color="#151515" stop-opacity="1"/><stop id="stop5594" offset="1" stop-color="#202020" stop-opacity="1"/></linearGradient><linearGradient id="linearGradient838" x1="-43.058" x2="-43.058" y1="-1041.866" y2="-993.88" gradientTransform="translate(67.5,-10.500009)" gradientUnits="userSpaceOnUse" xlink:href="#linearGradient5590"/><linearGradient id="linearGradient4215-2-3-9"><stop id="stop4217-5-1-1" offset="0" stop-color="#dcdcdc" stop-opacity="1"/><stop id="stop4219-5-4-7" offset="1" stop-color="#f0f0f0" stop-opacity="1"/></linearGradient><linearGradient id="linearGradient4734" x1="23.912" x2="23.912" y1="1044.774" y2="1011.862" gradientUnits="userSpaceOnUse" xlink:href="#linearGradient4215-2-3-9"/></defs><metadata id="metadata7"/><g id="layer1" transform="translate(0,-1004.3622)"><rect id="rect2991-1" width="48" height="48" x="0" y="-1052.362" fill="url(#linearGradient838)" fill-opacity="1" stroke="none" ry="1.945" transform="scale(1,-1)"/><g id="g4489"><path id="rect846" fill="#000" fill-opacity="1" stroke="none" d="m 0,1049.3622 0,1.0625 c 0,1.0773 0.860223,1.9375 1.9375,1.9375 l 44.125,0 c 1.077277,0 1.9375,-0.8602 1.9375,-1.9375 l 0,-1.0625 c 0,1.0773 -0.860223,1.9375 -1.9375,1.9375 l -44.125,0 C 0.860223,1051.2997 0,1050.4395 0,1049.3622 Z"/><path id="path7515" fill="#fff" fill-opacity=".537" stroke="none" d="m 2.53125,1005.0185 c -0.917089,0 -1.671147,0.6395 -1.84375,1.5 0.335612,-0.2799 0.774512,-0.4375 1.25,-0.4375 l 44.125,0 c 0.475488,0 0.914388,0.1576 1.25,0.4375 -0.172603,-0.8605 -0.926662,-1.5 -1.84375,-1.5 l -42.9375,0 z"/><path id="rect4280-8" fill="#000" fill-opacity=".392" stroke="none" d="m 1.9375,1004.3622 c -1.077277,0 -1.9375,0.8602 -1.9375,1.9375 l 0,43.0625 c 0,0.7934 0.480024,1.449 1.15625,1.75 -0.309342,-0.3333 -0.5,-0.7824 -0.5,-1.2812 l 0,-42.9375 c 0,-1.0482 0.826899,-1.875 1.875,-1.875 l 42.9375,0 c 1.048101,0 1.875,0.8268 1.875,1.875 l 0,42.9375 c 0,0.4988 -0.190658,0.9479 -0.5,1.2812 0.676226,-0.301 1.15625,-0.9566 1.15625,-1.75 l 0,-43.0625 c 0,-1.0773 -0.860223,-1.9375 -1.9375,-1.9375 l -44.125,0 z"/></g><path id="path5393" fill="#000" fill-opacity=".059" fill-rule="evenodd" stroke="none" stroke-linecap="butt" stroke-linejoin="miter" stroke-opacity="1" stroke-width="1" d="m 11,1013.0622 0,32.1758 1.648438,0.8242 L 37,1031.277 l 0,-2.4297 -18,-10.9277 0,1.2793 15,8.8633 -22,14 0,-14 0,-13 0,-1.3926 -1,-0.6074 z"/><path id="path5391" fill="#000" fill-opacity=".118" fill-rule="evenodd" stroke="none" stroke-linecap="butt" stroke-linejoin="miter" stroke-opacity="1" stroke-width="1" d="m 11,1012.6622 0,32.1758 1.648438,0.8242 L 37,1030.877 l 0,-2.4297 -18,-10.9277 0,1.2793 15,8.8633 -22,14 0,-14 0,-13 0,-1.3926 -1,-0.6074 z"/><path id="path5389" fill="#000" fill-opacity=".235" fill-rule="evenodd" stroke="none" stroke-linecap="butt" stroke-linejoin="miter" stroke-opacity="1" stroke-width="1" d="m 11,1012.2622 0,32.1758 1.648438,0.8242 L 37,1030.477 l 0,-2.4297 -18,-10.9277 0,1.2793 15,8.8633 -22,14 0,-14 0,-13 0,-1.3926 -1,-0.6074 z"/><path id="path4211" fill="url(#linearGradient4734)" fill-opacity="1" fill-rule="evenodd" stroke="none" stroke-linecap="butt" stroke-linejoin="miter" stroke-opacity="1" stroke-width="1" d="m 11,1011.8622 0,32.1758 1.648438,0.8242 L 37,1030.077 l 0,-2.4297 -18,-10.9277 0,1.2793 15,8.8633 -22,14 0,-14 0,-13 0,-1.3926 -1,-0.6074 z"/><path id="path5395" fill="#151515" fill-opacity=".314" fill-rule="evenodd" stroke="none" stroke-linecap="butt" stroke-linejoin="miter" stroke-opacity="1" stroke-width="1" d="M 19 12.835938 L 19 13.636719 L 33.347656 22.115234 L 34 21.699219 L 19 12.835938 z M 37 24.914062 L 12.648438 39.699219 L 11 38.875 L 11 39.675781 L 12.648438 40.5 L 37 25.714844 L 37 24.914062 z" transform="translate(0,1004.3622)"/><path id="path5400" fill="#fff" fill-opacity=".235" fill-rule="evenodd" stroke="none" stroke-linecap="butt" stroke-linejoin="miter" stroke-opacity="1" stroke-width="1" d="M 11 7.5 L 11 7.8007812 L 12 8.4082031 L 12 8.1074219 L 11 7.5 z M 19 12.357422 L 19 12.658203 L 37 23.585938 L 37 23.285156 L 19 12.357422 z M 33.755859 22.65625 L 12 36.5 L 12 36.800781 L 34 22.800781 L 33.755859 22.65625 z" transform="translate(0,1004.3622)"/></g></svg>