<svg xmlns="http://www.w3.org/2000/svg" xmlns:svg="http://www.w3.org/2000/svg" xmlns:xlink="http://www.w3.org/1999/xlink" id="svg2" width="48" height="48" version="1.1"><defs id="defs4"><linearGradient id="linearGradient897"><stop id="stop899" offset="0" stop-color="#000" stop-opacity="1"/><stop id="stop901" offset="1" stop-color="#000" stop-opacity="0"/></linearGradient><linearGradient id="linearGradient877"><stop id="stop879" offset="0" stop-color="#fff" stop-opacity="1"/><stop id="stop881" offset="1" stop-color="#fff" stop-opacity="0"/></linearGradient><linearGradient id="linearGradient860"><stop id="stop862" offset="0" stop-color="#131515" stop-opacity="1"/><stop id="stop864" offset="1" stop-color="#383c40" stop-opacity="1"/></linearGradient><linearGradient id="linearGradient848"><stop id="stop850" offset="0" stop-color="#3a3e3f" stop-opacity="1"/><stop id="stop852" offset="1" stop-color="#494d4f" stop-opacity="1"/></linearGradient><linearGradient id="linearGradient854" x1="27.577" x2="27.577" y1="-1052.893" y2="-1005.34" gradientUnits="userSpaceOnUse" xlink:href="#linearGradient848"/><linearGradient id="linearGradient858" x1="27.577" x2="27.577" y1="-1052.893" y2="-1005.34" gradientTransform="matrix(0.66666664,0,0,0.66666664,8,-342.78738)" gradientUnits="userSpaceOnUse" xlink:href="#linearGradient860"/><linearGradient id="linearGradient883" x1="3.562" x2="9.062" y1="24.75" y2="24.75" gradientUnits="userSpaceOnUse" xlink:href="#linearGradient877"/><linearGradient id="linearGradient887" x1="3.562" x2="9.062" y1="24.75" y2="24.75" gradientTransform="matrix(0,1,-1,0,48,1004.3622)" gradientUnits="userSpaceOnUse" xlink:href="#linearGradient877"/><linearGradient id="linearGradient893" x1="3.562" x2="9.062" y1="24.75" y2="24.75" gradientTransform="matrix(-1,0,0,-1,48,1052.3622)" gradientUnits="userSpaceOnUse" xlink:href="#linearGradient897"/><linearGradient id="linearGradient895" x1="3.562" x2="9.062" y1="24.75" y2="24.75" gradientTransform="matrix(0,-1,1,0,0,1052.3622)" gradientUnits="userSpaceOnUse" xlink:href="#linearGradient897"/></defs><metadata id="metadata7"/><g id="layer1" transform="translate(0,-1004.3622)"><rect id="rect2991-1" width="48" height="48" x="0" y="-1052.362" fill="url(#linearGradient854)" fill-opacity="1" stroke="none" ry="1.945" transform="scale(1,-1)"/><path id="rect846" fill="#000" fill-opacity="1" stroke="none" d="m -2e-7,1049.3622 0,1.0625 c 0,1.0773 0.8602229,1.9375 1.9374999,1.9375 l 44.1250003,0 c 1.077277,0 1.9375,-0.8602 1.9375,-1.9375 l 0,-1.0625 c 0,1.0773 -0.860223,1.9375 -1.9375,1.9375 l -44.1250003,0 C 0.8602227,1051.2997 -2e-7,1050.4395 -2e-7,1049.3622 Z"/><path id="path7515" fill="#fff" fill-opacity=".537" stroke="none" d="m 2.5312497,1005.0185 c -0.9170884,0 -1.6711467,0.6395 -1.8437499,1.5 0.335612,-0.2799 0.7745121,-0.4375 1.2499999,-0.4375 l 44.1250003,0 c 0.475488,0 0.914388,0.1576 1.25,0.4375 -0.172603,-0.8605 -0.926662,-1.5 -1.84375,-1.5 L 2.5312497,1005.0185 Z"/><path id="rect4280" fill="#000" fill-opacity=".392" stroke="none" d="m 1.9374997,1004.3622 c -1.0772769,0 -1.9374999,0.8602 -1.9374999,1.9375 l 0,43.0625 c 0,0.7934 0.4800236,1.449 1.1562499,1.75 -0.3093416,-0.3333 -0.4999999,-0.7824 -0.4999999,-1.2812 l 0,-42.9375 c 0,-1.0482 0.8268989,-1.875 1.8749999,-1.875 l 42.9375003,0 c 1.048101,0 1.875,0.8268 1.875,1.875 l 0,42.9375 c 0,0.4988 -0.190658,0.9479 -0.5,1.2812 0.676226,-0.301 1.15625,-0.9566 1.15625,-1.75 l 0,-43.0625 c 0,-1.0773 -0.860223,-1.9375 -1.9375,-1.9375 L 1.9374997,1004.3622 Z"/><g id="g932" transform="matrix(0.96676786,0,0,0.96676786,0.79757136,34.174638)"><rect id="rect866" width="33.1" height="33.1" x="7.45" y="-1044.912" fill="#000" fill-opacity=".603" stroke="none" ry="1.341" transform="scale(1,-1)"/><rect id="rect856" width="32" height="32" x="8" y="-1044.362" fill="url(#linearGradient858)" fill-opacity="1" stroke="none" ry="1.296" transform="scale(1,-1)"/><path id="rect872" fill="url(#linearGradient883)" fill-opacity="1" stroke="none" d="M 9.28125,8 C 8.5630651,8 8,8.5630651 8,9.28125 l 0,29.4375 C 8,39.436935 8.5630651,40 9.28125,40 l 2,0 C 10.563065,40 10,39.436935 10,38.71875 L 10,9.28125 C 10,8.5630651 10.563065,8 11.28125,8 L 9.28125,8 Z" transform="translate(0,1004.3622)"/><path id="path885" fill="url(#linearGradient887)" fill-opacity="1" stroke="none" d="m 40,1013.6434 c 0,-0.7182 -0.563065,-1.2812 -1.28125,-1.2812 l -29.4375,0 c -0.718185,0 -1.28125,0.563 -1.28125,1.2812 l 0,2 c 0,-0.7182 0.563065,-1.2812 1.28125,-1.2812 l 29.4375,0 c 0.718185,0 1.28125,0.563 1.28125,1.2812 L 40,1013.6434 Z"/><path id="path889" fill="url(#linearGradient893)" fill-opacity="1" stroke="none" d="m 38.71875,1044.3622 c 0.718185,0 1.28125,-0.5631 1.28125,-1.2812 l 0,-29.4375 c 0,-0.7182 -0.563065,-1.2813 -1.28125,-1.2813 l -2,0 c 0.718185,0 1.28125,0.5631 1.28125,1.2813 l 0,29.4375 c 0,0.7181 -0.563065,1.2812 -1.28125,1.2812 L 38.71875,1044.3622 Z"/><path id="path891" fill="url(#linearGradient895)" fill-opacity="1" stroke="none" d="m 8,1043.081 c 0,0.7182 0.563065,1.2812 1.28125,1.2812 l 29.4375,0 c 0.718185,0 1.28125,-0.563 1.28125,-1.2812 l 0,-2 c 0,0.7182 -0.563065,1.2812 -1.28125,1.2812 l -29.4375,0 C 8.563065,1042.3622 8,1041.7992 8,1041.081 L 8,1043.081 Z"/><g id="g925"><g id="text903" fill="#fff" fill-opacity="1" stroke="none" font-family="Helvetica Neue" font-size="21.143" font-stretch="normal" font-style="normal" font-variant="normal" font-weight="normal" letter-spacing="0" text-anchor="start" transform="translate(-0.077958,2.4276826)" word-spacing="0" writing-mode="lr-tb" style="text-align:start;line-height:125%;-inkscape-font-specification:Helvetica Neue"><path id="path908" d="m 16.847175,1025.9345 c 0,4.1017 2.431404,7.9073 7.230783,7.9073 4.79938,0 7.230783,-3.8056 7.230783,-7.9073 0,-4.1017 -2.431403,-7.9073 -7.230783,-7.9073 C 19.278579,1018.0272 16.847175,1021.8328 16.847175,1025.9345 z m 2.008551,0 c 0,-3.0445 1.543413,-6.2159 5.222232,-6.2159 3.67882,0 5.222233,3.1714 5.222233,6.2159 0,3.0445 -1.543413,6.2159 -5.222233,6.2159 C 20.399139,1032.1504 18.855726,1028.979 18.855726,1025.9345 Z"/></g><path id="path912" fill="#000" fill-opacity=".276" stroke="none" d="m 24,1022.1474 c -3.678819,0 -5.21875,3.1742 -5.21875,6.2187 0,0.051 -8.78e-4,0.1049 0,0.1563 0.05128,-2.9965 1.601892,-6.0625 5.21875,-6.0625 3.616859,0 5.16747,3.066 5.21875,6.0625 8.78e-4,-0.051 0,-0.105 0,-0.1563 C 29.21875,1025.3216 27.67882,1022.1474 24,1022.1474 z m -7.1875,6.9687 c 0.170948,3.9267 2.563315,7.4688 7.1875,7.4688 4.624186,0 7.016552,-3.5421 7.1875,-7.4688 -0.284698,3.7978 -2.688081,7.1563 -7.1875,7.1563 C 19.500582,1036.2724 17.097198,1032.9139 16.8125,1029.1161 Z" font-family="Helvetica Neue" font-size="21.143" font-stretch="normal" font-style="normal" font-variant="normal" font-weight="normal" letter-spacing="0" text-anchor="start" word-spacing="0" writing-mode="lr-tb" style="text-align:start;line-height:125%;-inkscape-font-specification:Helvetica Neue"/><path font-style="normal" style="text-align:start;line-height:125%;-inkscape-font-specification:Helvetica Neue" id="path921" fill="#000" fill-opacity=".158" stroke="none" d="m 24,1022.456 c -3.678819,0 -5.21875,3.1742 -5.21875,6.2187 0,0.051 -8.78e-4,0.1049 0,0.1563 0.05128,-2.9965 1.601892,-6.0625 5.21875,-6.0625 3.616859,0 5.16747,3.066 5.21875,6.0625 8.78e-4,-0.051 0,-0.105 0,-0.1563 C 29.21875,1025.6302 27.67882,1022.456 24,1022.456 z m -7.1875,6.9687 c 0.170948,3.9267 2.563315,7.4688 7.1875,7.4688 4.624186,0 7.016552,-3.5421 7.1875,-7.4688 -0.284698,3.7978 -2.688081,7.1563 -7.1875,7.1563 C 19.500582,1036.581 17.097198,1033.2225 16.8125,1029.4247 Z" font-family="Helvetica Neue" font-size="21.143" font-stretch="normal" font-variant="normal" font-weight="normal" letter-spacing="0" text-anchor="start" word-spacing="0" writing-mode="lr-tb"/><path id="path923" fill="#000" fill-opacity=".039" stroke="none" d="m 24,1022.7685 c -3.678819,0 -5.21875,3.1742 -5.21875,6.2187 0,0.051 -8.78e-4,0.1049 0,0.1563 0.05128,-2.9965 1.601892,-6.0625 5.21875,-6.0625 3.616859,0 5.16747,3.066 5.21875,6.0625 8.78e-4,-0.051 0,-0.105 0,-0.1563 C 29.21875,1025.9427 27.67882,1022.7685 24,1022.7685 z m -7.1875,6.9687 c 0.170948,3.9267 2.563315,7.4688 7.1875,7.4688 4.624186,0 7.016552,-3.5421 7.1875,-7.4688 -0.284698,3.7978 -2.688081,7.1563 -7.1875,7.1563 C 19.500582,1036.8935 17.097198,1033.535 16.8125,1029.7372 Z" font-family="Helvetica Neue" font-size="21.143" font-stretch="normal" font-style="normal" font-variant="normal" font-weight="normal" letter-spacing="0" text-anchor="start" word-spacing="0" writing-mode="lr-tb" style="text-align:start;line-height:125%;-inkscape-font-specification:Helvetica Neue"/></g></g></g></svg>