<svg xmlns="http://www.w3.org/2000/svg" xmlns:svg="http://www.w3.org/2000/svg" xmlns:xlink="http://www.w3.org/1999/xlink" id="svg2" width="48" height="48" version="1.1"><defs id="defs4"><linearGradient id="linearGradient1157"><stop id="stop1159" offset="0" stop-color="#018ed2" stop-opacity="1"/><stop id="stop1161" offset="1" stop-color="#02d7ef" stop-opacity="1"/></linearGradient><linearGradient id="linearGradient860"><stop id="stop862" offset="0" stop-color="#242424" stop-opacity="1"/><stop id="stop864" offset="1" stop-color="#5d5d5d" stop-opacity="1"/></linearGradient><linearGradient id="linearGradient866" x1="28.638" x2="28.638" y1="-1052.384" y2="-1004.389" gradientTransform="matrix(1,0,0,-1,0,-1004.3622)" gradientUnits="userSpaceOnUse" xlink:href="#linearGradient860"/><linearGradient id="linearGradient4164" x1="25.5" x2="25.5" y1="1038.896" y2="1017.862" gradientUnits="userSpaceOnUse" xlink:href="#linearGradient1157"/><linearGradient id="linearGradient4172" x1="24.187" x2="24.187" y1="22.162" y2="0" gradientUnits="userSpaceOnUse" xlink:href="#linearGradient1157"/><linearGradient id="linearGradient4180" x1="25.071" x2="25.071" y1="47.956" y2="24.631" gradientUnits="userSpaceOnUse" xlink:href="#linearGradient1157"/></defs><metadata id="metadata7"/><g id="layer1" transform="translate(0,-1004.3622)"><g id="layer1-5"><path id="rect2991-1-7" fill="url(#linearGradient866)" fill-opacity="1" stroke="none" d="M 1.9375,0 C 0.86022285,0 0,0.86022285 0,1.9375 l 0,44.125 C 0,47.139777 0.86022285,48 1.9375,48 l 44.125,0 C 47.139777,48 48,47.139777 48,46.0625 L 48,1.9375 C 48,0.86022285 47.139777,0 46.0625,0 L 1.9375,0 Z m 1.1875,6.375 5.25,0 0,5.25 -5.25,0 0,-5.25 z m 36.5,0 5.25,0 0,5.25 -5.25,0 0,-5.25 z m -36.5,10 5.25,0 0,5.25 -5.25,0 0,-5.25 z m 36.5,0 5.25,0 0,5.25 -5.25,0 0,-5.25 z m -36.5,10 5.25,0 0,5.25 -5.25,0 0,-5.25 z m 36.5,0 5.25,0 0,5.25 -5.25,0 0,-5.25 z m -36.5,10 5.25,0 0,5.25 -5.25,0 0,-5.25 z m 36.5,0 5.25,0 0,5.25 -5.25,0 0,-5.25 z" transform="translate(0,1004.3622)"/><path id="rect870" fill="url(#linearGradient4180)" fill-opacity="1" stroke="none" d="m 11.8125,39.25 0,8.75 24.375,0 0,-8.75 z" transform="translate(0,1004.3622)"/><path id="rect846-6" fill="#000" fill-opacity="1" stroke="none" d="m 0,1049.3622 0,1.0625 c 0,1.0773 0.86022289,1.9375 1.9374999,1.9375 l 44.1250001,0 c 1.077277,0 1.9375,-0.8602 1.9375,-1.9375 l 0,-1.0625 c 0,1.0773 -0.860223,1.9375 -1.9375,1.9375 l -44.1250001,0 C 0.86022289,1051.2997 0,1050.4395 0,1049.3622 Z"/><path id="rect868" fill="url(#linearGradient4172)" fill-opacity="1" stroke="none" d="m 11.8125,0 0,8.75 24.375,0 0,-8.75 z" transform="translate(0,1004.3622)"/><path id="path7515-8" fill="#fff" fill-opacity=".537" stroke="none" d="m 2.5312499,1005.0185 c -0.9170884,0 -1.67114671,0.6395 -1.84374991,1.5 0.33561201,-0.2799 0.77451211,-0.4375 1.24999991,-0.4375 l 44.1250001,0 c 0.475488,0 0.914388,0.1576 1.25,0.4375 -0.172603,-0.8605 -0.926662,-1.5 -1.84375,-1.5 l -42.9375001,0 z"/><path id="rect4280" fill="#000" fill-opacity=".392" stroke="none" d="M 1.9374999,1004.3622 C 0.86022299,1004.3622 0,1005.2224 0,1006.2997 l 0,43.0625 c 0,0.7934 0.48002359,1.449 1.1562499,1.75 -0.30934161,-0.3333 -0.49999991,-0.7824 -0.49999991,-1.2812 l 0,-42.9375 c 0,-1.0482 0.82689891,-1.875 1.87499991,-1.875 l 42.9375001,0 c 1.048101,0 1.875,0.8268 1.875,1.875 l 0,42.9375 c 0,0.4988 -0.190658,0.9479 -0.5,1.2812 0.676226,-0.301 1.15625,-0.9566 1.15625,-1.75 l 0,-43.0625 c 0,-1.0773 -0.860223,-1.9375 -1.9375,-1.9375 l -44.1250001,0 z"/><rect id="rect872" width="24.395" height="21.036" x="11.802" y="1017.844" fill="url(#linearGradient4164)" fill-opacity="1" stroke="none" ry="0"/><path id="rect899" fill="#000" fill-opacity=".296" stroke="none" d="m 11.8125,13.46875 0,21.0625 24.375,0 0,-21.0625 -24.375,0 z m 0.21875,0.21875 23.9375,0 0,20.625 -23.9375,0 0,-20.625 z" transform="translate(0,1004.3622)"/><path id="path904" fill="#000" fill-opacity=".296" stroke="none" d="m 11.8125,0 0,8.75 24.375,0 0,-8.75 -0.21875,0 0,8.53125 -23.9375,0 0,-8.53125 -0.21875,0 z" transform="translate(0,1004.3622)"/><path id="path909" fill="#000" fill-opacity=".518" stroke="none" d="m 11.8125,1052.3622 0,-8.75 24.375,0 0,8.75 -0.21875,0 0,-8.5312 -23.9375,0 0,8.5312 -0.21875,0 z"/><path id="rect911" fill="#fff" fill-opacity=".182" stroke="none" d="m 11.8125,1038.8935 0,0.1875 24.375,0 0,-0.1875 -24.375,0 z"/><path id="path916" fill="#fff" fill-opacity=".182" stroke="none" d="m 11.8125,1013.1122 0,0.1875 24.375,0 0,-0.1875 -24.375,0 z"/><path id="path920" fill="#fff" fill-opacity=".182" stroke="none" d="m 11.8125,1043.4247 0,0.1875 24.375,0 0,-0.1875 -24.375,0 z"/><path id="path922" fill="#fff" fill-opacity=".727" stroke="none" d="m 29.633924,23.875 -5.912943,3.413839 -5.912943,3.413839 0,-6.827678 0,-6.827678 5.912943,3.413839 z" transform="translate(0.27901912,1004.4872)"/></g></g></svg>