<svg xmlns="http://www.w3.org/2000/svg" xmlns:svg="http://www.w3.org/2000/svg" xmlns:xlink="http://www.w3.org/1999/xlink" id="svg5453" width="48" height="48" version="1.1"><defs id="defs5455"><linearGradient id="linearGradient4189"><stop id="stop4191" offset="0" stop-color="#15375f" stop-opacity="1"/><stop id="stop4193" offset="1" stop-color="#1d599d" stop-opacity="1"/></linearGradient><linearGradient id="linearGradient4435"><stop id="stop4437" offset="0" stop-color="#0d386a" stop-opacity="1"/><stop id="stop4439" offset="1" stop-color="#194e89" stop-opacity="1"/></linearGradient><linearGradient id="linearGradient4080" x1="413.258" x2="413.258" y1="-547.819" y2="-499.811" gradientUnits="userSpaceOnUse" xlink:href="#linearGradient5292"/><linearGradient id="linearGradient5464"><stop id="stop5466" offset="0" stop-color="#b0bccd" stop-opacity="1"/><stop id="stop5468" offset="1" stop-color="#fafafc" stop-opacity="1"/></linearGradient><linearGradient id="linearGradient5292"><stop id="stop5294" offset="0" stop-color="#b1bdce" stop-opacity="1"/><stop id="stop5296" offset="1" stop-color="#e9edf1" stop-opacity="1"/></linearGradient><filter id="filter3985" width="1.144" height="1.311" x="-.072" y="-.155" color-interpolation-filters="sRGB"><feGaussianBlur id="feGaussianBlur3987" stdDeviation="6.78"/></filter><filter id="filter3989" color-interpolation-filters="sRGB"><feGaussianBlur id="feGaussianBlur3991" stdDeviation="6.78"/></filter><filter id="filter3993" width="1.298" height="1.145" x="-.149" y="-.072" color-interpolation-filters="sRGB"><feGaussianBlur id="feGaussianBlur3995" stdDeviation="6.78"/></filter><filter id="filter3997" width="1.163" height="1.221" x="-.082" y="-.11" color-interpolation-filters="sRGB"><feGaussianBlur id="feGaussianBlur3999" stdDeviation="6.78"/></filter><filter id="filter4001" width="1.15" height="1.257" x="-.075" y="-.129" color-interpolation-filters="sRGB"><feGaussianBlur id="feGaussianBlur4003" stdDeviation="6.78"/></filter><filter id="filter4005" width="1.245" height="1.153" x="-.122" y="-.076" color-interpolation-filters="sRGB"><feGaussianBlur id="feGaussianBlur4007" stdDeviation="6.78"/></filter><filter id="filter4009" width="1.224" height="1.16" x="-.112" y="-.08" color-interpolation-filters="sRGB"><feGaussianBlur id="feGaussianBlur4011" stdDeviation="6.78"/></filter><filter id="filter3985-9" width="1.144" height="1.311" x="-.072" y="-.155" color-interpolation-filters="sRGB"><feGaussianBlur id="feGaussianBlur3987-0" stdDeviation="6.78"/></filter><filter id="filter3989-9" color-interpolation-filters="sRGB"><feGaussianBlur id="feGaussianBlur3991-1" stdDeviation="6.78"/></filter><filter id="filter3993-8" width="1.298" height="1.145" x="-.149" y="-.072" color-interpolation-filters="sRGB"><feGaussianBlur id="feGaussianBlur3995-4" stdDeviation="6.78"/></filter><filter id="filter3997-0" width="1.163" height="1.221" x="-.082" y="-.11" color-interpolation-filters="sRGB"><feGaussianBlur id="feGaussianBlur3999-7" stdDeviation="6.78"/></filter><filter id="filter4001-9" width="1.15" height="1.257" x="-.075" y="-.129" color-interpolation-filters="sRGB"><feGaussianBlur id="feGaussianBlur4003-7" stdDeviation="6.78"/></filter><filter id="filter4005-7" width="1.245" height="1.153" x="-.122" y="-.076" color-interpolation-filters="sRGB"><feGaussianBlur id="feGaussianBlur4007-7" stdDeviation="6.78"/></filter><filter id="filter4009-8" width="1.224" height="1.16" x="-.112" y="-.08" color-interpolation-filters="sRGB"><feGaussianBlur id="feGaussianBlur4011-6" stdDeviation="6.78"/></filter><linearGradient id="linearGradient4200"><stop id="stop4202" offset="0" stop-color="#fa741b" stop-opacity="1"/><stop id="stop4204" offset="1" stop-color="#f7aa1d" stop-opacity="1"/></linearGradient><linearGradient id="linearGradient4296" x1="34.349" x2="34.349" y1="39.428" y2="21.45" gradientUnits="userSpaceOnUse" xlink:href="#linearGradient4200"/><linearGradient id="linearGradient4433" x1="29.887" x2="29.887" y1="39.497" y2="19.376" gradientUnits="userSpaceOnUse" xlink:href="#linearGradient4435"/><linearGradient id="linearGradient4164" x1="417.32" x2="417.32" y1="539.211" y2="508.398" gradientUnits="userSpaceOnUse" xlink:href="#linearGradient4189"/><linearGradient id="linearGradient4187" x1="417.32" x2="417.32" y1="539.211" y2="508.398" gradientTransform="matrix(0.87012988,0,0,0.87012988,53.061222,68.025714)" gradientUnits="userSpaceOnUse" xlink:href="#linearGradient5464"/></defs><metadata id="metadata5458"/><g id="layer1" transform="translate(-384.57143,-499.798)"><rect id="rect2991-1-7" width="48" height="48" x="384.571" y="-547.798" fill="url(#linearGradient4080)" fill-opacity="1" stroke="none" ry="1.945" transform="scale(1,-1)"/><rect id="rect4092" width="30.8" height="30.8" x="393.171" y="509.598" fill="#000" fill-opacity=".059" stroke="none" ry="15.4"/><rect id="rect4090" width="30.8" height="30.8" x="393.171" y="509.198" fill="#000" fill-opacity=".118" stroke="none" ry="15.4"/><rect id="rect4086" width="30.8" height="30.8" x="393.171" y="508.798" fill="#000" fill-opacity=".235" stroke="none" ry="15.4"/><path id="rect846" fill="#000" fill-opacity="1" stroke="none" d="m 384.57143,544.79799 0,1.0625 c 0,1.0773 0.86022,1.9375 1.9375,1.9375 l 44.125,0 c 1.07728,0 1.9375,-0.8602 1.9375,-1.9375 l 0,-1.0625 c 0,1.0773 -0.86022,1.9375 -1.9375,1.9375 l -44.125,0 C 385.43165,546.73549 384.57143,545.87529 384.57143,544.79799 Z"/><path id="path7515" fill="#fff" fill-opacity=".537" stroke="none" d="m 387.10268,500.45429 c -0.91709,0 -1.67115,0.6395 -1.84375,1.5 0.33561,-0.2799 0.77451,-0.4375 1.25,-0.4375 l 44.125,0 c 0.47549,0 0.91439,0.1576 1.25,0.4375 -0.1726,-0.8605 -0.92666,-1.5 -1.84375,-1.5 L 387.10268,500.45429 Z"/><path id="rect4280" fill="#000" fill-opacity=".392" stroke="none" d="m 386.50893,499.79799 c -1.07728,0 -1.9375,0.8602 -1.9375,1.9375 l 0,43.0625 c 0,0.7934 0.48002,1.449 1.15625,1.75 -0.30934,-0.3333 -0.5,-0.7824 -0.5,-1.2812 l 0,-42.9375 c 0,-1.0482 0.8269,-1.875 1.875,-1.875 l 42.9375,0 c 1.0481,0 1.875,0.8268 1.875,1.875 l 0,42.9375 c 0,0.4988 -0.19066,0.9479 -0.5,1.2812 0.67623,-0.301 1.15625,-0.9566 1.15625,-1.75 l 0,-43.0625 c 0,-1.0773 -0.86022,-1.9375 -1.9375,-1.9375 L 386.50893,499.79799 Z"/><rect id="rect4162" width="30.8" height="30.8" x="393.171" y="508.398" fill="url(#linearGradient4164)" fill-opacity="1" stroke="none" ry="15.4"/><rect id="rect4185" width="26.8" height="26.8" x="395.171" y="510.398" fill="url(#linearGradient4187)" fill-opacity="1" stroke="none" ry="13.4"/><path id="path4094" fill="url(#linearGradient4433)" fill-opacity="1" stroke="none" d="M 30.900391 19.400391 L 22.400391 24.400391 L 22.400391 39.316406 C 22.926434 39.370262 23.45927 39.400391 24 39.400391 C 32.400277 39.400391 39.173884 32.737321 39.380859 24.388672 L 30.900391 19.400391 z" transform="translate(384.57143,499.798)"/><path id="path4097" fill="url(#linearGradient4296)" fill-opacity="1" stroke="none" d="M 30.900391 21.400391 L 24.099609 25.400391 L 24.099609 39.394531 C 30.047617 39.356733 35.165125 35.978371 37.699219 31.035156 L 37.699219 25.400391 L 30.900391 21.400391 z" transform="translate(384.57143,499.798)"/><path id="path4099" fill="#184a6d" fill-opacity="1" stroke="none" d="m 413.36531,-525.24878 2.10301,-3.64252 2.10301,3.64252 z" transform="matrix(1.4265278,0,0,-0.2745354,-177.2057,381.59863)"/></g></svg>