<svg xmlns="http://www.w3.org/2000/svg" xmlns:svg="http://www.w3.org/2000/svg" xmlns:xlink="http://www.w3.org/1999/xlink" id="svg2" width="48" height="48" version="1.1"><defs id="defs4"><linearGradient id="linearGradient4115"><stop id="stop4117" offset="0" stop-color="#dcbff9" stop-opacity="1"/><stop id="stop4119" offset="1" stop-color="#fdf7fd" stop-opacity="1"/></linearGradient><linearGradient id="linearGradient857"><stop id="stop859" offset="0" stop-color="#933aeb" stop-opacity="1"/><stop id="stop861" offset="1" stop-color="#df55e1" stop-opacity="1"/></linearGradient><linearGradient id="linearGradient835" x1="78.707" x2="78.707" y1="-1050.948" y2="-1003.925" gradientTransform="translate(-52.367529,-0.57196943)" gradientUnits="userSpaceOnUse" xlink:href="#linearGradient857"/><linearGradient id="linearGradient4113" x1="33.719" x2="33.719" y1="1043.811" y2="1012.673" gradientUnits="userSpaceOnUse" xlink:href="#linearGradient4115"/></defs><metadata id="metadata7"/><g id="layer1" transform="translate(0,-1004.3622)"><rect id="rect2991-1" width="48" height="48" x="0" y="-1052.362" fill="url(#linearGradient835)" fill-opacity="1" stroke="none" ry="1.945" transform="scale(1,-1)"/><path id="path4127" fill="#000" fill-opacity=".059" fill-rule="nonzero" stroke="none" d="m 38.853113,1014.1622 -29.7068391,0 c -0.8992029,0 -1.6289996,0.7286 -1.6289996,1.6278 l 0,21.6349 c 0,0.8992 0.7297967,1.6271 1.6289996,1.6271 l 4.0332161,0 1.176023,5.9102 8.818326,-5.9102 15.679274,0 c 0.90043,0 1.629613,-0.7279 1.629613,-1.6271 l 0,-21.6349 c 0,-0.8992 -0.729183,-1.6278 -1.629613,-1.6278"/><path id="path4125" fill="#000" fill-opacity=".118" fill-rule="nonzero" stroke="none" d="m 38.853113,1013.7622 -29.7068391,0 c -0.8992029,0 -1.6289996,0.7286 -1.6289996,1.6278 l 0,21.6349 c 0,0.8992 0.7297967,1.6271 1.6289996,1.6271 l 4.0332161,0 1.176023,5.9102 8.818326,-5.9102 15.679274,0 c 0.90043,0 1.629613,-0.7279 1.629613,-1.6271 l 0,-21.6349 c 0,-0.8992 -0.729183,-1.6278 -1.629613,-1.6278"/><path id="rect846" fill="#000" fill-opacity="1" stroke="none" d="m 4.9597168e-7,1049.3623 0,1.0625 c 0,1.0773 0.86022200402832,1.9375 1.93749900402832,1.9375 l 44.1250005,0 c 1.077277,0 1.937501,-0.8602 1.937501,-1.9375 l 0,-1.0625 c 0,1.0773 -0.860224,1.9375 -1.937501,1.9375 l -44.1250005,0 C 0.8602225,1051.2998 4.9597168e-7,1050.4396 4.9597168e-7,1049.3623 Z"/><path id="path7515" fill="#fff" fill-opacity=".537" stroke="none" d="m 2.5312495,1005.0186 c -0.917088,0 -1.671146,0.6395 -1.843749,1.5 0.335612,-0.2799 0.774512,-0.4375 1.249999,-0.4375 l 44.1250005,0 c 0.475488,0 0.914388,0.1576 1.25,0.4375 -0.172603,-0.8605 -0.926662,-1.5 -1.84375,-1.5 L 2.5312495,1005.0186 Z"/><path id="rect4280-1" fill="#000" fill-opacity=".392" stroke="none" d="m 1.9374995,1004.3623 c -1.077276,0 -1.93749900402832,0.8602 -1.93749900402832,1.9375 l 0,43.0625 c 0,0.7934 0.48002300402832,1.449 1.15624900402832,1.75 -0.309341,-0.3333 -0.499999,-0.7824 -0.499999,-1.2812 l 0,-42.9375 c 0,-1.0482 0.826898,-1.875 1.874999,-1.875 l 42.9375005,0 c 1.048101,0 1.875,0.8268 1.875,1.875 l 0,42.9375 c 0,0.4988 -0.190658,0.9479 -0.5,1.2812 0.676226,-0.301 1.156251,-0.9566 1.156251,-1.75 l 0,-43.0625 c 0,-1.0773 -0.860224,-1.9375 -1.937501,-1.9375 L 1.9374995,1004.3623 Z"/><path id="path4121" fill="#000" fill-opacity=".235" fill-rule="nonzero" stroke="none" d="m 38.853113,1013.3622 -29.7068391,0 c -0.8992029,0 -1.6289996,0.7286 -1.6289996,1.6278 l 0,21.6349 c 0,0.8992 0.7297967,1.6271 1.6289996,1.6271 l 4.0332161,0 1.176023,5.9102 8.818326,-5.9102 15.679274,0 c 0.90043,0 1.629613,-0.7279 1.629613,-1.6271 l 0,-21.6349 c 0,-0.8992 -0.729183,-1.6278 -1.629613,-1.6278"/><path id="path1144" fill="url(#linearGradient4113)" fill-opacity="1" fill-rule="nonzero" stroke="none" d="m 38.853113,1012.9622 -29.7068391,0 c -0.8992029,0 -1.6289996,0.7286 -1.6289996,1.6278 l 0,21.6349 c 0,0.8992 0.7297967,1.6271 1.6289996,1.6271 l 4.0332161,0 1.176023,5.9102 8.818326,-5.9102 15.679274,0 c 0.90043,0 1.629613,-0.7279 1.629613,-1.6271 l 0,-21.6349 c 0,-0.8992 -0.729183,-1.6278 -1.629613,-1.6278"/><path id="path4129" fill="#933aea" fill-opacity=".314" fill-rule="nonzero" stroke="none" d="m 7.5175781,1035.4243 0,0.8008 c 0,0.8992 0.7297034,1.6269 1.6289063,1.6269 l 4.0332036,0 1.175781,5.9102 8.818359,-5.9102 15.679688,0 c 0.90043,0 1.628906,-0.7277 1.628906,-1.6269 l 0,-0.8008 c 0,0.8992 -0.728476,1.627 -1.628906,1.627 l -15.679688,0 -8.818359,5.9101 -1.175781,-5.9101 -4.0332036,0 c -0.8992029,0 -1.6289063,-0.7278 -1.6289063,-1.627 z"/><path id="path4134" fill="#fff" fill-opacity=".235" fill-rule="nonzero" stroke="none" d="m 9.1464844,1012.9622 c -0.8992029,0 -1.6289063,0.7297 -1.6289063,1.6289 l 0,0.3984 c 0,-0.8992 0.7297034,-1.6269 1.6289063,-1.6269 l 29.7070316,0 c 0.90043,0 1.628906,0.7277 1.628906,1.6269 l 0,-0.3984 c 0,-0.8992 -0.728476,-1.6289 -1.628906,-1.6289 l -29.7070316,0 z"/></g></svg>