<svg xmlns="http://www.w3.org/2000/svg" xmlns:svg="http://www.w3.org/2000/svg" xmlns:xlink="http://www.w3.org/1999/xlink" id="svg5453" width="48" height="48" version="1.1"><defs id="defs5455"><linearGradient id="linearGradient4106" x1="418.51" x2="418.51" y1="-547.805" y2="-499.792" gradientTransform="translate(-5.8251953e-6,-1.8183594e-5)" gradientUnits="userSpaceOnUse" xlink:href="#linearGradient1539"/><linearGradient id="linearGradient1539"><stop id="stop1541" offset="0" stop-color="#efefef" stop-opacity="1"/><stop id="stop1543" offset="1" stop-color="#fbfbfb" stop-opacity="1"/></linearGradient><style id="style2464" type="text/css"/><style id="style2464-7" type="text/css"/><linearGradient id="linearGradient980"><stop id="stop982" offset="0" stop-color="#1b8737" stop-opacity="1"/><stop id="stop984" offset="1" stop-color="#2db329" stop-opacity="1"/></linearGradient><linearGradient id="linearGradient4332" x1="18" x2="15" y1="1037.362" y2="1040.362" gradientUnits="userSpaceOnUse" xlink:href="#linearGradient4326"/><linearGradient id="linearGradient4326"><stop id="stop4328" offset="0" stop-color="#000" stop-opacity="1"/><stop id="stop4330" offset="1" stop-color="#000" stop-opacity="0"/></linearGradient></defs><metadata id="metadata5458"/><g id="layer1" transform="translate(-384.57143,-499.798)"><rect id="rect2991-1-7-3" width="48" height="48" x="384.571" y="-547.798" fill="url(#linearGradient4106)" fill-opacity="1" stroke="none" ry="1.945" transform="scale(1,-1)"/><path id="rect846-9" fill="#000" fill-opacity="1" stroke="none" d="m 384.57142,544.79801 0,1.0625 c 0,1.0773 0.86022,1.9375 1.9375,1.9375 l 44.125,0 c 1.07728,0 1.9375,-0.8602 1.9375,-1.9375 l 0,-1.0625 c 0,1.0773 -0.86022,1.9375 -1.9375,1.9375 l -44.125,0 c -1.07728,0 -1.9375,-0.8602 -1.9375,-1.9375 z"/><path id="path7515-8" fill="#fff" fill-opacity=".537" stroke="none" d="m 387.10267,500.45431 c -0.91709,0 -1.67115,0.6395 -1.84375,1.5 0.33561,-0.2799 0.77451,-0.4375 1.25,-0.4375 l 44.125,0 c 0.47549,0 0.91439,0.1576 1.25,0.4375 -0.1726,-0.8605 -0.92666,-1.5 -1.84375,-1.5 l -42.9375,0 z"/><path id="rect4280-5" fill="#000" fill-opacity=".392" stroke="none" d="m 386.50892,499.79801 c -1.07728,0 -1.9375,0.8602 -1.9375,1.9375 l 0,43.0625 c 0,0.7934 0.48002,1.449 1.15625,1.75 -0.30934,-0.3333 -0.5,-0.7824 -0.5,-1.2812 l 0,-42.9375 c 0,-1.0482 0.8269,-1.875 1.875,-1.875 l 42.9375,0 c 1.0481,0 1.875,0.8268 1.875,1.875 l 0,42.9375 c 0,0.4988 -0.19066,0.9479 -0.5,1.2812 0.67623,-0.301 1.15625,-0.9566 1.15625,-1.75 l 0,-43.0625 c 0,-1.0773 -0.86022,-1.9375 -1.9375,-1.9375 l -44.125,0 z"/><path id="path4268" fill="#000" fill-opacity=".118" stroke="none" d="m 400.87123,509.19722 c -1.06645,0 -1.92578,0.85933 -1.92578,1.92578 0,1.06645 0.85933,1.92383 1.92578,1.92383 1.06645,0 1.92579,-0.85738 1.92579,-1.92383 0,-1.06645 -0.85934,-1.92578 -1.92579,-1.92578 z m 13.47461,0 -3.84961,3.84961 5.77539,5.77539 -1.92578,1.92578 -1.92382,1.92383 -1.92579,1.92578 3.84961,3.84961 1.92578,-1.92383 0,-0.002 1.92383,-1.92383 1.92578,-1.92578 3.84961,-3.84961 -9.625,-9.625 z M 396.05873,520.748 c -1.59967,0 -2.88671,1.28704 -2.88671,2.88672 0,1.59967 1.28704,2.88867 2.88671,2.88867 1.59968,0 2.88672,-1.289 2.88672,-2.88867 0,-1.59968 -1.28704,-2.88672 -2.88672,-2.88672 z m 8.66211,11.54883 c -2.1329,0 -3.84961,1.71866 -3.84961,3.85156 0,2.1329 1.71671,3.84961 3.84961,3.84961 2.1329,0 3.84961,-1.71671 3.84961,-3.84961 0,-2.1329 -1.71671,-3.85156 -3.84961,-3.85156 z" opacity="1"/><path id="path4270" fill="#000" fill-opacity=".059" stroke="none" d="m 400.87123,509.59722 c -1.06645,0 -1.92578,0.85933 -1.92578,1.92578 0,1.06645 0.85933,1.92383 1.92578,1.92383 1.06645,0 1.92579,-0.85738 1.92579,-1.92383 0,-1.06645 -0.85934,-1.92578 -1.92579,-1.92578 z m 13.47461,0 -3.84961,3.84961 5.77539,5.77539 -1.92578,1.92578 -1.92382,1.92383 -1.92579,1.92578 3.84961,3.84961 1.92578,-1.92383 0,-0.002 1.92383,-1.92383 1.92578,-1.92578 3.84961,-3.84961 -9.625,-9.625 z M 396.05873,521.148 c -1.59967,0 -2.88671,1.28704 -2.88671,2.88672 0,1.59967 1.28704,2.88867 2.88671,2.88867 1.59968,0 2.88672,-1.289 2.88672,-2.88867 0,-1.59968 -1.28704,-2.88672 -2.88672,-2.88672 z m 8.66211,11.54883 c -2.1329,0 -3.84961,1.71866 -3.84961,3.85156 0,2.1329 1.71671,3.84961 3.84961,3.84961 2.1329,0 3.84961,-1.71671 3.84961,-3.84961 0,-2.1329 -1.71671,-3.85156 -3.84961,-3.85156 z" opacity="1"/><path id="rect4224" fill="#000" fill-opacity=".235" stroke="none" d="m 400.87123,508.79722 c -1.06645,0 -1.92578,0.85933 -1.92578,1.92578 0,1.06645 0.85933,1.92383 1.92578,1.92383 1.06645,0 1.92579,-0.85738 1.92579,-1.92383 0,-1.06645 -0.85934,-1.92578 -1.92579,-1.92578 z m 13.47461,0 -3.84961,3.84961 5.77539,5.77539 -1.92578,1.92578 -1.92382,1.92383 -1.92579,1.92578 3.84961,3.84961 1.92578,-1.92383 0,-0.002 1.92383,-1.92383 1.92578,-1.92578 3.84961,-3.84961 -9.625,-9.625 z M 396.05873,520.348 c -1.59967,0 -2.88671,1.28704 -2.88671,2.88672 0,1.59967 1.28704,2.88867 2.88671,2.88867 1.59968,0 2.88672,-1.289 2.88672,-2.88867 0,-1.59968 -1.28704,-2.88672 -2.88672,-2.88672 z m 8.66211,11.54883 c -2.1329,0 -3.84961,1.71866 -3.84961,3.85156 0,2.1329 1.71671,3.84961 3.84961,3.84961 2.1329,0 3.84961,-1.71671 3.84961,-3.84961 0,-2.1329 -1.71671,-3.85156 -3.84961,-3.85156 z" opacity="1"/><g id="g4207" transform="matrix(0.1203125,0,0,0.1203125,362.99371,460.22332)"><g id="layer1-9" transform="matrix(16.000001,0,0,16.000001,202.82783,-16133.383)"><rect id="rect4119" width="2" height="2" x="6" y="1033.362" fill="#fa8865" fill-opacity="1" stroke="none" opacity="1" ry="1"/><flowRoot id="flowRoot4170" fill="#000" fill-opacity="1" stroke="none" stroke-linecap="butt" stroke-linejoin="miter" stroke-opacity="1" stroke-width="1" font-family="sans-serif" font-size="10" font-stretch="normal" font-style="normal" font-variant="normal" font-weight="normal" letter-spacing="0" text-anchor="start" transform="translate(0,1030.3622)" word-spacing="0" writing-mode="lr-tb" xml:space="preserve" style="line-height:125%;-inkscape-font-specification:'sans-serif, Normal';text-align:start"><flowRegion id="flowRegion4172"><rect id="rect4174" width="27" height="15" x="22" y="3"/></flowRegion><flowPara id="flowPara4176">Plasm</flowPara></flowRoot><rect id="rect4308" width="3" height="3" x="3" y="1039.362" fill="#63c605" fill-opacity="1" stroke="none" opacity="1" ry="1.5"/><rect id="rect4312" width="4" height="4" x="7" y="1045.362" fill="#1b89f3" fill-opacity="1" stroke="none" opacity="1" ry="2"/><path id="path4316" fill="#3b3f42" fill-opacity="1" fill-rule="evenodd" stroke="none" stroke-linecap="butt" stroke-linejoin="miter" stroke-opacity="1" stroke-width="1" d="m 19,1038.3622 -5,5 -2,-2 5,-5 z"/><path id="path4318" fill="#3b3f42" fill-opacity="1" fill-rule="evenodd" stroke="none" stroke-linecap="butt" stroke-linejoin="miter" stroke-opacity="1" stroke-width="1" d="m 19,1038.3622 -5,-5 -2,2 5,5 z"/><path id="path4324" fill="url(#linearGradient4332)" fill-opacity="1" fill-rule="evenodd" stroke="none" stroke-linecap="butt" stroke-linejoin="miter" stroke-opacity="1" stroke-width="1" d="m 15,1038.3622 -1,1 -1,1 2,2 1,-1 1,-1 -2,-2 z" opacity=".9"/></g></g><flowRoot id="flowRoot4226" fill="#000" fill-opacity="1" stroke="none" stroke-linecap="butt" stroke-linejoin="miter" stroke-opacity="1" stroke-width="1" font-family="sans-serif" font-size="19.25" font-stretch="normal" font-style="normal" font-variant="normal" font-weight="normal" letter-spacing="0" text-anchor="start" transform="translate(345.24893,502.62304)" word-spacing="0" writing-mode="lr-tb" xml:space="preserve" style="line-height:125%;-inkscape-font-specification:'sans-serif, Normal';text-align:start"><flowRegion id="flowRegion4228"><rect id="rect4230" width="27" height="15" x="22" y="3"/></flowRegion><flowPara id="flowPara4232">Plasm</flowPara></flowRoot></g></svg>