<svg xmlns="http://www.w3.org/2000/svg" xmlns:svg="http://www.w3.org/2000/svg" xmlns:xlink="http://www.w3.org/1999/xlink" id="svg2" width="48" height="48" version="1.1"><defs id="defs4"><linearGradient id="linearGradient4224"><stop id="stop4226" offset="0" stop-color="#bcbcbc" stop-opacity="1"/><stop id="stop4228" offset="1" stop-color="#eaeaea" stop-opacity="1"/></linearGradient><linearGradient id="linearGradient4216"><stop id="stop4218" offset="0" stop-color="#fff" stop-opacity=".314"/><stop id="stop4220" offset="1" stop-color="#000" stop-opacity=".314"/></linearGradient><linearGradient id="linearGradient4204"><stop id="stop4206" offset="0" stop-color="#4d4d4d" stop-opacity="1"/><stop id="stop4208" offset="1" stop-color="#000" stop-opacity="1"/></linearGradient><linearGradient id="linearGradient4172"><stop id="stop4174" offset="0" stop-color="#fff" stop-opacity="0"/><stop id="stop4176" offset="1" stop-color="#fff" stop-opacity="1"/></linearGradient><linearGradient id="linearGradient4162"><stop id="stop4164" offset="0" stop-color="#44a808" stop-opacity="1"/><stop id="stop4166" offset="1" stop-color="#92d72e" stop-opacity="1"/></linearGradient><linearGradient id="linearGradient4154"><stop id="stop4156" offset="0" stop-color="#f59b15" stop-opacity=".996"/><stop id="stop4158" offset="1" stop-color="#fccd41" stop-opacity="1"/></linearGradient><linearGradient id="linearGradient4146"><stop id="stop4148" offset="0" stop-color="#0698cf" stop-opacity="1"/><stop id="stop4150" offset="1" stop-color="#0abce0" stop-opacity="1"/></linearGradient><linearGradient id="linearGradient4129"><stop id="stop4131" offset="0" stop-color="#c41c02" stop-opacity=".998"/><stop id="stop4133" offset="1" stop-color="#fe6c4b" stop-opacity="1"/></linearGradient><linearGradient id="linearGradient4135" x1="5.25" x2="5.25" y1="48" y2=".005" gradientUnits="userSpaceOnUse" xlink:href="#linearGradient4129"/><linearGradient id="linearGradient4152" x1="18.5" x2="18.5" y1="48" y2=".005" gradientUnits="userSpaceOnUse" xlink:href="#linearGradient4146"/><linearGradient id="linearGradient4160" x1="31.125" x2="31.125" y1="48" y2=".005" gradientUnits="userSpaceOnUse" xlink:href="#linearGradient4154"/><linearGradient id="linearGradient4168" x1="43.375" x2="43.375" y1="48" y2=".005" gradientUnits="userSpaceOnUse" xlink:href="#linearGradient4162"/><linearGradient id="linearGradient4178" x1="28.75" x2="28.75" y1="-1052.362" y2="-1004.367" gradientUnits="userSpaceOnUse" xlink:href="#linearGradient4172"/><linearGradient id="linearGradient4210" x1="29.125" x2="29.125" y1="39" y2="11.375" gradientUnits="userSpaceOnUse" xlink:href="#linearGradient4204"/><linearGradient id="linearGradient4214" x1="29.125" x2="29.125" y1="39" y2="11.375" gradientUnits="userSpaceOnUse" xlink:href="#linearGradient4216"/><linearGradient id="linearGradient4230" x1="24.375" x2="24.375" y1="32.015" y2="15.344" gradientUnits="userSpaceOnUse" xlink:href="#linearGradient4224"/></defs><metadata id="metadata7"/><g id="layer1" transform="translate(0,-1004.3622)"><path id="rect4103" fill="url(#linearGradient4135)" fill-opacity="1" stroke="none" d="M 1.9453125 0 C 0.86803535 0 0 0.86803535 0 1.9453125 L 0 46.054688 C 0 47.131965 0.86803535 48 1.9453125 48 L 12 48 L 12 0 L 1.9453125 0 z" transform="translate(0,1004.3622)"/><path id="rect4105" fill="url(#linearGradient4152)" fill-opacity="1" stroke="none" d="M 12 0 L 12 48 L 24 48 L 24 0 L 12 0 z" transform="translate(0,1004.3622)"/><path id="rect4107" fill="url(#linearGradient4160)" fill-opacity="1" stroke="none" d="M 24 0 L 24 48 L 36 48 L 36 0 L 24 0 z" transform="translate(0,1004.3622)"/><path id="rect4109" fill="url(#linearGradient4168)" fill-opacity="1" stroke="none" d="M 36 0 L 36 48 L 46.054688 48 C 47.131965 48 48 47.131965 48 46.054688 L 48 1.9453125 C 48 0.86803535 47.131965 0 46.054688 0 L 36 0 z" transform="translate(0,1004.3622)"/><path id="rect4184" fill="#f9f9f9" fill-opacity=".118" stroke="none" d="M 12 0 L 12 48 L 12.707031 48 L 12.707031 0 L 12 0 z" opacity="1" transform="translate(0,1004.3622)"/><path id="rect4186" fill="#000" fill-opacity=".118" stroke="none" d="M 11.292969 0 L 11.292969 48 L 12 48 L 12 0 L 11.292969 0 z" opacity="1" transform="translate(0,1004.3622)"/><path id="path4194" fill="#f9f9f9" fill-opacity=".118" stroke="none" d="m 24,1004.3622 0,48 0.707031,0 0,-48 L 24,1004.3622 Z"/><path id="path4196" fill="#000" fill-opacity=".118" stroke="none" d="m 23.292969,1004.3622 0,48 0.707031,0 0,-48 L 23.292969,1004.3622 Z"/><path id="path4198" fill="#f9f9f9" fill-opacity=".118" stroke="none" d="m 36,1004.3622 0,48 0.707031,0 0,-48 L 36,1004.3622 Z"/><path id="path4200" fill="#000" fill-opacity=".118" stroke="none" d="m 35.292969,1004.3622 0,48 0.707031,0 0,-48 L 35.292969,1004.3622 Z"/><rect id="rect4170" width="48" height="48" x="0" y="-1052.362" fill="url(#linearGradient4178)" fill-opacity="1" stroke="none" opacity=".3" ry="1.945" transform="scale(1,-1)"/><path id="rect4280" fill="#000" fill-opacity=".392" stroke="none" d="m 1.9374991,1004.3622 c -1.07727597,0 -1.937499372052,0.8602 -1.937499372052,1.9375 l 0,43.0625 c 0,0.7934 0.480023402052,1.449 1.156249372052,1.75 -0.30934097,-0.3333 -0.49999897,-0.7824 -0.49999897,-1.2812 l 0,-42.9375 c 0,-1.0482 0.82689797,-1.875 1.87499897,-1.875 l 42.9375009,0 c 1.048101,0 1.875,0.8268 1.875,1.875 l 0,42.9375 c 0,0.4988 -0.190658,0.9479 -0.5,1.2812 0.676226,-0.301 1.15625,-0.9566 1.15625,-1.75 l 0,-43.0625 c 0,-1.0773 -0.860223,-1.9375 -1.9375,-1.9375 L 1.9374991,1004.3622 Z"/><path id="path4212" fill="url(#linearGradient4214)" fill-opacity="1" stroke="none" d="M 37,25.0625 C 37,32.690933 30.815933,38.875 23.1875,38.875 15.559067,38.875 9.375,32.690933 9.375,25.0625 9.375,17.434067 15.559067,11.25 23.1875,11.25 30.815933,11.25 37,17.434067 37,25.0625 Z" transform="matrix(1.1583711,0,0,1.1583711,-2.8597296,999.33052)"/><path id="path4202" fill="url(#linearGradient4210)" fill-opacity="1" stroke="none" d="M 37,25.0625 C 37,32.690933 30.815933,38.875 23.1875,38.875 15.559067,38.875 9.375,32.690933 9.375,25.0625 9.375,17.434067 15.559067,11.25 23.1875,11.25 30.815933,11.25 37,17.434067 37,25.0625 Z" transform="matrix(1.0859729,0,0,1.0859729,-1.1809966,1001.145)"/><path id="path4262" fill="#000" fill-opacity=".059" stroke="none" d="M 30.875812,23.625 16.437094,31.961197 16.437094,15.288803 Z" transform="matrix(0.92796133,0,0,0.95967013,3.0480122,1006.89)"/><path id="path4260" fill="#000" fill-opacity=".118" stroke="none" d="M 30.875812,23.625 16.437094,31.961197 16.437094,15.288803 Z" transform="matrix(0.92796133,0,0,0.95967013,3.0480122,1006.49)"/><path id="path4254" fill="#000" fill-opacity=".235" stroke="none" d="M 30.875812,23.625 16.437094,31.961197 16.437094,15.288803 Z" transform="matrix(0.92796133,0,0,0.95967013,3.0480122,1006.09)"/><path id="path4222" fill="url(#linearGradient4230)" fill-opacity="1" stroke="none" d="M 30.875812,23.625 16.437094,31.961197 16.437094,15.288803 Z" transform="matrix(0.92796133,0,0,0.95967013,3.0480122,1005.69)"/><path id="path7515" fill="#fff" fill-opacity=".537" stroke="none" d="m 2.5312491,1005.0185 c -0.917088,0 -1.67114597,0.6395 -1.84374897,1.5 0.33561197,-0.2799 0.77451197,-0.4375 1.24999897,-0.4375 l 44.1250009,0 c 0.475488,0 0.914388,0.1576 1.25,0.4375 -0.172603,-0.8605 -0.926662,-1.5 -1.84375,-1.5 L 2.5312491,1005.0185 Z"/><path id="rect846" fill="#000" fill-opacity="1" stroke="none" d="m -2.72052e-7,1049.3622 0,1.0625 c 0,1.0773 0.860222402052,1.9375 1.937499372052,1.9375 l 44.1250009,0 c 1.077277,0 1.9375,-0.8602 1.9375,-1.9375 l 0,-1.0625 c 0,1.0773 -0.860223,1.9375 -1.9375,1.9375 l -44.1250009,0 C 0.86022213,1051.2997 -2.72052e-7,1050.4395 -2.72052e-7,1049.3622 Z"/></g></svg>