<svg xmlns="http://www.w3.org/2000/svg" xmlns:svg="http://www.w3.org/2000/svg" xmlns:xlink="http://www.w3.org/1999/xlink" id="svg5453" width="48" height="48" version="1.1" viewBox="0 0 48 48"><defs id="defs5455"><linearGradient id="linearGradient4169"><stop id="stop4171" offset="0" stop-color="#e2f4c4" stop-opacity="1"/><stop id="stop4173" offset="1" stop-color="#fdfff5" stop-opacity="1"/></linearGradient><linearGradient id="linearGradient4185" x1="10.41" x2="10.41" y1="13.991" y2="2.012" gradientTransform="matrix(2.5666667,0,0,2.5666667,407.32166,494.9571)" gradientUnits="userSpaceOnUse" xlink:href="#linearGradient4169"/><linearGradient id="linearGradient3435" x1="415.179" x2="415.886" y1="-547.98" y2="-499.805" gradientTransform="translate(-4.6601564e-5,-1.5820313e-4)" gradientUnits="userSpaceOnUse" xlink:href="#linearGradient1373-2"/><linearGradient id="linearGradient4161" x1="2.709" x2="2.709" y1="-9.104" y2="9.12" gradientTransform="matrix(-1.6884117,0,0,-1.6884117,410.86683,523.798)" gradientUnits="userSpaceOnUse" xlink:href="#linearGradient4127"/><linearGradient id="linearGradient1373-2"><stop id="stop1375-3" offset="0" stop-color="#282827" stop-opacity="1"/><stop id="stop1377-7" offset="1" stop-color="#292929" stop-opacity="1"/></linearGradient><linearGradient id="linearGradient4127"><stop id="stop4129" offset="0" stop-color="#f96a01" stop-opacity="1"/><stop id="stop4131" offset="1" stop-color="#ffb900" stop-opacity="1"/></linearGradient></defs><metadata id="metadata5458"/><g id="layer1" transform="translate(-384.57143,-499.798)"><rect id="rect2991-1-7" width="48" height="48" x="384.571" y="-547.798" fill="url(#linearGradient3435)" fill-opacity="1" stroke="none" ry="1.945" transform="scale(1,-1)"/><path id="rect846" fill="#000" fill-opacity="1" stroke="none" d="m 384.57143,544.79799 0,1.0625 c 0,1.0773 0.86022,1.9375 1.9375,1.9375 l 44.125,0 c 1.07728,0 1.9375,-0.8602 1.9375,-1.9375 l 0,-1.0625 c 0,1.0773 -0.86022,1.9375 -1.9375,1.9375 l -44.125,0 c -1.07728,0 -1.9375,-0.8602 -1.9375,-1.9375 z"/><path id="path7515" fill="#fff" fill-opacity=".537" stroke="none" d="m 387.10268,500.45429 c -0.91709,0 -1.67115,0.6395 -1.84375,1.5 0.33561,-0.2799 0.77451,-0.4375 1.25,-0.4375 l 44.125,0 c 0.47549,0 0.91439,0.1576 1.25,0.4375 -0.1726,-0.8605 -0.92666,-1.5 -1.84375,-1.5 l -42.9375,0 z"/><path id="rect4280" fill="#000" fill-opacity=".392" stroke="none" d="m 386.50893,499.79799 c -1.07728,0 -1.9375,0.8602 -1.9375,1.9375 l 0,43.0625 c 0,0.7934 0.48002,1.449 1.15625,1.75 -0.30934,-0.3333 -0.5,-0.7824 -0.5,-1.2812 l 0,-42.9375 c 0,-1.0482 0.8269,-1.875 1.875,-1.875 l 42.9375,0 c 1.0481,0 1.875,0.8268 1.875,1.875 l 0,42.9375 c 0,0.4988 -0.19066,0.9479 -0.5,1.2812 0.67623,-0.301 1.15625,-0.9566 1.15625,-1.75 l 0,-43.0625 c 0,-1.0773 -0.86022,-1.9375 -1.9375,-1.9375 l -44.125,0 z"/><rect id="rect4126" width="56.467" height="56.467" x="407.322" y="494.957" fill="url(#linearGradient4185)" fill-opacity="1" fill-rule="nonzero" stroke="none" display="none"/><g id="g4135" fill="#000" fill-opacity=".059" transform="matrix(-1.6884117,0,0,-1.6884117,410.86683,524.998)"><path id="path4137" fill="#000" fill-opacity=".059" fill-rule="nonzero" stroke="none" d="m 0,0 6.908,-9.121 -4.191,0 L -4.189,0 2.717,9.121 6.908,9.121 0,0 Z"/></g><g id="g4131" fill="#000" fill-opacity=".118" transform="matrix(-1.6884117,0,0,-1.6884117,410.86683,524.598)"><path id="path4133" fill="#000" fill-opacity=".118" fill-rule="nonzero" stroke="none" d="m 0,0 6.908,-9.121 -4.191,0 L -4.189,0 2.717,9.121 6.908,9.121 0,0 Z"/></g><g id="g4123" fill="#000" fill-opacity=".235" transform="matrix(-1.6884117,0,0,-1.6884117,410.86683,524.198)"><path id="path4125" fill="#000" fill-opacity=".235" fill-rule="nonzero" stroke="none" d="m 0,0 6.908,-9.121 -4.191,0 L -4.189,0 2.717,9.121 6.908,9.121 0,0 Z"/></g><path id="path212" fill="url(#linearGradient4161)" fill-opacity="1" fill-rule="nonzero" stroke="none" d="m 410.86683,523.798 -11.66355,15.4 7.07614,0 11.66017,-15.4 -11.66017,-15.4 -7.07614,0 11.66355,15.4 z"/><path id="path4141" fill="#793701" fill-opacity=".314" fill-rule="nonzero" stroke="none" d="M 14.632812 8.5996094 L 25.992188 23.599609 L 26.294922 23.199219 L 15.238281 8.5996094 L 14.632812 8.5996094 z M 33.064453 23.599609 L 21.707031 38.599609 L 15.238281 38.599609 L 14.632812 39.400391 L 21.707031 39.400391 L 33.367188 24 L 33.064453 23.599609 z" transform="translate(384.57143,499.798)"/><path id="path4152" fill="#fff" fill-opacity=".235" fill-rule="nonzero" stroke="none" d="M 14.632812 8.5996094 L 14.935547 9 L 21.707031 9 L 33.214844 24.199219 L 33.367188 24 L 21.707031 8.5996094 L 14.632812 8.5996094 z M 26.142578 24.199219 L 14.632812 39.400391 L 14.935547 39.400391 L 26.294922 24.400391 L 26.142578 24.199219 z" transform="translate(384.57143,499.798)"/></g></svg>