<svg xmlns="http://www.w3.org/2000/svg" xmlns:svg="http://www.w3.org/2000/svg" xmlns:xlink="http://www.w3.org/1999/xlink" id="svg5453" width="48" height="48" version="1.1" viewBox="0 0 48 48"><defs id="defs5455"><linearGradient id="linearGradient5000"><stop id="stop5002" offset="0" stop-color="#f7c1c6" stop-opacity="1"/><stop id="stop5004" offset="1" stop-color="#fff5f6" stop-opacity="1"/></linearGradient><linearGradient id="linearGradient4851"><stop id="stop4853" offset="0" stop-color="#fcb05f" stop-opacity="1"/><stop id="stop4855" offset="1" stop-color="#fcb464" stop-opacity="1"/></linearGradient><linearGradient id="linearGradient4841"><stop id="stop4843" offset="0" stop-color="#f0324c" stop-opacity="1"/><stop id="stop4845" offset="1" stop-color="#f13753" stop-opacity="1"/></linearGradient><linearGradient id="linearGradient4835"><stop id="stop4837" offset="0" stop-color="#2ca9a8" stop-opacity="1"/><stop id="stop4839" offset="1" stop-color="#3ab9b8" stop-opacity="1"/></linearGradient><linearGradient id="linearGradient4829"><stop id="stop4831" offset="0" stop-color="#5ce9af" stop-opacity="1"/><stop id="stop4833" offset="1" stop-color="#72edbc" stop-opacity="1"/></linearGradient><linearGradient id="linearGradient4674"><stop id="stop4676" offset="0" stop-color="#e53849" stop-opacity="1"/><stop id="stop4678" offset="1" stop-color="#f85f6e" stop-opacity="1"/></linearGradient><linearGradient id="linearGradient4638"><stop id="stop4640" offset="0" stop-color="#dcdcdc" stop-opacity="1"/><stop id="stop4642" offset="1" stop-color="#fafafa" stop-opacity="1"/></linearGradient><linearGradient id="linearGradient4644" x1="409.353" x2="409.353" y1="-547.797" y2="-499.794" gradientTransform="translate(-1.1650391e-5,-2.6367188e-5)" gradientUnits="userSpaceOnUse" xlink:href="#linearGradient4638"/><linearGradient id="linearGradient4680" x1="419.419" x2="419.419" y1="539.224" y2="508.399" gradientUnits="userSpaceOnUse" xlink:href="#linearGradient4674"/><linearGradient id="linearGradient937" x1="36.43" x2="36.43" y1="48.044" y2="43.205" gradientTransform="matrix(1.500061,0,0,1,348.56997,499.798)" gradientUnits="userSpaceOnUse" xlink:href="#linearGradient4835"/><linearGradient id="linearGradient953" x1="41.352" x2="41.352" y1="48.022" y2="43.205" gradientTransform="matrix(-1.2,0,0,1,57.6,0)" gradientUnits="userSpaceOnUse" xlink:href="#linearGradient4829"/><linearGradient id="linearGradient4819" x1="36.43" x2="36.43" y1="48.044" y2="43.205" gradientTransform="matrix(1.5000609,0,0,1,360.56997,499.798)" gradientUnits="userSpaceOnUse" xlink:href="#linearGradient4841"/><linearGradient id="linearGradient4849" x1="41.352" x2="41.352" y1="48.022" y2="43.205" gradientTransform="matrix(1.2,0,0,1,374.97144,499.798)" gradientUnits="userSpaceOnUse" xlink:href="#linearGradient4851"/><linearGradient id="linearGradient4998" x1="413.384" x2="413.384" y1="528.11" y2="519.548" gradientTransform="matrix(1.0246569,0,0,1.0626942,-10.074086,-32.839116)" gradientUnits="userSpaceOnUse" xlink:href="#linearGradient5000"/></defs><metadata id="metadata5458"/><g id="layer1" transform="translate(-384.57143,-499.798)"><rect id="rect2991-1-7" width="48" height="48" x="384.571" y="-547.798" fill="url(#linearGradient4644)" fill-opacity="1" stroke="none" ry="1.945" transform="scale(1,-1)"/><path id="path4882" fill="#000" fill-opacity=".059" stroke="none" d="m 396.81212,509.59802 c -3.06918,0 -4.74082,1.50639 -4.74082,4.37099 l 0,10.9909 c 0,0.007 -3e-5,0.0133 0,0.02 l 0,0.0181 c 0,0.16669 0.0231,0.3279 0.0283,0.49328 0.27974,8.29922 7.50952,14.90671 16.47184,14.90671 8.96232,0 16.1921,-6.60749 16.47183,-14.90671 0.005,-0.16538 0.0283,-0.32659 0.0283,-0.49328 l 0,-0.0181 c 2e-5,-0.007 0,-0.0133 0,-0.02 l 0,-10.9909 c 0,-2.8646 -1.67197,-4.37099 -4.74114,-4.37099 l -11.75869,0 -11.759,0 z"/><path id="path4880" fill="#000" fill-opacity=".118" stroke="none" d="m 396.81212,509.19802 c -3.06918,0 -4.74082,1.50639 -4.74082,4.37099 l 0,10.9909 c 0,0.007 -3e-5,0.0133 0,0.02 l 0,0.0181 c 0,0.16669 0.0231,0.3279 0.0283,0.49328 0.27974,8.29922 7.50952,14.90671 16.47184,14.90671 8.96232,0 16.1921,-6.60749 16.47183,-14.90671 0.005,-0.16538 0.0283,-0.32659 0.0283,-0.49328 l 0,-0.0181 c 2e-5,-0.007 0,-0.0133 0,-0.02 l 0,-10.9909 c 0,-2.8646 -1.67197,-4.37099 -4.74114,-4.37099 l -11.75869,0 -11.759,0 z"/><path id="path935" fill="url(#linearGradient937)" fill-opacity="1" stroke="none" d="m 396.57143,542.99722 0,4.80078 12,0 0,-4.80078 -12,0 z"/><path id="path951" fill="url(#linearGradient953)" fill-opacity="1" stroke="none" d="m 0,41.255859 0,4.798829 0,0.0078 c 0,0.01337 0.0035898,0.02576 0.00390625,0.03906 C 0.02909065,47.160075 1.0475308,48 2.3242188,48 L 12,48 l 0,-4.800781 -10.0546875,0 C 0.86803535,43.199219 0,42.333137 0,41.255859 Z" transform="translate(384.57143,499.798)"/><path id="path7515" fill="#fff" fill-opacity=".537" stroke="none" d="m 387.10268,500.45429 c -0.91709,0 -1.67115,0.6395 -1.84375,1.5 0.33561,-0.2799 0.77451,-0.4375 1.25,-0.4375 l 44.125,0 c 0.47549,0 0.91439,0.1576 1.25,0.4375 -0.1726,-0.8605 -0.92666,-1.5 -1.84375,-1.5 l -42.9375,0 z"/><path id="path4847" fill="url(#linearGradient4849)" fill-opacity="1" stroke="none" d="m 432.57144,541.05386 0,4.79883 0,0.008 c 0,0.0134 -0.004,0.0258 -0.004,0.0391 -0.0252,1.05852 -1.04362,1.89845 -2.32031,1.89845 l -9.67578,0 0,-4.80078 10.05469,0 c 1.07727,0 1.94531,-0.86608 1.94531,-1.94336 z"/><path id="rect4280" fill="#000" fill-opacity=".392" stroke="none" d="m 386.50893,499.79799 c -1.07728,0 -1.9375,0.8602 -1.9375,1.9375 l 0,43.0625 c 0,0.7934 0.48002,1.449 1.15625,1.75 -0.30934,-0.3333 -0.5,-0.7824 -0.5,-1.2812 l 0,-42.9375 c 0,-1.0482 0.8269,-1.875 1.875,-1.875 l 42.9375,0 c 1.0481,0 1.875,0.8268 1.875,1.875 l 0,42.9375 c 0,0.4988 -0.19066,0.9479 -0.5,1.2812 0.67623,-0.301 1.15625,-0.9566 1.15625,-1.75 l 0,-43.0625 c 0,-1.0773 -0.86022,-1.9375 -1.9375,-1.9375 l -44.125,0 z"/><path id="path4876" fill="#000" fill-opacity=".235" stroke="none" d="m 396.81212,508.79802 c -3.06918,0 -4.74082,1.50639 -4.74082,4.37099 l 0,10.9909 c 0,0.007 -3e-5,0.0133 0,0.02 l 0,0.0181 c 0,0.16669 0.0231,0.3279 0.0283,0.49328 0.27974,8.29922 7.50952,14.90671 16.47184,14.90671 8.96232,0 16.1921,-6.60749 16.47183,-14.90671 0.005,-0.16538 0.0283,-0.32659 0.0283,-0.49328 l 0,-0.0181 c 2e-5,-0.007 0,-0.0133 0,-0.02 l 0,-10.9909 c 0,-2.8646 -1.67197,-4.37099 -4.74114,-4.37099 l -11.75869,0 -11.759,0 z"/><path id="rect4669" fill="url(#linearGradient4680)" fill-opacity="1" stroke="none" d="m 396.81212,508.39801 c -3.06918,0 -4.74082,1.50639 -4.74082,4.37099 l 0,10.9909 c 0,0.007 -3e-5,0.0133 0,0.02 l 0,0.0181 c 0,0.16669 0.0231,0.3279 0.0283,0.49328 0.27974,8.29922 7.50952,14.90671 16.47184,14.90671 8.96232,0 16.1921,-6.60749 16.47183,-14.90671 0.005,-0.16538 0.0283,-0.32659 0.0283,-0.49328 l 0,-0.0181 c 2e-5,-0.007 0,-0.0133 0,-0.02 l 0,-10.9909 c 0,-2.8646 -1.67197,-4.37099 -4.74114,-4.37099 l -11.75869,0 -11.759,0 z"/><path id="path5014" fill="#000" fill-opacity=".059" stroke="none" d="m 417.07142,522.88584 -1.41699,-2.38784 -7.01186,5.32703 -0.14228,0 -7.01187,-5.32703 -1.41699,2.38784 8.5,6.61216 8.5,-6.61216 z" font-family="CuprumFFU" font-size="35" font-stretch="normal" font-style="normal" font-variant="normal" font-weight="normal" letter-spacing="0" text-anchor="start" word-spacing="0" writing-mode="lr-tb" style="text-align:start;line-height:125%;-inkscape-font-specification:CuprumFFU"/><path font-style="normal" style="text-align:start;line-height:125%;-inkscape-font-specification:CuprumFFU" id="path5012" fill="#000" fill-opacity=".118" stroke="none" d="m 417.07142,522.48584 -1.41699,-2.38784 -7.01186,5.32703 -0.14228,0 -7.01187,-5.32703 -1.41699,2.38784 8.5,6.61216 8.5,-6.61216 z" font-family="CuprumFFU" font-size="35" font-stretch="normal" font-variant="normal" font-weight="normal" letter-spacing="0" text-anchor="start" word-spacing="0" writing-mode="lr-tb"/><path id="path5008" fill="#000" fill-opacity=".235" stroke="none" d="m 417.07142,522.08584 -1.41699,-2.38784 -7.01186,5.32703 -0.14228,0 -7.01187,-5.32703 -1.41699,2.38784 8.5,6.61216 8.5,-6.61216 z" font-family="CuprumFFU" font-size="35" font-stretch="normal" font-style="normal" font-variant="normal" font-weight="normal" letter-spacing="0" text-anchor="start" word-spacing="0" writing-mode="lr-tb" style="text-align:start;line-height:125%;-inkscape-font-specification:CuprumFFU"/><rect id="rect6284" width="8.38" height="8.363" x="379.021" y="489.417" fill="#eeeeec" display="none" enable-background="accumulate"/><rect id="rect6592" width="5.587" height="5.575" x="380.233" y="502.659" fill="#eeeeec" display="none" enable-background="accumulate"/><rect id="rect8104" width="4.19" height="4.182" x="380.058" y="511.371" fill="#fff" display="none" enable-background="accumulate"/><rect id="rect6749" width="3.841" height="3.833" x="380.233" y="511.556" fill="#eeeeec" display="none" enable-background="accumulate"/><rect id="rect6833" width="2.793" height="2.788" x="380.233" y="518.863" fill="#eeeeec" display="none" enable-background="accumulate"/><rect id="rect3068" width="44.693" height="44.604" x="330.138" y="486.281" fill="#eeeeec" display="none" enable-background="accumulate"/><text id="context" x="330.664" y="484.94" fill="#000" display="none" enable-background="new" font-family="Bitstream Vera Sans" font-size="3.192" transform="scale(1.0010026,0.99899841)" xml:space="preserve"><tspan id="tspan2716" x="330.664" y="484.94">apps</tspan></text><text id="text3021" x="360.487" y="484.94" fill="#000" display="none" enable-background="new" font-family="Droid Sans" font-size="3.192" font-weight="bold" transform="scale(1.0010026,0.99899841)" xml:space="preserve" style="line-height:125%"><tspan id="tspan3023" x="360.487" y="484.94">preferences-color</tspan></text><path id="path4817" fill="url(#linearGradient4819)" fill-opacity="1" stroke="none" d="m 408.57143,542.99722 0,4.80078 12,0 0,-4.80078 -12,0 z"/><path id="rect846" fill="#000" fill-opacity="1" stroke="none" d="m 384.57143,544.79799 0,1.0625 c 0,1.0773 0.86022,1.9375 1.9375,1.9375 l 44.125,0 c 1.07728,0 1.9375,-0.8602 1.9375,-1.9375 l 0,-1.0625 c 0,1.0773 -0.86022,1.9375 -1.9375,1.9375 l -44.125,0 c -1.07728,0 -1.9375,-0.8602 -1.9375,-1.9375 z"/><path id="path4857" fill="#fff" fill-opacity=".235" stroke="none" d="M 0 41.255859 L 0 42.056641 C 0 43.133921 0.8680425 44 1.9453125 44 L 12 44 L 24 44 L 36 44 L 46.054688 44 C 47.131957 44 48 43.133921 48 42.056641 L 48 41.255859 C 48 42.333139 47.131957 43.199219 46.054688 43.199219 L 36 43.199219 L 24 43.199219 L 12 43.199219 L 1.9453125 43.199219 C 0.86803535 43.199219 0 42.333137 0 41.255859 z" transform="translate(384.57143,499.798)"/><path font-style="normal" style="text-align:start;line-height:125%;-inkscape-font-specification:CuprumFFU" id="path3454-6" fill="url(#linearGradient4998)" fill-opacity="1" stroke="none" d="m 417.07142,521.68584 -1.41699,-2.38784 -7.01186,5.32703 -0.14228,0 -7.01187,-5.32703 -1.41699,2.38784 8.5,6.61216 8.5,-6.61216 z" font-family="CuprumFFU" font-size="35" font-stretch="normal" font-variant="normal" font-weight="normal" letter-spacing="0" text-anchor="start" word-spacing="0" writing-mode="lr-tb"/><path id="path4982" fill="#ac1625" fill-opacity=".314" stroke="none" d="M 7.5 23.199219 L 7.5 23.960938 C 7.5 23.967937 7.49997 23.975722 7.5 23.982422 L 7.5 24 C 7.5 24.16669 7.5221437 24.328761 7.5273438 24.494141 C 7.8070838 32.793361 15.03768 39.400391 24 39.400391 C 32.96232 39.400391 40.192926 32.793361 40.472656 24.494141 C 40.477656 24.328761 40.5 24.16669 40.5 24 L 40.5 23.982422 C 40.50002 23.975422 40.5 23.967638 40.5 23.960938 L 40.5 23.199219 C 40.5 23.365909 40.477656 23.527979 40.472656 23.693359 C 40.192926 31.992579 32.96232 38.599609 24 38.599609 C 15.03768 38.599609 7.8070838 31.992579 7.5273438 23.693359 C 7.5221437 23.527979 7.5 23.365909 7.5 23.199219 z" transform="translate(384.57143,499.798)"/><path id="path4987" fill="#fff" fill-opacity=".235" stroke="none" d="M 12.240234 8.5996094 C 9.1710544 8.5996094 7.5 10.106103 7.5 12.970703 L 7.5 13.371094 C 7.5 10.506494 9.1710544 9 12.240234 9 L 12.242188 9 L 24 9 L 35.759766 9 C 38.828936 9 40.5 10.506494 40.5 13.371094 L 40.5 12.970703 C 40.5 10.106103 38.828936 8.5996094 35.759766 8.5996094 L 24 8.5996094 L 12.242188 8.5996094 L 12.240234 8.5996094 z" transform="translate(384.57143,499.798)"/><path id="path5016" fill="#e6394a" fill-opacity=".314" stroke="none" d="M 15.824219 21.339844 L 15.5 21.888672 L 24 28.5 L 32.5 21.888672 L 32.173828 21.341797 L 24 27.699219 L 15.824219 21.339844 z" font-family="CuprumFFU" font-size="35" font-stretch="normal" font-style="normal" font-variant="normal" font-weight="normal" letter-spacing="0" text-anchor="start" transform="translate(384.57143,499.798)" word-spacing="0" writing-mode="lr-tb" style="text-align:start;line-height:125%;-inkscape-font-specification:CuprumFFU"/><path id="path5021" fill="#fff" fill-opacity=".235" stroke="none" d="M 16.916016 19.5 L 15.5 21.888672 L 15.662109 22.013672 L 16.916016 19.900391 L 23.929688 25.226562 L 24.070312 25.226562 L 31.082031 19.900391 L 32.337891 22.013672 L 32.5 21.888672 L 31.082031 19.5 L 24.070312 24.826172 L 23.929688 24.826172 L 16.916016 19.5 z" font-family="CuprumFFU" font-size="35" font-stretch="normal" font-style="normal" font-variant="normal" font-weight="normal" letter-spacing="0" text-anchor="start" transform="translate(384.57143,499.798)" word-spacing="0" writing-mode="lr-tb" style="text-align:start;line-height:125%;-inkscape-font-specification:CuprumFFU"/></g></svg>