<svg xmlns="http://www.w3.org/2000/svg" xmlns:svg="http://www.w3.org/2000/svg" xmlns:xlink="http://www.w3.org/1999/xlink" id="svg2" width="48" height="48" version="1.1"><defs id="defs4"><linearGradient id="linearGradient944"><stop id="stop946" offset="0" stop-color="#b467f8" stop-opacity="1"/><stop id="stop948" offset="1" stop-color="#340890" stop-opacity="1"/></linearGradient><linearGradient id="linearGradient910"><stop id="stop912" offset="0" stop-color="#fff" stop-opacity="1"/><stop id="stop914" offset="1" stop-color="#fff" stop-opacity="0"/></linearGradient><linearGradient id="linearGradient891"><stop id="stop893" offset="0" stop-color="#fff" stop-opacity="1"/><stop id="stop895" offset="1" stop-color="#fff" stop-opacity="0"/></linearGradient><linearGradient id="linearGradient2538"><stop id="stop2540" offset="0" stop-color="#fff" stop-opacity="1"/><stop id="stop2542" offset="1" stop-color="#fff" stop-opacity="0"/></linearGradient><linearGradient id="linearGradient2525"><stop id="stop2527" offset="0" stop-color="#e1d4f9" stop-opacity="1"/><stop id="stop2529" offset="1" stop-color="#9ad2f7" stop-opacity="1"/></linearGradient><linearGradient id="linearGradient868"><stop id="stop870" offset="0" stop-color="#49179f" stop-opacity="1"/><stop id="stop872" offset="1" stop-color="#8644d2" stop-opacity="1"/></linearGradient><linearGradient id="linearGradient862" x1="28.107" x2="28.107" y1="-1053.069" y2="-1004.986" gradientTransform="translate(-4.6325686e-8,-1.9691406e-5)" gradientUnits="userSpaceOnUse" xlink:href="#linearGradient868"/><linearGradient id="linearGradient2517" x1="25.014" x2="25.014" y1="1038.043" y2="1025.315" gradientTransform="matrix(1.0247859,0,0,1.0247859,-0.60750829,-19.728682)" gradientUnits="userSpaceOnUse" xlink:href="#linearGradient2525"/><radialGradient id="radialGradient2544" cx="24.243" cy="23.791" r="2.342" fx="24.243" fy="23.791" gradientTransform="matrix(1.4623003,0,0,1.4623003,-11.362602,997.40111)" gradientUnits="userSpaceOnUse" xlink:href="#linearGradient2538"/><linearGradient id="linearGradient2550" x1="20.437" x2="21.844" y1="1032.362" y2="1032.018" gradientTransform="matrix(1.0247859,0,0,1.0247859,-0.61053725,-19.728682)" gradientUnits="userSpaceOnUse" xlink:href="#linearGradient2538"/><linearGradient id="linearGradient2576" x1="25.014" x2="25.014" y1="1038.043" y2="1025.315" gradientTransform="matrix(1.0247859,0,0,1.0247859,-0.60750829,-19.728682)" gradientUnits="userSpaceOnUse" xlink:href="#linearGradient868"/><linearGradient id="linearGradient2586" x1="20.437" x2="21.844" y1="1032.362" y2="1032.018" gradientTransform="matrix(-1.0247859,0,0,1.0247859,48.585248,-19.728682)" gradientUnits="userSpaceOnUse" xlink:href="#linearGradient2538"/><radialGradient id="radialGradient853" cx="24.173" cy="22.668" r="2.342" fx="24.173" fy="22.668" gradientTransform="matrix(1.4623003,0,0,1.4623003,-11.362602,997.40111)" gradientUnits="userSpaceOnUse" xlink:href="#linearGradient2538"/><linearGradient id="linearGradient881" x1="24.188" x2="24.188" y1="1024.05" y2="1017.862" gradientTransform="matrix(1.0247859,0,0,1.0247859,-0.60750829,-19.728682)" gradientUnits="userSpaceOnUse" xlink:href="#linearGradient868"/><linearGradient id="linearGradient885" x1="24.188" x2="24.188" y1="1024.05" y2="1017.862" gradientTransform="matrix(1.0247859,0,0,1.0247859,-0.60750829,-19.728682)" gradientUnits="userSpaceOnUse" xlink:href="#linearGradient2525"/><radialGradient id="radialGradient897" cx="24.013" cy="1018.384" r="2.139" fx="24.013" fy="1018.384" gradientTransform="matrix(1.1296024,0,0,0.98149854,-3.124452,25.044546)" gradientUnits="userSpaceOnUse" xlink:href="#linearGradient891"/><linearGradient id="linearGradient916" x1="25.125" x2="25.125" y1="3.375" y2="26.125" gradientTransform="matrix(1.0247859,0,0,1.0247859,-0.60750829,1009.5277)" gradientUnits="userSpaceOnUse" xlink:href="#linearGradient910"/><radialGradient id="radialGradient942" cx="24" cy="-1039.362" r="24" fx="24" fy="-1039.362" gradientTransform="matrix(1.421875,1.37692e-6,-1.4172693e-6,1.4635417,-10.126473,481.78765)" gradientUnits="userSpaceOnUse" xlink:href="#linearGradient944"/></defs><metadata id="metadata7"/><g id="layer1" transform="translate(0,-1004.3622)"><rect id="rect2991-1" width="48" height="48" x="0" y="-1052.362" fill="url(#linearGradient862)" fill-opacity="1" stroke="none" display="inline" filter="url(#filter6731)" opacity=".5" ry="1.945" transform="scale(1,-1)"/><rect id="rect940" width="48" height="48" x="0" y="-1052.362" fill="url(#radialGradient942)" fill-opacity="1" stroke="none" display="inline" filter="url(#filter6731)" ry="1.945" transform="scale(1,-1)"/><path id="rect846" fill="#000" fill-opacity="1" stroke="none" d="m -4.6325686e-8,1049.3622 0,1.0625 c 0,1.0773 0.860222996325686,1.9375 1.937500046325686,1.9375 l 44.125,0 c 1.077277,0 1.9375,-0.8602 1.9375,-1.9375 l 0,-1.0625 c 0,1.0773 -0.860223,1.9375 -1.9375,1.9375 l -44.125,0 C 0.86022295,1051.2997 -4.6325686e-8,1050.4395 -4.6325686e-8,1049.3622 Z" display="inline" filter="url(#filter6731)"/><path id="path7515" fill="#fff" fill-opacity=".537" stroke="none" d="m 2.53125,1005.0185 c -0.917089,0 -1.67114705,0.6395 -1.84375005,1.5 C 1.023112,1006.2386 1.462012,1006.081 1.9375,1006.081 l 44.125,0 c 0.475488,0 0.914388,0.1576 1.25,0.4375 -0.172603,-0.8605 -0.926662,-1.5 -1.84375,-1.5 L 2.53125,1005.0185 Z" display="inline" filter="url(#filter6731)"/><path id="rect4280" fill="#000" fill-opacity=".392" stroke="none" d="m 1.9375,1004.3622 c -1.07727705,0 -1.937500046325685,0.8602 -1.937500046325685,1.9375 l 0,43.0625 c 0,0.7934 0.480022996325685,1.449 1.156250046325685,1.75 -0.30934205,-0.3333 -0.50000005,-0.7824 -0.50000005,-1.2812 l 0,-42.9375 c 0,-1.0482 0.82689905,-1.875 1.87500005,-1.875 l 42.9375,0 c 1.048101,0 1.875,0.8268 1.875,1.875 l 0,42.9375 c 0,0.4988 -0.190658,0.9479 -0.5,1.2812 0.676226,-0.301 1.15625,-0.9566 1.15625,-1.75 l 0,-43.0625 c 0,-1.0773 -0.860223,-1.9375 -1.9375,-1.9375 L 1.9375,1004.3622 Z" display="inline" filter="url(#filter6731)"/><g id="g4385" transform="translate(0,-0.59201738)"><path id="path4142" fill="#000" fill-opacity=".059" fill-rule="nonzero" stroke="none" d="m 24.001795,1024.43 c -0.888953,0 -1.694842,0.3612 -2.276667,0.9432 -0.581824,0.5827 -0.940687,1.3852 -0.940687,2.2741 0,0.888 0.358863,1.694 0.940687,2.2767 0.581825,0.5819 1.387718,0.9407 2.276667,0.9407 0.888048,0 1.692338,-0.3588 2.274164,-0.9407 0.582725,-0.5827 0.940688,-1.3887 0.940688,-2.2767 0,-0.8889 -0.357963,-1.6914 -0.940688,-2.2741 -0.581824,-0.582 -1.386116,-0.9432 -2.274164,-0.9432 z" display="inline" filter="url(#filter6731)"/><path id="path4140" fill="#000" fill-opacity=".118" fill-rule="nonzero" stroke="none" d="m 24.001795,1024.0299 c -0.888953,0 -1.694842,0.3612 -2.276667,0.9432 -0.581824,0.5827 -0.940687,1.3852 -0.940687,2.2741 0,0.888 0.358863,1.694 0.940687,2.2767 0.581825,0.5819 1.387718,0.9407 2.276667,0.9407 0.888048,0 1.692338,-0.3588 2.274164,-0.9407 0.582725,-0.5827 0.940688,-1.3887 0.940688,-2.2767 0,-0.8889 -0.357963,-1.6914 -0.940688,-2.2741 -0.581824,-0.582 -1.386116,-0.9432 -2.274164,-0.9432 z" display="inline" filter="url(#filter6731)"/><path id="path4136" fill="#000" fill-opacity=".235" fill-rule="nonzero" stroke="none" d="m 24.001795,1023.6298 c -0.888953,0 -1.694842,0.3612 -2.276667,0.9432 -0.581824,0.5827 -0.940687,1.3852 -0.940687,2.2741 0,0.888 0.358863,1.694 0.940687,2.2767 0.581825,0.5819 1.387718,0.9407 2.276667,0.9407 0.888048,0 1.692338,-0.3588 2.274164,-0.9407 0.582725,-0.5827 0.940688,-1.3887 0.940688,-2.2767 0,-0.8889 -0.357963,-1.6914 -0.940688,-2.2741 -0.581824,-0.582 -1.386116,-0.9432 -2.274164,-0.9432 z" display="inline" filter="url(#filter6731)"/><path id="path4134" fill="#000" fill-opacity=".059" fill-rule="nonzero" stroke="none" d="m 23.972787,1031.954 c -0.23626,0.012 -3.319737,0.03 -3.58825,1.9196 -0.01775,0.129 -0.02687,0.286 -0.02687,0.4659 8.03e-4,2.569 1.702293,10.018 1.702293,10.0188 0,0 0.08252,0.5959 0.792908,0.5959 l 2.268976,0 c 0.711198,0 0.792102,-0.5942 0.792909,-0.5959 0,0 1.702291,-7.4499 1.702291,-10.0188 0,-0.1799 -0.0084,-0.3369 -0.02688,-0.4659 -0.268514,-1.8884 -3.351992,-1.9187 -3.588251,-1.9196 l -0.01568,0 -0.01345,0 z" display="inline" filter="url(#filter6731)"/><path id="path4132" fill="#000" fill-opacity=".118" fill-rule="nonzero" stroke="none" d="m 23.972787,1031.5539 c -0.23626,0.012 -3.319737,0.03 -3.58825,1.9196 -0.01775,0.129 -0.02687,0.286 -0.02687,0.4659 8.03e-4,2.569 1.702293,10.018 1.702293,10.0188 0,0 0.08252,0.5959 0.792908,0.5959 l 2.268976,0 c 0.711198,0 0.792102,-0.5942 0.792909,-0.5959 0,0 1.702291,-7.4499 1.702291,-10.0188 0,-0.1799 -0.0084,-0.3369 -0.02688,-0.4659 -0.268514,-1.8884 -3.351992,-1.9187 -3.588251,-1.9196 l -0.01568,0 -0.01345,0 z" display="inline" filter="url(#filter6731)"/><path id="path4130" fill="#000" fill-opacity=".235" fill-rule="nonzero" stroke="none" d="m 23.972787,1031.1538 c -0.23626,0.012 -3.319737,0.03 -3.58825,1.9196 -0.01775,0.129 -0.02687,0.286 -0.02687,0.4659 8.03e-4,2.569 1.702293,10.018 1.702293,10.0188 0,0 0.08252,0.5959 0.792908,0.5959 l 2.268976,0 c 0.711198,0 0.792102,-0.5942 0.792909,-0.5959 0,0 1.702291,-7.4499 1.702291,-10.0188 0,-0.1799 -0.0084,-0.3369 -0.02688,-0.4659 -0.268514,-1.8884 -3.351992,-1.9187 -3.588251,-1.9196 l -0.01568,0 -0.01345,0 z" display="inline" filter="url(#filter6731)"/><path id="path899" fill="url(#linearGradient916)" fill-opacity="1" stroke="none" d="m 23.987355,1012.9542 c -7.453583,0 -13.450316,6.0288 -13.450316,13.4824 0,7.4536 5.996733,13.5144 13.450316,13.5144 7.453584,0 13.482341,-6.0608 13.482341,-13.5144 0,-7.4536 -6.028757,-13.4824 -13.482341,-13.4824 z m 0,2.4019 c 6.118991,0 11.080499,4.9615 11.080499,11.0805 0,6.119 -4.961508,11.0805 -11.080499,11.0805 -6.118991,0 -11.048474,-4.9615 -11.048474,-11.0805 0,-6.119 4.929483,-11.0805 11.048474,-11.0805 z m 0,2.562 c -4.695931,0 -8.486508,3.8225 -8.486508,8.5185 0,4.696 3.790577,8.5185 8.486508,8.5185 4.695931,0 8.518533,-3.8225 8.518533,-8.5185 0,-4.696 -3.822602,-8.5185 -8.518533,-8.5185 z m 0,2.4338 c 3.36134,0 6.084667,2.7235 6.084667,6.0847 0,3.3612 -2.723327,6.1166 -6.084667,6.1166 -3.36134,0 -6.052643,-2.7554 -6.052643,-6.1166 0,-3.3612 2.691303,-6.0847 6.052643,-6.0847 z" opacity=".647"/><path id="path2574" fill="url(#linearGradient2576)" fill-opacity="1" fill-rule="nonzero" stroke="none" d="m 23.972787,1030.7537 c -0.23626,0.012 -3.319737,0.03 -3.58825,1.9196 -0.01775,0.129 -0.02687,0.286 -0.02687,0.4659 8.03e-4,2.569 1.702293,10.018 1.702293,10.0188 0,0 0.08252,0.5959 0.792908,0.5959 l 2.268976,0 c 0.711198,0 0.792102,-0.5942 0.792909,-0.5959 0,0 1.702291,-7.4499 1.702291,-10.0188 0,-0.1799 -0.0084,-0.3369 -0.02688,-0.4659 -0.268514,-1.8884 -3.351992,-1.9187 -3.588251,-1.9196 l -0.01568,0 -0.01345,0 z" display="inline" filter="url(#filter6731)" opacity=".471"/><path id="path2509" fill="url(#linearGradient881)" fill-opacity="1" fill-rule="nonzero" stroke="none" d="m 24.001795,1023.2296 c -0.888953,0 -1.694842,0.3612 -2.276667,0.9432 -0.581824,0.5827 -0.940687,1.3852 -0.940687,2.2741 0,0.888 0.358863,1.694 0.940687,2.2767 0.581825,0.5819 1.387718,0.9407 2.276667,0.9407 0.888048,0 1.692338,-0.3588 2.274164,-0.9407 0.582725,-0.5827 0.940688,-1.3887 0.940688,-2.2767 0,-0.8889 -0.357963,-1.6914 -0.940688,-2.2741 -0.581824,-0.582 -1.386116,-0.9432 -2.274164,-0.9432 z" display="inline" filter="url(#filter6731)" opacity=".417"/><path id="path128" fill="url(#linearGradient2517)" fill-opacity="1" fill-rule="nonzero" stroke="none" d="m 23.972787,1030.7537 c -0.23626,0.012 -3.319737,0.03 -3.58825,1.9196 -0.01775,0.129 -0.02687,0.286 -0.02687,0.4659 8.03e-4,2.569 1.702293,10.018 1.702293,10.0188 0,0 0.08252,0.5959 0.792908,0.5959 l 2.268976,0 c 0.711198,0 0.792102,-0.5942 0.792909,-0.5959 0,0 1.702291,-7.4499 1.702291,-10.0188 0,-0.1799 -0.0084,-0.3369 -0.02688,-0.4659 -0.268514,-1.8884 -3.351992,-1.9187 -3.588251,-1.9196 l -0.01568,0 -0.01345,0 z" display="inline" filter="url(#filter6731)" opacity=".647"/><path id="path2546" fill="url(#linearGradient2550)" fill-opacity="1" fill-rule="nonzero" stroke="none" d="m 22.927514,1030.824 c -0.12028,0.019 -0.255623,0.068 -0.384294,0.096 0.15487,-0.032 0.273927,-0.044 0.41632,-0.064 -0.0078,-0.013 -0.02399,-0.021 -0.03203,-0.032 z m -0.960736,0.2562 c -0.354376,0.1244 -0.712994,0.277 -0.992761,0.5124 0.282483,-0.2364 0.631067,-0.391 0.992761,-0.5124 z m -0.992761,0.5124 c -0.143173,0.1204 -0.250467,0.2605 -0.35227,0.4162 0.09965,-0.154 0.211029,-0.2982 0.35227,-0.4162 z m -0.384295,0.4803 c -0.107541,0.1807 -0.191201,0.3765 -0.224172,0.6086 -0.01773,0.129 0,0.2684 0,0.4483 8.02e-4,2.569 1.697302,10.0228 1.697302,10.0236 0,0 0.09022,0.6085 0.800614,0.6085 l 0.41632,0 0,-7.8461 c -1.561063,-0.3196 -2.722088,-1.7073 -2.722088,-3.3625 0,-0.1685 0.0095,-0.3202 0.03203,-0.4804 z" display="inline" filter="url(#filter6731)" opacity=".741"/><path id="path2536" fill="url(#radialGradient2544)" fill-opacity="1" stroke="none" d="m 23.987355,1030.76 c -0.204661,0.01 -2.565434,0.017 -3.362579,1.2489 -0.0081,0.013 -0.02429,0.02 -0.03203,0.032 -0.02665,0.1722 -0.03203,0.3328 -0.03203,0.5123 0,1.8917 1.534979,3.4267 3.426628,3.4267 1.891648,0 3.426628,-1.535 3.426628,-3.4267 0,-0.1795 -0.0054,-0.3401 -0.03203,-0.5123 -0.0019,-0.012 -0.03009,-0.021 -0.03203,-0.032 -0.797139,-1.2336 -3.157912,-1.2482 -3.362572,-1.2489 z" opacity=".668"/><path id="path2584" fill="url(#linearGradient2586)" fill-opacity="1" fill-rule="nonzero" stroke="none" d="m 25.047194,1030.824 c 0.120283,0.019 0.255625,0.068 0.384296,0.096 -0.15487,-0.032 -0.273927,-0.044 -0.41632,-0.064 0.0078,-0.013 0.02399,-0.021 0.03203,-0.032 z m 0.960737,0.2562 c 0.354378,0.1244 0.712996,0.277 0.992762,0.5124 -0.282484,-0.2364 -0.631067,-0.391 -0.992762,-0.5124 z m 0.992762,0.5124 c 0.143173,0.1204 0.250468,0.2605 0.35227,0.4162 -0.09964,-0.154 -0.211029,-0.2982 -0.35227,-0.4162 z m 0.384295,0.4803 c 0.10754,0.1807 0.191202,0.3765 0.224172,0.6086 0.01773,0.129 0,0.2684 0,0.4483 -8.03e-4,2.569 -1.697302,10.0228 -1.697302,10.0236 0,0 -0.09022,0.6085 -0.800615,0.6085 l -0.416318,0 0,-7.8461 c 1.561061,-0.3196 2.722087,-1.7073 2.722087,-3.3625 0,-0.1685 -0.0095,-0.3202 -0.03203,-0.4804 z" display="inline" filter="url(#filter6731)" opacity=".741"/><path id="path2636" fill="url(#radialGradient853)" fill-opacity="1" stroke="none" d="m 23.987355,1030.76 c -0.204661,0.01 -2.565434,0.017 -3.362579,1.2489 -0.0081,0.013 -0.02429,0.02 -0.03203,0.032 -0.02665,0.1722 -0.03203,0.3328 -0.03203,0.5123 0,1.8917 1.534979,3.4267 3.426628,3.4267 1.891648,0 3.426628,-1.535 3.426628,-3.4267 0,-0.1795 -0.0054,-0.3401 -0.03203,-0.5123 -0.0019,-0.012 -0.03009,-0.021 -0.03203,-0.032 -0.797139,-1.2336 -3.157912,-1.2482 -3.362572,-1.2489 z" opacity=".668"/><path id="path2531" fill="#fff" fill-opacity=".368" fill-rule="nonzero" stroke="none" d="m 23.987355,1030.76 c -0.23626,0.012 -3.350262,0.032 -3.618775,1.9215 -0.0075,0.055 -0.0022,0.1284 0,0.192 0.268513,-1.8886 3.382515,-1.9102 3.618775,-1.9215 0.23626,9e-4 3.350261,0.033 3.618775,1.9215 0.0023,-0.064 0.0078,-0.1367 0,-0.192 -0.268514,-1.8886 -3.382515,-1.9208 -3.618775,-1.9215 z" display="inline" filter="url(#filter6731)"/><path id="path845" fill="#fff" fill-opacity=".227" fill-rule="nonzero" stroke="none" d="m 23.987355,1030.948 c -0.23626,0.012 -3.350262,0.032 -3.618775,1.9215 -0.0075,0.055 -0.0022,0.1284 0,0.1921 0.268513,-1.8886 3.382515,-1.9102 3.618775,-1.9215 0.23626,8e-4 3.350261,0.033 3.618775,1.9215 0.0023,-0.064 0.0078,-0.1368 0,-0.1921 -0.268514,-1.8886 -3.382515,-1.9207 -3.618775,-1.9215 z" display="inline" filter="url(#filter6731)"/><path id="path849" fill="#fff" fill-opacity=".126" fill-rule="nonzero" stroke="none" d="m 23.987355,1031.1442 c -0.23626,0.012 -3.350262,0.032 -3.618775,1.9215 -0.0075,0.055 -0.0022,0.1284 0,0.192 0.268513,-1.8886 3.382515,-1.9102 3.618775,-1.9215 0.23626,9e-4 3.350261,0.033 3.618775,1.9215 0.0023,-0.064 0.0078,-0.1367 0,-0.192 -0.268514,-1.8886 -3.382515,-1.9207 -3.618775,-1.9215 z" display="inline" filter="url(#filter6731)"/><path id="path883" fill="url(#linearGradient885)" fill-opacity="1" fill-rule="nonzero" stroke="none" d="m 24.001795,1023.2296 c -0.888953,0 -1.694842,0.3612 -2.276667,0.9432 -0.581824,0.5827 -0.940687,1.3852 -0.940687,2.2741 0,0.888 0.358863,1.694 0.940687,2.2767 0.581825,0.5819 1.387718,0.9407 2.276667,0.9407 0.888048,0 1.692338,-0.3588 2.274164,-0.9407 0.582725,-0.5827 0.940688,-1.3887 0.940688,-2.2767 0,-0.8889 -0.357963,-1.6914 -0.940688,-2.2741 -0.581824,-0.582 -1.386116,-0.9432 -2.274164,-0.9432 z" display="inline" filter="url(#filter6731)" opacity=".647"/><path id="path887" fill="url(#radialGradient897)" fill-opacity="1" fill-rule="nonzero" stroke="none" d="m 24.001484,1023.5499 c -0.667769,0 -1.273143,0.2354 -1.710202,0.6154 -0.437057,0.38 -0.70663,0.9036 -0.70663,1.4837 0,0.5792 0.269573,1.105 0.70663,1.4855 0.437059,0.3795 1.042435,0.6135 1.710202,0.6135 0.667092,0 1.27126,-0.234 1.708321,-0.6135 0.437734,-0.3805 0.70663,-0.9063 0.70663,-1.4855 0,-0.5801 -0.268896,-1.1037 -0.70663,-1.4837 -0.437059,-0.38 -1.041229,-0.6154 -1.708321,-0.6154 z" display="inline" filter="url(#filter6731)" opacity=".647"/></g></g></svg>