<svg xmlns="http://www.w3.org/2000/svg" xmlns:svg="http://www.w3.org/2000/svg" xmlns:xlink="http://www.w3.org/1999/xlink" id="svg2" width="48" height="48" version="1.1"><defs id="defs4"><linearGradient id="linearGradient4097"><stop id="stop4099" offset="0" stop-color="#022535" stop-opacity="1"/><stop id="stop4101" offset="1" stop-color="#0b3f60" stop-opacity="1"/></linearGradient><linearGradient id="linearGradient867"><stop id="stop869" offset="0" stop-color="#2d8bbf" stop-opacity="1"/><stop id="stop871" offset="1" stop-color="#5abcf4" stop-opacity="1"/></linearGradient><linearGradient id="linearGradient1169" x1="30" x2="30" y1="-1052.612" y2="-1004.237" gradientTransform="translate(0,-8.691406e-6)" gradientUnits="userSpaceOnUse" xlink:href="#linearGradient4097"/><linearGradient id="linearGradient4106" x1="-6.468" x2="-6.468" y1="1043.381" y2="1013.327" gradientTransform="matrix(1.0239498,0,0,1.0239498,38.6984,-24.628946)" gradientUnits="userSpaceOnUse" xlink:href="#linearGradient867"/></defs><metadata id="metadata7"/><g id="layer1" transform="translate(0,-1004.3622)"><rect id="rect2991-1-2" width="48" height="48" x="0" y="-1052.362" fill="url(#linearGradient1169)" fill-opacity="1" stroke="none" ry="1.945" transform="scale(1,-1)"/><path id="path4118" fill="#000" fill-opacity=".059" fill-rule="nonzero" stroke="none" d="m 42.949906,1017.8084 c -1.394333,0.6184 -2.893078,1.0363 -4.465732,1.2243 1.605052,-0.9623 2.838123,-2.486 3.418753,-4.3018 -1.502543,0.8912 -3.166534,1.5382 -4.937782,1.8868 -1.418212,-1.5112 -3.439028,-2.4553 -5.675488,-2.4553 -4.294046,0 -7.77568,3.4813 -7.77568,7.7754 0,0.6094 0.06871,1.2029 0.20135,1.7719 -6.462219,-0.3242 -12.191761,-3.4199 -16.026668,-8.1241 -0.6693867,1.1483 -1.0528252,2.4841 -1.0528252,3.9091 0,2.6977 1.3726764,5.0777 3.4591792,6.472 -1.2746131,-0.04 -2.4736275,-0.3902 -3.5218757,-0.9725 -7.577e-4,0.033 -7.577e-4,0.064 -7.577e-4,0.097 0,3.7673 2.680291,6.9098 6.2372574,7.6244 -0.652369,0.1776 -1.339296,0.2727 -2.048443,0.2727 -0.501049,0 -0.9881419,-0.049 -1.4629883,-0.1395 0.9894733,3.089 3.8610383,5.3372 7.2635723,5.3997 -2.661113,2.0857 -6.01377,3.3287 -9.6568194,3.3287 -0.6276403,0 -1.2466179,-0.037 -1.8548646,-0.1087 3.4410345,2.2062 7.528222,3.4937 11.919257,3.4937 14.30209,0 22.123285,-11.8482 22.123285,-22.1236 0,-0.3369 -0.0082,-0.6723 -0.02273,-1.0057 1.519409,-1.0964 2.83756,-2.4659 3.879992,-4.0252"/><path id="path4116" fill="#000" fill-opacity=".118" fill-rule="nonzero" stroke="none" d="m 42.949906,1017.4084 c -1.394333,0.6184 -2.893078,1.0363 -4.465732,1.2243 1.605052,-0.9623 2.838123,-2.486 3.418753,-4.3018 -1.502543,0.8912 -3.166534,1.5382 -4.937782,1.8868 -1.418212,-1.5112 -3.439028,-2.4553 -5.675488,-2.4553 -4.294046,0 -7.77568,3.4813 -7.77568,7.7754 0,0.6094 0.06871,1.2029 0.20135,1.7719 -6.462219,-0.3242 -12.191761,-3.4199 -16.026668,-8.1241 -0.6693867,1.1483 -1.0528252,2.4841 -1.0528252,3.9091 0,2.6977 1.3726764,5.0777 3.4591792,6.472 -1.2746131,-0.04 -2.4736275,-0.3902 -3.5218757,-0.9725 -7.577e-4,0.033 -7.577e-4,0.064 -7.577e-4,0.097 0,3.7673 2.680291,6.9098 6.2372574,7.6244 -0.652369,0.1776 -1.339296,0.2727 -2.048443,0.2727 -0.501049,0 -0.9881419,-0.049 -1.4629883,-0.1395 0.9894733,3.089 3.8610383,5.3372 7.2635723,5.3997 -2.661113,2.0857 -6.01377,3.3287 -9.6568194,3.3287 -0.6276403,0 -1.2466179,-0.037 -1.8548646,-0.1087 3.4410345,2.2062 7.528222,3.4937 11.919257,3.4937 14.30209,0 22.123285,-11.8482 22.123285,-22.1236 0,-0.3369 -0.0082,-0.6723 -0.02273,-1.0057 1.519409,-1.0964 2.83756,-2.4659 3.879992,-4.0252"/><path id="path4110" fill="#000" fill-opacity=".235" fill-rule="nonzero" stroke="none" d="m 42.949906,1017.0084 c -1.394333,0.6184 -2.893078,1.0363 -4.465732,1.2243 1.605052,-0.9623 2.838123,-2.486 3.418753,-4.3018 -1.502543,0.8912 -3.166534,1.5382 -4.937782,1.8868 -1.418212,-1.5112 -3.439028,-2.4553 -5.675488,-2.4553 -4.294046,0 -7.77568,3.4813 -7.77568,7.7754 0,0.6094 0.06871,1.2029 0.20135,1.7719 -6.462219,-0.3242 -12.191761,-3.4199 -16.026668,-8.1241 -0.6693867,1.1483 -1.0528252,2.4841 -1.0528252,3.9091 0,2.6977 1.3726764,5.0777 3.4591792,6.472 -1.2746131,-0.04 -2.4736275,-0.3902 -3.5218757,-0.9725 -7.577e-4,0.033 -7.577e-4,0.064 -7.577e-4,0.097 0,3.7673 2.680291,6.9098 6.2372574,7.6244 -0.652369,0.1776 -1.339296,0.2727 -2.048443,0.2727 -0.501049,0 -0.9881419,-0.049 -1.4629883,-0.1395 0.9894733,3.089 3.8610383,5.3372 7.2635723,5.3997 -2.661113,2.0857 -6.01377,3.3287 -9.6568194,3.3287 -0.6276403,0 -1.2466179,-0.037 -1.8548646,-0.1087 3.4410345,2.2062 7.528222,3.4937 11.919257,3.4937 14.30209,0 22.123285,-11.8482 22.123285,-22.1236 0,-0.3369 -0.0082,-0.6723 -0.02273,-1.0057 1.519409,-1.0964 2.83756,-2.4659 3.879992,-4.0252"/><path id="rect846-4" fill="#000" fill-opacity="1" stroke="none" d="m -1.2897644e-7,1049.3622 0,1.0625 c 0,1.0773 0.86022289897644,1.9375 1.93749992897644,1.9375 l 44.1250002,0 c 1.077277,0 1.9375,-0.8602 1.9375,-1.9375 l 0,-1.0625 c 0,1.0773 -0.860223,1.9375 -1.9375,1.9375 l -44.1250002,0 c -1.07727703,0 -1.93749992897644,-0.8602 -1.93749992897644,-1.9375 z"/><path id="path7515-9" fill="#fff" fill-opacity=".537" stroke="none" d="m 2.5312498,1005.0185 c -0.9170884,0 -1.67114673,0.6395 -1.84374993,1.5 0.33561203,-0.2799 0.77451213,-0.4375 1.24999993,-0.4375 l 44.1250002,0 c 0.475488,0 0.914388,0.1576 1.25,0.4375 -0.172603,-0.8605 -0.926662,-1.5 -1.84375,-1.5 l -42.9375002,0 z"/><path id="rect4280-9" fill="#000" fill-opacity=".392" stroke="none" d="m 1.9374998,1004.3622 c -1.07727693,0 -1.93749992897644,0.8602 -1.93749992897644,1.9375 l 0,43.0625 c 0,0.7934 0.48002359897644,1.449 1.15624992897644,1.75 -0.30934163,-0.3333 -0.49999993,-0.7824 -0.49999993,-1.2812 l 0,-42.9375 c 0,-1.0482 0.82689893,-1.875 1.87499993,-1.875 l 42.9375002,0 c 1.048101,0 1.875,0.8268 1.875,1.875 l 0,42.9375 c 0,0.4988 -0.190658,0.9479 -0.5,1.2812 0.676226,-0.301 1.15625,-0.9566 1.15625,-1.75 l 0,-43.0625 c 0,-1.0773 -0.860223,-1.9375 -1.9375,-1.9375 l -44.1250002,0 z"/><path id="path14" fill="url(#linearGradient4106)" fill-opacity="1" fill-rule="nonzero" stroke="none" d="m 42.949906,1016.6083 c -1.394333,0.6184 -2.893078,1.0363 -4.465732,1.2243 1.605052,-0.9623 2.838123,-2.486 3.418753,-4.3018 -1.502543,0.8912 -3.166534,1.5382 -4.937782,1.8868 -1.418212,-1.5112 -3.439028,-2.4553 -5.675488,-2.4553 -4.294046,0 -7.77568,3.4813 -7.77568,7.7754 0,0.6094 0.06871,1.2029 0.20135,1.7719 -6.462219,-0.3242 -12.191761,-3.4199 -16.026668,-8.1241 -0.6693867,1.1483 -1.0528252,2.4841 -1.0528252,3.9091 0,2.6977 1.3726764,5.0777 3.4591792,6.472 -1.2746131,-0.04 -2.4736275,-0.3902 -3.5218757,-0.9725 -7.577e-4,0.033 -7.577e-4,0.064 -7.577e-4,0.097 0,3.7673 2.680291,6.9098 6.2372574,7.6244 -0.652369,0.1776 -1.339296,0.2727 -2.048443,0.2727 -0.501049,0 -0.9881419,-0.049 -1.4629883,-0.1395 0.9894733,3.089 3.8610383,5.3372 7.2635723,5.3997 -2.661113,2.0857 -6.01377,3.3287 -9.6568194,3.3287 -0.6276403,0 -1.2466179,-0.037 -1.8548646,-0.1087 3.4410345,2.2062 7.528222,3.4937 11.919257,3.4937 14.30209,0 22.123285,-11.8482 22.123285,-22.1236 0,-0.3369 -0.0082,-0.6723 -0.02273,-1.0057 1.519409,-1.0964 2.83756,-2.4659 3.879992,-4.0252"/><path id="path4120" fill="#022637" fill-opacity=".314" fill-rule="nonzero" stroke="none" d="m 41.90625,1013.5121 c -0.139722,0.083 -0.295029,0.1401 -0.4375,0.2187 -0.663656,1.3618 -1.707933,2.5066 -3,3.2813 0.447127,-0.053 0.909273,-0.098 1.34375,-0.1875 0.955877,-0.8943 1.685495,-2.0358 2.09375,-3.3125 z m 1.03125,3.0937 c -0.266765,0.1184 -0.538305,0.2091 -0.8125,0.3125 -0.881728,1.0944 -1.922943,2.084 -3.0625,2.9063 0.01136,0.2605 0.02852,0.5185 0.03125,0.7812 1.504362,-1.092 2.80949,-2.4529 3.84375,-4 z m -36.28125,1.3438 c -0.00497,0.1141 -0.03125,0.2285 -0.03125,0.3437 0,2.1839 0.925414,4.1495 2.375,5.5625 0.3582368,0.063 0.720675,0.082 1.09375,0.094 -1.9642151,-1.3128 -3.2881586,-3.4978 -3.4375,-6.0002 z m 16.875,2.4062 c -0.0062,0.1274 -0.03125,0.2462 -0.03125,0.375 0,0.3258 0.02396,0.6534 0.0625,0.9688 0.05138,0 0.104774,0 0.15625,0 -0.100618,-0.4316 -0.162545,-0.8877 -0.1875,-1.3438 z m 15.5625,0.7813 c -0.155601,10.202 -7.966748,21.8125 -22.125,21.8125 -3.743291,0 -7.2541572,-0.9509 -10.34375,-2.5937 -0.5312457,-0.01 -1.0454903,-0.033 -1.5625,-0.094 3.4410345,2.2062 7.515215,3.5 11.90625,3.5 14.30209,0 22.125,-11.8496 22.125,-22.125 0,-0.1681 0.0039,-0.3323 0,-0.4998 z m -32.53125,2.6562 c -7.577e-4,0.033 0,0.061 0,0.094 0,3.1427 1.8791476,5.8361 4.5625,7.0625 0.577041,-0.027 1.15042,-0.1038 1.6875,-0.25 -3.334656,-0.6699 -5.9112584,-3.4542 -6.21875,-6.9063 -0.00833,0 -0.022941,0 -0.03125,-2e-4 z m 2.75,7.8438 c 0.890435,2.7798 3.295865,4.8746 6.25,5.3125 0.340702,-0.2265 0.678749,-0.467 1,-0.7187 -3.08407,-0.057 -5.700778,-1.916 -6.90625,-4.5625 -0.1143841,-0.017 -0.2307754,-0.01 -0.34375,-0.031 z"/><path id="path4125" fill="#fff" fill-opacity=".235" fill-rule="nonzero" stroke="none" d="m 31.28125,1012.9623 c -4.294046,0 -7.78125,3.4872 -7.78125,7.7813 0,0.073 -0.002,0.146 0,0.2187 0.09787,-4.209 3.548773,-7.5937 7.78125,-7.5937 2.23646,0 4.269288,0.9575 5.6875,2.4687 1.700658,-0.3347 3.295065,-0.9756 4.75,-1.8125 0.06363,-0.1606 0.134523,-0.3343 0.1875,-0.5 -1.502543,0.8912 -3.166252,1.5576 -4.9375,1.9063 -1.418212,-1.5113 -3.45104,-2.4688 -5.6875,-2.4688 z m -23.59375,1.4375 c -0.6693867,1.1483 -1.0625,2.4813 -1.0625,3.9063 0,0.084 -0.00264,0.1666 0,0.25 0.026831,-1.3667 0.417533,-2.6436 1.0625,-3.75 3.834907,4.7042 9.569031,7.8007 16.03125,8.125 -0.03066,-0.1316 -0.03873,-0.2723 -0.0625,-0.4063 -6.436963,-0.3408 -12.146062,-3.4358 -15.96875,-8.125 z m 35.25,2.2188 c -1.173878,0.5206 -2.415063,0.8748 -3.71875,1.0937 -0.237964,0.1829 -0.49158,0.3763 -0.75,0.5313 1.422213,-0.1701 2.783737,-0.5382 4.0625,-1.0625 0.138775,-0.1889 0.275946,-0.3676 0.40625,-0.5625 z m -36.375,7.1875 c -7.577e-4,0.033 0,0.061 0,0.094 0,0.1068 -0.00427,0.2067 0,0.3125 1.0482482,0.5823 2.2566369,0.9288 3.53125,0.9688 -0.217344,-0.1453 -0.4238917,-0.3029 -0.625,-0.4688 -1.039438,-0.118 -2.0327098,-0.4213 -2.90625,-0.9065 z m 2.75,7.8437 c 0.047584,0.1485 0.1001115,0.293 0.15625,0.4375 0.4251819,0.072 0.835149,0.094 1.28125,0.094 0.709147,0 1.410131,-0.072 2.0625,-0.25 -0.311928,-0.063 -0.609023,-0.1513 -0.90625,-0.25 -0.37331,0.055 -0.767557,0.125 -1.15625,0.125 -0.501049,-2e-4 -0.9626536,-0.066 -1.4375,-0.1565 z m 6.71875,5.7813 c -2.572508,1.8506 -5.714154,2.9375 -9.125,2.9375 -0.6276403,0 -1.2355033,-0.022 -1.84375,-0.094 0.2565652,0.1645 0.5176424,0.3146 0.78125,0.4688 0.3509183,0.024 0.7055992,0.031 1.0625,0.031 3.643049,0 6.995137,-1.2268 9.65625,-3.3125 -0.180839,0 -0.353613,-0.015 -0.53125,-0.031 z"/></g></svg>