<svg xmlns="http://www.w3.org/2000/svg" xmlns:svg="http://www.w3.org/2000/svg" xmlns:xlink="http://www.w3.org/1999/xlink" id="svg5453" width="48" height="48" version="1.1" viewBox="0 0 48 48"><defs id="defs5455"><linearGradient id="linearGradient4123"><stop id="stop4125" offset="0" stop-color="#fdb984" stop-opacity="1"/><stop id="stop4127" offset="1" stop-color="#fdb984" stop-opacity="0"/></linearGradient><linearGradient id="linearGradient4491"><stop id="stop4493" offset="0" stop-color="#ffd7b9" stop-opacity="1"/><stop id="stop4495" offset="1" stop-color="#fffcf5" stop-opacity="1"/></linearGradient><filter id="filter3985" width="1.144" height="1.311" x="-.072" y="-.155" color-interpolation-filters="sRGB"><feGaussianBlur id="feGaussianBlur3987" stdDeviation="6.78"/></filter><filter id="filter3989" color-interpolation-filters="sRGB"><feGaussianBlur id="feGaussianBlur3991" stdDeviation="6.78"/></filter><filter id="filter3993" width="1.298" height="1.145" x="-.149" y="-.072" color-interpolation-filters="sRGB"><feGaussianBlur id="feGaussianBlur3995" stdDeviation="6.78"/></filter><filter id="filter3997" width="1.163" height="1.221" x="-.082" y="-.11" color-interpolation-filters="sRGB"><feGaussianBlur id="feGaussianBlur3999" stdDeviation="6.78"/></filter><filter id="filter4001" width="1.15" height="1.257" x="-.075" y="-.129" color-interpolation-filters="sRGB"><feGaussianBlur id="feGaussianBlur4003" stdDeviation="6.78"/></filter><filter id="filter4005" width="1.245" height="1.153" x="-.122" y="-.076" color-interpolation-filters="sRGB"><feGaussianBlur id="feGaussianBlur4007" stdDeviation="6.78"/></filter><filter id="filter4009" width="1.224" height="1.16" x="-.112" y="-.08" color-interpolation-filters="sRGB"><feGaussianBlur id="feGaussianBlur4011" stdDeviation="6.78"/></filter><filter id="filter3985-9" width="1.144" height="1.311" x="-.072" y="-.155" color-interpolation-filters="sRGB"><feGaussianBlur id="feGaussianBlur3987-0" stdDeviation="6.78"/></filter><filter id="filter3989-9" color-interpolation-filters="sRGB"><feGaussianBlur id="feGaussianBlur3991-1" stdDeviation="6.78"/></filter><filter id="filter3993-8" width="1.298" height="1.145" x="-.149" y="-.072" color-interpolation-filters="sRGB"><feGaussianBlur id="feGaussianBlur3995-4" stdDeviation="6.78"/></filter><filter id="filter3997-0" width="1.163" height="1.221" x="-.082" y="-.11" color-interpolation-filters="sRGB"><feGaussianBlur id="feGaussianBlur3999-7" stdDeviation="6.78"/></filter><filter id="filter4001-9" width="1.15" height="1.257" x="-.075" y="-.129" color-interpolation-filters="sRGB"><feGaussianBlur id="feGaussianBlur4003-7" stdDeviation="6.78"/></filter><filter id="filter4005-7" width="1.245" height="1.153" x="-.122" y="-.076" color-interpolation-filters="sRGB"><feGaussianBlur id="feGaussianBlur4007-7" stdDeviation="6.78"/></filter><filter id="filter4009-8" width="1.224" height="1.16" x="-.112" y="-.08" color-interpolation-filters="sRGB"><feGaussianBlur id="feGaussianBlur4011-6" stdDeviation="6.78"/></filter><linearGradient id="linearGradient4127"><stop id="stop4129" offset="0" stop-color="#f96a01" stop-opacity="1"/><stop id="stop4131" offset="1" stop-color="#ffb900" stop-opacity="1"/></linearGradient><linearGradient id="linearGradient49" x1="-33.234" x2="-33.234" y1="-1056.398" y2="-1008.522" gradientTransform="translate(441.80544,508.58838)" gradientUnits="userSpaceOnUse" xlink:href="#linearGradient4127"/><linearGradient id="linearGradient4489" x1="416.858" x2="416.858" y1="539.192" y2="508.395" gradientUnits="userSpaceOnUse" xlink:href="#linearGradient4491"/><linearGradient id="linearGradient4129" x1="17.127" x2="17.127" y1="-.062" y2="29.415" gradientUnits="userSpaceOnUse" xlink:href="#linearGradient4123"/></defs><metadata id="metadata5458"/><g id="layer1" transform="translate(-384.57143,-499.798)"><rect id="rect2991-1-1" width="48" height="48" x="384.571" y="-547.798" fill="url(#linearGradient49)" fill-opacity="1" stroke="none" ry="1.945" transform="scale(1,-1)"/><path id="path4503" fill="#000" fill-opacity=".059" d="m 410.43247,539.83116 c 0.73759,-0.5012 1.48935,-1.67647 1.48935,-2.32837 0,-0.22635 0.6891,-0.36567 2.80776,-0.56766 3.16376,-0.30161 6.10578,-1.06028 6.79869,-1.7532 0.51683,-0.51682 0.58087,-0.33403 -0.87936,-2.51032 -1.15167,-1.71642 -2.44481,-6.23563 -2.44481,-8.54398 0,-2.41988 -0.86574,-4.91742 -2.31957,-6.69162 -1.0162,-1.24015 -3.0784,-2.57106 -4.67025,-3.0141 l -1.24911,-0.34765 0.44533,-0.47402 c 0.62052,-0.66052 0.7718,-1.82849 0.34399,-2.65578 -0.48874,-0.94512 -1.16247,-1.34646 -2.26031,-1.34646 -0.78961,0 -1.07154,0.12324 -1.68484,0.73654 -0.94497,0.94497 -1.02051,2.14219 -0.19693,3.12096 l 0.53961,0.64129 -0.99942,0.25166 c -4.16394,1.04849 -7.2286,5.06327 -7.2286,9.46963 0,1.36 -0.76932,5.00851 -1.42136,6.74083 -0.29774,0.79102 -0.93469,1.95919 -1.41543,2.59594 -0.48075,0.63675 -0.84271,1.32068 -0.80435,1.51985 0.20164,1.04705 2.71688,1.83872 7.20872,2.26893 l 2.67857,0.25655 0.12953,0.64766 c 0.44388,2.21941 3.21154,3.28884 5.13279,1.98332 z m -2.73494,-1.1912 c -0.78527,-0.19049 -1.97956,-0.79449 -2.16535,-1.09511 -0.0882,-0.14266 0.95678,-0.21817 3.01908,-0.21817 1.73466,0 3.15393,0.0446 3.15393,0.0992 0,0.0546 -0.41431,0.33611 -0.92068,0.62568 -1.05924,0.60574 -2.15477,0.81456 -3.08698,0.58842 z m 0.0758,-25.62085 c -0.6068,-0.47583 -0.66712,-1.13319 -0.16281,-1.77431 0.58455,-0.74313 1.3885,-0.68679 2.00336,0.1404 l 0.44283,0.59573 -0.44283,0.59573 c -0.49729,0.66901 -1.30424,0.86299 -1.84055,0.44245 z"/><path id="path4501" fill="#000" fill-opacity=".118" d="m 410.43247,539.43116 c 0.73759,-0.5012 1.48935,-1.67647 1.48935,-2.32837 0,-0.22635 0.6891,-0.36567 2.80776,-0.56766 3.16376,-0.30161 6.10578,-1.06028 6.79869,-1.7532 0.51683,-0.51682 0.58087,-0.33403 -0.87936,-2.51032 -1.15167,-1.71642 -2.44481,-6.23563 -2.44481,-8.54398 0,-2.41988 -0.86574,-4.91742 -2.31957,-6.69162 -1.0162,-1.24015 -3.0784,-2.57106 -4.67025,-3.0141 l -1.24911,-0.34765 0.44533,-0.47402 c 0.62052,-0.66052 0.7718,-1.82849 0.34399,-2.65578 -0.48874,-0.94512 -1.16247,-1.34646 -2.26031,-1.34646 -0.78961,0 -1.07154,0.12324 -1.68484,0.73654 -0.94497,0.94497 -1.02051,2.14219 -0.19693,3.12096 l 0.53961,0.64129 -0.99942,0.25166 c -4.16394,1.04849 -7.2286,5.06327 -7.2286,9.46963 0,1.36 -0.76932,5.00851 -1.42136,6.74083 -0.29774,0.79102 -0.93469,1.95919 -1.41543,2.59594 -0.48075,0.63675 -0.84271,1.32068 -0.80435,1.51985 0.20164,1.04705 2.71688,1.83872 7.20872,2.26893 l 2.67857,0.25655 0.12953,0.64766 c 0.44388,2.21941 3.21154,3.28884 5.13279,1.98332 z m -2.73494,-1.1912 c -0.78527,-0.19049 -1.97956,-0.79449 -2.16535,-1.09511 -0.0882,-0.14266 0.95678,-0.21817 3.01908,-0.21817 1.73466,0 3.15393,0.0446 3.15393,0.0992 0,0.0546 -0.41431,0.33611 -0.92068,0.62568 -1.05924,0.60574 -2.15477,0.81456 -3.08698,0.58842 z m 0.0758,-25.62085 c -0.6068,-0.47583 -0.66712,-1.13319 -0.16281,-1.77431 0.58455,-0.74313 1.3885,-0.68679 2.00336,0.1404 l 0.44283,0.59573 -0.44283,0.59573 c -0.49729,0.66901 -1.30424,0.86299 -1.84055,0.44245 z"/><path id="path4497" fill="#000" fill-opacity=".235" d="m 410.43247,539.03116 c 0.73759,-0.5012 1.48935,-1.67647 1.48935,-2.32837 0,-0.22635 0.6891,-0.36567 2.80776,-0.56766 3.16376,-0.30161 6.10578,-1.06028 6.79869,-1.7532 0.51683,-0.51682 0.58087,-0.33403 -0.87936,-2.51032 -1.15167,-1.71642 -2.44481,-6.23563 -2.44481,-8.54398 0,-2.41988 -0.86574,-4.91742 -2.31957,-6.69162 -1.0162,-1.24015 -3.0784,-2.57106 -4.67025,-3.0141 l -1.24911,-0.34765 0.44533,-0.47402 c 0.62052,-0.66052 0.7718,-1.82849 0.34399,-2.65578 -0.48874,-0.94512 -1.16247,-1.34646 -2.26031,-1.34646 -0.78961,0 -1.07154,0.12324 -1.68484,0.73654 -0.94497,0.94497 -1.02051,2.14219 -0.19693,3.12096 l 0.53961,0.64129 -0.99942,0.25166 c -4.16394,1.04849 -7.2286,5.06327 -7.2286,9.46963 0,1.36 -0.76932,5.00851 -1.42136,6.74083 -0.29774,0.79102 -0.93469,1.95919 -1.41543,2.59594 -0.48075,0.63675 -0.84271,1.32068 -0.80435,1.51985 0.20164,1.04705 2.71688,1.83872 7.20872,2.26893 l 2.67857,0.25655 0.12953,0.64766 c 0.44388,2.21941 3.21154,3.28884 5.13279,1.98332 z m -2.73494,-1.1912 c -0.78527,-0.19049 -1.97956,-0.79449 -2.16535,-1.09511 -0.0882,-0.14266 0.95678,-0.21817 3.01908,-0.21817 1.73466,0 3.15393,0.0446 3.15393,0.0992 0,0.0546 -0.41431,0.33611 -0.92068,0.62568 -1.05924,0.60574 -2.15477,0.81456 -3.08698,0.58842 z m 0.0758,-25.62085 c -0.6068,-0.47583 -0.66712,-1.13319 -0.16281,-1.77431 0.58455,-0.74313 1.3885,-0.68679 2.00336,0.1404 l 0.44283,0.59573 -0.44283,0.59573 c -0.49729,0.66901 -1.30424,0.86299 -1.84055,0.44245 z"/><path id="rect846-5" fill="#000" fill-opacity="1" stroke="none" d="m 384.57142,544.798 0,1.0625 c 0,1.0773 0.86022,1.9375 1.9375,1.9375 l 44.125,0 c 1.07728,0 1.9375,-0.8602 1.9375,-1.9375 l 0,-1.0625 c 0,1.0773 -0.86022,1.9375 -1.9375,1.9375 l -44.125,0 c -1.07728,0 -1.9375,-0.8602 -1.9375,-1.9375 z"/><path id="path7515-6" fill="#fff" fill-opacity=".537" stroke="none" d="m 387.10267,500.4543 c -0.91709,0 -1.67115,0.6395 -1.84375,1.5 0.33561,-0.2799 0.77451,-0.4375 1.25,-0.4375 l 44.125,0 c 0.47549,0 0.91439,0.1576 1.25,0.4375 -0.1726,-0.8605 -0.92666,-1.5 -1.84375,-1.5 l -42.9375,0 z"/><path id="rect4280-7" fill="#000" fill-opacity=".392" stroke="none" d="m 386.50892,499.798 c -1.07728,0 -1.9375,0.8602 -1.9375,1.9375 l 0,43.0625 c 0,0.7934 0.48002,1.449 1.15625,1.75 -0.30934,-0.3333 -0.5,-0.7824 -0.5,-1.2812 l 0,-42.9375 c 0,-1.0482 0.8269,-1.875 1.875,-1.875 l 42.9375,0 c 1.0481,0 1.875,0.8268 1.875,1.875 l 0,42.9375 c 0,0.4988 -0.19066,0.9479 -0.5,1.2812 0.67623,-0.301 1.15625,-0.9566 1.15625,-1.75 l 0,-43.0625 c 0,-1.0773 -0.86022,-1.9375 -1.9375,-1.9375 l -44.125,0 z"/><path id="path3095" fill="#dbdbdb" fill-opacity="1" fill-rule="nonzero" stroke="none" stroke-width="25" marker-mid="none" d="m 324.38759,135.62452 c -45.38059,3.2742 -125.14974,80.45343 -113.93317,80.06244 92.77726,-3.23392 150.72813,2.10512 223.11793,24.5811 10.71863,3.32799 -11.56647,-97.10992 -109.18476,-104.64354 z" display="none" enable-background="new" filter="url(#filter3985)" transform="matrix(0.08878086,0,0,0.08881664,108.23352,508.97316)"/><path id="path3097" fill="#dbdbdb" fill-opacity="1" fill-rule="nonzero" stroke="#000" stroke-dasharray="none" stroke-dashoffset="1" stroke-linecap="butt" stroke-linejoin="round" stroke-miterlimit="4" stroke-opacity="1" stroke-width="0" marker-mid="none" d="M 186.37822,72.150309 C 160.57833,109.62675 157.33905,256.29261 163.99898,247.2588 218.88951,172.80293 350.45207,80.852043 428.9148,43.825512 525.90264,-1.943011 243.81268,3.6410539 186.37822,72.150309 Z" display="none" enable-background="new" filter="url(#filter3989)" transform="matrix(0.08878086,0,0,0.08881664,108.23352,508.97316)"/><path id="path3099" fill="#dbdbdb" fill-opacity="1" fill-rule="nonzero" stroke="none" stroke-width="25" marker-mid="none" d="M 69.5521,231.67976 C 84.41923,274.68075 179.56014,331.84683 176.28962,321.11052 149.23774,232.30583 139.45061,174.93843 142.49683,99.2009 142.94789,87.986573 51.65499,135.42084 69.5521,231.67976 Z" display="none" enable-background="new" filter="url(#filter3993)" transform="matrix(0.08878086,0,0,0.08881664,108.23352,508.97316)"/><path id="path3101" fill="#dbdbdb" fill-opacity="1" fill-rule="nonzero" stroke="none" stroke-width="25" marker-mid="none" d="m 81.97729,372.8505 c 42.13653,17.1648 147.83895,-16.69886 137.60948,-21.31646 -84.61255,-38.1942 -134.204,-68.649 -189.1504,-120.86343 -8.1358,-7.73129 -32.64264,92.18775 51.54092,142.17989 z" display="none" enable-background="new" filter="url(#filter3997)" transform="matrix(0.08878086,0,0,0.08881664,108.23352,508.97316)"/><path id="path3103" fill="#dbdbdb" fill-opacity="1" fill-rule="nonzero" stroke="none" stroke-width="25" marker-mid="none" d="m 203.88504,453.62703 c 40.28664,-21.14484 82.54559,-123.77977 72.42084,-118.93689 -83.74641,40.05772 -138.99861,58.33341 -214.33707,66.67436 -11.15521,1.23503 49.42757,84.38627 141.91623,52.26253 z" display="none" enable-background="new" filter="url(#filter4001)" transform="matrix(0.08878086,0,0,0.08881664,108.23352,508.97316)"/><path id="path3105" fill="#dbdbdb" fill-opacity="1" fill-rule="nonzero" stroke="none" stroke-width="25" marker-mid="none" d="m 345.96158,410.03296 c 9.84126,-44.42146 -41.30053,-142.93171 -44.13379,-132.07183 -23.43513,89.82691 -45.12493,143.83025 -87.36533,206.76832 -6.25446,9.31914 96.3617,16.68976 131.49912,-74.69649 z" display="none" enable-background="new" filter="url(#filter4005)" transform="matrix(0.08878086,0,0,0.08881664,108.23352,508.97316)"/><path id="path3107" fill="#dbdbdb" fill-opacity="1" fill-rule="nonzero" stroke="none" stroke-width="25" marker-mid="none" d="M 401.89383,270.24178 C 374.5208,233.89852 266.4087,208.76833 272.82303,217.97814 c 53.05584,76.17847 80.01415,127.7542 100.41172,200.75689 3.02024,10.80938 75.29683,-62.40604 28.65908,-148.49325 z" display="none" enable-background="new" filter="url(#filter4009)" transform="matrix(0.08878086,0,0,0.08881664,108.23352,508.97316)"/><path id="path3095-7" fill="#dbdbdb" fill-opacity="1" fill-rule="nonzero" stroke="none" stroke-width="25" marker-mid="none" d="m 324.38759,135.62452 c -45.38059,3.2742 -125.14974,80.45343 -113.93317,80.06244 92.77726,-3.23392 150.72813,2.10512 223.11793,24.5811 10.71863,3.32799 -11.56647,-97.10992 -109.18476,-104.64354 z" display="none" enable-background="new" filter="url(#filter3985-9)" transform="matrix(0.08878086,0,0,0.08881664,-130.89148,486.22318)"/><path id="path3097-4" fill="#dbdbdb" fill-opacity="1" fill-rule="nonzero" stroke="#000" stroke-dasharray="none" stroke-dashoffset="1" stroke-linecap="butt" stroke-linejoin="round" stroke-miterlimit="4" stroke-opacity="1" stroke-width="0" marker-mid="none" d="M 186.37822,72.150309 C 160.57833,109.62675 157.33905,256.29261 163.99898,247.2588 218.88951,172.80293 350.45207,80.852043 428.9148,43.825512 525.90264,-1.943011 243.81268,3.6410539 186.37822,72.150309 Z" display="none" enable-background="new" filter="url(#filter3989-9)" transform="matrix(0.08878086,0,0,0.08881664,-130.89148,486.22318)"/><path id="path3099-9" fill="#dbdbdb" fill-opacity="1" fill-rule="nonzero" stroke="none" stroke-width="25" marker-mid="none" d="M 69.5521,231.67976 C 84.41923,274.68075 179.56014,331.84683 176.28962,321.11052 149.23774,232.30583 139.45061,174.93843 142.49683,99.2009 142.94789,87.986573 51.65499,135.42084 69.5521,231.67976 Z" display="none" enable-background="new" filter="url(#filter3993-8)" transform="matrix(0.08878086,0,0,0.08881664,-130.89148,486.22318)"/><path id="path3101-4" fill="#dbdbdb" fill-opacity="1" fill-rule="nonzero" stroke="none" stroke-width="25" marker-mid="none" d="m 81.97729,372.8505 c 42.13653,17.1648 147.83895,-16.69886 137.60948,-21.31646 -84.61255,-38.1942 -134.204,-68.649 -189.1504,-120.86343 -8.1358,-7.73129 -32.64264,92.18775 51.54092,142.17989 z" display="none" enable-background="new" filter="url(#filter3997-0)" transform="matrix(0.08878086,0,0,0.08881664,-130.89148,486.22318)"/><path id="path3103-3" fill="#dbdbdb" fill-opacity="1" fill-rule="nonzero" stroke="none" stroke-width="25" marker-mid="none" d="m 203.88504,453.62703 c 40.28664,-21.14484 82.54559,-123.77977 72.42084,-118.93689 -83.74641,40.05772 -138.99861,58.33341 -214.33707,66.67436 -11.15521,1.23503 49.42757,84.38627 141.91623,52.26253 z" display="none" enable-background="new" filter="url(#filter4001-9)" transform="matrix(0.08878086,0,0,0.08881664,-130.89148,486.22318)"/><path id="path3105-1" fill="#dbdbdb" fill-opacity="1" fill-rule="nonzero" stroke="none" stroke-width="25" marker-mid="none" d="m 345.96158,410.03296 c 9.84126,-44.42146 -41.30053,-142.93171 -44.13379,-132.07183 -23.43513,89.82691 -45.12493,143.83025 -87.36533,206.76832 -6.25446,9.31914 96.3617,16.68976 131.49912,-74.69649 z" display="none" enable-background="new" filter="url(#filter4005-7)" transform="matrix(0.08878086,0,0,0.08881664,-130.89148,486.22318)"/><path id="path3107-0" fill="#dbdbdb" fill-opacity="1" fill-rule="nonzero" stroke="none" stroke-width="25" marker-mid="none" d="M 401.89383,270.24178 C 374.5208,233.89852 266.4087,208.76833 272.82303,217.97814 c 53.05584,76.17847 80.01415,127.7542 100.41172,200.75689 3.02024,10.80938 75.29683,-62.40604 28.65908,-148.49325 z" display="none" enable-background="new" filter="url(#filter4009-8)" transform="matrix(0.08878086,0,0,0.08881664,-130.89148,486.22318)"/><path id="path4435" fill="url(#linearGradient4489)" fill-opacity="1" d="m 410.43247,538.63116 c 0.73759,-0.5012 1.48935,-1.67647 1.48935,-2.32837 0,-0.22635 0.6891,-0.36567 2.80776,-0.56766 3.16376,-0.30161 6.10578,-1.06028 6.79869,-1.7532 0.51683,-0.51682 0.58087,-0.33403 -0.87936,-2.51032 -1.15167,-1.71642 -2.44481,-6.23563 -2.44481,-8.54398 0,-2.41988 -0.86574,-4.91742 -2.31957,-6.69162 -1.0162,-1.24015 -3.0784,-2.57106 -4.67025,-3.0141 l -1.24911,-0.34765 0.44533,-0.47402 c 0.62052,-0.66052 0.7718,-1.82849 0.34399,-2.65578 -0.48874,-0.94512 -1.16247,-1.34646 -2.26031,-1.34646 -0.78961,0 -1.07154,0.12324 -1.68484,0.73654 -0.94497,0.94497 -1.02051,2.14219 -0.19693,3.12096 l 0.53961,0.64129 -0.99942,0.25166 c -4.16394,1.04849 -7.2286,5.06327 -7.2286,9.46963 0,1.36 -0.76932,5.00851 -1.42136,6.74083 -0.29774,0.79102 -0.93469,1.95919 -1.41543,2.59594 -0.48075,0.63675 -0.84271,1.32068 -0.80435,1.51985 0.20164,1.04705 2.71688,1.83872 7.20872,2.26893 l 2.67857,0.25655 0.12953,0.64766 c 0.44388,2.21941 3.21154,3.28884 5.13279,1.98332 z m -2.73494,-1.1912 c -0.78527,-0.19049 -1.97956,-0.79449 -2.16535,-1.09511 -0.0882,-0.14266 0.95678,-0.21817 3.01908,-0.21817 1.73466,0 3.15393,0.0446 3.15393,0.0992 0,0.0546 -0.41431,0.33611 -0.92068,0.62568 -1.05924,0.60574 -2.15477,0.81456 -3.08698,0.58842 z m 0.0758,-25.62085 c -0.6068,-0.47583 -0.66712,-1.13319 -0.16281,-1.77431 0.58455,-0.74313 1.3885,-0.68679 2.00336,0.1404 l 0.44283,0.59573 -0.44283,0.59573 c -0.49729,0.66901 -1.30424,0.86299 -1.84055,0.44245 z"/><path id="path4505" fill="#fa7201" fill-opacity=".314" d="M 24.029297 8.9277344 C 23.678383 8.9031419 23.331337 9.0757006 23.039062 9.4472656 C 22.701537 9.8763562 22.622284 10.310964 22.785156 10.695312 C 22.84159 10.546897 22.921742 10.395241 23.039062 10.246094 C 23.623612 9.5029637 24.428109 9.5595288 25.042969 10.386719 L 25.1875 10.582031 L 25.484375 10.183594 L 25.042969 9.5878906 C 24.735539 9.1742956 24.380211 8.9523269 24.029297 8.9277344 z M 26.392578 10.597656 C 26.322611 11.053288 26.136833 11.486601 25.839844 11.802734 L 25.394531 12.275391 L 25.96875 12.435547 C 26.341088 11.936667 26.496529 11.238724 26.392578 10.597656 z M 21.521484 10.609375 C 21.395071 11.230426 21.557501 11.8695 22.027344 12.4375 L 22.580078 12.298828 L 22.041016 11.658203 C 21.763117 11.327939 21.595781 10.9713 21.521484 10.609375 z M 10.861328 33.205078 C 10.759809 33.416189 10.695044 33.593263 10.710938 33.675781 C 10.912577 34.722831 13.428082 35.515103 17.919922 35.945312 L 20.599609 36.203125 L 20.728516 36.849609 C 21.172396 39.069019 23.940078 40.139504 25.861328 38.833984 C 26.598918 38.332784 27.349609 37.155806 27.349609 36.503906 C 27.349609 36.277556 28.039543 36.13949 30.158203 35.9375 C 33.321963 35.63589 36.264121 34.876514 36.957031 34.183594 C 37.277498 33.863133 37.371039 33.755824 37.087891 33.244141 C 37.042041 33.289747 37.016507 33.325291 36.957031 33.384766 C 36.264121 34.077686 33.321963 34.835109 30.158203 35.136719 C 28.039543 35.338709 27.349609 35.478728 27.349609 35.705078 C 27.349609 36.356978 26.598918 37.532003 25.861328 38.033203 C 23.940078 39.338723 21.172396 38.270191 20.728516 36.050781 L 20.599609 35.402344 L 17.919922 35.146484 C 13.910811 34.762508 11.481659 34.089519 10.861328 33.205078 z M 23.980469 35.529297 C 21.918169 35.529297 20.872738 35.603434 20.960938 35.746094 C 21.060531 35.907243 21.453226 36.15383 21.914062 36.378906 C 22.418854 36.349603 23.060604 36.328125 23.980469 36.328125 C 24.767156 36.328125 25.44601 36.34035 26 36.355469 C 26.070911 36.318611 26.142243 36.294307 26.212891 36.253906 C 26.719261 35.964336 27.132812 35.681553 27.132812 35.626953 C 27.132812 35.572353 25.715129 35.529297 23.980469 35.529297 z" transform="translate(384.57143,499.798)"/><path id="path4510" fill="#fff" fill-opacity=".235" d="M 23.921875 8.5996094 C 23.132265 8.5996094 22.851581 8.7226375 22.238281 9.3359375 C 21.67108 9.9031386 21.422588 10.561812 21.488281 11.208984 C 21.540544 10.695096 21.788014 10.186595 22.238281 9.7363281 C 22.851581 9.1230281 23.132265 9 23.921875 9 C 25.019715 9 25.694854 9.4005831 26.183594 10.345703 C 26.31874 10.607046 26.38908 10.904431 26.412109 11.207031 C 26.44697 10.769298 26.378316 10.323816 26.183594 9.9472656 C 25.694854 9.0021456 25.019715 8.5996094 23.921875 8.5996094 z M 25.335938 11.183594 L 25.042969 11.578125 C 24.545679 12.247135 23.737482 12.442024 23.201172 12.021484 C 22.932721 11.810975 22.777573 11.563272 22.724609 11.298828 C 22.643943 11.714039 22.800795 12.107914 23.201172 12.421875 C 23.737482 12.842415 24.545679 12.647526 25.042969 11.978516 L 25.484375 11.382812 L 25.335938 11.183594 z M 25.691406 13.158203 L 25.394531 13.476562 L 26.642578 13.824219 C 28.234428 14.267259 30.2963 15.597741 31.3125 16.837891 C 32.76633 18.612091 33.632812 21.109417 33.632812 23.529297 C 33.632812 25.837647 34.926455 30.357799 36.078125 32.074219 C 36.775965 33.114262 37.108019 33.598208 37.226562 33.894531 C 37.411531 33.62206 37.192617 33.334839 36.078125 31.673828 C 34.926455 29.957408 33.632812 25.437256 33.632812 23.128906 C 33.632812 20.709026 32.76633 18.2117 31.3125 16.4375 C 30.2963 15.19735 28.234428 13.866868 26.642578 13.423828 L 25.691406 13.158203 z M 22.302734 13.169922 L 21.582031 13.349609 C 17.418091 14.398099 14.353516 18.413952 14.353516 22.820312 C 14.353516 24.180313 13.583681 27.828227 12.931641 29.560547 C 12.633901 30.351567 11.996365 31.5195 11.515625 32.15625 C 11.034875 32.793 10.672577 33.476611 10.710938 33.675781 C 10.720867 33.727341 10.74061 33.777817 10.761719 33.828125 C 10.873959 33.520622 11.160837 33.026555 11.515625 32.556641 C 11.996365 31.919891 12.633901 30.751958 12.931641 29.960938 C 13.583681 28.228618 14.353516 24.580703 14.353516 23.220703 C 14.353516 18.814343 17.418091 14.79849 21.582031 13.75 L 22.580078 13.498047 L 22.302734 13.169922 z M 26.638672 36.791016 C 26.503991 36.876369 26.37857 36.95799 26.212891 37.052734 C 25.153651 37.658474 24.059163 37.868718 23.126953 37.642578 C 22.545562 37.501545 21.743584 37.133503 21.289062 36.830078 C 21.072474 36.862343 20.931636 36.899871 20.960938 36.947266 C 21.146727 37.247886 22.341683 37.850526 23.126953 38.041016 C 24.059163 38.267156 25.153651 38.058865 26.212891 37.453125 C 26.719261 37.163555 27.132812 36.882725 27.132812 36.828125 C 27.132812 36.813554 26.819839 36.803504 26.638672 36.791016 z" transform="translate(384.57143,499.798)"/><path id="path4515" fill="url(#linearGradient4129)" fill-opacity="1" d="M 23.275391 15.949219 L 22.677734 16.097656 C 18.933564 17.040446 16.177734 20.651131 16.177734 24.613281 C 16.177734 25.836181 15.486701 29.118101 14.900391 30.675781 C 14.632671 31.387061 14.059233 32.437206 13.626953 33.009766 C 13.610853 33.031066 13.601737 33.048913 13.585938 33.070312 C 13.708517 33.175423 13.839667 33.258633 13.970703 33.339844 C 15.632234 32.588182 16.886921 30.559265 17.125 26.75 C 17.4375 21.75 19.3125 19.3125 21.4375 17.875 C 22.418329 17.211498 22.96236 16.514382 23.275391 15.949219 z" transform="translate(384.57143,499.798)"/></g></svg>