<svg xmlns="http://www.w3.org/2000/svg" xmlns:svg="http://www.w3.org/2000/svg" xmlns:xlink="http://www.w3.org/1999/xlink" id="svg2" width="48" height="48" version="1.1"><defs id="defs4"><linearGradient id="linearGradient4172"><stop id="stop4174" offset="0" stop-color="#8c8c8b" stop-opacity="1"/><stop id="stop4176" offset="1" stop-color="#bcbcbc" stop-opacity="1"/></linearGradient><linearGradient id="linearGradient4111"><stop id="stop4113" offset="0" stop-color="#202428" stop-opacity="1"/><stop id="stop4115" offset="1" stop-color="#384046" stop-opacity="1"/></linearGradient><linearGradient id="linearGradient4064"><stop id="stop4066" offset="0" stop-color="#2b9884" stop-opacity="1"/><stop id="stop4068" offset="1" stop-color="#3ec8af" stop-opacity="1"/></linearGradient><linearGradient id="linearGradient845"><stop id="stop847" offset="0" stop-color="#353c42" stop-opacity="1"/><stop id="stop849" offset="1" stop-color="#505b64" stop-opacity="1"/></linearGradient><linearGradient id="linearGradient851" x1="23.5" x2="23.5" y1="-1052.425" y2="-1004.612" gradientUnits="userSpaceOnUse" xlink:href="#linearGradient845"/><linearGradient id="linearGradient4070" x1="22.668" x2="22.668" y1="1043.892" y2="1012.835" gradientUnits="userSpaceOnUse" xlink:href="#linearGradient4064"/><linearGradient id="linearGradient4078" x1="36.577" x2="36.577" y1="1043.689" y2="1013.116" gradientUnits="userSpaceOnUse" xlink:href="#linearGradient4111"/><linearGradient id="linearGradient4178" x1="25.593" x2="25.593" y1="32.069" y2="16.034" gradientTransform="matrix(1.1666667,0,0,1.1666667,-4,998.02887)" gradientUnits="userSpaceOnUse" xlink:href="#linearGradient4172"/></defs><metadata id="metadata7"/><g id="layer1" transform="translate(0,-1004.3622)"><rect id="rect2991-1" width="48" height="48" x="0" y="-1052.362" fill="url(#linearGradient851)" fill-opacity="1" stroke="none" ry="1.945" transform="scale(1,-1)"/><path id="path4188" fill="#000" fill-opacity=".118" d="m 21.666667,1022.5622 0,5.9997 -2.333334,0 4.673502,5.3342 4.659832,-5.3342 -2.333334,0 0,-5.9997 z m 2.340168,11.3339 -7.006835,0 0,2.6661 14,0 0,-2.6661 z"/><path id="path4186" fill="#000" fill-opacity=".118" d="m 21.666667,1022.1622 0,5.9997 -2.333334,0 4.673502,5.3342 4.659832,-5.3342 -2.333334,0 0,-5.9997 z m 2.340168,11.3339 -7.006835,0 0,2.6661 14,0 0,-2.6661 z"/><path id="path4062" fill="#000" fill-opacity=".059" stroke="none" d="m 23.999609,1014.1626 c -8.504979,0 -15.3999996,6.895 -15.3999996,15.4 0,8.505 6.8950206,15.4 15.3999996,15.4 8.504978,0 15.4,-6.895 15.4,-15.4 0,-8.505 -6.895022,-15.4 -15.4,-15.4 z m 0,2.8886 c 6.910295,0 12.511402,5.6012 12.511402,12.5114 0,6.9103 -5.601107,12.5114 -12.511402,12.5114 -6.910295,0 -12.511401,-5.6011 -12.511401,-12.5114 0,-6.9102 5.601106,-12.5114 12.511401,-12.5114 z"/><path id="path4060" fill="#000" fill-opacity=".118" stroke="none" d="m 23.999609,1013.7626 c -8.504979,0 -15.3999996,6.895 -15.3999996,15.4 0,8.505 6.8950206,15.4 15.3999996,15.4 8.504978,0 15.4,-6.895 15.4,-15.4 0,-8.505 -6.895022,-15.4 -15.4,-15.4 z m 0,2.8886 c 6.910295,0 12.511402,5.6012 12.511402,12.5114 0,6.9103 -5.601107,12.5114 -12.511402,12.5114 -6.910295,0 -12.511401,-5.6011 -12.511401,-12.5114 0,-6.9102 5.601106,-12.5114 12.511401,-12.5114 z"/><path id="path4055" fill="#000" fill-opacity=".235" stroke="none" d="m 23.999609,1013.3626 c -8.504979,0 -15.3999996,6.895 -15.3999996,15.4 0,8.505 6.8950206,15.4 15.3999996,15.4 8.504978,0 15.4,-6.895 15.4,-15.4 0,-8.505 -6.895022,-15.4 -15.4,-15.4 z m 0,2.8886 c 6.910295,0 12.511402,5.6012 12.511402,12.5114 0,6.9103 -5.601107,12.5114 -12.511402,12.5114 -6.910295,0 -12.511401,-5.6011 -12.511401,-12.5114 0,-6.9102 5.601106,-12.5114 12.511401,-12.5114 z"/><path id="rect846" fill="#000" fill-opacity="1" stroke="none" d="m -2e-7,1049.3622 0,1.0625 c 0,1.0773 0.8602234,1.9375 1.9375004,1.9375 l 44.1249998,0 c 1.077277,0 1.9375,-0.8602 1.9375,-1.9375 l 0,-1.0625 c 0,1.0773 -0.860223,1.9375 -1.9375,1.9375 l -44.1249998,0 C 0.8602232,1051.2997 -2e-7,1050.4395 -2e-7,1049.3622 Z"/><path id="path7515" fill="#fff" fill-opacity=".537" stroke="none" d="m 2.5312502,1005.0185 c -0.917089,0 -1.671147,0.6395 -1.84375,1.5 0.335612,-0.2799 0.774512,-0.4375 1.25,-0.4375 l 44.1249998,0 c 0.475488,0 0.914388,0.1576 1.25,0.4375 -0.172603,-0.8605 -0.926662,-1.5 -1.84375,-1.5 L 2.5312502,1005.0185 Z"/><path id="rect4280" fill="#000" fill-opacity=".392" stroke="none" d="m 1.9375002,1004.3622 c -1.077277,0 -1.9375004,0.8602 -1.9375004,1.9375 l 0,43.0625 c 0,0.7934 0.4800236,1.449 1.1562504,1.75 -0.309342,-0.3333 -0.5,-0.7824 -0.5,-1.2812 l 0,-42.9375 c 0,-1.0482 0.826899,-1.875 1.875,-1.875 l 42.9374998,0 c 1.048101,0 1.875,0.8268 1.875,1.875 l 0,42.9375 c 0,0.4988 -0.190658,0.9479 -0.5,1.2812 0.676226,-0.301 1.15625,-0.9566 1.15625,-1.75 l 0,-43.0625 c 0,-1.0773 -0.860223,-1.9375 -1.9375,-1.9375 L 1.9375002,1004.3622 Z"/><path id="path863" fill="url(#linearGradient4078)" fill-opacity="1" stroke="none" d="m 24.000001,1043.7622 c 8.505194,0 15.400016,-6.8948 15.400016,-15.4 0,-8.5052 -6.894822,-15.4 -15.400016,-15.4 l 0,2.8875 c 6.91047,0 12.512513,5.6021 12.512513,12.5125 0,6.9105 -5.602043,12.5125 -12.512513,12.5125 l 0,2.8875 z"/><path id="path858" fill="url(#linearGradient4070)" fill-opacity="1" stroke="none" d="m 8.5999834,1028.3622 c 0,8.5052 6.8948226,15.4 15.4000176,15.4 l 0,-2.8875 c -6.910471,0 -12.512514,-5.602 -12.512514,-12.5125 0,-6.9104 5.602043,-12.5125 12.512514,-12.5125 l 0,-2.8875 c -8.505195,0 -15.4000176,6.8948 -15.4000176,15.4 z"/><path id="path4117" fill="#000" fill-opacity=".314" stroke="none" d="M 24 10.689453 C 17.089705 10.689453 11.488281 16.289019 11.488281 23.199219 C 11.488281 23.334381 11.503559 23.465481 11.507812 23.599609 C 11.721027 16.876385 17.224867 11.488281 24 11.488281 C 30.775133 11.488281 36.278973 16.876385 36.492188 23.599609 C 36.496441 23.465481 36.511719 23.334381 36.511719 23.199219 C 36.511719 16.289019 30.910295 10.689453 24 10.689453 z M 8.6191406 23.599609 C 8.6156779 23.733959 8.5996094 23.864815 8.5996094 24 C 8.5996094 32.505 15.495021 39.400391 24 39.400391 C 32.504978 39.400391 39.400391 32.505 39.400391 24 C 39.400391 23.864815 39.384322 23.733959 39.380859 23.599609 C 39.166728 31.917975 32.369961 38.599609 24 38.599609 C 15.630038 38.599609 8.8332724 31.917975 8.6191406 23.599609 z" transform="translate(0,1004.3622)"/><path id="path4122" fill="#fff" fill-opacity=".235" stroke="none" d="M 24 8.5996094 C 15.495021 8.5996094 8.5996094 15.495 8.5996094 24 C 8.5996094 24.067263 8.6085151 24.132159 8.609375 24.199219 C 8.7182888 15.787984 15.562942 9 24 9 C 32.437057 9 39.281711 15.787984 39.390625 24.199219 C 39.391485 24.132159 39.400391 24.067263 39.400391 24 C 39.400391 15.495 32.504978 8.5996094 24 8.5996094 z M 11.498047 24.199219 C 11.496969 24.266871 11.488281 24.332482 11.488281 24.400391 C 11.488281 31.310691 17.089705 36.912109 24 36.912109 C 30.910295 36.912109 36.511719 31.310691 36.511719 24.400391 C 36.511719 24.332482 36.503031 24.266871 36.501953 24.199219 C 36.394395 31.016629 30.843043 36.511719 24 36.511719 C 17.156957 36.511719 11.605605 31.016629 11.498047 24.199219 z" transform="translate(0,1004.3622)"/><path id="path4180" fill="#000" fill-opacity=".235" d="m 21.666667,1021.7622 0,5.9997 -2.333334,0 4.673502,5.3342 4.659832,-5.3342 -2.333334,0 0,-5.9997 z m 2.340168,11.3339 -7.006835,0 0,2.6661 14,0 0,-2.6661 z"/><path id="rect4133" fill="url(#linearGradient4178)" fill-opacity="1" d="m 21.666667,1021.3622 0,5.9997 -2.333334,0 4.673502,5.3342 4.659832,-5.3342 -2.333334,0 0,-5.9997 z m 2.340168,11.3339 -7.006835,0 0,2.6661 14,0 0,-2.6661 z"/></g></svg>