<svg xmlns="http://www.w3.org/2000/svg" xmlns:svg="http://www.w3.org/2000/svg" xmlns:xlink="http://www.w3.org/1999/xlink" id="svg5453" width="48" height="48" version="1.1" viewBox="0 0 48 48"><defs id="defs5455"><linearGradient id="linearGradient4764"><stop id="stop4766" offset="0" stop-color="#bcdffc" stop-opacity=".996"/><stop id="stop4768" offset="1" stop-color="#f6fafe" stop-opacity="1"/></linearGradient><linearGradient id="linearGradient4685" x1="419.616" x2="419.616" y1="-547.838" y2="-499.811" gradientUnits="userSpaceOnUse" xlink:href="#linearGradient4172"/><linearGradient id="linearGradient4142"><stop id="stop4144" offset="0" stop-color="#0a79d6" stop-opacity=".998"/><stop id="stop4146" offset="1" stop-color="#2995ed" stop-opacity="1"/></linearGradient><linearGradient id="linearGradient4172"><stop id="stop4174" offset="0" stop-color="#1c8eff" stop-opacity="1"/><stop id="stop4176" offset="1" stop-color="#44d2ff" stop-opacity="1"/></linearGradient><linearGradient id="linearGradient827"><stop id="stop829" offset="0" stop-color="#a5e1ff" stop-opacity="1"/><stop id="stop831" offset="1" stop-color="#f5fcff" stop-opacity="1"/></linearGradient><linearGradient id="linearGradient4933" x1="6.784" x2="6.784" y1="32.033" y2="-.06" gradientTransform="matrix(-0.98057282,0,0,0.9625,37.72802,8.6)" gradientUnits="userSpaceOnUse" xlink:href="#linearGradient827"/></defs><metadata id="metadata5458"/><g id="layer1" transform="translate(-384.57143,-499.798)"><rect id="rect2991-1-7" width="48" height="48" x="384.571" y="-547.798" fill="url(#linearGradient4685)" fill-opacity="1" stroke="none" ry="1.945" transform="scale(1,-1)"/><g id="g4800" fill="#000" fill-opacity=".059" transform="matrix(-0.98057282,0,0,0.9625,422.29945,509.598)"><g id="g4804" fill="#000" fill-opacity=".059"><g id="g4806" fill="#000" fill-opacity=".059"><path id="path4808" fill="#000" fill-opacity=".059" d="M 14,0 C 4.9906887,0 -2.3169934,6.27 -2.3169934,14 c 0,3.832 1.80302781,7.297 4.7121146,9.828 L 2.3450047,32 10.157348,27.566 C 11.396274,27.828 12.670165,28 14,28 23.009311,28 30.316993,21.73 30.316993,14 30.316993,6.27 23.009311,0 14,0 Z"/></g></g></g><g id="g4790" fill="#000" fill-opacity=".118" transform="matrix(-0.98057282,0,0,0.9625,422.29945,509.198)"><g id="g4794" fill="#000" fill-opacity=".118"><g id="g4796" fill="#000" fill-opacity=".118"><path id="path4798" fill="#000" fill-opacity=".118" d="M 14,0 C 4.9906887,0 -2.3169934,6.27 -2.3169934,14 c 0,3.832 1.80302781,7.297 4.7121146,9.828 L 2.3450047,32 10.157348,27.566 C 11.396274,27.828 12.670165,28 14,28 23.009311,28 30.316993,21.73 30.316993,14 30.316993,6.27 23.009311,0 14,0 Z"/></g></g></g><g id="g4770" fill="#000" fill-opacity=".235" transform="matrix(-0.98057282,0,0,0.9625,422.29945,508.798)"><g id="g4774" fill="#000" fill-opacity=".235"><g id="g4776" fill="#000" fill-opacity=".235"><path id="path4778" fill="#000" fill-opacity=".235" d="M 14,0 C 4.9906887,0 -2.3169934,6.27 -2.3169934,14 c 0,3.832 1.80302781,7.297 4.7121146,9.828 L 2.3450047,32 10.157348,27.566 C 11.396274,27.828 12.670165,28 14,28 23.009311,28 30.316993,21.73 30.316993,14 30.316993,6.27 23.009311,0 14,0 Z"/></g></g></g><path id="rect846" fill="#000" fill-opacity="1" stroke="none" d="m 384.57143,544.79799 0,1.0625 c 0,1.0773 0.86022,1.9375 1.9375,1.9375 l 44.125,0 c 1.07728,0 1.9375,-0.8602 1.9375,-1.9375 l 0,-1.0625 c 0,1.0773 -0.86022,1.9375 -1.9375,1.9375 l -44.125,0 c -1.07728,0 -1.9375,-0.8602 -1.9375,-1.9375 z"/><path id="path7515" fill="#fff" fill-opacity=".537" stroke="none" d="m 387.10268,500.45429 c -0.91709,0 -1.67115,0.6395 -1.84375,1.5 0.33561,-0.2799 0.77451,-0.4375 1.25,-0.4375 l 44.125,0 c 0.47549,0 0.91439,0.1576 1.25,0.4375 -0.1726,-0.8605 -0.92666,-1.5 -1.84375,-1.5 l -42.9375,0 z"/><path id="rect4280" fill="#000" fill-opacity=".392" stroke="none" d="m 386.50893,499.79799 c -1.07728,0 -1.9375,0.8602 -1.9375,1.9375 l 0,43.0625 c 0,0.7934 0.48002,1.449 1.15625,1.75 -0.30934,-0.3333 -0.5,-0.7824 -0.5,-1.2812 l 0,-42.9375 c 0,-1.0482 0.8269,-1.875 1.875,-1.875 l 42.9375,0 c 1.0481,0 1.875,0.8268 1.875,1.875 l 0,42.9375 c 0,0.4988 -0.19066,0.9479 -0.5,1.2812 0.67623,-0.301 1.15625,-0.9566 1.15625,-1.75 l 0,-43.0625 c 0,-1.0773 -0.86022,-1.9375 -1.9375,-1.9375 l -44.125,0 z"/><path id="path906" fill="#000"/><path id="path78" fill="url(#linearGradient4933)" fill-opacity="1" d="m 24,8.5996094 c -8.83428,0 -16,6.0344796 -16,13.4746096 0,7.44013 7.16572,13.476562 16,13.476562 1.304,0 2.552718,-0.165799 3.767578,-0.417969 l 7.660156,4.267579 -0.04883,-7.865235 C 38.231476,29.099066 40,25.762519 40,22.074219 40,14.634089 32.83429,8.5996094 24,8.5996094 Z m 0,3.1835936 c 3.299274,1.8e-5 6.578218,1.101154 8.911047,2.99251 2.332828,1.891356 3.690805,4.549633 3.690515,7.224287 -0.0045,2.634711 -1.325302,5.25265 -3.599609,7.134766 l 0,5.965234 -5.761719,-3.232812 C 26.18495,32.09695 25.092678,32.214802 24,32.216797 20.700726,32.216779 17.421782,31.115643 15.088953,29.224287 12.756125,27.332931 11.398148,24.674654 11.398438,22 11.398148,19.325346 12.756125,16.667069 15.088953,14.775713 17.421782,12.884357 20.700726,11.783221 24,11.783203 Z" transform="translate(384.57143,499.798)"/><path id="path4818" fill="#1d8fff" fill-opacity=".314" d="M 39.976562 21.673828 C 39.853158 25.202056 38.12742 28.387149 35.378906 30.734375 L 35.384766 31.53125 C 38.234212 29.095558 40 25.760224 40 22.074219 C 40 21.939012 39.981262 21.808079 39.976562 21.673828 z M 8.0234375 21.675781 C 8.018783 21.809384 8 21.939669 8 22.074219 C 8 29.514349 15.16572 35.550781 24 35.550781 C 25.304 35.550781 26.552718 35.384982 27.767578 35.132812 L 35.427734 39.400391 L 35.421875 38.597656 L 27.767578 34.332031 C 26.552718 34.584211 25.304 34.75 24 34.75 C 15.326262 34.75 8.2773623 28.929057 8.0234375 21.675781 z" transform="translate(384.57143,499.798)"/><path id="path4853" fill="#fff" fill-opacity=".314" d="M 24 8.5996094 C 15.16572 8.5996094 8 14.634089 8 22.074219 C 8 22.142055 8.0105315 22.207792 8.0117188 22.275391 C 8.1396886 14.928103 15.245601 9 24 9 C 32.753629 9 39.859077 14.927059 39.988281 22.273438 C 39.98945 22.2065 40 22.141394 40 22.074219 C 40 14.634089 32.83429 8.5996094 24 8.5996094 z M 35.380859 31.931641 C 35.380153 31.932244 35.379612 31.932991 35.378906 31.933594 L 35.425781 39.398438 L 35.427734 39.400391 L 35.380859 31.931641 z" transform="translate(384.57143,499.798)"/></g></svg>