<svg xmlns="http://www.w3.org/2000/svg" xmlns:svg="http://www.w3.org/2000/svg" xmlns:xlink="http://www.w3.org/1999/xlink" id="svg3066" width="48" height="48" version="1.1"><defs id="defs3068"><linearGradient id="linearGradient4134"><stop id="stop4136" offset="0" stop-color="#1c480e" stop-opacity="1"/><stop id="stop4138" offset="1" stop-color="#499228" stop-opacity="1"/></linearGradient><linearGradient id="linearGradient5287"><stop id="stop5289" offset="0" stop-color="#d7d7d7" stop-opacity="1"/><stop id="stop5291" offset="1" stop-color="#f9f9f9" stop-opacity="1"/></linearGradient><linearGradient id="linearGradient867" x1="26.25" x2="26.25" y1="-1052.541" y2="-1004.684" gradientUnits="userSpaceOnUse" xlink:href="#linearGradient1373"/><linearGradient id="linearGradient1373"><stop id="stop1375" offset="0" stop-color="#282827" stop-opacity="1"/><stop id="stop1377" offset="1" stop-color="#292929" stop-opacity="1"/></linearGradient><linearGradient id="linearGradient5267" x1="26.39" x2="26.39" y1="1035.868" y2="1020.873" gradientTransform="translate(0,1.7382813e-5)" gradientUnits="userSpaceOnUse" xlink:href="#linearGradient4134"/><linearGradient id="linearGradient5275" x1="26.39" x2="26.39" y1="1035.868" y2="1020.873" gradientTransform="matrix(0.96874983,0,0,0.93333333,0.75000235,68.557556)" gradientUnits="userSpaceOnUse" xlink:href="#linearGradient947"/><linearGradient id="linearGradient5285" x1="26.39" x2="26.39" y1="1035.868" y2="1020.873" gradientTransform="matrix(0.37499996,0,0,0.8,23,205.67249)" gradientUnits="userSpaceOnUse" xlink:href="#linearGradient5287"/><linearGradient id="linearGradient5301" x1="26.39" x2="26.39" y1="1035.868" y2="1020.873" gradientTransform="matrix(0.12499999,0,0,0.26666667,29,-1302.5921)" gradientUnits="userSpaceOnUse" xlink:href="#linearGradient5287"/><linearGradient id="linearGradient4080" x1="26.517" x2="26.517" y1="1043.789" y2="1012.941" gradientTransform="matrix(0.25,0,0,0.25,9.920504,771.27163)" gradientUnits="userSpaceOnUse" xlink:href="#linearGradient5287"/><linearGradient id="linearGradient947"><stop id="stop949" offset="0" stop-color="#3a931d" stop-opacity="1"/><stop id="stop951" offset="1" stop-color="#57ae30" stop-opacity="1"/></linearGradient></defs><metadata id="metadata3071"/><g id="layer1" transform="translate(0,-1004.3622)"><rect id="rect2991-1" width="48" height="48" x="0" y="-1052.362" fill="url(#linearGradient867)" fill-opacity="1" stroke="none" ry="1.945" transform="scale(1,-1)"/><path id="rect846" fill="#000" fill-opacity="1" stroke="none" d="m -2.6e-6,1049.3622 0,1.0625 c 0,1.0773 0.860223,1.9375 1.9375,1.9375 l 44.1250006,0 c 1.077277,0 1.937505,-0.8602 1.937505,-1.9375 l 0,-1.0625 c 0,1.0773 -0.860228,1.9375 -1.937505,1.9375 l -44.1250006,0 C 0.8602204,1051.2997 -2.6e-6,1050.4395 -2.6e-6,1049.3622 Z"/><path id="path7515" fill="#fff" fill-opacity=".537" stroke="none" d="m 2.5312474,1005.0185 c -0.917088,0 -1.671147,0.6395 -1.84375,1.5 0.335612,-0.2799 0.774512,-0.4375 1.25,-0.4375 l 44.1250006,0 c 0.475488,0 0.914388,0.1576 1.250005,0.4375 -0.172608,-0.8605 -0.926667,-1.5 -1.843755,-1.5 L 2.5312474,1005.0185 Z"/><path id="rect4280-0" fill="#000" fill-opacity=".392" stroke="none" d="m 1.9374974,1004.3622 c -1.077277,0 -1.9375,0.8602 -1.9375,1.9375 l 0,43.0625 c 0,0.7934 0.480024,1.449 1.15625,1.75 -0.309342,-0.3333 -0.5,-0.7824 -0.5,-1.2812 l 0,-42.9375 c 0,-1.0482 0.826899,-1.875 1.875,-1.875 l 42.9375006,0 c 1.048101,0 1.875005,0.8268 1.875005,1.875 l 0,42.9375 c 0,0.4988 -0.190663,0.9479 -0.500005,1.2812 0.676225,-0.301 1.156255,-0.9566 1.156255,-1.75 l 0,-43.0625 c 0,-1.0773 -0.860228,-1.9375 -1.937505,-1.9375 L 1.9374974,1004.3622 Z"/><rect id="rect5259" width="32" height="15" x="8" y="1020.862" fill="url(#linearGradient5267)" fill-opacity="1" stroke="none" ry="7.5"/><rect id="rect5273" width="31" height="14" x="8.5" y="1021.362" fill="url(#linearGradient5275)" fill-opacity="1" stroke="none" ry="7"/><rect id="rect5297" width="13" height="13" x="25.5" y="1021.862" fill="#000" fill-opacity=".118" stroke="none" ry="6.5"/><rect id="rect5293" width="12.5" height="12.5" x="25.75" y="1022.112" fill="#000" fill-opacity=".235" stroke="none" ry="6.25"/><rect id="rect5283" width="12" height="12" x="26" y="1022.362" fill="url(#linearGradient5285)" fill-opacity="1" stroke="none" ry="6"/><rect id="rect5299" width="4" height="4" x="30" y="-1030.362" fill="url(#linearGradient5301)" fill-opacity="1" stroke="none" ry="2" transform="scale(1,-1)"/><path id="path5401" fill="#000" fill-opacity=".235" stroke="none" d="m 19.222656,20.159836 c -0.511766,0.123598 -0.689532,0.21633 -1.150112,0.486328 -1.21832,1.868566 -2.138934,3.474263 -2.853794,4.986836 l -1.675008,-0.989149 -0.521485,0.904297 c 1.188142,0.951967 2.125245,1.699102 3.188743,2.701852 0.802322,-2.889254 1.68987,-5.209826 3.011656,-8.090164 z" transform="translate(0,1004.3622)"/><path id="rect4062" fill="url(#linearGradient4080)" fill-opacity="1" stroke="none" d="m 18.998231,1024.5122 c -1.289647,2.6558 -2.184141,5.0856 -2.910145,7.7 -0.964319,-0.9092 -1.992786,-1.7613 -3.086316,-2.6267 l 0.325749,-0.5635 2.052559,0.7155 c 0.708538,-1.4992 1.404588,-2.966 2.896849,-5.0317 z"/><path id="path2400-3-9" fill="#f9f9f9" fill-opacity=".537" d="m 36.988739,1049.0556 -0.35417,-0.3258 5.85e-4,-4.1314 c 5.47e-4,-4.0786 0.0019,-4.135 0.10312,-4.4057 0.2164,-0.5783 0.541707,-0.775 1.360595,-0.8227 0.491117,-0.027 0.642979,-0.011 3.706615,0.497 L 45,1040.3937 l 0,3.412 c 0,2.6291 -0.0143,3.4595 -0.06229,3.6176 -0.07647,0.252 -0.328194,0.5902 -0.523678,0.7039 -0.0969,0.056 -1.270992,0.2733 -3.510815,0.6488 -1.850868,0.3105 -3.409109,0.5735 -3.462759,0.5848 -0.06852,0.014 -0.202889,-0.077 -0.45171,-0.3052 z m 4.45705,-1.1303 c 0.110051,0 0.115832,-0.017 0.115832,-0.3171 0,-0.2819 -0.01055,-0.3169 -0.09525,-0.3169 -0.180643,0 -0.334188,-0.1089 -0.419601,-0.2989 -0.04713,-0.1044 -0.07675,-0.1967 -0.06584,-0.205 0.01089,-0.011 0.123532,-0.075 0.250285,-0.1473 0.629297,-0.3603 0.911402,-1.1686 0.913196,-2.6165 0.0023,-1.7417 -0.436358,-2.5674 -1.476105,-2.7792 -0.32694,-0.067 -0.697774,-0.031 -0.988735,0.095 -0.434625,0.1886 -0.765647,0.6933 -0.928547,1.4158 -0.115854,0.5138 -0.114449,1.9203 0.0024,2.4628 0.171499,0.7961 0.576249,1.3859 1.062122,1.5478 0.179933,0.06 0.205017,0.09 0.280649,0.3321 0.117628,0.377 0.222727,0.5599 0.390227,0.6792 0.167536,0.1193 0.49921,0.1989 0.703259,0.1685 0.07713,-0.011 0.192341,-0.02 0.256049,-0.02 z m -1.102672,-1.8195 c -0.148702,-0.074 -0.327225,-0.3335 -0.389387,-0.5655 -0.203258,-0.7589 -0.186233,-2.6383 0.02878,-3.1756 0.09759,-0.2438 0.322981,-0.4383 0.508198,-0.4383 0.204959,0 0.462718,0.2472 0.558486,0.5355 0.169352,0.5098 0.197887,2.2215 0.04903,2.9409 -0.118361,0.572 -0.432096,0.8642 -0.755095,0.703 z m 3.266896,0.3539 c 0.461493,-0.102 0.487713,-0.1251 0.487713,-0.4214 0,-0.2301 -0.01141,-0.2621 -0.08535,-0.2402 -0.292521,0.088 -0.360662,0.088 -0.4531,0.011 -0.09022,-0.081 -0.09558,-0.157 -0.09558,-1.347 l 0,-1.2605 0.292626,0 0.292629,0 0,-0.2864 0,-0.2863 -0.292629,-0.033 -0.292626,-0.033 0,-0.4581 c 0,-0.2519 -0.01646,-0.468 -0.03659,-0.4803 -0.02013,-0.013 -0.144642,-0.03 -0.276718,-0.039 l -0.240139,-0.017 -0.08367,0.3414 c -0.04603,0.1876 -0.09749,0.4016 -0.114384,0.4755 -0.02627,0.1146 -0.05524,0.1341 -0.20048,0.1341 l -0.169771,0 0,0.317 0,0.317 0.146315,0 0.146314,0 0,1.4162 c 0,1.7305 0.01945,1.797 0.560868,1.9162 0.155701,0.034 0.183144,0.032 0.414556,-0.018 z"/></g></svg>