<svg xmlns="http://www.w3.org/2000/svg" xmlns:svg="http://www.w3.org/2000/svg" xmlns:xlink="http://www.w3.org/1999/xlink" id="svg5453" width="48" height="48" version="1.1" viewBox="0 0 48 48"><defs id="defs5455"><linearGradient id="linearGradient4147"><stop id="stop4149" offset="0" stop-color="#c2d9f6" stop-opacity="1"/><stop id="stop4151" offset="1" stop-color="#f6fbfe" stop-opacity="1"/></linearGradient><linearGradient id="linearGradient929"><stop id="stop931" offset="0" stop-color="#2174df" stop-opacity="1"/><stop id="stop933" offset="1" stop-color="#41b7f5" stop-opacity="1"/></linearGradient><linearGradient id="linearGradient4169"><stop id="stop4171" offset="0" stop-color="#e2f4c4" stop-opacity="1"/><stop id="stop4173" offset="1" stop-color="#fdfff5" stop-opacity="1"/></linearGradient><linearGradient id="linearGradient4185" x1="10.41" x2="10.41" y1="13.991" y2="2.012" gradientTransform="matrix(2.5666667,0,0,2.5666667,407.32166,494.9571)" gradientUnits="userSpaceOnUse" xlink:href="#linearGradient4169"/><linearGradient id="linearGradient3435" x1="415.886" x2="415.886" y1="-547.803" y2="-499.805" gradientTransform="translate(-4.6601564e-5,-1.5820313e-4)" gradientUnits="userSpaceOnUse" xlink:href="#linearGradient929"/><linearGradient id="linearGradient4145" x1="418.071" x2="418.071" y1="539.2" y2="508.4" gradientUnits="userSpaceOnUse" xlink:href="#linearGradient4147"/></defs><metadata id="metadata5458"/><g id="layer1" transform="translate(-384.57143,-499.798)"><rect id="rect2991-1-7" width="48" height="48" x="384.571" y="-547.798" fill="url(#linearGradient3435)" fill-opacity="1" stroke="none" ry="1.945" transform="scale(1,-1)"/><path id="rect846" fill="#000" fill-opacity="1" stroke="none" d="m 384.57143,544.79799 0,1.0625 c 0,1.0773 0.86022,1.9375 1.9375,1.9375 l 44.125,0 c 1.07728,0 1.9375,-0.8602 1.9375,-1.9375 l 0,-1.0625 c 0,1.0773 -0.86022,1.9375 -1.9375,1.9375 l -44.125,0 c -1.07728,0 -1.9375,-0.8602 -1.9375,-1.9375 z"/><path id="path7515" fill="#fff" fill-opacity=".537" stroke="none" d="m 387.10268,500.45429 c -0.91709,0 -1.67115,0.6395 -1.84375,1.5 0.33561,-0.2799 0.77451,-0.4375 1.25,-0.4375 l 44.125,0 c 0.47549,0 0.91439,0.1576 1.25,0.4375 -0.1726,-0.8605 -0.92666,-1.5 -1.84375,-1.5 l -42.9375,0 z"/><path id="rect4280" fill="#000" fill-opacity=".392" stroke="none" d="m 386.50893,499.79799 c -1.07728,0 -1.9375,0.8602 -1.9375,1.9375 l 0,43.0625 c 0,0.7934 0.48002,1.449 1.15625,1.75 -0.30934,-0.3333 -0.5,-0.7824 -0.5,-1.2812 l 0,-42.9375 c 0,-1.0482 0.8269,-1.875 1.875,-1.875 l 42.9375,0 c 1.0481,0 1.875,0.8268 1.875,1.875 l 0,42.9375 c 0,0.4988 -0.19066,0.9479 -0.5,1.2812 0.67623,-0.301 1.15625,-0.9566 1.15625,-1.75 l 0,-43.0625 c 0,-1.0773 -0.86022,-1.9375 -1.9375,-1.9375 l -44.125,0 z"/><rect id="rect4126" width="56.467" height="56.467" x="407.322" y="494.957" fill="url(#linearGradient4185)" fill-opacity="1" fill-rule="nonzero" stroke="none" display="none"/><path id="path4159" fill="#000" fill-opacity=".059" fill-rule="evenodd" stroke="none" d="m 408.57143,509.598 c -8.50514,0 -15.4,6.89474 -15.4,15.4 0,8.50526 6.89486,15.4 15.4,15.4 8.50514,0 15.4,-6.89474 15.4,-15.4 0,-8.50526 -6.89486,-15.4 -15.4,-15.4 z m 0,3.42222 c 6.61515,0 11.97779,5.36264 11.97779,11.97778 0,3.58786 -1.61817,6.7882 -4.11737,8.98332 1.09373,-1.09374 1.76458,-2.55536 1.76458,-4.22426 0,-3.33802 -2.70436,-6.04238 -6.04237,-6.04238 -3.33801,0 -6.04238,2.70436 -6.04238,6.04238 0,3.33792 2.70437,6.04238 6.04238,6.04238 1.25179,0 2.40415,-0.41772 3.36877,-1.06944 -1.96529,1.41144 -4.34702,2.24578 -6.9514,2.24578 -6.61515,0 -11.97779,-5.36264 -11.97779,-11.97778 0,-6.61514 5.36264,-11.97778 11.97779,-11.97778 z" display="inline"/><path id="path4157" fill="#000" fill-opacity=".118" fill-rule="evenodd" stroke="none" d="m 408.57143,509.198 c -8.50514,0 -15.4,6.89474 -15.4,15.4 0,8.50526 6.89486,15.4 15.4,15.4 8.50514,0 15.4,-6.89474 15.4,-15.4 0,-8.50526 -6.89486,-15.4 -15.4,-15.4 z m 0,3.42222 c 6.61515,0 11.97779,5.36264 11.97779,11.97778 0,3.58786 -1.61817,6.7882 -4.11737,8.98332 1.09373,-1.09374 1.76458,-2.55536 1.76458,-4.22426 0,-3.33802 -2.70436,-6.04238 -6.04237,-6.04238 -3.33801,0 -6.04238,2.70436 -6.04238,6.04238 0,3.33792 2.70437,6.04238 6.04238,6.04238 1.25179,0 2.40415,-0.41772 3.36877,-1.06944 -1.96529,1.41144 -4.34702,2.24578 -6.9514,2.24578 -6.61515,0 -11.97779,-5.36264 -11.97779,-11.97778 0,-6.61514 5.36264,-11.97778 11.97779,-11.97778 z" display="inline"/><path id="path4153" fill="#000" fill-opacity=".235" fill-rule="evenodd" stroke="none" d="m 408.57143,508.798 c -8.50514,0 -15.4,6.89474 -15.4,15.4 0,8.50526 6.89486,15.4 15.4,15.4 8.50514,0 15.4,-6.89474 15.4,-15.4 0,-8.50526 -6.89486,-15.4 -15.4,-15.4 z m 0,3.42222 c 6.61515,0 11.97779,5.36264 11.97779,11.97778 0,3.58786 -1.61817,6.7882 -4.11737,8.98332 1.09373,-1.09374 1.76458,-2.55536 1.76458,-4.22426 0,-3.33802 -2.70436,-6.04238 -6.04237,-6.04238 -3.33801,0 -6.04238,2.70436 -6.04238,6.04238 0,3.33792 2.70437,6.04238 6.04238,6.04238 1.25179,0 2.40415,-0.41772 3.36877,-1.06944 -1.96529,1.41144 -4.34702,2.24578 -6.9514,2.24578 -6.61515,0 -11.97779,-5.36264 -11.97779,-11.97778 0,-6.61514 5.36264,-11.97778 11.97779,-11.97778 z" display="inline"/><path id="path3916-0-9" fill="url(#linearGradient4145)" fill-opacity="1" fill-rule="evenodd" stroke="none" d="m 408.57143,508.398 c -8.50514,0 -15.4,6.89474 -15.4,15.4 0,8.50526 6.89486,15.4 15.4,15.4 8.50514,0 15.4,-6.89474 15.4,-15.4 0,-8.50526 -6.89486,-15.4 -15.4,-15.4 z m 0,3.42222 c 6.61515,0 11.97779,5.36264 11.97779,11.97778 0,3.58786 -1.61817,6.7882 -4.11737,8.98332 1.09373,-1.09374 1.76458,-2.55536 1.76458,-4.22426 0,-3.33802 -2.70436,-6.04238 -6.04237,-6.04238 -3.33801,0 -6.04238,2.70436 -6.04238,6.04238 0,3.33792 2.70437,6.04238 6.04238,6.04238 1.25179,0 2.40415,-0.41772 3.36877,-1.06944 -1.96529,1.41144 -4.34702,2.24578 -6.9514,2.24578 -6.61515,0 -11.97779,-5.36264 -11.97779,-11.97778 0,-6.61514 5.36264,-11.97778 11.97779,-11.97778 z" display="inline"/><path id="path4161" fill="#2477e0" fill-opacity=".314" fill-rule="evenodd" stroke="none" d="M 24 11.222656 C 17.38485 11.222656 12.021484 16.584079 12.021484 23.199219 C 12.021484 23.334381 12.036573 23.465528 12.041016 23.599609 C 12.253999 17.17145 17.520012 12.021484 24 12.021484 C 30.474035 12.021484 35.734949 17.162134 35.957031 23.582031 C 35.96121 23.453609 35.978516 23.328679 35.978516 23.199219 C 35.978516 16.584079 30.61515 11.222656 24 11.222656 z M 8.6191406 23.599609 C 8.615678 23.733963 8.5996094 23.864811 8.5996094 24 C 8.5996094 32.50526 15.49486 39.400391 24 39.400391 C 32.50514 39.400391 39.400391 32.50526 39.400391 24 C 39.400391 23.864811 39.384322 23.733963 39.380859 23.599609 C 39.166732 31.918215 32.37012 38.599609 24 38.599609 C 15.62988 38.599609 8.8332675 31.918215 8.6191406 23.599609 z M 33.605469 28.357422 C 33.507149 29.859425 32.866526 31.178387 31.861328 32.183594 C 32.392283 31.717241 32.872051 31.195702 33.316406 30.644531 C 33.514047 30.055116 33.625 29.425292 33.625 28.759766 C 33.625 28.624205 33.61425 28.490754 33.605469 28.357422 z M 21.560547 28.359375 C 21.551849 28.492073 21.541016 28.624861 21.541016 28.759766 C 21.541016 31.919423 23.9646 34.505591 27.054688 34.773438 C 28.47212 34.395931 29.786081 33.768391 30.951172 32.931641 C 29.986552 33.583361 28.833821 34.001953 27.582031 34.001953 C 24.379351 34.001953 21.767673 31.509422 21.560547 28.359375 z" display="inline" transform="translate(384.57143,499.798)"/><path id="path4166" fill="#f9f9f9" fill-opacity=".235" fill-rule="evenodd" stroke="none" d="M 24 8.5996094 C 15.49486 8.5996094 8.5996094 15.49474 8.5996094 24 C 8.5996094 24.067265 8.6085151 24.132157 8.609375 24.199219 C 8.7182863 15.787734 15.562782 9 24 9 C 32.437218 9 39.281714 15.787734 39.390625 24.199219 C 39.391485 24.132157 39.400391 24.067265 39.400391 24 C 39.400391 15.49474 32.50514 8.5996094 24 8.5996094 z M 27.582031 22.716797 C 24.244021 22.716797 21.541016 25.421746 21.541016 28.759766 C 21.541016 28.8271 21.548597 28.892183 21.550781 28.958984 C 21.656862 25.714175 24.311357 23.117188 27.582031 23.117188 C 30.852706 23.117188 33.509154 25.714175 33.615234 28.958984 C 33.617416 28.892129 33.625 28.82731 33.625 28.759766 C 33.625 25.421746 30.920041 22.716797 27.582031 22.716797 z M 35.96875 24.191406 C 35.920909 27.132449 34.783539 29.796785 32.972656 31.853516 C 32.683044 32.4172 32.311542 32.932594 31.861328 33.382812 C 34.360528 31.187692 35.978516 27.988251 35.978516 24.400391 C 35.978516 24.32985 35.969965 24.261657 35.96875 24.191406 z M 12.03125 24.199219 C 12.030124 24.26686 12.021484 24.332481 12.021484 24.400391 C 12.021484 31.015531 17.38485 36.376953 24 36.376953 C 26.60438 36.376953 28.985882 35.544252 30.951172 34.132812 C 30.194436 34.644081 29.32018 35.002169 28.375 35.136719 C 27.021908 35.67508 25.55233 35.978516 24 35.978516 C 17.452102 35.978516 12.138759 30.721478 12.03125 24.199219 z" display="inline" transform="translate(384.57143,499.798)"/></g></svg>