<svg xmlns="http://www.w3.org/2000/svg" xmlns:svg="http://www.w3.org/2000/svg" xmlns:xlink="http://www.w3.org/1999/xlink" id="svg2" width="48" height="48" version="1.1"><defs id="defs4"><linearGradient id="linearGradient4102"><stop id="stop4104" offset="0" stop-color="#1a1a1a" stop-opacity="1"/><stop id="stop4106" offset="1" stop-color="#1a1a1a" stop-opacity="0"/></linearGradient><linearGradient id="linearGradient6194" x1="0" x2="1" y1="0" y2="0" gradientTransform="matrix(13.526835,20.525875,20.525875,-13.526835,19.18986,1021.0543)" gradientUnits="userSpaceOnUse" spreadMethod="pad"><stop id="stop6196" offset="0" stop-color="#fff" stop-opacity="1"/><stop id="stop6198" offset=".053" stop-color="#29282b" stop-opacity="1"/><stop id="stop6200" offset=".264" stop-color="#868c95" stop-opacity="1"/><stop id="stop6202" offset=".396" stop-color="#92979f" stop-opacity="1"/><stop id="stop6204" offset=".542" stop-color="#737881" stop-opacity="1"/><stop id="stop6206" offset=".626" stop-color="#70757e" stop-opacity="1"/><stop id="stop6208" offset=".718" stop-color="#e4e6e8" stop-opacity="1"/><stop id="stop6210" offset=".791" stop-color="#fff" stop-opacity="1"/><stop id="stop6212" offset="1" stop-color="#1d191a" stop-opacity="1"/></linearGradient><linearGradient id="linearGradient1873" x1="46.5" x2="46.5" y1="1044.487" y2="1012.737" gradientTransform="translate(0,-1004.3622)" gradientUnits="userSpaceOnUse" xlink:href="#linearGradient1867"/><linearGradient id="linearGradient1867"><stop id="stop1869" offset="0" stop-color="#ffc922" stop-opacity="1"/><stop id="stop1875" offset=".5" stop-color="#ffa300" stop-opacity="1"/><stop id="stop1871" offset="1" stop-color="#ffbd00" stop-opacity="1"/></linearGradient><linearGradient id="linearGradient1879" x1="2.67" x2="51.573" y1="1114.344" y2="993.665" gradientTransform="matrix(0.5259336,-0.91094372,0.21312344,0.12304688,-230.2905,-80.674099)" gradientUnits="userSpaceOnUse" xlink:href="#linearGradient1881"/><linearGradient id="linearGradient1881"><stop id="stop1883" offset="0" stop-color="#322b2e" stop-opacity="1"/><stop id="stop1885" offset=".455" stop-color="#2c262a" stop-opacity="1"/><stop id="stop1887" offset="1" stop-color="#2f2a2b" stop-opacity="1"/></linearGradient><linearGradient id="linearGradient1945" x1="-5.127" x2="3.712" y1="26.964" y2="26.964" gradientUnits="userSpaceOnUse" xlink:href="#linearGradient1939"/><linearGradient id="linearGradient1939"><stop id="stop1941" offset="0" stop-color="#fff" stop-opacity="1"/><stop id="stop1943" offset="1" stop-color="#fff" stop-opacity="0"/></linearGradient><linearGradient id="linearGradient1949" x1="-5.127" x2="3.712" y1="26.964" y2="26.964" gradientTransform="matrix(-1,0,0,1,48,1004.3622)" gradientUnits="userSpaceOnUse" xlink:href="#linearGradient1939"/><linearGradient id="linearGradient900" x1="0" x2="64.75" y1="-1034.362" y2="-1034.362" gradientTransform="translate(-3.4744264e-8,-1.8631406e-5)" gradientUnits="userSpaceOnUse" xlink:href="#linearGradient6194"/><linearGradient id="linearGradient4108" x1="38.633" x2="38.633" y1="1035.779" y2="1037.451" gradientTransform="translate(0,6.5)" gradientUnits="userSpaceOnUse" xlink:href="#linearGradient4102"/><linearGradient id="linearGradient4112" x1="38.633" x2="38.633" y1="1035.779" y2="1037.451" gradientTransform="translate(0,-2050.2244)" gradientUnits="userSpaceOnUse" xlink:href="#linearGradient4102"/><radialGradient id="radialGradient4141" cx="24" cy="1028.362" r="24" fx="24" fy="1028.362" gradientTransform="matrix(0.90947401,-1.5195558e-7,8.118326e-8,0.48589243,2.1725403,528.68879)" gradientUnits="userSpaceOnUse" xlink:href="#linearGradient1939"/></defs><metadata id="metadata7"/><g id="layer1" transform="translate(0,-1004.3622)"><rect id="rect2991-1" width="48" height="48" x="0" y="-1052.362" fill="url(#linearGradient900)" fill-opacity="1" stroke="none" ry="1.945" transform="scale(1,-1)"/><g id="g1951" transform="matrix(1,0,0,0.98461538,-3.4744264e-8,15.574808)"><path id="rect1865" fill="url(#linearGradient1873)" fill-opacity="1" stroke="none" d="M 0,8 0,40 48,40 48,8 0,8 Z" transform="translate(0,1004.3622)"/><path id="rect1877" fill="url(#linearGradient1879)" fill-opacity="1" stroke="none" d="M 6.1875,8 0,18.71875 0,34.46875 15.28125,8 6.1875,8 z m 14,0 L 1.71875,40 10.8125,40 29.28125,8 20.1875,8 z m 14,0 L 15.71875,40 24.8125,40 43.28125,8 34.1875,8 Z M 48,8.34375 29.71875,40 38.8125,40 48,24.0625 48,8.34375 Z" transform="translate(0,1004.3622)"/><path id="path1923" fill="#fff" fill-opacity=".462" stroke="none" d="m 0,8 0,0.78125 48,0 L 48,8 0,8 Z" transform="translate(0,1004.3622)"/><path id="path1928" fill="#000" fill-opacity=".462" stroke="none" d="m 0,1043.8622 0,0.5 48,0 0,-0.5 L 0,1043.8622 Z"/><path id="path1930" fill="#fff" fill-opacity=".462" stroke="none" d="m 0,1044.3622 0,0.5 48,0 0,-0.5 L 0,1044.3622 Z"/><path id="path1932" fill="url(#linearGradient1945)" fill-opacity="1" stroke="none" d="m 0,8 0,32 7.96875,0 0,-32 L 0,8 Z" transform="translate(0,1004.3622)"/><path id="path1947" fill="url(#linearGradient1949)" fill-opacity="1" stroke="none" d="m 48,1012.3622 0,32 -7.96875,0 0,-32 L 48,1012.3622 Z"/></g><path id="rect846" fill="#000" fill-opacity="1" stroke="none" d="m -3.4744264e-8,1049.3622 0,1.0625 c 0,1.0773 0.860222904744264,1.9375 1.937499934744264,1.9375 l 44.1249991,0 c 1.077277,0 1.9375,-0.8602 1.9375,-1.9375 l 0,-1.0625 c 0,1.0773 -0.860223,1.9375 -1.9375,1.9375 l -44.1249991,0 C 0.86022287,1051.2997 -3.4744264e-8,1050.4395 -3.4744264e-8,1049.3622 Z"/><path id="path7515" fill="#fff" fill-opacity=".537" stroke="none" d="m 2.5312499,1005.0185 c -0.9170884,0 -1.67114673,0.6395 -1.84374993,1.5 0.33561203,-0.2799 0.77451213,-0.4375 1.24999993,-0.4375 l 44.1249991,0 c 0.475488,0 0.914388,0.1576 1.25,0.4375 -0.172603,-0.8605 -0.926662,-1.5 -1.84375,-1.5 L 2.5312499,1005.0185 Z"/><path id="rect4280" fill="#000" fill-opacity=".392" stroke="none" d="m 1.9374999,1004.3622 c -1.07727693,0 -1.937499934744264,0.8602 -1.937499934744264,1.9375 l 0,43.0625 c 0,0.7934 0.480023604744264,1.449 1.156249934744264,1.75 -0.30934163,-0.3333 -0.49999993,-0.7824 -0.49999993,-1.2812 l 0,-42.9375 c 0,-1.0482 0.82689893,-1.875 1.87499993,-1.875 l 42.9374991,0 c 1.048101,0 1.875,0.8268 1.875,1.875 l 0,42.9375 c 0,0.4988 -0.190658,0.9479 -0.5,1.2812 0.676226,-0.301 1.15625,-0.9566 1.15625,-1.75 l 0,-43.0625 c 0,-1.0773 -0.860223,-1.9375 -1.9375,-1.9375 L 1.9374999,1004.3622 Z"/><rect id="rect4098" width="48" height="27.5" x="0" y="1014.612" fill="#1a1a1a" fill-opacity="1" stroke="none" ry="0"/><rect id="rect4100" width="48" height="4" x="0" y="1041.862" fill="url(#linearGradient4108)" fill-opacity="1" stroke="none" ry="0"/><rect id="rect4110" width="48" height="4" x="0" y="-1014.862" fill="url(#linearGradient4112)" fill-opacity="1" stroke="none" ry="0" transform="scale(1,-1)"/><rect id="rect4133" width="48" height="20" x="0" y="1018.362" fill="url(#radialGradient4141)" fill-opacity="1" stroke="none" opacity=".3" ry="0"/></g></svg>