<svg xmlns="http://www.w3.org/2000/svg" xmlns:svg="http://www.w3.org/2000/svg" xmlns:xlink="http://www.w3.org/1999/xlink" id="svg5453" width="48" height="48" version="1.1"><defs id="defs5455"><linearGradient id="linearGradient6589"><stop id="stop6591" offset="0" stop-color="#fa6900" stop-opacity="1"/><stop id="stop6593" offset="1" stop-color="#ff4e50" stop-opacity="1"/></linearGradient><linearGradient id="linearGradient4188" x1="408.29" x2="408.29" y1="-547.821" y2="-499.806" gradientUnits="userSpaceOnUse" xlink:href="#linearGradient6589"/><linearGradient id="linearGradient4207"><stop id="stop4209" offset="0" stop-color="#ffd6b9" stop-opacity="1"/><stop id="stop4211" offset="1" stop-color="#fff5f5" stop-opacity="1"/></linearGradient><linearGradient id="linearGradient4228" x1="31.536" x2="31.536" y1="37.074" y2="10.619" gradientTransform="matrix(1.1670812,0,0,1.1670812,380.56148,495.78804)" gradientUnits="userSpaceOnUse" xlink:href="#linearGradient4207"/></defs><metadata id="metadata5458"/><g id="layer1" transform="translate(-384.57143,-499.798)"><rect id="rect2991-1-7" width="48" height="48" x="384.571" y="-547.798" fill="url(#linearGradient4188)" fill-opacity="1" stroke="none" ry="1.945" transform="scale(1,-1)"/><path id="path4253" fill="#000" fill-opacity=".059" stroke="none" d="m 406.51992,509.59799 -6.01092,1.61158 1.38362,5.16296 -3.69727,-3.69727 -4.40163,4.40162 4.65465,4.65237 -6.08844,-1.5979 -1.39274,5.3043 6.96146,1.82812 -6.47137,2.0857 1.68224,5.22223 11.92155,-3.84088 c 0,0 0,0.44111 0,0.67701 l 0,2.22019 0,6.76998 6.22291,0 0,-8.67333 c 0.25539,-0.21045 0.64011,-0.40156 0.9779,-0.69523 l 12.27487,3.22315 1.39502,-5.30657 -8.44766,-2.21791 8.69156,-2.80145 -1.68223,-5.22223 -3.09778,0.9984 2.25894,-2.25894 -4.39935,-4.39935 -4.05287,4.05287 1.5523,-5.79666 -6.00864,-1.60929 -2.09938,7.83677 -2.12673,-7.93024 z"/><path id="path4251" fill="#000" fill-opacity=".118" stroke="none" d="m 406.51992,509.19799 -6.01092,1.61158 1.38362,5.16296 -3.69727,-3.69727 -4.40163,4.40162 4.65465,4.65237 -6.08844,-1.5979 -1.39274,5.3043 6.96146,1.82812 -6.47137,2.0857 1.68224,5.22223 11.92155,-3.84088 c 0,0 0,0.44111 0,0.67701 l 0,2.22019 0,6.76998 6.22291,0 0,-8.67333 c 0.25539,-0.21045 0.64011,-0.40156 0.9779,-0.69523 l 12.27487,3.22315 1.39502,-5.30657 -8.44766,-2.21791 8.69156,-2.80145 -1.68223,-5.22223 -3.09778,0.9984 2.25894,-2.25894 -4.39935,-4.39935 -4.05287,4.05287 1.5523,-5.79666 -6.00864,-1.60929 -2.09938,7.83677 -2.12673,-7.93024 z"/><path id="path4247" fill="#000" fill-opacity=".235" stroke="none" d="m 406.51992,508.79799 -6.01092,1.61158 1.38362,5.16296 -3.69727,-3.69727 -4.40163,4.40162 4.65465,4.65237 -6.08844,-1.5979 -1.39274,5.3043 6.96146,1.82812 -6.47137,2.0857 1.68224,5.22223 11.92155,-3.84088 c 0,0 0,0.44111 0,0.67701 l 0,2.22019 0,6.76998 6.22291,0 0,-8.67333 c 0.25539,-0.21045 0.64011,-0.40156 0.9779,-0.69523 l 12.27487,3.22315 1.39502,-5.30657 -8.44766,-2.21791 8.69156,-2.80145 -1.68223,-5.22223 -3.09778,0.9984 2.25894,-2.25894 -4.39935,-4.39935 -4.05287,4.05287 1.5523,-5.79666 -6.00864,-1.60929 -2.09938,7.83677 -2.12673,-7.93024 z"/><g id="g4097"><path id="rect846" fill="#000" fill-opacity="1" stroke="none" d="m 384.57143,544.79799 0,1.0625 c 0,1.0773 0.86022,1.9375 1.9375,1.9375 l 44.125,0 c 1.07728,0 1.9375,-0.8602 1.9375,-1.9375 l 0,-1.0625 c 0,1.0773 -0.86022,1.9375 -1.9375,1.9375 l -44.125,0 C 385.43165,546.73549 384.57143,545.87529 384.57143,544.79799 Z"/><path id="path7515" fill="#fff" fill-opacity=".537" stroke="none" d="m 387.10268,500.45429 c -0.91709,0 -1.67115,0.6395 -1.84375,1.5 0.33561,-0.2799 0.77451,-0.4375 1.25,-0.4375 l 44.125,0 c 0.47549,0 0.91439,0.1576 1.25,0.4375 -0.1726,-0.8605 -0.92666,-1.5 -1.84375,-1.5 L 387.10268,500.45429 Z"/><path id="rect4280" fill="#000" fill-opacity=".392" stroke="none" d="m 386.50893,499.79799 c -1.07728,0 -1.9375,0.8602 -1.9375,1.9375 l 0,43.0625 c 0,0.7934 0.48002,1.449 1.15625,1.75 -0.30934,-0.3333 -0.5,-0.7824 -0.5,-1.2812 l 0,-42.9375 c 0,-1.0482 0.8269,-1.875 1.875,-1.875 l 42.9375,0 c 1.0481,0 1.875,0.8268 1.875,1.875 l 0,42.9375 c 0,0.4988 -0.19066,0.9479 -0.5,1.2812 0.67623,-0.301 1.15625,-0.9566 1.15625,-1.75 l 0,-43.0625 c 0,-1.0773 -0.86022,-1.9375 -1.9375,-1.9375 L 386.50893,499.79799 Z"/></g><g id="g4102" transform="matrix(0.5,0,0,0.5,142.66514,263.53236)"><rect id="rect3279" width="10.664" height="28.674" x="407.919" y="518.247" fill="#de2e22" fill-opacity="1" stroke="none" ry="0"/><rect id="rect4095" width="10.664" height="17.072" x="407.919" y="518.247" fill="#aa2319" fill-opacity="1" stroke="none" ry="0"/><rect id="rect4087" width="10.664" height="38.469" x="-83.681" y="633.262" fill="#f08c12" fill-opacity=".537" stroke="none" ry="0" transform="matrix(0.70710678,-0.70710678,0.70710678,0.70710678,0,0)"/><rect id="rect4089" width="10.664" height="38.469" x="257.879" y="583.528" fill="#fcb016" fill-opacity=".537" stroke="none" ry="0" transform="matrix(0.96592583,-0.25881905,0.25881905,0.96592583,0,0)"/><rect id="rect4091" width="10.664" height="38.469" x="531.363" y="369.358" fill="#f7c604" fill-opacity=".537" stroke="none" ry="0" transform="matrix(0.96592583,0.25881904,-0.25881904,0.96592583,0,0)"/><rect id="rect4093" width="10.664" height="38.469" x="659.229" y="47.943" fill="#ffd101" fill-opacity=".537" stroke="none" ry="0" transform="matrix(0.70710679,0.70710678,-0.70710678,0.70710679,0,0)"/><rect id="rect4081" width="9.4" height="59.481" x="620.498" y="-263.633" fill="#ed6c18" fill-opacity=".537" stroke="none" ry="0" transform="matrix(0.30667853,0.95181315,-0.95181315,0.30667853,0,0)"/><rect id="rect4083" width="9.4" height="59.481" x="-406.714" y="-563.063" fill="#ed6c18" fill-opacity=".537" stroke="none" ry="0" transform="matrix(0.25399141,-0.96720647,-0.96720647,-0.25399141,0,0)"/></g><path id="rect3279-6" fill="url(#linearGradient4228)" fill-opacity="1" stroke="none" d="m 406.51992,508.39799 -6.01092,1.61158 1.38362,5.16296 -3.69727,-3.69727 -4.40163,4.40162 4.65465,4.65237 -6.08844,-1.5979 -1.39274,5.3043 6.96146,1.82812 -6.47137,2.0857 1.68224,5.22223 11.92155,-3.84088 c 0,0 0,0.44111 0,0.67701 l 0,2.22019 0,6.76998 6.22291,0 0,-8.67333 c 0.25539,-0.21045 0.64011,-0.40156 0.9779,-0.69523 l 12.27487,3.22315 1.39502,-5.30657 -8.44766,-2.21791 8.69156,-2.80145 -1.68223,-5.22223 -3.09778,0.9984 2.25894,-2.25894 -4.39935,-4.39935 -4.05287,4.05287 1.5523,-5.79666 -6.00864,-1.60929 -2.09938,7.83677 -2.12673,-7.93024 z"/><path id="path4255" fill="#fa6801" fill-opacity=".314" stroke="none" d="M 16.136719 10.158203 L 15.9375 10.210938 L 17.027344 14.28125 L 17.320312 14.574219 L 16.136719 10.158203 z M 31.984375 10.25 L 30.630859 15.298828 L 30.923828 15.005859 L 32.183594 10.302734 L 31.984375 10.25 z M 9.6230469 15.677734 L 9.2226562 16.078125 L 12.792969 19.646484 L 13.876953 19.931641 L 9.6230469 15.677734 z M 38.683594 16.044922 L 36.824219 17.904297 L 38.005859 17.523438 L 39.083984 16.445312 L 38.683594 16.044922 z M 41.371094 22.203125 L 32.912109 24.929688 L 34.28125 25.289062 L 41.603516 22.927734 L 41.371094 22.203125 z M 6.59375 23.6875 L 6.3964844 24.4375 L 11.988281 25.90625 L 13.357422 25.464844 L 6.59375 23.6875 z M 41.162109 27.896484 L 39.964844 32.455078 L 27.691406 29.230469 C 27.353616 29.524139 26.968281 29.715331 26.712891 29.925781 L 26.712891 30.726562 C 26.968281 30.516112 27.353616 30.32492 27.691406 30.03125 L 39.964844 33.253906 L 41.359375 27.947266 L 41.162109 27.896484 z M 7.1210938 28.275391 L 6.8867188 28.351562 L 8.5683594 33.574219 L 20.490234 29.732422 L 20.490234 29.609375 L 20.490234 28.933594 L 8.5683594 32.773438 L 7.1210938 28.275391 z M 20.490234 38.599609 L 20.490234 39.400391 L 26.712891 39.400391 L 26.712891 38.599609 L 20.490234 38.599609 z" transform="translate(384.57143,499.798)"/><path id="path4260" fill="#fff" fill-opacity=".235" stroke="none" d="M 21.949219 8.5996094 L 15.9375 10.210938 L 16.037109 10.583984 L 21.949219 9 L 24.076172 16.929688 L 26.173828 9.09375 L 32.083984 10.675781 L 32.183594 10.302734 L 26.173828 8.6933594 L 24.076172 16.529297 L 21.949219 8.5996094 z M 13.623047 11.677734 L 9.2226562 16.078125 L 9.4238281 16.277344 L 13.623047 12.078125 L 17.320312 15.775391 L 17.173828 15.228516 L 13.623047 11.677734 z M 34.683594 12.046875 L 30.777344 15.953125 L 30.630859 16.5 L 34.683594 12.447266 L 38.882812 16.646484 L 39.083984 16.445312 L 34.683594 12.046875 z M 39.921875 17.707031 L 37.414062 18.515625 L 36.824219 19.105469 L 39.921875 18.105469 L 41.486328 22.964844 L 41.603516 22.927734 L 39.921875 17.707031 z M 7.7890625 19.132812 L 6.3964844 24.4375 L 6.4941406 24.462891 L 7.7890625 19.533203 L 13.876953 21.130859 L 13.333984 20.587891 L 7.7890625 19.132812 z M 33.595703 25.910156 L 32.912109 26.130859 L 41.261719 28.322266 L 41.359375 27.947266 L 33.595703 25.910156 z M 12.673828 26.486328 L 6.8867188 28.351562 L 7.0039062 28.714844 L 13.357422 26.666016 L 12.673828 26.486328 z" transform="translate(384.57143,499.798)"/></g></svg>