<svg xmlns="http://www.w3.org/2000/svg" xmlns:svg="http://www.w3.org/2000/svg" xmlns:xlink="http://www.w3.org/1999/xlink" id="svg2" width="48" height="48" version="1.1"><defs id="defs4"><linearGradient id="linearGradient4172"><stop id="stop4174" offset="0" stop-color="#1c8eff" stop-opacity="1"/><stop id="stop4176" offset="1" stop-color="#44d2ff" stop-opacity="1"/></linearGradient><linearGradient id="linearGradient827"><stop id="stop829" offset="0" stop-color="#a5e1ff" stop-opacity="1"/><stop id="stop831" offset="1" stop-color="#f5fcff" stop-opacity="1"/></linearGradient><linearGradient id="linearGradient1427" x1="25.456" x2="25.456" y1="-1052.383" y2="-1004.348" gradientTransform="translate(4.2953495e-8,-8.6914063e-6)" gradientUnits="userSpaceOnUse" xlink:href="#linearGradient4172"/><linearGradient id="linearGradient4126" x1="31.055" x2="31.055" y1="40.089" y2="8.089" gradientTransform="translate(4.2953495e-8,1004.3622)" gradientUnits="userSpaceOnUse" xlink:href="#linearGradient827"/><linearGradient id="linearGradient4323" x1="11.369" x2="11.369" y1="1032.783" y2="1023.85" gradientTransform="matrix(2.0207992,0,0,2.0454547,2.4641629,-1072.9162)" gradientUnits="userSpaceOnUse" xlink:href="#linearGradient4172"/></defs><metadata id="metadata7"/><g id="layer1" transform="translate(0,-1004.3622)"><rect id="rect2991-1-9" width="48" height="48" x="0" y="-1052.362" fill="url(#linearGradient1427)" fill-opacity="1" stroke="none" ry="1.945" transform="scale(1,-1)"/><path id="path4192" fill="#000" fill-opacity=".059" stroke="none" d="m 25.623047,1013.5622 c -5.768461,0 -10.645137,3.8127 -12.251953,9.0547 C 7.55006,1023.1854 3,1028.0899 3,1034.0602 c 0,6.3522 5.149758,11.502 11.501953,11.502 0.13782,0 0.271556,-0.015 0.408203,-0.019 0.0678,0 0.132134,0.019 0.201172,0.019 l 20.53125,0 c 0.0543,0 0.10466,-0.013 0.158203,-0.016 0.107772,0 0.213547,0.016 0.322266,0.016 4.902448,0 8.876953,-3.9745 8.876953,-8.877 0,-4.147 -2.84757,-7.6188 -6.691406,-8.5937 0.07541,-0.5624 0.128906,-1.1318 0.128906,-1.7148 0,-7.0771 -5.737383,-12.8145 -12.814453,-12.8145 z"/><path id="path4190" fill="#000" fill-opacity=".118" stroke="none" d="m 25.623047,1013.1622 c -5.768461,0 -10.645137,3.8127 -12.251953,9.0547 C 7.55006,1022.7854 3,1027.6899 3,1033.6602 c 0,6.3522 5.149758,11.502 11.501953,11.502 0.13782,0 0.271556,-0.015 0.408203,-0.019 0.0678,0 0.132134,0.019 0.201172,0.019 l 20.53125,0 c 0.0543,0 0.10466,-0.013 0.158203,-0.016 0.107772,0 0.213547,0.016 0.322266,0.016 4.902448,0 8.876953,-3.9745 8.876953,-8.877 0,-4.147 -2.84757,-7.6188 -6.691406,-8.5937 0.07541,-0.5624 0.128906,-1.1318 0.128906,-1.7148 0,-7.0771 -5.737383,-12.8145 -12.814453,-12.8145 z"/><path id="path4188" fill="#000" fill-opacity=".235" stroke="none" d="m 25.623047,1012.7622 c -5.768461,0 -10.645137,3.8127 -12.251953,9.0547 C 7.55006,1022.3854 3,1027.2899 3,1033.2602 c 0,6.3522 5.149758,11.502 11.501953,11.502 0.13782,0 0.271556,-0.015 0.408203,-0.019 0.0678,0 0.132134,0.019 0.201172,0.019 l 20.53125,0 c 0.0543,0 0.10466,-0.013 0.158203,-0.016 0.107772,0 0.213547,0.016 0.322266,0.016 4.902448,0 8.876953,-3.9745 8.876953,-8.877 0,-4.147 -2.84757,-7.6188 -6.691406,-8.5937 0.07541,-0.5624 0.128906,-1.1318 0.128906,-1.7148 0,-7.0771 -5.737383,-12.8145 -12.814453,-12.8145 z"/><path id="rect846-6" fill="#000" fill-opacity="1" stroke="none" d="m 2.8860477e-8,1049.3622 0,1.0625 c 0,1.0773 0.860222901139523,1.9375 1.937500071139523,1.9375 l 44.1249999,0 c 1.077277,0 1.9375,-0.8602 1.9375,-1.9375 l 0,-1.0625 c 0,1.0773 -0.860223,1.9375 -1.9375,1.9375 l -44.1249999,0 C 0.86022293,1051.2997 2.8860483e-8,1050.4395 2.8860483e-8,1049.3622 Z"/><path id="path7515-6" fill="#fff" fill-opacity=".537" stroke="none" d="m 2.5312501,1005.0185 c -0.917089,0 -1.67114687,0.6395 -1.84375007,1.5 0.33561197,-0.2799 0.77451207,-0.4375 1.25000007,-0.4375 l 44.1249999,0 c 0.475488,0 0.914388,0.1576 1.25,0.4375 -0.172603,-0.8605 -0.926662,-1.5 -1.84375,-1.5 l -42.9374999,0 z"/><path id="rect4280-1" fill="#000" fill-opacity=".392" stroke="none" d="m 1.9375001,1004.3622 c -1.07727707,0 -1.937500071139522,0.8602 -1.937500071139522,1.9375 l 0,43.0625 c 0,0.7934 0.480023601139522,1.449 1.156249871139522,1.75 -0.30934157,-0.3333 -0.49999987,-0.7824 -0.49999987,-1.2812 l 0,-42.9375 c 0,-1.0482 0.82689907,-1.875 1.87500007,-1.875 l 42.9374999,0 c 1.048101,0 1.875,0.8268 1.875,1.875 l 0,42.9375 c 0,0.4988 -0.190658,0.9479 -0.5,1.2812 0.676226,-0.301 1.15625,-0.9566 1.15625,-1.75 l 0,-43.0625 c 0,-1.0773 -0.860223,-1.9375 -1.9375,-1.9375 l -44.1249999,0 z"/><path id="path4056" fill="url(#linearGradient4126)" fill-opacity="1" stroke="none" d="m 25.623047,1012.3622 c -5.768461,0 -10.645137,3.8127 -12.251953,9.0547 C 7.55006,1021.9854 3,1026.8899 3,1032.8602 c 0,6.3522 5.149758,11.502 11.501953,11.502 0.13782,0 0.271556,-0.015 0.408203,-0.02 0.0678,0 0.132134,0.02 0.201172,0.02 l 20.53125,0 c 0.0543,0 0.10466,-0.013 0.158203,-0.016 0.107772,0 0.213547,0.016 0.322266,0.016 4.902448,0 8.876953,-3.9745 8.876953,-8.877 0,-4.147 -2.84757,-7.6188 -6.691406,-8.5937 0.07541,-0.5624 0.128906,-1.1318 0.128906,-1.7148 0,-7.0771 -5.737383,-12.8145 -12.814453,-12.8145 z"/><path id="path4194" fill="#1d8fff" fill-opacity=".314" stroke="none" d="m 38.410156,1024.6278 c -0.02231,0.3581 -0.05449,0.7134 -0.101562,1.0645 0.03573,0.01 0.06992,0.022 0.105468,0.031 0.0097,-0.1817 0.02344,-0.3626 0.02344,-0.5468 0,-0.1853 -0.01956,-0.3656 -0.02734,-0.5489 z M 3.0292969,1032.247 C 3.0184931,1032.4513 3,1032.6532 3,1032.8602 c 0,6.3522 5.1497581,11.502 11.501953,11.502 0.13782,0 0.271556,-0.015 0.408203,-0.02 0.0678,0 0.132134,0.02 0.201172,0.02 l 20.53125,0 c 0.0543,0 0.10466,-0.013 0.158203,-0.016 0.107772,0 0.213547,0.016 0.322266,0.016 4.902448,0 8.876953,-3.9745 8.876953,-8.877 0,-0.2157 -0.01219,-0.4287 -0.02734,-0.6406 -0.290073,4.6406 -4.136016,8.3184 -8.849609,8.3184 -0.108719,0 -0.214494,-0.018 -0.322266,-0.018 -0.05354,0 -0.103903,0.018 -0.158203,0.018 l -20.53125,0 c -0.06904,0 -0.133372,-0.02 -0.201172,-0.02 -0.136647,0 -0.270383,0.02 -0.408203,0.02 -6.1543466,0 -11.1655645,-4.838 -11.4726561,-10.916 z"/><path id="path4199" fill="#fff" fill-opacity=".235" stroke="none" d="m 25.623047,1012.3622 c -5.768461,0 -10.645137,3.8127 -12.251953,9.0547 C 7.5500597,1021.9854 3,1026.8899 3,1032.8602 c 0,0.066 0.00866,0.1297 0.00977,0.1954 0.1036723,-5.8764 4.6076672,-10.6764 10.361328,-11.2383 1.606816,-5.242 6.483492,-9.0547 12.251953,-9.0547 7.015098,0 12.70542,5.6393 12.804687,12.6309 0.0016,-0.073 0.0098,-0.1438 0.0098,-0.2168 -3.8e-5,-7.0771 -5.737421,-12.8145 -12.814491,-12.8145 z m 12.726562,14.541 c -0.01457,0.1294 -0.02377,0.2601 -0.04102,0.3887 3.777366,0.958 6.585403,4.329 6.68164,8.3808 0.0013,-0.063 0.0098,-0.1242 0.0098,-0.1875 0,-4.132 -2.827587,-7.5927 -6.650391,-8.582 z"/><path id="path4350" fill="#000" fill-opacity=".059" d="m 25.267782,1029.4366 2.437756,-6.7744 -6.852395,0 -1.853143,9.8717 3.426941,0 -1.797571,8.1283 1.139599,0 L 29,1029.4366 l -3.732218,0 z"/><path id="path4348" fill="#000" fill-opacity=".118" d="m 25.267782,1029.0366 2.437756,-6.7744 -6.852395,0 -1.853143,9.8717 3.426941,0 -1.797571,8.1283 1.139599,0 L 29,1029.0366 l -3.732218,0 z"/><path id="path4344" fill="#000" fill-opacity=".235" d="m 25.267782,1028.6366 2.437756,-6.7744 -6.852395,0 -1.853143,9.8717 3.426941,0 -1.797571,8.1283 1.139599,0 L 29,1028.6366 l -3.732218,0 z"/><path id="path467" fill="url(#linearGradient4323)" fill-opacity="1" d="m 25.267782,1028.2366 2.437756,-6.7744 -6.852395,0 -1.853143,9.8717 3.426941,0 -1.797571,8.1283 1.139599,0 L 29,1028.2366 l -3.732218,0 z"/><path id="path4352" fill="#003d78" fill-opacity=".314" d="M 27.417969 17.099609 L 25.267578 23.074219 L 25.556641 23.074219 L 27.705078 17.099609 L 27.417969 17.099609 z M 28.484375 23.875 L 21.769531 34.300781 L 20.806641 34.300781 L 20.628906 35.099609 L 21.769531 35.099609 L 29 23.875 L 28.484375 23.875 z M 19.150391 26.171875 L 19 26.972656 L 22.25 26.972656 L 22.427734 26.171875 L 19.150391 26.171875 z" transform="translate(0,1004.3622)"/><path id="path4357" fill="#fff" fill-opacity=".235" d="M 20.853516 17.099609 L 19 26.972656 L 19.074219 26.972656 L 20.853516 17.5 L 27.560547 17.5 L 27.705078 17.099609 L 20.853516 17.099609 z M 25.410156 23.875 L 25.267578 24.273438 L 28.744141 24.273438 L 29 23.875 L 25.410156 23.875 z M 22.339844 27.371094 L 20.628906 35.099609 L 20.716797 35.099609 L 22.427734 27.371094 L 22.339844 27.371094 z" transform="translate(0,1004.3622)"/></g></svg>