<svg xmlns="http://www.w3.org/2000/svg" xmlns:svg="http://www.w3.org/2000/svg" xmlns:xlink="http://www.w3.org/1999/xlink" id="svg2" width="48" height="48" version="1.1"><defs id="defs4"><filter id="filter3174-9" color-interpolation-filters="sRGB"><feGaussianBlur id="feGaussianBlur3176-8" stdDeviation="1.71"/></filter><filter id="filter3794-9" width="1.384" height="1.384" x="-.192" y="-.192" color-interpolation-filters="sRGB"><feGaussianBlur id="feGaussianBlur3796-4" stdDeviation="5.28"/></filter><filter id="filter3794-9-5" width="1.384" height="1.384" x="-.192" y="-.192" color-interpolation-filters="sRGB"><feGaussianBlur id="feGaussianBlur3796-4-6" stdDeviation="5.28"/></filter><linearGradient id="linearGradient3613-6-7" x1="48" x2="48" y1="20.221" y2="138.661" gradientUnits="userSpaceOnUse"/><clipPath id="clipPath3613-0-8"><rect id="rect3615-1-4" width="84" height="84" x="6" y="6" fill="#fff" fill-opacity="1" fill-rule="nonzero" stroke="none" rx="6" ry="6"/></clipPath><filter id="filter3174-9-7" color-interpolation-filters="sRGB"><feGaussianBlur id="feGaussianBlur3176-8-3" stdDeviation="1.71"/></filter><filter id="filter3794-9-54" width="1.384" height="1.384" x="-.192" y="-.192" color-interpolation-filters="sRGB"><feGaussianBlur id="feGaussianBlur3796-4-2" stdDeviation="5.28"/></filter><linearGradient id="linearGradient3613-6-1" x1="48" x2="48" y1="20.221" y2="138.661" gradientUnits="userSpaceOnUse"/><clipPath id="clipPath3613-0-9"><rect id="rect3615-1-6" width="84" height="84" x="6" y="6" fill="#fff" fill-opacity="1" fill-rule="nonzero" stroke="none" rx="6" ry="6"/></clipPath><linearGradient id="linearGradient859" x1="23.102" x2="23.102" y1="-1052.368" y2="-1004.361" gradientTransform="translate(1.1676686e-5,-5.2664063e-6)" gradientUnits="userSpaceOnUse" xlink:href="#linearGradient839"/><linearGradient id="linearGradient4174" x1="32.5" x2="32.5" y1="1043.8" y2="1012.925" gradientTransform="translate(1.1222077e-7,8.6914063e-6)" gradientUnits="userSpaceOnUse" xlink:href="#linearGradient4294"/><linearGradient id="linearGradient4294"><stop id="stop4296" offset="0" stop-color="#f2c6f0" stop-opacity="1"/><stop id="stop4298" offset="1" stop-color="#fdf7fd" stop-opacity="1"/></linearGradient><filter id="filter3794-9-6" width="1.384" height="1.384" x="-.192" y="-.192" color-interpolation-filters="sRGB"><feGaussianBlur id="feGaussianBlur3796-4-1" stdDeviation="5.28"/></filter><filter id="filter3794-9-2" width="1.384" height="1.384" x="-.192" y="-.192" color-interpolation-filters="sRGB"><feGaussianBlur id="feGaussianBlur3796-4-2-3" stdDeviation="5.28"/></filter><linearGradient id="linearGradient839"><stop id="stop841" offset="0" stop-color="#871e82" stop-opacity="1"/><stop id="stop843" offset="1" stop-color="#d535d9" stop-opacity="1"/></linearGradient><linearGradient id="linearGradient4274" x1="48" x2="48" y1="20.221" y2="138.661" gradientUnits="userSpaceOnUse"/></defs><metadata id="metadata7"/><g id="layer1" transform="translate(0,-1004.3622)"><g id="layer5" display="none" transform="translate(-121.93813,968.5619)"><rect id="rect3171" width="66" height="66" x="15" y="15" fill="url(#linearGradient3613-6)" fill-opacity="1" fill-rule="nonzero" stroke="#fff" stroke-dasharray="none" stroke-dashoffset="0" stroke-linecap="round" stroke-linejoin="miter" stroke-miterlimit="4" stroke-opacity="1" stroke-width=".5" clip-path="url(#clipPath3613-0)" filter="url(#filter3794-9)" opacity=".1" rx="12" ry="12"/></g><g id="layer5-1" display="none" transform="translate(-121.93813,968.56191)"><rect id="rect3171-0" width="66" height="66" x="15" y="15" fill="url(#linearGradient3613-6-7)" fill-opacity="1" fill-rule="nonzero" stroke="#fff" stroke-dasharray="none" stroke-dashoffset="0" stroke-linecap="round" stroke-linejoin="miter" stroke-miterlimit="4" stroke-opacity="1" stroke-width=".5" clip-path="url(#clipPath3613-0-8)" filter="url(#filter3794-9-5)" opacity=".1" rx="12" ry="12"/></g><g id="layer5-0" display="none" transform="translate(-171.1457,967.87745)"><rect id="rect3171-3" width="66" height="66" x="15" y="15" fill="url(#linearGradient3613-6-1)" fill-opacity="1" fill-rule="nonzero" stroke="#fff" stroke-dasharray="none" stroke-dashoffset="0" stroke-linecap="round" stroke-linejoin="miter" stroke-miterlimit="4" stroke-opacity="1" stroke-width=".5" clip-path="url(#clipPath3613-0-9)" filter="url(#filter3794-9-54)" opacity=".1" rx="12" ry="12"/></g><rect id="rect2991-1-7" width="48" height="48" x="0" y="-1052.362" fill="url(#linearGradient859)" fill-opacity="1" stroke="none" ry="1.945" transform="scale(1,-1)"/><path id="rect846" fill="#000" fill-opacity="1" stroke="none" d="m -1.1222076e-7,1049.3622 0,1.0625 c 0,1.0773 0.86022290222076,1.9375 1.93749991222076,1.9375 l 44.1250002,0 c 1.077277,0 1.9375,-0.8602 1.9375,-1.9375 l 0,-1.0625 c 0,1.0773 -0.860223,1.9375 -1.9375,1.9375 l -44.1250002,0 c -1.07727701,0 -1.93749991222076,-0.8602 -1.93749991222076,-1.9375 z"/><path id="path7515" fill="#fff" fill-opacity=".537" stroke="none" d="m 2.5312498,1005.0185 c -0.9170884,0 -1.67114671,0.6395 -1.84374991,1.5 0.33561201,-0.2799 0.77451211,-0.4375 1.24999991,-0.4375 l 44.1250002,0 c 0.475488,0 0.914388,0.1576 1.25,0.4375 -0.172603,-0.8605 -0.926662,-1.5 -1.84375,-1.5 l -42.9375002,0 z"/><path id="rect4280" fill="#000" fill-opacity=".392" stroke="none" d="m 1.9374998,1004.3622 c -1.07727691,0 -1.93749991222076,0.8602 -1.93749991222076,1.9375 l 0,43.0625 c 0,0.7934 0.48002360222076,1.449 1.15624991222076,1.75 -0.30934161,-0.3333 -0.49999991,-0.7824 -0.49999991,-1.2812 l 0,-42.9375 c 0,-1.0482 0.82689891,-1.875 1.87499991,-1.875 l 42.9375002,0 c 1.048101,0 1.875,0.8268 1.875,1.875 l 0,42.9375 c 0,0.4988 -0.190658,0.9479 -0.5,1.2812 0.676226,-0.301 1.15625,-0.9566 1.15625,-1.75 l 0,-43.0625 c 0,-1.0773 -0.860223,-1.9375 -1.9375,-1.9375 l -44.1250002,0 z"/><path id="path3367" fill="#000" fill-opacity=".059" d="m 24,1014.1622 a 15.399609,15.3996 0 0 0 -15.3999997,15.4 15.399609,15.3996 0 0 0 15.3999997,15.4 15.399609,15.3996 0 0 0 15.4,-15.4 15.399609,15.3996 0 0 0 -15.4,-15.4 z m 0,2.9999 A 12.399685,12.399678 0 0 1 36.400077,1029.5622 12.399685,12.399678 0 0 1 24,1041.9623 12.399685,12.399678 0 0 1 11.599924,1029.5622 12.399685,12.399678 0 0 1 24,1017.1621 Z m 0,5.4003 c -0.830979,0 -1.499962,0.669 -1.499962,1.4999 l 0,10.9998 c 0,0.8309 0.668983,1.4999 1.499962,1.4999 0.830979,0 1.499962,-0.669 1.499962,-1.4999 l 0,-10.9998 c 0,-0.8309 -0.668983,-1.4999 -1.499962,-1.4999 z"/><path id="path3365" fill="#000" fill-opacity=".118" d="m 24,1013.7622 a 15.399609,15.3996 0 0 0 -15.3999997,15.4 15.399609,15.3996 0 0 0 15.3999997,15.4 15.399609,15.3996 0 0 0 15.4,-15.4 15.399609,15.3996 0 0 0 -15.4,-15.4 z m 0,2.9999 A 12.399685,12.399678 0 0 1 36.400077,1029.1622 12.399685,12.399678 0 0 1 24,1041.5623 12.399685,12.399678 0 0 1 11.599924,1029.1622 12.399685,12.399678 0 0 1 24,1016.7621 Z m 0,5.4003 c -0.830979,0 -1.499962,0.669 -1.499962,1.4999 l 0,10.9998 c 0,0.8309 0.668983,1.4999 1.499962,1.4999 0.830979,0 1.499962,-0.669 1.499962,-1.4999 l 0,-10.9998 c 0,-0.8309 -0.668983,-1.4999 -1.499962,-1.4999 z"/><path id="path3363" fill="#000" fill-opacity=".235" d="m 24,1013.3622 a 15.399609,15.3996 0 0 0 -15.3999997,15.4 15.399609,15.3996 0 0 0 15.3999997,15.4 15.399609,15.3996 0 0 0 15.4,-15.4 15.399609,15.3996 0 0 0 -15.4,-15.4 z m 0,2.9999 A 12.399685,12.399678 0 0 1 36.400077,1028.7622 12.399685,12.399678 0 0 1 24,1041.1623 12.399685,12.399678 0 0 1 11.599924,1028.7622 12.399685,12.399678 0 0 1 24,1016.3621 Z m 0,5.4003 c -0.830979,0 -1.499962,0.669 -1.499962,1.4999 l 0,10.9998 c 0,0.8309 0.668983,1.4999 1.499962,1.4999 0.830979,0 1.499962,-0.669 1.499962,-1.4999 l 0,-10.9998 c 0,-0.8309 -0.668983,-1.4999 -1.499962,-1.4999 z"/><path id="path3342" fill="url(#linearGradient4174)" fill-opacity="1" d="m 24,1012.9622 a 15.399609,15.3996 0 0 0 -15.3999997,15.4 15.399609,15.3996 0 0 0 15.3999997,15.4 15.399609,15.3996 0 0 0 15.4,-15.4 15.399609,15.3996 0 0 0 -15.4,-15.4 z m 0,2.9999 A 12.399685,12.399678 0 0 1 36.400077,1028.3622 12.399685,12.399678 0 0 1 24,1040.7623 12.399685,12.399678 0 0 1 11.599924,1028.3622 12.399685,12.399678 0 0 1 24,1015.9621 Z m 0,5.4003 c -0.830979,0 -1.499962,0.669 -1.499962,1.4999 l 0,10.9998 c 0,0.8309 0.668983,1.4999 1.499962,1.4999 0.830979,0 1.499962,-0.669 1.499962,-1.4999 l 0,-10.9998 c 0,-0.8309 -0.668983,-1.4999 -1.499962,-1.4999 z"/><path id="path4169" fill="#671763" fill-opacity=".314" d="m 24,1014.7626 a 12.399685,12.399678 0 0 0 -12.400391,12.4004 12.399685,12.399678 0 0 0 0.02539,0.7031 12.399685,12.399678 0 0 1 12.375,-11.9043 12.399685,12.399678 0 0 1 12.375,11.6973 12.399685,12.399678 0 0 0 0.02539,-0.4961 A 12.399685,12.399678 0 0 0 24,1014.7626 Z m -15.3749999,12.8965 a 15.399609,15.3996 0 0 0 -0.025391,0.7031 A 15.399609,15.3996 0 0 0 24,1043.7626 15.399609,15.3996 0 0 0 39.400391,1028.3622 15.399609,15.3996 0 0 0 39.375,1027.8661 15.399609,15.3996 0 0 1 24,1042.5614 15.399609,15.3996 0 0 1 8.6250001,1027.6591 Z M 22.5,1032.663 l 0,1.1992 c 0,0.8309 0.669021,1.5 1.5,1.5 0.830979,0 1.5,-0.6691 1.5,-1.5 l 0,-1.1992 c 0,0.8309 -0.669021,1.498 -1.5,1.498 -0.830979,0 -1.5,-0.6671 -1.5,-1.498 z"/><path id="path4076" fill="#fff" fill-opacity=".235" d="m 24,1012.9618 a 15.399609,15.3996 0 0 0 -15.4003905,15.4004 15.399609,15.3996 0 0 0 0.00781,0.166 A 15.399609,15.3996 0 0 1 24,1013.3622 a 15.399609,15.3996 0 0 1 15.392578,15.2344 15.399609,15.3996 0 0 0 0.0078,-0.2344 A 15.399609,15.3996 0 0 0 24,1012.9618 Z m 0,8.4004 c -0.830979,0 -1.5,0.6691 -1.5,1.5 l 0,0.4004 c 0,-0.8309 0.669021,-1.5 1.5,-1.5 0.830979,0 1.5,0.6691 1.5,1.5 l 0,-0.4004 c 0,-0.8309 -0.669021,-1.5 -1.5,-1.5 z m 12.392578,7.166 A 12.399685,12.399678 0 0 1 24,1040.7626 a 12.399685,12.399678 0 0 1 -12.392578,-12.166 12.399685,12.399678 0 0 0 -0.0078,0.166 A 12.399685,12.399678 0 0 0 24,1041.163 a 12.399685,12.399678 0 0 0 12.400391,-12.4004 12.399685,12.399678 0 0 0 -0.0078,-0.2344 z"/><g id="layer5-7" display="none" transform="translate(-123.2391,965.17974)"><rect id="rect3171-00" width="66" height="66" x="15" y="15" fill="url(#linearGradient4274)" fill-opacity="1" fill-rule="nonzero" stroke="#fff" stroke-dasharray="none" stroke-dashoffset="0" stroke-linecap="round" stroke-linejoin="miter" stroke-miterlimit="4" stroke-opacity="1" stroke-width=".5" clip-path="url(#clipPath3613-0)" filter="url(#filter3794-9-6)" opacity=".1" rx="12" ry="12"/></g><g id="layer5-0-1" display="none" transform="translate(-69.49527,964.67305)"><rect id="rect3171-6" width="66" height="66" x="15" y="15" fill="url(#linearGradient3613-6-8)" fill-opacity="1" fill-rule="nonzero" stroke="#fff" stroke-dasharray="none" stroke-dashoffset="0" stroke-linecap="round" stroke-linejoin="miter" stroke-miterlimit="4" stroke-opacity="1" stroke-width=".5" clip-path="url(#clipPath3613-0-1)" filter="url(#filter3794-9-2)" opacity=".1" rx="12" ry="12"/></g></g></svg>