<svg xmlns="http://www.w3.org/2000/svg" xmlns:svg="http://www.w3.org/2000/svg" xmlns:xlink="http://www.w3.org/1999/xlink" id="svg2" width="48" height="48" version="1.1"><defs id="defs4"><linearGradient id="linearGradient4322"><stop id="stop4324" offset="0" stop-color="#477dd3" stop-opacity="1"/><stop id="stop4326" offset="1" stop-color="#61acf8" stop-opacity="1"/></linearGradient><linearGradient id="linearGradient4691"><stop id="stop4693" offset="0" stop-color="#4a80d5" stop-opacity="1"/><stop id="stop4695" offset="1" stop-color="#5597e9" stop-opacity="1"/></linearGradient><linearGradient id="linearGradient4715" x1="25.367" x2="25.367" y1="48.088" y2="24.047" gradientTransform="translate(5.1791382e-7,1004.3622)" gradientUnits="userSpaceOnUse" xlink:href="#linearGradient4322"/><linearGradient id="linearGradient5169" x1="25.367" x2="25.367" y1="48.088" y2="24.047" gradientTransform="matrix(1,0,0,-1,5.1791382e-7,1052.3622)" gradientUnits="userSpaceOnUse" xlink:href="#linearGradient4322"/><linearGradient id="linearGradient5358" x1="36.25" x2="36.25" y1="-1052.362" y2="-1004.376" gradientTransform="translate(5.1791382e-7,5e-5)" gradientUnits="userSpaceOnUse" xlink:href="#linearGradient4691"/></defs><metadata id="metadata7"/><g id="layer1" transform="translate(0,-1004.3622)"><rect id="rect2991-1-7" width="48" height="48" x="0" y="-1052.362" fill="url(#linearGradient5358)" fill-opacity="1" stroke="none" ry="1.945" transform="scale(1,-1)"/><path id="path4728" fill="#000" fill-opacity=".059" stroke="none" d="m 24.000001,1027.1621 -24.00000048208618,18 0,4.0547 c 0,1.0773 0.86803535208618,1.9453 1.94531248208618,1.9453 l 44.109376,0 c 1.077277,0 1.945312,-0.8679 1.945312,-1.9453 l 0,-4.0547 L 24.000001,1027.1621 Z"/><path id="path4726" fill="#000" fill-opacity=".118" stroke="none" d="m 24.000001,1027.5622 -24.00000048208618,18 0,4.0546 c 0,1.0773 0.86803535208618,1.9454 1.94531248208618,1.9454 l 44.109376,0 c 1.077277,0 1.945312,-0.868 1.945312,-1.9454 l 0,-4.0546 L 24.000001,1027.5622 Z"/><path id="path4722" fill="#000" fill-opacity=".235" stroke="none" d="m 24.000001,1027.9621 -24.00000048208618,18 0,4.0547 c 0,1.0773 0.86803535208618,1.9453 1.94531248208618,1.9453 l 44.109376,0 c 1.077277,0 1.945312,-0.8679 1.945312,-1.9453 l 0,-4.0547 L 24.000001,1027.9621 Z"/><path id="rect4704" fill="url(#linearGradient4715)" fill-opacity="1" stroke="none" d="m 24.000001,1028.3622 -24.00000048208618,18 0,4.0547 c 0,1.0773 0.86803535208618,1.9453 1.94531248208618,1.9453 l 44.109376,0 c 1.077277,0 1.945312,-0.868 1.945312,-1.9453 l 0,-4.0547 L 24.000001,1028.3622 Z"/><path id="path4717" fill="#fff" fill-opacity=".314" stroke="none" d="m 24.000001,1028.3622 -24.00000048208618,18 0,0.8008 24.00000048208618,-18 24,18 0,-0.8008 L 24.000001,1028.3622 Z"/><path id="path5159" fill="#000" fill-opacity=".059" stroke="none" d="m 24.000001,1033.5622 -24.00000048208618,-18 0,-8.0547 c 0,-1.0773 0.86803500208618,-1.9453 1.94531198208618,-1.9453 l 44.1093765,0 c 1.077277,0 1.945312,0.868 1.945312,1.9453 L 48.000001,1015.5622 Z"/><path id="path5161" fill="#000" fill-opacity=".118" stroke="none" d="m 24.000001,1033.1622 -24.00000048208618,-18 0,-8.0547 c 0,-1.0773 0.86803500208618,-1.9453 1.94531198208618,-1.9453 l 44.1093765,0 c 1.077277,0 1.945312,0.868 1.945312,1.9453 L 48.000001,1015.1622 Z"/><path id="path5163" fill="#000" fill-opacity=".235" stroke="none" d="m 24.000001,1032.7622 -24.00000048208618,-18 0,-8.0547 c 0,-1.0773 0.86803500208618,-1.9453 1.94531198208618,-1.9453 l 44.1093765,0 c 1.077277,0 1.945312,0.868 1.945312,1.9453 L 48.000001,1014.7622 Z"/><path id="path5165" fill="url(#linearGradient5169)" fill-opacity="1" stroke="none" d="m 24.000001,1032.3622 -24.00000048208618,-18 0,-8.0547 c 0,-1.0773 0.86803500208618,-1.9453 1.94531198208618,-1.9453 l 44.1093765,0 c 1.077277,0 1.945312,0.868 1.945312,1.9453 L 48.000001,1014.3622 Z"/><path id="rect846" fill="#000" fill-opacity="1" stroke="none" d="m -5.2923279e-6,1049.3623 0,1.0625 c 0,1.0772 0.8602200023279,1.9375 1.9374999923279,1.9375 l 44.1250003,0 c 1.07728,0 1.9375,-0.8603 1.9375,-1.9375 l 0,-1.0625 c 0,1.0772 -0.86022,1.9375 -1.9375,1.9375 l -44.1250003,0 C 0.86021471,1051.2998 -5.2923279e-6,1050.4395 -5.2923279e-6,1049.3623 Z"/><path id="path7515" fill="#fff" fill-opacity=".537" stroke="none" d="m 2.5312447,1005.0185 c -0.91709,0 -1.67114999,0.6395 -1.84374999,1.5 0.33560999,-0.2799 0.77450999,-0.4375 1.24999999,-0.4375 l 44.1250003,0 c 0.47549,0 0.91439,0.1576 1.25,0.4375 -0.1726,-0.8605 -0.92666,-1.5 -1.84375,-1.5 L 2.5312447,1005.0185 Z"/><path id="rect4280" fill="#000" fill-opacity=".392" stroke="none" d="m 1.9374947,1004.3622 c -1.07727999,0 -1.9374999923279,0.8601 -1.9374999923279,1.9375 l 0,43.0626 c 0,0.7934 0.4800200023279,1.449 1.1562499923279,1.75 -0.30933999,-0.3334 -0.49999999,-0.7825 -0.49999999,-1.2812 l 0,-42.9376 c 0,-1.0482 0.82689999,-1.875 1.87499999,-1.875 l 42.9375003,0 c 1.0481,0 1.875,0.8268 1.875,1.875 l 0,42.9376 c 0,0.4988 -0.19066,0.9478 -0.5,1.2812 0.67623,-0.301 1.15625,-0.9566 1.15625,-1.75 l 0,-43.0626 c 0,-1.0774 -0.86022,-1.9375 -1.9375,-1.9375 L 1.9374947,1004.3622 Z"/><path id="path5167" fill="#fff" fill-opacity=".118" stroke="none" d="m 24.000001,1032.3622 -24.00000048208618,-18 0,-0.8008 24.00000048208618,18 24,-18 L 48.000001,1014.3622 Z"/></g></svg>