<svg xmlns="http://www.w3.org/2000/svg" xmlns:svg="http://www.w3.org/2000/svg" xmlns:xlink="http://www.w3.org/1999/xlink" id="svg2" width="48" height="48" version="1.1"><metadata id="metadata20"/><defs id="defs4"><linearGradient id="linearGradient4329"><stop id="stop4331" offset="0" stop-color="#c2d9f6" stop-opacity="1"/><stop id="stop4333" offset="1" stop-color="#f5fbff" stop-opacity="1"/></linearGradient><linearGradient id="linearGradient5277"><stop id="stop5279" offset="0" stop-color="#144786" stop-opacity="1"/><stop id="stop5281" offset="1" stop-color="#068edc" stop-opacity="1"/></linearGradient><linearGradient id="linearGradient4172" x1="419.086" x2="419.086" y1="-547.798" y2="-499.791" gradientTransform="translate(-384.57144,499.79798)" gradientUnits="userSpaceOnUse" xlink:href="#linearGradient5277"/><linearGradient id="linearGradient4184" x1="24" x2="24" y1="39.4" y2="8.6" gradientTransform="matrix(0.99997462,0,0,0.99997462,6.0902351e-4,6.0882351e-4)" gradientUnits="userSpaceOnUse" xlink:href="#linearGradient4329"/></defs><rect id="rect2991-1-7" width="48" height="48" x="0" y="-48" fill="url(#linearGradient4172)" fill-opacity="1" stroke="none" ry="1.945" transform="scale(1,-1)"/><path id="rect846" fill="#000" fill-opacity="1" stroke="none" d="m -1e-5,45.00001 0,1.0625 c 0,1.0773 0.86022,1.9375 1.9375,1.9375 l 44.125,0 c 1.07728,0 1.9375,-0.8602 1.9375,-1.9375 l 0,-1.0625 c 0,1.0773 -0.86022,1.9375 -1.9375,1.9375 l -44.125,0 c -1.07728,0 -1.9375,-0.8602 -1.9375,-1.9375 z"/><path id="path7515" fill="#fff" fill-opacity=".537" stroke="none" d="m 2.53124,0.65631 c -0.91709,0 -1.67115,0.6395 -1.84375,1.5 0.33561,-0.2799 0.77451,-0.4375 1.25,-0.4375 l 44.125,0 c 0.47549,0 0.91439,0.1576 1.25,0.4375 -0.1726,-0.8605 -0.92666,-1.5 -1.84375,-1.5 l -42.9375,0 z"/><path id="rect4280" fill="#000" fill-opacity=".392" stroke="none" d="m 1.93749,1e-5 c -1.07728,0 -1.9375,0.8602 -1.9375,1.9375 l 0,43.0625 c 0,0.7934 0.48002,1.449 1.15625,1.75 -0.30934,-0.3333 -0.5,-0.7824 -0.5,-1.2812 l 0,-42.9375 c 0,-1.0482 0.8269,-1.875 1.875,-1.875 l 42.9375,0 c 1.0481,0 1.875,0.8268 1.875,1.875 l 0,42.9375 c 0,0.4988 -0.19066,0.9479 -0.5,1.2812 0.67623,-0.301 1.15625,-0.9566 1.15625,-1.75 l 0,-43.0625 c 0,-1.0773 -0.86022,-1.9375 -1.9375,-1.9375 l -44.125,0 z"/><rect id="rect4167" width="12" height="30.8" x="8.6" y="8.6" fill="#d4e5f9" fill-opacity="1" stroke="none" ry=".4"/><rect id="rect4171" width="12" height="19.4" x="27.4" y="8.6" fill="#d4e5f9" fill-opacity="1" stroke="none" ry=".4"/><path id="path4196" fill="#000" fill-opacity=".059" stroke="none" d="m 9.0003806,9.8 c -0.221593,0 -0.4003804,0.1787874 -0.4003804,0.40038 l 0,29.999239 c 0,0.221594 0.1787874,0.400381 0.4003804,0.400381 l 11.1989354,0 c 0.221592,0 0.400379,-0.178787 0.400379,-0.400381 l 0,-29.999239 C 20.599695,9.9787874 20.420908,9.8 20.199316,9.8 l -11.1989354,0 z m 18.8003044,0 c -0.221593,0 -0.40038,0.1787874 -0.40038,0.40038 l 0,18.599137 c 0,0.221594 0.178787,0.400381 0.40038,0.400381 l 11.198935,0 c 0.221593,0 0.40038,-0.178787 0.40038,-0.400381 l 0,-18.599137 C 39.4,9.9787874 39.221213,9.8 38.99962,9.8 l -11.198935,0 z"/><path id="path4194" fill="#000" fill-opacity=".118" stroke="none" d="m 9.0003806,9.4 c -0.221593,0 -0.4003804,0.1787874 -0.4003804,0.4003804 l 0,29.9992386 c 0,0.221594 0.1787874,0.400381 0.4003804,0.400381 l 11.1989354,0 c 0.221592,0 0.400379,-0.178787 0.400379,-0.400381 l 0,-29.9992386 C 20.599695,9.5787874 20.420908,9.4 20.199316,9.4 l -11.1989354,0 z m 18.8003044,0 c -0.221593,0 -0.40038,0.1787874 -0.40038,0.4003804 l 0,18.5991366 c 0,0.221594 0.178787,0.400381 0.40038,0.400381 l 11.198935,0 c 0.221593,0 0.40038,-0.178787 0.40038,-0.400381 l 0,-18.5991366 C 39.4,9.5787874 39.221213,9.4 38.99962,9.4 l -11.198935,0 z"/><path id="path4188" fill="#000" fill-opacity=".235" stroke="none" d="M 9.0003806,9 C 8.7787876,9 8.6000002,9.1787874 8.6000002,9.4003804 l 0,29.9992386 c 0,0.221594 0.1787874,0.400381 0.4003804,0.400381 l 11.1989354,0 c 0.221592,0 0.400379,-0.178787 0.400379,-0.400381 l 0,-29.9992386 C 20.599695,9.1787874 20.420908,9 20.199316,9 L 9.0003806,9 Z M 27.800685,9 c -0.221593,0 -0.40038,0.1787874 -0.40038,0.4003804 l 0,18.5991366 c 0,0.221594 0.178787,0.400381 0.40038,0.400381 l 11.198935,0 c 0.221593,0 0.40038,-0.178787 0.40038,-0.400381 l 0,-18.5991366 C 39.4,9.1787874 39.221213,9 38.99962,9 L 27.800685,9 Z"/><path id="rect4173" fill="url(#linearGradient4184)" fill-opacity="1" stroke="none" d="m 9.0003806,8.6 c -0.221593,0 -0.4003804,0.1787874 -0.4003804,0.4003804 l 0,29.9992386 c 0,0.221594 0.1787874,0.400381 0.4003804,0.400381 l 11.1989354,0 c 0.221592,0 0.400379,-0.178787 0.400379,-0.400381 l 0,-29.9992386 C 20.599695,8.7787874 20.420908,8.6 20.199316,8.6 l -11.1989354,0 z m 18.8003044,0 c -0.221593,0 -0.40038,0.1787874 -0.40038,0.4003804 l 0,18.5991366 c 0,0.221594 0.178787,0.400381 0.40038,0.400381 l 11.198935,0 c 0.221593,0 0.40038,-0.178787 0.40038,-0.400381 l 0,-18.5991366 C 39.4,8.7787874 39.221213,8.6 38.99962,8.6 l -11.198935,0 z"/><path id="path4198" fill="#134b8b" fill-opacity=".314" stroke="none" d="M 27.400391 26.798828 L 27.400391 27.599609 C 27.400391 27.821203 27.579188 28 27.800781 28 L 39 28 C 39.221593 28 39.400391 27.821203 39.400391 27.599609 L 39.400391 26.798828 C 39.400391 27.020422 39.221593 27.199219 39 27.199219 L 27.800781 27.199219 C 27.579188 27.199219 27.400391 27.020422 27.400391 26.798828 z M 8.5996094 38.199219 L 8.5996094 39 C 8.5996094 39.221594 8.778407 39.400391 9 39.400391 L 20.199219 39.400391 C 20.420811 39.400391 20.599609 39.221594 20.599609 39 L 20.599609 38.199219 C 20.599609 38.420813 20.420811 38.599609 20.199219 38.599609 L 9 38.599609 C 8.778407 38.599609 8.5996094 38.420813 8.5996094 38.199219 z"/><path id="path4203" fill="#fff" fill-opacity=".235" stroke="none" d="M 9 8.5996094 C 8.778407 8.5996094 8.5996094 8.778407 8.5996094 9 L 8.5996094 9.4003906 C 8.5996094 9.1787976 8.778407 9 9 9 L 20.199219 9 C 20.420811 9 20.599609 9.1787976 20.599609 9.4003906 L 20.599609 9 C 20.599609 8.778407 20.420811 8.5996094 20.199219 8.5996094 L 9 8.5996094 z M 27.800781 8.5996094 C 27.579188 8.5996094 27.400391 8.778407 27.400391 9 L 27.400391 9.4003906 C 27.400391 9.1787976 27.579188 9 27.800781 9 L 39 9 C 39.221593 9 39.400391 9.1787976 39.400391 9.4003906 L 39.400391 9 C 39.400391 8.778407 39.221593 8.5996094 39 8.5996094 L 27.800781 8.5996094 z"/></svg>