<svg xmlns="http://www.w3.org/2000/svg" xmlns:svg="http://www.w3.org/2000/svg" xmlns:xlink="http://www.w3.org/1999/xlink" id="svg2" width="48" height="48" version="1.1"><defs id="defs4"><linearGradient id="linearGradient1614"><stop id="stop1616" offset="0" stop-color="#e4e4e6" stop-opacity="1"/><stop id="stop1618" offset="1" stop-color="#fff" stop-opacity="1"/></linearGradient><linearGradient id="linearGradient1582"><stop id="stop1584" offset="0" stop-color="#fff" stop-opacity="1"/><stop id="stop1586" offset="1" stop-color="#fff" stop-opacity="0"/></linearGradient><linearGradient id="linearGradient1571"><stop id="stop1573" offset="0" stop-color="#f96563" stop-opacity="1"/><stop id="stop1575" offset="1" stop-color="#ff6766" stop-opacity="1"/></linearGradient><linearGradient id="linearGradient1552"><stop id="stop1554" offset="0" stop-color="#ec020b" stop-opacity="1"/><stop id="stop1556" offset="1" stop-color="#e10505" stop-opacity="1"/></linearGradient><linearGradient id="linearGradient1558" x1="-24.749" x2="-24.749" y1="1092.844" y2="1028.321" gradientTransform="matrix(0.4421892,0,0,0.4421892,-10.293293,559.05693)" gradientUnits="userSpaceOnUse" xlink:href="#linearGradient1552"/><linearGradient id="linearGradient1569" x1="-24.749" x2="-24.749" y1="1092.844" y2="1028.321" gradientTransform="matrix(0.4421892,0,0,0.09169429,-10.293293,919.49261)" gradientUnits="userSpaceOnUse" xlink:href="#linearGradient1571"/><radialGradient id="radialGradient1588" cx="-25.25" cy="36.75" r="14.375" fx="-25.25" fy="36.75" gradientTransform="matrix(0.4421892,0,0,0.01922562,-10.293293,1018.7189)" gradientUnits="userSpaceOnUse" xlink:href="#linearGradient1582"/><linearGradient id="linearGradient1620" x1="22.981" x2="22.981" y1="-1052.372" y2="-1004.412" gradientUnits="userSpaceOnUse" xlink:href="#linearGradient1614"/><linearGradient id="linearGradient3571" x1="339.643" x2="339.643" y1="765.768" y2="725.589" gradientTransform="matrix(1.9652174,0,0,1.9652174,-593.1739,-530.63562)" gradientUnits="userSpaceOnUse" xlink:href="#linearGradient5149"/><linearGradient id="linearGradient5149"><stop id="stop5151" offset="0" stop-color="#333" stop-opacity="1"/><stop id="stop5153" offset=".133" stop-color="#737373" stop-opacity="1"/><stop id="stop5155" offset=".467" stop-color="#fff" stop-opacity="1"/><stop id="stop5157-4" offset=".6" stop-color="#686868" stop-opacity="1"/><stop id="stop5159-3" offset="1" stop-color="#333" stop-opacity="1"/></linearGradient><filter id="filter5703" width="1.651" height="1.651" x="-.325" y="-.325" color-interpolation-filters="sRGB"><feGaussianBlur id="feGaussianBlur5705" stdDeviation="5.763"/></filter><radialGradient id="radialGradient3567" cx="340.211" cy="760.172" r="13.5" fx="340.211" fy="760.172" gradientTransform="matrix(6.2346247,1.1545645,-1.9496272,10.527948,-575.26439,-7358.4142)" gradientUnits="userSpaceOnUse" xlink:href="#linearGradient5161"/><linearGradient id="linearGradient5161"><stop id="stop5163-3" offset="0" stop-color="#333" stop-opacity="1"/><stop id="stop5165-7" offset=".25" stop-color="#afafaf" stop-opacity="1"/><stop id="stop5167-8" offset=".375" stop-color="#fff" stop-opacity="1"/><stop id="stop5169" offset=".5" stop-color="#b1b1b1" stop-opacity="1"/><stop id="stop5171" offset="1" stop-color="#818181" stop-opacity="1"/></linearGradient><linearGradient id="linearGradient3569" x1="339.643" x2="339.643" y1="765.768" y2="725.589" gradientTransform="matrix(1.9652174,0,0,1.9652174,-593.1739,-530.63562)" gradientUnits="userSpaceOnUse" xlink:href="#linearGradient5149"/><filter id="filter5766" color-interpolation-filters="sRGB"><feGaussianBlur id="feGaussianBlur5768" result="result8" stdDeviation="4"/><feOffset id="feOffset5770" dx="4" dy="4" result="result11"/><feComposite id="feComposite5772" in="SourceGraphic" in2="result11" operator="in" result="result6"/><feFlood id="feFlood5774" flood-color="#000" flood-opacity="1" in="result6" result="result10"/><feBlend id="feBlend5776" in="result6" in2="result10" mode="normal" result="result12"/><feComposite id="feComposite5778" in2="SourceGraphic" operator="in" result="result2"/></filter><radialGradient id="radialGradient3576" cx="296" cy="0" r="29.532" fx="296" fy="0" gradientTransform="matrix(0,0.05378172,-0.05378172,0,9.5543757,992.0464)" gradientUnits="userSpaceOnUse" xlink:href="#linearGradient5707"/><linearGradient id="linearGradient5707"><stop id="stop5709" offset="0" stop-color="#7e7e7e" stop-opacity="1"/><stop id="stop5711" offset=".307" stop-color="#b4b4b4" stop-opacity="1"/><stop id="stop5713" offset=".7" stop-color="#fff" stop-opacity="1"/><stop id="stop5715" offset=".874" stop-color="#909090" stop-opacity="1"/><stop id="stop5717" offset="1" stop-color="#666" stop-opacity="1"/></linearGradient><radialGradient id="radialGradient3561" cx="293.119" cy=".812" r="29.467" fx="293.119" fy=".812" gradientTransform="matrix(1.4385613,1.4819193,-1.5005369,1.4566342,-120.26907,-438.17517)" gradientUnits="userSpaceOnUse" xlink:href="#linearGradient4552"/><linearGradient id="linearGradient4552"><stop id="stop4554" offset="0" stop-color="#7e7e7e" stop-opacity="1"/><stop id="stop4556-9" offset=".307" stop-color="#b4b4b4" stop-opacity="1"/><stop id="stop4558-8" offset=".432" stop-color="#fff" stop-opacity="1"/><stop id="stop4560-8" offset=".557" stop-color="#909090" stop-opacity="1"/><stop id="stop4562-5" offset="1" stop-color="#666" stop-opacity="1"/></linearGradient><linearGradient id="linearGradient3563" x1="267.25" x2="324.75" y1="0" y2="0" gradientUnits="userSpaceOnUse" xlink:href="#linearGradient4786"/><linearGradient id="linearGradient4786"><stop id="stop4788" offset="0" stop-color="#333" stop-opacity="1"/><stop id="stop4790-9" offset=".263" stop-color="#737373" stop-opacity="1"/><stop id="stop4792-9" offset=".388" stop-color="#fff" stop-opacity="1"/><stop id="stop4794-3" offset=".513" stop-color="#686868" stop-opacity="1"/><stop id="stop4796-2" offset="1" stop-color="#333" stop-opacity="1"/></linearGradient><filter id="filter5723" color-interpolation-filters="sRGB"><feGaussianBlur id="feGaussianBlur5725" stdDeviation=".169"/></filter><radialGradient id="radialGradient3559" cx="296" cy="0" r="29.532" fx="296" fy="0" gradientTransform="matrix(-0.42093717,1.5709589,-2.7103462,-0.72623509,420.5974,-465.00384)" gradientUnits="userSpaceOnUse" xlink:href="#linearGradient4552"/><filter id="filter4774" color-interpolation-filters="sRGB"><feGaussianBlur id="feGaussianBlur4776" stdDeviation="2.301"/></filter><radialGradient id="radialGradient3581" cx="296" cy="0" r="28.48" fx="296" fy="0" gradientTransform="matrix(-0.07333871,0,0,-0.07333871,31.262633,1007.9658)" gradientUnits="userSpaceOnUse" xlink:href="#linearGradient5679"/><linearGradient id="linearGradient5679"><stop id="stop5681" offset="0" stop-color="#7e7e7e" stop-opacity="1"/><stop id="stop5683" offset=".307" stop-color="#b4b4b4" stop-opacity="1"/><stop id="stop5685" offset=".904" stop-color="#fff" stop-opacity="1"/><stop id="stop5687" offset=".967" stop-color="#909090" stop-opacity="1"/><stop id="stop5689" offset="1" stop-color="#666" stop-opacity="1"/></linearGradient><linearGradient id="linearGradient3583" x1="248.083" x2="360.063" y1="35.049" y2="5.045" gradientTransform="matrix(-0.07333871,0,0,-0.07333871,31.262633,1007.9658)" gradientUnits="userSpaceOnUse" xlink:href="#linearGradient4552"/><linearGradient id="linearGradient1490" x1="260.35" x2="360.819" y1="31.461" y2="4.54" gradientTransform="matrix(-0.07333871,0,0,-0.07333871,31.262633,1007.9658)" gradientUnits="userSpaceOnUse" xlink:href="#linearGradient4552"/><linearGradient id="linearGradient1492" x1="248.083" x2="360.063" y1="35.049" y2="5.045" gradientTransform="matrix(-0.07333871,0,0,-0.07333871,31.262633,1007.9658)" gradientUnits="userSpaceOnUse" xlink:href="#linearGradient4552"/><linearGradient id="linearGradient1978" x1="260.35" x2="360.819" y1="31.461" y2="4.54" gradientTransform="matrix(-0.07333871,0,0,-0.07333871,31.262633,1007.9658)" gradientUnits="userSpaceOnUse" xlink:href="#linearGradient4552"/><linearGradient id="linearGradient1980" x1="248.083" x2="360.063" y1="35.049" y2="5.045" gradientTransform="matrix(-0.07333871,0,0,-0.07333871,31.262633,1007.9658)" gradientUnits="userSpaceOnUse" xlink:href="#linearGradient4552"/><radialGradient id="radialGradient1982" cx="296" cy="0" r="28.48" fx="296" fy="0" gradientTransform="matrix(-0.07333871,0,0,-0.07333871,31.262633,1007.9658)" gradientUnits="userSpaceOnUse" xlink:href="#linearGradient5679"/><linearGradient id="linearGradient1984" x1="248.083" x2="360.063" y1="35.049" y2="5.045" gradientTransform="matrix(-0.07333871,0,0,-0.07333871,31.262633,1007.9658)" gradientUnits="userSpaceOnUse" xlink:href="#linearGradient4552"/><radialGradient id="radialGradient1986" cx="296" cy="0" r="29.532" fx="296" fy="0" gradientTransform="matrix(-0.42093717,1.5709589,-2.7103462,-0.72623509,420.5974,-465.00384)" gradientUnits="userSpaceOnUse" xlink:href="#linearGradient4552"/><radialGradient id="radialGradient1988" cx="293.119" cy=".812" r="29.467" fx="293.119" fy=".812" gradientTransform="matrix(1.4385613,1.4819193,-1.5005369,1.4566342,-120.26907,-438.17517)" gradientUnits="userSpaceOnUse" xlink:href="#linearGradient4552"/><linearGradient id="linearGradient1990" x1="267.25" x2="324.75" y1="0" y2="0" gradientUnits="userSpaceOnUse" xlink:href="#linearGradient4786"/><radialGradient id="radialGradient1992" cx="296" cy="0" r="29.532" fx="296" fy="0" gradientTransform="matrix(0,0.05378172,-0.05378172,0,9.5543757,992.0464)" gradientUnits="userSpaceOnUse" xlink:href="#linearGradient5707"/><radialGradient id="radialGradient1994" cx="340.211" cy="760.172" r="13.5" fx="340.211" fy="760.172" gradientTransform="matrix(6.2346247,1.1545645,-1.9496272,10.527948,-575.26439,-7358.4142)" gradientUnits="userSpaceOnUse" xlink:href="#linearGradient5161"/><linearGradient id="linearGradient1996" x1="339.643" x2="339.643" y1="765.768" y2="725.589" gradientTransform="matrix(1.9652174,0,0,1.9652174,-593.1739,-530.63562)" gradientUnits="userSpaceOnUse" xlink:href="#linearGradient5149"/><linearGradient id="linearGradient1998" x1="339.643" x2="339.643" y1="765.768" y2="725.589" gradientTransform="matrix(1.9652174,0,0,1.9652174,-593.1739,-530.63562)" gradientUnits="userSpaceOnUse" xlink:href="#linearGradient5149"/><linearGradient id="linearGradient2066" x1="260.35" x2="360.819" y1="31.461" y2="4.54" gradientTransform="matrix(-0.06339088,-0.03659874,0.03659874,-0.06339088,22.876558,1057.799)" gradientUnits="userSpaceOnUse" xlink:href="#linearGradient4552"/><linearGradient id="linearGradient2068" x1="248.083" x2="360.063" y1="35.049" y2="5.045" gradientTransform="matrix(-0.06339088,-0.03659874,0.03659874,-0.06339088,22.876558,1057.799)" gradientUnits="userSpaceOnUse" xlink:href="#linearGradient4552"/><radialGradient id="radialGradient2070" cx="296" cy="0" r="28.48" fx="296" fy="0" gradientTransform="matrix(-0.06339088,-0.03659874,0.03659874,-0.06339088,22.876558,1057.799)" gradientUnits="userSpaceOnUse" xlink:href="#linearGradient5679"/><linearGradient id="linearGradient2072" x1="248.083" x2="360.063" y1="35.049" y2="5.045" gradientTransform="matrix(-0.06339088,-0.03659874,0.03659874,-0.06339088,22.876558,1057.799)" gradientUnits="userSpaceOnUse" xlink:href="#linearGradient4552"/><radialGradient id="radialGradient2074" cx="296" cy="0" r="29.532" fx="296" fy="0" gradientTransform="matrix(-0.42093717,1.5709589,-2.7103462,-0.72623509,420.5974,-465.00384)" gradientUnits="userSpaceOnUse" xlink:href="#linearGradient4552"/><radialGradient id="radialGradient2076" cx="293.119" cy=".812" r="29.467" fx="293.119" fy=".812" gradientTransform="matrix(1.4385613,1.4819193,-1.5005369,1.4566342,-120.26907,-438.17517)" gradientUnits="userSpaceOnUse" xlink:href="#linearGradient4552"/><linearGradient id="linearGradient2078" x1="267.25" x2="324.75" y1="0" y2="0" gradientUnits="userSpaceOnUse" xlink:href="#linearGradient4786"/><radialGradient id="radialGradient2080" cx="296" cy="0" r="29.532" fx="296" fy="0" gradientTransform="matrix(-0.02683908,0.04648665,-0.04648665,-0.02683908,12.057231,1033.2057)" gradientUnits="userSpaceOnUse" xlink:href="#linearGradient5707"/><radialGradient id="radialGradient2082" cx="340.211" cy="760.172" r="13.5" fx="340.211" fy="760.172" gradientTransform="matrix(6.2346247,1.1545645,-1.9496272,10.527948,-575.26439,-7358.4142)" gradientUnits="userSpaceOnUse" xlink:href="#linearGradient5161"/><linearGradient id="linearGradient2084" x1="339.643" x2="339.643" y1="765.768" y2="725.589" gradientTransform="matrix(1.9652174,0,0,1.9652174,-593.1739,-530.63562)" gradientUnits="userSpaceOnUse" xlink:href="#linearGradient5149"/><linearGradient id="linearGradient2086" x1="339.643" x2="339.643" y1="765.768" y2="725.589" gradientTransform="matrix(1.9652174,0,0,1.9652174,-593.1739,-530.63562)" gradientUnits="userSpaceOnUse" xlink:href="#linearGradient5149"/><linearGradient id="linearGradient2088" x1="260.35" x2="360.819" y1="31.461" y2="4.54" gradientTransform="matrix(-0.07333871,0,0,-0.07333871,31.262633,1007.9658)" gradientUnits="userSpaceOnUse" xlink:href="#linearGradient4552"/><linearGradient id="linearGradient2090" x1="248.083" x2="360.063" y1="35.049" y2="5.045" gradientTransform="matrix(-0.07333871,0,0,-0.07333871,31.262633,1007.9658)" gradientUnits="userSpaceOnUse" xlink:href="#linearGradient4552"/><radialGradient id="radialGradient2092" cx="296" cy="0" r="28.48" fx="296" fy="0" gradientTransform="matrix(-0.07333871,0,0,-0.07333871,31.262633,1007.9658)" gradientUnits="userSpaceOnUse" xlink:href="#linearGradient5679"/><linearGradient id="linearGradient2094" x1="248.083" x2="360.063" y1="35.049" y2="5.045" gradientTransform="matrix(-0.07333871,0,0,-0.07333871,31.262633,1007.9658)" gradientUnits="userSpaceOnUse" xlink:href="#linearGradient4552"/><radialGradient id="radialGradient2096" cx="296" cy="0" r="29.532" fx="296" fy="0" gradientTransform="matrix(-0.42093717,1.5709589,-2.7103462,-0.72623509,420.5974,-465.00384)" gradientUnits="userSpaceOnUse" xlink:href="#linearGradient4552"/><radialGradient id="radialGradient2098" cx="293.119" cy=".812" r="29.467" fx="293.119" fy=".812" gradientTransform="matrix(1.4385613,1.4819193,-1.5005369,1.4566342,-120.26907,-438.17517)" gradientUnits="userSpaceOnUse" xlink:href="#linearGradient4552"/><linearGradient id="linearGradient2100" x1="267.25" x2="324.75" y1="0" y2="0" gradientUnits="userSpaceOnUse" xlink:href="#linearGradient4786"/><radialGradient id="radialGradient2102" cx="296" cy="0" r="29.532" fx="296" fy="0" gradientTransform="matrix(0,0.05378172,-0.05378172,0,9.5543757,992.0464)" gradientUnits="userSpaceOnUse" xlink:href="#linearGradient5707"/><radialGradient id="radialGradient2104" cx="340.211" cy="760.172" r="13.5" fx="340.211" fy="760.172" gradientTransform="matrix(6.2346247,1.1545645,-1.9496272,10.527948,-575.26439,-7358.4142)" gradientUnits="userSpaceOnUse" xlink:href="#linearGradient5161"/><linearGradient id="linearGradient2106" x1="339.643" x2="339.643" y1="765.768" y2="725.589" gradientTransform="matrix(1.9652174,0,0,1.9652174,-593.1739,-530.63562)" gradientUnits="userSpaceOnUse" xlink:href="#linearGradient5149"/><linearGradient id="linearGradient2108" x1="339.643" x2="339.643" y1="765.768" y2="725.589" gradientTransform="matrix(1.9652174,0,0,1.9652174,-593.1739,-530.63562)" gradientUnits="userSpaceOnUse" xlink:href="#linearGradient5149"/></defs><metadata id="metadata7"/><g id="layer1" transform="translate(0,-1004.3622)"><rect id="rect2991-1" width="48" height="48" x="0" y="-1052.362" fill="url(#linearGradient1620)" fill-opacity="1" stroke="none" ry="1.945" transform="scale(1,-1)"/><path id="rect4280" fill="#000" fill-opacity=".392" stroke="none" d="m 1.9374998,1004.3622 c -1.07727701,0 -1.93750000510864,0.8602 -1.93750000510864,1.9375 l 0,43.0625 c 0,0.7934 0.48002399510864,1.449 1.15625000510864,1.75 -0.30934201,-0.3333 -0.50000001,-0.7824 -0.50000001,-1.2812 l 0,-42.9375 c 0,-1.0482 0.82689901,-1.875 1.87500001,-1.875 l 42.9375002,0 c 1.048101,0 1.875,0.8268 1.875,1.875 l 0,42.9375 c 0,0.4988 -0.190658,0.9479 -0.5,1.2812 0.676226,-0.301 1.15625,-0.9566 1.15625,-1.75 l 0,-43.0625 c 0,-1.0773 -0.860223,-1.9375 -1.9375,-1.9375 L 1.9374998,1004.3622 Z"/><path id="path7515" fill="#fff" fill-opacity=".537" stroke="none" d="m 2.5312498,1005.0185 c -0.917088,0 -1.67114701,0.6395 -1.84375001,1.5 0.33561201,-0.2799 0.77451201,-0.4375 1.25000001,-0.4375 l 44.1250002,0 c 0.475488,0 0.914388,0.1576 1.25,0.4375 -0.172603,-0.8605 -0.926662,-1.5 -1.84375,-1.5 L 2.5312498,1005.0185 Z"/><path id="rect846" fill="#000" fill-opacity="1" stroke="none" d="m -2.0510864e-7,1049.3622 0,1.0625 c 0,1.0773 0.86022299510864,1.9375 1.93750000510864,1.9375 l 44.1250002,0 c 1.077277,0 1.9375,-0.8602 1.9375,-1.9375 l 0,-1.0625 c 0,1.0773 -0.860223,1.9375 -1.9375,1.9375 l -44.1250002,0 C 0.86022279,1051.2997 -2.0510864e-7,1050.4395 -2.0510864e-7,1049.3622 Z"/><g id="g1739" transform="matrix(1.0564556,0,0,1.0564556,46.670025,-57.725055)"><rect id="rect1548" width="14.482" height="30.29" x="-28.699" y="1012.903" fill="#000" fill-opacity="1" stroke="none" ry="0"/><rect id="rect1550" width="12.699" height="28.521" x="-27.808" y="1013.788" fill="url(#linearGradient1558)" fill-opacity="1" stroke="none" ry=".995"/><path id="rect1560" fill="#000" fill-opacity=".537" stroke="none" d="m -27.815041,1040.8578 0,0.4561 c 0,0.5512 0.443737,0.9949 0.994926,0.9949 l 10.723089,0 c 0.551189,0 0.994925,-0.4437 0.994925,-0.9949 l 0,-0.4561 c 0,0.5512 -0.443736,0.9949 -0.994925,0.9949 l -10.723089,0 C -27.371304,1041.8527 -27.815041,1041.409 -27.815041,1040.8578 Z"/><path id="rect1567" fill="url(#linearGradient1569)" fill-opacity="1" stroke="none" d="m -26.820115,1013.7875 c -0.551189,0 -0.994926,0.4437 -0.994926,0.995 l 0,4.7121 c 0,0.1149 0.09298,0.2072 0.207277,0.2072 l 12.298387,0 c 0.114297,0 0.207276,-0.093 0.207276,-0.2072 l 0,-4.7121 c 0,-0.5513 -0.443736,-0.995 -0.994925,-0.995 L -26.820115,1013.7875 Z"/><path id="rect1577" fill="url(#radialGradient1588)" fill-opacity="1" stroke="none" d="m -27.815041,1019.1491 0,0.3455 c 0,0.1149 0.09298,0.2072 0.207277,0.2072 l 12.298387,0 c 0.114297,0 0.207276,-0.093 0.207276,-0.2072 l 0,-0.3455 c 0,0.1148 -0.09298,0.2073 -0.207276,0.2073 l -12.298387,0 C -27.722061,1019.3564 -27.815041,1019.2634 -27.815041,1019.1491 Z"/><path id="path1590" fill="#000" fill-opacity=".537" stroke="none" d="m -27.815041,1015.2385 0,-0.456 c 0,-0.5511 0.443737,-0.9949 0.994926,-0.9949 l 10.723089,0 c 0.551189,0 0.994925,0.4438 0.994925,0.9949 l 0,0.456 c 0,-0.5512 -0.443736,-0.9949 -0.994925,-0.9949 l -10.723089,0 C -27.371304,1014.2436 -27.815041,1014.6873 -27.815041,1015.2385 Z"/><g id="g1610" transform="matrix(0.4421892,0,0,0.4421892,-10.293293,559.16057)"><rect id="rect1603" width="2" height="10" x="-26.25" y="1046.612" fill="#fff" fill-opacity="1" stroke="none" ry="0"/><path id="path1605" fill="#fff" fill-opacity="1" stroke="none" d="m -25.249996,1073.3622 c -3.003048,0 -5.4375,2.4345 -5.4375,5.4375 0,3.003 2.434452,5.4375 5.4375,5.4375 3.003048,0 5.4375,-2.4345 5.4375,-5.4375 C -19.812496,1075.7967 -22.246948,1073.3622 -25.249996,1073.3622 z m 0,1.6893 c 2.070062,0 3.74818,1.6781 3.74818,3.7482 0,2.0701 -1.678118,3.7482 -3.74818,3.7482 -2.070062,0 -3.74818,-1.6781 -3.74818,-3.7482 C -28.998176,1076.7296 -27.320058,1075.0515 -25.249996,1075.0515 Z"/></g></g><g id="g2176" transform="matrix(0.99254937,0,0,0.99254937,-0.40772259,7.5054809)"><g id="g2167" transform="translate(2.1513985,0)"><path id="path2036" fill="url(#linearGradient2066)" fill-opacity="1" fill-rule="nonzero" stroke="url(#linearGradient2068)" stroke-linecap="round" stroke-linejoin="round" stroke-miterlimit="4" stroke-width=".034" d="m 2.3220664,1045.9319 c 0.5709983,-0.989 1.8356705,-1.3279 2.8246974,-0.7569 0.9890265,0.571 1.3278849,1.8357 0.7568866,2.8247 -0.5709984,0.989 -1.8356705,1.3279 -2.824697,0.7569 C 2.0899264,1048.1856 1.7510681,1046.9209 2.3220664,1045.9319 Z" display="inline"/><path id="path2038" fill="url(#radialGradient2070)" fill-opacity="1" fill-rule="nonzero" stroke="url(#linearGradient2072)" stroke-linecap="round" stroke-linejoin="round" stroke-miterlimit="4" stroke-width=".034" d="m 2.3220664,1045.9319 c 0.5709983,-0.989 1.8356705,-1.3279 2.8246974,-0.7569 0.9890265,0.571 1.3278849,1.8357 0.7568866,2.8247 -0.5709984,0.989 -1.8356705,1.3279 -2.824697,0.7569 C 2.0899264,1048.1856 1.7510681,1046.9209 2.3220664,1045.9319 Z" display="inline" opacity=".595"/><path id="path2040" fill="url(#radialGradient2074)" fill-opacity="1" fill-rule="nonzero" stroke="none" d="m 324.25,0 c 0,15.602043 -12.64796,28.249998 -28.25,28.249998 -15.60204,0 -28.25,-12.647955 -28.25,-28.249998 0,-15.602043 12.64796,-28.249998 28.25,-28.249998 C 311.60204,-28.249998 324.25,-15.602043 324.25,0 Z" display="inline" filter="url(#filter4774)" transform="matrix(-0.02927899,0.0507127,-0.0507127,-0.02927899,12.779447,1031.9548)"/><path id="path2042" fill="url(#radialGradient2076)" fill-opacity="1" fill-rule="nonzero" stroke="url(#linearGradient2078)" stroke-miterlimit="4" stroke-width=".627" d="m 324.25,0 c 0,15.602043 -12.64796,28.249998 -28.25,28.249998 -15.60204,0 -28.25,-12.647955 -28.25,-28.249998 0,-15.602043 12.64796,-28.249998 28.25,-28.249998 C 311.60204,-28.249998 324.25,-15.602043 324.25,0 Z" display="inline" filter="url(#filter5723)" opacity=".5" transform="matrix(-0.02683908,0.04648665,-0.04648665,-0.02683908,12.057231,1033.2057)"/><path id="path2044" fill="url(#radialGradient2080)" fill-opacity="1" fill-rule="nonzero" stroke="none" d="m 3.354671,1048.279 c -0.7252866,-0.4187 -0.9738025,-1.3461 -0.5550604,-2.0714 0.4187421,-0.7253 1.3461481,-0.9738 2.0714348,-0.555 0.7252863,0.4187 0.9738024,1.3461 0.5550603,2.0714 C 5.0073636,1048.4493 4.0799573,1048.6978 3.354671,1048.279 Z" display="inline" opacity=".5"/><path id="path2046" fill="url(#radialGradient2082)" fill-opacity="1" stroke="url(#linearGradient2084)" stroke-linecap="butt" stroke-linejoin="miter" stroke-miterlimit="4" stroke-opacity="1" stroke-width="1.2" d="m 72,903.125 c -0.656287,-0.007 -1.256631,0.59371 -1.25,1.25 l 0,1.84375 0,1.84375 0,1.84375 0,1.84375 0,1.84375 c 0.179895,5.55039 -1.234213,5.53125 -5.53125,5.53125 l -1.84375,0 -1.84375,0 -1.84375,0 -1.84375,0 -1.84375,0 c -0.656287,-0.007 -1.256631,0.59371 -1.25,1.25 l 0,8 c -0.0066,0.65629 0.593713,1.25663 1.25,1.25 l 1.84375,0 1.84375,0 1.84375,0 1.84375,0 1.84375,0 c 5.55039,-0.17989 5.53125,1.23421 5.53125,5.53125 l 0,1.84375 0,1.84375 0,1.84375 0,1.84375 0,1.84375 c -0.0066,0.65629 0.593713,1.25663 1.25,1.25 l 8,0 c 0.656287,0.007 1.256631,-0.59371 1.25,-1.25 l 0,-1.84375 0,-1.84375 0,-1.84375 0,-1.84375 0,-1.84375 c -0.179895,-5.55039 1.234213,-5.53125 5.53125,-5.53125 l 1.84375,0 1.84375,0 1.84375,0 1.84375,0 1.84375,0 c 0.656287,0.007 1.256631,-0.59371 1.25,-1.25 l 0,-8 c 0.0066,-0.65629 -0.593713,-1.25663 -1.25,-1.25 l -1.84375,0 -1.84375,0 -1.84375,0 -1.84375,0 -1.84375,0 C 81.23086,919.30489 81.25,917.89079 81.25,913.59375 l 0,-1.84375 0,-1.84375 0,-1.84375 0,-1.84375 0,-1.84375 C 81.2566,903.71871 80.656287,903.11837 80,903.125 Z" display="inline" filter="url(#filter5766)" opacity=".655" transform="matrix(0.02915979,0.01683541,-0.01683541,0.02915979,17.458958,1018.7317)"/><path id="path2048" fill="#fff" fill-opacity="1" stroke="url(#linearGradient2086)" stroke-linecap="butt" stroke-linejoin="miter" stroke-miterlimit="4" stroke-opacity="1" stroke-width="1.2" d="m 72,903.125 a 1.2375606,1.2375606 0 0 0 -1.25,1.25 l 0,14.75 -14.75,0 a 1.2375606,1.2375606 0 0 0 -1.25,1.25 l 0,8 a 1.2375606,1.2375606 0 0 0 1.25,1.25 l 14.75,0 0,14.75 a 1.2375606,1.2375606 0 0 0 1.25,1.25 l 8,0 a 1.2375606,1.2375606 0 0 0 1.25,-1.25 l 0,-14.75 14.75,0 a 1.2375606,1.2375606 0 0 0 1.25,-1.25 l 0,-8 A 1.2375606,1.2375606 0 0 0 96,919.125 l -14.75,0 0,-14.75 A 1.2375606,1.2375606 0 0 0 80,903.125 L 72,903.125 Z" display="inline" filter="url(#filter5703)" opacity=".797" transform="matrix(0.01093492,0.00631328,-0.00631328,0.01093492,9.1176447,1036.378)"/></g><g id="g1953" transform="matrix(0.93957981,0,0,0.93957981,-2.7049091,62.940742)"><path id="path4618" fill="url(#linearGradient1490)" fill-opacity="1" fill-rule="nonzero" stroke="url(#linearGradient1492)" stroke-linecap="round" stroke-linejoin="round" stroke-miterlimit="4" stroke-width=".034" d="m 7.4825578,1007.9658 c 0,-1.1442 0.927585,-2.0718 2.0718184,-2.0718 1.1442328,0 2.0718178,0.9276 2.0718178,2.0718 0,1.1442 -0.927585,2.0718 -2.0718178,2.0718 C 8.4101428,1010.0376 7.4825578,1009.11 7.4825578,1007.9658 Z" display="inline"/><path id="path5673" fill="url(#radialGradient3581)" fill-opacity="1" fill-rule="nonzero" stroke="url(#linearGradient3583)" stroke-linecap="round" stroke-linejoin="round" stroke-miterlimit="4" stroke-width=".034" d="m 7.4825578,1007.9658 c 0,-1.1442 0.927585,-2.0718 2.0718184,-2.0718 1.1442328,0 2.0718178,0.9276 2.0718178,2.0718 0,1.1442 -0.927585,2.0718 -2.0718178,2.0718 C 8.4101428,1010.0376 7.4825578,1009.11 7.4825578,1007.9658 Z" display="inline" opacity=".595"/><path id="path4770" fill="url(#radialGradient3559)" fill-opacity="1" fill-rule="nonzero" stroke="none" d="m 324.25,0 c 0,15.602043 -12.64796,28.249998 -28.25,28.249998 -15.60204,0 -28.25,-12.647955 -28.25,-28.249998 0,-15.602043 12.64796,-28.249998 28.25,-28.249998 C 311.60204,-28.249998 324.25,-15.602043 324.25,0 Z" display="inline" filter="url(#filter4774)" transform="matrix(0,0.05867096,-0.05867096,0,9.5543757,990.59918)"/><path id="path4780" fill="url(#radialGradient3561)" fill-opacity="1" fill-rule="nonzero" stroke="url(#linearGradient3563)" stroke-miterlimit="4" stroke-width=".627" d="m 324.25,0 c 0,15.602043 -12.64796,28.249998 -28.25,28.249998 -15.60204,0 -28.25,-12.647955 -28.25,-28.249998 0,-15.602043 12.64796,-28.249998 28.25,-28.249998 C 311.60204,-28.249998 324.25,-15.602043 324.25,0 Z" display="inline" filter="url(#filter5723)" opacity=".5" transform="matrix(0,0.05378172,-0.05378172,0,9.5543757,992.0464)"/><path id="path4740" fill="url(#radialGradient3576)" fill-opacity="1" fill-rule="nonzero" stroke="none" d="m 9.5543757,1009.4851 c -0.8391047,0 -1.5193334,-0.6802 -1.5193334,-1.5193 0,-0.8391 0.6802287,-1.5193 1.5193334,-1.5193 0.8391043,0 1.5193333,0.6802 1.5193333,1.5193 C 11.073709,1008.8049 10.39348,1009.4851 9.5543757,1009.4851 Z" display="inline" opacity=".5"/><path id="path4696" fill="url(#radialGradient3567)" fill-opacity="1" stroke="url(#linearGradient3569)" stroke-linecap="butt" stroke-linejoin="miter" stroke-miterlimit="4" stroke-opacity="1" stroke-width="1.2" d="m 72,903.125 c -0.656287,-0.007 -1.256631,0.59371 -1.25,1.25 l 0,1.84375 0,1.84375 0,1.84375 0,1.84375 0,1.84375 c 0.179895,5.55039 -1.234213,5.53125 -5.53125,5.53125 l -1.84375,0 -1.84375,0 -1.84375,0 -1.84375,0 -1.84375,0 c -0.656287,-0.007 -1.256631,0.59371 -1.25,1.25 l 0,8 c -0.0066,0.65629 0.593713,1.25663 1.25,1.25 l 1.84375,0 1.84375,0 1.84375,0 1.84375,0 1.84375,0 c 5.55039,-0.17989 5.53125,1.23421 5.53125,5.53125 l 0,1.84375 0,1.84375 0,1.84375 0,1.84375 0,1.84375 c -0.0066,0.65629 0.593713,1.25663 1.25,1.25 l 8,0 c 0.656287,0.007 1.256631,-0.59371 1.25,-1.25 l 0,-1.84375 0,-1.84375 0,-1.84375 0,-1.84375 0,-1.84375 c -0.179895,-5.55039 1.234213,-5.53125 5.53125,-5.53125 l 1.84375,0 1.84375,0 1.84375,0 1.84375,0 1.84375,0 c 0.656287,0.007 1.256631,-0.59371 1.25,-1.25 l 0,-8 c 0.0066,-0.65629 -0.593713,-1.25663 -1.25,-1.25 l -1.84375,0 -1.84375,0 -1.84375,0 -1.84375,0 -1.84375,0 C 81.23086,919.30489 81.25,917.89079 81.25,913.59375 l 0,-1.84375 0,-1.84375 0,-1.84375 0,-1.84375 0,-1.84375 C 81.2566,903.71871 80.656287,903.11837 80,903.125 Z" display="inline" filter="url(#filter5766)" opacity=".655" transform="matrix(0.03373579,0,0,0.03373579,6.9904553,976.78126)"/><path id="path5693" fill="#fff" fill-opacity="1" stroke="url(#linearGradient3571)" stroke-linecap="butt" stroke-linejoin="miter" stroke-miterlimit="4" stroke-opacity="1" stroke-width="1.2" d="m 72,903.125 a 1.2375606,1.2375606 0 0 0 -1.25,1.25 l 0,14.75 -14.75,0 a 1.2375606,1.2375606 0 0 0 -1.25,1.25 l 0,8 a 1.2375606,1.2375606 0 0 0 1.25,1.25 l 14.75,0 0,14.75 a 1.2375606,1.2375606 0 0 0 1.25,1.25 l 8,0 a 1.2375606,1.2375606 0 0 0 1.25,-1.25 l 0,-14.75 14.75,0 a 1.2375606,1.2375606 0 0 0 1.25,-1.25 l 0,-8 A 1.2375606,1.2375606 0 0 0 96,919.125 l -14.75,0 0,-14.75 A 1.2375606,1.2375606 0 0 0 80,903.125 L 72,903.125 Z" display="inline" filter="url(#filter5703)" opacity=".797" transform="matrix(0.01265092,0,0,0.01265092,8.5929058,996.2716)"/></g><g id="g1962" transform="matrix(0.66438325,-0.66438325,0.66438325,0.66438325,-633.03686,346.67723)"><path id="path1964" fill="url(#linearGradient1978)" fill-opacity="1" fill-rule="nonzero" stroke="url(#linearGradient1980)" stroke-linecap="round" stroke-linejoin="round" stroke-miterlimit="4" stroke-width=".034" d="m 7.4825578,1007.9658 c 0,-1.1442 0.927585,-2.0718 2.0718184,-2.0718 1.1442328,0 2.0718178,0.9276 2.0718178,2.0718 0,1.1442 -0.927585,2.0718 -2.0718178,2.0718 C 8.4101428,1010.0376 7.4825578,1009.11 7.4825578,1007.9658 Z" display="inline"/><path id="path1966" fill="url(#radialGradient1982)" fill-opacity="1" fill-rule="nonzero" stroke="url(#linearGradient1984)" stroke-linecap="round" stroke-linejoin="round" stroke-miterlimit="4" stroke-width=".034" d="m 7.4825578,1007.9658 c 0,-1.1442 0.927585,-2.0718 2.0718184,-2.0718 1.1442328,0 2.0718178,0.9276 2.0718178,2.0718 0,1.1442 -0.927585,2.0718 -2.0718178,2.0718 C 8.4101428,1010.0376 7.4825578,1009.11 7.4825578,1007.9658 Z" display="inline" opacity=".595"/><path id="path1968" fill="url(#radialGradient1986)" fill-opacity="1" fill-rule="nonzero" stroke="none" d="m 324.25,0 c 0,15.602043 -12.64796,28.249998 -28.25,28.249998 -15.60204,0 -28.25,-12.647955 -28.25,-28.249998 0,-15.602043 12.64796,-28.249998 28.25,-28.249998 C 311.60204,-28.249998 324.25,-15.602043 324.25,0 Z" display="inline" filter="url(#filter4774)" transform="matrix(0,0.05867096,-0.05867096,0,9.5543757,990.59918)"/><path id="path1970" fill="url(#radialGradient1988)" fill-opacity="1" fill-rule="nonzero" stroke="url(#linearGradient1990)" stroke-miterlimit="4" stroke-width=".627" d="m 324.25,0 c 0,15.602043 -12.64796,28.249998 -28.25,28.249998 -15.60204,0 -28.25,-12.647955 -28.25,-28.249998 0,-15.602043 12.64796,-28.249998 28.25,-28.249998 C 311.60204,-28.249998 324.25,-15.602043 324.25,0 Z" display="inline" filter="url(#filter5723)" opacity=".5" transform="matrix(0,0.05378172,-0.05378172,0,9.5543757,992.0464)"/><path id="path1972" fill="url(#radialGradient1992)" fill-opacity="1" fill-rule="nonzero" stroke="none" d="m 9.5543757,1009.4851 c -0.8391047,0 -1.5193334,-0.6802 -1.5193334,-1.5193 0,-0.8391 0.6802287,-1.5193 1.5193334,-1.5193 0.8391043,0 1.5193333,0.6802 1.5193333,1.5193 C 11.073709,1008.8049 10.39348,1009.4851 9.5543757,1009.4851 Z" display="inline" opacity=".5"/><path id="path1974" fill="url(#radialGradient1994)" fill-opacity="1" stroke="url(#linearGradient1996)" stroke-linecap="butt" stroke-linejoin="miter" stroke-miterlimit="4" stroke-opacity="1" stroke-width="1.2" d="m 72,903.125 c -0.656287,-0.007 -1.256631,0.59371 -1.25,1.25 l 0,1.84375 0,1.84375 0,1.84375 0,1.84375 0,1.84375 c 0.179895,5.55039 -1.234213,5.53125 -5.53125,5.53125 l -1.84375,0 -1.84375,0 -1.84375,0 -1.84375,0 -1.84375,0 c -0.656287,-0.007 -1.256631,0.59371 -1.25,1.25 l 0,8 c -0.0066,0.65629 0.593713,1.25663 1.25,1.25 l 1.84375,0 1.84375,0 1.84375,0 1.84375,0 1.84375,0 c 5.55039,-0.17989 5.53125,1.23421 5.53125,5.53125 l 0,1.84375 0,1.84375 0,1.84375 0,1.84375 0,1.84375 c -0.0066,0.65629 0.593713,1.25663 1.25,1.25 l 8,0 c 0.656287,0.007 1.256631,-0.59371 1.25,-1.25 l 0,-1.84375 0,-1.84375 0,-1.84375 0,-1.84375 0,-1.84375 c -0.179895,-5.55039 1.234213,-5.53125 5.53125,-5.53125 l 1.84375,0 1.84375,0 1.84375,0 1.84375,0 1.84375,0 c 0.656287,0.007 1.256631,-0.59371 1.25,-1.25 l 0,-8 c 0.0066,-0.65629 -0.593713,-1.25663 -1.25,-1.25 l -1.84375,0 -1.84375,0 -1.84375,0 -1.84375,0 -1.84375,0 C 81.23086,919.30489 81.25,917.89079 81.25,913.59375 l 0,-1.84375 0,-1.84375 0,-1.84375 0,-1.84375 0,-1.84375 C 81.2566,903.71871 80.656287,903.11837 80,903.125 Z" display="inline" filter="url(#filter5766)" opacity=".655" transform="matrix(0.03373579,0,0,0.03373579,6.9904553,976.78126)"/><path id="path1976" fill="#fff" fill-opacity="1" stroke="url(#linearGradient1998)" stroke-linecap="butt" stroke-linejoin="miter" stroke-miterlimit="4" stroke-opacity="1" stroke-width="1.2" d="m 72,903.125 a 1.2375606,1.2375606 0 0 0 -1.25,1.25 l 0,14.75 -14.75,0 a 1.2375606,1.2375606 0 0 0 -1.25,1.25 l 0,8 a 1.2375606,1.2375606 0 0 0 1.25,1.25 l 14.75,0 0,14.75 a 1.2375606,1.2375606 0 0 0 1.25,1.25 l 8,0 a 1.2375606,1.2375606 0 0 0 1.25,-1.25 l 0,-14.75 14.75,0 a 1.2375606,1.2375606 0 0 0 1.25,-1.25 l 0,-8 A 1.2375606,1.2375606 0 0 0 96,919.125 l -14.75,0 0,-14.75 A 1.2375606,1.2375606 0 0 0 80,903.125 L 72,903.125 Z" display="inline" filter="url(#filter5703)" opacity=".797" transform="matrix(0.01265092,0,0,0.01265092,8.5929058,996.2716)"/></g><g id="g2050" transform="matrix(-0.66438325,-0.66438325,-0.66438325,0.66438325,719.00984,383.39154)"><path id="path2052" fill="url(#linearGradient2088)" fill-opacity="1" fill-rule="nonzero" stroke="url(#linearGradient2090)" stroke-linecap="round" stroke-linejoin="round" stroke-miterlimit="4" stroke-width=".034" d="m 7.4825578,1007.9658 c 0,-1.1442 0.927585,-2.0718 2.0718184,-2.0718 1.1442328,0 2.0718178,0.9276 2.0718178,2.0718 0,1.1442 -0.927585,2.0718 -2.0718178,2.0718 C 8.4101428,1010.0376 7.4825578,1009.11 7.4825578,1007.9658 Z" display="inline"/><path id="path2054" fill="url(#radialGradient2092)" fill-opacity="1" fill-rule="nonzero" stroke="url(#linearGradient2094)" stroke-linecap="round" stroke-linejoin="round" stroke-miterlimit="4" stroke-width=".034" d="m 7.4825578,1007.9658 c 0,-1.1442 0.927585,-2.0718 2.0718184,-2.0718 1.1442328,0 2.0718178,0.9276 2.0718178,2.0718 0,1.1442 -0.927585,2.0718 -2.0718178,2.0718 C 8.4101428,1010.0376 7.4825578,1009.11 7.4825578,1007.9658 Z" display="inline" opacity=".595"/><path id="path2056" fill="url(#radialGradient2096)" fill-opacity="1" fill-rule="nonzero" stroke="none" d="m 324.25,0 c 0,15.602043 -12.64796,28.249998 -28.25,28.249998 -15.60204,0 -28.25,-12.647955 -28.25,-28.249998 0,-15.602043 12.64796,-28.249998 28.25,-28.249998 C 311.60204,-28.249998 324.25,-15.602043 324.25,0 Z" display="inline" filter="url(#filter4774)" transform="matrix(0,0.05867096,-0.05867096,0,9.5543757,990.59918)"/><path id="path2058" fill="url(#radialGradient2098)" fill-opacity="1" fill-rule="nonzero" stroke="url(#linearGradient2100)" stroke-miterlimit="4" stroke-width=".627" d="m 324.25,0 c 0,15.602043 -12.64796,28.249998 -28.25,28.249998 -15.60204,0 -28.25,-12.647955 -28.25,-28.249998 0,-15.602043 12.64796,-28.249998 28.25,-28.249998 C 311.60204,-28.249998 324.25,-15.602043 324.25,0 Z" display="inline" filter="url(#filter5723)" opacity=".5" transform="matrix(0,0.05378172,-0.05378172,0,9.5543757,992.0464)"/><path id="path2060" fill="url(#radialGradient2102)" fill-opacity="1" fill-rule="nonzero" stroke="none" d="m 9.5543757,1009.4851 c -0.8391047,0 -1.5193334,-0.6802 -1.5193334,-1.5193 0,-0.8391 0.6802287,-1.5193 1.5193334,-1.5193 0.8391043,0 1.5193333,0.6802 1.5193333,1.5193 C 11.073709,1008.8049 10.39348,1009.4851 9.5543757,1009.4851 Z" display="inline" opacity=".5"/><path id="path2062" fill="url(#radialGradient2104)" fill-opacity="1" stroke="url(#linearGradient2106)" stroke-linecap="butt" stroke-linejoin="miter" stroke-miterlimit="4" stroke-opacity="1" stroke-width="1.2" d="m 72,903.125 c -0.656287,-0.007 -1.256631,0.59371 -1.25,1.25 l 0,1.84375 0,1.84375 0,1.84375 0,1.84375 0,1.84375 c 0.179895,5.55039 -1.234213,5.53125 -5.53125,5.53125 l -1.84375,0 -1.84375,0 -1.84375,0 -1.84375,0 -1.84375,0 c -0.656287,-0.007 -1.256631,0.59371 -1.25,1.25 l 0,8 c -0.0066,0.65629 0.593713,1.25663 1.25,1.25 l 1.84375,0 1.84375,0 1.84375,0 1.84375,0 1.84375,0 c 5.55039,-0.17989 5.53125,1.23421 5.53125,5.53125 l 0,1.84375 0,1.84375 0,1.84375 0,1.84375 0,1.84375 c -0.0066,0.65629 0.593713,1.25663 1.25,1.25 l 8,0 c 0.656287,0.007 1.256631,-0.59371 1.25,-1.25 l 0,-1.84375 0,-1.84375 0,-1.84375 0,-1.84375 0,-1.84375 c -0.179895,-5.55039 1.234213,-5.53125 5.53125,-5.53125 l 1.84375,0 1.84375,0 1.84375,0 1.84375,0 1.84375,0 c 0.656287,0.007 1.256631,-0.59371 1.25,-1.25 l 0,-8 c 0.0066,-0.65629 -0.593713,-1.25663 -1.25,-1.25 l -1.84375,0 -1.84375,0 -1.84375,0 -1.84375,0 -1.84375,0 C 81.23086,919.30489 81.25,917.89079 81.25,913.59375 l 0,-1.84375 0,-1.84375 0,-1.84375 0,-1.84375 0,-1.84375 C 81.2566,903.71871 80.656287,903.11837 80,903.125 Z" display="inline" filter="url(#filter5766)" opacity=".655" transform="matrix(0.03373579,0,0,0.03373579,6.9904553,976.78126)"/><path id="path2064" fill="#fff" fill-opacity="1" stroke="url(#linearGradient2108)" stroke-linecap="butt" stroke-linejoin="miter" stroke-miterlimit="4" stroke-opacity="1" stroke-width="1.2" d="m 72,903.125 a 1.2375606,1.2375606 0 0 0 -1.25,1.25 l 0,14.75 -14.75,0 a 1.2375606,1.2375606 0 0 0 -1.25,1.25 l 0,8 a 1.2375606,1.2375606 0 0 0 1.25,1.25 l 14.75,0 0,14.75 a 1.2375606,1.2375606 0 0 0 1.25,1.25 l 8,0 a 1.2375606,1.2375606 0 0 0 1.25,-1.25 l 0,-14.75 14.75,0 a 1.2375606,1.2375606 0 0 0 1.25,-1.25 l 0,-8 A 1.2375606,1.2375606 0 0 0 96,919.125 l -14.75,0 0,-14.75 A 1.2375606,1.2375606 0 0 0 80,903.125 L 72,903.125 Z" display="inline" filter="url(#filter5703)" opacity=".797" transform="matrix(0.01265092,0,0,0.01265092,8.5929058,996.2716)"/></g></g></g></svg>