<svg xmlns="http://www.w3.org/2000/svg" xmlns:svg="http://www.w3.org/2000/svg" xmlns:xlink="http://www.w3.org/1999/xlink" id="svg2" width="48" height="48" version="1.1"><defs id="defs4"><linearGradient id="linearGradient1126"><stop id="stop1128" offset="0" stop-color="#fff" stop-opacity="1"/><stop id="stop1130" offset="1" stop-color="#fff" stop-opacity="0"/></linearGradient><linearGradient id="linearGradient915"><stop id="stop917" offset="0" stop-color="#fbf44e" stop-opacity="1"/><stop id="stop919" offset="1" stop-color="#fefdab" stop-opacity="1"/></linearGradient><linearGradient id="linearGradient864"><stop id="stop866" offset="0" stop-color="#000" stop-opacity="1"/><stop id="stop868" offset="1" stop-color="#000" stop-opacity="0"/></linearGradient><linearGradient id="linearGradient853"><stop id="stop855" offset="0" stop-color="#333335" stop-opacity="1"/><stop id="stop857" offset="1" stop-color="#303030" stop-opacity="1"/></linearGradient><linearGradient id="linearGradient841"><stop id="stop843" offset="0" stop-color="#bfbfbf" stop-opacity="1"/><stop id="stop845" offset="1" stop-color="#d9d9d9" stop-opacity="1"/></linearGradient><linearGradient id="linearGradient847" x1="25.5" x2="25.5" y1="-1052.612" y2="-1004.373" gradientUnits="userSpaceOnUse" xlink:href="#linearGradient841"/><linearGradient id="linearGradient851" x1="25.5" x2="25.5" y1="-1052.612" y2="-1004.373" gradientTransform="matrix(0.87499999,0,0,0.78335421,3.0000002,-219.66882)" gradientUnits="userSpaceOnUse" xlink:href="#linearGradient853"/><linearGradient id="linearGradient870" x1="2.917" x2="4.243" y1="26.477" y2="26.477" gradientTransform="matrix(1.0197136,0,0,1.1750313,-0.4731273,-2.1884)" gradientUnits="userSpaceOnUse" xlink:href="#linearGradient864"/><linearGradient id="linearGradient885" x1="2.917" x2="4.243" y1="26.477" y2="26.477" gradientTransform="matrix(0,-1.1750313,1.0197136,0,3.9881198,43.6742)" gradientUnits="userSpaceOnUse" xlink:href="#linearGradient864"/><linearGradient id="linearGradient905" x1="2.917" x2="4.243" y1="26.477" y2="26.477" gradientTransform="matrix(-1.0197136,0,0,1.1750313,48.473049,1002.1738)" gradientUnits="userSpaceOnUse" xlink:href="#linearGradient864"/><linearGradient id="linearGradient909" x1="2.917" x2="4.243" y1="26.477" y2="26.477" gradientTransform="matrix(0,1.1750313,1.0197136,0,3.9881198,1002.4529)" gradientUnits="userSpaceOnUse" xlink:href="#linearGradient864"/><linearGradient id="linearGradient913" x1="10.5" x2="10.5" y1="4" y2="38.75" gradientTransform="matrix(1,0,0,0.73678092,-0.18750009,1006.3577)" gradientUnits="userSpaceOnUse" xlink:href="#linearGradient915"/><linearGradient id="linearGradient943" x1="10.5" x2="10.5" y1="4" y2="38.75" gradientTransform="matrix(1,0,0,0.73678092,25.8125,1006.3577)" gradientUnits="userSpaceOnUse" xlink:href="#linearGradient915"/><linearGradient id="linearGradient953" x1="10.5" x2="10.5" y1="4" y2="38.75" gradientTransform="matrix(1,0,0,0.44465424,9.1665915,1017.6411)" gradientUnits="userSpaceOnUse" xlink:href="#linearGradient915"/><linearGradient id="linearGradient963" x1="10.5" x2="10.5" y1="4" y2="38.75" gradientTransform="matrix(1,0,0,0.44465424,17.166592,1017.6411)" gradientUnits="userSpaceOnUse" xlink:href="#linearGradient915"/><linearGradient id="linearGradient1084" x1="10.5" x2="10.5" y1="4" y2="38.75" gradientTransform="matrix(1,0,0,0.08471904,9.8124999,1039.6753)" gradientUnits="userSpaceOnUse" xlink:href="#linearGradient915"/><linearGradient id="linearGradient1092" x1="10.5" x2="10.5" y1="4" y2="38.75" gradientTransform="matrix(1,0,0,0.08471904,18.032616,1039.6753)" gradientUnits="userSpaceOnUse" xlink:href="#linearGradient915"/><linearGradient id="linearGradient1132" x1="-.625" x2="1.875" y1="30.875" y2="30.875" gradientUnits="userSpaceOnUse" xlink:href="#linearGradient1126"/><linearGradient id="linearGradient1136" x1="-.625" x2="1.875" y1="30.875" y2="30.875" gradientTransform="matrix(-1,0,0,1,48,1004.3622)" gradientUnits="userSpaceOnUse" xlink:href="#linearGradient1126"/></defs><metadata id="metadata7"/><g id="layer1" transform="translate(0,-1004.3622)"><rect id="rect2991-1" width="48" height="48" x="0" y="-1052.362" fill="url(#linearGradient847)" fill-opacity="1" stroke="none" ry="1.945" transform="scale(1,-1)"/><path id="path1134" fill="url(#linearGradient1136)" fill-opacity="1" stroke="none" d="m 46.0625,1004.3622 c 1.077277,0 1.9375,0.8602 1.9375,1.9375 l 0,44.125 c 0,1.0773 -0.860223,1.9375 -1.9375,1.9375 l -0.5625,0 0,-48 L 46.0625,1004.3622 Z"/><path id="rect1119" fill="url(#linearGradient1132)" fill-opacity="1" stroke="none" d="M 1.9375 0 C 0.86022285 0 0 0.86022285 0 1.9375 L 0 46.0625 C 0 47.139777 0.86022285 48 1.9375 48 L 2.5 48 L 2.5 0 L 1.9375 0 z" transform="translate(0,1004.3622)"/><path id="rect846" fill="#000" fill-opacity="1" stroke="none" d="m -1.8474426e-7,1049.3622 0,1.0625 c 0,1.0773 0.86022290474426,1.9375 1.93749988474426,1.9375 l 44.1250003,0 c 1.077277,0 1.9375,-0.8602 1.9375,-1.9375 l 0,-1.0625 c 0,1.0773 -0.860223,1.9375 -1.9375,1.9375 l -44.1250003,0 C 0.86022272,1051.2997 -1.8474426e-7,1050.4395 -1.8474426e-7,1049.3622 Z"/><path id="path7515" fill="#fff" fill-opacity=".537" stroke="none" d="m 2.5312497,1005.0185 c -0.9170884,0 -1.67114668,0.6395 -1.84374988,1.5 0.33561198,-0.2799 0.77451208,-0.4375 1.24999988,-0.4375 l 44.1250003,0 c 0.475488,0 0.914388,0.1576 1.25,0.4375 -0.172603,-0.8605 -0.926662,-1.5 -1.84375,-1.5 L 2.5312497,1005.0185 Z"/><path id="rect4280" fill="#000" fill-opacity=".392" stroke="none" d="m 1.9374997,1004.3622 c -1.07727688,0 -1.93749988474426,0.8602 -1.93749988474426,1.9375 l 0,43.0625 c 0,0.7934 0.48002360474426,1.449 1.15624988474426,1.75 -0.30934158,-0.3333 -0.49999988,-0.7824 -0.49999988,-1.2812 l 0,-42.9375 c 0,-1.0482 0.82689888,-1.875 1.87499988,-1.875 l 42.9375003,0 c 1.048101,0 1.875,0.8268 1.875,1.875 l 0,42.9375 c 0,0.4988 -0.190658,0.9479 -0.5,1.2812 0.676226,-0.301 1.15625,-0.9566 1.15625,-1.75 l 0,-43.0625 c 0,-1.0773 -0.860223,-1.9375 -1.9375,-1.9375 L 1.9374997,1004.3622 Z"/><rect id="rect849" width="42" height="37.601" x="3" y="-1044.041" fill="url(#linearGradient851)" fill-opacity="1" stroke="none" ry="1.523" transform="scale(1,-1)"/><path id="rect859" fill="url(#linearGradient870)" fill-opacity="1" stroke="none" d="M 4.53125 2.0625 C 3.8983327 2.0625 3.3556321 2.4529093 3.125 3 C 3.0975756 3.0720416 3.0804205 3.1414939 3.0625 3.21875 C 3.0567472 3.2415271 3.0359692 3.2580708 3.03125 3.28125 C 3.0292542 3.2917464 3.0330638 3.3019272 3.03125 3.3125 C 3.0147509 3.4026331 3 3.498708 3 3.59375 C 2.9998249 3.6041475 3 3.6145569 3 3.625 L 3 38.15625 C 3 38.261738 3.0141198 38.369898 3.03125 38.46875 C 3.1728245 39.164127 3.7928465 39.6875 4.53125 39.6875 L 5.3125 39.6875 C 4.5801572 39.6875 4 39.00015 4 38.15625 L 4 3.625 C 4 2.7812 4.5801572 2.0625 5.3125 2.0625 L 4.53125 2.0625 z" transform="translate(0,1004.3622)"/><path id="path883" fill="url(#linearGradient885)" fill-opacity="1" stroke="none" d="M 44.96875 38.5 C 44.89283 38.516 44.83027 38.53125 44.75 38.53125 L 3.0625 38.53125 C 3.0814019 38.606089 3.0955303 38.680094 3.125 38.75 C 3.3171934 39.205909 3.722052 39.555125 4.21875 39.65625 C 4.3180896 39.676475 4.4257638 39.6875 4.53125 39.6875 L 43.46875 39.6875 C 43.574236 39.6875 43.68191 39.676475 43.78125 39.65625 C 44.277948 39.555125 44.682807 39.205909 44.875 38.75 C 44.909595 38.667936 44.948827 38.588753 44.96875 38.5 z" transform="translate(0,1004.3622)"/><path id="path903" fill="url(#linearGradient905)" fill-opacity="1" stroke="none" d="m 43.468672,1006.4247 c 0.632917,0 1.175618,0.3904 1.40625,0.9375 0.02742,0.072 0.04458,0.1415 0.0625,0.2188 0.0057,0.023 0.02653,0.039 0.03125,0.062 0.002,0.01 -0.0018,0.021 0,0.031 0.0165,0.09 0.03125,0.1862 0.03125,0.2813 1.75e-4,0.01 0,0.021 0,0.031 l 0,34.5313 c 0,0.1054 -0.01412,0.2136 -0.03125,0.3125 -0.141574,0.6953 -0.761596,1.2187 -1.5,1.2187 l -0.78125,0 c 0.732343,0 1.3125,-0.6873 1.3125,-1.5312 l 0,-34.5313 c 0,-0.8438 -0.580157,-1.5625 -1.3125,-1.5625 L 43.468672,1006.4247 Z"/><path id="path907" fill="url(#linearGradient909)" fill-opacity="1" stroke="none" d="m 44.96875,1007.6271 c -0.07592,-0.016 -0.13848,-0.031 -0.21875,-0.031 l -41.6875,0 c 0.018902,-0.075 0.03303,-0.1489 0.0625,-0.2188 0.1921934,-0.4559 0.597052,-0.8051 1.09375,-0.9062 0.09934,-0.02 0.2070138,-0.031 0.3125,-0.031 l 38.9375,0 c 0.105486,0 0.21316,0.011 0.3125,0.031 0.496698,0.1011 0.901557,0.4503 1.09375,0.9062 C 44.909595,1007.4592 44.948827,1007.5383 44.96875,1007.6271 Z"/><rect id="rect911" width="3.625" height="25.511" x="9.188" y="1009.305" fill="url(#linearGradient913)" fill-opacity="1" stroke="none" ry="0"/><rect id="rect921" width=".708" height="25.511" x="12.813" y="1009.305" fill="#000" fill-opacity=".482" stroke="none" ry="0"/><rect id="rect925" width=".708" height="25.511" x="8.479" y="1009.305" fill="#000" fill-opacity=".482" stroke="none" ry="0"/><path id="path1056" fill="#000" fill-opacity=".482" stroke="none" d="m 9.1874999,1009.3014 0,0.7187 3.6250001,0 0,-0.7187 L 9.1874999,1009.3014 Z"/><path id="rect927" fill="#000" fill-opacity=".482" stroke="none" d="m 9.1874999,1034.097 0,0.7188 3.6250001,0 0,-0.7188 L 9.1874999,1034.097 Z"/><rect id="rect935" width="3.625" height="25.511" x="35.188" y="1009.305" fill="url(#linearGradient943)" fill-opacity="1" stroke="none" ry="0"/><rect id="rect937" width=".708" height="25.511" x="38.813" y="1009.305" fill="#000" fill-opacity=".482" stroke="none" ry="0"/><rect id="rect939" width=".708" height="25.511" x="34.479" y="1009.305" fill="#000" fill-opacity=".482" stroke="none" ry="0"/><path id="path1068" fill="#000" fill-opacity=".482" stroke="none" d="m 35.1875,1009.3014 0,0.7188 3.625,0 0,-0.7188 L 35.1875,1009.3014 Z"/><path id="path941" fill="#000" fill-opacity=".482" stroke="none" d="m 35.1875,1034.0971 0,0.7187 3.625,0 0,-0.7187 L 35.1875,1034.0971 Z"/><rect id="rect945" width="3.625" height="15.396" x="18.542" y="1019.42" fill="url(#linearGradient953)" fill-opacity="1" stroke="none" ry="0"/><rect id="rect947" width=".708" height="15.396" x="22.167" y="1019.42" fill="#000" fill-opacity=".482" stroke="none" ry="0"/><rect id="rect949" width=".708" height="15.396" x="17.833" y="1019.42" fill="#000" fill-opacity=".482" stroke="none" ry="0"/><rect id="rect955" width="3.625" height="15.396" x="26.542" y="1019.42" fill="url(#linearGradient963)" fill-opacity="1" stroke="none" ry="0"/><rect id="rect957" width=".708" height="15.396" x="30.167" y="1019.42" fill="#000" fill-opacity=".482" stroke="none" ry="0"/><rect id="rect959" width=".708" height="15.396" x="25.833" y="1019.42" fill="#000" fill-opacity=".482" stroke="none" ry="0"/><path id="path1070" fill="#000" fill-opacity=".482" stroke="none" d="m 26.541592,1034.0971 0,0.7187 3.625,0 0,-0.7187 L 26.541592,1034.0971 Z"/><path id="path1072" fill="#000" fill-opacity=".482" stroke="none" d="m 18.541592,1034.0971 0,0.7187 3.625,0 0,-0.7187 L 18.541592,1034.0971 Z"/><path id="path1074" fill="#000" fill-opacity=".482" stroke="none" d="m 26.541592,1019.4197 0,0.7187 3.625,0 0,-0.7187 L 26.541592,1019.4197 Z"/><path id="path1076" fill="#000" fill-opacity=".482" stroke="none" d="m 18.541592,1019.4197 0,0.7187 3.625,0 0,-0.7187 L 18.541592,1019.4197 Z"/><g id="g1099" transform="translate(-0.64590836,0)"><rect id="rect1078" width="3.625" height="2.933" x="19.188" y="1040.014" fill="url(#linearGradient1084)" fill-opacity="1" stroke="none" ry="0"/><rect id="rect1080" width=".708" height="2.933" x="22.813" y="1040.014" fill="#000" fill-opacity=".482" stroke="none" ry="0"/><rect id="rect1082" width=".708" height="2.933" x="18.479" y="1040.014" fill="#000" fill-opacity=".482" stroke="none" ry="0"/></g><g id="g1094" transform="translate(-0.86602471,0)"><rect id="rect1086" width="3.625" height="2.933" x="27.408" y="1040.014" fill="url(#linearGradient1092)" fill-opacity="1" stroke="none" ry="0"/><rect id="rect1088" width=".708" height="2.933" x="31.033" y="1040.014" fill="#000" fill-opacity=".482" stroke="none" ry="0"/><rect id="rect1090" width=".708" height="2.933" x="26.699" y="1040.014" fill="#000" fill-opacity=".482" stroke="none" ry="0"/></g><path id="path1104" fill="#000" fill-opacity=".482" stroke="none" d="m 26.541592,1040.0142 0,0.7187 3.625,0 0,-0.7187 L 26.541592,1040.0142 Z"/><path id="path1106" fill="#000" fill-opacity=".482" stroke="none" d="m 18.541592,1040.0142 0,0.7187 3.625,0 0,-0.7187 L 18.541592,1040.0142 Z"/><path id="path1108" fill="#000" fill-opacity=".482" stroke="none" d="m 26.541592,1042.2289 0,0.7187 3.625,0 0,-0.7187 L 26.541592,1042.2289 Z"/><path id="path1110" fill="#000" fill-opacity=".482" stroke="none" d="m 18.541592,1042.2289 0,0.7187 3.625,0 0,-0.7187 L 18.541592,1042.2289 Z"/><g id="g1148"><path id="path1728" fill="#000" fill-opacity=".545" fill-rule="nonzero" stroke="none" stroke-width=".4" d="m 26.194665,1044.6103 c -0.154189,-0.1542 -0.398237,-0.1542 -0.552427,0 l -1.298204,1.2982 -3.585252,0.9115 1.33135,1.3424 -0.60767,0.6077 c -0.15419,0.1542 -0.159714,0.4038 -0.0055,0.5579 l 0.0442,0.044 -0.76235,0.7626 0.845214,0.8452 0.762349,-0.7623 0.03867,0.038 c 0.15419,0.1542 0.409287,0.1542 0.563476,0 l 0.60767,-0.6077 1.342398,1.3314 0.911505,-3.5853 1.298204,-1.2982 c 0.154189,-0.1542 0.148665,-0.4038 -0.0055,-0.558 L 26.194665,1044.6103 z m -4.988417,5.3641 0.171252,0.1712 -0.154679,0.1547 -0.171253,-0.1712 L 21.206248,1049.9744 z m 0.381175,0.3812 0.171252,0.1712 -0.154679,0.1547 -0.171253,-0.1713 L 21.587423,1050.3556 Z" color="#000" display="inline" enable-background="accumulate" opacity="1" overflow="visible" visibility="visible" style="marker:none"/><path id="path1138" fill="#000" fill-opacity=".545" fill-rule="nonzero" stroke="none" stroke-width=".4" d="M 25.90625 40.125 C 25.806691 40.125 25.733345 40.1729 25.65625 40.25 L 24.34375 41.53125 L 20.75 42.46875 L 21 42.71875 L 24.34375 41.84375 L 25.65625 40.5625 C 25.81044 40.4083 26.033311 40.4083 26.1875 40.5625 L 27.125 41.5 C 27.157375 41.532382 27.199588 41.554721 27.21875 41.59375 C 27.275018 41.451269 27.240624 41.30315 27.125 41.1875 L 26.1875 40.25 C 26.110405 40.1729 26.005809 40.125 25.90625 40.125 z M 21.9375 43.96875 L 21.46875 44.40625 C 21.353108 44.5219 21.349972 44.701311 21.40625 44.84375 C 21.426041 44.796258 21.430203 44.7573 21.46875 44.71875 L 22.09375 44.125 L 21.9375 43.96875 z M 21.40625 45.15625 L 20.75 45.78125 L 20.90625 45.9375 L 21.0625 45.78125 L 21.21875 45.625 L 21.53125 45.3125 L 21.46875 45.28125 C 21.430197 45.242725 21.425009 45.20373 21.40625 45.15625 z M 21.1875 45.9375 L 21.0625 46.0625 L 21.21875 46.25 L 21.375 46.09375 L 21.21875 45.9375 L 21.1875 45.9375 z M 21.59375 46.3125 L 21.4375 46.46875 L 21.59375 46.625 L 21.75 46.46875 L 21.59375 46.3125 z" color="#000" display="inline" enable-background="accumulate" opacity=".6" overflow="visible" transform="translate(0,1004.3622)" visibility="visible" style="marker:none"/><path id="path1143" fill="#fff" fill-opacity=".239" fill-rule="nonzero" stroke="none" stroke-width=".4" d="m 27.207031,1046.0036 c -0.0184,0.039 -0.06137,0.061 -0.09375,0.094 l -1.28125,1.2813 -0.9375,3.5937 -1.34375,-1.3125 -0.59375,0.5938 c -0.154189,0.1542 -0.40831,0.1542 -0.5625,0 l -0.03125,-0.031 -0.625,0.625 -0.15625,0.125 -0.15625,-0.1562 -0.1875,-0.1875 -0.1875,-0.1563 0,-0.031 -0.125,-0.125 -0.1875,0.1562 0.84375,0.8438 0.78125,-0.7813 0.03125,0.062 c 0.15419,0.1542 0.408311,0.1542 0.5625,0 l 0.59375,-0.625 1.34375,1.3438 0.9375,-3.5938 1.28125,-1.3125 C 27.228923,1046.2942 27.266395,1046.146 27.207031,1046.0036 z m -6.1875,1.0937 -0.28125,0.062 1.15625,1.1563 0.1875,-0.1563 L 21.019531,1047.0973 z m 0.375,2.125 c -0.03578,0.086 -0.0271,0.1936 0,0.2813 l 0.125,-0.125 -0.0625,-0.062 C 21.426188,1049.2852 21.412683,1049.2592 21.394531,1049.2223 z m -0.15625,0.7813 -0.1875,0.125 0.15625,0.1562 0.15625,-0.1562 L 21.238281,1050.0036 z m 0.34375,0.3437 -0.15625,0.1563 0.15625,0.1875 0.15625,-0.1563 L 21.582031,1050.3473 Z" color="#000" display="inline" enable-background="accumulate" opacity="1" overflow="visible" visibility="visible" style="marker:none"/></g></g></svg>