<svg xmlns="http://www.w3.org/2000/svg" xmlns:svg="http://www.w3.org/2000/svg" xmlns:xlink="http://www.w3.org/1999/xlink" id="svg2" width="48" height="48" version="1.1" viewBox="0 0 13.547 13.547"><metadata id="metadata42"/><defs id="defs4"><linearGradient id="linearGradient4255"><stop id="stop4257" offset="0" stop-color="#3963af" stop-opacity="1"/><stop id="stop4259" offset="1" stop-color="#2c5ab1" stop-opacity="1"/></linearGradient><linearGradient id="linearGradient4247"><stop id="stop4249" offset="0" stop-color="#4fb860" stop-opacity="1"/><stop id="stop4251" offset="1" stop-color="#44d062" stop-opacity="1"/></linearGradient><linearGradient id="linearGradient4239"><stop id="stop4241" offset="0" stop-color="#fdb800" stop-opacity="1"/><stop id="stop4243" offset="1" stop-color="#fec83f" stop-opacity="1"/></linearGradient><linearGradient id="linearGradient4221"><stop id="stop4223" offset="0" stop-color="#ee010d" stop-opacity="1"/><stop id="stop4225" offset="1" stop-color="#f75b5e" stop-opacity="1"/></linearGradient><linearGradient id="linearGradient4188"><stop id="stop4190" offset="0" stop-color="#272933" stop-opacity="1"/><stop id="stop4192" offset="1" stop-color="#52566b" stop-opacity="1"/></linearGradient><linearGradient id="linearGradient4589"><stop id="stop4591" offset="0" stop-color="#000" stop-opacity="1"/><stop id="stop4593" offset="1" stop-color="#000" stop-opacity="0"/></linearGradient><linearGradient id="linearGradient1919"><stop id="stop1921" offset="0" stop-color="#f2f2f2" stop-opacity="1"/><stop id="stop1923" offset="1" stop-color="#f2f2f2" stop-opacity="0"/></linearGradient><linearGradient id="linearGradient1642"><stop id="stop1644" offset="0" stop-color="#2a2a2a" stop-opacity=".451"/><stop id="stop1646" offset="1" stop-color="#fff" stop-opacity=".338"/></linearGradient><linearGradient id="linearGradient1550"><stop id="stop1552" offset="0" stop-color="#4b84fa" stop-opacity="1"/><stop id="stop1554" offset="1" stop-color="#cd87de" stop-opacity="0"/></linearGradient><linearGradient id="linearGradient1510"><stop id="stop1512" offset="0" stop-color="#cd87de" stop-opacity="1"/><stop id="stop1514" offset="1" stop-color="#cd87de" stop-opacity="0"/></linearGradient><linearGradient id="linearGradient1473"><stop id="stop1475" offset="0" stop-color="#0e0e0e" stop-opacity="1"/><stop id="stop1477" offset="1" stop-color="#363434" stop-opacity="1"/></linearGradient><linearGradient id="linearGradient1411"><stop id="stop1413" offset="0" stop-color="#f5f5f5" stop-opacity="1"/><stop id="stop1415" offset="1" stop-color="#9b9b9b" stop-opacity="1"/></linearGradient><linearGradient id="linearGradient1396"><stop id="stop1398" offset="0" stop-color="#31302f" stop-opacity="1"/><stop id="stop1400" offset="1" stop-color="#434141" stop-opacity="1"/></linearGradient><linearGradient id="linearGradient1463" x1="142.128" x2="142.937" y1="24.969" y2="40.525" gradientTransform="matrix(1.2459645,0,0,1.2459645,231.54111,496.24508)" gradientUnits="userSpaceOnUse" xlink:href="#linearGradient1411"/><linearGradient id="linearGradient1467" x1="142.128" x2="142.937" y1="24.969" y2="40.525" gradientUnits="userSpaceOnUse" xlink:href="#linearGradient1411"/><linearGradient id="linearGradient1471" x1="142.128" x2="142.128" y1="11.107" y2="33.108" gradientUnits="userSpaceOnUse" xlink:href="#linearGradient4188"/><linearGradient id="linearGradient1489" x1="142.128" x2="142.128" y1="11.107" y2="33.108" gradientUnits="userSpaceOnUse" xlink:href="#linearGradient1473"/><linearGradient id="linearGradient1516" x1="138.997" x2="138.997" y1="30.221" y2="26.181" gradientTransform="translate(270.28559,500.71298)" gradientUnits="userSpaceOnUse" xlink:href="#linearGradient1510"/><linearGradient id="linearGradient1548" x1="138.997" x2="138.997" y1="30.221" y2="26.181" gradientTransform="matrix(1,0,0,-1,270.28559,550.86702)" gradientUnits="userSpaceOnUse" xlink:href="#linearGradient1550"/><linearGradient id="linearGradient1563" x1="138.997" x2="138.997" y1="30.221" y2="26.181" gradientTransform="matrix(0.82299123,0,0,-0.82299123,294.76258,546.00204)" gradientUnits="userSpaceOnUse" xlink:href="#linearGradient1550"/><linearGradient id="linearGradient1599" x1="138.997" x2="138.997" y1="30.221" y2="26.181" gradientTransform="matrix(0.82299123,0,0,0.82299123,294.76258,505.57795)" gradientUnits="userSpaceOnUse" xlink:href="#linearGradient1510"/><radialGradient id="radialGradient1648" cx="138.281" cy="22.609" r="4.875" fx="138.281" fy="22.609" gradientTransform="matrix(1,0,0,0.59294872,270.28559,509.92076)" gradientUnits="userSpaceOnUse" xlink:href="#linearGradient1642"/><linearGradient id="linearGradient1925" x1="142.696" x2="142.696" y1="9.697" y2="18.395" gradientUnits="userSpaceOnUse" xlink:href="#linearGradient1919"/><linearGradient id="linearGradient3631" x1="412.055" x2="412.055" y1="-547.793" y2="-499.79" gradientUnits="userSpaceOnUse" xlink:href="#linearGradient1396"/><radialGradient id="radialGradient4541" cx="142.364" cy="20.71" r="11.819" fx="142.364" fy="20.71" gradientTransform="matrix(0.85506396,0,0,0.79811844,287.12887,517.01741)" gradientUnits="userSpaceOnUse" xlink:href="#linearGradient4589"/><radialGradient id="radialGradient4595" cx="143.277" cy="22.914" r="11.819" fx="143.277" fy="22.914" gradientTransform="matrix(0.24364985,1.2219093,-1.0937573,0.21809623,-417.504,345.66792)" gradientUnits="userSpaceOnUse" xlink:href="#linearGradient4589"/><linearGradient id="linearGradient4227" x1="400.571" x2="400.571" y1="547.798" y2="499.798" gradientUnits="userSpaceOnUse" xlink:href="#linearGradient4221"/><linearGradient id="linearGradient4245" x1="406.315" x2="406.315" y1="547.798" y2="499.798" gradientUnits="userSpaceOnUse" xlink:href="#linearGradient4239"/><linearGradient id="linearGradient4253" x1="414.093" x2="414.093" y1="547.798" y2="499.798" gradientUnits="userSpaceOnUse" xlink:href="#linearGradient4247"/><linearGradient id="linearGradient4261" x1="421.695" x2="421.695" y1="547.798" y2="499.798" gradientUnits="userSpaceOnUse" xlink:href="#linearGradient4255"/></defs><g id="layer1" transform="matrix(0.28222223,0,0,0.28222223,-108.53461,-141.0541)"><rect id="rect2991-1-7" width="48" height="48" x="384.571" y="-547.798" fill="url(#linearGradient3631)" fill-opacity="1" stroke="none" ry="1.945" transform="scale(1,-1)"/><rect id="rect4163" width="8" height="48" x="392.571" y="499.798" fill="url(#linearGradient4227)" fill-opacity="1" fill-rule="evenodd" stroke="none" ry="0"/><rect id="rect4165" width="8" height="48" x="400.571" y="499.798" fill="url(#linearGradient4245)" fill-opacity="1" fill-rule="evenodd" stroke="none" ry="0"/><rect id="rect4167" width="8" height="48" x="408.571" y="499.798" fill="url(#linearGradient4253)" fill-opacity="1" fill-rule="evenodd" stroke="none" ry="0"/><rect id="rect4169" width="8" height="48" x="416.571" y="499.798" fill="url(#linearGradient4261)" fill-opacity="1" fill-rule="evenodd" stroke="none" ry="0"/><circle id="path1927" cx="-409.214" cy="524.647" r="14.726" fill="url(#radialGradient4595)" fill-opacity="1" fill-rule="nonzero" stroke="none" stroke-width="1.4" d="m -394.4886,524.64722 a 14.725786,14.725786 0 0 1 -14.72579,14.72578 14.725786,14.725786 0 0 1 -14.72578,-14.72578 14.725786,14.725786 0 0 1 14.72578,-14.72579 14.725786,14.725786 0 0 1 14.72579,14.72579 z" color="#000" display="inline" enable-background="accumulate" overflow="visible" transform="scale(-1,1)" visibility="visible" style="marker:none"/><ellipse id="path1977" cx="408.571" cy="534.607" fill="url(#radialGradient4541)" fill-opacity="1" fill-rule="nonzero" stroke="none" stroke-width="1.4" d="m 418.67723,534.60718 a 10.105817,9.4327898 0 0 1 -10.10582,9.43279 10.105817,9.4327898 0 0 1 -10.10582,-9.43279 10.105817,9.4327898 0 0 1 10.10582,-9.43279 10.105817,9.4327898 0 0 1 10.10582,9.43279 z" color="#000" display="inline" enable-background="accumulate" opacity=".788" overflow="visible" rx="10.106" ry="9.433" visibility="visible" style="marker:none"/><circle id="path1447" cx="408.502" cy="523.705" r="14.726" fill="url(#linearGradient1463)" fill-opacity="1" fill-rule="nonzero" stroke="none" stroke-width="1.4" d="m 423.22808,523.70502 a 14.725786,14.725786 0 0 1 -14.72579,14.72578 14.725786,14.725786 0 0 1 -14.72579,-14.72578 14.725786,14.725786 0 0 1 14.72579,-14.72579 14.725786,14.725786 0 0 1 14.72579,14.72579 z" color="#000" display="inline" enable-background="accumulate" overflow="visible" visibility="visible" style="marker:none"/><g id="g4607" transform="matrix(1.2459645,0,0,1.2459645,-100.5632,-131.02882)"><path id="path1450" fill="#000" fill-opacity=".295" fill-rule="nonzero" stroke="none" stroke-width="1.4" d="m 396.7745,524.86482 c -0.0102,0.20144 -0.0312,0.38977 -0.0312,0.59375 0,6.52733 5.28517,11.84375 11.8125,11.84375 6.52733,0 11.84375,-5.31642 11.84375,-11.84375 0,-0.20398 -0.021,-0.39231 -0.0312,-0.59375 -0.31654,6.24469 -5.48914,11.21875 -11.8125,11.21875 -6.32346,0 -11.46481,-4.97406 -11.78135,-11.21875 z" color="#000" display="inline" enable-background="accumulate" overflow="visible" visibility="visible" style="marker:none"/><circle id="path1465" cx="142.027" cy="22.039" r="11.819" fill="url(#linearGradient1467)" fill-opacity="1" fill-rule="nonzero" stroke="none" stroke-width="1.4" d="M 153.84624,22.03908 A 11.818785,11.818785 0 0 1 142.02745,33.857864 11.818785,11.818785 0 0 1 130.20867,22.03908 11.818785,11.818785 0 0 1 142.02745,10.220295 11.818785,11.818785 0 0 1 153.84624,22.03908 Z" color="#000" display="inline" enable-background="accumulate" overflow="visible" transform="matrix(0.91538893,0,0,-0.91538893,278.56106,545.65786)" visibility="visible" style="marker:none"/><circle id="path1469" cx="142.027" cy="22.039" r="11.819" fill="url(#linearGradient1471)" fill-opacity="1" fill-rule="nonzero" stroke="none" stroke-width="1.4" d="M 153.84624,22.03908 A 11.818785,11.818785 0 0 1 142.02745,33.857864 11.818785,11.818785 0 0 1 130.20867,22.03908 11.818785,11.818785 0 0 1 142.02745,10.220295 11.818785,11.818785 0 0 1 153.84624,22.03908 Z" color="#000" display="inline" enable-background="accumulate" overflow="visible" transform="matrix(0.83077786,0,0,-0.83077786,290.57816,543.79311)" visibility="visible" style="marker:none"/><circle id="path1497" cx="142.027" cy="22.039" r="11.819" fill="#fff" fill-opacity=".321" fill-rule="nonzero" stroke="none" stroke-width="1.4" d="M 153.84624,22.03908 A 11.818785,11.818785 0 0 1 142.02745,33.857864 11.818785,11.818785 0 0 1 130.20867,22.03908 11.818785,11.818785 0 0 1 142.02745,10.220295 11.818785,11.818785 0 0 1 153.84624,22.03908 Z" color="#000" display="inline" enable-background="accumulate" overflow="visible" transform="matrix(0.66580449,0,0,0.66580449,314.00891,510.80981)" visibility="visible" style="marker:none"/><circle id="path1479" cx="142.027" cy="22.039" r="11.819" fill="#000" fill-opacity=".781" fill-rule="nonzero" stroke="none" stroke-width="1.4" d="M 153.84624,22.03908 A 11.818785,11.818785 0 0 1 142.02745,33.857864 11.818785,11.818785 0 0 1 130.20867,22.03908 11.818785,11.818785 0 0 1 142.02745,10.220295 11.818785,11.818785 0 0 1 153.84624,22.03908 Z" color="#000" display="inline" enable-background="accumulate" overflow="visible" transform="matrix(0.63617242,0,0,0.63617242,318.21747,511.46288)" visibility="visible" style="marker:none"/><circle id="path1487" cx="142.027" cy="22.039" r="11.819" fill="url(#linearGradient1489)" fill-opacity="1" fill-rule="nonzero" stroke="none" stroke-width="1.4" d="M 153.84624,22.03908 A 11.818785,11.818785 0 0 1 142.02745,33.857864 11.818785,11.818785 0 0 1 130.20867,22.03908 11.818785,11.818785 0 0 1 142.02745,10.220295 11.818785,11.818785 0 0 1 153.84624,22.03908 Z" color="#000" display="inline" enable-background="accumulate" overflow="visible" transform="matrix(0.59386692,0,0,0.59386692,324.22601,512.39525)" visibility="visible" style="marker:none"/><circle id="path1491" cx="142.027" cy="22.039" r="11.819" fill="#000" fill-opacity=".321" fill-rule="nonzero" stroke="none" stroke-width="1.4" d="M 153.84624,22.03908 A 11.818785,11.818785 0 0 1 142.02745,33.857864 11.818785,11.818785 0 0 1 130.20867,22.03908 11.818785,11.818785 0 0 1 142.02745,10.220295 11.818785,11.818785 0 0 1 153.84624,22.03908 Z" color="#000" display="inline" enable-background="accumulate" overflow="visible" transform="matrix(0.45850739,0,0,0.45850739,343.45078,515.37845)" visibility="visible" style="marker:none"/><circle id="path1493" cx="142.027" cy="22.039" r="11.819" fill="#0c0c0c" fill-opacity="1" fill-rule="nonzero" stroke="none" stroke-width="1.4" d="M 153.84624,22.03908 A 11.818785,11.818785 0 0 1 142.02745,33.857864 11.818785,11.818785 0 0 1 130.20867,22.03908 11.818785,11.818785 0 0 1 142.02745,10.220295 11.818785,11.818785 0 0 1 153.84624,22.03908 Z" color="#000" display="inline" enable-background="accumulate" overflow="visible" transform="matrix(0.42704912,0,0,0.42704912,347.91872,516.07176)" visibility="visible" style="marker:none"/><path id="path1505" fill="url(#linearGradient1516)" fill-opacity="1" fill-rule="nonzero" stroke="none" stroke-width="1.4" d="m 403.53559,525.86923 c 0.19829,2.60604 2.37442,4.65625 5.03125,4.65625 2.63497,0 4.80239,-2.01828 5.03125,-4.59375 -1.08673,1.60856 -2.94389,2.65625 -5.03125,2.65625 -2.11199,0 -3.94977,-1.07813 -5.03125,-2.71875 z" color="#000" display="inline" enable-background="accumulate" opacity=".524" overflow="visible" visibility="visible" style="marker:none"/><path id="path1546" fill="url(#linearGradient1548)" fill-opacity="1" fill-rule="nonzero" stroke="none" stroke-width="1.4" d="m 403.53559,525.71077 c 0.19829,-2.60604 2.37442,-4.65625 5.03125,-4.65625 2.63497,0 4.80239,2.01828 5.03125,4.59375 -1.08673,-1.60857 -2.94389,-2.65625 -5.03125,-2.65625 -2.11199,0 -3.94977,1.07812 -5.03125,2.71875 z" color="#000" display="inline" enable-background="accumulate" opacity=".524" overflow="visible" visibility="visible" style="marker:none"/><path id="path1556" fill="#fff" fill-opacity="1" fill-rule="nonzero" stroke="none" stroke-width="1.4" d="m 409.06775,521.73249 c -0.73415,0 -1.38865,0.19885 -1.83812,0.51141 0.43149,-0.23121 0.9914,-0.38123 1.61026,-0.38123 1.03206,0 1.91576,0.39609 2.27866,0.94842 0.14865,0.0872 0.27941,0.18355 0.39497,0.28825 -0.11126,-0.76632 -1.16487,-1.36685 -2.44577,-1.36685 z m -2.23309,1.21808 c -0.0672,0.0396 -0.13656,0.0775 -0.19748,0.12087 -0.003,0.0161 -0.0132,0.0302 -0.0152,0.0465 0.0635,-0.0589 0.13888,-0.11358 0.21265,-0.16736 z" color="#000" display="inline" enable-background="accumulate" opacity=".133" overflow="visible" visibility="visible" style="marker:none"/><path id="path1561" fill="url(#linearGradient1563)" fill-opacity="1" fill-rule="nonzero" stroke="none" stroke-width="1.4" d="m 404.42616,525.29867 c 0.16319,-2.14475 1.95413,-3.83206 4.14068,-3.83206 2.16855,0 3.95232,1.66103 4.14067,3.78062 -0.89437,-1.32384 -2.4228,-2.18607 -4.14067,-2.18607 -1.73815,0 -3.25063,0.88729 -4.14068,2.23751 z" color="#000" display="inline" enable-background="accumulate" opacity=".694" overflow="visible" visibility="visible" style="marker:none"/><path id="path1597" fill="url(#linearGradient1599)" fill-opacity="1" fill-rule="nonzero" stroke="none" stroke-width="1.4" d="m 404.42616,526.28132 c 0.16319,2.14475 1.95413,3.83206 4.14068,3.83206 2.16855,0 3.95232,-1.66103 4.14067,-3.78062 -0.89437,1.32384 -2.4228,2.18607 -4.14067,2.18607 -1.73815,0 -3.25063,-0.88729 -4.14068,-2.23751 z" color="#000" display="inline" enable-background="accumulate" opacity=".285" overflow="visible" visibility="visible" style="marker:none"/><path id="path1810" fill="#0ff" fill-opacity="1" fill-rule="nonzero" stroke="none" stroke-width="1.4" d="m 407.14167,526.27548 c 0.26326,0.73477 0.70926,1.25 1.42756,1.25 0.71831,0 1.08364,-0.51523 1.34689,-1.25 -0.44178,0.41774 -0.73683,0.6875 -1.34689,0.6875 -0.60702,0 -0.9868,-0.2735 -1.42756,-0.6875 z" color="#000" display="inline" enable-background="accumulate" opacity=".127" overflow="visible" visibility="visible" style="marker:none"/><path id="path1877" fill="#0ff" fill-opacity="1" fill-rule="nonzero" stroke="none" stroke-width="1.4" d="m 407.69184,526.10606 c 0.1464,0.34613 0.4838,0.58884 0.88326,0.58884 0.39947,0 0.75159,-0.24271 0.89799,-0.58884 -0.24568,0.19679 -0.55872,0.32386 -0.89799,0.32386 -0.33757,0 -0.63815,-0.12884 -0.88326,-0.32386 z" color="#000" display="inline" enable-background="accumulate" opacity=".127" overflow="visible" visibility="visible" style="marker:none"/><circle id="path1650" cx="142.027" cy="22.039" r="11.819" fill="#a9e3e3" fill-opacity="1" fill-rule="nonzero" stroke="none" stroke-width="1.4" d="M 153.84624,22.03908 A 11.818785,11.818785 0 0 1 142.02745,33.857864 11.818785,11.818785 0 0 1 130.20867,22.03908 11.818785,11.818785 0 0 1 142.02745,10.220295 11.818785,11.818785 0 0 1 153.84624,22.03908 Z" color="#000" display="inline" enable-background="accumulate" opacity=".624" overflow="visible" transform="matrix(0.04327748,0,0,0.03723383,401.38911,524.05579)" visibility="visible" style="marker:none"/><path id="path1891" fill="#0ff" fill-opacity="1" fill-rule="nonzero" stroke="none" stroke-width="1.4" d="m 407.23096,525.54281 c 0.26325,-0.73477 0.61997,-1.25 1.33827,-1.25 0.71831,0 1.10149,0.51523 1.36475,1.25 -0.44179,-0.41774 -0.75469,-0.6875 -1.36475,-0.6875 -0.60702,0 -0.89751,0.2735 -1.33827,0.6875 z" color="#000" display="inline" enable-background="accumulate" opacity=".121" overflow="visible" visibility="visible" style="marker:none"/><circle id="path1744" cx="142.027" cy="22.039" r="11.819" fill="#a9e3e3" fill-opacity="1" fill-rule="nonzero" stroke="none" stroke-width="1.4" d="M 153.84624,22.03908 A 11.818785,11.818785 0 0 1 142.02745,33.857864 11.818785,11.818785 0 0 1 130.20867,22.03908 11.818785,11.818785 0 0 1 142.02745,10.220295 11.818785,11.818785 0 0 1 153.84624,22.03908 Z" color="#000" display="inline" enable-background="accumulate" opacity=".754" overflow="visible" transform="matrix(0.04327748,0,0,0.03723383,401.38911,524.05579)" visibility="visible" style="marker:none"/><path id="path1637" fill="url(#radialGradient1648)" fill-opacity="1" fill-rule="nonzero" stroke="none" stroke-width="1.4" d="m 408.56684,520.43633 c -2.35807,0 -4.3208,1.62676 -4.875,3.8125 1.12533,1.19711 2.88934,1.96875 4.875,1.96875 1.98566,0 3.74967,-0.77164 4.875,-1.96875 -0.5542,-2.18574 -2.51693,-3.8125 -4.875,-3.8125 z" color="#000" display="inline" enable-background="accumulate" opacity=".355" overflow="visible" visibility="visible" style="marker:none"/><circle id="path1893" cx="142.027" cy="22.039" r="11.819" fill="#a9e3e3" fill-opacity="1" fill-rule="nonzero" stroke="none" stroke-width="1.4" d="M 153.84624,22.03908 A 11.818785,11.818785 0 0 1 142.02745,33.857864 11.818785,11.818785 0 0 1 130.20867,22.03908 11.818785,11.818785 0 0 1 142.02745,10.220295 11.818785,11.818785 0 0 1 153.84624,22.03908 Z" color="#000" display="inline" enable-background="accumulate" opacity=".754" overflow="visible" transform="matrix(0.01683652,0,0,0.01448532,407.44802,526.23692)" visibility="visible" style="marker:none"/><circle id="path1915" cx="142.027" cy="22.039" r="11.819" fill="url(#linearGradient1925)" fill-opacity="1" fill-rule="nonzero" stroke="none" stroke-width="1.4" d="M 153.84624,22.03908 A 11.818785,11.818785 0 0 1 142.02745,33.857864 11.818785,11.818785 0 0 1 130.20867,22.03908 11.818785,11.818785 0 0 1 142.02745,10.220295 11.818785,11.818785 0 0 1 153.84624,22.03908 Z" color="#000" display="inline" enable-background="accumulate" overflow="visible" transform="matrix(0.21352456,0,0,0.21352456,378.24507,520.49193)" visibility="visible" style="marker:none"/></g><path id="path7515" fill="#fff" fill-opacity=".537" stroke="none" d="m 387.10268,500.45429 c -0.91709,0 -1.67115,0.6395 -1.84375,1.5 0.33561,-0.2799 0.77451,-0.4375 1.25,-0.4375 l 44.125,0 c 0.47549,0 0.91439,0.1576 1.25,0.4375 -0.1726,-0.8605 -0.92666,-1.5 -1.84375,-1.5 l -42.9375,0 z"/><path id="rect4280" fill="#000" fill-opacity=".392" stroke="none" d="m 386.50893,499.79799 c -1.07728,0 -1.9375,0.8602 -1.9375,1.9375 l 0,43.0625 c 0,0.7934 0.48002,1.449 1.15625,1.75 -0.30934,-0.3333 -0.5,-0.7824 -0.5,-1.2812 l 0,-42.9375 c 0,-1.0482 0.8269,-1.875 1.875,-1.875 l 42.9375,0 c 1.0481,0 1.875,0.8268 1.875,1.875 l 0,42.9375 c 0,0.4988 -0.19066,0.9479 -0.5,1.2812 0.67623,-0.301 1.15625,-0.9566 1.15625,-1.75 l 0,-43.0625 c 0,-1.0773 -0.86022,-1.9375 -1.9375,-1.9375 l -44.125,0 z"/><path id="rect846" fill="#000" fill-opacity="1" stroke="none" d="m 384.57143,544.79799 0,1.0625 c 0,1.0773 0.86022,1.9375 1.9375,1.9375 l 44.125,0 c 1.07728,0 1.9375,-0.8602 1.9375,-1.9375 l 0,-1.0625 c 0,1.0773 -0.86022,1.9375 -1.9375,1.9375 l -44.125,0 c -1.07728,0 -1.9375,-0.8602 -1.9375,-1.9375 z"/></g></svg>