<svg xmlns="http://www.w3.org/2000/svg" xmlns:svg="http://www.w3.org/2000/svg" xmlns:xlink="http://www.w3.org/1999/xlink" id="svg2" width="48" height="48" version="1.1"><defs id="defs4"><linearGradient id="linearGradient1497"><stop id="stop1499" offset="0" stop-color="#000" stop-opacity="1"/><stop id="stop1501" offset="1" stop-color="#000" stop-opacity="0"/></linearGradient><linearGradient id="linearGradient1478"><stop id="stop1480" offset="0" stop-color="#000" stop-opacity="1"/><stop id="stop1482" offset="1" stop-color="#000" stop-opacity="0"/></linearGradient><linearGradient id="linearGradient1462"><stop id="stop1464" offset="0" stop-color="#000" stop-opacity="1"/><stop id="stop1466" offset="1" stop-color="#000" stop-opacity="0"/></linearGradient><linearGradient id="linearGradient1418"><stop id="stop1420" offset="0" stop-color="#fff" stop-opacity="1"/><stop id="stop1422" offset="1" stop-color="#fff" stop-opacity="0"/></linearGradient><linearGradient id="linearGradient1346"><stop id="stop1348" offset="0" stop-color="#fff" stop-opacity="1"/><stop id="stop1350" offset="1" stop-color="#fff" stop-opacity="0"/></linearGradient><linearGradient id="linearGradient1334"><stop id="stop1336" offset="0" stop-color="#000" stop-opacity="1"/><stop id="stop1338" offset="1" stop-color="#000" stop-opacity="0"/></linearGradient><linearGradient id="linearGradient887"><stop id="stop889" offset="0" stop-color="#1f221f" stop-opacity="1"/><stop id="stop891" offset="1" stop-color="#626c5e" stop-opacity="1"/></linearGradient><linearGradient id="linearGradient877"><stop id="stop879" offset="0" stop-color="#282828" stop-opacity="1"/><stop id="stop881" offset="1" stop-color="#2b2b2d" stop-opacity="1"/></linearGradient><linearGradient id="linearGradient865"><stop id="stop867" offset="0" stop-color="#b6b4a4" stop-opacity="1"/><stop id="stop869" offset="1" stop-color="#d3d1c1" stop-opacity="1"/></linearGradient><linearGradient id="linearGradient871" x1="28.284" x2="28.284" y1="-1052.643" y2="-1004.809" gradientUnits="userSpaceOnUse" xlink:href="#linearGradient865"/><linearGradient id="linearGradient875" x1="28.284" x2="28.284" y1="-1052.893" y2="-1004.809" gradientTransform="matrix(0.88188916,0,0,0.66660221,2.8346596,-338.14948)" gradientUnits="userSpaceOnUse" xlink:href="#linearGradient877"/><linearGradient id="linearGradient885" x1="28.284" x2="28.284" y1="-1047.003" y2="-1004.534" gradientTransform="matrix(0.75590499,0,0,0.57137332,5.8582796,-436.07925)" gradientUnits="userSpaceOnUse" xlink:href="#linearGradient887"/><linearGradient id="linearGradient1929"><stop id="stop1931" offset="0" stop-color="#fff" stop-opacity="0"/><stop id="stop1937" offset=".5" stop-color="#fff" stop-opacity=".498"/><stop id="stop1933" offset="1" stop-color="#fff" stop-opacity="0"/></linearGradient><linearGradient id="linearGradient1941" x1="6.662" x2="11.788" y1="36.909" y2="42.035" gradientTransform="matrix(-1.1523241,0,0,0.8487351,50.92696,1003.1608)" gradientUnits="userSpaceOnUse" xlink:href="#linearGradient1929"/><linearGradient id="linearGradient1947" x1="6.662" x2="11.788" y1="36.909" y2="42.035" gradientTransform="matrix(1.1523241,0,0,-0.8487351,-2.9269614,1044.1551)" gradientUnits="userSpaceOnUse" xlink:href="#linearGradient1929"/><linearGradient id="linearGradient1949" x1="6.662" x2="11.788" y1="36.909" y2="42.035" gradientTransform="matrix(-1.1523241,0,0,-0.8487351,50.92696,1044.1551)" gradientUnits="userSpaceOnUse" xlink:href="#linearGradient1929"/><linearGradient id="linearGradient1278" x1="6.662" x2="11.788" y1="36.909" y2="42.035" gradientTransform="matrix(1.1523241,0,0,0.8487351,-2.9269614,1003.1608)" gradientUnits="userSpaceOnUse" xlink:href="#linearGradient1929"/><radialGradient id="radialGradient862" cx="25.594" cy="44.565" r=".936" fx="25.594" fy="44.565" gradientTransform="matrix(1.3935837,2.3072462e-6,-2.2141584e-6,1.3373583,-10.07318,-15.212812)" gradientUnits="userSpaceOnUse" xlink:href="#linearGradient3708-8-7"/><linearGradient id="linearGradient3708-8-7"><stop id="stop3710-1-5" offset="0" stop-color="#daffc1" stop-opacity="1"/><stop id="stop3716-9-3" offset="1" stop-color="#3a9000" stop-opacity="1"/></linearGradient><linearGradient id="linearGradient1340" x1="23.813" x2="23.813" y1="5.438" y2="6.375" gradientTransform="matrix(1.0078733,0,0,1.0078733,-0.18896045,1004.6359)" gradientUnits="userSpaceOnUse" xlink:href="#linearGradient1334"/><linearGradient id="linearGradient1344" x1="23.813" x2="23.813" y1="3.581" y2="15.125" gradientTransform="matrix(1.0078733,0,0,1.0078733,-0.18896045,1004.6222)" gradientUnits="userSpaceOnUse" xlink:href="#linearGradient1346"/><linearGradient id="linearGradient1424" x1="25.279" x2="25.279" y1="6.104" y2="29.438" gradientTransform="matrix(1.0078733,0,0,1.0078733,-0.18896045,1004.6359)" gradientUnits="userSpaceOnUse" xlink:href="#linearGradient1418"/><linearGradient id="linearGradient1428" x1="23.813" x2="23.813" y1="5.438" y2="6.375" gradientTransform="matrix(0,-1.0078733,1.0078733,0,0.53544852,1047.847)" gradientUnits="userSpaceOnUse" xlink:href="#linearGradient1334"/><linearGradient id="linearGradient1435" x1="23.813" x2="23.813" y1="5.438" y2="6.375" gradientTransform="matrix(0,-1.0078733,-1.0078733,0,47.464551,1047.847)" gradientUnits="userSpaceOnUse" xlink:href="#linearGradient1334"/><linearGradient id="linearGradient1468" x1="24.395" x2="24.395" y1="37.393" y2="40.045" gradientTransform="matrix(1,0,0,0.51024613,0,1023.1947)" gradientUnits="userSpaceOnUse" xlink:href="#linearGradient1462"/><linearGradient id="linearGradient1484" x1="13.081" x2="13.081" y1="1050.683" y2="1045.38" gradientTransform="translate(21.321541,0)" gradientUnits="userSpaceOnUse" xlink:href="#linearGradient865"/><linearGradient id="linearGradient1488" x1="13.081" x2="13.081" y1="1049.715" y2="1045.38" gradientTransform="matrix(1.0435472,0,0,1.0956367,20.732634,-2195.0886)" gradientUnits="userSpaceOnUse" xlink:href="#linearGradient1478"/><linearGradient id="linearGradient1503" x1="11.438" x2="11.438" y1="1042.393" y2="1044.425" gradientTransform="translate(-0.67845869,0)" gradientUnits="userSpaceOnUse" xlink:href="#linearGradient1497"/></defs><metadata id="metadata7"/><g id="layer1" transform="translate(0,-1004.3622)"><rect id="rect2991-1" width="48" height="48" x="0" y="-1052.362" fill="url(#linearGradient871)" fill-opacity="1" stroke="none" ry="1.945" transform="scale(1,-1)"/><rect id="rect1486" width="14.827" height="5.063" x="27.432" y="-1049.988" fill="url(#linearGradient1488)" fill-opacity="1" opacity=".04" ry="0" transform="scale(1,-1)"/><path id="rect846" fill="#000" fill-opacity="1" stroke="none" d="m -1e-7,1049.3622 0,1.0625 c 0,1.0773 0.8602229,1.9375 1.9374999,1.9375 l 44.1250002,0 c 1.077277,0 1.9375,-0.8602 1.9375,-1.9375 l 0,-1.0625 c 0,1.0773 -0.860223,1.9375 -1.9375,1.9375 l -44.1250002,0 C 0.8602228,1051.2997 -1e-7,1050.4395 -1e-7,1049.3622 Z"/><path id="path7515" fill="#fff" fill-opacity=".537" stroke="none" d="m 2.5312498,1005.0185 c -0.9170884,0 -1.6711467,0.6395 -1.8437499,1.5 0.335612,-0.2799 0.7745121,-0.4375 1.2499999,-0.4375 l 44.1250002,0 c 0.475488,0 0.914388,0.1576 1.25,0.4375 -0.172603,-0.8605 -0.926662,-1.5 -1.84375,-1.5 L 2.5312498,1005.0185 Z"/><path id="rect4280" fill="#000" fill-opacity=".392" stroke="none" d="m 1.9374998,1004.3622 c -1.0772769,0 -1.9374999,0.8602 -1.9374999,1.9375 l 0,43.0625 c 0,0.7934 0.4800236,1.449 1.1562499,1.75 -0.3093416,-0.3333 -0.4999999,-0.7824 -0.4999999,-1.2812 l 0,-42.9375 c 0,-1.0482 0.8268989,-1.875 1.8749999,-1.875 l 42.9375002,0 c 1.048101,0 1.875,0.8268 1.875,1.875 l 0,42.9375 c 0,0.4988 -0.190658,0.9479 -0.5,1.2812 0.676226,-0.301 1.15625,-0.9566 1.15625,-1.75 l 0,-43.0625 c 0,-1.0773 -0.860223,-1.9375 -1.9375,-1.9375 L 1.9374998,1004.3622 Z"/><path id="rect1460" fill="url(#linearGradient1468)" fill-opacity="1" d="m 0.65625,1042.2812 0,1.0683 46.6875,0 0,-1.0683 L 0.65625,1042.2812 Z" opacity=".278"/><rect id="rect846-4" width="10.875" height="1.061" x="5.741" y="1042.285" fill="url(#linearGradient1503)" fill-opacity="1" stroke="none" ry="0"/><rect id="rect1476" width="14.208" height="4.621" x="27.741" y="1045.146" fill="url(#linearGradient1484)" fill-opacity="1" opacity=".278" ry="0"/><path id="path852" fill="url(#radialGradient862)" fill-opacity="1" stroke="#1a1a1a" stroke-dasharray="none" stroke-miterlimit="4" stroke-width=".232" d="m 26.937498,45.09375 c 0,0.742133 -0.601617,1.34375 -1.34375,1.34375 -0.742133,0 -1.34375,-0.601617 -1.34375,-1.34375 0,-0.742133 0.601617,-1.34375 1.34375,-1.34375 C 26.335881,43.75 26.937498,44.351617 26.937498,45.09375 Z" transform="matrix(0.36627774,0,0,0.36627774,9.0798547,1026.298)"/><g id="g1945" transform="translate(0,-0.79549512)"><rect id="rect873" width="42.331" height="31.997" x="2.835" y="-1039.657" fill="url(#linearGradient875)" fill-opacity="1" stroke="none" ry="1.296" transform="scale(1,-1)"/><path id="path1217" fill="url(#linearGradient1278)" fill-opacity="1" stroke="none" d="m 2.8346596,1033.5178 0,4.8504 c 0,0.7181 0.5732223,1.2913 1.2913377,1.2913 l 7.9999947,0 0,-6.1417 L 2.8346596,1033.5178 Z" opacity=".65"/><path id="path1219" fill="url(#linearGradient1941)" fill-opacity="1" stroke="none" d="m 35.874008,1033.5178 0,6.1417 7.999995,0 c 0.718115,0 1.291337,-0.5732 1.291337,-1.2913 l 0,-4.8504 L 35.874008,1033.5178 Z" opacity=".65"/><path id="path1221" fill="url(#linearGradient1947)" fill-opacity="1" stroke="none" d="m 4.1259973,1007.6595 c -0.7181154,0 -1.2913377,0.5732 -1.2913377,1.2914 l 0,4.8503 9.2913324,0 0,-6.1417 L 4.1259973,1007.6595 Z" opacity=".65"/><path id="path1223" fill="url(#linearGradient1949)" fill-opacity="1" stroke="none" d="m 35.874008,1007.6595 0,6.1417 9.291332,0 0,-4.8503 c 0,-0.7182 -0.573222,-1.2914 -1.291337,-1.2914 L 35.874008,1007.6595 Z" opacity=".65"/><rect id="rect883" width="36.283" height="27.426" x="5.858" y="-1037.371" fill="url(#linearGradient885)" fill-opacity="1" stroke="none" ry="1.111" transform="scale(1,-1)"/><g id="text1314" fill="#69f8dc" fill-opacity="1" stroke="none" font-family="Helvetica Neue" font-size="8.035" font-stretch="normal" font-style="normal" font-variant="normal" font-weight="normal" letter-spacing="0" text-anchor="start" transform="matrix(0.81441646,0,0,1.0078733,2.1775917,-7.6339516)" word-spacing="0" writing-mode="lr-tb" style="text-align:start;line-height:125%;-inkscape-font-specification:Helvetica Neue"><path id="path1319" d="m 7.9999998,1015.8242 4.0818702,-1.8481 0,-0.4982 -4.0818702,-1.8481 0,0.5464 3.4149512,1.5508 -3.4149512,1.5508 L 7.9999998,1015.8242 Z"/><path id="path1321" d="m 12.44835,1016.7643 4.017589,0 0,-0.4018 -4.017589,0 L 12.44835,1016.7643 Z"/></g><path id="rect2622" fill="url(#linearGradient1424)" fill-opacity="1" stroke="none" d="m 5.8897757,1010.9036 c -0.00759,0.053 -0.031496,0.1027 -0.031496,0.1575 l 0,0.095 36.2834403,0 0,-0.095 c 0,-0.055 -0.02391,-0.1049 -0.0315,-0.1575 L 5.8897757,1010.9036 z m -0.031496,1.0079 0,0.2835 36.2834403,0 0,-0.2835 L 5.8582796,1011.9115 z m 0,1.0079 0,0.2834 36.2834403,0 0,-0.2834 L 5.8582796,1012.9194 z m 0,1.0078 0,0.2835 36.2834403,0 0,-0.2835 L 5.8582796,1013.9272 z m 0,1.0079 0,0.2835 36.2834403,0 0,-0.2835 L 5.8582796,1014.9351 z m 0,1.0079 0,0.2834 36.2834403,0 0,-0.2834 L 5.8582796,1015.943 z m 0,1.0079 0,0.2834 36.2834403,0 0,-0.2834 L 5.8582796,1016.9509 z m 0,1.0078 0,0.2835 36.2834403,0 0,-0.2835 L 5.8582796,1017.9587 z m 0,1.0079 0,0.2835 36.2834403,0 0,-0.2835 L 5.8582796,1018.9666 z m 0,1.0079 0,0.2834 36.2834403,0 0,-0.2834 L 5.8582796,1019.9745 z m 0,1.0078 0,0.2835 36.2834403,0 0,-0.2835 L 5.8582796,1020.9823 z m 0,1.0079 0,0.2835 36.2834403,0 0,-0.2835 L 5.8582796,1021.9902 z m 0,1.0079 0,0.2835 36.2834403,0 0,-0.2835 L 5.8582796,1022.9981 z m 0,1.0394 0,0.2519 36.2834403,0 0,-0.2519 L 5.8582796,1024.0375 z m 0,1.0078 0,0.2835 36.2834403,0 0,-0.2835 L 5.8582796,1025.0453 z m 0,1.0079 0,0.2835 36.2834403,0 0,-0.2835 L 5.8582796,1026.0532 z m 0,1.0079 0,0.2834 36.2834403,0 0,-0.2834 L 5.8582796,1027.0611 z m 0,1.0079 0,0.2834 36.2834403,0 0,-0.2834 L 5.8582796,1028.069 z m 0,1.0078 0,0.2835 36.2834403,0 0,-0.2835 L 5.8582796,1029.0768 z m 0,1.0079 0,0.2835 36.2834403,0 0,-0.2835 L 5.8582796,1030.0847 z m 0,1.0079 0,0.2834 36.2834403,0 0,-0.2834 L 5.8582796,1031.0926 z m 0,1.0078 0,0.2835 36.2834403,0 0,-0.2835 L 5.8582796,1032.1004 z m 0,1.0079 0,0.2835 36.2834403,0 0,-0.2835 L 5.8582796,1033.1083 z m 0,1.0079 0,0.2835 36.2834403,0 0,-0.2835 L 5.8582796,1034.1162 z m 0,1.0079 0,0.2834 36.2834403,0 0,-0.2834 L 5.8582796,1035.1241 z m 0,1.0078 0,0.126 c 0,0.055 0.023906,0.1049 0.031496,0.1575 l 36.2204483,0 c 0.0076,-0.053 0.0315,-0.1027 0.0315,-0.1575 l 0,-0.126 L 5.8582796,1036.1319 Z" opacity=".278"/><path id="path1342" fill="url(#linearGradient1344)" fill-opacity="1" stroke="none" d="m 6.9606411,1009.9451 c -0.6155275,0 -1.1023615,0.4868 -1.1023615,1.1023 l 0,10.5197 36.2834404,0 0,-10.5197 C 42.14172,1010.4319 41.654886,1009.9451 41.039359,1009.9451 Z" opacity=".386"/><path id="rect1327" fill="url(#linearGradient1340)" fill-opacity="1" stroke="none" d="m 6.9606411,1009.9587 c -0.6155275,0 -1.1023615,0.4869 -1.1023615,1.1024 l 0,0.4409 36.2834404,0 0,-0.4409 c 0,-0.6155 -0.486834,-1.1024 -1.102361,-1.1024 L 6.9606411,1009.9587 Z"/><path id="path1426" fill="url(#linearGradient1428)" fill-opacity="1" stroke="none" d="m 6.9606411,1009.9587 c -0.6155275,0 -1.1023615,0.4869 -1.1023615,1.1024 l 0,25.1968 c 0,0.6156 0.486834,1.1024 1.1023615,1.1024 l 0.4409446,0 0,-27.4016 L 6.9606411,1009.9587 Z"/><path id="path1433" fill="url(#linearGradient1435)" fill-opacity="1" stroke="none" d="m 41.039359,1009.9588 c 0.615527,0 1.102361,0.4868 1.102361,1.1023 l 0,25.1968 c 0,0.6155 -0.486834,1.1024 -1.102361,1.1024 l -0.440945,0 0,-27.4015 L 41.039359,1009.9588 Z"/></g><path id="rect1490" fill="#fff" fill-opacity="1" d="m 27.446541,1049.9882 0,0.25 14.8125,0 0,-0.25 L 27.446541,1049.9882 Z" opacity=".278"/></g></svg>