<svg xmlns="http://www.w3.org/2000/svg" xmlns:svg="http://www.w3.org/2000/svg" xmlns:xlink="http://www.w3.org/1999/xlink" id="svg2" width="48" height="48" version="1.1"><defs id="defs4"><linearGradient id="linearGradient5229"><stop id="stop5231" offset="0" stop-color="#a2eb59" stop-opacity="1"/><stop id="stop5233" offset="1" stop-color="#a2eb59" stop-opacity="0"/></linearGradient><linearGradient id="linearGradient25246"><stop id="stop25248" offset="0" stop-color="#000" stop-opacity="1"/><stop id="stop25250" offset="1" stop-color="#000" stop-opacity="0"/></linearGradient><linearGradient id="linearGradient25252" x1="24.13" x2="24.13" y1="46.232" y2="43.227" gradientTransform="translate(0,1004.3622)" gradientUnits="userSpaceOnUse" xlink:href="#linearGradient25246"/><linearGradient id="linearGradient25256" x1="24.13" x2="24.13" y1="46.232" y2="43.227" gradientTransform="matrix(1,0,0,-1,0,1052.3622)" gradientUnits="userSpaceOnUse" xlink:href="#linearGradient25246"/><linearGradient id="linearGradient25260" x1="24.13" x2="24.13" y1="46.232" y2="43.227" gradientTransform="matrix(0,-1,-1,0,48,1052.3622)" gradientUnits="userSpaceOnUse" xlink:href="#linearGradient25246"/><linearGradient id="linearGradient25264" x1="24.13" x2="24.13" y1="46.232" y2="43.227" gradientTransform="matrix(0,-1,1,0,0,1052.3622)" gradientUnits="userSpaceOnUse" xlink:href="#linearGradient25246"/><radialGradient id="radialGradient5235" cx="41" cy="1013.362" r="1.75" fx="41" fy="1013.362" gradientTransform="matrix(0.95238097,0,0,0.95238097,1.1428567,48.969608)" gradientUnits="userSpaceOnUse" xlink:href="#linearGradient5229"/><radialGradient id="radialGradient5239" cx="41" cy="1013.362" r="1.75" fx="41" fy="1013.362" gradientTransform="matrix(0.95238097,0,0,0.95238097,-0.76190527,48.969608)" gradientUnits="userSpaceOnUse" xlink:href="#linearGradient5229"/><radialGradient id="radialGradient5243" cx="41" cy="1013.362" r="1.75" fx="41" fy="1013.362" gradientTransform="matrix(0.95238097,0,0,0.95238097,-2.6666672,48.969608)" gradientUnits="userSpaceOnUse" xlink:href="#linearGradient5229"/><radialGradient id="radialGradient5247" cx="41" cy="1013.362" r="1.75" fx="41" fy="1013.362" gradientTransform="matrix(0.95238097,0,0,0.95238097,-4.5714292,48.969608)" gradientUnits="userSpaceOnUse" xlink:href="#linearGradient5229"/><radialGradient id="radialGradient5251" cx="41" cy="1013.362" r="1.75" fx="41" fy="1013.362" gradientTransform="matrix(0.95238097,0,0,0.95238097,-6.4761911,48.969608)" gradientUnits="userSpaceOnUse" xlink:href="#linearGradient5229"/><radialGradient id="radialGradient5255" cx="41" cy="1013.362" r="1.75" fx="41" fy="1013.362" gradientTransform="matrix(0.95238097,0,0,0.95238097,-8.3809531,48.969608)" gradientUnits="userSpaceOnUse" xlink:href="#linearGradient5229"/><radialGradient id="radialGradient5259" cx="41" cy="1013.362" r="1.75" fx="41" fy="1013.362" gradientTransform="matrix(0.95238097,0,0,0.95238097,-10.285715,48.969608)" gradientUnits="userSpaceOnUse" xlink:href="#linearGradient5229"/><radialGradient id="radialGradient5263" cx="41" cy="1013.362" r="1.75" fx="41" fy="1013.362" gradientTransform="matrix(0.95238097,0,0,0.95238097,-12.190477,48.969608)" gradientUnits="userSpaceOnUse" xlink:href="#linearGradient5229"/><radialGradient id="radialGradient5267" cx="41" cy="1013.362" r="1.75" fx="41" fy="1013.362" gradientTransform="matrix(0.95238097,0,0,0.95238097,-12.190477,50.87437)" gradientUnits="userSpaceOnUse" xlink:href="#linearGradient5229"/><radialGradient id="radialGradient5271" cx="41" cy="1013.362" r="1.75" fx="41" fy="1013.362" gradientTransform="matrix(0.95238097,0,0,0.95238097,-10.285715,50.87437)" gradientUnits="userSpaceOnUse" xlink:href="#linearGradient5229"/><radialGradient id="radialGradient5275" cx="41" cy="1013.362" r="1.75" fx="41" fy="1013.362" gradientTransform="matrix(0.95238097,0,0,0.95238097,-8.3809531,50.87437)" gradientUnits="userSpaceOnUse" xlink:href="#linearGradient5229"/><radialGradient id="radialGradient5279" cx="41" cy="1013.362" r="1.75" fx="41" fy="1013.362" gradientTransform="matrix(0.95238097,0,0,0.95238097,-6.4761911,50.87437)" gradientUnits="userSpaceOnUse" xlink:href="#linearGradient5229"/><radialGradient id="radialGradient5283" cx="41" cy="1013.362" r="1.75" fx="41" fy="1013.362" gradientTransform="matrix(0.95238097,0,0,0.95238097,-4.5714292,50.87437)" gradientUnits="userSpaceOnUse" xlink:href="#linearGradient5229"/><radialGradient id="radialGradient5287" cx="41" cy="1013.362" r="1.75" fx="41" fy="1013.362" gradientTransform="matrix(0.95238097,0,0,0.95238097,-2.6666672,50.87437)" gradientUnits="userSpaceOnUse" xlink:href="#linearGradient5229"/><radialGradient id="radialGradient5291" cx="41" cy="1013.362" r="1.75" fx="41" fy="1013.362" gradientTransform="matrix(0.95238097,0,0,0.95238097,-0.76190527,50.87437)" gradientUnits="userSpaceOnUse" xlink:href="#linearGradient5229"/><radialGradient id="radialGradient5295" cx="41" cy="1013.362" r="1.75" fx="41" fy="1013.362" gradientTransform="matrix(0.95238097,0,0,0.95238097,1.1428567,50.87437)" gradientUnits="userSpaceOnUse" xlink:href="#linearGradient5229"/><radialGradient id="radialGradient5299" cx="41" cy="1013.362" r="1.75" fx="41" fy="1013.362" gradientTransform="matrix(0.95238097,0,0,0.95238097,-0.76190527,52.779132)" gradientUnits="userSpaceOnUse" xlink:href="#linearGradient5229"/><radialGradient id="radialGradient5303" cx="41" cy="1013.362" r="1.75" fx="41" fy="1013.362" gradientTransform="matrix(0.95238097,0,0,0.95238097,-2.6666672,52.779132)" gradientUnits="userSpaceOnUse" xlink:href="#linearGradient5229"/><radialGradient id="radialGradient5307" cx="41" cy="1013.362" r="1.75" fx="41" fy="1013.362" gradientTransform="matrix(0.95238097,0,0,0.95238097,-4.5714292,52.779132)" gradientUnits="userSpaceOnUse" xlink:href="#linearGradient5229"/><radialGradient id="radialGradient5311" cx="41" cy="1013.362" r="1.75" fx="41" fy="1013.362" gradientTransform="matrix(0.95238097,0,0,0.95238097,-6.4761911,52.779132)" gradientUnits="userSpaceOnUse" xlink:href="#linearGradient5229"/><radialGradient id="radialGradient5315" cx="41" cy="1013.362" r="1.75" fx="41" fy="1013.362" gradientTransform="matrix(0.95238097,0,0,0.95238097,-8.3809531,52.779132)" gradientUnits="userSpaceOnUse" xlink:href="#linearGradient5229"/><radialGradient id="radialGradient5319" cx="41" cy="1013.362" r="1.75" fx="41" fy="1013.362" gradientTransform="matrix(0.95238097,0,0,0.95238097,-8.3809531,54.683894)" gradientUnits="userSpaceOnUse" xlink:href="#linearGradient5229"/><radialGradient id="radialGradient5323" cx="41" cy="1013.362" r="1.75" fx="41" fy="1013.362" gradientTransform="matrix(0.95238097,0,0,0.95238097,-10.285715,54.683894)" gradientUnits="userSpaceOnUse" xlink:href="#linearGradient5229"/><radialGradient id="radialGradient5327" cx="41" cy="1013.362" r="1.75" fx="41" fy="1013.362" gradientTransform="matrix(0.95238097,0,0,0.95238097,-10.285715,56.588656)" gradientUnits="userSpaceOnUse" xlink:href="#linearGradient5229"/><radialGradient id="radialGradient5331" cx="41" cy="1013.362" r="1.75" fx="41" fy="1013.362" gradientTransform="matrix(0.95238097,0,0,0.95238097,-12.190477,56.588656)" gradientUnits="userSpaceOnUse" xlink:href="#linearGradient5229"/><radialGradient id="radialGradient5335" cx="41" cy="1013.362" r="1.75" fx="41" fy="1013.362" gradientTransform="matrix(0.95238097,0,0,0.95238097,-12.190477,58.493418)" gradientUnits="userSpaceOnUse" xlink:href="#linearGradient5229"/><radialGradient id="radialGradient5339" cx="41" cy="1013.362" r="1.75" fx="41" fy="1013.362" gradientTransform="matrix(0.95238097,0,0,0.95238097,-14.095239,58.493418)" gradientUnits="userSpaceOnUse" xlink:href="#linearGradient5229"/><radialGradient id="radialGradient5343" cx="41" cy="1013.362" r="1.75" fx="41" fy="1013.362" gradientTransform="matrix(0.95238097,0,0,0.95238097,-14.095239,60.39818)" gradientUnits="userSpaceOnUse" xlink:href="#linearGradient5229"/><radialGradient id="radialGradient5347" cx="41" cy="1013.362" r="1.75" fx="41" fy="1013.362" gradientTransform="matrix(0.95238097,0,0,0.95238097,-16.000001,60.39818)" gradientUnits="userSpaceOnUse" xlink:href="#linearGradient5229"/><radialGradient id="radialGradient5351" cx="41" cy="1013.362" r="1.75" fx="41" fy="1013.362" gradientTransform="matrix(0.95238097,0,0,0.95238097,-17.904763,62.302941)" gradientUnits="userSpaceOnUse" xlink:href="#linearGradient5229"/><radialGradient id="radialGradient5355" cx="41" cy="1013.362" r="1.75" fx="41" fy="1013.362" gradientTransform="matrix(0.95238097,0,0,0.95238097,-16.000001,62.302941)" gradientUnits="userSpaceOnUse" xlink:href="#linearGradient5229"/><radialGradient id="radialGradient5359" cx="41" cy="1013.362" r="1.75" fx="41" fy="1013.362" gradientTransform="matrix(0.95238097,0,0,0.95238097,-14.095239,62.302941)" gradientUnits="userSpaceOnUse" xlink:href="#linearGradient5229"/><radialGradient id="radialGradient5363" cx="41" cy="1013.362" r="1.75" fx="41" fy="1013.362" gradientTransform="matrix(0.95238097,0,0,0.95238097,-12.190477,62.302941)" gradientUnits="userSpaceOnUse" xlink:href="#linearGradient5229"/><radialGradient id="radialGradient5367" cx="41" cy="1013.362" r="1.75" fx="41" fy="1013.362" gradientTransform="matrix(0.95238097,0,0,0.95238097,-12.190477,60.39818)" gradientUnits="userSpaceOnUse" xlink:href="#linearGradient5229"/><radialGradient id="radialGradient5371" cx="41" cy="1013.362" r="1.75" fx="41" fy="1013.362" gradientTransform="matrix(0.95238097,0,0,0.95238097,-10.285715,60.39818)" gradientUnits="userSpaceOnUse" xlink:href="#linearGradient5229"/><radialGradient id="radialGradient5375" cx="41" cy="1013.362" r="1.75" fx="41" fy="1013.362" gradientTransform="matrix(0.95238097,0,0,0.95238097,-10.285715,62.302941)" gradientUnits="userSpaceOnUse" xlink:href="#linearGradient5229"/><radialGradient id="radialGradient5379" cx="41" cy="1013.362" r="1.75" fx="41" fy="1013.362" gradientTransform="matrix(0.95238097,0,0,0.95238097,-8.3809531,60.39818)" gradientUnits="userSpaceOnUse" xlink:href="#linearGradient5229"/><radialGradient id="radialGradient5383" cx="41" cy="1013.362" r="1.75" fx="41" fy="1013.362" gradientTransform="matrix(0.95238097,0,0,0.95238097,-10.285715,58.493418)" gradientUnits="userSpaceOnUse" xlink:href="#linearGradient5229"/><radialGradient id="radialGradient5387" cx="41" cy="1013.362" r="1.75" fx="41" fy="1013.362" gradientTransform="matrix(0.95238097,0,0,0.95238097,-8.3809531,58.493418)" gradientUnits="userSpaceOnUse" xlink:href="#linearGradient5229"/><radialGradient id="radialGradient5391" cx="41" cy="1013.362" r="1.75" fx="41" fy="1013.362" gradientTransform="matrix(0.95238097,0,0,0.95238097,-8.3809531,56.588656)" gradientUnits="userSpaceOnUse" xlink:href="#linearGradient5229"/><radialGradient id="radialGradient5395" cx="41" cy="1013.362" r="1.75" fx="41" fy="1013.362" gradientTransform="matrix(0.95238097,0,0,0.95238097,-6.4761911,56.588656)" gradientUnits="userSpaceOnUse" xlink:href="#linearGradient5229"/><radialGradient id="radialGradient5399" cx="41" cy="1013.362" r="1.75" fx="41" fy="1013.362" gradientTransform="matrix(0.95238097,0,0,0.95238097,-6.4761911,58.493418)" gradientUnits="userSpaceOnUse" xlink:href="#linearGradient5229"/><radialGradient id="radialGradient5403" cx="41" cy="1013.362" r="1.75" fx="41" fy="1013.362" gradientTransform="matrix(0.95238097,0,0,0.95238097,-4.5714292,56.588656)" gradientUnits="userSpaceOnUse" xlink:href="#linearGradient5229"/><radialGradient id="radialGradient5407" cx="41" cy="1013.362" r="1.75" fx="41" fy="1013.362" gradientTransform="matrix(0.95238097,0,0,0.95238097,-6.4761911,54.683894)" gradientUnits="userSpaceOnUse" xlink:href="#linearGradient5229"/><radialGradient id="radialGradient5411" cx="41" cy="1013.362" r="1.75" fx="41" fy="1013.362" gradientTransform="matrix(0.95238097,0,0,0.95238097,-4.5714292,54.683894)" gradientUnits="userSpaceOnUse" xlink:href="#linearGradient5229"/><radialGradient id="radialGradient5415" cx="41" cy="1013.362" r="1.75" fx="41" fy="1013.362" gradientTransform="matrix(0.95238097,0,0,0.95238097,-2.6666672,54.683894)" gradientUnits="userSpaceOnUse" xlink:href="#linearGradient5229"/><radialGradient id="radialGradient5419" cx="41" cy="1013.362" r="1.75" fx="41" fy="1013.362" gradientTransform="matrix(0.95238097,0,0,0.95238097,-12.190477,64.207703)" gradientUnits="userSpaceOnUse" xlink:href="#linearGradient5229"/><radialGradient id="radialGradient5423" cx="41" cy="1013.362" r="1.75" fx="41" fy="1013.362" gradientTransform="matrix(0.95238097,0,0,0.95238097,-14.095239,64.207703)" gradientUnits="userSpaceOnUse" xlink:href="#linearGradient5229"/><radialGradient id="radialGradient5427" cx="41" cy="1013.362" r="1.75" fx="41" fy="1013.362" gradientTransform="matrix(0.95238097,0,0,0.95238097,-16.000001,64.207703)" gradientUnits="userSpaceOnUse" xlink:href="#linearGradient5229"/><radialGradient id="radialGradient5431" cx="41" cy="1013.362" r="1.75" fx="41" fy="1013.362" gradientTransform="matrix(0.95238097,0,0,0.95238097,-17.904763,64.207703)" gradientUnits="userSpaceOnUse" xlink:href="#linearGradient5229"/><radialGradient id="radialGradient5435" cx="41" cy="1013.362" r="1.75" fx="41" fy="1013.362" gradientTransform="matrix(0.95238097,0,0,0.95238097,-19.809525,64.207703)" gradientUnits="userSpaceOnUse" xlink:href="#linearGradient5229"/><radialGradient id="radialGradient5439" cx="41" cy="1013.362" r="1.75" fx="41" fy="1013.362" gradientTransform="matrix(0.95238097,0,0,0.95238097,-19.809525,66.112465)" gradientUnits="userSpaceOnUse" xlink:href="#linearGradient5229"/><radialGradient id="radialGradient5443" cx="41" cy="1013.362" r="1.75" fx="41" fy="1013.362" gradientTransform="matrix(0.95238097,0,0,0.95238097,-17.904763,66.112465)" gradientUnits="userSpaceOnUse" xlink:href="#linearGradient5229"/><radialGradient id="radialGradient5447" cx="41" cy="1013.362" r="1.75" fx="41" fy="1013.362" gradientTransform="matrix(0.95238097,0,0,0.95238097,-16.000001,66.112465)" gradientUnits="userSpaceOnUse" xlink:href="#linearGradient5229"/><radialGradient id="radialGradient5451" cx="41" cy="1013.362" r="1.75" fx="41" fy="1013.362" gradientTransform="matrix(0.95238097,0,0,0.95238097,-14.095239,66.112465)" gradientUnits="userSpaceOnUse" xlink:href="#linearGradient5229"/><radialGradient id="radialGradient5455" cx="41" cy="1013.362" r="1.75" fx="41" fy="1013.362" gradientTransform="matrix(0.95238097,0,0,0.95238097,-16.000001,68.017227)" gradientUnits="userSpaceOnUse" xlink:href="#linearGradient5229"/><radialGradient id="radialGradient5459" cx="41" cy="1013.362" r="1.75" fx="41" fy="1013.362" gradientTransform="matrix(0.95238097,0,0,0.95238097,-17.904763,68.017227)" gradientUnits="userSpaceOnUse" xlink:href="#linearGradient5229"/><radialGradient id="radialGradient5463" cx="41" cy="1013.362" r="1.75" fx="41" fy="1013.362" gradientTransform="matrix(0.95238097,0,0,0.95238097,-19.809525,68.017227)" gradientUnits="userSpaceOnUse" xlink:href="#linearGradient5229"/><radialGradient id="radialGradient5467" cx="41" cy="1013.362" r="1.75" fx="41" fy="1013.362" gradientTransform="matrix(0.95238097,0,0,0.95238097,-21.714287,68.017227)" gradientUnits="userSpaceOnUse" xlink:href="#linearGradient5229"/><radialGradient id="radialGradient5471" cx="41" cy="1013.362" r="1.75" fx="41" fy="1013.362" gradientTransform="matrix(0.95238097,0,0,0.95238097,-23.619049,68.017227)" gradientUnits="userSpaceOnUse" xlink:href="#linearGradient5229"/><radialGradient id="radialGradient5475" cx="41" cy="1013.362" r="1.75" fx="41" fy="1013.362" gradientTransform="matrix(0.95238097,0,0,0.95238097,-25.523811,68.017227)" gradientUnits="userSpaceOnUse" xlink:href="#linearGradient5229"/><radialGradient id="radialGradient5479" cx="41" cy="1013.362" r="1.75" fx="41" fy="1013.362" gradientTransform="matrix(0.95238097,0,0,0.95238097,-27.428572,68.017227)" gradientUnits="userSpaceOnUse" xlink:href="#linearGradient5229"/><radialGradient id="radialGradient5485" cx="41" cy="1013.362" r="1.75" fx="41" fy="1013.362" gradientTransform="matrix(0.95238097,0,0,0.95238097,-27.428572,69.921989)" gradientUnits="userSpaceOnUse" xlink:href="#linearGradient5229"/><radialGradient id="radialGradient5489" cx="41" cy="1013.362" r="1.75" fx="41" fy="1013.362" gradientTransform="matrix(0.95238097,0,0,0.95238097,-27.428572,71.826751)" gradientUnits="userSpaceOnUse" xlink:href="#linearGradient5229"/><radialGradient id="radialGradient5493" cx="41" cy="1013.362" r="1.75" fx="41" fy="1013.362" gradientTransform="matrix(0.95238097,0,0,0.95238097,-27.428572,73.731513)" gradientUnits="userSpaceOnUse" xlink:href="#linearGradient5229"/><radialGradient id="radialGradient5497" cx="41" cy="1013.362" r="1.75" fx="41" fy="1013.362" gradientTransform="matrix(0.95238097,0,0,0.95238097,-27.428572,75.636275)" gradientUnits="userSpaceOnUse" xlink:href="#linearGradient5229"/><radialGradient id="radialGradient5501" cx="41" cy="1013.362" r="1.75" fx="41" fy="1013.362" gradientTransform="matrix(0.95238097,0,0,0.95238097,-27.428572,77.541037)" gradientUnits="userSpaceOnUse" xlink:href="#linearGradient5229"/><radialGradient id="radialGradient5505" cx="41" cy="1013.362" r="1.75" fx="41" fy="1013.362" gradientTransform="matrix(0.95238097,0,0,0.95238097,-25.523811,77.541037)" gradientUnits="userSpaceOnUse" xlink:href="#linearGradient5229"/><radialGradient id="radialGradient5509" cx="41" cy="1013.362" r="1.75" fx="41" fy="1013.362" gradientTransform="matrix(0.95238097,0,0,0.95238097,-25.523811,75.636275)" gradientUnits="userSpaceOnUse" xlink:href="#linearGradient5229"/><radialGradient id="radialGradient5513" cx="41" cy="1013.362" r="1.75" fx="41" fy="1013.362" gradientTransform="matrix(0.95238097,0,0,0.95238097,-25.523811,73.731513)" gradientUnits="userSpaceOnUse" xlink:href="#linearGradient5229"/><radialGradient id="radialGradient5517" cx="41" cy="1013.362" r="1.75" fx="41" fy="1013.362" gradientTransform="matrix(0.95238097,0,0,0.95238097,-25.523811,71.826751)" gradientUnits="userSpaceOnUse" xlink:href="#linearGradient5229"/><radialGradient id="radialGradient5521" cx="41" cy="1013.362" r="1.75" fx="41" fy="1013.362" gradientTransform="matrix(0.95238097,0,0,0.95238097,-25.523811,69.921989)" gradientUnits="userSpaceOnUse" xlink:href="#linearGradient5229"/><radialGradient id="radialGradient5525" cx="41" cy="1013.362" r="1.75" fx="41" fy="1013.362" gradientTransform="matrix(0.95238097,0,0,0.95238097,-23.619049,69.921989)" gradientUnits="userSpaceOnUse" xlink:href="#linearGradient5229"/><radialGradient id="radialGradient5529" cx="41" cy="1013.362" r="1.75" fx="41" fy="1013.362" gradientTransform="matrix(0.95238097,0,0,0.95238097,-21.714287,69.921989)" gradientUnits="userSpaceOnUse" xlink:href="#linearGradient5229"/><radialGradient id="radialGradient5533" cx="41" cy="1013.362" r="1.75" fx="41" fy="1013.362" gradientTransform="matrix(0.95238097,0,0,0.95238097,-19.809525,69.921989)" gradientUnits="userSpaceOnUse" xlink:href="#linearGradient5229"/><radialGradient id="radialGradient5537" cx="41" cy="1013.362" r="1.75" fx="41" fy="1013.362" gradientTransform="matrix(0.95238097,0,0,0.95238097,-17.904763,69.921989)" gradientUnits="userSpaceOnUse" xlink:href="#linearGradient5229"/><radialGradient id="radialGradient5541" cx="41" cy="1013.362" r="1.75" fx="41" fy="1013.362" gradientTransform="matrix(0.95238097,0,0,0.95238097,-19.809525,71.826751)" gradientUnits="userSpaceOnUse" xlink:href="#linearGradient5229"/><radialGradient id="radialGradient5545" cx="41" cy="1013.362" r="1.75" fx="41" fy="1013.362" gradientTransform="matrix(0.95238097,0,0,0.95238097,-21.714287,71.826751)" gradientUnits="userSpaceOnUse" xlink:href="#linearGradient5229"/><radialGradient id="radialGradient5549" cx="41" cy="1013.362" r="1.75" fx="41" fy="1013.362" gradientTransform="matrix(0.95238097,0,0,0.95238097,-23.619049,71.826751)" gradientUnits="userSpaceOnUse" xlink:href="#linearGradient5229"/><radialGradient id="radialGradient5553" cx="41" cy="1013.362" r="1.75" fx="41" fy="1013.362" gradientTransform="matrix(0.95238097,0,0,0.95238097,-23.619049,73.731513)" gradientUnits="userSpaceOnUse" xlink:href="#linearGradient5229"/><radialGradient id="radialGradient5557" cx="41" cy="1013.362" r="1.75" fx="41" fy="1013.362" gradientTransform="matrix(0.95238097,0,0,0.95238097,-23.619049,75.636275)" gradientUnits="userSpaceOnUse" xlink:href="#linearGradient5229"/><radialGradient id="radialGradient5561" cx="41" cy="1013.362" r="1.75" fx="41" fy="1013.362" gradientTransform="matrix(0.95238097,0,0,0.95238097,-21.714287,73.731513)" gradientUnits="userSpaceOnUse" xlink:href="#linearGradient5229"/><radialGradient id="radialGradient5565" cx="41" cy="1013.362" r="1.75" fx="41" fy="1013.362" gradientTransform="matrix(0.95238097,0,0,0.95238097,-21.714287,66.112465)" gradientUnits="userSpaceOnUse" xlink:href="#linearGradient5229"/><radialGradient id="radialGradient5569" cx="41" cy="1013.362" r="1.75" fx="41" fy="1013.362" gradientTransform="matrix(0.95238097,0,0,0.95238097,-23.619049,66.112465)" gradientUnits="userSpaceOnUse" xlink:href="#linearGradient5229"/><radialGradient id="radialGradient5573" cx="41" cy="1013.362" r="1.75" fx="41" fy="1013.362" gradientTransform="matrix(0.95238097,0,0,0.95238097,-25.523811,66.112465)" gradientUnits="userSpaceOnUse" xlink:href="#linearGradient5229"/><radialGradient id="radialGradient5577" cx="41" cy="1013.362" r="1.75" fx="41" fy="1013.362" gradientTransform="matrix(0.95238097,0,0,0.95238097,-27.428572,66.112465)" gradientUnits="userSpaceOnUse" xlink:href="#linearGradient5229"/><radialGradient id="radialGradient5581" cx="41" cy="1013.362" r="1.75" fx="41" fy="1013.362" gradientTransform="matrix(0.95238097,0,0,0.95238097,-27.428572,64.207703)" gradientUnits="userSpaceOnUse" xlink:href="#linearGradient5229"/><radialGradient id="radialGradient5585" cx="41" cy="1013.362" r="1.75" fx="41" fy="1013.362" gradientTransform="matrix(0.95238097,0,0,0.95238097,-25.523811,64.207703)" gradientUnits="userSpaceOnUse" xlink:href="#linearGradient5229"/><radialGradient id="radialGradient5589" cx="41" cy="1013.362" r="1.75" fx="41" fy="1013.362" gradientTransform="matrix(0.95238097,0,0,0.95238097,-23.619049,64.207703)" gradientUnits="userSpaceOnUse" xlink:href="#linearGradient5229"/><radialGradient id="radialGradient5593" cx="41" cy="1013.362" r="1.75" fx="41" fy="1013.362" gradientTransform="matrix(0.95238097,0,0,0.95238097,-21.714287,64.207703)" gradientUnits="userSpaceOnUse" xlink:href="#linearGradient5229"/><radialGradient id="radialGradient5597" cx="41" cy="1013.362" r="1.75" fx="41" fy="1013.362" gradientTransform="matrix(0.95238097,0,0,0.95238097,-21.714287,62.302941)" gradientUnits="userSpaceOnUse" xlink:href="#linearGradient5229"/><radialGradient id="radialGradient5601" cx="41" cy="1013.362" r="1.75" fx="41" fy="1013.362" gradientTransform="matrix(0.95238097,0,0,0.95238097,-23.619049,62.302941)" gradientUnits="userSpaceOnUse" xlink:href="#linearGradient5229"/><radialGradient id="radialGradient5605" cx="41" cy="1013.362" r="1.75" fx="41" fy="1013.362" gradientTransform="matrix(0.95238097,0,0,0.95238097,-25.523811,62.302941)" gradientUnits="userSpaceOnUse" xlink:href="#linearGradient5229"/><radialGradient id="radialGradient5609" cx="41" cy="1013.362" r="1.75" fx="41" fy="1013.362" gradientTransform="matrix(0.95238097,0,0,0.95238097,-27.428572,62.302941)" gradientUnits="userSpaceOnUse" xlink:href="#linearGradient5229"/><radialGradient id="radialGradient5615" cx="41" cy="1013.362" r="1.75" fx="41" fy="1013.362" gradientTransform="matrix(0.95238097,0,0,0.95238097,-27.428572,60.39818)" gradientUnits="userSpaceOnUse" xlink:href="#linearGradient5229"/><radialGradient id="radialGradient5619" cx="41" cy="1013.362" r="1.75" fx="41" fy="1013.362" gradientTransform="matrix(0.95238097,0,0,0.95238097,-25.523811,60.39818)" gradientUnits="userSpaceOnUse" xlink:href="#linearGradient5229"/><radialGradient id="radialGradient5623" cx="41" cy="1013.362" r="1.75" fx="41" fy="1013.362" gradientTransform="matrix(0.95238097,0,0,0.95238097,-23.619049,60.39818)" gradientUnits="userSpaceOnUse" xlink:href="#linearGradient5229"/><radialGradient id="radialGradient5627" cx="41" cy="1013.362" r="1.75" fx="41" fy="1013.362" gradientTransform="matrix(0.95238097,0,0,0.95238097,-21.714287,60.39818)" gradientUnits="userSpaceOnUse" xlink:href="#linearGradient5229"/><radialGradient id="radialGradient5631" cx="41" cy="1013.362" r="1.75" fx="41" fy="1013.362" gradientTransform="matrix(0.95238097,0,0,0.95238097,-21.714287,58.493418)" gradientUnits="userSpaceOnUse" xlink:href="#linearGradient5229"/><radialGradient id="radialGradient5635" cx="41" cy="1013.362" r="1.75" fx="41" fy="1013.362" gradientTransform="matrix(0.95238097,0,0,0.95238097,-23.619049,58.493418)" gradientUnits="userSpaceOnUse" xlink:href="#linearGradient5229"/><radialGradient id="radialGradient5639" cx="41" cy="1013.362" r="1.75" fx="41" fy="1013.362" gradientTransform="matrix(0.95238097,0,0,0.95238097,-25.523811,58.493418)" gradientUnits="userSpaceOnUse" xlink:href="#linearGradient5229"/><radialGradient id="radialGradient5643" cx="41" cy="1013.362" r="1.75" fx="41" fy="1013.362" gradientTransform="matrix(0.95238097,0,0,0.95238097,-27.428572,58.493418)" gradientUnits="userSpaceOnUse" xlink:href="#linearGradient5229"/><radialGradient id="radialGradient5647" cx="41" cy="1013.362" r="1.75" fx="41" fy="1013.362" gradientTransform="matrix(0.95238097,0,0,0.95238097,-27.428572,56.588656)" gradientUnits="userSpaceOnUse" xlink:href="#linearGradient5229"/><radialGradient id="radialGradient5651" cx="41" cy="1013.362" r="1.75" fx="41" fy="1013.362" gradientTransform="matrix(0.95238097,0,0,0.95238097,-25.523811,56.588656)" gradientUnits="userSpaceOnUse" xlink:href="#linearGradient5229"/><radialGradient id="radialGradient5655" cx="41" cy="1013.362" r="1.75" fx="41" fy="1013.362" gradientTransform="matrix(0.95238097,0,0,0.95238097,-23.619049,56.588656)" gradientUnits="userSpaceOnUse" xlink:href="#linearGradient5229"/><radialGradient id="radialGradient5659" cx="41" cy="1013.362" r="1.75" fx="41" fy="1013.362" gradientTransform="matrix(0.95238097,0,0,0.95238097,-21.714287,56.588656)" gradientUnits="userSpaceOnUse" xlink:href="#linearGradient5229"/><radialGradient id="radialGradient5663" cx="41" cy="1013.362" r="1.75" fx="41" fy="1013.362" gradientTransform="matrix(0.95238097,0,0,0.95238097,-21.714287,54.683894)" gradientUnits="userSpaceOnUse" xlink:href="#linearGradient5229"/><radialGradient id="radialGradient5667" cx="41" cy="1013.362" r="1.75" fx="41" fy="1013.362" gradientTransform="matrix(0.95238097,0,0,0.95238097,-23.619049,54.683894)" gradientUnits="userSpaceOnUse" xlink:href="#linearGradient5229"/><radialGradient id="radialGradient5671" cx="41" cy="1013.362" r="1.75" fx="41" fy="1013.362" gradientTransform="matrix(0.95238097,0,0,0.95238097,-25.523811,54.683894)" gradientUnits="userSpaceOnUse" xlink:href="#linearGradient5229"/><radialGradient id="radialGradient5675" cx="41" cy="1013.362" r="1.75" fx="41" fy="1013.362" gradientTransform="matrix(0.95238097,0,0,0.95238097,-27.428572,54.683894)" gradientUnits="userSpaceOnUse" xlink:href="#linearGradient5229"/><radialGradient id="radialGradient5679" cx="41" cy="1013.362" r="1.75" fx="41" fy="1013.362" gradientTransform="matrix(0.95238097,0,0,0.95238097,-27.428572,52.779132)" gradientUnits="userSpaceOnUse" xlink:href="#linearGradient5229"/><radialGradient id="radialGradient5683" cx="41" cy="1013.362" r="1.75" fx="41" fy="1013.362" gradientTransform="matrix(0.95238097,0,0,0.95238097,-25.523811,52.779132)" gradientUnits="userSpaceOnUse" xlink:href="#linearGradient5229"/><radialGradient id="radialGradient5687" cx="41" cy="1013.362" r="1.75" fx="41" fy="1013.362" gradientTransform="matrix(0.95238097,0,0,0.95238097,-23.619049,52.779132)" gradientUnits="userSpaceOnUse" xlink:href="#linearGradient5229"/><radialGradient id="radialGradient5691" cx="41" cy="1013.362" r="1.75" fx="41" fy="1013.362" gradientTransform="matrix(0.95238097,0,0,0.95238097,-21.714287,52.779132)" gradientUnits="userSpaceOnUse" xlink:href="#linearGradient5229"/><radialGradient id="radialGradient5695" cx="41" cy="1013.362" r="1.75" fx="41" fy="1013.362" gradientTransform="matrix(0.95238097,0,0,0.95238097,-21.714287,50.87437)" gradientUnits="userSpaceOnUse" xlink:href="#linearGradient5229"/><radialGradient id="radialGradient5699" cx="41" cy="1013.362" r="1.75" fx="41" fy="1013.362" gradientTransform="matrix(0.95238097,0,0,0.95238097,-19.809525,50.87437)" gradientUnits="userSpaceOnUse" xlink:href="#linearGradient5229"/><radialGradient id="radialGradient5703" cx="41" cy="1013.362" r="1.75" fx="41" fy="1013.362" gradientTransform="matrix(0.95238097,0,0,0.95238097,-19.809525,48.969608)" gradientUnits="userSpaceOnUse" xlink:href="#linearGradient5229"/><radialGradient id="radialGradient5707" cx="41" cy="1013.362" r="1.75" fx="41" fy="1013.362" gradientTransform="matrix(0.95238097,0,0,0.95238097,-21.714287,48.969608)" gradientUnits="userSpaceOnUse" xlink:href="#linearGradient5229"/><radialGradient id="radialGradient5711" cx="41" cy="1013.362" r="1.75" fx="41" fy="1013.362" gradientTransform="matrix(0.95238097,0,0,0.95238097,-23.619049,48.969608)" gradientUnits="userSpaceOnUse" xlink:href="#linearGradient5229"/><radialGradient id="radialGradient5715" cx="41" cy="1013.362" r="1.75" fx="41" fy="1013.362" gradientTransform="matrix(0.95238097,0,0,0.95238097,-23.619049,50.87437)" gradientUnits="userSpaceOnUse" xlink:href="#linearGradient5229"/><radialGradient id="radialGradient5719" cx="41" cy="1013.362" r="1.75" fx="41" fy="1013.362" gradientTransform="matrix(0.95238097,0,0,0.95238097,-25.523811,50.87437)" gradientUnits="userSpaceOnUse" xlink:href="#linearGradient5229"/><radialGradient id="radialGradient5723" cx="41" cy="1013.362" r="1.75" fx="41" fy="1013.362" gradientTransform="matrix(0.95238097,0,0,0.95238097,-25.523811,48.969608)" gradientUnits="userSpaceOnUse" xlink:href="#linearGradient5229"/><radialGradient id="radialGradient5727" cx="41" cy="1013.362" r="1.75" fx="41" fy="1013.362" gradientTransform="matrix(0.95238097,0,0,0.95238097,-27.428572,48.969608)" gradientUnits="userSpaceOnUse" xlink:href="#linearGradient5229"/><radialGradient id="radialGradient5731" cx="41" cy="1013.362" r="1.75" fx="41" fy="1013.362" gradientTransform="matrix(0.95238097,0,0,0.95238097,-27.428572,50.87437)" gradientUnits="userSpaceOnUse" xlink:href="#linearGradient5229"/><radialGradient id="radialGradient5735" cx="41" cy="1013.362" r="1.75" fx="41" fy="1013.362" gradientTransform="matrix(0.95238097,0,0,0.95238097,-29.333334,50.87437)" gradientUnits="userSpaceOnUse" xlink:href="#linearGradient5229"/><radialGradient id="radialGradient5739" cx="41" cy="1013.362" r="1.75" fx="41" fy="1013.362" gradientTransform="matrix(0.95238097,0,0,0.95238097,-29.333334,48.969608)" gradientUnits="userSpaceOnUse" xlink:href="#linearGradient5229"/><linearGradient id="linearGradient6390-8"><stop id="stop6392-2" offset="0" stop-color="#fff" stop-opacity="1"/><stop id="stop6414-0" offset=".165" stop-color="#29282b" stop-opacity="1"/><stop id="stop6416-4" offset=".261" stop-color="#868c95" stop-opacity="1"/><stop id="stop6418-9" offset=".395" stop-color="#92979f" stop-opacity="1"/><stop id="stop6420-9" offset=".543" stop-color="#737881" stop-opacity="1"/><stop id="stop6422-5" offset=".626" stop-color="#70757e" stop-opacity="1"/><stop id="stop6424-1" offset=".721" stop-color="#e4e6e8" stop-opacity="1"/><stop id="stop6426-4" offset=".795" stop-color="#fff" stop-opacity="1"/><stop id="stop6394-6" offset="1" stop-color="#1d191a" stop-opacity="1"/></linearGradient><linearGradient id="linearGradient3310" x1="407.669" x2="407.669" y1="-555.928" y2="-495.714" gradientTransform="translate(-384.57144,-504.56432)" gradientUnits="userSpaceOnUse" xlink:href="#linearGradient6390-8"/></defs><metadata id="metadata7"/><g id="layer1" transform="translate(0,-1004.3622)"><rect id="rect2991-1-7" width="48" height="48" x="0" y="-1052.362" fill="url(#linearGradient3310)" fill-opacity="1" stroke="none" ry="1.945" transform="scale(1,-1)"/><flowRoot id="flowRoot61" fill="#000" fill-opacity="1" stroke="none" stroke-linecap="butt" stroke-linejoin="miter" stroke-opacity="1" stroke-width="1" font-family="sans-serif" font-size="40" font-style="normal" font-weight="normal" letter-spacing="0" word-spacing="0" xml:space="preserve" style="line-height:125%"><flowRegion id="flowRegion63"><rect id="rect65" width="57.629" height="49.321" x="-53.033" y="6.634"/></flowRegion><flowPara id="flowPara67"/></flowRoot><rect id="rect4562" width="42" height="42" x="3" y="-1049.362" fill="#000" fill-opacity=".235" stroke="none" ry="1.701" transform="scale(1,-1)"/><path id="path7515-7" fill="#fff" fill-opacity=".537" stroke="none" d="m 2.53125,1005.0185 c -0.9170884,0 -1.67114675,0.6395 -1.84374995,1.5 0.33561205,-0.2799 0.77451215,-0.4375 1.24999995,-0.4375 l 44.125,0 c 0.475488,0 0.914388,0.1576 1.25,0.4375 -0.172603,-0.8605 -0.926662,-1.5 -1.84375,-1.5 L 2.53125,1005.0185 Z"/><rect id="rect25136" width="40" height="40" x="4" y="-1048.362" fill="#3a402e" fill-opacity="1" stroke="none" ry="1.62" transform="scale(1,-1)"/><path id="rect4352" fill="#000" fill-opacity=".118" stroke="none" d="m 6.6190473,1008.3622 0,0.7143 -1.4285715,0 0,-0.6548 c -0.1752851,0.047 -0.3299191,0.1097 -0.4761905,0.2084 l 0,0.4464 -0.4464286,0 c -0.098657,0.1463 -0.161477,0.3009 -0.2083333,0.4762 l 0.6547619,0 0,1.4285 -0.7142857,0 0,0.4762 0.7142857,0 0,1.4286 -0.7142857,0 0,0.4762 0.7142857,0 0,1.4286 -0.7142857,0 0,0.4762 0.7142857,0 0,1.4285 -0.7142857,0 0,0.4762 0.7142857,0 0,1.4286 -0.7142857,0 0,0.4762 0.7142857,0 0,1.4286 -0.7142857,0 0,0.4761 0.7142857,0 0,1.4286 -0.7142857,0 0,0.4762 0.7142857,0 0,1.4286 -0.7142857,0 0,0.4762 0.7142857,0 0,1.4285 -0.7142857,0 0,0.4762 0.7142857,0 0,1.4286 -0.7142857,0 0,0.4762 0.7142857,0 0,1.4286 -0.7142857,0 0,0.4762 0.7142857,0 0,1.4285 -0.7142857,0 0,0.4762 0.7142857,0 0,1.4286 -0.7142857,0 0,0.4762 0.7142857,0 0,1.4286 -0.7142857,0 0,0.4761 0.7142857,0 0,1.4286 -0.7142857,0 0,0.4762 0.7142857,0 0,1.4286 -0.7142857,0 0,0.4762 0.7142857,0 0,1.4285 -0.7142857,0 0,0.4762 0.7142857,0 0,1.4286 -0.7142857,0 0,0.4762 0.7142857,0 0,1.4286 -0.7142857,0 0,0.4762 0.7142857,0 0,1.4285 -0.6547619,0 c 0.046856,0.1753 0.1096767,0.3299 0.2083333,0.4762 l 0.4464286,0 0,0.4464 c 0.1462714,0.099 0.3009054,0.1615 0.4761905,0.2084 l 0,-0.6548 1.4285715,0 0,0.7143 0.4761904,0 0,-0.7143 1.4285715,0 0,0.7143 0.4761905,0 0,-0.7143 1.4285713,0 0,0.7143 0.476191,0 0,-0.7143 1.428571,0 0,0.7143 0.476191,0 0,-0.7143 1.428571,0 0,0.7143 0.476191,0 0,-0.7143 1.428571,0 0,0.7143 0.47619,0 0,-0.7143 1.428572,0 0,0.7143 0.47619,0 0,-0.7143 1.428572,0 0,0.7143 0.47619,0 0,-0.7143 1.428572,0 0,0.7143 0.47619,0 0,-0.7143 1.428572,0 0,0.7143 0.47619,0 0,-0.7143 1.428572,0 0,0.7143 0.47619,0 0,-0.7143 1.428572,0 0,0.7143 0.47619,0 0,-0.7143 1.428572,0 0,0.7143 0.47619,0 0,-0.7143 1.428572,0 0,0.7143 0.47619,0 0,-0.7143 1.428571,0 0,0.7143 0.476191,0 0,-0.7143 1.428571,0 0,0.7143 0.476191,0 0,-0.7143 1.428571,0 0,0.7143 0.476191,0 0,-0.7143 1.428571,0 0,0.7143 0.476191,0 0,-0.7143 1.428571,0 0,0.7143 0.476191,0 0,-0.7143 1.428571,0 0,0.6548 c 0.175285,-0.047 0.329919,-0.1097 0.476191,-0.2084 l 0,-0.4464 0.446428,0 c 0.09866,-0.1463 0.161477,-0.3009 0.208334,-0.4762 l -0.654762,0 0,-1.4285 0.714285,0 0,-0.4762 -0.714285,0 0,-1.4286 0.714285,0 0,-0.4762 -0.714285,0 0,-1.4286 0.714285,0 0,-0.4762 -0.714285,0 0,-1.4285 0.714285,0 0,-0.4762 -0.714285,0 0,-1.4286 0.714285,0 0,-0.4762 -0.714285,0 0,-1.4286 0.714285,0 0,-0.4761 -0.714285,0 0,-1.4286 0.714285,0 0,-0.4762 -0.714285,0 0,-1.4286 0.714285,0 0,-0.4762 -0.714285,0 0,-1.4285 0.714285,0 0,-0.4762 -0.714285,0 0,-1.4286 0.714285,0 0,-0.4762 -0.714285,0 0,-1.4286 0.714285,0 0,-0.4762 -0.714285,0 0,-1.4285 0.714285,0 0,-0.4762 -0.714285,0 0,-1.4286 0.714285,0 0,-0.4762 -0.714285,0 0,-1.4286 0.714285,0 0,-0.4761 -0.714285,0 0,-1.4286 0.714285,0 0,-0.4762 -0.714285,0 0,-1.4286 0.714285,0 0,-0.4762 -0.714285,0 0,-1.4285 0.714285,0 0,-0.4762 -0.714285,0 0,-1.4286 0.714285,0 0,-0.4762 -0.714285,0 0,-1.4286 0.714285,0 0,-0.4762 -0.714285,0 0,-1.4285 0.654762,0 c -0.04686,-0.1753 -0.109678,-0.3299 -0.208334,-0.4762 l -0.446428,0 0,-0.4464 c -0.146272,-0.099 -0.300906,-0.1615 -0.476191,-0.2084 l 0,0.6548 -1.428571,0 0,-0.7143 -0.476191,0 0,0.7143 -1.428571,0 0,-0.7143 -0.476191,0 0,0.7143 -1.428571,0 0,-0.7143 -0.476191,0 0,0.7143 -1.428571,0 0,-0.7143 -0.476191,0 0,0.7143 -1.428571,0 0,-0.7143 -0.476191,0 0,0.7143 -1.428571,0 0,-0.7143 -0.47619,0 0,0.7143 -1.428572,0 0,-0.7143 -0.47619,0 0,0.7143 -1.428572,0 0,-0.7143 -0.47619,0 0,0.7143 -1.428572,0 0,-0.7143 -0.47619,0 0,0.7143 -1.428572,0 0,-0.7143 -0.47619,0 0,0.7143 -1.428572,0 0,-0.7143 -0.47619,0 0,0.7143 -1.428572,0 0,-0.7143 -0.47619,0 0,0.7143 -1.428572,0 0,-0.7143 -0.47619,0 0,0.7143 -1.428572,0 0,-0.7143 -0.47619,0 0,0.7143 -1.428571,0 0,-0.7143 -0.476191,0 0,0.7143 -1.428571,0 0,-0.7143 -0.476191,0 0,0.7143 -1.428571,0 0,-0.7143 -0.476191,0 0,0.7143 -1.4285713,0 0,-0.7143 -0.4761905,0 0,0.7143 -1.4285715,0 0,-0.7143 -0.4761904,0 z m -1.4285715,1.1905 1.4285715,0 0,1.4285 -1.4285715,0 0,-1.4285 z m 1.9047619,0 1.4285715,0 0,1.4285 -1.4285715,0 0,-1.4285 z m 1.904762,0 1.4285713,0 0,1.4285 -1.4285713,0 0,-1.4285 z m 1.9047623,0 1.428571,0 0,1.4285 -1.428571,0 0,-1.4285 z m 1.904762,0 1.428571,0 0,1.4285 -1.428571,0 0,-1.4285 z m 1.904762,0 1.428571,0 0,1.4285 -1.428571,0 0,-1.4285 z m 1.904761,0 1.428572,0 0,1.4285 -1.428572,0 0,-1.4285 z m 1.904762,0 1.428572,0 0,1.4285 -1.428572,0 0,-1.4285 z m 1.904762,0 1.428572,0 0,1.4285 -1.428572,0 0,-1.4285 z m 1.904762,0 1.428572,0 0,1.4285 -1.428572,0 0,-1.4285 z m 1.904762,0 1.428572,0 0,1.4285 -1.428572,0 0,-1.4285 z m 1.904762,0 1.428572,0 0,1.4285 -1.428572,0 0,-1.4285 z m 1.904762,0 1.428572,0 0,1.4285 -1.428572,0 0,-1.4285 z m 1.904762,0 1.428572,0 0,1.4285 -1.428572,0 0,-1.4285 z m 1.904762,0 1.428571,0 0,1.4285 -1.428571,0 0,-1.4285 z m 1.904762,0 1.428571,0 0,1.4285 -1.428571,0 0,-1.4285 z m 1.904762,0 1.428571,0 0,1.4285 -1.428571,0 0,-1.4285 z m 1.904762,0 1.428571,0 0,1.4285 -1.428571,0 0,-1.4285 z m 1.904762,0 1.428571,0 0,1.4285 -1.428571,0 0,-1.4285 z m 1.904762,0 1.428571,0 0,1.4285 -1.428571,0 0,-1.4285 z m -36.1904772,1.9047 1.4285715,0 0,1.4286 -1.4285715,0 0,-1.4286 z m 1.9047619,0 1.4285715,0 0,1.4286 -1.4285715,0 0,-1.4286 z m 1.904762,0 1.4285713,0 0,1.4286 -1.4285713,0 0,-1.4286 z m 1.9047623,0 1.428571,0 0,1.4286 -1.428571,0 0,-1.4286 z m 1.904762,0 1.428571,0 0,1.4286 -1.428571,0 0,-1.4286 z m 1.904762,0 1.428571,0 0,1.4286 -1.428571,0 0,-1.4286 z m 1.904761,0 1.428572,0 0,1.4286 -1.428572,0 0,-1.4286 z m 1.904762,0 1.428572,0 0,1.4286 -1.428572,0 0,-1.4286 z m 1.904762,0 1.428572,0 0,1.4286 -1.428572,0 0,-1.4286 z m 1.904762,0 1.428572,0 0,1.4286 -1.428572,0 0,-1.4286 z m 1.904762,0 1.428572,0 0,1.4286 -1.428572,0 0,-1.4286 z m 1.904762,0 1.428572,0 0,1.4286 -1.428572,0 0,-1.4286 z m 1.904762,0 1.428572,0 0,1.4286 -1.428572,0 0,-1.4286 z m 1.904762,0 1.428572,0 0,1.4286 -1.428572,0 0,-1.4286 z m 1.904762,0 1.428571,0 0,1.4286 -1.428571,0 0,-1.4286 z m 1.904762,0 1.428571,0 0,1.4286 -1.428571,0 0,-1.4286 z m 1.904762,0 1.428571,0 0,1.4286 -1.428571,0 0,-1.4286 z m 1.904762,0 1.428571,0 0,1.4286 -1.428571,0 0,-1.4286 z m 1.904762,0 1.428571,0 0,1.4286 -1.428571,0 0,-1.4286 z m 1.904762,0 1.428571,0 0,1.4286 -1.428571,0 0,-1.4286 z m -36.1904772,1.9048 1.4285715,0 0,1.4286 -1.4285715,0 0,-1.4286 z m 1.9047619,0 1.4285715,0 0,1.4286 -1.4285715,0 0,-1.4286 z m 1.904762,0 1.4285713,0 0,1.4286 -1.4285713,0 0,-1.4286 z m 1.9047623,0 1.428571,0 0,1.4286 -1.428571,0 0,-1.4286 z m 1.904762,0 1.428571,0 0,1.4286 -1.428571,0 0,-1.4286 z m 1.904762,0 1.428571,0 0,1.4286 -1.428571,0 0,-1.4286 z m 1.904761,0 1.428572,0 0,1.4286 -1.428572,0 0,-1.4286 z m 1.904762,0 1.428572,0 0,1.4286 -1.428572,0 0,-1.4286 z m 1.904762,0 1.428572,0 0,1.4286 -1.428572,0 0,-1.4286 z m 1.904762,0 1.428572,0 0,1.4286 -1.428572,0 0,-1.4286 z m 1.904762,0 1.428572,0 0,1.4286 -1.428572,0 0,-1.4286 z m 1.904762,0 1.428572,0 0,1.4286 -1.428572,0 0,-1.4286 z m 1.904762,0 1.428572,0 0,1.4286 -1.428572,0 0,-1.4286 z m 1.904762,0 1.428572,0 0,1.4286 -1.428572,0 0,-1.4286 z m 1.904762,0 1.428571,0 0,1.4286 -1.428571,0 0,-1.4286 z m 1.904762,0 1.428571,0 0,1.4286 -1.428571,0 0,-1.4286 z m 1.904762,0 1.428571,0 0,1.4286 -1.428571,0 0,-1.4286 z m 1.904762,0 1.428571,0 0,1.4286 -1.428571,0 0,-1.4286 z m 1.904762,0 1.428571,0 0,1.4286 -1.428571,0 0,-1.4286 z m 1.904762,0 1.428571,0 0,1.4286 -1.428571,0 0,-1.4286 z m -36.1904772,1.9048 1.4285715,0 0,1.4285 -1.4285715,0 0,-1.4285 z m 1.9047619,0 1.4285715,0 0,1.4285 -1.4285715,0 0,-1.4285 z m 1.904762,0 1.4285713,0 0,1.4285 -1.4285713,0 0,-1.4285 z m 1.9047623,0 1.428571,0 0,1.4285 -1.428571,0 0,-1.4285 z m 1.904762,0 1.428571,0 0,1.4285 -1.428571,0 0,-1.4285 z m 1.904762,0 1.428571,0 0,1.4285 -1.428571,0 0,-1.4285 z m 1.904761,0 1.428572,0 0,1.4285 -1.428572,0 0,-1.4285 z m 1.904762,0 1.428572,0 0,1.4285 -1.428572,0 0,-1.4285 z m 1.904762,0 1.428572,0 0,1.4285 -1.428572,0 0,-1.4285 z m 1.904762,0 1.428572,0 0,1.4285 -1.428572,0 0,-1.4285 z m 1.904762,0 1.428572,0 0,1.4285 -1.428572,0 0,-1.4285 z m 1.904762,0 1.428572,0 0,1.4285 -1.428572,0 0,-1.4285 z m 1.904762,0 1.428572,0 0,1.4285 -1.428572,0 0,-1.4285 z m 1.904762,0 1.428572,0 0,1.4285 -1.428572,0 0,-1.4285 z m 1.904762,0 1.428571,0 0,1.4285 -1.428571,0 0,-1.4285 z m 1.904762,0 1.428571,0 0,1.4285 -1.428571,0 0,-1.4285 z m 1.904762,0 1.428571,0 0,1.4285 -1.428571,0 0,-1.4285 z m 1.904762,0 1.428571,0 0,1.4285 -1.428571,0 0,-1.4285 z m 1.904762,0 1.428571,0 0,1.4285 -1.428571,0 0,-1.4285 z m 1.904762,0 1.428571,0 0,1.4285 -1.428571,0 0,-1.4285 z m -36.1904772,1.9047 1.4285715,0 0,1.4286 -1.4285715,0 0,-1.4286 z m 1.9047619,0 1.4285715,0 0,1.4286 -1.4285715,0 0,-1.4286 z m 1.904762,0 1.4285713,0 0,1.4286 -1.4285713,0 0,-1.4286 z m 1.9047623,0 1.428571,0 0,1.4286 -1.428571,0 0,-1.4286 z m 1.904762,0 1.428571,0 0,1.4286 -1.428571,0 0,-1.4286 z m 1.904762,0 1.428571,0 0,1.4286 -1.428571,0 0,-1.4286 z m 1.904761,0 1.428572,0 0,1.4286 -1.428572,0 0,-1.4286 z m 1.904762,0 1.428572,0 0,1.4286 -1.428572,0 0,-1.4286 z m 1.904762,0 1.428572,0 0,1.4286 -1.428572,0 0,-1.4286 z m 1.904762,0 1.428572,0 0,1.4286 -1.428572,0 0,-1.4286 z m 1.904762,0 1.428572,0 0,1.4286 -1.428572,0 0,-1.4286 z m 1.904762,0 1.428572,0 0,1.4286 -1.428572,0 0,-1.4286 z m 1.904762,0 1.428572,0 0,1.4286 -1.428572,0 0,-1.4286 z m 1.904762,0 1.428572,0 0,1.4286 -1.428572,0 0,-1.4286 z m 1.904762,0 1.428571,0 0,1.4286 -1.428571,0 0,-1.4286 z m 1.904762,0 1.428571,0 0,1.4286 -1.428571,0 0,-1.4286 z m 1.904762,0 1.428571,0 0,1.4286 -1.428571,0 0,-1.4286 z m 1.904762,0 1.428571,0 0,1.4286 -1.428571,0 0,-1.4286 z m 1.904762,0 1.428571,0 0,1.4286 -1.428571,0 0,-1.4286 z m 1.904762,0 1.428571,0 0,1.4286 -1.428571,0 0,-1.4286 z m -36.1904772,1.9048 1.4285715,0 0,1.4286 -1.4285715,0 0,-1.4286 z m 1.9047619,0 1.4285715,0 0,1.4286 -1.4285715,0 0,-1.4286 z m 1.904762,0 1.4285713,0 0,1.4286 -1.4285713,0 0,-1.4286 z m 1.9047623,0 1.428571,0 0,1.4286 -1.428571,0 0,-1.4286 z m 1.904762,0 1.428571,0 0,1.4286 -1.428571,0 0,-1.4286 z m 1.904762,0 1.428571,0 0,1.4286 -1.428571,0 0,-1.4286 z m 1.904761,0 1.428572,0 0,1.4286 -1.428572,0 0,-1.4286 z m 1.904762,0 1.428572,0 0,1.4286 -1.428572,0 0,-1.4286 z m 1.904762,0 1.428572,0 0,1.4286 -1.428572,0 0,-1.4286 z m 1.904762,0 1.428572,0 0,1.4286 -1.428572,0 0,-1.4286 z m 1.904762,0 1.428572,0 0,1.4286 -1.428572,0 0,-1.4286 z m 1.904762,0 1.428572,0 0,1.4286 -1.428572,0 0,-1.4286 z m 1.904762,0 1.428572,0 0,1.4286 -1.428572,0 0,-1.4286 z m 1.904762,0 1.428572,0 0,1.4286 -1.428572,0 0,-1.4286 z m 1.904762,0 1.428571,0 0,1.4286 -1.428571,0 0,-1.4286 z m 1.904762,0 1.428571,0 0,1.4286 -1.428571,0 0,-1.4286 z m 1.904762,0 1.428571,0 0,1.4286 -1.428571,0 0,-1.4286 z m 1.904762,0 1.428571,0 0,1.4286 -1.428571,0 0,-1.4286 z m 1.904762,0 1.428571,0 0,1.4286 -1.428571,0 0,-1.4286 z m 1.904762,0 1.428571,0 0,1.4286 -1.428571,0 0,-1.4286 z m -36.1904772,1.9047 1.4285715,0 0,1.4286 -1.4285715,0 0,-1.4286 z m 1.9047619,0 1.4285715,0 0,1.4286 -1.4285715,0 0,-1.4286 z m 1.904762,0 1.4285713,0 0,1.4286 -1.4285713,0 0,-1.4286 z m 1.9047623,0 1.428571,0 0,1.4286 -1.428571,0 0,-1.4286 z m 1.904762,0 1.428571,0 0,1.4286 -1.428571,0 0,-1.4286 z m 1.904762,0 1.428571,0 0,1.4286 -1.428571,0 0,-1.4286 z m 1.904761,0 1.428572,0 0,1.4286 -1.428572,0 0,-1.4286 z m 1.904762,0 1.428572,0 0,1.4286 -1.428572,0 0,-1.4286 z m 1.904762,0 1.428572,0 0,1.4286 -1.428572,0 0,-1.4286 z m 1.904762,0 1.428572,0 0,1.4286 -1.428572,0 0,-1.4286 z m 1.904762,0 1.428572,0 0,1.4286 -1.428572,0 0,-1.4286 z m 1.904762,0 1.428572,0 0,1.4286 -1.428572,0 0,-1.4286 z m 1.904762,0 1.428572,0 0,1.4286 -1.428572,0 0,-1.4286 z m 1.904762,0 1.428572,0 0,1.4286 -1.428572,0 0,-1.4286 z m 1.904762,0 1.428571,0 0,1.4286 -1.428571,0 0,-1.4286 z m 1.904762,0 1.428571,0 0,1.4286 -1.428571,0 0,-1.4286 z m 1.904762,0 1.428571,0 0,1.4286 -1.428571,0 0,-1.4286 z m 1.904762,0 1.428571,0 0,1.4286 -1.428571,0 0,-1.4286 z m 1.904762,0 1.428571,0 0,1.4286 -1.428571,0 0,-1.4286 z m 1.904762,0 1.428571,0 0,1.4286 -1.428571,0 0,-1.4286 z m -36.1904772,1.9048 1.4285715,0 0,1.4286 -1.4285715,0 0,-1.4286 z m 1.9047619,0 1.4285715,0 0,1.4286 -1.4285715,0 0,-1.4286 z m 1.904762,0 1.4285713,0 0,1.4286 -1.4285713,0 0,-1.4286 z m 1.9047623,0 1.428571,0 0,1.4286 -1.428571,0 0,-1.4286 z m 1.904762,0 1.428571,0 0,1.4286 -1.428571,0 0,-1.4286 z m 1.904762,0 1.428571,0 0,1.4286 -1.428571,0 0,-1.4286 z m 1.904761,0 1.428572,0 0,1.4286 -1.428572,0 0,-1.4286 z m 1.904762,0 1.428572,0 0,1.4286 -1.428572,0 0,-1.4286 z m 1.904762,0 1.428572,0 0,1.4286 -1.428572,0 0,-1.4286 z m 1.904762,0 1.428572,0 0,1.4286 -1.428572,0 0,-1.4286 z m 1.904762,0 1.428572,0 0,1.4286 -1.428572,0 0,-1.4286 z m 1.904762,0 1.428572,0 0,1.4286 -1.428572,0 0,-1.4286 z m 1.904762,0 1.428572,0 0,1.4286 -1.428572,0 0,-1.4286 z m 1.904762,0 1.428572,0 0,1.4286 -1.428572,0 0,-1.4286 z m 1.904762,0 1.428571,0 0,1.4286 -1.428571,0 0,-1.4286 z m 1.904762,0 1.428571,0 0,1.4286 -1.428571,0 0,-1.4286 z m 1.904762,0 1.428571,0 0,1.4286 -1.428571,0 0,-1.4286 z m 1.904762,0 1.428571,0 0,1.4286 -1.428571,0 0,-1.4286 z m 1.904762,0 1.428571,0 0,1.4286 -1.428571,0 0,-1.4286 z m 1.904762,0 1.428571,0 0,1.4286 -1.428571,0 0,-1.4286 z m -36.1904772,1.9048 1.4285715,0 0,1.4285 -1.4285715,0 0,-1.4285 z m 1.9047619,0 1.4285715,0 0,1.4285 -1.4285715,0 0,-1.4285 z m 1.904762,0 1.4285713,0 0,1.4285 -1.4285713,0 0,-1.4285 z m 1.9047623,0 1.428571,0 0,1.4285 -1.428571,0 0,-1.4285 z m 1.904762,0 1.428571,0 0,1.4285 -1.428571,0 0,-1.4285 z m 1.904762,0 1.428571,0 0,1.4285 -1.428571,0 0,-1.4285 z m 1.904761,0 1.428572,0 0,1.4285 -1.428572,0 0,-1.4285 z m 1.904762,0 1.428572,0 0,1.4285 -1.428572,0 0,-1.4285 z m 1.904762,0 1.428572,0 0,1.4285 -1.428572,0 0,-1.4285 z m 1.904762,0 1.428572,0 0,1.4285 -1.428572,0 0,-1.4285 z m 1.904762,0 1.428572,0 0,1.4285 -1.428572,0 0,-1.4285 z m 1.904762,0 1.428572,0 0,1.4285 -1.428572,0 0,-1.4285 z m 1.904762,0 1.428572,0 0,1.4285 -1.428572,0 0,-1.4285 z m 1.904762,0 1.428572,0 0,1.4285 -1.428572,0 0,-1.4285 z m 1.904762,0 1.428571,0 0,1.4285 -1.428571,0 0,-1.4285 z m 1.904762,0 1.428571,0 0,1.4285 -1.428571,0 0,-1.4285 z m 1.904762,0 1.428571,0 0,1.4285 -1.428571,0 0,-1.4285 z m 1.904762,0 1.428571,0 0,1.4285 -1.428571,0 0,-1.4285 z m 1.904762,0 1.428571,0 0,1.4285 -1.428571,0 0,-1.4285 z m 1.904762,0 1.428571,0 0,1.4285 -1.428571,0 0,-1.4285 z m -36.1904772,1.9047 1.4285715,0 0,1.4286 -1.4285715,0 0,-1.4286 z m 1.9047619,0 1.4285715,0 0,1.4286 -1.4285715,0 0,-1.4286 z m 1.904762,0 1.4285713,0 0,1.4286 -1.4285713,0 0,-1.4286 z m 1.9047623,0 1.428571,0 0,1.4286 -1.428571,0 0,-1.4286 z m 1.904762,0 1.428571,0 0,1.4286 -1.428571,0 0,-1.4286 z m 1.904762,0 1.428571,0 0,1.4286 -1.428571,0 0,-1.4286 z m 1.904761,0 1.428572,0 0,1.4286 -1.428572,0 0,-1.4286 z m 1.904762,0 1.428572,0 0,1.4286 -1.428572,0 0,-1.4286 z m 1.904762,0 1.428572,0 0,1.4286 -1.428572,0 0,-1.4286 z m 1.904762,0 1.428572,0 0,1.4286 -1.428572,0 0,-1.4286 z m 1.904762,0 1.428572,0 0,1.4286 -1.428572,0 0,-1.4286 z m 1.904762,0 1.428572,0 0,1.4286 -1.428572,0 0,-1.4286 z m 1.904762,0 1.428572,0 0,1.4286 -1.428572,0 0,-1.4286 z m 1.904762,0 1.428572,0 0,1.4286 -1.428572,0 0,-1.4286 z m 1.904762,0 1.428571,0 0,1.4286 -1.428571,0 0,-1.4286 z m 1.904762,0 1.428571,0 0,1.4286 -1.428571,0 0,-1.4286 z m 1.904762,0 1.428571,0 0,1.4286 -1.428571,0 0,-1.4286 z m 1.904762,0 1.428571,0 0,1.4286 -1.428571,0 0,-1.4286 z m 1.904762,0 1.428571,0 0,1.4286 -1.428571,0 0,-1.4286 z m 1.904762,0 1.428571,0 0,1.4286 -1.428571,0 0,-1.4286 z m -36.1904772,1.9048 1.4285715,0 0,1.4286 -1.4285715,0 0,-1.4286 z m 1.9047619,0 1.4285715,0 0,1.4286 -1.4285715,0 0,-1.4286 z m 1.904762,0 1.4285713,0 0,1.4286 -1.4285713,0 0,-1.4286 z m 1.9047623,0 1.428571,0 0,1.4286 -1.428571,0 0,-1.4286 z m 1.904762,0 1.428571,0 0,1.4286 -1.428571,0 0,-1.4286 z m 1.904762,0 1.428571,0 0,1.4286 -1.428571,0 0,-1.4286 z m 1.904761,0 1.428572,0 0,1.4286 -1.428572,0 0,-1.4286 z m 1.904762,0 1.428572,0 0,1.4286 -1.428572,0 0,-1.4286 z m 1.904762,0 1.428572,0 0,1.4286 -1.428572,0 0,-1.4286 z m 1.904762,0 1.428572,0 0,1.4286 -1.428572,0 0,-1.4286 z m 1.904762,0 1.428572,0 0,1.4286 -1.428572,0 0,-1.4286 z m 1.904762,0 1.428572,0 0,1.4286 -1.428572,0 0,-1.4286 z m 1.904762,0 1.428572,0 0,1.4286 -1.428572,0 0,-1.4286 z m 1.904762,0 1.428572,0 0,1.4286 -1.428572,0 0,-1.4286 z m 1.904762,0 1.428571,0 0,1.4286 -1.428571,0 0,-1.4286 z m 1.904762,0 1.428571,0 0,1.4286 -1.428571,0 0,-1.4286 z m 1.904762,0 1.428571,0 0,1.4286 -1.428571,0 0,-1.4286 z m 1.904762,0 1.428571,0 0,1.4286 -1.428571,0 0,-1.4286 z m 1.904762,0 1.428571,0 0,1.4286 -1.428571,0 0,-1.4286 z m 1.904762,0 1.428571,0 0,1.4286 -1.428571,0 0,-1.4286 z m -36.1904772,1.9048 1.4285715,0 0,1.4285 -1.4285715,0 0,-1.4285 z m 1.9047619,0 1.4285715,0 0,1.4285 -1.4285715,0 0,-1.4285 z m 1.904762,0 1.4285713,0 0,1.4285 -1.4285713,0 0,-1.4285 z m 1.9047623,0 1.428571,0 0,1.4285 -1.428571,0 0,-1.4285 z m 1.904762,0 1.428571,0 0,1.4285 -1.428571,0 0,-1.4285 z m 1.904762,0 1.428571,0 0,1.4285 -1.428571,0 0,-1.4285 z m 1.904761,0 1.428572,0 0,1.4285 -1.428572,0 0,-1.4285 z m 1.904762,0 1.428572,0 0,1.4285 -1.428572,0 0,-1.4285 z m 1.904762,0 1.428572,0 0,1.4285 -1.428572,0 0,-1.4285 z m 1.904762,0 1.428572,0 0,1.4285 -1.428572,0 0,-1.4285 z m 1.904762,0 1.428572,0 0,1.4285 -1.428572,0 0,-1.4285 z m 1.904762,0 1.428572,0 0,1.4285 -1.428572,0 0,-1.4285 z m 1.904762,0 1.428572,0 0,1.4285 -1.428572,0 0,-1.4285 z m 1.904762,0 1.428572,0 0,1.4285 -1.428572,0 0,-1.4285 z m 1.904762,0 1.428571,0 0,1.4285 -1.428571,0 0,-1.4285 z m 1.904762,0 1.428571,0 0,1.4285 -1.428571,0 0,-1.4285 z m 1.904762,0 1.428571,0 0,1.4285 -1.428571,0 0,-1.4285 z m 1.904762,0 1.428571,0 0,1.4285 -1.428571,0 0,-1.4285 z m 1.904762,0 1.428571,0 0,1.4285 -1.428571,0 0,-1.4285 z m 1.904762,0 1.428571,0 0,1.4285 -1.428571,0 0,-1.4285 z m -36.1904772,1.9047 1.4285715,0 0,1.4286 -1.4285715,0 0,-1.4286 z m 1.9047619,0 1.4285715,0 0,1.4286 -1.4285715,0 0,-1.4286 z m 1.904762,0 1.4285713,0 0,1.4286 -1.4285713,0 0,-1.4286 z m 1.9047623,0 1.428571,0 0,1.4286 -1.428571,0 0,-1.4286 z m 1.904762,0 1.428571,0 0,1.4286 -1.428571,0 0,-1.4286 z m 1.904762,0 1.428571,0 0,1.4286 -1.428571,0 0,-1.4286 z m 1.904761,0 1.428572,0 0,1.4286 -1.428572,0 0,-1.4286 z m 1.904762,0 1.428572,0 0,1.4286 -1.428572,0 0,-1.4286 z m 1.904762,0 1.428572,0 0,1.4286 -1.428572,0 0,-1.4286 z m 1.904762,0 1.428572,0 0,1.4286 -1.428572,0 0,-1.4286 z m 1.904762,0 1.428572,0 0,1.4286 -1.428572,0 0,-1.4286 z m 1.904762,0 1.428572,0 0,1.4286 -1.428572,0 0,-1.4286 z m 1.904762,0 1.428572,0 0,1.4286 -1.428572,0 0,-1.4286 z m 1.904762,0 1.428572,0 0,1.4286 -1.428572,0 0,-1.4286 z m 1.904762,0 1.428571,0 0,1.4286 -1.428571,0 0,-1.4286 z m 1.904762,0 1.428571,0 0,1.4286 -1.428571,0 0,-1.4286 z m 1.904762,0 1.428571,0 0,1.4286 -1.428571,0 0,-1.4286 z m 1.904762,0 1.428571,0 0,1.4286 -1.428571,0 0,-1.4286 z m 1.904762,0 1.428571,0 0,1.4286 -1.428571,0 0,-1.4286 z m 1.904762,0 1.428571,0 0,1.4286 -1.428571,0 0,-1.4286 z m -36.1904772,1.9048 1.4285715,0 0,1.4286 -1.4285715,0 0,-1.4286 z m 1.9047619,0 1.4285715,0 0,1.4286 -1.4285715,0 0,-1.4286 z m 1.904762,0 1.4285713,0 0,1.4286 -1.4285713,0 0,-1.4286 z m 1.9047623,0 1.428571,0 0,1.4286 -1.428571,0 0,-1.4286 z m 1.904762,0 1.428571,0 0,1.4286 -1.428571,0 0,-1.4286 z m 1.904762,0 1.428571,0 0,1.4286 -1.428571,0 0,-1.4286 z m 1.904761,0 1.428572,0 0,1.4286 -1.428572,0 0,-1.4286 z m 1.904762,0 1.428572,0 0,1.4286 -1.428572,0 0,-1.4286 z m 1.904762,0 1.428572,0 0,1.4286 -1.428572,0 0,-1.4286 z m 1.904762,0 1.428572,0 0,1.4286 -1.428572,0 0,-1.4286 z m 1.904762,0 1.428572,0 0,1.4286 -1.428572,0 0,-1.4286 z m 1.904762,0 1.428572,0 0,1.4286 -1.428572,0 0,-1.4286 z m 1.904762,0 1.428572,0 0,1.4286 -1.428572,0 0,-1.4286 z m 1.904762,0 1.428572,0 0,1.4286 -1.428572,0 0,-1.4286 z m 1.904762,0 1.428571,0 0,1.4286 -1.428571,0 0,-1.4286 z m 1.904762,0 1.428571,0 0,1.4286 -1.428571,0 0,-1.4286 z m 1.904762,0 1.428571,0 0,1.4286 -1.428571,0 0,-1.4286 z m 1.904762,0 1.428571,0 0,1.4286 -1.428571,0 0,-1.4286 z m 1.904762,0 1.428571,0 0,1.4286 -1.428571,0 0,-1.4286 z m 1.904762,0 1.428571,0 0,1.4286 -1.428571,0 0,-1.4286 z m -36.1904772,1.9047 1.4285715,0 0,1.4286 -1.4285715,0 0,-1.4286 z m 1.9047619,0 1.4285715,0 0,1.4286 -1.4285715,0 0,-1.4286 z m 1.904762,0 1.4285713,0 0,1.4286 -1.4285713,0 0,-1.4286 z m 1.9047623,0 1.428571,0 0,1.4286 -1.428571,0 0,-1.4286 z m 1.904762,0 1.428571,0 0,1.4286 -1.428571,0 0,-1.4286 z m 1.904762,0 1.428571,0 0,1.4286 -1.428571,0 0,-1.4286 z m 1.904761,0 1.428572,0 0,1.4286 -1.428572,0 0,-1.4286 z m 1.904762,0 1.428572,0 0,1.4286 -1.428572,0 0,-1.4286 z m 1.904762,0 1.428572,0 0,1.4286 -1.428572,0 0,-1.4286 z m 1.904762,0 1.428572,0 0,1.4286 -1.428572,0 0,-1.4286 z m 1.904762,0 1.428572,0 0,1.4286 -1.428572,0 0,-1.4286 z m 1.904762,0 1.428572,0 0,1.4286 -1.428572,0 0,-1.4286 z m 1.904762,0 1.428572,0 0,1.4286 -1.428572,0 0,-1.4286 z m 1.904762,0 1.428572,0 0,1.4286 -1.428572,0 0,-1.4286 z m 1.904762,0 1.428571,0 0,1.4286 -1.428571,0 0,-1.4286 z m 1.904762,0 1.428571,0 0,1.4286 -1.428571,0 0,-1.4286 z m 1.904762,0 1.428571,0 0,1.4286 -1.428571,0 0,-1.4286 z m 1.904762,0 1.428571,0 0,1.4286 -1.428571,0 0,-1.4286 z m 1.904762,0 1.428571,0 0,1.4286 -1.428571,0 0,-1.4286 z m 1.904762,0 1.428571,0 0,1.4286 -1.428571,0 0,-1.4286 z m -36.1904772,1.9048 1.4285715,0 0,1.4286 -1.4285715,0 0,-1.4286 z m 1.9047619,0 1.4285715,0 0,1.4286 -1.4285715,0 0,-1.4286 z m 1.904762,0 1.4285713,0 0,1.4286 -1.4285713,0 0,-1.4286 z m 1.9047623,0 1.428571,0 0,1.4286 -1.428571,0 0,-1.4286 z m 1.904762,0 1.428571,0 0,1.4286 -1.428571,0 0,-1.4286 z m 1.904762,0 1.428571,0 0,1.4286 -1.428571,0 0,-1.4286 z m 1.904761,0 1.428572,0 0,1.4286 -1.428572,0 0,-1.4286 z m 1.904762,0 1.428572,0 0,1.4286 -1.428572,0 0,-1.4286 z m 1.904762,0 1.428572,0 0,1.4286 -1.428572,0 0,-1.4286 z m 1.904762,0 1.428572,0 0,1.4286 -1.428572,0 0,-1.4286 z m 1.904762,0 1.428572,0 0,1.4286 -1.428572,0 0,-1.4286 z m 1.904762,0 1.428572,0 0,1.4286 -1.428572,0 0,-1.4286 z m 1.904762,0 1.428572,0 0,1.4286 -1.428572,0 0,-1.4286 z m 1.904762,0 1.428572,0 0,1.4286 -1.428572,0 0,-1.4286 z m 1.904762,0 1.428571,0 0,1.4286 -1.428571,0 0,-1.4286 z m 1.904762,0 1.428571,0 0,1.4286 -1.428571,0 0,-1.4286 z m 1.904762,0 1.428571,0 0,1.4286 -1.428571,0 0,-1.4286 z m 1.904762,0 1.428571,0 0,1.4286 -1.428571,0 0,-1.4286 z m 1.904762,0 1.428571,0 0,1.4286 -1.428571,0 0,-1.4286 z m 1.904762,0 1.428571,0 0,1.4286 -1.428571,0 0,-1.4286 z m -36.1904772,1.9048 1.4285715,0 0,1.4285 -1.4285715,0 0,-1.4285 z m 1.9047619,0 1.4285715,0 0,1.4285 -1.4285715,0 0,-1.4285 z m 1.904762,0 1.4285713,0 0,1.4285 -1.4285713,0 0,-1.4285 z m 1.9047623,0 1.428571,0 0,1.4285 -1.428571,0 0,-1.4285 z m 1.904762,0 1.428571,0 0,1.4285 -1.428571,0 0,-1.4285 z m 1.904762,0 1.428571,0 0,1.4285 -1.428571,0 0,-1.4285 z m 1.904761,0 1.428572,0 0,1.4285 -1.428572,0 0,-1.4285 z m 1.904762,0 1.428572,0 0,1.4285 -1.428572,0 0,-1.4285 z m 1.904762,0 1.428572,0 0,1.4285 -1.428572,0 0,-1.4285 z m 1.904762,0 1.428572,0 0,1.4285 -1.428572,0 0,-1.4285 z m 1.904762,0 1.428572,0 0,1.4285 -1.428572,0 0,-1.4285 z m 1.904762,0 1.428572,0 0,1.4285 -1.428572,0 0,-1.4285 z m 1.904762,0 1.428572,0 0,1.4285 -1.428572,0 0,-1.4285 z m 1.904762,0 1.428572,0 0,1.4285 -1.428572,0 0,-1.4285 z m 1.904762,0 1.428571,0 0,1.4285 -1.428571,0 0,-1.4285 z m 1.904762,0 1.428571,0 0,1.4285 -1.428571,0 0,-1.4285 z m 1.904762,0 1.428571,0 0,1.4285 -1.428571,0 0,-1.4285 z m 1.904762,0 1.428571,0 0,1.4285 -1.428571,0 0,-1.4285 z m 1.904762,0 1.428571,0 0,1.4285 -1.428571,0 0,-1.4285 z m 1.904762,0 1.428571,0 0,1.4285 -1.428571,0 0,-1.4285 z m -36.1904772,1.9047 1.4285715,0 0,1.4286 -1.4285715,0 0,-1.4286 z m 1.9047619,0 1.4285715,0 0,1.4286 -1.4285715,0 0,-1.4286 z m 1.904762,0 1.4285713,0 0,1.4286 -1.4285713,0 0,-1.4286 z m 1.9047623,0 1.428571,0 0,1.4286 -1.428571,0 0,-1.4286 z m 1.904762,0 1.428571,0 0,1.4286 -1.428571,0 0,-1.4286 z m 1.904762,0 1.428571,0 0,1.4286 -1.428571,0 0,-1.4286 z m 1.904761,0 1.428572,0 0,1.4286 -1.428572,0 0,-1.4286 z m 1.904762,0 1.428572,0 0,1.4286 -1.428572,0 0,-1.4286 z m 1.904762,0 1.428572,0 0,1.4286 -1.428572,0 0,-1.4286 z m 1.904762,0 1.428572,0 0,1.4286 -1.428572,0 0,-1.4286 z m 1.904762,0 1.428572,0 0,1.4286 -1.428572,0 0,-1.4286 z m 1.904762,0 1.428572,0 0,1.4286 -1.428572,0 0,-1.4286 z m 1.904762,0 1.428572,0 0,1.4286 -1.428572,0 0,-1.4286 z m 1.904762,0 1.428572,0 0,1.4286 -1.428572,0 0,-1.4286 z m 1.904762,0 1.428571,0 0,1.4286 -1.428571,0 0,-1.4286 z m 1.904762,0 1.428571,0 0,1.4286 -1.428571,0 0,-1.4286 z m 1.904762,0 1.428571,0 0,1.4286 -1.428571,0 0,-1.4286 z m 1.904762,0 1.428571,0 0,1.4286 -1.428571,0 0,-1.4286 z m 1.904762,0 1.428571,0 0,1.4286 -1.428571,0 0,-1.4286 z m 1.904762,0 1.428571,0 0,1.4286 -1.428571,0 0,-1.4286 z m -36.1904772,1.9048 1.4285715,0 0,1.4286 -1.4285715,0 0,-1.4286 z m 1.9047619,0 1.4285715,0 0,1.4286 -1.4285715,0 0,-1.4286 z m 1.904762,0 1.4285713,0 0,1.4286 -1.4285713,0 0,-1.4286 z m 1.9047623,0 1.428571,0 0,1.4286 -1.428571,0 0,-1.4286 z m 1.904762,0 1.428571,0 0,1.4286 -1.428571,0 0,-1.4286 z m 1.904762,0 1.428571,0 0,1.4286 -1.428571,0 0,-1.4286 z m 1.904761,0 1.428572,0 0,1.4286 -1.428572,0 0,-1.4286 z m 1.904762,0 1.428572,0 0,1.4286 -1.428572,0 0,-1.4286 z m 1.904762,0 1.428572,0 0,1.4286 -1.428572,0 0,-1.4286 z m 1.904762,0 1.428572,0 0,1.4286 -1.428572,0 0,-1.4286 z m 1.904762,0 1.428572,0 0,1.4286 -1.428572,0 0,-1.4286 z m 1.904762,0 1.428572,0 0,1.4286 -1.428572,0 0,-1.4286 z m 1.904762,0 1.428572,0 0,1.4286 -1.428572,0 0,-1.4286 z m 1.904762,0 1.428572,0 0,1.4286 -1.428572,0 0,-1.4286 z m 1.904762,0 1.428571,0 0,1.4286 -1.428571,0 0,-1.4286 z m 1.904762,0 1.428571,0 0,1.4286 -1.428571,0 0,-1.4286 z m 1.904762,0 1.428571,0 0,1.4286 -1.428571,0 0,-1.4286 z m 1.904762,0 1.428571,0 0,1.4286 -1.428571,0 0,-1.4286 z m 1.904762,0 1.428571,0 0,1.4286 -1.428571,0 0,-1.4286 z m 1.904762,0 1.428571,0 0,1.4286 -1.428571,0 0,-1.4286 z m -36.1904772,1.9048 1.4285715,0 0,1.4285 -1.4285715,0 0,-1.4285 z m 1.9047619,0 1.4285715,0 0,1.4285 -1.4285715,0 0,-1.4285 z m 1.904762,0 1.4285713,0 0,1.4285 -1.4285713,0 0,-1.4285 z m 1.9047623,0 1.428571,0 0,1.4285 -1.428571,0 0,-1.4285 z m 1.904762,0 1.428571,0 0,1.4285 -1.428571,0 0,-1.4285 z m 1.904762,0 1.428571,0 0,1.4285 -1.428571,0 0,-1.4285 z m 1.904761,0 1.428572,0 0,1.4285 -1.428572,0 0,-1.4285 z m 1.904762,0 1.428572,0 0,1.4285 -1.428572,0 0,-1.4285 z m 1.904762,0 1.428572,0 0,1.4285 -1.428572,0 0,-1.4285 z m 1.904762,0 1.428572,0 0,1.4285 -1.428572,0 0,-1.4285 z m 1.904762,0 1.428572,0 0,1.4285 -1.428572,0 0,-1.4285 z m 1.904762,0 1.428572,0 0,1.4285 -1.428572,0 0,-1.4285 z m 1.904762,0 1.428572,0 0,1.4285 -1.428572,0 0,-1.4285 z m 1.904762,0 1.428572,0 0,1.4285 -1.428572,0 0,-1.4285 z m 1.904762,0 1.428571,0 0,1.4285 -1.428571,0 0,-1.4285 z m 1.904762,0 1.428571,0 0,1.4285 -1.428571,0 0,-1.4285 z m 1.904762,0 1.428571,0 0,1.4285 -1.428571,0 0,-1.4285 z m 1.904762,0 1.428571,0 0,1.4285 -1.428571,0 0,-1.4285 z m 1.904762,0 1.428571,0 0,1.4285 -1.428571,0 0,-1.4285 z m 1.904762,0 1.428571,0 0,1.4285 -1.428571,0 0,-1.4285 z"/><path id="path5117" fill="#a2eb59" fill-opacity="1" stroke="none" d="m 8.9999997,1013.3622 1.4285713,0 0,1.4286 -1.4285713,0 0,-1.4286 z"/><path id="path5115" fill="#a2eb59" fill-opacity="1" stroke="none" d="m 10.904762,1013.3622 1.428571,0 0,1.4286 -1.428571,0 0,-1.4286 z"/><path id="path5113" fill="#a2eb59" fill-opacity="1" stroke="none" d="m 12.809524,1013.3622 1.428571,0 0,1.4286 -1.428571,0 0,-1.4286 z"/><path id="path5111" fill="#a2eb59" fill-opacity="1" stroke="none" d="m 14.714286,1013.3622 1.428571,0 0,1.4286 -1.428571,0 0,-1.4286 z"/><path id="path5109" fill="#a2eb59" fill-opacity="1" stroke="none" d="m 16.619047,1013.3622 1.428572,0 0,1.4286 -1.428572,0 0,-1.4286 z"/><path id="path5107" fill="#a2eb59" fill-opacity="1" stroke="none" d="m 18.523809,1013.3622 1.428572,0 0,1.4286 -1.428572,0 0,-1.4286 z"/><path id="path5097" fill="#a2eb59" fill-opacity="1" stroke="none" d="m 28.047619,1013.3622 1.428572,0 0,1.4286 -1.428572,0 0,-1.4286 z"/><path id="path5095" fill="#a2eb59" fill-opacity="1" stroke="none" d="m 29.952381,1013.3622 1.428572,0 0,1.4286 -1.428572,0 0,-1.4286 z"/><path id="path5093" fill="#a2eb59" fill-opacity="1" stroke="none" d="m 31.857143,1013.3622 1.428571,0 0,1.4286 -1.428571,0 0,-1.4286 z"/><path id="path5091" fill="#a2eb59" fill-opacity="1" stroke="none" d="m 33.761905,1013.3622 1.428571,0 0,1.4286 -1.428571,0 0,-1.4286 z"/><path id="path5089" fill="#a2eb59" fill-opacity="1" stroke="none" d="m 35.666667,1013.3622 1.428571,0 0,1.4286 -1.428571,0 0,-1.4286 z"/><path id="path5087" fill="#a2eb59" fill-opacity="1" stroke="none" d="m 37.571429,1013.3622 1.428571,0 0,1.4286 -1.428571,0 0,-1.4286 z"/><path id="path5085" fill="#a2eb59" fill-opacity="1" stroke="none" d="m 39.476191,1013.3622 1.428571,0 0,1.4286 -1.428571,0 0,-1.4286 z"/><path id="path5077" fill="#a2eb59" fill-opacity="1" stroke="none" d="m 8.9999997,1015.267 1.4285713,0 0,1.4285 -1.4285713,0 0,-1.4285 z"/><path id="path5075" fill="#a2eb59" fill-opacity="1" stroke="none" d="m 10.904762,1015.267 1.428571,0 0,1.4285 -1.428571,0 0,-1.4285 z"/><path id="path5073" fill="#a2eb59" fill-opacity="1" stroke="none" d="m 12.809524,1015.267 1.428571,0 0,1.4285 -1.428571,0 0,-1.4285 z"/><path id="path5071" fill="#a2eb59" fill-opacity="1" stroke="none" d="m 14.714286,1015.267 1.428571,0 0,1.4285 -1.428571,0 0,-1.4285 z"/><path id="path5069" fill="#a2eb59" fill-opacity="1" stroke="none" d="m 16.619047,1015.267 1.428572,0 0,1.4285 -1.428572,0 0,-1.4285 z"/><path id="path5067" fill="#a2eb59" fill-opacity="1" stroke="none" d="m 18.523809,1015.267 1.428572,0 0,1.4285 -1.428572,0 0,-1.4285 z"/><path id="path5057" fill="#a2eb59" fill-opacity="1" stroke="none" d="m 28.047619,1015.267 1.428572,0 0,1.4285 -1.428572,0 0,-1.4285 z"/><path id="path5055" fill="#a2eb59" fill-opacity="1" stroke="none" d="m 29.952381,1015.267 1.428572,0 0,1.4285 -1.428572,0 0,-1.4285 z"/><path id="path5053" fill="#a2eb59" fill-opacity="1" stroke="none" d="m 31.857143,1015.267 1.428571,0 0,1.4285 -1.428571,0 0,-1.4285 z"/><path id="path5051" fill="#a2eb59" fill-opacity="1" stroke="none" d="m 33.761905,1015.267 1.428571,0 0,1.4285 -1.428571,0 0,-1.4285 z"/><path id="path5049" fill="#a2eb59" fill-opacity="1" stroke="none" d="m 35.666667,1015.267 1.428571,0 0,1.4285 -1.428571,0 0,-1.4285 z"/><path id="path5047" fill="#a2eb59" fill-opacity="1" stroke="none" d="m 37.571429,1015.267 1.428571,0 0,1.4285 -1.428571,0 0,-1.4285 z"/><path id="path5045" fill="#a2eb59" fill-opacity="1" stroke="none" d="m 39.476191,1015.267 1.428571,0 0,1.4285 -1.428571,0 0,-1.4285 z"/><path id="path5035" fill="#a2eb59" fill-opacity="1" stroke="none" d="m 10.904762,1017.1717 1.428571,0 0,1.4286 -1.428571,0 0,-1.4286 z"/><path id="path5033" fill="#a2eb59" fill-opacity="1" stroke="none" d="m 12.809524,1017.1717 1.428571,0 0,1.4286 -1.428571,0 0,-1.4286 z"/><path id="path5031" fill="#a2eb59" fill-opacity="1" stroke="none" d="m 14.714286,1017.1717 1.428571,0 0,1.4286 -1.428571,0 0,-1.4286 z"/><path id="path5029" fill="#a2eb59" fill-opacity="1" stroke="none" d="m 16.619047,1017.1717 1.428572,0 0,1.4286 -1.428572,0 0,-1.4286 z"/><path id="path5015" fill="#a2eb59" fill-opacity="1" stroke="none" d="m 29.952381,1017.1717 1.428572,0 0,1.4286 -1.428572,0 0,-1.4286 z"/><path id="path5013" fill="#a2eb59" fill-opacity="1" stroke="none" d="m 31.857143,1017.1717 1.428571,0 0,1.4286 -1.428571,0 0,-1.4286 z"/><path id="path5011" fill="#a2eb59" fill-opacity="1" stroke="none" d="m 33.761905,1017.1717 1.428571,0 0,1.4286 -1.428571,0 0,-1.4286 z"/><path id="path5009" fill="#a2eb59" fill-opacity="1" stroke="none" d="m 35.666667,1017.1717 1.428571,0 0,1.4286 -1.428571,0 0,-1.4286 z"/><path id="path5007" fill="#a2eb59" fill-opacity="1" stroke="none" d="m 37.571429,1017.1717 1.428571,0 0,1.4286 -1.428571,0 0,-1.4286 z"/><path id="path4995" fill="#a2eb59" fill-opacity="1" stroke="none" d="m 10.904762,1019.0765 1.428571,0 0,1.4286 -1.428571,0 0,-1.4286 z"/><path id="path4993" fill="#a2eb59" fill-opacity="1" stroke="none" d="m 12.809524,1019.0765 1.428571,0 0,1.4286 -1.428571,0 0,-1.4286 z"/><path id="path4991" fill="#a2eb59" fill-opacity="1" stroke="none" d="m 14.714286,1019.0765 1.428571,0 0,1.4286 -1.428571,0 0,-1.4286 z"/><path id="path4989" fill="#a2eb59" fill-opacity="1" stroke="none" d="m 16.619047,1019.0765 1.428572,0 0,1.4286 -1.428572,0 0,-1.4286 z"/><path id="path4977" fill="#a2eb59" fill-opacity="1" stroke="none" d="m 28.047619,1019.0765 1.428572,0 0,1.4286 -1.428572,0 0,-1.4286 z"/><path id="path4975" fill="#a2eb59" fill-opacity="1" stroke="none" d="m 29.952381,1019.0765 1.428572,0 0,1.4286 -1.428572,0 0,-1.4286 z"/><path id="path4973" fill="#a2eb59" fill-opacity="1" stroke="none" d="m 31.857143,1019.0765 1.428571,0 0,1.4286 -1.428571,0 0,-1.4286 z"/><path id="path4971" fill="#a2eb59" fill-opacity="1" stroke="none" d="m 33.761905,1019.0765 1.428571,0 0,1.4286 -1.428571,0 0,-1.4286 z"/><path id="path4969" fill="#a2eb59" fill-opacity="1" stroke="none" d="m 35.666667,1019.0765 1.428571,0 0,1.4286 -1.428571,0 0,-1.4286 z"/><path id="path4955" fill="#a2eb59" fill-opacity="1" stroke="none" d="m 10.904762,1020.9812 1.428571,0 0,1.4286 -1.428571,0 0,-1.4286 z"/><path id="path4953" fill="#a2eb59" fill-opacity="1" stroke="none" d="m 12.809524,1020.9812 1.428571,0 0,1.4286 -1.428571,0 0,-1.4286 z"/><path id="path4951" fill="#a2eb59" fill-opacity="1" stroke="none" d="m 14.714286,1020.9812 1.428571,0 0,1.4286 -1.428571,0 0,-1.4286 z"/><path id="path4949" fill="#a2eb59" fill-opacity="1" stroke="none" d="m 16.619047,1020.9812 1.428572,0 0,1.4286 -1.428572,0 0,-1.4286 z"/><path id="path4939" fill="#a2eb59" fill-opacity="1" stroke="none" d="m 26.142857,1020.9812 1.428572,0 0,1.4286 -1.428572,0 0,-1.4286 z"/><path id="path4937" fill="#a2eb59" fill-opacity="1" stroke="none" d="m 28.047619,1020.9812 1.428572,0 0,1.4286 -1.428572,0 0,-1.4286 z"/><path id="path4935" fill="#a2eb59" fill-opacity="1" stroke="none" d="m 29.952381,1020.9812 1.428572,0 0,1.4286 -1.428572,0 0,-1.4286 z"/><path id="path4933" fill="#a2eb59" fill-opacity="1" stroke="none" d="m 31.857143,1020.9812 1.428571,0 0,1.4286 -1.428571,0 0,-1.4286 z"/><path id="path4931" fill="#a2eb59" fill-opacity="1" stroke="none" d="m 33.761905,1020.9812 1.428571,0 0,1.4286 -1.428571,0 0,-1.4286 z"/><path id="path4915" fill="#a2eb59" fill-opacity="1" stroke="none" d="m 10.904762,1022.886 1.428571,0 0,1.4286 -1.428571,0 0,-1.4286 z"/><path id="path4913" fill="#a2eb59" fill-opacity="1" stroke="none" d="m 12.809524,1022.886 1.428571,0 0,1.4286 -1.428571,0 0,-1.4286 z"/><path id="path4911" fill="#a2eb59" fill-opacity="1" stroke="none" d="m 14.714286,1022.886 1.428571,0 0,1.4286 -1.428571,0 0,-1.4286 z"/><path id="path4909" fill="#a2eb59" fill-opacity="1" stroke="none" d="m 16.619047,1022.886 1.428572,0 0,1.4286 -1.428572,0 0,-1.4286 z"/><path id="path4901" fill="#a2eb59" fill-opacity="1" stroke="none" d="m 24.238095,1022.886 1.428572,0 0,1.4286 -1.428572,0 0,-1.4286 z"/><path id="path4899" fill="#a2eb59" fill-opacity="1" stroke="none" d="m 26.142857,1022.886 1.428572,0 0,1.4286 -1.428572,0 0,-1.4286 z"/><path id="path4897" fill="#a2eb59" fill-opacity="1" stroke="none" d="m 28.047619,1022.886 1.428572,0 0,1.4286 -1.428572,0 0,-1.4286 z"/><path id="path4895" fill="#a2eb59" fill-opacity="1" stroke="none" d="m 29.952381,1022.886 1.428572,0 0,1.4286 -1.428572,0 0,-1.4286 z"/><path id="path4893" fill="#a2eb59" fill-opacity="1" stroke="none" d="m 31.857143,1022.886 1.428571,0 0,1.4286 -1.428571,0 0,-1.4286 z"/><path id="path4875" fill="#a2eb59" fill-opacity="1" stroke="none" d="m 10.904762,1024.7908 1.428571,0 0,1.4285 -1.428571,0 0,-1.4285 z"/><path id="path4873" fill="#a2eb59" fill-opacity="1" stroke="none" d="m 12.809524,1024.7908 1.428571,0 0,1.4285 -1.428571,0 0,-1.4285 z"/><path id="path4871" fill="#a2eb59" fill-opacity="1" stroke="none" d="m 14.714286,1024.7908 1.428571,0 0,1.4285 -1.428571,0 0,-1.4285 z"/><path id="path4869" fill="#a2eb59" fill-opacity="1" stroke="none" d="m 16.619047,1024.7908 1.428572,0 0,1.4285 -1.428572,0 0,-1.4285 z"/><path id="path4863" fill="#a2eb59" fill-opacity="1" stroke="none" d="m 22.333333,1024.7908 1.428572,0 0,1.4285 -1.428572,0 0,-1.4285 z"/><path id="path4861" fill="#a2eb59" fill-opacity="1" stroke="none" d="m 24.238095,1024.7908 1.428572,0 0,1.4285 -1.428572,0 0,-1.4285 z"/><path id="path4859" fill="#a2eb59" fill-opacity="1" stroke="none" d="m 26.142857,1024.7908 1.428572,0 0,1.4285 -1.428572,0 0,-1.4285 z"/><path id="path4857" fill="#a2eb59" fill-opacity="1" stroke="none" d="m 28.047619,1024.7908 1.428572,0 0,1.4285 -1.428572,0 0,-1.4285 z"/><path id="path4855" fill="#a2eb59" fill-opacity="1" stroke="none" d="m 29.952381,1024.7908 1.428572,0 0,1.4285 -1.428572,0 0,-1.4285 z"/><path id="path4835" fill="#a2eb59" fill-opacity="1" stroke="none" d="m 10.904762,1026.6955 1.428571,0 0,1.4286 -1.428571,0 0,-1.4286 z"/><path id="path4833" fill="#a2eb59" fill-opacity="1" stroke="none" d="m 12.809524,1026.6955 1.428571,0 0,1.4286 -1.428571,0 0,-1.4286 z"/><path id="path4831" fill="#a2eb59" fill-opacity="1" stroke="none" d="m 14.714286,1026.6955 1.428571,0 0,1.4286 -1.428571,0 0,-1.4286 z"/><path id="path4829" fill="#a2eb59" fill-opacity="1" stroke="none" d="m 16.619047,1026.6955 1.428572,0 0,1.4286 -1.428572,0 0,-1.4286 z"/><path id="path4825" fill="#a2eb59" fill-opacity="1" stroke="none" d="m 20.428571,1026.6955 1.428572,0 0,1.4286 -1.428572,0 0,-1.4286 z"/><path id="path4823" fill="#a2eb59" fill-opacity="1" stroke="none" d="m 22.333333,1026.6955 1.428572,0 0,1.4286 -1.428572,0 0,-1.4286 z"/><path id="path4821" fill="#a2eb59" fill-opacity="1" stroke="none" d="m 24.238095,1026.6955 1.428572,0 0,1.4286 -1.428572,0 0,-1.4286 z"/><path id="path4819" fill="#a2eb59" fill-opacity="1" stroke="none" d="m 26.142857,1026.6955 1.428572,0 0,1.4286 -1.428572,0 0,-1.4286 z"/><path id="path4817" fill="#a2eb59" fill-opacity="1" stroke="none" d="m 28.047619,1026.6955 1.428572,0 0,1.4286 -1.428572,0 0,-1.4286 z"/><path id="path4795" fill="#a2eb59" fill-opacity="1" stroke="none" d="m 10.904762,1028.6003 1.428571,0 0,1.4286 -1.428571,0 0,-1.4286 z"/><path id="path4793" fill="#a2eb59" fill-opacity="1" stroke="none" d="m 12.809524,1028.6003 1.428571,0 0,1.4286 -1.428571,0 0,-1.4286 z"/><path id="path4791" fill="#a2eb59" fill-opacity="1" stroke="none" d="m 14.714286,1028.6003 1.428571,0 0,1.4286 -1.428571,0 0,-1.4286 z"/><path id="path4789" fill="#a2eb59" fill-opacity="1" stroke="none" d="m 16.619047,1028.6003 1.428572,0 0,1.4286 -1.428572,0 0,-1.4286 z"/><path id="path4787" fill="#a2eb59" fill-opacity="1" stroke="none" d="m 18.523809,1028.6003 1.428572,0 0,1.4286 -1.428572,0 0,-1.4286 z"/><path id="path4785" fill="#a2eb59" fill-opacity="1" stroke="none" d="m 20.428571,1028.6003 1.428572,0 0,1.4286 -1.428572,0 0,-1.4286 z"/><path id="path4783" fill="#a2eb59" fill-opacity="1" stroke="none" d="m 22.333333,1028.6003 1.428572,0 0,1.4286 -1.428572,0 0,-1.4286 z"/><path id="path4781" fill="#a2eb59" fill-opacity="1" stroke="none" d="m 24.238095,1028.6003 1.428572,0 0,1.4286 -1.428572,0 0,-1.4286 z"/><path id="path4779" fill="#a2eb59" fill-opacity="1" stroke="none" d="m 26.142857,1028.6003 1.428572,0 0,1.4286 -1.428572,0 0,-1.4286 z"/><path id="path4755" fill="#a2eb59" fill-opacity="1" stroke="none" d="m 10.904762,1030.5051 1.428571,0 0,1.4285 -1.428571,0 0,-1.4285 z"/><path id="path4753" fill="#a2eb59" fill-opacity="1" stroke="none" d="m 12.809524,1030.5051 1.428571,0 0,1.4285 -1.428571,0 0,-1.4285 z"/><path id="path4751" fill="#a2eb59" fill-opacity="1" stroke="none" d="m 14.714286,1030.5051 1.428571,0 0,1.4285 -1.428571,0 0,-1.4285 z"/><path id="path4749" fill="#a2eb59" fill-opacity="1" stroke="none" d="m 16.619047,1030.5051 1.428572,0 0,1.4285 -1.428572,0 0,-1.4285 z"/><path id="path4747" fill="#a2eb59" fill-opacity="1" stroke="none" d="m 18.523809,1030.5051 1.428572,0 0,1.4285 -1.428572,0 0,-1.4285 z"/><path id="path4745" fill="#a2eb59" fill-opacity="1" stroke="none" d="m 20.428571,1030.5051 1.428572,0 0,1.4285 -1.428572,0 0,-1.4285 z"/><path id="path4743" fill="#a2eb59" fill-opacity="1" stroke="none" d="m 22.333333,1030.5051 1.428572,0 0,1.4285 -1.428572,0 0,-1.4285 z"/><path id="path4741" fill="#a2eb59" fill-opacity="1" stroke="none" d="m 24.238095,1030.5051 1.428572,0 0,1.4285 -1.428572,0 0,-1.4285 z"/><path id="path4715" fill="#a2eb59" fill-opacity="1" stroke="none" d="m 10.904762,1032.4098 1.428571,0 0,1.4286 -1.428571,0 0,-1.4286 z"/><path id="path4713" fill="#a2eb59" fill-opacity="1" stroke="none" d="m 12.809524,1032.4098 1.428571,0 0,1.4286 -1.428571,0 0,-1.4286 z"/><path id="path4711" fill="#a2eb59" fill-opacity="1" stroke="none" d="m 14.714286,1032.4098 1.428571,0 0,1.4286 -1.428571,0 0,-1.4286 z"/><path id="path4709" fill="#a2eb59" fill-opacity="1" stroke="none" d="m 16.619047,1032.4098 1.428572,0 0,1.4286 -1.428572,0 0,-1.4286 z"/><path id="path4707" fill="#a2eb59" fill-opacity="1" stroke="none" d="m 18.523809,1032.4098 1.428572,0 0,1.4286 -1.428572,0 0,-1.4286 z"/><path id="path4705" fill="#a2eb59" fill-opacity="1" stroke="none" d="m 20.428571,1032.4098 1.428572,0 0,1.4286 -1.428572,0 0,-1.4286 z"/><path id="path4703" fill="#a2eb59" fill-opacity="1" stroke="none" d="m 22.333333,1032.4098 1.428572,0 0,1.4286 -1.428572,0 0,-1.4286 z"/><path id="path4675" fill="#a2eb59" fill-opacity="1" stroke="none" d="m 10.904762,1034.3146 1.428571,0 0,1.4286 -1.428571,0 0,-1.4286 z"/><path id="path4673" fill="#a2eb59" fill-opacity="1" stroke="none" d="m 12.809524,1034.3146 1.428571,0 0,1.4286 -1.428571,0 0,-1.4286 z"/><path id="path4671" fill="#a2eb59" fill-opacity="1" stroke="none" d="m 14.714286,1034.3146 1.428571,0 0,1.4286 -1.428571,0 0,-1.4286 z"/><path id="path4669" fill="#a2eb59" fill-opacity="1" stroke="none" d="m 16.619047,1034.3146 1.428572,0 0,1.4286 -1.428572,0 0,-1.4286 z"/><path id="path4667" fill="#a2eb59" fill-opacity="1" stroke="none" d="m 18.523809,1034.3146 1.428572,0 0,1.4286 -1.428572,0 0,-1.4286 z"/><path id="path4665" fill="#a2eb59" fill-opacity="1" stroke="none" d="m 20.428571,1034.3146 1.428572,0 0,1.4286 -1.428572,0 0,-1.4286 z"/><path id="path4635" fill="#a2eb59" fill-opacity="1" stroke="none" d="m 10.904762,1036.2193 1.428571,0 0,1.4286 -1.428571,0 0,-1.4286 z"/><path id="path4633" fill="#a2eb59" fill-opacity="1" stroke="none" d="m 12.809524,1036.2193 1.428571,0 0,1.4286 -1.428571,0 0,-1.4286 z"/><path id="path4631" fill="#a2eb59" fill-opacity="1" stroke="none" d="m 14.714286,1036.2193 1.428571,0 0,1.4286 -1.428571,0 0,-1.4286 z"/><path id="path4629" fill="#a2eb59" fill-opacity="1" stroke="none" d="m 16.619047,1036.2193 1.428572,0 0,1.4286 -1.428572,0 0,-1.4286 z"/><path id="path4627" fill="#a2eb59" fill-opacity="1" stroke="none" d="m 18.523809,1036.2193 1.428572,0 0,1.4286 -1.428572,0 0,-1.4286 z"/><path id="path4595" fill="#a2eb59" fill-opacity="1" stroke="none" d="m 10.904762,1038.1241 1.428571,0 0,1.4286 -1.428571,0 0,-1.4286 z"/><path id="path4593" fill="#a2eb59" fill-opacity="1" stroke="none" d="m 12.809524,1038.1241 1.428571,0 0,1.4286 -1.428571,0 0,-1.4286 z"/><path id="path4591" fill="#a2eb59" fill-opacity="1" stroke="none" d="m 14.714286,1038.1241 1.428571,0 0,1.4286 -1.428571,0 0,-1.4286 z"/><path id="path4589" fill="#a2eb59" fill-opacity="1" stroke="none" d="m 16.619047,1038.1241 1.428572,0 0,1.4286 -1.428572,0 0,-1.4286 z"/><path id="path4555" fill="#a2eb59" fill-opacity="1" stroke="none" d="m 10.904762,1040.0289 1.428571,0 0,1.4285 -1.428571,0 0,-1.4285 z"/><path id="path4553" fill="#a2eb59" fill-opacity="1" stroke="none" d="m 12.809524,1040.0289 1.428571,0 0,1.4285 -1.428571,0 0,-1.4285 z"/><path id="path4551" fill="#a2eb59" fill-opacity="1" stroke="none" d="m 14.714286,1040.0289 1.428571,0 0,1.4285 -1.428571,0 0,-1.4285 z"/><path id="path4515" fill="#a2eb59" fill-opacity="1" stroke="none" d="m 10.904762,1041.9336 1.428571,0 0,1.4286 -1.428571,0 0,-1.4286 z"/><path id="path4513" fill="#a2eb59" fill-opacity="1" stroke="none" d="m 12.809524,1041.9336 1.428571,0 0,1.4286 -1.428571,0 0,-1.4286 z"/><g id="g5213"><path id="rect846-6" fill="#000" fill-opacity="1" stroke="none" d="m 5.3674317e-8,1049.3622 0,1.0625 c 0,1.0773 0.860222896325683,1.9375 1.937499946325683,1.9375 l 44.125,0 c 1.077277,0 1.9375,-0.8602 1.9375,-1.9375 l 0,-1.0625 c 0,1.0773 -0.860223,1.9375 -1.9375,1.9375 l -44.125,0 C 0.86022295,1051.2997 5.3674317e-8,1050.4395 5.3674317e-8,1049.3622 Z"/><path id="rect4280-1" fill="#000" fill-opacity=".392" stroke="none" d="m 1.9375,1004.3622 c -1.07727695,0 -1.937499946325683,0.8602 -1.937499946325683,1.9375 l 0,43.0625 c 0,0.7934 0.480023596325683,1.449 1.156249946325683,1.75 -0.30934165,-0.3333 -0.49999995,-0.7824 -0.49999995,-1.2812 l 0,-42.9375 c 0,-1.0482 0.82689895,-1.875 1.87499995,-1.875 l 42.9375,0 c 1.048101,0 1.875,0.8268 1.875,1.875 l 0,42.9375 c 0,0.4988 -0.190658,0.9479 -0.5,1.2812 0.676226,-0.301 1.15625,-0.9566 1.15625,-1.75 l 0,-43.0625 c 0,-1.0773 -0.860223,-1.9375 -1.9375,-1.9375 L 1.9375,1004.3622 Z"/></g><g id="g5217" transform="matrix(0.95238097,0,0,0.95238097,1.1428567,48.969608)"><path id="rect25241" fill="url(#linearGradient25252)" fill-opacity="1" stroke="none" d="m 3,1046.081 0,1.5937 c 0,0.9426 0.7448824,1.6875 1.6875,1.6875 l 38.625,0 c 0.942618,0 1.6875,-0.7449 1.6875,-1.6875 l 0,-1.5937 c 0,0.9426 -0.744882,1.6875 -1.6875,1.6875 l -38.625,0 C 3.7448824,1047.7685 3,1047.0236 3,1046.081 Z"/><path id="path25254" fill="url(#linearGradient25256)" fill-opacity="1" stroke="none" d="m 3,1010.6434 0,-1.5937 c 0,-0.9427 0.7448824,-1.6875 1.6875,-1.6875 l 38.625,0 c 0.942618,0 1.6875,0.7448 1.6875,1.6875 l 0,1.5937 c 0,-0.9426 -0.744882,-1.6875 -1.6875,-1.6875 l -38.625,0 c -0.9426176,0 -1.6875,0.7449 -1.6875,1.6875 z"/><path id="path25258" fill="url(#linearGradient25260)" fill-opacity="1" stroke="none" d="m 6.2812,1049.3622 -1.5937,0 C 3.7448,1049.3622 3,1048.6173 3,1047.6747 l 0,-38.625 c 0,-0.9426 0.7448,-1.6875 1.6875,-1.6875 l 1.5937,0 c -0.9426,0 -1.6875,0.7449 -1.6875,1.6875 l 0,38.625 c 0,0.9426 0.7449,1.6875 1.6875,1.6875 z"/><path id="path25262" fill="url(#linearGradient25264)" fill-opacity="1" stroke="none" d="m 41.7188,1049.3622 1.5937,0 c 0.9427,0 1.6875,-0.7449 1.6875,-1.6875 l 0,-38.625 c 0,-0.9426 -0.7448,-1.6875 -1.6875,-1.6875 l -1.5937,0 c 0.9426,0 1.6875,0.7449 1.6875,1.6875 l 0,38.625 c 0,0.9426 -0.7449,1.6875 -1.6875,1.6875 z"/></g><path id="path5223" fill="#a2eb59" fill-opacity="1" stroke="none" d="m 26.142857,1013.3622 1.428572,0 0,1.4286 -1.428572,0 0,-1.4286 z"/><path id="path5225" fill="#a2eb59" fill-opacity="1" stroke="none" d="m 26.142857,1015.267 1.428572,0 0,1.4285 -1.428572,0 0,-1.4285 z"/><path id="path5227" fill="url(#radialGradient5235)" fill-opacity="1" stroke="none" d="m 38.52381,1012.4098 3.333333,0 0,3.3334 -3.333333,0 0,-3.3334 z"/><path id="path5237" fill="url(#radialGradient5239)" fill-opacity="1" stroke="none" d="m 36.619048,1012.4098 3.333333,0 0,3.3334 -3.333333,0 0,-3.3334 z"/><path id="path5241" fill="url(#radialGradient5243)" fill-opacity="1" stroke="none" d="m 34.714286,1012.4098 3.333333,0 0,3.3334 -3.333333,0 0,-3.3334 z"/><path id="path5245" fill="url(#radialGradient5247)" fill-opacity="1" stroke="none" d="m 32.809524,1012.4098 3.333333,0 0,3.3334 -3.333333,0 0,-3.3334 z"/><path id="path5249" fill="url(#radialGradient5251)" fill-opacity="1" stroke="none" d="m 30.904762,1012.4098 3.333333,0 0,3.3334 -3.333333,0 0,-3.3334 z"/><path id="path5253" fill="url(#radialGradient5255)" fill-opacity="1" stroke="none" d="m 29,1012.4098 3.333334,0 0,3.3334 -3.333334,0 0,-3.3334 z"/><path id="path5257" fill="url(#radialGradient5259)" fill-opacity="1" stroke="none" d="m 27.095238,1012.4098 3.333334,0 0,3.3334 -3.333334,0 0,-3.3334 z"/><path id="path5261" fill="url(#radialGradient5263)" fill-opacity="1" stroke="none" d="m 25.190476,1012.4098 3.333334,0 0,3.3334 -3.333334,0 0,-3.3334 z"/><path id="path5265" fill="url(#radialGradient5267)" fill-opacity="1" stroke="none" d="m 25.190476,1014.3146 3.333334,0 0,3.3333 -3.333334,0 0,-3.3333 z"/><path id="path5269" fill="url(#radialGradient5271)" fill-opacity="1" stroke="none" d="m 27.095238,1014.3146 3.333334,0 0,3.3333 -3.333334,0 0,-3.3333 z"/><path id="path5273" fill="url(#radialGradient5275)" fill-opacity="1" stroke="none" d="m 29,1014.3146 3.333334,0 0,3.3333 -3.333334,0 0,-3.3333 z"/><path id="path5277" fill="url(#radialGradient5279)" fill-opacity="1" stroke="none" d="m 30.904762,1014.3146 3.333333,0 0,3.3333 -3.333333,0 0,-3.3333 z"/><path id="path5281" fill="url(#radialGradient5283)" fill-opacity="1" stroke="none" d="m 32.809524,1014.3146 3.333333,0 0,3.3333 -3.333333,0 0,-3.3333 z"/><path id="path5285" fill="url(#radialGradient5287)" fill-opacity="1" stroke="none" d="m 34.714286,1014.3146 3.333333,0 0,3.3333 -3.333333,0 0,-3.3333 z"/><path id="path5289" fill="url(#radialGradient5291)" fill-opacity="1" stroke="none" d="m 36.619048,1014.3146 3.333333,0 0,3.3333 -3.333333,0 0,-3.3333 z"/><path id="path5293" fill="url(#radialGradient5295)" fill-opacity="1" stroke="none" d="m 38.52381,1014.3146 3.333333,0 0,3.3333 -3.333333,0 0,-3.3333 z"/><path id="path5297" fill="url(#radialGradient5299)" fill-opacity="1" stroke="none" d="m 36.619048,1016.2193 3.333333,0 0,3.3334 -3.333333,0 0,-3.3334 z"/><path id="path5301" fill="url(#radialGradient5303)" fill-opacity="1" stroke="none" d="m 34.714286,1016.2193 3.333333,0 0,3.3334 -3.333333,0 0,-3.3334 z"/><path id="path5305" fill="url(#radialGradient5307)" fill-opacity="1" stroke="none" d="m 32.809524,1016.2193 3.333333,0 0,3.3334 -3.333333,0 0,-3.3334 z"/><path id="path5309" fill="url(#radialGradient5311)" fill-opacity="1" stroke="none" d="m 30.904762,1016.2193 3.333333,0 0,3.3334 -3.333333,0 0,-3.3334 z"/><path id="path5313" fill="url(#radialGradient5315)" fill-opacity="1" stroke="none" d="m 29,1016.2193 3.333334,0 0,3.3334 -3.333334,0 0,-3.3334 z"/><path id="path5317" fill="url(#radialGradient5319)" fill-opacity="1" stroke="none" d="m 29,1018.1241 3.333334,0 0,3.3333 -3.333334,0 0,-3.3333 z"/><path id="path5321" fill="url(#radialGradient5323)" fill-opacity="1" stroke="none" d="m 27.095238,1018.1241 3.333334,0 0,3.3333 -3.333334,0 0,-3.3333 z"/><path id="path5325" fill="url(#radialGradient5327)" fill-opacity="1" stroke="none" d="m 27.095238,1020.0289 3.333334,0 0,3.3333 -3.333334,0 0,-3.3333 z"/><path id="path5329" fill="url(#radialGradient5331)" fill-opacity="1" stroke="none" d="m 25.190476,1020.0289 3.333334,0 0,3.3333 -3.333334,0 0,-3.3333 z"/><path id="path5333" fill="url(#radialGradient5335)" fill-opacity="1" stroke="none" d="m 25.190476,1021.9336 3.333334,0 0,3.3334 -3.333334,0 0,-3.3334 z"/><path id="path5337" fill="url(#radialGradient5339)" fill-opacity="1" stroke="none" d="m 23.285714,1021.9336 3.333334,0 0,3.3334 -3.333334,0 0,-3.3334 z"/><path id="path5341" fill="url(#radialGradient5343)" fill-opacity="1" stroke="none" d="m 23.285714,1023.8384 3.333334,0 0,3.3333 -3.333334,0 0,-3.3333 z"/><path id="path5345" fill="url(#radialGradient5347)" fill-opacity="1" stroke="none" d="m 21.380952,1023.8384 3.333334,0 0,3.3333 -3.333334,0 0,-3.3333 z"/><path id="path5349" fill="url(#radialGradient5351)" fill-opacity="1" stroke="none" d="m 19.47619,1025.7432 3.333334,0 0,3.3333 -3.333334,0 0,-3.3333 z"/><path id="path5353" fill="url(#radialGradient5355)" fill-opacity="1" stroke="none" d="m 21.380952,1025.7432 3.333334,0 0,3.3333 -3.333334,0 0,-3.3333 z"/><path id="path5357" fill="url(#radialGradient5359)" fill-opacity="1" stroke="none" d="m 23.285714,1025.7432 3.333334,0 0,3.3333 -3.333334,0 0,-3.3333 z"/><path id="path5361" fill="url(#radialGradient5363)" fill-opacity="1" stroke="none" d="m 25.190476,1025.7432 3.333334,0 0,3.3333 -3.333334,0 0,-3.3333 z"/><path id="path5365" fill="url(#radialGradient5367)" fill-opacity="1" stroke="none" d="m 25.190476,1023.8384 3.333334,0 0,3.3333 -3.333334,0 0,-3.3333 z"/><path id="path5369" fill="url(#radialGradient5371)" fill-opacity="1" stroke="none" d="m 27.095238,1023.8384 3.333334,0 0,3.3333 -3.333334,0 0,-3.3333 z"/><path id="path5373" fill="url(#radialGradient5375)" fill-opacity="1" stroke="none" d="m 27.095238,1025.7432 3.333334,0 0,3.3333 -3.333334,0 0,-3.3333 z"/><path id="path5377" fill="url(#radialGradient5379)" fill-opacity="1" stroke="none" d="m 29,1023.8384 3.333334,0 0,3.3333 -3.333334,0 0,-3.3333 z"/><path id="path5381" fill="url(#radialGradient5383)" fill-opacity="1" stroke="none" d="m 27.095238,1021.9336 3.333334,0 0,3.3334 -3.333334,0 0,-3.3334 z"/><path id="path5385" fill="url(#radialGradient5387)" fill-opacity="1" stroke="none" d="m 29,1021.9336 3.333334,0 0,3.3334 -3.333334,0 0,-3.3334 z"/><path id="path5389" fill="url(#radialGradient5391)" fill-opacity="1" stroke="none" d="m 29,1020.0289 3.333334,0 0,3.3333 -3.333334,0 0,-3.3333 z"/><path id="path5393" fill="url(#radialGradient5395)" fill-opacity="1" stroke="none" d="m 30.904762,1020.0289 3.333333,0 0,3.3333 -3.333333,0 0,-3.3333 z"/><path id="path5397" fill="url(#radialGradient5399)" fill-opacity="1" stroke="none" d="m 30.904762,1021.9336 3.333333,0 0,3.3334 -3.333333,0 0,-3.3334 z"/><path id="path5401" fill="url(#radialGradient5403)" fill-opacity="1" stroke="none" d="m 32.809524,1020.0289 3.333333,0 0,3.3333 -3.333333,0 0,-3.3333 z"/><path id="path5405" fill="url(#radialGradient5407)" fill-opacity="1" stroke="none" d="m 30.904762,1018.1241 3.333333,0 0,3.3333 -3.333333,0 0,-3.3333 z"/><path id="path5409" fill="url(#radialGradient5411)" fill-opacity="1" stroke="none" d="m 32.809524,1018.1241 3.333333,0 0,3.3333 -3.333333,0 0,-3.3333 z"/><path id="path5413" fill="url(#radialGradient5415)" fill-opacity="1" stroke="none" d="m 34.714286,1018.1241 3.333333,0 0,3.3333 -3.333333,0 0,-3.3333 z"/><path id="path5417" fill="url(#radialGradient5419)" fill-opacity="1" stroke="none" d="m 25.190476,1027.6479 3.333334,0 0,3.3333 -3.333334,0 0,-3.3333 z"/><path id="path5421" fill="url(#radialGradient5423)" fill-opacity="1" stroke="none" d="m 23.285714,1027.6479 3.333334,0 0,3.3333 -3.333334,0 0,-3.3333 z"/><path id="path5425" fill="url(#radialGradient5427)" fill-opacity="1" stroke="none" d="m 21.380952,1027.6479 3.333334,0 0,3.3333 -3.333334,0 0,-3.3333 z"/><path id="path5429" fill="url(#radialGradient5431)" fill-opacity="1" stroke="none" d="m 19.47619,1027.6479 3.333334,0 0,3.3333 -3.333334,0 0,-3.3333 z"/><path id="path5433" fill="url(#radialGradient5435)" fill-opacity="1" stroke="none" d="m 17.571428,1027.6479 3.333334,0 0,3.3333 -3.333334,0 0,-3.3333 z"/><path id="path5437" fill="url(#radialGradient5439)" fill-opacity="1" stroke="none" d="m 17.571428,1029.5527 3.333334,0 0,3.3333 -3.333334,0 0,-3.3333 z"/><path id="path5441" fill="url(#radialGradient5443)" fill-opacity="1" stroke="none" d="m 19.47619,1029.5527 3.333334,0 0,3.3333 -3.333334,0 0,-3.3333 z"/><path id="path5445" fill="url(#radialGradient5447)" fill-opacity="1" stroke="none" d="m 21.380952,1029.5527 3.333334,0 0,3.3333 -3.333334,0 0,-3.3333 z"/><path id="path5449" fill="url(#radialGradient5451)" fill-opacity="1" stroke="none" d="m 23.285714,1029.5527 3.333334,0 0,3.3333 -3.333334,0 0,-3.3333 z"/><path id="path5453" fill="url(#radialGradient5455)" fill-opacity="1" stroke="none" d="m 21.380952,1031.4574 3.333334,0 0,3.3334 -3.333334,0 0,-3.3334 z"/><path id="path5457" fill="url(#radialGradient5459)" fill-opacity="1" stroke="none" d="m 19.47619,1031.4574 3.333334,0 0,3.3334 -3.333334,0 0,-3.3334 z"/><path id="path5461" fill="url(#radialGradient5463)" fill-opacity="1" stroke="none" d="m 17.571428,1031.4574 3.333334,0 0,3.3334 -3.333334,0 0,-3.3334 z"/><path id="path5465" fill="url(#radialGradient5467)" fill-opacity="1" stroke="none" d="m 15.666666,1031.4574 3.333334,0 0,3.3334 -3.333334,0 0,-3.3334 z"/><path id="path5469" fill="url(#radialGradient5471)" fill-opacity="1" stroke="none" d="m 13.761905,1031.4574 3.333333,0 0,3.3334 -3.333333,0 0,-3.3334 z"/><path id="path5473" fill="url(#radialGradient5475)" fill-opacity="1" stroke="none" d="m 11.857143,1031.4574 3.333333,0 0,3.3334 -3.333333,0 0,-3.3334 z"/><path id="path5477" fill="url(#radialGradient5479)" fill-opacity="1" stroke="none" d="m 9.9523807,1031.4574 3.3333333,0 0,3.3334 -3.3333333,0 0,-3.3334 z"/><path id="path5483" fill="url(#radialGradient5485)" fill-opacity="1" stroke="none" d="m 9.9523807,1033.3622 3.3333333,0 0,3.3333 -3.3333333,0 0,-3.3333 z"/><path id="path5487" fill="url(#radialGradient5489)" fill-opacity="1" stroke="none" d="m 9.9523807,1035.267 3.3333333,0 0,3.3333 -3.3333333,0 0,-3.3333 z"/><path id="path5491" fill="url(#radialGradient5493)" fill-opacity="1" stroke="none" d="m 9.9523807,1037.1717 3.3333333,0 0,3.3334 -3.3333333,0 0,-3.3334 z"/><path id="path5495" fill="url(#radialGradient5497)" fill-opacity="1" stroke="none" d="m 9.9523807,1039.0765 3.3333333,0 0,3.3333 -3.3333333,0 0,-3.3333 z"/><path id="path5499" fill="url(#radialGradient5501)" fill-opacity="1" stroke="none" d="m 9.9523807,1040.9812 3.3333333,0 0,3.3334 -3.3333333,0 0,-3.3334 z"/><path id="path5503" fill="url(#radialGradient5505)" fill-opacity="1" stroke="none" d="m 11.857143,1040.9812 3.333333,0 0,3.3334 -3.333333,0 0,-3.3334 z"/><path id="path5507" fill="url(#radialGradient5509)" fill-opacity="1" stroke="none" d="m 11.857143,1039.0765 3.333333,0 0,3.3333 -3.333333,0 0,-3.3333 z"/><path id="path5511" fill="url(#radialGradient5513)" fill-opacity="1" stroke="none" d="m 11.857143,1037.1717 3.333333,0 0,3.3334 -3.333333,0 0,-3.3334 z"/><path id="path5515" fill="url(#radialGradient5517)" fill-opacity="1" stroke="none" d="m 11.857143,1035.267 3.333333,0 0,3.3333 -3.333333,0 0,-3.3333 z"/><path id="path5519" fill="url(#radialGradient5521)" fill-opacity="1" stroke="none" d="m 11.857143,1033.3622 3.333333,0 0,3.3333 -3.333333,0 0,-3.3333 z"/><path id="path5523" fill="url(#radialGradient5525)" fill-opacity="1" stroke="none" d="m 13.761905,1033.3622 3.333333,0 0,3.3333 -3.333333,0 0,-3.3333 z"/><path id="path5527" fill="url(#radialGradient5529)" fill-opacity="1" stroke="none" d="m 15.666666,1033.3622 3.333334,0 0,3.3333 -3.333334,0 0,-3.3333 z"/><path id="path5531" fill="url(#radialGradient5533)" fill-opacity="1" stroke="none" d="m 17.571428,1033.3622 3.333334,0 0,3.3333 -3.333334,0 0,-3.3333 z"/><path id="path5535" fill="url(#radialGradient5537)" fill-opacity="1" stroke="none" d="m 19.47619,1033.3622 3.333334,0 0,3.3333 -3.333334,0 0,-3.3333 z"/><path id="path5539" fill="url(#radialGradient5541)" fill-opacity="1" stroke="none" d="m 17.571428,1035.267 3.333334,0 0,3.3333 -3.333334,0 0,-3.3333 z"/><path id="path5543" fill="url(#radialGradient5545)" fill-opacity="1" stroke="none" d="m 15.666666,1035.267 3.333334,0 0,3.3333 -3.333334,0 0,-3.3333 z"/><path id="path5547" fill="url(#radialGradient5549)" fill-opacity="1" stroke="none" d="m 13.761905,1035.267 3.333333,0 0,3.3333 -3.333333,0 0,-3.3333 z"/><path id="path5551" fill="url(#radialGradient5553)" fill-opacity="1" stroke="none" d="m 13.761905,1037.1717 3.333333,0 0,3.3334 -3.333333,0 0,-3.3334 z"/><path id="path5555" fill="url(#radialGradient5557)" fill-opacity="1" stroke="none" d="m 13.761905,1039.0765 3.333333,0 0,3.3333 -3.333333,0 0,-3.3333 z"/><path id="path5559" fill="url(#radialGradient5561)" fill-opacity="1" stroke="none" d="m 15.666666,1037.1717 3.333334,0 0,3.3334 -3.333334,0 0,-3.3334 z"/><path id="path5563" fill="url(#radialGradient5565)" fill-opacity="1" stroke="none" d="m 15.666666,1029.5527 3.333334,0 0,3.3333 -3.333334,0 0,-3.3333 z"/><path id="path5567" fill="url(#radialGradient5569)" fill-opacity="1" stroke="none" d="m 13.761905,1029.5527 3.333333,0 0,3.3333 -3.333333,0 0,-3.3333 z"/><path id="path5571" fill="url(#radialGradient5573)" fill-opacity="1" stroke="none" d="m 11.857143,1029.5527 3.333333,0 0,3.3333 -3.333333,0 0,-3.3333 z"/><path id="path5575" fill="url(#radialGradient5577)" fill-opacity="1" stroke="none" d="m 9.9523807,1029.5527 3.3333333,0 0,3.3333 -3.3333333,0 0,-3.3333 z"/><path id="path5579" fill="url(#radialGradient5581)" fill-opacity="1" stroke="none" d="m 9.9523807,1027.6479 3.3333333,0 0,3.3333 -3.3333333,0 0,-3.3333 z"/><path id="path5583" fill="url(#radialGradient5585)" fill-opacity="1" stroke="none" d="m 11.857143,1027.6479 3.333333,0 0,3.3333 -3.333333,0 0,-3.3333 z"/><path id="path5587" fill="url(#radialGradient5589)" fill-opacity="1" stroke="none" d="m 13.761905,1027.6479 3.333333,0 0,3.3333 -3.333333,0 0,-3.3333 z"/><path id="path5591" fill="url(#radialGradient5593)" fill-opacity="1" stroke="none" d="m 15.666666,1027.6479 3.333334,0 0,3.3333 -3.333334,0 0,-3.3333 z"/><path id="path5595" fill="url(#radialGradient5597)" fill-opacity="1" stroke="none" d="m 15.666666,1025.7432 3.333334,0 0,3.3333 -3.333334,0 0,-3.3333 z"/><path id="path5599" fill="url(#radialGradient5601)" fill-opacity="1" stroke="none" d="m 13.761905,1025.7432 3.333333,0 0,3.3333 -3.333333,0 0,-3.3333 z"/><path id="path5603" fill="url(#radialGradient5605)" fill-opacity="1" stroke="none" d="m 11.857143,1025.7432 3.333333,0 0,3.3333 -3.333333,0 0,-3.3333 z"/><path id="path5607" fill="url(#radialGradient5609)" fill-opacity="1" stroke="none" d="m 9.9523807,1025.7432 3.3333333,0 0,3.3333 -3.3333333,0 0,-3.3333 z"/><path id="path5613" fill="url(#radialGradient5615)" fill-opacity="1" stroke="none" d="m 9.9523807,1023.8384 3.3333333,0 0,3.3333 -3.3333333,0 0,-3.3333 z"/><path id="path5617" fill="url(#radialGradient5619)" fill-opacity="1" stroke="none" d="m 11.857143,1023.8384 3.333333,0 0,3.3333 -3.333333,0 0,-3.3333 z"/><path id="path5621" fill="url(#radialGradient5623)" fill-opacity="1" stroke="none" d="m 13.761905,1023.8384 3.333333,0 0,3.3333 -3.333333,0 0,-3.3333 z"/><path id="path5625" fill="url(#radialGradient5627)" fill-opacity="1" stroke="none" d="m 15.666666,1023.8384 3.333334,0 0,3.3333 -3.333334,0 0,-3.3333 z"/><path id="path5629" fill="url(#radialGradient5631)" fill-opacity="1" stroke="none" d="m 15.666666,1021.9336 3.333334,0 0,3.3334 -3.333334,0 0,-3.3334 z"/><path id="path5633" fill="url(#radialGradient5635)" fill-opacity="1" stroke="none" d="m 13.761905,1021.9336 3.333333,0 0,3.3334 -3.333333,0 0,-3.3334 z"/><path id="path5637" fill="url(#radialGradient5639)" fill-opacity="1" stroke="none" d="m 11.857143,1021.9336 3.333333,0 0,3.3334 -3.333333,0 0,-3.3334 z"/><path id="path5641" fill="url(#radialGradient5643)" fill-opacity="1" stroke="none" d="m 9.9523807,1021.9336 3.3333333,0 0,3.3334 -3.3333333,0 0,-3.3334 z"/><path id="path5645" fill="url(#radialGradient5647)" fill-opacity="1" stroke="none" d="m 9.9523807,1020.0289 3.3333333,0 0,3.3333 -3.3333333,0 0,-3.3333 z"/><path id="path5649" fill="url(#radialGradient5651)" fill-opacity="1" stroke="none" d="m 11.857143,1020.0289 3.333333,0 0,3.3333 -3.333333,0 0,-3.3333 z"/><path id="path5653" fill="url(#radialGradient5655)" fill-opacity="1" stroke="none" d="m 13.761905,1020.0289 3.333333,0 0,3.3333 -3.333333,0 0,-3.3333 z"/><path id="path5657" fill="url(#radialGradient5659)" fill-opacity="1" stroke="none" d="m 15.666666,1020.0289 3.333334,0 0,3.3333 -3.333334,0 0,-3.3333 z"/><path id="path5661" fill="url(#radialGradient5663)" fill-opacity="1" stroke="none" d="m 15.666666,1018.1241 3.333334,0 0,3.3333 -3.333334,0 0,-3.3333 z"/><path id="path5665" fill="url(#radialGradient5667)" fill-opacity="1" stroke="none" d="m 13.761905,1018.1241 3.333333,0 0,3.3333 -3.333333,0 0,-3.3333 z"/><path id="path5669" fill="url(#radialGradient5671)" fill-opacity="1" stroke="none" d="m 11.857143,1018.1241 3.333333,0 0,3.3333 -3.333333,0 0,-3.3333 z"/><path id="path5673" fill="url(#radialGradient5675)" fill-opacity="1" stroke="none" d="m 9.9523807,1018.1241 3.3333333,0 0,3.3333 -3.3333333,0 0,-3.3333 z"/><path id="path5677" fill="url(#radialGradient5679)" fill-opacity="1" stroke="none" d="m 9.9523807,1016.2193 3.3333333,0 0,3.3334 -3.3333333,0 0,-3.3334 z"/><path id="path5681" fill="url(#radialGradient5683)" fill-opacity="1" stroke="none" d="m 11.857143,1016.2193 3.333333,0 0,3.3334 -3.333333,0 0,-3.3334 z"/><path id="path5685" fill="url(#radialGradient5687)" fill-opacity="1" stroke="none" d="m 13.761905,1016.2193 3.333333,0 0,3.3334 -3.333333,0 0,-3.3334 z"/><path id="path5689" fill="url(#radialGradient5691)" fill-opacity="1" stroke="none" d="m 15.666666,1016.2193 3.333334,0 0,3.3334 -3.333334,0 0,-3.3334 z"/><path id="path5693" fill="url(#radialGradient5695)" fill-opacity="1" stroke="none" d="m 15.666666,1014.3146 3.333334,0 0,3.3333 -3.333334,0 0,-3.3333 z"/><path id="path5697" fill="url(#radialGradient5699)" fill-opacity="1" stroke="none" d="m 17.571428,1014.3146 3.333334,0 0,3.3333 -3.333334,0 0,-3.3333 z"/><path id="path5701" fill="url(#radialGradient5703)" fill-opacity="1" stroke="none" d="m 17.571428,1012.4098 3.333334,0 0,3.3334 -3.333334,0 0,-3.3334 z"/><path id="path5705" fill="url(#radialGradient5707)" fill-opacity="1" stroke="none" d="m 15.666666,1012.4098 3.333334,0 0,3.3334 -3.333334,0 0,-3.3334 z"/><path id="path5709" fill="url(#radialGradient5711)" fill-opacity="1" stroke="none" d="m 13.761905,1012.4098 3.333333,0 0,3.3334 -3.333333,0 0,-3.3334 z"/><path id="path5713" fill="url(#radialGradient5715)" fill-opacity="1" stroke="none" d="m 13.761905,1014.3146 3.333333,0 0,3.3333 -3.333333,0 0,-3.3333 z"/><path id="path5717" fill="url(#radialGradient5719)" fill-opacity="1" stroke="none" d="m 11.857143,1014.3146 3.333333,0 0,3.3333 -3.333333,0 0,-3.3333 z"/><path id="path5721" fill="url(#radialGradient5723)" fill-opacity="1" stroke="none" d="m 11.857143,1012.4098 3.333333,0 0,3.3334 -3.333333,0 0,-3.3334 z"/><path id="path5725" fill="url(#radialGradient5727)" fill-opacity="1" stroke="none" d="m 9.9523807,1012.4098 3.3333333,0 0,3.3334 -3.3333333,0 0,-3.3334 z"/><path id="path5729" fill="url(#radialGradient5731)" fill-opacity="1" stroke="none" d="m 9.9523807,1014.3146 3.3333333,0 0,3.3333 -3.3333333,0 0,-3.3333 z"/><path id="path5733" fill="url(#radialGradient5735)" fill-opacity="1" stroke="none" d="m 8.0476187,1014.3146 3.3333333,0 0,3.3333 -3.3333333,0 0,-3.3333 z"/><path id="path5737" fill="url(#radialGradient5739)" fill-opacity="1" stroke="none" d="m 8.0476187,1012.4098 3.3333333,0 0,3.3334 -3.3333333,0 0,-3.3334 z"/></g></svg>