<svg xmlns="http://www.w3.org/2000/svg" xmlns:svg="http://www.w3.org/2000/svg" xmlns:xlink="http://www.w3.org/1999/xlink" id="svg5453" width="48" height="48" version="1.1"><defs id="defs5455"><linearGradient id="linearGradient1169" x1="30" x2="30" y1="-1052.612" y2="-1004.237" gradientTransform="translate(384.57143,504.56419)" gradientUnits="userSpaceOnUse" xlink:href="#linearGradient896"/><linearGradient id="linearGradient4159" x1="417.653" x2="417.653" y1="539.282" y2="508.411" gradientUnits="userSpaceOnUse" xlink:href="#linearGradient4195"/><linearGradient id="linearGradient896"><stop id="stop898" offset="0" stop-color="#1a1a1a" stop-opacity="1"/><stop id="stop900" offset="1" stop-color="#4d4d4d" stop-opacity="1"/></linearGradient><linearGradient id="linearGradient4195"><stop id="stop4197" offset="0" stop-color="#dee4e4" stop-opacity="1"/><stop id="stop4199" offset="1" stop-color="#f2f2f0" stop-opacity="1"/></linearGradient></defs><metadata id="metadata5458"/><g id="layer1" transform="translate(-384.57143,-499.798)"><rect id="rect2991-1" width="48" height="48" x="384.571" y="-547.798" fill="url(#linearGradient1169)" fill-opacity="1" stroke="none" ry="1.945" transform="scale(1,-1)"/><path id="path4173" fill="#000" fill-opacity=".059" d="m 391.49482,518.31669 c 3.73936,-3.35515 7.07759,-9.20224 10.95308,-7.98789 6.42244,1.66227 3.64762,13.94827 7.29715,19.69222 4.9984,-2.81879 8.24161,-8.74841 6.89433,-11.82535 -0.30129,-0.8599 0.0655,-3.00434 -4.03816,-1.13087 -1.06514,0.48627 -1.02158,-1.3978 -0.83413,-1.65279 3.79925,-4.1749 5.99327,-5.91629 8.59301,-5.80939 2.18629,0.36525 6.03118,2.82195 5.32526,8.71407 -1.46323,8.76728 -14.33582,22.53452 -18.63838,22.02722 -4.92584,1.08665 -7.43012,-14.47508 -11.13462,-21.78516 l -3.38998,1.31171 c -1.39689,0.22012 -1.20414,-0.67248 -1.02756,-1.55377 z"/><path id="path4171" fill="#000" fill-opacity=".118" d="m 391.49482,517.91669 c 3.73936,-3.35515 7.07759,-9.20224 10.95308,-7.98789 6.42244,1.66227 3.64762,13.94827 7.29715,19.69222 4.9984,-2.81879 8.24161,-8.74841 6.89433,-11.82535 -0.30129,-0.8599 0.0655,-3.00434 -4.03816,-1.13087 -1.06514,0.48627 -1.02158,-1.3978 -0.83413,-1.65279 3.79925,-4.1749 5.99327,-5.91629 8.59301,-5.80939 2.18629,0.36525 6.03118,2.82195 5.32526,8.71407 -1.46323,8.76728 -14.33582,22.53452 -18.63838,22.02722 -4.92584,1.08665 -7.43012,-14.47508 -11.13462,-21.78516 l -3.38998,1.31171 c -1.39689,0.22012 -1.20414,-0.67248 -1.02756,-1.55377 z"/><path id="path4167" fill="#000" fill-opacity=".235" d="m 391.49482,517.51669 c 3.73936,-3.35515 7.07759,-9.20224 10.95308,-7.98789 6.42244,1.66227 3.64762,13.94827 7.29715,19.69222 4.9984,-2.81879 8.24161,-8.74841 6.89433,-11.82535 -0.30129,-0.8599 0.0655,-3.00434 -4.03816,-1.13087 -1.06514,0.48627 -1.02158,-1.3978 -0.83413,-1.65279 3.79925,-4.1749 5.99327,-5.91629 8.59301,-5.80939 2.18629,0.36525 6.03118,2.82195 5.32526,8.71407 -1.46323,8.76728 -14.33582,22.53452 -18.63838,22.02722 -4.92584,1.08665 -7.43012,-14.47508 -11.13462,-21.78516 l -3.38998,1.31171 c -1.39689,0.22012 -1.20414,-0.67248 -1.02756,-1.55377 z"/><path id="rect846-5" fill="#000" fill-opacity="1" stroke="none" d="m 384.57143,544.79801 0,1.0625 c 0,1.0773 0.86022,1.9375 1.9375,1.9375 l 44.125,0 c 1.07728,0 1.9375,-0.8602 1.9375,-1.9375 l 0,-1.0625 c 0,1.0773 -0.86022,1.9375 -1.9375,1.9375 l -44.125,0 c -1.07728,0 -1.9375,-0.8602 -1.9375,-1.9375 z"/><path id="path7515-7" fill="#fff" fill-opacity=".537" stroke="none" d="m 387.10268,500.45431 c -0.91709,0 -1.67115,0.6395 -1.84375,1.5 0.33561,-0.2799 0.77451,-0.4375 1.25,-0.4375 l 44.125,0 c 0.47549,0 0.91439,0.1576 1.25,0.4375 -0.1726,-0.8605 -0.92666,-1.5 -1.84375,-1.5 l -42.9375,0 z"/><path id="rect4280-7" fill="#000" fill-opacity=".392" stroke="none" d="m 386.50893,499.79801 c -1.07728,0 -1.9375,0.8602 -1.9375,1.9375 l 0,43.0625 c 0,0.7934 0.48002,1.449 1.15625,1.75 -0.30934,-0.3333 -0.5,-0.7824 -0.5,-1.2812 l 0,-42.9375 c 0,-1.0482 0.8269,-1.875 1.875,-1.875 l 42.9375,0 c 1.0481,0 1.875,0.8268 1.875,1.875 l 0,42.9375 c 0,0.4988 -0.19066,0.9479 -0.5,1.2812 0.67623,-0.301 1.15625,-0.9566 1.15625,-1.75 l 0,-43.0625 c 0,-1.0773 -0.86022,-1.9375 -1.9375,-1.9375 l -44.125,0 z"/><path id="path4134" fill="url(#linearGradient4159)" fill-opacity="1" d="m 391.49482,517.11669 c 3.73936,-3.35515 7.07759,-9.20224 10.95308,-7.98789 6.42244,1.66227 3.64762,13.94827 7.29715,19.69222 4.9984,-2.81879 8.24161,-8.74841 6.89433,-11.82535 -0.30129,-0.8599 0.0655,-3.00434 -4.03816,-1.13087 -1.06514,0.48627 -1.02158,-1.3978 -0.83413,-1.65279 3.79925,-4.1749 5.99327,-5.91629 8.59301,-5.80939 2.18629,0.36525 6.03118,2.82195 5.32526,8.71407 -1.46323,8.76728 -14.33582,22.53452 -18.63838,22.02722 -4.92584,1.08665 -7.43012,-14.47508 -11.13462,-21.78516 l -3.38998,1.31171 c -1.39689,0.22012 -1.20414,-0.67248 -1.02756,-1.55377 z"/><path id="path4175" fill="#000" fill-opacity=".314" d="M 30.724609 14.525391 C 30.158535 14.48792 29.311691 14.682119 28.029297 15.267578 C 27.479991 15.518354 27.228618 15.137279 27.136719 14.675781 C 27.033056 15.232385 27.124841 16.479319 28.029297 16.066406 C 32.132957 14.192936 31.767069 16.337366 32.068359 17.197266 C 32.230098 17.566647 32.321137 17.978635 32.355469 18.419922 C 32.411332 17.670594 32.32424 16.982821 32.068359 16.398438 C 31.861223 15.807256 31.969973 14.607826 30.724609 14.525391 z M 41.183594 15.603516 C 41.170967 15.900241 41.151179 16.203211 41.113281 16.519531 C 39.650051 25.286811 26.777169 39.054175 22.474609 38.546875 C 17.548769 39.633525 15.046297 24.071799 11.341797 16.761719 L 7.9511719 18.072266 C 7.2632706 18.180664 6.9641384 18.017758 6.8554688 17.720703 C 6.7349067 18.444937 6.7715391 19.058932 7.9511719 18.873047 L 11.341797 17.560547 C 15.046297 24.870627 17.548769 40.432353 22.474609 39.345703 C 26.777169 39.853003 39.650051 26.085639 41.113281 17.318359 C 41.186494 16.70727 41.201354 16.142199 41.183594 15.603516 z" transform="translate(384.57143,499.798)"/><path id="path4180" fill="#fff" fill-opacity=".235" d="M 35.789062 8.6054688 C 33.189323 8.4985688 30.994562 10.239163 27.195312 14.414062 C 27.12166 14.514252 27.072261 14.865971 27.101562 15.226562 C 27.116899 15.035543 27.15075 14.875071 27.195312 14.814453 C 30.994562 10.639553 33.189323 8.8970063 35.789062 9.0039062 C 37.793793 9.3388242 41.182944 11.441971 41.189453 16.330078 C 41.376607 11.151163 37.848487 8.9495242 35.789062 8.6054688 z M 17.15625 9.1835938 C 13.582502 8.8376676 10.429478 14.172906 6.9238281 17.318359 C 6.8506045 17.68381 6.7806863 18.046748 6.8164062 18.335938 C 6.8384964 18.13905 6.8815466 17.929772 6.9238281 17.71875 C 10.663188 14.3636 14.001463 8.5161187 17.876953 9.7304688 C 24.299393 11.392739 21.524298 23.679878 25.173828 29.423828 C 29.55384 26.953771 32.584633 22.094185 32.361328 18.859375 C 32.328945 22.083381 29.378886 26.652044 25.173828 29.023438 C 21.524298 23.279487 24.299393 10.992348 17.876953 9.3300781 C 17.634735 9.2541812 17.3945 9.2066555 17.15625 9.1835938 z" transform="translate(384.57143,499.798)"/></g></svg>