<svg xmlns="http://www.w3.org/2000/svg" xmlns:svg="http://www.w3.org/2000/svg" xmlns:xlink="http://www.w3.org/1999/xlink" id="svg1483" width="48" height="48" version="1.1"><defs id="defs1485"><linearGradient id="linearGradient4501"><stop id="stop4503" offset="0" stop-color="#71757b" stop-opacity="1"/><stop id="stop4505" offset="1" stop-color="#aeb1b5" stop-opacity="1"/></linearGradient><linearGradient id="linearGradient922"><stop id="stop924" offset="0" stop-color="#000" stop-opacity="1"/><stop id="stop926" offset="1" stop-color="#000" stop-opacity="0"/></linearGradient><linearGradient id="linearGradient881"><stop id="stop883" offset="0" stop-color="#1e2026" stop-opacity="1"/><stop id="stop885" offset="1" stop-color="#22252b" stop-opacity="1"/></linearGradient><linearGradient id="linearGradient873"><stop id="stop875" offset="0" stop-color="#1b1d23" stop-opacity="1"/><stop id="stop877" offset="1" stop-color="#363b43" stop-opacity="1"/></linearGradient><linearGradient id="linearGradient3192"><stop id="stop3194" offset="0" stop-color="#000" stop-opacity="1"/><stop id="stop3196" offset="1" stop-color="#000" stop-opacity="0"/></linearGradient><linearGradient id="linearGradient3173"><stop id="stop3175" offset="0" stop-color="#fa6719" stop-opacity="1"/><stop id="stop3177" offset="1" stop-color="#f4dd7d" stop-opacity="1"/></linearGradient><linearGradient id="linearGradient3218" x1="21.965" x2="21.965" y1="3.01" y2="4.078" gradientTransform="matrix(0,0.95238097,0.95238097,0,1.1428567,1005.5051)" gradientUnits="userSpaceOnUse" xlink:href="#linearGradient3192"/><linearGradient id="linearGradient3252" x1="21.965" x2="21.965" y1="3.01" y2="4.078" gradientTransform="matrix(0,0.95238097,-0.95238097,0,46.857143,1005.5051)" gradientUnits="userSpaceOnUse" xlink:href="#linearGradient3192"/><linearGradient id="linearGradient3258" x1="21.965" x2="21.965" y1="3.01" y2="4.078" gradientTransform="matrix(0.95238097,0,0,-0.95238097,1.1428567,1051.2193)" gradientUnits="userSpaceOnUse" xlink:href="#linearGradient3192"/><linearGradient id="linearGradient3260" x1="21.965" x2="21.965" y1="3.01" y2="4.078" gradientTransform="matrix(0.95238097,0,0,0.95238097,1.1428567,1005.5051)" gradientUnits="userSpaceOnUse" xlink:href="#linearGradient3192"/><linearGradient id="linearGradient871" x1="24.625" x2="24.625" y1="-1049.237" y2="-1007.487" gradientTransform="matrix(0.95238097,0,0,0.95238097,1.1428567,-48.969608)" gradientUnits="userSpaceOnUse" xlink:href="#linearGradient873"/><linearGradient id="linearGradient887" x1="25.687" x2="25.687" y1="11.521" y2="38.25" gradientUnits="userSpaceOnUse" xlink:href="#linearGradient881"/><linearGradient id="linearGradient911" x1="27.876" x2="27.876" y1="38.346" y2="11.534" gradientUnits="userSpaceOnUse" xlink:href="#linearGradient873"/><radialGradient id="radialGradient928" cx="25.063" cy="24.938" r="13.313" fx="25.063" fy="24.938" gradientUnits="userSpaceOnUse" xlink:href="#linearGradient922"/><linearGradient id="linearGradient961" x1="32.704" x2="32.704" y1="9.463" y2="42.432" gradientTransform="matrix(0.91666671,0,0,0.91666671,1.9999993,1006.3623)" gradientUnits="userSpaceOnUse" xlink:href="#linearGradient3173"/><linearGradient id="linearGradient4507" x1="297.027" x2="297.027" y1="1920.475" y2="1854.35" gradientUnits="userSpaceOnUse" xlink:href="#linearGradient4501"/><linearGradient id="linearGradient6390-2"><stop id="stop6392-3" offset="0" stop-color="#fff" stop-opacity="1"/><stop id="stop6414-7" offset=".165" stop-color="#29282b" stop-opacity="1"/><stop id="stop6416-9" offset=".261" stop-color="#868c95" stop-opacity="1"/><stop id="stop6418-3" offset=".395" stop-color="#92979f" stop-opacity="1"/><stop id="stop6420-5" offset=".543" stop-color="#737881" stop-opacity="1"/><stop id="stop6422-7" offset=".626" stop-color="#70757e" stop-opacity="1"/><stop id="stop6424-3" offset=".721" stop-color="#e4e6e8" stop-opacity="1"/><stop id="stop6426-4" offset=".795" stop-color="#fff" stop-opacity="1"/><stop id="stop6394-4" offset="1" stop-color="#1d191a" stop-opacity="1"/></linearGradient><linearGradient id="linearGradient3310" x1="407.669" x2="407.669" y1="-555.928" y2="-495.714" gradientTransform="translate(-384.57144,-504.56421)" gradientUnits="userSpaceOnUse" xlink:href="#linearGradient6390-2"/></defs><metadata id="metadata1488"/><g id="layer1" transform="translate(0,-1004.3622)"><rect id="rect2991-1-7" width="48" height="48" x="0" y="-1052.362" fill="url(#linearGradient3310)" fill-opacity="1" stroke="none" ry="1.945" transform="scale(1,-1)"/><rect id="rect3291" width="42" height="42" x="3" y="-1049.362" fill="#000" fill-opacity=".235" stroke="none" ry="1.701" transform="scale(1,-1)"/><rect id="rect867" width="40" height="40" x="4" y="-1048.362" fill="url(#linearGradient871)" fill-opacity="1" stroke="none" ry="1.62" transform="scale(1,-1)"/><path id="rect846" fill="#000" fill-opacity="1" stroke="none" d="m -4.84375e-6,1049.3622 0,1.0625 c 0,1.0773 0.86022000375,1.9375 1.93750004375,1.9375 l 44.1250048,0 c 1.07728,0 1.9375,-0.8602 1.9375,-1.9375 l 0,-1.0625 c 0,1.0773 -0.86022,1.9375 -1.9375,1.9375 l -44.1250048,0 C 0.86021516,1051.2997 -4.84375e-6,1050.4395 -4.84375e-6,1049.3622 Z"/><path id="path7515" fill="#fff" fill-opacity=".537" stroke="none" d="m 2.5312452,1005.0185 c -0.91709,0 -1.67115004,0.6395 -1.84375004,1.5 0.33561004,-0.2799 0.77451004,-0.4375 1.25000004,-0.4375 l 44.1250048,0 c 0.47549,0 0.91439,0.1576 1.25,0.4375 -0.1726,-0.8605 -0.92666,-1.5 -1.84375,-1.5 L 2.5312452,1005.0185 Z"/><path id="rect4280-0" fill="#000" fill-opacity=".392" stroke="none" d="m 1.9374952,1004.3622 c -1.07728004,0 -1.93750004375,0.8602 -1.93750004375,1.9375 l 0,43.0625 c 0,0.7934 0.48002000375,1.449 1.15625004375,1.75 -0.30934004,-0.3333 -0.50000004,-0.7824 -0.50000004,-1.2812 l 0,-42.9375 c 0,-1.0482 0.82690004,-1.875 1.87500004,-1.875 l 42.9375048,0 c 1.0481,0 1.875,0.8268 1.875,1.875 l 0,42.9375 c 0,0.4988 -0.19066,0.9479 -0.5,1.2812 0.67623,-0.301 1.15625,-0.9566 1.15625,-1.75 l 0,-43.0625 c 0,-1.0773 -0.86022,-1.9375 -1.9375,-1.9375 L 1.9374952,1004.3622 Z"/><path id="path3214" fill="url(#linearGradient3218)" fill-opacity="1" stroke="none" d="m 3.9999996,1009.9693 c 0,-0.8977 0.7094286,-1.6071 1.6071429,-1.6071 l 2.2619048,0 c -0.8977143,0 -1.6071429,0.7094 -1.6071429,1.6071 l 0,36.7858 c 0,0.8977 0.7094286,1.6071 1.6071429,1.6071 l -2.2619048,0 c -0.8977143,0 -1.6071429,-0.7094 -1.6071429,-1.6071 l 0,-36.7858 z" opacity=".293"/><path id="path3250" fill="url(#linearGradient3252)" fill-opacity="1" stroke="none" d="m 44,1009.9693 c 0,-0.8977 -0.709428,-1.6071 -1.607142,-1.6071 l -2.261905,0 c 0.897714,0 1.607143,0.7094 1.607143,1.6071 l 0,36.7858 c 0,0.8977 -0.709429,1.6071 -1.607143,1.6071 l 2.261905,0 c 0.897714,0 1.607142,-0.7094 1.607142,-1.6071 l 0,-36.7858 z" opacity=".293"/><path id="path3254" fill="url(#linearGradient3258)" fill-opacity="1" stroke="none" d="m 5.6071425,1048.3622 c -0.8977143,0 -1.6071429,-0.7094 -1.6071429,-1.6071 l 0,-2.2619 c 0,0.8977 0.7094286,1.6071 1.6071429,1.6071 l 36.7857155,0 c 0.897714,0 1.607142,-0.7094 1.607142,-1.6071 l 0,2.2619 c 0,0.8977 -0.709428,1.6071 -1.607142,1.6071 l -36.7857155,0 z" opacity=".293"/><path id="path3256" fill="url(#linearGradient3260)" fill-opacity="1" stroke="none" d="m 5.6071425,1008.3622 c -0.8977143,0 -1.6071429,0.7094 -1.6071429,1.6071 l 0,2.2619 c 0,-0.8977 0.7094286,-1.6071 1.6071429,-1.6071 l 36.7857155,0 c 0.897714,0 1.607142,0.7094 1.607142,1.6071 l 0,-2.2619 c 0,-0.8977 -0.709428,-1.6071 -1.607142,-1.6071 l -36.7857155,0 z" opacity=".293"/><path id="path879" fill="url(#linearGradient887)" fill-opacity="1" stroke="none" d="m 38.375,24.9375 c 0,7.352291 -5.960209,13.3125 -13.3125,13.3125 -7.352291,0 -13.3125,-5.960209 -13.3125,-13.3125 0,-7.352291 5.960209,-13.3125 13.3125,-13.3125 7.352291,0 13.3125,5.960209 13.3125,13.3125 z" transform="matrix(1.1017215,0,0,1.1017215,-3.6118939,1000.888)"/><path id="path920" fill="url(#radialGradient928)" fill-opacity="1" stroke="none" d="m 38.375,24.9375 c 0,7.352291 -5.960209,13.3125 -13.3125,13.3125 -7.352291,0 -13.3125,-5.960209 -13.3125,-13.3125 0,-7.352291 5.960209,-13.3125 13.3125,-13.3125 7.352291,0 13.3125,5.960209 13.3125,13.3125 z" transform="matrix(1.1446456,0,0,1.1446456,-4.6876815,999.8176)"/><path id="path937" fill="#bdbfc5" fill-opacity="1" stroke="none" d="m 38.375,24.9375 c 0,7.352291 -5.960209,13.3125 -13.3125,13.3125 -7.352291,0 -13.3125,-5.960209 -13.3125,-13.3125 0,-7.352291 5.960209,-13.3125 13.3125,-13.3125 7.352291,0 13.3125,5.960209 13.3125,13.3125 z" transform="matrix(0.96400621,0,0,0.96400621,-0.16040698,1004.3223)"/><path id="path944" fill="url(#linearGradient961)" fill-opacity="1" stroke="none" d="m 24.945312,1015.5575 0,12.8334 10.369793,6.0156 c 0.961855,-1.8 1.51823,-3.8608 1.51823,-6.0443 0,-6.7701 -5.241304,-12.3212 -11.888023,-12.8047 z"/><path id="path899" fill="#000" fill-opacity=".157" stroke="none" d="m 24,1015.5289 c -7.087654,0 -12.833335,5.7456 -12.833335,12.8333 0,7.0877 5.745681,12.8334 12.833335,12.8334 7.087653,0 12.833335,-5.7457 12.833335,-12.8334 0,-7.0877 -5.745682,-12.8333 -12.833335,-12.8333 z m 0,0.9166 c 6.581393,0 11.916667,5.3353 11.916667,11.9167 0,6.5814 -5.335274,11.9167 -11.916667,11.9167 -6.581393,0 -11.916667,-5.3353 -11.916667,-11.9167 0,-6.5814 5.335274,-11.9167 11.916667,-11.9167 z"/><path id="path909" fill="url(#linearGradient911)" fill-opacity="1" stroke="none" d="m 38.375,24.9375 c 0,7.352291 -5.960209,13.3125 -13.3125,13.3125 -7.352291,0 -13.3125,-5.960209 -13.3125,-13.3125 0,-7.352291 5.960209,-13.3125 13.3125,-13.3125 7.352291,0 13.3125,5.960209 13.3125,13.3125 z" transform="matrix(0.82629481,0,0,0.82629481,3.2909854,1007.7564)"/><path id="path913" fill="#000" fill-opacity=".275" stroke="none" d="m 12.999949,1028.1507 c -0.0012,0.071 0,0.141 0,0.2115 0,6.0751 4.924891,11.0001 11.000051,11.0001 6.07516,0 11.000051,-4.925 11.000051,-11.0001 0,-0.071 0.0012,-0.1413 0,-0.2115 -0.112457,5.9778 -4.99538,10.7885 -11.000051,10.7885 -6.004671,0 -10.887594,-4.8107 -11.000051,-10.7885 z"/><path id="path918" fill="#fff" fill-opacity=".275" stroke="none" d="m 12.999949,1028.5736 c -0.0013,-0.07 0,-0.1409 0,-0.2115 0,-6.075 4.924891,-11.0001 11.000051,-11.0001 6.07516,0 11.000051,4.9251 11.000051,11.0001 0,0.071 0.0013,0.1414 0,0.2115 -0.112457,-5.9777 -4.99538,-10.7884 -11.000051,-10.7884 -6.004671,0 -10.887594,4.8107 -11.000051,10.7884 z"/><polygon id="polygon710" fill="url(#linearGradient4507)" fill-opacity="1" points="316.862 1887.475 259.692 1854.465 259.692 1920.484" transform="matrix(0.1409215,0,0,0.20833934,-15.593179,635.12703)"/></g></svg>