<svg xmlns="http://www.w3.org/2000/svg" xmlns:svg="http://www.w3.org/2000/svg" xmlns:xlink="http://www.w3.org/1999/xlink" id="svg2" width="48" height="48" version="1.1"><defs id="defs4"><linearGradient id="linearGradient4146"><stop id="stop4148" offset="0" stop-color="#1a1a1a" stop-opacity="1"/><stop id="stop4150" offset="1" stop-color="#333" stop-opacity="1"/></linearGradient><linearGradient id="linearGradient2736" x1="25.986" x2="25.986" y1="-1052.185" y2="-1004.382" gradientUnits="userSpaceOnUse" xlink:href="#linearGradient4146"/><linearGradient id="linearGradient4678"><stop id="stop4680" offset="0" stop-color="#0a7fe7" stop-opacity="1"/><stop id="stop4682" offset="1" stop-color="#50bffc" stop-opacity="1"/></linearGradient><linearGradient id="linearGradient4143" x1="25.986" x2="25.986" y1="-1052.185" y2="-1004.382" gradientTransform="matrix(1,0,0,-1,0,-1004.3622)" gradientUnits="userSpaceOnUse" xlink:href="#linearGradient4678"/><linearGradient id="linearGradient4159" x1="33.691" x2="47.701" y1="-1016.257" y2="-1008.168" gradientTransform="matrix(-1,0,0,1,70.34375,1029.9872)" gradientUnits="userSpaceOnUse" xlink:href="#linearGradient4678"/></defs><metadata id="metadata7"/><g id="layer1" transform="translate(0,-1004.3622)"><rect id="rect2991-1-7" width="48" height="48" x="0" y="-1052.362" fill="url(#linearGradient2736)" fill-opacity="1" stroke="none" ry="1.945" transform="scale(1,-1)"/><path id="rect4139" fill="url(#linearGradient4143)" fill-opacity="1" stroke="none" d="M 1.9375 0 C 0.86022285 0 0 0.86022285 0 1.9375 L 0 46.0625 C 0 47.139777 0.86022285 48 1.9375 48 L 46.0625 48 C 47.139777 48 48 47.139777 48 46.0625 L 48 25.625 L 22.34375 0 L 1.9375 0 z" transform="translate(0,1004.3622)"/><path id="path4170" fill="#000" fill-opacity=".235" stroke="none" d="m 22.34375,1004.7622 2.5e-4,22.925 C 29.506,1023.5522 42.278937,1024.6661 48,1030.3872 Z"/><path id="path4174" fill="#000" fill-opacity=".059" stroke="none" d="m 22.34375,1005.5622 2.5e-4,22.925 C 29.506,1024.3522 42.278937,1025.4661 48,1031.1872 Z"/><path id="path4172" fill="#000" fill-opacity=".118" stroke="none" d="m 22.34375,1005.1622 2.5e-4,22.925 C 29.506,1023.9522 42.278937,1025.0661 48,1030.7872 Z"/><path id="rect4152" fill="url(#linearGradient4159)" fill-opacity="1" stroke="none" d="M 22.34375,0 22.344,22.925 C 29.506,18.790017 42.278937,19.903937 48,25.625 Z" transform="translate(0,1004.3622)"/><path id="path4165" fill="#0c81e7" fill-opacity=".314" stroke="none" d="M 32.09375 19.65625 C 28.497689 19.764462 25.0295 20.574375 22.34375 22.125 L 22.34375 22.9375 C 29.50575 18.802517 42.278937 19.903937 48 25.625 L 44.90625 22.53125 C 41.328986 20.508722 36.614156 19.520223 32.09375 19.65625 z" transform="translate(0,1004.3622)"/><path id="path4176" fill="#fff" fill-opacity=".235" stroke="none" d="M 22.34375 0 L 22.34375 22.9375 C 22.601213 22.788854 22.884873 22.66636 23.15625 22.53125 L 23.15625 0.8125 L 22.34375 0 z M 33.90625 20.46875 C 39.333154 20.657171 44.781902 22.406902 48 25.625 L 45.71875 23.34375 C 42.398943 21.457726 38.128495 20.493324 33.90625 20.46875 z" transform="translate(0,1004.3622)"/><g id="g4181"><path id="rect846" fill="#000" fill-opacity="1" stroke="none" d="m -5.6866455e-6,1049.3622 0,1.0625 c 0,1.0773 0.8602199966455,1.9375 1.9374999866455,1.9375 l 44.1249997,0 c 1.07728,0 1.9375,-0.8602 1.9375,-1.9375 l 0,-1.0625 c 0,1.0773 -0.86022,1.9375 -1.9375,1.9375 l -44.1249997,0 C 0.86021431,1051.2997 -5.6866455e-6,1050.4395 -5.6866455e-6,1049.3622 Z"/><path id="path7515" fill="#fff" fill-opacity=".537" stroke="none" d="m 2.5312443,1005.0185 c -0.91709,0 -1.67114999,0.6395 -1.84374999,1.5 0.33560999,-0.2799 0.77450999,-0.4375 1.24999999,-0.4375 l 44.1249997,0 c 0.47549,0 0.91439,0.1576 1.25,0.4375 -0.1726,-0.8605 -0.92666,-1.5 -1.84375,-1.5 L 2.5312443,1005.0185 Z"/><path id="rect4280" fill="#000" fill-opacity=".392" stroke="none" d="m 1.9374943,1004.3622 c -1.07727999,0 -1.9374999866455,0.8602 -1.9374999866455,1.9375 l 0,43.0625 c 0,0.7934 0.4800199966455,1.449 1.1562499866455,1.75 -0.30933999,-0.3333 -0.49999999,-0.7824 -0.49999999,-1.2812 l 0,-42.9375 c 0,-1.0482 0.82689999,-1.875 1.87499999,-1.875 l 42.9374997,0 c 1.0481,0 1.875,0.8268 1.875,1.875 l 0,42.9375 c 0,0.4988 -0.19066,0.9479 -0.5,1.2812 0.67623,-0.301 1.15625,-0.9566 1.15625,-1.75 l 0,-43.0625 c 0,-1.0773 -0.86022,-1.9375 -1.9375,-1.9375 L 1.9374943,1004.3622 Z"/></g></g></svg>