<svg xmlns="http://www.w3.org/2000/svg" xmlns:svg="http://www.w3.org/2000/svg" xmlns:xlink="http://www.w3.org/1999/xlink" id="svg5453" width="48" height="48" version="1.1"><defs id="defs5455"><linearGradient id="linearGradient4294"><stop id="stop4296" offset="0" stop-color="#ffeab9" stop-opacity="1"/><stop id="stop4298" offset="1" stop-color="#fffdf5" stop-opacity="1"/></linearGradient><linearGradient id="linearGradient945"><stop id="stop947" offset="0" stop-color="#ffad00" stop-opacity="1"/><stop id="stop949" offset="1" stop-color="#ffd200" stop-opacity="1"/></linearGradient><linearGradient id="linearGradient4259" x1="418.719" x2="418.719" y1="-547.791" y2="-499.796" gradientUnits="userSpaceOnUse" xlink:href="#linearGradient945"/><linearGradient id="linearGradient4292" x1="27.514" x2="27.514" y1="39.4" y2="8.6" gradientTransform="matrix(0.99997462,0,0,0.99997468,384.57165,499.799)" gradientUnits="userSpaceOnUse" xlink:href="#linearGradient4294"/></defs><metadata id="metadata5458"/><g id="layer1" transform="translate(-384.57143,-499.798)"><rect id="rect2991-1-7" width="48" height="48" x="384.571" y="-547.798" fill="url(#linearGradient4259)" fill-opacity="1" stroke="none" ry="1.945" transform="scale(1,-1)"/><path id="path4318" fill="#000" fill-opacity=".059" stroke="none" d="m 393.17104,509.598 0,17.99954 10.80051,0 0,12.80046 19.99949,0 0,-17.99954 -10.80051,0 0,-12.80046 -19.99949,0 z m 1.99995,3.80068 15.99959,0 0,12.40008 -15.99959,0 0,-12.40008 z m 17.99954,12.80046 8.80056,0 0,12.40008 -15.99959,0 0,-11.00168 7.19903,0 0,-1.3984 z"/><path id="path4316" fill="#000" fill-opacity=".118" stroke="none" d="m 393.17104,509.198 0,17.99954 10.80051,0 0,12.80046 19.99949,0 0,-17.99954 -10.80051,0 0,-12.80046 -19.99949,0 z m 1.99995,3.80068 15.99959,0 0,12.40008 -15.99959,0 0,-12.40008 z m 17.99954,12.80046 8.80056,0 0,12.40008 -15.99959,0 0,-11.00168 7.19903,0 0,-1.3984 z"/><path id="path4312" fill="#000" fill-opacity=".235" stroke="none" d="m 393.17104,508.798 0,17.99954 10.80051,0 0,12.80046 19.99949,0 0,-17.99954 -10.80051,0 0,-12.80046 -19.99949,0 z m 1.99995,3.80068 15.99959,0 0,12.40008 -15.99959,0 0,-12.40008 z m 17.99954,12.80046 8.80056,0 0,12.40008 -15.99959,0 0,-11.00168 7.19903,0 0,-1.3984 z"/><path id="rect846" fill="#000" fill-opacity="1" stroke="none" d="m 384.57143,544.79799 0,1.0625 c 0,1.0773 0.86022,1.9375 1.9375,1.9375 l 44.125,0 c 1.07728,0 1.9375,-0.8602 1.9375,-1.9375 l 0,-1.0625 c 0,1.0773 -0.86022,1.9375 -1.9375,1.9375 l -44.125,0 C 385.43165,546.73549 384.57143,545.87529 384.57143,544.79799 Z"/><path id="path7515" fill="#fff" fill-opacity=".537" stroke="none" d="m 387.10268,500.45429 c -0.91709,0 -1.67115,0.6395 -1.84375,1.5 0.33561,-0.2799 0.77451,-0.4375 1.25,-0.4375 l 44.125,0 c 0.47549,0 0.91439,0.1576 1.25,0.4375 -0.1726,-0.8605 -0.92666,-1.5 -1.84375,-1.5 L 387.10268,500.45429 Z"/><path id="rect4280" fill="#000" fill-opacity=".392" stroke="none" d="m 386.50893,499.79799 c -1.07728,0 -1.9375,0.8602 -1.9375,1.9375 l 0,43.0625 c 0,0.7934 0.48002,1.449 1.15625,1.75 -0.30934,-0.3333 -0.5,-0.7824 -0.5,-1.2812 l 0,-42.9375 c 0,-1.0482 0.8269,-1.875 1.875,-1.875 l 42.9375,0 c 1.0481,0 1.875,0.8268 1.875,1.875 l 0,42.9375 c 0,0.4988 -0.19066,0.9479 -0.5,1.2812 0.67623,-0.301 1.15625,-0.9566 1.15625,-1.75 l 0,-43.0625 c 0,-1.0773 -0.86022,-1.9375 -1.9375,-1.9375 L 386.50893,499.79799 Z"/><path id="rect4275" fill="url(#linearGradient4292)" fill-opacity="1" stroke="none" d="m 393.17104,508.39839 0,17.99954 10.80051,0 0,12.80046 19.99949,0 0,-17.99954 -10.80051,0 0,-12.80046 -19.99949,0 z m 1.99995,3.80068 15.99959,0 0,12.40008 -15.99959,0 0,-12.40008 z m 17.99954,12.80046 8.80056,0 0,12.40008 -15.99959,0 0,-11.00168 7.19903,0 0,-1.3984 z"/><path id="path4320" fill="#ffb100" fill-opacity=".314" stroke="none" d="M 10.599609 11.601562 L 10.599609 12.400391 L 26.599609 12.400391 L 26.599609 11.601562 L 10.599609 11.601562 z M 28.599609 24.400391 L 28.599609 25.201172 L 37.400391 25.201172 L 37.400391 24.400391 L 28.599609 24.400391 z M 8.5996094 25.798828 L 8.5996094 26.599609 L 19.400391 26.599609 L 19.400391 25.798828 L 8.5996094 25.798828 z M 21.400391 25.798828 L 21.400391 26.599609 L 28.599609 26.599609 L 28.599609 25.798828 L 21.400391 25.798828 z M 19.400391 38.599609 L 19.400391 39.400391 L 39.400391 39.400391 L 39.400391 38.599609 L 19.400391 38.599609 z" transform="translate(384.57143,499.798)"/><path id="path4325" fill="#fff" fill-opacity=".235" stroke="none" d="M 8.5996094 8.5996094 L 8.5996094 9 L 28.599609 9 L 28.599609 8.5996094 L 8.5996094 8.5996094 z M 28.599609 21.400391 L 28.599609 21.800781 L 39.400391 21.800781 L 39.400391 21.400391 L 28.599609 21.400391 z M 10.599609 24.800781 L 10.599609 25.201172 L 26.599609 25.201172 L 26.599609 24.800781 L 10.599609 24.800781 z M 21.400391 37.601562 L 21.400391 38.001953 L 37.400391 38.001953 L 37.400391 37.601562 L 21.400391 37.601562 z" transform="translate(384.57143,499.798)"/></g></svg>