<svg xmlns="http://www.w3.org/2000/svg" xmlns:svg="http://www.w3.org/2000/svg" xmlns:xlink="http://www.w3.org/1999/xlink" id="svg2" width="48" height="48" version="1.1" viewBox="0 0 13.547 13.547"><metadata id="metadata28"/><defs id="defs4"><linearGradient id="linearGradient4252"><stop id="stop4254" offset="0" stop-color="#e0e4eb" stop-opacity="1"/><stop id="stop4256" offset="1" stop-color="#f0f0ef" stop-opacity="1"/></linearGradient><linearGradient id="linearGradient3801" x1="35" x2="35" y1="1004.393" y2="1052.331" gradientTransform="matrix(0.28222223,0,0,0.28222223,1.5661621e-7,-297.00001)" gradientUnits="userSpaceOnUse" xlink:href="#linearGradient4252"/><filter id="filter3985" width="1.144" height="1.311" x="-.072" y="-.155" color-interpolation-filters="sRGB"><feGaussianBlur id="feGaussianBlur3987" stdDeviation="6.78"/></filter><filter id="filter3989" color-interpolation-filters="sRGB"><feGaussianBlur id="feGaussianBlur3991" stdDeviation="6.78"/></filter><filter id="filter3993" width="1.298" height="1.145" x="-.149" y="-.072" color-interpolation-filters="sRGB"><feGaussianBlur id="feGaussianBlur3995" stdDeviation="6.78"/></filter><filter id="filter3997" width="1.163" height="1.221" x="-.082" y="-.11" color-interpolation-filters="sRGB"><feGaussianBlur id="feGaussianBlur3999" stdDeviation="6.78"/></filter><filter id="filter4001" width="1.15" height="1.257" x="-.075" y="-.129" color-interpolation-filters="sRGB"><feGaussianBlur id="feGaussianBlur4003" stdDeviation="6.78"/></filter><filter id="filter4005" width="1.245" height="1.153" x="-.122" y="-.076" color-interpolation-filters="sRGB"><feGaussianBlur id="feGaussianBlur4007" stdDeviation="6.78"/></filter><filter id="filter4009" width="1.224" height="1.16" x="-.112" y="-.08" color-interpolation-filters="sRGB"><feGaussianBlur id="feGaussianBlur4011" stdDeviation="6.78"/></filter><filter id="filter3985-9" width="1.144" height="1.311" x="-.072" y="-.155" color-interpolation-filters="sRGB"><feGaussianBlur id="feGaussianBlur3987-0" stdDeviation="6.78"/></filter><filter id="filter3989-9" color-interpolation-filters="sRGB"><feGaussianBlur id="feGaussianBlur3991-1" stdDeviation="6.78"/></filter><filter id="filter3993-8" width="1.298" height="1.145" x="-.149" y="-.072" color-interpolation-filters="sRGB"><feGaussianBlur id="feGaussianBlur3995-4" stdDeviation="6.78"/></filter><filter id="filter3997-0" width="1.163" height="1.221" x="-.082" y="-.11" color-interpolation-filters="sRGB"><feGaussianBlur id="feGaussianBlur3999-7" stdDeviation="6.78"/></filter><filter id="filter4001-9" width="1.15" height="1.257" x="-.075" y="-.129" color-interpolation-filters="sRGB"><feGaussianBlur id="feGaussianBlur4003-7" stdDeviation="6.78"/></filter><filter id="filter4005-7" width="1.245" height="1.153" x="-.122" y="-.076" color-interpolation-filters="sRGB"><feGaussianBlur id="feGaussianBlur4007-7" stdDeviation="6.78"/></filter><filter id="filter4009-8" width="1.224" height="1.16" x="-.112" y="-.08" color-interpolation-filters="sRGB"><feGaussianBlur id="feGaussianBlur4011-6" stdDeviation="6.78"/></filter></defs><rect id="rect2991" width="13.547" height="13.547" x="0" y="-13.547" fill="url(#linearGradient3801)" fill-opacity="1" stroke="none" ry=".549" transform="scale(1,-1)"/><path id="path4344" fill="#000" fill-opacity=".059" d="M 6.7733335,2.7655577 3.1512979,4.9389995 6.7733335,7.1118904 3.1512979,9.2847811 6.7733335,11.458221 10.395369,9.2847811 l 0,-4.3457816 -3.6220355,-2.1734418 z"/><path id="path4342" fill="#000" fill-opacity=".118" d="M 6.7733335,2.6526689 3.1512979,4.8261107 6.7733335,6.9990016 3.1512979,9.1718923 6.7733335,11.345333 10.395369,9.1718923 l 0,-4.3457816 -3.6220355,-2.1734418 z"/><path id="path4326" fill="#000" fill-opacity=".235" d="M 6.7733335,2.5397803 3.1512979,4.7132221 6.7733335,6.8861129 3.1512979,9.0590036 6.7733335,11.232445 10.395369,9.0590036 l 0,-4.3457815 -3.6220355,-2.1734418 z"/><g id="g3549" transform="matrix(0.28222223,0,0,0.28222223,1.5661621e-7,-283.45334)"><path id="rect846" fill="#000" fill-opacity="1" stroke="none" d="m 1.5e-6,1049.3622 0,1.0625 c 0,1.0773 0.86022,1.9375 1.9375,1.9375 l 44.1249975,0 c 1.07728,0 1.9375,-0.8602 1.9375,-1.9375 l 0,-1.0625 c 0,1.0773 -0.86022,1.9375 -1.9375,1.9375 l -44.1249975,0 c -1.07728,0 -1.9375,-0.8602 -1.9375,-1.9375 z"/><path id="path7515" fill="#fff" fill-opacity=".537" stroke="none" d="m 2.5312515,1005.0185 c -0.91709,0 -1.67115,0.6395 -1.84375,1.5 0.33561,-0.2799 0.77451,-0.4375 1.25,-0.4375 l 44.1249975,0 c 0.475488,0 0.914389,0.1576 1.25,0.4375 -0.172601,-0.8605 -0.92666,-1.5 -1.84375,-1.5 l -42.9374975,0 z"/><path id="rect4280-5" fill="#000" fill-opacity=".392" stroke="none" d="m 1.9375015,1004.3622 c -1.07728,0 -1.9375,0.8602 -1.9375,1.9375 l 0,43.0625 c 0,0.7934 0.48002,1.449 1.15625,1.75 -0.30934,-0.3333 -0.5,-0.7824 -0.5,-1.2812 l 0,-42.9375 c 0,-1.0482 0.8269,-1.875 1.875,-1.875 l 42.9374975,0 c 1.0481,0 1.875,0.8268 1.875,1.875 l 0,42.9375 c 0,0.4988 -0.19066,0.9479 -0.5,1.2812 0.67623,-0.301 1.15625,-0.9566 1.15625,-1.75 l 0,-43.0625 c 0,-1.0773 -0.86022,-1.9375 -1.9375,-1.9375 l -44.1249975,0 z"/></g><g id="g4317"><path id="path16" fill="#f6b435" d="M 6.7733336,6.7733337 3.1514816,4.6002225 6.7733336,2.4271113 Z"/><path id="path18" fill="#f37d3b" d="m 6.7733336,2.4271113 0,4.3462224 3.6218514,-2.1731112 z"/><path id="path20" fill="#df2a51" d="m 6.7733336,6.7733337 3.6218514,-2.1731112 0,4.3462223 z"/><path id="path22" fill="#862058" d="m 6.7733336,11.119556 0,-4.3462223 3.6218514,2.1731111 z"/><path id="path24" fill="#2c61a9" d="M 6.7733336,11.119556 3.1514816,8.9464448 6.7733336,6.7733337 Z"/></g><path id="path3095" fill="#dbdbdb" fill-opacity="1" fill-rule="nonzero" stroke="none" stroke-width="25" marker-mid="none" d="m 324.38759,135.62452 c -45.38059,3.2742 -125.14974,80.45343 -113.93317,80.06244 92.77726,-3.23392 150.72813,2.10512 223.11793,24.5811 10.71863,3.32799 -11.56647,-97.10992 -109.18476,-104.64354 z" display="none" enable-background="new" filter="url(#filter3985)" transform="matrix(0.02505593,0,0,0.02506603,-64.757708,1.1826147)"/><path id="path3097" fill="#dbdbdb" fill-opacity="1" fill-rule="nonzero" stroke="#000" stroke-dasharray="none" stroke-dashoffset="1" stroke-linecap="butt" stroke-linejoin="round" stroke-miterlimit="4" stroke-opacity="1" stroke-width="0" marker-mid="none" d="M 186.37822,72.150309 C 160.57833,109.62675 157.33905,256.29261 163.99898,247.2588 218.88951,172.80293 350.45207,80.852043 428.9148,43.825512 525.90264,-1.943011 243.81268,3.6410539 186.37822,72.150309 Z" display="none" enable-background="new" filter="url(#filter3989)" transform="matrix(0.02505593,0,0,0.02506603,-64.757708,1.1826147)"/><path id="path3099" fill="#dbdbdb" fill-opacity="1" fill-rule="nonzero" stroke="none" stroke-width="25" marker-mid="none" d="M 69.5521,231.67976 C 84.41923,274.68075 179.56014,331.84683 176.28962,321.11052 149.23774,232.30583 139.45061,174.93843 142.49683,99.2009 142.94789,87.986573 51.65499,135.42084 69.5521,231.67976 Z" display="none" enable-background="new" filter="url(#filter3993)" transform="matrix(0.02505593,0,0,0.02506603,-64.757708,1.1826147)"/><path id="path3101" fill="#dbdbdb" fill-opacity="1" fill-rule="nonzero" stroke="none" stroke-width="25" marker-mid="none" d="m 81.97729,372.8505 c 42.13653,17.1648 147.83895,-16.69886 137.60948,-21.31646 -84.61255,-38.1942 -134.204,-68.649 -189.1504,-120.86343 -8.1358,-7.73129 -32.64264,92.18775 51.54092,142.17989 z" display="none" enable-background="new" filter="url(#filter3997)" transform="matrix(0.02505593,0,0,0.02506603,-64.757708,1.1826147)"/><path id="path3103" fill="#dbdbdb" fill-opacity="1" fill-rule="nonzero" stroke="none" stroke-width="25" marker-mid="none" d="m 203.88504,453.62703 c 40.28664,-21.14484 82.54559,-123.77977 72.42084,-118.93689 -83.74641,40.05772 -138.99861,58.33341 -214.33707,66.67436 -11.15521,1.23503 49.42757,84.38627 141.91623,52.26253 z" display="none" enable-background="new" filter="url(#filter4001)" transform="matrix(0.02505593,0,0,0.02506603,-64.757708,1.1826147)"/><path id="path3105" fill="#dbdbdb" fill-opacity="1" fill-rule="nonzero" stroke="none" stroke-width="25" marker-mid="none" d="m 345.96158,410.03296 c 9.84126,-44.42146 -41.30053,-142.93171 -44.13379,-132.07183 -23.43513,89.82691 -45.12493,143.83025 -87.36533,206.76832 -6.25446,9.31914 96.3617,16.68976 131.49912,-74.69649 z" display="none" enable-background="new" filter="url(#filter4005)" transform="matrix(0.02505593,0,0,0.02506603,-64.757708,1.1826147)"/><path id="path3107" fill="#dbdbdb" fill-opacity="1" fill-rule="nonzero" stroke="none" stroke-width="25" marker-mid="none" d="M 401.89383,270.24178 C 374.5208,233.89852 266.4087,208.76833 272.82303,217.97814 c 53.05584,76.17847 80.01415,127.7542 100.41172,200.75689 3.02024,10.80938 75.29683,-62.40604 28.65908,-148.49325 z" display="none" enable-background="new" filter="url(#filter4009)" transform="matrix(0.02505593,0,0,0.02506603,-64.757708,1.1826147)"/><path id="path3095-7" fill="#dbdbdb" fill-opacity="1" fill-rule="nonzero" stroke="none" stroke-width="25" marker-mid="none" d="m 324.38759,135.62452 c -45.38059,3.2742 -125.14974,80.45343 -113.93317,80.06244 92.77726,-3.23392 150.72813,2.10512 223.11793,24.5811 10.71863,3.32799 -11.56647,-97.10992 -109.18476,-104.64354 z" display="none" enable-background="new" filter="url(#filter3985-9)" transform="matrix(0.02505593,0,0,0.02506603,-132.2441,-5.2379354)"/><path id="path3097-4" fill="#dbdbdb" fill-opacity="1" fill-rule="nonzero" stroke="#000" stroke-dasharray="none" stroke-dashoffset="1" stroke-linecap="butt" stroke-linejoin="round" stroke-miterlimit="4" stroke-opacity="1" stroke-width="0" marker-mid="none" d="M 186.37822,72.150309 C 160.57833,109.62675 157.33905,256.29261 163.99898,247.2588 218.88951,172.80293 350.45207,80.852043 428.9148,43.825512 525.90264,-1.943011 243.81268,3.6410539 186.37822,72.150309 Z" display="none" enable-background="new" filter="url(#filter3989-9)" transform="matrix(0.02505593,0,0,0.02506603,-132.2441,-5.2379354)"/><path id="path3099-9" fill="#dbdbdb" fill-opacity="1" fill-rule="nonzero" stroke="none" stroke-width="25" marker-mid="none" d="M 69.5521,231.67976 C 84.41923,274.68075 179.56014,331.84683 176.28962,321.11052 149.23774,232.30583 139.45061,174.93843 142.49683,99.2009 142.94789,87.986573 51.65499,135.42084 69.5521,231.67976 Z" display="none" enable-background="new" filter="url(#filter3993-8)" transform="matrix(0.02505593,0,0,0.02506603,-132.2441,-5.2379354)"/><path id="path3101-4" fill="#dbdbdb" fill-opacity="1" fill-rule="nonzero" stroke="none" stroke-width="25" marker-mid="none" d="m 81.97729,372.8505 c 42.13653,17.1648 147.83895,-16.69886 137.60948,-21.31646 -84.61255,-38.1942 -134.204,-68.649 -189.1504,-120.86343 -8.1358,-7.73129 -32.64264,92.18775 51.54092,142.17989 z" display="none" enable-background="new" filter="url(#filter3997-0)" transform="matrix(0.02505593,0,0,0.02506603,-132.2441,-5.2379354)"/><path id="path3103-3" fill="#dbdbdb" fill-opacity="1" fill-rule="nonzero" stroke="none" stroke-width="25" marker-mid="none" d="m 203.88504,453.62703 c 40.28664,-21.14484 82.54559,-123.77977 72.42084,-118.93689 -83.74641,40.05772 -138.99861,58.33341 -214.33707,66.67436 -11.15521,1.23503 49.42757,84.38627 141.91623,52.26253 z" display="none" enable-background="new" filter="url(#filter4001-9)" transform="matrix(0.02505593,0,0,0.02506603,-132.2441,-5.2379354)"/><path id="path3105-1" fill="#dbdbdb" fill-opacity="1" fill-rule="nonzero" stroke="none" stroke-width="25" marker-mid="none" d="m 345.96158,410.03296 c 9.84126,-44.42146 -41.30053,-142.93171 -44.13379,-132.07183 -23.43513,89.82691 -45.12493,143.83025 -87.36533,206.76832 -6.25446,9.31914 96.3617,16.68976 131.49912,-74.69649 z" display="none" enable-background="new" filter="url(#filter4005-7)" transform="matrix(0.02505593,0,0,0.02506603,-132.2441,-5.2379354)"/><path id="path3107-0" fill="#dbdbdb" fill-opacity="1" fill-rule="nonzero" stroke="none" stroke-width="25" marker-mid="none" d="M 401.89383,270.24178 C 374.5208,233.89852 266.4087,208.76833 272.82303,217.97814 c 53.05584,76.17847 80.01415,127.7542 100.41172,200.75689 3.02024,10.80938 75.29683,-62.40604 28.65908,-148.49325 z" display="none" enable-background="new" filter="url(#filter4009-8)" transform="matrix(0.02505593,0,0,0.02506603,-132.2441,-5.2379354)"/><path id="path4348" fill="#e2e5eb" fill-opacity=".314" d="M 11.833984 15.900391 L 11.166016 16.300781 L 23.332031 23.599609 L 24 23.199219 L 11.833984 15.900391 z M 36.833984 30.898438 L 24 38.599609 L 11.833984 31.298828 L 11.166016 31.699219 L 24 39.400391 L 36.833984 31.699219 L 36.833984 30.898438 z" transform="scale(0.28222223,0.28222223)"/><path id="path4371" fill="#fff" fill-opacity=".235" d="M 24 8.5996094 L 11.166016 16.300781 L 11.5 16.5 L 24 9 L 36.833984 16.701172 L 36.833984 16.300781 L 24 8.5996094 z M 23.666016 24.199219 L 11.166016 31.699219 L 11.5 31.900391 L 24 24.400391 L 23.666016 24.199219 z" transform="scale(0.28222223,0.28222223)"/></svg>