<svg xmlns="http://www.w3.org/2000/svg" xmlns:svg="http://www.w3.org/2000/svg" xmlns:xlink="http://www.w3.org/1999/xlink" id="svg2" width="48" height="48" version="1.1" viewBox="0 0 13.547 13.547"><metadata id="metadata20"/><defs id="defs4"><linearGradient id="linearGradient4102"><stop id="stop4104" offset="0" stop-color="#afcdf5" stop-opacity="1"/><stop id="stop4106" offset="1" stop-color="#f6f9fe" stop-opacity="1"/></linearGradient><linearGradient id="linearGradient5555"><stop id="stop5557" offset="0" stop-color="#2d7ce6" stop-opacity="1"/><stop id="stop5559" offset="1" stop-color="#4990f1" stop-opacity="1"/></linearGradient><linearGradient id="linearGradient5561-0" x1="27.224" x2="27.224" y1="-1052.384" y2="-1004.332" gradientTransform="matrix(0.28222223,0,0,0.28222223,-1.0774661e-7,283.45334)" gradientUnits="userSpaceOnUse" xlink:href="#linearGradient5555"/><linearGradient id="linearGradient4066" x1="119.189" x2="119.189" y1="35.458" y2="4.661" gradientTransform="matrix(0.84415604,0,0,0.99997463,-68.435411,3.9391086)" gradientUnits="userSpaceOnUse" xlink:href="#linearGradient4102"/></defs><rect id="rect2991-1-7-2" width="13.547" height="13.547" x="0" y="-13.547" fill="url(#linearGradient5561-0)" fill-opacity="1" stroke="none" ry=".549" transform="scale(1,-1)"/><path id="path4240" fill="#000" fill-opacity=".059" stroke="none" d="m 3.1044445,2.765557 0,3.3585549 3.3866666,0 0,-0.9877779 3.1044443,1.9755557 -3.1044443,1.9755558 0,-0.9877779 -3.3866666,0 0,3.3585524 7.3377785,0 0,-6.8863304 -1.6933343,0 -0.2822221,0 0,-0.2822223 0,-1.5241103 -5.3622221,0 z m 5.6444442,0.1129991 0,1.4111112 1.4111113,0 -1.4111113,-1.4111112 z"/><path id="path4238" fill="#000" fill-opacity=".118" stroke="none" d="m 3.1044445,2.6526682 0,3.3585549 3.3866666,0 0,-0.9877779 3.1044443,1.9755557 -3.1044443,1.9755558 0,-0.9877779 -3.3866666,0 0,3.3585532 7.3377785,0 0,-6.8863312 -1.6933343,0 -0.2822221,0 0,-0.2822223 0,-1.5241103 -5.3622221,0 z m 5.6444442,0.1129991 0,1.4111112 1.4111113,0 -1.4111113,-1.4111112 z"/><path id="path4234" fill="#000" fill-opacity=".235" stroke="none" d="m 3.1044445,2.5397794 0,3.3585549 3.3866666,0 0,-0.9877779 3.1044443,1.9755557 -3.1044443,1.9755558 0,-0.9877779 -3.3866666,0 0,3.358554 7.3377785,0 0,-6.886332 -1.6933343,0 -0.2822221,0 0,-0.2822223 0,-1.5241103 -5.3622221,0 z m 5.6444442,0.1129991 0,1.4111112 1.4111113,0 -1.4111113,-1.4111112 z"/><path id="rect4144" fill="url(#linearGradient4066)" fill-opacity="1" stroke="none" d="M 11 8.5996094 L 11 20.5 L 23 20.5 L 23 17 L 34 24 L 23 31 L 23 27.5 L 11 27.5 L 11 39.400391 L 37 39.400391 L 37 15 L 31 15 L 30 15 L 30 14 L 30 8.5996094 L 11 8.5996094 z M 31 9 L 31 14 L 36 14 L 31 9 z" transform="scale(0.28222223,0.28222223)"/><path id="rect846-3" fill="#000" fill-opacity="1" stroke="none" d="m -1.80108e-6,12.7 0,0.299861 c 0,0.304038 0.24277321108,0.546806 0.54680557108,0.546806 l 12.45305523,0 c 0.304033,0 0.546806,-0.242768 0.546806,-0.546806 l 0,-0.299861 c 0,0.304038 -0.242773,0.546806 -0.546806,0.546806 l -12.45305523,0 C 0.24277141,13.246806 -1.80108e-6,13.004038 -1.80108e-6,12.7 Z"/><path id="path7515-3" fill="#fff" fill-opacity=".537" stroke="none" d="m 0.71437322,0.18522226 c -0.25882318,0 -0.47163568,0.18048112 -0.52034724,0.42333335 0.0947166,-0.078994 0.21858394,-0.12347223 0.35277779,-0.12347223 l 12.45305523,0 c 0.134194,0 0.258062,0.0444782 0.352778,0.12347223 C 13.303926,0.36570338 13.091113,0.18522226 12.83229,0.18522226 l -12.11791678,0 z"/><path id="rect4280-2" fill="#000" fill-opacity=".392" stroke="none" d="M 0.54680377,-1.88294e-7 C 0.24277141,-1.88294e-7 -1.80108e-6,0.24276737 -1.80108e-6,0.54680538 l 0,12.15319462 c 0,0.223915 0.13547231108,0.40894 0.32631946108,0.493889 -0.0873026,-0.09407 -0.14111112,-0.220811 -0.14111112,-0.361583 l 0,-12.11791706 c 0,-0.29582534 0.23336956,-0.52916668 0.52916668,-0.52916668 l 12.11791678,0 c 0.295797,0 0.529167,0.23334134 0.529167,0.52916668 l 0,12.11791706 c 0,0.140772 -0.05381,0.267518 -0.141111,0.361583 0.190847,-0.08495 0.326319,-0.269974 0.326319,-0.493889 l 0,-12.15319462 C 13.546665,0.24276737 13.303892,-1.88294e-7 12.999859,-1.88294e-7 l -12.45305523,0 z"/><path id="path4242" fill="#2f7de7" fill-opacity=".314" stroke="none" d="M 31 13.199219 L 31 14 L 36 14 L 35.199219 13.199219 L 31 13.199219 z M 23 16.199219 L 23 17 L 33.371094 23.599609 L 34 23.199219 L 23 16.199219 z M 11 19.699219 L 11 20.5 L 23 20.5 L 23 19.699219 L 11 19.699219 z M 11 38.599609 L 11 39.400391 L 37 39.400391 L 37 38.599609 L 11 38.599609 z" transform="scale(0.28222223,0.28222223)"/><path id="path4247" fill="#fff" fill-opacity=".235" stroke="none" d="M 11 8.5996094 L 11 9 L 30 9 L 30 8.5996094 L 11 8.5996094 z M 31 9 L 31 9.4003906 L 35.599609 14 L 36 14 L 31 9 z M 30 15 L 30 15.400391 L 31 15.400391 L 37 15.400391 L 37 15 L 31 15 L 30 15 z M 33.685547 24.199219 L 23 31 L 23 31.400391 L 34 24.400391 L 33.685547 24.199219 z M 11 27.5 L 11 27.900391 L 23 27.900391 L 23 27.5 L 11 27.5 z" transform="scale(0.28222223,0.28222223)"/></svg>