<svg xmlns="http://www.w3.org/2000/svg" xmlns:svg="http://www.w3.org/2000/svg" xmlns:xlink="http://www.w3.org/1999/xlink" id="svg5453" width="48" height="48" version="1.1"><defs id="defs5455"><linearGradient id="linearGradient1479"><stop id="stop1481" offset="0" stop-color="#1b9bf9" stop-opacity="1"/><stop id="stop1483" offset="1" stop-color="#6bc0f7" stop-opacity="1"/></linearGradient><linearGradient id="linearGradient4148" x1="416.128" x2="416.128" y1="-547.798" y2="-499.798" gradientUnits="userSpaceOnUse" xlink:href="#linearGradient1479"/><linearGradient id="linearGradient4080" x1="410.333" x2="410.333" y1="537.78" y2="509.914" gradientUnits="userSpaceOnUse" xlink:href="#linearGradient6589"/><linearGradient id="linearGradient6589"><stop id="stop6591" offset="0" stop-color="#f27c05" stop-opacity="1"/><stop id="stop6593" offset="1" stop-color="#f9ad3e" stop-opacity="1"/></linearGradient></defs><metadata id="metadata5458"/><g id="layer1" transform="translate(-384.57143,-499.798)"><rect id="rect2991-1-7" width="48" height="48" x="384.571" y="-547.798" fill="url(#linearGradient4148)" fill-opacity="1" stroke="none" ry="1.945" transform="scale(1,-1)"/><path id="path4158" fill="none" stroke="#000" stroke-dasharray="none" stroke-miterlimit="4" stroke-opacity=".059" stroke-width="3.078" d="m 398.08178,537.26125 c -0.86033,-0.90643 -3.15865,-6.47189 -5.10744,-12.36771 -3.015,-9.1216 -3.36512,-10.9414 -2.34858,-12.20716 1.48866,-1.85364 3.9876,-1.91655 5.41724,-0.13645 0.5968,0.74311 1.75217,3.67327 2.56748,6.51148 0.81534,2.8382 1.87394,5.17082 2.35249,5.18358 0.47853,0.0139 1.71004,-2.57656 2.7367,-5.75404 3.21232,-9.94222 6.61296,-9.80342 10.12986,0.41349 1.16427,3.3823 2.4118,6.14961 2.77229,6.14961 0.36047,0 1.35888,-2.68553 2.21867,-5.96785 1.65281,-6.30989 3.01967,-8.23494 5.49056,-7.73271 3.64941,0.74178 3.63519,3.12051 -0.0851,14.23297 -3.89567,11.63656 -5.40807,13.85905 -8.82744,12.97219 -2.0109,-0.52157 -3.62104,-3.57176 -5.54403,-10.50262 -0.69494,-2.50472 -2.10493,-0.91407 -3.46019,3.90351 -1.85721,6.60199 -5.10964,8.67636 -8.31261,5.30168 z"/><path id="path4156" fill="none" stroke="#000" stroke-dasharray="none" stroke-miterlimit="4" stroke-opacity=".118" stroke-width="3.078" d="m 398.08178,536.86125 c -0.86033,-0.90643 -3.15865,-6.47189 -5.10744,-12.36771 -3.015,-9.1216 -3.36512,-10.9414 -2.34858,-12.20716 1.48866,-1.85364 3.9876,-1.91655 5.41724,-0.13645 0.5968,0.74311 1.75217,3.67327 2.56748,6.51148 0.81534,2.8382 1.87394,5.17082 2.35249,5.18358 0.47853,0.0139 1.71004,-2.57656 2.7367,-5.75404 3.21232,-9.94222 6.61296,-9.80342 10.12986,0.41349 1.16427,3.3823 2.4118,6.14961 2.77229,6.14961 0.36047,0 1.35888,-2.68553 2.21867,-5.96785 1.65281,-6.30989 3.01967,-8.23494 5.49056,-7.73271 3.64941,0.74178 3.63519,3.12051 -0.0851,14.23297 -3.89567,11.63656 -5.40807,13.85905 -8.82744,12.97219 -2.0109,-0.52157 -3.62104,-3.57176 -5.54403,-10.50262 -0.69494,-2.50472 -2.10493,-0.91407 -3.46019,3.90351 -1.85721,6.60199 -5.10964,8.67636 -8.31261,5.30168 z"/><path id="path4154" fill="none" stroke="#000" stroke-dasharray="none" stroke-miterlimit="4" stroke-opacity=".235" stroke-width="3.078" d="m 398.08178,536.46125 c -0.86033,-0.90643 -3.15865,-6.47189 -5.10744,-12.36771 -3.015,-9.1216 -3.36512,-10.9414 -2.34858,-12.20716 1.48866,-1.85364 3.9876,-1.91655 5.41724,-0.13645 0.5968,0.74311 1.75217,3.67327 2.56748,6.51148 0.81534,2.8382 1.87394,5.17082 2.35249,5.18358 0.47853,0.0139 1.71004,-2.57656 2.7367,-5.75404 3.21232,-9.94222 6.61296,-9.80342 10.12986,0.41349 1.16427,3.3823 2.4118,6.14961 2.77229,6.14961 0.36047,0 1.35888,-2.68553 2.21867,-5.96785 1.65281,-6.30989 3.01967,-8.23494 5.49056,-7.73271 3.64941,0.74178 3.63519,3.12051 -0.0851,14.23297 -3.89567,11.63656 -5.40807,13.85905 -8.82744,12.97219 -2.0109,-0.52157 -3.62104,-3.57176 -5.54403,-10.50262 -0.69494,-2.50472 -2.10493,-0.91407 -3.46019,3.90351 -1.85721,6.60199 -5.10964,8.67636 -8.31261,5.30168 z"/><path id="rect846" fill="#000" fill-opacity="1" stroke="none" d="m 384.57143,544.79799 0,1.0625 c 0,1.0773 0.86022,1.9375 1.9375,1.9375 l 44.125,0 c 1.07728,0 1.9375,-0.8602 1.9375,-1.9375 l 0,-1.0625 c 0,1.0773 -0.86022,1.9375 -1.9375,1.9375 l -44.125,0 C 385.43165,546.73549 384.57143,545.87529 384.57143,544.79799 Z"/><path id="path7515" fill="#fff" fill-opacity=".537" stroke="none" d="m 387.10268,500.45429 c -0.91709,0 -1.67115,0.6395 -1.84375,1.5 0.33561,-0.2799 0.77451,-0.4375 1.25,-0.4375 l 44.125,0 c 0.47549,0 0.91439,0.1576 1.25,0.4375 -0.1726,-0.8605 -0.92666,-1.5 -1.84375,-1.5 L 387.10268,500.45429 Z"/><path id="rect4280" fill="#000" fill-opacity=".392" stroke="none" d="m 386.50893,499.79799 c -1.07728,0 -1.9375,0.8602 -1.9375,1.9375 l 0,43.0625 c 0,0.7934 0.48002,1.449 1.15625,1.75 -0.30934,-0.3333 -0.5,-0.7824 -0.5,-1.2812 l 0,-42.9375 c 0,-1.0482 0.8269,-1.875 1.875,-1.875 l 42.9375,0 c 1.0481,0 1.875,0.8268 1.875,1.875 l 0,42.9375 c 0,0.4988 -0.19066,0.9479 -0.5,1.2812 0.67623,-0.301 1.15625,-0.9566 1.15625,-1.75 l 0,-43.0625 c 0,-1.0773 -0.86022,-1.9375 -1.9375,-1.9375 L 386.50893,499.79799 Z"/><path id="path3816" fill="none" stroke="#f9f9f9" stroke-dasharray="none" stroke-miterlimit="4" stroke-opacity="1" stroke-width="3.078" d="m 398.08178,536.06159 c -0.86033,-0.90643 -3.15865,-6.47189 -5.10744,-12.36771 -3.015,-9.1216 -3.36512,-10.9414 -2.34858,-12.20716 1.48866,-1.85364 3.9876,-1.91655 5.41724,-0.13645 0.5968,0.74311 1.75217,3.67327 2.56748,6.51148 0.81534,2.8382 1.87394,5.17082 2.35249,5.18358 0.47853,0.0139 1.71004,-2.57656 2.7367,-5.75404 3.21232,-9.94222 6.61296,-9.80342 10.12986,0.41349 1.16427,3.3823 2.4118,6.14961 2.77229,6.14961 0.36047,0 1.35888,-2.68553 2.21867,-5.96785 1.65281,-6.30989 3.01967,-8.23494 5.49056,-7.73271 3.64941,0.74178 3.63519,3.12051 -0.0851,14.23297 -3.89567,11.63656 -5.40807,13.85905 -8.82744,12.97219 -2.0109,-0.52157 -3.62104,-3.57176 -5.54403,-10.50262 -0.69494,-2.50472 -2.10493,-0.91407 -3.46019,3.90351 -1.85721,6.60199 -5.10964,8.67636 -8.31261,5.30168 z"/><path id="path3030" fill="url(#linearGradient4080)" fill-opacity="1" stroke="none" d="m 398.08189,536.06517 c -0.86032,-0.90667 -3.15862,-6.4736 -5.10738,-12.37098 -3.01497,-9.12401 -3.36509,-10.94429 -2.34856,-12.21038 1.48864,-1.85413 3.98756,-1.91706 5.41718,-0.13649 0.5968,0.74331 1.75215,3.67424 2.56746,6.5132 0.81533,2.83895 1.87392,5.17219 2.35246,5.18495 0.47853,0.0139 1.71002,-2.57724 2.73667,-5.75556 3.21229,-9.94485 6.61289,-9.80601 10.12975,0.4136 1.16426,3.38319 2.41178,6.15124 2.77227,6.15124 0.36046,0 1.35886,-2.68624 2.21864,-5.96943 1.65279,-6.31156 3.01964,-8.23712 5.4905,-7.73476 3.64937,0.74198 3.63516,3.12134 -0.0851,14.23674 -3.89562,11.63963 -5.40801,13.86271 -8.82734,12.97562 -2.01088,-0.52171 -3.621,-3.57271 -5.54397,-10.5054 -0.69494,-2.50538 -2.10491,-0.91431 -3.46016,3.90454 -1.85719,6.60374 -5.10958,8.67865 -8.31252,5.30308 z"/><path id="path4160" fill="#a05f00" fill-opacity=".314" stroke="none" d="M 5.5664062 12.972656 C 5.4283683 14.472567 6.1971739 17.223121 8.4023438 23.896484 C 10.351104 29.793864 12.649446 35.360908 13.509766 36.267578 C 16.712706 39.643148 19.965076 37.568584 21.822266 30.964844 C 23.177516 26.145994 24.588263 24.553214 25.283203 27.058594 C 27.206173 33.991284 28.815292 37.042743 30.826172 37.564453 C 34.245502 38.451543 35.758677 36.229474 39.654297 24.589844 C 41.647729 18.633865 42.567614 15.199544 42.439453 13.167969 C 42.328025 15.268836 41.407625 18.550466 39.654297 23.789062 C 35.758677 35.428693 34.245502 37.652715 30.826172 36.765625 C 28.815292 36.243915 27.206173 33.192456 25.283203 26.259766 C 24.588263 23.754386 23.177516 25.345213 21.822266 30.164062 C 19.965076 36.767803 16.712706 38.842367 13.509766 35.466797 C 12.649446 34.560127 10.351104 28.993083 8.4023438 23.095703 C 6.5417675 17.465161 5.7023781 14.626503 5.5664062 12.972656 z" transform="translate(384.57143,499.798)"/><path id="path4073" fill="#fff" fill-opacity=".235" stroke="none" d="M 24.078125 10.136719 C 22.386831 10.067664 20.735051 12.519763 19.128906 17.492188 C 18.102256 20.670507 16.871108 23.261947 16.392578 23.248047 C 15.914038 23.235287 14.854393 20.90145 14.039062 18.0625 C 13.223752 15.22354 12.069456 12.292138 11.472656 11.548828 C 10.043036 9.7682581 7.5433275 9.8314169 6.0546875 11.685547 C 5.6695714 12.16521 5.4847132 12.728607 5.5625 13.734375 C 5.5636441 12.988434 5.7278644 12.492996 6.0546875 12.085938 C 7.5433275 10.231808 10.043036 10.168649 11.472656 11.949219 C 12.069456 12.692529 13.223752 15.623931 14.039062 18.462891 C 14.854393 21.301841 15.914038 23.635678 16.392578 23.648438 C 16.871108 23.662338 18.102256 21.070898 19.128906 17.892578 C 22.341196 7.9477281 25.740952 8.0870306 29.257812 18.306641 C 30.422073 21.689831 31.67076 24.457031 32.03125 24.457031 C 32.39171 24.457031 33.388267 21.771471 34.248047 18.488281 C 35.900837 12.176721 37.269374 10.251546 39.740234 10.753906 C 41.499213 11.111537 42.397236 11.860132 42.449219 13.773438 C 42.516421 11.559417 41.617318 10.735159 39.740234 10.353516 C 37.269374 9.8511556 35.900837 11.776331 34.248047 18.087891 C 33.388267 21.371081 32.39171 24.056641 32.03125 24.056641 C 31.67076 24.056641 30.422073 21.28944 29.257812 17.90625 C 27.499382 12.796445 25.769419 10.205774 24.078125 10.136719 z" transform="translate(384.57143,499.798)"/></g></svg>