<svg xmlns="http://www.w3.org/2000/svg" xmlns:svg="http://www.w3.org/2000/svg" xmlns:xlink="http://www.w3.org/1999/xlink" id="svg2" width="48" height="48" version="1.1"><defs id="defs4"><linearGradient id="linearGradient6586"><stop id="stop6588" offset="0" stop-color="#4b677d" stop-opacity="1"/><stop id="stop6590" offset="1" stop-color="#d6e0e6" stop-opacity="1"/></linearGradient><linearGradient id="linearGradient6562"><stop id="stop6564" offset="0" stop-color="#fff" stop-opacity="1"/><stop id="stop6566" offset="1" stop-color="#fff" stop-opacity="0"/></linearGradient><linearGradient id="linearGradient6489"><stop id="stop6491" offset="0" stop-color="#042d47" stop-opacity="1"/><stop id="stop6493" offset="1" stop-color="#47829c" stop-opacity="1"/></linearGradient><linearGradient id="linearGradient6479"><stop id="stop6481" offset="0" stop-color="#033c5f" stop-opacity=".996"/><stop id="stop6483" offset="1" stop-color="#0a7cb0" stop-opacity="0"/></linearGradient><linearGradient id="linearGradient4826"><stop id="stop4828" offset="0" stop-color="#65b8df" stop-opacity="1"/><stop id="stop4830" offset="1" stop-color="#59f8ff" stop-opacity="1"/></linearGradient><linearGradient id="linearGradient835" x1="81.224" x2="81.224" y1="-1045.746" y2="-997.763" gradientTransform="translate(-51.375,-6.6250087)" gradientUnits="userSpaceOnUse" xlink:href="#linearGradient4826"/><linearGradient id="linearGradient6485" x1="24.926" x2="24.926" y1="48.005" y2="18.931" gradientUnits="userSpaceOnUse" xlink:href="#linearGradient6479"/><linearGradient id="linearGradient6487" x1="28.461" x2="28.461" y1="1043.523" y2="1013.295" gradientTransform="matrix(1.053196,0,0,1.053196,-1.2767043,-54.306816)" gradientUnits="userSpaceOnUse" xlink:href="#linearGradient6489"/><linearGradient id="linearGradient6568" x1="29.609" x2="19.092" y1="1004.359" y2="1022.575" gradientTransform="translate(0,-1004.3622)" gradientUnits="userSpaceOnUse" xlink:href="#linearGradient6562"/><linearGradient id="linearGradient6584" x1="31.875" x2="31.875" y1="39.5" y2="27.75" gradientUnits="userSpaceOnUse" xlink:href="#linearGradient6586"/></defs><metadata id="metadata7"/><g id="layer1" transform="translate(0,-1004.3622)"><rect id="rect2991-1" width="48" height="48" x="0" y="-1052.362" fill="url(#linearGradient835)" fill-opacity="1" stroke="none" ry="1.945" transform="scale(1,-1)"/><g id="g6334"><path id="rect4280-3" fill="#000" fill-opacity=".392" stroke="none" d="m 1.9375,1004.3622 c -1.077277,0 -1.9375,0.8602 -1.9375,1.9375 l 0,43.0625 c 0,0.7934 0.480024,1.449 1.15625,1.75 -0.309342,-0.3333 -0.5,-0.7824 -0.5,-1.2812 l 0,-42.9375 c 0,-1.0482 0.826899,-1.875 1.875,-1.875 l 42.9375,0 c 1.048101,0 1.875,0.8268 1.875,1.875 l 0,42.9375 c 0,0.4988 -0.190658,0.9479 -0.5,1.2812 0.676226,-0.301 1.15625,-0.9566 1.15625,-1.75 l 0,-43.0625 c 0,-1.0773 -0.860223,-1.9375 -1.9375,-1.9375 L 1.9375,1004.3622 Z"/><path id="rect846" fill="#000" fill-opacity="1" stroke="none" d="m 0,1049.3622 0,1.0625 c 0,1.0773 0.860223,1.9375 1.9375,1.9375 l 44.125,0 c 1.077277,0 1.9375,-0.8602 1.9375,-1.9375 l 0,-1.0625 c 0,1.0773 -0.860223,1.9375 -1.9375,1.9375 l -44.125,0 C 0.860223,1051.2997 0,1050.4395 0,1049.3622 Z"/><path id="path7515" fill="#fff" fill-opacity=".537" stroke="none" d="m 2.53125,1005.0185 c -0.917089,0 -1.671147,0.6395 -1.84375,1.5 0.335612,-0.2799 0.774512,-0.4375 1.25,-0.4375 l 44.125,0 c 0.475488,0 0.914388,0.1576 1.25,0.4375 -0.172603,-0.8605 -0.926662,-1.5 -1.84375,-1.5 L 2.53125,1005.0185 Z"/></g><path id="path6474" fill="url(#linearGradient6485)" fill-opacity="1" stroke="none" stroke-linecap="butt" stroke-linejoin="miter" stroke-opacity="1" stroke-width="1" d="M 12.792969 16.828125 C 9.5867669 16.746044 5.7258939 18.194647 0 20.888672 L 0 46.054688 C 0 47.131965 0.86803535 48 1.9453125 48 L 46.054688 48 C 47.131965 48 48 47.131965 48 46.054688 L 48 23.724609 C 46.44553 24.052347 44.872098 24.515282 43.310547 25.195312 C 32.350392 29.968283 27.401146 25.725213 20.330078 20.068359 C 17.678428 17.947039 15.422867 16.895452 12.792969 16.828125 z" transform="translate(0,1004.3622)"/><path id="path6577" fill="#000" fill-opacity=".118" stroke="none" d="m 12.198745,1014.1622 c -5.3259525,0 -7.2420092,0.567 -7.2420092,0.567 6.2161932,6.8112 9.7986652,22.4407 2.579656,26.5184 l -0.2165179,0 c 0.035453,0.035 0.07568,0.064 0.1113521,0.099 6.242676,-1.7628 9.547408,-0.7238 9.547408,-0.7238 0,0 -6.532886,1.2121 0.466028,3.8251 11.969102,2.8082 12.250131,-6.7915 25.598602,-6.9595 C 35.821676,1024.6638 26.902602,1014.6295 12.198745,1014.1622 Z"/><path id="path6575" fill="#000" fill-opacity=".118" stroke="none" d="m 12.198745,1013.7622 c -5.3259525,0 -7.2420092,0.567 -7.2420092,0.567 6.2161932,6.8112 9.7986652,22.4407 2.579656,26.5184 l -0.2165179,0 c 0.035453,0.035 0.07568,0.064 0.1113521,0.099 6.242676,-1.7628 9.547408,-0.7238 9.547408,-0.7238 0,0 -6.532886,1.2121 0.466028,3.8251 11.969102,2.8082 12.250131,-6.7915 25.598602,-6.9595 C 35.821676,1024.2638 26.902602,1014.2295 12.198745,1013.7622 Z"/><path id="path6573" fill="#000" fill-opacity=".235" stroke="none" d="m 12.198745,1013.3622 c -5.3259525,0 -7.2420092,0.567 -7.2420092,0.567 6.2161932,6.8112 9.7986652,22.4407 2.579656,26.5184 l -0.2165179,0 c 0.035453,0.035 0.07568,0.064 0.1113521,0.099 6.242676,-1.7628 9.547408,-0.7238 9.547408,-0.7238 0,0 -6.532886,1.2121 0.466028,3.8251 11.969102,2.8082 12.250131,-6.7915 25.598602,-6.9595 C 35.821676,1023.8638 26.902602,1013.8295 12.198745,1013.3622 Z"/><path id="path6449" fill="url(#linearGradient6487)" fill-opacity="1" stroke="none" d="m 12.198745,1012.9622 c -5.3259525,0 -7.2420092,0.567 -7.2420092,0.567 6.2161932,6.8112 9.7986652,22.4407 2.579656,26.5184 l -0.2165179,0 c 0.035453,0.035 0.07568,0.064 0.1113521,0.099 6.242676,-1.7628 9.547408,-0.7238 9.547408,-0.7238 0,0 -6.532886,1.2121 0.466028,3.8251 11.969102,2.8082 12.250131,-6.7915 25.598602,-6.9595 C 35.821676,1023.4638 26.902602,1013.4295 12.198745,1012.9622 Z"/><path id="path6579" fill="url(#linearGradient6584)" fill-opacity="1" stroke="none" d="M 21.332031 27.535156 C 18.932887 27.62174 15.275985 28.742243 11.103516 30.560547 C 10.539431 32.80431 9.4018369 34.632245 7.5371094 35.685547 L 7.3203125 35.685547 C 7.3557655 35.720547 7.3959685 35.750156 7.4316406 35.785156 C 13.674317 34.022356 16.978516 35.060547 16.978516 35.060547 C 16.978516 35.060547 10.446398 36.271766 17.445312 38.884766 C 29.414414 41.692966 29.694498 32.093781 43.042969 31.925781 C 42.219044 30.462598 41.370281 29.042586 40.496094 27.662109 C 37.614312 28.304765 34.527351 30.518699 31.625 31.75 C 27.5 33.5 21.625 37 24 30.75 C 24.890625 28.40625 23.748721 27.447939 21.332031 27.535156 z" transform="translate(0,1004.3622)"/><path id="path6560" fill="url(#linearGradient6568)" fill-opacity="1" stroke="none" d="M 12.199219 8.5996094 C 6.8732663 8.5996094 4.9570313 9.1679688 4.9570312 9.1679688 C 6.3631795 10.708712 7.6219895 12.712502 8.6640625 14.919922 C 18.349604 16.31463 36.514547 20.409449 42.9375 31.929688 C 42.973583 31.929092 43.006694 31.926238 43.042969 31.925781 C 35.821381 19.101181 26.903076 9.0669094 12.199219 8.5996094 z" transform="translate(0,1004.3622)"/><path id="path6546" fill="#fff" fill-opacity=".235" stroke="none" d="m 12.199219,1012.9622 c -5.3259527,0 -7.2421877,0.5684 -7.2421878,0.5684 0.09473,0.1038 0.1819131,0.2281 0.2753907,0.3359 0.6045778,-0.1371 2.5981488,-0.5039 6.9667971,-0.5039 14.551885,0.4625 23.43508,10.2993 30.617187,22.9336 0.07703,-0 0.148646,-0.01 0.226563,-0.01 C 35.821381,1023.4638 26.903076,1013.4295 12.199219,1012.9622 z m -0.673828,18.7812 c -0.115589,3.6675 -1.301694,6.7872 -3.9882816,8.3047 l -0.2167969,0 c 0.035453,0.035 0.075656,0.065 0.1113281,0.1 0.307114,-0.087 0.5743382,-0.1373 0.8671875,-0.2109 C 10.533033,1038.2261 11.488961,1035.2085 11.525391,1031.7434 z m 4.552734,7.9063 c -0.891739,0.2715 -2.0831,0.7906 -1.830078,1.5781 0.299281,-0.9489 2.730469,-1.4043 2.730469,-1.4043 C 16.978516,1039.8235 16.652036,1039.7324 16.078125,1039.6497 Z"/><path id="path6551" fill="#0e3a54" fill-opacity=".314" stroke="none" d="m 5.5195312,1013.4139 c -0.3488866,0.066 -0.5625,0.1172 -0.5625,0.1172 3.7548125,4.1142 6.5277088,11.4363 6.5605468,17.4961 C 11.73099,1025.1314 9.1445524,1017.8153 5.5195312,1013.4139 z m 37.0683598,22.0918 c -12.892476,0.3816 -13.313817,9.7186 -25.142579,6.9433 -1.923931,-0.7182 -2.803943,-1.3273 -3.099609,-1.8378 -0.433362,0.6224 0.04373,1.4958 3.099609,2.6367 11.969102,2.8082 12.249186,-6.791 25.597657,-6.959 C 42.893716,1036.0238 42.73863,1035.7683 42.587891,1035.5057 z m -28.041016,2.8183 c -1.333087,-0.033 -3.233719,0.1132 -5.6152344,0.6583 -0.4126022,0.4087 -0.8717316,0.7711 -1.3945312,1.0664 l -0.2167969,0 c 0.035453,0.035 0.075656,0.065 0.1113281,0.1 3.6333874,-1.026 6.2379914,-1.0974 7.8085934,-0.9825 0.788027,-0.364 1.738282,-0.5429 1.738282,-0.5429 C 16.978516,1038.6229 16.153392,1038.3634 14.546875,1038.324 Z"/></g></svg>