<svg xmlns="http://www.w3.org/2000/svg" xmlns:svg="http://www.w3.org/2000/svg" xmlns:xlink="http://www.w3.org/1999/xlink" id="svg5453" width="48" height="48" version="1.1"><defs id="defs5455"><linearGradient id="linearGradient992"><stop id="stop994" offset="0" stop-color="#efd8ca" stop-opacity="1"/><stop id="stop996" offset="1" stop-color="#fff" stop-opacity="0"/></linearGradient><linearGradient id="linearGradient980"><stop id="stop982" offset="0" stop-color="#ebd2c4" stop-opacity="1"/><stop id="stop984" offset="1" stop-color="#fff" stop-opacity="0"/></linearGradient><linearGradient id="linearGradient947"><stop id="stop949" offset="0" stop-color="#e36203" stop-opacity="1"/><stop id="stop951" offset="1" stop-color="#f38b1e" stop-opacity="1"/></linearGradient><radialGradient id="radialGradient4697" cx="408.571" cy="-523.798" r="24" fx="408.571" fy="-523.798" gradientTransform="matrix(0.91666666,0,0,0.91666666,34.0476,-43.649877)" gradientUnits="userSpaceOnUse" xlink:href="#linearGradient4691"/><linearGradient id="linearGradient4691"><stop id="stop4693" offset="0" stop-color="#fff" stop-opacity="1"/><stop id="stop4695" offset="1" stop-color="#fff" stop-opacity="0"/></linearGradient><linearGradient id="linearGradient912" x1="411.071" x2="411.071" y1="-547.814" y2="-499.782" gradientTransform="translate(1.7425781e-6,-2.7433047e-5)" gradientUnits="userSpaceOnUse" xlink:href="#linearGradient947"/><linearGradient id="linearGradient986" x1="18.031" x2="25.544" y1="25.549" y2="25.549" gradientUnits="userSpaceOnUse" xlink:href="#linearGradient980"/><linearGradient id="linearGradient990" x1="18.031" x2="20.329" y1="25.549" y2="25.549" gradientTransform="matrix(-1,0,0,1,434.07143,499.798)" gradientUnits="userSpaceOnUse" xlink:href="#linearGradient992"/></defs><metadata id="metadata5458"/><g id="layer1" transform="translate(-384.57143,-499.798)"><rect id="rect2991-1-7" width="48" height="48" x="384.571" y="-547.798" fill="url(#linearGradient912)" fill-opacity="1" stroke="none" ry="1.945" transform="scale(1,-1)"/><path id="path4085" fill="#000" fill-opacity=".059" stroke="none" d="m 394.45815,509.59795 0,0.002 0,7.20099 0,20.6069 0,2.99016 7.20117,0 0,-10.19115 0,-0.67576 4.11524,0 9.70898,0 7.20117,0 0,-7.20099 0,-12.7321 -20.60742,0 -0.41797,0 L 394.45815,509.59795 z m 7.20117,7.20099 13.82422,0 0,5.53111 -9.70898,0 -3.69727,0 -0.41797,0 0,-5.52917 L 401.65932,516.79894 Z"/><path id="path4083" fill="#000" fill-opacity=".118" stroke="none" d="m 394.45815,509.19795 0,0.002 0,7.20099 0,20.6069 0,2.99016 7.20117,0 0,-10.19115 0,-0.67576 4.11524,0 9.70898,0 7.20117,0 0,-7.20099 0,-12.7321 -20.60742,0 -0.41797,0 L 394.45815,509.19795 z m 7.20117,7.20099 13.82422,0 0,5.53111 -9.70898,0 -3.69727,0 -0.41797,0 0,-5.52917 L 401.65932,516.39894 Z"/><path id="path4064" fill="#000" fill-opacity=".235" stroke="none" d="m 394.45815,508.79795 0,0.002 0,7.20099 0,20.6069 0,2.99016 7.20117,0 0,-10.19115 0,-0.67576 4.11524,0 9.70898,0 7.20117,0 0,-7.20099 0,-12.7321 -20.60742,0 -0.41797,0 L 394.45815,508.79795 z m 7.20117,7.20099 13.82422,0 0,5.53111 -9.70898,0 -3.69727,0 -0.41797,0 0,-5.52917 L 401.65932,515.99894 Z"/><rect id="rect4687" width="44" height="44" x="386.571" y="-545.798" fill="url(#radialGradient4697)" fill-opacity="1" stroke="none" opacity=".24" ry="1.782" transform="scale(1,-1)"/><path id="rect846" fill="#000" fill-opacity="1" stroke="none" d="m 384.57142,544.79805 0,1.0625 c 0,1.0773 0.86022,1.9375 1.9375,1.9375 l 44.125,0 c 1.07728,0 1.9375,-0.8602 1.9375,-1.9375 l 0,-1.0625 c 0,1.0773 -0.86022,1.9375 -1.9375,1.9375 l -44.125,0 C 385.43164,546.73555 384.57142,545.87535 384.57142,544.79805 Z"/><path id="path7515" fill="#fff" fill-opacity=".537" stroke="none" d="m 387.10267,500.45435 c -0.91709,0 -1.67115,0.6395 -1.84375,1.5 0.33561,-0.2799 0.77451,-0.4375 1.25,-0.4375 l 44.125,0 c 0.47549,0 0.91439,0.1576 1.25,0.4375 -0.1726,-0.8605 -0.92666,-1.5 -1.84375,-1.5 L 387.10267,500.45435 Z"/><path id="rect4280" fill="#000" fill-opacity=".392" stroke="none" d="m 386.50892,499.79805 c -1.07728,0 -1.9375,0.8602 -1.9375,1.9375 l 0,43.0625 c 0,0.7934 0.48002,1.449 1.15625,1.75 -0.30934,-0.3333 -0.5,-0.7824 -0.5,-1.2812 l 0,-42.9375 c 0,-1.0482 0.8269,-1.875 1.875,-1.875 l 42.9375,0 c 1.0481,0 1.875,0.8268 1.875,1.875 l 0,42.9375 c 0,0.4988 -0.19066,0.9479 -0.5,1.2812 0.67623,-0.301 1.15625,-0.9566 1.15625,-1.75 l 0,-43.0625 c 0,-1.0773 -0.86022,-1.9375 -1.9375,-1.9375 L 386.50892,499.79805 Z"/><path id="path945" fill="#fff" fill-opacity="1" stroke="none" d="m 394.45815,508.398 0,27.81002 0,2.98998 7.20131,0 0,-10.19165 0,-13.40668 13.82394,0 0,5.52985 0,7.20167 7.20131,0 0,-7.20167 0,-12.73152 -20.60732,0 -0.41793,0 L 394.45815,508.398 Z"/><path id="path969" fill="#fff" fill-opacity="1" stroke="none" d="m 394.45815,508.39954 0,7.20131 0.41793,0 6.78338,0 0,-7.20131 L 394.45815,508.39954 Z"/><path id="path973" fill="#fff" fill-opacity="1" stroke="none" d="m 401.65946,521.13043 0,7.20131 13.82394,0 0,-7.20131 -13.40601,0 L 401.65946,521.13043 Z"/><g id="g1254" transform="matrix(1.0287585,0,0,1.0287585,-12.52146,-15.030712)"><path id="path978" fill="url(#linearGradient986)" fill-opacity="1" stroke="none" d="m 18.03125,21.375 0,7 13.4375,0 0,-7 -13.03125,0 L 18.03125,21.375 Z" transform="translate(384.57143,499.798)"/><path id="path988" fill="url(#linearGradient990)" fill-opacity="1" stroke="none" d="m 416.04018,521.173 0,7 -9.4375,0 0,-7 L 415.63393,521.173 Z" opacity=".6"/></g></g></svg>