<svg xmlns="http://www.w3.org/2000/svg" xmlns:svg="http://www.w3.org/2000/svg" xmlns:xlink="http://www.w3.org/1999/xlink" id="svg5453" width="48" height="48" version="1.1"><defs id="defs5455"><linearGradient id="linearGradient1441" x1="407.549" x2="407.549" y1="-547.819" y2="-499.8" gradientUnits="userSpaceOnUse" xlink:href="#linearGradient4172"/><linearGradient id="linearGradient4159-9" x1="411.707" x2="411.707" y1="528.045" y2="515.36" gradientTransform="matrix(2.4499686,0,0,2.4251974,-592.31685,-741.30838)" gradientUnits="userSpaceOnUse" xlink:href="#linearGradient827-3"/><linearGradient id="linearGradient4172"><stop id="stop4174" offset="0" stop-color="#1c8eff" stop-opacity="1"/><stop id="stop4176" offset="1" stop-color="#44d2ff" stop-opacity="1"/></linearGradient><linearGradient id="linearGradient827-3"><stop id="stop829-8" offset="0" stop-color="#a5e1ff" stop-opacity="1"/><stop id="stop831-3" offset="1" stop-color="#f5fcff" stop-opacity="1"/></linearGradient></defs><metadata id="metadata5458"/><g id="layer1" transform="translate(-384.57143,-499.798)"><rect id="rect2991-1-7" width="48" height="48" x="384.571" y="-547.798" fill="url(#linearGradient1441)" fill-opacity="1" stroke="none" ry="1.945" transform="scale(1,-1)"/><path id="path4261" fill="#000" fill-opacity=".059" d="m 401.43471,509.59825 c -0.52962,-0.002 -7.73217,2.92866 -8.17187,3.32617 -0.52341,0.47328 0.0672,3.78238 1.30664,7.3164 2.80769,8.00701 10.03926,15.29207 18.18359,18.31836 2.35935,0.87668 6.93686,1.97863 7.57617,1.82422 0.18791,-0.0456 1.10609,-1.95901 2.04102,-4.2539 l 0.002,0 c 0.93493,-2.2949 1.69922,-4.21941 1.69922,-4.27735 0,-0.0577 -2.09953,-1.14684 -4.66602,-2.41992 l -4.66601,-2.31445 -2.24024,2.19726 -2.23828,2.19532 -1.4082,-0.9668 c -1.5868,-1.08855 -5.26955,-4.79221 -6.25586,-6.29297 l -0.64844,-0.98828 2.21289,-2.21289 2.21289,-2.21094 -2.33789,-4.61914 c -1.28606,-2.54052 -2.45647,-4.62029 -2.60156,-4.62109 z"/><path id="path4259" fill="#000" fill-opacity=".118" d="m 401.43471,509.19825 c -0.52962,-0.002 -7.73217,2.92866 -8.17187,3.32617 -0.52341,0.47328 0.0672,3.78238 1.30664,7.3164 2.80769,8.00701 10.03926,15.29207 18.18359,18.31836 2.35935,0.87668 6.93686,1.97863 7.57617,1.82422 0.18791,-0.0456 1.10609,-1.95901 2.04102,-4.2539 l 0.002,0 c 0.93493,-2.2949 1.69922,-4.21941 1.69922,-4.27735 0,-0.0577 -2.09953,-1.14684 -4.66602,-2.41992 l -4.66601,-2.31445 -2.24024,2.19726 -2.23828,2.19532 -1.4082,-0.9668 c -1.5868,-1.08855 -5.26955,-4.79221 -6.25586,-6.29297 l -0.64844,-0.98828 2.21289,-2.21289 2.21289,-2.21094 -2.33789,-4.61914 c -1.28606,-2.54052 -2.45647,-4.62029 -2.60156,-4.62109 z"/><path id="path4255" fill="#000" fill-opacity=".235" d="m 401.43471,508.79825 c -0.52962,-0.002 -7.73217,2.92866 -8.17187,3.32617 -0.52341,0.47328 0.0672,3.78238 1.30664,7.3164 2.80769,8.00701 10.03926,15.29207 18.18359,18.31836 2.35935,0.87668 6.93686,1.97863 7.57617,1.82422 0.18791,-0.0456 1.10609,-1.95901 2.04102,-4.2539 l 0.002,0 c 0.93493,-2.2949 1.69922,-4.21941 1.69922,-4.27735 0,-0.0577 -2.09953,-1.14684 -4.66602,-2.41992 l -4.66601,-2.31445 -2.24024,2.19726 -2.23828,2.19532 -1.4082,-0.9668 c -1.5868,-1.08855 -5.26955,-4.79221 -6.25586,-6.29297 l -0.64844,-0.98828 2.21289,-2.21289 2.21289,-2.21094 -2.33789,-4.61914 c -1.28606,-2.54052 -2.45647,-4.62029 -2.60156,-4.62109 z"/><path id="rect846" fill="#000" fill-opacity="1" stroke="none" d="m 384.57143,544.79799 0,1.0625 c 0,1.0773 0.86022,1.9375 1.9375,1.9375 l 44.125,0 c 1.07728,0 1.9375,-0.8602 1.9375,-1.9375 l 0,-1.0625 c 0,1.0773 -0.86022,1.9375 -1.9375,1.9375 l -44.125,0 C 385.43165,546.73549 384.57143,545.87529 384.57143,544.79799 Z"/><path id="path7515" fill="#fff" fill-opacity=".537" stroke="none" d="m 387.10268,500.45429 c -0.91709,0 -1.67115,0.6395 -1.84375,1.5 0.33561,-0.2799 0.77451,-0.4375 1.25,-0.4375 l 44.125,0 c 0.47549,0 0.91439,0.1576 1.25,0.4375 -0.1726,-0.8605 -0.92666,-1.5 -1.84375,-1.5 L 387.10268,500.45429 Z"/><path id="rect4280" fill="#000" fill-opacity=".392" stroke="none" d="m 386.50893,499.79799 c -1.07728,0 -1.9375,0.8602 -1.9375,1.9375 l 0,43.0625 c 0,0.7934 0.48002,1.449 1.15625,1.75 -0.30934,-0.3333 -0.5,-0.7824 -0.5,-1.2812 l 0,-42.9375 c 0,-1.0482 0.8269,-1.875 1.875,-1.875 l 42.9375,0 c 1.0481,0 1.875,0.8268 1.875,1.875 l 0,42.9375 c 0,0.4988 -0.19066,0.9479 -0.5,1.2812 0.67623,-0.301 1.15625,-0.9566 1.15625,-1.75 l 0,-43.0625 c 0,-1.0773 -0.86022,-1.9375 -1.9375,-1.9375 L 386.50893,499.79799 Z"/><path id="path4128-0" fill="url(#linearGradient4159-9)" fill-opacity="1" d="m 401.43446,508.39813 c -0.52962,-0.002 -7.73217,2.92866 -8.17187,3.32617 -0.52341,0.47328 0.0672,3.78238 1.30664,7.3164 2.80769,8.00701 10.03926,15.29207 18.18359,18.31836 2.35935,0.87668 6.93686,1.97863 7.57617,1.82422 0.18791,-0.0456 1.10609,-1.95901 2.04102,-4.2539 l 0.002,0 c 0.93493,-2.2949 1.69922,-4.21941 1.69922,-4.27735 0,-0.0577 -2.09953,-1.14684 -4.66602,-2.41992 l -4.66601,-2.31445 -2.24024,2.19726 -2.23828,2.19532 -1.4082,-0.9668 c -1.5868,-1.08855 -5.26955,-4.79221 -6.25586,-6.29297 l -0.64844,-0.98828 2.21289,-2.21289 2.21289,-2.21094 -2.33789,-4.61914 c -1.28606,-2.54052 -2.45647,-4.62029 -2.60156,-4.62109 z"/><path id="path4263" fill="#1d90ff" fill-opacity=".314" d="m 8.5292969,12.427734 c -0.1306465,1.13125 0.4403888,3.882283 1.46875,6.814454 2.8076901,8.00701 10.0392641,15.292069 18.1835941,18.318359 2.35935,0.87668 6.936862,1.978629 7.576171,1.824219 0.18791,-0.0456 1.106086,-1.959017 2.041016,-4.253907 l 0.002,0 C 38.735711,32.835959 39.5,30.911456 39.5,30.853516 c 0,-0.0055 -0.223502,-0.119338 -0.259766,-0.142578 -0.186641,0.503952 -0.647894,1.678115 -1.439453,3.621093 l -0.002,0 c -0.93493,2.29489 -1.853106,4.208306 -2.041016,4.253907 -0.639309,0.154409 -5.216821,-0.947539 -7.576171,-1.824219 -8.14433,-3.02629 -15.375904,-10.31135 -18.1835941,-18.31836 -0.8348405,-2.380383 -1.3647962,-4.637183 -1.46875,-6.015625 z m 13.0058591,4.88086 -1.945312,1.943359 -2.212891,2.212891 0.316406,0.482422 1.896485,-1.896485 2.21289,-2.210937 z" transform="translate(384.57143,499.798)"/><path id="path4268" fill="#fff" fill-opacity=".235" d="M 16.863281,8.5996094 C 16.333661,8.5976094 9.1311063,11.528271 8.6914062,11.925781 8.540511,12.062224 8.4924882,12.454731 8.515625,13 8.5314963,12.673983 8.5813466,12.42569 8.6914062,12.326172 9.1311063,11.928662 16.333661,8.998 16.863281,9 c 0.14509,8e-4 1.315503,2.080574 2.601563,4.621094 l 2.203125,4.353515 0.134765,-0.134765 -2.33789,-4.619141 c -1.28606,-2.54052 -2.456473,-4.6202936 -2.601563,-4.6210936 z m 0.671875,13.9062496 -0.158203,0.158203 0.648438,0.988282 c 0.98631,1.50076 4.669059,5.204418 6.255859,6.292968 l 1.408203,0.966797 2.238281,-2.195312 2.240235,-2.197266 4.666015,2.314453 c 2.443892,1.212267 4.347702,2.20072 4.535157,2.347657 0.0087,-0.02576 0.130859,-0.323678 0.130859,-0.328125 0,-0.0577 -2.099526,-1.146842 -4.666016,-2.419922 l -4.666015,-2.314453 -2.240235,2.197265 -2.238281,2.195313 -1.408203,-0.966797 c -1.5868,-1.08855 -5.269549,-4.792209 -6.255859,-6.292969 z" transform="translate(384.57143,499.798)"/></g></svg>