<svg xmlns="http://www.w3.org/2000/svg" xmlns:svg="http://www.w3.org/2000/svg" xmlns:xlink="http://www.w3.org/1999/xlink" id="svg2" width="48" height="48" version="1.1" viewBox="0 0 13.547 13.547"><metadata id="metadata14"/><defs id="defs12"><linearGradient id="linearGradient4308"><stop id="stop4310" offset="0" stop-color="#009eb3" stop-opacity=".441"/><stop id="stop4312" offset="1" stop-color="#00d8ff" stop-opacity="0"/></linearGradient><linearGradient id="linearGradient4302"><stop id="stop4304" offset="0" stop-color="#006673" stop-opacity="1"/><stop id="stop4306" offset="1" stop-color="#00d8ff" stop-opacity="0"/></linearGradient><linearGradient id="linearGradient4332"><stop id="stop4334" offset="0" stop-color="#fff" stop-opacity="1"/><stop id="stop4336" offset="1" stop-color="#fff" stop-opacity="0"/></linearGradient><linearGradient id="linearGradient4229" x1="410.855" x2="410.855" y1="-547.8" y2="-499.801" gradientTransform="matrix(0.22048607,0,0,0.22048607,-83.310992,122.26356)" gradientUnits="userSpaceOnUse" xlink:href="#linearGradient4097"/><linearGradient id="linearGradient4283" x1="401.194" x2="405.113" y1="507.574" y2="517.033" gradientTransform="matrix(0.33597888,0,0,0.33597888,-130.49803,-169.21171)" gradientUnits="userSpaceOnUse" xlink:href="#linearGradient4302"/><radialGradient id="radialGradient4338" cx="405.549" cy="530.974" r="10.75" fx="405.549" fy="530.974" gradientTransform="matrix(-0.14608898,0.54521155,-0.59247105,-0.15875212,376.54927,-132.72463)" gradientUnits="userSpaceOnUse" xlink:href="#linearGradient4332"/><linearGradient id="linearGradient4356" x1="30.406" x2="30.406" y1="48.177" y2=".094" gradientTransform="scale(0.28222223)" gradientUnits="userSpaceOnUse" xlink:href="#linearGradient4308"/><radialGradient id="radialGradient4396" cx="403.367" cy="527.701" r="10.75" fx="403.367" fy="527.701" gradientTransform="matrix(-0.1324993,0.49449418,-0.53735745,-0.14398448,342.37549,-133.39073)" gradientUnits="userSpaceOnUse" xlink:href="#linearGradient4332"/><radialGradient id="radialGradient4400" cx="398.428" cy="530.554" r="10.75" fx="398.428" fy="530.554" gradientTransform="matrix(-0.07850516,0.29298525,-0.43133722,-0.11557646,250.35277,-68.556959)" gradientUnits="userSpaceOnUse" xlink:href="#linearGradient4332"/><linearGradient id="linearGradient2219" x1="26.871" x2="26.871" y1="5.335" y2="2.847" gradientTransform="matrix(1.5626713,0,0,0.4976216,-35.223469,9.3856704)" gradientUnits="userSpaceOnUse" xlink:href="#linearGradient2224"/><linearGradient id="linearGradient2224"><stop id="stop2226" offset="0" stop-color="#00d8ff" stop-opacity="1"/><stop id="stop2228" offset="1" stop-color="#00b9d7" stop-opacity="0"/></linearGradient><linearGradient id="linearGradient4611" x1="1" x2="42.25" y1="1.625" y2="42.875" gradientTransform="scale(0.28222223)" gradientUnits="userSpaceOnUse" xlink:href="#linearGradient4097"/><linearGradient id="linearGradient4633" x1="401.194" x2="405.113" y1="507.574" y2="517.033" gradientTransform="matrix(0.33597888,0,0,-0.33597888,-130.46276,182.8554)" gradientUnits="userSpaceOnUse" xlink:href="#linearGradient4332"/><linearGradient id="linearGradient4637" x1="401.194" x2="405.113" y1="507.574" y2="517.033" gradientTransform="matrix(-0.33597888,0,0,-0.33597888,144.13344,182.8554)" gradientUnits="userSpaceOnUse" xlink:href="#linearGradient4332"/><linearGradient id="linearGradient4097"><stop id="stop4099" offset="0" stop-color="#009eb3" stop-opacity="1"/><stop id="stop4101" offset="1" stop-color="#00d8ff" stop-opacity="0"/></linearGradient></defs><rect id="rect2991-1-7" width="13.547" height="13.547" x="0" y="-13.547" fill="#00d8ff" fill-opacity="1" stroke="none" ry=".549" transform="scale(1,-1)"/><path id="path4613" fill="#000" fill-opacity=".058" stroke="none" d="m 6.7733301,1.5526686 c -3.0019414,0 -5.4184467,2.4165053 -5.4184467,5.4184467 0,3.0019414 2.4165053,5.4184467 5.4184467,5.4184467 3.0019414,0 5.4184469,-2.4165053 5.4184469,-5.4184467 0,-3.0019414 -2.4165055,-5.4184467 -5.4184469,-5.4184467 z m 0,0.1267799 c 2.9315834,0 5.2916669,2.3600834 5.2916669,5.2916668 0,2.9315834 -2.3600835,5.2916667 -5.2916669,5.2916667 -2.9315834,0 -5.2916668,-2.3600833 -5.2916668,-5.2916667 0,-2.9315834 2.3600834,-5.2916668 5.2916668,-5.2916668 z"/><rect id="rect4398" width="12.7" height="12.7" x="-13.053" y="-12.7" fill="url(#radialGradient4400)" fill-opacity="1" stroke="none" ry="6.35" transform="scale(-1)"/><rect id="rect4394" width="11.007" height="11.007" x="1.27" y="-12.277" fill="url(#radialGradient4396)" fill-opacity="1" stroke="none" ry="5.503" transform="scale(1,-1)"/><path id="rect4344" fill="url(#linearGradient4356)" fill-opacity="1" stroke="none" d="M 0.54901043,0 C 0.24497887,0 0,0.24497887 0,0.54901043 L 0,1.751211 c 5.2706884,-3.3484113 13.444113,-1.08602887 13.476111,0.9299002 0.0039,0.2478295 0.03368,0.6015928 0.07056,1.0136849 l 0,-3.14578567 C 13.546667,0.24497887 13.301688,0 12.997657,0 L 0.54901043,0 Z M 13.546667,9.8496662 C 13.287244,11.324825 12.735856,12.67704 11.667023,13.546667 l 1.330634,0 c 0.304031,0 0.54901,-0.244979 0.54901,-0.54901 l 0,-3.1479908 z M 0,10.642865 0,12.997657 c 0,0.304031 0.24497887,0.54901 0.54901043,0.54901 l 3.32878907,0 C 2.1196682,12.758098 0.85793975,11.63099 0,10.642865 Z"/><rect id="rect4328" width="12.136" height="12.136" x=".459" y=".811" fill="url(#radialGradient4338)" fill-opacity="1" stroke="none" ry="6.068"/><rect id="rect4227" width="10.583" height="10.583" x="1.482" y="1.482" fill="url(#linearGradient4229)" fill-opacity="1" stroke="none" ry="5.292"/><path id="path4119" fill="#ff0078" fill-opacity="1" fill-rule="evenodd" stroke="none" d="M 6.45418,0 A 4.3233482,4.3233482 0 0 1 8.7659768,3.8199219 4.3233482,4.3233482 0 0 1 7.5108595,6.8609768 7.5074359,7.5074359 0 0 0 11.43882,0.27119792 7.5074359,7.5074359 0 0 0 11.425591,0 L 6.45418,0 Z"/><path id="path4131" fill="#ff0078" fill-opacity="1" fill-rule="evenodd" stroke="none" d="M 0.21662761,2.053277 A 7.5074359,7.5074359 0 0 0 0,2.0637501 L 0,6.93043 A 4.3233482,4.3233482 0 0 1 3.7659029,4.72612 4.3233482,4.3233482 0 0 1 6.8064066,5.981237 7.5074359,7.5074359 0 0 0 0.21662761,2.053277 Z"/><path id="path2209" fill="url(#linearGradient2219)" fill-opacity="1" d="m 6.7733329,10.363562 c -1.4480371,0 -2.7404512,0.178325 -3.6967133,0.469372 1.0442053,0.757377 2.3080473,1.232072 3.6967133,1.232072 1.388666,0 2.652508,-0.474695 3.6967131,-1.232072 C 9.5137841,10.540157 8.22137,10.363562 6.7733329,10.363562 Z"/><path id="path4133" fill="#ff0078" fill-opacity="1" fill-rule="evenodd" stroke="none" d="m 6.0093492,6.6856903 a 7.5074359,7.5074359 0 0 0 -3.9279603,6.5897787 7.5074359,7.5074359 0 0 0 0.01378,0.271198 l 4.9708594,0 A 4.3233482,4.3233482 0 0 1 4.7542319,9.7267451 4.3233482,4.3233482 0 0 1 6.0093492,6.6856903 Z"/><path id="path4135" fill="#ff0078" fill-opacity="1" fill-rule="evenodd" stroke="none" d="m 13.546667,6.574896 a 4.3233482,4.3233482 0 0 1 -3.7659028,2.20431 4.3233482,4.3233482 0 0 1 -3.0405037,-1.2551173 7.5074359,7.5074359 0 0 0 6.5897785,3.9279603 7.5074359,7.5074359 0 0 0 0.216628,-0.01047 l 0,-4.86668 z"/><path id="rect4279" fill="url(#linearGradient4283)" fill-opacity="1" stroke="none" d="m 6.7733335,1.4816667 c -2.9315834,0 -5.2916668,2.3600834 -5.2916668,5.2916668 0,0.335168 0.034129,0.6614039 0.093155,0.9789584 C 6.8488743,7.2610353 8.7622145,4.4634428 9.437357,2.2021051 8.6551214,1.7466571 7.7473389,1.4816667 6.7733335,1.4816667 Z" opacity=".8"/><path id="path4370" fill="#b21a11" fill-opacity="1" fill-rule="evenodd" stroke="none" d="M 3.3376086,2.747257 C 2.5726206,3.4000884 1.9973438,4.2663362 1.7032552,5.2574914 A 4.3233482,4.3233482 0 0 1 3.7659029,4.72612 4.3233482,4.3233482 0 0 1 6.8064066,5.981237 7.5074359,7.5074359 0 0 0 3.3376086,2.747257 Z"/><path id="path4296" fill="#000" fill-opacity=".169" fill-rule="evenodd" stroke="none" d="M 8.1883032,1.6773481 A 4.3233482,4.3233482 0 0 1 8.7659768,3.8199219 4.3233482,4.3233482 0 0 1 7.5108595,6.8609768 7.5074359,7.5074359 0 0 0 10.779566,3.31556 C 10.107033,2.5363756 9.2111364,1.9590281 8.1883032,1.6773481 Z"/><path id="path4303" fill="#872a06" fill-opacity=".169" fill-rule="evenodd" stroke="none" d="M 6.0093492,6.6856903 A 7.5074359,7.5074359 0 0 0 2.7494619,10.211263 c 0.6676414,0.781411 1.5587784,1.363071 2.5774827,1.650339 A 4.3233482,4.3233482 0 0 1 4.7542319,9.7267451 4.3233482,4.3233482 0 0 1 6.0093492,6.6856903 Z"/><path id="path4313" fill="#872a06" fill-opacity=".169" fill-rule="evenodd" stroke="none" d="M 6.7402605,7.5240887 A 7.5074359,7.5074359 0 0 0 10.239375,10.771849 C 11.000956,10.111664 11.570312,9.2385817 11.85609,8.2412199 A 4.3233482,4.3233482 0 0 1 9.7807642,8.779206 4.3233482,4.3233482 0 0 1 6.7402605,7.5240887 Z"/><path id="path4318" fill="#872a06" fill-opacity=".169" stroke="none" d="M 8.9722311,0 C 10.881143,0.40553458 10.904147,1.988966 10.924536,2.9908941 11.262076,2.1265236 11.437441,1.1991352 11.43882,0.27119792 11.436045,0.18072872 11.431635,0.09030971 11.425591,0 Z"/><path id="path4323" fill="#872a06" fill-opacity=".169" stroke="none" d="M 6.0093492,6.6856903 C 5.6491354,6.884329 5.3052883,7.1126375 4.9824351,7.3675437 2.7129433,9.0265952 1.9587742,12.078101 5.2326869,13.546667 l 1.8333418,0 C 5.6816655,12.818996 4.7567496,11.290702 4.7542319,9.7267451 4.7554736,8.6017706 5.2167862,7.4840715 6.0093492,6.6856903 Z"/><path id="path4269" fill="#872a06" fill-opacity=".168" fill-rule="evenodd" stroke="none" d="M 5.5441233,4.2989281 C 4.573479,3.8971227 1.6676341,3.0490181 0,5.6698006 L 0,6.93043 C 0.74728919,5.6014763 2.2412527,4.727009 3.7659029,4.72612 4.8906934,4.7275029 6.0081557,5.1888033 6.8064066,5.981237 6.4689605,5.3637929 6.0395024,4.7986082 5.5441233,4.2989281 Z"/><path id="path4291" fill="#872a06" fill-opacity=".115" stroke="none" stroke-linecap="butt" stroke-linejoin="miter" stroke-opacity="1" stroke-width="1" d="M 0.21662761,2.053277 A 7.5074359,7.5074359 0 0 0 0,2.0637501 L 0,3.538802 C 1.3383372,2.8286471 3.3289941,3.1522575 4.5921745,3.4781686 A 7.5074359,7.5074359 0 0 0 0.21662761,2.053277 Z"/><g id="g4587" transform="matrix(0.28222223,0,0,0.28222223,-108.53461,-141.0541)"><path id="rect846" fill="#000" fill-opacity="1" stroke="none" d="m 384.57143,544.79799 0,1.0625 c 0,1.0773 0.86022,1.9375 1.9375,1.9375 l 44.125,0 c 1.07728,0 1.9375,-0.8602 1.9375,-1.9375 l 0,-1.0625 c 0,1.0773 -0.86022,1.9375 -1.9375,1.9375 l -44.125,0 c -1.07728,0 -1.9375,-0.8602 -1.9375,-1.9375 z"/><path id="rect4280" fill="#000" fill-opacity=".392" stroke="none" d="m 386.50893,499.79799 c -1.07728,0 -1.9375,0.8602 -1.9375,1.9375 l 0,43.0625 c 0,0.7934 0.48002,1.449 1.15625,1.75 -0.30934,-0.3333 -0.5,-0.7824 -0.5,-1.2812 l 0,-42.9375 c 0,-1.0482 0.8269,-1.875 1.875,-1.875 l 42.9375,0 c 1.0481,0 1.875,0.8268 1.875,1.875 l 0,42.9375 c 0,0.4988 -0.19066,0.9479 -0.5,1.2812 0.67623,-0.301 1.15625,-0.9566 1.15625,-1.75 l 0,-43.0625 c 0,-1.0773 -0.86022,-1.9375 -1.9375,-1.9375 l -44.125,0 z"/><path id="path7515" fill="#fff" fill-opacity=".537" stroke="none" d="m 387.10268,500.45429 c -0.91709,0 -1.67115,0.6395 -1.84375,1.5 0.33561,-0.2799 0.77451,-0.4375 1.25,-0.4375 l 44.125,0 c 0.47549,0 0.91439,0.1576 1.25,0.4375 -0.1726,-0.8605 -0.92666,-1.5 -1.84375,-1.5 l -42.9375,0 z"/></g><path id="rect4600" fill="url(#linearGradient4611)" fill-opacity="1" stroke="none" d="m 6.7733335,1.3548872 c -3.0019403,0 -5.4184463,2.416506 -5.4184463,5.4184463 0,3.0019403 2.416506,5.4184465 5.4184463,5.4184465 3.0019403,0 5.4184465,-2.4165062 5.4184465,-5.4184465 0,-3.0019403 -2.4165062,-5.4184463 -5.4184465,-5.4184463 z m 0,0.1267795 c 2.9315834,0 5.2916665,2.3600834 5.2916665,5.2916668 0,2.9315834 -2.3600831,5.2916665 -5.2916665,5.2916665 -2.9315834,0 -5.2916668,-2.3600831 -5.2916668,-5.2916665 0,-2.9315834 2.3600834,-5.2916668 5.2916668,-5.2916668 z" opacity=".3"/><path id="path4631" fill="url(#linearGradient4633)" fill-opacity="1" stroke="none" d="m 6.8086079,12.16202 c -2.9315834,0 -5.2916668,-2.3600831 -5.2916668,-5.2916665 0,-0.3351671 0.034129,-0.6614047 0.093156,-0.9789583 C 6.8841474,6.3826509 8.7974899,9.1802437 9.4726304,11.441583 8.690395,11.897031 7.7826131,12.16202 6.8086078,12.16202 Z" opacity=".5"/><path id="path4635" fill="url(#linearGradient4637)" fill-opacity="1" stroke="none" d="m 6.8620749,12.16202 c 2.9315837,0 5.2916671,-2.3600831 5.2916671,-5.2916665 0,-0.3351671 -0.03413,-0.6614047 -0.09316,-0.9789583 -5.2740507,0.4912557 -7.1873933,3.2888485 -7.8625338,5.5501878 0.7822354,0.455448 1.6900173,0.720437 2.6640227,0.720437 z" opacity=".5"/></svg>