<svg xmlns="http://www.w3.org/2000/svg" xmlns:svg="http://www.w3.org/2000/svg" xmlns:xlink="http://www.w3.org/1999/xlink" id="svg2" width="48" height="48" version="1.1"><defs id="defs4"><linearGradient id="linearGradient1711" x1="22.49" x2="22.49" y1="-1052.37" y2="-1004.364" gradientTransform="translate(-3.8085936e-8,-2.5343751e-6)" gradientUnits="userSpaceOnUse" xlink:href="#linearGradient908"/><linearGradient id="linearGradient4171" x1="26.517" x2="26.517" y1="1013.164" y2="1044.1" gradientTransform="matrix(1,0,0,-1,0,2057.9244)" gradientUnits="userSpaceOnUse" xlink:href="#linearGradient4090"/><linearGradient id="linearGradient4169"><stop id="stop4171" offset="0" stop-color="#e2f4c4" stop-opacity="1"/><stop id="stop4173" offset="1" stop-color="#fdfff5" stop-opacity="1"/></linearGradient><linearGradient id="linearGradient4181" x1="10.41" x2="10.41" y1="13.991" y2="2.012" gradientTransform="matrix(2.5666667,0,0,2.5666667,-55.35834,990.61949)" gradientUnits="userSpaceOnUse" xlink:href="#linearGradient4169"/><linearGradient id="linearGradient4185" x1="10.41" x2="10.41" y1="13.991" y2="2.012" gradientTransform="matrix(2.5666667,0,0,2.5666667,-55.35834,990.61949)" gradientUnits="userSpaceOnUse" xlink:href="#linearGradient4169"/><linearGradient id="linearGradient4090"><stop id="stop4092" offset="0" stop-color="#b9ddff" stop-opacity="1"/><stop id="stop4094" offset="1" stop-color="#f5fcff" stop-opacity="1"/></linearGradient><linearGradient id="linearGradient908"><stop id="stop910" offset="0" stop-color="#0062bf" stop-opacity="1"/><stop id="stop912" offset="1" stop-color="#0095d4" stop-opacity="1"/></linearGradient></defs><metadata id="metadata7"/><g id="layer1" transform="translate(0,-1004.3622)"><rect id="rect2991-1" width="48" height="48" x="0" y="-1052.362" fill="url(#linearGradient1711)" fill-opacity="1" stroke="none" ry="1.945" transform="scale(1,-1)"/><path id="path4233" fill="#000" fill-opacity=".059" d="m 8.6,1030.7776 5.4593,-5.4516 c 0,0 3.062675,3.0607 6.077225,6.0753 l 0,-16.0391 7.720212,0 0,16.0391 6.083,-6.083 L 39.4,1030.7776 24.001925,1046.1622 8.6,1030.7776 Z"/><path id="path4229" fill="#000" fill-opacity=".118" d="m 8.6,1030.3776 5.4593,-5.4516 c 0,0 3.062675,3.0607 6.077225,6.0753 l 0,-16.0391 7.720212,0 0,16.0391 6.083,-6.083 L 39.4,1030.3776 24.001925,1045.7622 8.6,1030.3776 Z"/><path id="path4225" fill="#000" fill-opacity=".235" d="m 8.6,1029.9776 5.4593,-5.4516 c 0,0 3.062675,3.0607 6.077225,6.0753 l 0,-16.0391 7.720212,0 0,16.0391 6.083,-6.083 L 39.4,1029.9776 24.001925,1045.3622 8.6,1029.9776 Z"/><path id="rect846" fill="#000" fill-opacity="1" stroke="none" d="m -3.8085936e-8,1049.3622 0,1.0625 c 0,1.0773 0.860222898085936,1.9375 1.937499938085936,1.9375 l 44.1250001,0 c 1.077277,0 1.9375,-0.8602 1.9375,-1.9375 l 0,-1.0625 c 0,1.0773 -0.860223,1.9375 -1.9375,1.9375 l -44.1250001,0 C 0.86022286,1051.2997 -3.8085936e-8,1050.4395 -3.8085936e-8,1049.3622 Z"/><path id="path7515" fill="#fff" fill-opacity=".537" stroke="none" d="m 2.5312499,1005.0185 c -0.9170884,0 -1.67114674,0.6395 -1.84374994,1.5 0.33561204,-0.2799 0.77451214,-0.4375 1.24999994,-0.4375 l 44.1250001,0 c 0.475488,0 0.914388,0.1576 1.25,0.4375 -0.172603,-0.8605 -0.926662,-1.5 -1.84375,-1.5 L 2.5312499,1005.0185 Z"/><path id="rect4280" fill="#000" fill-opacity=".392" stroke="none" d="m 1.9374999,1004.3622 c -1.07727694,0 -1.937499938085938,0.8602 -1.937499938085938,1.9375 l 0,43.0625 c 0,0.7934 0.480023998085938,1.449 1.156249938085938,1.75 -0.30934164,-0.3333 -0.49999994,-0.7824 -0.49999994,-1.2812 l 0,-42.9375 c 0,-1.0482 0.82689894,-1.875 1.87499994,-1.875 l 42.9375001,0 c 1.048101,0 1.875,0.8268 1.875,1.875 l 0,42.9375 c 0,0.4988 -0.190658,0.9479 -0.5,1.2812 0.676226,-0.301 1.15625,-0.9566 1.15625,-1.75 l 0,-43.0625 c 0,-1.0773 -0.860223,-1.9375 -1.9375,-1.9375 L 1.9374999,1004.3622 Z"/><path id="path4099" fill="url(#linearGradient4171)" fill-opacity="1" d="m 8.6,1029.5776 5.4593,-5.4516 c 0,0 3.062675,3.0607 6.077225,6.0753 l 0,-16.0391 7.720212,0 0,16.0391 6.083,-6.083 L 39.4,1029.5776 24.001925,1044.9622 8.6,1029.5776 Z"/><rect id="rect4898" width="56.467" height="56.467" x="-55.358" y="990.62" fill="url(#linearGradient4181)" fill-opacity="1" fill-rule="nonzero" stroke="none" display="none"/><rect id="rect4126" width="56.467" height="56.467" x="-55.358" y="990.62" fill="url(#linearGradient4185)" fill-opacity="1" fill-rule="nonzero" stroke="none" display="none"/><path id="path4237" fill="#002c54" fill-opacity=".235" d="M 39 24.814453 L 24.001953 39.800781 L 9 24.816406 L 8.5996094 25.214844 L 24.001953 40.599609 L 39.400391 25.214844 L 39 24.814453 z" transform="translate(0,1004.3622)"/><path id="path4242" fill="#fff" fill-opacity=".235" d="M 20.136719 9.8007812 L 20.136719 10.599609 L 27.857422 10.599609 L 27.857422 9.8007812 L 20.136719 9.8007812 z M 33.939453 19.755859 L 27.857422 25.839844 L 27.857422 26.638672 L 33.939453 20.556641 L 39 25.615234 L 39.400391 25.214844 L 33.939453 19.755859 z M 14.058594 19.763672 L 8.5996094 25.214844 L 9 25.615234 L 14.058594 20.564453 C 14.058594 20.564453 17.122169 23.624072 20.136719 26.638672 L 20.136719 25.839844 C 17.122169 22.825244 14.058594 19.763672 14.058594 19.763672 z" transform="translate(0,1004.3622)"/></g></svg>