<svg xmlns="http://www.w3.org/2000/svg" xmlns:svg="http://www.w3.org/2000/svg" id="svg2" width="12" height="13" version="1.1"><metadata id="metadata7"/><g id="layer1" transform="translate(-671.14288,-651.57648)"><g id="g4090" transform="matrix(0.1265625,0,0,-0.1265625,672.07092,663.09636)"><g id="g4092" transform="scale(0.1,0.1)"><path id="path4094" fill="#d52735" fill-opacity="1" fill-rule="evenodd" stroke="none" d="m 433,4.34766 c 236.059,0 427.426,191.36734 427.426,427.42934 0,236.063 -191.367,427.43 -427.426,427.43 C 196.934,859.207 5.56641,667.84 5.56641,431.777 5.56641,195.715 196.934,4.34766 433,4.34766"/><path id="path4096" fill="#f25056" fill-opacity="1" fill-rule="evenodd" stroke="none" d="m 433,40.6992 c 215.98,0 391.07,175.0938 391.07,391.0778 C 824.07,647.762 648.98,822.852 433,822.852 217.012,822.852 41.9219,647.762 41.9219,431.777 41.9219,215.793 217.012,40.6992 433,40.6992"/></g></g></g></svg>