<svg xmlns="http://www.w3.org/2000/svg" xmlns:svg="http://www.w3.org/2000/svg" id="svg2" width="12" height="13" version="1.1"><metadata id="metadata7"/><g id="layer1" transform="translate(-671.14288,-651.57648)"><g id="g4090" transform="matrix(0.1265625,0,0,-0.1265625,672.07092,663.09636)"><g id="g4092" transform="scale(0.1,0.1)"><g id="g4285" transform="matrix(9.9999999,0,0,9.9999999,-4.0034923,0.11816995)"><g id="g4287" transform="scale(0.1,0.1)"><path id="path4289" fill="#13c11e" fill-opacity="1" fill-rule="evenodd" stroke="none" d="m 437.004,4.34766 c 236.059,0 427.426,191.36734 427.426,427.42934 0,236.063 -191.367,427.43 -427.426,427.43 C 200.938,859.207 9.57031,667.84 9.57031,431.777 9.57031,195.715 200.938,4.34766 437.004,4.34766"/><path id="path4291" fill="#39ea49" fill-opacity="1" fill-rule="evenodd" stroke="none" d="m 437.004,40.6992 c 215.984,0 391.074,175.0938 391.074,391.0778 0,215.985 -175.09,391.075 -391.074,391.075 -215.988,0 -391.0782,-175.09 -391.0782,-391.075 0,-215.984 175.0902,-391.0778 391.0782,-391.0778"/></g></g></g></g></g></svg>