<svg xmlns="http://www.w3.org/2000/svg" xmlns:svg="http://www.w3.org/2000/svg" id="svg2" width="12" height="13" version="1.1"><metadata id="metadata7"/><g id="layer1" transform="translate(-671.14288,-651.57648)"><g id="g4090" transform="matrix(0.1265625,0,0,-0.1265625,672.07092,663.09636)"><g id="g4092" transform="scale(0.1,0.1)"><g id="g4285" transform="matrix(9.9999999,0,0,9.9999999,-4.0034923,0.11816995)"><g id="g4287" transform="scale(0.1,0.1)"><g id="g4413" transform="matrix(10,0,0,10,4.1388913,2.0175489)"><g id="g4415" transform="scale(0.1,0.1)"><g id="g5791"><g id="g5786"><path id="path4495" fill="#fac536" fill-opacity="1" fill-rule="evenodd" stroke="none" d="m 433.19593,1.6536218 c 236.066,0 427.434,191.3674682 427.434,427.4254682 0,236.063 -191.368,427.43 -427.434,427.43 -236.062,0 -427.42966,-191.367 -427.42966,-427.43 0,-236.058 191.36766,-427.4254682 427.42966,-427.4254682"/><path id="path4497" fill="#fac536" fill-opacity="1" fill-rule="evenodd" stroke="none" d="m 433.19593,38.005192 c 215.988,0 391.078,175.093898 391.078,391.073898 0,215.989 -175.09,391.078 -391.078,391.078 -215.984,0 -391.0742,-175.089 -391.0742,-391.078 0,-215.98 175.0902,-391.073898 391.0742,-391.073898"/><path id="path4379" fill="#975914" fill-opacity="1" fill-rule="evenodd" stroke="none" d="m 317.56283,647.18464 267.199,0 c 35.579,0 64.692,-29.11 64.692,-64.692 l 0,-267.195 -331.891,331.887 z m 232.324,-436.207 -268.253,0 c -35.583,0 -64.692,29.10899 -64.692,64.691 l 0,268.254 332.945,-332.945"/></g></g></g></g></g></g></g></g></g></svg>