<svg xmlns="http://www.w3.org/2000/svg" xmlns:svg="http://www.w3.org/2000/svg" id="svg2" width="12" height="13" version="1.1"><metadata id="metadata7"/><g id="layer1" transform="translate(-671.14288,-651.57648)"><g id="g4090" transform="matrix(0.1265625,0,0,-0.1265625,672.07092,663.09636)"><g id="g4092" transform="scale(0.1,0.1)"><g id="g4285" transform="matrix(9.9999999,0,0,9.9999999,-4.0034923,0.11816995)"><g id="g4287" transform="scale(0.1,0.1)"><g id="g5846"><g id="g5841"><path id="path4417" fill="#da9e10" fill-opacity="1" fill-rule="evenodd" stroke="none" d="m 437.17389,3.9667689 c 236.063,0 427.43,191.3667811 427.43,427.4297811 0,236.059 -191.367,427.426 -427.43,427.426 -236.062,0 -427.4295287,-191.367 -427.4295287,-427.426 0,-236.063 191.3675287,-427.4297811 427.4295287,-427.4297811"/><path id="path4419" fill="#fac536" fill-opacity="1" fill-rule="evenodd" stroke="none" d="m 437.17389,40.318349 c 215.985,0 391.074,175.090201 391.074,391.078201 0,215.984 -175.089,391.074 -391.074,391.074 -215.984,0 -391.077999,-175.09 -391.077999,-391.074 0,-215.988 175.093999,-391.078201 391.077999,-391.078201"/><path id="path4293" fill="#975914" fill-opacity="1" fill-rule="evenodd" stroke="none" d="m 321.53913,649.50016 267.199,0 c 35.579,0 64.692,-29.113 64.692,-64.695 l 0,-267.19601 -331.891,331.89101 z m 232.324,-436.21101 -268.253,0 c -35.583,0 -64.692,29.109 -64.692,64.69101 l 0,268.254 332.945,-332.94501"/></g></g></g></g></g></g></g></svg>