<svg xmlns="http://www.w3.org/2000/svg" xmlns:svg="http://www.w3.org/2000/svg" id="svg2" width="12" height="13" version="1.1"><metadata id="metadata7"/><g id="layer1" transform="translate(-671.14288,-651.57648)"><g id="g4090" transform="matrix(0.1265625,0,0,-0.1265625,672.07092,663.09636)"><g id="g4092" transform="scale(0.1,0.1)"><g id="g4285" transform="matrix(9.9999999,0,0,9.9999999,-4.0034923,0.11816995)"><g id="g4287" transform="scale(0.1,0.1)"><g id="g4413" transform="matrix(10,0,0,10,4.1388913,2.0175489)"><g id="g4415" transform="scale(0.1,0.1)"><path id="path4417" fill="#da9e10" fill-opacity="1" fill-rule="evenodd" stroke="none" d="m 433.035,1.94922 c 236.063,0 427.43,191.36678 427.43,427.42978 0,236.059 -191.367,427.426 -427.43,427.426 C 196.973,856.805 5.60547,665.438 5.60547,429.379 5.60547,193.316 196.973,1.94922 433.035,1.94922"/><path id="path4419" fill="#fac536" fill-opacity="1" fill-rule="evenodd" stroke="none" d="m 433.035,38.3008 c 215.985,0 391.074,175.0902 391.074,391.0782 0,215.984 -175.089,391.074 -391.074,391.074 -215.984,0 -391.078,-175.09 -391.078,-391.074 0,-215.988 175.094,-391.0782 391.078,-391.0782"/></g></g></g></g></g></g></g></svg>