<svg xmlns="http://www.w3.org/2000/svg" xmlns:svg="http://www.w3.org/2000/svg" id="svg2" width="12" height="13" version="1.1"><metadata id="metadata7"/><g id="layer1" transform="translate(-671.14288,-651.57648)"><g id="g4090" transform="matrix(0.1265625,0,0,-0.1265625,672.07092,663.09636)"><g id="g4092" transform="scale(0.1,0.1)"><g id="g5802"><g id="g5797"><path id="path4289" fill="#13c11e" fill-opacity="1" fill-rule="evenodd" stroke="none" d="m 433.00051,4.46583 c 236.059,0 427.426,191.36734 427.426,427.42934 0,236.063 -191.367,427.43 -427.426,427.43 -236.066,0 -427.4336923,-191.367 -427.4336923,-427.43 0,-236.062 191.3676923,-427.42934 427.4336923,-427.42934"/><path id="path4291" fill="#39ea49" fill-opacity="1" fill-rule="evenodd" stroke="none" d="m 433.00051,40.81737 c 215.984,0 391.074,175.0938 391.074,391.0778 0,215.985 -175.09,391.075 -391.074,391.075 -215.988,0 -391.078202,-175.09 -391.078202,-391.075 0,-215.984 175.090202,-391.0778 391.078202,-391.0778"/><path id="path4421" fill="#0b7407" fill-opacity="1" fill-rule="evenodd" stroke="none" d="m 183.47092,467.47379 499.05498,0 c 19.316,0 35.117,-15.79704 35.117,-35.11703 l 0,-0.92601 c 0,-19.31999 -15.801,-35.11699 -35.117,-35.11699 l -499.05498,0 c -19.317,0 -35.117,15.797 -35.117,35.11699 l 0,0.92601 c 0,19.31999 15.8,35.11703 35.117,35.11703"/></g></g></g></g></g></svg>