<svg xmlns="http://www.w3.org/2000/svg" xmlns:svg="http://www.w3.org/2000/svg" id="svg2" width="12" height="13" version="1.1"><metadata id="metadata7"/><g id="layer1" transform="translate(-671.14288,-651.57648)"><g id="g4090" transform="matrix(0.1265625,0,0,-0.1265625,672.07092,663.09636)"><g id="g4092" transform="scale(0.1,0.1)"><g id="g4285" transform="matrix(9.9999999,0,0,9.9999999,-4.0034923,0.11816995)"><g id="g4287" transform="scale(0.1,0.1)"><g id="g5780"><g id="g5775"><path id="path4375" fill="#13c11e" fill-opacity="1" fill-rule="evenodd" stroke="none" d="m 437.45559,4.0911912 c 236.059,0 427.426,191.3674688 427.426,427.4254688 0,236.063 -191.367,427.43 -427.426,427.43 -236.066,0 -427.433691,-191.367 -427.433691,-427.43 0,-236.058 191.367691,-427.4254688 427.433691,-427.4254688"/><path id="path4377" fill="#13c11e" fill-opacity="1" fill-rule="evenodd" stroke="none" d="m 437.45559,40.442761 c 215.984,0 391.074,175.093899 391.074,391.073899 0,215.989 -175.09,391.078 -391.074,391.078 -215.988,0 -391.078201,-175.089 -391.078201,-391.078 0,-215.98 175.090201,-391.073899 391.078201,-391.073899"/><path id="path4499" fill="#0b7407" fill-opacity="1" fill-rule="evenodd" stroke="none" d="m 187.92448,467.09871 499.05801,0 c 19.313,0 35.114,-15.8 35.114,-35.117 l 0,-0.93 c 0,-19.316 -15.801,-35.113 -35.114,-35.113 l -499.05801,0 c -19.317,0 -35.114,15.797 -35.114,35.113 l 0,0.93 c 0,19.317 15.797,35.117 35.114,35.117"/></g></g></g></g></g></g></g></svg>