<svg xmlns="http://www.w3.org/2000/svg" xmlns:svg="http://www.w3.org/2000/svg" xmlns:xlink="http://www.w3.org/1999/xlink" id="svg4306" width="17" height="15" version="1.1"><defs id="defs4308"><linearGradient id="linearGradient4892"><stop id="stop4894" offset="0" stop-color="#2f3a42" stop-opacity="1"/><stop id="stop4896" offset="1" stop-color="#1d242a" stop-opacity="1"/></linearGradient><linearGradient id="linearGradient4882"><stop id="stop4884" offset="0" stop-color="#728495" stop-opacity="1"/><stop id="stop4886" offset="1" stop-color="#617c95" stop-opacity="0"/></linearGradient><linearGradient id="linearGradient4888" x1="8" x2="8" y1="16" y2="8" gradientUnits="userSpaceOnUse" xlink:href="#linearGradient4882"/><radialGradient id="radialGradient4900" cx="8" cy="8" r="6" fx="8" fy="8" gradientUnits="userSpaceOnUse" xlink:href="#linearGradient4892"/></defs><metadata id="metadata4311"/><g id="layer1" transform="translate(0,-1037.3622)"><path id="path4878" fill="url(#linearGradient4888)" fill-opacity="1" stroke="#000" stroke-dasharray="none" stroke-linejoin="miter" stroke-miterlimit="4" stroke-opacity="1" stroke-width="0" d="m 16,8 c 0,4.418278 -3.581722,8 -8,8 C 3.581722,16 0,12.418278 0,8 0,3.581722 3.581722,0 8,0 c 4.418278,0 8,3.581722 8,8 z" opacity=".45" transform="translate(0,1036.3622)"/><path id="path4880" fill="#06080a" fill-opacity="1" stroke="#000" stroke-dasharray="none" stroke-linejoin="miter" stroke-miterlimit="4" stroke-opacity="1" stroke-width="0" d="m 15,8 c 0,3.865993 -3.134007,7 -7,7 C 4.1340068,15 1,11.865993 1,8 1,4.1340068 4.1340068,1 8,1 c 3.865993,0 7,3.1340068 7,7 z" transform="translate(0,1036.3622)"/><path id="path4890" fill="url(#radialGradient4900)" fill-opacity="1" stroke="#000" stroke-dasharray="none" stroke-linejoin="miter" stroke-miterlimit="4" stroke-opacity="1" stroke-width="0" d="m 14,8 c 0,3.313708 -2.686292,6 -6,6 C 4.6862915,14 2,11.313708 2,8 2,4.6862915 4.6862915,2 8,2 c 3.313708,0 6,2.6862915 6,6 z" transform="translate(0,1036.3622)"/></g></svg>