<svg xmlns="http://www.w3.org/2000/svg" xmlns:svg="http://www.w3.org/2000/svg" xmlns:xlink="http://www.w3.org/1999/xlink" id="Foreground" width="26" height="26" x="0" y="0" enable-background="new 0 0 16 16" version="1.0" viewBox="0 0 18.909 18.909" xml:space="preserve"><metadata id="metadata2399"/><defs id="defs2397"><linearGradient id="linearGradient3845"><stop id="stop3847" offset="0" stop-color="#000" stop-opacity=".18"/><stop id="stop3849" offset="1" stop-color="#000" stop-opacity=".431"/></linearGradient><linearGradient id="linearGradient3837"><stop id="stop3839" offset="0" stop-color="#fff" stop-opacity="1"/><stop id="stop3781" offset=".083" stop-color="#fff" stop-opacity="0"/><stop id="stop3783" offset=".909" stop-color="#0b0b0b" stop-opacity="0"/><stop id="stop3841" offset="1" stop-color="#000" stop-opacity=".027"/></linearGradient><linearGradient id="linearGradient3842-4" x1="17" x2="17" y1="5" y2="27" gradientTransform="matrix(0.72727272,0,0,0.72727272,-2.9090857,-2.1818221)" gradientUnits="userSpaceOnUse" xlink:href="#linearGradient4397"/><linearGradient id="linearGradient4397"><stop id="stop4399" offset="0" stop-color="#797c84" stop-opacity="1"/><stop id="stop4401" offset="1" stop-color="#555558" stop-opacity="1"/></linearGradient></defs><g id="g4333" transform="translate(3.6485275e-6,3.6546726e-6)"><circle id="path3003-8" cx="9.455" cy="9.455" r="8.727" fill="#000" fill-opacity="1" stroke="#f70505" stroke-dasharray="none" stroke-dashoffset="0" stroke-linejoin="round" stroke-miterlimit="4" stroke-opacity="1" stroke-width="0" opacity=".5"/><circle id="path3808-6" cx="9.455" cy="9.455" r="8" fill="url(#linearGradient3842-4)" fill-opacity="1" stroke="#f70505" stroke-dasharray="none" stroke-dashoffset="0" stroke-linejoin="round" stroke-miterlimit="4" stroke-opacity="1" stroke-width="0" opacity="1"/><g id="g27275-6-6-6-8" fill="#000" fill-opacity="1" display="inline" transform="matrix(0.72727272,0,0,0.72727272,4.1762051,2.783836)"><g id="g27277-1-1-2-7" fill="#000" fill-opacity="1" display="inline" transform="translate(-41,-760)"><path font-stretch="normal" style="line-height:normal;-inkscape-font-specification:'Andale Mono';text-indent:0;text-align:start;text-decoration-line:none;text-transform:none;block-progression:tb;marker:none" id="path27279-0-5-8-7" fill="#000" fill-opacity="1" fill-rule="nonzero" stroke="none" stroke-width="1.781" d="m 44.226475,764.17222 1,0 c 0.01037,-1.2e-4 0.02079,-4.6e-4 0.03125,0 0.254951,0.0112 0.50987,0.12858 0.6875,0.3125 l 2.28125,2.28125 2.3125,-2.28125 c 0.265625,-0.2305 0.446672,-0.3055 0.6875,-0.3125 l 1,0 0,1 c 0,0.28647 -0.03434,0.55065 -0.25,0.75 l -2.28125,2.28125 2.25,2.25 c 0.188188,0.18817 0.281242,0.45345 0.28125,0.71875 l 0,1 -1,0 c -0.265301,-1e-5 -0.530586,-0.0931 -0.71875,-0.28125 l -2.28125,-2.28125 -2.28125,2.28125 c -0.188164,0.18819 -0.45346,0.28125 -0.71875,0.28125 l -1,0 0,-1 c -3e-6,-0.26529 0.09306,-0.53058 0.28125,-0.71875 l 2.28125,-2.25 -2.28125,-2.28125 c -0.210742,-0.19463 -0.30316,-0.46925 -0.28125,-0.75 l 0,-1 z" color="#bebebe" direction="ltr" display="inline" enable-background="new" font-family="Andale Mono" font-size="medium" font-style="normal" font-variant="normal" font-weight="normal" letter-spacing="normal" opacity=".5" overflow="visible" text-anchor="start" text-decoration="none" visibility="visible" word-spacing="normal" writing-mode="lr-tb"/></g></g><g id="g27275-6-6-5" fill="#fff" fill-opacity="1" display="inline" transform="matrix(0.72727273,0,0,0.72727273,4.2045505,3.5383207)"><g id="g27277-1-1-0" fill="#fff" fill-opacity="1" display="inline" transform="translate(-41,-760)"><path id="path27279-0-5-0" fill="#fff" fill-opacity="1" fill-rule="nonzero" stroke="none" stroke-width="1.781" d="m 44.226475,764.17222 1,0 c 0.01037,-1.2e-4 0.02079,-4.6e-4 0.03125,0 0.254951,0.0112 0.50987,0.12858 0.6875,0.3125 l 2.28125,2.28125 2.3125,-2.28125 c 0.265625,-0.2305 0.446672,-0.3055 0.6875,-0.3125 l 1,0 0,1 c 0,0.28647 -0.03434,0.55065 -0.25,0.75 l -2.28125,2.28125 2.25,2.25 c 0.188188,0.18817 0.281242,0.45345 0.28125,0.71875 l 0,1 -1,0 c -0.265301,-1e-5 -0.530586,-0.0931 -0.71875,-0.28125 l -2.28125,-2.28125 -2.28125,2.28125 c -0.188164,0.18819 -0.45346,0.28125 -0.71875,0.28125 l -1,0 0,-1 c -3e-6,-0.26529 0.09306,-0.53058 0.28125,-0.71875 l 2.28125,-2.25 -2.28125,-2.28125 c -0.210742,-0.19463 -0.30316,-0.46925 -0.28125,-0.75 l 0,-1 z" color="#bebebe" direction="ltr" display="inline" enable-background="new" font-family="Andale Mono" font-size="medium" font-stretch="normal" font-style="normal" font-variant="normal" font-weight="normal" letter-spacing="normal" overflow="visible" text-anchor="start" text-decoration="none" visibility="visible" word-spacing="normal" writing-mode="lr-tb" style="line-height:normal;-inkscape-font-specification:'Andale Mono';text-indent:0;text-align:start;text-decoration-line:none;text-transform:none;block-progression:tb;marker:none"/></g></g><path id="path3808-0-0" fill="#fff" fill-opacity="1" stroke="#f70505" stroke-dasharray="none" stroke-dashoffset="0" stroke-linejoin="round" stroke-miterlimit="4" stroke-opacity="1" stroke-width="0" d="m 9.4545503,1.4545414 c -4.4182778,0 -7.9999997,3.5817222 -7.9999997,8.0000004 0,0.122777 0.017255,0.24221 0.022727,0.363636 0.1914686,-4.2482385 3.6817716,-7.6363636 7.9772727,-7.6363636 4.2955007,0 7.7858047,3.3881251 7.9772727,7.6363636 0.0055,-0.121426 0.02273,-0.240859 0.02273,-0.363636 0,-4.4182782 -3.581722,-8.0000004 -7.9999997,-8.0000004 z" opacity=".15"/></g></svg>