<svg xmlns="http://www.w3.org/2000/svg" xmlns:svg="http://www.w3.org/2000/svg" xmlns:xlink="http://www.w3.org/1999/xlink" id="Foreground" width="26" height="26" x="0" y="0" enable-background="new 0 0 16 16" version="1.0" viewBox="0 0 18.909 18.909" xml:space="preserve"><metadata id="metadata2399"/><defs id="defs2397"><linearGradient id="linearGradient3842" x1="17" x2="17" y1="5" y2="27" gradientTransform="matrix(0.72727272,0,0,0.72727272,-2.9090912,-21.090909)" gradientUnits="userSpaceOnUse" xlink:href="#linearGradient3845"/><linearGradient id="linearGradient3845"><stop id="stop3847" offset="0" stop-color="#000" stop-opacity=".18"/><stop id="stop3849" offset="1" stop-color="#000" stop-opacity=".431"/></linearGradient><linearGradient id="linearGradient3837"><stop id="stop3839" offset="0" stop-color="#fff" stop-opacity="1"/><stop id="stop3781" offset=".083" stop-color="#fff" stop-opacity="0"/><stop id="stop3783" offset=".909" stop-color="#0b0b0b" stop-opacity="0"/><stop id="stop3841" offset="1" stop-color="#000" stop-opacity=".027"/></linearGradient><linearGradient id="linearGradient3768"><stop id="stop3770" offset="0" stop-color="#0d0d0d" stop-opacity="1"/><stop id="stop3778" offset=".078" stop-color="#1b1b1b" stop-opacity="1"/><stop id="stop3774" offset=".974" stop-color="#1b1b1b" stop-opacity="1"/><stop id="stop3776" offset="1" stop-color="#1e1e1e" stop-opacity="1"/></linearGradient></defs><circle id="path3808" cx="9.455" cy="-9.455" r="8" fill="url(#linearGradient3842)" fill-opacity="1" stroke="#f70505" stroke-dasharray="none" stroke-dashoffset="0" stroke-linejoin="round" stroke-miterlimit="4" stroke-opacity="1" stroke-width="0" opacity="1" transform="scale(1,-1)"/><g id="g27275-6-6-6" fill="#000" fill-opacity="1" display="inline" transform="matrix(0.72727272,0,0,0.72727272,4.1761996,2.7838413)"><g id="g27277-1-1-2" fill="#000" fill-opacity="1" display="inline" transform="translate(-41,-760)"><path id="path27279-0-5-8" fill="#000" fill-opacity="1" fill-rule="nonzero" stroke="none" stroke-width="1.781" d="m 44.226475,764.17222 1,0 c 0.01037,-1.2e-4 0.02079,-4.6e-4 0.03125,0 0.254951,0.0112 0.50987,0.12858 0.6875,0.3125 l 2.28125,2.28125 2.3125,-2.28125 c 0.265625,-0.2305 0.446672,-0.3055 0.6875,-0.3125 l 1,0 0,1 c 0,0.28647 -0.03434,0.55065 -0.25,0.75 l -2.28125,2.28125 2.25,2.25 c 0.188188,0.18817 0.281242,0.45345 0.28125,0.71875 l 0,1 -1,0 c -0.265301,-1e-5 -0.530586,-0.0931 -0.71875,-0.28125 l -2.28125,-2.28125 -2.28125,2.28125 c -0.188164,0.18819 -0.45346,0.28125 -0.71875,0.28125 l -1,0 0,-1 c -3e-6,-0.26529 0.09306,-0.53058 0.28125,-0.71875 l 2.28125,-2.25 -2.28125,-2.28125 c -0.210742,-0.19463 -0.30316,-0.46925 -0.28125,-0.75 l 0,-1 z" color="#bebebe" direction="ltr" display="inline" enable-background="new" font-family="Andale Mono" font-size="medium" font-stretch="normal" font-style="normal" font-variant="normal" font-weight="normal" letter-spacing="normal" opacity=".5" overflow="visible" text-anchor="start" text-decoration="none" visibility="visible" word-spacing="normal" writing-mode="lr-tb" style="line-height:normal;-inkscape-font-specification:'Andale Mono';text-indent:0;text-align:start;text-decoration-line:none;text-transform:none;block-progression:tb;marker:none"/></g></g><g id="g27275-6-6" fill="#fff" fill-opacity="1" display="inline" transform="matrix(0.72727273,0,0,0.72727273,4.204545,3.538326)"><g id="g27277-1-1" fill="#fff" fill-opacity="1" display="inline" transform="translate(-41,-760)"><path id="path27279-0-5" fill="#fff" fill-opacity="1" fill-rule="nonzero" stroke="none" stroke-width="1.781" d="m 44.226475,764.17222 1,0 c 0.01037,-1.2e-4 0.02079,-4.6e-4 0.03125,0 0.254951,0.0112 0.50987,0.12858 0.6875,0.3125 l 2.28125,2.28125 2.3125,-2.28125 c 0.265625,-0.2305 0.446672,-0.3055 0.6875,-0.3125 l 1,0 0,1 c 0,0.28647 -0.03434,0.55065 -0.25,0.75 l -2.28125,2.28125 2.25,2.25 c 0.188188,0.18817 0.281242,0.45345 0.28125,0.71875 l 0,1 -1,0 c -0.265301,-1e-5 -0.530586,-0.0931 -0.71875,-0.28125 l -2.28125,-2.28125 -2.28125,2.28125 c -0.188164,0.18819 -0.45346,0.28125 -0.71875,0.28125 l -1,0 0,-1 c -3e-6,-0.26529 0.09306,-0.53058 0.28125,-0.71875 l 2.28125,-2.25 -2.28125,-2.28125 c -0.210742,-0.19463 -0.30316,-0.46925 -0.28125,-0.75 l 0,-1 z" color="#bebebe" direction="ltr" display="inline" enable-background="new" font-family="Andale Mono" font-size="medium" font-stretch="normal" font-style="normal" font-variant="normal" font-weight="normal" letter-spacing="normal" overflow="visible" text-anchor="start" text-decoration="none" visibility="visible" word-spacing="normal" writing-mode="lr-tb" style="line-height:normal;-inkscape-font-specification:'Andale Mono';text-indent:0;text-align:start;text-decoration-line:none;text-transform:none;block-progression:tb;marker:none"/></g></g><path id="path3808-0" fill="#000" fill-opacity="1" stroke="#f70505" stroke-dasharray="none" stroke-dashoffset="0" stroke-linejoin="round" stroke-miterlimit="4" stroke-opacity="1" stroke-width="0" d="m 9.4545448,1.4545467 c -4.4182778,0 -7.9999997,3.5817222 -7.9999997,8.0000004 0,0.122777 0.017255,0.24221 0.022727,0.363636 0.1914686,-4.2482385 3.6817716,-7.6363636 7.9772727,-7.6363636 4.2955012,0 7.7858052,3.3881251 7.9772732,7.6363636 0.0055,-0.121426 0.02273,-0.240859 0.02273,-0.363636 0,-4.4182782 -3.581722,-8.0000004 -8.0000002,-8.0000004 z" opacity=".15"/><path id="path3003-5" fill="#000" fill-opacity="1" stroke="none" stroke-dasharray="none" stroke-dashoffset="0" stroke-linejoin="round" stroke-miterlimit="4" stroke-opacity="1" stroke-width="0" d="M 9.4545448,0.72727336 A 8.7272728,8.7272728 0 0 0 0.7272721,9.4545461 8.7272728,8.7272728 0 0 0 9.4545448,18.181819 8.7272728,8.7272728 0 0 0 18.181818,9.4545461 8.7272728,8.7272728 0 0 0 9.4545448,0.72727336 Z m 0,0.72727284 a 8,8 0 0 1 8.0000002,7.9999999 8,8 0 0 1 -8.0000002,7.9999999 8,8 0 0 1 -8,-7.9999999 8,8 0 0 1 8,-7.9999999 z" opacity=".668"/><path id="path3003-5-2" fill="#fff" fill-opacity="1" stroke="none" stroke-dasharray="none" stroke-dashoffset="0" stroke-linejoin="round" stroke-miterlimit="4" stroke-opacity="1" stroke-width="0" d="m 18.167578,9.8863586 a 8.7272728,8.7272728 0 0 1 -7.343751,8.1775584 8,8 0 0 1 -0.0099,0.0014 8.7272728,8.7272728 0 0 1 -0.02415,0.0028 8.7272728,8.7272728 0 0 1 -0.647728,0.07954 8,8 0 0 1 -0.6875,0.03409 8.7272728,8.7272728 0 0 1 -0.7500001,-0.03693 8,8 0 0 1 -0.1661935,-0.02131 8.7272728,8.7272728 0 0 1 -7.76420501,-7.941763 l -0.0468749,0 a 8.7272728,8.7272728 0 0 0 8.72723352,8.727343 8.7272728,8.7272728 0 0 0 8.727274,-8.727274 8.7272728,8.7272728 0 0 0 -0.01421,-0.2954544 z" opacity=".2"/></svg>