<svg xmlns="http://www.w3.org/2000/svg" xmlns:svg="http://www.w3.org/2000/svg" xmlns:xlink="http://www.w3.org/1999/xlink" id="svg12430" width="16" height="16" version="1.1"><defs id="defs12432"><linearGradient id="linearGradient4173" x1="7" x2="21" y1="14" y2="14" gradientTransform="matrix(0.85714214,0,0,0.85714217,-19.999991,-3.9999999)" gradientUnits="userSpaceOnUse" xlink:href="#linearGradient3763-9"/><linearGradient id="linearGradient3763-9"><stop id="stop3765-6" offset="0" stop-color="#646464" stop-opacity="1"/><stop id="stop3767-7" offset="1" stop-color="#969696" stop-opacity="1"/></linearGradient><linearGradient id="linearGradient4150" x1="10" x2="13" y1="12" y2="12" gradientTransform="matrix(0.84613181,0,0,0.84613181,-5.5381106,-18.15357)" gradientUnits="userSpaceOnUse" xlink:href="#linearGradient4144"/><linearGradient id="linearGradient4144"><stop id="stop4146" offset="0" stop-color="#fff" stop-opacity="1"/><stop id="stop4148" offset="1" stop-color="#fff" stop-opacity="0"/></linearGradient></defs><metadata id="metadata12435"/><g id="layer1" transform="translate(0,-1036.3622)"><g id="g14642-3-0" display="inline" transform="translate(-141.99984,638.37113)"><rect id="rect3620-5-4" width="15.982" height="16" x="142" y="398" fill="none" stroke="none" rx="0" ry="0"/><g id="g4179" transform="translate(141.99985,397.99107)"><rect id="rect4163" width="14" height="14" x="1" y="1" fill="#000" fill-opacity="1" stroke="#ff0505" stroke-dasharray="none" stroke-dashoffset="0" stroke-linecap="butt" stroke-linejoin="round" stroke-miterlimit="4" stroke-opacity="1" stroke-width="0" opacity=".805" rx="1.5" ry="1.5"/><rect id="rect4165" width="12" height="12" x="-14" y="2" fill="url(#linearGradient4173)" fill-opacity="1" stroke="#ff0505" stroke-dasharray="none" stroke-dashoffset="0" stroke-linecap="butt" stroke-linejoin="round" stroke-miterlimit="4" stroke-opacity="1" stroke-width="0" opacity=".885" rx=".5" ry=".5" transform="matrix(0,-1,1,0,0,0)"/><rect id="rect4142" width="11" height="11" x="2.5" y="-13.5" fill="none" fill-opacity="1" stroke="url(#linearGradient4150)" stroke-dasharray="none" stroke-dashoffset="0" stroke-linecap="butt" stroke-linejoin="round" stroke-miterlimit="4" stroke-opacity="1" stroke-width="1" opacity=".2" transform="matrix(0,1,-1,0,0,0)"/></g><path id="rect3757-0" fill="#000" fill-opacity="1" fill-rule="evenodd" stroke="#000" stroke-linecap="butt" stroke-linejoin="miter" stroke-miterlimit="4" stroke-opacity="1" stroke-width="0" d="m 148.99984,401.99106 0,2.00001 -2,0 0,2 2,0 0,2 2,0 0,-2 2,0 0,-2 -2,0 0,-2.00001 -2,0 z" display="inline" opacity=".4"/><path id="rect3757" fill="#fff" fill-opacity="1" fill-rule="evenodd" stroke="#000" stroke-linecap="butt" stroke-linejoin="miter" stroke-miterlimit="4" stroke-opacity="1" stroke-width="0" d="m 148.99984,402.99107 0,2 -2,0 0,2 2,0 0,2 2,0 0,-2 2,0 0,-2 -2,0 0,-2 -2,0 z"/></g></g></svg>