<svg xmlns="http://www.w3.org/2000/svg" xmlns:svg="http://www.w3.org/2000/svg" id="svg11300" width="16" height="16" display="inline" enable-background="new" version="1.0"><metadata id="metadata4"/><g id="layer1" display="inline" transform="translate(0,-284)"><path id="rect4174" fill="#000" fill-opacity="1" stroke="none" stroke-opacity=".706" d="m 6,290 c -1.108,0 -2,0.892 -2,2 0,1.108 0.892,2 2,2 l 4,0 c 1.108,0 2,-0.892 2,-2 0,-1.108 -0.892,-2 -2,-2 l -4,0 z m 0,1 4,0 c 0.554,0 1,0.446 1,1 0,0.554 -0.446,1 -1,1 l -4,0 c -0.554,0 -1,-0.446 -1,-1 0,-0.554 0.446,-1 1,-1 z" opacity=".65"/><path id="rect4174-1" fill="#fff" fill-opacity="1" stroke="none" stroke-opacity=".706" d="M 4.0703125,292.5 C 4.0290105,292.66059 4,292.82617 4,293 c 0,1.108 0.892,2 2,2 l 4,0 c 1.108,0 2,-0.892 2,-2 0,-0.17383 -0.02901,-0.33941 -0.07031,-0.5 C 11.707736,293.36299 10.934165,294 10,294 l -4,0 c -0.9341652,0 -1.7077362,-0.63701 -1.9296875,-1.5 z" display="inline" enable-background="new" opacity=".1"/><rect id="rect4153" width="6" height="2" x="5" y="291" fill="#000" fill-opacity="1" stroke="none" stroke-opacity=".667" opacity=".3" rx="1" ry="1"/></g></svg>