<svg xmlns="http://www.w3.org/2000/svg" xmlns:svg="http://www.w3.org/2000/svg" id="svg4359" width="24" height="24" version="1.1"><metadata id="metadata4364"/><g id="layer1" transform="translate(0,-24)"><path color="#000" style="text-decoration-line:none;text-decoration-style:solid;text-decoration-color:#000;isolation:auto;mix-blend-mode:normal;solid-color:#000;solid-opacity:1" id="rect4144" fill="#f92d36" fill-opacity="1" fill-rule="nonzero" stroke="none" stroke-dasharray="none" stroke-dashoffset="0" stroke-linecap="butt" stroke-linejoin="miter" stroke-miterlimit="4" stroke-opacity="1" stroke-width="1" d="M 12 3 C 7.014 3 3 7.014 3 12 C 3 16.986 7.014 21 12 21 C 16.986 21 21 16.986 21 12 C 21 7.014 16.986 3 12 3 z M 12 4 C 16.432 4 20 7.568 20 12 C 20 16.432 16.432 20 12 20 C 7.568 20 4 16.432 4 12 C 4 7.568 7.568 4 12 4 z" clip-rule="nonzero" color-interpolation="sRGB" color-interpolation-filters="linearRGB" color-rendering="auto" display="inline" enable-background="accumulate" image-rendering="auto" opacity="1" overflow="visible" shape-rendering="auto" text-decoration="none" text-rendering="auto" transform="translate(0,24)" visibility="visible"/><rect clip-rule="nonzero" style="text-decoration-line:none;text-decoration-style:solid;text-decoration-color:#000;isolation:auto;mix-blend-mode:normal;solid-color:#000;solid-opacity:1" id="rect4149" width="1" height="17" x="16.471" y="25.441" fill="#f92d36" fill-opacity="1" fill-rule="nonzero" stroke="none" stroke-dasharray="none" stroke-dashoffset="0" stroke-linecap="butt" stroke-linejoin="miter" stroke-miterlimit="4" stroke-opacity="1" stroke-width="1" color="#000" color-interpolation="sRGB" color-interpolation-filters="linearRGB" color-rendering="auto" display="inline" enable-background="accumulate" image-rendering="auto" opacity="1" overflow="visible" ry="0" shape-rendering="auto" text-decoration="none" text-rendering="auto" transform="matrix(-0.70710678,0.70710678,0.70710678,0.70710678,0,0)" visibility="visible"/></g></svg>