<svg xmlns="http://www.w3.org/2000/svg" xmlns:svg="http://www.w3.org/2000/svg" id="svg4359" width="24" height="24" version="1.1"><metadata id="metadata4364"/><g id="layer1" transform="translate(0,-24)"><path id="rect4193" fill="#424854" fill-opacity="1" stroke="none" d="m 6,27 0,1 0,4 -2,0 -1,0 0,1 0,8 0,1 1,0 3,0 0,3 1,0 8,0 1,0 0,-3 4,0 0,-1 0,-9 -3,0 0,-5 -11,0 z m 1,1 10,0 0,4 -10,0 z m 1,1 0,1 8,0 0,-1 z m -4,4 16,0 0,8 -4,0 0,-1 0,-1 -8,0 0,1 0,1 -4,0 z m 1,1 0,1 4,0 0,-1 z m 4,6 6,0 0,1 -6,0 z m -1,2 8,0 0,2 -8,0 z" opacity="1"/></g></svg>