<svg xmlns="http://www.w3.org/2000/svg" xmlns:svg="http://www.w3.org/2000/svg" id="svg4359" width="24" height="24" version="1.1"><metadata id="metadata4364"/><g id="layer1" transform="translate(0,-24)"><path color="#000" style="text-decoration-line:none;text-decoration-style:solid;text-decoration-color:#000;isolation:auto;mix-blend-mode:normal;solid-color:#000;solid-opacity:1" id="rect4167" fill="#424854" fill-opacity="1" fill-rule="nonzero" stroke="none" stroke-dasharray="none" stroke-dashoffset="0" stroke-linecap="butt" stroke-linejoin="miter" stroke-miterlimit="4" stroke-opacity="1" stroke-width="1" d="M 9 3 L 9 4 L 9 10 L 6.4101562 10 L 6 10 L 6 11 L 6 11.003906 L 11.996094 17 L 12 17 L 12.003906 17 L 18.003906 11 L 18 11 L 18 10 L 15 10 L 15 3 L 9 3 z M 10 4 L 14 4 L 14 11 L 15 11 L 16.589844 11 L 12 15.589844 L 7.4101562 11 L 10 11 L 10 10 L 10 4 z M 4 19 L 4 20 L 4 21 L 20 21 L 20 20 L 20 19 L 19 19 L 19 20 L 5 20 L 5 19 L 4 19 z" clip-rule="nonzero" color-interpolation="sRGB" color-interpolation-filters="linearRGB" color-rendering="auto" display="inline" enable-background="accumulate" image-rendering="auto" opacity="1" overflow="visible" shape-rendering="auto" text-decoration="none" text-rendering="auto" transform="translate(0,24)" visibility="visible"/></g></svg>