<svg xmlns="http://www.w3.org/2000/svg" xmlns:svg="http://www.w3.org/2000/svg" id="svg4359" width="24" height="24" version="1.1"><metadata id="metadata4364"/><g id="layer1" transform="translate(1,-25)"><path id="rect4204" fill="#424854" fill-opacity="1" stroke="none" stroke-dasharray="none" stroke-miterlimit="4" stroke-opacity=".55" stroke-width="2.8" d="m 9,28 3,3 9,0 0,1 0,13 0,1 L 1,46 1,45 1,32 1,31 1,29 1,28 Z M 8.5,29 8.400391,29 2,29 2,30 2,31 9.400391,31 9.5,31 10.400391,31 10.5,31 10,30.5 9.5,30 9,29.5 Z m 11.5,3 -8,0 -10,0 0,13 18,0 z" opacity="1"/></g></svg>