<svg xmlns="http://www.w3.org/2000/svg" xmlns:svg="http://www.w3.org/2000/svg" id="svg4359" width="24" height="24" version="1.1"><metadata id="metadata4364"/><g id="layer1" transform="translate(0,-24)"><path id="rect3023" fill="#424854" fill-opacity="1" d="m 4,3 0,5 1,0 0,-4 14,0 0,4 1,0 0,-5 z M 6.2929688,9.3496094 4,11.642578 l 0.00781,0.0078 -0.00781,0 0,1 L 4,14 l 0,1 6,6 1,0 9,0 0,-5.724609 0,-0.875 0,-0.341797 -0.0957,-0.101563 L 19.589844,13.642578 18.003906,12.056641 17.292969,11.349609 17,11.642578 l 0,0.0078 -0.002,0 0,0.0078 -0.0078,-0.0078 -1.583984,1.585937 -1.294922,-1.292969 -2.296875,-2.2929684 -0.002,0.00195 L 11.511719,9.3515625 9.21875,11.642578 8.9042969,11.957031 8.5898438,11.642578 7.0039062,10.056641 Z m 0.00195,1.4140626 1.5859375,1.585937 1.0234375,1.021485 1.0214843,-1.021485 1.5878908,-1.585937 1.888672,1.886719 2.003906,2 0.707031,-0.707032 0.884766,-0.886718 0,0.59375 0,1 0.002,0 0,-1 0,-0.591797 0.294922,-0.294922 1.585937,1.585937 L 19,14.46875 19,20 11,20 11,14 5,14 5,12.058594 Z M 5.40625,15 10,15 l 0,4.59375 z" transform="translate(0,24)"/></g></svg>