<svg xmlns="http://www.w3.org/2000/svg" xmlns:svg="http://www.w3.org/2000/svg" id="svg4359" width="24" height="24" version="1.1"><metadata id="metadata4364"/><g id="layer1" transform="translate(0,-24)"><path color="#000" style="text-decoration-line:none;text-decoration-style:solid;text-decoration-color:#000;isolation:auto;mix-blend-mode:normal;solid-color:#000;solid-opacity:1" id="rect4200" fill="#424854" fill-opacity="1" fill-rule="nonzero" stroke="none" stroke-dasharray="none" stroke-dashoffset="0" stroke-linecap="butt" stroke-linejoin="miter" stroke-miterlimit="4" stroke-opacity="1" stroke-width="1" d="M 9.5 3 C 5.899 3 3 5.899 3 9.5 C 3 13.101 5.899 16 9.5 16 C 11.117833 16 12.589402 15.410525 13.724609 14.439453 L 20.285156 21 L 20.992188 20.292969 L 14.433594 13.732422 C 15.408449 12.596235 16 11.121342 16 9.5 C 16 5.899 13.101 3 9.5 3 z M 9.5 4 C 12.547 4 15 6.453 15 9.5 C 15 12.547 12.547 15 9.5 15 C 6.453 15 4 12.547 4 9.5 C 4 6.453 6.453 4 9.5 4 z M 9.5 6 C 9.3286269 6 9.1646509 6.0252576 9 6.0488281 L 9 7.0507812 C 9.1613003 7.0183263 9.3288603 7 9.5 7 C 10.885 7 12 8.115 12 9.5 C 12 9.8909512 11.90282 10.255065 11.744141 10.583984 L 12.607422 11.083984 C 12.850415 10.606853 13 10.074116 13 9.5 C 13 7.561 11.439 6 9.5 6 z" clip-rule="nonzero" color-interpolation="sRGB" color-interpolation-filters="linearRGB" color-rendering="auto" display="inline" enable-background="accumulate" image-rendering="auto" opacity="1" overflow="visible" shape-rendering="auto" text-decoration="none" text-rendering="auto" transform="translate(0,24)" visibility="visible"/></g></svg>