<svg xmlns="http://www.w3.org/2000/svg" xmlns:svg="http://www.w3.org/2000/svg" id="svg4359" width="24" height="24" version="1.1"><metadata id="metadata4364"/><g id="layer1" transform="translate(0,-24)"><path id="rect3023" fill="#424854" fill-opacity="1" d="M 8 3 L 8 5 L 4 5 L 4 12 L 5 12 L 5 6 L 8 6 L 8 7 L 16 7 L 16 6 L 19 6 L 19 20 L 12 20 L 12 21 L 20 21 L 20 5 L 16 5 L 16 3 L 8 3 z M 9 4 L 15 4 L 15 5 L 15 6 L 9 6 L 9 5 L 9 4 z M 4 13 L 4 21 L 11 21 L 11 13 L 4 13 z M 5 14 L 10 14 L 10 20 L 5 20 L 5 14 z" transform="translate(0,24)"/></g></svg>