<svg xmlns="http://www.w3.org/2000/svg" xmlns:svg="http://www.w3.org/2000/svg" id="svg4359" width="24" height="24" version="1.1"><metadata id="metadata4364"/><g id="layer1" transform="translate(0,-24)"><path color="#000" style="text-decoration-line:none;text-decoration-style:solid;text-decoration-color:#000;isolation:auto;mix-blend-mode:normal;solid-color:#000;solid-opacity:1" id="rect4157" fill="#424854" fill-opacity="1" fill-rule="nonzero" stroke="none" stroke-dasharray="none" stroke-dashoffset="0" stroke-linecap="butt" stroke-linejoin="miter" stroke-miterlimit="4" stroke-opacity="1" stroke-width="1" d="m 12,27 -3,2.998371 0,-1.000108 -3,0 -1,0 0,1.000108 0,4.000435 -2,2.000217 1,0 0,8.000868 L 4,45 l 7,0 0,-1.000109 0,-4.000434 2,0 L 13,45 l 7,0 0,-1.000109 0,-8.000868 1,0 L 12,27 Z m 0,1.414216 7.585938,7.584807 -0.585938,0 0,8.000868 -5,0 0,-5.000542 -3,0 -1,0 0,1.000108 0,4.000434 -5,0 0,-8.000868 -0.5859375,0 L 12,28.414216 Z m -6,1.584155 2,0 0,1.000109 -2,2.000217 0,-3.000326 z" clip-rule="nonzero" color-interpolation="sRGB" color-interpolation-filters="linearRGB" color-rendering="auto" display="inline" enable-background="accumulate" image-rendering="auto" opacity="1" overflow="visible" shape-rendering="auto" text-decoration="none" text-rendering="auto" visibility="visible"/></g></svg>