<svg xmlns="http://www.w3.org/2000/svg" xmlns:svg="http://www.w3.org/2000/svg" id="svg3760" width="24" height="24" version="1.1" viewBox="0 0 24 24"><metadata id="metadata3765"/><g id="layer1" transform="translate(-552.72253,-582.11945)"><path id="rect4165-3" fill="#424854" fill-opacity="1" stroke="none" d="M 3,3 3,4 3,10 9,10 9,9 9,3 8,3 3,3 Z M 4,4 8,4 8,9 4,9 4,4 Z m 9,0 0,6 5,0 1,0 0,-1 0,-4 0,-1 -1,0 -4,0 -1,0 z m 1,1 4,0 0,4 -4,0 0,-4 z m -11,7 0,1 16,0 0,-1 -16,0 z m 10,3 0,1 0,3 6,0 0,-1 0,-3 -1,0 -5,0 z m 1,1 4,0 0,2 -4,0 0,-2 z" opacity="1" transform="translate(553.72253,583.11926)"/><rect id="rect4151" width="4" height="2" x="567.723" y="599.119" fill="#c66d14" fill-opacity="0" stroke="none" stroke-dasharray="none" stroke-dashoffset="0" stroke-linecap="square" stroke-linejoin="miter" stroke-miterlimit="4" stroke-opacity="1" stroke-width=".1" opacity=".3"/></g></svg>