<svg xmlns="http://www.w3.org/2000/svg" xmlns:svg="http://www.w3.org/2000/svg" id="svg3760" width="24" height="24" version="1.1" viewBox="0 0 24 24"><metadata id="metadata3765"/><g id="layer1" transform="translate(-552.72253,-582.11926)"><path id="rect4120" fill="#424854" fill-opacity="1" stroke="none" d="m 572.72253,593.61926 -1,0 0,-2.5 -1,0 -3,0 -1,0 0,2.5 -4,0 0,-5.5 -1,0 -4,0 0,1 0,4.5 -1,0 0,1 1,0 0,5.5 1,0 3,0 1,0 0,-5.5 4,0 0,1.5 0,1 1,0 3,0 1,0 0,-1 0,-1.5 1,0 0,-1 z m -2,-1.5 0,4 -3,0 0,-4 3,0 z m -9,-3 0,10 -3,0 0,-10 3,0 z" opacity="1"/></g></svg>