<svg xmlns="http://www.w3.org/2000/svg" xmlns:svg="http://www.w3.org/2000/svg" id="svg3760" width="24" height="24" version="1.1" viewBox="0 0 24 24"><metadata id="metadata3765"/><g id="layer1" transform="translate(-552.72253,-582.11926)"><path id="rect4165" fill="#424854" fill-opacity="1" stroke="none" d="m 13,3 0,3 0,1 5,0 1,0 0,-3 0,-1 -6,0 z m 1,1 4,0 0,2 -4,0 0,-2 z M 3,9 3,10 19,10 19,9 3,9 Z m 0,3 0,6 0,1 5,0 1,0 0,-6 0,-1 -6,0 z m 10,0 0,6 1,0 4,0 1,0 0,-1 0,-4 0,-1 -1,0 -5,0 z m -9,1 4,0 0,5 -4,0 0,-5 z m 10,0 4,0 0,4 -4,0 0,-4 z" opacity="1" transform="translate(553.72253,583.11926)"/></g></svg>