<svg xmlns="http://www.w3.org/2000/svg" xmlns:svg="http://www.w3.org/2000/svg" id="svg3760" width="24" height="24" version="1.1" viewBox="0 0 24 24"><metadata id="metadata3765"/><g id="layer1" transform="translate(-552.72253,-582.11926)"><path id="rect4165-2" fill="#424854" fill-opacity="1" stroke="none" d="M 3,3 3,8 3,9 9,9 10,9 10,3 4,3 3,3 Z m 9,0 0,16 1,0 0,-16 -1,0 z M 4,4 9,4 9,8 4,8 4,4 Z m -1,9 0,1 0,4 0,1 1,0 4,0 1,0 0,-1 0,-5 -6,0 z m 12,0 0,5 0,1 3,0 1,0 0,-6 -3,0 -1,0 z m -11,1 4,0 0,4 -4,0 0,-4 z m 12,0 2,0 0,4 -2,0 0,-4 z" opacity="1" transform="translate(553.72253,583.11926)"/></g></svg>