<svg xmlns="http://www.w3.org/2000/svg" xmlns:svg="http://www.w3.org/2000/svg" id="svg3760" width="24" height="24" version="1.1" viewBox="0 0 24 24"><metadata id="metadata3765"/><g id="layer1" transform="translate(-552.72253,-582.11926)"><path id="rect4120" fill="#424854" fill-opacity="1" stroke="none" d="m 10.5,3 0,1 -2.5,0 0,1 0,3 0,1 2.5,0 0,4 -5.5,0 0,1 0,4 1,0 4.5,0 0,1 1,0 0,-1 5.5,0 0,-1 0,-3 0,-1 -5.5,0 0,-4 1.5,0 1,0 0,-1 0,-3 0,-1 -1,0 -1.5,0 0,-1 -1,0 z M 9,5 13,5 13,8 9,8 9,5 Z m -3,9 10,0 0,3 -10,0 0,-3 z" opacity="1" transform="translate(553.72253,583.11926)"/></g></svg>