<svg xmlns="http://www.w3.org/2000/svg" xmlns:svg="http://www.w3.org/2000/svg" id="svg3813" width="24" height="24" version="1.1"><metadata id="metadata3818"/><g id="layer1" transform="translate(-377.85715,-539.07648)"><path id="rect4237" fill="#f92d36" fill-opacity="1" stroke="none" d="M 5,3 5,19 17,19 17,3 5,3 Z m 1,1 1,0 0,10 1,0 7,0 0,-1 0,-9 1,0 0,14 L 6,18 6,4 Z m 2,1 2,0 0,1 2,0 0,-1 2,0 0,8 -6,0 0,-8 z m 3,10 c -0.553996,0 -1,0.446004 -1,1 0,0.553996 0.446004,1 1,1 0.553996,0 1,-0.446004 1,-1 0,-0.553996 -0.446004,-1 -1,-1 z" opacity="1" transform="translate(378.85714,540.07647)"/></g></svg>