<svg xmlns="http://www.w3.org/2000/svg" xmlns:svg="http://www.w3.org/2000/svg" id="svg3813" width="24" height="24" version="1.1"><metadata id="metadata3818"/><g id="layer1" transform="translate(-377.85715,-539.07648)"><path id="rect4108" fill="#424854" fill-opacity="1" stroke="none" d="m 6,7 0,1 4,0 0,-1 -4,0 z m 5,0 0,8 8,0 0,-8 -8,0 z m 1,1 6,0 0,6 -6,0 0,-6 z M 3,9 3,10 7,10 7,9 3,9 Z m 1,3 0,1 3,0 0,-1 -3,0 z m 2,2 0,1 4,0 0,-1 -4,0 z" opacity="1" transform="translate(378.85714,540.07647)"/></g></svg>