<svg xmlns="http://www.w3.org/2000/svg" xmlns:svg="http://www.w3.org/2000/svg" id="svg3813" width="24" height="24" version="1.1"><metadata id="metadata3818"/><g id="layer1" transform="translate(-377.85715,-539.07648)"><path id="rect4146" fill="#424854" fill-opacity="1" stroke="none" d="m 8,3 0,6 6,0 0,-6 -6,0 z m 1,1 4,0 0,4 -4,0 0,-4 z m -6,9 0,6 6,0 0,-6 -6,0 z m 10,0 0,6 6,0 0,-6 -6,0 z m -9,1 4,0 0,4 -4,0 0,-4 z m 10,0 4,0 0,4 -4,0 0,-4 z" opacity="1" transform="translate(378.85714,540.07647)"/></g></svg>