<svg xmlns="http://www.w3.org/2000/svg" xmlns:svg="http://www.w3.org/2000/svg" id="svg3813" width="24" height="24" version="1.1"><metadata id="metadata3818"/><g id="layer1" transform="translate(-377.85715,-539.07648)"><path id="rect4108" fill="#424854" fill-opacity="1" stroke="none" d="m 4,3 0,6 2,0 0,4 -3,0 0,6 6,0 0,-6 -2,0 0,-4 5,0 0,-2 4,0 0,7 -2,0 0,5 5,0 0,-5 -2,0 0,-7 0,-1 -5,0 0,-3 -8,0 z m 1,1 6,0 0,4 -6,0 0,-4 z m -1,10 4,0 0,4 -4,0 0,-4 z m 11,1 3,0 0,3 -3,0 0,-3 z" opacity="1" transform="translate(378.85714,540.07647)"/></g></svg>