<svg xmlns="http://www.w3.org/2000/svg" xmlns:svg="http://www.w3.org/2000/svg" id="svg3813" width="24" height="24" version="1.1" viewBox="0 0 24 24"><metadata id="metadata3818"/><g id="layer1" transform="translate(-377.85715,-539.07648)"><path id="path4158" fill="#424854" fill-opacity="1" stroke="none" d="m 397.85675,556.77608 -2.29297,2.29297 -0.20703,0.20703 -0.20703,-0.20703 -2.29297,-2.29297 0.70703,-0.70703 1.29297,1.29297 0,-3.28516 0,-3.29297 -1.29297,1.29297 -0.70703,-0.70703 2.29297,-2.29297 0.20703,-0.20703 0.20703,0.20703 2.29297,2.29297 -0.70703,0.70703 -1.29297,-1.29297 0,3.29297 0,3.28516 1.29297,-1.29297 0.70703,0.70703 z m -5,2.30078 -1,0 -8,0 -2,0 0,-1 2,0 0,-6 8,0 0,6 1,0 0,1 z m 0,-9 -1,0 -9,0 -1,0 0,-1 1,0 0,-6 9,0 0,6 1,0 0,1 z m -2,8 0,-5 -6,0 0,5 6,0 z m 0,-9 0,-5 -7,0 0,5 7,0 z" opacity="1"/></g></svg>