<svg xmlns="http://www.w3.org/2000/svg" xmlns:svg="http://www.w3.org/2000/svg" id="svg3813" width="24" height="24" version="1.1" viewBox="0 0 24 24"><metadata id="metadata3818"/><g id="layer1" transform="translate(-377.85715,-539.07648)"><path id="path4158" fill="#424854" fill-opacity="1" stroke="none" d="M 5.3007812,3 3.0078125,5.2929688 2.8007812,5.5 3.0078125,5.7070312 5.3007812,8 6.0078125,7.2929688 4.7148438,6 8,6 11.292969,6 10,7.2929688 10.707031,8 13,5.7070312 13.207031,5.5 13,5.2929688 10.707031,3 10,3.7070312 11.292969,5 8,5 4.7148438,5 6.0078125,3.7070312 5.3007812,3 Z M 3,8 l 0,1 0,8 0,2 1,0 0,-2 6,0 L 10,9 4,9 4,8 3,8 Z m 9,0 0,1 0,9 0,1 1,0 0,-1 6,0 0,-9 -6,0 0,-1 -1,0 z m -8,2 5,0 0,6 -5,0 0,-6 z m 9,0 5,0 0,7 -5,0 0,-7 z" opacity="1" transform="translate(378.85714,540.07647)"/></g></svg>