<svg xmlns="http://www.w3.org/2000/svg" xmlns:svg="http://www.w3.org/2000/svg" id="svg3813" width="24" height="24" version="1.1" viewBox="0 0 24 24"><metadata id="metadata3818"/><g id="layer1" transform="translate(-377.85715,-539.07648)"><path id="path4185" fill="#424854" fill-opacity="1" stroke="none" d="m 4,3 0,11 0.8046875,0.804688 -0.00391,0.002 3.2929688,3.292968 0.00391,-0.002 L 9,19 17,19 18,19 18,3 17,3 5,3 4,3 Z m 1,1 12,0 0,14 -7,0 0,-4 0,-1 -5,0 0,-9 z m 2,1 0,5 8,0 0,-5 -8,0 z m 1,1 6,0 0,3 -6,0 0,-3 z m -1,5 0,1 1,0 2,0 4,0 0,3 -3,0 0,1 4,0 0,-5 -8,0 z M 5.5,14 6,14 6.5,14 9,14 9,15 9,16 9,17 8.5,17 8,16.5 7.5,16 7,15.5 6.5,15 6,14.5 5.5,14 Z" opacity="1" transform="translate(378.85714,540.07647)"/></g></svg>