<svg xmlns="http://www.w3.org/2000/svg" xmlns:svg="http://www.w3.org/2000/svg" id="svg3813" width="24" height="24" version="1.1" viewBox="0 0 24 24"><metadata id="metadata3818"/><g id="layer1" transform="translate(-377.85715,-539.07648)"><path id="rect4109" fill="#424854" fill-opacity="1" stroke="none" d="m 393.85714,543.07647 -8,0 0,5 8,0 0,-5 z m 0,11 -8,0 0,5 8,0 0,-5 z m -1,-10 0,3 -6,0 0,-3 6,0 z m 0,11 0,3 -6,0 0,-3 6,0 z m -1,-6 -4,0 0,1 1,0 0,2 -1,0 0,1 4,0 0,-1 -1,0 0,-2 1,0 0,-1 z" opacity="1"/></g></svg>