<svg xmlns="http://www.w3.org/2000/svg" xmlns:svg="http://www.w3.org/2000/svg" id="svg3813" width="24" height="24" version="1.1" viewBox="0 0 24 24"><metadata id="metadata3818"/><g id="layer1" transform="translate(-377.85715,-539.07648)"><path id="path4183" fill="#424854" fill-opacity="1" stroke="none" d="M 7.6992188,3 6.9921875,3.7070312 8.2851562,5 5,5 5,6 8.2851562,6 6.9921875,7.2929688 7.6992188,8 9.9921875,5.7070312 10.199219,5.5 9.9921875,5.2929688 7.6992188,3 Z M 14.300781,3 12.007812,5.2929688 11.800781,5.5 12.007812,5.7070312 14.300781,8 15.007812,7.2929688 13.714844,6 l 3.292968,0 0,-1 L 13.714844,5 15.007812,3.7070312 14.300781,3 Z M 9,8 9,9 4,9 3,9 l 0,8 1,0 5,0 0,1 0,1 1,0 0,-1 0,-1 0,-8 0,-1 -1,0 z m 3,0 0,1 0,9 0,1 1,0 0,-1 6,0 0,-9 -6,0 0,-1 -1,0 z m -8,2 5,0 0,6 -5,0 0,-6 z m 9,0 5,0 0,7 -5,0 0,-7 z" opacity="1" transform="translate(378.85714,540.07647)"/></g></svg>