<svg xmlns="http://www.w3.org/2000/svg" xmlns:svg="http://www.w3.org/2000/svg" id="svg3813" width="24" height="24" version="1.1" viewBox="0 0 24 24"><metadata id="metadata3818"/><g id="layer1" transform="translate(-377.85715,-539.07648)"><path id="rect4109" fill="#424854" fill-opacity="1" stroke="none" d="m 3,7 0,8 5,0 0,-8 -5,0 z m 11,0 0,8 5,0 0,-8 -5,0 z M 4,8 7,8 7,14 4,14 4,8 Z m 11,0 3,0 0,6 -3,0 0,-6 z m -6,1 0,4 1,0 0,-1 2,0 0,1 1,0 0,-4 -1,0 0,1 -2,0 0,-1 -1,0 z" opacity="1" transform="translate(378.85714,540.07647)"/></g></svg>