<svg xmlns="http://www.w3.org/2000/svg" xmlns:svg="http://www.w3.org/2000/svg" id="svg4359" width="24" height="24" version="1.1"><metadata id="metadata4364"/><g id="layer1" transform="translate(1,-25)"><path id="rect4162" fill="#424854" fill-opacity="1" stroke="none" stroke-dasharray="none" stroke-miterlimit="4" stroke-opacity=".55" stroke-width="2.8" d="m 4,3 0,9 1,0 0,-8 12,0 0,14 -6,0 0,1 6,0 1,0 L 18,3 17,3 5,3 4,3 Z m 5,8 0,1 0.5,0 0.5,0 0,-1 -1,0 z m 0.5,1 C 8.669,12 8,12.669 8,13.5 c 0,0.65424 0.4180774,1.202197 1,1.408203 L 9,19 l 1,0 0,-4.091797 C 10.581923,14.702197 11,14.15424 11,13.5 11,12.669 10.331,12 9.5,12 Z M 5,13 5,15.091797 C 4.4180774,15.297803 4,15.84576 4,16.5 c 0,0.65424 0.4180774,1.202197 1,1.408203 L 5,19 6,19 6,17.908203 C 6.5819226,17.702197 7,17.15424 7,16.5 7,15.84576 6.5819226,15.297803 6,15.091797 L 6,13 5,13 Z m 4.5,0 C 9.777,13 10,13.223 10,13.5 10,13.777 9.777,14 9.5,14 9.223,14 9,13.777 9,13.5 9,13.223 9.223,13 9.5,13 Z m -4,3 C 5.777,16 6,16.223 6,16.5 6,16.777 5.777,17 5.5,17 5.223,17 5,16.777 5,16.5 5,16.223 5.223,16 5.5,16 Z" opacity="1" transform="translate(0,26)"/></g></svg>