<svg xmlns="http://www.w3.org/2000/svg" xmlns:svg="http://www.w3.org/2000/svg" id="svg2" width="24" height="24" version="1.1" viewBox="0 0 24 24"><metadata id="metadata7"/><g id="layer1" transform="translate(1,-1029.3622)"><path id="rect4162" fill="#424854" fill-opacity="1" stroke="none" stroke-dasharray="none" stroke-miterlimit="4" stroke-opacity=".55" stroke-width="2.8" d="m 0,3 0,11 0.8046875,0.804688 -0.003906,0 3.2929687,3.292968 0.00391,0 L 5,19 13,19 14,19 14,3 13,3 1,3 0,3 Z M 1,4 13,4 13,18 6,18 6,14 6,13 1,13 1,4 Z M 21.292969,7.5 18.5,10.292969 17.792969,11 18.5,11.707031 21.292969,14.5 22,13.792969 19.207031,11 22,8.2070312 21.292969,7.5 Z M 1.5,14 2,14 2.5,14 5,14 5,15 5,16 5,17 4.5,17 4,16.5 3.5,16 3,15.5 2.5,15 2,14.5 1.5,14 Z" opacity="1" transform="translate(0,1030.3622)"/></g></svg>