<svg xmlns="http://www.w3.org/2000/svg" xmlns:svg="http://www.w3.org/2000/svg" id="svg4359" width="24" height="24" version="1.1"><metadata id="metadata4364"/><g id="layer1" transform="translate(1,-25)"><path id="rect4156" fill="#424854" fill-opacity="1" stroke="none" stroke-dasharray="none" stroke-miterlimit="4" stroke-opacity=".55" stroke-width="2.8" d="M 8,3 8,4 8,9 5.6992188,9 5.703125,9.0039062 5,9.7070312 10.292969,15 11,15.707031 11.707031,15 17,9.7070312 16.296875,9.0039062 16.300781,9 16.292969,9 14,9 14,4 14,3 8,3 Z m 1,1 4,0 0,6 1,0 1.292969,0 L 11,14.292969 6.7070312,10 8,10 9,10 9,4 Z m -5,13 0,2 1,0 13,0 0,-1 0,-1 -1,0 0,1 -12,0 0,-1 -1,0 z" opacity="1" transform="translate(0,26)"/></g></svg>