<svg xmlns="http://www.w3.org/2000/svg" xmlns:svg="http://www.w3.org/2000/svg" id="svg4359" width="24" height="24" version="1.1"><metadata id="metadata4364"/><g id="layer1" transform="translate(1,-25)"><path id="rect4162" fill="#424854" fill-opacity="1" stroke="none" stroke-dasharray="none" stroke-miterlimit="4" stroke-opacity=".55" stroke-width="2.8" d="m 18,29 0,10 0,5 0,1 -1,0 -6,0 0,-1 6,0 0,-3.994141 L 17,38 l 0,-2 0,-6 -12,0 0,7 -1,0 0,-8 1,0 12,0 z m -8,9 0,6 0,1 -6,0 0,-7 1,0 z m -1,1 -4,0 0,5 4,0 z" opacity="1"/></g></svg>