<svg xmlns="http://www.w3.org/2000/svg" xmlns:svg="http://www.w3.org/2000/svg" id="svg4359" width="24" height="24" version="1.1"><metadata id="metadata4364"/><g id="layer1" transform="translate(1,-25)"><path id="rect4170" fill="#424854" fill-opacity="1" stroke="none" stroke-dasharray="none" stroke-miterlimit="4" stroke-opacity="1" stroke-width=".1" d="m 5,38 0,3 -3,0 0,1 3,0 0,3 1,0 0,-3 3,0 0,-1 -3,0 0,-3 -1,0 z" opacity="1"/><path id="rect4204" fill="#424854" fill-opacity="1" stroke="none" stroke-dasharray="none" stroke-miterlimit="4" stroke-opacity=".55" stroke-width="2.8" d="m 2,3 0,1 0,2 0,1 0,5 1,0 0,-5 10,0 6,0 0,11 -10,0 0,1 11,0 0,-1 L 20,7 20,6 13,6 10,3 2,3 Z M 3,4 9.4003906,4 9.5,4 10,4.5 10.5,5 11,5.5 11.5,6 11.400391,6 10.5,6 10.400391,6 3,6 3,5 3,4 Z" opacity="1" transform="translate(0,26)"/></g></svg>