<svg xmlns="http://www.w3.org/2000/svg" xmlns:svg="http://www.w3.org/2000/svg" id="svg2" width="24" height="24" version="1.1" viewBox="0 0 24 24"><metadata id="metadata7"/><g id="layer1" transform="translate(1,-1029.3622)"><path font-family="serif" style="line-height:125%;-inkscape-font-specification:serif" id="path4153" fill="#424854" fill-opacity="1" stroke="none" stroke-linecap="butt" stroke-linejoin="miter" stroke-opacity="1" stroke-width="1" d="m 3.0507812,3 0,0.7792969 1.1660157,0 3.171875,4.7519531 -3.1289063,4.564453 -1.2519531,0 0,0.771485 3.5957031,0 0,-0.771485 -1.4042968,0 2.65625,-3.8808592 2.5917972,3.8808592 -1.2968754,0 0,0.771485 4.3085934,0 0,-0.771485 -1.164062,0 -3.4277345,-5.1328124 2.8750005,-4.1835937 1.222656,0 0,-0.7792969 -3.558594,0 0,0.7792969 1.396484,0 -2.3945309,3.5 -2.328125,-3.5 1.28125,0 0,-0.7792969 -4.3105469,0 z m 10.4667968,8.818359 0,0.50586 0.574219,0 1.876953,4.607422 -0.330078,0.83789 c -0.116693,0.290134 -0.228706,0.483525 -0.335938,0.578125 -0.104078,0.0978 -0.244504,0.146485 -0.417968,0.146485 -0.189233,0 -0.32846,-0.04798 -0.419922,-0.142579 -0.08831,-0.09147 -0.141237,-0.244517 -0.160156,-0.458984 l -0.445313,0 0,0.960938 c 0.157694,0.0472 0.314209,0.08404 0.46875,0.109375 C 14.485819,18.988224 14.638877,19 14.787109,19 c 0.350081,0 0.620114,-0.07173 0.8125,-0.216797 0.192387,-0.141933 0.367697,-0.409714 0.525391,-0.800781 l 2.304688,-5.658203 0.5625,0 0,-0.50586 -1.888672,0 0,0.50586 0.753906,0 -1.416016,3.458984 -1.414062,-3.458984 0.804687,0 0,-0.50586 -2.314453,0 z" font-size="medium" font-stretch="normal" font-style="normal" font-variant="normal" font-weight="normal" letter-spacing="0" transform="translate(0,1030.3622)" word-spacing="0"/></g></svg>