<svg xmlns="http://www.w3.org/2000/svg" xmlns:svg="http://www.w3.org/2000/svg" id="svg2" width="24" height="24" version="1.1" viewBox="0 0 24 24"><metadata id="metadata7"/><g id="layer1" transform="translate(1,-1029.3622)"><path id="rect4191" fill="#424854" fill-opacity=".941" stroke="none" d="m 11,1033.3622 -1.9990229,4.9922 -6.000977,1 3.9941378,3.998 -1.010259,6.0098 1.1275036,-0.6758 0,0 0.8558867,-0.5117 L 11,1046.3603 l 0,0 3.032731,1.8144 0.855887,0.5117 1.127503,0.6758 -1.010259,-6.0098 3.994138,-3.998 -6.000977,-1 L 11,1033.3622 Z m 0,2.6856 0.84807,2.1171 -0.0078,0 0.441622,1.086 1.152907,0.1933 3.482168,0.5801 -2.983878,2.9883 0.162188,0.9668 0.5745,3.4082 -2.700538,-1.6133 0,0 -0.002,0 -0.967269,-0.5821 0,0 -0.969223,0.5821 0.588178,0.3515 0,0 -0.588178,-0.3535 -2.7005376,1.6133 0.5744993,-3.4083 0.1621886,-0.9667 0,0 -2.9838788,-2.9883 3.4821689,-0.5801 1.1529067,-0.1933 0.4416219,-1.086 -0.0078,0 0.84807,-2.1152 z" opacity=".94"/></g></svg>