<svg xmlns="http://www.w3.org/2000/svg" xmlns:svg="http://www.w3.org/2000/svg" id="svg3760" width="24" height="24" version="1.1"><metadata id="metadata3765"/><g id="layer1" transform="translate(-552.72253,-582.11926)"><path id="rect4112" fill="#424854" fill-opacity="1" stroke="none" d="m 3,3 0,7 0,1 9,0 1,0 0,-5 -1,0 0,4 L 4,10 4,4 8,4 8,3 3,3 Z m 6,0 0,5 1,0 0,-4 8,0 0,6 -4,0 0,1 4,0 1,0 0,-1 0,-6 0,-1 -1,0 -8,0 -1,0 z m -3,9 0,3 -3,0 0,1 3,0 0,3 1,0 0,-3 3,0 0,-1 -3,0 0,-3 -1,0 z" opacity="1" transform="translate(553.72253,583.11926)"/></g></svg>