<svg xmlns="http://www.w3.org/2000/svg" xmlns:svg="http://www.w3.org/2000/svg" id="svg3760" width="24" height="24" version="1.1"><metadata id="metadata3765"/><g id="layer1" transform="translate(-552.72253,-582.11926)"><path color="#000" style="text-decoration-line:none;text-decoration-style:solid;text-decoration-color:#000;isolation:auto;mix-blend-mode:normal;solid-color:#000;solid-opacity:1" id="rect4149" fill="#424854" fill-opacity="1" fill-rule="nonzero" stroke="none" stroke-dasharray="none" stroke-dashoffset="0" stroke-linecap="butt" stroke-linejoin="miter" stroke-miterlimit="4" stroke-opacity="1" stroke-width="1" d="m 3,3 0,1 0,14 0,1 16,0 0,-1 L 19,3 3,3 Z M 4,4 5,4 5,5 4,5 4,4 Z M 6,4 16,4 16,7 6,7 6,4 Z m 11,0 1,0 0,1 -1,0 0,-1 z M 4,6 5,6 5,7 4,7 4,6 Z m 13,0 1,0 0,1 -1,0 0,-1 z M 4,8 5,8 5,9 4,9 4,8 Z m 2,0 10,0 0,6 -10,0 0,-6 z m 11,0 1,0 0,1 -1,0 0,-1 z m -13,2 1,0 0,2 -1,0 0,-2 z m 13,0 1,0 0,2 -1,0 0,-2 z m -13,3 1,0 0,1 -1,0 0,-1 z m 13,0 1,0 0,1 -1,0 0,-1 z m -13,2 1,0 0,1 -1,0 0,-1 z m 2,0 10,0 0,3 -10,0 0,-3 z m 11,0 1,0 0,1 -1,0 0,-1 z m -13,2 1,0 0,1 -1,0 0,-1 z m 13,0 1,0 0,1 -1,0 0,-1 z" clip-rule="nonzero" color-interpolation="sRGB" color-interpolation-filters="linearRGB" color-rendering="auto" display="inline" enable-background="accumulate" image-rendering="auto" opacity="1" overflow="visible" shape-rendering="auto" text-decoration="none" text-rendering="auto" transform="translate(553.72253,583.11926)" visibility="visible"/></g></svg>