<svg xmlns="http://www.w3.org/2000/svg" xmlns:svg="http://www.w3.org/2000/svg" id="svg3760" width="24" height="24" version="1.1"><metadata id="metadata3765"/><g id="layer1" transform="translate(-552.72253,-582.11926)"><path color="#000" style="text-decoration-line:none;text-decoration-style:solid;text-decoration-color:#000;isolation:auto;mix-blend-mode:normal;solid-color:#000;solid-opacity:1" id="rect4149" fill="#424854" fill-opacity="1" fill-rule="nonzero" stroke="none" stroke-dasharray="none" stroke-dashoffset="0" stroke-linecap="butt" stroke-linejoin="miter" stroke-miterlimit="4" stroke-opacity="1" stroke-width="1" d="m 572.72252,594.11926 -0.70703,-0.70704 -2.79297,-2.79297 -0.70704,0.70704 2.29297,2.29297 -0.0859,-4e-5 -1.00001,0 -1,0 -8,0 -1,0 -1,0 -0.0859,-4e-5 2.29296,-2.29297 -0.70703,-0.70702 -2.79297,2.79296 -0.70703,0.70703 0.70703,0.70704 2.79297,2.79297 0.70704,-0.70704 -2.29298,-2.29297 0.0859,4e-5 11,0 1,0 0.0859,4e-5 -2.29296,2.29297 0.70703,0.70702 2.79297,-2.79296 0.70703,-0.70703 z" clip-rule="nonzero" color-interpolation="sRGB" color-interpolation-filters="linearRGB" color-rendering="auto" display="inline" enable-background="accumulate" image-rendering="auto" opacity="1" overflow="visible" shape-rendering="auto" text-decoration="none" text-rendering="auto" visibility="visible"/></g></svg>