<svg xmlns="http://www.w3.org/2000/svg" xmlns:svg="http://www.w3.org/2000/svg" id="svg3760" width="24" height="24" version="1.1"><metadata id="metadata3765"/><g id="layer1" transform="translate(-552.72253,-582.11926)"><path color="#000" style="text-decoration-line:none;text-decoration-style:solid;text-decoration-color:#000;isolation:auto;mix-blend-mode:normal;solid-color:#000;solid-opacity:1" id="rect4149" fill="#424854" fill-opacity="1" fill-rule="nonzero" stroke="none" stroke-dasharray="none" stroke-dashoffset="0" stroke-linecap="butt" stroke-linejoin="miter" stroke-miterlimit="4" stroke-opacity="1" stroke-width="1" d="M 11,3 10.292969,3.7070312 7.5,6.5 8.2070312,7.2070312 10.5,4.9140625 10.5,5 l 0,1 0,1 0,8 0,1 0,1 0,0.08594 L 8.2070312,14.792969 7.5,15.5 10.292969,18.292969 11,19 11.707031,18.292969 14.5,15.5 13.792969,14.792969 11.5,17.085938 11.5,17 l 0,-11 0,-1 0,-0.085937 2.292969,2.2929687 L 14.5,6.5 11.707031,3.7070312 11,3 Z" clip-rule="nonzero" color-interpolation="sRGB" color-interpolation-filters="linearRGB" color-rendering="auto" display="inline" enable-background="accumulate" image-rendering="auto" opacity="1" overflow="visible" shape-rendering="auto" text-decoration="none" text-rendering="auto" transform="translate(553.72253,583.11926)" visibility="visible"/></g></svg>