<svg xmlns="http://www.w3.org/2000/svg" xmlns:svg="http://www.w3.org/2000/svg" id="svg4359" width="24" height="24" version="1.1"><metadata id="metadata4364"/><g id="layer1" transform="translate(1,-25)"><path id="rect4120" fill="#424854" fill-opacity="1" stroke="none" d="m 11.59375,3 -5,5 L 4,8 3,8 3,9 3,13 3,14 4,14 6.5859375,14 7.296875,13.289062 7.0078125,13 7,13.007812 7,13 7,8.9921875 7.0078125,9 12.007812,4 13,4 l 0,3.5859375 1,-1 L 14,3 l -2.400391,0 0,0.00586 L 11.59375,3 Z M 18.292969,3 3,18.292969 3.7070312,19 19,3.7070312 18.292969,3 Z m -0.97461,3.0957031 -0.71289,0.7128907 C 17.478126,7.9764385 18,9.4235776 18,11 c 0,1.939 -0.779672,3.689828 -2.044922,4.955078 l 0.707031,0.707031 C 18.108109,15.216109 19,13.216 19,11 19,9.1461445 18.368993,7.4493483 17.318359,6.0957031 Z m -1.427734,1.4277344 -0.71875,0.71875 C 15.693873,9.0323034 16,9.978168 16,11 c 0,1.385 -0.557185,2.635315 -1.460938,3.539062 l 0.707032,0.707032 C 16.330594,14.161594 17,12.662 17,11 17,9.7006822 16.587367,8.5035006 15.890625,7.5234375 Z M 4,9 5,9 5,13 4,13 4,9 Z M 14,9.4140625 13,10.414062 13,18 12.007812,18 8.7109375,14.703125 8.0039062,15.410156 11.59375,19 l 0.0059,-0.0059 0,0.0059 L 14,19 14,18 14,9.4140625 Z" opacity="1" transform="translate(0,26)"/></g></svg>