<svg xmlns="http://www.w3.org/2000/svg" xmlns:svg="http://www.w3.org/2000/svg" id="svg3760" width="24" height="24" version="1.1"><metadata id="metadata3765"/><g id="layer1" transform="translate(-552.72253,-582.11926)"><g id="layer1-1" transform="translate(553.72273,557.11926)"><path id="rect4291" fill="#424854" fill-opacity="1" stroke="none" d="m 8.6835938,33.000016 -0.6542969,0.399172 -0.029297,0 0,0.03162 0,11.162937 L 8,45 8.40625,45 9,45 l 0.0078,0 2.8125,-2.8125 0.650391,-0.650391 -0.0039,-0.0098 0.0078,0.01172 L 17,41 17,40.9941 17.599609,40.353475 Z M 9,34.667984 15.892578,40.125 l -3.851562,0.435547 -0.002,-0.0059 -0.603515,0.603515 L 9,43.59375 Z" opacity="1"/><path id="rect4451" fill="#424854" fill-opacity="1" stroke="none" d="m 7,29 c -1.108,0 -2,0.892 -2,2 0,1.108 0.892,2 2,2 1.108,0 2,-0.892 2,-2 0,-1.108 -0.892,-2 -2,-2 z m 0,1 c 0.554,0 1,0.446 1,1 0,0.554 -0.446,1 -1,1 -0.554,0 -1,-0.446 -1,-1 0,-0.554 0.446,-1 1,-1 z" opacity="1"/></g></g></svg>