<svg xmlns="http://www.w3.org/2000/svg" xmlns:svg="http://www.w3.org/2000/svg" id="svg3869" width="24" height="24" version="1.1"><metadata id="metadata3874"/><g id="layer1" transform="translate(-325,-533.36218)"><path id="rect4144" fill="#424854" fill-opacity="1" stroke="none" stroke-dasharray="none" stroke-miterlimit="4" stroke-opacity=".55" stroke-width="2.8" d="m 347,537.3622 0,1 0,8 0,6 0,0.41406 0,0.58594 -1,0 -6,0 -6,0 0,-1 6,0 6,0 0,-0.58594 -0.46289,-0.46289 -6.26758,-6.26758 -1.45312,1.45118 -0.81446,0.81445 -0.002,0 -0.81641,-0.81445 -1.45312,-1.45118 -1.31641,1.31641 -1.41406,0 2.02344,-2.02344 -5.75196,-5.7539 -0.22265,-0.22266 -0.0488,0 0,0.22266 0,7.77734 -1,0 0,-9 0.0488,0 0.95117,0 0.46289,0 17.07422,0 0.46289,0 1,0 z m -1,1 -0.0488,0 -0.22265,0.22266 -5.75196,5.7539 6.02344,6.02344 0,-4 0,-7.77734 0,-0.22266 z m -1.46289,0 -15.07422,0 7.53711,7.53711 7.53711,-7.53711 z" opacity="1"/><path id="rect4156" fill="#f92d36" fill-opacity="1" stroke="none" stroke-dasharray="none" stroke-miterlimit="4" stroke-opacity=".55" stroke-width="2.8" d="m 330,547.3622 c -1.66199,0 -3,1.338 -3,3 0,1.662 1.33801,3 3,3 1.662,0 3,-1.338 3,-3 0,-1.662 -1.338,-3 -3,-3 z m 0,1 c 0.37163,0 0.7142,0.10606 1.01172,0.28125 l -2.73047,2.73047 C 328.10607,551.0764 328,550.73383 328,550.3622 c 0,-1.108 0.892,-2 2,-2 z m 1.71875,0.98828 c 0.17519,0.29752 0.28125,0.6401 0.28125,1.01172 0,1.108 -0.892,2 -2,2 -0.37162,0 -0.7142,-0.10606 -1.01172,-0.28125 z" opacity="1"/></g></svg>