<svg xmlns="http://www.w3.org/2000/svg" xmlns:svg="http://www.w3.org/2000/svg" id="svg3869" width="24" height="24" version="1.1"><metadata id="metadata3874"/><g id="layer1" transform="translate(-325,-533.36218)"><path id="rect4144" fill="#424854" fill-opacity="1" stroke="none" stroke-dasharray="none" stroke-miterlimit="4" stroke-opacity=".55" stroke-width="2.8" d="M 1,3 1,10 2,10 2,4.2226562 2,4 2.0488281,4 2.2714844,4.2226562 8.0234375,9.9765625 6,12 7.4140625,12 8.7304688,10.683594 10.183594,12.134766 11,12.949219 l 0.002,0 0.814453,-0.814453 1.453125,-1.451172 6.267578,6.267578 L 20,17.414062 20,18 l -6,0 -4,0 0,1 4,0 6,0 1,0 0,-0.585938 L 21,18 21,12 21,4 21,3 20,3 19.537109,3 2.4628906,3 2,3 1.0488281,3 1,3 Z M 3.4628906,4 18.537109,4 11,11.537109 3.4628906,4 Z M 19.951172,4 20,4 20,4.2226562 20,12 20,16 13.976562,9.9765625 19.728516,4.2226562 19.951172,4 Z M 3.5,12 C 2.669,12 2,12.669 2,13.5 l 0,1.5 -1,0 0,4 1,0 4,0 0,-1 0,-3 -1,0 -1,0 -1,0 0,-1 0,-0.5 C 3,13.223 3.223,13 3.5,13 L 4,13 4.9082031,13 C 4.7021974,12.418077 4.1542402,12 3.5,12 Z m -1.5,4 3,0 0,2 -3,0 0,-2 z" opacity="1" transform="translate(326,534.3622)"/></g></svg>