<svg xmlns="http://www.w3.org/2000/svg" xmlns:svg="http://www.w3.org/2000/svg" id="svg3869" width="24" height="24" version="1.1"><metadata id="metadata3874"/><g id="layer1" transform="translate(-325,-533.36218)"><path color="#000" style="text-decoration-line:none;text-decoration-style:solid;text-decoration-color:#000;isolation:auto;mix-blend-mode:normal;solid-color:#000;solid-opacity:1" id="rect4173" fill="#424854" fill-opacity="1" fill-rule="nonzero" stroke="none" stroke-dasharray="none" stroke-dashoffset="0" stroke-linecap="butt" stroke-linejoin="miter" stroke-miterlimit="4" stroke-opacity="1" stroke-width="1" d="m 336,537.3622 c -1.662,0 -3,1.338 -3,3 l 0,1 0,8 c 0,2.216 1.784,4 4,4 2.216,0 4,-1.784 4,-4 l 0,-9 -1,0 0,9 c 0,1.662 -1.338,3 -3,3 -1.662,0 -3,-1.338 -3,-3 l 0,-9 c 0,-1.108 0.892,-2 2,-2 1.108,0 2,0.892 2,2 l 0,1 0,8 c 0,0.554 -0.446,1 -1,1 -0.554,0 -1,-0.446 -1,-1 l 0,-1 0,-7 -1,0 0,8 c 0,1.108 0.892,2 2,2 1.108,0 2,-0.892 2,-2 l 0,-8 0,-1 c 0,-1.662 -1.338,-3 -3,-3 z" clip-rule="nonzero" color-interpolation="sRGB" color-interpolation-filters="linearRGB" color-rendering="auto" display="inline" enable-background="accumulate" image-rendering="auto" opacity="1" overflow="visible" shape-rendering="auto" text-decoration="none" text-rendering="auto" visibility="visible"/></g></svg>