<svg xmlns="http://www.w3.org/2000/svg" xmlns:svg="http://www.w3.org/2000/svg" id="svg3869" width="24" height="24" version="1.1"><metadata id="metadata3874"/><g id="layer1" transform="translate(-325,-533.36218)"><path id="rect4170" fill="#424854" fill-opacity="1" stroke="none" stroke-dasharray="none" stroke-miterlimit="4" stroke-opacity=".55" stroke-width="2.8" d="M 8,3 8,4 8,8 7.109375,8 5.9550781,8 2,14.849609 2,16.310547 2,19 l 4,0 9,0 1,0 4,0 0,-2.689453 L 20,15 20,14.849609 16.044922,8 16,8 14,8 14,4 14,3 8,3 Z m 1,1 4,0 0,7.298828 1,0 1.292969,0 L 11,15.591797 6.7070312,11.298828 l 1.2929688,0 1,0 L 9,4 Z M 6.53125,9 8,9 l 0,1.298828 -2.21875,0 L 6.53125,9 Z M 14,9 l 1.46875,0 0.75,1.298828 -2.21875,0 L 14,9 Z M 5.2363281,11.242188 10.292969,16.298828 10.994141,17 7,17 6,15 3.0664062,15 5.2363281,11.242188 Z m 11.5273439,0 L 18.933594,15 16,15 l -1,2 -3.994141,0 0.701172,-0.701172 5.056641,-5.05664 z M 3,16 l 2.4003906,0 1,2 L 3,18 3,16 Z M 16.599609,16 19,16 l 0,2 -3.400391,0 1,-2 z" opacity="1" transform="translate(326,534.3622)"/></g></svg>