<svg xmlns="http://www.w3.org/2000/svg" xmlns:svg="http://www.w3.org/2000/svg" id="svg3869" width="24" height="24" version="1.1"><metadata id="metadata3874"/><g id="layer1" transform="translate(-325,-533.36218)"><path id="rect4144" fill="#424854" fill-opacity="1" stroke="none" stroke-dasharray="none" stroke-miterlimit="4" stroke-opacity=".55" stroke-width="2.8" d="M 1,3 1,4 1,18 1,18.414062 1,19 2,19 21,19 21,18.414062 21,18 21,17 21,3 20.951172,3 20,3 2.4628906,3 2,3 1,3 Z M 2,4 2.0488281,4 8.0234375,9.9765625 2,16 2,4 Z M 3.4628906,4 18.537109,4 11,11.537109 3.4628906,4 Z M 19.951172,4 20,4 20,16 13.976562,9.9765625 19.951172,4 Z M 8.7304688,10.683594 11,12.951172 13.269531,10.683594 19.537109,16.951172 20,17.414062 20,18 2,18 2,17.414062 2.4628906,16.951172 8.7304688,10.683594 Z" opacity="1" transform="translate(326,534.3622)"/></g></svg>