<svg xmlns="http://www.w3.org/2000/svg" xmlns:svg="http://www.w3.org/2000/svg" id="svg3869" width="24" height="24" version="1.1"><metadata id="metadata3874"/><g id="layer1" transform="translate(-325,-533.36218)"><path id="rect4144" fill="#424854" fill-opacity="1" stroke="none" stroke-dasharray="none" stroke-miterlimit="4" stroke-opacity=".55" stroke-width="2.8" d="M 6,3 6,4 19.537109,4 12,11.537109 6,5.5371094 6,6.9511719 9.0234375,9.9765625 6,13 6,14.414062 9.7304688,10.683594 12,12.951172 14.269531,10.683594 20.537109,16.951172 21,17.414062 21,18 6,18 6,19 22,19 22,18.414062 22,18 22,17 22,3 21.951172,3 21,3 6,3 Z M 20.951172,4 21,4 21,16 14.976562,9.9765625 20.951172,4 Z" opacity="1" transform="translate(326,534.3622)"/><rect id="rect4164" width="5" height="1" x="326" y="543.362" fill="#424854" fill-opacity="1" stroke="none" stroke-dasharray="none" stroke-miterlimit="4" stroke-opacity=".55" stroke-width="2.8" opacity="1"/><rect id="rect4166" width="3" height="1" x="328" y="546.362" fill="#424854" fill-opacity="1" stroke="none" stroke-dasharray="none" stroke-miterlimit="4" stroke-opacity=".55" stroke-width="2.8" opacity="1"/></g></svg>