<svg xmlns="http://www.w3.org/2000/svg" xmlns:svg="http://www.w3.org/2000/svg" id="svg3869" width="24" height="24" version="1.1"><metadata id="metadata3874"/><g id="layer1" transform="translate(-325,-533.36218)"><path id="rect4162" fill="#424854" fill-opacity="1" stroke="none" stroke-dasharray="none" stroke-miterlimit="4" stroke-opacity=".55" stroke-width="2.8" d="M 3,3 3,7 7,7 7,3 3,3 Z M 4,4 6,4 6,6 4,6 4,4 Z M 8,4 8,5 20,5 20,4 8,4 Z M 3,9 3,13 7,13 7,9 3,9 Z m 1,1 2,0 0,2 -2,0 0,-2 z m 4,0 0,1 12,0 0,-1 -12,0 z m 11.292969,2.613281 -4.591797,4.591797 -1.146484,-1.146484 -0.707032,0.707031 1.845703,1.847656 0.0059,-0.0078 0.0078,0.0078 L 20,13.320312 19.292969,12.613281 Z M 3,15 l 0,4 4,0 0,-4 -4,0 z m 1,1 2,0 0,2 -2,0 0,-2 z" opacity="1" transform="translate(326,534.3622)"/></g></svg>