<svg xmlns="http://www.w3.org/2000/svg" xmlns:svg="http://www.w3.org/2000/svg" id="svg3869" width="24" height="24" version="1.1"><metadata id="metadata3874"/><g id="layer1" transform="translate(-325,-533.36218)"><path id="rect4144" fill="#424854" fill-opacity="1" stroke="none" stroke-dasharray="none" stroke-miterlimit="4" stroke-opacity=".55" stroke-width="2.8" d="M 3,3 3,4 3,5 3,6 1,9 1,10 1,11.400391 1,12 1,18 1,18.414062 1,19 l 1,0 6,0 6,0 0,-1 L 2,18 2,17.414062 2,16 2,12 2,11 2,10.400391 2,10 2.4003906,10 3,10 4.078125,10 11,13.996094 17.921875,10 18,10 l 1,0 1,0 0,0.400391 L 20,11 l 0,1 1,0 0,-0.599609 L 21,9.9863281 21,9 19,5 19,3 4,3 3,3 Z M 4,4 18,4 18,5 18,8.7988281 11,12.839844 4,8.7988281 4,5 4,4 Z M 5,5 5,5.9863281 4.9863281,6 5,6 17,6 17.013672,6 17,5.9863281 17,5 5,5 Z m 0,2 0,1 7,0 0,-1 -7,0 z" opacity="1" transform="translate(326,534.3622)"/><path id="rect4071" fill="#424854" fill-opacity="1" stroke="none" d="m 347.207,549.8622 -0.207,0.20703 -3.293,3.29297 -0.707,-0.70703 2.2929,-2.29297 -4.2929,0 0,-1 4.2929,0 -2.2929,-2.29297 0.707,-0.70703 3.293,3.29297 0.207,0.20703 z"/></g></svg>