<svg xmlns="http://www.w3.org/2000/svg" xmlns:svg="http://www.w3.org/2000/svg" id="svg3869" width="24" height="24" version="1.1"><metadata id="metadata3874"/><g id="layer1" transform="translate(-325,-533.36218)"><path id="rect4144" fill="#424854" fill-opacity="1" stroke="none" stroke-dasharray="none" stroke-miterlimit="4" stroke-opacity=".55" stroke-width="2.8" d="M 2,3 2,10 3,10 3,4.2226562 3,4 3.0488281,4 3.2714844,4.2226562 9.0234375,9.9765625 7,12 8.4140625,12 9.7304688,10.683594 11.183594,12.134766 12,12.949219 l 0.002,0 0.814453,-0.814453 1.453125,-1.451172 6.267578,6.267578 L 21,17.414062 21,18 l -6,0 -4,0 0,1 4,0 6,0 1,0 0,-0.585938 L 22,18 22,12 22,4 22,3 21,3 20.537109,3 3.4628906,3 3,3 2.0488281,3 2,3 Z M 4.4628906,4 19.537109,4 12,11.537109 4.4628906,4 Z M 20.951172,4 21,4 21,4.2226562 21,12 21,16 14.976562,9.9765625 20.728516,4.2226562 20.951172,4 Z M 7.4453125,13 2.8535156,17.591797 1.7070312,16.445312 1,17.152344 2.8457031,19 2.8515625,18.992188 2.859375,19 8.1523438,13.707031 7.4453125,13 Z" opacity="1" transform="translate(326,534.3622)"/></g></svg>