<svg xmlns="http://www.w3.org/2000/svg" xmlns:svg="http://www.w3.org/2000/svg" id="svg4165" width="24" height="24" version="1.1"><metadata id="metadata4170"/><g id="layer1" transform="translate(1,-1029.3622)"><path id="path4173" fill="#424854" fill-opacity="1" stroke="none" stroke-dasharray="none" stroke-miterlimit="4" stroke-opacity=".55" stroke-width="2.8" d="m 11,3 -0.707031,0.7070312 -0.002,0 L 4,10 3,11 4,11 4.4160156,11 17.583984,11 18,11 l 1,0 -1,-1 -6.291016,-6.2929688 -0.002,0 z M 11,4.4160156 16.583984,10 5.4160156,10 Z M 3,15 l 0,1 0,3 1,0 15,0 0,-3 0,-1 -1,0 z m 1,1 14,0 0,2 -14,0 z" opacity="1" transform="translate(0,1030.3622)"/></g></svg>