<svg xmlns="http://www.w3.org/2000/svg" xmlns:svg="http://www.w3.org/2000/svg" id="svg2" width="24" height="24" version="1.1" viewBox="0 0 24 24"><metadata id="metadata7"/><g id="layer1" transform="translate(1,-1029.3622)"><path id="rect4162" fill="#424854" fill-opacity="1" stroke="none" stroke-dasharray="none" stroke-miterlimit="4" stroke-opacity=".55" stroke-width="2.8" d="m 14.292969,1042.3622 -2.792969,2.793 -0.707031,0.707 0.707031,0.707 2.792969,2.793 L 15,1048.6552 12.207031,1045.8622 15,1043.0692 Z" opacity="1"/><path id="path4218" fill="#424854" fill-opacity="1" stroke="none" stroke-dasharray="none" stroke-miterlimit="4" stroke-opacity=".55" stroke-width="2.8" d="m 7.707031,1033.3622 2.792969,2.793 0.707031,0.707 -0.707031,0.707 -2.792969,2.793 L 7,1039.6552 9.792969,1036.8622 7,1034.0692 Z" opacity="1"/><path color="#000" style="text-decoration-line:none;text-decoration-style:solid;text-decoration-color:#000;isolation:auto;mix-blend-mode:normal;solid-color:#000;solid-opacity:1" id="rect4224" fill="#424854" fill-opacity="1" fill-rule="nonzero" stroke="none" stroke-dasharray="none" stroke-dashoffset="0" stroke-linecap="butt" stroke-linejoin="miter" stroke-miterlimit="4" stroke-opacity="1" stroke-width="1" d="m 5,6 c -2.77,0 -5,2.23 -5,5 0,2.77 2.23,5 5,5 L 9,16 8,15 5,15 C 2.784,15 1,13.216 1,11 1,8.784 2.784,7 5,7 L 9.5996094,7 10.599609,6 5,6 Z m 9,0 -1,1 4,0 c 2.216,0 4,1.784 4,4 0,2.216 -1.784,4 -4,4 l -5.599609,0 1,1 L 17,16 c 2.77,0 5,-2.23 5,-5 0,-2.77 -2.23,-5 -5,-5 l -3,0 z" clip-rule="nonzero" color-interpolation="sRGB" color-interpolation-filters="linearRGB" color-rendering="auto" display="inline" enable-background="accumulate" image-rendering="auto" opacity="1" overflow="visible" shape-rendering="auto" text-decoration="none" text-rendering="auto" transform="translate(0,1030.3622)" visibility="visible"/></g></svg>