<svg xmlns="http://www.w3.org/2000/svg" xmlns:svg="http://www.w3.org/2000/svg" id="svg4062" width="24" height="24" version="1.1"><defs id="defs4064"><linearGradient id="linearGradient3257"><stop id="stop3259" offset="0" stop-color="#a50000" stop-opacity="1"/><stop id="stop3261" offset="1" stop-color="#e73800" stop-opacity="1"/></linearGradient></defs><metadata id="metadata4067"/><g id="layer1" transform="translate(1,-1029.3622)"><path color="#000" style="text-decoration-line:none;text-decoration-style:solid;text-decoration-color:#000;isolation:auto;mix-blend-mode:normal;solid-color:#000;solid-opacity:1" id="rect4160" fill="#424854" fill-opacity="1" fill-rule="nonzero" stroke="none" stroke-dasharray="none" stroke-dashoffset="0" stroke-linecap="butt" stroke-linejoin="miter" stroke-miterlimit="4" stroke-opacity="1" stroke-width="1" d="m 11,3 c -4.4319905,0 -8,3.5680095 -8,8 0,4.43199 3.5680095,8 8,8 4.43199,0 8,-3.56801 8,-8 0,-4.4319905 -3.56801,-8 -8,-8 z m 0,1 c 3.877992,0 7,3.1220087 7,7 0,3.877991 -3.122008,7 -7,7 C 7.1220085,18 4,14.877991 4,11 4,7.1220087 7.1220085,4 11,4 Z m 0,5 c -1.108,0 -2,0.892 -2,2 0,1.108 0.892,2 2,2 1.108,0 2,-0.892 2,-2 0,-1.108 -0.892,-2 -2,-2 z m 0,1 c 0.554005,0 1,0.445995 1,1 0,0.554005 -0.445995,1 -1,1 -0.554005,0 -1,-0.445995 -1,-1 0,-0.554005 0.445995,-1 1,-1 z" clip-rule="nonzero" color-interpolation="sRGB" color-interpolation-filters="linearRGB" color-rendering="auto" display="inline" enable-background="accumulate" image-rendering="auto" opacity="1" overflow="visible" shape-rendering="auto" text-decoration="none" text-rendering="auto" transform="translate(0,1030.3622)" visibility="visible"/></g></svg>