<svg xmlns="http://www.w3.org/2000/svg" xmlns:svg="http://www.w3.org/2000/svg" id="svg3760" width="24" height="24" version="1.1"><metadata id="metadata3765"/><g id="layer1" transform="translate(-552.72253,-582.11926)"><path id="rect4123" fill="#424854" fill-opacity="1" stroke="none" d="m 3,3 0,1 0,2 0,1 0,12 1,0 5,0 1,0 8,0 1,0 0,-1 L 19,7 19,6 19,4 19,3 18,3 4,3 3,3 Z M 4,4 18,4 18,6 4,6 4,4 Z m 0,3 5,0 1,0 8,0 0,11 -8,0 -1,0 -5,0 0,-11 z m 4,1 c -1.108,0 -2,0.892 -2,2 0,1.108 0.892,2 2,2 1.108,0 2,-0.892 2,-2 C 10,8.892 9.108,8 8,8 Z m 6,0 c -1.108,0 -2,0.892 -2,2 0,1.108 0.892,2 2,2 1.108,0 2,-0.892 2,-2 C 16,8.892 15.108,8 14,8 Z M 8,9 C 8.554,9 9,9.446 9,10 9,10.554 8.554,11 8,11 7.446,11 7,10.554 7,10 7,9.446 7.446,9 8,9 Z m 6,0 c 0.554,0 1,0.446 1,1 0,0.554 -0.446,1 -1,1 -0.554,0 -1,-0.446 -1,-1 0,-0.554 0.446,-1 1,-1 z m -6,4 c -1.108,0 -2,0.892 -2,2 0,1.108 0.892,2 2,2 1.108,0 2,-0.892 2,-2 0,-1.108 -0.892,-2 -2,-2 z m 6,0 c -1.108,0 -2,0.892 -2,2 0,1.108 0.892,2 2,2 1.108,0 2,-0.892 2,-2 0,-1.108 -0.892,-2 -2,-2 z m -6,1 c 0.554,0 1,0.446 1,1 0,0.554 -0.446,1 -1,1 -0.554,0 -1,-0.446 -1,-1 0,-0.554 0.446,-1 1,-1 z m 6,0 c 0.554,0 1,0.446 1,1 0,0.554 -0.446,1 -1,1 -0.554,0 -1,-0.446 -1,-1 0,-0.554 0.446,-1 1,-1 z" opacity="1" transform="translate(553.72253,583.11926)"/></g></svg>