<svg xmlns="http://www.w3.org/2000/svg" xmlns:svg="http://www.w3.org/2000/svg" id="svg4359" width="24" height="24" version="1.1"><metadata id="metadata4364"/><g id="layer1" transform="translate(1,-25)"><path id="rect8602" fill="#ececec" fill-opacity="1" stroke="none" d="m 14,3 c -1.662,0 -3,1.338 -3,3 0,1.662 1.338,3 3,3 1.662,0 3,-1.338 3,-3 0,-1.662 -1.338,-3 -3,-3 z m 0,1 c 1.108,0 2,0.892 2,2 0,1.108 -0.892,2 -2,2 C 12.892,8 12,7.108 12,6 12,4.892 12.892,4 14,4 Z M 8,6 C 6.338,6 5,7.338 5,9 c 0,1.662 1.338,3 3,3 1.662,0 3,-1.338 3,-3 C 11,7.338 9.662,6 8,6 Z m 0,1 c 1.108,0 2,0.892 2,2 0,1.108 -0.892,2 -2,2 C 6.892,11 6,10.108 6,9 6,7.892 6.892,7 8,7 Z m 6,3 c -0.703344,0 -1.373894,0.127245 -2,0.347656 l 0,1.072266 C 12.612745,11.153118 13.28682,11 14,11 c 2.77,0 5,2.23 5,5 l 1,0 c 0,-3.324 -2.676,-6 -6,-6 z m -6,3 c -3.324,0 -6,2.676 -6,6 l 1,0 c 0,-2.77 2.23,-5 5,-5 2.77,0 5,2.23 5,5 l 1,0 c 0,-3.324 -2.676,-6 -6,-6 z" opacity="1" transform="translate(0,26)"/></g></svg>