<svg xmlns="http://www.w3.org/2000/svg" xmlns:svg="http://www.w3.org/2000/svg" id="svg2" width="24" height="24" version="1.1" viewBox="0 0 24 24"><metadata id="metadata10"/><path color="#000" style="text-decoration-line:none;text-decoration-style:solid;text-decoration-color:#000;isolation:auto;mix-blend-mode:normal;solid-color:#000;solid-opacity:1" id="rect4177" fill="#424854" fill-opacity="1" fill-rule="nonzero" stroke="none" stroke-dasharray="none" stroke-dashoffset="0" stroke-linecap="butt" stroke-linejoin="miter" stroke-miterlimit="4" stroke-opacity="1" stroke-width="1" d="M 16,4 16,4.00391 19,7 20,8 13,8 13,7 13,4 Z M 11,4 11,8 4,8 8,4.0039062 8,4 10,4 Z M 15.583984,5 14,5 14,7 17.585937,7 Z M 10,5 8.416016,5 6.414062,7 10,7 Z m 10,4 0,1 0,3 -1,0 0,-3 -14,0 0,9 7,0 0,1 -8,0 0,-1 0,-9 0,-1 z" clip-rule="nonzero" color-interpolation="sRGB" color-interpolation-filters="linearRGB" color-rendering="auto" display="inline" enable-background="accumulate" image-rendering="auto" opacity="1" overflow="visible" shape-rendering="auto" text-decoration="none" text-rendering="auto" visibility="visible"/><path id="rect4161" fill="#1abc9c" fill-opacity="1" stroke="none" stroke-dasharray="none" stroke-miterlimit="4" stroke-opacity="1" stroke-width=".1" d="M 16.5,12.792969 17.207031,13.5 20,16.292969 19.292969,17 17,14.707031 17,20 16,20 16,14.707031 13.707031,17 13,16.292969 l 3.5,-3.5 z" opacity="1"/></svg>