<svg xmlns="http://www.w3.org/2000/svg" xmlns:svg="http://www.w3.org/2000/svg" id="svg2" width="24" height="24" version="1.1" viewBox="0 0 24 24"><metadata id="metadata10"/><path color="#000" style="text-decoration-line:none;text-decoration-style:solid;text-decoration-color:#000;isolation:auto;mix-blend-mode:normal;solid-color:#000;solid-opacity:1" id="rect4177" fill="#424854" fill-opacity="1" fill-rule="nonzero" stroke="none" stroke-dasharray="none" stroke-dashoffset="0" stroke-linecap="butt" stroke-linejoin="miter" stroke-miterlimit="4" stroke-opacity="1" stroke-width="1" d="M 8,4 8,4.0039062 5,7 4,8 11,8 11,7 11,4 Z m 5,0 0,4 7,0 L 16,4.0039062 16,4 14,4 Z M 8.4160156,5 10,5 10,7 6.4140625,7 Z M 14,5 15.583984,5 17.585938,7 14,7 Z m -10,4 0,1 0,3 1,0 0,-3 14,0 0,9 -7,0 0,1 8,0 0,-1 0,-9 0,-1 z" clip-rule="nonzero" color-interpolation="sRGB" color-interpolation-filters="linearRGB" color-rendering="auto" display="inline" enable-background="accumulate" image-rendering="auto" opacity="1" overflow="visible" shape-rendering="auto" text-decoration="none" text-rendering="auto" visibility="visible"/><path id="rect4161" fill="#424854" fill-opacity="1" stroke="none" stroke-dasharray="none" stroke-miterlimit="4" stroke-opacity="1" stroke-width=".1" d="M 7.5000002,12.792969 6.7929688,13.5 4,16.292969 4.7070312,17 7,14.707031 7,20 l 1.0000002,0 0,-5.292969 L 10.292969,17 11,16.292969 l -3.4999998,-3.5 z" opacity="1"/></svg>