<svg xmlns="http://www.w3.org/2000/svg" xmlns:svg="http://www.w3.org/2000/svg" id="svg3760" width="24" height="24" version="1.1"><metadata id="metadata3765"/><g id="layer1" transform="translate(-552.72253,-582.11926)"><path id="rect4150" fill="#424854" fill-opacity="1" stroke="none" stroke-dasharray="none" stroke-miterlimit="4" stroke-opacity="1" stroke-width=".1" d="m 8,3 0,1 0,1 -4,0 0,1 1,0 0,2 0,11 1,0 11,0 0,-1 0,-11 0,-1 1,0 0,-1 -4,0 0,-1 0,-1 -6,0 z M 9,4 13,4 13,5 9,5 9,4 Z M 6,6 16,6 16,8 16,18 6,18 6,7 6,6 Z m 2,3 0,7 1,0 0,-7 -1,0 z m 5,0 0,7 1,0 0,-7 -1,0 z" opacity="1" transform="translate(553.72253,583.11926)"/></g></svg>