<svg xmlns="http://www.w3.org/2000/svg" xmlns:svg="http://www.w3.org/2000/svg" id="svg4359" width="24" height="24" version="1.1"><metadata id="metadata4364"/><g id="layer1" transform="translate(1,-25)"><path id="rect8602" fill="#424854" fill-opacity=".941" stroke="none" d="m 14,3 0,5.0917969 C 13.418077,8.2978026 13,8.8457598 13,9.5 c 0,0.65424 0.418077,1.202197 1,1.408203 L 14,13 l 1,0 0,-2.091797 C 15.581923,10.702197 16,10.15424 16,9.5 16,8.8457598 15.581923,8.2978026 15,8.0917969 L 15,3 14,3 Z m 3,0 0,2.0917969 C 16.418077,5.2978026 16,5.8457596 16,6.5 c 0,0.6542404 0.418077,1.2021974 1,1.4082031 L 17,13 18,13 18,7.9082031 C 18.581923,7.7021974 19,7.1542404 19,6.5 19,5.8457596 18.581923,5.2978026 18,5.0917969 L 18,3 17,3 Z M 9,6 C 7.338,6 6,7.338 6,9 c 0,1.662 1.338,3 3,3 1.662,0 3,-1.338 3,-3 C 12,7.338 10.662,6 9,6 Z m 8.5,0 C 17.777,6 18,6.2229998 18,6.5 18,6.7770002 17.777,7 17.5,7 17.223,7 17,6.7770002 17,6.5 17,6.2229998 17.223,6 17.5,6 Z M 9,7 c 1.108,0 2,0.892 2,2 0,1.108 -0.892,2 -2,2 C 7.892,11 7,10.108 7,9 7,7.892 7.892,7 9,7 Z m 5.5,2 C 14.777,9 15,9.223 15,9.5 15,9.777 14.777,10 14.5,10 14.223,10 14,9.777 14,9.5 14,9.223 14.223,9 14.5,9 Z M 9,13 c -3.324,0 -6,2.676 -6,6 l 1,0 c 0,-2.77 2.23,-5 5,-5 2.77,0 5,2.23 5,5 l 1,0 c 0,-3.324 -2.676,-6 -6,-6 z" opacity="1" transform="translate(0,26)"/></g></svg>