<svg xmlns="http://www.w3.org/2000/svg" xmlns:svg="http://www.w3.org/2000/svg" id="svg2" width="24" height="24" version="1.1" viewBox="0 0 24 24"><metadata id="metadata7"/><g id="layer1" transform="translate(1,-1029.3622)"><path id="rect3269" fill="#424854" fill-opacity="1" stroke="none" d="m 9,3 0,5 1.099609,0 0,-5 L 9,3 Z m 3,1 0,4 1.099609,0 0,-4 L 12,4 Z m -6,1 0,3 1.0996094,0 0,-3 L 6,5 Z m 9,0 0,3 1,0 0,-3 -1,0 z m -12,5 0,1 0,1 0,1 1,0 14,0 1,0 0,-1 0,-2 -16,0 z m 1,1 14,0 0,1 -14,0 0,-1 z M 8.2070312,14.792969 7.5,15.5 10.292969,18.292969 11,19 11.707031,18.292969 14.5,15.5 13.792969,14.792969 11,17.585938 8.2070312,14.792969 Z" transform="translate(0,1030.3622)"/></g></svg>