<svg xmlns="http://www.w3.org/2000/svg" xmlns:svg="http://www.w3.org/2000/svg" id="svg4355" width="24" height="24" version="1.1"><metadata id="metadata4360"/><g id="layer1" transform="translate(-543.57141,-741.93359)"><path id="path4114" fill="#424854" fill-opacity="1" stroke="none" d="m 9,3 2,2 2,-2 -4,0 z m -3,3 0,3 0,6 0,1 10,0 0,-1 L 16,6 7,6 6,6 Z M 7,7 15,7 15,8 7,8 7,7 Z M 3,9 3,13 5,11 3,9 Z m 4,0 8,0 0,6 -8,0 0,-6 z m 12,0 -2,2 2,2 0,-4 z m -8,8 -2,2 4,0 -2,-2 z" opacity="1" transform="translate(544.57141,742.93359)"/></g></svg>