<svg xmlns="http://www.w3.org/2000/svg" xmlns:svg="http://www.w3.org/2000/svg" id="svg4359" width="24" height="24" version="1.1"><metadata id="metadata4364"/><g id="layer1" transform="translate(1,-25)"><path id="rect4123" fill="#424854" fill-opacity="1" stroke="none" d="m 3,3 0,1 0,2 0,1 0,12 1,0 5,0 1,0 8,0 1,0 0,-1 L 19,7 19,6 19,4 19,3 18,3 4,3 3,3 Z M 4,4 18,4 18,6 4,6 4,4 Z M 4,7 9,7 9,18 4,18 4,7 Z m 6,0 8,0 0,11 -8,0 0,-11 z m 4,3 0,2 -2,0 0,1 2,0 0,2 1,0 0,-2 2,0 0,-1 -2,0 0,-2 -1,0 z" opacity="1" transform="translate(0,26)"/></g></svg>