<svg xmlns="http://www.w3.org/2000/svg" xmlns:svg="http://www.w3.org/2000/svg" id="svg4359" width="24" height="24" version="1.1"><metadata id="metadata4364"/><g id="layer1" transform="translate(1,-25)"><path id="rect4125" fill="#424854" fill-opacity="1" stroke="none" d="m 3,3 0,7 3,0 0,2 -3,0 0,7 7,0 0,-7 -3,0 0,-2 3,0 0,-3 5,0 0,5 -3,0 0,7 7,0 0,-7 -3,0 0,-5 0,-1 -1,0 -5,0 0,-3 -7,0 z M 4,4 9,4 9,9 4,9 4,4 Z m 0,9 5,0 0,5 -5,0 0,-5 z m 9,0 5,0 0,5 -5,0 0,-5 z" opacity="1" transform="translate(0,26)"/></g></svg>