<svg xmlns="http://www.w3.org/2000/svg" xmlns:svg="http://www.w3.org/2000/svg" id="svg2" width="16" height="16" version="1.1" viewBox="0 0 16 16.001"><metadata id="metadata14"/><path color="#000" style="text-decoration-line:none;text-decoration-style:solid;text-decoration-color:#000;isolation:auto;mix-blend-mode:normal;solid-color:#000;solid-opacity:1" id="rect4165" fill="#bebebe" fill-opacity="1" fill-rule="nonzero" stroke="none" stroke-dasharray="none" stroke-dashoffset="0" stroke-linecap="butt" stroke-linejoin="miter" stroke-miterlimit="4" stroke-opacity="1" stroke-width="1" d="M 8 2 C 5.7840001 2 4 3.7840001 4 6 L 4 10 C 4 11.86855 5.2737035 13.417636 7 13.861328 L 7 15 L 7.5 15 L 7.5 16 L 8.5 16 L 8.5 15 L 9 15 L 9 13.861328 C 10.726297 13.417636 12 11.86855 12 10 L 12 6 C 12 3.7840001 10.216 2 8 2 z M 8 3 C 9.6619999 3 11 4.3380001 11 6 L 9 6 L 9 7 L 11 7 L 11 8 L 9 8 L 9 9 L 11 9 L 11 10 L 9 10 L 9 11 L 10.818359 11 C 10.406799 12.164689 9.3090826 13 8 13 C 6.6909174 13 5.593201 12.164689 5.1816406 11 L 7 11 L 7 10 L 5 10 L 5 9 L 7 9 L 7 8 L 5 8 L 5 7 L 7 7 L 7 6 L 5 6 C 5 4.3380001 6.3380001 3 8 3 z" clip-rule="nonzero" color-interpolation="sRGB" color-interpolation-filters="linearRGB" color-rendering="auto" display="inline" enable-background="accumulate" image-rendering="auto" opacity="1" overflow="visible" shape-rendering="auto" text-decoration="none" text-rendering="auto" transform="matrix(1.0000625,0,0,1.0000625,-5e-4,0)" visibility="visible"/></svg>