<svg xmlns="http://www.w3.org/2000/svg" xmlns:svg="http://www.w3.org/2000/svg" id="svg2" width="16" height="16" version="1.1" viewBox="0 0 16 16"><metadata id="metadata34"/><defs id="defs4"><clipPath id="clipPath6"><rect id="rect8" width="1.876" height="4.874" x="26.999" y="221.5" fill="#bebebe" color="#bebebe"/></clipPath><clipPath id="clipPath10"><rect id="rect12" width="2.898" height="5.216" x="26.966" y="221.33" fill="#bebebe" color="#bebebe"/></clipPath><clipPath id="clipPath14"><rect id="rect16" width="3.825" height="6.375" x="26.85" y="220.75" fill="#bebebe" color="#bebebe"/></clipPath><clipPath id="clipPath6-3"><rect id="rect8-7" width="1.876" height="4.874" x="26.999" y="221.5" fill="#bebebe" color="#bebebe"/></clipPath><clipPath id="clipPath10-3"><rect id="rect12-5" width="2.898" height="5.216" x="26.966" y="221.33" fill="#bebebe" color="#bebebe"/></clipPath><clipPath id="clipPath14-5"><rect id="rect16-4" width="3.825" height="6.375" x="26.85" y="220.75" fill="#bebebe" color="#bebebe"/></clipPath></defs><path color="#000" style="text-decoration-line:none;text-decoration-style:solid;text-decoration-color:#000;isolation:auto;mix-blend-mode:normal;solid-color:#000;solid-opacity:1" id="path4220" fill="#bebebe" fill-opacity="1" fill-rule="nonzero" stroke="none" stroke-dasharray="none" stroke-dashoffset="0" stroke-linecap="butt" stroke-linejoin="miter" stroke-miterlimit="4" stroke-opacity="1" stroke-width="1" d="M 8 2 L 8 2.0019531 L 4.0019531 6 L 4 6 L 3 6 L 2 6 L 2 7 L 2 10 L 3 10 L 4.0019531 10 L 8 13.998047 L 8 14 L 8.0019531 14 L 9 14 L 9.4160156 14 L 10 14 L 10 13 L 10 2 L 9.4160156 2 L 9 2 L 8 2 z M 8.4160156 3 L 9 3 L 9 13 L 8.4160156 13 L 5 9.5839844 L 5 9 L 5 6.4160156 L 8.4160156 3 z M 3 7 L 4 7 L 4 9 L 3 9 L 3 7 z" clip-rule="nonzero" color-interpolation="sRGB" color-interpolation-filters="linearRGB" color-rendering="auto" display="inline" enable-background="accumulate" image-rendering="auto" opacity="1" overflow="visible" shape-rendering="auto" text-decoration="none" text-rendering="auto" visibility="visible"/><path color="#000" style="text-decoration-line:none;text-decoration-style:solid;text-decoration-color:#000;isolation:auto;mix-blend-mode:normal;solid-color:#000;solid-opacity:1" id="path4216" fill="#bebebe" fill-opacity="1" fill-rule="nonzero" stroke="none" stroke-dasharray="none" stroke-dashoffset="0" stroke-linecap="butt" stroke-linejoin="miter" stroke-miterlimit="4" stroke-opacity="1" stroke-width="1" d="m 12.246118,3.7538841 -0.707032,0.7070313 c 0.903751,0.90375 1.460938,2.1540625 1.460938,3.5390625 0,1.385 -0.557187,2.6353131 -1.460938,3.5390621 l 0.707032,0.707032 c 1.0845,-1.0845 1.753906,-2.5840941 1.753906,-4.2460941 0,-1.662 -0.669406,-3.1615937 -1.753906,-4.2460938 z" clip-rule="nonzero" color-interpolation="sRGB" color-interpolation-filters="linearRGB" color-rendering="auto" display="inline" enable-background="accumulate" image-rendering="auto" opacity="1" overflow="visible" shape-rendering="auto" text-decoration="none" text-rendering="auto" visibility="visible"/><path color="#000" style="text-decoration-line:none;text-decoration-style:solid;text-decoration-color:#000;isolation:auto;mix-blend-mode:normal;solid-color:#000;solid-opacity:1" id="path4214" fill="#bebebe" fill-opacity="1" fill-rule="nonzero" stroke="none" stroke-dasharray="none" stroke-dashoffset="0" stroke-linecap="butt" stroke-linejoin="miter" stroke-miterlimit="4" stroke-opacity="1" stroke-width="1" d="M 10.830102,5.1698998 10.123071,5.876931 c 0.54225,0.54225 0.876953,1.2920469 0.876953,2.1230469 0,0.831 -0.334703,1.5807968 -0.876953,2.1230471 l 0.707031,0.707031 c 0.723,-0.723 1.169922,-1.7220781 1.169922,-2.8300781 0,-1.108 -0.446922,-2.1070781 -1.169922,-2.8300781 z" clip-rule="nonzero" color-interpolation="sRGB" color-interpolation-filters="linearRGB" color-rendering="auto" display="inline" enable-background="accumulate" image-rendering="auto" opacity="1" overflow="visible" shape-rendering="auto" text-decoration="none" text-rendering="auto" visibility="visible"/></svg>