<svg xmlns="http://www.w3.org/2000/svg" xmlns:svg="http://www.w3.org/2000/svg" id="svg2" width="16" height="16" version="1.1" viewBox="0 0 16 16"><metadata id="metadata10"/><path id="rect8602" fill="#bebebe" fill-opacity="1" stroke="none" d="M 8 2 C 6.338 2 5 3.338 5 5 C 5 6.662 6.338 8 8 8 C 9.662 8 11 6.662 11 5 C 11 3.338 9.662 2 8 2 z M 8 3 C 9.108 3 10 3.892 10 5 C 10 6.108 9.108 7 8 7 C 6.892 7 6 6.108 6 5 C 6 3.892 6.892 3 8 3 z M 8 9 C 5.017536 9 2.5640411 11.156226 2.0898438 14 L 3.0996094 14 C 3.5606036 11.712639 5.5728315 10 8 10 C 10.427168 10 12.439396 11.712639 12.900391 14 L 13.910156 14 C 13.435959 11.156226 10.982464 9 8 9 z" opacity="1"/></svg>