<svg xmlns="http://www.w3.org/2000/svg" xmlns:svg="http://www.w3.org/2000/svg" id="svg2" width="16" height="16" version="1.1" viewBox="0 0 16 16"><metadata id="metadata12"/><path id="rect4236" fill="#bebebe" fill-opacity="1" stroke="none" stroke-dasharray="none" stroke-miterlimit="4" stroke-opacity="1" stroke-width=".1" d="m 0.99999985,3.9999958 0,8.0000082 0.99999995,0 11.0000002,0 0,-1 0,-0.999999 1,0 1,0 0,-4.0000094 -1,0 -1,0 0,-1 0,-1 -1,0 -10.0000002,0 z m 0.99999995,1 10.0000002,0 0,6.0000082 -10.0000002,0 z m 11.0000002,2 1,0 0,2.0000089 -1,0 z" opacity="1"/><path color="#000" style="text-decoration-line:none;text-decoration-style:solid;text-decoration-color:#000;isolation:auto;mix-blend-mode:normal;solid-color:#000;solid-opacity:1" id="rect4178" fill="#bebebe" fill-opacity="1" fill-rule="nonzero" stroke="none" stroke-dasharray="none" stroke-dashoffset="0" stroke-linecap="butt" stroke-linejoin="miter" stroke-miterlimit="4" stroke-opacity="1" stroke-width="1" d="M 3 6 L 3 10 L 7 10 L 7 9 L 5 9 L 6.5 6 L 3 6 z M 7 6 L 7 7 L 9 7 L 9 6 L 7 6 z M 9 7 L 7.5 10 L 9 10 L 9 7 z" clip-rule="nonzero" color-interpolation="sRGB" color-interpolation-filters="linearRGB" color-rendering="auto" display="inline" enable-background="accumulate" image-rendering="auto" opacity="1" overflow="visible" shape-rendering="auto" text-decoration="none" text-rendering="auto" visibility="visible"/><path id="path4397" fill="#bebebe" fill-opacity="1" fill-rule="evenodd" stroke="none" stroke-linecap="butt" stroke-linejoin="miter" stroke-opacity="1" stroke-width="1" d="M 7 5 L 6.5 6 L 7 6 L 7 5 z M 7 10 L 7 11 L 7.5 10 L 7 10 z"/></svg>