<svg xmlns="http://www.w3.org/2000/svg" xmlns:svg="http://www.w3.org/2000/svg" id="svg2" width="16" height="16" version="1.1" viewBox="0 0 16 16"><metadata id="metadata12"/><path id="rect4236" fill="#bebebe" fill-opacity="1" stroke="none" stroke-dasharray="none" stroke-miterlimit="4" stroke-opacity="1" stroke-width=".1" d="m 0.99999985,3.9999958 0,8.0000082 0.99999995,0 11.0000002,0 0,-1 0,-0.999999 1,0 1,0 0,-4.0000094 -1,0 -1,0 0,-1 0,-1 -1,0 -10.0000002,0 z m 0.99999995,1 10.0000002,0 0,6.0000082 -10.0000002,0 z m 11.0000002,2 1,0 0,2.0000089 -1,0 z" opacity="1"/><path id="rect4163" fill="#bebebe" fill-opacity="1" fill-rule="nonzero" stroke="none" stroke-dasharray="none" stroke-dashoffset="0" stroke-linecap="butt" stroke-linejoin="miter" stroke-miterlimit="4" stroke-opacity="1" stroke-width="1" d="M 4.707031,4.9999999 4,5.7070311 6.292968,8.0000001 4,10.292969 4.707031,11 7,8.7070311 9.2929688,11 10,10.292969 7.7070308,8.0000001 10,5.7070311 9.2929688,4.9999999 7,7.2929691 Z" clip-rule="nonzero" color="#000" color-interpolation="sRGB" color-interpolation-filters="linearRGB" color-rendering="auto" display="inline" enable-background="accumulate" image-rendering="auto" opacity="1" overflow="visible" shape-rendering="auto" text-decoration="none" text-rendering="auto" visibility="visible" style="text-decoration-line:none;text-decoration-style:solid;text-decoration-color:#000;isolation:auto;mix-blend-mode:normal;solid-color:#000;solid-opacity:1"/></svg>