<svg xmlns="http://www.w3.org/2000/svg" xmlns:svg="http://www.w3.org/2000/svg" id="svg2" width="16" height="16" version="1.1" viewBox="0 0 16 16"><metadata id="metadata10"/><path color="#000" style="text-decoration-line:none;text-decoration-style:solid;text-decoration-color:#000;isolation:auto;mix-blend-mode:normal;solid-color:#000;solid-opacity:1" id="rect4161" fill="#bebebe" fill-opacity="1" fill-rule="nonzero" stroke="none" stroke-dasharray="none" stroke-dashoffset="0" stroke-linecap="butt" stroke-linejoin="miter" stroke-miterlimit="4" stroke-opacity="1" stroke-width="1" d="M 3 8 L 3 14 L 13 14 L 13 8 L 3 8 z M 4 9 L 12 9 L 12 13 L 4 13 L 4 9 z" clip-rule="nonzero" color-interpolation="sRGB" color-interpolation-filters="linearRGB" color-rendering="auto" display="inline" enable-background="accumulate" image-rendering="auto" opacity="1" overflow="visible" shape-rendering="auto" text-decoration="none" text-rendering="auto" visibility="visible"/><path color="#000" style="text-decoration-line:none;text-decoration-style:solid;text-decoration-color:#000;isolation:auto;mix-blend-mode:normal;solid-color:#000;solid-opacity:1" id="rect4168" fill="#bebebe" fill-opacity="1" fill-rule="nonzero" stroke="none" stroke-dasharray="none" stroke-dashoffset="0" stroke-linecap="butt" stroke-linejoin="miter" stroke-miterlimit="4" stroke-opacity="1" stroke-width="1" d="M 8 2 C 6.3379995 2 5 3.3379995 5 5 L 5 8 L 6 8 L 6 5 C 6 3.892 6.892 3 8 3 C 9.108 3 10 3.892 10 5 L 10 8 L 11 8 L 11 5 C 11 3.3379995 9.6620005 2 8 2 z" clip-rule="nonzero" color-interpolation="sRGB" color-interpolation-filters="linearRGB" color-rendering="auto" display="inline" enable-background="accumulate" image-rendering="auto" opacity="1" overflow="visible" shape-rendering="auto" text-decoration="none" text-rendering="auto" visibility="visible"/></svg>