<svg xmlns="http://www.w3.org/2000/svg" xmlns:svg="http://www.w3.org/2000/svg" id="svg7384" width="16" height="16" version="1.1"><metadata id="metadata90"/><title id="title9167">Gnome Symbolic Icon Theme</title><g id="layer1" fill="#f57900" fill-opacity="1" transform="matrix(0.375,0,0,0.375,-0.99999813,-377.63583)"><g id="_x31_1_alerts_and_states_warning" fill="#f57900" fill-opacity="1" transform="matrix(0.52495376,0,0,0.52495376,-127.33203,212.74148)"><path id="path336" fill="#f57900" fill-opacity="1" d="M 322.214,1578.899 291.323,1525.4 c -1.673,-2.905 -4.416,-2.905 -6.093,0 l -30.889,53.499 c -1.678,2.905 -0.307,5.28 3.045,5.28 l 61.785,0 c 3.35,10e-4 4.718,-2.374 3.043,-5.28 z m -29.673,-3.205 -8.523,0 0,-8.249 8.523,0 0,8.249 z m 0,-13.47 -8.523,0 0,-19.525 8.523,0 0,19.525 z"/></g></g></svg>