<svg xmlns="http://www.w3.org/2000/svg" xmlns:svg="http://www.w3.org/2000/svg" id="svg2" width="16" height="16" version="1.1" viewBox="0 0 16 16"><metadata id="metadata10"/><path color="#000" style="text-decoration-line:none;text-decoration-style:solid;text-decoration-color:#000;isolation:auto;mix-blend-mode:normal;solid-color:#000;solid-opacity:1" id="rect4161" fill="#bebebe" fill-opacity="1" fill-rule="nonzero" stroke="none" stroke-dasharray="none" stroke-dashoffset="0" stroke-linecap="butt" stroke-linejoin="miter" stroke-miterlimit="4" stroke-opacity="1" stroke-width="1" d="M 8 2 C 4.676 2 2 4.676 2 8 C 2 11.324 4.676 14 8 14 C 11.324 14 14 11.324 14 8 C 14 4.676 11.324 2 8 2 z M 8 3 C 10.77 3 13 5.23 13 8 C 13 10.77 10.77 13 8 13 C 5.23 13 3 10.77 3 8 C 3 5.23 5.23 3 8 3 z" clip-rule="nonzero" color-interpolation="sRGB" color-interpolation-filters="linearRGB" color-rendering="auto" display="inline" enable-background="accumulate" image-rendering="auto" opacity="1" overflow="visible" shape-rendering="auto" text-decoration="none" text-rendering="auto" visibility="visible"/><path id="path4171" fill="#bebebe" fill-opacity="1" stroke="none" stroke-linecap="butt" stroke-linejoin="miter" stroke-opacity="1" stroke-width="1" d="m 8.0000002,12 q -0.2285714,0 -0.4,-0.171429 -0.1714286,-0.171428 -0.1714286,-0.4 0,-0.228571 0.1714286,-0.4 0.1714286,-0.171428 0.4,-0.171428 0.2285714,0 0.4,0.171428 0.1714286,0.171429 0.1714286,0.4 0,0.228572 -0.1714286,0.4 Q 8.2285716,12 8.0000002,12 Z m 0,-2.2857143 q -0.2285714,0 -0.4,-0.1714286 -0.1714286,-0.1714285 -0.1714286,-0.4 0,-0.2285714 0.1714286,-0.4 l 2.1142857,-2.1371428 0,-0.8914286 q 0,-0.2285714 -0.1714286,-0.4 -0.1714285,-0.1714286 -0.4,-0.1714286 l -2.2857142,0 q -0.2285715,0 -0.4,0.1714286 -0.1714286,0.1714286 -0.1714286,0.4 0,0.2285714 -0.1714286,0.4 -0.1714286,0.1714286 -0.4,0.1714286 -0.2285714,0 -0.4,-0.1714286 -0.1714286,-0.1714286 -0.1714286,-0.4 0,-0.6857143 0.5142858,-1.2 Q 6.1714288,4 6.8571431,4 l 2.2857142,0 q 0.6857143,0 1.1999997,0.5142857 0.514286,0.5142857 0.514286,1.2 l 0,1.1428572 q 0,0.2285714 -0.171429,0.4 L 8.4000002,9.5428571 q -0.1714286,0.1714286 -0.4,0.1714286 z" font-family="White Rabbit" font-size="medium" font-stretch="normal" font-style="normal" font-variant="normal" font-weight="normal" letter-spacing="0" word-spacing="0" style="line-height:125%;-inkscape-font-specification:'White Rabbit'"/></svg>