<svg xmlns="http://www.w3.org/2000/svg" xmlns:svg="http://www.w3.org/2000/svg" id="svg3239" width="16" height="16" version="1.0"><metadata id="metadata13"/><path id="rect3275" fill="#bebebe" fill-opacity="1" fill-rule="evenodd" stroke="none" d="M 8 4 L 8 12 C 10.216 12 12 10.216 12 8 C 12 5.784 10.216 4 8 4 z"/><path id="rect3268" fill="#bebebe" fill-opacity="1" fill-rule="evenodd" stroke="none" d="M 8 2 C 4.676 2 2 4.676 2 8 C 2 11.324 4.676 14 8 14 C 11.324 14 14 11.324 14 8 C 14 4.676 11.324 2 8 2 z M 8 3 C 10.77 3 13 5.23 13 8 C 13 10.77 10.77 13 8 13 C 5.23 13 3 10.77 3 8 C 3 5.23 5.23 3 8 3 z"/></svg>