<svg xmlns="http://www.w3.org/2000/svg" xmlns:svg="http://www.w3.org/2000/svg" id="svg2" width="16" height="16" version="1.1" viewBox="0 0 16 16"><metadata id="metadata10"/><path id="rect4161" fill="#bebebe" fill-opacity="1" stroke="none" stroke-dasharray="none" stroke-miterlimit="4" stroke-opacity="1" stroke-width=".1" d="M 1 2 L 1 10 L 1 11 L 1 12 L 6 12 L 7 12 L 9 12 L 10 12 L 10 14 L 11 14 L 14 14 L 14 13 L 11 13 L 11 10 L 14 10 L 14 9 L 11 9 L 10 9 L 10 11 L 9 11 L 9 10 L 2 10 L 2 3 L 14 3 L 14 8 L 15 8 L 15 2 L 2 2 L 1 2 z M 12 11 L 12 12 L 15 12 L 15 11 L 12 11 z M 7 13 C 6.446 13 6 13.446 6 14 L 8 14 L 9 14 L 9 13 L 8 13 L 7 13 z" opacity="1"/></svg>