<svg xmlns="http://www.w3.org/2000/svg" xmlns:svg="http://www.w3.org/2000/svg" id="svg7384" width="16" height="16" version="1.1"><metadata id="metadata90"/><title id="title9167">Gnome Symbolic Icon Theme</title><path color="#000" style="text-decoration-line:none;text-decoration-style:solid;text-decoration-color:#000;isolation:auto;mix-blend-mode:normal;solid-color:#000;solid-opacity:1" id="rect4183" fill="#f57900" fill-opacity="1" fill-rule="nonzero" stroke="none" stroke-dasharray="none" stroke-dashoffset="0" stroke-linecap="butt" stroke-linejoin="miter" stroke-miterlimit="4" stroke-opacity="1" stroke-width="1" d="M 3,4 3,7 4,7 4,4 3,4 Z M 3,8 3,9 4,9 4,8 3,8 Z" clip-rule="nonzero" color-interpolation="sRGB" color-interpolation-filters="linearRGB" color-rendering="auto" display="inline" enable-background="accumulate" image-rendering="auto" opacity="1" overflow="visible" shape-rendering="auto" text-decoration="none" text-rendering="auto" visibility="visible"/><path id="rect4161" fill="#bebebe" fill-opacity="1" stroke="none" stroke-dasharray="none" stroke-miterlimit="4" stroke-opacity="1" stroke-width=".1" d="m 1,2 0,8 0,1 0,1 5,0 1,0 2,0 1,0 0,2 1,0 3,0 0,-1 -3,0 0,-3 3,0 0,-1 -3,0 -1,0 0,2 -1,0 0,-1 -7,0 0,-7 12,0 0,5 1,0 L 15,2 2,2 1,2 Z m 11,9 0,1 3,0 0,-1 -3,0 z m -5,2 c -0.554,0 -1,0.446 -1,1 l 2,0 1,0 0,-1 -1,0 -1,0 z" opacity="1"/></svg>