<svg xmlns="http://www.w3.org/2000/svg" xmlns:svg="http://www.w3.org/2000/svg" id="svg2" enable-background="new" version="1.1" viewBox="0 0 16 16"><metadata id="metadata18"/><path id="path4196" fill="#bebebe" fill-opacity="1" fill-rule="nonzero" stroke="none" stroke-dasharray="none" stroke-dashoffset="0" stroke-linecap="butt" stroke-linejoin="miter" stroke-miterlimit="4" stroke-opacity="1" stroke-width="1" d="m 7.9999999,2.0000001 c -3.1528196,0 -5.980449,1.3201732 -7.98242187,3.4316406 l 0.72460937,0.6875 C 2.5621713,4.19953 5.1337196,3.0000001 7.9999999,3.0000001 c 2.8662801,0 5.4378291,1.1995299 7.2578121,3.1191406 l 0.72461,-0.6875 C 13.980449,3.3201733 11.15282,2.0000001 7.9999999,2.0000001 Z" clip-rule="nonzero" color="#000" color-interpolation="sRGB" color-interpolation-filters="linearRGB" color-rendering="auto" display="inline" enable-background="accumulate" image-rendering="auto" opacity=".5" overflow="visible" shape-rendering="auto" text-decoration="none" text-rendering="auto" visibility="visible" style="text-decoration-line:none;text-decoration-style:solid;text-decoration-color:#000;isolation:auto;mix-blend-mode:normal;solid-color:#000;solid-opacity:1"/><path id="path4194" fill="#bebebe" fill-opacity="1" fill-rule="nonzero" stroke="none" stroke-dasharray="none" stroke-dashoffset="0" stroke-linecap="butt" stroke-linejoin="miter" stroke-miterlimit="4" stroke-opacity="1" stroke-width="1" d="m 7.9999999,4.0000001 c -2.5798867,0 -4.8932395,1.0806683 -6.53125,2.8085938 l 0.7265625,0.6875 C 3.6512835,5.9605825 5.7071263,5.0000001 7.9999999,5.0000001 c 2.2928741,0 4.3487151,0.9605823 5.8046881,2.4960938 l 0.726562,-0.6875 C 12.89324,5.0806685 10.579887,4.0000001 7.9999999,4.0000001 Z" clip-rule="nonzero" color="#000" color-interpolation="sRGB" color-interpolation-filters="linearRGB" color-rendering="auto" display="inline" enable-background="accumulate" image-rendering="auto" opacity=".5" overflow="visible" shape-rendering="auto" text-decoration="none" text-rendering="auto" visibility="visible" style="text-decoration-line:none;text-decoration-style:solid;text-decoration-color:#000;isolation:auto;mix-blend-mode:normal;solid-color:#000;solid-opacity:1"/><path id="path4192" fill="#bebebe" fill-opacity="1" fill-rule="nonzero" stroke="none" stroke-dasharray="none" stroke-dashoffset="0" stroke-linecap="butt" stroke-linejoin="miter" stroke-miterlimit="4" stroke-opacity="1" stroke-width="1" d="m 7.9999999,6.0000001 c -2.0063346,0 -3.806096,0.8399386 -5.0800781,2.1835938 L 3.6464843,8.873047 C 4.738493,7.7210779 6.2800595,7.0000001 7.9999999,7.0000001 c 1.7199404,0 3.2615071,0.7210778 4.3535161,1.8730469 L 13.080078,8.1835939 C 11.806096,6.8399387 10.006335,6.0000001 7.9999999,6.0000001 Z" clip-rule="nonzero" color="#000" color-interpolation="sRGB" color-interpolation-filters="linearRGB" color-rendering="auto" display="inline" enable-background="accumulate" image-rendering="auto" opacity=".5" overflow="visible" shape-rendering="auto" text-decoration="none" text-rendering="auto" visibility="visible" style="text-decoration-line:none;text-decoration-style:solid;text-decoration-color:#000;isolation:auto;mix-blend-mode:normal;solid-color:#000;solid-opacity:1"/><path id="path4190" fill="#bebebe" fill-opacity="1" fill-rule="nonzero" stroke="none" stroke-dasharray="none" stroke-dashoffset="0" stroke-linecap="butt" stroke-linejoin="miter" stroke-miterlimit="4" stroke-opacity="1" stroke-width="1" d="m 7.9999999,8.0000001 c -1.4331375,0 -2.7130552,0.6046509 -3.6230469,1.5644531 L 5.1015624,10.251953 C 5.8295683,9.4839732 6.8533723,9.0000001 7.9999999,9.0000001 c 1.1466276,0 2.1704311,0.4839731 2.8984381,1.2519529 L 11.623047,9.5644532 C 10.713055,8.604651 9.4331374,8.0000001 7.9999999,8.0000001 Z" clip-rule="nonzero" color="#000" color-interpolation="sRGB" color-interpolation-filters="linearRGB" color-rendering="auto" display="inline" enable-background="accumulate" image-rendering="auto" opacity=".5" overflow="visible" shape-rendering="auto" text-decoration="none" text-rendering="auto" visibility="visible" style="text-decoration-line:none;text-decoration-style:solid;text-decoration-color:#000;isolation:auto;mix-blend-mode:normal;solid-color:#000;solid-opacity:1"/><path id="path4188" fill="#bebebe" fill-opacity="1" fill-rule="nonzero" stroke="none" stroke-dasharray="none" stroke-dashoffset="0" stroke-linecap="butt" stroke-linejoin="miter" stroke-miterlimit="4" stroke-opacity="1" stroke-width="1" d="M 7.9999999,10 C 7.1398758,10 6.3721925,10.363288 5.8261718,10.939453 L 6.5507811,11.625 C 6.9147521,11.241362 7.4269856,11 7.9999999,11 c 0.5730143,0 1.0852477,0.241362 1.4492188,0.625 L 10.173828,10.939453 C 9.6278074,10.363288 8.860124,10 7.9999999,10 Z" clip-rule="nonzero" color="#000" color-interpolation="sRGB" color-interpolation-filters="linearRGB" color-rendering="auto" display="inline" enable-background="accumulate" image-rendering="auto" opacity="1" overflow="visible" shape-rendering="auto" text-decoration="none" text-rendering="auto" visibility="visible" style="text-decoration-line:none;text-decoration-style:solid;text-decoration-color:#000;isolation:auto;mix-blend-mode:normal;solid-color:#000;solid-opacity:1"/><path id="rect4163" fill="#bebebe" fill-opacity="1" fill-rule="nonzero" stroke="none" stroke-dasharray="none" stroke-dashoffset="0" stroke-linecap="butt" stroke-linejoin="miter" stroke-miterlimit="4" stroke-opacity="1" stroke-width="1" d="m 7.9999999,12 c -0.554,0 -1,0.446 -1,1 0,0.554 0.446,1 1,1 0.554,0 1,-0.446 1,-1 0,-0.554 -0.446,-1 -1,-1 z" clip-rule="nonzero" color="#000" color-interpolation="sRGB" color-interpolation-filters="linearRGB" color-rendering="auto" display="inline" enable-background="accumulate" image-rendering="auto" opacity="1" overflow="visible" shape-rendering="auto" text-decoration="none" text-rendering="auto" visibility="visible" style="text-decoration-line:none;text-decoration-style:solid;text-decoration-color:#000;isolation:auto;mix-blend-mode:normal;solid-color:#000;solid-opacity:1"/></svg>