<svg xmlns="http://www.w3.org/2000/svg" xmlns:svg="http://www.w3.org/2000/svg" id="svg2" enable-background="new" version="1.1" viewBox="0 0 16 16"><metadata id="metadata20"/><path color="#000" style="text-decoration-line:none;text-decoration-style:solid;text-decoration-color:#000;isolation:auto;mix-blend-mode:normal;solid-color:#000;solid-opacity:1" id="rect4163" fill="#bebebe" fill-opacity="1" fill-rule="nonzero" stroke="none" stroke-dasharray="none" stroke-dashoffset="0" stroke-linecap="butt" stroke-linejoin="miter" stroke-miterlimit="4" stroke-opacity="1" stroke-width="1" d="M 8 2 C 4.8471804 2 2.019551 3.3201732 0.017578125 5.4316406 L 0.7421875 6.1191406 C 2.5621714 4.1995299 5.1337197 3 8 3 C 10.86628 3 13.437829 4.1995299 15.257812 6.1191406 L 15.982422 5.4316406 C 13.980449 3.3201732 11.15282 2 8 2 z M 4 7 C 3.446 7 3 7.446 3 8 C 3 8.554 3.446 9 4 9 C 4.554 9 5 8.554 5 8 C 5 7.446 4.554 7 4 7 z M 8 7 C 7.446 7 7 7.446 7 8 C 7 8.554 7.446 9 8 9 C 8.554 9 9 8.554 9 8 C 9 7.446 8.554 7 8 7 z M 12 7 C 11.446 7 11 7.446 11 8 C 11 8.554 11.446 9 12 9 C 12.554 9 13 8.554 13 8 C 13 7.446 12.554 7 12 7 z M 8 12 C 7.446 12 7 12.446 7 13 C 7 13.554 7.446 14 8 14 C 8.554 14 9 13.554 9 13 C 9 12.446 8.554 12 8 12 z" clip-rule="nonzero" color-interpolation="sRGB" color-interpolation-filters="linearRGB" color-rendering="auto" display="inline" enable-background="accumulate" image-rendering="auto" opacity="1" overflow="visible" shape-rendering="auto" text-decoration="none" text-rendering="auto" visibility="visible"/></svg>