<svg xmlns="http://www.w3.org/2000/svg" xmlns:svg="http://www.w3.org/2000/svg" id="svg7384" width="16" height="16" enable-background="new" version="1.1"><metadata id="metadata90"/><title id="title8473">Moka Symbolic Icon Theme</title><defs id="defs7386"><filter id="filter7554" color-interpolation-filters="sRGB"><feBlend id="feBlend7556" in2="BackgroundImage" mode="darken"/></filter></defs><g id="layer9" display="inline" transform="translate(-261.0004,212.99998)"><path color="#000" style="text-decoration-line:none;text-decoration-style:solid;text-decoration-color:#000;isolation:auto;mix-blend-mode:normal;solid-color:#000;solid-opacity:1" id="rect4167" fill="#bebebe" fill-opacity="1" fill-rule="nonzero" stroke="none" stroke-dasharray="none" stroke-dashoffset="0" stroke-linecap="butt" stroke-linejoin="miter" stroke-miterlimit="4" stroke-opacity="1" stroke-width="1" d="M 2 2 L 2 11 L 8 11 L 8 13.582031 L 8 14 L 8.9960938 14 L 9 14 L 9 13.996094 L 11.996094 11 L 14 11 L 14 2 L 2 2 z M 3 3 L 13 3 L 13 10 L 3 10 L 3 3 z M 7 4 L 7 7 L 7 8 L 8 8 L 10 8 L 10 7 L 8 7 L 8 4 L 7 4 z M 9 11 L 10.582031 11 L 9 12.582031 L 9 11 z" clip-rule="nonzero" color-interpolation="sRGB" color-interpolation-filters="linearRGB" color-rendering="auto" display="inline" enable-background="accumulate" image-rendering="auto" opacity="1" overflow="visible" shape-rendering="auto" text-decoration="none" text-rendering="auto" transform="translate(261.0004,-212.99998)" visibility="visible"/></g></svg>