<svg xmlns="http://www.w3.org/2000/svg" xmlns:svg="http://www.w3.org/2000/svg" id="svg2" width="16" height="16" enable-background="new" version="1.1" viewBox="0 0 16 16"><metadata id="metadata10"/><path color="#000" style="text-decoration-line:none;text-decoration-style:solid;text-decoration-color:#000;isolation:auto;mix-blend-mode:normal;solid-color:#000;solid-opacity:1" id="rect4199" fill="#bebebe" fill-opacity="1" fill-rule="nonzero" stroke="none" stroke-dasharray="none" stroke-dashoffset="0" stroke-linecap="butt" stroke-linejoin="miter" stroke-miterlimit="4" stroke-opacity="1" stroke-width="1" d="M 6.98891,3 C 5.5599607,3 4.3762849,3.9951369 4.0736143,5.3320312 2.9613788,5.8329946 2.173745,6.8927184 2.0514326,8.1640625 0.86029081,8.5600234 5e-7,9.6707134 5e-7,11 c 0,1.662 1.3358805,3 2.9952469,3 l 6.9889095,0 2.4960391,0 0.499208,0 0,-0.002 c 0.0087,1.18e-4 0.01667,0.002 0.02535,0.002 1.659366,0 2.995247,-1.338 2.995247,-3 0,-1.3456014 -0.882238,-2.464956 -2.096283,-2.8476562 0.044,-0.2084937 0.0741,-0.422641 0.0741,-0.6523438 0,-1.9389991 -1.558527,-3.5 -3.494455,-3.5 C 10.088514,4 9.7146513,4.0720625 9.3640471,4.1953125 8.8217318,3.4714446 7.9669954,3 6.98891,3 Z m 0,1 c 0.5890475,0 1.1145856,0.2539844 1.4781232,0.6582031 0,0 -0.00195,0.00195 -0.00195,0.00195 0.106339,0.1175196 0.1950583,0.2499467 0.2710542,0.390625 0.084302,0.15675 0.1544126,0.3233368 0.1950031,0.5019532 0.2627527,-0.2100901 0.5662931,-0.3667512 0.900914,-0.4570282 -4.397e-4,-0.00139 -0.00151,-0.00251 -0.00195,-0.00391 C 10.038625,5.0354288 10.256656,5 10.483365,5 c 1.382806,0 2.496039,1.1150008 2.496039,2.5 0,0.1751428 -0.02365,0.3437979 -0.0585,0.5078125 -0.697716,0.020302 -1.328365,0.2806091 -1.827178,0.6972656 l 0.63766,0.7636719 c 0.243342,-0.2031067 0.534041,-0.3472661 0.854113,-0.4179688 0.02431,-0.00514 0.04726,-0.013549 0.07215,-0.017578 C 12.76993,9.0129367 12.886129,9 13.004755,9 c 1.106245,0 1.996831,0.8920002 1.996831,2 0,1.108 -0.890586,2 -1.996831,2 l -0.02535,0 -0.499208,0 -2.4960391,0 -4.7678247,0 -2.2210848,0 c -1.1062442,0 -1.99683126,-0.892 -1.99683126,-2 0,-0.784944 0.45170466,-1.45542 1.10566736,-1.7832031 0.1265148,-0.063413 0.2605944,-0.1114506 0.3997562,-0.1484375 0.012083,-0.00306 0.022929,-0.00888 0.035101,-0.011719 C 2.6849029,9.0207913 2.8373804,9 2.9952474,9 c 0.017298,0 0.033526,0.00346 0.050701,0.00391 0.010322,0.00137 0.020599,0.00347 0.0312,0.00391 C 3.0422987,8.843798 3.0186478,8.6751427 3.0186478,8.5 c 0,-0.8935036 0.4641108,-1.6718384 1.1641682,-2.1132812 0.027102,-0.01696 0.056093,-0.030911 0.083851,-0.046875 0.1015393,-0.058674 0.2058827,-0.1160222 0.315905,-0.1601563 0.020098,-0.00806 0.042045,-0.011979 0.062401,-0.019531 0.1146812,-0.042545 0.2309129,-0.079941 0.3529555,-0.1054687 -5.37e-5,-0.00197 1.501e-4,-0.00391 0,-0.00586 C 4.9975237,6.0321711 4.9920787,6.0167582 4.9920787,6 c 0,-0.1707645 0.024774,-0.3335227 0.066301,-0.4902344 0.00487,-0.019382 0.012125,-0.037491 0.01755,-0.056641 0.044479,-0.14947 0.1025568,-0.2939693 0.1774531,-0.427734 C 5.5947267,4.415751 6.2386907,4 6.98891,4 Z" clip-rule="nonzero" color-interpolation="sRGB" color-interpolation-filters="linearRGB" color-rendering="auto" display="inline" enable-background="accumulate" image-rendering="auto" opacity="1" overflow="visible" shape-rendering="auto" text-decoration="none" text-rendering="auto" visibility="visible"/></svg>