<svg xmlns="http://www.w3.org/2000/svg" xmlns:svg="http://www.w3.org/2000/svg" id="svg2" width="16" height="16" enable-background="new" version="1.1" viewBox="0 0 16 16"><metadata id="metadata129"/><defs id="defs4"><clipPath id="clipPath6"><rect id="rect8" width="477.143" height="208.571" x="-830" y="1580.934" fill="#ff0"/></clipPath><clipPath id="clipPath10" clipPathUnits="userSpaceOnUse"><rect id="rect12" width="357.384" height="318.397" x="218.9" y="758.675" fill="#fff" transform="rotate(.22918)"/></clipPath><clipPath id="clipPath14"><rect id="rect16" width="477.143" height="208.571" x="-830" y="1580.934" fill="#ff0"/></clipPath><clipPath id="clipPath18" clipPathUnits="userSpaceOnUse"><rect id="rect20" width="301.429" height="195" x="0" y="857.541" fill="#fff"/></clipPath><clipPath id="clipPath22"><rect id="rect24" width="477.143" height="208.571" x="-830" y="1580.934" fill="#ff0"/></clipPath><clipPath id="clipPath26"><rect id="rect28" width="477.143" height="208.571" x="-830" y="1580.934" fill="#ff0"/></clipPath><clipPath id="clipPath30"><rect id="rect32" width="477.143" height="208.571" x="-830" y="1580.934" fill="#ff0"/></clipPath><clipPath id="clipPath34" clipPathUnits="userSpaceOnUse"><rect id="rect36" width="357.384" height="318.397" x="218.9" y="758.675" fill="#fff" transform="rotate(.22918)"/></clipPath><clipPath id="clipPath38" clipPathUnits="userSpaceOnUse"><rect id="rect40" width="506.461" height="37.48" x="8.208" y=".064" fill="#162d50" transform="rotate(20.37582)"/></clipPath><clipPath id="clipPath42" clipPathUnits="userSpaceOnUse"><rect id="rect44" width="357.865" height="240.871" x="294.934" y="780.645" fill="red" transform="matrix(.99975 -.02255 .02255 .99975 0 0)"/></clipPath><clipPath id="clipPath46" clipPathUnits="userSpaceOnUse"><rect id="rect48" width="506.461" height="37.48" x="8.208" y=".064" fill="#162d50" transform="rotate(20.37582)"/></clipPath><clipPath id="clipPath50" clipPathUnits="userSpaceOnUse"><rect id="rect52" width="287.432" height="279.027" x="257.321" y="793.52" fill="#fff" transform="rotate(.16206)"/></clipPath><clipPath id="clipPath54" clipPathUnits="userSpaceOnUse"><rect id="rect56" width="79.477" height="30.006" x="276.365" y="977.09" fill="#e20a17"/></clipPath><clipPath id="clipPath58" clipPathUnits="userSpaceOnUse"><rect id="rect60" width="350.457" height="235.885" x="221.386" y="804.242" transform="rotate(.6171)"/></clipPath><clipPath id="clipPath62"><rect id="rect64" width="477.143" height="208.571" x="-830" y="1580.934" fill="#ff0"/></clipPath><clipPath id="clipPath66" clipPathUnits="userSpaceOnUse"><rect id="rect68" width="63.987" height="41.394" x="448.118" y="815.74" fill="#fff" transform="rotate(27.44968)"/></clipPath><clipPath id="clipPath70" clipPathUnits="userSpaceOnUse"><rect id="rect72" width="301.429" height="195" x="0" y="857.541" fill="#fff"/></clipPath><clipPath id="clipPath74" clipPathUnits="userSpaceOnUse"><rect id="rect76" width="301.429" height="195" x="0" y=".06" fill="#fff"/></clipPath><clipPath id="clipPath78" clipPathUnits="userSpaceOnUse"><rect id="rect80" width="301.429" height="195" x="0" y="857.541" fill="#fff"/></clipPath><clipPath id="clipPath82"><rect id="rect84" width="477.143" height="208.571" x="-830" y="1580.934" fill="#ff0"/></clipPath><clipPath id="clipPath11535" clipPathUnits="userSpaceOnUse"><path id="path87" fill="#4a0" d="m 699.2857,672.93231 a 40.714287,40.714287 0 1 1 -81.42858,0 40.714287,40.714287 0 1 1 81.42858,0 z"/></clipPath><clipPath id="clipPath89" clipPathUnits="userSpaceOnUse"><path id="path91" fill="#4a0" d="m 699.2857,672.93231 a 40.714287,40.714287 0 1 1 -81.42858,0 40.714287,40.714287 0 1 1 81.42858,0 z" transform="matrix(4.3233 0 0 4.3233 -2450.68 -2667.55)"/></clipPath><clipPath id="clipPath93" clipPathUnits="userSpaceOnUse"><path id="path95" fill="#4a0" d="m 699.2857,672.93231 a 40.714287,40.714287 0 1 1 -81.42858,0 40.714287,40.714287 0 1 1 81.42858,0 z" clip-path="url(#clipPath11535)" transform="matrix(4.3233 0 0 4.3233 -2450.68 -2667.55)"/></clipPath><clipPath id="clipPath97"><rect id="rect99" width="477.143" height="208.571" x="-830" y="1580.934" fill="#ff0"/></clipPath><clipPath id="clipPath101" clipPathUnits="userSpaceOnUse"><path id="path103" fill="#4a0" d="m 699.2857,672.93231 a 40.714287,40.714287 0 1 1 -81.42858,0 40.714287,40.714287 0 1 1 81.42858,0 z" clip-path="url(#clipPath11535)"/></clipPath><clipPath id="clipPath105"><rect id="rect107" width="477.143" height="208.571" x="-830" y="1580.934" fill="#ff0"/></clipPath><clipPath id="clipPath109"><rect id="rect111" width="477.143" height="208.571" x="-830" y="1580.934" fill="#ff0"/></clipPath><clipPath id="clipPath113" clipPathUnits="userSpaceOnUse"><path id="path115" fill="#4a0" d="m 699.2857,672.93231 a 40.714287,40.714287 0 1 1 -81.42858,0 40.714287,40.714287 0 1 1 81.42858,0 z" clip-path="url(#clipPath11535)" transform="matrix(4.3233 0 0 4.3233 -2450.68 -2667.55)"/></clipPath><clipPath id="clipPath117"><rect id="rect119" width="477.143" height="208.571" x="-830" y="1580.934" fill="#ff0"/></clipPath><clipPath id="clipPath121"><rect id="rect123" width="477.143" height="208.571" x="-830" y="1580.934" fill="#ff0"/></clipPath></defs><path color="#000" style="text-decoration-line:none;text-decoration-style:solid;text-decoration-color:#000;isolation:auto;mix-blend-mode:normal;solid-color:#000;solid-opacity:1" id="rect4161" fill="#bebebe" fill-opacity="1" fill-rule="nonzero" stroke="none" stroke-dasharray="none" stroke-dashoffset="0" stroke-linecap="butt" stroke-linejoin="miter" stroke-miterlimit="4" stroke-opacity="1" stroke-width="1" d="M 9,2 C 8.93208,2 8.866193,2.00755 8.798828,2.00977 5.5695224,2.1160651 3,4.7439232 3,8 L 4,8 C 4,5.4547612 5.8853509,3.3711299 8.3398438,3.0488281 8.1279218,3.6614092 8,4.3135027 8,5 8,7.9987972 10.179979,10.463097 13.046875,10.917969 12.141158,12.175887 10.67526,13 9,13 8.6571685,13 8.3230841,12.96551 8,12.90039 l 0,1.009765 C 8.325654,13.964459 8.658464,14 9,14 c 2.229339,0 4.152108,-1.213533 5.185547,-3.009766 0.0052,-2.3e-4 0.01041,1.72e-4 0.01563,0 0.02328,-0.04054 0.04211,-0.08386 0.06445,-0.125 0.02685,-0.04948 0.05068,-0.100072 0.07617,-0.15039 0.124935,-0.24637 0.239536,-0.499044 0.330078,-0.7636721 C 14.45145,9.9806337 14.228742,10 14,10 13.861909,10 13.726995,9.9913437 13.591797,9.9804688 11.015036,9.7732015 9,7.6319086 9,5 9,4.1981811 9.193945,3.4473111 9.529297,2.7792969 9.544587,2.7491569 9.560247,2.7191909 9.576167,2.6894529 9.687466,2.4784217 9.810607,2.2744084 9.949214,2.082031 9.639523,2.0330972 9.323875,2 9,2 Z" clip-rule="nonzero" color-interpolation="sRGB" color-interpolation-filters="linearRGB" color-rendering="auto" display="inline" enable-background="accumulate" image-rendering="auto" opacity="1" overflow="visible" shape-rendering="auto" text-decoration="none" text-rendering="auto" visibility="visible"/><path color="#000" style="text-decoration-line:none;text-decoration-style:solid;text-decoration-color:#000;isolation:auto;mix-blend-mode:normal;solid-color:#000;solid-opacity:1" id="rect4335" fill="#bebebe" fill-opacity="1" fill-rule="nonzero" stroke="none" stroke-dasharray="none" stroke-dashoffset="0" stroke-linecap="butt" stroke-linejoin="miter" stroke-miterlimit="4" stroke-opacity="1" stroke-width="1" d="M 3.5 10 C 2.819791 10 2.2553817 10.451892 2.0703125 11.070312 C 1.4518921 11.255382 1 11.819791 1 12.5 C 1 13.331 1.669 14 2.5 14 L 6 14 C 6.5540003 14 7 13.554 7 13 C 7 12.446 6.5540003 12 6 12 C 6 11.446 5.5540003 11 5 11 C 4.9695034 11 4.9438482 11.014931 4.9140625 11.017578 C 4.7130478 10.426482 4.1607828 10 3.5 10 z" clip-rule="nonzero" color-interpolation="sRGB" color-interpolation-filters="linearRGB" color-rendering="auto" display="inline" enable-background="accumulate" image-rendering="auto" opacity="1" overflow="visible" shape-rendering="auto" text-decoration="none" text-rendering="auto" visibility="visible"/></svg>