<svg xmlns="http://www.w3.org/2000/svg" xmlns:svg="http://www.w3.org/2000/svg" id="svg2" width="16" height="16" enable-background="new" version="1.1" viewBox="0 0 16 16"><metadata id="metadata121"/><defs id="defs4"><clipPath id="clipPath6"><rect id="rect8" width="477.143" height="208.571" x="-830" y="1580.934" fill="#ff0"/></clipPath><clipPath id="clipPath10" clipPathUnits="userSpaceOnUse"><rect id="rect12" width="357.384" height="318.397" x="218.9" y="758.675" fill="#fff" transform="rotate(.22918)"/></clipPath><clipPath id="clipPath14"><rect id="rect16" width="477.143" height="208.571" x="-830" y="1580.934" fill="#ff0"/></clipPath><clipPath id="clipPath18" clipPathUnits="userSpaceOnUse"><rect id="rect20" width="506.461" height="37.48" x="8.208" y=".064" fill="#162d50" transform="rotate(20.37582)"/></clipPath><clipPath id="clipPath22"><rect id="rect24" width="477.143" height="208.571" x="-830" y="1580.934" fill="#ff0"/></clipPath><clipPath id="clipPath26"><rect id="rect28" width="477.143" height="208.571" x="-830" y="1580.934" fill="#ff0"/></clipPath><clipPath id="clipPath30" clipPathUnits="userSpaceOnUse"><rect id="rect32" width="357.865" height="240.871" x="294.934" y="780.645" fill="red" transform="matrix(.99975 -.02255 .02255 .99975 0 0)"/></clipPath><clipPath id="clipPath34" clipPathUnits="userSpaceOnUse"><rect id="rect36" width="357.384" height="318.397" x="218.9" y="758.675" fill="#fff" transform="rotate(.22918)"/></clipPath><clipPath id="clipPath38" clipPathUnits="userSpaceOnUse"><rect id="rect40" width="350.457" height="235.885" x="221.386" y="804.242" transform="rotate(.6171)"/></clipPath><clipPath id="clipPath42"><rect id="rect44" width="477.143" height="208.571" x="-830" y="1580.934" fill="#ff0"/></clipPath><clipPath id="clipPath46" clipPathUnits="userSpaceOnUse"><rect id="rect48" width="506.461" height="37.48" x="8.208" y=".064" fill="#162d50" transform="rotate(20.37582)"/></clipPath><clipPath id="clipPath50"><rect id="rect52" width="477.143" height="208.571" x="-830" y="1580.934" fill="#ff0"/></clipPath><clipPath id="clipPath54" clipPathUnits="userSpaceOnUse"><rect id="rect56" width="79.477" height="30.006" x="276.365" y="977.09" fill="#e20a17"/></clipPath><clipPath id="clipPath58" clipPathUnits="userSpaceOnUse"><rect id="rect60" width="287.432" height="279.027" x="257.321" y="793.52" fill="#fff" transform="rotate(.16206)"/></clipPath><clipPath id="clipPath62" clipPathUnits="userSpaceOnUse"><rect id="rect64" width="301.429" height="195" x="0" y=".06" fill="#fff"/></clipPath><clipPath id="clipPath66" clipPathUnits="userSpaceOnUse"><rect id="rect68" width="301.429" height="195" x="0" y="857.541" fill="#fff"/></clipPath><clipPath id="clipPath70" clipPathUnits="userSpaceOnUse"><path id="path72" fill="#4a0" d="m 699.2857,672.93231 a 40.714287,40.714287 0 1 1 -81.42858,0 40.714287,40.714287 0 1 1 81.42858,0 z" clip-path="url(#clipPath11535)"/></clipPath><clipPath id="clipPath74" clipPathUnits="userSpaceOnUse"><rect id="rect76" width="301.429" height="195" x="0" y="857.541" fill="#fff"/></clipPath><clipPath id="clipPath11535" clipPathUnits="userSpaceOnUse"><path id="path79" fill="#4a0" d="m 699.2857,672.93231 a 40.714287,40.714287 0 1 1 -81.42858,0 40.714287,40.714287 0 1 1 81.42858,0 z"/></clipPath><clipPath id="clipPath81" clipPathUnits="userSpaceOnUse"><rect id="rect83" width="301.429" height="195" x="0" y="857.541" fill="#fff"/></clipPath><clipPath id="clipPath85" clipPathUnits="userSpaceOnUse"><path id="path87" fill="#4a0" d="m 699.2857,672.93231 a 40.714287,40.714287 0 1 1 -81.42858,0 40.714287,40.714287 0 1 1 81.42858,0 z" transform="matrix(4.3233 0 0 4.3233 -2450.68 -2667.55)"/></clipPath><clipPath id="clipPath89" clipPathUnits="userSpaceOnUse"><rect id="rect91" width="63.987" height="41.394" x="448.118" y="815.74" fill="#fff" transform="rotate(27.44968)"/></clipPath><clipPath id="clipPath93" clipPathUnits="userSpaceOnUse"><path id="path95" fill="#4a0" d="m 699.2857,672.93231 a 40.714287,40.714287 0 1 1 -81.42858,0 40.714287,40.714287 0 1 1 81.42858,0 z" clip-path="url(#clipPath11535)" transform="matrix(4.3233 0 0 4.3233 -2450.68 -2667.55)"/></clipPath><clipPath id="clipPath97" clipPathUnits="userSpaceOnUse"><path id="path99" fill="#4a0" d="m 699.2857,672.93231 a 40.714287,40.714287 0 1 1 -81.42858,0 40.714287,40.714287 0 1 1 81.42858,0 z" clip-path="url(#clipPath11535)" transform="matrix(4.3233 0 0 4.3233 -2450.68 -2667.55)"/></clipPath><clipPath id="clipPath6-0"><rect id="rect8-3" width="477.143" height="208.571" x="-830" y="1580.934" fill="#ff0"/></clipPath><clipPath id="clipPath10-9" clipPathUnits="userSpaceOnUse"><rect id="rect12-3" width="357.384" height="318.397" x="218.9" y="758.675" fill="#fff" transform="rotate(.22918)"/></clipPath><clipPath id="clipPath14-1"><rect id="rect16-4" width="477.143" height="208.571" x="-830" y="1580.934" fill="#ff0"/></clipPath><clipPath id="clipPath18-5" clipPathUnits="userSpaceOnUse"><rect id="rect20-2" width="506.461" height="37.48" x="8.208" y=".064" fill="#162d50" transform="rotate(20.37582)"/></clipPath><clipPath id="clipPath22-5"><rect id="rect24-2" width="477.143" height="208.571" x="-830" y="1580.934" fill="#ff0"/></clipPath><clipPath id="clipPath26-7"><rect id="rect28-8" width="477.143" height="208.571" x="-830" y="1580.934" fill="#ff0"/></clipPath><clipPath id="clipPath30-7" clipPathUnits="userSpaceOnUse"><rect id="rect32-9" width="357.865" height="240.871" x="294.934" y="780.645" fill="red" transform="matrix(.99975 -.02255 .02255 .99975 0 0)"/></clipPath><clipPath id="clipPath34-1" clipPathUnits="userSpaceOnUse"><rect id="rect36-5" width="357.384" height="318.397" x="218.9" y="758.675" fill="#fff" transform="rotate(.22918)"/></clipPath><clipPath id="clipPath38-4" clipPathUnits="userSpaceOnUse"><rect id="rect40-1" width="350.457" height="235.885" x="221.386" y="804.242" transform="rotate(.6171)"/></clipPath><clipPath id="clipPath42-2"><rect id="rect44-7" width="477.143" height="208.571" x="-830" y="1580.934" fill="#ff0"/></clipPath><clipPath id="clipPath46-6" clipPathUnits="userSpaceOnUse"><rect id="rect48-2" width="506.461" height="37.48" x="8.208" y=".064" fill="#162d50" transform="rotate(20.37582)"/></clipPath><clipPath id="clipPath50-7"><rect id="rect52-7" width="477.143" height="208.571" x="-830" y="1580.934" fill="#ff0"/></clipPath><clipPath id="clipPath54-8" clipPathUnits="userSpaceOnUse"><rect id="rect56-4" width="79.477" height="30.006" x="276.365" y="977.09" fill="#e20a17"/></clipPath><clipPath id="clipPath58-4" clipPathUnits="userSpaceOnUse"><rect id="rect60-9" width="287.432" height="279.027" x="257.321" y="793.52" fill="#fff" transform="rotate(.16206)"/></clipPath><clipPath id="clipPath62-1" clipPathUnits="userSpaceOnUse"><rect id="rect64-8" width="301.429" height="195" x="0" y=".06" fill="#fff"/></clipPath><clipPath id="clipPath66-9" clipPathUnits="userSpaceOnUse"><rect id="rect68-3" width="301.429" height="195" x="0" y="857.541" fill="#fff"/></clipPath><clipPath id="clipPath70-1" clipPathUnits="userSpaceOnUse"><path id="path72-0" fill="#4a0" d="m 699.2857,672.93231 a 40.714287,40.714287 0 1 1 -81.42858,0 40.714287,40.714287 0 1 1 81.42858,0 z" clip-path="url(#clipPath11535)"/></clipPath><clipPath id="clipPath74-8" clipPathUnits="userSpaceOnUse"><rect id="rect76-4" width="301.429" height="195" x="0" y="857.541" fill="#fff"/></clipPath><clipPath id="clipPath11535-5" clipPathUnits="userSpaceOnUse"><path id="path79-6" fill="#4a0" d="m 699.2857,672.93231 a 40.714287,40.714287 0 1 1 -81.42858,0 40.714287,40.714287 0 1 1 81.42858,0 z"/></clipPath><clipPath id="clipPath81-7" clipPathUnits="userSpaceOnUse"><rect id="rect83-2" width="301.429" height="195" x="0" y="857.541" fill="#fff"/></clipPath><clipPath id="clipPath85-8" clipPathUnits="userSpaceOnUse"><path id="path87-4" fill="#4a0" d="m 699.2857,672.93231 a 40.714287,40.714287 0 1 1 -81.42858,0 40.714287,40.714287 0 1 1 81.42858,0 z" transform="matrix(4.3233 0 0 4.3233 -2450.68 -2667.55)"/></clipPath><clipPath id="clipPath89-0" clipPathUnits="userSpaceOnUse"><rect id="rect91-7" width="63.987" height="41.394" x="448.118" y="815.74" fill="#fff" transform="rotate(27.44968)"/></clipPath><clipPath id="clipPath93-5" clipPathUnits="userSpaceOnUse"><path id="path95-4" fill="#4a0" d="m 699.2857,672.93231 a 40.714287,40.714287 0 1 1 -81.42858,0 40.714287,40.714287 0 1 1 81.42858,0 z" clip-path="url(#clipPath11535)" transform="matrix(4.3233 0 0 4.3233 -2450.68 -2667.55)"/></clipPath><clipPath id="clipPath97-3" clipPathUnits="userSpaceOnUse"><path id="path99-9" fill="#4a0" d="m 699.2857,672.93231 a 40.714287,40.714287 0 1 1 -81.42858,0 40.714287,40.714287 0 1 1 81.42858,0 z" clip-path="url(#clipPath11535)" transform="matrix(4.3233 0 0 4.3233 -2450.68 -2667.55)"/></clipPath></defs><path color="#000" style="text-decoration-line:none;text-decoration-style:solid;text-decoration-color:#000;isolation:auto;mix-blend-mode:normal;solid-color:#000;solid-opacity:1" id="rect4199" fill="#bebebe" fill-opacity="1" fill-rule="nonzero" stroke="none" stroke-dasharray="none" stroke-dashoffset="0" stroke-linecap="butt" stroke-linejoin="miter" stroke-miterlimit="4" stroke-opacity="1" stroke-width="1" d="m 6.9882812,2.9999996 c -1.4289493,0 -2.6113919,0.9951368 -2.9140624,2.3320311 C 2.9619832,5.8329941 2.1730936,6.8927179 2.0507812,8.1640621 0.85963946,8.560023 0,9.670713 0,11 c 0,1.662 1.3367273,3 2.9960938,3 l 0.00391,0 0,-1 -0.00391,0 c -1.1062442,0 -1.99804693,-0.892 -1.99804692,-2 0,-0.784944 0.45150602,-1.45542 1.10546872,-1.783204 0.1265148,-0.06341 0.2612289,-0.11145 0.4003906,-0.148437 0.012083,-0.0031 0.022984,-0.0089 0.035156,-0.01172 0.1459653,-0.03585 0.2991684,-0.05664 0.4570354,-0.05664 0.017298,0 0.033607,0.00346 0.050781,0.00391 0.010322,0.0014 0.020648,0.0035 0.03125,0.0039 -0.03485,-0.1640299 -0.058594,-0.3326777 -0.058594,-0.5078204 0,-0.8935036 0.4640052,-1.6718385 1.1640626,-2.1132812 0.027102,-0.01696 0.056226,-0.030911 0.083984,-0.046875 0.1015393,-0.058674 0.2044309,-0.1160222 0.3144531,-0.1601563 0.020098,-0.00806 0.042143,-0.011979 0.0625,-0.019531 0.1146812,-0.042545 0.2314731,-0.079941 0.3535157,-0.1054687 -5.37e-5,-0.00197 1.501e-4,-0.00391 0,-0.00586 -4.045e-4,-0.016656 -0.00586,-0.032069 -0.00586,-0.048828 0,-0.1707646 0.024879,-0.3335227 0.066406,-0.4902345 0.00487,-0.019382 0.012153,-0.037491 0.017578,-0.056641 0.04448,-0.1494696 0.1028384,-0.2939692 0.1777347,-0.427734 0.341344,-0.6096395 0.9841557,-1.0253905 1.734375,-1.0253905 0.5890475,0 1.1149781,0.2539844 1.4785157,0.658203 l -0.00195,0.00195 c 0.1063358,0.1175228 0.1954883,0.2499468 0.2714843,0.390625 0.084302,0.15675 0.154722,0.3233368 0.1953125,0.5019532 C 9.194399,5.3426265 9.497416,5.1859653 9.8320368,5.0956883 c -4.396e-4,-0.00139 -0.00151,-0.00251 -0.00195,-0.00391 0.2085162,-0.056357 0.4256282,-0.09179 0.6523372,-0.09179 1.382806,0 2.496094,1.1150007 2.496094,2.5 0,0.1751428 -0.02179,0.3437979 -0.05664,0.5078125 -0.697716,0.020302 -1.329311,0.2806091 -1.828125,0.6972656 l 0.636718,0.7636726 c 0.243342,-0.203107 0.535397,-0.347266 0.855469,-0.4179693 0.02431,-0.0051 0.04737,-0.01355 0.07226,-0.01758 0.112287,-0.02027 0.227082,-0.033203 0.345708,-0.033203 1.106245,0 1.998047,0.8920003 1.998047,2.0000003 0,1.108 -0.891802,2 -1.998047,2 l -0.02539,0 -0.498047,0 -0.480469,0 0,1 0.480469,0 0.498047,0 0,-0.002 c 0.0087,1.18e-4 0.0167,0.002 0.02539,0.002 1.659367,0 2.996094,-1.338 2.996094,-3 0,-1.345602 -0.881658,-2.4649564 -2.095703,-2.8476565 0.044,-0.2084938 0.07422,-0.422641 0.07422,-0.6523438 0,-1.9389992 -1.560166,-3.5 -3.496094,-3.5 -0.394851,0 -0.7685361,0.072062 -1.1191403,0.1953125 -0.5423153,-0.723868 -1.3969146,-1.1953125 -2.375,-1.1953125 z" clip-rule="nonzero" color-interpolation="sRGB" color-interpolation-filters="linearRGB" color-rendering="auto" display="inline" enable-background="accumulate" image-rendering="auto" opacity="1" overflow="visible" shape-rendering="auto" text-decoration="none" text-rendering="auto" visibility="visible"/><path id="path4188-5" fill="#bebebe" fill-opacity="1" fill-rule="evenodd" stroke="none" stroke-linecap="butt" stroke-linejoin="miter" stroke-opacity="1" stroke-width="1" d="M 8,7 6,11 8,11 8,13 10,9 8,9 8,7 Z" enable-background="new"/><rect id="rect4431" width="1" height="2" x="4" y="14" fill="#bebebe" fill-opacity="1" fill-rule="nonzero" stroke="none" stroke-dasharray="none" stroke-dashoffset="0" stroke-linecap="butt" stroke-linejoin="miter" stroke-miterlimit="4" stroke-opacity="1" stroke-width="1" clip-rule="nonzero" color="#000" color-interpolation="sRGB" color-interpolation-filters="linearRGB" color-rendering="auto" display="inline" enable-background="accumulate" image-rendering="auto" opacity="1" overflow="visible" shape-rendering="auto" text-decoration="none" text-rendering="auto" visibility="visible" style="text-decoration-line:none;text-decoration-style:solid;text-decoration-color:#000;isolation:auto;mix-blend-mode:normal;solid-color:#000;solid-opacity:1"/><rect id="rect4433" width="1" height="3" x="6" y="12" fill="#bebebe" fill-opacity="1" fill-rule="nonzero" stroke="none" stroke-dasharray="none" stroke-dashoffset="0" stroke-linecap="butt" stroke-linejoin="miter" stroke-miterlimit="4" stroke-opacity="1" stroke-width="1" clip-rule="nonzero" color="#000" color-interpolation="sRGB" color-interpolation-filters="linearRGB" color-rendering="auto" display="inline" enable-background="accumulate" image-rendering="auto" opacity="1" overflow="visible" shape-rendering="auto" text-decoration="none" text-rendering="auto" visibility="visible" style="text-decoration-line:none;text-decoration-style:solid;text-decoration-color:#000;isolation:auto;mix-blend-mode:normal;solid-color:#000;solid-opacity:1"/><rect id="rect4437" width="1" height="2" x="8" y="14" fill="#bebebe" fill-opacity="1" fill-rule="nonzero" stroke="none" stroke-dasharray="none" stroke-dashoffset="0" stroke-linecap="butt" stroke-linejoin="miter" stroke-miterlimit="4" stroke-opacity="1" stroke-width="1" clip-rule="nonzero" color="#000" color-interpolation="sRGB" color-interpolation-filters="linearRGB" color-rendering="auto" display="inline" enable-background="accumulate" image-rendering="auto" opacity="1" overflow="visible" shape-rendering="auto" text-decoration="none" text-rendering="auto" visibility="visible" style="text-decoration-line:none;text-decoration-style:solid;text-decoration-color:#000;isolation:auto;mix-blend-mode:normal;solid-color:#000;solid-opacity:1"/><rect id="rect4441" width="1" height="3" x="10" y="12" fill="#bebebe" fill-opacity="1" fill-rule="nonzero" stroke="none" stroke-dasharray="none" stroke-dashoffset="0" stroke-linecap="butt" stroke-linejoin="miter" stroke-miterlimit="4" stroke-opacity="1" stroke-width="1" clip-rule="nonzero" color="#000" color-interpolation="sRGB" color-interpolation-filters="linearRGB" color-rendering="auto" display="inline" enable-background="accumulate" image-rendering="auto" opacity="1" overflow="visible" shape-rendering="auto" text-decoration="none" text-rendering="auto" visibility="visible" style="text-decoration-line:none;text-decoration-style:solid;text-decoration-color:#000;isolation:auto;mix-blend-mode:normal;solid-color:#000;solid-opacity:1"/></svg>