<svg xmlns="http://www.w3.org/2000/svg" xmlns:svg="http://www.w3.org/2000/svg" id="svg2" width="16" height="16" enable-background="new" version="1.1" viewBox="0 0 16 16"><metadata id="metadata105"/><defs id="defs4"><clipPath id="clipPath6"><rect id="rect8" width="477.143" height="208.571" x="-830" y="1580.934" fill="#ff0"/></clipPath><clipPath id="clipPath10" clipPathUnits="userSpaceOnUse"><rect id="rect12" width="357.384" height="318.397" x="218.9" y="758.675" fill="#fff" transform="rotate(.22918)"/></clipPath><clipPath id="clipPath14"><rect id="rect16" width="477.143" height="208.571" x="-830" y="1580.934" fill="#ff0"/></clipPath><clipPath id="clipPath18" clipPathUnits="userSpaceOnUse"><rect id="rect20" width="506.461" height="37.48" x="8.208" y=".064" fill="#162d50" transform="rotate(20.37582)"/></clipPath><clipPath id="clipPath22"><rect id="rect24" width="477.143" height="208.571" x="-830" y="1580.934" fill="#ff0"/></clipPath><clipPath id="clipPath26"><rect id="rect28" width="477.143" height="208.571" x="-830" y="1580.934" fill="#ff0"/></clipPath><clipPath id="clipPath30" clipPathUnits="userSpaceOnUse"><rect id="rect32" width="357.865" height="240.871" x="294.934" y="780.645" fill="red" transform="matrix(.99975 -.02255 .02255 .99975 0 0)"/></clipPath><clipPath id="clipPath34" clipPathUnits="userSpaceOnUse"><rect id="rect36" width="357.384" height="318.397" x="218.9" y="758.675" fill="#fff" transform="rotate(.22918)"/></clipPath><clipPath id="clipPath38" clipPathUnits="userSpaceOnUse"><rect id="rect40" width="350.457" height="235.885" x="221.386" y="804.242" transform="rotate(.6171)"/></clipPath><clipPath id="clipPath42"><rect id="rect44" width="477.143" height="208.571" x="-830" y="1580.934" fill="#ff0"/></clipPath><clipPath id="clipPath46" clipPathUnits="userSpaceOnUse"><rect id="rect48" width="506.461" height="37.48" x="8.208" y=".064" fill="#162d50" transform="rotate(20.37582)"/></clipPath><clipPath id="clipPath50"><rect id="rect52" width="477.143" height="208.571" x="-830" y="1580.934" fill="#ff0"/></clipPath><clipPath id="clipPath54" clipPathUnits="userSpaceOnUse"><rect id="rect56" width="79.477" height="30.006" x="276.365" y="977.09" fill="#e20a17"/></clipPath><clipPath id="clipPath58" clipPathUnits="userSpaceOnUse"><rect id="rect60" width="287.432" height="279.027" x="257.321" y="793.52" fill="#fff" transform="rotate(.16206)"/></clipPath><clipPath id="clipPath62" clipPathUnits="userSpaceOnUse"><rect id="rect64" width="301.429" height="195" x="0" y=".06" fill="#fff"/></clipPath><clipPath id="clipPath66" clipPathUnits="userSpaceOnUse"><rect id="rect68" width="301.429" height="195" x="0" y="857.541" fill="#fff"/></clipPath><clipPath id="clipPath70" clipPathUnits="userSpaceOnUse"><path id="path72" fill="#4a0" d="m 699.2857,672.93231 a 40.714287,40.714287 0 1 1 -81.42858,0 40.714287,40.714287 0 1 1 81.42858,0 z" clip-path="url(#clipPath11535)"/></clipPath><clipPath id="clipPath74" clipPathUnits="userSpaceOnUse"><rect id="rect76" width="301.429" height="195" x="0" y="857.541" fill="#fff"/></clipPath><clipPath id="clipPath11535" clipPathUnits="userSpaceOnUse"><path id="path79" fill="#4a0" d="m 699.2857,672.93231 a 40.714287,40.714287 0 1 1 -81.42858,0 40.714287,40.714287 0 1 1 81.42858,0 z"/></clipPath><clipPath id="clipPath81" clipPathUnits="userSpaceOnUse"><rect id="rect83" width="301.429" height="195" x="0" y="857.541" fill="#fff"/></clipPath><clipPath id="clipPath85" clipPathUnits="userSpaceOnUse"><path id="path87" fill="#4a0" d="m 699.2857,672.93231 a 40.714287,40.714287 0 1 1 -81.42858,0 40.714287,40.714287 0 1 1 81.42858,0 z" transform="matrix(4.3233 0 0 4.3233 -2450.68 -2667.55)"/></clipPath><clipPath id="clipPath89" clipPathUnits="userSpaceOnUse"><rect id="rect91" width="63.987" height="41.394" x="448.118" y="815.74" fill="#fff" transform="rotate(27.44968)"/></clipPath><clipPath id="clipPath93" clipPathUnits="userSpaceOnUse"><path id="path95" fill="#4a0" d="m 699.2857,672.93231 a 40.714287,40.714287 0 1 1 -81.42858,0 40.714287,40.714287 0 1 1 81.42858,0 z" clip-path="url(#clipPath11535)" transform="matrix(4.3233 0 0 4.3233 -2450.68 -2667.55)"/></clipPath><clipPath id="clipPath97" clipPathUnits="userSpaceOnUse"><path id="path99" fill="#4a0" d="m 699.2857,672.93231 a 40.714287,40.714287 0 1 1 -81.42858,0 40.714287,40.714287 0 1 1 81.42858,0 z" clip-path="url(#clipPath11535)" transform="matrix(4.3233 0 0 4.3233 -2450.68 -2667.55)"/></clipPath><clipPath id="clipPath6-0"><rect id="rect8-2" width="477.143" height="208.571" x="-830" y="1580.934" fill="#ff0"/></clipPath><clipPath id="clipPath10-2" clipPathUnits="userSpaceOnUse"><rect id="rect12-8" width="357.384" height="318.397" x="218.9" y="758.675" fill="#fff" transform="rotate(.22918)"/></clipPath><clipPath id="clipPath14-3"><rect id="rect16-0" width="477.143" height="208.571" x="-830" y="1580.934" fill="#ff0"/></clipPath><clipPath id="clipPath18-0" clipPathUnits="userSpaceOnUse"><rect id="rect20-7" width="506.461" height="37.48" x="8.208" y=".064" fill="#162d50" transform="rotate(20.37582)"/></clipPath><clipPath id="clipPath22-3"><rect id="rect24-2" width="477.143" height="208.571" x="-830" y="1580.934" fill="#ff0"/></clipPath><clipPath id="clipPath26-7"><rect id="rect28-0" width="477.143" height="208.571" x="-830" y="1580.934" fill="#ff0"/></clipPath><clipPath id="clipPath30-2" clipPathUnits="userSpaceOnUse"><rect id="rect32-4" width="357.865" height="240.871" x="294.934" y="780.645" fill="red" transform="matrix(.99975 -.02255 .02255 .99975 0 0)"/></clipPath><clipPath id="clipPath34-6" clipPathUnits="userSpaceOnUse"><rect id="rect36-0" width="357.384" height="318.397" x="218.9" y="758.675" fill="#fff" transform="rotate(.22918)"/></clipPath><clipPath id="clipPath38-3" clipPathUnits="userSpaceOnUse"><rect id="rect40-9" width="350.457" height="235.885" x="221.386" y="804.242" transform="rotate(.6171)"/></clipPath><clipPath id="clipPath42-7"><rect id="rect44-1" width="477.143" height="208.571" x="-830" y="1580.934" fill="#ff0"/></clipPath><clipPath id="clipPath46-7" clipPathUnits="userSpaceOnUse"><rect id="rect48-2" width="506.461" height="37.48" x="8.208" y=".064" fill="#162d50" transform="rotate(20.37582)"/></clipPath><clipPath id="clipPath50-8"><rect id="rect52-1" width="477.143" height="208.571" x="-830" y="1580.934" fill="#ff0"/></clipPath><clipPath id="clipPath54-2" clipPathUnits="userSpaceOnUse"><rect id="rect56-0" width="79.477" height="30.006" x="276.365" y="977.09" fill="#e20a17"/></clipPath><clipPath id="clipPath58-8" clipPathUnits="userSpaceOnUse"><rect id="rect60-7" width="287.432" height="279.027" x="257.321" y="793.52" fill="#fff" transform="rotate(.16206)"/></clipPath><clipPath id="clipPath62-7" clipPathUnits="userSpaceOnUse"><rect id="rect64-6" width="301.429" height="195" x="0" y=".06" fill="#fff"/></clipPath><clipPath id="clipPath66-5" clipPathUnits="userSpaceOnUse"><rect id="rect68-9" width="301.429" height="195" x="0" y="857.541" fill="#fff"/></clipPath><clipPath id="clipPath70-1" clipPathUnits="userSpaceOnUse"><path id="path72-7" fill="#4a0" d="m 699.2857,672.93231 a 40.714287,40.714287 0 1 1 -81.42858,0 40.714287,40.714287 0 1 1 81.42858,0 z" clip-path="url(#clipPath11535)"/></clipPath><clipPath id="clipPath74-7" clipPathUnits="userSpaceOnUse"><rect id="rect76-4" width="301.429" height="195" x="0" y="857.541" fill="#fff"/></clipPath><clipPath id="clipPath11535-9" clipPathUnits="userSpaceOnUse"><path id="path79-0" fill="#4a0" d="m 699.2857,672.93231 a 40.714287,40.714287 0 1 1 -81.42858,0 40.714287,40.714287 0 1 1 81.42858,0 z"/></clipPath><clipPath id="clipPath81-3" clipPathUnits="userSpaceOnUse"><rect id="rect83-4" width="301.429" height="195" x="0" y="857.541" fill="#fff"/></clipPath><clipPath id="clipPath85-2" clipPathUnits="userSpaceOnUse"><path id="path87-1" fill="#4a0" d="m 699.2857,672.93231 a 40.714287,40.714287 0 1 1 -81.42858,0 40.714287,40.714287 0 1 1 81.42858,0 z" transform="matrix(4.3233 0 0 4.3233 -2450.68 -2667.55)"/></clipPath><clipPath id="clipPath89-4" clipPathUnits="userSpaceOnUse"><rect id="rect91-7" width="63.987" height="41.394" x="448.118" y="815.74" fill="#fff" transform="rotate(27.44968)"/></clipPath><clipPath id="clipPath93-7" clipPathUnits="userSpaceOnUse"><path id="path95-1" fill="#4a0" d="m 699.2857,672.93231 a 40.714287,40.714287 0 1 1 -81.42858,0 40.714287,40.714287 0 1 1 81.42858,0 z" clip-path="url(#clipPath11535)" transform="matrix(4.3233 0 0 4.3233 -2450.68 -2667.55)"/></clipPath><clipPath id="clipPath97-7" clipPathUnits="userSpaceOnUse"><path id="path99-2" fill="#4a0" d="m 699.2857,672.93231 a 40.714287,40.714287 0 1 1 -81.42858,0 40.714287,40.714287 0 1 1 81.42858,0 z" clip-path="url(#clipPath11535)" transform="matrix(4.3233 0 0 4.3233 -2450.68 -2667.55)"/></clipPath></defs><path color="#000" style="text-decoration-line:none;text-decoration-style:solid;text-decoration-color:#000;isolation:auto;mix-blend-mode:normal;solid-color:#000;solid-opacity:1" id="rect4199" fill="#bebebe" fill-opacity="1" fill-rule="nonzero" stroke="none" stroke-dasharray="none" stroke-dashoffset="0" stroke-linecap="butt" stroke-linejoin="miter" stroke-miterlimit="4" stroke-opacity="1" stroke-width="1" d="M 6.9882812,3 C 5.5593319,3 4.3768893,3.9951369 4.0742188,5.3320312 2.9619832,5.8329946 2.1730936,6.8927184 2.0507812,8.1640625 0.85963946,8.5600234 0,9.6707134 0,11 c 0,1.662 1.3367273,3 2.9960938,3 L 3,14 3,13 2.99609,13 c -1.1062442,0 -1.99804693,-0.892 -1.99804692,-2 0,-0.784944 0.45150602,-1.45542 1.10546872,-1.7832031 0.1265148,-0.063413 0.2612289,-0.1114506 0.4003906,-0.1484375 0.012083,-0.00306 0.022984,-0.00888 0.035156,-0.011719 C 2.6850237,9.0207915 2.8382268,9 2.9960938,9 c 0.017298,0 0.033607,0.00346 0.050781,0.00391 0.010322,0.00137 0.020648,0.00347 0.03125,0.00391 C 3.0432743,8.8437905 3.0195312,8.6751427 3.0195312,8.5 c 0,-0.8935036 0.4640052,-1.6718385 1.1640626,-2.1132812 0.027102,-0.01696 0.056226,-0.030911 0.083984,-0.046875 0.1015393,-0.058674 0.2044309,-0.1160222 0.3144531,-0.1601563 0.020098,-0.00806 0.042143,-0.011979 0.0625,-0.019531 0.1146812,-0.042545 0.2314731,-0.079941 0.3535157,-0.1054687 -5.37e-5,-0.00197 1.501e-4,-0.00391 0,-0.00586 C 4.9976421,6.0321714 4.9921875,6.0167582 4.9921875,6 c 0,-0.1707645 0.024879,-0.3335227 0.066406,-0.4902344 0.00487,-0.019382 0.012153,-0.037491 0.017578,-0.056641 C 5.1206513,5.303655 5.1790099,5.1591553 5.2539062,5.0253906 5.5952502,4.415751 6.2380619,4 6.9882812,4 7.5773287,4 8.1032593,4.2539844 8.4667969,4.6582031 l -0.00195,0.00195 c 0.1063358,0.1175228 0.1954883,0.2499468 0.2714843,0.390625 0.084302,0.15675 0.154722,0.3233368 0.1953125,0.5019532 C 9.1943965,5.3426381 9.4974135,5.185977 9.8320343,5.0957 9.8315947,5.09431 9.8305243,5.09319 9.8300843,5.09179 10.038601,5.0354326 10.255713,5 10.482422,5 c 1.382806,0 2.496094,1.1150008 2.496094,2.5 0,0.1751428 -0.02179,0.3437979 -0.05664,0.5078125 -0.697716,0.020302 -1.329311,0.2806091 -1.828125,0.6972656 L 11.730469,9.46875 c 0.243342,-0.2031067 0.535397,-0.347266 0.855469,-0.4179688 0.02431,-0.00514 0.04737,-0.013549 0.07226,-0.017578 C 12.770485,9.0129366 12.88528,9 13.003906,9 c 1.106245,0 1.998047,0.8920002 1.998047,2 0,1.108 -0.891802,2 -1.998047,2 l -0.02539,0 -0.498047,0 L 12,13 l 0,1 0.480469,0 0.498047,0 0,-0.002 c 0.0087,1.18e-4 0.0167,0.002 0.02539,0.002 C 14.663273,14 16,12.662 16,11 16,9.6543986 15.118342,8.5350439 13.904297,8.1523438 13.948299,7.94385 13.978516,7.7297028 13.978516,7.5 13.978516,5.5610009 12.41835,4 10.482422,4 10.087571,4 9.7138854,4.0720625 9.3632812,4.1953125 8.8209659,3.4714446 7.9663666,3 6.9882812,3 Z" clip-rule="nonzero" color-interpolation="sRGB" color-interpolation-filters="linearRGB" color-rendering="auto" display="inline" enable-background="accumulate" image-rendering="auto" opacity="1" overflow="visible" shape-rendering="auto" text-decoration="none" text-rendering="auto" visibility="visible"/><circle clip-rule="nonzero" style="text-decoration-line:none;text-decoration-style:solid;text-decoration-color:#000;isolation:auto;mix-blend-mode:normal;solid-color:#000;solid-opacity:1" id="path4388" cx="4.5" cy="15.5" r=".5" fill="#bebebe" fill-opacity="1" fill-rule="nonzero" stroke="none" stroke-dasharray="none" stroke-dashoffset="0" stroke-linecap="butt" stroke-linejoin="miter" stroke-miterlimit="4" stroke-opacity="1" stroke-width="1" color="#000" color-interpolation="sRGB" color-interpolation-filters="linearRGB" color-rendering="auto" display="inline" enable-background="accumulate" image-rendering="auto" opacity="1" overflow="visible" shape-rendering="auto" text-decoration="none" text-rendering="auto" visibility="visible"/><circle id="circle4390" cx="6.5" cy="13.5" r=".5" fill="#bebebe" fill-opacity="1" fill-rule="nonzero" stroke="none" stroke-dasharray="none" stroke-dashoffset="0" stroke-linecap="butt" stroke-linejoin="miter" stroke-miterlimit="4" stroke-opacity="1" stroke-width="1" clip-rule="nonzero" color="#000" color-interpolation="sRGB" color-interpolation-filters="linearRGB" color-rendering="auto" display="inline" enable-background="accumulate" image-rendering="auto" opacity="1" overflow="visible" shape-rendering="auto" text-decoration="none" text-rendering="auto" visibility="visible" style="text-decoration-line:none;text-decoration-style:solid;text-decoration-color:#000;isolation:auto;mix-blend-mode:normal;solid-color:#000;solid-opacity:1"/><circle clip-rule="nonzero" style="text-decoration-line:none;text-decoration-style:solid;text-decoration-color:#000;isolation:auto;mix-blend-mode:normal;solid-color:#000;solid-opacity:1" id="circle4392" cx="4.5" cy="11.5" r=".5" fill="#bebebe" fill-opacity="1" fill-rule="nonzero" stroke="none" stroke-dasharray="none" stroke-dashoffset="0" stroke-linecap="butt" stroke-linejoin="miter" stroke-miterlimit="4" stroke-opacity="1" stroke-width="1" color="#000" color-interpolation="sRGB" color-interpolation-filters="linearRGB" color-rendering="auto" display="inline" enable-background="accumulate" image-rendering="auto" opacity="1" overflow="visible" shape-rendering="auto" text-decoration="none" text-rendering="auto" visibility="visible"/><circle id="circle4394" cx="8.5" cy="11.5" r=".5" fill="#bebebe" fill-opacity="1" fill-rule="nonzero" stroke="none" stroke-dasharray="none" stroke-dashoffset="0" stroke-linecap="butt" stroke-linejoin="miter" stroke-miterlimit="4" stroke-opacity="1" stroke-width="1" clip-rule="nonzero" color="#000" color-interpolation="sRGB" color-interpolation-filters="linearRGB" color-rendering="auto" display="inline" enable-background="accumulate" image-rendering="auto" opacity="1" overflow="visible" shape-rendering="auto" text-decoration="none" text-rendering="auto" visibility="visible" style="text-decoration-line:none;text-decoration-style:solid;text-decoration-color:#000;isolation:auto;mix-blend-mode:normal;solid-color:#000;solid-opacity:1"/><circle clip-rule="nonzero" style="text-decoration-line:none;text-decoration-style:solid;text-decoration-color:#000;isolation:auto;mix-blend-mode:normal;solid-color:#000;solid-opacity:1" id="circle4396" cx="8.5" cy="15.5" r=".5" fill="#bebebe" fill-opacity="1" fill-rule="nonzero" stroke="none" stroke-dasharray="none" stroke-dashoffset="0" stroke-linecap="butt" stroke-linejoin="miter" stroke-miterlimit="4" stroke-opacity="1" stroke-width="1" color="#000" color-interpolation="sRGB" color-interpolation-filters="linearRGB" color-rendering="auto" display="inline" enable-background="accumulate" image-rendering="auto" opacity="1" overflow="visible" shape-rendering="auto" text-decoration="none" text-rendering="auto" visibility="visible"/><circle id="circle4398" cx="10.5" cy="13.5" r=".5" fill="#bebebe" fill-opacity="1" fill-rule="nonzero" stroke="none" stroke-dasharray="none" stroke-dashoffset="0" stroke-linecap="butt" stroke-linejoin="miter" stroke-miterlimit="4" stroke-opacity="1" stroke-width="1" clip-rule="nonzero" color="#000" color-interpolation="sRGB" color-interpolation-filters="linearRGB" color-rendering="auto" display="inline" enable-background="accumulate" image-rendering="auto" opacity="1" overflow="visible" shape-rendering="auto" text-decoration="none" text-rendering="auto" visibility="visible" style="text-decoration-line:none;text-decoration-style:solid;text-decoration-color:#000;isolation:auto;mix-blend-mode:normal;solid-color:#000;solid-opacity:1"/><circle clip-rule="nonzero" style="text-decoration-line:none;text-decoration-style:solid;text-decoration-color:#000;isolation:auto;mix-blend-mode:normal;solid-color:#000;solid-opacity:1" id="circle4400" cx="12.5" cy="15.5" r=".5" fill="#bebebe" fill-opacity="1" fill-rule="nonzero" stroke="none" stroke-dasharray="none" stroke-dashoffset="0" stroke-linecap="butt" stroke-linejoin="miter" stroke-miterlimit="4" stroke-opacity="1" stroke-width="1" color="#000" color-interpolation="sRGB" color-interpolation-filters="linearRGB" color-rendering="auto" display="inline" enable-background="accumulate" image-rendering="auto" opacity="1" overflow="visible" shape-rendering="auto" text-decoration="none" text-rendering="auto" visibility="visible"/></svg>