<svg xmlns="http://www.w3.org/2000/svg" xmlns:svg="http://www.w3.org/2000/svg" id="svg2" width="16" height="16" enable-background="new" version="1.1" viewBox="0 0 16 16"><metadata id="metadata117"/><defs id="defs4"><clipPath id="clipPath6"><rect id="rect8" width="477.143" height="208.571" x="-830" y="1580.934" fill="#ff0"/></clipPath><clipPath id="clipPath10" clipPathUnits="userSpaceOnUse"><rect id="rect12" width="357.384" height="318.397" x="218.9" y="758.675" fill="#fff" transform="rotate(.22918)"/></clipPath><clipPath id="clipPath14"><rect id="rect16" width="477.143" height="208.571" x="-830" y="1580.934" fill="#ff0"/></clipPath><clipPath id="clipPath18" clipPathUnits="userSpaceOnUse"><rect id="rect20" width="506.461" height="37.48" x="8.208" y=".064" fill="#162d50" transform="rotate(20.37582)"/></clipPath><clipPath id="clipPath22"><rect id="rect24" width="477.143" height="208.571" x="-830" y="1580.934" fill="#ff0"/></clipPath><clipPath id="clipPath26"><rect id="rect28" width="477.143" height="208.571" x="-830" y="1580.934" fill="#ff0"/></clipPath><clipPath id="clipPath30" clipPathUnits="userSpaceOnUse"><rect id="rect32" width="357.865" height="240.871" x="294.934" y="780.645" fill="red" transform="matrix(.99975 -.02255 .02255 .99975 0 0)"/></clipPath><clipPath id="clipPath34" clipPathUnits="userSpaceOnUse"><rect id="rect36" width="357.384" height="318.397" x="218.9" y="758.675" fill="#fff" transform="rotate(.22918)"/></clipPath><clipPath id="clipPath38" clipPathUnits="userSpaceOnUse"><rect id="rect40" width="350.457" height="235.885" x="221.386" y="804.242" transform="rotate(.6171)"/></clipPath><clipPath id="clipPath42"><rect id="rect44" width="477.143" height="208.571" x="-830" y="1580.934" fill="#ff0"/></clipPath><clipPath id="clipPath46" clipPathUnits="userSpaceOnUse"><rect id="rect48" width="506.461" height="37.48" x="8.208" y=".064" fill="#162d50" transform="rotate(20.37582)"/></clipPath><clipPath id="clipPath50"><rect id="rect52" width="477.143" height="208.571" x="-830" y="1580.934" fill="#ff0"/></clipPath><clipPath id="clipPath54" clipPathUnits="userSpaceOnUse"><rect id="rect56" width="79.477" height="30.006" x="276.365" y="977.09" fill="#e20a17"/></clipPath><clipPath id="clipPath58" clipPathUnits="userSpaceOnUse"><rect id="rect60" width="287.432" height="279.027" x="257.321" y="793.52" fill="#fff" transform="rotate(.16206)"/></clipPath><clipPath id="clipPath62" clipPathUnits="userSpaceOnUse"><rect id="rect64" width="301.429" height="195" x="0" y=".06" fill="#fff"/></clipPath><clipPath id="clipPath66" clipPathUnits="userSpaceOnUse"><rect id="rect68" width="301.429" height="195" x="0" y="857.541" fill="#fff"/></clipPath><clipPath id="clipPath70" clipPathUnits="userSpaceOnUse"><path id="path72" fill="#4a0" d="m 699.2857,672.93231 a 40.714287,40.714287 0 1 1 -81.42858,0 40.714287,40.714287 0 1 1 81.42858,0 z" clip-path="url(#clipPath11535)"/></clipPath><clipPath id="clipPath74" clipPathUnits="userSpaceOnUse"><rect id="rect76" width="301.429" height="195" x="0" y="857.541" fill="#fff"/></clipPath><clipPath id="clipPath11535" clipPathUnits="userSpaceOnUse"><path id="path79" fill="#4a0" d="m 699.2857,672.93231 a 40.714287,40.714287 0 1 1 -81.42858,0 40.714287,40.714287 0 1 1 81.42858,0 z"/></clipPath><clipPath id="clipPath81" clipPathUnits="userSpaceOnUse"><rect id="rect83" width="301.429" height="195" x="0" y="857.541" fill="#fff"/></clipPath><clipPath id="clipPath85" clipPathUnits="userSpaceOnUse"><path id="path87" fill="#4a0" d="m 699.2857,672.93231 a 40.714287,40.714287 0 1 1 -81.42858,0 40.714287,40.714287 0 1 1 81.42858,0 z" transform="matrix(4.3233 0 0 4.3233 -2450.68 -2667.55)"/></clipPath><clipPath id="clipPath89" clipPathUnits="userSpaceOnUse"><rect id="rect91" width="63.987" height="41.394" x="448.118" y="815.74" fill="#fff" transform="rotate(27.44968)"/></clipPath><clipPath id="clipPath93" clipPathUnits="userSpaceOnUse"><path id="path95" fill="#4a0" d="m 699.2857,672.93231 a 40.714287,40.714287 0 1 1 -81.42858,0 40.714287,40.714287 0 1 1 81.42858,0 z" clip-path="url(#clipPath11535)" transform="matrix(4.3233 0 0 4.3233 -2450.68 -2667.55)"/></clipPath><clipPath id="clipPath97" clipPathUnits="userSpaceOnUse"><path id="path99" fill="#4a0" d="m 699.2857,672.93231 a 40.714287,40.714287 0 1 1 -81.42858,0 40.714287,40.714287 0 1 1 81.42858,0 z" clip-path="url(#clipPath11535)" transform="matrix(4.3233 0 0 4.3233 -2450.68 -2667.55)"/></clipPath></defs><path color="#000" style="text-decoration-line:none;text-decoration-style:solid;text-decoration-color:#000;isolation:auto;mix-blend-mode:normal;solid-color:#000;solid-opacity:1" id="rect4199" fill="#bebebe" fill-opacity="1" fill-rule="nonzero" stroke="none" stroke-dasharray="none" stroke-dashoffset="0" stroke-linecap="butt" stroke-linejoin="miter" stroke-miterlimit="4" stroke-opacity="1" stroke-width="1" d="M 6.9882812 3 C 5.5593319 3 4.3768893 3.9951369 4.0742188 5.3320312 C 2.9619832 5.8329946 2.1730936 6.8927184 2.0507812 8.1640625 C 0.85963946 8.5600234 2.9605947e-16 9.6707134 0 11 C 0 12.662 1.3367273 14 2.9960938 14 L 3 14 L 3 13 L 2.9960938 13 C 1.8898496 13 0.99804687 12.108 0.99804688 11 C 0.99804688 10.215056 1.4495529 9.54458 2.1035156 9.2167969 C 2.2300304 9.1533839 2.3647445 9.1053463 2.5039062 9.0683594 C 2.5159893 9.0652994 2.5268905 9.0594796 2.5390625 9.0566406 C 2.6850237 9.0207915 2.8382268 9 2.9960938 9 C 3.0133917 9 3.029701 9.0034562 3.046875 9.0039062 C 3.057197 9.0052762 3.067523 9.0073725 3.078125 9.0078125 C 3.0432743 8.8437905 3.0195312 8.6751427 3.0195312 8.5 C 3.0195312 7.6064964 3.4835364 6.8281615 4.1835938 6.3867188 C 4.2106958 6.3697587 4.2398201 6.3558078 4.2675781 6.3398438 C 4.3691174 6.2811698 4.472009 6.2238216 4.5820312 6.1796875 C 4.6021292 6.1716275 4.6241743 6.1677082 4.6445312 6.1601562 C 4.7592124 6.1176113 4.8760043 6.0802152 4.9980469 6.0546875 C 4.9979932 6.0527175 4.998197 6.0507781 4.9980469 6.0488281 C 4.9976421 6.0321714 4.9921875 6.0167582 4.9921875 6 C 4.9921875 5.8292355 5.0170668 5.6664773 5.0585938 5.5097656 C 5.0634638 5.4903836 5.0707469 5.472275 5.0761719 5.453125 C 5.1206513 5.303655 5.1790099 5.1591553 5.2539062 5.0253906 C 5.5952502 4.415751 6.2380619 4 6.9882812 4 C 7.5773287 4 8.1032593 4.2539844 8.4667969 4.6582031 L 8.4648438 4.6601562 C 8.5711796 4.777679 8.6603321 4.910103 8.7363281 5.0507812 C 8.8206301 5.2075312 8.8910501 5.374118 8.9316406 5.5527344 C 9.1943934 5.3426412 9.4974104 5.1859801 9.8320312 5.0957031 C 9.8315916 5.0943131 9.8305181 5.0931969 9.8300781 5.0917969 C 10.038601 5.0354326 10.255713 5 10.482422 5 C 11.865228 5 12.978516 6.1150008 12.978516 7.5 C 12.978516 7.6751428 12.956725 7.8437979 12.921875 8.0078125 C 12.224159 8.0281145 11.592564 8.2884216 11.09375 8.7050781 L 11.730469 9.46875 C 11.973811 9.2656433 12.265866 9.121484 12.585938 9.0507812 C 12.610247 9.0456412 12.633313 9.0372321 12.658203 9.0332031 C 12.770485 9.0129366 12.88528 9 13.003906 9 C 14.110151 9 15.001953 9.8920002 15.001953 11 C 15.001953 12.108 14.110151 13 13.003906 13 L 12.978516 13 L 12.480469 13 L 12 13 L 12 14 L 12.480469 14 L 12.978516 14 L 12.978516 13.998047 C 12.987203 13.998165 12.99522 14 13.003906 14 C 14.663273 14 16 12.662 16 11 C 16 9.6543986 15.118342 8.5350439 13.904297 8.1523438 C 13.948299 7.94385 13.978516 7.7297028 13.978516 7.5 C 13.978516 5.5610009 12.41835 4 10.482422 4 C 10.087571 4 9.7138854 4.0720625 9.3632812 4.1953125 C 8.8209659 3.4714446 7.9663666 3 6.9882812 3 z" clip-rule="nonzero" color-interpolation="sRGB" color-interpolation-filters="linearRGB" color-rendering="auto" display="inline" enable-background="accumulate" image-rendering="auto" opacity="1" overflow="visible" shape-rendering="auto" text-decoration="none" text-rendering="auto" visibility="visible"/><rect id="rect4194" width="1" height="1" x="4" y="15" fill="#bebebe" fill-opacity="1" fill-rule="nonzero" stroke="none" stroke-dasharray="none" stroke-dashoffset="0" stroke-linecap="butt" stroke-linejoin="miter" stroke-miterlimit="4" stroke-opacity="1" stroke-width="1" clip-rule="nonzero" color="#000" color-interpolation="sRGB" color-interpolation-filters="linearRGB" color-rendering="auto" display="inline" enable-background="accumulate" image-rendering="auto" opacity="1" overflow="visible" shape-rendering="auto" text-decoration="none" text-rendering="auto" visibility="visible" style="text-decoration-line:none;text-decoration-style:solid;text-decoration-color:#000;isolation:auto;mix-blend-mode:normal;solid-color:#000;solid-opacity:1"/><rect id="rect4196" width="1" height="2" x="6" y="13" fill="#bebebe" fill-opacity="1" fill-rule="nonzero" stroke="none" stroke-dasharray="none" stroke-dashoffset="0" stroke-linecap="butt" stroke-linejoin="miter" stroke-miterlimit="4" stroke-opacity="1" stroke-width="1" clip-rule="nonzero" color="#000" color-interpolation="sRGB" color-interpolation-filters="linearRGB" color-rendering="auto" display="inline" enable-background="accumulate" image-rendering="auto" opacity="1" overflow="visible" shape-rendering="auto" text-decoration="none" text-rendering="auto" visibility="visible" style="text-decoration-line:none;text-decoration-style:solid;text-decoration-color:#000;isolation:auto;mix-blend-mode:normal;solid-color:#000;solid-opacity:1"/><rect id="rect4198" width="1" height="1.773" x="8" y="11.227" fill="#bebebe" fill-opacity="1" fill-rule="nonzero" stroke="none" stroke-dasharray="none" stroke-dashoffset="0" stroke-linecap="butt" stroke-linejoin="miter" stroke-miterlimit="4" stroke-opacity="1" stroke-width="1" clip-rule="nonzero" color="#000" color-interpolation="sRGB" color-interpolation-filters="linearRGB" color-rendering="auto" display="inline" enable-background="accumulate" image-rendering="auto" opacity="1" overflow="visible" shape-rendering="auto" text-decoration="none" text-rendering="auto" visibility="visible" style="text-decoration-line:none;text-decoration-style:solid;text-decoration-color:#000;isolation:auto;mix-blend-mode:normal;solid-color:#000;solid-opacity:1"/><rect id="rect4200" width="1" height="2" x="10" y="13" fill="#bebebe" fill-opacity="1" fill-rule="nonzero" stroke="none" stroke-dasharray="none" stroke-dashoffset="0" stroke-linecap="butt" stroke-linejoin="miter" stroke-miterlimit="4" stroke-opacity="1" stroke-width="1" clip-rule="nonzero" color="#000" color-interpolation="sRGB" color-interpolation-filters="linearRGB" color-rendering="auto" display="inline" enable-background="accumulate" image-rendering="auto" opacity="1" overflow="visible" shape-rendering="auto" text-decoration="none" text-rendering="auto" visibility="visible" style="text-decoration-line:none;text-decoration-style:solid;text-decoration-color:#000;isolation:auto;mix-blend-mode:normal;solid-color:#000;solid-opacity:1"/></svg>