<svg xmlns="http://www.w3.org/2000/svg" xmlns:svg="http://www.w3.org/2000/svg" id="svg2" width="16" height="16" enable-background="new" version="1.1" viewBox="0 0 16 16"><metadata id="metadata107"/><defs id="defs4"><clipPath id="clipPath6" clipPathUnits="userSpaceOnUse"><path id="path8" fill="#4a0" d="m 699.2857,672.93231 a 40.714287,40.714287 0 1 1 -81.42858,0 40.714287,40.714287 0 1 1 81.42858,0 z" clip-path="url(#clipPath11535)"/></clipPath><clipPath id="clipPath10" clipPathUnits="userSpaceOnUse"><path id="path12" fill="#4a0" d="m 699.2857,672.93231 a 40.714287,40.714287 0 1 1 -81.42858,0 40.714287,40.714287 0 1 1 81.42858,0 z" clip-path="url(#clipPath11535)" transform="matrix(4.3233 0 0 4.3233 -2450.68 -2667.55)"/></clipPath><clipPath id="clipPath14" clipPathUnits="userSpaceOnUse"><rect id="rect16" width="301.429" height="195" x="0" y="857.541" fill="#fff"/></clipPath><clipPath id="clipPath18" clipPathUnits="userSpaceOnUse"><rect id="rect20" width="287.432" height="279.027" x="257.321" y="793.52" fill="#fff" transform="rotate(.16206)"/></clipPath><clipPath id="clipPath22" clipPathUnits="userSpaceOnUse"><rect id="rect24" width="301.429" height="195" x="0" y=".06" fill="#fff"/></clipPath><clipPath id="clipPath26" clipPathUnits="userSpaceOnUse"><rect id="rect28" width="301.429" height="195" x="0" y="857.541" fill="#fff"/></clipPath><clipPath id="clipPath30" clipPathUnits="userSpaceOnUse"><path id="path32" fill="#4a0" d="m 699.2857,672.93231 a 40.714287,40.714287 0 1 1 -81.42858,0 40.714287,40.714287 0 1 1 81.42858,0 z" clip-path="url(#clipPath11535)" transform="matrix(4.3233 0 0 4.3233 -2450.68 -2667.55)"/></clipPath><clipPath id="clipPath11535" clipPathUnits="userSpaceOnUse"><path id="path35" fill="#4a0" d="m 699.2857,672.93231 a 40.714287,40.714287 0 1 1 -81.42858,0 40.714287,40.714287 0 1 1 81.42858,0 z"/></clipPath><clipPath id="clipPath37" clipPathUnits="userSpaceOnUse"><rect id="rect39" width="63.987" height="41.394" x="448.118" y="815.74" fill="#fff" transform="rotate(27.44968)"/></clipPath><clipPath id="clipPath41" clipPathUnits="userSpaceOnUse"><rect id="rect43" width="301.429" height="195" x="0" y="857.541" fill="#fff"/></clipPath><clipPath id="clipPath45" clipPathUnits="userSpaceOnUse"><path id="path47" fill="#4a0" d="m 699.2857,672.93231 a 40.714287,40.714287 0 1 1 -81.42858,0 40.714287,40.714287 0 1 1 81.42858,0 z" transform="matrix(4.3233 0 0 4.3233 -2450.68 -2667.55)"/></clipPath><clipPath id="clipPath49" clipPathUnits="userSpaceOnUse"><rect id="rect51" width="79.477" height="30.006" x="276.365" y="977.09" fill="#e20a17"/></clipPath><clipPath id="clipPath53" clipPathUnits="userSpaceOnUse"><rect id="rect55" width="506.461" height="37.48" x="8.208" y=".064" fill="#162d50" transform="rotate(20.37582)"/></clipPath><clipPath id="clipPath57"><rect id="rect59" width="477.143" height="208.571" x="-830" y="1580.934" fill="#ff0"/></clipPath><clipPath id="clipPath61"><rect id="rect63" width="477.143" height="208.571" x="-830" y="1580.934" fill="#ff0"/></clipPath><clipPath id="clipPath65"><rect id="rect67" width="477.143" height="208.571" x="-830" y="1580.934" fill="#ff0"/></clipPath><clipPath id="clipPath69" clipPathUnits="userSpaceOnUse"><rect id="rect71" width="357.384" height="318.397" x="218.9" y="758.675" fill="#fff" transform="rotate(.22918)"/></clipPath><clipPath id="clipPath73"><rect id="rect75" width="477.143" height="208.571" x="-830" y="1580.934" fill="#ff0"/></clipPath><clipPath id="clipPath77" clipPathUnits="userSpaceOnUse"><rect id="rect79" width="506.461" height="37.48" x="8.208" y=".064" fill="#162d50" transform="rotate(20.37582)"/></clipPath><clipPath id="clipPath81"><rect id="rect83" width="477.143" height="208.571" x="-830" y="1580.934" fill="#ff0"/></clipPath><clipPath id="clipPath85"><rect id="rect87" width="477.143" height="208.571" x="-830" y="1580.934" fill="#ff0"/></clipPath><clipPath id="clipPath89" clipPathUnits="userSpaceOnUse"><rect id="rect91" width="357.384" height="318.397" x="218.9" y="758.675" fill="#fff" transform="rotate(.22918)"/></clipPath><clipPath id="clipPath93" clipPathUnits="userSpaceOnUse"><rect id="rect95" width="357.865" height="240.871" x="294.934" y="780.645" fill="red" transform="matrix(.99975 -.02255 .02255 .99975 0 0)"/></clipPath><clipPath id="clipPath97" clipPathUnits="userSpaceOnUse"><rect id="rect99" width="350.457" height="235.885" x="221.386" y="804.242" transform="rotate(.6171)"/></clipPath></defs><path color="#000" style="text-decoration-line:none;text-decoration-style:solid;text-decoration-color:#000;isolation:auto;mix-blend-mode:normal;solid-color:#000;solid-opacity:1" id="rect4199" fill="#bebebe" fill-opacity="1" fill-rule="nonzero" stroke="none" stroke-dasharray="none" stroke-dashoffset="0" stroke-linecap="butt" stroke-linejoin="miter" stroke-miterlimit="4" stroke-opacity="1" stroke-width="1" d="M 6.9746091,3 C 5.5433922,3 4.3578382,3.9951368 4.0546872,5.3320312 2.9896552,5.8109736 2.2291406,6.8029688 2.0566404,8 L 3.0624998,8 C 3.20089,7.3224741 3.5988537,6.7425637 4.1640622,6.3867188 c 0.027145,-0.01696 0.056182,-0.030911 0.083984,-0.046875 0.1017004,-0.058674 0.2062094,-0.1160222 0.3164063,-0.1601563 0.02013,-0.00806 0.042111,-0.011979 0.0625,-0.019531 0.1148633,-0.042545 0.2312793,-0.079941 0.3535156,-0.1054687 -5.38e-5,-0.00197 1.503e-4,-0.00391 0,-0.00586 C 4.9800631,6.0321714 4.9746091,6.0167582 4.9746091,6 c 0,-0.1707645 0.024813,-0.3335227 0.066406,-0.4902344 0.00488,-0.019382 0.012145,-0.037491 0.017578,-0.056641 C 5.1031435,5.303655 5.1613127,5.1591553 5.2363279,5.0253906 5.5782135,4.4157509 6.2231993,4 6.9746091,4 7.5645914,4 8.0909634,4.2539843 8.4550779,4.6582031 l 0,0.00195 c 0.1065046,0.1175228 0.1934147,0.2499467 0.2695312,0.390625 0.084436,0.15675 0.1546576,0.3233368 0.1953125,0.5019532 0.2631698,-0.2100932 0.5671918,-0.3667543 0.9023438,-0.4570313 -4.405e-4,-0.00139 4.4e-4,-0.00251 0,-0.00391 C 10.031114,5.0354326 10.249493,5 10.476562,5 c 1.385,0 2.5,1.1150007 2.5,2.5 0,0.1751428 -0.02369,0.3437979 -0.05859,0.5078125 -0.698825,0.020302 -1.330473,0.280609 -1.830079,0.6972656 L 11.726562,9.46875 c 0.243728,-0.2031067 0.53489,-0.3472658 0.855469,-0.4179688 0.02435,-0.00514 0.04539,-0.013549 0.07031,-0.017578 C 12.76481,9.0129366 12.883139,9 13.001953,9 c 1.108,0 2,0.8920001 2,2 0,1.108 -0.892,2 -2,2 l -0.113281,0 -0.41211,0 -1.988281,0 -5.2890625,0 -0.2109375,0 0,1 5.5,0 1.988281,0 0.41211,0 c 0.01385,0 0.0255,-0.0067 0.03906,-0.0078 C 12.952974,13.993161 12.976456,14 13.001953,14 14.663953,14 16,12.662 16,11 16,9.6543985 15.116363,8.5350438 13.90039,8.1523438 13.94446,7.9438498 13.976562,7.7297028 13.976562,7.5 c 0,-1.9389992 -1.561,-3.5 -3.5,-3.5 C 10.081084,4 9.7046759,4.0720625 9.3535154,4.1953125 8.8103394,3.4714446 7.9542467,3 6.9746091,3 Z M -0.011719,10.830078 C -0.01496207,10.88726 -0.02539087,10.941943 -0.02539087,11 c 0,0.04691 0.01156271,0.09035 0.01367187,0.136719 l 0,-0.306641 z" clip-rule="nonzero" color-interpolation="sRGB" color-interpolation-filters="linearRGB" color-rendering="auto" display="inline" enable-background="accumulate" image-rendering="auto" opacity="1" overflow="visible" shape-rendering="auto" text-decoration="none" text-rendering="auto" visibility="visible"/><path color="#000" style="text-decoration-line:none;text-decoration-style:solid;text-decoration-color:#000;isolation:auto;mix-blend-mode:normal;solid-color:#000;solid-opacity:1" id="rect4295" fill="#ef2929" fill-opacity="1" fill-rule="nonzero" stroke="none" stroke-dasharray="none" stroke-dashoffset="0" stroke-linecap="butt" stroke-linejoin="miter" stroke-miterlimit="4" stroke-opacity="1" stroke-width="1" d="M 1 9 L 1 12 L 2 12 L 2 9 L 1 9 z M 1 13 L 1 14 L 2 14 L 2 13 L 1 13 z" clip-rule="nonzero" color-interpolation="sRGB" color-interpolation-filters="linearRGB" color-rendering="auto" display="inline" enable-background="accumulate" image-rendering="auto" opacity="1" overflow="visible" shape-rendering="auto" text-decoration="none" text-rendering="auto" visibility="visible"/></svg>