<svg xmlns="http://www.w3.org/2000/svg" xmlns:svg="http://www.w3.org/2000/svg" id="svg2" width="16" height="16" enable-background="new" version="1.1" viewBox="0 0 16 16"><metadata id="metadata10"/><path color="#000" style="text-decoration-line:none;text-decoration-style:solid;text-decoration-color:#000;isolation:auto;mix-blend-mode:normal;solid-color:#000;solid-opacity:1" id="rect4161" fill="#bebebe" fill-opacity="1" fill-rule="nonzero" stroke="none" stroke-dasharray="none" stroke-dashoffset="0" stroke-linecap="butt" stroke-linejoin="miter" stroke-miterlimit="4" stroke-opacity="1" stroke-width="1" d="M 8 2 C 7.9320768 2 7.8661929 2.0075482 7.7988281 2.0097656 C 4.5695224 2.1160651 2 4.7439232 2 8 C 2 11.324 4.676 14 8 14 C 10.229339 14 12.152108 12.786467 13.185547 10.990234 C 13.190751 10.990004 13.195952 10.990406 13.201172 10.990234 C 13.224448 10.949696 13.243277 10.906375 13.265625 10.865234 C 13.292477 10.815751 13.316304 10.765162 13.341797 10.714844 C 13.466732 10.468474 13.581333 10.2158 13.671875 9.9511719 C 13.45145 9.9806337 13.228742 10 13 10 C 12.861909 10 12.726995 9.9913437 12.591797 9.9804688 C 10.015036 9.7732016 8 7.6319086 8 5 C 8 4.1981811 8.193945 3.4473111 8.5292969 2.7792969 C 8.5445829 2.7491566 8.5602448 2.7191909 8.5761719 2.6894531 C 8.6874712 2.4784219 8.8106121 2.2744085 8.9492188 2.0820312 C 8.6395234 2.0330972 8.3238749 2 8 2 z M 7.3398438 3.0488281 C 7.1279219 3.6614092 7 4.3135027 7 5 C 7 7.9987972 9.179979 10.463097 12.046875 10.917969 C 11.141158 12.175887 9.6752602 13 8 13 C 5.23 13 3 10.77 3 8 C 3 5.4547612 4.8853509 3.3711299 7.3398438 3.0488281 z" clip-rule="nonzero" color-interpolation="sRGB" color-interpolation-filters="linearRGB" color-rendering="auto" display="inline" enable-background="accumulate" image-rendering="auto" opacity="1" overflow="visible" shape-rendering="auto" text-decoration="none" text-rendering="auto" visibility="visible"/></svg>