<svg xmlns="http://www.w3.org/2000/svg" xmlns:svg="http://www.w3.org/2000/svg" id="svg2" width="16" height="16" version="1.1" viewBox="0 0 16 16"><metadata id="metadata22"/><path color="#000" style="text-decoration-line:none;text-decoration-style:solid;text-decoration-color:#000;isolation:auto;mix-blend-mode:normal;solid-color:#000;solid-opacity:1" id="rect4173" fill="#bebebe" fill-opacity="1" fill-rule="nonzero" stroke="none" stroke-dasharray="none" stroke-dashoffset="0" stroke-linecap="butt" stroke-linejoin="miter" stroke-miterlimit="4" stroke-opacity="1" stroke-width="1" d="M 2 3 L 2 4 L 14 4 L 14 3 L 2 3 z M 2 6 L 2 7 L 14 7 L 14 6 L 2 6 z M 2 9 L 2 10 L 8 10 L 8 9 L 2 9 z M 10 9 L 10 12 C 9.446 12 9 12.446 9 13 C 9 13.554 9.446 14 10 14 C 10.554 14 11 13.554 11 13 L 11 10 L 13 10 L 13 11.099609 C 12.446 11.099609 12 11.545609 12 12.099609 C 12 12.653609 12.446 13.099609 13 13.099609 C 13.554 13.099609 14 12.653609 14 12.099609 C 14 12.064149 13.984039 12.03449 13.980469 12 L 14 12 L 14 9.5 L 14 9 L 13.5 9 L 13 9 L 11 9 L 10 9 z M 2 12 L 2 13 L 8 13 L 8 12 L 2 12 z" clip-rule="nonzero" color-interpolation="sRGB" color-interpolation-filters="linearRGB" color-rendering="auto" display="inline" enable-background="accumulate" image-rendering="auto" opacity="1" overflow="visible" shape-rendering="auto" text-decoration="none" text-rendering="auto" visibility="visible"/></svg>