<svg xmlns="http://www.w3.org/2000/svg" xmlns:svg="http://www.w3.org/2000/svg" id="svg2" width="16" height="16" version="1.1" viewBox="0 0 16 16"><metadata id="metadata10"/><path color="#000" style="text-decoration-line:none;text-decoration-style:solid;text-decoration-color:#000;isolation:auto;mix-blend-mode:normal;solid-color:#000;solid-opacity:1" id="rect4161" fill="#bebebe" fill-opacity="1" fill-rule="nonzero" stroke="none" stroke-dasharray="none" stroke-dashoffset="0" stroke-linecap="butt" stroke-linejoin="miter" stroke-miterlimit="4" stroke-opacity="1" stroke-width="1" d="M 8 2 C 4.6760003 2 2 4.6760003 2 8 C 2 11.085675 4.3071367 13.60854 7.296875 13.955078 L 7.4140625 12.962891 C 4.9230926 12.673668 3 10.571057 3 8 C 3 5.2300003 5.2300003 3 8 3 C 10.77 3 13 5.2300003 13 8 C 13 8.7473695 12.817615 9.4436586 12.521484 10.076172 L 12.017578 8.1972656 L 11.050781 8.4550781 L 11.890625 11.587891 L 11.966797 11.871094 L 12.248047 11.794922 L 15.380859 10.955078 L 15.123047 9.9902344 L 13.476562 10.431641 C 13.807526 9.6881441 14 8.8690453 14 8 C 14 4.6760003 11.324 2 8 2 z" clip-rule="nonzero" color-interpolation="sRGB" color-interpolation-filters="linearRGB" color-rendering="auto" display="inline" enable-background="accumulate" image-rendering="auto" opacity="1" overflow="visible" shape-rendering="auto" text-decoration="none" text-rendering="auto" visibility="visible"/></svg>