<svg xmlns="http://www.w3.org/2000/svg" xmlns:svg="http://www.w3.org/2000/svg" id="svg2" width="16" height="16" version="1.1" viewBox="0 0 16 16"><metadata id="metadata12"/><path id="rect4113" fill="#bebebe" fill-opacity="1" stroke="none" d="M 7,2 C 3.676,2 1,4.676 1,8 c 0,2.228492 1.2055484,4.160441 3,5.195312 l 0,-1.21289 C 2.7910816,11.071432 2,9.637057 2,8 2,5.23 4.23,3 7,3 c 2.05682,0 3.810613,1.2328358 4.580078,3 l 1.072266,0 C 11.831094,3.6671334 9.620656,2 7,2 Z M 14.289062,6.6738281 8.46875,12.566406 5.7753906,9.8398438 5.0644531,10.550781 7.7617188,13.28125 7.7597656,13.285156 8.4667969,14 8.46875,13.998047 8.4707031,14 9.177734,13.285156 9.175781,13.28125 15,7.3847656 14.289062,6.6738281 Z" opacity="1"/></svg>