<svg xmlns="http://www.w3.org/2000/svg" xmlns:svg="http://www.w3.org/2000/svg" id="svg2" version="1.1" viewBox="0 0 16 16"><metadata id="metadata28"/><path color="#000" style="text-decoration-line:none;text-decoration-style:solid;text-decoration-color:#000;isolation:auto;mix-blend-mode:normal;solid-color:#000;solid-opacity:1" id="rect4179" fill="#bebebe" fill-opacity="1" fill-rule="nonzero" stroke="none" stroke-dasharray="none" stroke-dashoffset="0" stroke-linecap="butt" stroke-linejoin="miter" stroke-miterlimit="4" stroke-opacity="1" stroke-width="1" d="M 2 2 L 2 14 L 14 14 L 14 10.394531 L 14 8.9804688 L 14 2 L 2 2 z M 3 3 L 13 3 L 13 7.9804688 L 11 5.9804688 L 8 8.9804688 L 7.1992188 9.78125 L 6 8.5800781 L 3 11.580078 L 3 3 z M 5.5 4 C 4.669 4 4 4.669 4 5.5 C 4 6.331 4.669 7 5.5 7 C 6.331 7 7 6.331 7 5.5 C 7 4.669 6.331 4 5.5 4 z M 5.5 5 C 5.777 5 6 5.223 6 5.5 C 6 5.777 5.777 6 5.5 6 C 5.223 6 5 5.777 5 5.5 C 5 5.223 5.223 5 5.5 5 z M 11 7.3945312 L 13 9.3945312 L 13 13 L 10.419922 13 L 9 11.580078 L 7.90625 10.488281 L 9 9.3945312 L 11 7.3945312 z M 6 9.9941406 L 9 12.994141 L 9.0058594 13 L 3 13 L 3 12.994141 L 6 9.9941406 z" clip-rule="nonzero" color-interpolation="sRGB" color-interpolation-filters="linearRGB" color-rendering="auto" display="inline" enable-background="accumulate" image-rendering="auto" opacity="1" overflow="visible" shape-rendering="auto" text-decoration="none" text-rendering="auto" visibility="visible"/></svg>