<svg xmlns="http://www.w3.org/2000/svg" xmlns:svg="http://www.w3.org/2000/svg" id="svg2" version="1.1" viewBox="0 0 16 16"><metadata id="metadata12"/><path color="#000" style="text-decoration-line:none;text-decoration-style:solid;text-decoration-color:#000;isolation:auto;mix-blend-mode:normal;solid-color:#000;solid-opacity:1" id="rect4163" fill="#bebebe" fill-opacity="1" fill-rule="nonzero" stroke="none" stroke-dasharray="none" stroke-dashoffset="0" stroke-linecap="butt" stroke-linejoin="miter" stroke-miterlimit="4" stroke-opacity="1" stroke-width="1" d="M 5 2 L 5 3 L 5 10.275391 C 4.7049987 10.104291 4.3669301 10 4 10 C 2.892 10 2 10.892 2 12 C 2 13.108 2.892 14 4 14 C 5.108 14 6 13.108 6 12 L 6 5 L 13 5 L 13 9.2753906 C 12.704999 9.1042911 12.36693 9 12 9 C 10.892 9 10 9.892 10 11 C 10 12.108 10.892 13 12 13 C 13.108 13 14 12.108 14 11 L 14 5 L 14 4 L 14 2 L 6 2 L 5 2 z M 6 3 L 13 3 L 13 4 L 6 4 L 6 3 z M 12 10 C 12.554 10 13 10.446 13 11 C 13 11.554 12.554 12 12 12 C 11.446 12 11 11.554 11 11 C 11 10.446 11.446 10 12 10 z M 4 11 C 4.554 11 5 11.446 5 12 C 5 12.554 4.554 13 4 13 C 3.446 13 3 12.554 3 12 C 3 11.446 3.446 11 4 11 z" clip-rule="nonzero" color-interpolation="sRGB" color-interpolation-filters="linearRGB" color-rendering="auto" display="inline" enable-background="accumulate" image-rendering="auto" opacity="1" overflow="visible" shape-rendering="auto" text-decoration="none" text-rendering="auto" visibility="visible"/></svg>