<svg xmlns="http://www.w3.org/2000/svg" xmlns:svg="http://www.w3.org/2000/svg" id="svg2" version="1.1" viewBox="0 0 16 16"><metadata id="metadata16"/><path id="rect4167" fill="#bebebe" fill-opacity="1" fill-rule="nonzero" stroke="none" stroke-dasharray="none" stroke-dashoffset="0" stroke-linecap="butt" stroke-linejoin="miter" stroke-miterlimit="4" stroke-opacity="1" stroke-width="1" d="M 3,6 C 1.892,6 0.99999997,6.892 0.99999997,8 0.99999997,9.108 1.892,10 3,10 4.108,10 5.0000001,9.108 5.0000001,8 5.0000001,6.892 4.108,6 3,6 Z m 5.0000001,0 c -1.108,0 -2,0.892 -2,2 0,1.108 0.892,2 2,2 C 9.1080001,10 10,9.108 10,8 10,6.892 9.1080001,6 8.0000001,6 Z M 13,6 c -1.108,0 -2,0.892 -2,2 0,1.108 0.892,2 2,2 1.108,0 2,-0.892 2,-2 C 15,6.892 14.108,6 13,6 Z M 3,7 C 3.554,7 4,7.446 4,8 4,8.554 3.554,9 3,9 2.446,9 2,8.554 2,8 2,7.446 2.446,7 3,7 Z m 5.0000001,0 c 0.554,0 1,0.446 1,1 0,0.554 -0.446,1 -1,1 -0.554,0 -1,-0.446 -1,-1 0,-0.554 0.446,-1 1,-1 z M 13,7 c 0.554,0 1,0.446 1,1 0,0.554 -0.446,1 -1,1 -0.554,0 -1,-0.446 -1,-1 0,-0.554 0.446,-1 1,-1 z" clip-rule="nonzero" color="#000" color-interpolation="sRGB" color-interpolation-filters="linearRGB" color-rendering="auto" display="inline" enable-background="accumulate" image-rendering="auto" opacity="1" overflow="visible" shape-rendering="auto" text-decoration="none" text-rendering="auto" visibility="visible" style="text-decoration-line:none;text-decoration-style:solid;text-decoration-color:#000;isolation:auto;mix-blend-mode:normal;solid-color:#000;solid-opacity:1"/></svg>