<svg xmlns="http://www.w3.org/2000/svg" xmlns:svg="http://www.w3.org/2000/svg" id="svg3783" width="37" height="18" version="1.1"><metadata id="metadata3788"/><g id="layer1" transform="translate(-5.9477962,-1025.4272)"><g id="g3027" transform="matrix(0,-1,1,0,-1048.3622,1052.3622)"><rect id="rect3092" width="27" height="18" x="1059.31" y="8.935" fill="#000" fill-opacity=".196" stroke="#000" stroke-dasharray="none" stroke-dashoffset="0" stroke-linejoin="round" stroke-miterlimit="4" stroke-opacity="1" stroke-width="0" transform="matrix(0,1,1,0,0,0)"/><rect id="rect3905" width="1" height="17" x="1059.31" y="8.935" fill="#000" fill-opacity=".471" stroke="#000" stroke-dasharray="none" stroke-dashoffset="0" stroke-linejoin="round" stroke-miterlimit="4" stroke-opacity="1" stroke-width="0" transform="matrix(0,1,1,0,0,0)"/><rect id="rect3907" width="1" height="17" x="1085.31" y="8.935" fill="#000" fill-opacity=".471" stroke="#000" stroke-dasharray="none" stroke-dashoffset="0" stroke-linejoin="round" stroke-miterlimit="4" stroke-opacity="1" stroke-width="0" transform="matrix(0,1,1,0,0,0)"/><rect id="rect3909" width="1" height="16" x="1060.31" y="8.935" fill="#000" fill-opacity=".059" stroke="#000" stroke-dasharray="none" stroke-dashoffset="0" stroke-linejoin="round" stroke-miterlimit="4" stroke-opacity="1" stroke-width="0" transform="matrix(0,1,1,0,0,0)"/><rect id="rect3912" width="1" height="16" x="1084.31" y="8.935" fill="#000" fill-opacity=".059" stroke="#000" stroke-dasharray="none" stroke-dashoffset="0" stroke-linejoin="round" stroke-miterlimit="4" stroke-opacity="1" stroke-width="0" transform="matrix(0,1,1,0,0,0)"/><rect id="rect3883" width="27" height="1" x="1059.31" y="25.935" fill="#000" fill-opacity=".294" stroke="#000" stroke-dasharray="none" stroke-dashoffset="0" stroke-linejoin="round" stroke-miterlimit="4" stroke-opacity="1" stroke-width="0" transform="matrix(0,1,1,0,0,0)"/><rect id="rect3885-8" width="25" height="1" x="1060.31" y="24.935" fill="#000" fill-opacity=".059" stroke="#000" stroke-dasharray="none" stroke-dashoffset="0" stroke-linejoin="round" stroke-miterlimit="4" stroke-opacity="1" stroke-width="0" transform="matrix(0,1,1,0,0,0)"/><rect id="rect3885-8-9" width="25" height="1" x="1060.31" y="8.935" fill="#000" fill-opacity=".275" stroke="#000" stroke-dasharray="none" stroke-dashoffset="0" stroke-linejoin="round" stroke-miterlimit="4" stroke-opacity="1" stroke-width="0" transform="matrix(0,1,1,0,0,0)"/></g></g></svg>