<svg xmlns="http://www.w3.org/2000/svg" xmlns:svg="http://www.w3.org/2000/svg" id="svg4359" width="24" height="24" version="1.1"><metadata id="metadata4364"/><g id="layer1" transform="translate(1,-25)"><path id="rect4120" fill="#424854" fill-opacity="1" stroke="none" d="m 11.59375,3 -5,5 L 4,8 3,8 l 0,1 0,4 0,1 1,0 2.59375,0 5,5 0.0059,-0.0059 0,0.0059 2.40035,0 0,-1 0,-15 -2.400391,0 0,0.00586 L 11.59375,3 Z M 12.007812,4 13,4 13,18 12.007812,18 7.0078125,13 7,13.007812 7,13 7,8.9921875 7.0078125,9 12.007812,4 Z M 4,9 5,9 5,13 4,13 4,9 Z" opacity="1" transform="translate(0,26)"/><path id="rect4180" fill="#424854" fill-opacity="1" stroke="none" d="M 15.246094,6.7539062 14.539062,7.4609375 C 15.442813,8.3646875 16,9.615 16,11 c 0,1.385 -0.557188,2.635312 -1.460938,3.539062 l 0.707032,0.707032 C 16.330594,14.161594 17,12.662 17,11 17,9.338 16.330594,7.8384062 15.246094,6.7539062 Z" opacity="1" transform="translate(0,26)"/><path id="rect4192" fill="#424854" fill-opacity="1" stroke="none" d="M 16.662109,5.3378906 15.955078,6.0449219 C 17.220328,7.3101719 18,9.061 18,11 c 0,1.939 -0.779672,3.689828 -2.044922,4.955078 l 0.707031,0.707031 C 18.108109,15.216109 19,13.216 19,11 19,8.784 18.108109,6.7838906 16.662109,5.3378906 Z" opacity=".5" transform="translate(0,26)"/></g></svg>