<svg xmlns="http://www.w3.org/2000/svg" xmlns:svg="http://www.w3.org/2000/svg" id="svg10121" width="24" height="24" version="1.1" viewBox="0 0 24 24"><metadata id="metadata10169"/><defs id="defs10123"><clipPath id="clip1"><rect id="rect10126" width="24" height="24" x="0" y="0"/></clipPath><filter id="alpha" width="1" height="1" x="0" y="0" color-interpolation-filters="sRGB" filterUnits="objectBoundingBox"><feColorMatrix id="feColorMatrix10129" in="SourceGraphic" type="matrix" values="0 0 0 0 1 0 0 0 0 1 0 0 0 0 1 0 0 0 1 0"/></filter><g id="surface6" clip-path="url(#clip1)"><path id="path10132" fill="#000" stroke="#000" stroke-width=".674" d="m 3.856491,1022.7489 2.389076,0 c 0.614014,0 1.105226,0.4964 1.105226,1.1043 l 0,9.0169 c 0,0.6079 -0.491212,1.1043 -1.105226,1.1043 l -2.389076,0 c -0.614015,0 -1.105226,-0.4964 -1.105226,-1.1043 l 0,-9.0169 c 0,-0.6079 0.491211,-1.1043 1.105226,-1.1043 z" transform="matrix(0.3499,0,0,0.38556,2.59202,-383.52637)"/><path id="path10134" fill="#000" stroke="#000" stroke-linecap="round" stroke-linejoin="round" stroke-width=".491" d="m 6.893073,1023.2656 13.619963,-11.7828 0,14.9438 1.663422,2.4214 -1.663422,1.8135 0,14.579 -13.675782,-11.3775 z" transform="matrix(0.3499,0,0,0.38556,2.59202,-383.52637)"/></g><mask id="mask0"><g id="g10137" filter="url(#alpha)"><rect id="rect10139" width="24" height="24" x="0" y="0" fill="#000" fill-opacity=".302"/></g></mask></defs><path id="rect4120" fill="#424854" fill-opacity="1" stroke="none" d="m 12.59375,4 -5,5 L 5,9 4,9 l 0,1 0,4 0,1 1,0 2.59375,0 5,5 0.0059,-0.0059 0,0.0059 2.40035,0 0,-1 0,-15 -2.400391,0 0,0.00586 L 12.59375,4 Z M 13.007812,5 14,5 14,19 13.007812,19 8.0078125,14 8,14.007812 8,14 8,9.9921875 8.0078125,10 13.007812,5 Z M 5,10 l 1,0 0,4 -1,0 0,-4 z" opacity=".5"/><path id="rect4180" fill="#424854" fill-opacity="1" stroke="none" d="M 16.246094,7.7539062 15.539062,8.4609375 C 16.442813,9.3646875 17,10.615 17,12 c 0,1.385 -0.557188,2.635312 -1.460938,3.539062 l 0.707032,0.707032 C 17.330594,15.161594 18,13.662 18,12 18,10.338 17.330594,8.8384062 16.246094,7.7539062 Z" opacity=".5"/><path id="rect4192" fill="#424854" fill-opacity="1" stroke="none" d="M 17.662109,6.3378906 16.955078,7.0449219 C 18.220328,8.3101719 19,10.061 19,12 c 0,1.939 -0.779672,3.689828 -2.044922,4.955078 l 0.707031,0.707031 C 19.108109,16.216109 20,14.216 20,12 20,9.784 19.108109,7.7838906 17.662109,6.3378906 Z" opacity=".5"/></svg>