<svg xmlns="http://www.w3.org/2000/svg" xmlns:svg="http://www.w3.org/2000/svg" id="svg2" width="24" height="24" enable-background="new" version="1.1" viewBox="0 0 24 24"><metadata id="metadata16"/><path color="#000" style="text-decoration-line:none;text-decoration-style:solid;text-decoration-color:#000;isolation:auto;mix-blend-mode:normal;solid-color:#000;solid-opacity:1" id="rect4205" fill="#424854" fill-opacity="1" fill-rule="nonzero" stroke="none" stroke-dasharray="none" stroke-dashoffset="0" stroke-linecap="butt" stroke-linejoin="miter" stroke-miterlimit="4" stroke-opacity="1" stroke-width="1" d="m 12,3.9999989 c -2.2159995,0 -4,1.7840005 -4,4 0,2.2159991 1.7840005,4.0000001 4,4.0000001 2.215999,0 4,-1.784001 4,-4.0000001 0,-2.2159995 -1.784001,-4 -4,-4 z m 0,1 c 1.662,0 3,1.3380004 3,3 0,1.6619996 -1.338,3.0000001 -3,3.0000001 -1.662,0 -3,-1.3380005 -3,-3.0000001 0,-1.6619996 1.338,-3 3,-3 z m 0,8.0000001 c -4.0925372,0 -7.4415809,3.044327 -7.9316406,7 l 1.0097656,0 c 0.4838163,-3.399358 3.384659,-6 6.921875,-6 3.537216,0 6.438059,2.600642 6.921875,6 l 1.009766,0 c -0.49006,-3.955673 -3.839104,-7 -7.931641,-7 z" clip-rule="nonzero" color-interpolation="sRGB" color-interpolation-filters="linearRGB" color-rendering="auto" display="inline" enable-background="accumulate" image-rendering="auto" opacity="1" overflow="visible" shape-rendering="auto" text-decoration="none" text-rendering="auto" visibility="visible"/></svg>