<svg xmlns="http://www.w3.org/2000/svg" xmlns:svg="http://www.w3.org/2000/svg" id="svg2" width="24" height="24" version="1.1" viewBox="0 0 24 24"><metadata id="metadata16"/><path color="#000" style="text-decoration-line:none;text-decoration-style:solid;text-decoration-color:#000;isolation:auto;mix-blend-mode:normal;solid-color:#000;solid-opacity:1" id="rect4177" fill="#424854" fill-opacity="1" fill-rule="nonzero" stroke="none" stroke-dasharray="none" stroke-dashoffset="0" stroke-linecap="butt" stroke-linejoin="miter" stroke-miterlimit="4" stroke-opacity="1" stroke-width="1" d="M 11,4 11,4.5351562 11,11.333984 6.7167969,8.4726562 6.1933594,9.34375 10.193359,12 6.1933594,14.65625 6.7167969,15.527344 11,12.666016 11,20 12,20 12.002,20 18,16.019531 18,16 18,15.980469 12.001953,12 18,8.0195312 18,8 18,7.9804688 12.001953,4 12,4 11,4 Z M 12,5.1992188 16.220703,8 12,10.800781 12,5.1992188 Z M 12,13.199219 16.220703,16 12,18.800781 12,13.199219 Z" clip-rule="nonzero" color-interpolation="sRGB" color-interpolation-filters="linearRGB" color-rendering="auto" display="inline" enable-background="accumulate" image-rendering="auto" opacity=".5" overflow="visible" shape-rendering="auto" text-decoration="none" text-rendering="auto" visibility="visible"/></svg>