<svg xmlns="http://www.w3.org/2000/svg" xmlns:svg="http://www.w3.org/2000/svg" id="svg2" width="24" height="24" version="1.1" viewBox="0 0 24 24"><metadata id="metadata42"/><path color="#000" style="text-decoration-line:none;text-decoration-style:solid;text-decoration-color:#000;isolation:auto;mix-blend-mode:normal;solid-color:#000;solid-opacity:1" id="rect4177" fill="#424854" fill-opacity="1" fill-rule="nonzero" stroke="none" stroke-dasharray="none" stroke-dashoffset="0" stroke-linecap="butt" stroke-linejoin="miter" stroke-miterlimit="4" stroke-opacity="1" stroke-width="1" d="m 10,4 0,4 1,0 0,-4 -1,0 z M 7,6 7,9 8,9 8,6 7,6 Z m 5,0 0,3 1,0 0,-3 -1,0 z m 2,1 0,2 1,0 0,-2 -1,0 z m -9,3 0,4 c 0,2.216 1.784,4 4,4 l 4,0 c 1.482971,0 2.75838,-0.807292 3.449219,-2 L 17,16 c 2,0 2,-2 2,-2 l 0,-1 c 0,0 0,-2 -2,-2 l 0,-1 -12,0 z m 1,1 10,0 0,0.375 0,0.625 0,2 c 0,1.662 -1.338,3 -3,3 L 9,17 C 7.338,17 6,15.662 6,14 l 0,-3 z m 11,1 c 0,0 1,0 1,1 l 0,1 c 0,1 -1,1 -1,1 l -0.138672,0 C 16.943828,14.679001 17,14.34745 17,14 l 0,-2 z m -11,7 0,1 10,0 0,-1 -10,0 z" clip-rule="nonzero" color-interpolation="sRGB" color-interpolation-filters="linearRGB" color-rendering="auto" display="inline" enable-background="accumulate" image-rendering="auto" opacity="1" overflow="visible" shape-rendering="auto" text-decoration="none" text-rendering="auto" visibility="visible"/></svg>