<svg xmlns="http://www.w3.org/2000/svg" xmlns:svg="http://www.w3.org/2000/svg" id="svg2" width="24" height="24" version="1.1" viewBox="0 0 24 24"><metadata id="metadata12"/><path color="#000" style="text-decoration-line:none;text-decoration-style:solid;text-decoration-color:#000;isolation:auto;mix-blend-mode:normal;solid-color:#000;solid-opacity:1" id="rect4192" fill="#424854" fill-opacity="1" fill-rule="nonzero" stroke="none" stroke-dasharray="none" stroke-dashoffset="0" stroke-linecap="butt" stroke-linejoin="miter" stroke-miterlimit="4" stroke-opacity="1" stroke-width="1" d="m 4,4 0,6 0,2.400391 0,1 L 4,13.5625 4,14.400391 4,20 20,20 20,14.21875 20,13.5 20,12.802734 20,10 20,9.40625 20,4 4,4 Z M 5,5 19,5 19,9.40625 19,10 19,11.802734 19,13.21875 19,13.5 19,16 5,16 5,13 5,12.808594 5,11.392578 5,10 5,5 Z m 6,1 0,5 0,1 1,0 5,0 0,-1 -5,0 0,-5 -1,0 z m -6,11 14,0 0,2 -14,0 0,-2 z" clip-rule="nonzero" color-interpolation="sRGB" color-interpolation-filters="linearRGB" color-rendering="auto" display="inline" enable-background="accumulate" image-rendering="auto" opacity="1" overflow="visible" shape-rendering="auto" text-decoration="none" text-rendering="auto" visibility="visible"/></svg>