<svg xmlns="http://www.w3.org/2000/svg" xmlns:svg="http://www.w3.org/2000/svg" id="svg2" width="24" height="24" version="1.1" viewBox="0 0 24 24"><metadata id="metadata12"/><path color="#000" style="text-decoration-line:none;text-decoration-style:solid;text-decoration-color:#000;isolation:auto;mix-blend-mode:normal;solid-color:#000;solid-opacity:1" id="rect4192" fill="#424854" fill-opacity="1" fill-rule="nonzero" stroke="none" stroke-dasharray="none" stroke-dashoffset="0" stroke-linecap="butt" stroke-linejoin="miter" stroke-miterlimit="4" stroke-opacity="1" stroke-width="1" d="m 4,4 0,6 1,0 0,-5 14,0 0,5 1,0 L 20,4 4,4 Z M 8,6 C 6.892,6 6,6.892 6,8 6,9.108 6.892,10 8,10 9.108,10 10,9.108 10,8 10,6.892 9.108,6 8,6 Z M 8,7 C 8.554,7 9,7.446 9,8 9,8.554 8.554,9 8,9 7.446,9 7,8.554 7,8 7,7.446 7.446,7 8,7 Z M 6.2929688,10.099609 4,12.392578 l 0.00781,0.0078 -0.00781,0 0,1 0,1 L 4,20 l 16,0 0,-5.78125 0,-1.416016 -0.996094,-0.996093 -0.710937,-0.707032 -1.302735,1.300782 -1.583984,1.585937 -1.294922,-1.292969 -2.296875,-2.292968 -0.002,0.0019 L 11.511719,10.101563 9.21875,12.392578 8.9042969,12.707031 8.5898438,12.392578 7.0039062,10.806641 6.2929688,10.099609 Z m 0.00195,1.414063 1.5859375,1.585937 1.0234375,1.021485 1.0214843,-1.021485 1.5878909,-1.585937 1.888672,1.886719 2.003906,2 0.707031,-0.707032 0.878907,-0.880859 0.0059,0.0059 0,0.582032 0,1 0.002,0 0,-1.580079 0,-0.01172 1.294922,-1.294922 L 19,13.21875 19,16 5,16 5,13 5,12.808594 6.2949219,11.513672 Z M 5,17 l 14,0 0,2 -14,0 0,-2 z" clip-rule="nonzero" color-interpolation="sRGB" color-interpolation-filters="linearRGB" color-rendering="auto" display="inline" enable-background="accumulate" image-rendering="auto" opacity="1" overflow="visible" shape-rendering="auto" text-decoration="none" text-rendering="auto" visibility="visible"/></svg>