<svg xmlns="http://www.w3.org/2000/svg" xmlns:svg="http://www.w3.org/2000/svg" id="svg3760" width="24" height="24" version="1.1"><metadata id="metadata3765"/><g id="layer1" transform="translate(-552.72253,-582.11926)"><path id="rect4161" fill="#424854" fill-opacity="1" stroke="none" stroke-dasharray="none" stroke-miterlimit="4" stroke-opacity="1" stroke-width=".1" d="m 556.72253,586.11926 0,10 0,1 1,0 4,0 1,1 3,0 1,-1 0,-1 -9,0 0,-9 14,0 0,8 1,0 0,-9 -15,0 z m 11,11 0,2 -11,0 0,1 11,0 0,2 1,0 3,0 0,-1 -3,0 0,-3 3,0 0,-1 -3,0 z m 2,2 0,1 3,0 0,-1 z m -7,2 c -0.554,0 -1,0.446 -1,1 l 5,0 c 0,-0.554 -0.446,-1 -1,-1 z" opacity="1"/></g></svg>