<svg xmlns="http://www.w3.org/2000/svg" xmlns:svg="http://www.w3.org/2000/svg" id="svg3760" width="24" height="24" version="1.1"><metadata id="metadata3765"/><g id="layer1" transform="translate(-552.72253,-582.11926)"><path id="rect4161" fill="#424854" fill-opacity="1" stroke="none" stroke-dasharray="none" stroke-miterlimit="4" stroke-opacity="1" stroke-width=".1" d="m 556.72253,586.11926 0,10 0,1 1,0 4,0 1,1 3,0 1,-1 0,-1 -9,0 0,-9 14,0 0,8 1,0 0,-9 -15,0 z m 11,11 0,2 -11,0 0,1 11,0 0,2 1,0 3,0 0,-1 -3,0 0,-3 3,0 0,-1 -3,0 z m 2,2 0,1 3,0 0,-1 z m -7,2 c -0.554,0 -1,0.446 -1,1 l 5,0 c 0,-0.554 -0.446,-1 -1,-1 z" opacity="1"/><rect clip-rule="nonzero" style="text-decoration-line:none;text-decoration-style:solid;text-decoration-color:#000;isolation:auto;mix-blend-mode:normal;solid-color:#000;solid-opacity:1" id="rect4149" width="2" height="2" x="563.723" y="593.119" fill="#424854" fill-opacity="1" fill-rule="nonzero" stroke="none" stroke-dasharray="none" stroke-dashoffset="0" stroke-linecap="butt" stroke-linejoin="miter" stroke-miterlimit="4" stroke-opacity="1" stroke-width="1" color="#000" color-interpolation="sRGB" color-interpolation-filters="linearRGB" color-rendering="auto" display="inline" enable-background="accumulate" image-rendering="auto" opacity="1" overflow="visible" ry="1" shape-rendering="auto" text-decoration="none" text-rendering="auto" visibility="visible"/><path color="#000" style="text-decoration-line:none;text-decoration-style:solid;text-decoration-color:#000;isolation:auto;mix-blend-mode:normal;solid-color:#000;solid-opacity:1" id="rect4151" fill="#424854" fill-opacity="1" fill-rule="nonzero" stroke="none" stroke-dasharray="none" stroke-dashoffset="0" stroke-linecap="butt" stroke-linejoin="miter" stroke-miterlimit="4" stroke-opacity="1" stroke-width="1" d="M 11,7 C 9.892,7 8.8929219,7.4469219 8.1699219,8.1699219 L 8.8769531,8.8769531 C 9.4192031,8.3347031 10.169,8 11,8 c 0.831,0 1.580797,0.3347031 2.123047,0.8769531 L 13.830078,8.1699219 C 13.107078,7.4469219 12.108,7 11,7 Z" clip-rule="nonzero" color-interpolation="sRGB" color-interpolation-filters="linearRGB" color-rendering="auto" display="inline" enable-background="accumulate" image-rendering="auto" opacity="1" overflow="visible" shape-rendering="auto" text-decoration="none" text-rendering="auto" transform="translate(553.72253,583.11926)" visibility="visible"/><path color="#000" style="text-decoration-line:none;text-decoration-style:solid;text-decoration-color:#000;isolation:auto;mix-blend-mode:normal;solid-color:#000;solid-opacity:1" id="rect4156" fill="#424854" fill-opacity="1" fill-rule="nonzero" stroke="none" stroke-dasharray="none" stroke-dashoffset="0" stroke-linecap="butt" stroke-linejoin="miter" stroke-miterlimit="4" stroke-opacity="1" stroke-width="1" d="M 11,5 C 9.338,5 7.8384062,5.6694063 6.7539062,6.7539062 L 7.4609375,7.4609375 C 8.3646875,6.5571875 9.615,6 11,6 c 1.385,0 2.635312,0.5571875 3.539062,1.4609375 L 15.246094,6.7539062 C 14.161594,5.6694063 12.662,5 11,5 Z" clip-rule="nonzero" color-interpolation="sRGB" color-interpolation-filters="linearRGB" color-rendering="auto" display="inline" enable-background="accumulate" image-rendering="auto" opacity="1" overflow="visible" shape-rendering="auto" text-decoration="none" text-rendering="auto" transform="translate(553.72253,583.11926)" visibility="visible"/></g></svg>