<svg xmlns="http://www.w3.org/2000/svg" xmlns:svg="http://www.w3.org/2000/svg" id="svg2" width="24" height="24" version="1.1" viewBox="0 0 24 24"><metadata id="metadata28"/><g id="g4199" fill="#229df0" fill-opacity="1" transform="translate(1,1)"><path id="rect4181" fill="#229df0" fill-opacity="1" fill-rule="nonzero" stroke="none" stroke-dasharray="none" stroke-dashoffset="0" stroke-linecap="butt" stroke-linejoin="miter" stroke-miterlimit="4" stroke-opacity="1" stroke-width="1" d="m 5,9 c -2.77,0 -5,2.23 -5,5 0,2.77 2.23,5 5,5 1.1229184,0 2.1456698,-0.379642 2.9785156,-1 L 5,18 C 2.784,18 1,16.216 1,14 1,13.723 1.0269687,13.452266 1.0800781,13.191406 1.4518438,11.365391 3.061,10 5,10 l 0.5527344,0 C 5.3742707,9.6921023 5.2322815,9.3614418 5.140625,9.0078125 5.093362,9.0065046 5.0475903,9 5,9 Z" clip-rule="nonzero" color="#000" color-interpolation="sRGB" color-interpolation-filters="linearRGB" color-rendering="auto" display="inline" enable-background="accumulate" image-rendering="auto" opacity="1" overflow="visible" shape-rendering="auto" text-decoration="none" text-rendering="auto" visibility="visible" style="text-decoration-line:none;text-decoration-style:solid;text-decoration-color:#000;isolation:auto;mix-blend-mode:normal;solid-color:#000;solid-opacity:1"/><rect id="rect4186" width="13" height="1" x="5" y="18" fill="#229df0" fill-opacity="1" fill-rule="nonzero" stroke="none" stroke-dasharray="none" stroke-dashoffset="0" stroke-linecap="butt" stroke-linejoin="miter" stroke-miterlimit="4" stroke-opacity="1" stroke-width="1" clip-rule="nonzero" color="#000" color-interpolation="sRGB" color-interpolation-filters="linearRGB" color-rendering="auto" display="inline" enable-background="accumulate" image-rendering="auto" opacity="1" overflow="visible" ry="0" shape-rendering="auto" text-decoration="none" text-rendering="auto" visibility="visible" style="text-decoration-line:none;text-decoration-style:solid;text-decoration-color:#000;isolation:auto;mix-blend-mode:normal;solid-color:#000;solid-opacity:1"/><path id="rect4188" fill="#229df0" fill-opacity="1" fill-rule="nonzero" stroke="none" stroke-dasharray="none" stroke-dashoffset="0" stroke-linecap="butt" stroke-linejoin="miter" stroke-miterlimit="4" stroke-opacity="1" stroke-width="1" d="m 18.792969,11.078125 c -0.135592,0.352634 -0.335647,0.670038 -0.585938,0.943359 C 19.769671,12.129238 21,13.409064 21,15 c 0,1.662 -1.338,3 -3,3 l -2.625,0 c 0.70295,0.614983 1.613344,1 2.625,1 2.216,0 4,-1.784 4,-4 0,-1.944366 -1.373415,-3.55595 -3.207031,-3.921875 z" clip-rule="nonzero" color="#000" color-interpolation="sRGB" color-interpolation-filters="linearRGB" color-rendering="auto" display="inline" enable-background="accumulate" image-rendering="auto" opacity="1" overflow="visible" shape-rendering="auto" text-decoration="none" text-rendering="auto" visibility="visible" style="text-decoration-line:none;text-decoration-style:solid;text-decoration-color:#000;isolation:auto;mix-blend-mode:normal;solid-color:#000;solid-opacity:1"/><path id="path4193" fill="#229df0" fill-opacity="1" fill-rule="nonzero" stroke="none" stroke-dasharray="none" stroke-dashoffset="0" stroke-linecap="butt" stroke-linejoin="miter" stroke-miterlimit="4" stroke-opacity="1" stroke-width="1" d="M 9,3 C 6.23,3 4,5.23 4,8 4,8.7354254 4.1664678,9.4270155 4.4492188,10.054688 4.630806,10.029654 4.8113141,10 5,10 l 0.5507812,0 C 5.2086067,9.4108438 5,8.7330387 5,8 5,5.784 6.784,4 9,4 11.216,4 13,5.784 13,8 13,8.379008 12.94304,8.743074 12.841797,9.0878906 13.147117,8.547742 13.549298,8.0959153 13.986328,7.7558594 13.858475,5.1014505 11.687184,3 9,3 Z" clip-rule="nonzero" color="#000" color-interpolation="sRGB" color-interpolation-filters="linearRGB" color-rendering="auto" display="inline" enable-background="accumulate" image-rendering="auto" opacity="1" overflow="visible" shape-rendering="auto" text-decoration="none" text-rendering="auto" visibility="visible" style="text-decoration-line:none;text-decoration-style:solid;text-decoration-color:#000;isolation:auto;mix-blend-mode:normal;solid-color:#000;solid-opacity:1"/><path id="path4195" fill="#229df0" fill-opacity="1" fill-rule="nonzero" stroke="none" stroke-dasharray="none" stroke-dashoffset="0" stroke-linecap="butt" stroke-linejoin="miter" stroke-miterlimit="4" stroke-opacity="1" stroke-width="1" d="M 16,6 C 14.764536,6 13.768565,6.5666633 13.035948,7.4414062 13.06168,7.625431 13,7.8086638 13,8 13,8.3794107 12.94292,8.7428568 12.841797,9.0878906 13.205534,8.4443949 13.70879,7.9339006 14.238281,7.578125 14.315061,7.522285 14.396425,7.4742573 14.478516,7.4257812 14.548366,7.3852752 14.616101,7.3474632 14.685547,7.3125 14.766257,7.273079 14.847018,7.235324 14.931641,7.203125 15.33147,7.0376645 15.709103,6.9581061 16,7 c 1.662,0 3,1.338 3,3 0,0.783336 -0.304678,1.488264 -0.792969,2.021484 0.380404,0.02623 0.740683,0.115528 1.06836,0.269532 C 19.728947,11.642263 20,10.855063 20,10 20,7.784 18.216,6 16,6 Z m -3.544922,3.984375 c -0.0029,0.00501 -0.0049,0.01063 -0.0078,0.015625 l 0.002,0 c 0.0015,-0.0055 0.0043,-0.010138 0.0059,-0.015625 z" clip-rule="nonzero" color="#000" color-interpolation="sRGB" color-interpolation-filters="linearRGB" color-rendering="auto" display="inline" enable-background="accumulate" image-rendering="auto" opacity="1" overflow="visible" shape-rendering="auto" text-decoration="none" text-rendering="auto" visibility="visible" style="text-decoration-line:none;text-decoration-style:solid;text-decoration-color:#000;isolation:auto;mix-blend-mode:normal;solid-color:#000;solid-opacity:1"/><path id="rect4245" fill="#229df0" fill-opacity="1" fill-rule="nonzero" stroke="none" stroke-dasharray="none" stroke-dashoffset="0" stroke-linecap="butt" stroke-linejoin="miter" stroke-miterlimit="4" stroke-opacity="1" stroke-width="1" d="m 11,9 c -2.216,0 -4,1.784 -4,4 0,2.216 1.784,4 4,4 2.216,0 4,-1.784 4,-4 0,-2.216 -1.784,-4 -4,-4 z m 0,1 c 1.662,0 3,1.338 3,3 0,1.662 -1.338,3 -3,3 -1.662,0 -3,-1.338 -3,-3 0,-1.662 1.338,-3 3,-3 z" clip-rule="nonzero" color="#000" color-interpolation="sRGB" color-interpolation-filters="linearRGB" color-rendering="auto" display="inline" enable-background="accumulate" image-rendering="auto" opacity="1" overflow="visible" shape-rendering="auto" text-decoration="none" text-rendering="auto" visibility="visible" style="text-decoration-line:none;text-decoration-style:solid;text-decoration-color:#000;isolation:auto;mix-blend-mode:normal;solid-color:#000;solid-opacity:1"/><rect id="rect4252" width="2" height="2" x="17" y="15" fill="#229df0" fill-opacity="1" fill-rule="nonzero" stroke="none" stroke-dasharray="none" stroke-dashoffset="0" stroke-linecap="butt" stroke-linejoin="miter" stroke-miterlimit="4" stroke-opacity="1" stroke-width="1" clip-rule="nonzero" color="#000" color-interpolation="sRGB" color-interpolation-filters="linearRGB" color-rendering="auto" display="inline" enable-background="accumulate" image-rendering="auto" opacity="1" overflow="visible" ry="1" shape-rendering="auto" text-decoration="none" text-rendering="auto" visibility="visible" style="text-decoration-line:none;text-decoration-style:solid;text-decoration-color:#000;isolation:auto;mix-blend-mode:normal;solid-color:#000;solid-opacity:1"/></g></svg>