<svg xmlns="http://www.w3.org/2000/svg" xmlns:svg="http://www.w3.org/2000/svg" id="svg2" width="24" height="24" version="1.1" viewBox="0 0 24 24"><metadata id="metadata40"/><path color="#000" style="text-decoration-line:none;text-decoration-style:solid;text-decoration-color:#000;isolation:auto;mix-blend-mode:normal;solid-color:#000;solid-opacity:1" id="rect4191" fill="#424854" fill-opacity="1" fill-rule="nonzero" stroke="none" stroke-dasharray="none" stroke-dashoffset="0" stroke-linecap="butt" stroke-linejoin="miter" stroke-miterlimit="4" stroke-opacity="1" stroke-width="1" d="m 16,4 0,4 2,0 0,2 -3,0 0,-3 -7,0 0,3 -1,0 0,-1 -3,0 0,1 -1,0 0,10 18,0 0,-10 -2,0 0,-2 2,0 0,-4 -5,0 z m 1,1 3,0 0,2 -1,0 -1,0 -1,0 0,-2 z m -7,3 3,0 0,1 -3,0 0,-1 z m -6,3 8,0 6,0 0,8 -6,0 -8,0 0,-8 z m 8,8 c 2.216,0 4,-1.784 4,-4 0,-2.216 -1.784,-4 -4,-4 -2.216,0 -4,1.784 -4,4 0,2.216 1.784,4 4,4 z m 7,-8 1,0 0,8 -1,0 0,-8 z m -7,1 c 1.662,0 3,1.338 3,3 0,1.662 -1.338,3 -3,3 -1.662,0 -3,-1.338 -3,-3 0,-1.662 1.338,-3 3,-3 z M 5,12.513672 5,14 l 2,0 0,-1.486328 -2,0 z" clip-rule="nonzero" color-interpolation="sRGB" color-interpolation-filters="linearRGB" color-rendering="auto" display="inline" enable-background="accumulate" image-rendering="auto" opacity="1" overflow="visible" shape-rendering="auto" text-decoration="none" text-rendering="auto" visibility="visible"/></svg>