<svg xmlns="http://www.w3.org/2000/svg" xmlns:svg="http://www.w3.org/2000/svg" id="svg2" width="24" height="24" version="1.1" viewBox="0 0 6.773 6.773"><metadata id="metadata26"/><defs id="defs4"><clipPath id="clipPath4063" clipPathUnits="userSpaceOnUse"><path id="path7" fill="url(#linearGradient4067)" d="M 240,92.121216 240,129 c -52.45501,6.5377 -95.05053,44.80985 -107.96875,95 l 33.1875,0 c 13.61057,-36.22794 49.64746,-64.48252 89.03125,-64.21875 0.95497,-0.0253 1.92176,-0.0369 2.875,-0.0312 14.29865,0.0853 28.35374,3.63533 41.09375,10 22.94737,10.32987 39.98645,30.74431 48.3125,54.25 l 33.4375,0 C 367.05053,173.80985 324.45501,135.5377 272,129 l 0,-36.878784 z M 132.03125,288 C 144.94947,338.19015 187.54499,376.4623 240,383 l 0,36.87878 32,0 L 272,383 c 52.45501,-6.5377 95.05053,-44.80985 107.96875,-95 L 347,288 c -12.9362,38.16182 -52.91943,65.60507 -93.34375,64.1875 -39.35846,0.19888 -75.06281,-27.91764 -88.375,-64.1875 z" clip-path="url(#clipPath4127-2)"/></clipPath><clipPath id="clipPath4254" clipPathUnits="userSpaceOnUse"><path id="path10" fill="url(#linearGradient4258)" d="m 256,176 c -44.18278,0 -80,35.64044 -80,80 0,0 -0.53033,7.51472 1.76777,16 l 122.85723,0 c -3.3167,9.26456 -9.26562,17.57666 -17.34375,23.125 -18.58481,14.67263 -46.73117,9.33733 -62.5625,-7.125 l -38.03125,0 c 12.35038,28.24167 40.51668,48 73.3125,48 44.18278,0 80,-35.81722 80,-80 0,0 0,-8.22183 -1.59099,-16 L 211.5,240 c 6.91612,-17.48162 23.43148,-31.64803 42.625,-31.8125 0.96047,-0.0463 1.91732,-0.0507 2.875,-0.0312 12.86627,0.2609 25.35078,6.36236 34.03125,15.84375 l 38.28125,0 C 316.96212,195.75833 288.79582,176 256,176 Z" clip-path="url(#clipPath4174-8)" transform="translate(0,-1.78896)"/></clipPath></defs><path color="#000" style="text-decoration-line:none;text-decoration-style:solid;text-decoration-color:#000;isolation:auto;mix-blend-mode:normal;solid-color:#000;solid-opacity:1" id="rect4185" fill="#424854" fill-opacity="1" fill-rule="nonzero" stroke="none" stroke-dasharray="none" stroke-dashoffset="0" stroke-linecap="butt" stroke-linejoin="miter" stroke-miterlimit="4" stroke-opacity="1" stroke-width=".282" d="M 3.3866667,1.1288889 2.9760114,1.7451476 C 2.369629,1.8954172 1.8954172,2.369629 1.7451476,2.9760114 L 1.1288889,3.3866667 1.7451476,3.7973221 C 1.8954172,4.4037045 2.369629,4.8779163 2.9760114,5.0281858 L 3.3866667,5.6444446 3.7973221,5.0281858 C 4.4037045,4.8779163 4.8779163,4.4037045 5.0281858,3.7973221 L 5.6444446,3.3866667 5.0281858,2.9760114 C 4.8779163,2.369629 4.4037045,1.8954172 3.7973221,1.7451476 L 3.3866667,1.1288889 Z m 0,0.8466667 c 0.7817556,0 1.4111112,0.6293556 1.4111112,1.4111111 0,0.7817556 -0.6293556,1.4111112 -1.4111112,1.4111112 -0.7817555,0 -1.4111111,-0.6293556 -1.4111111,-1.4111112 0,-0.7817555 0.6293556,-1.4111111 1.4111111,-1.4111111 z m 0,0.5644445 0,0.4233333 -0.4233333,0 0,0.8466667 0.4233333,0 0,0.4233333 L 4.2333334,3.3866667 3.3866667,2.5400001 Z m -0.8466666,0.4233333 0,0.8466667 0.3175,0 0,-0.8466667 -0.3175,0 z" clip-rule="nonzero" color-interpolation="sRGB" color-interpolation-filters="linearRGB" color-rendering="auto" display="inline" enable-background="accumulate" image-rendering="auto" opacity="1" overflow="visible" shape-rendering="auto" text-decoration="none" text-rendering="auto" visibility="visible"/></svg>