<svg xmlns="http://www.w3.org/2000/svg" xmlns:svg="http://www.w3.org/2000/svg" id="svg2" width="24" height="24" version="1.1" viewBox="0 0 24 24"><metadata id="metadata12"/><path id="rect4156" fill="#424854" fill-opacity="1" stroke="none" stroke-dasharray="none" stroke-miterlimit="4" stroke-opacity=".55" stroke-width="2.8" d="m 9,4 0,1 0,5 -2.300781,0 0.0039,0.0039 -0.703125,0.703125 5.292969,5.292969 0.707031,0.707031 0.707031,-0.707031 5.292969,-5.292969 L 17.296869,10.0039 17.300769,10 17.292969,10 15,10 15,5 15,4 9,4 Z m 1,1 4,0 0,6 1,0 1.292969,0 L 12,15.292969 7.707031,11 9,11 l 1,0 0,-6 z m -5,13 0,2 1,0 13,0 0,-1 0,-1 -1,0 0,1 -12,0 0,-1 -1,0 z" opacity="1"/></svg>