<svg xmlns="http://www.w3.org/2000/svg" xmlns:svg="http://www.w3.org/2000/svg" id="svg3760" width="24" height="24" version="1.1" viewBox="0 0 24 24"><metadata id="metadata3765"/><g id="layer1" transform="translate(-552.72253,-582.11926)"><path id="rect4136-2" fill="#424854" fill-opacity="1" stroke="none" d="m 564.72253,586.11926 c -2.216,0 -4,1.784 -4,4 l 0,1 1,0 0,-1 c 0,-1.662 1.338,-3 3,-3 1.662,0 3,1.338 3,3 l 0,4 -5,0 -1,0 -1,0 -1,0 -1,0 0,1 0,7 1,0 10,0 1,0 0,-8 -1,0 -1,0 0,-4 c 0,-2.216 -1.784,-4 -4,-4 z m -5,9 1,0 1,0 6,0 1,0 1,0 0,6 -10,0 0,-6 z" opacity="1"/></g></svg>