<svg xmlns="http://www.w3.org/2000/svg" xmlns:svg="http://www.w3.org/2000/svg" id="svg2" width="24" height="24" version="1.1" viewBox="0 0 24 24"><metadata id="metadata16"/><path id="rect4162" fill="#424854" fill-opacity="1" stroke="none" d="m 4.0000002,4.0000002 0,1 0,8.9999998 0,1 0,1 L 12,16 l 0,3 0,1 0.04687,0 0.652344,0 0.01172,0 4,-4 L 20,16 l 0,-1 0,-1.507812 0,-9.4921878 -14.9999998,0 -1,0 z m 1,1 L 19,5.0000002 19,14 l 0,1 -13.9999998,0 0,-1 0,-8.9999998 z M 13,16 15.292969,16 13,18.292969 13,16 Z" opacity=".5"/></svg>