<svg xmlns="http://www.w3.org/2000/svg" xmlns:svg="http://www.w3.org/2000/svg" id="svg2" width="24" height="24" version="1.1" viewBox="0 0 24 24"><metadata id="metadata14"/><path id="rect4162" fill="#424854" fill-opacity="1" stroke="none" d="m 4,4 0,1 0,9 0,1 0,1 8,0 0,3 0,1 0.04687,0 0.652344,0 0.01172,0 4,-4 L 20,16 20,15 20,13.492188 20,4 5,4 Z m 1,1 14,0 0,9 0,1 -14,0 0,-1 z M 8,9 C 7.446,9 7,9.446 7,10 7,10.554 7.446,11 8,11 8.554,11 9,10.554 9,10 9,9.446 8.554,9 8,9 Z m 4,0 c -0.554,0 -1,0.446 -1,1 0,0.554 0.446,1 1,1 0.554,0 1,-0.446 1,-1 0,-0.554 -0.446,-1 -1,-1 z m 4,0 c -0.554,0 -1,0.446 -1,1 0,0.554 0.446,1 1,1 0.554,0 1,-0.446 1,-1 0,-0.554 -0.446,-1 -1,-1 z m -3,7 2.292969,0 L 13,18.292969 Z" opacity="1"/></svg>