<svg xmlns="http://www.w3.org/2000/svg" xmlns:svg="http://www.w3.org/2000/svg" id="svg2" width="24" height="24" version="1.1" viewBox="0 0 24 24"><metadata id="metadata14"/><path id="rect4162" fill="#f92d36" fill-opacity="1" stroke="none" d="m 4,4 0,1 0,9 0,1 0,1 8,0 0,3 0,1 0.04687,0 0.652344,0 0.01172,0 4,-4 L 20,16 20,15 20,13.492188 20,4 5,4 4,4 Z m 1,1 14,0 0,9 0,1 L 5,15 5,14 5,5 Z M 9.7070312,7 9,7.7070312 11.292969,10 9,12.292969 9.7070312,13 12,10.707031 14.292969,13 15,12.292969 12.707031,10 15,7.7070312 14.292969,7 12,9.2929688 9.7070312,7 Z M 13,16 15.292969,16 13,18.292969 13,16 Z" opacity="1"/></svg>