<svg xmlns="http://www.w3.org/2000/svg" xmlns:svg="http://www.w3.org/2000/svg" id="svg2" width="24" height="24" version="1.1" viewBox="0 0 24 24"><metadata id="metadata32"/><path color="#000" style="text-decoration-line:none;text-decoration-style:solid;text-decoration-color:#000;isolation:auto;mix-blend-mode:normal;solid-color:#000;solid-opacity:1" id="rect4199" fill="#424854" fill-opacity="1" fill-rule="nonzero" stroke="none" stroke-dasharray="none" stroke-dashoffset="0" stroke-linecap="butt" stroke-linejoin="miter" stroke-miterlimit="4" stroke-opacity="1" stroke-width="1" d="M 12,4 C 9.23,4 7,6.23 7,9 l 0,5 c 0,2.05682 1.2328358,3.810613 3,4.580078 L 10,20 l 0,1 1,0 0,2 2,0 0,-2 1,0 0,-1 0,-1.419922 C 15.767164,17.810613 17,16.05682 17,14 L 17,9 C 17,6.23 14.77,4 12,4 Z M 11.5,5.0488281 11.5,6 l 1,0 0,-0.9511719 C 14.13996,5.2538468 15.458302,6.4319271 15.861328,8 L 13,8 l 0,1 3,0 0,1 -3,0 0,1 3,0 0,1 -3,0 0,1 3,0 0,1 -3,0 0,1 2.861328,0 C 15.417636,16.726297 13.86855,18 12,18 10.13145,18 8.5823641,16.726297 8.1386719,15 L 11,15 l 0,-1 -3,0 0,-1 3,0 0,-1 -3,0 0,-1 3,0 0,-1 -3,0 0,-1 3,0 0,-1 -2.8613281,0 C 8.5416975,6.4319271 9.8600405,5.2538468 11.5,5.0488281 Z M 11,18.900391 C 11.323084,18.965505 11.657169,19 12,19 c 0.342832,0 0.676916,-0.03449 1,-0.09961 L 13,20 l -2,0 0,-1.099609 z" clip-rule="nonzero" color-interpolation="sRGB" color-interpolation-filters="linearRGB" color-rendering="auto" display="inline" enable-background="accumulate" image-rendering="auto" opacity="1" overflow="visible" shape-rendering="auto" text-decoration="none" text-rendering="auto" visibility="visible"/></svg>