<svg xmlns="http://www.w3.org/2000/svg" xmlns:svg="http://www.w3.org/2000/svg" id="svg2" version="1.1" viewBox="0 0 16 16.018"><metadata id="metadata14"/><path color="#000" style="text-decoration-line:none;text-decoration-style:solid;text-decoration-color:#000;isolation:auto;mix-blend-mode:normal;solid-color:#000;solid-opacity:1" id="rect4172" fill="#bebebe" fill-opacity="1" fill-rule="nonzero" stroke="none" stroke-dasharray="none" stroke-dashoffset="0" stroke-linecap="butt" stroke-linejoin="miter" stroke-miterlimit="4" stroke-opacity="1" stroke-width="1" d="M 10.5 2.0175781 C 9.2861399 2.0175781 8.2809777 2.8735065 8.0507812 4.0175781 L 2 4.0175781 L 2 5.0175781 L 8.0507812 5.0175781 C 8.2809777 6.1616498 9.2861399 7.0175781 10.5 7.0175781 C 11.71386 7.0175781 12.719022 6.1616498 12.949219 5.0175781 L 14 5.0175781 L 14 4.0175781 L 12.949219 4.0175781 C 12.719022 2.8735065 11.71386 2.0175781 10.5 2.0175781 z M 10.5 3.0175781 C 11.331 3.0175781 12 3.6865781 12 4.5175781 C 12 5.3485781 11.331 6.0175781 10.5 6.0175781 C 9.6690002 6.0175781 9 5.3485781 9 4.5175781 C 9 3.6865781 9.6690002 3.0175781 10.5 3.0175781 z M 5.5 9.0175781 C 4.2861397 9.0175781 3.2809777 9.8735065 3.0507812 11.017578 L 2 11.017578 L 2 12.017578 L 3.0507812 12.017578 C 3.2809777 13.16165 4.2861397 14.017578 5.5 14.017578 C 6.7138607 14.017578 7.7190223 13.16165 7.9492188 12.017578 L 14 12.017578 L 14 11.017578 L 7.9492188 11.017578 C 7.7190223 9.8735065 6.7138607 9.0175781 5.5 9.0175781 z M 5.5 10.017578 C 6.3310004 10.017578 7 10.686578 7 11.517578 C 7 12.348578 6.3310004 13.017578 5.5 13.017578 C 4.669 13.017578 4 12.348578 4 11.517578 C 4 10.686578 4.669 10.017578 5.5 10.017578 z" clip-rule="nonzero" color-interpolation="sRGB" color-interpolation-filters="linearRGB" color-rendering="auto" display="inline" enable-background="accumulate" image-rendering="auto" opacity="1" overflow="visible" shape-rendering="auto" text-decoration="none" text-rendering="auto" visibility="visible"/></svg>