<svg xmlns="http://www.w3.org/2000/svg" xmlns:svg="http://www.w3.org/2000/svg" id="svg2" width="16" height="16" version="1.1" viewBox="0 0 16 16"><metadata id="metadata7"/><g id="layer1" transform="translate(0,-1036.3622)"><path id="rect4169" fill="#f92d36" fill-opacity="1" stroke="none" stroke-dasharray="none" stroke-miterlimit="4" stroke-opacity=".55" stroke-width="2.8" d="M 8 2 C 4.6760048 2 2 4.6760048 2 8 C 2 11.323995 4.6760048 14 8 14 C 11.323995 14 14 11.323995 14 8 C 14 4.6760048 11.323995 2 8 2 z M 8 3 C 10.769996 3 13 5.230004 13 8 C 13 10.769996 10.769996 13 8 13 C 5.230004 13 3 10.769996 3 8 C 3 5.230004 5.230004 3 8 3 z M 6.7070312 6 L 6 6.7070312 L 7.2929688 8 L 6 9.2929688 L 6.7070312 10 L 8 8.7070312 L 9.2929688 10 L 10 9.2929688 L 8.7070312 8 L 10 6.7070312 L 9.2929688 6 L 8 7.2929688 L 6.7070312 6 z" opacity="1" transform="translate(0,1036.3622)"/></g></svg>