<svg xmlns="http://www.w3.org/2000/svg" xmlns:svg="http://www.w3.org/2000/svg" id="svg2" width="16" height="16" version="1.1" viewBox="0 0 16 16"><metadata id="metadata7"/><g id="layer1" transform="translate(0,-1036.3622)"><path id="rect4176" fill="#424854" fill-opacity="1" stroke="none" stroke-dasharray="none" stroke-miterlimit="4" stroke-opacity="1" stroke-width=".1" d="M 1 2 L 1 3 L 1 4 L 1 5 L 1 13 L 1 14 L 15 14 L 15 13 L 15 4 L 9.0078125 4 L 7.0078125 2 L 7 2.0078125 L 7 2 L 2 2 L 1 2 z M 2 3 L 6.59375 3 L 7.59375 4 L 2 4 L 2 3 z M 2 5 L 8.59375 5 L 9.6640625 5 L 14 5 L 14 13 L 2 13 L 2 5 z" opacity="1" transform="translate(0,1036.3622)"/></g></svg>