<svg xmlns="http://www.w3.org/2000/svg" xmlns:svg="http://www.w3.org/2000/svg" id="svg2" version="1.1" viewBox="0 0 16 16"><metadata id="metadata18"/><path color="#000" style="text-decoration-line:none;text-decoration-style:solid;text-decoration-color:#000;isolation:auto;mix-blend-mode:normal;solid-color:#000;solid-opacity:1" id="rect4161" fill="#424854" fill-opacity="1" fill-rule="nonzero" stroke="none" stroke-dasharray="none" stroke-dashoffset="0" stroke-linecap="butt" stroke-linejoin="miter" stroke-miterlimit="4" stroke-opacity="1" stroke-width="1" d="m 3,2 0,1 0,3 1,0 0,-3 8,0 0,3 1,0 0,-3 0,-1 z M 9.5,5.0820312 9.2929688,5.2890625 7.2949219,7.2871094 5.7070312,5.6992188 5.5,5.4921875 5.2929688,5.6992188 3,7.9921875 3.0078125,8 3,8 3,9 3,10 3,10.002 6.9980469,14 7,14 13,14 13,13 13,8.5820312 12.916016,8.4980469 12.417969,8 12,7.5820312 9.7070312,5.2890625 Z m 0,1.4140626 1.792969,1.7929687 L 12,8.9960938 12,13 8,13 8,9 7,9 4,9 4,8.40625 l 1.5,-1.5 1.7929688,1.7929688 0.4121093,-0.4121094 0.00195,0.00195 z M 4.4121094,10 7,10 7,12.587891 Z" clip-rule="nonzero" color-interpolation="sRGB" color-interpolation-filters="linearRGB" color-rendering="auto" display="inline" enable-background="accumulate" image-rendering="auto" opacity="1" overflow="visible" shape-rendering="auto" text-decoration="none" text-rendering="auto" visibility="visible"/></svg>