<svg xmlns="http://www.w3.org/2000/svg" xmlns:svg="http://www.w3.org/2000/svg" id="svg2" version="1.1" viewBox="0 0 16 15.982"><metadata id="metadata20"/><path color="#000" style="text-decoration-line:none;text-decoration-style:solid;text-decoration-color:#000;isolation:auto;mix-blend-mode:normal;solid-color:#000;solid-opacity:1" id="rect4171" fill="#424854" fill-opacity="1" fill-rule="nonzero" stroke="none" stroke-dasharray="none" stroke-dashoffset="0" stroke-linecap="butt" stroke-linejoin="miter" stroke-miterlimit="4" stroke-opacity="1" stroke-width="1" d="M 2 1.9824219 L 2 2.9824219 L 2 6.9824219 L 3 6.9824219 L 9 6.9824219 L 10 6.9824219 L 10 3.9824219 L 9 3.9824219 L 9 5.9824219 L 3 5.9824219 L 3 2.9824219 L 5 2.9824219 L 5 1.9824219 L 2 1.9824219 z M 6 1.9824219 L 6 4.9824219 L 7 4.9824219 L 7 2.9824219 L 13 2.9824219 L 13 5.9824219 L 11 5.9824219 L 11 6.9824219 L 14 6.9824219 L 14 5.9824219 L 14 1.9824219 L 13 1.9824219 L 7 1.9824219 L 6 1.9824219 z M 4 8.9824219 L 4 10.982422 L 2 10.982422 L 2 11.982422 L 4 11.982422 L 4 13.982422 L 5 13.982422 L 5 11.982422 L 7 11.982422 L 7 10.982422 L 5 10.982422 L 5 8.9824219 L 4 8.9824219 z" clip-rule="nonzero" color-interpolation="sRGB" color-interpolation-filters="linearRGB" color-rendering="auto" display="inline" enable-background="accumulate" image-rendering="auto" opacity="1" overflow="visible" shape-rendering="auto" text-decoration="none" text-rendering="auto" visibility="visible"/></svg>