<svg xmlns="http://www.w3.org/2000/svg" xmlns:svg="http://www.w3.org/2000/svg" id="svg2" width="16" height="16" version="1.1" viewBox="0 0 16 16"><metadata id="metadata7"/><g id="layer1" transform="translate(0,-1036.3622)"><path id="rect4083-4" fill="#424854" fill-opacity="1" stroke="none" d="M 2 2 L 2 5 L 2 14 L 3 14 L 14 14 L 14 13 L 14 2 L 3 2 L 2 2 z M 3 3 L 13 3 L 13 4 L 3 4 L 3 3 z M 3 5 L 13 5 L 13 13 L 3 13 L 3 5 z M 4 6 L 4 8 L 6 8 L 6 6 L 4 6 z M 7 7 L 7 8 L 12 8 L 12 7 L 7 7 z M 4 9 L 4 10 L 12 10 L 12 9 L 4 9 z M 4 11 L 4 12 L 12 12 L 12 11 L 4 11 z" transform="translate(0,1036.3622)"/></g></svg>