<svg xmlns="http://www.w3.org/2000/svg" xmlns:svg="http://www.w3.org/2000/svg" id="svg2" width="16" height="16" version="1.1" viewBox="0 0 16 16"><metadata id="metadata16"/><path color="#000" style="text-decoration-line:none;text-decoration-style:solid;text-decoration-color:#000;isolation:auto;mix-blend-mode:normal;solid-color:#000;solid-opacity:1" id="rect4161" fill="#424854" fill-opacity="1" fill-rule="nonzero" stroke="none" stroke-dasharray="none" stroke-dashoffset="0" stroke-linecap="butt" stroke-linejoin="miter" stroke-miterlimit="4" stroke-opacity="1" stroke-width="1" d="M 2 2 L 2 7 L 7 7 L 7 2 L 2 2 z M 8 3 L 8 4 L 14 4 L 14 3 L 8 3 z M 8 5 L 8 6 L 14 6 L 14 5 L 8 5 z M 2 9 L 2 14 L 7 14 L 7 9 L 2 9 z M 3 10 L 6 10 L 6 13 L 3 13 L 3 10 z M 8 10 L 8 11 L 14 11 L 14 10 L 8 10 z M 8 12 L 8 13 L 14 13 L 14 12 L 8 12 z" clip-rule="nonzero" color-interpolation="sRGB" color-interpolation-filters="linearRGB" color-rendering="auto" display="inline" enable-background="accumulate" image-rendering="auto" opacity="1" overflow="visible" shape-rendering="auto" text-decoration="none" text-rendering="auto" visibility="visible"/></svg>