<svg xmlns="http://www.w3.org/2000/svg" xmlns:svg="http://www.w3.org/2000/svg" id="svg2" width="16" height="16" version="1.1" viewBox="0 0 16 16"><metadata id="metadata7"/><g id="layer1" transform="translate(0,-1036.3622)"><path id="rect4083" fill="#424854" fill-opacity="1" stroke="none" d="m 2,1038.3622 0,3 0,9 1,0 11,0 0,-1 0,-11 -11,0 -1,0 z m 1,1 10,0 0,1 -10,0 0,-1 z m 0,2 10,0 0,8 -10,0 0,-8 z m 1,1 0,2 2,0 0,-2 -2,0 z m 3,0 0,2 2,0 0,-2 -2,0 z m 3,0 0,2 2,0 0,-2 -2,0 z m -6,4 0,2 2,0 0,-2 -2,0 z m 3,0 0,2 2,0 0,-2 -2,0 z"/></g></svg>