<svg xmlns="http://www.w3.org/2000/svg" xmlns:svg="http://www.w3.org/2000/svg" id="svg2" width="16" height="16" version="1.1" viewBox="0 0 16 16"><metadata id="metadata7"/><g id="layer1" transform="translate(0,-1036.3622)"><path id="rect4083-4" fill="#424854" fill-opacity="1" stroke="none" d="M 2 2 L 2 5 L 2 8 L 3 8 L 3 5 L 13 5 L 13 13 L 8 13 L 8 14 L 14 14 L 14 13 L 14 2 L 3 2 L 2 2 z M 3 3 L 13 3 L 13 4 L 3 4 L 3 3 z M 4 9 L 4 11 L 2 11 L 2 12 L 4 12 L 4 14 L 5 14 L 5 12 L 7 12 L 7 11 L 5 11 L 5 9 L 4 9 z" transform="translate(0,1036.3622)"/></g></svg>