<svg xmlns="http://www.w3.org/2000/svg" xmlns:svg="http://www.w3.org/2000/svg" id="svg4359" width="22" height="22" version="1.1"><metadata id="metadata4364"/><g id="layer1" transform="translate(0,-26)"><path id="rect4162" fill="#424854" fill-opacity="1" stroke="none" stroke-dasharray="none" stroke-miterlimit="4" stroke-opacity=".55" stroke-width="2.8" d="M 5 3 L 5 6 L 4 6 L 3 6 L 3 9 L 4 9 L 5 9 L 5 12 L 5 13 L 4 13 L 3 13 L 3 16 L 4 16 L 5 16 L 5 19 L 6 19 L 12 19 L 18 19 L 19 19 L 19 18 L 19 4 L 19 3 L 18 3 L 6 3 L 5 3 z M 6 4 L 8 4 L 8 18 L 6 18 L 6 12 L 6 4 z M 9 4 L 18 4 L 18 18 L 12 18 L 9 18 L 9 4 z M 4 7 L 5 7 L 5 8 L 4 8 L 4 7 z M 4 14 L 5 14 L 5 15 L 4 15 L 4 14 z" opacity="1" transform="translate(0,26)"/></g></svg>