<svg xmlns="http://www.w3.org/2000/svg" xmlns:svg="http://www.w3.org/2000/svg" id="svg3760" width="22" height="22" version="1.1" viewBox="0 0 22 22"><metadata id="metadata3765"/><g id="layer1" transform="translate(-553.72253,-583.11926)"><path id="rect4165-3" fill="#424854" fill-opacity="1" stroke="none" d="M 3 3 L 3 4 L 3 10 L 9 10 L 9 9 L 9 3 L 8 3 L 3 3 z M 4 4 L 8 4 L 8 9 L 4 9 L 4 4 z M 13 4 L 13 10 L 18 10 L 19 10 L 19 9 L 19 5 L 19 4 L 18 4 L 14 4 L 13 4 z M 14 5 L 18 5 L 18 9 L 14 9 L 14 5 z M 3 12 L 3 13 L 19 13 L 19 12 L 3 12 z M 13 15 L 13 16 L 13 19 L 19 19 L 19 18 L 19 15 L 18 15 L 13 15 z M 14 16 L 18 16 L 18 18 L 14 18 L 14 16 z" opacity="1" transform="translate(553.72253,583.11926)"/><rect id="rect4151" width="4" height="2" x="567.723" y="599.119" fill="#c66d14" fill-opacity="0" stroke="none" stroke-dasharray="none" stroke-dashoffset="0" stroke-linecap="square" stroke-linejoin="miter" stroke-miterlimit="4" stroke-opacity="1" stroke-width=".1" opacity=".3"/></g></svg>