<svg xmlns="http://www.w3.org/2000/svg" xmlns:svg="http://www.w3.org/2000/svg" id="svg3760" width="22" height="22" version="1.1" viewBox="0 0 22 22"><metadata id="metadata3765"/><g id="layer1" transform="translate(-553.72253,-583.11926)"><path id="rect4165-2" fill="#424854" fill-opacity="1" stroke="none" d="M 3 3 L 3 8 L 3 9 L 9 9 L 10 9 L 10 3 L 4 3 L 3 3 z M 12 3 L 12 19 L 13 19 L 13 3 L 12 3 z M 4 4 L 9 4 L 9 8 L 4 8 L 4 4 z M 3 13 L 3 14 L 3 18 L 3 19 L 4 19 L 8 19 L 9 19 L 9 18 L 9 13 L 3 13 z M 15 13 L 15 18 L 15 19 L 18 19 L 19 19 L 19 13 L 16 13 L 15 13 z M 4 14 L 8 14 L 8 18 L 4 18 L 4 14 z M 16 14 L 18 14 L 18 18 L 16 18 L 16 14 z" opacity="1" transform="translate(553.72253,583.11926)"/></g></svg>