<svg xmlns="http://www.w3.org/2000/svg" xmlns:svg="http://www.w3.org/2000/svg" id="svg3760" width="22" height="22" version="1.1"><metadata id="metadata3765"/><g id="layer1" transform="translate(-553.72253,-583.11926)"><path id="rect4120" fill="#424854" fill-opacity="1" stroke="none" d="M 10.5 3 L 10.5 4 L 8 4 L 8 5 L 8 8 L 8 9 L 10.5 9 L 10.5 13 L 5 13 L 5 14 L 5 18 L 6 18 L 10.5 18 L 10.5 19 L 11.5 19 L 11.5 18 L 17 18 L 17 17 L 17 14 L 17 13 L 11.5 13 L 11.5 9 L 13 9 L 14 9 L 14 8 L 14 5 L 14 4 L 13 4 L 11.5 4 L 11.5 3 L 10.5 3 z M 9 5 L 13 5 L 13 8 L 9 8 L 9 5 z M 6 14 L 16 14 L 16 17 L 6 17 L 6 14 z" opacity="1" transform="translate(553.72253,583.11926)"/></g></svg>