<svg xmlns="http://www.w3.org/2000/svg" xmlns:svg="http://www.w3.org/2000/svg" id="svg3760" width="22" height="22" version="1.1" viewBox="0 0 22 22"><metadata id="metadata3765"/><g id="layer1" transform="translate(-553.72253,-583.11926)"><path id="rect4165-6" fill="#424854" fill-opacity="1" stroke="none" d="M 9 3 L 9 19 L 10 19 L 10 3 L 9 3 z M 12 3 L 12 9 L 13 9 L 19 9 L 19 8 L 19 3 L 18 3 L 12 3 z M 13 4 L 18 4 L 18 8 L 13 8 L 13 4 z M 3 13 L 3 19 L 4 19 L 7 19 L 7 18 L 7 13 L 6 13 L 3 13 z M 13 13 L 13 18 L 13 19 L 14 19 L 18 19 L 19 19 L 19 18 L 19 14 L 19 13 L 13 13 z M 4 14 L 6 14 L 6 18 L 4 18 L 4 14 z M 14 14 L 18 14 L 18 18 L 14 18 L 14 14 z" opacity="1" transform="translate(553.72253,583.11926)"/></g></svg>