<svg xmlns="http://www.w3.org/2000/svg" xmlns:svg="http://www.w3.org/2000/svg" id="svg3760" width="22" height="22" version="1.1" viewBox="0 0 22 22"><metadata id="metadata3765"/><g id="layer1" transform="translate(-553.72253,-583.11926)"><path id="rect4165" fill="#424854" fill-opacity="1" stroke="none" d="M 13 3 L 13 6 L 13 7 L 18 7 L 19 7 L 19 4 L 19 3 L 13 3 z M 14 4 L 18 4 L 18 6 L 14 6 L 14 4 z M 3 9 L 3 10 L 19 10 L 19 9 L 3 9 z M 3 12 L 3 18 L 3 19 L 8 19 L 9 19 L 9 13 L 9 12 L 3 12 z M 13 12 L 13 18 L 14 18 L 18 18 L 19 18 L 19 17 L 19 13 L 19 12 L 18 12 L 13 12 z M 4 13 L 8 13 L 8 18 L 4 18 L 4 13 z M 14 13 L 18 13 L 18 17 L 14 17 L 14 13 z" opacity="1" transform="translate(553.72253,583.11926)"/></g></svg>