<svg xmlns="http://www.w3.org/2000/svg" xmlns:svg="http://www.w3.org/2000/svg" id="svg3813" width="22" height="22" version="1.1"><metadata id="metadata3818"/><g id="layer1" transform="translate(-378.85714,-540.07647)"><path id="rect4237" fill="#1abc9c" fill-opacity="1" stroke="none" d="M 5 3 L 5 19 L 17 19 L 17 3 L 5 3 z M 6 4 L 7 4 L 7 14 L 8 14 L 15 14 L 15 13 L 15 4 L 16 4 L 16 18 L 6 18 L 6 4 z M 8 5 L 10 5 L 10 6 L 12 6 L 12 5 L 14 5 L 14 13 L 8 13 L 8 5 z M 11 15 C 10.446004 15 10 15.446004 10 16 C 10 16.553996 10.446004 17 11 17 C 11.553996 17 12 16.553996 12 16 C 12 15.446004 11.553996 15 11 15 z" opacity="1" transform="translate(378.85714,540.07647)"/></g></svg>