<svg xmlns="http://www.w3.org/2000/svg" xmlns:svg="http://www.w3.org/2000/svg" id="svg4359" width="22" height="22" version="1.1"><metadata id="metadata4364"/><g id="layer1" transform="translate(0,-26)"><path id="rect4164" fill="#424854" fill-opacity="1" stroke="none" d="M 4.5,3 C 3.669,3 3,3.669 3,4.5 3,5.1911133 3.465804,5.7640833 4.0996094,5.9394531 l 0,9.0605469 0,4 1,0 0,-4 L 18,15 19,15 17,10 19,5 18,5 5.9082031,5 C 5.9638609,4.8427787 6,4.6767598 6,4.5 6,3.669 5.331,3 4.5,3 Z m 0,1 C 4.777,4 5,4.223 5,4.5 5,4.777 4.777,5 4.5,5 4.223,5 4,4.777 4,4.5 4,4.223 4.223,4 4.5,4 Z M 5.0996094,6 17.599609,6 16,10 17.599609,14 5.0996094,14 Z" opacity="1" transform="translate(0,26)"/></g></svg>