<svg xmlns="http://www.w3.org/2000/svg" xmlns:svg="http://www.w3.org/2000/svg" id="svg3813" width="22" height="22" version="1.1"><metadata id="metadata3818"/><g id="layer1" transform="translate(-378.85714,-540.07647)"><path id="rect4108" fill="#424854" fill-opacity="1" stroke="none" d="M 6 7 L 6 8 L 10 8 L 10 7 L 6 7 z M 11 7 L 11 15 L 19 15 L 19 7 L 11 7 z M 12 8 L 18 8 L 18 14 L 12 14 L 12 8 z M 3 9 L 3 10 L 7 10 L 7 9 L 3 9 z M 4 12 L 4 13 L 7 13 L 7 12 L 4 12 z M 6 14 L 6 15 L 10 15 L 10 14 L 6 14 z" opacity="1" transform="translate(378.85714,540.07647)"/></g></svg>