<svg xmlns="http://www.w3.org/2000/svg" xmlns:svg="http://www.w3.org/2000/svg" id="svg3813" width="22" height="22" version="1.1"><metadata id="metadata3818"/><g id="layer1" transform="translate(-378.85714,-540.07647)"><path id="rect4146" fill="#424854" fill-opacity="1" stroke="none" d="M 8 3 L 8 9 L 14 9 L 14 3 L 8 3 z M 9 4 L 13 4 L 13 8 L 9 8 L 9 4 z M 3 13 L 3 19 L 9 19 L 9 13 L 3 13 z M 13 13 L 13 19 L 19 19 L 19 13 L 13 13 z M 4 14 L 8 14 L 8 18 L 4 18 L 4 14 z M 14 14 L 18 14 L 18 18 L 14 18 L 14 14 z" opacity="1" transform="translate(378.85714,540.07647)"/></g></svg>