<svg xmlns="http://www.w3.org/2000/svg" xmlns:svg="http://www.w3.org/2000/svg" id="svg3813" width="22" height="22" version="1.1"><metadata id="metadata3818"/><g id="layer1" transform="translate(-378.85714,-540.07647)"><path id="rect4108" fill="#424854" fill-opacity="1" stroke="none" d="M 4 3 L 4 9 L 6 9 L 6 13 L 3 13 L 3 19 L 9 19 L 9 13 L 7 13 L 7 9 L 12 9 L 12 7 L 16 7 L 16 14 L 14 14 L 14 19 L 19 19 L 19 14 L 17 14 L 17 7 L 17 6 L 12 6 L 12 3 L 4 3 z M 5 4 L 11 4 L 11 8 L 5 8 L 5 4 z M 4 14 L 8 14 L 8 18 L 4 18 L 4 14 z M 15 15 L 18 15 L 18 18 L 15 18 L 15 15 z" opacity="1" transform="translate(378.85714,540.07647)"/></g></svg>