<svg xmlns="http://www.w3.org/2000/svg" xmlns:svg="http://www.w3.org/2000/svg" id="svg3813" width="22" height="22" version="1.1" viewBox="0 0 22 22"><metadata id="metadata3818"/><g id="layer1" transform="translate(-378.85714,-540.07647)"><path id="path4185" fill="#424854" fill-opacity="1" stroke="none" d="m 398.85714,544.07647 -13,0 -0.80469,0.80469 -0.002,-0.004 -3.29297,3.29297 0.002,0.004 -0.90234,0.90234 0,8 0,1 18,0 0,-1 0,-12 z m -1,1 0,12 -16,0 0,-7 4,0 1,0 0,-5 z m -2,2 -5,0 0,8 5,0 z m -1,1 0,6 -3,0 0,-6 z m -6,-1 -1,0 0,1 0,2 0,4 -3,0 0,-3 -1,0 0,4 5,0 z m -3,-1.5 0,0.5 0,0.5 0,2.5 -1,0 -1,0 -1,0 0,-0.5 0.5,-0.5 0.5,-0.5 0.5,-0.5 0.5,-0.5 0.5,-0.5 z" opacity="1"/></g></svg>