<svg xmlns="http://www.w3.org/2000/svg" xmlns:svg="http://www.w3.org/2000/svg" id="svg3813" width="22" height="22" version="1.1" viewBox="0 0 22 22"><metadata id="metadata3818"/><g id="layer1" transform="translate(-378.85714,-540.07647)"><path id="rect4109" fill="#424854" fill-opacity="1" stroke="none" d="M 7.3007812,3 5.0078125,5.2929688 4.8007812,5.5 5.0078125,5.7070312 7.3007812,8 8.0078125,7.2929688 6.7148438,6 10,6 12,6 15.292969,6 14,7.2929688 14.707031,8 17,5.7070312 17.207031,5.5 17,5.2929688 14.707031,3 14,3.7070312 15.292969,5 12,5 10,5 6.7148438,5 8.0078125,3.7070312 Z M 6,8 6,9 4,9 3,9 l 0,7 1,0 2,0 0,2 0,1 1,0 0,-1 0,-2 3,0 0,-7 -3,0 0,-1 z m 9,0 0,1 -2,0 -1,0 0,9 1,0 2,0 0,1 1,0 0,-1 3,0 0,-9 -3,0 0,-1 z m -11,2 5,0 0,5 -5,0 z m 9,0 5,0 0,7 -2,0 -1,0 -2,0 z" opacity="1" transform="translate(378.85714,540.07647)"/></g></svg>