<svg xmlns="http://www.w3.org/2000/svg" xmlns:svg="http://www.w3.org/2000/svg" id="svg3813" width="22" height="22" version="1.1" viewBox="0 0 22 22"><metadata id="metadata3818"/><g id="layer1" transform="translate(-378.85714,-540.07647)"><path id="rect4109" fill="#424854" fill-opacity="1" stroke="none" d="m 398.85714,543.07647 0,1 0,15 -1,0 -10,0 -1,0 -1,0 -0.90234,-0.90234 -0.004,0 -3.29297,-3.29297 0.004,0 -0.80469,-0.80469 0,-1 0,-1 0,-8 0,-1 18,0 z m -1,1 -16,0 0,8 0,1 5,0 0,1 0,4 1,0 10,0 0,-14 z m -2,3 0,8 -5,0 0,-8 5,0 z m -7,0 0,8 -1,0 0,-1 0,-2 0,-4 -3,0 0,4 -1,0 0,-5 5,0 z m 6,1 -3,0 0,6 3,0 0,-6 z m -9,6 -2.5,0 -0.5,0 -0.5,0 0.5,0.5 0.5,0.5 0.5,0.5 0.5,0.5 0.5,0.5 0.5,0.5 0.5,0 0,-1 0,-1 0,-1 z" opacity="1"/></g></svg>