<svg xmlns="http://www.w3.org/2000/svg" xmlns:svg="http://www.w3.org/2000/svg" id="svg3813" width="22" height="22" version="1.1" viewBox="0 0 22 22"><metadata id="metadata3818"/><g id="layer1" transform="translate(-378.85714,-540.07647)"><path id="path4158" fill="#424854" fill-opacity="1" stroke="none" d="M 5.3007812 3 L 3.0078125 5.2929688 L 2.8007812 5.5 L 3.0078125 5.7070312 L 5.3007812 8 L 6.0078125 7.2929688 L 4.7148438 6 L 8 6 L 11.292969 6 L 10 7.2929688 L 10.707031 8 L 13 5.7070312 L 13.207031 5.5 L 13 5.2929688 L 10.707031 3 L 10 3.7070312 L 11.292969 5 L 8 5 L 4.7148438 5 L 6.0078125 3.7070312 L 5.3007812 3 z M 3 8 L 3 9 L 3 17 L 3 19 L 4 19 L 4 17 L 10 17 L 10 9 L 4 9 L 4 8 L 3 8 z M 12 8 L 12 9 L 12 18 L 12 19 L 13 19 L 13 18 L 19 18 L 19 9 L 13 9 L 13 8 L 12 8 z M 4 10 L 9 10 L 9 16 L 4 16 L 4 10 z M 13 10 L 18 10 L 18 17 L 13 17 L 13 10 z" opacity="1" transform="translate(378.85714,540.07647)"/></g></svg>