<svg xmlns="http://www.w3.org/2000/svg" xmlns:svg="http://www.w3.org/2000/svg" id="svg3813" width="22" height="22" version="1.1"><metadata id="metadata3818"/><g id="layer1" transform="translate(-378.85714,-540.07647)"><path id="rect4109" fill="#424854" fill-opacity="1" stroke="none" d="M 3 7 L 3 15 L 8 15 L 8 7 L 3 7 z M 14 7 L 14 15 L 19 15 L 19 7 L 14 7 z M 4 8 L 7 8 L 7 14 L 4 14 L 4 8 z M 15 8 L 18 8 L 18 14 L 15 14 L 15 8 z M 9 9 L 9 13 L 10 13 L 10 12 L 12 12 L 12 13 L 13 13 L 13 9 L 12 9 L 12 10 L 10 10 L 10 9 L 9 9 z" opacity="1" transform="translate(378.85714,540.07647)"/></g></svg>