<svg xmlns="http://www.w3.org/2000/svg" xmlns:svg="http://www.w3.org/2000/svg" id="svg3813" width="22" height="22" version="1.1" viewBox="0 0 22 22"><metadata id="metadata3818"/><g id="layer1" transform="translate(-378.85714,-540.07647)"><path id="path4183" fill="#424854" fill-opacity="1" stroke="none" d="M 7.6992188 3 L 6.9921875 3.7070312 L 8.2851562 5 L 5 5 L 5 6 L 8.2851562 6 L 6.9921875 7.2929688 L 7.6992188 8 L 9.9921875 5.7070312 L 10.199219 5.5 L 9.9921875 5.2929688 L 7.6992188 3 z M 14.300781 3 L 12.007812 5.2929688 L 11.800781 5.5 L 12.007812 5.7070312 L 14.300781 8 L 15.007812 7.2929688 L 13.714844 6 L 17.007812 6 L 17.007812 5 L 13.714844 5 L 15.007812 3.7070312 L 14.300781 3 z M 9 8 L 9 9 L 4 9 L 3 9 L 3 17 L 4 17 L 9 17 L 9 18 L 9 19 L 10 19 L 10 18 L 10 17 L 10 9 L 10 8 L 9 8 z M 12 8 L 12 9 L 12 18 L 12 19 L 13 19 L 13 18 L 19 18 L 19 9 L 13 9 L 13 8 L 12 8 z M 4 10 L 9 10 L 9 16 L 4 16 L 4 10 z M 13 10 L 18 10 L 18 17 L 13 17 L 13 10 z" opacity="1" transform="translate(378.85714,540.07647)"/></g></svg>