<svg xmlns="http://www.w3.org/2000/svg" xmlns:svg="http://www.w3.org/2000/svg" id="svg3813" width="22" height="22" version="1.1" viewBox="0 0 22 22"><metadata id="metadata3818"/><g id="layer1" transform="translate(-378.85714,-540.07647)"><path id="rect4109" fill="#424854" fill-opacity="1" stroke="none" d="m 397.85714,559.07647 -1,0 -15,0 0,-1 0,-8 0,-1 0,-1 0.90234,-0.90234 0,-0.004 3.29297,-3.29297 0,0.004 0.80469,-0.80469 1,0 1,0 8,0 1,0 z m -1,-1 0,-14 -8,0 -1,0 0,5 -1,0 -4,0 0,1 0,8 z m -3,-1 -8,0 0,-5 8,0 z m 0,-6 -8,0 0,-1 1,0 2,0 4,0 0,-3 -4,0 0,-1 5,0 z m -1,5 0,-3 -6,0 0,3 z m -6,-8 0,-2.5 0,-0.5 0,-0.5 -0.5,0.5 -0.5,0.5 -0.5,0.5 -0.5,0.5 -0.5,0.5 -0.5,0.5 0,0.5 1,0 1,0 z" opacity="1"/></g></svg>