<svg xmlns="http://www.w3.org/2000/svg" xmlns:svg="http://www.w3.org/2000/svg" id="svg3813" width="22" height="22" version="1.1" viewBox="0 0 22 22"><metadata id="metadata3818"/><g id="layer1" transform="translate(-378.85714,-540.07647)"><path id="rect4109" fill="#424854" fill-opacity="1" stroke="none" d="m 397.85714,547.37725 -2.29297,-2.29297 -0.20703,-0.20703 -0.20703,0.20703 -2.29297,2.29297 0.70703,0.70703 1.29297,-1.29297 0,3.28516 0,2 0,3.29297 -1.29297,-1.29297 -0.70703,0.70703 2.29297,2.29297 0.20703,0.20703 0.20703,-0.20703 2.29297,-2.29297 -0.70703,-0.70703 -1.29297,1.29297 0,-3.29297 0,-2 0,-3.28516 1.29297,1.29297 z m -5,-1.30078 -1,0 0,-2 0,-1 -7,0 0,1 0,2 -2,0 -1,0 0,1 1,0 2,0 0,3 7,0 0,-3 1,0 z m 0,9 -1,0 0,-2 0,-1 -9,0 0,1 0,2 -1,0 0,1 1,0 0,3 9,0 0,-3 1,0 z m -2,-11 0,5 -5,0 0,-5 z m 0,9 0,5 -7,0 0,-2 0,-1 0,-2 z" opacity="1"/></g></svg>