<svg xmlns="http://www.w3.org/2000/svg" xmlns:svg="http://www.w3.org/2000/svg" id="svg3813" width="22" height="22" version="1.1" viewBox="0 0 22 22"><metadata id="metadata3818"/><g id="layer1" transform="translate(-378.85714,-540.07647)"><path id="path4158" fill="#424854" fill-opacity="1" stroke="none" d="m 395.55636,543.07647 2.29297,2.29297 0.20703,0.20703 -0.20703,0.20703 -2.29297,2.29297 -0.70703,-0.70703 1.29297,-1.29297 -3.28516,0 -3.29297,0 1.29297,1.29297 -0.70703,0.70703 -2.29297,-2.29297 -0.20703,-0.20703 0.20703,-0.20703 2.29297,-2.29297 0.70703,0.70703 -1.29297,1.29297 3.29297,0 3.28516,0 -1.29297,-1.29297 0.70703,-0.70703 z m 2.30078,5 0,1 0,8 0,2 -1,0 0,-2 -6,0 0,-8 6,0 0,-1 1,0 z m -9,0 0,1 0,9 0,1 -1,0 0,-1 -6,0 0,-9 6,0 0,-1 1,0 z m 8,2 -5,0 0,6 5,0 0,-6 z m -9,0 -5,0 0,7 5,0 0,-7 z" opacity="1"/></g></svg>