<svg xmlns="http://www.w3.org/2000/svg" xmlns:svg="http://www.w3.org/2000/svg" id="svg4359" width="22" height="22" version="1.1"><metadata id="metadata4364"/><g id="layer1" transform="translate(0,-26)"><path id="rect4162" fill="#424854" fill-opacity="1" stroke="none" stroke-dasharray="none" stroke-miterlimit="4" stroke-opacity=".55" stroke-width="2.8" d="M 4 3 L 4 12 L 5 12 L 5 4 L 17 4 L 17 18 L 11 18 L 11 19 L 17 19 L 18 19 L 18 3 L 17 3 L 5 3 L 4 3 z" opacity="1" transform="translate(0,26)"/><path id="rect4161" fill="#424854" fill-opacity="1" stroke="none" stroke-dasharray="none" stroke-miterlimit="4" stroke-opacity="1" stroke-width=".1" d="M 8.5,38 C 9.885,38 11,39.115 11,40.5 11,41.885 9.885,43 8.5,43 7.9893759,43 7.5159718,42.846707 7.1210938,42.585938 L 4.707031,45 4,44.292969 6.4140625,41.878906 C 6.1532931,41.484028 6,41.010624 6,40.5 6,39.115 7.115,38 8.5,38 Z m 0,1 C 7.669,39 7,39.669 7,40.5 c 0,0.236126 0.057899,0.455962 0.1542969,0.654297 0.1481788,0.305383 0.3964029,0.549317 0.703125,0.695312 C 8.052998,41.942701 8.2682159,42 8.5,42 9.331,42 10,41.331 10,40.5 10,39.669 9.331,39 8.5,39 Z" opacity="1"/></g></svg>