<svg xmlns="http://www.w3.org/2000/svg" xmlns:svg="http://www.w3.org/2000/svg" id="svg4359" width="22" height="22" version="1.1"><metadata id="metadata4364"/><g id="layer1" transform="translate(0,-26)"><path id="rect4162" fill="#424854" fill-opacity="1" stroke="none" stroke-dasharray="none" stroke-miterlimit="4" stroke-opacity=".55" stroke-width="2.8" d="M 4 3 L 4 12 L 5 12 L 5 4 L 17 4 L 17 18 L 11 18 L 11 19 L 17 19 L 18 19 L 18 3 L 17 3 L 5 3 L 4 3 z M 9 11 L 9 12 L 9.5 12 L 10 12 L 10 11 L 9 11 z M 9.5 12 C 8.669 12 8 12.669 8 13.5 C 8 14.15424 8.4180774 14.702197 9 14.908203 L 9 19 L 10 19 L 10 14.908203 C 10.581923 14.702197 11 14.15424 11 13.5 C 11 12.669 10.331 12 9.5 12 z M 5 13 L 5 15.091797 C 4.4180774 15.297803 4 15.84576 4 16.5 C 4 17.15424 4.4180774 17.702197 5 17.908203 L 5 19 L 6 19 L 6 17.908203 C 6.5819226 17.702197 7 17.15424 7 16.5 C 7 15.84576 6.5819226 15.297803 6 15.091797 L 6 13 L 5 13 z M 9.5 13 C 9.777 13 10 13.223 10 13.5 C 10 13.777 9.777 14 9.5 14 C 9.223 14 9 13.777 9 13.5 C 9 13.223 9.223 13 9.5 13 z M 5.5 16 C 5.777 16 6 16.223 6 16.5 C 6 16.777 5.777 17 5.5 17 C 5.223 17 5 16.777 5 16.5 C 5 16.223 5.223 16 5.5 16 z" opacity="1" transform="translate(0,26)"/></g></svg>