<svg xmlns="http://www.w3.org/2000/svg" xmlns:svg="http://www.w3.org/2000/svg" id="svg4359" width="22" height="22" version="1.1"><metadata id="metadata4364"/><g id="layer1" transform="translate(0,-26)"><path id="rect4156" fill="#424854" fill-opacity="1" stroke="none" stroke-dasharray="none" stroke-miterlimit="4" stroke-opacity=".55" stroke-width="2.8" d="M 8 3 L 8 4 L 8 9 L 5.6992188 9 L 5.703125 9.0039062 L 5 9.7070312 L 10.292969 15 L 11 15.707031 L 11.707031 15 L 17 9.7070312 L 16.296875 9.0039062 L 16.300781 9 L 16.292969 9 L 14 9 L 14 4 L 14 3 L 8 3 z M 9 4 L 13 4 L 13 10 L 14 10 L 15.292969 10 L 11 14.292969 L 6.7070312 10 L 8 10 L 9 10 L 9 4 z M 4 17 L 4 19 L 5 19 L 18 19 L 18 18 L 18 17 L 17 17 L 17 18 L 5 18 L 5 17 L 4 17 z" opacity="1" transform="translate(0,26)"/></g></svg>