<svg xmlns="http://www.w3.org/2000/svg" xmlns:svg="http://www.w3.org/2000/svg" id="svg2" width="22" height="22" version="1.1" viewBox="0 0 22 22"><metadata id="metadata7"/><g id="layer1" transform="translate(0,-1030.3622)"><path id="rect4139" fill="#424854" fill-opacity="1" stroke="none" d="m 18,1033.3622 0,16 -1,0 -5,0 0,-1 5,0 0,-14 -12,0 0,7 -1,0 0,-8 1,0 12,0 z m -10,8 c -2.215995,0 -4,1.784 -4,4 0,2.216 1.784005,4 4,4 2.215995,0 4,-1.784 4,-4 0,-2.216 -1.784005,-4 -4,-4 z m 0,1 c 1.661995,0 3,1.338 3,3 0,1.662 -1.338005,3 -3,3 -1.661995,0 -3,-1.338 -3,-3 0,-1.662 1.338005,-3 3,-3 z m -1,1 0,2 0,1 1,0 1,0 0,-1 -1,0 0,-2 z"/></g></svg>