<svg xmlns="http://www.w3.org/2000/svg" xmlns:svg="http://www.w3.org/2000/svg" id="svg4359" width="22" height="22" version="1.1"><metadata id="metadata4364"/><g id="layer1" transform="translate(0,-26)"><path id="rect4162" fill="#424854" fill-opacity="1" stroke="none" stroke-dasharray="none" stroke-miterlimit="4" stroke-opacity=".55" stroke-width="2.8" d="M 8 3 L 8 5 L 5 5 L 4 5 L 4 11 L 5 11 L 5 6 L 8 6 L 8 7 L 14 7 L 14 6 L 17 6 L 17 10 L 17 12 L 17 14.005859 L 17 18 L 11 18 L 11 19 L 17 19 L 18 19 L 18 18 L 18 13 L 18 5 L 17 5 L 14 5 L 14 3 L 8 3 z M 9 4 L 13 4 L 13 5 L 13 6 L 9 6 L 9 5 L 9 4 z M 4 12 L 4 19 L 10 19 L 10 18 L 10 12 L 5 12 L 4 12 z M 5 13 L 9 13 L 9 18 L 5 18 L 5 13 z" opacity="1" transform="translate(0,26)"/></g></svg>