<svg xmlns="http://www.w3.org/2000/svg" xmlns:svg="http://www.w3.org/2000/svg" id="svg2" width="22" height="22" version="1.1" viewBox="0 0 22 22"><metadata id="metadata7"/><g id="layer1" transform="translate(0,-1030.3622)"><path id="path4151" fill="#424854" fill-opacity="1" stroke="none" stroke-linecap="butt" stroke-linejoin="miter" stroke-opacity="1" stroke-width="1" d="m 8.4226391,1048.2262 3.2042869,0 q 1.929002,0 2.818486,-0.8359 0.889484,-0.8359 0.889484,-2.6577 0,-1.8111 -0.889484,-2.6363 -0.878768,-0.8359 -2.818486,-0.8359 l -3.2042869,0 0,6.9658 z m 0,-8.1018 2.7220359,0 q 1.757535,0 2.561286,-0.6751 0.814468,-0.6752 0.814468,-2.1327 0,-1.4681 -0.814468,-2.1326 -0.803751,-0.6751 -2.561286,-0.6751 l -2.7220359,0 0,5.6155 z m -4.2116543,9.2378 0,-1.136 2.0361688,0 0,-13.7173 -2.0361688,0 0,-1.1467 7.8981912,0 q 2.421969,0 3.643671,0.9966 1.232418,0.986 1.232418,2.9578 0,1.4254 -0.857335,2.272 -0.846617,0.8466 -2.486269,1.0395 2.036169,0.2572 3.086403,1.3074 1.060951,1.0395 1.060951,2.7971 0,2.3791 -1.500334,3.5043 -1.500335,1.1253 -4.683189,1.1253 l -7.3945072,0 z" font-family="serif" font-size="medium" font-stretch="normal" font-style="normal" font-variant="normal" font-weight="normal" letter-spacing="0" word-spacing="0" style="line-height:125%;-inkscape-font-specification:serif"/></g></svg>