<svg xmlns="http://www.w3.org/2000/svg" xmlns:svg="http://www.w3.org/2000/svg" id="svg2" width="22" height="22" version="1.1" viewBox="0 0 22 22"><metadata id="metadata7"/><g id="layer1" transform="translate(0,-1030.3622)"><path font-family="serif" style="line-height:125%;-inkscape-font-specification:serif" id="path4153" fill="#424854" fill-opacity="1" stroke="none" stroke-linecap="butt" stroke-linejoin="miter" stroke-opacity="1" stroke-width="1" d="M 13.517578 3 L 13.517578 3.5058594 L 14.091797 3.5058594 L 15.96875 8.1132812 L 15.638672 8.9511719 C 15.521979 9.2413719 15.409966 9.4346969 15.302734 9.5292969 C 15.198656 9.6272969 15.05823 9.6757812 14.884766 9.6757812 C 14.695533 9.6757812 14.556306 9.6277031 14.464844 9.5332031 C 14.376534 9.4422031 14.323606 9.2886188 14.304688 9.0742188 L 13.859375 9.0742188 L 13.859375 10.035156 C 14.017069 10.082156 14.173584 10.119131 14.328125 10.144531 C 14.485819 10.169531 14.638877 10.181641 14.787109 10.181641 C 15.13719 10.181641 15.407223 10.109644 15.599609 9.9648438 C 15.791996 9.8229437 15.967306 9.5551625 16.125 9.1640625 L 18.429688 3.5058594 L 18.992188 3.5058594 L 18.992188 3 L 17.103516 3 L 17.103516 3.5058594 L 17.857422 3.5058594 L 16.441406 6.9648438 L 15.027344 3.5058594 L 15.832031 3.5058594 L 15.832031 3 L 13.517578 3 z M 3.0507812 8.1328125 L 3.0507812 8.9121094 L 4.2167969 8.9121094 L 7.3886719 13.664062 L 4.2597656 18.228516 L 3.0078125 18.228516 L 3.0078125 19 L 6.6035156 19 L 6.6035156 18.228516 L 5.1992188 18.228516 L 7.8554688 14.347656 L 10.447266 18.228516 L 9.1503906 18.228516 L 9.1503906 19 L 13.458984 19 L 13.458984 18.228516 L 12.294922 18.228516 L 8.8671875 13.095703 L 11.742188 8.9121094 L 12.964844 8.9121094 L 12.964844 8.1328125 L 9.40625 8.1328125 L 9.40625 8.9121094 L 10.802734 8.9121094 L 8.4082031 12.412109 L 6.0800781 8.9121094 L 7.3613281 8.9121094 L 7.3613281 8.1328125 L 3.0507812 8.1328125 z" font-size="medium" font-stretch="normal" font-style="normal" font-variant="normal" font-weight="normal" letter-spacing="0" transform="translate(0,1030.3622)" word-spacing="0"/></g></svg>