<svg xmlns="http://www.w3.org/2000/svg" xmlns:svg="http://www.w3.org/2000/svg" id="svg2" width="22" height="22" version="1.1" viewBox="0 0 22 22"><metadata id="metadata7"/><g id="layer1" transform="translate(0,-1030.3622)"><path font-family="serif" style="line-height:125%;-inkscape-font-specification:serif" id="path4151" fill="#424854" fill-opacity="1" stroke="none" stroke-linecap="butt" stroke-linejoin="miter" stroke-opacity="1" stroke-width="1" d="M 10.726562 3 C 9.0463393 3 7.7401789 3.3609844 6.8105469 4.0839844 C 5.8809149 4.807051 5.4179688 5.8224594 5.4179688 7.1308594 C 5.4179687 8.2945927 5.7173101 9.210973 6.3164062 9.8789062 C 6.3545706 9.9209766 6.409566 9.958804 6.4511719 10 L 11.820312 10 L 10.789062 9.6933594 C 9.4049439 9.280226 8.4992078 8.863426 8.0722656 8.4433594 C 7.6453236 8.0232927 7.4316406 7.4438312 7.4316406 6.7070312 C 7.4316406 5.8600313 7.7126783 5.216124 8.2773438 4.7753906 C 8.8488952 4.3277906 9.6795645 4.1054688 10.767578 4.1054688 C 12.013973 4.1054688 12.940892 4.3489573 13.546875 4.8378906 C 14.159744 5.3198906 14.52356 6.1053594 14.640625 7.1933594 L 15.808594 7.1933594 L 15.808594 3.9082031 C 14.844531 3.6121365 13.935915 3.3878615 13.082031 3.2363281 C 12.228147 3.0779948 11.442725 3 10.726562 3 z M 3 11 L 3 12 L 19 12 L 19 11 L 3 11 z M 13.501953 13 C 13.674984 13.108886 13.821077 13.217658 13.927734 13.328125 C 14.320246 13.727525 14.517578 14.299235 14.517578 15.042969 C 14.517578 15.972569 14.194174 16.682942 13.546875 17.171875 C 12.906462 17.653875 11.97183 17.894531 10.746094 17.894531 C 9.430836 17.894531 8.4500337 17.616327 7.8027344 17.058594 C 7.162321 16.493927 6.8254463 15.625745 6.7910156 14.455078 L 5.6035156 14.445312 L 5.6035156 17.957031 C 6.5124892 18.308231 7.402801 18.570054 8.2773438 18.742188 C 9.1587726 18.914387 10.024095 19 10.871094 19 C 12.764788 19 14.189308 18.620748 15.146484 17.863281 C 16.103661 17.105748 16.582031 15.980595 16.582031 14.486328 C 16.582031 13.933529 16.504269 13.438692 16.351562 13 L 13.501953 13 z" font-size="medium" font-stretch="normal" font-style="normal" font-variant="normal" font-weight="normal" letter-spacing="0" transform="translate(0,1030.3622)" word-spacing="0"/></g></svg>