<svg xmlns="http://www.w3.org/2000/svg" xmlns:svg="http://www.w3.org/2000/svg" id="svg3760" width="22" height="22" version="1.1"><metadata id="metadata3765"/><g id="layer1" transform="translate(-553.72253,-583.11926)"><path id="rect4112" fill="#424854" fill-opacity="1" stroke="none" d="M 3 3 L 3 10 L 3 11 L 12 11 L 13 11 L 13 6 L 12 6 L 12 10 L 4 10 L 4 4 L 8 4 L 8 3 L 3 3 z M 9 3 L 9 8 L 10 8 L 10 4 L 18 4 L 18 10 L 14 10 L 14 11 L 18 11 L 19 11 L 19 10 L 19 4 L 19 3 L 18 3 L 10 3 L 9 3 z M 6 12 L 6 15 L 3 15 L 3 16 L 6 16 L 6 19 L 7 19 L 7 16 L 10 16 L 10 15 L 7 15 L 7 12 L 6 12 z" opacity="1" transform="translate(553.72253,583.11926)"/></g></svg>