<svg xmlns="http://www.w3.org/2000/svg" xmlns:svg="http://www.w3.org/2000/svg" id="svg3760" width="22" height="22" version="1.1"><metadata id="metadata3765"/><g id="layer1" transform="translate(-553.72253,-583.11926)"><path id="rect4112" fill="#424854" fill-opacity="1" stroke="none" d="M 7.5664062 3 L 7.5664062 6.3007812 L 8.71875 6.3007812 L 8.71875 4.1152344 L 12.835938 4.1152344 L 12.835938 16.005859 L 11.044922 16.005859 L 11.044922 17 L 16.521484 17 L 16.521484 16.005859 L 14.730469 16.005859 L 14.730469 4.1152344 L 18.845703 4.1152344 L 18.845703 6.3007812 L 20 6.3007812 L 20 3 L 7.5664062 3 z M 5 12 L 5 15 L 2 15 L 2 16 L 5 16 L 5 19 L 6 19 L 6 16 L 9 16 L 9 15 L 6 15 L 6 12 L 5 12 z" opacity="1" transform="translate(553.72253,583.11926)"/></g></svg>