<svg xmlns="http://www.w3.org/2000/svg" xmlns:svg="http://www.w3.org/2000/svg" id="svg3760" width="22" height="22" version="1.1"><metadata id="metadata3765"/><g id="layer1" transform="translate(-553.72253,-583.11926)"><path color="#000" style="text-decoration-line:none;text-decoration-style:solid;text-decoration-color:#000;isolation:auto;mix-blend-mode:normal;solid-color:#000;solid-opacity:1" id="rect4149" fill="#f92d36" fill-opacity="1" fill-rule="nonzero" stroke="none" stroke-dasharray="none" stroke-dashoffset="0" stroke-linecap="butt" stroke-linejoin="miter" stroke-miterlimit="4" stroke-opacity="1" stroke-width="1" d="M 3 3 L 3 4 L 3 18 L 3 19 L 19 19 L 19 18 L 19 3 L 3 3 z M 4 4 L 5 4 L 5 5 L 4 5 L 4 4 z M 6 4 L 16 4 L 16 7 L 6 7 L 6 4 z M 17 4 L 18 4 L 18 5 L 17 5 L 17 4 z M 4 6 L 5 6 L 5 7 L 4 7 L 4 6 z M 17 6 L 18 6 L 18 7 L 17 7 L 17 6 z M 4 8 L 5 8 L 5 9 L 4 9 L 4 8 z M 6 8 L 16 8 L 16 14 L 6 14 L 6 8 z M 17 8 L 18 8 L 18 9 L 17 9 L 17 8 z M 4 10 L 5 10 L 5 12 L 4 12 L 4 10 z M 17 10 L 18 10 L 18 12 L 17 12 L 17 10 z M 4 13 L 5 13 L 5 14 L 4 14 L 4 13 z M 17 13 L 18 13 L 18 14 L 17 14 L 17 13 z M 4 15 L 5 15 L 5 16 L 4 16 L 4 15 z M 6 15 L 16 15 L 16 18 L 6 18 L 6 15 z M 17 15 L 18 15 L 18 16 L 17 16 L 17 15 z M 4 17 L 5 17 L 5 18 L 4 18 L 4 17 z M 17 17 L 18 17 L 18 18 L 17 18 L 17 17 z" clip-rule="nonzero" color-interpolation="sRGB" color-interpolation-filters="linearRGB" color-rendering="auto" display="inline" enable-background="accumulate" image-rendering="auto" opacity="1" overflow="visible" shape-rendering="auto" text-decoration="none" text-rendering="auto" transform="translate(553.72253,583.11926)" visibility="visible"/></g></svg>