<svg xmlns="http://www.w3.org/2000/svg" xmlns:svg="http://www.w3.org/2000/svg" id="svg3760" width="22" height="22" version="1.1"><metadata id="metadata3765"/><g id="layer1" transform="translate(-553.72253,-583.11926)"><path color="#000" style="text-decoration-line:none;text-decoration-style:solid;text-decoration-color:#000;isolation:auto;mix-blend-mode:normal;solid-color:#000;solid-opacity:1" id="rect4149" fill="#424854" fill-opacity="1" fill-rule="nonzero" stroke="none" stroke-dasharray="none" stroke-dashoffset="0" stroke-linecap="butt" stroke-linejoin="miter" stroke-miterlimit="4" stroke-opacity="1" stroke-width="1" d="M 11 3 L 10.292969 3.7070312 L 7.5 6.5 L 8.2070312 7.2070312 L 10.5 4.9140625 L 10.5 5 L 10.5 6 L 10.5 7 L 10.5 15 L 10.5 16 L 10.5 17 L 10.5 17.085938 L 8.2070312 14.792969 L 7.5 15.5 L 10.292969 18.292969 L 11 19 L 11.707031 18.292969 L 14.5 15.5 L 13.792969 14.792969 L 11.5 17.085938 L 11.5 17 L 11.5 6 L 11.5 5 L 11.5 4.9140625 L 13.792969 7.2070312 L 14.5 6.5 L 11.707031 3.7070312 L 11 3 z" clip-rule="nonzero" color-interpolation="sRGB" color-interpolation-filters="linearRGB" color-rendering="auto" display="inline" enable-background="accumulate" image-rendering="auto" opacity="1" overflow="visible" shape-rendering="auto" text-decoration="none" text-rendering="auto" transform="translate(553.72253,583.11926)" visibility="visible"/></g></svg>