<svg xmlns="http://www.w3.org/2000/svg" xmlns:svg="http://www.w3.org/2000/svg" id="svg3760" width="22" height="22" version="1.1"><metadata id="metadata3765"/><g id="layer1" transform="translate(-553.72253,-583.11926)"><path color="#000" style="text-decoration-line:none;text-decoration-style:solid;text-decoration-color:#000;isolation:auto;mix-blend-mode:normal;solid-color:#000;solid-opacity:1" id="rect4149" fill="#424854" fill-opacity="1" fill-rule="nonzero" stroke="none" stroke-dasharray="none" stroke-dashoffset="0" stroke-linecap="butt" stroke-linejoin="miter" stroke-miterlimit="4" stroke-opacity="1" stroke-width="1" d="M 2 3 L 2 19 L 20 19 L 20 3 L 2 3 z M 3 4 L 19 4 L 19 18 L 3 18 L 3 4 z M 6.9160156 9 L 4 17 L 5.0898438 17 L 5.7851562 14.947266 L 9.2304688 14.947266 L 9.9257812 17 L 11 17 L 8.0878906 9 L 6.9160156 9 z M 7.5 10.066406 L 8.90625 14.046875 L 6.0976562 14.046875 L 7.5 10.066406 z M 14 15 C 13.446 15 13 15.446 13 16 C 13 16.554 13.446 17 14 17 C 14.554 17 15 16.554 15 16 C 15 15.446 14.554 15 14 15 z M 17 15 C 16.446 15 16 15.446 16 16 C 16 16.554 16.446 17 17 17 C 17.554 17 18 16.554 18 16 C 18 15.446 17.554 15 17 15 z" clip-rule="nonzero" color-interpolation="sRGB" color-interpolation-filters="linearRGB" color-rendering="auto" display="inline" enable-background="accumulate" image-rendering="auto" opacity="1" overflow="visible" shape-rendering="auto" text-decoration="none" text-rendering="auto" transform="translate(553.72253,583.11926)" visibility="visible"/></g></svg>