<svg xmlns="http://www.w3.org/2000/svg" xmlns:svg="http://www.w3.org/2000/svg" id="svg4359" width="22" height="22" version="1.1"><metadata id="metadata4364"/><g id="layer1" transform="translate(0,-26)"><path id="rect4120" fill="#f92d36" fill-opacity="1" stroke="none" d="M 11.59375 3 L 6.59375 8 L 4 8 L 3 8 L 3 9 L 3 13 L 3 14 L 4 14 L 6.59375 14 L 11.59375 19 L 11.599609 18.994141 L 11.599609 19 L 14 19 L 14 18 L 14 3 L 11.599609 3 L 11.599609 3.0058594 L 11.59375 3 z M 12.007812 4 L 13 4 L 13 18 L 12.007812 18 L 7.0078125 13 L 7 13.007812 L 7 13 L 7 8.9921875 L 7.0078125 9 L 12.007812 4 z M 4 9 L 5 9 L 5 13 L 4 13 L 4 9 z" opacity="1" transform="translate(0,26)"/><path id="rect4180" fill="#f92d36" fill-opacity="1" stroke="none" d="M 15.246094 6.7539062 L 14.539062 7.4609375 C 15.442813 8.3646875 16 9.615 16 11 C 16 12.385 15.442812 13.635312 14.539062 14.539062 L 15.246094 15.246094 C 16.330594 14.161594 17 12.662 17 11 C 17 9.338 16.330594 7.8384062 15.246094 6.7539062 z" opacity="1" transform="translate(0,26)"/><path id="rect4192" fill="#f92d36" fill-opacity="1" stroke="none" d="M 16.662109 5.3378906 L 15.955078 6.0449219 C 17.220328 7.3101719 18 9.061 18 11 C 18 12.939 17.220328 14.689828 15.955078 15.955078 L 16.662109 16.662109 C 18.108109 15.216109 19 13.216 19 11 C 19 8.784 18.108109 6.7838906 16.662109 5.3378906 z" opacity="1" transform="translate(0,26)"/></g></svg>