<svg xmlns="http://www.w3.org/2000/svg" xmlns:svg="http://www.w3.org/2000/svg" id="svg4359" width="22" height="22" version="1.1"><metadata id="metadata4364"/><g id="layer1" transform="translate(0,-26)"><path id="rect4120" fill="#424854" fill-opacity="1" stroke="none" d="M 11.59375 3 L 6.59375 8 L 4 8 L 3 8 L 3 9 L 3 13 L 3 14 L 4 14 L 6.5859375 14 L 7.296875 13.289062 L 7.0078125 13 L 7 13.007812 L 7 13 L 7 8.9921875 L 7.0078125 9 L 12.007812 4 L 13 4 L 13 7.5859375 L 14 6.5859375 L 14 3 L 11.599609 3 L 11.599609 3.0058594 L 11.59375 3 z M 18.292969 3 L 3 18.292969 L 3.7070312 19 L 19 3.7070312 L 18.292969 3 z M 17.318359 6.0957031 L 16.605469 6.8085938 C 17.478126 7.9764385 18 9.4235776 18 11 C 18 12.939 17.220328 14.689828 15.955078 15.955078 L 16.662109 16.662109 C 18.108109 15.216109 19 13.216 19 11 C 19 9.1461445 18.368993 7.4493483 17.318359 6.0957031 z M 15.890625 7.5234375 L 15.171875 8.2421875 C 15.693873 9.0323034 16 9.978168 16 11 C 16 12.385 15.442815 13.635315 14.539062 14.539062 L 15.246094 15.246094 C 16.330594 14.161594 17 12.662 17 11 C 17 9.7006822 16.587367 8.5035006 15.890625 7.5234375 z M 4 9 L 5 9 L 5 13 L 4 13 L 4 9 z M 14 9.4140625 L 13 10.414062 L 13 18 L 12.007812 18 L 8.7109375 14.703125 L 8.0039062 15.410156 L 11.59375 19 L 11.599609 18.994141 L 11.599609 19 L 14 19 L 14 18 L 14 9.4140625 z" opacity="1" transform="translate(0,26)"/></g></svg>