<svg xmlns="http://www.w3.org/2000/svg" xmlns:svg="http://www.w3.org/2000/svg" id="svg3869" width="22" height="22" version="1.1"><metadata id="metadata3874"/><g id="layer1" transform="translate(-326,-534.3622)"><path id="rect4170" fill="#424854" fill-opacity="1" stroke="none" stroke-dasharray="none" stroke-miterlimit="4" stroke-opacity=".55" stroke-width="2.8" d="M 8 3 L 8 4 L 8 8 L 7.109375 8 L 5.9550781 8 L 2 14.849609 L 2 16.310547 L 2 19 L 6 19 L 15 19 L 16 19 L 20 19 L 20 16.310547 L 20 15 L 20 14.849609 L 16.044922 8 L 16 8 L 14 8 L 14 4 L 14 3 L 8 3 z M 9 4 L 13 4 L 13 11.298828 L 14 11.298828 L 15.292969 11.298828 L 11 15.591797 L 6.7070312 11.298828 L 8 11.298828 L 9 11.298828 L 9 4 z M 6.53125 9 L 8 9 L 8 10.298828 L 5.78125 10.298828 L 6.53125 9 z M 14 9 L 15.46875 9 L 16.21875 10.298828 L 14 10.298828 L 14 9 z M 5.2363281 11.242188 L 10.292969 16.298828 L 10.994141 17 L 7 17 L 6 15 L 3.0664062 15 L 5.2363281 11.242188 z M 16.763672 11.242188 L 18.933594 15 L 16 15 L 15 17 L 11.005859 17 L 11.707031 16.298828 L 16.763672 11.242188 z M 3 16 L 5.4003906 16 L 6.4003906 18 L 3 18 L 3 16 z M 16.599609 16 L 19 16 L 19 18 L 15.599609 18 L 16.599609 16 z" opacity="1" transform="translate(326,534.3622)"/></g></svg>