<svg xmlns="http://www.w3.org/2000/svg" xmlns:svg="http://www.w3.org/2000/svg" id="svg3869" width="22" height="22" version="1.1"><metadata id="metadata3874"/><g id="layer1" transform="translate(-326,-534.3622)"><path id="path4186" fill="#424854" fill-opacity="1" fill-rule="evenodd" stroke="none" stroke-linecap="butt" stroke-linejoin="miter" stroke-opacity="1" stroke-width="1" d="M 1 3 L 1 12 L 2 12 L 2 8 L 20 8 L 20 12 L 20 16 L 20 17.414062 L 20 18 L 8 18 L 8 19 L 14 19 L 20 19 L 21 19 L 21 18.414062 L 21 18 L 21 12 L 21 4 L 21 3 L 20 3 L 19.537109 3 L 2.4628906 3 L 2 3 L 1.0488281 3 L 1 3 z M 2 4 L 2.0488281 4 L 3.4628906 4 L 18.537109 4 L 19.951172 4 L 20 4 L 20 4.2226562 L 20 7 L 2 7 L 2 4.2226562 L 2 4 z M 4 13 L 1 16 L 4 19 L 4 17 L 5 17 L 6 17 L 6 15 L 5 15 L 4 15 L 4 13 z" transform="translate(326,534.3622)"/></g></svg>