<svg xmlns="http://www.w3.org/2000/svg" xmlns:svg="http://www.w3.org/2000/svg" id="svg3869" width="22" height="22" version="1.1"><metadata id="metadata3874"/><g id="layer1" transform="translate(-326,-534.3622)"><path id="rect4144" fill="#424854" fill-opacity="1" stroke="none" stroke-dasharray="none" stroke-miterlimit="4" stroke-opacity=".55" stroke-width="2.8" d="M 2 3 L 2 10 L 3 10 L 3 4.2226562 L 3 4 L 3.0488281 4 L 3.2714844 4.2226562 L 9.0234375 9.9765625 L 7 12 L 8.4140625 12 L 9.7304688 10.683594 L 11.183594 12.134766 L 12 12.949219 L 12.001953 12.949219 L 12.816406 12.134766 L 14.269531 10.683594 L 20.537109 16.951172 L 21 17.414062 L 21 18 L 15 18 L 11 18 L 11 19 L 15 19 L 21 19 L 22 19 L 22 18.414062 L 22 18 L 22 12 L 22 4 L 22 3 L 21 3 L 20.537109 3 L 3.4628906 3 L 3 3 L 2.0488281 3 L 2 3 z M 4.4628906 4 L 19.537109 4 L 12 11.537109 L 4.4628906 4 z M 20.951172 4 L 21 4 L 21 4.2226562 L 21 12 L 21 16 L 14.976562 9.9765625 L 20.728516 4.2226562 L 20.951172 4 z M 7.4453125 13 L 2.8535156 17.591797 L 1.7070312 16.445312 L 1 17.152344 L 2.8457031 19 L 2.8515625 18.992188 L 2.859375 19 L 8.1523438 13.707031 L 7.4453125 13 z" opacity="1" transform="translate(326,534.3622)"/></g></svg>