<svg xmlns="http://www.w3.org/2000/svg" xmlns:svg="http://www.w3.org/2000/svg" id="svg3869" width="22" height="22" version="1.1"><metadata id="metadata3874"/><g id="layer1" transform="translate(-326,-534.3622)"><path id="rect4156" fill="#424854" fill-opacity="1" stroke="none" stroke-dasharray="none" stroke-miterlimit="4" stroke-opacity=".55" stroke-width="2.8" d="m 329.5,546.3622 c 0.831,0 1.5,0.669 1.5,1.5 0,0.831 -0.669,1.5 -1.5,1.5 -0.831,0 -1.5,-0.669 -1.5,-1.5 0,-0.831 0.669,-1.5 1.5,-1.5 z m 0.5,4 c 1.108,0 2,0.892 2,2 l 0,1 -5,0 0,-1 c 0,-1.108 0.892,-2 2,-2 l 1,0 z" opacity="1"/><path id="rect4144-1" fill="#424854" fill-opacity="1" stroke="none" stroke-dasharray="none" stroke-miterlimit="4" stroke-opacity=".55" stroke-width="2.8" d="m 345,537.3622 0,1 0,1 0,1 2,3 0,1 0,1.40039 0,0.59961 0,6 0,0.41406 0,0.58594 -1,0 -6,0 -6,0 0,-1 12,0 0,-0.58594 0,-1.41406 0,-4 0,-1 0,-0.59961 0,-0.40039 -0.40039,0 -0.59961,0 -1.07812,0 -6.92188,3.99609 -6.92187,-3.99609 -0.0781,0 -1,0 -1,0 0,0.40039 0,0.59961 0,1 -1,0 0,-0.59961 0,-1.41406 0,-0.98633 2,-3 0,-3 15,0 1,0 z m -1,1 -14,0 0,1 0,3.79883 7,4.04101 7,-4.04101 0,-3.79883 z m -13,1 0,0.98633 -0.0137,0.0137 0.0137,0 12,0 0.0137,0 -0.0137,-0.0137 0,-0.98633 z m 0,2 0,1 7,0 0,-1 z" opacity="1"/></g></svg>