<svg xmlns="http://www.w3.org/2000/svg" xmlns:svg="http://www.w3.org/2000/svg" id="svg3869" width="22" height="22" version="1.1"><metadata id="metadata3874"/><g id="layer1" transform="translate(-326,-534.3622)"><path id="rect4162" fill="#424854" fill-opacity="1" stroke="none" stroke-dasharray="none" stroke-miterlimit="4" stroke-opacity=".55" stroke-width="2.8" d="M 3 3 L 3 7 L 7 7 L 7 3 L 3 3 z M 4 4 L 6 4 L 6 6 L 4 6 L 4 4 z M 8 4 L 8 5 L 20 5 L 20 4 L 8 4 z M 3 9 L 3 13 L 7 13 L 7 9 L 3 9 z M 4 10 L 6 10 L 6 12 L 4 12 L 4 10 z M 8 10 L 8 11 L 20 11 L 20 10 L 8 10 z M 19.292969 12.613281 L 14.701172 17.205078 L 13.554688 16.058594 L 12.847656 16.765625 L 14.693359 18.613281 L 14.699219 18.605469 L 14.707031 18.613281 L 20 13.320312 L 19.292969 12.613281 z M 3 15 L 3 19 L 7 19 L 7 15 L 3 15 z M 4 16 L 6 16 L 6 18 L 4 18 L 4 16 z" opacity="1" transform="translate(326,534.3622)"/></g></svg>