<svg xmlns="http://www.w3.org/2000/svg" xmlns:svg="http://www.w3.org/2000/svg" id="svg3869" width="22" height="22" version="1.1"><metadata id="metadata3874"/><g id="layer1" transform="translate(-326,-534.3622)"><path id="rect4144" fill="#424854" fill-opacity="1" stroke="none" stroke-dasharray="none" stroke-miterlimit="4" stroke-opacity=".55" stroke-width="2.8" d="M 1 3 L 1 10 L 2 10 L 2 4.2226562 L 2 4 L 2.0488281 4 L 2.2714844 4.2226562 L 8.0234375 9.9765625 L 6 12 L 7.4140625 12 L 8.7304688 10.683594 L 10.183594 12.134766 L 11 12.949219 L 11.001953 12.949219 L 11.816406 12.134766 L 13.269531 10.683594 L 19.537109 16.951172 L 20 17.414062 L 20 18 L 14 18 L 10 18 L 10 19 L 14 19 L 20 19 L 21 19 L 21 18.414062 L 21 18 L 21 12 L 21 4 L 21 3 L 20 3 L 19.537109 3 L 2.4628906 3 L 2 3 L 1.0488281 3 L 1 3 z M 3.4628906 4 L 18.537109 4 L 11 11.537109 L 3.4628906 4 z M 19.951172 4 L 20 4 L 20 4.2226562 L 20 12 L 20 16 L 13.976562 9.9765625 L 19.728516 4.2226562 L 19.951172 4 z M 3.5 12 C 2.669 12 2 12.669 2 13.5 L 2 15 L 1 15 L 1 19 L 2 19 L 6 19 L 6 18 L 6 15 L 5 15 L 4 15 L 3 15 L 3 14 L 3 13.5 C 3 13.223 3.223 13 3.5 13 L 4 13 L 4.9082031 13 C 4.7021974 12.418077 4.1542402 12 3.5 12 z M 2 16 L 5 16 L 5 18 L 2 18 L 2 16 z" opacity="1" transform="translate(326,534.3622)"/></g></svg>