<svg xmlns="http://www.w3.org/2000/svg" xmlns:svg="http://www.w3.org/2000/svg" id="svg4062" width="22" height="22" version="1.1"><defs id="defs4064"><linearGradient id="linearGradient3257"><stop id="stop3259" offset="0" stop-color="#a50000" stop-opacity="1"/><stop id="stop3261" offset="1" stop-color="#e73800" stop-opacity="1"/></linearGradient></defs><metadata id="metadata4067"/><g id="layer1" transform="translate(0,-1030.3622)"><path color="#000" style="text-decoration-line:none;text-decoration-style:solid;text-decoration-color:#000;isolation:auto;mix-blend-mode:normal;solid-color:#000;solid-opacity:1" id="rect4160" fill="#424854" fill-opacity="1" fill-rule="nonzero" stroke="none" stroke-dasharray="none" stroke-dashoffset="0" stroke-linecap="butt" stroke-linejoin="miter" stroke-miterlimit="4" stroke-opacity="1" stroke-width="1" d="M 11 3 C 6.5680095 3 3 6.5680095 3 11 C 3 15.43199 6.5680095 19 11 19 C 15.43199 19 19 15.43199 19 11 C 19 6.5680095 15.43199 3 11 3 z M 11 4 C 14.877992 4 18 7.1220087 18 11 C 18 14.877991 14.877992 18 11 18 C 7.1220085 18 4 14.877991 4 11 C 4 7.1220087 7.1220085 4 11 4 z M 11 9 C 9.892 9 9 9.892 9 11 C 9 12.108 9.892 13 11 13 C 12.108 13 13 12.108 13 11 C 13 9.892 12.108 9 11 9 z M 11 10 C 11.554005 10 12 10.445995 12 11 C 12 11.554005 11.554005 12 11 12 C 10.445995 12 10 11.554005 10 11 C 10 10.445995 10.445995 10 11 10 z" clip-rule="nonzero" color-interpolation="sRGB" color-interpolation-filters="linearRGB" color-rendering="auto" display="inline" enable-background="accumulate" image-rendering="auto" opacity="1" overflow="visible" shape-rendering="auto" text-decoration="none" text-rendering="auto" transform="translate(0,1030.3622)" visibility="visible"/></g></svg>