<svg xmlns="http://www.w3.org/2000/svg" xmlns:svg="http://www.w3.org/2000/svg" id="svg2" width="22" height="22" version="1.1" viewBox="0 0 22 22"><metadata id="metadata7"/><g id="layer1" transform="translate(0,-1030.3622)"><path id="rect4162" fill="#424854" fill-opacity="1" stroke="none" stroke-dasharray="none" stroke-miterlimit="4" stroke-opacity=".55" stroke-width="2.8" d="M 18.5 3 L 17.792969 3.7070312 L 20.085938 6 L 16 6 L 16 6.0214844 C 14.843209 6.0214844 13.794181 6.4272215 12.949219 7.0820312 L 13.46875 7.9453125 C 14.158869 7.3767771 15.031729 7.0214844 16 7.0214844 L 16 7 L 20.085938 7 L 17.792969 9.2929688 L 18.5 10 L 21.292969 7.2070312 L 22 6.5 L 21.292969 5.7929688 L 18.5 3 z M 0 6 L 0 7 L 7 7 L 7 7.0214844 C 9.208646 7.0214844 10.98626 8.7942266 10.998047 11 L 11 11 C 11 13.77 13.23 16 16 16 L 20.085938 16 L 17.792969 18.292969 L 18.5 19 L 21.292969 16.207031 L 22 15.5 L 21.292969 14.792969 L 18.5 12 L 17.792969 12.707031 L 20.085938 15 L 16 15 C 13.784 15 12 13.216 12 11 L 11.998047 11 C 11.986362 8.2401274 9.7627165 6.0214844 7 6.0214844 L 7 6 L 0 6 z M 8.5996094 14.666016 C 8.1098056 14.879049 7.5699656 15 7 15 L 0 15 L 0 16 L 7 16 C 7.7586197 16 8.4684288 15.819337 9.1113281 15.519531 L 8.5996094 14.666016 z" opacity="1" transform="translate(0,1030.3622)"/></g></svg>