<svg xmlns="http://www.w3.org/2000/svg" xmlns:svg="http://www.w3.org/2000/svg" id="svg4359" width="22" height="22" version="1.1"><metadata id="metadata4364"/><g id="layer1" transform="translate(0,-26)"><path id="rect4179" fill="#424854" fill-opacity="1" stroke="none" stroke-dasharray="none" stroke-miterlimit="4" stroke-opacity="1" stroke-width=".1" d="M 2 3 L 2 4 L 2 12 L 2 13 L 3 13 L 9 13 L 9 12 L 9 3 L 3 3 L 2 3 z M 3 4 L 8 4 L 8 12 L 3 12 L 3 4 z M 11 5 L 11 6 C 13.77 6 16 8.23 16 11 L 17 11 C 17 7.676 14.324 5 11 5 z M 10 12 L 10 13 L 10 19 L 11 19 L 20 19 L 20 13 L 20 12 L 19 12 L 11 12 L 10 12 z M 11 13 L 19 13 L 19 18 L 11 18 L 11 13 z" opacity="1" transform="translate(0,26)"/></g></svg>