<svg xmlns="http://www.w3.org/2000/svg" xmlns:svg="http://www.w3.org/2000/svg" id="svg4359" width="22" height="22" version="1.1"><metadata id="metadata4364"/><g id="layer1" transform="translate(0,-26)"><path id="rect4179" fill="#424854" fill-opacity="1" stroke="none" stroke-dasharray="none" stroke-miterlimit="4" stroke-opacity="1" stroke-width=".1" d="m 20,29 0,1 0,8 0,1 -1,0 -6,0 0,-1 0,-9 6,0 1,0 z m -1,1 -5,0 0,8 5,0 0,-8 z m -8,1 0,1 c -2.77,0 -5,2.23 -5,5 l -1,0 c 0,-3.324 2.676,-6 6,-6 z m 1,7 0,1 0,6 -1,0 -9,0 0,-6 0,-1 1,0 8,0 1,0 z m -1,1 -8,0 0,5 8,0 0,-5 z" opacity="1"/></g></svg>