<svg xmlns="http://www.w3.org/2000/svg" xmlns:svg="http://www.w3.org/2000/svg" id="svg4359" width="22" height="22" version="1.1"><metadata id="metadata4364"/><g id="layer1" transform="translate(0,-26)"><path id="rect8602" fill="#ececec" fill-opacity="1" stroke="none" d="M 14 3 C 12.338 3 11 4.338 11 6 C 11 7.662 12.338 9 14 9 C 15.662 9 17 7.662 17 6 C 17 4.338 15.662 3 14 3 z M 14 4 C 15.108 4 16 4.892 16 6 C 16 7.108 15.108 8 14 8 C 12.892 8 12 7.108 12 6 C 12 4.892 12.892 4 14 4 z M 8 6 C 6.338 6 5 7.338 5 9 C 5 10.662 6.338 12 8 12 C 9.662 12 11 10.662 11 9 C 11 7.338 9.662 6 8 6 z M 8 7 C 9.108 7 10 7.892 10 9 C 10 10.108 9.108 11 8 11 C 6.892 11 6 10.108 6 9 C 6 7.892 6.892 7 8 7 z M 14 10 C 13.296656 10 12.626106 10.127245 12 10.347656 L 12 11.419922 C 12.612745 11.153118 13.28682 11 14 11 C 16.77 11 19 13.23 19 16 L 20 16 C 20 12.676 17.324 10 14 10 z M 8 13 C 4.676 13 2 15.676 2 19 L 3 19 C 3 16.23 5.23 14 8 14 C 10.77 14 13 16.23 13 19 L 14 19 C 14 15.676 11.324 13 8 13 z" opacity="1" transform="translate(0,26)"/></g></svg>