<svg xmlns="http://www.w3.org/2000/svg" xmlns:svg="http://www.w3.org/2000/svg" id="svg3815" width="22" height="22" version="1.1"><metadata id="metadata3820"/><g id="layer1" transform="translate(-461.71429,-525.79075)"><path id="path4243" fill="#424854" fill-opacity="1" stroke="none" d="m 480.71429,536.79075 -0.70703,-0.70703 -4.29297,-4.29297 -3,0 -7,0 -1,0 0,10 1,0 7,0 3,0 4.29297,-4.29297 0.70703,-0.70703 z m -1.41406,0 -4,4 -2.58594,0 -7,0 0,-8 7,0 2.58594,0 4,4 z m -3.58594,0 c 0,-0.554 -0.446,-1 -1,-1 -0.554,0 -1,0.446 -1,1 0,0.554 0.446,1 1,1 0.554,0 1,-0.446 1,-1 z" opacity="1"/></g></svg>