<svg xmlns="http://www.w3.org/2000/svg" xmlns:svg="http://www.w3.org/2000/svg" id="svg2" width="22" height="22" version="1.1" viewBox="0 0 22 22"><metadata id="metadata10"/><path color="#000" style="text-decoration-line:none;text-decoration-style:solid;text-decoration-color:#000;isolation:auto;mix-blend-mode:normal;solid-color:#000;solid-opacity:1" id="rect4177" fill="#424854" fill-opacity="1" fill-rule="nonzero" stroke="none" stroke-dasharray="none" stroke-dashoffset="0" stroke-linecap="butt" stroke-linejoin="miter" stroke-miterlimit="4" stroke-opacity="1" stroke-width="1" d="m 15,3 0,0.00391 L 18,6 19,7 12,7 12,6 12,3 Z M 10,3 10,7 3,7 7,3.0039062 7,3 9,3 Z M 14.583984,4 13,4 13,6 16.585937,6 Z M 9,4 7.416016,4 5.414062,6 9,6 Z m 10,4 0,1 0,3 -1,0 0,-3 -14,0 0,9 7,0 0,1 -8,0 0,-1 0,-9 0,-1 z" clip-rule="nonzero" color-interpolation="sRGB" color-interpolation-filters="linearRGB" color-rendering="auto" display="inline" enable-background="accumulate" image-rendering="auto" opacity="1" overflow="visible" shape-rendering="auto" text-decoration="none" text-rendering="auto" visibility="visible"/><path id="rect4161" fill="#1abc9c" fill-opacity="1" stroke="none" stroke-dasharray="none" stroke-miterlimit="4" stroke-opacity="1" stroke-width=".1" d="M 15.5,11.792969 16.207031,12.5 19,15.292969 18.292969,16 16,13.707031 16,19 15,19 15,13.707031 12.707031,16 12,15.292969 l 3.5,-3.5 z" opacity="1"/></svg>