<svg xmlns="http://www.w3.org/2000/svg" xmlns:svg="http://www.w3.org/2000/svg" id="svg3760" width="22" height="22" version="1.1"><metadata id="metadata3765"/><g id="layer1" transform="translate(-553.72253,-583.11926)"><path id="rect4150" fill="#424854" fill-opacity="1" stroke="none" stroke-dasharray="none" stroke-miterlimit="4" stroke-opacity="1" stroke-width=".1" d="M 8 3 L 8 4 L 8 5 L 4 5 L 4 6 L 5 6 L 5 8 L 5 19 L 6 19 L 17 19 L 17 18 L 17 7 L 17 6 L 18 6 L 18 5 L 14 5 L 14 4 L 14 3 L 8 3 z M 9 4 L 13 4 L 13 5 L 9 5 L 9 4 z M 6 6 L 16 6 L 16 8 L 16 18 L 6 18 L 6 7 L 6 6 z M 8 9 L 8 16 L 9 16 L 9 9 L 8 9 z M 13 9 L 13 16 L 14 16 L 14 9 L 13 9 z" opacity="1" transform="translate(553.72253,583.11926)"/></g></svg>