<svg xmlns="http://www.w3.org/2000/svg" xmlns:svg="http://www.w3.org/2000/svg" id="svg4359" width="22" height="22" version="1.1"><metadata id="metadata4364"/><g id="layer1" transform="translate(0,-26)"><path id="path8645" fill="#f92d36" fill-opacity="1" stroke="none" d="M 14 3 C 12.338 3 11 4.338 11 6 C 11 7.662 12.338 9 14 9 C 15.662 9 17 7.662 17 6 C 17 4.338 15.662 3 14 3 z M 14 4 C 15.108 4 16 4.892 16 6 C 16 7.108 15.108 8 14 8 C 12.892 8 12 7.108 12 6 C 12 4.892 12.892 4 14 4 z" opacity="1" transform="translate(0,26)"/><path id="path8641" fill="#424854" fill-opacity="1" stroke="none" d="M 8 6 C 6.338 6 5 7.338 5 9 C 5 10.662 6.338 12 8 12 C 9.662 12 11 10.662 11 9 C 11 7.338 9.662 6 8 6 z M 8 7 C 9.108 7 10 7.892 10 9 C 10 10.108 9.108 11 8 11 C 6.892 11 6 10.108 6 9 C 6 7.892 6.892 7 8 7 z" opacity="1" transform="translate(0,26)"/><path id="path8637" fill="#f92d36" fill-opacity="1" stroke="none" d="m 14,36 c -0.703344,0 -1.373894,0.127245 -2,0.347656 l 0,1.072266 C 12.612745,37.153118 13.28682,37 14,37 c 2.77,0 5,2.23 5,5 l 1,0 c 0,-3.324 -2.676,-6 -6,-6 z" opacity="1"/><path id="rect8602" fill="#424854" fill-opacity="1" stroke="none" d="m 8,39 c -3.324,0 -6,2.676 -6,6 l 1,0 c 0,-2.77 2.23,-5 5,-5 2.77,0 5,2.23 5,5 l 1,0 c 0,-3.324 -2.676,-6 -6,-6 z" opacity="1"/></g></svg>