<svg xmlns="http://www.w3.org/2000/svg" xmlns:svg="http://www.w3.org/2000/svg" id="svg3049" width="22" height="22" version="1.1"><metadata id="metadata3054"/><g id="layer1" transform="translate(-421.71429,-525.79074)"><path id="rect4089" fill="#424854" fill-opacity="1" stroke="none" d="M 6,3 6,4 4,4 3,4 3,19 19,19 19,4 18,4 16,4 16,3 Z m 1,1 8,0 0,2 -8,0 z M 4,5 6,5 6,6 4,6 Z m 12,0 2,0 0,1 -2,0 z M 4,7 18,7 18,18 4,18 Z m 2,2.1 0,2 2,0 0,-2 z m 4,0 0,2 2,0 0,-2 z m 4,0 0,2 2,0 0,-2 z m -8,3 0,2 2,0 0,-2 z m 4,0 0,2 2,0 0,-2 z m 4,0 0,2 2,0 0,-2 z m 0,3 0,2 2,0 0,-2 z" transform="translate(421.71429,525.79074)"/></g></svg>