<svg xmlns="http://www.w3.org/2000/svg" xmlns:svg="http://www.w3.org/2000/svg" id="svg4355" width="22" height="22" version="1.1"><metadata id="metadata4360"/><g id="layer1" transform="translate(-544.57141,-742.93359)"><path id="path4114" fill="#424854" fill-opacity="1" stroke="none" d="M 9 3 L 11 5 L 13 3 L 9 3 z M 6 6 L 6 9 L 6 15 L 6 16 L 16 16 L 16 15 L 16 6 L 7 6 L 6 6 z M 7 7 L 15 7 L 15 8 L 7 8 L 7 7 z M 3 9 L 3 13 L 5 11 L 3 9 z M 7 9 L 15 9 L 15 15 L 7 15 L 7 9 z M 19 9 L 17 11 L 19 13 L 19 9 z M 11 17 L 9 19 L 13 19 L 11 17 z" opacity="1" transform="translate(544.57141,742.93359)"/></g></svg>