<svg xmlns="http://www.w3.org/2000/svg" xmlns:svg="http://www.w3.org/2000/svg" id="svg2" width="22" height="22" version="1.1" viewBox="0 0 22 22"><metadata id="metadata7"/><g id="layer1" transform="translate(0,-1030.3622)"><path id="rect3269" fill="#424854" fill-opacity="1" stroke="none" d="M 9 3 L 9 8 L 10.099609 8 L 10.099609 3 L 9 3 z M 12 4 L 12 8 L 13.099609 8 L 13.099609 4 L 12 4 z M 6 5 L 6 8 L 7.0996094 8 L 7.0996094 5 L 6 5 z M 15 5 L 15 8 L 16 8 L 16 5 L 15 5 z M 3 10 L 3 11 L 3 12 L 3 13 L 4 13 L 18 13 L 19 13 L 19 12 L 19 10 L 3 10 z M 4 11 L 18 11 L 18 12 L 4 12 L 4 11 z M 8.2070312 14.792969 L 7.5 15.5 L 10.292969 18.292969 L 11 19 L 11.707031 18.292969 L 14.5 15.5 L 13.792969 14.792969 L 11 17.585938 L 8.2070312 14.792969 z" transform="translate(0,1030.3622)"/></g></svg>