<svg xmlns="http://www.w3.org/2000/svg" xmlns:svg="http://www.w3.org/2000/svg" id="svg4359" width="22" height="22" version="1.1"><metadata id="metadata4364"/><g id="layer1" transform="translate(0,-26)"><path id="rect4125" fill="#424854" fill-opacity="1" stroke="none" d="M 3 3 L 3 10 L 10 10 L 10 3 L 3 3 z M 12 3 L 12 10 L 19 10 L 19 3 L 12 3 z M 4 4 L 9 4 L 9 9 L 4 9 L 4 4 z M 13 4 L 18 4 L 18 9 L 13 9 L 13 4 z M 3 12 L 3 19 L 10 19 L 10 12 L 3 12 z M 12 12 L 12 19 L 19 19 L 19 12 L 12 12 z M 4 13 L 9 13 L 9 18 L 4 18 L 4 13 z M 13 13 L 18 13 L 18 18 L 13 18 L 13 13 z" opacity="1" transform="translate(0,26)"/></g></svg>