<svg xmlns="http://www.w3.org/2000/svg" xmlns:svg="http://www.w3.org/2000/svg" id="svg4359" width="22" height="22" version="1.1"><metadata id="metadata4364"/><g id="layer1" transform="translate(0,-26)"><path id="rect4123" fill="#424854" fill-opacity="1" stroke="none" d="m 19,29 0,1 0,2 0,1 0,12 -1,0 -5,0 -1,0 -8,0 -1,0 0,-1 0,-11 0,-1 0,-2 0,-1 1,0 14,0 1,0 z m -1,1 -14,0 0,2 14,0 0,-2 z m 0,3 -5,0 0,11 5,0 0,-11 z m -6,0 -8,0 0,11 8,0 0,-11 z" opacity="1"/><rect id="rect4192" width="5" height="1" x="-10" y="38" fill="#f92d36" fill-opacity="1" stroke="none" stroke-dasharray="none" stroke-miterlimit="4" stroke-opacity=".55" stroke-width="2.8" opacity="1" transform="scale(-1,1)"/></g></svg>