<svg xmlns="http://www.w3.org/2000/svg" xmlns:svg="http://www.w3.org/2000/svg" id="svg4359" width="22" height="22" version="1.1"><metadata id="metadata4364"/><g id="layer1" transform="translate(0,-26)"><path id="rect4123" fill="#424854" fill-opacity="1" stroke="none" d="M 3 3 L 3 4 L 3 6 L 3 7 L 3 19 L 4 19 L 9 19 L 10 19 L 18 19 L 19 19 L 19 18 L 19 7 L 19 6 L 19 4 L 19 3 L 18 3 L 4 3 L 3 3 z M 4 4 L 18 4 L 18 6 L 4 6 L 4 4 z M 4 7 L 9 7 L 9 18 L 4 18 L 4 7 z M 10 7 L 18 7 L 18 18 L 10 18 L 10 7 z M 14 10 L 14 12 L 12 12 L 12 13 L 14 13 L 14 15 L 15 15 L 15 13 L 17 13 L 17 12 L 15 12 L 15 10 L 14 10 z" opacity="1" transform="translate(0,26)"/></g></svg>