<svg xmlns="http://www.w3.org/2000/svg" xmlns:svg="http://www.w3.org/2000/svg" id="svg4359" width="22" height="22" version="1.1"><metadata id="metadata4364"/><g id="layer1" transform="translate(0,-26)"><path id="rect4154" fill="#424854" fill-opacity="1" stroke="none" d="M 3 3 L 3 4 L 3 18 L 3 18.40625 L 3 19 L 4 19 L 19 19 L 19 18 L 19 14.40625 L 19 12.992188 L 19 3 L 4 3 L 3 3 z M 4 4 L 18 4 L 18 11.992188 L 14.007812 8 L 14 8.0078125 L 13.994141 8 L 9 12.992188 L 8.0078125 12 L 8 12.007812 L 7.9941406 12 L 4 15.992188 L 4 4 z M 7.5 5 C 6.115 5 5 6.115 5 7.5 C 5 8.885 6.115 10 7.5 10 C 8.885 10 10 8.885 10 7.5 C 10 6.115 8.885 5 7.5 5 z M 7.5 6 C 8.331 6 9 6.669 9 7.5 C 9 8.331 8.331 9 7.5 9 C 6.669 9 6 8.331 6 7.5 C 6 6.669 6.669 6 7.5 6 z M 14 9.40625 L 18 13.40625 L 18 18 L 14.007812 18 L 9.7070312 13.699219 L 14 9.40625 z M 8 13.40625 L 12.59375 18 L 4 18 L 4 17.40625 L 8 13.40625 z" opacity="1" transform="translate(0,26)"/></g></svg>