<svg xmlns="http://www.w3.org/2000/svg" xmlns:svg="http://www.w3.org/2000/svg" id="svg4359" width="22" height="22" version="1.1"><metadata id="metadata4364"/><g id="layer1" transform="translate(0,-26)"><path id="rect4123" fill="#424854" fill-opacity="1" stroke="none" d="M 3 3 L 3 4 L 3 6 L 3 7 L 3 19 L 4 19 L 9 19 L 10 19 L 18 19 L 19 19 L 19 18 L 19 7 L 19 6 L 19 4 L 19 3 L 18 3 L 4 3 L 3 3 z M 4 4 L 18 4 L 18 6 L 4 6 L 4 4 z M 4 7 L 9 7 L 10 7 L 18 7 L 18 18 L 10 18 L 9 18 L 4 18 L 4 7 z" opacity="1" transform="translate(0,26)"/><path id="rect4159" fill="#424854" fill-opacity="1" stroke="none" stroke-dasharray="none" stroke-miterlimit="4" stroke-opacity="1" stroke-width=".1" d="M 5 8 L 5 9 L 5 11 L 6 11 L 6 9 L 8 9 L 8 8 L 6 8 L 5 8 z M 14 8 L 14 9 L 16 9 L 16 11 L 17 11 L 17 8 L 14 8 z M 5 14 L 5 16 L 5 17 L 8 17 L 8 16 L 6 16 L 6 14 L 5 14 z M 16 14 L 16 16 L 14 16 L 14 17 L 17 17 L 17 16 L 17 14 L 16 14 z" opacity="1" transform="translate(0,26)"/></g></svg>