<svg xmlns="http://www.w3.org/2000/svg" xmlns:svg="http://www.w3.org/2000/svg" id="svg4359" width="22" height="22" version="1.1"><metadata id="metadata4364"/><g id="layer1" transform="translate(0,-26)"><path id="rect4156" fill="#424854" fill-opacity="1" stroke="none" stroke-dasharray="none" stroke-miterlimit="4" stroke-opacity="1" stroke-width=".1" d="M 3,3 3,4 3,7 4,7 4,4 7,4 7,3 Z m 12,0 0,1 3,0 0,3 1,0 0,-3 0,-1 z m -12,8 0,7 0,1 1,0 7,0 0,-1 0,-7 -7,0 z m 1,1 6,0 0,6 -6,0 z m 14,3 0,3 -3,0 0,1 3,0 1,0 0,-1 0,-3 z" opacity="1" transform="translate(0,26)"/></g></svg>