<svg xmlns="http://www.w3.org/2000/svg" xmlns:svg="http://www.w3.org/2000/svg" xmlns:xlink="http://www.w3.org/1999/xlink" id="svg2" width="16" height="16" version="1.1"><defs id="defs4"><linearGradient id="linearGradient3818" x1="8" x2="8" y1="1" y2="14" gradientTransform="matrix(0.8666702,0,0,0.92857406,1.0666409,1037.3972)" gradientUnits="userSpaceOnUse" xlink:href="#linearGradient3768-6"/><linearGradient id="linearGradient3768-6"><stop id="stop3770-6" offset="0" stop-color="#0f0f0f" stop-opacity="1"/><stop id="stop3778-2" offset=".078" stop-color="#171717" stop-opacity="1"/><stop id="stop3774-0" offset=".974" stop-color="#171717" stop-opacity="1"/><stop id="stop3776-1" offset="1" stop-color="#1b1b1b" stop-opacity="1"/></linearGradient></defs><metadata id="metadata7"/><g id="layer1" transform="translate(0,-1036.3622)"><rect id="rect17861" width="13" height="13" x="1.5" y="1037.862" fill="none" fill-opacity="1" stroke="url(#linearGradient3818)" stroke-dasharray="none" stroke-miterlimit="4" stroke-opacity="1" stroke-width="1" color="#000" display="inline" enable-background="accumulate" overflow="visible" rx="1.5" ry="1.5" visibility="visible" style="marker:none"/><rect id="rect3842" width="12" height="12" x="2" y="2" fill="#313133" fill-opacity="1" stroke="none" rx="1" ry="1" transform="translate(0,1036.3622)"/><path id="rect3769" fill="#000" fill-opacity="1" stroke="#000" stroke-dasharray="none" stroke-miterlimit="4" stroke-opacity="1" stroke-width="0" d="m 3,1038.3622 c -0.554,0 -1,0.446 -1,1 l 0,1 c 0,-0.554 0.446,-1 1,-1 l 10,0 c 0.554,0 1,0.446 1,1 l 0,-1 c 0,-0.554 -0.446,-1 -1,-1 l -10,0 z" opacity=".2"/><path id="rect3803" fill="#fff" fill-opacity="1" stroke="#000" stroke-dasharray="none" stroke-miterlimit="4" stroke-opacity="1" stroke-width="0" d="m 1,1049.3622 0,1 c 0,1.108 0.892,2 2,2 l 10,0 c 1.108,0 2,-0.892 2,-2 l 0,-1 c 0,1.108 -0.892,2 -2,2 l -10,0 c -1.108,0 -2,-0.892 -2,-2 z" opacity=".15"/><rect id="rect3840" width="12" height="12" x="2" y="2" fill="none" stroke="none" opacity="1" rx="1" ry="1" transform="translate(0,1036.3622)"/></g></svg>