<svg xmlns="http://www.w3.org/2000/svg" xmlns:svg="http://www.w3.org/2000/svg" xmlns:xlink="http://www.w3.org/1999/xlink" id="svg3198" width="48" height="48" version="1.1"><defs id="defs3200"><linearGradient id="linearGradient905"><stop id="stop907" offset="0" stop-color="#000" stop-opacity="1"/><stop id="stop909" offset="1" stop-color="#666" stop-opacity="1"/></linearGradient><radialGradient id="SVGID_11_" cx="364" cy="323.047" r="143.945" gradientTransform="matrix(0.0698,0.9976,-1.3731,0.096,782.1995,-71.0853)" gradientUnits="userSpaceOnUse"><stop id="stop462" offset="0" stop-color="gray"/><stop id="stop464" offset="1" stop-color="#1A1A1A"/></radialGradient><radialGradient id="SVGID_10_" cx="170.236" cy="100.257" r="3.182" gradientTransform="matrix(0.0698,0.9976,-1.3731,0.096,296.0286,-79.1914)" gradientUnits="userSpaceOnUse"><stop id="stop455" offset="0" stop-color="gray"/><stop id="stop457" offset="1" stop-color="#1A1A1A"/></radialGradient><linearGradient id="SVGID_8_" x1="364" x2="364" y1="85.032" y2="263.394" gradientUnits="userSpaceOnUse"><stop id="stop356" offset="0" stop-color="#E7E30B"/><stop id="stop358" offset="1" stop-color="#D7C441"/></linearGradient><radialGradient id="radialGradient3515" cx="364" cy="323.047" r="143.945" gradientTransform="matrix(0.00804096,0.11492356,-0.15818117,0.0110592,72.176595,994.41012)" gradientUnits="userSpaceOnUse" xlink:href="#SVGID_11_"/><radialGradient id="radialGradient3523" cx="170.236" cy="100.257" r="3.182" gradientTransform="matrix(0.00804096,0.11492356,-0.15818117,0.0110592,16.427312,985.05254)" gradientUnits="userSpaceOnUse" xlink:href="#SVGID_10_"/><linearGradient id="linearGradient911" x1="25.506" x2="25.506" y1="-1058.288" y2="-996.669" gradientUnits="userSpaceOnUse" xlink:href="#linearGradient905"/><linearGradient id="linearGradient913" x1="25.506" x2="25.506" y1="-1058.288" y2="-996.669" gradientTransform="matrix(0.90624997,0,0,-0.74999998,2.2500016,-748.06048)" gradientUnits="userSpaceOnUse" xlink:href="#SVGID_8_"/></defs><metadata id="metadata3203"/><g id="layer1" transform="translate(0,-1004.3622)"><rect id="rect2991-1" width="48" height="48" x="0" y="-1052.362" fill="url(#linearGradient911)" fill-opacity="1" stroke="none" ry="1.945" transform="scale(1,-1)"/><path id="rect911" fill="url(#linearGradient913)" fill-opacity="1" stroke="none" d="M 3.71875 5.21875 C 2.910792 5.21875 2.25 5.848292 2.25 6.65625 L 2.25 39.75 C 2.25 40.557958 2.910792 41.21875 3.71875 41.21875 L 44.28125 41.21875 C 45.089208 41.21875 45.75 40.557958 45.75 39.75 L 45.75 6.65625 C 45.75 5.848292 45.089208 5.21875 44.28125 5.21875 L 3.71875 5.21875 z M 6.28125 16.34375 L 41.71875 16.34375 C 42.582816 16.34375 43.28125 17.042184 43.28125 17.90625 L 43.28125 28.53125 C 43.28125 29.395316 42.582816 30.09375 41.71875 30.09375 L 6.28125 30.09375 C 5.4171839 30.09375 4.71875 29.395316 4.71875 28.53125 L 4.71875 17.90625 C 4.71875 17.042184 5.4171839 16.34375 6.28125 16.34375 z" transform="translate(0,1004.3622)"/><rect id="rect3455" width="48" height="48" x="0" y="1004.362" fill="none" stroke="none" ry=".074"/><circle id="circle175" cx="554.718" cy="109.522" r="2.686" fill="#898989" stroke="#262626" stroke-miterlimit="10" stroke-width="1.5" d="m 557.40402,109.522 c 0,1.48344 -1.20257,2.686 -2.686,2.686 -1.48344,0 -2.686,-1.20256 -2.686,-2.686 0,-1.48343 1.20256,-2.686 2.686,-2.686 C 556.20145,106.836 557.40402,108.03857 557.40402,109.522 Z" transform="matrix(0.11520004,0,0,0.11520004,-17.675198,994.1754)"/><circle id="circle177" cx="171.67" cy="109.522" r="2.686" fill="#898989" stroke="#262626" stroke-miterlimit="10" stroke-width="1.5" d="m 174.356,109.522 c 0,1.48344 -1.20256,2.686 -2.686,2.686 -1.48344,0 -2.686,-1.20256 -2.686,-2.686 0,-1.48343 1.20256,-2.686 2.686,-2.686 C 173.15344,106.836 174.356,108.03857 174.356,109.522 Z" transform="matrix(0.11520004,0,0,0.11520004,-17.675198,994.1754)"/><polygon id="polygon187" fill="#484848" points="232.915 119.445 232.915 107.626 189.936 107.626 189.936 118.371 189.936 119.445 189.936 124.818 213.574 124.818 213.574 119.445" transform="matrix(0.11520004,0,0,0.11520004,-17.675198,994.1754)"/><polygon id="polygon189" fill="none" stroke="#484848" stroke-miterlimit="10" points="232.915 119.445 232.915 107.626 189.936 107.626 189.936 118.371 189.936 119.445 189.936 124.818 213.574 124.818 213.574 119.445" transform="matrix(0.11520004,0,0,0.11520004,-17.675198,994.1754)"/><polygon id="polygon203" fill="#fff" points="232.915 119.445 232.915 107.626 189.936 107.626 189.936 118.371 189.936 119.445 189.936 124.818 213.574 124.818 213.574 119.445" opacity=".4" transform="matrix(0.11520004,0,0,0.11520004,-17.675198,994.1754)"/><polygon id="polygon205" fill="none" stroke="#fff" stroke-miterlimit="10" points="232.915 119.445 232.915 107.626 189.936 107.626 189.936 118.371 189.936 119.445 189.936 124.818 213.574 124.818 213.574 119.445" opacity=".4" transform="matrix(0.11520004,0,0,0.11520004,-17.675198,994.1754)"/><polygon id="polygon211" fill="#484848" points="488.639 119.445 488.639 107.626 531.617 107.626 531.617 118.371 531.617 119.445 531.617 124.818 507.979 124.818 507.979 119.445" transform="matrix(0.11520004,0,0,0.11520004,-17.675198,994.1754)"/><polygon id="polygon213" fill="none" stroke="#484848" stroke-miterlimit="10" points="488.639 119.445 488.639 107.626 531.617 107.626 531.617 118.371 531.617 119.445 531.617 124.818 507.979 124.818 507.979 119.445" transform="matrix(0.11520004,0,0,0.11520004,-17.675198,994.1754)"/><polygon id="polygon227" fill="#fff" points="488.639 119.445 488.639 107.626 531.617 107.626 531.617 118.371 531.617 119.445 531.617 124.818 507.979 124.818 507.979 119.445" opacity=".4" transform="matrix(0.11520004,0,0,0.11520004,-17.675198,994.1754)"/><polygon id="polygon229" fill="none" stroke="#fff" stroke-miterlimit="10" points="488.639 119.445 488.639 107.626 531.617 107.626 531.617 118.371 531.617 119.445 531.617 124.818 507.979 124.818 507.979 119.445" opacity=".4" transform="matrix(0.11520004,0,0,0.11520004,-17.675198,994.1754)"/><polygon id="polygon235" fill="#484848" points="232.915 119.445 232.915 107.626 189.936 107.626 189.936 118.371 189.936 119.445 189.936 124.818 213.574 124.818 213.574 119.445" transform="matrix(0.11520004,0,0,0.11520004,-17.675198,994.1754)"/><polygon id="polygon237" fill="none" stroke="#484848" stroke-miterlimit="10" points="232.915 119.445 232.915 107.626 189.936 107.626 189.936 118.371 189.936 119.445 189.936 124.818 213.574 124.818 213.574 119.445" transform="matrix(0.11520004,0,0,0.11520004,-17.675198,994.1754)"/><polygon id="polygon251" fill="#fff" points="232.915 119.445 232.915 107.626 189.936 107.626 189.936 118.371 189.936 119.445 189.936 124.818 213.574 124.818 213.574 119.445" opacity=".4" transform="matrix(0.11520004,0,0,0.11520004,-17.675198,994.1754)"/><polygon id="polygon253" fill="none" stroke="#fff" stroke-miterlimit="10" points="232.915 119.445 232.915 107.626 189.936 107.626 189.936 118.371 189.936 119.445 189.936 124.818 213.574 124.818 213.574 119.445" opacity=".4" transform="matrix(0.11520004,0,0,0.11520004,-17.675198,994.1754)"/><polygon id="polygon259" fill="#484848" points="488.639 119.445 488.639 107.626 531.617 107.626 531.617 118.371 531.617 119.445 531.617 124.818 507.979 124.818 507.979 119.445" transform="matrix(0.11520004,0,0,0.11520004,-17.675198,994.1754)"/><polygon id="polygon261" fill="none" stroke="#484848" stroke-miterlimit="10" points="488.639 119.445 488.639 107.626 531.617 107.626 531.617 118.371 531.617 119.445 531.617 124.818 507.979 124.818 507.979 119.445" transform="matrix(0.11520004,0,0,0.11520004,-17.675198,994.1754)"/><polygon id="polygon275" fill="#fff" points="488.639 119.445 488.639 107.626 531.617 107.626 531.617 118.371 531.617 119.445 531.617 124.818 507.979 124.818 507.979 119.445" opacity=".4" transform="matrix(0.11520004,0,0,0.11520004,-17.675198,994.1754)"/><polygon id="polygon277" fill="none" stroke="#fff" stroke-miterlimit="10" points="488.639 119.445 488.639 107.626 531.617 107.626 531.617 118.371 531.617 119.445 531.617 124.818 507.979 124.818 507.979 119.445" opacity=".4" transform="matrix(0.11520004,0,0,0.11520004,-17.675198,994.1754)"/><g id="g1174" transform="matrix(1.0678653,0,0,1.0678653,2.7078671,-73.994633)"><circle id="circle283" cx="281.723" cy="232.108" r="39.217" fill="none" stroke="#bababa" stroke-miterlimit="10" d="m 320.93999,232.108 c 0,21.65895 -17.55805,39.217 -39.217,39.217 -21.65895,0 -39.217,-17.55805 -39.217,-39.217 0,-21.65895 17.55805,-39.217 39.217,-39.217 C 303.38194,192.891 320.93999,210.44905 320.93999,232.108 Z" opacity=".91" transform="matrix(0.15713649,0,0,0.15713649,-32.824073,995.09528)"/><circle id="circle285" cx="281.723" cy="232.109" r="31.16" fill="none" stroke="#bababa" stroke-miterlimit="10" d="m 312.88299,232.10899 c 0,17.2092 -13.95081,31.16 -31.16,31.16 -17.20919,0 -31.16,-13.9508 -31.16,-31.16 0,-17.20919 13.95081,-31.16 31.16,-31.16 C 298.93218,200.94899 312.88299,214.8998 312.88299,232.10899 Z" opacity=".91" transform="matrix(0.15713649,0,0,0.15713649,-32.824073,995.09528)"/><circle id="circle287" cx="281.723" cy="232.108" r="21.64" fill="#020202" stroke="#bababa" stroke-miterlimit="10" stroke-width="4" d="m 303.36299,232.108 c 0,11.95144 -9.68856,21.64 -21.64,21.64 -11.95144,0 -21.64,-9.68856 -21.64,-21.64 0,-11.95144 9.68856,-21.64 21.64,-21.64 C 293.67443,210.468 303.36299,220.15656 303.36299,232.108 Z" opacity=".91" transform="matrix(0.15713649,0,0,0.15713649,-32.824073,995.09528)"/><rect id="rect289" width=".507" height=".912" x="-845.562" y="-592.411" fill="#bababa" opacity=".91" transform="matrix(-0.58059477,-0.81419268,0.81419268,-0.58059477,0,0)"/><rect id="rect291" width=".507" height=".912" x="-847.805" y="-592.415" fill="#bababa" opacity=".91" transform="matrix(-0.58059477,-0.81419268,0.81419268,-0.58059477,0,0)"/><rect id="rect293" width=".506" height=".912" x="-847.342" y="-588.118" fill="#bababa" opacity=".91" transform="matrix(-0.58088814,-0.8139834,0.8139834,-0.58088814,0,0)"/><rect id="rect295" width=".507" height=".912" x="-845.559" y="-588.043" fill="#bababa" opacity=".91" transform="matrix(-0.58059477,-0.81419268,0.81419268,-0.58059477,0,0)"/><rect id="rect297" width=".507" height=".912" x="-590.025" y="843.63" fill="#bababa" opacity=".91" transform="matrix(0.81419268,-0.58059477,0.58059477,0.81419268,0,0)"/><rect id="rect299" width=".507" height=".912" x="-589.856" y="848.435" fill="#bababa" opacity=".91" transform="matrix(0.81419268,-0.58059477,0.58059477,0.81419268,0,0)"/><rect id="rect301" width="1.519" height="1.52" x="-585.078" y="845.432" fill="#bababa" opacity=".91" transform="matrix(0.81406441,-0.5807746,0.5807746,0.81406441,0,0)"/><rect id="rect303" width="1.519" height="1.519" x="-595.81" y="845.782" fill="#bababa" opacity=".91" transform="matrix(0.81419268,-0.58059477,0.58059477,0.81419268,0,0)"/></g><g id="g1187" transform="matrix(1.0678653,0,0,1.0678653,-5.8350554,-73.765753)"><circle id="circle309" cx="440.745" cy="230.744" r="39.217" fill="none" stroke="#bababa" stroke-miterlimit="10" d="m 479.96199,230.744 c 0,21.65895 -17.55804,39.217 -39.21699,39.217 -21.65896,0 -39.217,-17.55805 -39.217,-39.217 0,-21.65895 17.55804,-39.217 39.217,-39.217 C 462.40395,191.527 479.96199,209.08505 479.96199,230.744 Z" opacity=".91" transform="matrix(0.15713649,0,0,0.15713649,-32.824073,995.09528)"/><circle id="circle311" cx="440.745" cy="230.745" r="31.16" fill="none" stroke="#bababa" stroke-miterlimit="10" d="m 471.90499,230.745 c 0,17.20919 -13.9508,31.15999 -31.15999,31.15999 -17.2092,0 -31.16,-13.9508 -31.16,-31.15999 0,-17.2092 13.9508,-31.16 31.16,-31.16 C 457.95419,199.585 471.90499,213.5358 471.90499,230.745 Z" opacity=".91" transform="matrix(0.15713649,0,0,0.15713649,-32.824073,995.09528)"/><path id="path313" fill="#020202" stroke="#bababa" stroke-miterlimit="10" stroke-width=".629" d="m 39.201327,1029.379 c 1.090365,1.5288 0.73509,3.652 -0.794165,4.7425 -1.52878,1.0905 -3.652005,0.7356 -4.7427,-0.7932 -1.090365,-1.529 -0.73539,-3.6527 0.79354,-4.7432 C 35.987097,1027.4946 38.110797,1027.85 39.201327,1029.379 Z" opacity=".91"/><rect id="rect315" width=".507" height=".912" x="-859.892" y="-571.946" fill="#bababa" opacity=".91" transform="matrix(-0.58059477,-0.81419268,0.81419268,-0.58059477,0,0)"/><rect id="rect317" width=".507" height=".912" x="-862.141" y="-571.94" fill="#bababa" opacity=".91" transform="matrix(-0.58059477,-0.81419268,0.81419268,-0.58059477,0,0)"/><rect id="rect319" width=".506" height=".912" x="-861.682" y="-567.652" fill="#bababa" opacity=".91" transform="matrix(-0.58088814,-0.8139834,0.8139834,-0.58088814,0,0)"/><rect id="rect321" width=".507" height=".912" x="-859.895" y="-567.568" fill="#bababa" opacity=".91" transform="matrix(-0.58059477,-0.81419268,0.81419268,-0.58059477,0,0)"/><rect id="rect323" width=".507" height=".912" x="-569.491" y="858.011" fill="#bababa" opacity=".91" transform="matrix(0.81423995,-0.58052847,0.58052847,0.81423995,0,0)"/><rect id="rect325" width=".507" height=".912" x="-569.389" y="862.774" fill="#bababa" opacity=".91" transform="matrix(0.81419268,-0.58059477,0.58059477,0.81419268,0,0)"/><rect id="rect327" width="1.519" height="1.52" x="-564.611" y="859.772" fill="#bababa" opacity=".91" transform="matrix(0.81406441,-0.5807746,0.5807746,0.81406441,0,0)"/><rect id="rect329" width="1.519" height="1.519" x="-575.34" y="860.116" fill="#bababa" opacity=".91" transform="matrix(0.81419268,-0.58059477,0.58059477,0.81419268,0,0)"/></g><rect id="rect386" width="4.01" height="4.06" x="4.205" y="1012.444" fill="none" stroke="#000" stroke-miterlimit="10" stroke-width=".086" opacity=".5"/><path id="path390" d="m 5.1215024,1013.4689 c 0.0483,0.031 0.11774,0.054 0.19204,0.054 0.11025,0 0.17465,-0.058 0.17465,-0.1424 0,-0.077 -0.0446,-0.1226 -0.15737,-0.1648 -0.13628,-0.05 -0.22049,-0.1215 -0.22049,-0.2379 0,-0.1301 0.10783,-0.2268 0.27003,-0.2268 0.0843,0 0.14746,0.02 0.18351,0.041 l -0.0297,0.088 c -0.0262,-0.016 -0.0818,-0.04 -0.15736,-0.04 -0.11394,0 -0.15737,0.068 -0.15737,0.1252 0,0.078 0.0507,0.1165 0.16601,0.161 0.14123,0.055 0.21174,0.1228 0.21174,0.2453 0,0.1289 -0.0941,0.2416 -0.29112,0.2416 -0.0806,0 -0.16842,-0.025 -0.21323,-0.054 L 5.1215424,1013.4691 Z" opacity=".5"/><path id="path392" d="m 5.8531424,1012.7652 0,0.835 -0.10898,0 0,-0.835 L 5.8531424,1012.7652 Z" opacity=".5"/><path id="path394" d="m 6.0412624,1012.7775 c 0.0657,-0.011 0.14377,-0.019 0.22925,-0.019 0.15483,0 0.26519,0.037 0.33834,0.1042 0.0756,0.068 0.119,0.1646 0.119,0.2997 0,0.1364 -0.0433,0.2478 -0.12026,0.3248 -0.0793,0.078 -0.20817,0.1201 -0.37049,0.1201 -0.078,0 -0.14123,0 -0.19572,-0.01 L 6.0413824,1012.7771 z m 0.10783,0.7386 c 0.0272,0 0.0668,0 0.10898,0 0.23178,0 0.35551,-0.129 0.35551,-0.3545 10e-4,-0.197 -0.11025,-0.322 -0.33823,-0.322 -0.0558,0 -0.0979,0 -0.12638,0.011 L 6.1489724,1013.511 Z" opacity=".5"/><path id="path396" d="m 7.2967124,1013.2086 -0.32336,0 0,0.3012 0.36172,0 0,0.09 -0.47082,0 0,-0.835 0.45216,0 0,0.09 -0.34318,0 0,0.264 0.32337,0 L 7.2966024,1013.2078 Z" opacity=".5"/><path id="path400" d="m 5.9412724,1015.2886 -0.15598,0.4725 -0.20057,0 0.51264,-1.5021 0.23179,0 0.51264,1.5021 -0.20725,0 -0.16047,-0.4725 L 5.9412724,1015.2886 z m 0.49478,-0.1516 -0.1493,-0.4324 c -0.0335,-0.098 -0.0557,-0.1872 -0.0781,-0.2742 l -0.004,0 c -0.0224,0.087 -0.0446,0.1806 -0.0758,0.272 l -0.14712,0.4346 L 6.4364324,1015.137 Z" opacity=".5"/><rect id="rect404" width="4.01" height="4.06" x="39.557" y="1012.444" fill="none" stroke="#000" stroke-miterlimit="10" stroke-width=".086" opacity=".5"/><path id="path408" d="m 40.472602,1013.4689 c 0.0484,0.031 0.11773,0.054 0.19215,0.054 0.11025,0 0.17464,-0.058 0.17464,-0.1424 0,-0.077 -0.0446,-0.1226 -0.15736,-0.1648 -0.13617,-0.05 -0.22038,-0.1215 -0.22038,-0.2379 0,-0.1301 0.10783,-0.2268 0.27003,-0.2268 0.0843,0 0.14746,0.02 0.18351,0.041 l -0.0297,0.088 c -0.0261,-0.016 -0.0819,-0.04 -0.15736,-0.04 -0.11393,0 -0.15736,0.068 -0.15736,0.1252 0,0.078 0.0507,0.1165 0.166,0.161 0.14124,0.055 0.21185,0.1228 0.21185,0.2453 0,0.1289 -0.0941,0.2416 -0.29111,0.2416 -0.0805,0 -0.16853,-0.025 -0.21323,-0.054 L 40.472582,1013.4691 Z" opacity=".5"/><path id="path410" d="m 41.204232,1012.7652 0,0.835 -0.10898,0 0,-0.835 L 41.204232,1012.7652 Z" opacity=".5"/><path id="path412" d="m 41.392352,1012.7775 c 0.0655,-0.011 0.14377,-0.019 0.22914,-0.019 0.15494,0 0.2653,0.037 0.33845,0.1042 0.0755,0.068 0.11889,0.1646 0.11889,0.2997 0,0.1364 -0.0434,0.2478 -0.12027,0.3248 -0.0793,0.078 -0.20817,0.1201 -0.37048,0.1201 -0.078,0 -0.14124,0 -0.19573,-0.01 L 41.392352,1012.7771 z m 0.10795,0.7386 c 0.0271,0 0.0668,0 0.10897,0 0.23167,0 0.35551,-0.129 0.35551,-0.3545 10e-4,-0.197 -0.11024,-0.322 -0.33834,-0.322 -0.0556,0 -0.0979,0 -0.12626,0.011 L 41.500182,1013.511 Z" opacity=".5"/><path id="path414" d="m 42.647802,1013.2086 -0.32336,0 0,0.3012 0.36184,0 0,0.09 -0.47082,0 0,-0.835 0.45227,0 0,0.09 -0.34318,0 0,0.264 0.32337,0 L 42.647922,1013.2078 Z" opacity=".5"/><path id="path418" d="m 41.292362,1015.2886 -0.15598,0.4725 -0.20045,0 0.51264,-1.5021 0.23167,0 0.51264,1.5021 -0.20725,0 -0.16047,-0.4725 L 41.292362,1015.2886 z m 0.49478,-0.1516 -0.1493,-0.4324 c -0.0334,-0.098 -0.0556,-0.1872 -0.0781,-0.2742 l -0.004,0 c -0.0224,0.087 -0.0447,0.1806 -0.0758,0.272 l -0.14711,0.4346 L 41.787412,1015.137 Z" opacity=".5"/><path id="path422" d="m 4.7047124,1044.0139 -0.49259,-1.5021 0.21173,0 0.23409,0.7398 c 0.0624,0.2029 0.11808,0.3856 0.16036,0.5616 l 0.004,0 c 0.0424,-0.1738 0.10253,-0.3631 0.17165,-0.5594 l 0.25413,-0.742 0.20725,0 -0.53707,1.5021 L 4.7042224,1044.0139 Z" opacity=".5"/><path id="path424" d="m 5.5991224,1042.6997 c 0.0752,-0.018 0.19596,-0.03 0.31462,-0.03 0.17222,0 0.28316,0.03 0.36426,0.097 0.0692,0.051 0.11289,0.1305 0.11289,0.2354 0,0.1308 -0.0871,0.2435 -0.22567,0.293 l 0,0.01 c 0.12672,0.03 0.27509,0.1347 0.27509,0.3327 0,0.1149 -0.0456,0.2038 -0.11485,0.2671 -0.091,0.085 -0.24146,0.1248 -0.45919,0.1248 -0.11877,0 -0.20989,-0.01 -0.26715,-0.016 L 5.5991224,1042.7034 z m 0.17223,0.5462 0.15632,0 c 0.18006,0 0.28697,-0.097 0.28697,-0.2256 0,-0.1545 -0.11681,-0.2178 -0.291,-0.2178 -0.0791,0 -0.12476,0.01 -0.15241,0.012 L 5.7712324,1043.2461 z m 0,0.6374 c 0.0356,0.01 0.0832,0.01 0.14457,0.01 0.17799,0 0.34226,-0.065 0.34226,-0.2592 0,-0.1801 -0.15621,-0.2575 -0.34433,-0.2575 l -0.1425,0 L 5.7713524,1043.8855 Z" opacity=".5"/><path id="path428" d="m 41.913172,1043.967 c -0.0692,0.036 -0.21392,0.071 -0.39663,0.071 -0.42348,0 -0.73993,-0.2674 -0.73993,-0.762 0,-0.4727 0.31864,-0.7891 0.78451,-0.7891 0.1849,0 0.30528,0.04 0.35666,0.067 l -0.0492,0.1581 c -0.0712,-0.035 -0.17591,-0.062 -0.30079,-0.062 -0.35216,0 -0.58613,0.2251 -0.58613,0.6197 0,0.3699 0.21173,0.6039 0.57496,0.6039 0.12027,0 0.24077,-0.024 0.31864,-0.062 L 41.913162,1043.9677 Z" opacity=".5"/><path id="path430" d="m 42.605752,1043.3408 0,0.1426 -0.55054,0 0,-0.1426 L 42.605752,1043.3408 Z" opacity=".5"/><path id="path432" d="m 42.886502,1043.8757 c 0.0423,0 0.0913,0 0.15817,-0.01 0.11358,-0.016 0.22061,-0.06 0.3032,-0.1405 0.0957,-0.087 0.16485,-0.2139 0.19158,-0.3835 l -0.007,0 c -0.0803,0.098 -0.19618,0.1538 -0.34329,0.1538 -0.2584,0 -0.42555,-0.196 -0.42555,-0.4434 0,-0.274 0.19837,-0.5149 0.49478,-0.5149 0.2963,0 0.47912,0.2386 0.47912,0.6131 0,0.3164 -0.10702,0.5391 -0.24964,0.6773 -0.1114,0.1094 -0.26519,0.1761 -0.42117,0.1939 -0.0713,0.011 -0.13375,0.013 -0.18041,0.011 L 42.886292,1043.8722 z m 0.0712,-0.8312 c 0,0.1805 0.10921,0.3075 0.27867,0.3075 0.13156,0 0.23397,-0.065 0.28535,-0.1516 0.0112,-0.02 0.0177,-0.04 0.0177,-0.073 0,-0.2473 -0.0913,-0.4369 -0.2986,-0.4369 C 43.075852,1042.6905 42.957662,1042.8375 42.957662,1043.045 Z" opacity=".5"/><path id="path434" d="m 44.880732,1043.2739 c 0,0.4927 -0.1849,0.7644 -0.50366,0.7644 -0.28305,0 -0.47693,-0.2652 -0.48142,-0.7443 0,-0.4881 0.21174,-0.7533 0.50596,-0.7533 C 44.704702,1042.5406 44.880732,1042.8126 44.880732,1043.2739 z m -0.78682,0.022 c 0,0.3767 0.11589,0.5906 0.29422,0.5906 0.19837,0 0.29422,-0.234 0.29422,-0.6042 0,-0.3565 -0.089,-0.5905 -0.29422,-0.5905 C 44.218672,1042.6918 44.093912,1042.9014 44.093912,1043.2959 Z" opacity=".5"/><g id="g1161" transform="translate(0,9.5839826)"><path id="path466" fill="url(#radialGradient3515)" stroke="#000" stroke-miterlimit="10" stroke-width=".115" d="m 24.618855,1040.1522 c -9.05795,0 -17.3718202,-1.2163 -23.8892598,-3.2444 l 0,4.5751 c 0,0.6837 0.55422,1.2377 1.23782,1.2377 l 44.0651698,0 c 0.68383,0 1.23782,-0.5541 1.23782,-1.2377 l 0,-4.2049 C 40.952835,1039.0832 33.112435,1040.1522 24.618855,1040.1522 Z" opacity=".15"/><circle id="circle179" cx="178.654" cy="338.892" r="2.686" fill="#898989" stroke="#262626" stroke-miterlimit="10" stroke-width="1.5" d="m 181.34001,338.892 c 0,1.48344 -1.20257,2.686 -2.686,2.686 -1.48344,0 -2.686,-1.20256 -2.686,-2.686 0,-1.48344 1.20256,-2.686 2.686,-2.686 C 180.13744,336.206 181.34001,337.40856 181.34001,338.892 Z" transform="matrix(0.11520004,0,0,0.11520004,-17.675198,1002.8004)"/><circle id="circle181" cx="554.718" cy="338.892" r="2.686" fill="#898989" stroke="#262626" stroke-miterlimit="10" stroke-width="1.5" d="m 557.40402,338.892 c 0,1.48344 -1.20257,2.686 -2.686,2.686 -1.48344,0 -2.686,-1.20256 -2.686,-2.686 0,-1.48344 1.20256,-2.686 2.686,-2.686 C 556.20145,336.206 557.40402,337.40856 557.40402,338.892 Z" transform="matrix(0.11520004,0,0,0.11520004,-17.675198,1002.8004)"/><circle id="circle436" cx="535.915" cy="333.503" r="7.521" fill="#898989" stroke="#262626" stroke-miterlimit="10" stroke-width="2" d="m 543.43598,333.50299 c 0,4.15373 -3.36727,7.521 -7.521,7.521 -4.15374,0 -7.521,-3.36727 -7.521,-7.521 0,-4.15373 3.36726,-7.521 7.521,-7.521 C 540.06871,325.98199 543.43598,329.34926 543.43598,333.50299 Z" transform="matrix(0.11520004,0,0,0.11520004,-17.675198,1002.8004)"/><circle id="circle438" cx="202.83" cy="333.503" r="7.521" fill="#898989" stroke="#262626" stroke-miterlimit="10" stroke-width="2" d="m 210.351,333.50299 c 0,4.15373 -3.36726,7.521 -7.521,7.521 -4.15373,0 -7.521,-3.36727 -7.521,-7.521 0,-4.15373 3.36727,-7.521 7.521,-7.521 C 206.98374,325.98199 210.351,329.34926 210.351,333.50299 Z" transform="matrix(0.11520004,0,0,0.11520004,-17.675198,1002.8004)"/><rect id="rect440" width="1.114" height="1.114" x="29.333" y="1041.467" fill="#1e1e1e" opacity=".5"/><rect id="rect442" width=".668" height=".371" x="30.679" y="1041.839" fill="#1e1e1e" opacity=".5"/><rect id="rect444" width="1.114" height="1.114" x="19.306" y="1041.467" fill="#1e1e1e" opacity=".5"/><rect id="rect446" width=".668" height=".371" x="18.406" y="1041.839" fill="#1e1e1e" opacity=".5"/><rect id="rect448" width=".668" height=".371" x="24.208" y="1042.21" fill="#1e1e1e"/><circle id="circle450" cx="354.041" cy="310.649" r="4.008" fill="none" stroke="#161616" stroke-miterlimit="10" stroke-opacity=".5" stroke-width="2" d="m 358.04899,310.64899 c 0,2.21355 -1.79445,4.008 -4.008,4.008 -2.21356,0 -4.008,-1.79445 -4.008,-4.008 0,-2.21356 1.79444,-4.008 4.008,-4.008 C 356.25454,306.64099 358.04899,308.43543 358.04899,310.64899 Z" transform="matrix(0.11520004,0,0,0.11520004,-17.675198,1002.8004)"/></g><path id="path459" fill="url(#radialGradient3523)" stroke="#000" stroke-miterlimit="10" stroke-width=".115" d="m 2.4337724,1005.5802 -0.20874,0 c -0.30044,0 -0.5722,0.1114 -0.7867,0.2895 C 1.7655024,1005.7707 2.0979624,1005.6747 2.4337724,1005.5802 Z" opacity=".15"/><text id="text468" x="11.508" y="1014.301" font-size="1.382"><tspan id="tspan470" x="11.508" y="1014.301" font-family="MyriadPro-Regular" font-size="2.228">_______________________</tspan> <tspan id="tspan472" x="11.508" y="1016.975" font-family="MyriadPro-Regular" font-size="2.228">_______________________</tspan></text><g id="g1395" transform="translate(-384.57143,504.56421)"><path id="rect846" fill="#000" fill-opacity="1" stroke="none" d="m 384.57143,544.79799 0,1.0625 c 0,1.0773 0.86022,1.9375 1.9375,1.9375 l 44.125,0 c 1.07728,0 1.9375,-0.8602 1.9375,-1.9375 l 0,-1.0625 c 0,1.0773 -0.86022,1.9375 -1.9375,1.9375 l -44.125,0 C 385.43165,546.73549 384.57143,545.87529 384.57143,544.79799 Z"/><path id="path7515" fill="#fff" fill-opacity=".537" stroke="none" d="m 387.10268,500.45429 c -0.91709,0 -1.67115,0.6395 -1.84375,1.5 0.33561,-0.2799 0.77451,-0.4375 1.25,-0.4375 l 44.125,0 c 0.47549,0 0.91439,0.1576 1.25,0.4375 -0.1726,-0.8605 -0.92666,-1.5 -1.84375,-1.5 L 387.10268,500.45429 Z"/><path id="rect4280-8" fill="#000" fill-opacity=".392" stroke="none" d="m 386.50893,499.79799 c -1.07728,0 -1.9375,0.8602 -1.9375,1.9375 l 0,43.0625 c 0,0.7934 0.48002,1.449 1.15625,1.75 -0.30934,-0.3333 -0.5,-0.7824 -0.5,-1.2812 l 0,-42.9375 c 0,-1.0482 0.8269,-1.875 1.875,-1.875 l 42.9375,0 c 1.0481,0 1.875,0.8268 1.875,1.875 l 0,42.9375 c 0,0.4988 -0.19066,0.9479 -0.5,1.2812 0.67623,-0.301 1.15625,-0.9566 1.15625,-1.75 l 0,-43.0625 c 0,-1.0773 -0.86022,-1.9375 -1.9375,-1.9375 L 386.50893,499.79799 Z"/></g></g></svg>