<svg xmlns="http://www.w3.org/2000/svg" xmlns:svg="http://www.w3.org/2000/svg" xmlns:xlink="http://www.w3.org/1999/xlink" id="svg6391" width="48" height="48" version="1.1"><defs id="defs6393"><linearGradient id="linearGradient4246"><stop id="stop4248" offset="0" stop-color="#b9d9ff" stop-opacity="1"/><stop id="stop4250" offset="1" stop-color="#f6fbfe" stop-opacity="1"/></linearGradient><linearGradient id="linearGradient4788"><stop id="stop4790" offset="0" stop-color="#000" stop-opacity="1"/><stop id="stop4792" offset="1" stop-color="#000" stop-opacity="0"/></linearGradient><linearGradient id="linearGradient4433"><stop id="stop4435" offset="0" stop-color="#2b3141" stop-opacity="1"/><stop id="stop4437" offset="1" stop-color="#394056" stop-opacity="1"/></linearGradient><linearGradient id="linearGradient4117-7" x1="92.143" x2="92.143" y1="-1049.092" y2="-1001.09" gradientTransform="translate(416.82086,469.86871)" gradientUnits="userSpaceOnUse" xlink:href="#linearGradient943-9"/><linearGradient id="linearGradient4439" x1="42.957" x2="42.957" y1="48" y2="33.999" gradientTransform="translate(481.7143,531.21929)" gradientUnits="userSpaceOnUse" xlink:href="#linearGradient4433"/><linearGradient id="linearGradient4786" x1="458.571" x2="472.509" y1="871.361" y2="862.361" gradientTransform="matrix(-1,0,0,-1,974.28574,1441.5807)" gradientUnits="userSpaceOnUse" xlink:href="#linearGradient4788"/><linearGradient id="linearGradient4219" x1="465.571" x2="458.571" y1="869.362" y2="862.363" gradientTransform="translate(57.142859,-297.14289)" gradientUnits="userSpaceOnUse" xlink:href="#linearGradient4266"/><linearGradient id="linearGradient4266"><stop id="stop4268" offset="0" stop-color="#2d8eff" stop-opacity="1"/><stop id="stop4270" offset="1" stop-color="#9cd3f4" stop-opacity="1"/></linearGradient><linearGradient id="linearGradient943-9"><stop id="stop945-30" offset="0" stop-color="#0059c1" stop-opacity="1"/><stop id="stop947-4" offset="1" stop-color="#118de7" stop-opacity="1"/></linearGradient><linearGradient id="linearGradient4244" x1="24.212" x2="24.212" y1="39" y2="9" gradientUnits="userSpaceOnUse" xlink:href="#linearGradient4246"/></defs><metadata id="metadata6396"/><g id="layer1" transform="translate(-481.71429,-531.2193)"><rect id="rect2991-1-7-3-8" width="48" height="48" x="481.714" y="-579.219" fill="url(#linearGradient4117-7)" fill-opacity="1" stroke="none" ry="1.945" transform="scale(1,-1)"/><path id="path4258" fill="#000" fill-opacity=".059" stroke="none" d="m 505.71429,541.4193 -13,7.5 0,15 13,7.5 13,-7.5 0,-15 z m -1.5,3.90039 0,8.50195 -7.2207,-4.16992 z m 3,0 7.2207,4.33203 -7.2207,4.16992 z m 8.5,7.05859 0,8.08204 -7,-4.04102 z m -8.5,6.63868 7.2207,4.16992 -7.2207,4.33203 z"/><path id="path4256" fill="#000" fill-opacity=".118" stroke="none" d="m 505.71429,541.0193 -13,7.5 0,15 13,7.5 13,-7.5 0,-15 z m -1.5,3.90039 0,8.50195 -7.2207,-4.16992 z m 3,0 7.2207,4.33203 -7.2207,4.16992 z m 8.5,7.05859 0,8.08204 -7,-4.04102 z m -8.5,6.63868 7.2207,4.16992 -7.2207,4.33203 z"/><path id="path4252" fill="#000" fill-opacity=".235" stroke="none" d="m 505.71429,540.6193 -13,7.5 0,15 13,7.5 13,-7.5 0,-15 z m -1.5,3.90039 0,8.50195 -7.2207,-4.16992 z m 3,0 7.2207,4.33203 -7.2207,4.16992 z m 8.5,7.05859 0,8.08204 -7,-4.04102 z m -8.5,6.63868 7.2207,4.16992 -7.2207,4.33203 z"/><path id="path7515-3-2" fill="#fff" fill-opacity=".537" stroke="none" d="m 484.24553,531.87561 c -0.91709,0 -1.67115,0.6395 -1.84375,1.5 0.33561,-0.2799 0.77451,-0.4375 1.25,-0.4375 l 44.125,0 c 0.47549,0 0.91439,0.1576 1.25,0.4375 -0.1726,-0.8605 -0.92666,-1.5 -1.84375,-1.5 l -42.9375,0 z"/><path id="path4208" fill="url(#linearGradient4244)" fill-opacity="1" stroke="none" d="m 24,9 -13,7.5 0,15 13,7.5 13,-7.5 0,-15 z m -1.5,3.900391 0,8.501953 -7.220703,-4.169922 z m 3,0 7.220703,4.332031 L 25.5,21.402344 Z M 34,19.958984 34,28.041016 27,24 Z m -8.5,6.638672 7.220703,4.169922 L 25.5,35.099609 Z" transform="translate(481.71429,531.2193)"/><path id="path4260" fill="#0260c6" fill-opacity=".314" stroke="none" d="M 22.5 12.099609 L 15.279297 16.431641 L 15.958984 16.824219 L 22.5 12.900391 L 22.5 12.099609 z M 25.5 12.099609 L 25.5 12.900391 L 32.041016 16.824219 L 32.720703 16.431641 L 25.5 12.099609 z M 34 19.158203 L 27 23.199219 L 27.693359 23.599609 L 34 19.958984 L 34 19.158203 z M 25.5 25.796875 L 25.5 26.597656 L 32.041016 30.375 L 32.720703 29.966797 L 25.5 25.796875 z M 11 30.699219 L 11 31.5 L 24 39 L 37 31.5 L 37 30.699219 L 24 38.199219 L 11 30.699219 z" transform="translate(481.71429,531.2193)"/><path id="path4265" fill="#fff" fill-opacity=".235" stroke="none" d="M 24 9 L 11 16.5 L 11 16.900391 L 24 9.4003906 L 37 16.900391 L 37 16.5 L 24 9 z M 15.619141 17.429688 L 15.279297 17.632812 L 22.5 21.802734 L 22.5 21.402344 L 15.619141 17.429688 z M 32.380859 17.429688 L 25.5 21.402344 L 25.5 21.802734 L 32.720703 17.632812 L 32.380859 17.429688 z M 27.347656 24.199219 L 27 24.400391 L 34 28.441406 L 34 28.041016 L 27.347656 24.199219 z M 32.380859 30.970703 L 25.5 35.099609 L 25.5 35.5 L 32.720703 31.167969 L 32.380859 30.970703 z" transform="translate(481.71429,531.2193)"/><path id="path4130" fill="url(#linearGradient4219)" fill-opacity="1" stroke="none" d="m 515.7143,565.21856 0,14.00073 14,-14 z"/><path id="path4303" fill="url(#linearGradient4439)" fill-opacity="1" stroke="none" d="m 529.7143,565.21929 -14,14 12.05469,0 c 1.07728,0 1.94531,-0.86803 1.94531,-1.94531 l 0,-12.05469 z"/><path id="path4784" fill="url(#linearGradient4786)" fill-opacity="1" stroke="none" d="m 515.7143,579.21929 0,-14.00073 -14,14 z" opacity=".1"/><path id="rect846-0-4" fill="#000" fill-opacity="1" stroke="none" d="m 481.71428,576.21931 0,1.0625 c 0,1.0773 0.86022,1.9375 1.9375,1.9375 l 44.125,0 c 1.07728,0 1.9375,-0.8602 1.9375,-1.9375 l 0,-1.0625 c 0,1.0773 -0.86022,1.9375 -1.9375,1.9375 l -44.125,0 c -1.07728,0 -1.9375,-0.8602 -1.9375,-1.9375 z"/><path id="rect4280-1-1" fill="#000" fill-opacity=".392" stroke="none" d="m 483.65178,531.21931 c -1.07728,0 -1.9375,0.8602 -1.9375,1.9375 l 0,43.0625 c 0,0.7934 0.48002,1.449 1.15625,1.75 -0.30934,-0.3333 -0.5,-0.7824 -0.5,-1.2812 l 0,-42.9375 c 0,-1.0482 0.8269,-1.875 1.875,-1.875 l 42.9375,0 c 1.0481,0 1.875,0.8268 1.875,1.875 l 0,42.9375 c 0,0.4988 -0.19066,0.9479 -0.5,1.2812 0.67623,-0.301 1.15625,-0.9566 1.15625,-1.75 l 0,-43.0625 c 0,-1.0773 -0.86022,-1.9375 -1.9375,-1.9375 l -44.125,0 z"/></g></svg>