<svg xmlns="http://www.w3.org/2000/svg" xmlns:svg="http://www.w3.org/2000/svg" xmlns:xlink="http://www.w3.org/1999/xlink" id="svg6391" width="48" height="48" version="1.1"><defs id="defs6393"><linearGradient id="linearGradient4821"><stop id="stop4823" offset="0" stop-color="#fff2b9" stop-opacity="1"/><stop id="stop4825" offset="1" stop-color="#fffdf5" stop-opacity="1"/></linearGradient><linearGradient id="linearGradient4815"><stop id="stop4817" offset="0" stop-color="#ffd72d" stop-opacity="1"/><stop id="stop4819" offset="1" stop-color="#ffed91" stop-opacity="1"/></linearGradient><linearGradient id="linearGradient4788"><stop id="stop4790" offset="0" stop-color="#000" stop-opacity="1"/><stop id="stop4792" offset="1" stop-color="#000" stop-opacity="0"/></linearGradient><linearGradient id="linearGradient4433"><stop id="stop4435" offset="0" stop-color="#2b3141" stop-opacity="1"/><stop id="stop4437" offset="1" stop-color="#394056" stop-opacity="1"/></linearGradient><linearGradient id="linearGradient943"><stop id="stop945" offset="0" stop-color="#ffd936" stop-opacity="1"/><stop id="stop947" offset="1" stop-color="#ffdf37" stop-opacity="1"/></linearGradient><linearGradient id="linearGradient4117" x1="92.143" x2="92.143" y1="-1049.092" y2="-1001.09" gradientTransform="translate(416.82086,469.86871)" gradientUnits="userSpaceOnUse" xlink:href="#linearGradient943"/><linearGradient id="linearGradient4439" x1="42.957" x2="42.957" y1="48" y2="33.999" gradientTransform="translate(481.7143,531.21929)" gradientUnits="userSpaceOnUse" xlink:href="#linearGradient4433"/><linearGradient id="linearGradient4786" x1="458.571" x2="472.509" y1="871.361" y2="862.361" gradientTransform="matrix(-1,0,0,-1,974.28574,1441.5807)" gradientUnits="userSpaceOnUse" xlink:href="#linearGradient4788"/><linearGradient id="linearGradient4219" x1="465.571" x2="458.571" y1="869.362" y2="862.363" gradientTransform="translate(57.142859,-297.14289)" gradientUnits="userSpaceOnUse" xlink:href="#linearGradient4815"/><linearGradient id="linearGradient4712" x1="23.553" x2="23.553" y1="38.999" y2="9" gradientUnits="userSpaceOnUse" xlink:href="#linearGradient4821"/></defs><metadata id="metadata6396"/><g id="layer1" transform="translate(-481.71429,-531.2193)"><rect id="rect2991-1-7-3" width="48" height="48" x="481.714" y="-579.219" fill="url(#linearGradient4117)" fill-opacity="1" stroke="none" ry="1.945" transform="scale(1,-1)"/><path id="path4720" fill="#000" fill-opacity=".059" stroke="none" d="m 492.71429,541.4193 c -1.108,0 -2,0.892 -2,2 0,0.80155 0.47074,1.48514 1.14844,1.80469 1.04445,10.58613 7.93286,19.40247 17.41406,23.19531 l -14.83789,0 c -0.34556,-0.5958 -0.98354,-1 -1.72461,-1 -1.108,0 -2,0.892 -2,2 0,1.108 0.892,2 2,2 0.74107,0 1.37905,-0.4042 1.72461,-1 l 26.27539,0 0,-0.0254 0,-2 c -0.33231,0.0125 -0.66453,0.0254 -1,0.0254 -11.81914,0 -21.74102,-7.81035 -24.92383,-18.57031 0.90214,0.6821 1.95907,1.16732 3.10938,1.40429 0.31569,0.6876 1.00569,1.16602 1.81445,1.16602 1.108,0 2,-0.892 2,-2 0,-1.108 -0.892,-2 -2,-2 -0.66403,0 -1.24601,0.32507 -1.60938,0.82031 -2.08243,-0.50466 -3.70828,-2.12678 -4.21289,-4.20898 0.49651,-0.36324 0.82227,-0.94631 0.82227,-1.61133 0,-1.108 -0.892,-2 -2,-2 z m 0,1 c 0.554,0 1,0.446 1,1 0,0.554 -0.446,1 -1,1 -0.554,0 -1,-0.446 -1,-1 0,-0.554 0.446,-1 1,-1 z m 0.66406,2.87891 c -0.0506,0.0182 -0.10187,0.0327 -0.15429,0.0469 0.0525,-0.0138 0.10361,-0.029 0.15429,-0.0469 z m -0.30273,0.084 c -0.11732,0.022 -0.23724,0.0371 -0.36133,0.0371 0.1238,0 0.24387,-0.0158 0.36133,-0.0371 z m 6.63867,4.03711 c 0.554,0 1,0.446 1,1 0,0.554 -0.446,1 -1,1 -0.554,0 -1,-0.446 -1,-1 0,-0.554 0.446,-1 1,-1 z m -1.87695,0.33203 c -0.0189,0.0533 -0.0364,0.10678 -0.0508,0.16211 0.0148,-0.0551 0.0315,-0.10899 0.0508,-0.16211 z m -0.0859,0.30469 c -0.0215,0.11805 -0.0371,0.23882 -0.0371,0.36328 0,-0.12505 0.0148,-0.24524 0.0371,-0.36328 z m -5.03711,18.36328 c 0.554,0 1,0.446 1,1 0,0.554 -0.446,1 -1,1 -0.554,0 -1,-0.446 -1,-1 0,-0.554 0.446,-1 1,-1 z m 1.91016,0.43359 c 0.007,0.0222 0.0135,0.0439 0.0195,0.0664 -0.006,-0.0226 -0.013,-0.0441 -0.0195,-0.0664 z m 0.0195,1.06641 c -0.006,0.0225 -0.0127,0.0442 -0.0195,0.0664 0.007,-0.0223 0.0137,-0.0438 0.0195,-0.0664 z"/><path id="path4718" fill="#000" fill-opacity=".118" stroke="none" d="m 492.71429,541.0193 c -1.108,0 -2,0.892 -2,2 0,0.80155 0.47074,1.48514 1.14844,1.80469 1.04445,10.58613 7.93286,19.40247 17.41406,23.19531 l -14.83789,0 c -0.34556,-0.5958 -0.98354,-1 -1.72461,-1 -1.108,0 -2,0.892 -2,2 0,1.108 0.892,2 2,2 0.74107,0 1.37905,-0.4042 1.72461,-1 l 26.27539,0 0,-0.0254 0,-2 c -0.33231,0.0125 -0.66453,0.0254 -1,0.0254 -11.81914,0 -21.74102,-7.81035 -24.92383,-18.57031 0.90214,0.6821 1.95907,1.16732 3.10938,1.40429 0.31569,0.6876 1.00569,1.16602 1.81445,1.16602 1.108,0 2,-0.892 2,-2 0,-1.108 -0.892,-2 -2,-2 -0.66403,0 -1.24601,0.32507 -1.60938,0.82031 -2.08243,-0.50466 -3.70828,-2.12678 -4.21289,-4.20898 0.49651,-0.36324 0.82227,-0.94631 0.82227,-1.61133 0,-1.108 -0.892,-2 -2,-2 z m 0,1 c 0.554,0 1,0.446 1,1 0,0.554 -0.446,1 -1,1 -0.554,0 -1,-0.446 -1,-1 0,-0.554 0.446,-1 1,-1 z m 0.66406,2.87891 c -0.0506,0.0182 -0.10187,0.0327 -0.15429,0.0469 0.0525,-0.0138 0.10361,-0.029 0.15429,-0.0469 z m -0.30273,0.084 c -0.11732,0.022 -0.23724,0.0371 -0.36133,0.0371 0.1238,0 0.24387,-0.0158 0.36133,-0.0371 z m 6.63867,4.03711 c 0.554,0 1,0.446 1,1 0,0.554 -0.446,1 -1,1 -0.554,0 -1,-0.446 -1,-1 0,-0.554 0.446,-1 1,-1 z m -1.87695,0.33203 c -0.0189,0.0533 -0.0364,0.10678 -0.0508,0.16211 0.0148,-0.0551 0.0315,-0.10899 0.0508,-0.16211 z m -0.0859,0.30469 c -0.0215,0.11805 -0.0371,0.23882 -0.0371,0.36328 0,-0.12505 0.0148,-0.24524 0.0371,-0.36328 z m -5.03711,18.36328 c 0.554,0 1,0.446 1,1 0,0.554 -0.446,1 -1,1 -0.554,0 -1,-0.446 -1,-1 0,-0.554 0.446,-1 1,-1 z m 1.91016,0.43359 c 0.007,0.0222 0.0135,0.0439 0.0195,0.0664 -0.006,-0.0226 -0.013,-0.0441 -0.0195,-0.0664 z m 0.0195,1.06641 c -0.006,0.0225 -0.0127,0.0442 -0.0195,0.0664 0.007,-0.0223 0.0137,-0.0438 0.0195,-0.0664 z"/><path id="path4714" fill="#000" fill-opacity=".235" stroke="none" d="m 492.71429,540.6193 c -1.108,0 -2,0.892 -2,2 0,0.80155 0.47074,1.48514 1.14844,1.80469 1.04445,10.58613 7.93286,19.40247 17.41406,23.19531 l -14.83789,0 c -0.34556,-0.5958 -0.98354,-1 -1.72461,-1 -1.108,0 -2,0.892 -2,2 0,1.108 0.892,2 2,2 0.74107,0 1.37905,-0.4042 1.72461,-1 l 26.27539,0 0,-0.0254 0,-2 c -0.33231,0.0125 -0.66453,0.0254 -1,0.0254 -11.81914,0 -21.74102,-7.81035 -24.92383,-18.57031 0.90214,0.6821 1.95907,1.16732 3.10938,1.40429 0.31569,0.6876 1.00569,1.16602 1.81445,1.16602 1.108,0 2,-0.892 2,-2 0,-1.108 -0.892,-2 -2,-2 -0.66403,0 -1.24601,0.32507 -1.60938,0.82031 -2.08243,-0.50466 -3.70828,-2.12678 -4.21289,-4.20898 0.49651,-0.36324 0.82227,-0.94631 0.82227,-1.61133 0,-1.108 -0.892,-2 -2,-2 z m 0,1 c 0.554,0 1,0.446 1,1 0,0.554 -0.446,1 -1,1 -0.554,0 -1,-0.446 -1,-1 0,-0.554 0.446,-1 1,-1 z m 0.66406,2.87891 c -0.0506,0.0182 -0.10187,0.0327 -0.15429,0.0469 0.0525,-0.0138 0.10361,-0.029 0.15429,-0.0469 z m -0.30273,0.084 c -0.11732,0.022 -0.23724,0.0371 -0.36133,0.0371 0.1238,0 0.24387,-0.0158 0.36133,-0.0371 z m 6.63867,4.03711 c 0.554,0 1,0.446 1,1 0,0.554 -0.446,1 -1,1 -0.554,0 -1,-0.446 -1,-1 0,-0.554 0.446,-1 1,-1 z m -1.87695,0.33203 c -0.0189,0.0533 -0.0364,0.10678 -0.0508,0.16211 0.0148,-0.0551 0.0315,-0.10899 0.0508,-0.16211 z m -0.0859,0.30469 c -0.0215,0.11805 -0.0371,0.23882 -0.0371,0.36328 0,-0.12505 0.0148,-0.24524 0.0371,-0.36328 z m -5.03711,18.36328 c 0.554,0 1,0.446 1,1 0,0.554 -0.446,1 -1,1 -0.554,0 -1,-0.446 -1,-1 0,-0.554 0.446,-1 1,-1 z m 1.91016,0.43359 c 0.007,0.0222 0.0135,0.0439 0.0195,0.0664 -0.006,-0.0226 -0.013,-0.0441 -0.0195,-0.0664 z m 0.0195,1.06641 c -0.006,0.0225 -0.0127,0.0442 -0.0195,0.0664 0.007,-0.0223 0.0137,-0.0438 0.0195,-0.0664 z"/><path id="path7515-3" fill="#fff" fill-opacity=".537" stroke="none" d="m 484.24553,531.87561 c -0.91709,0 -1.67115,0.6395 -1.84375,1.5 0.33561,-0.2799 0.77451,-0.4375 1.25,-0.4375 l 44.125,0 c 0.47549,0 0.91439,0.1576 1.25,0.4375 -0.1726,-0.8605 -0.92666,-1.5 -1.84375,-1.5 l -42.9375,0 z"/><path id="rect4280-1" fill="#000" fill-opacity=".392" stroke="none" d="m 483.65178,531.21931 c -1.07728,0 -1.9375,0.8602 -1.9375,1.9375 l 0,43.0625 c 0,0.7934 0.48002,1.449 1.15625,1.75 -0.30934,-0.3333 -0.5,-0.7824 -0.5,-1.2812 l 0,-42.9375 c 0,-1.0482 0.8269,-1.875 1.875,-1.875 l 42.9375,0 c 1.0481,0 1.875,0.8268 1.875,1.875 l 0,42.9375 c 0,0.4988 -0.19066,0.9479 -0.5,1.2812 0.67623,-0.301 1.15625,-0.9566 1.15625,-1.75 l 0,-43.0625 c 0,-1.0773 -0.86022,-1.9375 -1.9375,-1.9375 l -44.125,0 z"/><path id="path4663" fill="url(#linearGradient4712)" fill-opacity="1" stroke="none" d="M 11 9 C 9.892 9 9 9.892 9 11 C 9 11.801545 9.4707394 12.485145 10.148438 12.804688 C 11.192889 23.390817 18.0813 32.207158 27.5625 36 L 12.724609 36 C 12.379048 35.404201 11.74107 35 11 35 C 9.892 35 9 35.892 9 37 C 9 38.108 9.892 39 11 39 C 11.74107 39 12.379048 38.595799 12.724609 38 L 39 38 L 39 37.974609 L 39 35.974609 C 38.667688 35.987076 38.33547 36 38 36 C 26.180858 36 16.258983 28.189651 13.076172 17.429688 C 13.978313 18.111794 15.035243 18.59701 16.185547 18.833984 C 16.501245 19.521585 17.191245 20 18 20 C 19.108 20 20 19.108 20 18 C 20 16.892 19.108 16 18 16 C 17.335973 16 16.753986 16.325073 16.390625 16.820312 C 14.308187 16.315649 12.682342 14.693528 12.177734 12.611328 C 12.674235 12.248092 13 11.665017 13 11 C 13 9.892 12.108 9 11 9 z M 11 10 C 11.554 10 12 10.446 12 11 C 12 11.554 11.554 12 11 12 C 10.446 12 10 11.554 10 11 C 10 10.446 10.446 10 11 10 z M 11.664062 12.878906 C 11.613466 12.897132 11.562187 12.911638 11.509766 12.925781 C 11.562248 12.911985 11.613384 12.896748 11.664062 12.878906 z M 11.361328 12.962891 C 11.244014 12.984853 11.124094 13 11 13 C 11.123796 13 11.243868 12.984218 11.361328 12.962891 z M 18 17 C 18.554 17 19 17.446 19 18 C 19 18.554 18.554 19 18 19 C 17.446 19 17 18.554 17 18 C 17 17.446 17.446 17 18 17 z M 16.123047 17.332031 C 16.10414 17.385364 16.086682 17.438806 16.072266 17.494141 C 16.087027 17.438999 16.103765 17.385149 16.123047 17.332031 z M 16.037109 17.636719 C 16.015558 17.754768 16 17.875542 16 18 C 16 17.874947 16.014848 17.754762 16.037109 17.636719 z M 11 36 C 11.554 36 12 36.446 12 37 C 12 37.554 11.554 38 11 38 C 10.446 38 10 37.554 10 37 C 10 36.446 10.446 36 11 36 z M 12.910156 36.433594 C 12.916968 36.455766 12.923638 36.477505 12.929688 36.5 C 12.923882 36.477426 12.916719 36.455847 12.910156 36.433594 z M 12.929688 37.5 C 12.923638 37.522495 12.916968 37.544234 12.910156 37.566406 C 12.916719 37.544153 12.923882 37.522574 12.929688 37.5 z" transform="translate(481.71429,531.2193)"/><rect id="rect4336" width="2" height="2" x="518.714" y="567.219" fill="#f0f" fill-opacity="1" stroke="none" ry="1"/><path id="path4722" fill="#ffd005" fill-opacity=".314" stroke="none" d="M 11 9.1992188 C 10.446 9.1992188 10 9.6452188 10 10.199219 C 10 10.34182 10.030648 10.477084 10.083984 10.599609 C 10.237867 10.246151 10.588618 10 11 10 C 11.411382 10 11.762133 10.246151 11.916016 10.599609 C 11.969352 10.477084 12 10.34182 12 10.199219 C 12 9.6452188 11.554 9.1992188 11 9.1992188 z M 9.0527344 10.558594 C 9.0208085 10.700923 9 10.847762 9 11 C 9 11.801545 9.4707389 12.485144 10.148438 12.804688 C 11.125328 22.706051 17.216362 31.056597 25.757812 35.199219 L 27.5625 35.199219 C 18.0813 31.406379 11.192887 22.590036 10.148438 12.003906 C 9.5764275 11.734191 9.1712485 11.199029 9.0527344 10.558594 z M 12.953125 10.578125 C 12.855099 11.082386 12.576725 11.518651 12.177734 11.810547 C 12.229292 12.023292 12.300741 12.227249 12.375 12.429688 C 12.753553 12.06718 13 11.567872 13 11 C 13 10.85496 12.982178 10.714246 12.953125 10.578125 z M 18 16.199219 C 17.446 16.199219 17 16.645219 17 17.199219 C 17 17.34182 17.030648 17.477084 17.083984 17.599609 C 17.237867 17.246151 17.588618 17 18 17 C 18.411382 17 18.762133 17.246151 18.916016 17.599609 C 18.969352 17.477084 19 17.34182 19 17.199219 C 19 16.645219 18.554 16.199219 18 16.199219 z M 13.076172 16.628906 C 13.180447 16.981423 13.311116 17.321955 13.429688 17.667969 C 14.251809 18.220646 15.179489 18.626727 16.185547 18.833984 C 16.501245 19.521585 17.191245 20 18 20 C 19.108 20 20 19.108 20 18 C 20 17.864149 19.984557 17.731626 19.958984 17.603516 C 19.773102 18.516523 18.9695 19.199219 18 19.199219 C 17.19124 19.199219 16.501237 18.720803 16.185547 18.033203 C 15.035237 17.796233 13.978312 17.311006 13.076172 16.628906 z M 11 35.199219 C 10.446 35.199219 10 35.645219 10 36.199219 C 10 36.34182 10.030648 36.477084 10.083984 36.599609 C 10.237867 36.246151 10.588618 36 11 36 C 11.411382 36 11.762133 36.246151 11.916016 36.599609 C 11.969352 36.477084 12 36.34182 12 36.199219 C 12 35.645219 11.554 35.199219 11 35.199219 z M 9.0410156 36.603516 C 9.0154427 36.731626 9 36.864149 9 37 C 9 38.108 9.892 39 11 39 C 11.74107 39 12.379048 38.595799 12.724609 38 L 39 38 L 39 37.974609 L 39 37.199219 L 12.724609 37.199219 C 12.379049 37.795019 11.74107 38.199219 11 38.199219 C 10.0305 38.199219 9.2268984 37.516523 9.0410156 36.603516 z" transform="translate(481.71429,531.2193)"/><path id="path4727" fill="#fff" fill-opacity=".235" stroke="none" d="M 11 9 C 9.892 9 9 9.892 9 11 C 9 11.057035 9.0187655 11.10831 9.0234375 11.164062 C 9.1408963 10.1696 9.9729404 9.4003906 11 9.4003906 C 12.033087 9.4003906 12.868934 10.178668 12.978516 11.181641 C 12.9842 11.120395 13 11.062824 13 11 C 13 9.892 12.108 9 11 9 z M 10.039062 11.199219 C 10.025028 11.266175 10 11.329143 10 11.400391 C 10 11.954391 10.446 12.400391 11 12.400391 C 11.554 12.400391 12 11.954391 12 11.400391 C 12 11.329143 11.974972 11.266175 11.960938 11.199219 C 11.866559 11.653836 11.483418 12 11 12 C 10.516582 12 10.133441 11.653836 10.039062 11.199219 z M 12.275391 12.921875 C 12.241435 12.95029 12.213523 12.985537 12.177734 13.011719 C 12.682344 15.093919 14.308195 16.716043 16.390625 17.220703 C 16.753995 16.725463 17.33597 16.400391 18 16.400391 C 19.039115 16.400391 19.878902 17.187742 19.980469 18.199219 C 19.987075 18.132791 20 18.068223 20 18 C 20 16.892 19.108 16 18 16 C 17.335973 16 16.753986 16.325073 16.390625 16.820312 C 14.41478 16.341482 12.861426 14.851171 12.275391 12.921875 z M 13.076172 17.830078 C 16.258982 28.590038 26.18086 36.400391 38 36.400391 C 38.33547 36.400391 38.66769 36.3875 39 36.375 L 39 35.974609 C 38.667688 35.987076 38.33547 36 38 36 C 26.373703 36 16.59789 28.435709 13.251953 17.947266 C 13.194638 17.906362 13.132303 17.872519 13.076172 17.830078 z M 17.039062 18.199219 C 17.025028 18.266175 17 18.329143 17 18.400391 C 17 18.954391 17.446 19.400391 18 19.400391 C 18.554 19.400391 19 18.954391 19 18.400391 C 19 18.329143 18.974972 18.266175 18.960938 18.199219 C 18.866559 18.653836 18.483418 19 18 19 C 17.516582 19 17.133441 18.653836 17.039062 18.199219 z M 11 35 C 9.892 35 9 35.892 9 37 C 9 37.068223 9.0129255 37.132791 9.0195312 37.199219 C 9.121098 36.187742 9.9608853 35.400391 11 35.400391 C 11.74107 35.400391 12.379049 35.804591 12.724609 36.400391 L 27.5625 36.400391 C 27.254265 36.277085 26.956939 36.133813 26.654297 36 L 12.724609 36 C 12.379048 35.404201 11.74107 35 11 35 z M 10.039062 37.199219 C 10.025028 37.266175 10 37.329143 10 37.400391 C 10 37.954391 10.446 38.400391 11 38.400391 C 11.554 38.400391 12 37.954391 12 37.400391 C 12 37.329143 11.974972 37.266175 11.960938 37.199219 C 11.866559 37.653836 11.483418 38 11 38 C 10.516582 38 10.133441 37.653836 10.039062 37.199219 z" transform="translate(481.71429,531.2193)"/><path id="path4784" fill="url(#linearGradient4786)" fill-opacity="1" stroke="none" d="m 515.7143,579.21929 0,-14.00073 -14,14 z" opacity=".1"/><path id="path4130" fill="url(#linearGradient4219)" fill-opacity="1" stroke="none" d="m 515.7143,565.21856 0,14.00073 14,-14 z"/><path id="path4303" fill="url(#linearGradient4439)" fill-opacity="1" stroke="none" d="m 529.7143,565.21929 -14,14 12.05469,0 c 1.07728,0 1.94531,-0.86803 1.94531,-1.94531 l 0,-12.05469 z"/><path id="rect846-0" fill="#000" fill-opacity="1" stroke="none" d="m 481.71428,576.21931 0,1.0625 c 0,1.0773 0.86022,1.9375 1.9375,1.9375 l 44.125,0 c 1.07728,0 1.9375,-0.8602 1.9375,-1.9375 l 0,-1.0625 c 0,1.0773 -0.86022,1.9375 -1.9375,1.9375 l -44.125,0 c -1.07728,0 -1.9375,-0.8602 -1.9375,-1.9375 z"/></g></svg>