<svg xmlns="http://www.w3.org/2000/svg" xmlns:svg="http://www.w3.org/2000/svg" xmlns:xlink="http://www.w3.org/1999/xlink" id="svg5453" width="48" height="48" version="1.1"><defs id="defs5455"><linearGradient id="linearGradient4788"><stop id="stop4790" offset="0" stop-color="#000" stop-opacity="1"/><stop id="stop4792" offset="1" stop-color="#000" stop-opacity="0"/></linearGradient><linearGradient id="linearGradient4433"><stop id="stop4435" offset="0" stop-color="#2b3141" stop-opacity="1"/><stop id="stop4437" offset="1" stop-color="#394056" stop-opacity="1"/></linearGradient><linearGradient id="linearGradient4117" x1="92.143" x2="92.143" y1="-1049.092" y2="-1001.09" gradientTransform="translate(319.67799,501.29004)" gradientUnits="userSpaceOnUse" xlink:href="#linearGradient943-2"/><linearGradient id="linearGradient4439" x1="42.957" x2="42.957" y1="48" y2="33.999" gradientTransform="translate(384.57143,499.79796)" gradientUnits="userSpaceOnUse" xlink:href="#linearGradient4433"/><linearGradient id="linearGradient4786" x1="458.571" x2="472.509" y1="871.361" y2="862.361" gradientTransform="matrix(-1,0,0,-1,877.14287,1410.1594)" gradientUnits="userSpaceOnUse" xlink:href="#linearGradient4788"/><linearGradient id="linearGradient4219" x1="465.571" x2="458.571" y1="869.362" y2="862.363" gradientTransform="translate(-40.000006,-328.56422)" gradientUnits="userSpaceOnUse" xlink:href="#linearGradient4349"/><linearGradient id="linearGradient4349"><stop id="stop4351" offset="0" stop-color="#6a76c2" stop-opacity="1"/><stop id="stop4353" offset="1" stop-color="#a6b0ea" stop-opacity="1"/></linearGradient><linearGradient id="linearGradient943-2"><stop id="stop945-2" offset="0" stop-color="#4e5db7" stop-opacity="1"/><stop id="stop947-4" offset="1" stop-color="#6475da" stop-opacity="1"/></linearGradient><linearGradient id="linearGradient4372"><stop id="stop4374" offset="0" stop-color="#cdd1eb" stop-opacity="1"/><stop id="stop4376" offset="1" stop-color="#f7f8fd" stop-opacity="1"/></linearGradient><linearGradient id="linearGradient4817" x1="26.75" x2="26.75" y1="39" y2="9" gradientUnits="userSpaceOnUse" xlink:href="#linearGradient4372"/></defs><metadata id="metadata5458"/><g id="layer1" transform="translate(-384.57143,-499.798)"><rect id="rect2991-1-7-3" width="48" height="48" x="384.571" y="-547.798" fill="url(#linearGradient4117)" fill-opacity="1" stroke="none" ry="1.945" transform="scale(1,-1)"/><path id="path4823" fill="#000" fill-opacity=".118" stroke="none" d="m 423.57143,509.598 -3,3 0,24 -19.74805,0 16.96094,-16.96094 0,-4.24414 -21.20508,21.20508 -0.008,0 -3,3 27,0 3,0 0,-3 0,-27 z"/><path id="path4825" fill="#000" fill-opacity=".059" stroke="none" d="m 423.57143,509.998 -3,3 0,24 -19.74805,0 16.96094,-16.96094 0,-4.24414 -21.20508,21.20508 -0.008,0 -3,3 27,0 3,0 0,-3 0,-27 z"/><path id="path4819" fill="#000" fill-opacity=".235" stroke="none" d="m 423.57143,509.198 -3,3 0,24 -19.74805,0 16.96094,-16.96094 0,-4.24414 -21.20508,21.20508 -0.008,0 -3,3 27,0 3,0 0,-3 0,-27 z"/><path id="rect4645" fill="url(#linearGradient4817)" fill-opacity="1" stroke="none" d="M 39 9 L 36 12 L 36 36 L 16.251953 36 L 33.212891 19.039062 L 33.212891 14.794922 L 12.007812 36 L 12 36 L 9 39 L 36 39 L 39 39 L 39 36 L 39 9 z" transform="translate(384.57143,499.798)"/><path id="path4827" fill="#4d5cb7" fill-opacity=".314" stroke="none" d="M 33.212891 18.238281 L 16.251953 35.199219 L 17.052734 35.199219 L 33.212891 19.039062 L 33.212891 18.238281 z M 9.8007812 38.199219 L 9 39 L 36 39 L 39 39 L 39 38.199219 L 36 38.199219 L 9.8007812 38.199219 z" transform="translate(384.57143,499.798)"/><path id="path4832" fill="#fff" fill-opacity=".235" stroke="none" d="M 39 9 L 36 12 L 36 12.400391 L 39 9.4003906 L 39 9 z M 33.212891 14.794922 L 12.007812 36 L 12 36 L 9 39 L 9.4003906 39 L 12 36.400391 L 12.007812 36.400391 L 33.212891 15.195312 L 33.212891 14.794922 z M 16.652344 36 L 16.251953 36.400391 L 36 36.400391 L 36 36 L 16.652344 36 z" transform="translate(384.57143,499.798)"/><path id="path4130" fill="url(#linearGradient4219)" fill-opacity="1" stroke="none" d="m 418.57143,533.79723 0,14.00073 14,-14 z"/><path id="path4303" fill="url(#linearGradient4439)" fill-opacity="1" stroke="none" d="m 432.57143,533.79796 -14,14 12.05469,0 c 1.07727,0 1.94531,-0.86803 1.94531,-1.94531 l 0,-12.05469 z"/><path id="path4784" fill="url(#linearGradient4786)" fill-opacity="1" stroke="none" d="m 418.57143,547.79796 0,-14.00073 -14,14 z" opacity=".1"/><path id="rect846-0" fill="#000" fill-opacity="1" stroke="none" d="m 384.57141,544.79798 0,1.0625 c 0,1.0773 0.86022,1.9375 1.9375,1.9375 l 44.125,0 c 1.07728,0 1.9375,-0.8602 1.9375,-1.9375 l 0,-1.0625 c 0,1.0773 -0.86022,1.9375 -1.9375,1.9375 l -44.125,0 c -1.07728,0 -1.9375,-0.8602 -1.9375,-1.9375 z"/><path id="rect4280-1" fill="#000" fill-opacity=".392" stroke="none" d="m 386.50891,499.79798 c -1.07728,0 -1.9375,0.8602 -1.9375,1.9375 l 0,43.0625 c 0,0.7934 0.48002,1.449 1.15625,1.75 -0.30934,-0.3333 -0.5,-0.7824 -0.5,-1.2812 l 0,-42.9375 c 0,-1.0482 0.8269,-1.875 1.875,-1.875 l 42.9375,0 c 1.0481,0 1.875,0.8268 1.875,1.875 l 0,42.9375 c 0,0.4988 -0.19066,0.9479 -0.5,1.2812 0.67623,-0.301 1.15625,-0.9566 1.15625,-1.75 l 0,-43.0625 c 0,-1.0773 -0.86022,-1.9375 -1.9375,-1.9375 l -44.125,0 z"/><path id="path7515-3" fill="#fff" fill-opacity=".537" stroke="none" d="m 387.10266,500.45428 c -0.91709,0 -1.67115,0.6395 -1.84375,1.5 0.33561,-0.2799 0.77451,-0.4375 1.25,-0.4375 l 44.125,0 c 0.47549,0 0.91439,0.1576 1.25,0.4375 -0.1726,-0.8605 -0.92666,-1.5 -1.84375,-1.5 l -42.9375,0 z"/></g></svg>