<svg xmlns="http://www.w3.org/2000/svg" xmlns:svg="http://www.w3.org/2000/svg" xmlns:xlink="http://www.w3.org/1999/xlink" id="svg4214" width="48" height="48" version="1.1"><defs id="defs4216"><linearGradient id="linearGradient4788"><stop id="stop4790" offset="0" stop-color="#000" stop-opacity="1"/><stop id="stop4792" offset="1" stop-color="#000" stop-opacity="0"/></linearGradient><linearGradient id="linearGradient4433"><stop id="stop4435" offset="0" stop-color="#2b3141" stop-opacity="1"/><stop id="stop4437" offset="1" stop-color="#394056" stop-opacity="1"/></linearGradient><linearGradient id="linearGradient4117" x1="92.143" x2="92.143" y1="-1049.092" y2="-1001.09" gradientTransform="translate(-64.89343,-3.27419)" gradientUnits="userSpaceOnUse" xlink:href="#linearGradient943-9"/><linearGradient id="linearGradient4439" x1="42.957" x2="42.957" y1="48" y2="33.999" gradientTransform="translate(1e-5,1004.3622)" gradientUnits="userSpaceOnUse" xlink:href="#linearGradient4433"/><linearGradient id="linearGradient4786" x1="458.571" x2="472.509" y1="871.361" y2="862.361" gradientTransform="matrix(-1,0,0,-1,492.57145,1914.7236)" gradientUnits="userSpaceOnUse" xlink:href="#linearGradient4788"/><linearGradient id="linearGradient4219" x1="465.571" x2="458.571" y1="869.362" y2="862.363" gradientTransform="translate(-424.57143,176.00001)" gradientUnits="userSpaceOnUse" xlink:href="#linearGradient4264"/><style id="style1115" type="text/css"><![CDATA[ .fil0 {fill:#1F1A17} ]]></style><style id="style1246" type="text/css"><![CDATA[ .fil0 {fill:#1F1A17} ]]></style><linearGradient id="linearGradient4264"><stop id="stop4266" offset="0" stop-color="#ff7e2d" stop-opacity="1"/><stop id="stop4268" offset="1" stop-color="#ffbb91" stop-opacity="1"/></linearGradient><linearGradient id="linearGradient943-9"><stop id="stop945-2" offset="0" stop-color="#ff6403" stop-opacity="1"/><stop id="stop947-5" offset="1" stop-color="#ff9553" stop-opacity="1"/></linearGradient><linearGradient id="linearGradient4234" x1="25.279" x2="25.279" y1="39" y2="9" gradientUnits="userSpaceOnUse" xlink:href="#linearGradient4270"/><linearGradient id="linearGradient4270"><stop id="stop4272" offset="0" stop-color="#ffd4b9" stop-opacity="1"/><stop id="stop4274" offset="1" stop-color="#fff9f5" stop-opacity="1"/></linearGradient></defs><metadata id="metadata4219"/><g id="layer1" transform="translate(0,-1004.3622)"><rect id="rect2991-1-7-3" width="48" height="48" x="0" y="-1052.362" fill="url(#linearGradient4117)" fill-opacity="1" stroke="none" ry="1.945" transform="scale(1,-1)"/><path id="path4326" fill="#000" fill-opacity=".059" stroke="none" d="m 9,1014.5622 0,9 0,5 0,9 0,7 9,0 0,-7 12,0 9,0 0,-9 0,-5 0,-9 -9,0 -21,0 z m 9,9 12,0 0,5 -12,0 0,-5 z"/><path id="path4324" fill="#000" fill-opacity=".118" stroke="none" d="m 9,1014.1622 0,9 0,5 0,9 0,7 9,0 0,-7 12,0 9,0 0,-9 0,-5 0,-9 -9,0 -21,0 z m 9,9 12,0 0,5 -12,0 0,-5 z"/><path id="path4320" fill="#000" fill-opacity=".235" stroke="none" d="m 9,1013.7622 0,9 0,5 0,9 0,7 9,0 0,-7 12,0 9,0 0,-9 0,-5 0,-9 -9,0 -21,0 z m 9,9 12,0 0,5 -12,0 0,-5 z"/><path id="path7515-3" fill="#fff" fill-opacity=".537" stroke="none" d="m 2.53124,1005.0185 c -0.91709,0 -1.67115,0.6395 -1.84375,1.5 0.33561,-0.2799 0.77451,-0.4375 1.25,-0.4375 l 44.125,0 c 0.47549,0 0.91439,0.1576 1.25,0.4375 -0.1726,-0.8605 -0.92666,-1.5 -1.84375,-1.5 l -42.9375,0 z"/><path id="rect4225" fill="url(#linearGradient4234)" fill-opacity="1" stroke="none" d="M 9 9 L 9 18 L 9 23 L 9 32 L 9 39 L 18 39 L 18 32 L 30 32 L 39 32 L 39 23 L 39 18 L 39 9 L 30 9 L 9 9 z M 18 18 L 30 18 L 30 23 L 18 23 L 18 18 z" transform="translate(0,1004.3622)"/><path id="path4328" fill="#ff7118" fill-opacity=".314" stroke="none" d="M 18 17.199219 L 18 18 L 30 18 L 30 17.199219 L 18 17.199219 z M 18 31.199219 L 18 32 L 30 32 L 39 32 L 39 31.199219 L 30 31.199219 L 18 31.199219 z M 9 38.199219 L 9 39 L 18 39 L 18 38.199219 L 9 38.199219 z" transform="translate(0,1004.3622)"/><path id="path4333" fill="#fff" fill-opacity=".235" stroke="none" d="M 9 9 L 9 9.4003906 L 30 9.4003906 L 39 9.4003906 L 39 9 L 30 9 L 9 9 z M 18 23 L 18 23.400391 L 30 23.400391 L 30 23 L 18 23 z" transform="translate(0,1004.3622)"/><path id="path4130" fill="url(#linearGradient4219)" fill-opacity="1" stroke="none" d="m 34.00001,1038.3615 0,14.0007 14,-14 z"/><path id="path4303" fill="url(#linearGradient4439)" fill-opacity="1" stroke="none" d="m 48.00001,1038.3622 -14,14 12.054688,0 c 1.077277,0 1.945312,-0.868 1.945312,-1.9453 l 0,-12.0547 z"/><path id="path4784" fill="url(#linearGradient4786)" fill-opacity="1" stroke="none" d="m 34.00001,1052.3622 0,-14.0007 -14,14 z" opacity=".1"/><path id="rect846-0-3" fill="#000" fill-opacity="1" stroke="none" d="m -1e-5,1049.3622 0,1.0625 c 0,1.0773 0.86022,1.9375 1.9375,1.9375 l 44.125,0 c 1.07728,0 1.9375,-0.8602 1.9375,-1.9375 l 0,-1.0625 c 0,1.0773 -0.86022,1.9375 -1.9375,1.9375 l -44.125,0 c -1.07728,0 -1.9375,-0.8602 -1.9375,-1.9375 z"/><path id="rect4280-1" fill="#000" fill-opacity=".392" stroke="none" d="m 1.93749,1004.3622 c -1.07728,0 -1.9375,0.8602 -1.9375,1.9375 l 0,43.0625 c 0,0.7934 0.48002,1.449 1.15625,1.75 -0.30934,-0.3333 -0.5,-0.7824 -0.5,-1.2812 l 0,-42.9375 c 0,-1.0482 0.8269,-1.875 1.875,-1.875 l 42.9375,0 c 1.0481,0 1.875,0.8268 1.875,1.875 l 0,42.9375 c 0,0.4988 -0.19066,0.9479 -0.5,1.2812 0.67623,-0.301 1.15625,-0.9566 1.15625,-1.75 l 0,-43.0625 c 0,-1.0773 -0.86022,-1.9375 -1.9375,-1.9375 l -44.125,0 z"/></g></svg>