<svg xmlns="http://www.w3.org/2000/svg" xmlns:svg="http://www.w3.org/2000/svg" xmlns:xlink="http://www.w3.org/1999/xlink" id="svg4768" width="48" height="48" version="1.1"><defs id="defs4770"><linearGradient id="linearGradient4392"><stop id="stop4394" offset="0" stop-color="#cbd7ed" stop-opacity="1"/><stop id="stop4396" offset="1" stop-color="#f8f9fc" stop-opacity="1"/></linearGradient><linearGradient id="linearGradient4386"><stop id="stop4388" offset="0" stop-color="#6486c8" stop-opacity="1"/><stop id="stop4390" offset="1" stop-color="#b5c1db" stop-opacity="1"/></linearGradient><linearGradient id="linearGradient4788"><stop id="stop4790" offset="0" stop-color="#000" stop-opacity="1"/><stop id="stop4792" offset="1" stop-color="#000" stop-opacity="0"/></linearGradient><linearGradient id="linearGradient4433"><stop id="stop4435" offset="0" stop-color="#2b3141" stop-opacity="1"/><stop id="stop4437" offset="1" stop-color="#394056" stop-opacity="1"/></linearGradient><linearGradient id="linearGradient4117" x1="92.143" x2="92.143" y1="-1049.092" y2="-1001.09" gradientTransform="translate(172.23334,577.30868)" gradientUnits="userSpaceOnUse" xlink:href="#linearGradient943"/><linearGradient id="linearGradient4439" x1="42.957" x2="42.957" y1="48" y2="33.999" gradientTransform="translate(237.12678,423.77932)" gradientUnits="userSpaceOnUse" xlink:href="#linearGradient4433"/><linearGradient id="linearGradient4786" x1="458.571" x2="472.509" y1="871.361" y2="862.361" gradientTransform="matrix(-1,0,0,-1,729.69822,1334.1407)" gradientUnits="userSpaceOnUse" xlink:href="#linearGradient4788"/><linearGradient id="linearGradient4219" x1="465.571" x2="458.571" y1="869.362" y2="862.363" gradientTransform="translate(-187.44466,-404.58286)" gradientUnits="userSpaceOnUse" xlink:href="#linearGradient4386"/><linearGradient id="linearGradient4453" x1="25" x2="25" y1="39" y2="9" gradientUnits="userSpaceOnUse" xlink:href="#linearGradient4392"/><linearGradient id="linearGradient943"><stop id="stop945" offset="0" stop-color="#263e6c" stop-opacity="1"/><stop id="stop947" offset="1" stop-color="#5370ac" stop-opacity="1"/></linearGradient></defs><metadata id="metadata4773"/><g id="layer1" transform="translate(-237.12677,-423.77933)"><g id="layer1-2" transform="translate(-2.6391602e-6,-3.6962891e-6)"><rect id="rect2991-1-7-3" width="48" height="48" x="237.127" y="-471.779" fill="url(#linearGradient4117)" fill-opacity="1" stroke="none" ry="1.945" transform="scale(1,-1)"/><path id="path4485" fill="#000" fill-opacity=".059" stroke="none" d="m 258.12677,433.97933 0,3 3,0 0,1 -3,0 0,3 3,0 0,1 -3,0 0,3 3,0 0,1 -3,0 0,3 3,0 0,-2 3,0 0,-3 -3,0 0,-1 3,0 0,-3 -3,0 0,-1 3,0 0,-3 -3,0 0,-2 -3,0 z m 2,16 -2.5,3 0,11 7,0 0,-11 -2.5,-3 -2,0 z m -0.5,9 3,0 0,3 -3,0 0,-3 z"/><path id="path4483" fill="#000" fill-opacity=".118" stroke="none" d="m 258.12677,433.57933 0,3 3,0 0,1 -3,0 0,3 3,0 0,1 -3,0 0,3 3,0 0,1 -3,0 0,3 3,0 0,-2 3,0 0,-3 -3,0 0,-1 3,0 0,-3 -3,0 0,-1 3,0 0,-3 -3,0 0,-2 -3,0 z m 2,16 -2.5,3 0,11 7,0 0,-11 -2.5,-3 -2,0 z m -0.5,9 3,0 0,3 -3,0 0,-3 z"/><path id="path4130" fill="url(#linearGradient4219)" fill-opacity="1" stroke="none" d="m 271.12678,457.77859 0,14.00073 14,-14 z"/><path id="path4303" fill="url(#linearGradient4439)" fill-opacity="1" stroke="none" d="m 285.12678,457.77932 -14,14 12.05469,0 c 1.07727,0 1.94531,-0.86804 1.94531,-1.94531 l 0,-12.05469 z"/><path id="path4784" fill="url(#linearGradient4786)" fill-opacity="1" stroke="none" d="m 271.12678,471.77932 0,-14.00073 -14,14 z" opacity=".1"/><path id="rect846-0-2" fill="#000" fill-opacity="1" stroke="none" d="m 237.12676,468.77934 0,1.0625 c 0,1.0773 0.86022,1.9375 1.9375,1.9375 l 44.125,0 c 1.07728,0 1.9375,-0.8602 1.9375,-1.9375 l 0,-1.0625 c 0,1.0773 -0.86022,1.9375 -1.9375,1.9375 l -44.125,0 c -1.07728,0 -1.9375,-0.8602 -1.9375,-1.9375 z"/><path id="path7515-3" fill="#fff" fill-opacity=".537" stroke="none" d="m 239.65801,424.43564 c -0.91709,0 -1.67115,0.6395 -1.84375,1.5 0.33561,-0.2799 0.77451,-0.4375 1.25,-0.4375 l 44.125,0 c 0.47549,0 0.91439,0.1576 1.25,0.4375 -0.1726,-0.8605 -0.92666,-1.5 -1.84375,-1.5 l -42.9375,0 z"/><path id="rect4280-1" fill="#000" fill-opacity=".392" stroke="none" d="m 239.06426,423.77934 c -1.07728,0 -1.9375,0.8602 -1.9375,1.9375 l 0,43.0625 c 0,0.7934 0.48002,1.449 1.15625,1.75 -0.30934,-0.3333 -0.5,-0.7824 -0.5,-1.2812 l 0,-42.9375 c 0,-1.0482 0.8269,-1.875 1.875,-1.875 l 42.9375,0 c 1.0481,0 1.875,0.8268 1.875,1.875 l 0,42.9375 c 0,0.4988 -0.19066,0.9479 -0.5,1.2812 0.67623,-0.301 1.15625,-0.9566 1.15625,-1.75 l 0,-43.0625 c 0,-1.0773 -0.86022,-1.9375 -1.9375,-1.9375 l -44.125,0 z"/><path id="path4479" fill="#000" fill-opacity=".235" stroke="none" d="m 258.12677,433.17933 0,3 3,0 0,1 -3,0 0,3 3,0 0,1 -3,0 0,3 3,0 0,1 -3,0 0,3 3,0 0,-2 3,0 0,-3 -3,0 0,-1 3,0 0,-3 -3,0 0,-1 3,0 0,-3 -3,0 0,-2 -3,0 z m 2,16 -2.5,3 0,11 7,0 0,-11 -2.5,-3 -2,0 z m -0.5,9 3,0 0,3 -3,0 0,-3 z"/><path id="rect4212" fill="url(#linearGradient4453)" fill-opacity="1" stroke="none" d="m 21,9 0,3 3,0 0,1 -3,0 0,3 3,0 0,1 -3,0 0,3 3,0 0,1 -3,0 0,3 3,0 0,-2 3,0 0,-3 -3,0 0,-1 3,0 0,-3 -3,0 0,-1 3,0 0,-3 -3,0 0,-2 -3,0 z m 2,16 -2.5,3 0,11 7,0 0,-11 -2.5,-3 -2,0 z m -0.5,9 3,0 0,3 -3,0 0,-3 z" transform="translate(237.12677,423.77933)"/><path id="path4487" fill="#344d7f" fill-opacity=".314" stroke="none" d="M 21,11.199219 21,12 l 3,0 0,-0.800781 -3,0 z m 3,2 L 24,14 l 3,0 0,-0.800781 -3,0 z m -3,2 L 21,16 l 3,0 0,-0.800781 -3,0 z m 3,2 L 24,18 l 3,0 0,-0.800781 -3,0 z m -3,2 L 21,20 l 3,0 0,-0.800781 -3,0 z m 3,2 L 24,22 l 3,0 0,-0.800781 -3,0 z m -3,2 L 21,24 l 3,0 0,-0.800781 -3,0 z m 1.5,10 0,0.800781 3,0 0,-0.800781 -3,0 z m -2,5 0,0.800781 7,0 0,-0.800781 -7,0 z" transform="translate(237.12677,423.77933)"/><path id="path4515" fill="#fff" fill-opacity=".235" stroke="none" d="m 21,9 0,0.4003906 3,0 L 24,9 21,9 Z m 3,2 0,0.400391 3,0 L 27,11 24,11 Z m -3,2 0,0.400391 3,0 L 24,13 21,13 Z m 3,2 0,0.400391 3,0 L 27,15 24,15 Z m -3,2 0,0.400391 3,0 L 24,17 21,17 Z m 3,2 0,0.400391 3,0 L 27,19 24,19 Z m -3,2 0,0.400391 3,0 L 24,21 21,21 Z m 2,4 -2.5,3 0,0.400391 2.5,-3 2,0 2.5,3 L 27.5,28 25,25 23,25 Z m -0.5,12 0,0.400391 3,0 0,-0.400391 -3,0 z" transform="translate(237.12677,423.77933)"/></g></g></svg>