<svg xmlns="http://www.w3.org/2000/svg" xmlns:svg="http://www.w3.org/2000/svg" xmlns:xlink="http://www.w3.org/1999/xlink" id="svg6391" width="48" height="48" version="1.1"><defs id="defs6393"><style id="style874" type="text/css"><![CDATA[
    .fil0 {fill:#1F1A17}
   ]]></style><linearGradient id="linearGradient4788"><stop id="stop4790" offset="0" stop-color="#000" stop-opacity="1"/><stop id="stop4792" offset="1" stop-color="#000" stop-opacity="0"/></linearGradient><linearGradient id="linearGradient4433"><stop id="stop4435" offset="0" stop-color="#2b3141" stop-opacity="1"/><stop id="stop4437" offset="1" stop-color="#394056" stop-opacity="1"/></linearGradient><linearGradient id="linearGradient4117" x1="93.261" x2="93.261" y1="-1047.751" y2="-1001.088" gradientTransform="translate(416.82086,469.86871)" gradientUnits="userSpaceOnUse" xlink:href="#linearGradient4095"/><linearGradient id="linearGradient4439" x1="42.957" x2="42.957" y1="48" y2="33.999" gradientTransform="translate(481.7143,531.21929)" gradientUnits="userSpaceOnUse" xlink:href="#linearGradient4433"/><linearGradient id="linearGradient4786" x1="458.571" x2="472.509" y1="871.361" y2="862.361" gradientTransform="matrix(-1,0,0,-1,974.28574,1441.5807)" gradientUnits="userSpaceOnUse" xlink:href="#linearGradient4788"/><linearGradient id="linearGradient4219" x1="465.571" x2="458.571" y1="869.362" y2="862.363" gradientTransform="translate(57.14286,-297.14289)" gradientUnits="userSpaceOnUse" xlink:href="#linearGradient4095"/><linearGradient id="linearGradient4292" x1="20.474" x2="20.474" y1="39" y2="9" gradientUnits="userSpaceOnUse" xlink:href="#linearGradient4298"/><style id="style1115" type="text/css"><![CDATA[ .fil0 {fill:#1F1A17} ]]></style><style id="style1246" type="text/css"><![CDATA[ .fil0 {fill:#1F1A17} ]]></style><linearGradient id="linearGradient4095"><stop id="stop4097" offset="0" stop-color="#dc507f" stop-opacity="1"/><stop id="stop4099" offset="1" stop-color="#f29ec0" stop-opacity="1"/></linearGradient><linearGradient id="linearGradient4298"><stop id="stop4300" offset="0" stop-color="#f3c5d4" stop-opacity="1"/><stop id="stop4302" offset="1" stop-color="#fef6f9" stop-opacity="1"/></linearGradient></defs><metadata id="metadata6396"/><g id="layer1" transform="translate(-481.71429,-531.2193)"><rect id="rect2991-1-7-3-1" width="48" height="48" x="481.714" y="-579.219" fill="url(#linearGradient4117)" fill-opacity="1" stroke="none" ry="1.945" transform="scale(1,-1)"/><path id="path4306" fill="#000" fill-opacity=".059" stroke="none" d="m 490.71429,541.4193 0,23 23,0 0,7 7,-7 0,-23 -30,0 z m 3,3 24,0 0,17 -21,0 0,-3 -3,0 0,-3 3,0 0,-3 -3,0 0,-8 z m 3,8 3,0 0,-3 -3,0 0,3 z m 3,-3 3,0 0,-3 -3,0 0,3 z m 3,0 0,3 3,0 0,-3 -3,0 z m -6,6 0,3 3,0 0,-3 -3,0 z"/><path id="path4304" fill="#000" fill-opacity=".118" stroke="none" d="m 490.71429,541.0193 0,23 23,0 0,7 7,-7 0,-23 -30,0 z m 3,3 24,0 0,17 -21,0 0,-3 -3,0 0,-3 3,0 0,-3 -3,0 0,-8 z m 3,8 3,0 0,-3 -3,0 0,3 z m 3,-3 3,0 0,-3 -3,0 0,3 z m 3,0 0,3 3,0 0,-3 -3,0 z m -6,6 0,3 3,0 0,-3 -3,0 z"/><path id="path4300" fill="#000" fill-opacity=".235" stroke="none" d="m 490.71429,540.6193 0,23 23,0 0,7 7,-7 0,-23 -30,0 z m 3,3 24,0 0,17 -21,0 0,-3 -3,0 0,-3 3,0 0,-3 -3,0 0,-8 z m 3,8 3,0 0,-3 -3,0 0,3 z m 3,-3 3,0 0,-3 -3,0 0,3 z m 3,0 0,3 3,0 0,-3 -3,0 z m -6,6 0,3 3,0 0,-3 -3,0 z"/><path id="rect4239" fill="url(#linearGradient4292)" fill-opacity="1" stroke="none" d="M 9 9 L 9 32 L 32 32 L 32 39 L 39 32 L 39 9 L 9 9 z M 12 12 L 36 12 L 36 29 L 15 29 L 15 26 L 12 26 L 12 23 L 15 23 L 15 20 L 12 20 L 12 12 z M 15 20 L 18 20 L 18 17 L 15 17 L 15 20 z M 18 17 L 21 17 L 21 14 L 18 14 L 18 17 z M 21 17 L 21 20 L 24 20 L 24 17 L 21 17 z M 15 23 L 15 26 L 18 26 L 18 23 L 15 23 z" transform="translate(481.71429,531.2193)"/><path id="path7515-3-4" fill="#fff" fill-opacity=".537" stroke="none" d="m 484.24553,531.87561 c -0.91709,0 -1.67115,0.6395 -1.84375,1.5 0.33561,-0.2799 0.77451,-0.4375 1.25,-0.4375 l 44.125,0 c 0.47549,0 0.91439,0.1576 1.25,0.4375 -0.1726,-0.8605 -0.92666,-1.5 -1.84375,-1.5 l -42.9375,0 z"/><path id="path4308" fill="#de4e81" fill-opacity=".314" stroke="none" d="M 12 11.199219 L 12 12 L 36 12 L 36 11.199219 L 12 11.199219 z M 18 16.199219 L 18 17 L 21 17 L 21 16.199219 L 18 16.199219 z M 15 19.199219 L 15 20 L 18 20 L 18 19.199219 L 15 19.199219 z M 21 19.199219 L 21 20 L 24 20 L 24 19.199219 L 21 19.199219 z M 12 22.199219 L 12 23 L 15 23 L 15 22.199219 L 12 22.199219 z M 15 25.199219 L 15 26 L 18 26 L 18 25.199219 L 15 25.199219 z M 9 31.199219 L 9 32 L 32 32 L 32 31.199219 L 9 31.199219 z M 39 31.199219 L 32 38.199219 L 32 39 L 39 32 L 39 31.199219 z" transform="translate(481.71429,531.2193)"/><path id="path4313" fill="#fff" fill-opacity=".235" stroke="none" d="M 9 9 L 9 9.4003906 L 39 9.4003906 L 39 9 L 9 9 z M 18 14 L 18 14.400391 L 21 14.400391 L 21 14 L 18 14 z M 15 17 L 15 17.400391 L 18 17.400391 L 18 17 L 15 17 z M 21 17 L 21 17.400391 L 24 17.400391 L 24 17 L 21 17 z M 12 20 L 12 20.400391 L 15 20.400391 L 15 20 L 12 20 z M 15 23 L 15 23.400391 L 18 23.400391 L 18 23 L 15 23 z M 12 26 L 12 26.400391 L 15 26.400391 L 15 26 L 12 26 z M 15 29 L 15 29.400391 L 36 29.400391 L 36 29 L 15 29 z" transform="translate(481.71429,531.2193)"/><path id="path4784" fill="url(#linearGradient4786)" fill-opacity="1" stroke="none" d="m 515.7143,579.21929 0,-14.00073 -14,14 z" opacity=".1"/><path id="rect846-0-2" fill="#000" fill-opacity="1" stroke="none" d="m 481.71428,576.21931 0,1.0625 c 0,1.0773 0.86022,1.9375 1.9375,1.9375 l 44.125,0 c 1.07728,0 1.9375,-0.8602 1.9375,-1.9375 l 0,-1.0625 c 0,1.0773 -0.86022,1.9375 -1.9375,1.9375 l -44.125,0 c -1.07728,0 -1.9375,-0.8602 -1.9375,-1.9375 z"/><path id="path4130" fill="url(#linearGradient4219)" fill-opacity="1" stroke="none" d="m 515.7143,565.21856 0,14.00073 14,-14 z"/><path id="path4303" fill="url(#linearGradient4439)" fill-opacity="1" stroke="none" d="m 529.7143,565.21929 -14,14 12.05469,0 c 1.07727,0 1.94531,-0.86804 1.94531,-1.94531 l 0,-12.05469 z"/><path id="rect4280-1-6" fill="#000" fill-opacity=".392" stroke="none" d="m 483.65178,531.21931 c -1.07728,0 -1.9375,0.8602 -1.9375,1.9375 l 0,43.0625 c 0,0.7934 0.48002,1.449 1.15625,1.75 -0.30934,-0.3333 -0.5,-0.7824 -0.5,-1.2812 l 0,-42.9375 c 0,-1.0482 0.8269,-1.875 1.875,-1.875 l 42.9375,0 c 1.0481,0 1.875,0.8268 1.875,1.875 l 0,42.9375 c 0,0.4988 -0.19066,0.9479 -0.5,1.2812 0.67623,-0.301 1.15625,-0.9566 1.15625,-1.75 l 0,-43.0625 c 0,-1.0773 -0.86022,-1.9375 -1.9375,-1.9375 l -44.125,0 z"/></g></svg>