<svg xmlns="http://www.w3.org/2000/svg" xmlns:svg="http://www.w3.org/2000/svg" xmlns:xlink="http://www.w3.org/1999/xlink" id="svg6654" width="48" height="48" version="1.1"><defs id="defs6656"><linearGradient id="linearGradient4265"><stop id="stop4267" offset="0" stop-color="#dadcde" stop-opacity="1"/><stop id="stop4269" offset="1" stop-color="#fafafa" stop-opacity="1"/></linearGradient><linearGradient id="linearGradient4503"><stop id="stop4505" offset="0" stop-color="#90959c" stop-opacity="1"/><stop id="stop4507" offset="1" stop-color="#c4c8cc" stop-opacity="1"/></linearGradient><linearGradient id="linearGradient4461"><stop id="stop4463" offset="0" stop-color="#45484d" stop-opacity="1"/><stop id="stop4465" offset="1" stop-color="#5e656b" stop-opacity="1"/></linearGradient><linearGradient id="linearGradient4788-0"><stop id="stop4790-5" offset="0" stop-color="#000" stop-opacity="1"/><stop id="stop4792-9" offset="1" stop-color="#000" stop-opacity="0"/></linearGradient><linearGradient id="linearGradient4433-1"><stop id="stop4435-3" offset="0" stop-color="#2b3141" stop-opacity="1"/><stop id="stop4437-1" offset="1" stop-color="#394056" stop-opacity="1"/></linearGradient><linearGradient id="linearGradient4117-99" x1="92.143" x2="92.143" y1="-1049.092" y2="-1001.09" gradientTransform="translate(102.53514,189.8687)" gradientUnits="userSpaceOnUse" xlink:href="#linearGradient4461"/><linearGradient id="linearGradient4439-9" x1="42.957" x2="42.957" y1="48" y2="33.999" gradientTransform="translate(167.42858,811.21931)" gradientUnits="userSpaceOnUse" xlink:href="#linearGradient4433-1"/><linearGradient id="linearGradient4786-8" x1="458.571" x2="472.509" y1="871.361" y2="862.361" gradientTransform="matrix(-1,0,0,-1,660.00002,1721.5807)" gradientUnits="userSpaceOnUse" xlink:href="#linearGradient4788-0"/><linearGradient id="linearGradient4219-1" x1="465.571" x2="458.571" y1="869.362" y2="862.363" gradientTransform="translate(-257.14286,-17.14288)" gradientUnits="userSpaceOnUse" xlink:href="#linearGradient4503"/><style id="style1115" type="text/css"><![CDATA[ .fil0 {fill:#1F1A17} ]]></style><style id="style1246" type="text/css"><![CDATA[ .fil0 {fill:#1F1A17} ]]></style><linearGradient id="linearGradient4263" x1="24.724" x2="24.724" y1="39" y2="9" gradientUnits="userSpaceOnUse" xlink:href="#linearGradient4265"/></defs><metadata id="metadata6659"/><g id="layer1" transform="translate(-167.42857,-811.2193)"><rect id="rect2991-1-7-3-2" width="48" height="48" x="167.429" y="-859.219" fill="url(#linearGradient4117-99)" fill-opacity="1" stroke="none" ry="1.945" transform="scale(1,-1)"/><path id="path4118" fill="#000" fill-opacity=".059" stroke="none" d="m 176.42857,821.4193 0,4 0,24 0,2 3,0 24,0 3,0 0,-2 0,-24 0,-4 -30,0 z m 3,4 24,0 0,24 -24,0 0,-24 z m 2.90039,17 0,5 5,0 0,-5 -5,0 z m 6.54883,0 0,5 5,0 0,-5 -5,0 z m 6.55078,0 0,5 5,0 0,-5 -5,0 z"/><path id="path4116" fill="#000" fill-opacity=".118" stroke="none" d="m 176.42857,821.0193 0,4 0,24 0,2 3,0 24,0 3,0 0,-2 0,-24 0,-4 -30,0 z m 3,4 24,0 0,24 -24,0 0,-24 z m 2.90039,17 0,5 5,0 0,-5 -5,0 z m 6.54883,0 0,5 5,0 0,-5 -5,0 z m 6.55078,0 0,5 5,0 0,-5 -5,0 z"/><path id="path4112" fill="#000" fill-opacity=".235" stroke="none" d="m 176.42857,820.6193 0,4 0,24 0,2 3,0 24,0 3,0 0,-2 0,-24 0,-4 -30,0 z m 3,4 24,0 0,24 -24,0 0,-24 z m 2.90039,17 0,5 5,0 0,-5 -5,0 z m 6.54883,0 0,5 5,0 0,-5 -5,0 z m 6.55078,0 0,5 5,0 0,-5 -5,0 z"/><path id="rect4207" fill="url(#linearGradient4263)" fill-opacity="1" stroke="none" d="M 9 9 L 9 13 L 9 37 L 9 39 L 12 39 L 36 39 L 39 39 L 39 37 L 39 13 L 39 9 L 9 9 z M 12 13 L 36 13 L 36 37 L 12 37 L 12 13 z M 14.900391 30 L 14.900391 35 L 19.900391 35 L 19.900391 30 L 14.900391 30 z M 21.449219 30 L 21.449219 35 L 26.449219 35 L 26.449219 30 L 21.449219 30 z M 28 30 L 28 35 L 33 35 L 33 30 L 28 30 z" transform="translate(167.42857,811.2193)"/><path id="path7515-3-1" fill="#fff" fill-opacity=".537" stroke="none" d="m 169.95981,811.87561 c -0.91709,0 -1.67115,0.6395 -1.84375,1.5 0.33561,-0.2799 0.77451,-0.4375 1.25,-0.4375 l 44.125,0 c 0.47549,0 0.91439,0.1576 1.25,0.4375 -0.1726,-0.8605 -0.92666,-1.5 -1.84375,-1.5 l -42.9375,0 z"/><path id="path4120" fill="#4b4f54" fill-opacity=".314" stroke="none" d="M 12 12.199219 L 12 13 L 36 13 L 36 12.199219 L 12 12.199219 z M 14.900391 34.199219 L 14.900391 35 L 19.900391 35 L 19.900391 34.199219 L 14.900391 34.199219 z M 21.449219 34.199219 L 21.449219 35 L 26.449219 35 L 26.449219 34.199219 L 21.449219 34.199219 z M 28 34.199219 L 28 35 L 33 35 L 33 34.199219 L 28 34.199219 z M 9 38.199219 L 9 39 L 12 39 L 36 39 L 39 39 L 39 38.199219 L 36 38.199219 L 12 38.199219 L 9 38.199219 z" transform="translate(167.42857,811.2193)"/><path id="path4125" fill="#fff" fill-opacity=".235" stroke="none" d="M 9 9 L 9 9.4003906 L 39 9.4003906 L 39 9 L 9 9 z M 14.900391 30 L 14.900391 30.400391 L 19.900391 30.400391 L 19.900391 30 L 14.900391 30 z M 21.449219 30 L 21.449219 30.400391 L 26.449219 30.400391 L 26.449219 30 L 21.449219 30 z M 28 30 L 28 30.400391 L 33 30.400391 L 33 30 L 28 30 z M 12 37 L 12 37.400391 L 36 37.400391 L 36 37 L 12 37 z" transform="translate(167.42857,811.2193)"/><path id="path4130-6" fill="url(#linearGradient4219-1)" fill-opacity="1" stroke="none" d="m 201.42858,845.21861 0,14.0007 14,-14 z"/><path id="path4303-7" fill="url(#linearGradient4439-9)" fill-opacity="1" stroke="none" d="m 215.42858,845.21931 -14,14 12.05469,0 c 1.07728,0 1.94531,-0.868 1.94531,-1.9453 l 0,-12.0547 z"/><path id="path4784-3" fill="url(#linearGradient4786-8)" fill-opacity="1" stroke="none" d="m 201.42858,859.21931 0,-14.0007 -14,14 z" opacity=".1"/><path id="rect846-0-3" fill="#000" fill-opacity="1" stroke="none" d="m 167.42856,856.21931 0,1.0625 c 0,1.0773 0.86022,1.9375 1.9375,1.9375 l 44.125,0 c 1.07728,0 1.9375,-0.8602 1.9375,-1.9375 l 0,-1.0625 c 0,1.0773 -0.86022,1.9375 -1.9375,1.9375 l -44.125,0 c -1.07728,0 -1.9375,-0.8602 -1.9375,-1.9375 z"/><path id="rect4280-1-7" fill="#000" fill-opacity=".392" stroke="none" d="m 169.36606,811.21931 c -1.07728,0 -1.9375,0.8602 -1.9375,1.9375 l 0,43.0625 c 0,0.7934 0.48002,1.449 1.15625,1.75 -0.30934,-0.3333 -0.5,-0.7824 -0.5,-1.2812 l 0,-42.9375 c 0,-1.0482 0.8269,-1.875 1.875,-1.875 l 42.9375,0 c 1.0481,0 1.875,0.8268 1.875,1.875 l 0,42.9375 c 0,0.4988 -0.19066,0.9479 -0.5,1.2812 0.67623,-0.301 1.15625,-0.9566 1.15625,-1.75 l 0,-43.0625 c 0,-1.0773 -0.86022,-1.9375 -1.9375,-1.9375 l -44.125,0 z"/></g></svg>