<svg xmlns="http://www.w3.org/2000/svg" xmlns:svg="http://www.w3.org/2000/svg" xmlns:xlink="http://www.w3.org/1999/xlink" id="svg6654" width="48" height="48" version="1.1"><defs id="defs6656"><linearGradient id="linearGradient4320"><stop id="stop4322" offset="0" stop-color="#cdd1eb" stop-opacity="1"/><stop id="stop4324" offset="1" stop-color="#f7f8fd" stop-opacity="1"/></linearGradient><linearGradient id="linearGradient4349"><stop id="stop4351" offset="0" stop-color="#6a76c2" stop-opacity="1"/><stop id="stop4353" offset="1" stop-color="#a6b0ea" stop-opacity="1"/></linearGradient><linearGradient id="linearGradient4117-2" x1="92.143" x2="92.143" y1="-1049.092" y2="-1001.09" gradientTransform="translate(102.53512,189.86871)" gradientUnits="userSpaceOnUse" xlink:href="#linearGradient943-7"/><linearGradient id="linearGradient943-7"><stop id="stop945-7" offset="0" stop-color="#4e5db7" stop-opacity="1"/><stop id="stop947-5" offset="1" stop-color="#6475da" stop-opacity="1"/></linearGradient><linearGradient id="linearGradient4219" x1="465.571" x2="458.571" y1="869.362" y2="862.363" gradientTransform="translate(-257.14288,-17.14289)" gradientUnits="userSpaceOnUse" xlink:href="#linearGradient4349"/><linearGradient id="linearGradient4439" x1="42.957" x2="42.957" y1="48" y2="33.999" gradientTransform="translate(167.42856,811.21929)" gradientUnits="userSpaceOnUse" xlink:href="#linearGradient4433"/><linearGradient id="linearGradient4433"><stop id="stop4435" offset="0" stop-color="#2b3141" stop-opacity="1"/><stop id="stop4437" offset="1" stop-color="#394056" stop-opacity="1"/></linearGradient><linearGradient id="linearGradient4786" x1="458.571" x2="472.509" y1="871.361" y2="862.361" gradientTransform="matrix(-1,0,0,-1,660,1721.5807)" gradientUnits="userSpaceOnUse" xlink:href="#linearGradient4788"/><linearGradient id="linearGradient4788"><stop id="stop4790" offset="0" stop-color="#000" stop-opacity="1"/><stop id="stop4792-7" offset="1" stop-color="#000" stop-opacity="0"/></linearGradient><linearGradient id="linearGradient4318" x1="25.721" x2="25.721" y1="39" y2="9" gradientUnits="userSpaceOnUse" xlink:href="#linearGradient4320"/></defs><metadata id="metadata6659"/><g id="layer1" transform="translate(-167.42857,-811.2193)"><flowRoot id="flowRoot4913" fill="#000" fill-opacity="1" stroke="none" font-family="sans-serif" font-size="40" font-style="normal" font-weight="normal" letter-spacing="0" transform="translate(-208.57144,397.14281)" word-spacing="0" xml:space="preserve" style="line-height:125%"><flowRegion id="flowRegion4915"><rect id="rect4917" width="199.404" height="189.505" x="134.35" y="-275.855"/></flowRegion><flowPara id="flowPara4919"/></flowRoot><rect id="rect2991-1-7-3" width="48" height="48" x="167.429" y="-859.219" fill="url(#linearGradient4117-2)" fill-opacity="1" stroke="none" ry="1.945" transform="scale(1,-1)"/><path id="path4332" fill="#000" fill-opacity=".059" stroke="none" d="m 182.42857,821.4193 0,3 -3,0 -3,0 0,3 0,5 0,3 16.5,0 0,4 -2,0 0,12 7,0 0,-12 -2,0 0,-7 -16.5,0 0,-5 3,0 0,3 24,0 0,-9 -24,0 z"/><path id="path4330" fill="#000" fill-opacity=".118" stroke="none" d="m 182.42857,821.0193 0,3 -3,0 -3,0 0,3 0,5 0,3 16.5,0 0,4 -2,0 0,12 7,0 0,-12 -2,0 0,-7 -16.5,0 0,-5 3,0 0,3 24,0 0,-9 -24,0 z"/><path id="path4326" fill="#000" fill-opacity=".235" stroke="none" d="m 182.42857,820.6193 0,3 -3,0 -3,0 0,3 0,5 0,3 16.5,0 0,4 -2,0 0,12 7,0 0,-12 -2,0 0,-7 -16.5,0 0,-5 3,0 0,3 24,0 0,-9 -24,0 z"/><path id="path7515-3-3" fill="#fff" fill-opacity=".537" stroke="none" d="m 169.95979,811.87561 c -0.91709,0 -1.67115,0.6395 -1.84375,1.5 0.33561,-0.2799 0.77451,-0.4375 1.25,-0.4375 l 44.125,0 c 0.47549,0 0.91439,0.1576 1.25,0.4375 -0.1726,-0.8605 -0.92666,-1.5 -1.84375,-1.5 l -42.9375,0 z"/><path id="rect4299" fill="url(#linearGradient4318)" fill-opacity="1" stroke="none" d="M 15 9 L 15 12 L 12 12 L 9 12 L 9 15 L 9 20 L 9 23 L 25.5 23 L 25.5 27 L 23.5 27 L 23.5 39 L 30.5 39 L 30.5 27 L 28.5 27 L 28.5 20 L 12 20 L 12 15 L 15 15 L 15 18 L 39 18 L 39 9 L 15 9 z" transform="translate(167.42857,811.2193)"/><path id="path4334" fill="#5666c2" fill-opacity=".314" stroke="none" d="M 12 14.199219 L 12 15 L 15 15 L 15 14.199219 L 12 14.199219 z M 15 17.199219 L 15 18 L 39 18 L 39 17.199219 L 15 17.199219 z M 9 22.199219 L 9 23 L 25.5 23 L 25.5 22.199219 L 9 22.199219 z M 23.5 38.199219 L 23.5 39 L 30.5 39 L 30.5 38.199219 L 23.5 38.199219 z" transform="translate(167.42857,811.2193)"/><path id="path4339" fill="#fff" fill-opacity=".235" stroke="none" d="M 15 9 L 15 9.4003906 L 39 9.4003906 L 39 9 L 15 9 z M 9 12 L 9 12.400391 L 12 12.400391 L 15 12.400391 L 15 12 L 12 12 L 9 12 z M 12 20 L 12 20.400391 L 28.5 20.400391 L 28.5 20 L 12 20 z M 23.5 27 L 23.5 27.400391 L 25.5 27.400391 L 25.5 27 L 23.5 27 z M 28.5 27 L 28.5 27.400391 L 30.5 27.400391 L 30.5 27 L 28.5 27 z" transform="translate(167.42857,811.2193)"/><path id="path4130" fill="url(#linearGradient4219)" fill-opacity="1" stroke="none" d="m 201.42856,845.21856 0,14.00073 14,-14 z"/><path id="path4303" fill="url(#linearGradient4439)" fill-opacity="1" stroke="none" d="m 215.42856,845.21929 -14,14 12.05469,0 c 1.07727,0 1.94531,-0.86804 1.94531,-1.94532 l 0,-12.05468 z"/><path id="path4784" fill="url(#linearGradient4786)" fill-opacity="1" stroke="none" d="m 201.42856,859.21929 0,-14.00073 -14,14 z" opacity=".1"/><path id="rect846-0-5" fill="#000" fill-opacity="1" stroke="none" d="m 167.42854,856.21931 0,1.0625 c 0,1.0773 0.86022,1.9375 1.9375,1.9375 l 44.125,0 c 1.07728,0 1.9375,-0.8602 1.9375,-1.9375 l 0,-1.0625 c 0,1.0773 -0.86022,1.9375 -1.9375,1.9375 l -44.125,0 c -1.07728,0 -1.9375,-0.8602 -1.9375,-1.9375 z"/><path id="rect4280-1-9" fill="#000" fill-opacity=".392" stroke="none" d="m 169.36604,811.21931 c -1.07728,0 -1.9375,0.8602 -1.9375,1.9375 l 0,43.0625 c 0,0.7934 0.48002,1.449 1.15625,1.75 -0.30934,-0.3333 -0.5,-0.7824 -0.5,-1.2812 l 0,-42.9375 c 0,-1.0482 0.8269,-1.875 1.875,-1.875 l 42.9375,0 c 1.0481,0 1.875,0.8268 1.875,1.875 l 0,42.9375 c 0,0.4988 -0.19066,0.9479 -0.5,1.2812 0.67623,-0.301 1.15625,-0.9566 1.15625,-1.75 l 0,-43.0625 c 0,-1.0773 -0.86022,-1.9375 -1.9375,-1.9375 l -44.125,0 z"/></g></svg>