<svg xmlns="http://www.w3.org/2000/svg" xmlns:svg="http://www.w3.org/2000/svg" xmlns:xlink="http://www.w3.org/1999/xlink" id="svg6536" width="48" height="48" version="1.1"><defs id="defs6538"><linearGradient id="linearGradient4342"><stop id="stop4344" offset="0" stop-color="#fff2b9" stop-opacity="1"/><stop id="stop4346" offset="1" stop-color="#fffdf5" stop-opacity="1"/></linearGradient><linearGradient id="linearGradient4433"><stop id="stop4435" offset="0" stop-color="#2b3141" stop-opacity="1"/><stop id="stop4437" offset="1" stop-color="#394056" stop-opacity="1"/></linearGradient><linearGradient id="linearGradient4117-6" x1="92.143" x2="92.143" y1="-1049.092" y2="-1001.09" gradientTransform="translate(456.82086,395.58294)" gradientUnits="userSpaceOnUse" xlink:href="#linearGradient943"/><linearGradient id="linearGradient4439" x1="42.957" x2="42.957" y1="48" y2="33.999" gradientTransform="translate(521.7143,605.50506)" gradientUnits="userSpaceOnUse" xlink:href="#linearGradient4433"/><linearGradient id="linearGradient4219" x1="465.571" x2="458.571" y1="869.362" y2="862.363" gradientTransform="translate(97.142859,-222.85712)" gradientUnits="userSpaceOnUse" xlink:href="#linearGradient4815"/><linearGradient id="linearGradient4786-3" x1="458.571" x2="472.509" y1="871.361" y2="862.361" gradientTransform="matrix(-1,0,0,-1,1014.2858,1515.8664)" gradientUnits="userSpaceOnUse" xlink:href="#linearGradient4788-2"/><linearGradient id="linearGradient4788-2"><stop id="stop4790-4" offset="0" stop-color="#000" stop-opacity="1"/><stop id="stop4792-5" offset="1" stop-color="#000" stop-opacity="0"/></linearGradient><linearGradient id="linearGradient4815"><stop id="stop4817" offset="0" stop-color="#ffd72d" stop-opacity="1"/><stop id="stop4819" offset="1" stop-color="#ffed91" stop-opacity="1"/></linearGradient><linearGradient id="linearGradient943"><stop id="stop945" offset="0" stop-color="#ffd936" stop-opacity="1"/><stop id="stop947" offset="1" stop-color="#ffdf37" stop-opacity="1"/></linearGradient><linearGradient id="linearGradient4340" x1="24.13" x2="24.13" y1="39" y2="9" gradientUnits="userSpaceOnUse" xlink:href="#linearGradient4342"/></defs><metadata id="metadata6541"/><g id="layer1" transform="translate(-521.71429,-605.50507)"><rect id="rect2991-1-7-3-9" width="48" height="48" x="521.714" y="-653.505" fill="url(#linearGradient4117-6)" fill-opacity="1" stroke="none" ry="1.945" transform="scale(1,-1)"/><path id="path4354" fill="#000" fill-opacity=".059" stroke="none" d="m 545.71429,615.70507 c -1.70924,0 -7.78449,10.21353 -9.51953,16.93164 -0.30948,0.96661 -0.48047,1.9964 -0.48047,3.06836 0,5.54 4.46,10 10,10 5.54,0 10,-4.46 10,-10 0,-1.09314 -0.17867,-2.14192 -0.5,-3.125 -1.77378,-6.71877 -7.88068,-16.875 -9.5,-16.875 z"/><path id="path4352" fill="#000" fill-opacity=".118" stroke="none" d="m 545.71429,615.30507 c -1.70924,0 -7.78449,10.21353 -9.51953,16.93164 -0.30948,0.96661 -0.48047,1.9964 -0.48047,3.06836 0,5.54 4.46,10 10,10 5.54,0 10,-4.46 10,-10 0,-1.09314 -0.17867,-2.14192 -0.5,-3.125 -1.77378,-6.71877 -7.88068,-16.875 -9.5,-16.875 z"/><path id="path4348" fill="#000" fill-opacity=".235" stroke="none" d="m 545.71429,614.90507 c -1.70924,0 -7.78449,10.21353 -9.51953,16.93164 -0.30948,0.96661 -0.48047,1.9964 -0.48047,3.06836 0,5.54 4.46,10 10,10 5.54,0 10,-4.46 10,-10 0,-1.09314 -0.17867,-2.14192 -0.5,-3.125 -1.77378,-6.71877 -7.88068,-16.875 -9.5,-16.875 z"/><path id="path4130" fill="url(#linearGradient4219)" fill-opacity="1" stroke="none" d="m 555.7143,639.50433 0,14.00073 14,-14 z"/><path id="path4303" fill="url(#linearGradient4439)" fill-opacity="1" stroke="none" d="m 569.7143,639.50506 -14,14 12.05469,0 c 1.07728,0 1.94531,-0.86804 1.94531,-1.94531 l 0,-12.05469 z"/><path id="rect4280-1-4" fill="#000" fill-opacity=".392" stroke="none" d="m 523.65178,605.50508 c -1.07728,0 -1.9375,0.8602 -1.9375,1.9375 l 0,43.0625 c 0,0.7934 0.48002,1.449 1.15625,1.75 -0.30934,-0.3333 -0.5,-0.7824 -0.5,-1.2812 l 0,-42.9375 c 0,-1.0482 0.8269,-1.875 1.875,-1.875 l 42.9375,0 c 1.0481,0 1.875,0.8268 1.875,1.875 l 0,42.9375 c 0,0.4988 -0.19066,0.9479 -0.5,1.2812 0.67623,-0.301 1.15625,-0.9566 1.15625,-1.75 l 0,-43.0625 c 0,-1.0773 -0.86022,-1.9375 -1.9375,-1.9375 l -44.125,0 z"/><path id="path7515-3-6" fill="#fff" fill-opacity=".537" stroke="none" d="m 524.24553,606.16138 c -0.91709,0 -1.67115,0.6395 -1.84375,1.5 0.33561,-0.2799 0.77451,-0.4375 1.25,-0.4375 l 44.125,0 c 0.47549,0 0.91439,0.1576 1.25,0.4375 -0.1726,-0.8605 -0.92666,-1.5 -1.84375,-1.5 l -42.9375,0 z"/><path id="path4784-5" fill="url(#linearGradient4786-3)" fill-opacity="1" stroke="none" d="m 555.7143,653.50503 0,-14.0007 -14,14 z" opacity=".1"/><path id="rect846-0-7" fill="#000" fill-opacity="1" stroke="none" d="m 521.71428,650.50508 0,1.0625 c 0,1.0773 0.86022,1.9375 1.9375,1.9375 l 44.125,0 c 1.07728,0 1.9375,-0.8602 1.9375,-1.9375 l 0,-1.0625 c 0,1.0773 -0.86022,1.9375 -1.9375,1.9375 l -44.125,0 c -1.07728,0 -1.9375,-0.8602 -1.9375,-1.9375 z"/><path id="rect4254" fill="url(#linearGradient4340)" fill-opacity="1" stroke="none" d="M 24 9 C 22.290762 9 16.215512 19.213533 14.480469 25.931641 C 14.170986 26.898248 14 27.928035 14 29 C 14 34.54 18.46 39 24 39 C 29.54 39 34 34.54 34 29 C 34 27.906855 33.82133 26.858079 33.5 25.875 C 31.726222 19.156231 25.619317 9 24 9 z" transform="translate(521.71429,605.50507)"/><path id="path4356" fill="#ffda2d" fill-opacity=".314" stroke="none" d="M 14.017578 28.552734 C 14.010902 28.701793 14 28.849214 14 29 C 14 34.54 18.46 39 24 39 C 29.54 39 34 34.54 34 29 C 34 28.852496 33.98884 28.708336 33.982422 28.5625 C 33.790912 33.931448 29.417335 38.199219 24 38.199219 C 18.579375 38.199219 14.204108 33.926283 14.017578 28.552734 z" transform="translate(521.71429,605.50507)"/><path id="path4361" fill="#fff" fill-opacity=".235" stroke="none" d="M 24 9 C 22.290762 9 16.215512 19.213533 14.480469 25.931641 C 14.170986 26.898248 14 27.928035 14 29 C 14 29.06 14.006771 29.117992 14.007812 29.177734 C 14.029881 28.186216 14.192603 27.231132 14.480469 26.332031 C 16.215509 19.613921 22.29076 9.4003906 24 9.4003906 C 25.61932 9.4003906 31.72622 19.556621 33.5 26.275391 C 33.799699 27.192292 33.967951 28.167749 33.990234 29.181641 C 33.991324 29.120562 34 29.061349 34 29 C 34 27.906855 33.82133 26.858079 33.5 25.875 C 31.726222 19.156231 25.619317 9 24 9 z" transform="translate(521.71429,605.50507)"/></g></svg>