<svg xmlns="http://www.w3.org/2000/svg" xmlns:svg="http://www.w3.org/2000/svg" xmlns:xlink="http://www.w3.org/1999/xlink" id="svg4214" width="48" height="48" version="1.1"><defs id="defs4216"><style id="style1115" type="text/css"><![CDATA[ .fil0 {fill:#1F1A17} ]]></style><style id="style1246" type="text/css"><![CDATA[ .fil0 {fill:#1F1A17} ]]></style><linearGradient id="linearGradient4788"><stop id="stop4790" offset="0" stop-color="#000" stop-opacity="1"/><stop id="stop4792" offset="1" stop-color="#000" stop-opacity="0"/></linearGradient><linearGradient id="linearGradient4433"><stop id="stop4435" offset="0" stop-color="#2b3141" stop-opacity="1"/><stop id="stop4437" offset="1" stop-color="#394056" stop-opacity="1"/></linearGradient><linearGradient id="linearGradient4117" x1="92.143" x2="92.143" y1="-1049.092" y2="-1001.09" gradientTransform="translate(-64.89343,-3.27419)" gradientUnits="userSpaceOnUse" xlink:href="#linearGradient4461"/><linearGradient id="linearGradient4439" x1="42.957" x2="42.957" y1="48" y2="33.999" gradientTransform="translate(1e-5,1004.3622)" gradientUnits="userSpaceOnUse" xlink:href="#linearGradient4433"/><linearGradient id="linearGradient4786" x1="458.571" x2="472.509" y1="871.361" y2="862.361" gradientTransform="matrix(-1,0,0,-1,492.57145,1914.7236)" gradientUnits="userSpaceOnUse" xlink:href="#linearGradient4788"/><linearGradient id="linearGradient4219" x1="465.571" x2="458.571" y1="869.362" y2="862.363" gradientTransform="translate(-424.57143,176.00001)" gradientUnits="userSpaceOnUse" xlink:href="#linearGradient4503"/><style id="style1115-8" type="text/css"><![CDATA[ .fil0 {fill:#1F1A17} ]]></style><style id="style1246-0" type="text/css"><![CDATA[ .fil0 {fill:#1F1A17} ]]></style><linearGradient id="linearGradient4413" x1="27" x2="27" y1="39" y2="9" gradientUnits="userSpaceOnUse" xlink:href="#linearGradient4509"/><linearGradient id="linearGradient4509"><stop id="stop4511" offset="0" stop-color="#dadcde" stop-opacity="1"/><stop id="stop4513" offset="1" stop-color="#fafafa" stop-opacity="1"/></linearGradient><linearGradient id="linearGradient4503"><stop id="stop4505" offset="0" stop-color="#90959c" stop-opacity="1"/><stop id="stop4507" offset="1" stop-color="#c4c8cc" stop-opacity="1"/></linearGradient><linearGradient id="linearGradient4461"><stop id="stop4463" offset="0" stop-color="#45484d" stop-opacity="1"/><stop id="stop4465" offset="1" stop-color="#5e656b" stop-opacity="1"/></linearGradient></defs><metadata id="metadata4219"/><g id="layer1" transform="translate(0,-1004.3622)"><g id="layer1-0" transform="translate(-8.2519532e-7,8.6914065e-6)"><rect id="rect2991-1-7-3" width="48" height="48" x="0" y="-1052.362" fill="url(#linearGradient4117)" fill-opacity="1" stroke="none" ry="1.945" transform="scale(1,-1)"/><path id="path4427" fill="#000" fill-opacity=".059" stroke="none" d="m 9,1014.5622 0,9 0,1.5 0,5.5 0,3.5 21,0 0,1.5 -21,0 0,9 30,0 0,-9 0,-1.5 0,-5.5 0,-3.5 -21,0 0,-1.5 21,0 0,-9 -21,0 -9,0 z"/><path id="path4425" fill="#000" fill-opacity=".118" stroke="none" d="m 9,1014.1622 0,9 0,1.5 0,5.5 0,3.5 21,0 0,1.5 -21,0 0,9 30,0 0,-9 0,-1.5 0,-5.5 0,-3.5 -21,0 0,-1.5 21,0 0,-9 -21,0 -9,0 z"/><path id="path4421" fill="#000" fill-opacity=".235" stroke="none" d="m 9,1013.7622 0,9 0,1.5 0,5.5 0,3.5 21,0 0,1.5 -21,0 0,9 30,0 0,-9 0,-1.5 0,-5.5 0,-3.5 -21,0 0,-1.5 21,0 0,-9 -21,0 -9,0 z"/><path id="rect4327" fill="url(#linearGradient4413)" fill-opacity="1" stroke="none" d="m 9,9 0,9 0,1.5 0,5.5 0,3.5 21,0 0,1.5 -21,0 0,9 30,0 0,-9 0,-1.5 0,-5.5 0,-3.5 -21,0 0,-1.5 21,0 0,-9 -21,0 -9,0 z" transform="translate(0,1004.3622)"/><path id="path7515-3" fill="#fff" fill-opacity=".537" stroke="none" d="m 2.53124,1005.0185 c -0.91709,0 -1.67115,0.6395 -1.84375,1.5 0.33561,-0.2799 0.77451,-0.4375 1.25,-0.4375 l 44.125,0 c 0.47549,0 0.91439,0.1576 1.25,0.4375 -0.1726,-0.8605 -0.92666,-1.5 -1.84375,-1.5 l -42.9375,0 z"/><path id="path4429" fill="#4c5055" fill-opacity=".314" stroke="none" d="M 18,17.199219 18,18 l 21,0 0,-0.800781 -21,0 z m -9,10.5 0,0.800781 21,0 0,-0.800781 -21,0 z m 0,10.5 L 9,39 l 30,0 0,-0.800781 -30,0 z" transform="translate(0,1004.3622)"/><path id="path4434" fill="#fff" fill-opacity=".235" stroke="none" d="m 9,9 0,0.4003906 9,0 21,0 L 39,9 18,9 9,9 Z m 9,10.5 0,0.400391 21,0 L 39,19.5 18,19.5 Z M 9,30 l 0,0.400391 21,0 L 30,30 9,30 Z" transform="translate(0,1004.3622)"/><path id="rect4280-1" fill="#000" fill-opacity=".392" stroke="none" d="m 1.93749,1004.3622 c -1.07728,0 -1.9375,0.8602 -1.9375,1.9375 l 0,43.0625 c 0,0.7934 0.48002,1.449 1.15625,1.75 -0.30934,-0.3333 -0.5,-0.7824 -0.5,-1.2812 l 0,-42.9375 c 0,-1.0482 0.8269,-1.875 1.875,-1.875 l 42.9375,0 c 1.0481,0 1.875,0.8268 1.875,1.875 l 0,42.9375 c 0,0.4988 -0.19066,0.9479 -0.5,1.2812 0.67623,-0.301 1.15625,-0.9566 1.15625,-1.75 l 0,-43.0625 c 0,-1.0773 -0.86022,-1.9375 -1.9375,-1.9375 l -44.125,0 z"/><path id="path4130" fill="url(#linearGradient4219)" fill-opacity="1" stroke="none" d="m 34.00001,1038.3615 0,14.0007 14,-14 z"/><path id="path4303" fill="url(#linearGradient4439)" fill-opacity="1" stroke="none" d="m 48.00001,1038.3622 -14,14 12.054688,0 c 1.077277,0 1.945312,-0.868 1.945312,-1.9453 l 0,-12.0547 z"/><path id="path4784" fill="url(#linearGradient4786)" fill-opacity="1" stroke="none" d="m 34.00001,1052.3622 0,-14.0007 -14,14 z" opacity=".1"/><path id="rect846-0-3" fill="#000" fill-opacity="1" stroke="none" d="m -1e-5,1049.3622 0,1.0625 c 0,1.0773 0.86022,1.9375 1.9375,1.9375 l 44.125,0 c 1.07728,0 1.9375,-0.8602 1.9375,-1.9375 l 0,-1.0625 c 0,1.0773 -0.86022,1.9375 -1.9375,1.9375 l -44.125,0 c -1.07728,0 -1.9375,-0.8602 -1.9375,-1.9375 z"/></g></g></svg>