<svg xmlns="http://www.w3.org/2000/svg" xmlns:svg="http://www.w3.org/2000/svg" xmlns:xlink="http://www.w3.org/1999/xlink" id="svg6654" width="48" height="48" version="1.1"><defs id="defs6656"><linearGradient id="linearGradient4357"><stop id="stop4359" offset="0" stop-color="#f5c3c3" stop-opacity="1"/><stop id="stop4361" offset="1" stop-color="#fff" stop-opacity="1"/></linearGradient><linearGradient id="linearGradient4273"><stop id="stop4275" offset="0" stop-color="#e14b4b" stop-opacity="1"/><stop id="stop4277" offset="1" stop-color="#f19fa0" stop-opacity="1"/></linearGradient><linearGradient id="linearGradient4788"><stop id="stop4790" offset="0" stop-color="#000" stop-opacity="1"/><stop id="stop4792" offset="1" stop-color="#000" stop-opacity="0"/></linearGradient><linearGradient id="linearGradient4433"><stop id="stop4435" offset="0" stop-color="#2b3141" stop-opacity="1"/><stop id="stop4437" offset="1" stop-color="#394056" stop-opacity="1"/></linearGradient><linearGradient id="linearGradient943-2"><stop id="stop945-8" offset="0" stop-color="#db2425" stop-opacity="1"/><stop id="stop947-0" offset="1" stop-color="#e53b3c" stop-opacity="1"/></linearGradient><linearGradient id="linearGradient4117" x1="92.143" x2="92.143" y1="-1049.092" y2="-1001.09" gradientTransform="translate(-66.78247,1002.8176)" gradientUnits="userSpaceOnUse" xlink:href="#linearGradient943-2"/><linearGradient id="linearGradient4439" x1="42.957" x2="42.957" y1="48" y2="33.999" gradientTransform="translate(-1.88903,-1.7296)" gradientUnits="userSpaceOnUse" xlink:href="#linearGradient4433"/><linearGradient id="linearGradient4786" x1="458.571" x2="472.509" y1="871.361" y2="862.361" gradientTransform="matrix(-1,0,0,-1,490.68241,908.63181)" gradientUnits="userSpaceOnUse" xlink:href="#linearGradient4788"/><linearGradient id="linearGradient4219" x1="465.571" x2="458.571" y1="869.362" y2="862.363" gradientTransform="translate(-426.46047,-830.09179)" gradientUnits="userSpaceOnUse" xlink:href="#linearGradient4273"/><linearGradient id="linearGradient4355" x1="24" x2="24" y1="39" y2="9.026" gradientUnits="userSpaceOnUse" xlink:href="#linearGradient4357"/></defs><metadata id="metadata6659"/><g id="layer1" transform="translate(-167.42857,-811.2193)"><g id="text1330" fill="#fff" fill-opacity="1" stroke="none" font-family="Impact" font-size="7.5" font-stretch="normal" font-style="normal" font-variant="normal" font-weight="bold" letter-spacing="0" transform="translate(169.31761,812.9489)" word-spacing="0" style="line-height:125%;-inkscape-font-specification:Impact Bold"><rect id="rect2991-1-7-3" width="48" height="48" x="-1.889" y="-46.27" fill="url(#linearGradient4117)" fill-opacity="1" stroke="none" ry="1.945" transform="scale(1,-1)"/><path id="path4369" fill="#000" fill-opacity=".059" stroke="none" d="m 15.11096,8.4704 -3,2.025391 20,0 -3,-2.0000004 -14,-0.025391 z m -3,3 -5,8 15,19 15,-19 -5,-8 -20,0 z"/><path id="path4367" fill="#000" fill-opacity=".118" stroke="none" d="m 15.11096,8.0704 -3,2.025391 20,0 -3,-2.0000004 -14,-0.025391 z m -3,3 -5,8 15,19 15,-19 -5,-8 -20,0 z"/><path id="path4363" fill="#000" fill-opacity=".235" stroke="none" d="m 15.11096,7.6704 -3,2.025391 20,0 -3,-2.0000004 -14,-0.025391 z m -3,3 -5,8 15,19 15,-19 -5,-8 -20,0 z"/><path id="path7515-3" fill="#fff" fill-opacity=".537" stroke="none" d="m 0.6422,-1.0733 c -0.91709,0 -1.67115,0.6395 -1.84375,1.5 0.33561,-0.2799 0.77451,-0.4375 1.25,-0.4375 l 44.125,0 c 0.47549,0 0.91439,0.1576 1.25,0.4375 -0.1726,-0.8605 -0.92666,-1.5 -1.84375,-1.5 l -42.9375,0 z"/><path id="path4130" fill="url(#linearGradient4219)" fill-opacity="1" stroke="none" d="m 32.11097,32.2697 0,14.0007 14,-14 z"/><path id="path4303" fill="url(#linearGradient4439)" fill-opacity="1" stroke="none" d="m 46.11097,32.2704 -14,14 12.05469,0 c 1.07727,0 1.94531,-0.868 1.94531,-1.9453 l 0,-12.0547 z"/><path id="path4784" fill="url(#linearGradient4786)" fill-opacity="1" stroke="none" d="m 32.11097,46.2704 0,-14.0007 -14,14 z" opacity=".1"/><path id="rect846-0" fill="#000" fill-opacity="1" stroke="none" d="m -1.88905,43.2704 0,1.0625 c 0,1.0773 0.86022,1.9375 1.9375,1.9375 l 44.125,0 c 1.07728,0 1.9375,-0.8602 1.9375,-1.9375 l 0,-1.0625 c 0,1.0773 -0.86022,1.9375 -1.9375,1.9375 l -44.125,0 c -1.07728,0 -1.9375,-0.8602 -1.9375,-1.9375 z"/><path id="rect4280-1" fill="#000" fill-opacity=".392" stroke="none" d="m 0.04845,-1.7296 c -1.07728,0 -1.9375,0.8602 -1.9375,1.9375 l 0,43.0625 c 0,0.7934 0.48002,1.449 1.15625,1.75 -0.30934,-0.3333 -0.5,-0.7824 -0.5,-1.2812 l 0,-42.9375 c 0,-1.0482 0.8269,-1.875 1.875,-1.875 l 42.9375,0 c 1.0481,0 1.875,0.8268 1.875,1.875 l 0,42.9375 c 0,0.4988 -0.19066,0.9479 -0.5,1.2812 0.67623,-0.301 1.15625,-0.9566 1.15625,-1.75 l 0,-43.0625 c 0,-1.0773 -0.86022,-1.9375 -1.9375,-1.9375 l -44.125,0 z"/><path id="path4338" fill="url(#linearGradient4355)" fill-opacity="1" stroke="none" stroke-linecap="butt" stroke-linejoin="miter" stroke-opacity="1" stroke-width="1" d="M 17 9 L 14 11.025391 L 34 11.025391 L 31 9.0253906 L 17 9 z M 14 12 L 9 20 L 24 39 L 39 20 L 34 12 L 14 12 z" transform="translate(-1.88904,-1.7296)"/><path id="path4371" fill="#de2627" fill-opacity=".314" stroke="none" stroke-linecap="butt" stroke-linejoin="miter" stroke-opacity="1" stroke-width="1" d="M 15.185547 10.224609 L 14 11.025391 L 34 11.025391 L 32.798828 10.224609 L 15.185547 10.224609 z M 9.2792969 19.552734 L 9 20 L 24 39 L 39 20 L 38.720703 19.552734 L 24 38.199219 L 9.2792969 19.552734 z" transform="translate(-1.88904,-1.7296)"/><path id="path4376" fill="#fff" fill-opacity=".235" stroke="none" stroke-linecap="butt" stroke-linejoin="miter" stroke-opacity="1" stroke-width="1" d="M 17 9 L 14 11.025391 L 14.59375 11.025391 L 17 9.4003906 L 31 9.4257812 L 33.398438 11.025391 L 34 11.025391 L 31 9.0253906 L 17 9 z M 14 12 L 9 20 L 9.140625 20.177734 L 14 12.400391 L 34 12.400391 L 38.859375 20.177734 L 39 20 L 34 12 L 14 12 z" transform="translate(-1.88904,-1.7296)"/></g></g></svg>