<svg xmlns="http://www.w3.org/2000/svg" xmlns:svg="http://www.w3.org/2000/svg" xmlns:xlink="http://www.w3.org/1999/xlink" id="svg4214" width="48" height="48" version="1.1"><defs id="defs4216"><linearGradient id="linearGradient4250"><stop id="stop4252" offset="0" stop-color="#cdeeff" stop-opacity="1"/><stop id="stop4254" offset="1" stop-color="#f5fcff" stop-opacity="1"/></linearGradient><linearGradient id="linearGradient4227"><stop id="stop4229" offset="0" stop-color="#2db7ff" stop-opacity="1"/><stop id="stop4231" offset="1" stop-color="#91ddff" stop-opacity="1"/></linearGradient><linearGradient id="linearGradient943"><stop id="stop945" offset="0" stop-color="#00a6fc" stop-opacity="1"/><stop id="stop947" offset="1" stop-color="#68cfff" stop-opacity="1"/></linearGradient><linearGradient id="linearGradient4788-2"><stop id="stop4790-2" offset="0" stop-color="#000" stop-opacity="1"/><stop id="stop4792-2" offset="1" stop-color="#000" stop-opacity="0"/></linearGradient><linearGradient id="linearGradient4433-6"><stop id="stop4435-6" offset="0" stop-color="#2b3141" stop-opacity="1"/><stop id="stop4437-0" offset="1" stop-color="#394056" stop-opacity="1"/></linearGradient><linearGradient id="linearGradient4117-5" x1="92.143" x2="92.143" y1="-1049.092" y2="-1001.09" gradientTransform="translate(-64.89343,-3.27419)" gradientUnits="userSpaceOnUse" xlink:href="#linearGradient943"/><linearGradient id="linearGradient4439-1" x1="42.957" x2="42.957" y1="48" y2="33.999" gradientTransform="translate(1e-5,1004.3622)" gradientUnits="userSpaceOnUse" xlink:href="#linearGradient4433-6"/><linearGradient id="linearGradient4786-1" x1="458.571" x2="472.509" y1="871.361" y2="862.361" gradientTransform="matrix(-1,0,0,-1,492.57145,1914.7236)" gradientUnits="userSpaceOnUse" xlink:href="#linearGradient4788-2"/><linearGradient id="linearGradient4219-1" x1="465.571" x2="458.571" y1="869.362" y2="862.363" gradientTransform="translate(-424.57143,176.00001)" gradientUnits="userSpaceOnUse" xlink:href="#linearGradient4227"/><linearGradient id="linearGradient4421" x1="24" x2="24" y1="39" y2="9" gradientUnits="userSpaceOnUse" xlink:href="#linearGradient4250"/></defs><metadata id="metadata4219"/><g id="layer1" transform="translate(0,-1004.3622)"><g id="layer1-6" transform="translate(-8.2519533e-7,8.691406e-6)"><rect id="rect2991-1-7-3-6" width="48" height="48" x="0" y="-1052.362" fill="url(#linearGradient4117-5)" fill-opacity="1" stroke="none" ry="1.945" transform="scale(1,-1)"/><path id="path4435" fill="#000" fill-opacity=".059" stroke="none" d="m 9,1014.5622 0,26 0,4 9,0 6,-4.9004 6,4.9004 9,0 0,-4 0,-26 -9,0 0,18.8008 -6,-4.8008 -6,4.8008 0,-18.8008 -9,0 z"/><path id="path4433" fill="#000" fill-opacity=".118" stroke="none" d="m 9,1014.1622 0,26 0,4 9,0 6,-4.9004 6,4.9004 9,0 0,-4 0,-26 -9,0 0,18.8008 -6,-4.8008 -6,4.8008 0,-18.8008 -9,0 z"/><path id="path4429" fill="#000" fill-opacity=".235" stroke="none" d="m 9,1013.7622 0,26 0,4 9,0 6,-4.9004 6,4.9004 9,0 0,-4 0,-26 -9,0 0,18.8008 -6,-4.8008 -6,4.8008 0,-18.8008 -9,0 z"/><path id="rect4292" fill="url(#linearGradient4421)" fill-opacity="1" stroke="none" d="m 9,9 0,26 0,4 9,0 6,-4.900391 L 30,39 39,39 39,35 39,9 30,9 30,27.800781 24,23 18,27.800781 18,9 9,9 Z" transform="translate(0,1004.3622)"/><path id="path7515-3-8" fill="#fff" fill-opacity=".537" stroke="none" d="m 2.53124,1005.0185 c -0.91709,0 -1.67115,0.6395 -1.84375,1.5 0.33561,-0.2799 0.77451,-0.4375 1.25,-0.4375 l 44.125,0 c 0.47549,0 0.91439,0.1576 1.25,0.4375 -0.1726,-0.8605 -0.92666,-1.5 -1.84375,-1.5 l -42.9375,0 z"/><path id="path4437" fill="#08a9fc" fill-opacity=".314" stroke="none" d="m 24,33.298828 -6,4.900391 -9,0 L 9,39 18,39 24,34.099609 30,39 l 9,0 0,-0.800781 -9,0 -6,-4.900391 z" transform="translate(0,1004.3622)"/><path id="path4442" fill="#fff" fill-opacity=".235" stroke="none" d="m 9,9 0,0.4003906 9,0 L 18,9 9,9 Z m 21,0 0,0.4003906 9,0 L 39,9 30,9 Z m -6,14 -6,4.800781 0,0.400391 6,-4.800781 6,4.800781 0,-0.400391 L 24,23 Z" transform="translate(0,1004.3622)"/><path id="path4130-4" fill="url(#linearGradient4219-1)" fill-opacity="1" stroke="none" d="m 34.00001,1038.3615 0,14.0007 14,-14 z"/><path id="path4303-8" fill="url(#linearGradient4439-1)" fill-opacity="1" stroke="none" d="m 48.00001,1038.3622 -14,14 12.054688,0 c 1.077277,0 1.945312,-0.868 1.945312,-1.9453 l 0,-12.0547 z"/><path id="path4784-3" fill="url(#linearGradient4786-1)" fill-opacity="1" stroke="none" d="m 34.00001,1052.3622 0,-14.0007 -14,14 z" opacity=".1"/><path id="rect846-0-3-0" fill="#000" fill-opacity="1" stroke="none" d="m -1e-5,1049.3622 0,1.0625 c 0,1.0773 0.86022,1.9375 1.9375,1.9375 l 44.125,0 c 1.07728,0 1.9375,-0.8602 1.9375,-1.9375 l 0,-1.0625 c 0,1.0773 -0.86022,1.9375 -1.9375,1.9375 l -44.125,0 c -1.07728,0 -1.9375,-0.8602 -1.9375,-1.9375 z"/><path id="rect4280-1-74" fill="#000" fill-opacity=".392" stroke="none" d="m 1.93749,1004.3622 c -1.07728,0 -1.9375,0.8602 -1.9375,1.9375 l 0,43.0625 c 0,0.7934 0.48002,1.449 1.15625,1.75 -0.30934,-0.3333 -0.5,-0.7824 -0.5,-1.2812 l 0,-42.9375 c 0,-1.0482 0.8269,-1.875 1.875,-1.875 l 42.9375,0 c 1.0481,0 1.875,0.8268 1.875,1.875 l 0,42.9375 c 0,0.4988 -0.19066,0.9479 -0.5,1.2812 0.67623,-0.301 1.15625,-0.9566 1.15625,-1.75 l 0,-43.0625 c 0,-1.0773 -0.86022,-1.9375 -1.9375,-1.9375 l -44.125,0 z"/></g></g></svg>