<svg xmlns="http://www.w3.org/2000/svg" xmlns:svg="http://www.w3.org/2000/svg" xmlns:xlink="http://www.w3.org/1999/xlink" id="svg6388" width="48" height="48" version="1.1"><defs id="defs6390"><linearGradient id="linearGradient4296"><stop id="stop4298" offset="0" stop-color="#f5c3c3" stop-opacity="1"/><stop id="stop4300" offset="1" stop-color="#fef6f6" stop-opacity="1"/></linearGradient><linearGradient id="linearGradient4273"><stop id="stop4275" offset="0" stop-color="#e14b4b" stop-opacity="1"/><stop id="stop4277" offset="1" stop-color="#f19fa0" stop-opacity="1"/></linearGradient><linearGradient id="linearGradient4788"><stop id="stop4790" offset="0" stop-color="#000" stop-opacity="1"/><stop id="stop4792" offset="1" stop-color="#000" stop-opacity="0"/></linearGradient><linearGradient id="linearGradient4433"><stop id="stop4435" offset="0" stop-color="#2b3141" stop-opacity="1"/><stop id="stop4437" offset="1" stop-color="#394056" stop-opacity="1"/></linearGradient><linearGradient id="linearGradient943-2"><stop id="stop945-8" offset="0" stop-color="#db2425" stop-opacity="1"/><stop id="stop947-0" offset="1" stop-color="#e53b3c" stop-opacity="1"/></linearGradient><linearGradient id="linearGradient4117" x1="92.143" x2="92.143" y1="-1049.092" y2="-1001.09" gradientTransform="translate(359.67801,172.72582)" gradientUnits="userSpaceOnUse" xlink:href="#linearGradient943-2"/><linearGradient id="linearGradient4439" x1="42.957" x2="42.957" y1="48" y2="33.999" gradientTransform="translate(424.57145,828.36219)" gradientUnits="userSpaceOnUse" xlink:href="#linearGradient4433"/><linearGradient id="linearGradient4786" x1="458.571" x2="472.509" y1="871.361" y2="862.361" gradientTransform="matrix(-1,0,0,-1,917.14289,1738.7236)" gradientUnits="userSpaceOnUse" xlink:href="#linearGradient4788"/><linearGradient id="linearGradient4219" x1="465.571" x2="458.571" y1="869.362" y2="862.363" gradientTransform="translate(10e-6,0)" gradientUnits="userSpaceOnUse" xlink:href="#linearGradient4273"/><linearGradient id="linearGradient4294" x1="29.5" x2="29.5" y1="39" y2="9" gradientUnits="userSpaceOnUse" xlink:href="#linearGradient4296"/></defs><metadata id="metadata6393"/><g id="layer1" transform="translate(-424.57144,-828.36218)"><rect id="rect2991-1-7-3" width="48" height="48" x="424.571" y="-876.362" fill="url(#linearGradient4117)" fill-opacity="1" stroke="none" ry="1.945" transform="scale(1,-1)"/><path id="path4308" fill="#000" fill-opacity=".059" stroke="none" d="m 448.57144,838.56218 c -4.986,0 -9,4.014 -9,9 0,2.90836 1.37225,5.47791 3.5,7.12109 l 0,13.87891 5.5,-4 5.5,4 0,-13.87891 c 2.12775,-1.64318 3.5,-4.21273 3.5,-7.12109 0,-4.986 -4.014,-9 -9,-9 z"/><path id="path4306" fill="#000" fill-opacity=".118" stroke="none" d="m 448.57144,838.16218 c -4.986,0 -9,4.014 -9,9 0,2.90836 1.37225,5.47791 3.5,7.12109 l 0,13.87891 5.5,-4 5.5,4 0,-13.87891 c 2.12775,-1.64318 3.5,-4.21273 3.5,-7.12109 0,-4.986 -4.014,-9 -9,-9 z"/><path id="path4302" fill="#000" fill-opacity=".235" stroke="none" d="m 448.57144,837.76218 c -4.986,0 -9,4.014 -9,9 0,2.90836 1.37225,5.47791 3.5,7.12109 l 0,13.87891 5.5,-4 5.5,4 0,-13.87891 c 2.12775,-1.64318 3.5,-4.21273 3.5,-7.12109 0,-4.986 -4.014,-9 -9,-9 z"/><path id="path7515-3" fill="#fff" fill-opacity=".537" stroke="none" d="m 427.10268,829.01849 c -0.91709,0 -1.67115,0.6395 -1.84375,1.5 0.33561,-0.2799 0.77451,-0.4375 1.25,-0.4375 l 44.125,0 c 0.47549,0 0.91439,0.1576 1.25,0.4375 -0.1726,-0.8605 -0.92666,-1.5 -1.84375,-1.5 l -42.9375,0 z"/><path id="rect4222" fill="url(#linearGradient4294)" fill-opacity="1" stroke="none" d="M 24 9 C 19.013999 9 15 13.013999 15 18 C 15 20.90836 16.372249 23.477906 18.5 25.121094 L 18.5 39 L 24 35 L 29.5 39 L 29.5 25.121094 C 31.627751 23.477906 33 20.90836 33 18 C 33 13.013999 28.986001 9 24 9 z" transform="translate(424.57144,828.36218)"/><path id="path4310" fill="#dc2728" fill-opacity=".314" stroke="none" d="M 15.021484 17.572266 C 15.014808 17.715141 15 17.855416 15 18 C 15 20.90836 16.372249 23.477906 18.5 25.121094 L 18.5 24.320312 C 16.464611 22.748459 15.134334 20.325185 15.021484 17.572266 z M 32.978516 17.572266 C 32.865666 20.325185 31.535389 22.748459 29.5 24.320312 L 29.5 25.121094 C 31.627751 23.477906 33 20.90836 33 18 C 33 17.855416 32.985192 17.715141 32.978516 17.572266 z M 24 34.199219 L 18.5 38.199219 L 18.5 39 L 24 35 L 29.5 39 L 29.5 38.199219 L 24 34.199219 z" transform="translate(424.57144,828.36218)"/><path id="path4315" fill="#fff" fill-opacity=".235" stroke="none" d="M 24 9 C 19.013999 9 15 13.013999 15 18 C 15 18.062812 15.010445 18.123057 15.011719 18.185547 C 15.126097 13.300516 19.086485 9.4003906 24 9.4003906 C 28.913515 9.4003906 32.873903 13.300516 32.988281 18.185547 C 32.989555 18.123057 33 18.062812 33 18 C 33 13.013999 28.986001 9 24 9 z" transform="translate(424.57144,828.36218)"/><path id="path4130" fill="url(#linearGradient4219)" fill-opacity="1" stroke="none" d="m 458.57145,862.36149 0,14.0007 14,-14 z"/><path id="path4303" fill="url(#linearGradient4439)" fill-opacity="1" stroke="none" d="m 472.57145,862.36219 -14,14 12.05469,0 c 1.07727,0 1.94531,-0.868 1.94531,-1.9453 l 0,-12.0547 z"/><path id="path4784" fill="url(#linearGradient4786)" fill-opacity="1" stroke="none" d="m 458.57145,876.36219 0,-14.0007 -14,14 z" opacity=".1"/><path id="rect846-0" fill="#000" fill-opacity="1" stroke="none" d="m 424.57143,873.36219 0,1.0625 c 0,1.0773 0.86022,1.9375 1.9375,1.9375 l 44.125,0 c 1.07728,0 1.9375,-0.8602 1.9375,-1.9375 l 0,-1.0625 c 0,1.0773 -0.86022,1.9375 -1.9375,1.9375 l -44.125,0 c -1.07728,0 -1.9375,-0.8602 -1.9375,-1.9375 z"/><path id="rect4280-1" fill="#000" fill-opacity=".392" stroke="none" d="m 426.50893,828.36219 c -1.07728,0 -1.9375,0.8602 -1.9375,1.9375 l 0,43.0625 c 0,0.7934 0.48002,1.449 1.15625,1.75 -0.30934,-0.3333 -0.5,-0.7824 -0.5,-1.2812 l 0,-42.9375 c 0,-1.0482 0.8269,-1.875 1.875,-1.875 l 42.9375,0 c 1.0481,0 1.875,0.8268 1.875,1.875 l 0,42.9375 c 0,0.4988 -0.19066,0.9479 -0.5,1.2812 0.67623,-0.301 1.15625,-0.9566 1.15625,-1.75 l 0,-43.0625 c 0,-1.0773 -0.86022,-1.9375 -1.9375,-1.9375 l -44.125,0 z"/></g></svg>