<svg xmlns="http://www.w3.org/2000/svg" xmlns:svg="http://www.w3.org/2000/svg" xmlns:xlink="http://www.w3.org/1999/xlink" id="svg6536" width="48" height="48" version="1.1"><defs id="defs6538"><linearGradient id="linearGradient4251"><stop id="stop4253" offset="0" stop-color="#dadcde" stop-opacity="1"/><stop id="stop4255" offset="1" stop-color="#fafafa" stop-opacity="1"/></linearGradient><linearGradient id="linearGradient4503"><stop id="stop4505" offset="0" stop-color="#90959c" stop-opacity="1"/><stop id="stop4507" offset="1" stop-color="#c4c8cc" stop-opacity="1"/></linearGradient><linearGradient id="linearGradient4461"><stop id="stop4463" offset="0" stop-color="#45484d" stop-opacity="1"/><stop id="stop4465" offset="1" stop-color="#5e656b" stop-opacity="1"/></linearGradient><linearGradient id="linearGradient4788"><stop id="stop4790" offset="0" stop-color="#000" stop-opacity="1"/><stop id="stop4792" offset="1" stop-color="#000" stop-opacity="0"/></linearGradient><linearGradient id="linearGradient4433"><stop id="stop4435" offset="0" stop-color="#2b3141" stop-opacity="1"/><stop id="stop4437" offset="1" stop-color="#394056" stop-opacity="1"/></linearGradient><linearGradient id="linearGradient4117-8" x1="92.143" x2="92.143" y1="-1049.092" y2="-1001.09" gradientTransform="translate(456.82086,395.58294)" gradientUnits="userSpaceOnUse" xlink:href="#linearGradient4461"/><linearGradient id="linearGradient4439" x1="42.957" x2="42.957" y1="48" y2="33.999" gradientTransform="translate(521.7143,605.50507)" gradientUnits="userSpaceOnUse" xlink:href="#linearGradient4433"/><linearGradient id="linearGradient4786" x1="458.571" x2="472.509" y1="871.361" y2="862.361" gradientTransform="matrix(-1,0,0,-1,1014.2857,1515.8665)" gradientUnits="userSpaceOnUse" xlink:href="#linearGradient4788"/><linearGradient id="linearGradient4219" x1="465.571" x2="458.571" y1="869.362" y2="862.363" gradientTransform="translate(97.14286,-222.85711)" gradientUnits="userSpaceOnUse" xlink:href="#linearGradient4503"/><linearGradient id="linearGradient4249" x1="547.197" x2="547.197" y1="644.505" y2="614.505" gradientUnits="userSpaceOnUse" xlink:href="#linearGradient4251"/></defs><metadata id="metadata6541"/><g id="layer1" transform="translate(-521.71429,-605.50507)"><rect id="rect2991-1-7-3-6" width="48" height="48" x="521.714" y="-653.505" fill="url(#linearGradient4117-8)" fill-opacity="1" stroke="none" ry="1.945" transform="scale(1,-1)"/><path id="path4263" fill="#000" fill-opacity=".059" stroke="none" d="m 532.71429,615.70507 0,30 26,0 0,-12.29883 -15.18359,-17.70117 -10.81641,0 z m 13.45117,0 1.71485,2 8.83398,0 0,10.29688 2,2.33203 0,-14.62891 -12.54883,0 z"/><path id="path4261" fill="#000" fill-opacity=".118" stroke="none" d="m 532.71429,615.30507 0,30 26,0 0,-12.29883 -15.18359,-17.70117 -10.81641,0 z m 13.45117,0 1.71485,2 8.83398,0 0,10.29688 2,2.33203 0,-14.62891 -12.54883,0 z"/><path id="path4257" fill="#000" fill-opacity=".235" stroke="none" d="m 532.71429,614.90507 0,30 26,0 0,-12.29883 -15.18359,-17.70117 -10.81641,0 z m 13.45117,0 1.71485,2 8.83398,0 0,10.29688 2,2.33203 0,-14.62891 -12.54883,0 z"/><path id="path3268" fill="url(#linearGradient4249)" fill-opacity="1" stroke="none" d="m 532.71429,614.50507 0,30 26,0 0,-12.29883 -15.18359,-17.70117 -10.81641,0 z m 13.45117,0 1.71485,2 8.83398,0 0,10.29688 2,2.33203 0,-14.62891 -12.54883,0 z"/><path id="path7515-3-7" fill="#fff" fill-opacity=".537" stroke="none" d="m 524.24553,606.16138 c -0.91709,0 -1.67115,0.6395 -1.84375,1.5 0.33561,-0.2799 0.77451,-0.4375 1.25,-0.4375 l 44.125,0 c 0.47549,0 0.91439,0.1576 1.25,0.4375 -0.1726,-0.8605 -0.92666,-1.5 -1.84375,-1.5 l -42.9375,0 z"/><path id="path4265" fill="#4c5055" fill-opacity=".314" stroke="none" d="M 24.451172 9 L 26.166016 11 L 35 11 L 35 10.199219 L 26.166016 10.199219 L 25.138672 9 L 24.451172 9 z M 35 20.496094 L 35 21.296875 L 37 23.628906 L 37 22.828125 L 35 20.496094 z M 11 38.199219 L 11 39 L 37 39 L 37 38.199219 L 11 38.199219 z" transform="translate(521.71429,605.50507)"/><path id="path4130" fill="url(#linearGradient4219)" fill-opacity="1" stroke="none" d="m 555.7143,639.50437 0,14.00071 14,-14 z"/><path id="path4303" fill="url(#linearGradient4439)" fill-opacity="1" stroke="none" d="m 569.7143,639.50507 -14,14 12.05469,0 c 1.07727,0 1.94531,-0.868 1.94531,-1.9453 l 0,-12.0547 z"/><path id="path4784" fill="url(#linearGradient4786)" fill-opacity="1" stroke="none" d="m 555.7143,653.50507 0,-14.0007 -14,14 z" opacity=".1"/><path id="rect846-0-2" fill="#000" fill-opacity="1" stroke="none" d="m 521.71428,650.50507 0,1.0625 c 0,1.0773 0.86022,1.9375 1.9375,1.9375 l 44.125,0 c 1.07728,0 1.9375,-0.8602 1.9375,-1.9375 l 0,-1.0625 c 0,1.0773 -0.86022,1.9375 -1.9375,1.9375 l -44.125,0 c -1.07728,0 -1.9375,-0.8602 -1.9375,-1.9375 z"/><path id="rect4280-1-0" fill="#000" fill-opacity=".392" stroke="none" d="m 523.65178,605.50507 c -1.07728,0 -1.9375,0.8602 -1.9375,1.9375 l 0,43.0625 c 0,0.7934 0.48002,1.449 1.15625,1.75 -0.30934,-0.3333 -0.5,-0.7824 -0.5,-1.2812 l 0,-42.9375 c 0,-1.0482 0.8269,-1.875 1.875,-1.875 l 42.9375,0 c 1.0481,0 1.875,0.8268 1.875,1.875 l 0,42.9375 c 0,0.4988 -0.19066,0.9479 -0.5,1.2812 0.67623,-0.301 1.15625,-0.9566 1.15625,-1.75 l 0,-43.0625 c 0,-1.0773 -0.86022,-1.9375 -1.9375,-1.9375 l -44.125,0 z"/><path id="path4270" fill="#fff" fill-opacity=".235" stroke="none" d="M 11 9 L 11 9.4003906 L 21.816406 9.4003906 L 37 27.101562 L 37 26.701172 L 21.816406 9 L 11 9 z M 24.451172 9 L 24.794922 9.4003906 L 37 9.4003906 L 37 9 L 24.451172 9 z" transform="translate(521.71429,605.50507)"/></g></svg>