<svg xmlns="http://www.w3.org/2000/svg" xmlns:svg="http://www.w3.org/2000/svg" xmlns:xlink="http://www.w3.org/1999/xlink" id="svg4214" width="48" height="48" version="1.1"><defs id="defs4216"><style id="style1115" type="text/css"><![CDATA[ .fil0 {fill:#1F1A17} ]]></style><style id="style1246" type="text/css"><![CDATA[ .fil0 {fill:#1F1A17} ]]></style><style id="style1115-18" type="text/css"><![CDATA[ .fil0 {fill:#1F1A17} ]]></style><style id="style1246-4" type="text/css"><![CDATA[ .fil0 {fill:#1F1A17} ]]></style><style id="style1115-0" type="text/css"><![CDATA[ .fil0 {fill:#1F1A17} ]]></style><style id="style1246-5" type="text/css"><![CDATA[ .fil0 {fill:#1F1A17} ]]></style><style id="style1115-1" type="text/css"><![CDATA[ .fil0 {fill:#1F1A17} ]]></style><style id="style1246-1" type="text/css"><![CDATA[ .fil0 {fill:#1F1A17} ]]></style><linearGradient id="linearGradient4315"><stop id="stop4317" offset="0" stop-color="#d5d5e3" stop-opacity="1"/><stop id="stop4319" offset="1" stop-color="#f9f9fb" stop-opacity="1"/></linearGradient><linearGradient id="linearGradient4309"><stop id="stop4311" offset="0" stop-color="#8080ac" stop-opacity="1"/><stop id="stop4313" offset="1" stop-color="#bebed2" stop-opacity="1"/></linearGradient><linearGradient id="linearGradient4461"><stop id="stop4463" offset="0" stop-color="#49496f" stop-opacity="1"/><stop id="stop4465" offset="1" stop-color="#8484aa" stop-opacity="1"/></linearGradient><style id="style1115-93" type="text/css"><![CDATA[ .fil0 {fill:#1F1A17} ]]></style><style id="style1246-3" type="text/css"><![CDATA[ .fil0 {fill:#1F1A17} ]]></style><style id="style1115-9" type="text/css"><![CDATA[ .fil0 {fill:#1F1A17} ]]></style><style id="style1246-4-0" type="text/css"><![CDATA[ .fil0 {fill:#1F1A17} ]]></style><style id="style1115-5" type="text/css"><![CDATA[ .fil0 {fill:#1F1A17} ]]></style><style id="style1246-7" type="text/css"><![CDATA[ .fil0 {fill:#1F1A17} ]]></style><style id="style1115-9-4" type="text/css"><![CDATA[ .fil0 {fill:#1F1A17} ]]></style><style id="style1246-4-4" type="text/css"><![CDATA[ .fil0 {fill:#1F1A17} ]]></style><linearGradient id="linearGradient4788-5"><stop id="stop4790-0" offset="0" stop-color="#000" stop-opacity="1"/><stop id="stop4792-8" offset="1" stop-color="#000" stop-opacity="0"/></linearGradient><linearGradient id="linearGradient4433-5"><stop id="stop4435-8" offset="0" stop-color="#2b3141" stop-opacity="1"/><stop id="stop4437-9" offset="1" stop-color="#394056" stop-opacity="1"/></linearGradient><linearGradient id="linearGradient4117-5" x1="92.143" x2="92.143" y1="-1049.092" y2="-1001.09" gradientTransform="translate(-64.893431,-3.2741987)" gradientUnits="userSpaceOnUse" xlink:href="#linearGradient4461"/><linearGradient id="linearGradient4439-7" x1="42.957" x2="42.957" y1="48" y2="33.999" gradientTransform="translate(9.1748047e-6,1004.3622)" gradientUnits="userSpaceOnUse" xlink:href="#linearGradient4433-5"/><linearGradient id="linearGradient4786-7" x1="458.571" x2="472.509" y1="871.361" y2="862.361" gradientTransform="matrix(-1,0,0,-1,492.57145,1914.7236)" gradientUnits="userSpaceOnUse" xlink:href="#linearGradient4788-5"/><linearGradient id="linearGradient4219-4" x1="465.571" x2="458.571" y1="869.362" y2="862.363" gradientTransform="translate(-424.57143,176.00002)" gradientUnits="userSpaceOnUse" xlink:href="#linearGradient4309"/><linearGradient id="linearGradient4421" x1="24" x2="24" y1="39" y2="9" gradientTransform="translate(-8.2519533e-7,1004.3622)" gradientUnits="userSpaceOnUse" xlink:href="#linearGradient4315"/></defs><metadata id="metadata4219"/><g id="layer1" transform="translate(0,-1004.3622)"><rect id="rect2991-1-7-3-9" width="48" height="48" x="0" y="-1052.362" fill="url(#linearGradient4117-5)" fill-opacity="1" stroke="none" ry="1.945" transform="scale(1,-1)"/><path id="path4435" fill="#000" fill-opacity=".059" stroke="none" d="m 8.9999992,1014.5622 0,26 0,4 8.9999998,0 6,-4.9004 6,4.9004 9,0 0,-4 0,-26 -9,0 0,18.8008 -6,-4.8008 -6,4.8008 0,-18.8008 -8.9999998,0 z"/><path id="path4433" fill="#000" fill-opacity=".118" stroke="none" d="m 8.9999992,1014.1622 0,26 0,4 8.9999998,0 6,-4.9004 6,4.9004 9,0 0,-4 0,-26 -9,0 0,18.8008 -6,-4.8008 -6,4.8008 0,-18.8008 -8.9999998,0 z"/><path id="path4429" fill="#000" fill-opacity=".235" stroke="none" d="m 8.9999992,1013.7622 0,26 0,4 8.9999998,0 6,-4.9004 6,4.9004 9,0 0,-4 0,-26 -9,0 0,18.8008 -6,-4.8008 -6,4.8008 0,-18.8008 -8.9999998,0 z"/><path id="rect4292" fill="url(#linearGradient4421)" fill-opacity="1" stroke="none" d="m 8.9999992,1013.3622 0,26 0,4 8.9999998,0 6,-4.9004 6,4.9004 9,0 0,-4 0,-26 -9,0 0,18.8008 -6,-4.8008 -6,4.8008 0,-18.8008 -8.9999998,0 z"/><path id="path7515-3-6" fill="#fff" fill-opacity=".537" stroke="none" d="m 2.5312392,1005.0185 c -0.91709,0 -1.67115003,0.6395 -1.84375003,1.5 0.33561003,-0.2799 0.77451003,-0.4375 1.25000003,-0.4375 l 44.1249998,0 c 0.47549,0 0.91439,0.1576 1.25,0.4375 -0.1726,-0.8605 -0.92666,-1.5 -1.84375,-1.5 l -42.9374998,0 z"/><path id="path4437" fill="#515177" fill-opacity=".314" stroke="none" d="m 23.999999,1037.661 -6,4.9004 -8.9999998,0 0,0.8008 8.9999998,0 6,-4.9004 6,4.9004 9,0 0,-0.8008 -9,0 -6,-4.9004 z"/><path id="path4442" fill="#fff" fill-opacity=".235" stroke="none" d="m 8.9999992,1013.3622 0,0.4004 8.9999998,0 0,-0.4004 -8.9999998,0 z m 20.9999998,0 0,0.4004 9,0 0,-0.4004 -9,0 z m -6,14 -6,4.8008 0,0.4004 6,-4.8008 6,4.8008 0,-0.4004 -6,-4.8008 z"/><path id="path4130-7" fill="url(#linearGradient4219-4)" fill-opacity="1" stroke="none" d="m 34.000009,1038.3615 0,14.0007 14,-14 z"/><path id="path4303-3" fill="url(#linearGradient4439-7)" fill-opacity="1" stroke="none" d="m 48.000009,1038.3622 -14,14 12.054688,0 c 1.077277,0 1.945312,-0.868 1.945312,-1.9453 l 0,-12.0547 z"/><path id="path4784-2" fill="url(#linearGradient4786-7)" fill-opacity="1" stroke="none" d="m 34.000009,1052.3622 0,-14.0007 -14,14 z" opacity=".1"/><path id="rect846-0-3-1" fill="#000" fill-opacity="1" stroke="none" d="m -1.0825195e-5,1049.3622 0,1.0625 c 0,1.0773 0.860219995195,1.9375 1.937500025195,1.9375 l 44.1249998,0 c 1.07728,0 1.9375,-0.8602 1.9375,-1.9375 l 0,-1.0625 c 0,1.0773 -0.86022,1.9375 -1.9375,1.9375 l -44.1249998,0 c -1.07728003,0 -1.937500025195,-0.8602 -1.937500025195,-1.9375 z"/><path id="rect4280-1-8" fill="#000" fill-opacity=".392" stroke="none" d="m 1.9374892,1004.3622 c -1.07728003,0 -1.937500025195,0.8602 -1.937500025195,1.9375 l 0,43.0625 c 0,0.7934 0.480019995195,1.449 1.156250025195,1.75 -0.30934003,-0.3333 -0.50000003,-0.7824 -0.50000003,-1.2812 l 0,-42.9375 c 0,-1.0482 0.82690003,-1.875 1.87500003,-1.875 l 42.9374998,0 c 1.0481,0 1.875,0.8268 1.875,1.875 l 0,42.9375 c 0,0.4988 -0.19066,0.9479 -0.5,1.2812 0.67623,-0.301 1.15625,-0.9566 1.15625,-1.75 l 0,-43.0625 c 0,-1.0773 -0.86022,-1.9375 -1.9375,-1.9375 l -44.1249998,0 z"/></g></svg>