<svg xmlns="http://www.w3.org/2000/svg" xmlns:svg="http://www.w3.org/2000/svg" xmlns:xlink="http://www.w3.org/1999/xlink" id="svg5453" width="48" height="48" version="1.1" viewBox="0 0 48 48"><defs id="defs5455"><linearGradient id="linearGradient5057"><stop id="stop5059" offset="0" stop-color="#f8c5c0" stop-opacity="1"/><stop id="stop5061" offset="1" stop-color="#fff8f5" stop-opacity="1"/></linearGradient><linearGradient id="linearGradient4786" x1="458.571" x2="472.509" y1="871.361" y2="862.361" gradientTransform="matrix(-1,0,0,-1,877.14287,1410.1594)" gradientUnits="userSpaceOnUse" xlink:href="#linearGradient4788"/><linearGradient id="linearGradient4788"><stop id="stop4790" offset="0" stop-color="#000" stop-opacity="1"/><stop id="stop4792" offset="1" stop-color="#000" stop-opacity="0"/></linearGradient><linearGradient id="linearGradient4439" x1="42.957" x2="42.957" y1="48" y2="33.999" gradientTransform="translate(384.57143,499.798)" gradientUnits="userSpaceOnUse" xlink:href="#linearGradient4433"/><linearGradient id="linearGradient4433"><stop id="stop4435" offset="0" stop-color="#2b3141" stop-opacity="1"/><stop id="stop4437" offset="1" stop-color="#394056" stop-opacity="1"/></linearGradient><linearGradient id="linearGradient4219" x1="465.571" x2="458.571" y1="869.362" y2="862.363" gradientTransform="translate(-40.000013,-328.56418)" gradientUnits="userSpaceOnUse" xlink:href="#linearGradient4278"/><linearGradient id="linearGradient4278"><stop id="stop4280" offset="0" stop-color="#e95143" stop-opacity="1"/><stop id="stop4282" offset="1" stop-color="#feb492" stop-opacity="1"/></linearGradient><linearGradient id="linearGradient4117" x1="92.143" x2="92.143" y1="-1049.092" y2="-1001.09" gradientTransform="translate(319.67799,501.28999)" gradientUnits="userSpaceOnUse" xlink:href="#linearGradient943-6"/><linearGradient id="linearGradient943-6"><stop id="stop945-4" offset="0" stop-color="#e63c2d" stop-opacity="1"/><stop id="stop947-3" offset="1" stop-color="#fd7233" stop-opacity="1"/></linearGradient><linearGradient id="linearGradient5055" x1="24" x2="24" y1="39" y2="9" gradientUnits="userSpaceOnUse" xlink:href="#linearGradient5057"/></defs><metadata id="metadata5458"/><g id="layer1" transform="translate(-384.57143,-499.798)"><rect id="rect2991-1-7-3" width="48" height="48" x="384.571" y="-547.798" fill="url(#linearGradient4117)" fill-opacity="1" stroke="none" ry="1.945" transform="scale(1,-1)"/><path id="path5069" fill="#000" fill-opacity=".059" fill-rule="nonzero" stroke="none" d="m 408.57534,509.998 c -8.28624,0 -15.00391,6.7148 -15.00391,14.99805 0,8.28475 6.71767,15.00195 15.00391,15.00195 8.28325,0 14.99609,-6.7172 14.99609,-15.00195 0,-8.28325 -6.71284,-14.99805 -14.99609,-14.99805 z m -0.004,3 0,6.5 c -2.39356,8.4e-4 -4.42612,1.53369 -5.18164,3.66797 l -6.12891,-2.16797 c 1.89543,-5.20686 6.60865,-8 11.31055,-8 z m 4.70117,0.85742 2.59766,1.5 -3.98242,5.26172 c -0.18032,-0.13633 -0.36758,-0.26689 -0.56836,-0.38281 -0.19955,-0.11521 -0.40439,-0.21123 -0.61133,-0.29883 l 2.56445,-6.08008 z m -4.69922,6.64258 c 2.48249,0 4.49805,2.01667 4.49805,4.5 0,2.48467 -2.01556,4.5 -4.49805,4.5 -2.48514,0 -4.50195,-2.01533 -4.50195,-4.5 0,-2.48333 2.01681,-4.5 4.50195,-4.5 z m 0.002,2.5 c -1.09908,0 -2.00391,0.89453 -2.00391,2 0,1.10077 0.90483,2 2.00391,2 1.10378,0 1.99609,-0.89923 1.99609,-2 0,-1.10547 -0.89231,-2 -1.99609,-2 z m 3.3125,6.38086 3.98242,5.26172 -2.59766,1.5 -2.56445,-6.08008 c 0.20823,-0.088 0.41445,-0.18486 0.61523,-0.30078 0.19955,-0.11521 0.38513,-0.24545 0.56446,-0.38086 z"/><path id="path5067" fill="#000" fill-opacity=".118" fill-rule="nonzero" stroke="none" d="m 408.57534,509.598 c -8.28624,0 -15.00391,6.7148 -15.00391,14.99805 0,8.28475 6.71767,15.00195 15.00391,15.00195 8.28325,0 14.99609,-6.7172 14.99609,-15.00195 0,-8.28325 -6.71284,-14.99805 -14.99609,-14.99805 z m -0.004,3 0,6.5 c -2.39356,8.4e-4 -4.42612,1.53369 -5.18164,3.66797 l -6.12891,-2.16797 c 1.89543,-5.20686 6.60865,-8 11.31055,-8 z m 4.70117,0.85742 2.59766,1.5 -3.98242,5.26172 c -0.18032,-0.13633 -0.36758,-0.26689 -0.56836,-0.38281 -0.19955,-0.11521 -0.40439,-0.21123 -0.61133,-0.29883 l 2.56445,-6.08008 z m -4.69922,6.64258 c 2.48249,0 4.49805,2.01667 4.49805,4.5 0,2.48467 -2.01556,4.5 -4.49805,4.5 -2.48514,0 -4.50195,-2.01533 -4.50195,-4.5 0,-2.48333 2.01681,-4.5 4.50195,-4.5 z m 0.002,2.5 c -1.09908,0 -2.00391,0.89453 -2.00391,2 0,1.10077 0.90483,2 2.00391,2 1.10378,0 1.99609,-0.89923 1.99609,-2 0,-1.10547 -0.89231,-2 -1.99609,-2 z m 3.3125,6.38086 3.98242,5.26172 -2.59766,1.5 -2.56445,-6.08008 c 0.20823,-0.088 0.41445,-0.18486 0.61523,-0.30078 0.19955,-0.11521 0.38513,-0.24545 0.56446,-0.38086 z"/><path id="path5063" fill="#000" fill-opacity=".235" fill-rule="nonzero" stroke="none" d="m 408.57534,509.198 c -8.28624,0 -15.00391,6.7148 -15.00391,14.99805 0,8.28475 6.71767,15.00195 15.00391,15.00195 8.28325,0 14.99609,-6.7172 14.99609,-15.00195 0,-8.28325 -6.71284,-14.99805 -14.99609,-14.99805 z m -0.004,3 0,6.5 c -2.39356,8.4e-4 -4.42612,1.53369 -5.18164,3.66797 l -6.12891,-2.16797 c 1.89543,-5.20686 6.60865,-8 11.31055,-8 z m 4.70117,0.85742 2.59766,1.5 -3.98242,5.26172 c -0.18032,-0.13633 -0.36758,-0.26689 -0.56836,-0.38281 -0.19955,-0.11521 -0.40439,-0.21123 -0.61133,-0.29883 l 2.56445,-6.08008 z m -4.69922,6.64258 c 2.48249,0 4.49805,2.01667 4.49805,4.5 0,2.48467 -2.01556,4.5 -4.49805,4.5 -2.48514,0 -4.50195,-2.01533 -4.50195,-4.5 0,-2.48333 2.01681,-4.5 4.50195,-4.5 z m 0.002,2.5 c -1.09908,0 -2.00391,0.89453 -2.00391,2 0,1.10077 0.90483,2 2.00391,2 1.10378,0 1.99609,-0.89923 1.99609,-2 0,-1.10547 -0.89231,-2 -1.99609,-2 z m 3.3125,6.38086 3.98242,5.26172 -2.59766,1.5 -2.56445,-6.08008 c 0.20823,-0.088 0.41445,-0.18486 0.61523,-0.30078 0.19955,-0.11521 0.38513,-0.24545 0.56446,-0.38086 z"/><path id="path5041" fill="url(#linearGradient5055)" fill-opacity="1" fill-rule="nonzero" stroke="none" d="M 24.003906 9 C 15.717666 9 9 15.714797 9 23.998047 C 9 32.282797 15.717666 39 24.003906 39 C 32.287156 39 39 32.282797 39 23.998047 C 39 15.714797 32.287156 9 24.003906 9 z M 24 12 L 24 18.5 C 21.60644 18.50084 19.573879 20.033689 18.818359 22.167969 L 12.689453 20 C 14.584883 14.79314 19.2981 12 24 12 z M 28.701172 12.857422 L 31.298828 14.357422 L 27.316406 19.619141 C 27.136086 19.482811 26.948827 19.352248 26.748047 19.236328 C 26.548497 19.121118 26.343659 19.0251 26.136719 18.9375 L 28.701172 12.857422 z M 24.001953 19.5 C 26.484443 19.5 28.5 21.51667 28.5 24 C 28.5 26.48467 26.484443 28.5 24.001953 28.5 C 21.516813 28.5 19.5 26.48467 19.5 24 C 19.5 21.51667 21.516813 19.5 24.001953 19.5 z M 24.003906 22 C 22.904826 22 22 22.89453 22 24 C 22 25.10077 22.904826 26 24.003906 26 C 25.107686 26 26 25.10077 26 24 C 26 22.89453 25.107686 22 24.003906 22 z M 27.316406 28.380859 L 31.298828 33.642578 L 28.701172 35.142578 L 26.136719 29.0625 C 26.344949 28.9745 26.551173 28.877639 26.751953 28.761719 C 26.951503 28.646509 27.137076 28.516269 27.316406 28.380859 z" transform="translate(384.57143,499.798)"/><path id="path5037" fill="#f0f" fill-opacity="1" fill-rule="nonzero" stroke="none" d="m 409.47573,518.37808 c 0.0416,0.007 0.0837,0.0117 0.125,0.0195 -0.0413,-0.008 -0.0834,-0.0126 -0.125,-0.0195 z"/><path id="path5035" fill="#f0f" fill-opacity="1" fill-rule="nonzero" stroke="none" d="m 410.41909,518.62222 c 0.0413,0.0148 0.0822,0.0292 0.12304,0.0449 -0.0408,-0.0157 -0.0818,-0.0302 -0.12304,-0.0449 z"/><path id="path5033" fill="#f0f" fill-opacity="1" fill-rule="nonzero" stroke="none" d="m 411.29409,519.02456 c 0.0373,0.0214 0.0727,0.0442 0.10937,0.0664 -0.0365,-0.022 -0.0723,-0.0452 -0.10937,-0.0664 z"/><path id="path5029" fill="#f0f" fill-opacity="1" fill-rule="nonzero" stroke="none" d="m 413.29604,520.99136 c 0.009,0.0143 0.017,0.0285 0.0254,0.043 -0.008,-0.0143 -0.0169,-0.0287 -0.0254,-0.043 z"/><path id="path5023" fill="#f0f" fill-opacity="1" fill-rule="nonzero" stroke="none" d="m 403.16127,522.83316 c -0.004,0.0201 -0.006,0.0404 -0.01,0.0605 0.003,-0.0201 0.006,-0.0405 0.01,-0.0605 z"/><path id="path5021" fill="#f0f" fill-opacity="1" fill-rule="nonzero" stroke="none" d="m 403.16127,524.7648 c 0.005,0.0266 0.009,0.0536 0.0137,0.0801 -0.005,-0.0265 -0.009,-0.0534 -0.0137,-0.0801 z"/><path id="path5019" fill="#f0f" fill-opacity="1" fill-rule="nonzero" stroke="none" d="m 403.42299,525.71597 c 0.0133,0.0357 0.025,0.0721 0.0391,0.10742 -0.0141,-0.0354 -0.0257,-0.0716 -0.0391,-0.10742 z"/><path id="path5017" fill="#f0f" fill-opacity="1" fill-rule="nonzero" stroke="none" d="m 403.85463,526.61441 c 0.0183,0.0305 0.0358,0.0617 0.0547,0.0918 -0.019,-0.0303 -0.0363,-0.0611 -0.0547,-0.0918 z"/><path id="path5015" fill="#f0f" fill-opacity="1" fill-rule="nonzero" stroke="none" d="m 404.43862,527.41714 c 0.0185,0.0211 0.0378,0.0417 0.0566,0.0625 -0.0189,-0.0209 -0.038,-0.0413 -0.0566,-0.0625 z"/><path id="path7515-3" fill="#fff" fill-opacity=".537" stroke="none" d="m 387.10266,500.45432 c -0.91709,0 -1.67115,0.6395 -1.84375,1.5 0.33561,-0.2799 0.77451,-0.4375 1.25,-0.4375 l 44.125,0 c 0.47549,0 0.91439,0.1576 1.25,0.4375 -0.1726,-0.8605 -0.92666,-1.5 -1.84375,-1.5 l -42.9375,0 z"/><path id="rect4280-1" fill="#000" fill-opacity=".392" stroke="none" d="m 386.50891,499.79802 c -1.07728,0 -1.9375,0.8602 -1.9375,1.9375 l 0,43.0625 c 0,0.7934 0.48002,1.449 1.15625,1.75 -0.30934,-0.3333 -0.5,-0.7824 -0.5,-1.2812 l 0,-42.9375 c 0,-1.0482 0.8269,-1.875 1.875,-1.875 l 42.9375,0 c 1.0481,0 1.875,0.8268 1.875,1.875 l 0,42.9375 c 0,0.4988 -0.19066,0.9479 -0.5,1.2812 0.67623,-0.301 1.15625,-0.9566 1.15625,-1.75 l 0,-43.0625 c 0,-1.0773 -0.86022,-1.9375 -1.9375,-1.9375 l -44.125,0 z"/><path id="path5071" fill="#e9442e" fill-opacity=".314" fill-rule="nonzero" stroke="none" d="M 24 11.199219 C 19.2981 11.199219 14.584883 13.992359 12.689453 19.199219 L 12.976562 19.300781 C 15.026817 14.547387 19.515041 12 24 12 L 24 11.199219 z M 28.701172 12.056641 L 26.136719 18.136719 C 26.231289 18.176751 26.322627 18.22886 26.416016 18.273438 L 28.701172 12.857422 L 30.876953 14.113281 L 31.298828 13.556641 L 28.701172 12.056641 z M 24.001953 18.699219 C 21.516813 18.699219 19.5 20.715889 19.5 23.199219 C 19.5 23.336161 19.529022 23.465777 19.541016 23.599609 C 19.747035 21.30661 21.654074 19.5 24.001953 19.5 C 26.347329 19.5 28.253096 21.30661 28.458984 23.599609 C 28.47097 23.465777 28.5 23.336161 28.5 23.199219 C 28.5 20.715889 26.484443 18.699219 24.001953 18.699219 z M 9.0195312 23.597656 C 9.0159753 23.73198 9 23.862865 9 23.998047 C 9 32.282797 15.717666 39 24.003906 39 C 32.287156 39 39 32.282797 39 23.998047 C 39 23.862865 38.984022 23.73198 38.980469 23.597656 C 38.766552 31.69576 32.152146 38.199219 24.003906 38.199219 C 15.852725 38.199219 9.2336009 31.69576 9.0195312 23.597656 z M 22.041016 23.601562 C 22.014874 23.730081 22 23.863799 22 24 C 22 25.10077 22.904826 26 24.003906 26 C 25.107686 26 26 25.10077 26 24 C 26 23.863799 25.984802 23.730081 25.958984 23.601562 C 25.7731 24.511111 24.969714 25.199219 24.003906 25.199219 C 23.042211 25.199219 22.229232 24.511111 22.041016 23.601562 z M 27.316406 27.580078 C 27.137076 27.715488 26.951503 27.845727 26.751953 27.960938 C 26.551173 28.076858 26.344949 28.173719 26.136719 28.261719 L 26.416016 28.925781 C 26.528311 28.872199 26.642343 28.825002 26.751953 28.761719 C 26.951503 28.646509 27.137076 28.516269 27.316406 28.380859 L 30.876953 33.085938 L 31.298828 32.841797 L 27.316406 27.580078 z" transform="translate(384.57143,499.798)"/><path id="path5076" fill="#fff" fill-opacity=".235" fill-rule="nonzero" stroke="none" d="M 24.003906 9 C 15.717666 9 9 15.714797 9 23.998047 C 9 24.065979 9.0088652 24.1315 9.0097656 24.199219 C 9.1176409 16.008833 15.784952 9.4003906 24.003906 9.4003906 C 32.219894 9.4003906 38.882436 16.008833 38.990234 24.199219 C 38.991134 24.1315 39 24.065979 39 23.998047 C 39 15.714797 32.287156 9 24.003906 9 z M 31.087891 14.636719 L 27.316406 19.619141 C 27.136086 19.482811 26.948827 19.352248 26.748047 19.236328 C 26.594351 19.147592 26.435858 19.076748 26.277344 19.005859 L 26.136719 19.337891 C 26.343659 19.425491 26.548497 19.521509 26.748047 19.636719 C 26.948827 19.752639 27.136086 19.883201 27.316406 20.019531 L 31.298828 14.757812 L 31.087891 14.636719 z M 24 18.5 C 21.60644 18.50084 19.573879 20.033689 18.818359 22.167969 L 12.832031 20.050781 C 12.78544 20.168095 12.733091 20.280514 12.689453 20.400391 L 18.818359 22.568359 C 19.573879 20.434079 21.60644 18.901231 24 18.900391 L 24 18.5 z M 24.003906 22 C 22.904826 22 22 22.89453 22 24 C 22 24.068103 22.012773 24.132824 22.019531 24.199219 C 22.122469 23.189553 22.973157 22.400391 24.003906 22.400391 C 25.039063 22.400391 25.878883 23.189553 25.980469 24.199219 C 25.987139 24.132824 26 24.068103 26 24 C 26 22.89453 25.107686 22 24.003906 22 z M 19.519531 24.199219 C 19.516461 24.267346 19.5 24.331513 19.5 24.400391 C 19.5 26.885061 21.516813 28.900391 24.001953 28.900391 C 26.484443 28.900391 28.5 26.885061 28.5 24.400391 C 28.5 24.331513 28.483537 24.267346 28.480469 24.199219 C 28.373914 26.589425 26.41625 28.5 24.001953 28.5 C 21.585079 28.5 19.626153 26.589425 19.519531 24.199219 z M 26.277344 29.394531 C 26.230051 29.415669 26.184262 29.442798 26.136719 29.462891 L 28.701172 35.542969 L 31.298828 34.042969 L 31.087891 33.763672 L 28.701172 35.142578 L 26.277344 29.394531 z" transform="translate(384.57143,499.798)"/><path id="path4130" fill="url(#linearGradient4219)" fill-opacity="1" stroke="none" d="m 418.57143,533.79727 0,14.00073 14,-14 z"/><path id="path4303" fill="url(#linearGradient4439)" fill-opacity="1" stroke="none" d="m 432.57143,533.798 -14,14 12.05469,0 c 1.07728,0 1.94531,-0.86803 1.94531,-1.94531 l 0,-12.05469 z"/><path id="path4784" fill="url(#linearGradient4786)" fill-opacity="1" stroke="none" d="m 418.57143,547.798 0,-14.00073 -14,14 z" opacity=".1"/><path id="rect846-0" fill="#000" fill-opacity="1" stroke="none" d="m 384.57141,544.79802 0,1.0625 c 0,1.0773 0.86022,1.9375 1.9375,1.9375 l 44.125,0 c 1.07728,0 1.9375,-0.8602 1.9375,-1.9375 l 0,-1.0625 c 0,1.0773 -0.86022,1.9375 -1.9375,1.9375 l -44.125,0 c -1.07728,0 -1.9375,-0.8602 -1.9375,-1.9375 z"/></g></svg>