<svg xmlns="http://www.w3.org/2000/svg" xmlns:svg="http://www.w3.org/2000/svg" xmlns:xlink="http://www.w3.org/1999/xlink" id="svg6654" width="48" height="48" version="1.1"><defs id="defs6656"><linearGradient id="linearGradient4788"><stop id="stop4790" offset="0" stop-color="#000" stop-opacity="1"/><stop id="stop4792" offset="1" stop-color="#000" stop-opacity="0"/></linearGradient><linearGradient id="linearGradient4433"><stop id="stop4435" offset="0" stop-color="#2b3141" stop-opacity="1"/><stop id="stop4437" offset="1" stop-color="#394056" stop-opacity="1"/></linearGradient><linearGradient id="linearGradient4117" x1="92.143" x2="92.143" y1="-1049.092" y2="-1001.09" gradientTransform="translate(-66.78247,1002.8176)" gradientUnits="userSpaceOnUse" xlink:href="#linearGradient943-0"/><linearGradient id="linearGradient4439" x1="42.957" x2="42.957" y1="48" y2="33.999" gradientTransform="translate(-1.88903,-1.7296)" gradientUnits="userSpaceOnUse" xlink:href="#linearGradient4433"/><linearGradient id="linearGradient4786" x1="458.571" x2="472.509" y1="871.361" y2="862.361" gradientTransform="matrix(-1,0,0,-1,490.68241,908.63181)" gradientUnits="userSpaceOnUse" xlink:href="#linearGradient4788"/><linearGradient id="linearGradient4219" x1="465.571" x2="458.571" y1="869.362" y2="862.363" gradientTransform="translate(-426.46047,-830.09179)" gradientUnits="userSpaceOnUse" xlink:href="#linearGradient4415"/><linearGradient id="linearGradient4355" x1="24" x2="24" y1="39" y2="9.026" gradientUnits="userSpaceOnUse" xlink:href="#linearGradient4275"/><style id="style874" type="text/css"><![CDATA[
    .fil0 {fill:#1F1A17}
   ]]></style><linearGradient id="linearGradient4275"><stop id="stop4277-5" offset="0" stop-color="#befacf" stop-opacity="1"/><stop id="stop4279" offset="1" stop-color="#f6fef9" stop-opacity="1"/></linearGradient><linearGradient id="linearGradient4415"><stop id="stop4417" offset="0" stop-color="#3cf06e" stop-opacity="1"/><stop id="stop4419" offset="1" stop-color="#9bf5bd" stop-opacity="1"/></linearGradient><linearGradient id="linearGradient943-0"><stop id="stop945-6" offset="0" stop-color="#10d547" stop-opacity="1"/><stop id="stop947-2" offset="1" stop-color="#1ce969" stop-opacity="1"/></linearGradient><style id="style1115" type="text/css"><![CDATA[ .fil0 {fill:#1F1A17} ]]></style><style id="style1246" type="text/css"><![CDATA[ .fil0 {fill:#1F1A17} ]]></style></defs><metadata id="metadata6659"/><g id="layer1" transform="translate(-167.42857,-811.2193)"><g id="layer1-0" transform="translate(0,3.3142089e-6)"><g font-style="normal" style="line-height:125%;-inkscape-font-specification:Impact Bold" id="text1330" fill="#fff" fill-opacity="1" stroke="none" font-family="Impact" font-size="7.5" font-stretch="normal" font-variant="normal" font-weight="bold" letter-spacing="0" transform="translate(169.31761,812.9489)" word-spacing="0"><rect id="rect2991-1-7-3" width="48" height="48" x="-1.889" y="-46.27" fill="url(#linearGradient4117)" fill-opacity="1" stroke="none" ry="1.945" transform="scale(1,-1)"/><path id="path4369" fill="#000" fill-opacity=".059" stroke="none" d="m 15.11096,8.4704 -3,2.025391 20,0 -3,-2.0000004 -14,-0.025391 z m -3,3 -5,8 15,19 15,-19 -5,-8 -20,0 z"/><path id="path4367" fill="#000" fill-opacity=".118" stroke="none" d="m 15.11096,8.0704 -3,2.025391 20,0 -3,-2.0000004 -14,-0.025391 z m -3,3 -5,8 15,19 15,-19 -5,-8 -20,0 z"/><path id="path4363" fill="#000" fill-opacity=".235" stroke="none" d="m 15.11096,7.6704 -3,2.025391 20,0 -3,-2.0000004 -14,-0.025391 z m -3,3 -5,8 15,19 15,-19 -5,-8 -20,0 z"/><path id="path7515-3" fill="#fff" fill-opacity=".537" stroke="none" d="m 0.6422,-1.0733 c -0.91709,0 -1.67115,0.6395 -1.84375,1.5 0.33561,-0.2799 0.77451,-0.4375 1.25,-0.4375 l 44.125,0 c 0.47549,0 0.91439,0.1576 1.25,0.4375 -0.1726,-0.8605 -0.92666,-1.5 -1.84375,-1.5 l -42.9375,0 z"/><path id="path4130" fill="url(#linearGradient4219)" fill-opacity="1" stroke="none" d="m 32.11097,32.2697 0,14.0007 14,-14 z"/><path id="path4303" fill="url(#linearGradient4439)" fill-opacity="1" stroke="none" d="m 46.11097,32.2704 -14,14 12.05469,0 c 1.07727,0 1.94531,-0.868 1.94531,-1.9453 l 0,-12.0547 z"/><path id="path4784" fill="url(#linearGradient4786)" fill-opacity="1" stroke="none" d="m 32.11097,46.2704 0,-14.0007 -14,14 z" opacity=".1"/><path id="rect846-0" fill="#000" fill-opacity="1" stroke="none" d="m -1.88905,43.2704 0,1.0625 c 0,1.0773 0.86022,1.9375 1.9375,1.9375 l 44.125,0 c 1.07728,0 1.9375,-0.8602 1.9375,-1.9375 l 0,-1.0625 c 0,1.0773 -0.86022,1.9375 -1.9375,1.9375 l -44.125,0 c -1.07728,0 -1.9375,-0.8602 -1.9375,-1.9375 z"/><path id="rect4280-1" fill="#000" fill-opacity=".392" stroke="none" d="m 0.04845,-1.7296 c -1.07728,0 -1.9375,0.8602 -1.9375,1.9375 l 0,43.0625 c 0,0.7934 0.48002,1.449 1.15625,1.75 -0.30934,-0.3333 -0.5,-0.7824 -0.5,-1.2812 l 0,-42.9375 c 0,-1.0482 0.8269,-1.875 1.875,-1.875 l 42.9375,0 c 1.0481,0 1.875,0.8268 1.875,1.875 l 0,42.9375 c 0,0.4988 -0.19066,0.9479 -0.5,1.2812 0.67623,-0.301 1.15625,-0.9566 1.15625,-1.75 l 0,-43.0625 c 0,-1.0773 -0.86022,-1.9375 -1.9375,-1.9375 l -44.125,0 z"/><path id="path4338" fill="url(#linearGradient4355)" fill-opacity="1" stroke="none" d="m 17,9 -3,2.025391 20,0 L 31,9.0253906 17,9 Z m -3,3 -5,8 15,19 15,-19 -5,-8 -20,0 z" transform="translate(-1.88904,-1.7296)"/><path id="path4371" fill="#13dd51" fill-opacity=".314" stroke="none" d="M 15.185547,10.224609 14,11.025391 l 20,0 -1.201172,-0.800782 -17.613281,0 z M 9.2792969,19.552734 9,20 24,39 39,20 38.720703,19.552734 24,38.199219 9.2792969,19.552734 Z" transform="translate(-1.88904,-1.7296)"/><path id="path4376" fill="#fff" fill-opacity=".235" stroke="none" d="m 17,9 -3,2.025391 0.59375,0 L 17,9.4003906 31,9.4257812 33.398438,11.025391 34,11.025391 31,9.0253906 17,9 Z M 14,12 9,20 9.140625,20.177734 14,12.400391 l 20,0 4.859375,7.777343 L 39,20 34,12 14,12 Z" transform="translate(-1.88904,-1.7296)"/></g></g></g></svg>