<svg xmlns="http://www.w3.org/2000/svg" xmlns:svg="http://www.w3.org/2000/svg" xmlns:xlink="http://www.w3.org/1999/xlink" id="svg6654" width="48" height="48" version="1.1"><defs id="defs6656"><linearGradient id="linearGradient4788-9"><stop id="stop4790-6" offset="0" stop-color="#000" stop-opacity="1"/><stop id="stop4792-9" offset="1" stop-color="#000" stop-opacity="0"/></linearGradient><linearGradient id="linearGradient4433-8"><stop id="stop4435-4" offset="0" stop-color="#2b3141" stop-opacity="1"/><stop id="stop4437-5" offset="1" stop-color="#394056" stop-opacity="1"/></linearGradient><linearGradient id="linearGradient4117-4" x1="92.143" x2="92.143" y1="-1049.092" y2="-1001.09" gradientTransform="translate(102.53514,189.8687)" gradientUnits="userSpaceOnUse" xlink:href="#linearGradient943-9-8"/><linearGradient id="linearGradient4439-3" x1="42.957" x2="42.957" y1="48" y2="33.999" gradientTransform="translate(167.42858,811.21931)" gradientUnits="userSpaceOnUse" xlink:href="#linearGradient4433-8"/><linearGradient id="linearGradient4786-8" x1="458.571" x2="472.509" y1="871.361" y2="862.361" gradientTransform="matrix(-1,0,0,-1,660.00002,1721.5807)" gradientUnits="userSpaceOnUse" xlink:href="#linearGradient4788-9"/><linearGradient id="linearGradient4219-0" x1="465.571" x2="458.571" y1="869.362" y2="862.363" gradientTransform="translate(-257.14286,-17.14288)" gradientUnits="userSpaceOnUse" xlink:href="#linearGradient4266"/><linearGradient id="linearGradient4145" x1="24.25" x2="24.25" y1="39" y2="9" gradientUnits="userSpaceOnUse" xlink:href="#linearGradient4274"/><linearGradient id="linearGradient4274"><stop id="stop4276" offset="0" stop-color="#b9d9ff" stop-opacity="1"/><stop id="stop4278" offset="1" stop-color="#f6fbfe" stop-opacity="1"/></linearGradient><linearGradient id="linearGradient4266"><stop id="stop4268" offset="0" stop-color="#2d8eff" stop-opacity="1"/><stop id="stop4270" offset="1" stop-color="#9cd3f4" stop-opacity="1"/></linearGradient><linearGradient id="linearGradient943-9-8"><stop id="stop945-30" offset="0" stop-color="#0059c1" stop-opacity="1"/><stop id="stop947-4" offset="1" stop-color="#118de7" stop-opacity="1"/></linearGradient></defs><metadata id="metadata6659"/><g id="layer1" transform="translate(-167.42857,-811.2193)"><g id="layer1-5"><g id="layer1-8" transform="translate(-4.4335937e-6,-4.6582031e-6)"><rect id="rect2991-1-7-3-7" width="48" height="48" x="167.429" y="-859.219" fill="url(#linearGradient4117-4)" fill-opacity="1" stroke="none" ry="1.945" transform="scale(1,-1)"/><path id="path4153" fill="#000" fill-opacity=".059" stroke="none" d="m 183.42857,821.4193 0,4 23,0 0,-4 -23,0 z m 0,7 0,4 0,7.63867 c -0.4026,-0.0887 -0.81998,-0.13867 -1.25,-0.13867 -3.1855,0 -5.75,2.5645 -5.75,5.75 0,3.1855 2.5645,5.75 5.75,5.75 3.10113,0 5.60736,-2.43222 5.73828,-5.5 l 0.0117,0 0,-0.25 0,-13.25 14,0 0,7.63867 c -0.4026,-0.0887 -0.81998,-0.13867 -1.25,-0.13867 -3.1855,0 -5.75,2.5645 -5.75,5.75 0,3.1855 2.5645,5.75 5.75,5.75 3.10113,0 5.60736,-2.43222 5.73828,-5.5 l 0.0117,0 0,-17.5 -23,0 z"/><path id="path4151" fill="#000" fill-opacity=".118" stroke="none" d="m 183.42857,821.0193 0,4 23,0 0,-4 -23,0 z m 0,7 0,4 0,7.63867 c -0.4026,-0.0887 -0.81998,-0.13867 -1.25,-0.13867 -3.1855,0 -5.75,2.5645 -5.75,5.75 0,3.1855 2.5645,5.75 5.75,5.75 3.10113,0 5.60736,-2.43222 5.73828,-5.5 l 0.0117,0 0,-0.25 0,-13.25 14,0 0,7.63867 c -0.4026,-0.0887 -0.81998,-0.13867 -1.25,-0.13867 -3.1855,0 -5.75,2.5645 -5.75,5.75 0,3.1855 2.5645,5.75 5.75,5.75 3.10113,0 5.60736,-2.43222 5.73828,-5.5 l 0.0117,0 0,-17.5 -23,0 z"/><path id="path4147" fill="#000" fill-opacity=".235" stroke="none" d="m 183.42857,820.6193 0,4 23,0 0,-4 -23,0 z m 0,7 0,4 0,7.63867 c -0.4026,-0.0887 -0.81998,-0.13867 -1.25,-0.13867 -3.1855,0 -5.75,2.5645 -5.75,5.75 0,3.1855 2.5645,5.75 5.75,5.75 3.10113,0 5.60736,-2.43222 5.73828,-5.5 l 0.0117,0 0,-0.25 0,-13.25 14,0 0,7.63867 c -0.4026,-0.0887 -0.81998,-0.13867 -1.25,-0.13867 -3.1855,0 -5.75,2.5645 -5.75,5.75 0,3.1855 2.5645,5.75 5.75,5.75 3.10113,0 5.60736,-2.43222 5.73828,-5.5 l 0.0117,0 0,-17.5 -23,0 z"/><path id="rect4122" fill="url(#linearGradient4145)" fill-opacity="1" stroke="none" d="m 16,9 0,4 23,0 0,-4 -23,0 z m 0,7 0,4 0,7.638672 C 15.597396,27.549987 15.180018,27.5 14.75,27.5 11.564499,27.5 9,30.064499 9,33.25 9,36.435501 11.564499,39 14.75,39 c 3.101128,0 5.607358,-2.432224 5.738281,-5.5 l 0.01172,0 0,-0.25 0,-13.25 14,0 0,7.638672 C 34.097396,27.549987 33.680018,27.5 33.25,27.5 c -3.185501,0 -5.75,2.564499 -5.75,5.75 0,3.185501 2.564499,5.75 5.75,5.75 3.101128,0 5.607358,-2.432224 5.738281,-5.5 L 39,33.5 39,16 16,16 Z" transform="translate(167.42857,811.2193)"/><path id="path7515-3-6" fill="#fff" fill-opacity=".537" stroke="none" d="m 169.95981,811.87561 c -0.91709,0 -1.67115,0.6395 -1.84375,1.5 0.33561,-0.2799 0.77451,-0.4375 1.25,-0.4375 l 44.125,0 c 0.47549,0 0.91439,0.1576 1.25,0.4375 -0.1726,-0.8605 -0.92666,-1.5 -1.84375,-1.5 l -42.9375,0 z"/><path id="path4155" fill="#025ec5" fill-opacity=".314" stroke="none" d="M 16,12.199219 16,13 l 23,0 0,-0.800781 -23,0 z m 4.5,7 0,0.800781 14,0 0,-0.800781 -14,0 z m -0.01172,13.5 c -0.13092,3.06778 -2.637151,5.5 -5.738281,5.5 -3.05036,0 -5.5254584,-2.353054 -5.7304688,-5.34961 C 9.0104487,32.982366 9,33.114859 9,33.25 9,36.435501 11.564499,39 14.75,39 c 3.101128,0 5.607358,-2.432224 5.738281,-5.5 l 0.01172,0 0,-0.25 0,-0.550781 -0.01172,0 z m 18.5,0 c -0.13092,3.06778 -2.637151,5.5 -5.738281,5.5 -3.05036,0 -5.525458,-2.353054 -5.730469,-5.34961 C 27.510449,32.982366 27.5,33.114859 27.5,33.25 c 0,3.185501 2.564499,5.75 5.75,5.75 3.101128,0 5.607358,-2.432224 5.738281,-5.5 l 0.01172,0 0,-0.800781 -0.01172,0 z" transform="translate(167.42857,811.2193)"/><path id="path4160" fill="#fff" fill-opacity=".235" stroke="none" d="m 16,9 0,0.4003906 23,0 L 39,9 16,9 Z m 0,7 0,0.400391 23,0 L 39,16 16,16 Z M 14.75,27.5 C 11.564499,27.5 9,30.064499 9,33.25 c 0,0.06724 0.0075,0.132549 0.00977,0.199219 0.106126,-3.090828 2.622629,-5.548828 5.74023,-5.548828 0.43002,0 0.8474,0.04997 1.25,0.138671 l 0,-0.40039 C 15.597396,27.549987 15.180018,27.5 14.75,27.5 Z m 18.5,0 c -3.185501,0 -5.75,2.564499 -5.75,5.75 0,0.06724 0.0075,0.132549 0.0098,0.199219 0.10613,-3.090828 2.622633,-5.548828 5.740234,-5.548828 0.43002,0 0.8474,0.04997 1.25,0.138671 l 0,-0.40039 C 34.097396,27.549987 33.680018,27.5 33.25,27.5 Z" transform="translate(167.42857,811.2193)"/><path id="path4130-6" fill="url(#linearGradient4219-0)" fill-opacity="1" stroke="none" d="m 201.42858,845.21861 0,14.0007 14,-14 z"/><path id="path4303-8" fill="url(#linearGradient4439-3)" fill-opacity="1" stroke="none" d="m 215.42858,845.21931 -14,14 12.05469,0 c 1.07728,0 1.94531,-0.868 1.94531,-1.9453 l 0,-12.0547 z"/><path id="path4784-0" fill="url(#linearGradient4786-8)" fill-opacity="1" stroke="none" d="m 201.42858,859.21931 0,-14.0007 -14,14 z" opacity=".1"/><path id="rect846-0-6" fill="#000" fill-opacity="1" stroke="none" d="m 167.42856,856.21931 0,1.0625 c 0,1.0773 0.86022,1.9375 1.9375,1.9375 l 44.125,0 c 1.07728,0 1.9375,-0.8602 1.9375,-1.9375 l 0,-1.0625 c 0,1.0773 -0.86022,1.9375 -1.9375,1.9375 l -44.125,0 c -1.07728,0 -1.9375,-0.8602 -1.9375,-1.9375 z"/><path id="rect4280-1-8" fill="#000" fill-opacity=".392" stroke="none" d="m 169.36606,811.21931 c -1.07728,0 -1.9375,0.8602 -1.9375,1.9375 l 0,43.0625 c 0,0.7934 0.48002,1.449 1.15625,1.75 -0.30934,-0.3333 -0.5,-0.7824 -0.5,-1.2812 l 0,-42.9375 c 0,-1.0482 0.8269,-1.875 1.875,-1.875 l 42.9375,0 c 1.0481,0 1.875,0.8268 1.875,1.875 l 0,42.9375 c 0,0.4988 -0.19066,0.9479 -0.5,1.2812 0.67623,-0.301 1.15625,-0.9566 1.15625,-1.75 l 0,-43.0625 c 0,-1.0773 -0.86022,-1.9375 -1.9375,-1.9375 l -44.125,0 z"/></g></g></g></svg>