<svg xmlns="http://www.w3.org/2000/svg" xmlns:svg="http://www.w3.org/2000/svg" xmlns:xlink="http://www.w3.org/1999/xlink" id="svg6391" width="48" height="48" version="1.1"><defs id="defs6393"><linearGradient id="linearGradient4345"><stop id="stop4347" offset="0" stop-color="#f4c4f4" stop-opacity="1"/><stop id="stop4349" offset="1" stop-color="#fef6fd" stop-opacity="1"/></linearGradient><linearGradient id="linearGradient4264"><stop id="stop4266" offset="0" stop-color="#de4ddf" stop-opacity="1"/><stop id="stop4268" offset="1" stop-color="#f898ee" stop-opacity="1"/></linearGradient><linearGradient id="linearGradient943-5"><stop id="stop945-6" offset="0" stop-color="#da3adb" stop-opacity="1"/><stop id="stop947-1" offset="1" stop-color="#f572e8" stop-opacity="1"/></linearGradient><linearGradient id="linearGradient4117-2" x1="92.143" x2="92.143" y1="-1049.092" y2="-1001.09" gradientTransform="translate(416.82084,469.86871)" gradientUnits="userSpaceOnUse" xlink:href="#linearGradient943-5"/><linearGradient id="linearGradient4219-4" x1="465.571" x2="458.571" y1="869.362" y2="862.363" gradientTransform="translate(57.14284,-297.14289)" gradientUnits="userSpaceOnUse" xlink:href="#linearGradient4264"/><linearGradient id="linearGradient4439-4" x1="42.957" x2="42.957" y1="48" y2="33.999" gradientTransform="translate(481.71428,531.21929)" gradientUnits="userSpaceOnUse" xlink:href="#linearGradient4433-8"/><linearGradient id="linearGradient4433-8"><stop id="stop4435-9" offset="0" stop-color="#2b3141" stop-opacity="1"/><stop id="stop4437-7" offset="1" stop-color="#394056" stop-opacity="1"/></linearGradient><linearGradient id="linearGradient4786-4" x1="458.571" x2="472.509" y1="871.361" y2="862.361" gradientTransform="matrix(-1,0,0,-1,974.28572,1441.5807)" gradientUnits="userSpaceOnUse" xlink:href="#linearGradient4788-3"/><linearGradient id="linearGradient4788-3"><stop id="stop4790-4" offset="0" stop-color="#000" stop-opacity="1"/><stop id="stop4792-7" offset="1" stop-color="#000" stop-opacity="0"/></linearGradient><linearGradient id="linearGradient4179" x1="395.675" x2="395.675" y1="453.076" y2="423.076" gradientTransform="translate(105.71428,117.14281)" gradientUnits="userSpaceOnUse" xlink:href="#linearGradient4345"/></defs><metadata id="metadata6396"/><g id="layer1" transform="translate(-481.71429,-531.2193)"><flowRoot id="flowRoot4913" fill="#000" fill-opacity="1" stroke="none" font-family="sans-serif" font-size="40" font-style="normal" font-weight="normal" letter-spacing="0" transform="translate(105.71428,117.14281)" word-spacing="0" xml:space="preserve" style="line-height:125%"><flowRegion id="flowRegion4915"><rect id="rect4917" width="199.404" height="189.505" x="134.35" y="-275.855"/></flowRegion><flowPara id="flowPara4919"/></flowRoot><rect id="rect2991-1-7-3" width="48" height="48" x="481.714" y="-579.219" fill="url(#linearGradient4117-2)" fill-opacity="1" stroke="none" ry="1.945" transform="scale(1,-1)"/><path id="path4187" fill="#000" fill-opacity=".059" stroke="none" d="m 490.71428,541.41929 0,30 30,0 0,-30 -30,0 z m 3,3 24,0 0,24 -24,0 0,-24 z m 16.75391,9.96289 -7.11133,9.48242 -4.83985,-2.41992 -3.80273,4.3457 0,0.73828 c 0,0.49375 0.39689,0.89063 0.89062,0.89063 l 5.08399,0 9.7793,0 5.35546,0 c 0.49372,0 0.89063,-0.39688 0.89063,-0.89063 l 0,-5.08398 -6.24609,-7.0625 z"/><path id="path4185" fill="#000" fill-opacity=".118" stroke="none" d="m 490.71428,541.01929 0,30 30,0 0,-30 -30,0 z m 3,3 24,0 0,24 -24,0 0,-24 z m 16.75391,9.96289 -7.11133,9.48242 -4.83985,-2.41992 -3.80273,4.3457 0,0.73828 c 0,0.49375 0.39689,0.89063 0.89062,0.89063 l 5.08399,0 9.7793,0 5.35546,0 c 0.49372,0 0.89063,-0.39688 0.89063,-0.89063 l 0,-5.08398 -6.24609,-7.0625 z"/><path id="path4181" fill="#000" fill-opacity=".235" stroke="none" d="m 490.71428,540.61929 0,30 30,0 0,-30 -30,0 z m 3,3 24,0 0,24 -24,0 0,-24 z m 16.75391,9.96289 -7.11133,9.48242 -4.83985,-2.41992 -3.80273,4.3457 0,0.73828 c 0,0.49375 0.39689,0.89063 0.89062,0.89063 l 5.08399,0 9.7793,0 5.35546,0 c 0.49372,0 0.89063,-0.39688 0.89063,-0.89063 l 0,-5.08398 -6.24609,-7.0625 z"/><path id="rect4195" fill="url(#linearGradient4179)" fill-opacity="1" stroke="none" d="m 490.71428,540.21929 0,30 30,0 0,-30 -30,0 z m 3,3 24,0 0,24 -24,0 0,-24 z m 16.75391,9.96289 -7.11133,9.48242 -4.83985,-2.41992 -3.80273,4.3457 0,0.73828 c 0,0.49375 0.39689,0.89063 0.89062,0.89063 l 5.08399,0 9.7793,0 5.35546,0 c 0.49372,0 0.89063,-0.39688 0.89063,-0.89063 l 0,-5.08398 -6.24609,-7.0625 z"/><path id="path7515-3-3-7" fill="#fff" fill-opacity=".537" stroke="none" d="m 484.24551,531.87561 c -0.91709,0 -1.67115,0.6395 -1.84375,1.5 0.33561,-0.2799 0.77451,-0.4375 1.25,-0.4375 l 44.125,0 c 0.47549,0 0.91439,0.1576 1.25,0.4375 -0.1726,-0.8605 -0.92666,-1.5 -1.84375,-1.5 l -42.9375,0 z"/><path id="path4189" fill="#e04cde" fill-opacity=".314" stroke="none" d="m 493.71428,542.41851 0,0.80078 24,0 0,-0.80078 -24,0 z m 23,22.10937 c 0,0.49375 -0.39691,0.89063 -0.89063,0.89063 l -5.35546,0 -9.7793,0 -5.08399,0 c -0.47573,0 -0.85336,-0.37128 -0.88085,-0.83985 l -0.01,0.0117 0,0.73828 c 0,0.49375 0.39689,0.89063 0.89062,0.89063 l 5.08399,0 9.7793,0 5.35546,0 c 0.49372,0 0.89063,-0.39688 0.89063,-0.89063 l 0,-0.80078 z m -26,4.89063 0,0.80078 30,0 0,-0.80078 -30,0 z"/><path id="path4194" fill="#fff" fill-opacity=".235" stroke="none" d="m 490.71428,540.21929 0,0.5 30,0 0,-0.5 -30,0 z m 19.75391,12.96289 -7.11133,9.48242 -4.83985,-2.41992 -3.80273,4.3457 0,0.5 3.80273,-4.3457 4.83985,2.41992 7.11133,-9.48242 6.24609,7.0625 0,-0.5 -6.24609,-7.0625 z m -16.75391,14.03711 0,0.5 24,0 0,-0.5 -24,0 z"/><path id="path4130-7" fill="url(#linearGradient4219-4)" fill-opacity="1" stroke="none" d="m 515.71428,565.21856 0,14.00073 14,-14 z"/><path id="path4303-1" fill="url(#linearGradient4439-4)" fill-opacity="1" stroke="none" d="m 529.71428,565.21929 -14,14 12.05469,0 c 1.07727,0 1.94531,-0.86804 1.94531,-1.94532 l 0,-12.05468 z"/><path id="path4784-8" fill="url(#linearGradient4786-4)" fill-opacity="1" stroke="none" d="m 515.71428,579.21929 0,-14.00073 -14,14 z" opacity=".1"/><path id="rect846-0-5" fill="#000" fill-opacity="1" stroke="none" d="m 481.71426,576.21931 0,1.0625 c 0,1.0773 0.86022,1.9375 1.9375,1.9375 l 44.125,0 c 1.07728,0 1.9375,-0.8602 1.9375,-1.9375 l 0,-1.0625 c 0,1.0773 -0.86022,1.9375 -1.9375,1.9375 l -44.125,0 c -1.07728,0 -1.9375,-0.8602 -1.9375,-1.9375 z"/><path id="rect4280-1-9" fill="#000" fill-opacity=".392" stroke="none" d="m 483.65176,531.21931 c -1.07728,0 -1.9375,0.8602 -1.9375,1.9375 l 0,43.0625 c 0,0.7934 0.48002,1.449 1.15625,1.75 -0.30934,-0.3333 -0.5,-0.7824 -0.5,-1.2812 l 0,-42.9375 c 0,-1.0482 0.8269,-1.875 1.875,-1.875 l 42.9375,0 c 1.0481,0 1.875,0.8268 1.875,1.875 l 0,42.9375 c 0,0.4988 -0.19066,0.9479 -0.5,1.2812 0.67623,-0.301 1.15625,-0.9566 1.15625,-1.75 l 0,-43.0625 c 0,-1.0773 -0.86022,-1.9375 -1.9375,-1.9375 l -44.125,0 z"/></g></svg>