<svg xmlns="http://www.w3.org/2000/svg" xmlns:svg="http://www.w3.org/2000/svg" xmlns:xlink="http://www.w3.org/1999/xlink" id="svg6536" width="48" height="48" version="1.1"><defs id="defs6538"><linearGradient id="linearGradient4372"><stop id="stop4374" offset="0" stop-color="#cdd1eb" stop-opacity="1"/><stop id="stop4376" offset="1" stop-color="#f7f8fd" stop-opacity="1"/></linearGradient><linearGradient id="linearGradient4349"><stop id="stop4351" offset="0" stop-color="#6a76c2" stop-opacity="1"/><stop id="stop4353" offset="1" stop-color="#a6b0ea" stop-opacity="1"/></linearGradient><linearGradient id="linearGradient4117-2" x1="92.143" x2="92.143" y1="-1049.092" y2="-1001.09" gradientTransform="translate(456.82085,395.58295)" gradientUnits="userSpaceOnUse" xlink:href="#linearGradient943"/><linearGradient id="linearGradient943"><stop id="stop945" offset="0" stop-color="#4e5db7" stop-opacity="1"/><stop id="stop947" offset="1" stop-color="#6475da" stop-opacity="1"/></linearGradient><linearGradient id="linearGradient4219" x1="465.571" x2="458.571" y1="869.362" y2="862.363" gradientTransform="translate(97.142847,-222.85713)" gradientUnits="userSpaceOnUse" xlink:href="#linearGradient4349"/><linearGradient id="linearGradient4439" x1="42.957" x2="42.957" y1="48" y2="33.999" gradientTransform="translate(521.71429,605.50505)" gradientUnits="userSpaceOnUse" xlink:href="#linearGradient4433"/><linearGradient id="linearGradient4433"><stop id="stop4435" offset="0" stop-color="#2b3141" stop-opacity="1"/><stop id="stop4437" offset="1" stop-color="#394056" stop-opacity="1"/></linearGradient><linearGradient id="linearGradient4786" x1="458.571" x2="472.509" y1="871.361" y2="862.361" gradientTransform="matrix(-1,0,0,-1,1014.2857,1515.8665)" gradientUnits="userSpaceOnUse" xlink:href="#linearGradient4788"/><linearGradient id="linearGradient4788"><stop id="stop4790" offset="0" stop-color="#000" stop-opacity="1"/><stop id="stop4792-7" offset="1" stop-color="#000" stop-opacity="0"/></linearGradient><linearGradient id="linearGradient4284" x1="26.265" x2="26.265" y1="39" y2="9" gradientUnits="userSpaceOnUse" xlink:href="#linearGradient4372"/></defs><metadata id="metadata6541"/><g id="layer1" transform="translate(-521.71429,-605.50507)"><rect id="rect2991-1-7-3-8" width="48" height="48" x="521.714" y="-653.505" fill="url(#linearGradient4117-2)" fill-opacity="1" stroke="none" ry="1.945" transform="scale(1,-1)"/><path id="path4292" fill="#000" fill-opacity=".059" stroke="none" d="m 530.71429,615.70507 0,14 14,0 0,-14 -14,0 z m 16,0 0,14 14,0 0,-14 -14,0 z m -16,16 0,14 14,0 0,-14 -14,0 z m 16,0 0,14 14,0 0,-14 -14,0 z"/><path id="path4290" fill="#000" fill-opacity=".118" stroke="none" d="m 530.71429,615.30507 0,14 14,0 0,-14 -14,0 z m 16,0 0,14 14,0 0,-14 -14,0 z m -16,16 0,14 14,0 0,-14 -14,0 z m 16,0 0,14 14,0 0,-14 -14,0 z"/><path id="path4286" fill="#000" fill-opacity=".235" stroke="none" d="m 530.71429,614.90507 0,14 14,0 0,-14 -14,0 z m 16,0 0,14 14,0 0,-14 -14,0 z m -16,16 0,14 14,0 0,-14 -14,0 z m 16,0 0,14 14,0 0,-14 -14,0 z"/><path id="rect4269" fill="url(#linearGradient4284)" fill-opacity="1" stroke="none" d="M 9 9 L 9 23 L 23 23 L 23 9 L 9 9 z M 25 9 L 25 23 L 39 23 L 39 9 L 25 9 z M 9 25 L 9 39 L 23 39 L 23 25 L 9 25 z M 25 25 L 25 39 L 39 39 L 39 25 L 25 25 z" transform="translate(521.71429,605.50507)"/><path id="path7515-3-3" fill="#fff" fill-opacity=".537" stroke="none" d="m 524.24552,606.16137 c -0.91709,0 -1.67115,0.6395 -1.84375,1.5 0.33561,-0.2799 0.77451,-0.4375 1.25,-0.4375 l 44.125,0 c 0.47549,0 0.91439,0.1576 1.25,0.4375 -0.1726,-0.8605 -0.92666,-1.5 -1.84375,-1.5 l -42.9375,0 z"/><flowRoot id="flowRoot4913" fill="#000" fill-opacity="1" stroke="none" font-family="sans-serif" font-size="40" font-style="normal" font-weight="normal" letter-spacing="0" transform="translate(73.026038,217.27336)" word-spacing="0" xml:space="preserve" style="line-height:125%"><flowRegion id="flowRegion4915"><rect id="rect4917" width="199.404" height="189.505" x="134.35" y="-275.855"/></flowRegion><flowPara id="flowPara4919"/></flowRoot><path id="path4294" fill="#5666c2" fill-opacity=".314" stroke="none" d="M 9 22.199219 L 9 23 L 23 23 L 23 22.199219 L 9 22.199219 z M 25 22.199219 L 25 23 L 39 23 L 39 22.199219 L 25 22.199219 z M 9 38.199219 L 9 39 L 23 39 L 23 38.199219 L 9 38.199219 z M 25 38.199219 L 25 39 L 39 39 L 39 38.199219 L 25 38.199219 z" transform="translate(521.71429,605.50507)"/><path id="path4299" fill="#5666c2" fill-opacity=".314" stroke="none" d="M 9 22.199219 L 9 23 L 23 23 L 23 22.199219 L 9 22.199219 z M 25 22.199219 L 25 23 L 39 23 L 39 22.199219 L 25 22.199219 z M 9 38.199219 L 9 39 L 23 39 L 23 38.199219 L 9 38.199219 z M 25 38.199219 L 25 39 L 39 39 L 39 38.199219 L 25 38.199219 z" transform="translate(521.71429,605.50507)"/><path id="path4304" fill="#fff" fill-opacity=".235" stroke="none" d="M 9 9 L 9 9.4003906 L 23 9.4003906 L 23 9 L 9 9 z M 25 9 L 25 9.4003906 L 39 9.4003906 L 39 9 L 25 9 z M 9 25 L 9 25.400391 L 23 25.400391 L 23 25 L 9 25 z M 25 25 L 25 25.400391 L 39 25.400391 L 39 25 L 25 25 z" transform="translate(521.71429,605.50507)"/><path id="path4130" fill="url(#linearGradient4219)" fill-opacity="1" stroke="none" d="m 555.71429,639.50432 0,14.00073 14,-14 z"/><path id="path4303" fill="url(#linearGradient4439)" fill-opacity="1" stroke="none" d="m 569.71429,639.50505 -14,14 12.05469,0 c 1.07727,0 1.94531,-0.86804 1.94531,-1.94532 l 0,-12.05468 z"/><path id="path4784" fill="url(#linearGradient4786)" fill-opacity="1" stroke="none" d="m 555.71429,653.50505 0,-14.00073 -14,14 z" opacity=".1"/><path id="rect846-0-5" fill="#000" fill-opacity="1" stroke="none" d="m 521.71427,650.50507 0,1.0625 c 0,1.0773 0.86022,1.9375 1.9375,1.9375 l 44.125,0 c 1.07728,0 1.9375,-0.8602 1.9375,-1.9375 l 0,-1.0625 c 0,1.0773 -0.86022,1.9375 -1.9375,1.9375 l -44.125,0 c -1.07728,0 -1.9375,-0.8602 -1.9375,-1.9375 z"/><path id="rect4280-1-9" fill="#000" fill-opacity=".392" stroke="none" d="m 523.65177,605.50507 c -1.07728,0 -1.9375,0.8602 -1.9375,1.9375 l 0,43.0625 c 0,0.7934 0.48002,1.449 1.15625,1.75 -0.30934,-0.3333 -0.5,-0.7824 -0.5,-1.2812 l 0,-42.9375 c 0,-1.0482 0.8269,-1.875 1.875,-1.875 l 42.9375,0 c 1.0481,0 1.875,0.8268 1.875,1.875 l 0,42.9375 c 0,0.4988 -0.19066,0.9479 -0.5,1.2812 0.67623,-0.301 1.15625,-0.9566 1.15625,-1.75 l 0,-43.0625 c 0,-1.0773 -0.86022,-1.9375 -1.9375,-1.9375 l -44.125,0 z"/></g></svg>