<svg xmlns="http://www.w3.org/2000/svg" xmlns:svg="http://www.w3.org/2000/svg" xmlns:xlink="http://www.w3.org/1999/xlink" id="svg4287" width="48" height="48" version="1.1"><defs id="defs4289"><linearGradient id="linearGradient4788"><stop id="stop4790" offset="0" stop-color="#000" stop-opacity="1"/><stop id="stop4792" offset="1" stop-color="#000" stop-opacity="0"/></linearGradient><linearGradient id="linearGradient4433"><stop id="stop4435" offset="0" stop-color="#2b3141" stop-opacity="1"/><stop id="stop4437" offset="1" stop-color="#394056" stop-opacity="1"/></linearGradient><linearGradient id="linearGradient4117" x1="92.143" x2="92.143" y1="-1049.092" y2="-1001.09" gradientTransform="translate(-64.893431,-3.2741987)" gradientUnits="userSpaceOnUse" xlink:href="#linearGradient943-6"/><linearGradient id="linearGradient4439" x1="42.957" x2="42.957" y1="48" y2="33.999" gradientTransform="translate(9.1748047e-6,1004.3622)" gradientUnits="userSpaceOnUse" xlink:href="#linearGradient4433"/><linearGradient id="linearGradient4786" x1="458.571" x2="472.509" y1="871.361" y2="862.361" gradientTransform="matrix(-1,0,0,-1,492.57145,1914.7236)" gradientUnits="userSpaceOnUse" xlink:href="#linearGradient4788"/><linearGradient id="linearGradient4219" x1="465.571" x2="458.571" y1="869.362" y2="862.363" gradientTransform="translate(-424.57143,176.00002)" gradientUnits="userSpaceOnUse" xlink:href="#linearGradient4266"/><linearGradient id="linearGradient4271" x1="-20.298" x2="-20.298" y1="1043.283" y2="1013.283" gradientTransform="translate(52.873552,0.0794)" gradientUnits="userSpaceOnUse" xlink:href="#linearGradient4274"/><linearGradient id="linearGradient4274"><stop id="stop4276" offset="0" stop-color="#b9d9ff" stop-opacity="1"/><stop id="stop4278" offset="1" stop-color="#f6fbfe" stop-opacity="1"/></linearGradient><linearGradient id="linearGradient4266"><stop id="stop4268" offset="0" stop-color="#2d8eff" stop-opacity="1"/><stop id="stop4270" offset="1" stop-color="#9cd3f4" stop-opacity="1"/></linearGradient><linearGradient id="linearGradient943-6"><stop id="stop945-0" offset="0" stop-color="#0059c1" stop-opacity="1"/><stop id="stop947-5" offset="1" stop-color="#118de7" stop-opacity="1"/></linearGradient></defs><metadata id="metadata4292"/><g id="layer1" transform="translate(0,-1004.3622)"><g id="layer1-0" transform="translate(0,8.6914065e-6)"><rect id="rect2991-1-7-3-1" width="48" height="48" x="0" y="-1052.362" fill="url(#linearGradient4117)" fill-opacity="1" stroke="none" ry="1.945" transform="scale(1,-1)"/><path id="path4301" fill="#000" fill-opacity=".059" stroke="none" d="m 11,1014.5622 0,30 26,0 0,-9.8516 0,-3.1231 -14.199219,-17.0253 -2.605469,0 -9.195312,0 z m 13.451172,0 1.714843,2 0.0039,0 8.830078,10.2968 2,2.3321 0,-14.6289 -12.548828,0 z m -11.451172,2 8.863281,0 13.136719,15.75 0,10.25 -22,0 0,-26 z"/><path id="path4299" fill="#000" fill-opacity=".118" stroke="none" d="m 11,1014.1622 0,30 26,0 0,-9.8516 0,-3.1231 -14.199219,-17.0253 -2.605469,0 -9.195312,0 z m 13.451172,0 1.714843,2 0.0039,0 8.830078,10.2968 2,2.3321 0,-14.6289 -12.548828,0 z m -11.451172,2 8.863281,0 13.136719,15.75 0,10.25 -22,0 0,-26 z"/><path id="path4295" fill="#000" fill-opacity=".235" stroke="none" d="m 11,1013.7622 0,30 26,0 0,-9.8516 0,-3.1231 -14.199219,-17.0253 -2.605469,0 -9.195312,0 z m 13.451172,0 1.714843,2 0.0039,0 8.830078,10.2968 2,2.3321 0,-14.6289 -12.548828,0 z m -11.451172,2 8.863281,0 13.136719,15.75 0,10.25 -22,0 0,-26 z"/><path id="rect3235" fill="url(#linearGradient4271)" fill-opacity="1" stroke="none" d="m 11,1013.3622 0,30 26,0 0,-9.8516 0,-3.1231 -14.199219,-17.0253 -2.605469,0 -9.195312,0 z m 13.451172,0 1.714843,2 0.0039,0 8.830078,10.2968 2,2.3321 0,-14.6289 -12.548828,0 z m -11.451172,2 8.863281,0 13.136719,15.75 0,10.25 -22,0 0,-26 z"/><path id="path4309" fill="#fff" fill-opacity=".235" stroke="none" d="m 11,9 0,0.4003906 9.195312,0 2.605469,0 L 37,26.425781 37,26.025391 22.800781,9 20.195312,9 11,9 Z m 13.451172,0 0.34375,0.4003906 12.205078,0 L 37,9 24.451172,9 Z M 13,37 l 0,0.400391 22,0 L 35,37 13,37 Z" transform="translate(0,1004.3622)"/><path id="path4304" fill="#025ec5" fill-opacity=".314" stroke="none" d="m 24.451172,9 1.714844,2 0.0039,0 L 35,21.296875 l 2,2.332031 0,-0.800781 -2,-2.332031 -8.830078,-10.296875 -0.0039,0 L 25.138672,9 24.451172,9 Z M 13,10.199219 13,11 21.863281,11 35,26.75 l 0,-0.800781 -13.136719,-15.75 -8.863281,0 z m -2,28 L 11,39 l 26,0 0,-0.800781 -26,0 z" transform="translate(0,1004.3622)"/><path id="path7515-3-8" fill="#fff" fill-opacity=".537" stroke="none" d="m 2.5312392,1005.0185 c -0.91709,0 -1.67115003,0.6395 -1.84375003,1.5 0.33561003,-0.2799 0.77451003,-0.4375 1.25000003,-0.4375 l 44.1249998,0 c 0.47549,0 0.91439,0.1576 1.25,0.4375 -0.1726,-0.8605 -0.92666,-1.5 -1.84375,-1.5 l -42.9374998,0 z"/><path id="path4130" fill="url(#linearGradient4219)" fill-opacity="1" stroke="none" d="m 34.000009,1038.3615 0,14.0007 14,-14 z"/><path id="path4303" fill="url(#linearGradient4439)" fill-opacity="1" stroke="none" d="m 48.000009,1038.3622 -14,14 12.054688,0 c 1.077277,0 1.945312,-0.868 1.945312,-1.9453 l 0,-12.0547 z"/><path id="path4784" fill="url(#linearGradient4786)" fill-opacity="1" stroke="none" d="m 34.000009,1052.3622 0,-14.0007 -14,14 z" opacity=".1"/><path id="rect846-0-6" fill="#000" fill-opacity="1" stroke="none" d="m -1.0825195e-5,1049.3622 0,1.0625 c 0,1.0773 0.860219995195,1.9375 1.937500025195,1.9375 l 44.1249998,0 c 1.07728,0 1.9375,-0.8602 1.9375,-1.9375 l 0,-1.0625 c 0,1.0773 -0.86022,1.9375 -1.9375,1.9375 l -44.1249998,0 c -1.07728003,0 -1.937500025195,-0.8602 -1.937500025195,-1.9375 z"/><path id="rect4280-1-4" fill="#000" fill-opacity=".392" stroke="none" d="m 1.9374892,1004.3622 c -1.07728003,0 -1.937500025195,0.8602 -1.937500025195,1.9375 l 0,43.0625 c 0,0.7934 0.480019995195,1.449 1.156250025195,1.75 -0.30934003,-0.3333 -0.50000003,-0.7824 -0.50000003,-1.2812 l 0,-42.9375 c 0,-1.0482 0.82690003,-1.875 1.87500003,-1.875 l 42.9374998,0 c 1.0481,0 1.875,0.8268 1.875,1.875 l 0,42.9375 c 0,0.4988 -0.19066,0.9479 -0.5,1.2812 0.67623,-0.301 1.15625,-0.9566 1.15625,-1.75 l 0,-43.0625 c 0,-1.0773 -0.86022,-1.9375 -1.9375,-1.9375 l -44.1249998,0 z"/></g></g></svg>