<svg xmlns="http://www.w3.org/2000/svg" xmlns:svg="http://www.w3.org/2000/svg" xmlns:xlink="http://www.w3.org/1999/xlink" id="svg6407" width="48" height="48" version="1.1"><defs id="defs6409"><linearGradient id="linearGradient4259"><stop id="stop4261" offset="0" stop-color="#befacf" stop-opacity="1"/><stop id="stop4263" offset="1" stop-color="#f6fef9" stop-opacity="1"/></linearGradient><style id="style874" type="text/css"><![CDATA[
    .fil0 {fill:#1F1A17}
   ]]></style><linearGradient id="linearGradient4415"><stop id="stop4417" offset="0" stop-color="#3cf06e" stop-opacity="1"/><stop id="stop4419" offset="1" stop-color="#9bf5bd" stop-opacity="1"/></linearGradient><linearGradient id="linearGradient943-0"><stop id="stop945-6" offset="0" stop-color="#10d547" stop-opacity="1"/><stop id="stop947-2" offset="1" stop-color="#1ce969" stop-opacity="1"/></linearGradient><style id="style1115" type="text/css"><![CDATA[ .fil0 {fill:#1F1A17} ]]></style><style id="style1246" type="text/css"><![CDATA[ .fil0 {fill:#1F1A17} ]]></style><linearGradient id="linearGradient4788-6"><stop id="stop4790-9" offset="0" stop-color="#000" stop-opacity="1"/><stop id="stop4792-4" offset="1" stop-color="#000" stop-opacity="0"/></linearGradient><linearGradient id="linearGradient4433-9"><stop id="stop4435-6" offset="0" stop-color="#2b3141" stop-opacity="1"/><stop id="stop4437-6" offset="1" stop-color="#394056" stop-opacity="1"/></linearGradient><linearGradient id="linearGradient4117-6" x1="92.143" x2="92.143" y1="-1049.092" y2="-1001.09" gradientTransform="translate(596.82086,349.86868)" gradientUnits="userSpaceOnUse" xlink:href="#linearGradient943-0"/><linearGradient id="linearGradient4439-1" x1="42.957" x2="42.957" y1="48" y2="33.999" gradientTransform="translate(661.7143,651.21932)" gradientUnits="userSpaceOnUse" xlink:href="#linearGradient4433-9"/><linearGradient id="linearGradient4786-8" x1="458.571" x2="472.509" y1="871.361" y2="862.361" gradientTransform="matrix(-1,0,0,-1,1154.2857,1561.5807)" gradientUnits="userSpaceOnUse" xlink:href="#linearGradient4788-6"/><linearGradient id="linearGradient4219-7" x1="465.571" x2="458.571" y1="869.362" y2="862.363" gradientTransform="translate(237.14286,-177.14286)" gradientUnits="userSpaceOnUse" xlink:href="#linearGradient4415"/><linearGradient id="linearGradient4257" x1="22.945" x2="22.945" y1="39" y2="9" gradientUnits="userSpaceOnUse" xlink:href="#linearGradient4259"/></defs><metadata id="metadata6412"/><g id="layer1" transform="translate(-661.71429,-651.21932)"><rect id="rect2991-1-7-3-1" width="48" height="48" x="661.714" y="-699.219" fill="url(#linearGradient4117-6)" fill-opacity="1" stroke="none" ry="1.945" transform="scale(1,-1)"/><path id="path4271" fill="#000" fill-opacity=".059" stroke="none" d="m 681.71429,661.41932 0,30 7,0 0,-11.5 5,0 0,8 0,3.5 7,0 0,-9 0,-6 c 0,-1.939 -1.561,-3.5 -3.5,-3.5 l -8.5,0 0,-11.5 -7,0 z m -6.5,21 c -2.493,0 -4.5,2.007 -4.5,4.5 0,2.493 2.007,4.5 4.5,4.5 2.493,0 4.5,-2.007 4.5,-4.5 0,-2.493 -2.007,-4.5 -4.5,-4.5 z"/><path id="path4269" fill="#000" fill-opacity=".118" stroke="none" d="m 681.71429,661.01932 0,30 7,0 0,-11.5 5,0 0,8 0,3.5 7,0 0,-9 0,-6 c 0,-1.939 -1.561,-3.5 -3.5,-3.5 l -8.5,0 0,-11.5 -7,0 z m -6.5,21 c -2.493,0 -4.5,2.007 -4.5,4.5 0,2.493 2.007,4.5 4.5,4.5 2.493,0 4.5,-2.007 4.5,-4.5 0,-2.493 -2.007,-4.5 -4.5,-4.5 z"/><path id="path4265" fill="#000" fill-opacity=".235" stroke="none" d="m 681.71429,660.61932 0,30 7,0 0,-11.5 5,0 0,8 0,3.5 7,0 0,-9 0,-6 c 0,-1.939 -1.561,-3.5 -3.5,-3.5 l -8.5,0 0,-11.5 -7,0 z m -6.5,21 c -2.493,0 -4.5,2.007 -4.5,4.5 0,2.493 2.007,4.5 4.5,4.5 2.493,0 4.5,-2.007 4.5,-4.5 0,-2.493 -2.007,-4.5 -4.5,-4.5 z"/><path id="rect4216" fill="url(#linearGradient4257)" fill-opacity="1" stroke="none" d="M 20 9 L 20 39 L 27 39 L 27 27.5 L 32 27.5 L 32 35.5 L 32 39 L 39 39 L 39 30 L 39 24 C 39 22.061 37.439 20.5 35.5 20.5 L 27 20.5 L 27 9 L 20 9 z M 13.5 30 C 11.007 30 9 32.007 9 34.5 C 9 36.993 11.007 39 13.5 39 C 15.993 39 18 36.993 18 34.5 C 18 32.007 15.993 30 13.5 30 z" transform="translate(661.71429,651.21932)"/><path id="path7515-3-3-8" fill="#fff" fill-opacity=".537" stroke="none" d="m 664.24553,651.87564 c -0.91709,0 -1.67115,0.6395 -1.84375,1.5 0.33561,-0.2799 0.77451,-0.4375 1.25,-0.4375 l 44.125,0 c 0.47549,0 0.91439,0.1576 1.25,0.4375 -0.1726,-0.8605 -0.92666,-1.5 -1.84375,-1.5 l -42.9375,0 z"/><path id="path4114" fill="#fff" fill-opacity=".235" stroke="none" d="M 20 9 L 20 9.4003906 L 27 9.4003906 L 27 9 L 20 9 z M 27 20.5 L 27 20.900391 L 35.5 20.900391 C 37.439 20.900391 39 22.461391 39 24.400391 L 39 24 C 39 22.061 37.439 20.5 35.5 20.5 L 27 20.5 z M 13.5 30 C 11.007 30 9 32.007 9 34.5 C 9 34.568336 9.0165466 34.631645 9.0195312 34.699219 C 9.1262014 32.302303 11.075853 30.400391 13.5 30.400391 C 15.924147 30.400391 17.873799 32.302303 17.980469 34.699219 C 17.983453 34.631645 18 34.568336 18 34.5 C 18 32.007 15.993 30 13.5 30 z" transform="translate(661.71429,651.21932)"/><path id="path4109" fill="#13dd50" fill-opacity=".314" stroke="none" d="M 27 26.699219 L 27 27.5 L 32 27.5 L 32 26.699219 L 27 26.699219 z M 9.0410156 34.099609 C 9.0290771 34.233804 9 34.362598 9 34.5 C 9 36.993 11.007 39 13.5 39 C 15.993 39 18 36.993 18 34.5 C 18 34.362598 17.970923 34.233804 17.958984 34.099609 C 17.754712 36.400634 15.85589 38.199219 13.5 38.199219 C 11.14411 38.199219 9.2452883 36.400634 9.0410156 34.099609 z M 20 38.199219 L 20 39 L 27 39 L 27 38.199219 L 20 38.199219 z M 32 38.199219 L 32 39 L 39 39 L 39 38.199219 L 32 38.199219 z" transform="translate(661.71429,651.21932)"/><path id="path4130-7" fill="url(#linearGradient4219-7)" fill-opacity="1" stroke="none" d="m 695.7143,685.21859 0,14.00073 14,-14 z"/><path id="path4303-5" fill="url(#linearGradient4439-1)" fill-opacity="1" stroke="none" d="m 709.7143,685.21932 -14,14 12.05469,0 c 1.07728,0 1.94531,-0.86804 1.94531,-1.94531 l 0,-12.05469 z"/><path id="path4784-5" fill="url(#linearGradient4786-8)" fill-opacity="1" stroke="none" d="m 695.7143,699.21932 0,-14.00073 -14,14 z" opacity=".1"/><path id="rect846-0-4" fill="#000" fill-opacity="1" stroke="none" d="m 661.71428,696.21934 0,1.0625 c 0,1.0773 0.86022,1.9375 1.9375,1.9375 l 44.125,0 c 1.07728,0 1.9375,-0.8602 1.9375,-1.9375 l 0,-1.0625 c 0,1.0773 -0.86022,1.9375 -1.9375,1.9375 l -44.125,0 c -1.07728,0 -1.9375,-0.8602 -1.9375,-1.9375 z"/><path id="rect4280-1-1" fill="#000" fill-opacity=".392" stroke="none" d="m 663.65178,651.21934 c -1.07728,0 -1.9375,0.8602 -1.9375,1.9375 l 0,43.0625 c 0,0.7934 0.48002,1.449 1.15625,1.75 -0.30934,-0.3333 -0.5,-0.7824 -0.5,-1.2812 l 0,-42.9375 c 0,-1.0482 0.8269,-1.875 1.875,-1.875 l 42.9375,0 c 1.0481,0 1.875,0.8268 1.875,1.875 l 0,42.9375 c 0,0.4988 -0.19066,0.9479 -0.5,1.2812 0.67623,-0.301 1.15625,-0.9566 1.15625,-1.75 l 0,-43.0625 c 0,-1.0773 -0.86022,-1.9375 -1.9375,-1.9375 l -44.125,0 z"/></g></svg>