<svg xmlns="http://www.w3.org/2000/svg" xmlns:svg="http://www.w3.org/2000/svg" xmlns:xlink="http://www.w3.org/1999/xlink" id="svg6407" width="48" height="48" version="1.1"><defs id="defs6409"><linearGradient id="linearGradient4345"><stop id="stop4347" offset="0" stop-color="#f4c4f4" stop-opacity="1"/><stop id="stop4349" offset="1" stop-color="#fef6fd" stop-opacity="1"/></linearGradient><linearGradient id="linearGradient4264"><stop id="stop4266" offset="0" stop-color="#de4ddf" stop-opacity="1"/><stop id="stop4268" offset="1" stop-color="#f898ee" stop-opacity="1"/></linearGradient><linearGradient id="linearGradient4788"><stop id="stop4790" offset="0" stop-color="#000" stop-opacity="1"/><stop id="stop4792" offset="1" stop-color="#000" stop-opacity="0"/></linearGradient><linearGradient id="linearGradient4433"><stop id="stop4435" offset="0" stop-color="#2b3141" stop-opacity="1"/><stop id="stop4437" offset="1" stop-color="#394056" stop-opacity="1"/></linearGradient><linearGradient id="linearGradient943-5"><stop id="stop945-6" offset="0" stop-color="#da3adb" stop-opacity="1"/><stop id="stop947-1" offset="1" stop-color="#f572e8" stop-opacity="1"/></linearGradient><linearGradient id="linearGradient4117" x1="92.143" x2="92.143" y1="-1049.092" y2="-1001.09" gradientTransform="translate(596.82086,349.86869)" gradientUnits="userSpaceOnUse" xlink:href="#linearGradient943-5"/><linearGradient id="linearGradient4439" x1="42.957" x2="42.957" y1="48" y2="33.999" gradientTransform="translate(661.7143,651.21931)" gradientUnits="userSpaceOnUse" xlink:href="#linearGradient4433"/><linearGradient id="linearGradient4786" x1="458.571" x2="472.509" y1="871.361" y2="862.361" gradientTransform="matrix(-1,0,0,-1,1154.2857,1561.5807)" gradientUnits="userSpaceOnUse" xlink:href="#linearGradient4788"/><linearGradient id="linearGradient4219" x1="465.571" x2="458.571" y1="869.362" y2="862.363" gradientTransform="translate(237.14286,-177.14287)" gradientUnits="userSpaceOnUse" xlink:href="#linearGradient4264"/><linearGradient id="linearGradient4343" x1="21.122" x2="21.122" y1="39" y2="9" gradientUnits="userSpaceOnUse" xlink:href="#linearGradient4345"/></defs><metadata id="metadata6412"/><g id="layer1" transform="translate(-661.71429,-651.21932)"><rect id="rect2991-1-7-3-1" width="48" height="48" x="661.714" y="-699.219" fill="url(#linearGradient4117)" fill-opacity="1" stroke="none" ry="1.945" transform="scale(1,-1)"/><path id="path4357" fill="#000" fill-opacity=".059" stroke="none" d="m 672.83538,661.41932 -2.12109,2.12109 7.87891,7.87891 -7.87891,7.87891 2.12109,2.12109 10,-10 -10,-10 z m 12.87891,27 0,3 15,0 0,-3 -15,0 z"/><path id="path4355" fill="#000" fill-opacity=".118" stroke="none" d="m 672.83538,661.01932 -2.12109,2.12109 7.87891,7.87891 -7.87891,7.87891 2.12109,2.12109 10,-10 -10,-10 z m 12.87891,27 0,3 15,0 0,-3 -15,0 z"/><path id="path4351" fill="#000" fill-opacity=".235" stroke="none" d="m 672.83538,660.61932 -2.12109,2.12109 7.87891,7.87891 -7.87891,7.87891 2.12109,2.12109 10,-10 -10,-10 z m 12.87891,27 0,3 15,0 0,-3 -15,0 z"/><path id="rect4284" fill="url(#linearGradient4343)" fill-opacity="1" stroke="none" d="M 11.121094 9 L 9 11.121094 L 16.878906 19 L 9 26.878906 L 11.121094 29 L 21.121094 19 L 11.121094 9 z M 24 36 L 24 39 L 39 39 L 39 36 L 24 36 z" transform="translate(661.71429,651.21932)"/><path id="path4364" fill="#fff" fill-opacity=".235" stroke="none" d="M 11.121094 9 L 9 11.121094 L 9.1992188 11.320312 L 11.121094 9.4003906 L 20.921875 19.199219 L 21.121094 19 L 11.121094 9 z M 16.679688 19.199219 L 9 26.878906 L 9.1992188 27.078125 L 16.878906 19.400391 L 16.679688 19.199219 z M 24 36 L 24 36.400391 L 39 36.400391 L 39 36 L 24 36 z" transform="translate(661.71429,651.21932)"/><path id="path4359" fill="#e04cde" fill-opacity=".314" stroke="none" d="M 9.4003906 10.720703 L 9 11.121094 L 16.478516 18.599609 L 16.878906 18.199219 L 9.4003906 10.720703 z M 20.720703 18.599609 L 11.121094 28.199219 L 9.4003906 26.478516 L 9 26.878906 L 11.121094 29 L 21.121094 19 L 20.720703 18.599609 z M 24 38.199219 L 24 39 L 39 39 L 39 38.199219 L 24 38.199219 z" transform="translate(661.71429,651.21932)"/><path id="path4130" fill="url(#linearGradient4219)" fill-opacity="1" stroke="none" d="m 695.7143,685.21858 0,14.00073 14,-14 z"/><path id="path4303" fill="url(#linearGradient4439)" fill-opacity="1" stroke="none" d="m 709.7143,685.21931 -14,14 12.05469,0 c 1.07728,0 1.94531,-0.86804 1.94531,-1.94531 l 0,-12.05469 z"/><path id="path4784" fill="url(#linearGradient4786)" fill-opacity="1" stroke="none" d="m 695.7143,699.21931 0,-14.00073 -14,14 z" opacity=".1"/><path id="rect846-0-4" fill="#000" fill-opacity="1" stroke="none" d="m 661.71428,696.21933 0,1.0625 c 0,1.0773 0.86022,1.9375 1.9375,1.9375 l 44.125,0 c 1.07728,0 1.9375,-0.8602 1.9375,-1.9375 l 0,-1.0625 c 0,1.0773 -0.86022,1.9375 -1.9375,1.9375 l -44.125,0 c -1.07728,0 -1.9375,-0.8602 -1.9375,-1.9375 z"/><path id="path7515-3-3" fill="#fff" fill-opacity=".537" stroke="none" d="m 664.24553,651.87563 c -0.91709,0 -1.67115,0.6395 -1.84375,1.5 0.33561,-0.2799 0.77451,-0.4375 1.25,-0.4375 l 44.125,0 c 0.47549,0 0.91439,0.1576 1.25,0.4375 -0.1726,-0.8605 -0.92666,-1.5 -1.84375,-1.5 l -42.9375,0 z"/><path id="rect4280-1-1" fill="#000" fill-opacity=".392" stroke="none" d="m 663.65178,651.21933 c -1.07728,0 -1.9375,0.8602 -1.9375,1.9375 l 0,43.0625 c 0,0.7934 0.48002,1.449 1.15625,1.75 -0.30934,-0.3333 -0.5,-0.7824 -0.5,-1.2812 l 0,-42.9375 c 0,-1.0482 0.8269,-1.875 1.875,-1.875 l 42.9375,0 c 1.0481,0 1.875,0.8268 1.875,1.875 l 0,42.9375 c 0,0.4988 -0.19066,0.9479 -0.5,1.2812 0.67623,-0.301 1.15625,-0.9566 1.15625,-1.75 l 0,-43.0625 c 0,-1.0773 -0.86022,-1.9375 -1.9375,-1.9375 l -44.125,0 z"/></g></svg>