<svg xmlns="http://www.w3.org/2000/svg" xmlns:svg="http://www.w3.org/2000/svg" xmlns:xlink="http://www.w3.org/1999/xlink" id="svg6388" width="48" height="48" version="1.1"><defs id="defs6390"><linearGradient id="linearGradient4250"><stop id="stop4252" offset="0" stop-color="#dadcde" stop-opacity="1"/><stop id="stop4254" offset="1" stop-color="#fafafa" stop-opacity="1"/></linearGradient><linearGradient id="linearGradient4503"><stop id="stop4505" offset="0" stop-color="#90959c" stop-opacity="1"/><stop id="stop4507" offset="1" stop-color="#c4c8cc" stop-opacity="1"/></linearGradient><linearGradient id="linearGradient4461"><stop id="stop4463" offset="0" stop-color="#45484d" stop-opacity="1"/><stop id="stop4465" offset="1" stop-color="#5e656b" stop-opacity="1"/></linearGradient><linearGradient id="linearGradient4788-0"><stop id="stop4790-5" offset="0" stop-color="#000" stop-opacity="1"/><stop id="stop4792-9" offset="1" stop-color="#000" stop-opacity="0"/></linearGradient><linearGradient id="linearGradient4433-1"><stop id="stop4435-3" offset="0" stop-color="#2b3141" stop-opacity="1"/><stop id="stop4437-1" offset="1" stop-color="#394056" stop-opacity="1"/></linearGradient><linearGradient id="linearGradient4117-99" x1="92.143" x2="92.143" y1="-1049.092" y2="-1001.09" gradientTransform="translate(359.67801,172.72583)" gradientUnits="userSpaceOnUse" xlink:href="#linearGradient4461"/><linearGradient id="linearGradient4439-9" x1="42.957" x2="42.957" y1="48" y2="33.999" gradientTransform="translate(424.57145,828.36218)" gradientUnits="userSpaceOnUse" xlink:href="#linearGradient4433-1"/><linearGradient id="linearGradient4786-8" x1="458.571" x2="472.509" y1="871.361" y2="862.361" gradientTransform="matrix(-1,0,0,-1,917.14289,1738.7236)" gradientUnits="userSpaceOnUse" xlink:href="#linearGradient4788-0"/><linearGradient id="linearGradient4219-1" x1="465.571" x2="458.571" y1="869.362" y2="862.363" gradientTransform="translate(1.4e-5,-1.0591797e-5)" gradientUnits="userSpaceOnUse" xlink:href="#linearGradient4503"/><style id="style1115" type="text/css"><![CDATA[ .fil0 {fill:#1F1A17} ]]></style><style id="style1246" type="text/css"><![CDATA[ .fil0 {fill:#1F1A17} ]]></style><linearGradient id="linearGradient4248" x1="450.517" x2="450.517" y1="867.362" y2="837.362" gradientUnits="userSpaceOnUse" xlink:href="#linearGradient4250"/></defs><metadata id="metadata6393"/><g id="layer1" transform="translate(-424.57144,-828.36218)"><rect id="rect2991-1-7-3-2" width="48" height="48" x="424.571" y="-876.362" fill="url(#linearGradient4117-99)" fill-opacity="1" stroke="none" ry="1.945" transform="scale(1,-1)"/><path id="path4262" fill="#000" fill-opacity=".059" stroke="none" d="m 435.07144,838.56218 0,25 5,0 0,5 22,0 0,-26 -5,0 0,-4 -22,0 z m 22,6 3,0 0,22 -18,0 0,-3 15,0 0,-19 z"/><path id="path4260" fill="#000" fill-opacity=".118" stroke="none" d="m 435.07144,838.16218 0,25 5,0 0,5 22,0 0,-26 -5,0 0,-4 -22,0 z m 22,6 3,0 0,22 -18,0 0,-3 15,0 0,-19 z"/><path id="path4256" fill="#000" fill-opacity=".235" stroke="none" d="m 435.07144,837.76218 0,25 5,0 0,5 22,0 0,-26 -5,0 0,-4 -22,0 z m 22,6 3,0 0,22 -18,0 0,-3 15,0 0,-19 z"/><path id="rect3236" fill="url(#linearGradient4248)" fill-opacity="1" stroke="none" d="m 435.07144,837.36218 0,25 5,0 0,5 22,0 0,-26 -5,0 0,-4 -22,0 z m 22,6 3,0 0,22 -18,0 0,-3 15,0 0,-19 z"/><path id="path7515-3-1" fill="#fff" fill-opacity=".537" stroke="none" d="m 427.10268,829.01848 c -0.91709,0 -1.67115,0.6395 -1.84375,1.5 0.33561,-0.2799 0.77451,-0.4375 1.25,-0.4375 l 44.125,0 c 0.47549,0 0.91439,0.1576 1.25,0.4375 -0.1726,-0.8605 -0.92666,-1.5 -1.84375,-1.5 l -42.9375,0 z"/><path id="path4264" fill="#4c5055" fill-opacity=".314" stroke="none" d="M 32.5 14.199219 L 32.5 15 L 35.5 15 L 35.5 14.199219 L 32.5 14.199219 z M 10.5 33.199219 L 10.5 34 L 15.5 34 L 15.5 33.199219 L 10.5 33.199219 z M 17.5 33.199219 L 17.5 34 L 32.5 34 L 32.5 33.199219 L 17.5 33.199219 z M 15.5 38.199219 L 15.5 39 L 37.5 39 L 37.5 38.199219 L 15.5 38.199219 z" transform="translate(424.57144,828.36218)"/><path id="path4269" fill="#fff" fill-opacity=".235" stroke="none" d="M 10.5 9 L 10.5 9.4003906 L 32.5 9.4003906 L 32.5 9 L 10.5 9 z M 32.5 13 L 32.5 13.400391 L 37.5 13.400391 L 37.5 13 L 32.5 13 z M 17.5 37 L 17.5 37.400391 L 35.5 37.400391 L 35.5 37 L 17.5 37 z" transform="translate(424.57144,828.36218)"/><path id="path4130-6" fill="url(#linearGradient4219-1)" fill-opacity="1" stroke="none" d="m 458.57145,862.36148 0,14.0007 14,-14 z"/><path id="path4303-7" fill="url(#linearGradient4439-9)" fill-opacity="1" stroke="none" d="m 472.57145,862.36218 -14,14 12.05469,0 c 1.07728,0 1.94531,-0.868 1.94531,-1.9453 l 0,-12.0547 z"/><path id="path4784-3" fill="url(#linearGradient4786-8)" fill-opacity="1" stroke="none" d="m 458.57145,876.36218 0,-14.0007 -14,14 z" opacity=".1"/><path id="rect846-0-3" fill="#000" fill-opacity="1" stroke="none" d="m 424.57143,873.36218 0,1.0625 c 0,1.0773 0.86022,1.9375 1.9375,1.9375 l 44.125,0 c 1.07728,0 1.9375,-0.8602 1.9375,-1.9375 l 0,-1.0625 c 0,1.0773 -0.86022,1.9375 -1.9375,1.9375 l -44.125,0 c -1.07728,0 -1.9375,-0.8602 -1.9375,-1.9375 z"/><path id="rect4280-1-7" fill="#000" fill-opacity=".392" stroke="none" d="m 426.50893,828.36218 c -1.07728,0 -1.9375,0.8602 -1.9375,1.9375 l 0,43.0625 c 0,0.7934 0.48002,1.449 1.15625,1.75 -0.30934,-0.3333 -0.5,-0.7824 -0.5,-1.2812 l 0,-42.9375 c 0,-1.0482 0.8269,-1.875 1.875,-1.875 l 42.9375,0 c 1.0481,0 1.875,0.8268 1.875,1.875 l 0,42.9375 c 0,0.4988 -0.19066,0.9479 -0.5,1.2812 0.67623,-0.301 1.15625,-0.9566 1.15625,-1.75 l 0,-43.0625 c 0,-1.0773 -0.86022,-1.9375 -1.9375,-1.9375 l -44.125,0 z"/></g></svg>