<svg xmlns="http://www.w3.org/2000/svg" xmlns:svg="http://www.w3.org/2000/svg" xmlns:xlink="http://www.w3.org/1999/xlink" id="svg6391" width="48" height="48" version="1.1"><defs id="defs6393"><linearGradient id="linearGradient4212"><stop id="stop4214" offset="0" stop-color="#dadcde" stop-opacity="1"/><stop id="stop4216" offset="1" stop-color="#fafafa" stop-opacity="1"/></linearGradient><linearGradient id="linearGradient4503"><stop id="stop4505" offset="0" stop-color="#90959c" stop-opacity="1"/><stop id="stop4507" offset="1" stop-color="#c4c8cc" stop-opacity="1"/></linearGradient><linearGradient id="linearGradient4461"><stop id="stop4463" offset="0" stop-color="#45484d" stop-opacity="1"/><stop id="stop4465" offset="1" stop-color="#5e656b" stop-opacity="1"/></linearGradient><linearGradient id="linearGradient4788"><stop id="stop4790" offset="0" stop-color="#000" stop-opacity="1"/><stop id="stop4792" offset="1" stop-color="#000" stop-opacity="0"/></linearGradient><linearGradient id="linearGradient4433"><stop id="stop4435" offset="0" stop-color="#2b3141" stop-opacity="1"/><stop id="stop4437" offset="1" stop-color="#394056" stop-opacity="1"/></linearGradient><linearGradient id="linearGradient4117-6" x1="92.143" x2="92.143" y1="-1049.092" y2="-1001.09" gradientTransform="translate(416.82086,469.8687)" gradientUnits="userSpaceOnUse" xlink:href="#linearGradient4461"/><linearGradient id="linearGradient4439" x1="42.957" x2="42.957" y1="48" y2="33.999" gradientTransform="translate(481.7143,531.21931)" gradientUnits="userSpaceOnUse" xlink:href="#linearGradient4433"/><linearGradient id="linearGradient4786" x1="458.571" x2="472.509" y1="871.361" y2="862.361" gradientTransform="matrix(-1,0,0,-1,974.28574,1441.5807)" gradientUnits="userSpaceOnUse" xlink:href="#linearGradient4788"/><linearGradient id="linearGradient4219" x1="465.571" x2="458.571" y1="869.362" y2="862.363" gradientTransform="translate(57.14286,-297.14288)" gradientUnits="userSpaceOnUse" xlink:href="#linearGradient4503"/><linearGradient id="linearGradient4210" x1="509.147" x2="509.147" y1="570.219" y2="540.219" gradientUnits="userSpaceOnUse" xlink:href="#linearGradient4212"/></defs><metadata id="metadata6396"/><g id="layer1" transform="translate(-481.71429,-531.2193)"><rect id="rect3785" width="48" height="48" x="423.456" y="526.103" fill="none" stroke="none"/><rect id="rect2991-1-7-3-6" width="48" height="48" x="481.714" y="-579.219" fill="url(#linearGradient4117-6)" fill-opacity="1" stroke="none" ry="1.945" transform="scale(1,-1)"/><path id="path4224" fill="#000" fill-opacity=".059" stroke="none" d="m 500.08221,541.4193 -3.82074,7.00782 6.1132,3.59081 3.33962,-5.9078 1.16038,2.0561 -1.07547,1.8825 6.22641,0 3.39622,-5.9947 -1.5,0.86928 -1.95282,-3.50401 -10.64151,0 -1.01887,0 -0.22642,0 z m 16.61322,10.82985 -6.11322,3.61971 3.33962,5.9368 -2.32074,0 -1.07548,-1.91111 -3.11321,5.50182 3.39623,6.02293 0,-1.73769 3.96227,0 5.32075,-9.41066 0.50944,-0.8977 0.1132,-0.23199 -4.01886,-6.89211 z m -25.50001,2.143 1.5,0.86909 -1.98113,3.50381 5.32075,9.41085 0.48114,0.89808 0.14151,0.23141 7.83961,-0.11599 0,-7.23894 -6.70754,0 1.16038,-2.05591 2.15095,0 -3.11322,-5.5024 -6.79245,0 z"/><path id="path4222" fill="#000" fill-opacity=".118" stroke="none" d="m 500.08221,541.0193 -3.82074,7.00782 6.1132,3.59081 3.33962,-5.9078 1.16038,2.0561 -1.07547,1.8825 6.22641,0 3.39622,-5.9947 -1.5,0.86928 -1.95282,-3.50401 -10.64151,0 -1.01887,0 -0.22642,0 z m 16.61322,10.82985 -6.11322,3.61971 3.33962,5.9368 -2.32074,0 -1.07548,-1.91111 -3.11321,5.50182 3.39623,6.02293 0,-1.73769 3.96227,0 5.32075,-9.41066 0.50944,-0.8977 0.1132,-0.23199 -4.01886,-6.89211 z m -25.50001,2.143 1.5,0.86909 -1.98113,3.50381 5.32075,9.41085 0.48114,0.89808 0.14151,0.23141 7.83961,-0.11599 0,-7.23894 -6.70754,0 1.16038,-2.05591 2.15095,0 -3.11322,-5.5024 -6.79245,0 z"/><path id="path4218" fill="#000" fill-opacity=".235" stroke="none" d="m 500.08221,540.6193 -3.82074,7.00782 6.1132,3.59081 3.33962,-5.9078 1.16038,2.0561 -1.07547,1.8825 6.22641,0 3.39622,-5.9947 -1.5,0.86928 -1.95282,-3.50401 -10.64151,0 -1.01887,0 -0.22642,0 z m 16.61322,10.82985 -6.11322,3.61971 3.33962,5.9368 -2.32074,0 -1.07548,-1.91111 -3.11321,5.50182 3.39623,6.02293 0,-1.73769 3.96227,0 5.32075,-9.41066 0.50944,-0.8977 0.1132,-0.23199 -4.01886,-6.89211 z m -25.50001,2.143 1.5,0.86909 -1.98113,3.50381 5.32075,9.41085 0.48114,0.89808 0.14151,0.23141 7.83961,-0.11599 0,-7.23894 -6.70754,0 1.16038,-2.05591 2.15095,0 -3.11322,-5.5024 -6.79245,0 z"/><path id="path3802-1" fill="url(#linearGradient4210)" fill-opacity="1" stroke="none" d="m 500.08221,540.2193 -3.82074,7.00782 6.1132,3.59081 3.33962,-5.9078 1.16038,2.0561 -1.07547,1.8825 6.22641,0 3.39622,-5.9947 -1.5,0.86928 -1.95282,-3.50401 -10.64151,0 -1.01887,0 -0.22642,0 z m 16.61322,10.82985 -6.11322,3.61971 3.33962,5.9368 -2.32074,0 -1.07548,-1.91111 -3.11321,5.50182 3.39623,6.02293 0,-1.73769 3.96227,0 5.32075,-9.41066 0.50944,-0.8977 0.1132,-0.23199 -4.01886,-6.89211 z m -25.50001,2.143 1.5,0.86909 -1.98113,3.50381 5.32075,9.41085 0.48114,0.89808 0.14151,0.23141 7.83961,-0.11599 0,-7.23894 -6.70754,0 1.16038,-2.05591 2.15095,0 -3.11322,-5.5024 -6.79245,0 z"/><path id="path7515-3-7" fill="#fff" fill-opacity=".537" stroke="none" d="m 484.24553,531.87561 c -0.91709,0 -1.67115,0.6395 -1.84375,1.5 0.33561,-0.2799 0.77451,-0.4375 1.25,-0.4375 l 44.125,0 c 0.47549,0 0.91439,0.1576 1.25,0.4375 -0.1726,-0.8605 -0.92666,-1.5 -1.84375,-1.5 l -42.9375,0 z"/><path id="path4226" fill="#4b4f55" fill-opacity=".314" stroke="none" d="M 33.707031 11.634766 L 33.03125 12.025391 L 30.310547 16.830078 L 24.541016 16.830078 L 24.083984 17.628906 L 30.310547 17.628906 L 33.707031 11.634766 z M 24 12.890625 L 20.660156 18.798828 L 14.876953 15.400391 L 14.546875 16.007812 L 20.660156 19.597656 L 24 13.691406 L 24.933594 15.34375 L 25.160156 14.947266 L 24 12.890625 z M 9.4804688 21.972656 L 10.638672 22.644531 L 10.980469 22.041016 L 10.863281 21.972656 L 9.4804688 21.972656 z M 29.205078 23.25 L 28.867188 23.449219 L 31.755859 28.585938 L 32.207031 28.585938 L 29.205078 23.25 z M 9.2265625 25.945312 L 9 26.345703 L 14.320312 35.755859 L 14.802734 36.654297 L 14.943359 36.886719 L 22.783203 36.769531 L 22.783203 35.970703 L 14.943359 36.085938 L 14.802734 35.855469 L 14.320312 34.957031 L 9.2265625 25.945312 z M 38.779297 26.34375 L 38.376953 27.050781 L 33.056641 36.462891 L 29.09375 36.462891 L 29.09375 37.261719 L 33.056641 37.261719 L 38.376953 27.851562 L 38.886719 26.953125 L 39 26.722656 L 38.779297 26.34375 z M 17.236328 26.675781 L 16.076172 28.730469 L 16.527344 28.730469 L 17.236328 27.474609 L 19.386719 27.474609 L 18.935547 26.675781 L 17.236328 26.675781 z M 25.923828 32.578125 L 25.697266 32.976562 L 29.09375 39 L 29.09375 38.199219 L 25.923828 32.578125 z" transform="translate(481.71429,531.2193)"/><path id="path4231" fill="#fff" fill-opacity=".235" stroke="none" d="M 18.367188 9 L 14.546875 16.007812 L 14.712891 16.105469 L 18.367188 9.4003906 L 18.59375 9.4003906 L 19.613281 9.4003906 L 30.253906 9.4003906 L 32.207031 12.904297 L 33.369141 12.230469 L 33.707031 11.634766 L 32.207031 12.503906 L 30.253906 9 L 19.613281 9 L 18.59375 9 L 18.367188 9 z M 25.046875 15.945312 L 24.083984 17.628906 L 24.3125 17.628906 L 25.160156 16.146484 L 25.046875 15.945312 z M 34.980469 19.830078 L 28.867188 23.449219 L 29.037109 23.75 L 34.980469 20.230469 L 38.894531 26.939453 L 39 26.722656 L 34.980469 19.830078 z M 9.4804688 21.972656 L 10.171875 22.373047 L 16.273438 22.373047 L 19.160156 27.474609 L 19.386719 27.474609 L 16.273438 21.972656 L 9.4804688 21.972656 z M 10.810547 23.142578 L 9 26.345703 L 9.1132812 26.544922 L 10.980469 23.242188 L 10.810547 23.142578 z M 28.810547 27.474609 L 25.697266 32.976562 L 25.810547 33.177734 L 28.810547 27.875 L 29.886719 29.787109 L 32.207031 29.787109 L 31.982422 29.386719 L 29.886719 29.386719 L 28.810547 27.474609 z M 16.302734 29.53125 L 16.076172 29.931641 L 22.783203 29.931641 L 22.783203 29.53125 L 16.302734 29.53125 z" transform="translate(481.71429,531.2193)"/><path id="path4130" fill="url(#linearGradient4219)" fill-opacity="1" stroke="none" d="m 515.7143,565.21861 0,14.0007 14,-14 z"/><path id="path4303" fill="url(#linearGradient4439)" fill-opacity="1" stroke="none" d="m 529.7143,565.21931 -14,14 12.05469,0 c 1.07727,0 1.94531,-0.868 1.94531,-1.9453 l 0,-12.0547 z"/><path id="path4784" fill="url(#linearGradient4786)" fill-opacity="1" stroke="none" d="m 515.7143,579.21931 0,-14.0007 -14,14 z" opacity=".1"/><path id="rect846-0-2" fill="#000" fill-opacity="1" stroke="none" d="m 481.71428,576.21931 0,1.0625 c 0,1.0773 0.86022,1.9375 1.9375,1.9375 l 44.125,0 c 1.07728,0 1.9375,-0.8602 1.9375,-1.9375 l 0,-1.0625 c 0,1.0773 -0.86022,1.9375 -1.9375,1.9375 l -44.125,0 c -1.07728,0 -1.9375,-0.8602 -1.9375,-1.9375 z"/><path id="rect4280-1-0" fill="#000" fill-opacity=".392" stroke="none" d="m 483.65178,531.21931 c -1.07728,0 -1.9375,0.8602 -1.9375,1.9375 l 0,43.0625 c 0,0.7934 0.48002,1.449 1.15625,1.75 -0.30934,-0.3333 -0.5,-0.7824 -0.5,-1.2812 l 0,-42.9375 c 0,-1.0482 0.8269,-1.875 1.875,-1.875 l 42.9375,0 c 1.0481,0 1.875,0.8268 1.875,1.875 l 0,42.9375 c 0,0.4988 -0.19066,0.9479 -0.5,1.2812 0.67623,-0.301 1.15625,-0.9566 1.15625,-1.75 l 0,-43.0625 c 0,-1.0773 -0.86022,-1.9375 -1.9375,-1.9375 l -44.125,0 z"/></g></svg>