<svg xmlns="http://www.w3.org/2000/svg" xmlns:svg="http://www.w3.org/2000/svg" xmlns:xlink="http://www.w3.org/1999/xlink" id="svg4214" width="48" height="48" version="1.1"><defs id="defs4216"><linearGradient id="linearGradient4788-0"><stop id="stop4790-0" offset="0" stop-color="#000" stop-opacity="1"/><stop id="stop4792-7" offset="1" stop-color="#000" stop-opacity="0"/></linearGradient><linearGradient id="linearGradient4433-9"><stop id="stop4435-2" offset="0" stop-color="#2b3141" stop-opacity="1"/><stop id="stop4437-5" offset="1" stop-color="#394056" stop-opacity="1"/></linearGradient><linearGradient id="linearGradient4117-2" x1="92.143" x2="92.143" y1="-1049.092" y2="-1001.09" gradientTransform="translate(-112.89344,-3.2742)" gradientUnits="userSpaceOnUse" xlink:href="#linearGradient943-1"/><linearGradient id="linearGradient4439-8" x1="42.957" x2="42.957" y1="48" y2="33.999" gradientTransform="translate(1e-5,1004.3622)" gradientUnits="userSpaceOnUse" xlink:href="#linearGradient4433-9"/><linearGradient id="linearGradient4786-3" x1="458.571" x2="472.509" y1="871.361" y2="862.361" gradientTransform="matrix(-1,0,0,-1,492.57141,1914.7236)" gradientUnits="userSpaceOnUse" xlink:href="#linearGradient4788-0"/><linearGradient id="linearGradient4219-5" x1="465.571" x2="458.571" y1="869.362" y2="862.363" gradientTransform="translate(-424.57143,176.00002)" gradientUnits="userSpaceOnUse" xlink:href="#linearGradient4227"/><linearGradient id="linearGradient4427" x1="31.063" x2="31.063" y1="39" y2="9" gradientUnits="userSpaceOnUse" xlink:href="#linearGradient4250"/><linearGradient id="linearGradient4250"><stop id="stop4252" offset="0" stop-color="#cdeeff" stop-opacity="1"/><stop id="stop4254" offset="1" stop-color="#f5fcff" stop-opacity="1"/></linearGradient><linearGradient id="linearGradient4227"><stop id="stop4229" offset="0" stop-color="#2db7ff" stop-opacity="1"/><stop id="stop4231" offset="1" stop-color="#91ddff" stop-opacity="1"/></linearGradient><linearGradient id="linearGradient943-1"><stop id="stop945-8" offset="0" stop-color="#00a6fc" stop-opacity="1"/><stop id="stop947-1" offset="1" stop-color="#68cfff" stop-opacity="1"/></linearGradient></defs><metadata id="metadata4219"/><g id="layer1" transform="translate(0,-1004.3622)"><g id="layer1-63"><g id="layer1-6"><g id="layer1-2" transform="translate(0,8.6914063e-6)"><rect id="rect2991-1-7-3-1" width="48" height="48" x="-48" y="-1052.362" fill="url(#linearGradient4117-2)" fill-opacity="1" stroke="none" ry="1.945" transform="scale(-1,-1)"/><path id="path4126" fill="#000" fill-opacity=".059" stroke="none" d="m 9,1014.5622 0,15 0,15 16.033203,0 13.966797,0 0,-12.9277 0,-17.0723 -30,0 z m 3,3 24,0 0,8.877 -1.984375,-3.4356 -3.421875,5.9258 -0.681641,1.1816 -4.863281,8.4239 -3.99414,-6.9161 -1.5,-2.5976 -0.552735,-0.959 -3.347656,0 c -0.56092,-1.1814 -1.754909,-2 -3.154297,-2 -0.171373,0 -0.335349,0.025 -0.5,0.049 l 0,-8.5488 z m 22.025391,11.459 1.974609,3.4199 0,9.1211 -9.230469,0 7.25586,-12.541 z m -18.371094,2.041 1.615234,0 0.02344,0.039 6.015625,10.4609 -11.308594,0 0,-8.5488 c 0.164651,0.024 0.328627,0.049 0.5,0.049 1.399388,0 2.593377,-0.8186 3.154297,-2 z"/><path id="path4124" fill="#000" fill-opacity=".118" stroke="none" d="m 9,1014.1622 0,15 0,15 16.033203,0 13.966797,0 0,-12.9277 0,-17.0723 -30,0 z m 3,3 24,0 0,8.877 -1.984375,-3.4356 -3.421875,5.9258 -0.681641,1.1816 -4.863281,8.4239 -3.99414,-6.9161 -1.5,-2.5976 -0.552735,-0.959 -3.347656,0 c -0.56092,-1.1814 -1.754909,-2 -3.154297,-2 -0.171373,0 -0.335349,0.025 -0.5,0.049 l 0,-8.5488 z m 22.025391,11.459 1.974609,3.4199 0,9.1211 -9.230469,0 7.25586,-12.541 z m -18.371094,2.041 1.615234,0 0.02344,0.039 6.015625,10.4609 -11.308594,0 0,-8.5488 c 0.164651,0.024 0.328627,0.049 0.5,0.049 1.399388,0 2.593377,-0.8186 3.154297,-2 z"/><path id="path4122" fill="#000" fill-opacity=".235" stroke="none" d="m 9,1013.7622 0,15 0,15 16.033203,0 13.966797,0 0,-12.9277 0,-17.0723 -30,0 z m 3,3 24,0 0,8.877 -1.984375,-3.4356 -3.421875,5.9258 -0.681641,1.1816 -4.863281,8.4239 -3.99414,-6.9161 -1.5,-2.5976 -0.552735,-0.959 -3.347656,0 c -0.56092,-1.1814 -1.754909,-2 -3.154297,-2 -0.171373,0 -0.335349,0.025 -0.5,0.049 l 0,-8.5488 z m 22.025391,11.459 1.974609,3.4199 0,9.1211 -9.230469,0 7.25586,-12.541 z m -18.371094,2.041 1.615234,0 0.02344,0.039 6.015625,10.4609 -11.308594,0 0,-8.5488 c 0.164651,0.024 0.328627,0.049 0.5,0.049 1.399388,0 2.593377,-0.8186 3.154297,-2 z"/><path id="rect4223" fill="url(#linearGradient4427)" fill-opacity="1" stroke="none" d="M 9,9 9,24 9,39 25.033203,39 39,39 39,26.072266 39,9 9,9 Z m 3,3 24,0 0,8.876953 -1.984375,-3.435547 -3.421875,5.925782 -0.681641,1.18164 -4.863281,8.423828 -3.99414,-6.916015 -1.5,-2.597657 L 19.001953,22.5 l -3.347656,0 c -0.56092,-1.181425 -1.754909,-2 -3.154297,-2 -0.171373,0 -0.335349,0.02526 -0.5,0.04883 L 12,12 Z M 34.025391,23.458984 36,26.878906 36,36 26.769531,36 34.025391,23.458984 Z M 15.654297,25.5 l 1.615234,0 0.02344,0.03906 L 23.308594,36 12,36 12,27.451172 c 0.164651,0.02357 0.328627,0.04883 0.5,0.04883 1.399388,0 2.593377,-0.818575 3.154297,-2 z" transform="translate(0,1004.3622)"/><path id="path7515-3-3" fill="#fff" fill-opacity=".537" stroke="none" d="m 2.53124,1005.0185 c -0.91709,0 -1.67115,0.6395 -1.84375,1.5 0.33561,-0.2799 0.77451,-0.4375 1.25,-0.4375 l 44.125,0 c 0.47549,0 0.91439,0.1576 1.25,0.4375 -0.1726,-0.8605 -0.92666,-1.5 -1.84375,-1.5 l -42.9375,0 z"/><path id="path4128" fill="#08a9fc" fill-opacity=".314" stroke="none" d="m 12,11.199219 0,0.002 L 12,12 l 24,0 0,-0.800781 -24,0 z m 22.025391,11.458984 -7.25586,12.541016 0.462891,0 L 34.025391,23.458984 36,26.878906 36,26.078125 34.025391,22.658203 Z m -18.371094,2.041016 c -0.56092,1.1814 -1.754909,2 -3.154297,2 -0.171373,0 -0.335349,-0.02483 -0.5,-0.04883 l 0,0.800781 c 0.164651,0.02357 0.328627,0.04883 0.5,0.04883 1.399388,0 2.593377,-0.818575 3.154297,-2 l 1.615234,0 0.02344,0.03906 5.554687,9.660157 0.460938,0 -6.015625,-10.460938 -0.02344,-0.03906 -1.615234,0 z M 9,38.199219 9,39 25.033203,39 39,39 l 0,-0.800781 -13.966797,0 -16.033203,0 z" transform="translate(0,1004.3622)"/><path id="path4134" fill="#fff" fill-opacity=".235" stroke="none" d="m 9,9 0,0.4003906 30,0 L 39,9 9,9 Z m 25.015625,8.441406 -3.421875,5.925782 -0.681641,1.18164 -4.863281,8.423828 -3.99414,-6.916015 -1.5,-2.597657 L 19.001953,22.5 l -3.347656,0 c -0.56092,-1.181425 -1.754909,-2 -3.154297,-2 -0.171373,0 -0.335349,0.02526 -0.5,0.04883 l 0,0.400391 c 0.164651,-0.024 0.328627,-0.04883 0.5,-0.04883 1.399388,0 2.593377,0.8186 3.154297,2 l 3.347656,0 0.552735,0.958984 1.5,2.597656 3.99414,6.916016 4.863281,-8.423828 0.681641,-1.181641 3.421875,-5.925781 L 36,21.277344 36,20.876953 34.015625,17.441406 Z M 12,36 l 0,0.400391 11.308594,0 L 23.078125,36 12,36 Z m 15.001953,0 -0.232422,0.400391 9.230469,0 L 36,36 27.001953,36 Z" transform="translate(0,1004.3622)"/><path id="path4130-3" fill="url(#linearGradient4219-5)" fill-opacity="1" stroke="none" d="m 34.00001,1038.3615 0,14.0007 14,-14 z"/><path id="path4303-6" fill="url(#linearGradient4439-8)" fill-opacity="1" stroke="none" d="m 48.00001,1038.3622 -14,14 12.05469,0 c 1.07728,0 1.94531,-0.868 1.94531,-1.9453 l 0,-12.0547 z"/><path id="path4784-4" fill="url(#linearGradient4786-3)" fill-opacity="1" stroke="none" d="m 34.00001,1052.3622 0,-14.0007 -14,14 z" opacity=".1"/><path id="rect846-0-4" fill="#000" fill-opacity="1" stroke="none" d="m -1e-5,1049.3622 0,1.0625 c 0,1.0773 0.86022,1.9375 1.9375,1.9375 l 44.125,0 c 1.07728,0 1.9375,-0.8602 1.9375,-1.9375 l 0,-1.0625 c 0,1.0773 -0.86022,1.9375 -1.9375,1.9375 l -44.125,0 c -1.07728,0 -1.9375,-0.8602 -1.9375,-1.9375 z"/><path id="rect4280-1-1" fill="#000" fill-opacity=".392" stroke="none" d="m 1.93749,1004.3622 c -1.07728,0 -1.9375,0.8602 -1.9375,1.9375 l 0,43.0625 c 0,0.7934 0.48002,1.449 1.15625,1.75 -0.30934,-0.3333 -0.5,-0.7824 -0.5,-1.2812 l 0,-42.9375 c 0,-1.0482 0.8269,-1.875 1.875,-1.875 l 42.9375,0 c 1.0481,0 1.875,0.8268 1.875,1.875 l 0,42.9375 c 0,0.4988 -0.19066,0.9479 -0.5,1.2812 0.67623,-0.301 1.15625,-0.9566 1.15625,-1.75 l 0,-43.0625 c 0,-1.0773 -0.86022,-1.9375 -1.9375,-1.9375 l -44.125,0 z"/></g></g></g></g></svg>