<svg xmlns="http://www.w3.org/2000/svg" xmlns:svg="http://www.w3.org/2000/svg" xmlns:xlink="http://www.w3.org/1999/xlink" id="svg4214" width="48" height="48" version="1.1"><defs id="defs4216"><linearGradient id="linearGradient4429"><stop id="stop4431" offset="0" stop-color="#f4c4f4" stop-opacity="1"/><stop id="stop4433" offset="1" stop-color="#fef6fd" stop-opacity="1"/></linearGradient><linearGradient id="linearGradient4264"><stop id="stop4266" offset="0" stop-color="#de4ddf" stop-opacity="1"/><stop id="stop4268" offset="1" stop-color="#f898ee" stop-opacity="1"/></linearGradient><linearGradient id="linearGradient4788"><stop id="stop4790" offset="0" stop-color="#000" stop-opacity="1"/><stop id="stop4792" offset="1" stop-color="#000" stop-opacity="0"/></linearGradient><linearGradient id="linearGradient4433"><stop id="stop4435" offset="0" stop-color="#2b3141" stop-opacity="1"/><stop id="stop4437" offset="1" stop-color="#394056" stop-opacity="1"/></linearGradient><linearGradient id="linearGradient943-5"><stop id="stop945-6" offset="0" stop-color="#da3adb" stop-opacity="1"/><stop id="stop947-1" offset="1" stop-color="#f572e8" stop-opacity="1"/></linearGradient><linearGradient id="linearGradient4117" x1="92.143" x2="92.143" y1="-1049.092" y2="-1001.09" gradientTransform="translate(-64.89343,-3.2742)" gradientUnits="userSpaceOnUse" xlink:href="#linearGradient943-5"/><linearGradient id="linearGradient4439" x1="42.957" x2="42.957" y1="48" y2="33.999" gradientTransform="translate(10e-6,1004.3622)" gradientUnits="userSpaceOnUse" xlink:href="#linearGradient4433"/><linearGradient id="linearGradient4786" x1="458.571" x2="472.509" y1="871.361" y2="862.361" gradientTransform="matrix(-1,0,0,-1,492.57141,1914.7236)" gradientUnits="userSpaceOnUse" xlink:href="#linearGradient4788"/><linearGradient id="linearGradient4219" x1="465.571" x2="458.571" y1="869.362" y2="862.363" gradientTransform="translate(-424.57143,176.00002)" gradientUnits="userSpaceOnUse" xlink:href="#linearGradient4264"/><linearGradient id="linearGradient4427" x1="31.063" x2="31.063" y1="39" y2="9" gradientUnits="userSpaceOnUse" xlink:href="#linearGradient4429"/></defs><metadata id="metadata4219"/><g id="layer1" transform="translate(0,-1004.3622)"><rect id="rect2991-1-7-3-1" width="48" height="48" x="0" y="-1052.362" fill="url(#linearGradient4117)" fill-opacity="1" stroke="none" ry="1.945" transform="scale(1,-1)"/><path id="path4126" fill="#000" fill-opacity=".059" stroke="none" d="m 9,1014.5622 0,15 0,15 16.033203,0 13.966797,0 0,-12.9277 0,-17.0723 -30,0 z m 3,3 24,0 0,8.877 -1.984375,-3.4356 -3.421875,5.9258 -0.681641,1.1816 -4.863281,8.4239 -3.99414,-6.9161 -1.5,-2.5976 -0.552735,-0.959 -3.347656,0 c -0.56092,-1.1814 -1.754909,-2 -3.154297,-2 -0.171373,0 -0.335349,0.025 -0.5,0.049 l 0,-8.5488 z m 22.025391,11.459 1.974609,3.4199 0,9.1211 -9.230469,0 7.25586,-12.541 z m -18.371094,2.041 1.615234,0 0.02344,0.039 6.015625,10.4609 -11.308594,0 0,-8.5488 c 0.164651,0.024 0.328627,0.049 0.5,0.049 1.399388,0 2.593377,-0.8186 3.154297,-2 z"/><path id="path4124" fill="#000" fill-opacity=".118" stroke="none" d="m 9,1014.1622 0,15 0,15 16.033203,0 13.966797,0 0,-12.9277 0,-17.0723 -30,0 z m 3,3 24,0 0,8.877 -1.984375,-3.4356 -3.421875,5.9258 -0.681641,1.1816 -4.863281,8.4239 -3.99414,-6.9161 -1.5,-2.5976 -0.552735,-0.959 -3.347656,0 c -0.56092,-1.1814 -1.754909,-2 -3.154297,-2 -0.171373,0 -0.335349,0.025 -0.5,0.049 l 0,-8.5488 z m 22.025391,11.459 1.974609,3.4199 0,9.1211 -9.230469,0 7.25586,-12.541 z m -18.371094,2.041 1.615234,0 0.02344,0.039 6.015625,10.4609 -11.308594,0 0,-8.5488 c 0.164651,0.024 0.328627,0.049 0.5,0.049 1.399388,0 2.593377,-0.8186 3.154297,-2 z"/><path id="path4122" fill="#000" fill-opacity=".235" stroke="none" d="m 9,1013.7622 0,15 0,15 16.033203,0 13.966797,0 0,-12.9277 0,-17.0723 -30,0 z m 3,3 24,0 0,8.877 -1.984375,-3.4356 -3.421875,5.9258 -0.681641,1.1816 -4.863281,8.4239 -3.99414,-6.9161 -1.5,-2.5976 -0.552735,-0.959 -3.347656,0 c -0.56092,-1.1814 -1.754909,-2 -3.154297,-2 -0.171373,0 -0.335349,0.025 -0.5,0.049 l 0,-8.5488 z m 22.025391,11.459 1.974609,3.4199 0,9.1211 -9.230469,0 7.25586,-12.541 z m -18.371094,2.041 1.615234,0 0.02344,0.039 6.015625,10.4609 -11.308594,0 0,-8.5488 c 0.164651,0.024 0.328627,0.049 0.5,0.049 1.399388,0 2.593377,-0.8186 3.154297,-2 z"/><path id="rect4223" fill="url(#linearGradient4427)" fill-opacity="1" stroke="none" d="M 9 9 L 9 24 L 9 39 L 25.033203 39 L 39 39 L 39 26.072266 L 39 9 L 9 9 z M 12 12 L 36 12 L 36 20.876953 L 34.015625 17.441406 L 30.59375 23.367188 L 29.912109 24.548828 L 25.048828 32.972656 L 21.054688 26.056641 L 19.554688 23.458984 L 19.001953 22.5 L 15.654297 22.5 C 15.093377 21.318575 13.899388 20.5 12.5 20.5 C 12.328627 20.5 12.164651 20.525258 12 20.548828 L 12 12 z M 34.025391 23.458984 L 36 26.878906 L 36 36 L 26.769531 36 L 34.025391 23.458984 z M 15.654297 25.5 L 17.269531 25.5 L 17.292969 25.539062 L 23.308594 36 L 12 36 L 12 27.451172 C 12.164651 27.474742 12.328627 27.5 12.5 27.5 C 13.899388 27.5 15.093377 26.681425 15.654297 25.5 z" transform="translate(0,1004.3622)"/><path id="path7515-3-3" fill="#fff" fill-opacity=".537" stroke="none" d="m 2.53124,1005.0185 c -0.91709,0 -1.67115,0.6395 -1.84375,1.5 0.33561,-0.2799 0.77451,-0.4375 1.25,-0.4375 l 44.125,0 c 0.47549,0 0.91439,0.1576 1.25,0.4375 -0.1726,-0.8605 -0.92666,-1.5 -1.84375,-1.5 l -42.9375,0 z"/><path id="path4128" fill="#e04cde" fill-opacity=".314" stroke="none" d="M 12 11.199219 L 12 11.201172 L 12 12 L 36 12 L 36 11.199219 L 12 11.199219 z M 34.025391 22.658203 L 26.769531 35.199219 L 27.232422 35.199219 L 34.025391 23.458984 L 36 26.878906 L 36 26.078125 L 34.025391 22.658203 z M 15.654297 24.699219 C 15.093377 25.880619 13.899388 26.699219 12.5 26.699219 C 12.328627 26.699219 12.164651 26.674391 12 26.650391 L 12 27.451172 C 12.164651 27.474742 12.328627 27.5 12.5 27.5 C 13.899388 27.5 15.093377 26.681425 15.654297 25.5 L 17.269531 25.5 L 17.292969 25.539062 L 22.847656 35.199219 L 23.308594 35.199219 L 17.292969 24.738281 L 17.269531 24.699219 L 15.654297 24.699219 z M 9 38.199219 L 9 39 L 25.033203 39 L 39 39 L 39 38.199219 L 25.033203 38.199219 L 9 38.199219 z" transform="translate(0,1004.3622)"/><path id="path4134" fill="#fff" fill-opacity=".235" stroke="none" d="M 9 9 L 9 9.4003906 L 39 9.4003906 L 39 9 L 9 9 z M 34.015625 17.441406 L 30.59375 23.367188 L 29.912109 24.548828 L 25.048828 32.972656 L 21.054688 26.056641 L 19.554688 23.458984 L 19.001953 22.5 L 15.654297 22.5 C 15.093377 21.318575 13.899388 20.5 12.5 20.5 C 12.328627 20.5 12.164651 20.525258 12 20.548828 L 12 20.949219 C 12.164651 20.925219 12.328627 20.900391 12.5 20.900391 C 13.899388 20.900391 15.093377 21.718991 15.654297 22.900391 L 19.001953 22.900391 L 19.554688 23.859375 L 21.054688 26.457031 L 25.048828 33.373047 L 29.912109 24.949219 L 30.59375 23.767578 L 34.015625 17.841797 L 36 21.277344 L 36 20.876953 L 34.015625 17.441406 z M 12 36 L 12 36.400391 L 23.308594 36.400391 L 23.078125 36 L 12 36 z M 27.001953 36 L 26.769531 36.400391 L 36 36.400391 L 36 36 L 27.001953 36 z" transform="translate(0,1004.3622)"/><path id="path4130" fill="url(#linearGradient4219)" fill-opacity="1" stroke="none" d="m 34.00001,1038.3615 0,14.0007 14,-14 z"/><path id="path4303" fill="url(#linearGradient4439)" fill-opacity="1" stroke="none" d="m 48.00001,1038.3622 -14,14 12.05469,0 c 1.07728,0 1.94531,-0.868 1.94531,-1.9453 l 0,-12.0547 z"/><path id="path4784" fill="url(#linearGradient4786)" fill-opacity="1" stroke="none" d="m 34.00001,1052.3622 0,-14.0007 -14,14 z" opacity=".1"/><path id="rect846-0-4" fill="#000" fill-opacity="1" stroke="none" d="m -1e-5,1049.3622 0,1.0625 c 0,1.0773 0.86022,1.9375 1.9375,1.9375 l 44.125,0 c 1.07728,0 1.9375,-0.8602 1.9375,-1.9375 l 0,-1.0625 c 0,1.0773 -0.86022,1.9375 -1.9375,1.9375 l -44.125,0 c -1.07728,0 -1.9375,-0.8602 -1.9375,-1.9375 z"/><path id="rect4280-1-1" fill="#000" fill-opacity=".392" stroke="none" d="m 1.93749,1004.3622 c -1.07728,0 -1.9375,0.8602 -1.9375,1.9375 l 0,43.0625 c 0,0.7934 0.48002,1.449 1.15625,1.75 -0.30934,-0.3333 -0.5,-0.7824 -0.5,-1.2812 l 0,-42.9375 c 0,-1.0482 0.8269,-1.875 1.875,-1.875 l 42.9375,0 c 1.0481,0 1.875,0.8268 1.875,1.875 l 0,42.9375 c 0,0.4988 -0.19066,0.9479 -0.5,1.2812 0.67623,-0.301 1.15625,-0.9566 1.15625,-1.75 l 0,-43.0625 c 0,-1.0773 -0.86022,-1.9375 -1.9375,-1.9375 l -44.125,0 z"/></g></svg>