<svg xmlns="http://www.w3.org/2000/svg" xmlns:svg="http://www.w3.org/2000/svg" id="svg2" width="22" height="22" enable-background="new" version="1.1" viewBox="0 0 22 22"><metadata id="metadata16"/><path color="#000" style="text-decoration-line:none;text-decoration-style:solid;text-decoration-color:#000;isolation:auto;mix-blend-mode:normal;solid-color:#000;solid-opacity:1" id="rect4205" fill="#424854" fill-opacity="1" fill-rule="nonzero" stroke="none" stroke-dasharray="none" stroke-dashoffset="0" stroke-linecap="butt" stroke-linejoin="miter" stroke-miterlimit="4" stroke-opacity="1" stroke-width="1" d="M 11 3 C 8.7840005 3 7 4.7840005 7 7 C 7 9.2159995 8.7840005 11 11 11 C 13.215999 11 15 9.2159995 15 7 C 15 4.7840005 13.215999 3 11 3 z M 11 4 C 12.662 4 14 5.3380004 14 7 C 14 8.6619996 12.662 10 11 10 C 9.3380004 10 8 8.6619996 8 7 C 8 5.3380004 9.3380004 4 11 4 z M 11 12 C 6.9074628 12 3.5584191 15.044327 3.0683594 19 L 4.078125 19 C 4.5619413 15.600642 7.462784 13 11 13 C 14.537216 13 17.438059 15.600642 17.921875 19 L 18.931641 19 C 18.441581 15.044327 15.092537 12 11 12 z" clip-rule="nonzero" color-interpolation="sRGB" color-interpolation-filters="linearRGB" color-rendering="auto" display="inline" enable-background="accumulate" image-rendering="auto" opacity="1" overflow="visible" shape-rendering="auto" text-decoration="none" text-rendering="auto" visibility="visible"/></svg>