<svg xmlns="http://www.w3.org/2000/svg" xmlns:svg="http://www.w3.org/2000/svg" id="svg2" width="22" height="22" version="1.1" viewBox="0 0 22 22"><metadata id="metadata12"/><defs id="defs10"><clipPath id="clipPath6"><rect id="rect8" width="3.825" height="6.375" x="26.85" y="220.75" fill="#bebebe" color="#bebebe"/></clipPath><clipPath id="clipPath10"><rect id="rect12" width="2.898" height="5.216" x="26.966" y="221.33" fill="#bebebe" color="#bebebe"/></clipPath><clipPath id="clipPath14"><rect id="rect16" width="1.876" height="4.874" x="26.999" y="221.5" fill="#bebebe" color="#bebebe"/></clipPath><clipPath id="clipPath3025"><rect id="rect3027" width="1.876" height="4.874" x="26.999" y="221.5" fill="#bebebe" color="#bebebe"/></clipPath><clipPath id="clipPath3021"><rect id="rect3023" width="2.898" height="5.216" x="26.966" y="221.33" fill="#bebebe" color="#bebebe"/></clipPath><clipPath id="clipPath3017"><rect id="rect3019" width="3.825" height="6.375" x="26.85" y="220.75" fill="#bebebe" color="#bebebe"/></clipPath></defs><path id="rect4236" fill="#f92d36" fill-opacity="1" stroke="none" stroke-dasharray="none" stroke-miterlimit="4" stroke-opacity="1" stroke-width=".1" d="m 3,6.999996 0,8.000008 1,0 13,0 0,-0.999999 0,-1 1,0 1,0 0,-4.000009 -1,0 -1,0 0,-1 0,-1 -1,0 -12,0 z m 1,1 12,0 0,6.000009 -12,0 z m 13,2 1,0 0,2.000009 -1,0 z" opacity="1"/></svg>