<svg xmlns="http://www.w3.org/2000/svg" xmlns:svg="http://www.w3.org/2000/svg" id="svg2" width="22" height="22" version="1.1" viewBox="0 0 22 22"><metadata id="metadata16"/><path color="#000" style="text-decoration-line:none;text-decoration-style:solid;text-decoration-color:#000;isolation:auto;mix-blend-mode:normal;solid-color:#000;solid-opacity:1" id="rect4177" fill="#424854" fill-opacity="1" fill-rule="nonzero" stroke="none" stroke-dasharray="none" stroke-dashoffset="0" stroke-linecap="butt" stroke-linejoin="miter" stroke-miterlimit="4" stroke-opacity="1" stroke-width="1" d="M 10,3 10,3.5351562 10,10.333984 5.7167969,7.4726562 5.1933594,8.34375 l 4,2.65625 -4,2.65625 0.5234375,0.871094 L 10,11.666016 10,19 11,19 11.002,19 17,15.019531 17,15 17,14.980469 11.001953,11 17,7.0195312 17,7 17,6.9804688 11.001953,3 11,3 10,3 Z M 11,4.1992188 15.220703,7 11,9.8007812 11,4.1992188 Z M 11,12.199219 15.220703,15 11,17.800781 11,12.199219 Z" clip-rule="nonzero" color-interpolation="sRGB" color-interpolation-filters="linearRGB" color-rendering="auto" display="inline" enable-background="accumulate" image-rendering="auto" opacity="1" overflow="visible" shape-rendering="auto" text-decoration="none" text-rendering="auto" visibility="visible"/></svg>