<svg xmlns="http://www.w3.org/2000/svg" xmlns:svg="http://www.w3.org/2000/svg" id="svg2" width="22" height="22" version="1.1" viewBox="0 0 22 22"><metadata id="metadata28"/><path color="#000" style="text-decoration-line:none;text-decoration-style:solid;text-decoration-color:#000;isolation:auto;mix-blend-mode:normal;solid-color:#000;solid-opacity:1" id="path4153" fill="#424854" fill-opacity="1" fill-rule="nonzero" stroke="none" stroke-dasharray="none" stroke-dashoffset="0" stroke-linecap="butt" stroke-linejoin="miter" stroke-miterlimit="4" stroke-opacity="1" stroke-width="1" d="M 10 3 L 10 3.5351562 L 10 10.333984 L 5.7167969 7.4726562 L 5.1933594 8.34375 L 9.1933594 11 L 5.1933594 13.65625 L 5.7167969 14.527344 L 10 11.666016 L 10 19 L 11 19 L 11.001953 19 L 13 17.673828 L 13 16.472656 L 11 17.800781 L 11 12.199219 L 14 14.189453 L 14 13 L 14.017578 13 L 11.001953 11 L 17 7.0195312 L 17 7 L 17 6.9804688 L 11.001953 3 L 11 3 L 10 3 z M 11 4.1992188 L 15.220703 7 L 11 9.8007812 L 11 4.1992188 z M 15.220703 15 L 14 15.810547 L 14 16 L 15.523438 16 L 17 15.019531 L 17 15 L 15.220703 15 z" clip-rule="nonzero" color-interpolation="sRGB" color-interpolation-filters="linearRGB" color-rendering="auto" display="inline" enable-background="accumulate" image-rendering="auto" opacity="1" overflow="visible" shape-rendering="auto" text-decoration="none" text-rendering="auto" visibility="visible"/><path color="#000" style="text-decoration-line:none;text-decoration-style:solid;text-decoration-color:#000;isolation:auto;mix-blend-mode:normal;solid-color:#000;solid-opacity:1" id="path4149" fill="#f9832d" fill-opacity="1" fill-rule="nonzero" stroke="none" stroke-dasharray="none" stroke-dashoffset="0" stroke-linecap="butt" stroke-linejoin="miter" stroke-miterlimit="4" stroke-opacity="1" stroke-width="1" d="m 16,11 c -1.108,0 -2,0.892 -2,2 l 0,2 -1,0 0,4 6,0 0,-4 -1,0 0,-2 c 0,-1.108 -0.892,-2 -2,-2 z m 0,1 c 0.554,0 1,0.446 1,1 l 0,2 -2,0 0,-2 c 0,-0.554 0.446,-1 1,-1 z m -2,4 4,0 0,2 -4,0 0,-2 z" clip-rule="nonzero" color-interpolation="sRGB" color-interpolation-filters="linearRGB" color-rendering="auto" display="inline" enable-background="accumulate" image-rendering="auto" opacity="1" overflow="visible" shape-rendering="auto" text-decoration="none" text-rendering="auto" visibility="visible"/></svg>