<svg xmlns="http://www.w3.org/2000/svg" xmlns:svg="http://www.w3.org/2000/svg" id="svg2" width="22" height="22" version="1.1" viewBox="0 0 22 22"><metadata id="metadata42"/><path color="#000" style="text-decoration-line:none;text-decoration-style:solid;text-decoration-color:#000;isolation:auto;mix-blend-mode:normal;solid-color:#000;solid-opacity:1" id="rect4177" fill="#424854" fill-opacity="1" fill-rule="nonzero" stroke="none" stroke-dasharray="none" stroke-dashoffset="0" stroke-linecap="butt" stroke-linejoin="miter" stroke-miterlimit="4" stroke-opacity="1" stroke-width="1" d="M 9 3 L 9 7 L 10 7 L 10 3 L 9 3 z M 6 5 L 6 8 L 7 8 L 7 5 L 6 5 z M 11 5 L 11 8 L 12 8 L 12 5 L 11 5 z M 13 6 L 13 8 L 14 8 L 14 6 L 13 6 z M 4 9 L 4 13 C 4 15.216 5.784 17 8 17 L 12 17 C 13.482971 17 14.75838 16.192708 15.449219 15 L 16 15 C 18 15 18 13 18 13 L 18 12 C 18 12 18 10 16 10 L 16 9 L 4 9 z M 5 10 L 15 10 L 15 10.375 L 15 11 L 15 13 C 15 14.662 13.662 16 12 16 L 8 16 C 6.338 16 5 14.662 5 13 L 5 10 z M 16 11 C 16 11 17 11 17 12 L 17 13 C 17 14 16 14 16 14 L 15.861328 14 C 15.943828 13.679001 16 13.34745 16 13 L 16 11 z M 5 18 L 5 19 L 15 19 L 15 18 L 5 18 z" clip-rule="nonzero" color-interpolation="sRGB" color-interpolation-filters="linearRGB" color-rendering="auto" display="inline" enable-background="accumulate" image-rendering="auto" opacity="1" overflow="visible" shape-rendering="auto" text-decoration="none" text-rendering="auto" visibility="visible"/></svg>