<svg xmlns="http://www.w3.org/2000/svg" xmlns:svg="http://www.w3.org/2000/svg" id="svg2" width="22" height="22" version="1.1" viewBox="0 0 22 22"><metadata id="metadata20"/><path id="polygon8" fill="#6bb9f0" fill-opacity="1" d="M 7.4589844 3 L 2.3984375 6.3046875 L 5.8984375 9.1054688 L 11 5.9550781 L 7.4589844 3 z M 11 5.9550781 L 16.101562 9.1054688 L 19.601562 6.3046875 L 14.541016 3 L 11 5.9550781 z M 16.101562 9.1054688 L 11 12.255859 L 14.541016 15.210938 L 19.601562 11.908203 L 16.101562 9.1054688 z M 11 12.255859 L 5.8984375 9.1054688 L 2.3984375 11.908203 L 7.4589844 15.210938 L 11 12.255859 z M 11.009766 12.892578 L 7.4589844 15.837891 L 5.9394531 14.847656 L 5.9394531 15.958984 L 11.009766 19 L 16.082031 15.958984 L 16.082031 14.847656 L 14.5625 15.837891 L 11.009766 12.892578 z"/></svg>