<svg xmlns="http://www.w3.org/2000/svg" xmlns:svg="http://www.w3.org/2000/svg" id="svg2" width="22" height="22" version="1.1" viewBox="0 0 22 22"><metadata id="metadata20"/><defs id="defs18"><clipPath id="clipPath6"><rect id="rect8" width="3.825" height="6.375" x="26.85" y="220.75" fill="#bebebe" color="#bebebe"/></clipPath><clipPath id="clipPath10"><rect id="rect12" width="2.898" height="5.216" x="26.966" y="221.33" fill="#bebebe" color="#bebebe"/></clipPath><clipPath id="clipPath14"><rect id="rect16" width="1.876" height="4.874" x="26.999" y="221.5" fill="#bebebe" color="#bebebe"/></clipPath><clipPath id="clipPath3025"><rect id="rect3027" width="1.876" height="4.874" x="26.999" y="221.5" fill="#bebebe" color="#bebebe"/></clipPath><clipPath id="clipPath3021"><rect id="rect3023" width="2.898" height="5.216" x="26.966" y="221.33" fill="#bebebe" color="#bebebe"/></clipPath><clipPath id="clipPath3017"><rect id="rect3019" width="3.825" height="6.375" x="26.85" y="220.75" fill="#bebebe" color="#bebebe"/></clipPath></defs><path id="polygon8" fill="#f92d36" fill-opacity="1" d="M 7.4589844 3 L 2.3984375 6.3046875 L 5.8984375 9.1054688 L 11 5.9550781 L 7.4589844 3 z M 11 5.9550781 L 16.101562 9.1054688 L 19.601562 6.3046875 L 14.541016 3 L 11 5.9550781 z M 16.101562 9.1054688 L 11 12.255859 L 14.541016 15.210938 L 19.601562 11.908203 L 16.101562 9.1054688 z M 11 12.255859 L 5.8984375 9.1054688 L 2.3984375 11.908203 L 7.4589844 15.210938 L 11 12.255859 z M 11.009766 12.892578 L 7.4589844 15.837891 L 5.9394531 14.847656 L 5.9394531 15.958984 L 11.009766 19 L 16.082031 15.958984 L 16.082031 14.847656 L 14.5625 15.837891 L 11.009766 12.892578 z"/></svg>