<svg xmlns="http://www.w3.org/2000/svg" xmlns:svg="http://www.w3.org/2000/svg" id="svg2" width="22" height="22" version="1.1" viewBox="0 0 22 22"><metadata id="metadata12"/><path color="#000" style="text-decoration-line:none;text-decoration-style:solid;text-decoration-color:#000;isolation:auto;mix-blend-mode:normal;solid-color:#000;solid-opacity:1" id="rect4192" fill="#424854" fill-opacity="1" fill-rule="nonzero" stroke="none" stroke-dasharray="none" stroke-dashoffset="0" stroke-linecap="butt" stroke-linejoin="miter" stroke-miterlimit="4" stroke-opacity="1" stroke-width="1" d="M 3 3 L 3 9 L 3 11.400391 L 3 12.400391 L 3 12.5625 L 3 13.400391 L 3 19 L 19 19 L 19 13.21875 L 19 12.5 L 19 11.802734 L 19 9 L 19 8.40625 L 19 3 L 3 3 z M 4 4 L 18 4 L 18 8.40625 L 18 9 L 18 10.802734 L 18 12.21875 L 18 12.5 L 18 15 L 4 15 L 4 12 L 4 11.808594 L 4 10.392578 L 4 9 L 4 4 z M 10 5 L 10 10 L 10 11 L 11 11 L 16 11 L 16 10 L 11 10 L 11 5 L 10 5 z M 4 16 L 18 16 L 18 18 L 4 18 L 4 16 z" clip-rule="nonzero" color-interpolation="sRGB" color-interpolation-filters="linearRGB" color-rendering="auto" display="inline" enable-background="accumulate" image-rendering="auto" opacity="1" overflow="visible" shape-rendering="auto" text-decoration="none" text-rendering="auto" visibility="visible"/></svg>