<svg xmlns="http://www.w3.org/2000/svg" xmlns:svg="http://www.w3.org/2000/svg" id="svg2" version="1.1" viewBox="0 0 22 22"><metadata id="metadata20"/><path color="#000" style="text-decoration-line:none;text-decoration-style:solid;text-decoration-color:#000;isolation:auto;mix-blend-mode:normal;solid-color:#000;solid-opacity:1" id="rect4208" fill="#424854" fill-opacity="1" fill-rule="nonzero" stroke="none" stroke-dasharray="none" stroke-dashoffset="0" stroke-linecap="butt" stroke-linejoin="miter" stroke-miterlimit="4" stroke-opacity="1" stroke-width="1" d="M 11 15 C 9.892 15 9 15.892 9 17 C 9 18.108 9.892 19 11 19 C 12.108 19 13 18.108 13 17 C 13 15.892 12.108 15 11 15 z M 11 16 C 11.554 16 12 16.446 12 17 C 12 17.554 11.554 18 11 18 C 10.446 18 10 17.554 10 17 C 10 16.446 10.446 16 11 16 z" clip-rule="nonzero" color-interpolation="sRGB" color-interpolation-filters="linearRGB" color-rendering="auto" display="inline" enable-background="accumulate" image-rendering="auto" opacity="1" overflow="visible" shape-rendering="auto" text-decoration="none" text-rendering="auto" visibility="visible"/><path color="#000" style="text-decoration-line:none;text-decoration-style:solid;text-decoration-color:#000;isolation:auto;mix-blend-mode:normal;solid-color:#000;solid-opacity:1" id="rect4210" fill="#424854" fill-opacity="1" fill-rule="nonzero" stroke="none" stroke-dasharray="none" stroke-dashoffset="0" stroke-linecap="butt" stroke-linejoin="miter" stroke-miterlimit="4" stroke-opacity="1" stroke-width="1" d="M 11 3 C 6.845 3 3.0940625 4.6715625 0.3828125 7.3828125 L 1.0917969 8.0917969 C 3.6222969 5.5612969 7.122 4 11 4 C 14.878 4 18.377703 5.5612969 20.908203 8.0917969 L 21.617188 7.3828125 C 18.905938 4.6715625 15.155 3 11 3 z" clip-rule="nonzero" color-interpolation="sRGB" color-interpolation-filters="linearRGB" color-rendering="auto" display="inline" enable-background="accumulate" image-rendering="auto" opacity=".5" overflow="visible" shape-rendering="auto" text-decoration="none" text-rendering="auto" visibility="visible"/><path color="#000" style="text-decoration-line:none;text-decoration-style:solid;text-decoration-color:#000;isolation:auto;mix-blend-mode:normal;solid-color:#000;solid-opacity:1" id="rect4215" fill="#424854" fill-opacity="1" fill-rule="nonzero" stroke="none" stroke-dasharray="none" stroke-dashoffset="0" stroke-linecap="butt" stroke-linejoin="miter" stroke-miterlimit="4" stroke-opacity="1" stroke-width="1" d="M 11 6 C 7.676 6 4.6768125 7.3388125 2.5078125 9.5078125 L 3.2148438 10.214844 C 5.2030937 8.2265937 7.953 7 11 7 C 14.047 7 16.796906 8.2265937 18.785156 10.214844 L 19.492188 9.5078125 C 17.323187 7.3388125 14.324 6 11 6 z" clip-rule="nonzero" color-interpolation="sRGB" color-interpolation-filters="linearRGB" color-rendering="auto" display="inline" enable-background="accumulate" image-rendering="auto" opacity="1" overflow="visible" shape-rendering="auto" text-decoration="none" text-rendering="auto" visibility="visible"/><path color="#000" style="text-decoration-line:none;text-decoration-style:solid;text-decoration-color:#000;isolation:auto;mix-blend-mode:normal;solid-color:#000;solid-opacity:1" id="rect4220" fill="#424854" fill-opacity="1" fill-rule="nonzero" stroke="none" stroke-dasharray="none" stroke-dashoffset="0" stroke-linecap="butt" stroke-linejoin="miter" stroke-miterlimit="4" stroke-opacity="1" stroke-width="1" d="M 11 9 C 8.507 9 6.2576094 10.004109 4.6308594 11.630859 L 5.3378906 12.337891 C 6.7838906 10.891891 8.784 10 11 10 C 13.216 10 15.216109 10.891891 16.662109 12.337891 L 17.369141 11.630859 C 15.742391 10.004109 13.493 9 11 9 z" clip-rule="nonzero" color-interpolation="sRGB" color-interpolation-filters="linearRGB" color-rendering="auto" display="inline" enable-background="accumulate" image-rendering="auto" opacity="1" overflow="visible" shape-rendering="auto" text-decoration="none" text-rendering="auto" visibility="visible"/><path color="#000" style="text-decoration-line:none;text-decoration-style:solid;text-decoration-color:#000;isolation:auto;mix-blend-mode:normal;solid-color:#000;solid-opacity:1" id="rect4225" fill="#424854" fill-opacity="1" fill-rule="nonzero" stroke="none" stroke-dasharray="none" stroke-dashoffset="0" stroke-linecap="butt" stroke-linejoin="miter" stroke-miterlimit="4" stroke-opacity="1" stroke-width="1" d="M 11 12 C 9.338 12 7.8384062 12.669406 6.7539062 13.753906 L 7.4609375 14.460938 C 8.3646875 13.557187 9.615 13 11 13 C 12.385 13 13.635312 13.557188 14.539062 14.460938 L 15.246094 13.753906 C 14.161594 12.669406 12.662 12 11 12 z" clip-rule="nonzero" color-interpolation="sRGB" color-interpolation-filters="linearRGB" color-rendering="auto" display="inline" enable-background="accumulate" image-rendering="auto" opacity="1" overflow="visible" shape-rendering="auto" text-decoration="none" text-rendering="auto" visibility="visible"/></svg>