<svg xmlns="http://www.w3.org/2000/svg" xmlns:svg="http://www.w3.org/2000/svg" id="svg2" width="22" height="22" version="1.1" viewBox="0 0 22 22"><metadata id="metadata40"/><path color="#000" style="text-decoration-line:none;text-decoration-style:solid;text-decoration-color:#000;isolation:auto;mix-blend-mode:normal;solid-color:#000;solid-opacity:1" id="rect4191" fill="#424854" fill-opacity="1" fill-rule="nonzero" stroke="none" stroke-dasharray="none" stroke-dashoffset="0" stroke-linecap="butt" stroke-linejoin="miter" stroke-miterlimit="4" stroke-opacity="1" stroke-width="1" d="M 15 3 L 15 7 L 17 7 L 17 9 L 14 9 L 14 6 L 7 6 L 7 9 L 6 9 L 6 8 L 3 8 L 3 9 L 2 9 L 2 19 L 20 19 L 20 9 L 18 9 L 18 7 L 20 7 L 20 3 L 15 3 z M 16 4 L 19 4 L 19 6 L 18 6 L 17 6 L 16 6 L 16 4 z M 9 7 L 12 7 L 12 8 L 9 8 L 9 7 z M 3 10 L 11 10 L 17 10 L 17 18 L 11 18 L 3 18 L 3 10 z M 11 18 C 13.216 18 15 16.216 15 14 C 15 11.784 13.216 10 11 10 C 8.784 10 7 11.784 7 14 C 7 16.216 8.784 18 11 18 z M 18 10 L 19 10 L 19 18 L 18 18 L 18 10 z M 11 11 C 12.662 11 14 12.338 14 14 C 14 15.662 12.662 17 11 17 C 9.338 17 8 15.662 8 14 C 8 12.338 9.338 11 11 11 z M 4 11.513672 L 4 13 L 6 13 L 6 11.513672 L 4 11.513672 z" clip-rule="nonzero" color-interpolation="sRGB" color-interpolation-filters="linearRGB" color-rendering="auto" display="inline" enable-background="accumulate" image-rendering="auto" opacity="1" overflow="visible" shape-rendering="auto" text-decoration="none" text-rendering="auto" visibility="visible"/></svg>