<svg xmlns="http://www.w3.org/2000/svg" xmlns:svg="http://www.w3.org/2000/svg" id="svg2" width="22" height="22" version="1.1" viewBox="0 0 22 22"><metadata id="metadata12"/><path id="rect4156" fill="#424854" fill-opacity="1" stroke="none" stroke-dasharray="none" stroke-miterlimit="4" stroke-opacity=".55" stroke-width="2.8" d="m 8,3 0,1 0,5 -2.300781,0 0.0039,0.0039 -0.703125,0.703125 5.292969,5.292969 0.707031,0.707031 0.707031,-0.707031 L 16.999994,9.707025 16.296869,9.0039 16.300769,9 16.292969,9 14,9 14,4 14,3 8,3 Z m 1,1 4,0 0,6 1,0 1.292969,0 L 11,14.292969 6.707031,10 8,10 9,10 9,4 Z m -5,13 0,2 1,0 13,0 0,-1 0,-1 -1,0 0,1 -12,0 0,-1 -1,0 z" opacity="1"/></svg>