<svg xmlns="http://www.w3.org/2000/svg" xmlns:svg="http://www.w3.org/2000/svg" id="svg2" width="22" height="22" version="1.1" viewBox="0 0 22 22"><metadata id="metadata14"/><path id="rect4162" fill="#424854" fill-opacity="1" stroke="none" d="m 3,3 0,1 0,9 0,1 0,1 8,0 0,3 0,1 0.04687,0 0.652344,0 0.01172,0 4,-4 L 19,15 19,14 19,12.492188 19,3 4,3 Z m 1,1 14,0 0,9 0,1 -14,0 0,-1 z M 7,8 C 6.446,8 6,8.446 6,9 6,9.554 6.446,10 7,10 7.554,10 8,9.554 8,9 8,8.446 7.554,8 7,8 Z m 4,0 c -0.554,0 -1,0.446 -1,1 0,0.554 0.446,1 1,1 0.554,0 1,-0.446 1,-1 0,-0.554 -0.446,-1 -1,-1 z m 4,0 c -0.554,0 -1,0.446 -1,1 0,0.554 0.446,1 1,1 0.554,0 1,-0.446 1,-1 0,-0.554 -0.446,-1 -1,-1 z m -3,7 2.292969,0 L 12,17.292969 Z" opacity="1"/></svg>