<svg xmlns="http://www.w3.org/2000/svg" xmlns:svg="http://www.w3.org/2000/svg" id="svg2" width="22" height="22" version="1.1" viewBox="0 0 22 22"><metadata id="metadata14"/><path id="rect4162" fill="#d35400" fill-opacity="1" stroke="none" d="M 3 3 L 3 4 L 3 13 L 3 14 L 3 15 L 11 15 L 11 18 L 11 19 L 11.046875 19 L 11.699219 19 L 11.710938 19 L 15.710938 15 L 19 15 L 19 14 L 19 12.492188 L 19 3 L 4 3 L 3 3 z M 4 4 L 18 4 L 18 13 L 18 14 L 4 14 L 4 13 L 4 4 z M 8 6 L 8 12 L 14 12 L 14 6 L 8 6 z M 12 15 L 14.292969 15 L 12 17.292969 L 12 15 z" opacity="1"/></svg>