<svg xmlns="http://www.w3.org/2000/svg" xmlns:svg="http://www.w3.org/2000/svg" id="svg2" width="22" height="22" version="1.1" viewBox="0 0 22 22"><metadata id="metadata32"/><path color="#000" style="text-decoration-line:none;text-decoration-style:solid;text-decoration-color:#000;isolation:auto;mix-blend-mode:normal;solid-color:#000;solid-opacity:1" id="rect4199" fill="#424854" fill-opacity="1" fill-rule="nonzero" stroke="none" stroke-dasharray="none" stroke-dashoffset="0" stroke-linecap="butt" stroke-linejoin="miter" stroke-miterlimit="4" stroke-opacity="1" stroke-width="1" d="M 11,3 C 8.23,3 6,5.23 6,8 l 0,5 c 0,2.05682 1.2328358,3.810613 3,4.580078 L 9,19 l 0,1 1,0 0,2 2,0 0,-2 1,0 0,-1 0,-1.419922 C 14.767164,16.810613 16,15.05682 16,13 L 16,8 C 16,5.23 13.77,3 11,3 Z M 10.5,4.0488281 10.5,5 l 1,0 0,-0.9511719 C 13.13996,4.2538468 14.458302,5.4319271 14.861328,7 L 12,7 l 0,1 3,0 0,1 -3,0 0,1 3,0 0,1 -3,0 0,1 3,0 0,1 -3,0 0,1 2.861328,0 C 14.417636,15.726297 12.86855,17 11,17 9.13145,17 7.5823641,15.726297 7.1386719,14 L 10,14 l 0,-1 -3,0 0,-1 3,0 0,-1 -3,0 0,-1 3,0 L 10,9 7,9 7,8 10,8 10,7 7.1386719,7 C 7.5416975,5.4319271 8.8600405,4.2538468 10.5,4.0488281 Z M 10,17.900391 C 10.323084,17.965505 10.657169,18 11,18 c 0.342832,0 0.676916,-0.03449 1,-0.09961 L 12,19 l -2,0 0,-1.099609 z" clip-rule="nonzero" color-interpolation="sRGB" color-interpolation-filters="linearRGB" color-rendering="auto" display="inline" enable-background="accumulate" image-rendering="auto" opacity=".5" overflow="visible" shape-rendering="auto" text-decoration="none" text-rendering="auto" visibility="visible"/></svg>