<svg xmlns="http://www.w3.org/2000/svg" xmlns:svg="http://www.w3.org/2000/svg" id="svg7384" width="16" height="16" version="1.1"><title id="title9167">Gnome Symbolic Icon Theme</title><metadata id="metadata90"/><path id="path524" fill="#bebebe" fill-opacity="1" fill-rule="nonzero" stroke="none" d="M 2 2 L 2 3.5 L 2 12.5 L 2 14 L 5 14 L 8.0527344 14 L 8.0527344 9.6972656 L 6.6152344 9.6972656 L 6.6152344 7.8222656 L 8.0527344 7.8222656 L 8.0527344 6.8828125 C 8.0527344 5.4345885 9.1195198 4.3027344 10.484375 4.3027344 L 11.808594 4.3027344 L 11.808594 6.4179688 L 10.625 6.4179688 C 10.315304 6.4179688 10.224609 6.5964659 10.224609 6.8417969 L 10.224609 7.8222656 L 11.808594 7.8222656 L 11.808594 9.6972656 L 10.224609 9.6972656 L 10.224609 14 L 12 14 L 12.5 14 L 14 14 L 14 12.5 L 14 3.5 L 14 2 L 12.5 2 L 12 2 L 5 2 L 2 2 z"/></svg>