<svg xmlns="http://www.w3.org/2000/svg" xmlns:svg="http://www.w3.org/2000/svg" id="svg7384" width="16" height="16" version="1.1"><title id="title9167">Gnome Symbolic Icon Theme</title><metadata id="metadata90"/><path color="#000" style="text-decoration-line:none;text-decoration-style:solid;text-decoration-color:#000;isolation:auto;mix-blend-mode:normal;solid-color:#000;solid-opacity:1" id="rect4157" fill="#bebebe" fill-opacity="1" fill-rule="nonzero" stroke="none" stroke-dasharray="none" stroke-dashoffset="0" stroke-linecap="butt" stroke-linejoin="miter" stroke-miterlimit="4" stroke-opacity="1" stroke-width="1" d="M 10.261719,2 C 9.5629287,2 9,2.5629287 9,3.2617188 c 0,0.69879 0.5629287,1.2617187 1.261719,1.2617187 0.69879,0 1.261719,-0.5629287 1.261719,-1.2617187 C 11.523438,2.5629287 10.960509,2 10.261719,2 Z M 8,4 6.984375,7.0488281 C 6.8245946,7.0266703 6.6660692,7 6.5,7 4.561,7 3,8.561 3,10.5 3,12.439 4.561,14 6.5,14 8.439,14 10,12.439 10,10.5 10,10.328627 9.97474,10.164651 9.95117,10 L 10,10 12,14 12.699219,13 11.099609,9 10,9 10,8.3339844 12,9 12,8.4980469 10,6.8320312 10,5 8,4 Z M 6.5,8 C 6.555458,8 6.6075713,8.012104 6.6621094,8.015625 L 6,10 8.9492188,10 C 8.9816737,10.1613 9,10.32886 9,10.5 9,11.885 7.885,13 6.5,13 5.115,13 4,11.885 4,10.5 4,9.115 5.115,8 6.5,8 Z" clip-rule="nonzero" color-interpolation="sRGB" color-interpolation-filters="linearRGB" color-rendering="auto" display="inline" enable-background="accumulate" image-rendering="auto" opacity="1" overflow="visible" shape-rendering="auto" text-decoration="none" text-rendering="auto" visibility="visible"/></svg>